<?xml version="1.0" encoding="UTF-8" standalone="no"?>
<!DOCTYPE svg PUBLIC "-//W3C//DTD SVG 1.1//EN"
 "http://www.w3.org/Graphics/SVG/1.1/DTD/svg11.dtd">
<!-- Generated by graphviz version 2.43.0 (0)
 -->
<!-- Title: AbstractDesign Pages: 1 -->
<svg width="1819pt" height="343pt"
 viewBox="0.00 0.00 1819.36 342.53" xmlns="http://www.w3.org/2000/svg" xmlns:xlink="http://www.w3.org/1999/xlink">
<g id="graph0" class="graph" transform="scale(1 1) rotate(0) translate(4 338.53)">
<title>AbstractDesign</title>
<polygon fill="white" stroke="transparent" points="-4,4 -4,-338.53 1815.36,-338.53 1815.36,4 -4,4"/>
<!-- l1_l2a -->
<g id="node1" class="node">
<title>l1_l2a</title>
<ellipse fill="none" stroke="black" cx="295.15" cy="-86.27" rx="86.03" ry="86.03"/>
<text text-anchor="middle" x="295.15" y="-90.07" font-family="Times,serif" font-size="14.00">Transmutation</text>
<text text-anchor="middle" x="295.15" y="-75.07" font-family="Times,serif" font-size="14.00">l1 to L2a</text>
</g>
<!-- l2a_data -->
<g id="node8" class="node">
<title>l2a_data</title>
<polygon fill="none" stroke="black" points="564.06,-158.27 454.06,-158.27 454.06,-122.27 564.06,-122.27 564.06,-158.27"/>
<text text-anchor="middle" x="509.06" y="-136.57" font-family="Times,serif" font-size="14.00">L2a products</text>
</g>
<!-- l1_l2a&#45;&gt;l2a_data -->
<g id="edge4" class="edge">
<title>l1_l2a&#45;&gt;l2a_data</title>
<path fill="none" stroke="black" stroke-dasharray="5,2" d="M362.54,-140.27C362.54,-140.27 443.83,-140.27 443.83,-140.27"/>
<polygon fill="black" stroke="black" points="443.83,-143.77 453.83,-140.27 443.83,-136.77 443.83,-143.77"/>
</g>
<!-- l2a_man -->
<g id="node10" class="node">
<title>l2a_man</title>
<ellipse fill="none" stroke="black" cx="509.06" cy="-86.27" rx="91.78" ry="18"/>
<text text-anchor="middle" x="509.06" y="-82.57" font-family="Times,serif" font-size="14.00">L2a manifest 1..1</text>
</g>
<!-- l1_l2a&#45;&gt;l2a_man -->
<g id="edge5" class="edge">
<title>l1_l2a&#45;&gt;l2a_man</title>
<path fill="none" stroke="black" d="M381.54,-86.27C381.54,-86.27 407.11,-86.27 407.11,-86.27"/>
<polygon fill="black" stroke="black" points="407.11,-89.77 417.11,-86.27 407.11,-82.77 407.11,-89.77"/>
</g>
<!-- l2a_log -->
<g id="node11" class="node">
<title>l2a_log</title>
<ellipse fill="none" stroke="black" cx="509.06" cy="-32.27" rx="65.79" ry="18"/>
<text text-anchor="middle" x="509.06" y="-28.57" font-family="Times,serif" font-size="14.00">L2a log 1..1</text>
</g>
<!-- l1_l2a&#45;&gt;l2a_log -->
<g id="edge6" class="edge">
<title>l1_l2a&#45;&gt;l2a_log</title>
<path fill="none" stroke="black" stroke-dasharray="5,2" d="M362.54,-32.27C362.54,-32.27 433.11,-32.27 433.11,-32.27"/>
<polygon fill="black" stroke="black" points="433.11,-35.77 443.11,-32.27 433.11,-28.77 433.11,-35.77"/>
</g>
<!-- l2a_l2b -->
<g id="node2" class="node">
<title>l2a_l2b</title>
<ellipse fill="none" stroke="black" cx="722.97" cy="-140.27" rx="86.03" ry="86.03"/>
<text text-anchor="middle" x="722.97" y="-144.07" font-family="Times,serif" font-size="14.00">Transmutation</text>
<text text-anchor="middle" x="722.97" y="-129.07" font-family="Times,serif" font-size="14.00">L2a to L2b</text>
</g>
<!-- l2b_data -->
<g id="node12" class="node">
<title>l2b_data</title>
<polygon fill="none" stroke="black" points="993.03,-212.27 882.03,-212.27 882.03,-176.27 993.03,-176.27 993.03,-212.27"/>
<text text-anchor="middle" x="937.53" y="-190.57" font-family="Times,serif" font-size="14.00">L2b products</text>
</g>
<!-- l2a_l2b&#45;&gt;l2b_data -->
<g id="edge10" class="edge">
<title>l2a_l2b&#45;&gt;l2b_data</title>
<path fill="none" stroke="black" stroke-dasharray="5,2" d="M790.27,-194.27C790.27,-194.27 871.98,-194.27 871.98,-194.27"/>
<polygon fill="black" stroke="black" points="871.98,-197.77 881.98,-194.27 871.98,-190.77 871.98,-197.77"/>
</g>
<!-- l2b_log -->
<g id="node14" class="node">
<title>l2b_log</title>
<ellipse fill="none" stroke="black" cx="937.53" cy="-140.27" rx="65.79" ry="18"/>
<text text-anchor="middle" x="937.53" y="-136.57" font-family="Times,serif" font-size="14.00">L2b log 1..1</text>
</g>
<!-- l2a_l2b&#45;&gt;l2b_log -->
<g id="edge12" class="edge">
<title>l2a_l2b&#45;&gt;l2b_log</title>
<path fill="none" stroke="black" stroke-dasharray="5,2" d="M809.31,-140.27C809.31,-140.27 861.82,-140.27 861.82,-140.27"/>
<polygon fill="black" stroke="black" points="861.82,-143.77 871.82,-140.27 861.82,-136.77 861.82,-143.77"/>
</g>
<!-- l2b_man -->
<g id="node15" class="node">
<title>l2b_man</title>
<ellipse fill="none" stroke="black" cx="937.53" cy="-86.27" rx="92.08" ry="18"/>
<text text-anchor="middle" x="937.53" y="-82.57" font-family="Times,serif" font-size="14.00">L2b manifest 1..1</text>
</g>
<!-- l2a_l2b&#45;&gt;l2b_man -->
<g id="edge11" class="edge">
<title>l2a_l2b&#45;&gt;l2b_man</title>
<path fill="none" stroke="black" d="M790.27,-86.27C790.27,-86.27 834.92,-86.27 834.92,-86.27"/>
<polygon fill="black" stroke="black" points="834.92,-89.77 844.92,-86.27 834.92,-82.77 834.92,-89.77"/>
</g>
<!-- l2b_l3 -->
<g id="node3" class="node">
<title>l2b_l3</title>
<ellipse fill="none" stroke="black" cx="1152.09" cy="-194.27" rx="86.03" ry="86.03"/>
<text text-anchor="middle" x="1152.09" y="-198.07" font-family="Times,serif" font-size="14.00">Transmutation</text>
<text text-anchor="middle" x="1152.09" y="-183.07" font-family="Times,serif" font-size="14.00">L2b to L3</text>
</g>
<!-- l3_data -->
<g id="node16" class="node">
<title>l3_data</title>
<polygon fill="none" stroke="black" points="1411.8,-266.27 1309.8,-266.27 1309.8,-230.27 1411.8,-230.27 1411.8,-266.27"/>
<text text-anchor="middle" x="1360.8" y="-244.57" font-family="Times,serif" font-size="14.00">L3 products</text>
</g>
<!-- l2b_l3&#45;&gt;l3_data -->
<g id="edge16" class="edge">
<title>l2b_l3&#45;&gt;l3_data</title>
<path fill="none" stroke="black" stroke-dasharray="5,2" d="M1219.56,-248.27C1219.56,-248.27 1299.77,-248.27 1299.77,-248.27"/>
<polygon fill="black" stroke="black" points="1299.77,-251.77 1309.77,-248.27 1299.77,-244.77 1299.77,-251.77"/>
</g>
<!-- l3_man -->
<g id="node18" class="node">
<title>l3_man</title>
<ellipse fill="none" stroke="black" cx="1360.8" cy="-194.27" rx="86.38" ry="18"/>
<text text-anchor="middle" x="1360.8" y="-190.57" font-family="Times,serif" font-size="14.00">L3 manifest 1..1</text>
</g>
<!-- l2b_l3&#45;&gt;l3_man -->
<g id="edge17" class="edge">
<title>l2b_l3&#45;&gt;l3_man</title>
<path fill="none" stroke="black" d="M1238.48,-194.27C1238.48,-194.27 1264.13,-194.27 1264.13,-194.27"/>
<polygon fill="black" stroke="black" points="1264.13,-197.77 1274.13,-194.27 1264.13,-190.77 1264.13,-197.77"/>
</g>
<!-- l3_log -->
<g id="node19" class="node">
<title>l3_log</title>
<ellipse fill="none" stroke="black" cx="1360.8" cy="-140.27" rx="59.59" ry="18"/>
<text text-anchor="middle" x="1360.8" y="-136.57" font-family="Times,serif" font-size="14.00">L3 log 1..1</text>
</g>
<!-- l2b_l3&#45;&gt;l3_log -->
<g id="edge18" class="edge">
<title>l2b_l3&#45;&gt;l3_log</title>
<path fill="none" stroke="black" stroke-dasharray="5,2" d="M1219.56,-140.27C1219.56,-140.27 1290.95,-140.27 1290.95,-140.27"/>
<polygon fill="black" stroke="black" points="1290.95,-143.77 1300.95,-140.27 1290.95,-136.77 1290.95,-143.77"/>
</g>
<!-- l3_l4 -->
<g id="node4" class="node">
<title>l3_l4</title>
<ellipse fill="none" stroke="black" cx="1569.51" cy="-248.27" rx="86.03" ry="86.03"/>
<text text-anchor="middle" x="1569.51" y="-252.07" font-family="Times,serif" font-size="14.00">Transmutation</text>
<text text-anchor="middle" x="1569.51" y="-237.07" font-family="Times,serif" font-size="14.00">L3 to L4</text>
</g>
<!-- l4_data -->
<g id="node20" class="node">
<title>l4_data</title>
<polygon fill="none" stroke="black" points="1802.57,-293.27 1700.57,-293.27 1700.57,-257.27 1802.57,-257.27 1802.57,-293.27"/>
<text text-anchor="middle" x="1751.57" y="-271.57" font-family="Times,serif" font-size="14.00">L4 products</text>
</g>
<!-- l3_l4&#45;&gt;l4_data -->
<g id="edge22" class="edge">
<title>l3_l4&#45;&gt;l4_data</title>
<path fill="none" stroke="black" stroke-dasharray="5,2" d="M1651.48,-275.27C1651.48,-275.27 1690.55,-275.27 1690.55,-275.27"/>
<polygon fill="black" stroke="black" points="1690.55,-278.77 1700.55,-275.27 1690.55,-271.77 1690.55,-278.77"/>
</g>
<!-- l4_log -->
<g id="node21" class="node">
<title>l4_log</title>
<ellipse fill="none" stroke="black" cx="1751.57" cy="-221.27" rx="59.59" ry="18"/>
<text text-anchor="middle" x="1751.57" y="-217.57" font-family="Times,serif" font-size="14.00">L4 log 1..1</text>
</g>
<!-- l3_l4&#45;&gt;l4_log -->
<g id="edge23" class="edge">
<title>l3_l4&#45;&gt;l4_log</title>
<path fill="none" stroke="black" stroke-dasharray="5,2" d="M1651.48,-221.27C1651.48,-221.27 1681.57,-221.27 1681.57,-221.27"/>
<polygon fill="black" stroke="black" points="1681.57,-224.77 1691.57,-221.27 1681.57,-217.77 1681.57,-224.77"/>
</g>
<!-- l1_data -->
<g id="node5" class="node">
<title>l1_data</title>
<polygon fill="none" stroke="black" points="137.44,-158.27 35.44,-158.27 35.44,-122.27 137.44,-122.27 137.44,-158.27"/>
<text text-anchor="middle" x="86.44" y="-136.57" font-family="Times,serif" font-size="14.00">L1 products</text>
</g>
<!-- l1_data&#45;&gt;l1_l2a -->
<g id="edge2" class="edge">
<title>l1_data&#45;&gt;l1_l2a</title>
<path fill="none" stroke="black" stroke-dasharray="5,2" d="M137.5,-140.27C137.5,-140.27 217.67,-140.27 217.67,-140.27"/>
<polygon fill="black" stroke="black" points="217.67,-143.77 227.67,-140.27 217.67,-136.77 217.67,-143.77"/>
</g>
<!-- l1_cal -->
<g id="node6" class="node">
<title>l1_cal</title>
<polygon fill="none" stroke="black" points="132.44,-98.27 28.44,-98.27 28.44,-74.27 132.44,-74.27 144.44,-86.27 132.44,-98.27"/>
<text text-anchor="middle" x="86.44" y="-82.57" font-family="Times,serif" font-size="14.00">L1 calibration</text>
</g>
<!-- l1_cal&#45;&gt;l1_l2a -->
<g id="edge1" class="edge">
<title>l1_cal&#45;&gt;l1_l2a</title>
<path fill="none" stroke="black" d="M144.58,-86.27C144.58,-86.27 198.84,-86.27 198.84,-86.27"/>
<polygon fill="black" stroke="black" points="198.84,-89.77 208.84,-86.27 198.84,-82.77 198.84,-89.77"/>
</g>
<!-- l1_man -->
<g id="node7" class="node">
<title>l1_man</title>
<ellipse fill="none" stroke="black" cx="86.44" cy="-32.27" rx="86.38" ry="18"/>
<text text-anchor="middle" x="86.44" y="-28.57" font-family="Times,serif" font-size="14.00">L1 manifest 1..1</text>
</g>
<!-- l1_man&#45;&gt;l1_l2a -->
<g id="edge3" class="edge">
<title>l1_man&#45;&gt;l1_l2a</title>
<path fill="none" stroke="black" d="M173.14,-32.27C173.14,-32.27 217.81,-32.27 217.81,-32.27"/>
<polygon fill="black" stroke="black" points="217.81,-35.77 227.81,-32.27 217.81,-28.77 217.81,-35.77"/>
</g>
<!-- l2a_data&#45;&gt;l2a_l2b -->
<g id="edge8" class="edge">
<title>l2a_data&#45;&gt;l2a_l2b</title>
<path fill="none" stroke="black" stroke-dasharray="5,2" d="M564.15,-140.27C564.15,-140.27 626.52,-140.27 626.52,-140.27"/>
<polygon fill="black" stroke="black" points="626.52,-143.77 636.52,-140.27 626.52,-136.77 626.52,-143.77"/>
</g>
<!-- l2a_cal -->
<g id="node9" class="node">
<title>l2a_cal</title>
<polygon fill="none" stroke="black" points="559.06,-206.27 447.06,-206.27 447.06,-182.27 559.06,-182.27 571.06,-194.27 559.06,-206.27"/>
<text text-anchor="middle" x="509.06" y="-190.57" font-family="Times,serif" font-size="14.00">L2a calibration</text>
</g>
<!-- l2a_cal&#45;&gt;l2a_l2b -->
<g id="edge7" class="edge">
<title>l2a_cal&#45;&gt;l2a_l2b</title>
<path fill="none" stroke="black" d="M571.22,-194.27C571.22,-194.27 645.42,-194.27 645.42,-194.27"/>
<polygon fill="black" stroke="black" points="645.42,-197.77 655.42,-194.27 645.42,-190.77 645.42,-197.77"/>
</g>
<!-- l2a_man&#45;&gt;l2a_l2b -->
<g id="edge9" class="edge">
<title>l2a_man&#45;&gt;l2a_l2b</title>
<path fill="none" stroke="black" d="M600.71,-86.27C600.71,-86.27 645.44,-86.27 645.44,-86.27"/>
<polygon fill="black" stroke="black" points="645.44,-89.77 655.44,-86.27 645.44,-82.77 645.44,-89.77"/>
</g>
<!-- l2b_data&#45;&gt;l2b_l3 -->
<g id="edge14" class="edge">
<title>l2b_data&#45;&gt;l2b_l3</title>
<path fill="none" stroke="black" stroke-dasharray="5,2" d="M993.06,-194.27C993.06,-194.27 1055.58,-194.27 1055.58,-194.27"/>
<polygon fill="black" stroke="black" points="1055.58,-197.77 1065.58,-194.27 1055.58,-190.77 1055.58,-197.77"/>
</g>
<!-- l2b_cal -->
<g id="node13" class="node">
<title>l2b_cal</title>
<polygon fill="none" stroke="black" points="988.03,-260.27 875.03,-260.27 875.03,-236.27 988.03,-236.27 1000.03,-248.27 988.03,-260.27"/>
<text text-anchor="middle" x="937.53" y="-244.57" font-family="Times,serif" font-size="14.00">L2b calibration</text>
</g>
<!-- l2b_cal&#45;&gt;l2b_l3 -->
<g id="edge13" class="edge">
<title>l2b_cal&#45;&gt;l2b_l3</title>
<path fill="none" stroke="black" d="M1000.16,-248.27C1000.16,-248.27 1074.5,-248.27 1074.5,-248.27"/>
<polygon fill="black" stroke="black" points="1074.5,-251.77 1084.5,-248.27 1074.5,-244.77 1074.5,-251.77"/>
</g>
<!-- l2b_man&#45;&gt;l2b_l3 -->
<g id="edge15" class="edge">
<title>l2b_man&#45;&gt;l2b_l3</title>
<path fill="none" stroke="black" d="M1017.36,-95.4C1017.36,-103.86 1017.36,-115.13 1017.36,-115.13 1017.36,-115.13 1107.39,-115.13 1107.39,-115.13"/>
<polygon fill="black" stroke="black" points="1107.39,-118.63 1117.39,-115.13 1107.39,-111.63 1107.39,-118.63"/>
</g>
<!-- l3_data&#45;&gt;l3_l4 -->
<g id="edge20" class="edge">
<title>l3_data&#45;&gt;l3_l4</title>
<path fill="none" stroke="black" stroke-dasharray="5,2" d="M1411.85,-248.27C1411.85,-248.27 1473.19,-248.27 1473.19,-248.27"/>
<polygon fill="black" stroke="black" points="1473.19,-251.77 1483.19,-248.27 1473.19,-244.77 1473.19,-251.77"/>
</g>
<!-- l3_cal -->
<g id="node17" class="node">
<title>l3_cal</title>
<polygon fill="none" stroke="black" points="1406.8,-314.27 1302.8,-314.27 1302.8,-290.27 1406.8,-290.27 1418.8,-302.27 1406.8,-314.27"/>
<text text-anchor="middle" x="1360.8" y="-298.57" font-family="Times,serif" font-size="14.00">L3 calibration</text>
</g>
<!-- l3_cal&#45;&gt;l3_l4 -->
<g id="edge19" class="edge">
<title>l3_cal&#45;&gt;l3_l4</title>
<path fill="none" stroke="black" d="M1418.93,-302.27C1418.93,-302.27 1492.09,-302.27 1492.09,-302.27"/>
<polygon fill="black" stroke="black" points="1492.09,-305.77 1502.09,-302.27 1492.09,-298.77 1492.09,-305.77"/>
</g>
<!-- l3_man&#45;&gt;l3_l4 -->
<g id="edge21" class="edge">
<title>l3_man&#45;&gt;l3_l4</title>
<path fill="none" stroke="black" d="M1447.49,-194.27C1447.49,-194.27 1492.17,-194.27 1492.17,-194.27"/>
<polygon fill="black" stroke="black" points="1492.17,-197.77 1502.17,-194.27 1492.17,-190.77 1492.17,-197.77"/>
</g>
</g>
</svg>
