<?xml version="1.0" encoding="UTF-8" standalone="no"?>
<!DOCTYPE svg PUBLIC "-//W3C//DTD SVG 1.1//EN"
 "http://www.w3.org/Graphics/SVG/1.1/DTD/svg11.dtd">
<!-- Generated by graphviz version 2.43.0 (0)
 -->
<!-- Title: AbstractDesign Pages: 1 -->
<svg width="1512pt" height="314pt"
 viewBox="0.00 0.00 1512.40 314.00" xmlns="http://www.w3.org/2000/svg" xmlns:xlink="http://www.w3.org/1999/xlink">
<g id="graph0" class="graph" transform="scale(1 1) rotate(0) translate(4 310)">
<title>AbstractDesign</title>
<polygon fill="white" stroke="transparent" points="-4,4 -4,-310 1508.4,-310 1508.4,4 -4,4"/>
<!-- l1_l2a -->
<g id="node1" class="node">
<title>l1_l2a</title>
<ellipse fill="none" stroke="black" cx="242.97" cy="-72" rx="67.76" ry="67.76"/>
<text text-anchor="middle" x="242.97" y="-75.8" font-family="Times,serif" font-size="14.00">Transmutation</text>
<text text-anchor="middle" x="242.97" y="-60.8" font-family="Times,serif" font-size="14.00">l1 to L2a</text>
</g>
<!-- l2a_data -->
<g id="node8" class="node">
<title>l2a_data</title>
<polygon fill="none" stroke="black" points="464.3,-144 376.3,-144 376.3,-108 464.3,-108 464.3,-144"/>
<text text-anchor="middle" x="420.3" y="-122.3" font-family="Times,serif" font-size="14.00">L2a products</text>
</g>
<!-- l1_l2a&#45;&gt;l2a_data -->
<g id="edge4" class="edge">
<title>l1_l2a&#45;&gt;l2a_data</title>
<path fill="none" stroke="black" stroke-dasharray="5,2" d="M286.8,-123.94C286.8,-123.94 366.04,-123.94 366.04,-123.94"/>
<polygon fill="black" stroke="black" points="366.04,-127.44 376.04,-123.94 366.04,-120.44 366.04,-127.44"/>
</g>
<!-- l2a_man -->
<g id="node10" class="node">
<title>l2a_man</title>
<ellipse fill="none" stroke="black" cx="420.3" cy="-72" rx="73.39" ry="18"/>
<text text-anchor="middle" x="420.3" y="-68.3" font-family="Times,serif" font-size="14.00">L2a manifest 1..1</text>
</g>
<!-- l1_l2a&#45;&gt;l2a_man -->
<g id="edge5" class="edge">
<title>l1_l2a&#45;&gt;l2a_man</title>
<path fill="none" stroke="black" d="M311.02,-72C311.02,-72 336.83,-72 336.83,-72"/>
<polygon fill="black" stroke="black" points="336.83,-75.5 346.83,-72 336.83,-68.5 336.83,-75.5"/>
</g>
<!-- l2a_log -->
<g id="node11" class="node">
<title>l2a_log</title>
<ellipse fill="none" stroke="black" cx="420.3" cy="-18" rx="53.89" ry="18"/>
<text text-anchor="middle" x="420.3" y="-14.3" font-family="Times,serif" font-size="14.00">L2a log 1..1</text>
</g>
<!-- l1_l2a&#45;&gt;l2a_log -->
<g id="edge6" class="edge">
<title>l1_l2a&#45;&gt;l2a_log</title>
<path fill="none" stroke="black" stroke-dasharray="5,2" d="M286.8,-20.06C286.8,-20.06 356.52,-20.06 356.52,-20.06"/>
<polygon fill="black" stroke="black" points="356.52,-23.56 366.52,-20.06 356.52,-16.56 356.52,-23.56"/>
</g>
<!-- l2a_l2b -->
<g id="node2" class="node">
<title>l2a_l2b</title>
<ellipse fill="none" stroke="black" cx="597.62" cy="-126" rx="67.76" ry="67.76"/>
<text text-anchor="middle" x="597.62" y="-129.8" font-family="Times,serif" font-size="14.00">Transmutation</text>
<text text-anchor="middle" x="597.62" y="-114.8" font-family="Times,serif" font-size="14.00">L2a to L2b</text>
</g>
<!-- l2b_data -->
<g id="node12" class="node">
<title>l2b_data</title>
<polygon fill="none" stroke="black" points="820.1,-198 731.1,-198 731.1,-162 820.1,-162 820.1,-198"/>
<text text-anchor="middle" x="775.6" y="-176.3" font-family="Times,serif" font-size="14.00">L2b products</text>
</g>
<!-- l2a_l2b&#45;&gt;l2b_data -->
<g id="edge10" class="edge">
<title>l2a_l2b&#45;&gt;l2b_data</title>
<path fill="none" stroke="black" stroke-dasharray="5,2" d="M641.62,-177.94C641.62,-177.94 720.87,-177.94 720.87,-177.94"/>
<polygon fill="black" stroke="black" points="720.87,-181.44 730.87,-177.94 720.87,-174.44 720.87,-181.44"/>
</g>
<!-- l2b_log -->
<g id="node14" class="node">
<title>l2b_log</title>
<ellipse fill="none" stroke="black" cx="775.6" cy="-126" rx="54.69" ry="18"/>
<text text-anchor="middle" x="775.6" y="-122.3" font-family="Times,serif" font-size="14.00">L2b log 1..1</text>
</g>
<!-- l2a_l2b&#45;&gt;l2b_log -->
<g id="edge12" class="edge">
<title>l2a_l2b&#45;&gt;l2b_log</title>
<path fill="none" stroke="black" stroke-dasharray="5,2" d="M665.67,-126C665.67,-126 710.85,-126 710.85,-126"/>
<polygon fill="black" stroke="black" points="710.85,-129.5 720.85,-126 710.85,-122.5 710.85,-129.5"/>
</g>
<!-- l2b_man -->
<g id="node15" class="node">
<title>l2b_man</title>
<ellipse fill="none" stroke="black" cx="775.6" cy="-72" rx="74.19" ry="18"/>
<text text-anchor="middle" x="775.6" y="-68.3" font-family="Times,serif" font-size="14.00">L2b manifest 1..1</text>
</g>
<!-- l2a_l2b&#45;&gt;l2b_man -->
<g id="edge11" class="edge">
<title>l2a_l2b&#45;&gt;l2b_man</title>
<path fill="none" stroke="black" d="M641.62,-74.06C641.62,-74.06 691.98,-74.06 691.98,-74.06"/>
<polygon fill="black" stroke="black" points="691.98,-77.56 701.98,-74.06 691.98,-70.56 691.98,-77.56"/>
</g>
<!-- l2b_l3 -->
<g id="node3" class="node">
<title>l2b_l3</title>
<ellipse fill="none" stroke="black" cx="953.57" cy="-180" rx="67.76" ry="67.76"/>
<text text-anchor="middle" x="953.57" y="-183.8" font-family="Times,serif" font-size="14.00">Transmutation</text>
<text text-anchor="middle" x="953.57" y="-168.8" font-family="Times,serif" font-size="14.00">L2b to L3</text>
</g>
<!-- l3_data -->
<g id="node16" class="node">
<title>l3_data</title>
<polygon fill="none" stroke="black" points="1168,-252 1086,-252 1086,-216 1168,-216 1168,-252"/>
<text text-anchor="middle" x="1127" y="-230.3" font-family="Times,serif" font-size="14.00">L3 products</text>
</g>
<!-- l2b_l3&#45;&gt;l3_data -->
<g id="edge16" class="edge">
<title>l2b_l3&#45;&gt;l3_data</title>
<path fill="none" stroke="black" stroke-dasharray="5,2" d="M997.34,-231.94C997.34,-231.94 1075.93,-231.94 1075.93,-231.94"/>
<polygon fill="black" stroke="black" points="1075.93,-235.44 1085.93,-231.94 1075.93,-228.44 1075.93,-235.44"/>
</g>
<!-- l3_man -->
<g id="node18" class="node">
<title>l3_man</title>
<ellipse fill="none" stroke="black" cx="1127" cy="-180" rx="69.59" ry="18"/>
<text text-anchor="middle" x="1127" y="-176.3" font-family="Times,serif" font-size="14.00">L3 manifest 1..1</text>
</g>
<!-- l2b_l3&#45;&gt;l3_man -->
<g id="edge17" class="edge">
<title>l2b_l3&#45;&gt;l3_man</title>
<path fill="none" stroke="black" d="M1021.62,-180C1021.62,-180 1047.44,-180 1047.44,-180"/>
<polygon fill="black" stroke="black" points="1047.44,-183.5 1057.44,-180 1047.44,-176.5 1047.44,-183.5"/>
</g>
<!-- l3_log -->
<g id="node19" class="node">
<title>l3_log</title>
<ellipse fill="none" stroke="black" cx="1127" cy="-126" rx="50.09" ry="18"/>
<text text-anchor="middle" x="1127" y="-122.3" font-family="Times,serif" font-size="14.00">L3 log 1..1</text>
</g>
<!-- l2b_l3&#45;&gt;l3_log -->
<g id="edge18" class="edge">
<title>l2b_l3&#45;&gt;l3_log</title>
<path fill="none" stroke="black" stroke-dasharray="5,2" d="M997.34,-128.06C997.34,-128.06 1067.11,-128.06 1067.11,-128.06"/>
<polygon fill="black" stroke="black" points="1067.11,-131.56 1077.11,-128.06 1067.11,-124.56 1067.11,-131.56"/>
</g>
<!-- l3_l4 -->
<g id="node4" class="node">
<title>l3_l4</title>
<ellipse fill="none" stroke="black" cx="1300.42" cy="-234" rx="67.76" ry="67.76"/>
<text text-anchor="middle" x="1300.42" y="-237.8" font-family="Times,serif" font-size="14.00">Transmutation</text>
<text text-anchor="middle" x="1300.42" y="-222.8" font-family="Times,serif" font-size="14.00">L3 to L4</text>
</g>
<!-- l4_data -->
<g id="node20" class="node">
<title>l4_data</title>
<polygon fill="none" stroke="black" points="1495.35,-279 1413.35,-279 1413.35,-243 1495.35,-243 1495.35,-279"/>
<text text-anchor="middle" x="1454.35" y="-257.3" font-family="Times,serif" font-size="14.00">L4 products</text>
</g>
<!-- l3_l4&#45;&gt;l4_data -->
<g id="edge22" class="edge">
<title>l3_l4&#45;&gt;l4_data</title>
<path fill="none" stroke="black" stroke-dasharray="5,2" d="M1363.03,-261C1363.03,-261 1402.95,-261 1402.95,-261"/>
<polygon fill="black" stroke="black" points="1402.95,-264.5 1412.95,-261 1402.95,-257.5 1402.95,-264.5"/>
</g>
<!-- l4_log -->
<g id="node21" class="node">
<title>l4_log</title>
<ellipse fill="none" stroke="black" cx="1454.35" cy="-207" rx="50.09" ry="18"/>
<text text-anchor="middle" x="1454.35" y="-203.3" font-family="Times,serif" font-size="14.00">L4 log 1..1</text>
</g>
<!-- l3_l4&#45;&gt;l4_log -->
<g id="edge23" class="edge">
<title>l3_l4&#45;&gt;l4_log</title>
<path fill="none" stroke="black" stroke-dasharray="5,2" d="M1363.03,-207C1363.03,-207 1394.06,-207 1394.06,-207"/>
<polygon fill="black" stroke="black" points="1394.06,-210.5 1404.06,-207 1394.06,-203.5 1394.06,-210.5"/>
</g>
<!-- l1_data -->
<g id="node5" class="node">
<title>l1_data</title>
<polygon fill="none" stroke="black" points="110.54,-144 28.54,-144 28.54,-108 110.54,-108 110.54,-144"/>
<text text-anchor="middle" x="69.54" y="-122.3" font-family="Times,serif" font-size="14.00">L1 products</text>
</g>
<!-- l1_data&#45;&gt;l1_l2a -->
<g id="edge2" class="edge">
<title>l1_data&#45;&gt;l1_l2a</title>
<path fill="none" stroke="black" stroke-dasharray="5,2" d="M110.64,-123.94C110.64,-123.94 189.13,-123.94 189.13,-123.94"/>
<polygon fill="black" stroke="black" points="189.13,-127.44 199.13,-123.94 189.13,-120.44 189.13,-127.44"/>
</g>
<!-- l1_cal -->
<g id="node6" class="node">
<title>l1_cal</title>
<polygon fill="none" stroke="black" points="104.04,-84 23.04,-84 23.04,-60 104.04,-60 116.04,-72 104.04,-84"/>
<text text-anchor="middle" x="69.54" y="-68.3" font-family="Times,serif" font-size="14.00">L1 calibration</text>
</g>
<!-- l1_cal&#45;&gt;l1_l2a -->
<g id="edge1" class="edge">
<title>l1_cal&#45;&gt;l1_l2a</title>
<path fill="none" stroke="black" d="M116.48,-72C116.48,-72 164.83,-72 164.83,-72"/>
<polygon fill="black" stroke="black" points="164.83,-75.5 174.83,-72 164.83,-68.5 164.83,-75.5"/>
</g>
<!-- l1_man -->
<g id="node7" class="node">
<title>l1_man</title>
<ellipse fill="none" stroke="black" cx="69.54" cy="-18" rx="69.59" ry="18"/>
<text text-anchor="middle" x="69.54" y="-14.3" font-family="Times,serif" font-size="14.00">L1 manifest 1..1</text>
</g>
<!-- l1_man&#45;&gt;l1_l2a -->
<g id="edge3" class="edge">
<title>l1_man&#45;&gt;l1_l2a</title>
<path fill="none" stroke="black" d="M139.08,-20.06C139.08,-20.06 189.11,-20.06 189.11,-20.06"/>
<polygon fill="black" stroke="black" points="189.11,-23.56 199.11,-20.06 189.11,-16.56 189.11,-23.56"/>
</g>
<!-- l2a_data&#45;&gt;l2a_l2b -->
<g id="edge8" class="edge">
<title>l2a_data&#45;&gt;l2a_l2b</title>
<path fill="none" stroke="black" stroke-dasharray="5,2" d="M464.58,-126C464.58,-126 519.42,-126 519.42,-126"/>
<polygon fill="black" stroke="black" points="519.42,-129.5 529.42,-126 519.42,-122.5 519.42,-129.5"/>
</g>
<!-- l2a_cal -->
<g id="node9" class="node">
<title>l2a_cal</title>
<polygon fill="none" stroke="black" points="457.8,-192 370.8,-192 370.8,-168 457.8,-168 469.8,-180 457.8,-192"/>
<text text-anchor="middle" x="420.3" y="-176.3" font-family="Times,serif" font-size="14.00">L2a calibration</text>
</g>
<!-- l2a_cal&#45;&gt;l2a_l2b -->
<g id="edge7" class="edge">
<title>l2a_cal&#45;&gt;l2a_l2b</title>
<path fill="none" stroke="black" d="M470.16,-177.94C470.16,-177.94 543.86,-177.94 543.86,-177.94"/>
<polygon fill="black" stroke="black" points="543.86,-181.44 553.86,-177.94 543.86,-174.44 543.86,-181.44"/>
</g>
<!-- l2a_man&#45;&gt;l2a_l2b -->
<g id="edge9" class="edge">
<title>l2a_man&#45;&gt;l2a_l2b</title>
<path fill="none" stroke="black" d="M493.44,-74.06C493.44,-74.06 543.83,-74.06 543.83,-74.06"/>
<polygon fill="black" stroke="black" points="543.83,-77.56 553.83,-74.06 543.83,-70.56 543.83,-77.56"/>
</g>
<!-- l2b_data&#45;&gt;l2b_l3 -->
<g id="edge14" class="edge">
<title>l2b_data&#45;&gt;l2b_l3</title>
<path fill="none" stroke="black" stroke-dasharray="5,2" d="M820.51,-180C820.51,-180 875.44,-180 875.44,-180"/>
<polygon fill="black" stroke="black" points="875.44,-183.5 885.44,-180 875.44,-176.5 875.44,-183.5"/>
</g>
<!-- l2b_cal -->
<g id="node13" class="node">
<title>l2b_cal</title>
<polygon fill="none" stroke="black" points="813.6,-246 725.6,-246 725.6,-222 813.6,-222 825.6,-234 813.6,-246"/>
<text text-anchor="middle" x="775.6" y="-230.3" font-family="Times,serif" font-size="14.00">L2b calibration</text>
</g>
<!-- l2b_cal&#45;&gt;l2b_l3 -->
<g id="edge13" class="edge">
<title>l2b_cal&#45;&gt;l2b_l3</title>
<path fill="none" stroke="black" d="M825.65,-231.94C825.65,-231.94 899.65,-231.94 899.65,-231.94"/>
<polygon fill="black" stroke="black" points="899.65,-235.44 909.65,-231.94 899.65,-228.44 899.65,-235.44"/>
</g>
<!-- l2b_man&#45;&gt;l2b_l3 -->
<g id="edge15" class="edge">
<title>l2b_man&#45;&gt;l2b_l3</title>
<path fill="none" stroke="black" d="M840.4,-80.76C840.4,-96.53 840.4,-128.06 840.4,-128.06 840.4,-128.06 899.82,-128.06 899.82,-128.06"/>
<polygon fill="black" stroke="black" points="899.82,-131.56 909.82,-128.06 899.82,-124.56 899.82,-131.56"/>
</g>
<!-- l3_data&#45;&gt;l3_l4 -->
<g id="edge20" class="edge">
<title>l3_data&#45;&gt;l3_l4</title>
<path fill="none" stroke="black" stroke-dasharray="5,2" d="M1168.1,-234C1168.1,-234 1222.5,-234 1222.5,-234"/>
<polygon fill="black" stroke="black" points="1222.5,-237.5 1232.5,-234 1222.5,-230.5 1222.5,-237.5"/>
</g>
<!-- l3_cal -->
<g id="node17" class="node">
<title>l3_cal</title>
<polygon fill="none" stroke="black" points="1161.5,-300 1080.5,-300 1080.5,-276 1161.5,-276 1173.5,-288 1161.5,-300"/>
<text text-anchor="middle" x="1127" y="-284.3" font-family="Times,serif" font-size="14.00">L3 calibration</text>
</g>
<!-- l3_cal&#45;&gt;l3_l4 -->
<g id="edge19" class="edge">
<title>l3_cal&#45;&gt;l3_l4</title>
<path fill="none" stroke="black" d="M1173.93,-285.94C1173.93,-285.94 1246.44,-285.94 1246.44,-285.94"/>
<polygon fill="black" stroke="black" points="1246.44,-289.44 1256.44,-285.94 1246.44,-282.44 1246.44,-289.44"/>
</g>
<!-- l3_man&#45;&gt;l3_l4 -->
<g id="edge21" class="edge">
<title>l3_man&#45;&gt;l3_l4</title>
<path fill="none" stroke="black" d="M1196.54,-182.06C1196.54,-182.06 1246.56,-182.06 1246.56,-182.06"/>
<polygon fill="black" stroke="black" points="1246.56,-185.56 1256.56,-182.06 1246.56,-178.56 1246.56,-185.56"/>
</g>
</g>
</svg>
