<?xml version="1.0" encoding="UTF-8" standalone="no"?>
<!DOCTYPE svg PUBLIC "-//W3C//DTD SVG 1.1//EN"
 "http://www.w3.org/Graphics/SVG/1.1/DTD/svg11.dtd">
<!-- Generated by graphviz version 2.43.0 (0)
 -->
<!-- Title: DispersionModelCalibrations Pages: 1 -->
<svg width="1025pt" height="206pt"
 viewBox="0.00 0.00 1025.08 206.00" xmlns="http://www.w3.org/2000/svg" xmlns:xlink="http://www.w3.org/1999/xlink">
<g id="graph0" class="graph" transform="scale(1 1) rotate(0) translate(4 202)">
<title>DispersionModelCalibrations</title>
<polygon fill="white" stroke="transparent" points="-4,4 -4,-202 1021.08,-202 1021.08,4 -4,4"/>
<!-- trans_cal_dpm_l1_l2a -->
<g id="node1" class="node">
<title>trans_cal_dpm_l1_l2a</title>
<ellipse fill="none" stroke="black" cx="499.44" cy="-99" rx="96.75" ry="96.75"/>
<text text-anchor="middle" x="499.44" y="-110.3" font-family="Times,serif" font-size="14.00">DispersionModel</text>
<text text-anchor="middle" x="499.44" y="-95.3" font-family="Times,serif" font-size="14.00">Transmutation</text>
<text text-anchor="middle" x="499.44" y="-80.3" font-family="Times,serif" font-size="14.00">L1 to L2a basic</text>
</g>
<!-- cal_dpm_prod -->
<g id="node6" class="node">
<title>cal_dpm_prod</title>
<polygon fill="none" stroke="black" points="942.7,-198 706.7,-198 706.7,-162 942.7,-162 942.7,-198"/>
<text text-anchor="middle" x="824.7" y="-176.3" font-family="Times,serif" font-size="14.00">DispersionModel products 1..1</text>
</g>
<!-- trans_cal_dpm_l1_l2a&#45;&gt;cal_dpm_prod -->
<g id="edge5" class="edge">
<title>trans_cal_dpm_l1_l2a&#45;&gt;cal_dpm_prod</title>
<path fill="none" stroke="black" stroke-dasharray="5,2" d="M554.25,-178.94C554.25,-178.94 696.5,-178.94 696.5,-178.94"/>
<polygon fill="black" stroke="black" points="696.5,-182.44 706.5,-178.94 696.5,-175.44 696.5,-182.44"/>
</g>
<!-- cal_dpm_log -->
<g id="node7" class="node">
<title>cal_dpm_log</title>
<ellipse fill="none" stroke="black" cx="824.7" cy="-126" rx="126.98" ry="18"/>
<text text-anchor="middle" x="824.7" y="-122.3" font-family="Times,serif" font-size="14.00">DispersionModel log 1..1</text>
</g>
<!-- trans_cal_dpm_l1_l2a&#45;&gt;cal_dpm_log -->
<g id="edge8" class="edge">
<title>trans_cal_dpm_l1_l2a&#45;&gt;cal_dpm_log</title>
<path fill="none" stroke="black" stroke-dasharray="5,2" d="M592.65,-126C592.65,-126 687.84,-126 687.84,-126"/>
<polygon fill="black" stroke="black" points="687.84,-129.5 697.84,-126 687.84,-122.5 687.84,-129.5"/>
</g>
<!-- cal_dpm_man -->
<g id="node8" class="node">
<title>cal_dpm_man</title>
<ellipse fill="none" stroke="black" cx="824.7" cy="-72" rx="192.27" ry="18"/>
<text text-anchor="middle" x="824.7" y="-68.3" font-family="Times,serif" font-size="14.00">DispersionModel product manifest 1..1</text>
</g>
<!-- trans_cal_dpm_l1_l2a&#45;&gt;cal_dpm_man -->
<g id="edge6" class="edge">
<title>trans_cal_dpm_l1_l2a&#45;&gt;cal_dpm_man</title>
<path fill="none" stroke="black" d="M592.65,-72C592.65,-72 622.03,-72 622.03,-72"/>
<polygon fill="black" stroke="black" points="622.03,-75.5 632.03,-72 622.03,-68.5 622.03,-75.5"/>
</g>
<!-- cal_dpm_src -->
<g id="node9" class="node">
<title>cal_dpm_src</title>
<ellipse fill="none" stroke="black" cx="824.7" cy="-18" rx="186.57" ry="18"/>
<text text-anchor="middle" x="824.7" y="-14.3" font-family="Times,serif" font-size="14.00">DispersionModel source manifest 1..1</text>
</g>
<!-- trans_cal_dpm_l1_l2a&#45;&gt;cal_dpm_src -->
<g id="edge7" class="edge">
<title>trans_cal_dpm_l1_l2a&#45;&gt;cal_dpm_src</title>
<path fill="none" stroke="black" d="M554.25,-19.06C554.25,-19.06 628.4,-19.06 628.4,-19.06"/>
<polygon fill="black" stroke="black" points="628.4,-22.56 638.4,-19.06 628.4,-15.56 628.4,-22.56"/>
</g>
<!-- l1_cal_dpm_prod -->
<g id="node2" class="node">
<title>l1_cal_dpm_prod</title>
<polygon fill="none" stroke="black" points="313.78,-198 52.78,-198 52.78,-162 313.78,-162 313.78,-198"/>
<text text-anchor="middle" x="183.28" y="-176.3" font-family="Times,serif" font-size="14.00">L1_DispersionModel products 1..b</text>
</g>
<!-- l1_cal_dpm_prod&#45;&gt;trans_cal_dpm_l1_l2a -->
<g id="edge1" class="edge">
<title>l1_cal_dpm_prod&#45;&gt;trans_cal_dpm_l1_l2a</title>
<path fill="none" stroke="black" stroke-dasharray="5,2" d="M314.16,-178.94C314.16,-178.94 434.33,-178.94 434.33,-178.94"/>
<polygon fill="black" stroke="black" points="434.33,-182.44 444.33,-178.94 434.33,-175.44 434.33,-182.44"/>
</g>
<!-- l1_cal_dpm_man -->
<g id="node3" class="node">
<title>l1_cal_dpm_man</title>
<ellipse fill="none" stroke="black" cx="183.28" cy="-126" rx="168.97" ry="18"/>
<text text-anchor="middle" x="183.28" y="-122.3" font-family="Times,serif" font-size="14.00">L1_DispersionModel manifest 1..1</text>
</g>
<!-- l1_cal_dpm_man&#45;&gt;trans_cal_dpm_l1_l2a -->
<g id="edge2" class="edge">
<title>l1_cal_dpm_man&#45;&gt;trans_cal_dpm_l1_l2a</title>
<path fill="none" stroke="black" d="M352.47,-126C352.47,-126 396.33,-126 396.33,-126"/>
<polygon fill="black" stroke="black" points="396.33,-129.5 406.33,-126 396.33,-122.5 396.33,-129.5"/>
</g>
<!-- l1_cal_dpm_odir -->
<g id="node4" class="node">
<title>l1_cal_dpm_odir</title>
<ellipse fill="none" stroke="black" cx="183.28" cy="-72" rx="183.07" ry="18"/>
<text text-anchor="middle" x="183.28" y="-68.3" font-family="Times,serif" font-size="14.00">L1_DispersionModel output path 1..1</text>
</g>
<!-- l1_cal_dpm_odir&#45;&gt;trans_cal_dpm_l1_l2a -->
<g id="edge3" class="edge">
<title>l1_cal_dpm_odir&#45;&gt;trans_cal_dpm_l1_l2a</title>
<path fill="none" stroke="black" d="M366.74,-72C366.74,-72 396.4,-72 396.4,-72"/>
<polygon fill="black" stroke="black" points="396.4,-75.5 406.4,-72 396.4,-68.5 396.4,-75.5"/>
</g>
<!-- l1_cal_dpm_rec -->
<g id="node5" class="node">
<title>l1_cal_dpm_rec</title>
<polygon fill="none" stroke="black" points="292.28,-30 62.28,-30 62.28,-6 292.28,-6 304.28,-18 292.28,-30"/>
<text text-anchor="middle" x="183.28" y="-14.3" font-family="Times,serif" font-size="14.00">L1_DispersionModel recipe 1..1</text>
</g>
<!-- l1_cal_dpm_rec&#45;&gt;trans_cal_dpm_l1_l2a -->
<g id="edge4" class="edge">
<title>l1_cal_dpm_rec&#45;&gt;trans_cal_dpm_l1_l2a</title>
<path fill="none" stroke="black" d="M304.61,-19.06C304.61,-19.06 434.47,-19.06 434.47,-19.06"/>
<polygon fill="black" stroke="black" points="434.47,-22.56 444.47,-19.06 434.47,-15.56 434.47,-22.56"/>
</g>
</g>
</svg>
