<?xml version="1.0" encoding="UTF-8" standalone="no"?>
<!DOCTYPE svg PUBLIC "-//W3C//DTD SVG 1.1//EN"
 "http://www.w3.org/Graphics/SVG/1.1/DTD/svg11.dtd">
<!-- Generated by graphviz version 2.43.0 (0)
 -->
<!-- Title: PupilCalibrations Pages: 1 -->
<svg width="644pt" height="260pt"
 viewBox="0.00 0.00 644.11 260.00" xmlns="http://www.w3.org/2000/svg" xmlns:xlink="http://www.w3.org/1999/xlink">
<g id="graph0" class="graph" transform="scale(1 1) rotate(0) translate(4 256)">
<title>PupilCalibrations</title>
<polygon fill="white" stroke="transparent" points="-4,4 -4,-256 640.11,-256 640.11,4 -4,4"/>
<!-- trans_cal_pupil_l1_l2a -->
<g id="node1" class="node">
<title>trans_cal_pupil_l1_l2a</title>
<ellipse fill="none" stroke="black" cx="312.21" cy="-126" rx="72.25" ry="72.25"/>
<text text-anchor="middle" x="312.21" y="-137.3" font-family="Times,serif" font-size="14.00">Pupil</text>
<text text-anchor="middle" x="312.21" y="-122.3" font-family="Times,serif" font-size="14.00">Transmutation</text>
<text text-anchor="middle" x="312.21" y="-107.3" font-family="Times,serif" font-size="14.00">L1 to L2a basic</text>
</g>
<!-- cal_pupil_prod -->
<g id="node7" class="node">
<title>cal_pupil_prod</title>
<polygon fill="none" stroke="black" points="588.22,-225 468.22,-225 468.22,-189 588.22,-189 588.22,-225"/>
<text text-anchor="middle" x="528.22" y="-203.3" font-family="Times,serif" font-size="14.00">Pupil products 1..1</text>
</g>
<!-- trans_cal_pupil_l1_l2a&#45;&gt;cal_pupil_prod -->
<g id="edge6" class="edge">
<title>trans_cal_pupil_l1_l2a&#45;&gt;cal_pupil_prod</title>
<path fill="none" stroke="black" stroke-dasharray="5,2" d="M337.83,-193.56C337.83,-193.56 457.92,-193.56 457.92,-193.56"/>
<polygon fill="black" stroke="black" points="457.92,-197.06 467.92,-193.56 457.92,-190.06 457.92,-197.06"/>
</g>
<!-- cal_pupil_log -->
<g id="node8" class="node">
<title>cal_pupil_log</title>
<ellipse fill="none" stroke="black" cx="528.22" cy="-153" rx="59.29" ry="18"/>
<text text-anchor="middle" x="528.22" y="-149.3" font-family="Times,serif" font-size="14.00">Pupil log 1..1</text>
</g>
<!-- trans_cal_pupil_l1_l2a&#45;&gt;cal_pupil_log -->
<g id="edge9" class="edge">
<title>trans_cal_pupil_l1_l2a&#45;&gt;cal_pupil_log</title>
<path fill="none" stroke="black" stroke-dasharray="5,2" d="M379.37,-153C379.37,-153 458.78,-153 458.78,-153"/>
<polygon fill="black" stroke="black" points="458.78,-156.5 468.78,-153 458.78,-149.5 458.78,-156.5"/>
</g>
<!-- cal_pupil_man -->
<g id="node9" class="node">
<title>cal_pupil_man</title>
<ellipse fill="none" stroke="black" cx="528.22" cy="-99" rx="107.78" ry="18"/>
<text text-anchor="middle" x="528.22" y="-95.3" font-family="Times,serif" font-size="14.00">Pupil product manifest 1..1</text>
</g>
<!-- trans_cal_pupil_l1_l2a&#45;&gt;cal_pupil_man -->
<g id="edge7" class="edge">
<title>trans_cal_pupil_l1_l2a&#45;&gt;cal_pupil_man</title>
<path fill="none" stroke="black" d="M379.37,-99C379.37,-99 410.24,-99 410.24,-99"/>
<polygon fill="black" stroke="black" points="410.24,-102.5 420.24,-99 410.24,-95.5 410.24,-102.5"/>
</g>
<!-- cal_pupil_src -->
<g id="node10" class="node">
<title>cal_pupil_src</title>
<ellipse fill="none" stroke="black" cx="528.22" cy="-45" rx="103.98" ry="18"/>
<text text-anchor="middle" x="528.22" y="-41.3" font-family="Times,serif" font-size="14.00">Pupil source manifest 1..1</text>
</g>
<!-- trans_cal_pupil_l1_l2a&#45;&gt;cal_pupil_src -->
<g id="edge8" class="edge">
<title>trans_cal_pupil_l1_l2a&#45;&gt;cal_pupil_src</title>
<path fill="none" stroke="black" d="M337.83,-58.44C337.83,-58.44 448.72,-58.44 448.72,-58.44"/>
<polygon fill="black" stroke="black" points="448.72,-61.94 458.72,-58.44 448.72,-54.94 448.72,-61.94"/>
</g>
<!-- l1_cal_pupil_prod -->
<g id="node2" class="node">
<title>l1_cal_pupil_prod</title>
<polygon fill="none" stroke="black" points="173.04,-252 31.04,-252 31.04,-216 173.04,-216 173.04,-252"/>
<text text-anchor="middle" x="102.04" y="-230.3" font-family="Times,serif" font-size="14.00">L1_Pupil products 1..b</text>
</g>
<!-- l1_cal_pupil_prod&#45;&gt;trans_cal_pupil_l1_l2a -->
<g id="edge1" class="edge">
<title>l1_cal_pupil_prod&#45;&gt;trans_cal_pupil_l1_l2a</title>
<path fill="none" stroke="black" stroke-dasharray="5,2" d="M173.21,-220.5C234.48,-220.5 313.11,-220.5 313.11,-220.5 313.11,-220.5 313.11,-208.58 313.11,-208.58"/>
<polygon fill="black" stroke="black" points="316.61,-208.58 313.11,-198.58 309.61,-208.58 316.61,-208.58"/>
</g>
<!-- l1_cal_pupil_man -->
<g id="node3" class="node">
<title>l1_cal_pupil_man</title>
<ellipse fill="none" stroke="black" cx="102.04" cy="-180" rx="92.88" ry="18"/>
<text text-anchor="middle" x="102.04" y="-176.3" font-family="Times,serif" font-size="14.00">L1_Pupil manifest 1..1</text>
</g>
<!-- l1_cal_pupil_man&#45;&gt;trans_cal_pupil_l1_l2a -->
<g id="edge2" class="edge">
<title>l1_cal_pupil_man&#45;&gt;trans_cal_pupil_l1_l2a</title>
<path fill="none" stroke="black" d="M195.14,-180C195.14,-180 254.13,-180 254.13,-180"/>
<polygon fill="black" stroke="black" points="254.13,-183.5 264.13,-180 254.13,-176.5 254.13,-183.5"/>
</g>
<!-- l1_cal_pupil_odir -->
<g id="node4" class="node">
<title>l1_cal_pupil_odir</title>
<ellipse fill="none" stroke="black" cx="102.04" cy="-126" rx="102.08" ry="18"/>
<text text-anchor="middle" x="102.04" y="-122.3" font-family="Times,serif" font-size="14.00">L1_Pupil output path 1..1</text>
</g>
<!-- l1_cal_pupil_odir&#45;&gt;trans_cal_pupil_l1_l2a -->
<g id="edge3" class="edge">
<title>l1_cal_pupil_odir&#45;&gt;trans_cal_pupil_l1_l2a</title>
<path fill="none" stroke="black" d="M204.35,-126C204.35,-126 229.89,-126 229.89,-126"/>
<polygon fill="black" stroke="black" points="229.89,-129.5 239.89,-126 229.89,-122.5 229.89,-129.5"/>
</g>
<!-- l1_cal_pupil_rec -->
<g id="node5" class="node">
<title>l1_cal_pupil_rec</title>
<polygon fill="none" stroke="black" points="154.04,-84 38.04,-84 38.04,-60 154.04,-60 166.04,-72 154.04,-84"/>
<text text-anchor="middle" x="102.04" y="-68.3" font-family="Times,serif" font-size="14.00">L1_Pupil recipe 1..1</text>
</g>
<!-- l1_cal_pupil_rec&#45;&gt;trans_cal_pupil_l1_l2a -->
<g id="edge4" class="edge">
<title>l1_cal_pupil_rec&#45;&gt;trans_cal_pupil_l1_l2a</title>
<path fill="none" stroke="black" d="M166.24,-78C166.24,-78 248.31,-78 248.31,-78"/>
<polygon fill="black" stroke="black" points="248.31,-81.5 258.31,-78 248.31,-74.5 248.31,-81.5"/>
</g>
<!-- l1_cal_pupil_nllut -->
<g id="node6" class="node">
<title>l1_cal_pupil_nllut</title>
<polygon fill="none" stroke="black" points="180.04,-30 12.04,-30 12.04,-6 180.04,-6 192.04,-18 180.04,-30"/>
<text text-anchor="middle" x="102.04" y="-14.3" font-family="Times,serif" font-size="14.00">L1_Pupil non&#45;linear LUT 1..1</text>
</g>
<!-- l1_cal_pupil_nllut&#45;&gt;trans_cal_pupil_l1_l2a -->
<g id="edge5" class="edge">
<title>l1_cal_pupil_nllut&#45;&gt;trans_cal_pupil_l1_l2a</title>
<path fill="none" stroke="black" d="M179.11,-36.15C179.11,-49.74 179.11,-66 179.11,-66 179.11,-66 261.91,-66 261.91,-66"/>
<polygon fill="black" stroke="black" points="261.91,-69.5 271.91,-66 261.91,-62.5 261.91,-69.5"/>
</g>
</g>
</svg>
