<?xml version="1.0" encoding="UTF-8" standalone="no"?>
<!DOCTYPE svg PUBLIC "-//W3C//DTD SVG 1.1//EN"
 "http://www.w3.org/Graphics/SVG/1.1/DTD/svg11.dtd">
<!-- Generated by graphviz version 2.43.0 (0)
 -->
<!-- Title: Astrometric Pages: 1 -->
<svg width="929pt" height="586pt"
 viewBox="0.00 0.00 928.50 586.00" xmlns="http://www.w3.org/2000/svg" xmlns:xlink="http://www.w3.org/1999/xlink">
<g id="graph0" class="graph" transform="scale(1 1) rotate(0) translate(4 582)">
<title>Astrometric</title>
<polygon fill="white" stroke="transparent" points="-4,4 -4,-582 924.5,-582 924.5,4 -4,4"/>
<!-- trans_cal_boresight -->
<g id="node1" class="node">
<title>trans_cal_boresight</title>
<ellipse fill="none" stroke="black" cx="460.27" cy="-290" rx="86.03" ry="86.03"/>
<text text-anchor="middle" x="460.27" y="-301.3" font-family="Times,serif" font-size="14.00">L1</text>
<text text-anchor="middle" x="460.27" y="-286.3" font-family="Times,serif" font-size="14.00">Transmutation</text>
<text text-anchor="middle" x="460.27" y="-271.3" font-family="Times,serif" font-size="14.00">Astrometric</text>
</g>
<!-- cal_boresight_prod -->
<g id="node13" class="node">
<title>cal_boresight_prod</title>
<polygon fill="none" stroke="black" points="851.52,-389 651.52,-389 651.52,-353 851.52,-353 851.52,-389"/>
<text text-anchor="middle" x="751.52" y="-367.3" font-family="Times,serif" font-size="14.00">Astrometric products 1..1</text>
</g>
<!-- trans_cal_boresight&#45;&gt;cal_boresight_prod -->
<g id="edge12" class="edge">
<title>trans_cal_boresight&#45;&gt;cal_boresight_prod</title>
<path fill="none" stroke="black" stroke-dasharray="5,2" d="M503.56,-364.63C503.56,-364.63 641.23,-364.63 641.23,-364.63"/>
<polygon fill="black" stroke="black" points="641.23,-368.13 651.23,-364.63 641.23,-361.13 641.23,-368.13"/>
</g>
<!-- cal_boresight_log -->
<g id="node14" class="node">
<title>cal_boresight_log</title>
<ellipse fill="none" stroke="black" cx="751.52" cy="-317" rx="103.18" ry="18"/>
<text text-anchor="middle" x="751.52" y="-313.3" font-family="Times,serif" font-size="14.00">Astrometric log 1..1</text>
</g>
<!-- trans_cal_boresight&#45;&gt;cal_boresight_log -->
<g id="edge15" class="edge">
<title>trans_cal_boresight&#45;&gt;cal_boresight_log</title>
<path fill="none" stroke="black" stroke-dasharray="5,2" d="M542.56,-317C542.56,-317 638.13,-317 638.13,-317"/>
<polygon fill="black" stroke="black" points="638.13,-320.5 648.13,-317 638.13,-313.5 638.13,-320.5"/>
</g>
<!-- cal_boresight_man -->
<g id="node15" class="node">
<title>cal_boresight_man</title>
<ellipse fill="none" stroke="black" cx="751.52" cy="-263" rx="168.97" ry="18"/>
<text text-anchor="middle" x="751.52" y="-259.3" font-family="Times,serif" font-size="14.00">Astrometric product manifest 1..1</text>
</g>
<!-- trans_cal_boresight&#45;&gt;cal_boresight_man -->
<g id="edge13" class="edge">
<title>trans_cal_boresight&#45;&gt;cal_boresight_man</title>
<path fill="none" stroke="black" d="M542.56,-263C542.56,-263 572.27,-263 572.27,-263"/>
<polygon fill="black" stroke="black" points="572.27,-266.5 582.27,-263 572.27,-259.5 572.27,-266.5"/>
</g>
<!-- cal_boresight_src -->
<g id="node16" class="node">
<title>cal_boresight_src</title>
<ellipse fill="none" stroke="black" cx="751.52" cy="-209" rx="163.27" ry="18"/>
<text text-anchor="middle" x="751.52" y="-205.3" font-family="Times,serif" font-size="14.00">Astrometric source manifest 1..1</text>
</g>
<!-- trans_cal_boresight&#45;&gt;cal_boresight_src -->
<g id="edge14" class="edge">
<title>trans_cal_boresight&#45;&gt;cal_boresight_src</title>
<path fill="none" stroke="black" d="M503.56,-215.37C503.56,-215.37 588.63,-215.37 588.63,-215.37"/>
<polygon fill="black" stroke="black" points="588.63,-218.87 598.63,-215.37 588.63,-211.87 588.63,-218.87"/>
</g>
<!-- l1_cal_boresight_prod -->
<g id="node2" class="node">
<title>l1_cal_boresight_prod</title>
<polygon fill="none" stroke="black" points="281.5,-578 56.5,-578 56.5,-542 281.5,-542 281.5,-578"/>
<text text-anchor="middle" x="169" y="-556.3" font-family="Times,serif" font-size="14.00">L1_Astrometric products 1..b</text>
</g>
<!-- l1_cal_boresight_prod&#45;&gt;trans_cal_boresight -->
<g id="edge1" class="edge">
<title>l1_cal_boresight_prod&#45;&gt;trans_cal_boresight</title>
<path fill="none" stroke="black" stroke-dasharray="5,2" d="M281.78,-560C378.89,-560 503.5,-560 503.5,-560 503.5,-560 503.5,-374.85 503.5,-374.85"/>
<polygon fill="black" stroke="black" points="507,-374.85 503.5,-364.85 500,-374.85 507,-374.85"/>
</g>
<!-- l1_cal_boresight_man -->
<g id="node3" class="node">
<title>l1_cal_boresight_man</title>
<ellipse fill="none" stroke="black" cx="169" cy="-506" rx="145.67" ry="18"/>
<text text-anchor="middle" x="169" y="-502.3" font-family="Times,serif" font-size="14.00">L1_Astrometric manifest 1..1</text>
</g>
<!-- l1_cal_boresight_man&#45;&gt;trans_cal_boresight -->
<g id="edge2" class="edge">
<title>l1_cal_boresight_man&#45;&gt;trans_cal_boresight</title>
<path fill="none" stroke="black" d="M314.75,-506C387.63,-506 460.5,-506 460.5,-506 460.5,-506 460.5,-386.3 460.5,-386.3"/>
<polygon fill="black" stroke="black" points="464,-386.3 460.5,-376.3 457,-386.3 464,-386.3"/>
</g>
<!-- l1_cal_boresight_odir -->
<g id="node4" class="node">
<title>l1_cal_boresight_odir</title>
<ellipse fill="none" stroke="black" cx="169" cy="-452" rx="159.77" ry="18"/>
<text text-anchor="middle" x="169" y="-448.3" font-family="Times,serif" font-size="14.00">L1_Astrometric output path 1..1</text>
</g>
<!-- l1_cal_boresight_odir&#45;&gt;trans_cal_boresight -->
<g id="edge3" class="edge">
<title>l1_cal_boresight_odir&#45;&gt;trans_cal_boresight</title>
<path fill="none" stroke="black" d="M316.5,-444.93C316.5,-424.9 316.5,-369.13 316.5,-369.13 316.5,-369.13 415.83,-369.13 415.83,-369.13"/>
<polygon fill="black" stroke="black" points="415.83,-372.63 425.83,-369.13 415.83,-365.63 415.83,-372.63"/>
</g>
<!-- l1_cal_boresight_rec -->
<g id="node5" class="node">
<title>l1_cal_boresight_rec</title>
<polygon fill="none" stroke="black" points="260,-410 66,-410 66,-386 260,-386 272,-398 260,-410"/>
<text text-anchor="middle" x="169" y="-394.3" font-family="Times,serif" font-size="14.00">L1_Astrometric recipe 1..1</text>
</g>
<!-- l1_cal_boresight_rec&#45;&gt;trans_cal_boresight -->
<g id="edge4" class="edge">
<title>l1_cal_boresight_rec&#45;&gt;trans_cal_boresight</title>
<path fill="none" stroke="black" d="M272.23,-384.5C340.51,-384.5 417.5,-384.5 417.5,-384.5 417.5,-384.5 417.5,-375.38 417.5,-375.38"/>
<polygon fill="black" stroke="black" points="421,-375.38 417.5,-365.38 414,-375.38 421,-375.38"/>
</g>
<!-- l1_cal_boresight_nllut -->
<g id="node6" class="node">
<title>l1_cal_boresight_nllut</title>
<polygon fill="none" stroke="black" points="291,-356 35,-356 35,-332 291,-332 303,-344 291,-356"/>
<text text-anchor="middle" x="169" y="-340.3" font-family="Times,serif" font-size="14.00">L1_Astrometric non&#45;linear LUT 1..1</text>
</g>
<!-- l1_cal_boresight_nllut&#45;&gt;trans_cal_boresight -->
<g id="edge5" class="edge">
<title>l1_cal_boresight_nllut&#45;&gt;trans_cal_boresight</title>
<path fill="none" stroke="black" d="M303.12,-344C303.12,-344 382.7,-344 382.7,-344"/>
<polygon fill="black" stroke="black" points="382.7,-347.5 392.7,-344 382.7,-340.5 382.7,-347.5"/>
</g>
<!-- l2a_cal_boresight_cti -->
<g id="node7" class="node">
<title>l2a_cal_boresight_cti</title>
<polygon fill="none" stroke="black" points="326,-302 0,-302 0,-278 326,-278 338,-290 326,-302"/>
<text text-anchor="middle" x="169" y="-286.3" font-family="Times,serif" font-size="14.00">L2a_Astrometric charge xfer inefficiency 1..1</text>
</g>
<!-- l2a_cal_boresight_cti&#45;&gt;trans_cal_boresight -->
<g id="edge7" class="edge">
<title>l2a_cal_boresight_cti&#45;&gt;trans_cal_boresight</title>
<path fill="none" stroke="black" d="M338.01,-290C338.01,-290 363.85,-290 363.85,-290"/>
<polygon fill="black" stroke="black" points="363.85,-293.5 373.85,-290 363.85,-286.5 363.85,-293.5"/>
</g>
<!-- l2a_cal_boresight_dnb -->
<g id="node8" class="node">
<title>l2a_cal_boresight_dnb</title>
<polygon fill="none" stroke="black" points="307.5,-248 18.5,-248 18.5,-222 307.5,-222 319.5,-235 307.5,-248"/>
<text text-anchor="middle" x="169" y="-238.8" font-family="Times,serif" font-size="14.00">L2a_Astrometric CIC/Dark Current/FPN</text>
<text text-anchor="middle" x="169" y="-223.8" font-family="Times,serif" font-size="14.00"> or master dark 1..1</text>
</g>
<!-- l2a_cal_boresight_dnb&#45;&gt;trans_cal_boresight -->
<g id="edge8" class="edge">
<title>l2a_cal_boresight_dnb&#45;&gt;trans_cal_boresight</title>
<path fill="none" stroke="black" d="M319.75,-235C319.75,-235 383.67,-235 383.67,-235"/>
<polygon fill="black" stroke="black" points="383.67,-238.5 393.67,-235 383.67,-231.5 383.67,-238.5"/>
</g>
<!-- l2a_cal_boresight_mbpm -->
<g id="node9" class="node">
<title>l2a_cal_boresight_mbpm</title>
<polygon fill="none" stroke="black" points="320,-192 6,-192 6,-168 320,-168 332,-180 320,-192"/>
<text text-anchor="middle" x="169" y="-176.3" font-family="Times,serif" font-size="14.00">L2a_Astrometric master bad pixel map 1..1</text>
</g>
<!-- l2a_cal_boresight_mbpm&#45;&gt;trans_cal_boresight -->
<g id="edge9" class="edge">
<title>l2a_cal_boresight_mbpm&#45;&gt;trans_cal_boresight</title>
<path fill="none" stroke="black" d="M326.5,-198.06C326.5,-204.35 326.5,-209.87 326.5,-209.87 326.5,-209.87 418.23,-209.87 418.23,-209.87"/>
<polygon fill="black" stroke="black" points="418.23,-213.37 428.23,-209.87 418.23,-206.37 418.23,-213.37"/>
</g>
<!-- l2a_cal_boresight_ff -->
<g id="node10" class="node">
<title>l2a_cal_boresight_ff</title>
<polygon fill="none" stroke="black" points="275,-138 51,-138 51,-114 275,-114 287,-126 275,-138"/>
<text text-anchor="middle" x="169" y="-122.3" font-family="Times,serif" font-size="14.00">L2a_Astrometric flat fields 1..1</text>
</g>
<!-- l2a_cal_boresight_ff&#45;&gt;trans_cal_boresight -->
<g id="edge10" class="edge">
<title>l2a_cal_boresight_ff&#45;&gt;trans_cal_boresight</title>
<path fill="none" stroke="black" d="M287.07,-126C351.18,-126 417.5,-126 417.5,-126 417.5,-126 417.5,-204.72 417.5,-204.72"/>
<polygon fill="black" stroke="black" points="414,-204.72 417.5,-214.72 421,-204.72 414,-204.72"/>
</g>
<!-- l2a_cal_boresight_emg -->
<g id="node11" class="node">
<title>l2a_cal_boresight_emg</title>
<polygon fill="none" stroke="black" points="272,-84 54,-84 54,-60 272,-60 284,-72 272,-84"/>
<text text-anchor="middle" x="169" y="-68.3" font-family="Times,serif" font-size="14.00">L2a_Astrometric EM gain 1..1</text>
</g>
<!-- l2a_cal_boresight_emg&#45;&gt;trans_cal_boresight -->
<g id="edge11" class="edge">
<title>l2a_cal_boresight_emg&#45;&gt;trans_cal_boresight</title>
<path fill="none" stroke="black" d="M284.21,-72C365.69,-72 460.5,-72 460.5,-72 460.5,-72 460.5,-193.53 460.5,-193.53"/>
<polygon fill="black" stroke="black" points="457,-193.53 460.5,-203.53 464,-193.53 457,-193.53"/>
</g>
<!-- l2a_cal_boresight_kgain -->
<g id="node12" class="node">
<title>l2a_cal_boresight_kgain</title>
<polygon fill="none" stroke="black" points="258.5,-30 67.5,-30 67.5,-6 258.5,-6 270.5,-18 258.5,-30"/>
<text text-anchor="middle" x="169" y="-14.3" font-family="Times,serif" font-size="14.00">L2_Astrometric Kgain 1..1</text>
</g>
<!-- l2a_cal_boresight_kgain&#45;&gt;trans_cal_boresight -->
<g id="edge6" class="edge">
<title>l2a_cal_boresight_kgain&#45;&gt;trans_cal_boresight</title>
<path fill="none" stroke="black" d="M270.72,-18C369.14,-18 503.5,-18 503.5,-18 503.5,-18 503.5,-205.32 503.5,-205.32"/>
<polygon fill="black" stroke="black" points="500,-205.31 503.5,-215.32 507,-205.32 500,-205.31"/>
</g>
</g>
</svg>
