<?xml version="1.0" encoding="UTF-8" standalone="no"?>
<!DOCTYPE svg PUBLIC "-//W3C//DTD SVG 1.1//EN"
 "http://www.w3.org/Graphics/SVG/1.1/DTD/svg11.dtd">
<!-- Generated by graphviz version 2.43.0 (0)
 -->
<!-- Title: Throughput Pages: 1 -->
<svg width="987pt" height="586pt"
 viewBox="0.00 0.00 987.37 586.00" xmlns="http://www.w3.org/2000/svg" xmlns:xlink="http://www.w3.org/1999/xlink">
<g id="graph0" class="graph" transform="scale(1 1) rotate(0) translate(4 582)">
<title>Throughput</title>
<polygon fill="white" stroke="transparent" points="-4,4 -4,-582 983.37,-582 983.37,4 -4,4"/>
<!-- trans_cal_corethpt -->
<g id="node1" class="node">
<title>trans_cal_corethpt</title>
<ellipse fill="none" stroke="black" cx="467.75" cy="-288" rx="94.51" ry="94.51"/>
<text text-anchor="middle" x="467.75" y="-299.3" font-family="Times,serif" font-size="14.00">L1</text>
<text text-anchor="middle" x="467.75" y="-284.3" font-family="Times,serif" font-size="14.00">Transmutation</text>
<text text-anchor="middle" x="467.75" y="-269.3" font-family="Times,serif" font-size="14.00">CoreThroughput</text>
</g>
<!-- cal_corethpt_prod -->
<g id="node11" class="node">
<title>cal_corethpt_prod</title>
<polygon fill="none" stroke="black" points="905.44,-387 672.44,-387 672.44,-351 905.44,-351 905.44,-387"/>
<text text-anchor="middle" x="788.94" y="-365.3" font-family="Times,serif" font-size="14.00">CoreThroughput products 1..1</text>
</g>
<!-- trans_cal_corethpt&#45;&gt;cal_corethpt_prod -->
<g id="edge15" class="edge">
<title>trans_cal_corethpt&#45;&gt;cal_corethpt_prod</title>
<path fill="none" stroke="black" stroke-dasharray="5,2" d="M520.43,-366.88C520.43,-366.88 662.23,-366.88 662.23,-366.88"/>
<polygon fill="black" stroke="black" points="662.23,-370.38 672.23,-366.88 662.23,-363.38 662.23,-370.38"/>
</g>
<!-- cal_corethpt_log -->
<g id="node12" class="node">
<title>cal_corethpt_log</title>
<ellipse fill="none" stroke="black" cx="788.94" cy="-315" rx="124.58" ry="18"/>
<text text-anchor="middle" x="788.94" y="-311.3" font-family="Times,serif" font-size="14.00">CoreThroughput log 1..1</text>
</g>
<!-- trans_cal_corethpt&#45;&gt;cal_corethpt_log -->
<g id="edge14" class="edge">
<title>trans_cal_corethpt&#45;&gt;cal_corethpt_log</title>
<path fill="none" stroke="black" stroke-dasharray="5,2" d="M558.93,-315C558.93,-315 653.95,-315 653.95,-315"/>
<polygon fill="black" stroke="black" points="653.95,-318.5 663.95,-315 653.95,-311.5 653.95,-318.5"/>
</g>
<!-- cal_corethpt_man -->
<g id="node13" class="node">
<title>cal_corethpt_man</title>
<ellipse fill="none" stroke="black" cx="788.94" cy="-261" rx="190.37" ry="18"/>
<text text-anchor="middle" x="788.94" y="-257.3" font-family="Times,serif" font-size="14.00">CoreThroughput product manifest 1..1</text>
</g>
<!-- trans_cal_corethpt&#45;&gt;cal_corethpt_man -->
<g id="edge12" class="edge">
<title>trans_cal_corethpt&#45;&gt;cal_corethpt_man</title>
<path fill="none" stroke="black" d="M558.93,-261C558.93,-261 588.48,-261 588.48,-261"/>
<polygon fill="black" stroke="black" points="588.48,-264.5 598.48,-261 588.48,-257.5 588.48,-264.5"/>
</g>
<!-- cal_corethpt_src -->
<g id="node14" class="node">
<title>cal_corethpt_src</title>
<ellipse fill="none" stroke="black" cx="788.94" cy="-207" rx="184.67" ry="18"/>
<text text-anchor="middle" x="788.94" y="-203.3" font-family="Times,serif" font-size="14.00">CoreThroughput source manifest 1..1</text>
</g>
<!-- trans_cal_corethpt&#45;&gt;cal_corethpt_src -->
<g id="edge13" class="edge">
<title>trans_cal_corethpt&#45;&gt;cal_corethpt_src</title>
<path fill="none" stroke="black" d="M520.43,-209.12C520.43,-209.12 595.32,-209.12 595.32,-209.12"/>
<polygon fill="black" stroke="black" points="595.32,-212.62 605.32,-209.12 595.32,-205.62 595.32,-212.62"/>
</g>
<!-- l1_cal_corethpt_odir -->
<g id="node2" class="node">
<title>l1_cal_corethpt_odir</title>
<ellipse fill="none" stroke="black" cx="168.5" cy="-560" rx="159.47" ry="18"/>
<text text-anchor="middle" x="168.5" y="-556.3" font-family="Times,serif" font-size="14.00">L1_Throughput output path 1..1</text>
</g>
<!-- l1_cal_corethpt_odir&#45;&gt;trans_cal_corethpt -->
<g id="edge3" class="edge">
<title>l1_cal_corethpt_odir&#45;&gt;trans_cal_corethpt</title>
<path fill="none" stroke="black" d="M327.98,-560C419.09,-560 515.37,-560 515.37,-560 515.37,-560 515.37,-379.98 515.37,-379.98"/>
<polygon fill="black" stroke="black" points="518.87,-379.98 515.37,-369.98 511.87,-379.98 518.87,-379.98"/>
</g>
<!-- l1_cal_corethpt_rec -->
<g id="node3" class="node">
<title>l1_cal_corethpt_rec</title>
<polygon fill="none" stroke="black" points="258,-518 67,-518 67,-494 258,-494 270,-506 258,-518"/>
<text text-anchor="middle" x="168.5" y="-502.3" font-family="Times,serif" font-size="14.00">L1 Throughput recipe 1..1</text>
</g>
<!-- l1_cal_corethpt_rec&#45;&gt;trans_cal_corethpt -->
<g id="edge4" class="edge">
<title>l1_cal_corethpt_rec&#45;&gt;trans_cal_corethpt</title>
<path fill="none" stroke="black" d="M270.02,-506C357.02,-506 468.37,-506 468.37,-506 468.37,-506 468.37,-392.98 468.37,-392.98"/>
<polygon fill="black" stroke="black" points="471.87,-392.98 468.37,-382.98 464.87,-392.98 471.87,-392.98"/>
</g>
<!-- l1_cal_corethpt_nllut -->
<g id="node4" class="node">
<title>l1_cal_corethpt_nllut</title>
<polygon fill="none" stroke="black" points="290,-464 35,-464 35,-440 290,-440 302,-452 290,-464"/>
<text text-anchor="middle" x="168.5" y="-448.3" font-family="Times,serif" font-size="14.00">L1_Throughput non&#45;linear LUT 1..1</text>
</g>
<!-- l1_cal_corethpt_nllut&#45;&gt;trans_cal_corethpt -->
<g id="edge5" class="edge">
<title>l1_cal_corethpt_nllut&#45;&gt;trans_cal_corethpt</title>
<path fill="none" stroke="black" d="M302.34,-452C363,-452 421.37,-452 421.37,-452 421.37,-452 421.37,-380.96 421.37,-380.96"/>
<polygon fill="black" stroke="black" points="424.87,-380.96 421.37,-370.96 417.87,-380.96 424.87,-380.96"/>
</g>
<!-- l2a_cal_corethpt_cti -->
<g id="node5" class="node">
<title>l2a_cal_corethpt_cti</title>
<polygon fill="none" stroke="black" points="325,-410 0,-410 0,-386 325,-386 337,-398 325,-410"/>
<text text-anchor="middle" x="168.5" y="-394.3" font-family="Times,serif" font-size="14.00">L2a_Throughput charge xfer inefficiency 1..1</text>
</g>
<!-- l2a_cal_corethpt_cti&#45;&gt;trans_cal_corethpt -->
<g id="edge7" class="edge">
<title>l2a_cal_corethpt_cti&#45;&gt;trans_cal_corethpt</title>
<path fill="none" stroke="black" d="M325.37,-379.84C325.37,-374.96 325.37,-371 325.37,-371 325.37,-371 411.92,-371 411.92,-371"/>
<polygon fill="black" stroke="black" points="411.92,-374.5 421.92,-371 411.92,-367.5 411.92,-374.5"/>
</g>
<!-- l2a_cal_corethpt_dnb -->
<g id="node6" class="node">
<title>l2a_cal_corethpt_dnb</title>
<polygon fill="none" stroke="black" points="306.5,-356 18.5,-356 18.5,-330 306.5,-330 318.5,-343 306.5,-356"/>
<text text-anchor="middle" x="168.5" y="-346.8" font-family="Times,serif" font-size="14.00">L2a_Throughput CIC/Dark Current/FPN</text>
<text text-anchor="middle" x="168.5" y="-331.8" font-family="Times,serif" font-size="14.00"> or master dark 1..1</text>
</g>
<!-- l2a_cal_corethpt_dnb&#45;&gt;trans_cal_corethpt -->
<g id="edge8" class="edge">
<title>l2a_cal_corethpt_dnb&#45;&gt;trans_cal_corethpt</title>
<path fill="none" stroke="black" d="M318.56,-343C318.56,-343 380.56,-343 380.56,-343"/>
<polygon fill="black" stroke="black" points="380.56,-346.5 390.56,-343 380.56,-339.5 380.56,-346.5"/>
</g>
<!-- l2a_cal_corethpt_mbpm -->
<g id="node7" class="node">
<title>l2a_cal_corethpt_mbpm</title>
<polygon fill="none" stroke="black" points="319,-300 6,-300 6,-276 319,-276 331,-288 319,-300"/>
<text text-anchor="middle" x="168.5" y="-284.3" font-family="Times,serif" font-size="14.00">L2a_Throughput master bad pixel map 1..1</text>
</g>
<!-- l2a_cal_corethpt_mbpm&#45;&gt;trans_cal_corethpt -->
<g id="edge9" class="edge">
<title>l2a_cal_corethpt_mbpm&#45;&gt;trans_cal_corethpt</title>
<path fill="none" stroke="black" d="M331.26,-288C331.26,-288 362.64,-288 362.64,-288"/>
<polygon fill="black" stroke="black" points="362.64,-291.5 372.64,-288 362.64,-284.5 362.64,-291.5"/>
</g>
<!-- l2a_cal_corethpt_ff -->
<g id="node8" class="node">
<title>l2a_cal_corethpt_ff</title>
<polygon fill="none" stroke="black" points="274.5,-246 50.5,-246 50.5,-222 274.5,-222 286.5,-234 274.5,-246"/>
<text text-anchor="middle" x="168.5" y="-230.3" font-family="Times,serif" font-size="14.00">L2a_Throughput flat fields 1..1</text>
</g>
<!-- l2a_cal_corethpt_ff&#45;&gt;trans_cal_corethpt -->
<g id="edge10" class="edge">
<title>l2a_cal_corethpt_ff&#45;&gt;trans_cal_corethpt</title>
<path fill="none" stroke="black" d="M286.77,-234C286.77,-234 379.84,-234 379.84,-234"/>
<polygon fill="black" stroke="black" points="379.84,-237.5 389.84,-234 379.84,-230.5 379.84,-237.5"/>
</g>
<!-- l2a_cal_corethpt_emg -->
<g id="node9" class="node">
<title>l2a_cal_corethpt_emg</title>
<polygon fill="none" stroke="black" points="271.5,-192 53.5,-192 53.5,-168 271.5,-168 283.5,-180 271.5,-192"/>
<text text-anchor="middle" x="168.5" y="-176.3" font-family="Times,serif" font-size="14.00">L2a_Throughput EM gain 1..1</text>
</g>
<!-- l2a_cal_corethpt_emg&#45;&gt;trans_cal_corethpt -->
<g id="edge11" class="edge">
<title>l2a_cal_corethpt_emg&#45;&gt;trans_cal_corethpt</title>
<path fill="none" stroke="black" d="M283.53,-175.5C346.31,-175.5 411.37,-175.5 411.37,-175.5 411.37,-175.5 411.37,-201.71 411.37,-201.71"/>
<polygon fill="black" stroke="black" points="407.87,-201.71 411.37,-211.71 414.87,-201.71 407.87,-201.71"/>
</g>
<!-- l2a_cal_corethpt_kgain -->
<g id="node10" class="node">
<title>l2a_cal_corethpt_kgain</title>
<polygon fill="none" stroke="black" points="258,-138 67,-138 67,-114 258,-114 270,-126 258,-138"/>
<text text-anchor="middle" x="168.5" y="-122.3" font-family="Times,serif" font-size="14.00">L2_Throughput Kgain 1..1</text>
</g>
<!-- l2a_cal_corethpt_kgain&#45;&gt;trans_cal_corethpt -->
<g id="edge6" class="edge">
<title>l2a_cal_corethpt_kgain&#45;&gt;trans_cal_corethpt</title>
<path fill="none" stroke="black" d="M270.3,-126C350.68,-126 449.37,-126 449.37,-126 449.37,-126 449.37,-184.7 449.37,-184.7"/>
<polygon fill="black" stroke="black" points="445.87,-184.7 449.37,-194.7 452.87,-184.7 445.87,-184.7"/>
</g>
<!-- l1_cal_corethpt_prod -->
<g id="node15" class="node">
<title>l1_cal_corethpt_prod</title>
<ellipse fill="none" stroke="black" cx="168.5" cy="-72" rx="106.68" ry="18"/>
<text text-anchor="middle" x="168.5" y="-68.3" font-family="Times,serif" font-size="14.00">l1_cal_corethpt_prod</text>
</g>
<!-- l1_cal_corethpt_prod&#45;&gt;trans_cal_corethpt -->
<g id="edge1" class="edge">
<title>l1_cal_corethpt_prod&#45;&gt;trans_cal_corethpt</title>
<path fill="none" stroke="black" stroke-dasharray="5,2" d="M275.12,-72C367.82,-72 487.37,-72 487.37,-72 487.37,-72 487.37,-185.14 487.37,-185.14"/>
<polygon fill="black" stroke="black" points="483.87,-185.14 487.37,-195.14 490.87,-185.14 483.87,-185.14"/>
</g>
<!-- l1_cal_corethpt_man -->
<g id="node16" class="node">
<title>l1_cal_corethpt_man</title>
<ellipse fill="none" stroke="black" cx="168.5" cy="-18" rx="105.08" ry="18"/>
<text text-anchor="middle" x="168.5" y="-14.3" font-family="Times,serif" font-size="14.00">l1_cal_corethpt_man</text>
</g>
<!-- l1_cal_corethpt_man&#45;&gt;trans_cal_corethpt -->
<g id="edge2" class="edge">
<title>l1_cal_corethpt_man&#45;&gt;trans_cal_corethpt</title>
<path fill="none" stroke="black" d="M274.12,-18C379.36,-18 525.37,-18 525.37,-18 525.37,-18 525.37,-202.43 525.37,-202.43"/>
<polygon fill="black" stroke="black" points="521.87,-202.43 525.37,-212.43 528.87,-202.43 521.87,-202.43"/>
</g>
</g>
</svg>
