<?xml version="1.0" encoding="UTF-8" standalone="no"?>
<!DOCTYPE svg PUBLIC "-//W3C//DTD SVG 1.1//EN"
 "http://www.w3.org/Graphics/SVG/1.1/DTD/svg11.dtd">
<!-- Generated by graphviz version 2.43.0 (0)
 -->
<!-- Title: Throughput Pages: 1 -->
<svg width="1852pt" height="773pt"
 viewBox="0.00 0.00 1851.79 773.00" xmlns="http://www.w3.org/2000/svg" xmlns:xlink="http://www.w3.org/1999/xlink">
<g id="graph0" class="graph" transform="scale(1 1) rotate(0) translate(4 769)">
<title>Throughput</title>
<polygon fill="white" stroke="transparent" points="-4,4 -4,-769 1847.79,-769 1847.79,4 -4,4"/>
<!-- trans_cal_corethpt_l1_l2a -->
<g id="node1" class="node">
<title>trans_cal_corethpt_l1_l2a</title>
<ellipse fill="none" stroke="black" cx="357.7" cy="-126" rx="72.25" ry="72.25"/>
<text text-anchor="middle" x="357.7" y="-137.3" font-family="Times,serif" font-size="14.00">Throughput</text>
<text text-anchor="middle" x="357.7" y="-122.3" font-family="Times,serif" font-size="14.00">Transmutation</text>
<text text-anchor="middle" x="357.7" y="-107.3" font-family="Times,serif" font-size="14.00">L1 to L2a basic</text>
</g>
<!-- l2a_cal_corethpt_prod -->
<g id="node9" class="node">
<title>l2a_cal_corethpt_prod</title>
<polygon fill="none" stroke="black" points="706.16,-225 523.16,-225 523.16,-189 706.16,-189 706.16,-225"/>
<text text-anchor="middle" x="614.66" y="-203.3" font-family="Times,serif" font-size="14.00">L2a_Throughput products 1..b</text>
</g>
<!-- trans_cal_corethpt_l1_l2a&#45;&gt;l2a_cal_corethpt_prod -->
<g id="edge6" class="edge">
<title>trans_cal_corethpt_l1_l2a&#45;&gt;l2a_cal_corethpt_prod</title>
<path fill="none" stroke="black" stroke-dasharray="5,2" d="M383.28,-193.56C383.28,-193.56 513.05,-193.56 513.05,-193.56"/>
<polygon fill="black" stroke="black" points="513.05,-197.06 523.05,-193.56 513.05,-190.06 513.05,-197.06"/>
</g>
<!-- l2a_cal_corethpt_man -->
<g id="node10" class="node">
<title>l2a_cal_corethpt_man</title>
<ellipse fill="none" stroke="black" cx="614.66" cy="-153" rx="148.67" ry="18"/>
<text text-anchor="middle" x="614.66" y="-149.3" font-family="Times,serif" font-size="14.00">L2a_Throughput product manifest 1..1</text>
</g>
<!-- trans_cal_corethpt_l1_l2a&#45;&gt;l2a_cal_corethpt_man -->
<g id="edge7" class="edge">
<title>trans_cal_corethpt_l1_l2a&#45;&gt;l2a_cal_corethpt_man</title>
<path fill="none" stroke="black" d="M424.88,-153C424.88,-153 455.7,-153 455.7,-153"/>
<polygon fill="black" stroke="black" points="455.7,-156.5 465.7,-153 455.7,-149.5 455.7,-156.5"/>
</g>
<!-- l2a_cal_corethpt_src -->
<g id="node11" class="node">
<title>l2a_cal_corethpt_src</title>
<ellipse fill="none" stroke="black" cx="614.66" cy="-99" rx="144.87" ry="18"/>
<text text-anchor="middle" x="614.66" y="-95.3" font-family="Times,serif" font-size="14.00">L2a_Throughput source manifest 1..1</text>
</g>
<!-- trans_cal_corethpt_l1_l2a&#45;&gt;l2a_cal_corethpt_src -->
<g id="edge8" class="edge">
<title>trans_cal_corethpt_l1_l2a&#45;&gt;l2a_cal_corethpt_src</title>
<path fill="none" stroke="black" d="M424.88,-99C424.88,-99 459.67,-99 459.67,-99"/>
<polygon fill="black" stroke="black" points="459.67,-102.5 469.67,-99 459.67,-95.5 459.67,-102.5"/>
</g>
<!-- l2a_cal_corethpt_log -->
<g id="node20" class="node">
<title>l2a_cal_corethpt_log</title>
<ellipse fill="none" stroke="black" cx="614.66" cy="-45" rx="100.18" ry="18"/>
<text text-anchor="middle" x="614.66" y="-41.3" font-family="Times,serif" font-size="14.00">L2a_Throughput log 1..1</text>
</g>
<!-- trans_cal_corethpt_l1_l2a&#45;&gt;l2a_cal_corethpt_log -->
<g id="edge9" class="edge">
<title>trans_cal_corethpt_l1_l2a&#45;&gt;l2a_cal_corethpt_log</title>
<path fill="none" stroke="black" stroke-dasharray="5,2" d="M383.28,-58.44C383.28,-58.44 537.82,-58.44 537.82,-58.44"/>
<polygon fill="black" stroke="black" points="537.82,-61.94 547.82,-58.44 537.82,-54.94 537.82,-61.94"/>
</g>
<!-- trans_cal_corethpt_l2a_l2b -->
<g id="node2" class="node">
<title>trans_cal_corethpt_l2a_l2b</title>
<ellipse fill="none" stroke="black" cx="867.38" cy="-396" rx="67.76" ry="67.76"/>
<text text-anchor="middle" x="867.38" y="-407.3" font-family="Times,serif" font-size="14.00">Throughput</text>
<text text-anchor="middle" x="867.38" y="-392.3" font-family="Times,serif" font-size="14.00">Transmutation</text>
<text text-anchor="middle" x="867.38" y="-377.3" font-family="Times,serif" font-size="14.00">L2a to L2b</text>
</g>
<!-- l2b_cal_corethpt_prod -->
<g id="node21" class="node">
<title>l2b_cal_corethpt_prod</title>
<polygon fill="none" stroke="black" points="1212.75,-495 1028.75,-495 1028.75,-459 1212.75,-459 1212.75,-495"/>
<text text-anchor="middle" x="1120.75" y="-473.3" font-family="Times,serif" font-size="14.00">L2b_Throughput products 1..1</text>
</g>
<!-- trans_cal_corethpt_l2a_l2b&#45;&gt;l2b_cal_corethpt_prod -->
<g id="edge20" class="edge">
<title>trans_cal_corethpt_l2a_l2b&#45;&gt;l2b_cal_corethpt_prod</title>
<path fill="none" stroke="black" stroke-dasharray="5,2" d="M908.79,-449.92C908.79,-463.48 908.79,-474.25 908.79,-474.25 908.79,-474.25 1018.71,-474.25 1018.71,-474.25"/>
<polygon fill="black" stroke="black" points="1018.71,-477.75 1028.71,-474.25 1018.71,-470.75 1018.71,-477.75"/>
</g>
<!-- l2b_cal_corethpt_man -->
<g id="node22" class="node">
<title>l2b_cal_corethpt_man</title>
<ellipse fill="none" stroke="black" cx="1120.75" cy="-423" rx="149.47" ry="18"/>
<text text-anchor="middle" x="1120.75" y="-419.3" font-family="Times,serif" font-size="14.00">L2b_Throughput product manifest 1..1</text>
</g>
<!-- trans_cal_corethpt_l2a_l2b&#45;&gt;l2b_cal_corethpt_man -->
<g id="edge22" class="edge">
<title>trans_cal_corethpt_l2a_l2b&#45;&gt;l2b_cal_corethpt_man</title>
<path fill="none" stroke="black" d="M929.69,-423C929.69,-423 961.21,-423 961.21,-423"/>
<polygon fill="black" stroke="black" points="961.21,-426.5 971.21,-423 961.21,-419.5 961.21,-426.5"/>
</g>
<!-- l2b_cal_corethpt_src -->
<g id="node23" class="node">
<title>l2b_cal_corethpt_src</title>
<ellipse fill="none" stroke="black" cx="1120.75" cy="-369" rx="145.67" ry="18"/>
<text text-anchor="middle" x="1120.75" y="-365.3" font-family="Times,serif" font-size="14.00">L2b_Throughput source manifest 1..1</text>
</g>
<!-- trans_cal_corethpt_l2a_l2b&#45;&gt;l2b_cal_corethpt_src -->
<g id="edge23" class="edge">
<title>trans_cal_corethpt_l2a_l2b&#45;&gt;l2b_cal_corethpt_src</title>
<path fill="none" stroke="black" d="M929.69,-369C929.69,-369 964.68,-369 964.68,-369"/>
<polygon fill="black" stroke="black" points="964.68,-372.5 974.68,-369 964.68,-365.5 964.68,-372.5"/>
</g>
<!-- l2b_cal_corethpt_log -->
<g id="node29" class="node">
<title>l2b_cal_corethpt_log</title>
<ellipse fill="none" stroke="black" cx="1120.75" cy="-315" rx="100.98" ry="18"/>
<text text-anchor="middle" x="1120.75" y="-311.3" font-family="Times,serif" font-size="14.00">L2b_Throughput log 1..1</text>
</g>
<!-- trans_cal_corethpt_l2a_l2b&#45;&gt;l2b_cal_corethpt_log -->
<g id="edge21" class="edge">
<title>trans_cal_corethpt_l2a_l2b&#45;&gt;l2b_cal_corethpt_log</title>
<path fill="none" stroke="black" stroke-dasharray="5,2" d="M908.79,-342.15C908.79,-323.59 908.79,-307.37 908.79,-307.37 908.79,-307.37 1019.32,-307.37 1019.32,-307.37"/>
<polygon fill="black" stroke="black" points="1019.32,-310.87 1029.32,-307.37 1019.32,-303.87 1019.32,-310.87"/>
</g>
<!-- trans_cal_corethpt_l2b_ctp -->
<g id="node3" class="node">
<title>trans_cal_corethpt_l2b_ctp</title>
<ellipse fill="none" stroke="black" cx="1409.48" cy="-585" rx="103.48" ry="103.48"/>
<text text-anchor="middle" x="1409.48" y="-596.3" font-family="Times,serif" font-size="14.00">Throughput</text>
<text text-anchor="middle" x="1409.48" y="-581.3" font-family="Times,serif" font-size="14.00">Transmutation</text>
<text text-anchor="middle" x="1409.48" y="-566.3" font-family="Times,serif" font-size="14.00">L2b to CoreThroughput</text>
</g>
<!-- cal_corethpt_prod -->
<g id="node30" class="node">
<title>cal_corethpt_prod</title>
<polygon fill="none" stroke="black" points="1787.25,-684 1605.25,-684 1605.25,-648 1787.25,-648 1787.25,-684"/>
<text text-anchor="middle" x="1696.25" y="-662.3" font-family="Times,serif" font-size="14.00">CoreThroughput products 1..1</text>
</g>
<!-- trans_cal_corethpt_l2b_ctp&#45;&gt;cal_corethpt_prod -->
<g id="edge31" class="edge">
<title>trans_cal_corethpt_l2b_ctp&#45;&gt;cal_corethpt_prod</title>
<path fill="none" stroke="black" stroke-dasharray="5,2" d="M1473.83,-666C1473.83,-666 1595.19,-666 1595.19,-666"/>
<polygon fill="black" stroke="black" points="1595.19,-669.5 1605.19,-666 1595.19,-662.5 1595.19,-669.5"/>
</g>
<!-- cal_corethpt_log -->
<g id="node31" class="node">
<title>cal_corethpt_log</title>
<ellipse fill="none" stroke="black" cx="1696.25" cy="-612" rx="98.58" ry="18"/>
<text text-anchor="middle" x="1696.25" y="-608.3" font-family="Times,serif" font-size="14.00">CoreThroughput log 1..1</text>
</g>
<!-- trans_cal_corethpt_l2b_ctp&#45;&gt;cal_corethpt_log -->
<g id="edge32" class="edge">
<title>trans_cal_corethpt_l2b_ctp&#45;&gt;cal_corethpt_log</title>
<path fill="none" stroke="black" stroke-dasharray="5,2" d="M1509.37,-612C1509.37,-612 1587.2,-612 1587.2,-612"/>
<polygon fill="black" stroke="black" points="1587.2,-615.5 1597.2,-612 1587.2,-608.5 1587.2,-615.5"/>
</g>
<!-- cal_corethpt_man -->
<g id="node32" class="node">
<title>cal_corethpt_man</title>
<ellipse fill="none" stroke="black" cx="1696.25" cy="-558" rx="147.57" ry="18"/>
<text text-anchor="middle" x="1696.25" y="-554.3" font-family="Times,serif" font-size="14.00">CoreThroughput product manifest 1..1</text>
</g>
<!-- trans_cal_corethpt_l2b_ctp&#45;&gt;cal_corethpt_man -->
<g id="edge33" class="edge">
<title>trans_cal_corethpt_l2b_ctp&#45;&gt;cal_corethpt_man</title>
<path fill="none" stroke="black" d="M1509.37,-558C1509.37,-558 1538.5,-558 1538.5,-558"/>
<polygon fill="black" stroke="black" points="1538.5,-561.5 1548.5,-558 1538.5,-554.5 1538.5,-561.5"/>
</g>
<!-- cal_corethpt_src -->
<g id="node33" class="node">
<title>cal_corethpt_src</title>
<ellipse fill="none" stroke="black" cx="1696.25" cy="-504" rx="143.77" ry="18"/>
<text text-anchor="middle" x="1696.25" y="-500.3" font-family="Times,serif" font-size="14.00">CoreThroughput source manifest 1..1</text>
</g>
<!-- trans_cal_corethpt_l2b_ctp&#45;&gt;cal_corethpt_src -->
<g id="edge34" class="edge">
<title>trans_cal_corethpt_l2b_ctp&#45;&gt;cal_corethpt_src</title>
<path fill="none" stroke="black" d="M1473.83,-504C1473.83,-504 1542.41,-504 1542.41,-504"/>
<polygon fill="black" stroke="black" points="1542.41,-507.5 1552.41,-504 1542.41,-500.5 1542.41,-507.5"/>
</g>
<!-- l1_cal_corethpt_prod -->
<g id="node4" class="node">
<title>l1_cal_corethpt_prod</title>
<polygon fill="none" stroke="black" points="213.29,-252 36.29,-252 36.29,-216 213.29,-216 213.29,-252"/>
<text text-anchor="middle" x="124.79" y="-230.3" font-family="Times,serif" font-size="14.00">L1_Throughput products 1..b</text>
</g>
<!-- l1_cal_corethpt_prod&#45;&gt;trans_cal_corethpt_l1_l2a -->
<g id="edge1" class="edge">
<title>l1_cal_corethpt_prod&#45;&gt;trans_cal_corethpt_l1_l2a</title>
<path fill="none" stroke="black" stroke-dasharray="5,2" d="M213.54,-220.5C279.39,-220.5 357.79,-220.5 357.79,-220.5 357.79,-220.5 357.79,-208.58 357.79,-208.58"/>
<polygon fill="black" stroke="black" points="361.29,-208.58 357.79,-198.58 354.29,-208.58 361.29,-208.58"/>
</g>
<!-- l1_cal_corethpt_man -->
<g id="node5" class="node">
<title>l1_cal_corethpt_man</title>
<ellipse fill="none" stroke="black" cx="124.79" cy="-180" rx="115.88" ry="18"/>
<text text-anchor="middle" x="124.79" y="-176.3" font-family="Times,serif" font-size="14.00">L1_Throughput manifest 1..1</text>
</g>
<!-- l1_cal_corethpt_man&#45;&gt;trans_cal_corethpt_l1_l2a -->
<g id="edge2" class="edge">
<title>l1_cal_corethpt_man&#45;&gt;trans_cal_corethpt_l1_l2a</title>
<path fill="none" stroke="black" d="M240.56,-180C240.56,-180 299.68,-180 299.68,-180"/>
<polygon fill="black" stroke="black" points="299.68,-183.5 309.68,-180 299.68,-176.5 299.68,-183.5"/>
</g>
<!-- l1_cal_corethpt_odir -->
<g id="node6" class="node">
<title>l1_cal_corethpt_odir</title>
<ellipse fill="none" stroke="black" cx="124.79" cy="-126" rx="124.58" ry="18"/>
<text text-anchor="middle" x="124.79" y="-122.3" font-family="Times,serif" font-size="14.00">L1_Throughput output path 1..1</text>
</g>
<!-- l1_cal_corethpt_odir&#45;&gt;trans_cal_corethpt_l1_l2a -->
<g id="edge3" class="edge">
<title>l1_cal_corethpt_odir&#45;&gt;trans_cal_corethpt_l1_l2a</title>
<path fill="none" stroke="black" d="M249.77,-126C249.77,-126 275.44,-126 275.44,-126"/>
<polygon fill="black" stroke="black" points="275.44,-129.5 285.44,-126 275.44,-122.5 275.44,-129.5"/>
</g>
<!-- l1_cal_corethpt_rec -->
<g id="node7" class="node">
<title>l1_cal_corethpt_rec</title>
<polygon fill="none" stroke="black" points="194.79,-84 42.79,-84 42.79,-60 194.79,-60 206.79,-72 194.79,-84"/>
<text text-anchor="middle" x="124.79" y="-68.3" font-family="Times,serif" font-size="14.00">L1_Throughput recipe 1..1</text>
</g>
<!-- l1_cal_corethpt_rec&#45;&gt;trans_cal_corethpt_l1_l2a -->
<g id="edge4" class="edge">
<title>l1_cal_corethpt_rec&#45;&gt;trans_cal_corethpt_l1_l2a</title>
<path fill="none" stroke="black" d="M206.91,-78C206.91,-78 293.63,-78 293.63,-78"/>
<polygon fill="black" stroke="black" points="293.63,-81.5 303.63,-78 293.63,-74.5 293.63,-81.5"/>
</g>
<!-- l1_cal_corethpt_nllut -->
<g id="node8" class="node">
<title>l1_cal_corethpt_nllut</title>
<polygon fill="none" stroke="black" points="220.29,-30 17.29,-30 17.29,-6 220.29,-6 232.29,-18 220.29,-30"/>
<text text-anchor="middle" x="124.79" y="-14.3" font-family="Times,serif" font-size="14.00">L1_Throughput non&#45;linear LUT 1..1</text>
</g>
<!-- l1_cal_corethpt_nllut&#45;&gt;trans_cal_corethpt_l1_l2a -->
<g id="edge5" class="edge">
<title>l1_cal_corethpt_nllut&#45;&gt;trans_cal_corethpt_l1_l2a</title>
<path fill="none" stroke="black" d="M219.79,-36.15C219.79,-49.74 219.79,-66 219.79,-66 219.79,-66 307.44,-66 307.44,-66"/>
<polygon fill="black" stroke="black" points="307.44,-69.5 317.44,-66 307.44,-62.5 307.44,-69.5"/>
</g>
<!-- l2a_cal_corethpt_prod&#45;&gt;trans_cal_corethpt_l2a_l2b -->
<g id="edge10" class="edge">
<title>l2a_cal_corethpt_prod&#45;&gt;trans_cal_corethpt_l2a_l2b</title>
<path fill="none" stroke="black" stroke-dasharray="5,2" d="M706.47,-207C774.26,-207 854.79,-207 854.79,-207 854.79,-207 854.79,-319.1 854.79,-319.1"/>
<polygon fill="black" stroke="black" points="851.29,-319.1 854.79,-329.1 858.29,-319.1 851.29,-319.1"/>
</g>
<!-- l2a_cal_corethpt_man&#45;&gt;trans_cal_corethpt_l2a_l2b -->
<g id="edge19" class="edge">
<title>l2a_cal_corethpt_man&#45;&gt;trans_cal_corethpt_l2a_l2b</title>
<path fill="none" stroke="black" d="M755.79,-158.86C755.79,-190.76 755.79,-342 755.79,-342 755.79,-342 816.15,-342 816.15,-342"/>
<polygon fill="black" stroke="black" points="816.15,-345.5 826.15,-342 816.15,-338.5 816.15,-345.5"/>
</g>
<!-- l2a_cal_corethpt_odir -->
<g id="node12" class="node">
<title>l2a_cal_corethpt_odir</title>
<ellipse fill="none" stroke="black" cx="614.66" cy="-641" rx="128.88" ry="18"/>
<text text-anchor="middle" x="614.66" y="-637.3" font-family="Times,serif" font-size="14.00">L2a_Throughput output path 1..1</text>
</g>
<!-- l2a_cal_corethpt_odir&#45;&gt;trans_cal_corethpt_l2a_l2b -->
<g id="edge12" class="edge">
<title>l2a_cal_corethpt_odir&#45;&gt;trans_cal_corethpt_l2a_l2b</title>
<path fill="none" stroke="black" d="M743.53,-640C811.84,-640 881.79,-640 881.79,-640 881.79,-640 881.79,-472.35 881.79,-472.35"/>
<polygon fill="black" stroke="black" points="885.29,-472.35 881.79,-462.35 878.29,-472.35 885.29,-472.35"/>
</g>
<!-- l2a_cal_corethpt_rec -->
<g id="node13" class="node">
<title>l2a_cal_corethpt_rec</title>
<polygon fill="none" stroke="black" points="687.66,-599 529.66,-599 529.66,-575 687.66,-575 699.66,-587 687.66,-599"/>
<text text-anchor="middle" x="614.66" y="-583.3" font-family="Times,serif" font-size="14.00">L2a_Throughput recipe 1..1</text>
</g>
<!-- l2a_cal_corethpt_rec&#45;&gt;trans_cal_corethpt_l2a_l2b -->
<g id="edge13" class="edge">
<title>l2a_cal_corethpt_rec&#45;&gt;trans_cal_corethpt_l2a_l2b</title>
<path fill="none" stroke="black" d="M700,-586C769.02,-586 854.79,-586 854.79,-586 854.79,-586 854.79,-472.72 854.79,-472.72"/>
<polygon fill="black" stroke="black" points="858.29,-472.72 854.79,-462.72 851.29,-472.72 858.29,-472.72"/>
</g>
<!-- l2a_cal_corethpt_cti -->
<g id="node14" class="node">
<title>l2a_cal_corethpt_cti</title>
<polygon fill="none" stroke="black" points="735.66,-545 481.66,-545 481.66,-521 735.66,-521 747.66,-533 735.66,-545"/>
<text text-anchor="middle" x="614.66" y="-529.3" font-family="Times,serif" font-size="14.00">L2a_Throughput charge xfer inefficiency 1..1</text>
</g>
<!-- l2a_cal_corethpt_cti&#45;&gt;trans_cal_corethpt_l2a_l2b -->
<g id="edge14" class="edge">
<title>l2a_cal_corethpt_cti&#45;&gt;trans_cal_corethpt_l2a_l2b</title>
<path fill="none" stroke="black" d="M738.79,-514.99C738.79,-490.58 738.79,-450 738.79,-450 738.79,-450 815.99,-450 815.99,-450"/>
<polygon fill="black" stroke="black" points="815.99,-453.5 825.99,-450 815.99,-446.5 815.99,-453.5"/>
</g>
<!-- l2a_cal_corethpt_dnb -->
<g id="node15" class="node">
<title>l2a_cal_corethpt_dnb</title>
<polygon fill="none" stroke="black" points="722.16,-491 495.16,-491 495.16,-465 722.16,-465 734.16,-478 722.16,-491"/>
<text text-anchor="middle" x="614.66" y="-481.8" font-family="Times,serif" font-size="14.00">L2a_Throughput CIC/Dark Current/FPN</text>
<text text-anchor="middle" x="614.66" y="-466.8" font-family="Times,serif" font-size="14.00"> or master dark 1..1</text>
</g>
<!-- l2a_cal_corethpt_dnb&#45;&gt;trans_cal_corethpt_l2a_l2b -->
<g id="edge15" class="edge">
<title>l2a_cal_corethpt_dnb&#45;&gt;trans_cal_corethpt_l2a_l2b</title>
<path fill="none" stroke="black" d="M734.36,-484.63C782.48,-484.63 826.79,-484.63 826.79,-484.63 826.79,-484.63 826.79,-460.62 826.79,-460.62"/>
<polygon fill="black" stroke="black" points="830.29,-460.62 826.79,-450.62 823.29,-460.62 830.29,-460.62"/>
</g>
<!-- l2a_cal_corethpt_mbpm -->
<g id="node16" class="node">
<title>l2a_cal_corethpt_mbpm</title>
<polygon fill="none" stroke="black" points="730.16,-435 487.16,-435 487.16,-411 730.16,-411 742.16,-423 730.16,-435"/>
<text text-anchor="middle" x="614.66" y="-419.3" font-family="Times,serif" font-size="14.00">L2a_Throughput master bad pixel map 1..1</text>
</g>
<!-- l2a_cal_corethpt_mbpm&#45;&gt;trans_cal_corethpt_l2a_l2b -->
<g id="edge16" class="edge">
<title>l2a_cal_corethpt_mbpm&#45;&gt;trans_cal_corethpt_l2a_l2b</title>
<path fill="none" stroke="black" d="M742.5,-423C742.5,-423 794.79,-423 794.79,-423"/>
<polygon fill="black" stroke="black" points="794.79,-426.5 804.79,-423 794.79,-419.5 794.79,-426.5"/>
</g>
<!-- l2a_cal_corethpt_ff -->
<g id="node17" class="node">
<title>l2a_cal_corethpt_ff</title>
<polygon fill="none" stroke="black" points="696.66,-381 520.66,-381 520.66,-357 696.66,-357 708.66,-369 696.66,-381"/>
<text text-anchor="middle" x="614.66" y="-365.3" font-family="Times,serif" font-size="14.00">L2a_Throughput flat fields 1..1</text>
</g>
<!-- l2a_cal_corethpt_ff&#45;&gt;trans_cal_corethpt_l2a_l2b -->
<g id="edge17" class="edge">
<title>l2a_cal_corethpt_ff&#45;&gt;trans_cal_corethpt_l2a_l2b</title>
<path fill="none" stroke="black" d="M708.77,-369C708.77,-369 795.03,-369 795.03,-369"/>
<polygon fill="black" stroke="black" points="795.03,-372.5 805.03,-369 795.03,-365.5 795.03,-372.5"/>
</g>
<!-- l2a_cal_corethpt_emg -->
<g id="node18" class="node">
<title>l2a_cal_corethpt_emg</title>
<polygon fill="none" stroke="black" points="695.16,-327 522.16,-327 522.16,-303 695.16,-303 707.16,-315 695.16,-327"/>
<text text-anchor="middle" x="614.66" y="-311.3" font-family="Times,serif" font-size="14.00">L2a_Throughput EM gain 1..1</text>
</g>
<!-- l2a_cal_corethpt_emg&#45;&gt;trans_cal_corethpt_l2a_l2b -->
<g id="edge18" class="edge">
<title>l2a_cal_corethpt_emg&#45;&gt;trans_cal_corethpt_l2a_l2b</title>
<path fill="none" stroke="black" d="M707.34,-317.75C784.49,-317.75 881.79,-317.75 881.79,-317.75 881.79,-317.75 881.79,-319.63 881.79,-319.63"/>
<polygon fill="black" stroke="black" points="878.29,-319.63 881.79,-329.63 885.29,-319.63 878.29,-319.63"/>
</g>
<!-- l2a_cal_corethpt_kgain -->
<g id="node19" class="node">
<title>l2a_cal_corethpt_kgain</title>
<polygon fill="none" stroke="black" points="684.66,-273 532.66,-273 532.66,-249 684.66,-249 696.66,-261 684.66,-273"/>
<text text-anchor="middle" x="614.66" y="-257.3" font-family="Times,serif" font-size="14.00">L2_Throughput Kgain 1..1</text>
</g>
<!-- l2a_cal_corethpt_kgain&#45;&gt;trans_cal_corethpt_l2a_l2b -->
<g id="edge11" class="edge">
<title>l2a_cal_corethpt_kgain&#45;&gt;trans_cal_corethpt_l2a_l2b</title>
<path fill="none" stroke="black" d="M696.68,-261C756.37,-261 826.79,-261 826.79,-261 826.79,-261 826.79,-331.48 826.79,-331.48"/>
<polygon fill="black" stroke="black" points="823.29,-331.48 826.79,-341.48 830.29,-331.48 823.29,-331.48"/>
</g>
<!-- l2b_cal_corethpt_prod&#45;&gt;trans_cal_corethpt_l2b_ctp -->
<g id="edge24" class="edge">
<title>l2b_cal_corethpt_prod&#45;&gt;trans_cal_corethpt_l2b_ctp</title>
<path fill="none" stroke="black" stroke-dasharray="5,2" d="M1212.9,-490.59C1212.9,-490.59 1357.65,-490.59 1357.65,-490.59"/>
<polygon fill="black" stroke="black" points="1357.65,-494.09 1367.65,-490.59 1357.65,-487.09 1357.65,-494.09"/>
</g>
<!-- l2b_cal_corethpt_man&#45;&gt;trans_cal_corethpt_l2b_ctp -->
<g id="edge25" class="edge">
<title>l2b_cal_corethpt_man&#45;&gt;trans_cal_corethpt_l2b_ctp</title>
<path fill="none" stroke="black" d="M1265.79,-427.54C1265.79,-442.03 1265.79,-486.17 1265.79,-486.17 1265.79,-486.17 1369.35,-486.17 1369.35,-486.17"/>
<polygon fill="black" stroke="black" points="1369.35,-489.68 1379.35,-486.17 1369.35,-482.68 1369.35,-489.68"/>
</g>
<!-- l2b_cal_corethpt_odir -->
<g id="node24" class="node">
<title>l2b_cal_corethpt_odir</title>
<ellipse fill="none" stroke="black" cx="1120.75" cy="-747" rx="129.18" ry="18"/>
<text text-anchor="middle" x="1120.75" y="-743.3" font-family="Times,serif" font-size="14.00">L2b_Throughput output path 1..1</text>
</g>
<!-- l2b_cal_corethpt_odir&#45;&gt;trans_cal_corethpt_l2b_ctp -->
<g id="edge26" class="edge">
<title>l2b_cal_corethpt_odir&#45;&gt;trans_cal_corethpt_l2b_ctp</title>
<path fill="none" stroke="black" d="M1228.79,-736.85C1228.79,-718.99 1228.79,-683.83 1228.79,-683.83 1228.79,-683.83 1369.23,-683.83 1369.23,-683.83"/>
<polygon fill="black" stroke="black" points="1369.23,-687.33 1379.23,-683.83 1369.23,-680.33 1369.23,-687.33"/>
</g>
<!-- l2b_cal_corethpt_rec -->
<g id="node25" class="node">
<title>l2b_cal_corethpt_rec</title>
<polygon fill="none" stroke="black" points="1193.75,-705 1035.75,-705 1035.75,-681 1193.75,-681 1205.75,-693 1193.75,-705"/>
<text text-anchor="middle" x="1120.75" y="-689.3" font-family="Times,serif" font-size="14.00">L2b_Throughput recipe 1..1</text>
</g>
<!-- l2b_cal_corethpt_rec&#45;&gt;trans_cal_corethpt_l2b_ctp -->
<g id="edge27" class="edge">
<title>l2b_cal_corethpt_rec&#45;&gt;trans_cal_corethpt_l2b_ctp</title>
<path fill="none" stroke="black" d="M1205.82,-679.41C1205.82,-679.41 1357.49,-679.41 1357.49,-679.41"/>
<polygon fill="black" stroke="black" points="1357.49,-682.91 1367.49,-679.41 1357.49,-675.91 1357.49,-682.91"/>
</g>
<!-- l2b_cal_corethpt_excicrf -->
<g id="node26" class="node">
<title>l2b_cal_corethpt_excicrf</title>
<polygon fill="none" stroke="black" points="1242.75,-651 986.75,-651 986.75,-627 1242.75,-627 1254.75,-639 1242.75,-651"/>
<text text-anchor="middle" x="1120.75" y="-635.3" font-family="Times,serif" font-size="14.00">L2b_Throughput EXCAM ICRF location 1..1</text>
</g>
<!-- l2b_cal_corethpt_excicrf&#45;&gt;trans_cal_corethpt_l2b_ctp -->
<g id="edge28" class="edge">
<title>l2b_cal_corethpt_excicrf&#45;&gt;trans_cal_corethpt_l2b_ctp</title>
<path fill="none" stroke="black" d="M1254.97,-639C1254.97,-639 1311.35,-639 1311.35,-639"/>
<polygon fill="black" stroke="black" points="1311.35,-642.5 1321.35,-639 1311.35,-635.5 1311.35,-642.5"/>
</g>
<!-- l2b_cal_corethpt_excfovps -->
<g id="node27" class="node">
<title>l2b_cal_corethpt_excfovps</title>
<polygon fill="none" stroke="black" points="1247.75,-597 981.75,-597 981.75,-573 1247.75,-573 1259.75,-585 1247.75,-597"/>
<text text-anchor="middle" x="1120.75" y="-581.3" font-family="Times,serif" font-size="14.00">L2b_Throughput EXCAM FOV pixel scale 1..1</text>
</g>
<!-- l2b_cal_corethpt_excfovps&#45;&gt;trans_cal_corethpt_l2b_ctp -->
<g id="edge29" class="edge">
<title>l2b_cal_corethpt_excfovps&#45;&gt;trans_cal_corethpt_l2b_ctp</title>
<path fill="none" stroke="black" d="M1260.04,-585C1260.04,-585 1295.86,-585 1295.86,-585"/>
<polygon fill="black" stroke="black" points="1295.86,-588.5 1305.86,-585 1295.86,-581.5 1295.86,-588.5"/>
</g>
<!-- l2b_cal_corethpt_distm -->
<g id="node28" class="node">
<title>l2b_cal_corethpt_distm</title>
<polygon fill="none" stroke="black" points="1217.25,-543 1012.25,-543 1012.25,-519 1217.25,-519 1229.25,-531 1217.25,-543"/>
<text text-anchor="middle" x="1120.75" y="-527.3" font-family="Times,serif" font-size="14.00">L2b_Throughput distortion map 1..1</text>
</g>
<!-- l2b_cal_corethpt_distm&#45;&gt;trans_cal_corethpt_l2b_ctp -->
<g id="edge30" class="edge">
<title>l2b_cal_corethpt_distm&#45;&gt;trans_cal_corethpt_l2b_ctp</title>
<path fill="none" stroke="black" d="M1229.5,-531C1229.5,-531 1311.04,-531 1311.04,-531"/>
<polygon fill="black" stroke="black" points="1311.04,-534.5 1321.04,-531 1311.04,-527.5 1311.04,-534.5"/>
</g>
</g>
</svg>
