<?xml version="1.0" encoding="UTF-8" standalone="no"?>
<!DOCTYPE svg PUBLIC "-//W3C//DTD SVG 1.1//EN"
 "http://www.w3.org/Graphics/SVG/1.1/DTD/svg11.dtd">
<!-- Generated by graphviz version 2.43.0 (0)
 -->
<!-- Title: WavelengthZeroPointCalibrations Pages: 1 -->
<svg width="1158pt" height="248pt"
 viewBox="0.00 0.00 1157.54 248.42" xmlns="http://www.w3.org/2000/svg" xmlns:xlink="http://www.w3.org/1999/xlink">
<g id="graph0" class="graph" transform="scale(1 1) rotate(0) translate(4 244.42)">
<title>WavelengthZeroPointCalibrations</title>
<polygon fill="white" stroke="transparent" points="-4,4 -4,-244.42 1153.54,-244.42 1153.54,4 -4,4"/>
<!-- trans_cal_wzp_l1_l2a -->
<g id="node1" class="node">
<title>trans_cal_wzp_l1_l2a</title>
<ellipse fill="none" stroke="black" cx="565.67" cy="-120.21" rx="120.42" ry="120.42"/>
<text text-anchor="middle" x="565.67" y="-131.51" font-family="Times,serif" font-size="14.00">WavelengthZeroPoint</text>
<text text-anchor="middle" x="565.67" y="-116.51" font-family="Times,serif" font-size="14.00">Transmutation</text>
<text text-anchor="middle" x="565.67" y="-101.51" font-family="Times,serif" font-size="14.00">L1 to L2a basic</text>
</g>
<!-- cal_wzp_prod -->
<g id="node6" class="node">
<title>cal_wzp_prod</title>
<polygon fill="none" stroke="black" points="1070.21,-219.21 801.21,-219.21 801.21,-183.21 1070.21,-183.21 1070.21,-219.21"/>
<text text-anchor="middle" x="935.71" y="-197.51" font-family="Times,serif" font-size="14.00">WavelengthZeroPoint products 1..1</text>
</g>
<!-- trans_cal_wzp_l1_l2a&#45;&gt;cal_wzp_prod -->
<g id="edge5" class="edge">
<title>trans_cal_wzp_l1_l2a&#45;&gt;cal_wzp_prod</title>
<path fill="none" stroke="black" stroke-dasharray="5,2" d="M654.78,-201.21C654.78,-201.21 791.11,-201.21 791.11,-201.21"/>
<polygon fill="black" stroke="black" points="791.11,-204.71 801.11,-201.21 791.11,-197.71 791.11,-204.71"/>
</g>
<!-- cal_wzp_log -->
<g id="node7" class="node">
<title>cal_wzp_log</title>
<ellipse fill="none" stroke="black" cx="935.71" cy="-147.21" rx="148.37" ry="18"/>
<text text-anchor="middle" x="935.71" y="-143.51" font-family="Times,serif" font-size="14.00">WavelengthZeroPoint log 1..1</text>
</g>
<!-- trans_cal_wzp_l1_l2a&#45;&gt;cal_wzp_log -->
<g id="edge8" class="edge">
<title>trans_cal_wzp_l1_l2a&#45;&gt;cal_wzp_log</title>
<path fill="none" stroke="black" stroke-dasharray="5,2" d="M683.01,-147.21C683.01,-147.21 777.32,-147.21 777.32,-147.21"/>
<polygon fill="black" stroke="black" points="777.32,-150.71 787.32,-147.21 777.32,-143.71 777.32,-150.71"/>
</g>
<!-- cal_wzp_man -->
<g id="node8" class="node">
<title>cal_wzp_man</title>
<ellipse fill="none" stroke="black" cx="935.71" cy="-93.21" rx="213.66" ry="18"/>
<text text-anchor="middle" x="935.71" y="-89.51" font-family="Times,serif" font-size="14.00">WavelengthZeroPoint product manifest 1..1</text>
</g>
<!-- trans_cal_wzp_l1_l2a&#45;&gt;cal_wzp_man -->
<g id="edge6" class="edge">
<title>trans_cal_wzp_l1_l2a&#45;&gt;cal_wzp_man</title>
<path fill="none" stroke="black" d="M683.01,-93.21C683.01,-93.21 711.63,-93.21 711.63,-93.21"/>
<polygon fill="black" stroke="black" points="711.63,-96.71 721.63,-93.21 711.63,-89.71 711.63,-96.71"/>
</g>
<!-- cal_wzp_src -->
<g id="node9" class="node">
<title>cal_wzp_src</title>
<ellipse fill="none" stroke="black" cx="935.71" cy="-39.21" rx="207.96" ry="18"/>
<text text-anchor="middle" x="935.71" y="-35.51" font-family="Times,serif" font-size="14.00">WavelengthZeroPoint source manifest 1..1</text>
</g>
<!-- trans_cal_wzp_l1_l2a&#45;&gt;cal_wzp_src -->
<g id="edge7" class="edge">
<title>trans_cal_wzp_l1_l2a&#45;&gt;cal_wzp_src</title>
<path fill="none" stroke="black" d="M654.78,-39.21C654.78,-39.21 717.58,-39.21 717.58,-39.21"/>
<polygon fill="black" stroke="black" points="717.58,-42.71 727.58,-39.21 717.58,-35.71 717.58,-42.71"/>
</g>
<!-- l1_cal_wzp_prod -->
<g id="node2" class="node">
<title>l1_cal_wzp_prod</title>
<polygon fill="none" stroke="black" points="351.73,-219.21 57.73,-219.21 57.73,-183.21 351.73,-183.21 351.73,-219.21"/>
<text text-anchor="middle" x="204.73" y="-197.51" font-family="Times,serif" font-size="14.00">L1_WavelengthZeroPoint products 1..b</text>
</g>
<!-- l1_cal_wzp_prod&#45;&gt;trans_cal_wzp_l1_l2a -->
<g id="edge1" class="edge">
<title>l1_cal_wzp_prod&#45;&gt;trans_cal_wzp_l1_l2a</title>
<path fill="none" stroke="black" stroke-dasharray="5,2" d="M351.8,-201.21C351.8,-201.21 466.64,-201.21 466.64,-201.21"/>
<polygon fill="black" stroke="black" points="466.64,-204.71 476.64,-201.21 466.64,-197.71 466.64,-204.71"/>
</g>
<!-- l1_cal_wzp_man -->
<g id="node3" class="node">
<title>l1_cal_wzp_man</title>
<ellipse fill="none" stroke="black" cx="204.73" cy="-147.21" rx="190.37" ry="18"/>
<text text-anchor="middle" x="204.73" y="-143.51" font-family="Times,serif" font-size="14.00">L1_WavelengthZeroPoint manifest 1..1</text>
</g>
<!-- l1_cal_wzp_man&#45;&gt;trans_cal_wzp_l1_l2a -->
<g id="edge2" class="edge">
<title>l1_cal_wzp_man&#45;&gt;trans_cal_wzp_l1_l2a</title>
<path fill="none" stroke="black" d="M395.24,-147.21C395.24,-147.21 438.5,-147.21 438.5,-147.21"/>
<polygon fill="black" stroke="black" points="438.5,-150.71 448.5,-147.21 438.5,-143.71 438.5,-150.71"/>
</g>
<!-- l1_cal_wzp_odir -->
<g id="node4" class="node">
<title>l1_cal_wzp_odir</title>
<ellipse fill="none" stroke="black" cx="204.73" cy="-93.21" rx="204.96" ry="18"/>
<text text-anchor="middle" x="204.73" y="-89.51" font-family="Times,serif" font-size="14.00">L1_WavelengthZeroPoint output path 1..1</text>
</g>
<!-- l1_cal_wzp_odir&#45;&gt;trans_cal_wzp_l1_l2a -->
<g id="edge3" class="edge">
<title>l1_cal_wzp_odir&#45;&gt;trans_cal_wzp_l1_l2a</title>
<path fill="none" stroke="black" d="M409.72,-93.21C409.72,-93.21 438.47,-93.21 438.47,-93.21"/>
<polygon fill="black" stroke="black" points="438.47,-96.71 448.47,-93.21 438.47,-89.71 438.47,-96.71"/>
</g>
<!-- l1_cal_wzp_rec -->
<g id="node5" class="node">
<title>l1_cal_wzp_rec</title>
<polygon fill="none" stroke="black" points="330.23,-51.21 67.23,-51.21 67.23,-27.21 330.23,-27.21 342.23,-39.21 330.23,-51.21"/>
<text text-anchor="middle" x="204.73" y="-35.51" font-family="Times,serif" font-size="14.00">L1_WavelengthZeroPoint recipe 1..1</text>
</g>
<!-- l1_cal_wzp_rec&#45;&gt;trans_cal_wzp_l1_l2a -->
<g id="edge4" class="edge">
<title>l1_cal_wzp_rec&#45;&gt;trans_cal_wzp_l1_l2a</title>
<path fill="none" stroke="black" d="M342.48,-39.21C342.48,-39.21 466.67,-39.21 466.67,-39.21"/>
<polygon fill="black" stroke="black" points="466.67,-42.71 476.67,-39.21 466.67,-35.71 466.67,-42.71"/>
</g>
</g>
</svg>
