<?xml version="1.0" encoding="UTF-8" standalone="no"?>
<!DOCTYPE svg PUBLIC "-//W3C//DTD SVG 1.1//EN"
 "http://www.w3.org/Graphics/SVG/1.1/DTD/svg11.dtd">
<!-- Generated by graphviz version 2.43.0 (0)
 -->
<!-- Title: NDSpecFilterCalibration Pages: 1 -->
<svg width="978pt" height="586pt"
 viewBox="0.00 0.00 978.22 586.00" xmlns="http://www.w3.org/2000/svg" xmlns:xlink="http://www.w3.org/1999/xlink">
<g id="graph0" class="graph" transform="scale(1 1) rotate(0) translate(4 582)">
<title>NDSpecFilterCalibration</title>
<polygon fill="white" stroke="transparent" points="-4,4 -4,-582 974.22,-582 974.22,4 -4,4"/>
<!-- trans_cal_ndfiltspec -->
<g id="node1" class="node">
<title>trans_cal_ndfiltspec</title>
<ellipse fill="none" stroke="black" cx="481.97" cy="-288" rx="86.95" ry="86.95"/>
<text text-anchor="middle" x="481.97" y="-299.3" font-family="Times,serif" font-size="14.00">L1</text>
<text text-anchor="middle" x="481.97" y="-284.3" font-family="Times,serif" font-size="14.00">Transmutation</text>
<text text-anchor="middle" x="481.97" y="-269.3" font-family="Times,serif" font-size="14.00">ND Filter Spec</text>
</g>
<!-- cal_ndfiltspec_prod -->
<g id="node9" class="node">
<title>cal_ndfiltspec_prod</title>
<polygon fill="none" stroke="black" points="898.58,-387 676.58,-387 676.58,-351 898.58,-351 898.58,-387"/>
<text text-anchor="middle" x="787.58" y="-365.3" font-family="Times,serif" font-size="14.00">ND Spec Filter products 1..1</text>
</g>
<!-- trans_cal_ndfiltspec&#45;&gt;cal_ndfiltspec_prod -->
<g id="edge12" class="edge">
<title>trans_cal_ndfiltspec&#45;&gt;cal_ndfiltspec_prod</title>
<path fill="none" stroke="black" stroke-dasharray="5,2" d="M526.09,-362.99C526.09,-362.99 666.54,-362.99 666.54,-362.99"/>
<polygon fill="black" stroke="black" points="666.54,-366.49 676.54,-362.99 666.54,-359.49 666.54,-366.49"/>
</g>
<!-- cal_ndfiltspec_log -->
<g id="node10" class="node">
<title>cal_ndfiltspec_log</title>
<ellipse fill="none" stroke="black" cx="787.58" cy="-315" rx="117.78" ry="18"/>
<text text-anchor="middle" x="787.58" y="-311.3" font-family="Times,serif" font-size="14.00">ND Spec Filter log 1..1</text>
</g>
<!-- trans_cal_ndfiltspec&#45;&gt;cal_ndfiltspec_log -->
<g id="edge13" class="edge">
<title>trans_cal_ndfiltspec&#45;&gt;cal_ndfiltspec_log</title>
<path fill="none" stroke="black" stroke-dasharray="5,2" d="M564.68,-315C564.68,-315 659.82,-315 659.82,-315"/>
<polygon fill="black" stroke="black" points="659.82,-318.5 669.82,-315 659.82,-311.5 659.82,-318.5"/>
</g>
<!-- cal_ndfiltspec_man -->
<g id="node11" class="node">
<title>cal_ndfiltspec_man</title>
<ellipse fill="none" stroke="black" cx="787.58" cy="-261" rx="182.77" ry="18"/>
<text text-anchor="middle" x="787.58" y="-257.3" font-family="Times,serif" font-size="14.00">ND Spec Filter product manifest 1..1</text>
</g>
<!-- trans_cal_ndfiltspec&#45;&gt;cal_ndfiltspec_man -->
<g id="edge14" class="edge">
<title>trans_cal_ndfiltspec&#45;&gt;cal_ndfiltspec_man</title>
<path fill="none" stroke="black" d="M564.68,-261C564.68,-261 594.86,-261 594.86,-261"/>
<polygon fill="black" stroke="black" points="594.86,-264.5 604.86,-261 594.86,-257.5 594.86,-264.5"/>
</g>
<!-- cal_ndfiltspec_src -->
<g id="node12" class="node">
<title>cal_ndfiltspec_src</title>
<ellipse fill="none" stroke="black" cx="787.58" cy="-207" rx="177.37" ry="18"/>
<text text-anchor="middle" x="787.58" y="-203.3" font-family="Times,serif" font-size="14.00">ND Spec Filter source manifest 1..1</text>
</g>
<!-- trans_cal_ndfiltspec&#45;&gt;cal_ndfiltspec_src -->
<g id="edge15" class="edge">
<title>trans_cal_ndfiltspec&#45;&gt;cal_ndfiltspec_src</title>
<path fill="none" stroke="black" d="M526.09,-213.01C526.09,-213.01 610.16,-213.01 610.16,-213.01"/>
<polygon fill="black" stroke="black" points="610.16,-216.51 620.16,-213.01 610.16,-209.51 610.16,-216.51"/>
</g>
<!-- l1_cal_ndfiltspec_nllut -->
<g id="node2" class="node">
<title>l1_cal_ndfiltspec_nllut</title>
<polygon fill="none" stroke="black" points="312.5,-572 34.5,-572 34.5,-548 312.5,-548 324.5,-560 312.5,-572"/>
<text text-anchor="middle" x="179.5" y="-556.3" font-family="Times,serif" font-size="14.00">L1_ND Spec Filter non&#45;linear LUT 1..1</text>
</g>
<!-- l1_cal_ndfiltspec_nllut&#45;&gt;trans_cal_ndfiltspec -->
<g id="edge5" class="edge">
<title>l1_cal_ndfiltspec_nllut&#45;&gt;trans_cal_ndfiltspec</title>
<path fill="none" stroke="black" d="M324.53,-560C419.54,-560 526.22,-560 526.22,-560 526.22,-560 526.22,-373.05 526.22,-373.05"/>
<polygon fill="black" stroke="black" points="529.72,-373.05 526.22,-363.05 522.72,-373.05 529.72,-373.05"/>
</g>
<!-- l2a_cal_ndfiltspec_cti -->
<g id="node3" class="node">
<title>l2a_cal_ndfiltspec_cti</title>
<polygon fill="none" stroke="black" points="347,-518 0,-518 0,-494 347,-494 359,-506 347,-518"/>
<text text-anchor="middle" x="179.5" y="-502.3" font-family="Times,serif" font-size="14.00">L2a_ND Spec Filter charge xfer inefficiency 1..1</text>
</g>
<!-- l2a_cal_ndfiltspec_cti&#45;&gt;trans_cal_ndfiltspec -->
<g id="edge7" class="edge">
<title>l2a_cal_ndfiltspec_cti&#45;&gt;trans_cal_ndfiltspec</title>
<path fill="none" stroke="black" d="M359.09,-506C424.27,-506 482.22,-506 482.22,-506 482.22,-506 482.22,-385.1 482.22,-385.1"/>
<polygon fill="black" stroke="black" points="485.72,-385.1 482.22,-375.1 478.72,-385.1 485.72,-385.1"/>
</g>
<!-- l2a_cal_ndfiltspec_dnb -->
<g id="node4" class="node">
<title>l2a_cal_ndfiltspec_dnb</title>
<polygon fill="none" stroke="black" points="329,-464 18,-464 18,-438 329,-438 341,-451 329,-464"/>
<text text-anchor="middle" x="179.5" y="-454.8" font-family="Times,serif" font-size="14.00">L2a_ND Spec Filter CIC/Dark Current/FPN</text>
<text text-anchor="middle" x="179.5" y="-439.8" font-family="Times,serif" font-size="14.00"> or master dark 1..1</text>
</g>
<!-- l2a_cal_ndfiltspec_dnb&#45;&gt;trans_cal_ndfiltspec -->
<g id="edge8" class="edge">
<title>l2a_cal_ndfiltspec_dnb&#45;&gt;trans_cal_ndfiltspec</title>
<path fill="none" stroke="black" d="M341.03,-451C393.84,-451 439.22,-451 439.22,-451 439.22,-451 439.22,-373.77 439.22,-373.77"/>
<polygon fill="black" stroke="black" points="442.72,-373.77 439.22,-363.77 435.72,-373.77 442.72,-373.77"/>
</g>
<!-- l2a_cal_ndfiltspec_mbpm -->
<g id="node5" class="node">
<title>l2a_cal_ndfiltspec_mbpm</title>
<polygon fill="none" stroke="black" points="341,-408 6,-408 6,-384 341,-384 353,-396 341,-408"/>
<text text-anchor="middle" x="179.5" y="-392.3" font-family="Times,serif" font-size="14.00">L2a_ND Spec Filter master bad pixel map 1..1</text>
</g>
<!-- l2a_cal_ndfiltspec_mbpm&#45;&gt;trans_cal_ndfiltspec -->
<g id="edge9" class="edge">
<title>l2a_cal_ndfiltspec_mbpm&#45;&gt;trans_cal_ndfiltspec</title>
<path fill="none" stroke="black" d="M331.22,-377.78C331.22,-372.19 331.22,-367.49 331.22,-367.49 331.22,-367.49 436.63,-367.49 436.63,-367.49"/>
<polygon fill="black" stroke="black" points="436.63,-370.99 446.63,-367.49 436.63,-363.99 436.63,-370.99"/>
</g>
<!-- l2a_cal_ndfiltspec_ff -->
<g id="node6" class="node">
<title>l2a_cal_ndfiltspec_ff</title>
<polygon fill="none" stroke="black" points="296.5,-354 50.5,-354 50.5,-330 296.5,-330 308.5,-342 296.5,-354"/>
<text text-anchor="middle" x="179.5" y="-338.3" font-family="Times,serif" font-size="14.00">L2a_ND Spec Filter flat fields 1..1</text>
</g>
<!-- l2a_cal_ndfiltspec_ff&#45;&gt;trans_cal_ndfiltspec -->
<g id="edge10" class="edge">
<title>l2a_cal_ndfiltspec_ff&#45;&gt;trans_cal_ndfiltspec</title>
<path fill="none" stroke="black" d="M308.65,-342C308.65,-342 403.71,-342 403.71,-342"/>
<polygon fill="black" stroke="black" points="403.71,-345.5 413.71,-342 403.71,-338.5 403.71,-345.5"/>
</g>
<!-- l2a_cal_ndfiltspec_emg -->
<g id="node7" class="node">
<title>l2a_cal_ndfiltspec_emg</title>
<polygon fill="none" stroke="black" points="293.5,-300 53.5,-300 53.5,-276 293.5,-276 305.5,-288 293.5,-300"/>
<text text-anchor="middle" x="179.5" y="-284.3" font-family="Times,serif" font-size="14.00">L2a_ND Spec Filter EM gain 1..1</text>
</g>
<!-- l2a_cal_ndfiltspec_emg&#45;&gt;trans_cal_ndfiltspec -->
<g id="edge11" class="edge">
<title>l2a_cal_ndfiltspec_emg&#45;&gt;trans_cal_ndfiltspec</title>
<path fill="none" stroke="black" d="M305.59,-288C305.59,-288 384.73,-288 384.73,-288"/>
<polygon fill="black" stroke="black" points="384.73,-291.5 394.73,-288 384.73,-284.5 384.73,-291.5"/>
</g>
<!-- l2a_cal_ndfiltspec_kgain -->
<g id="node8" class="node">
<title>l2a_cal_ndfiltspec_kgain</title>
<polygon fill="none" stroke="black" points="280,-246 67,-246 67,-222 280,-222 292,-234 280,-246"/>
<text text-anchor="middle" x="179.5" y="-230.3" font-family="Times,serif" font-size="14.00">L2_ND Spec Filter Kgain 1..1</text>
</g>
<!-- l2a_cal_ndfiltspec_kgain&#45;&gt;trans_cal_ndfiltspec -->
<g id="edge6" class="edge">
<title>l2a_cal_ndfiltspec_kgain&#45;&gt;trans_cal_ndfiltspec</title>
<path fill="none" stroke="black" d="M292.13,-234C292.13,-234 403.63,-234 403.63,-234"/>
<polygon fill="black" stroke="black" points="403.63,-237.5 413.63,-234 403.63,-230.5 403.63,-237.5"/>
</g>
<!-- l1_cal_ndfiltspec_prod -->
<g id="node13" class="node">
<title>l1_cal_ndfiltspec_prod</title>
<ellipse fill="none" stroke="black" cx="179.5" cy="-180" rx="112.38" ry="18"/>
<text text-anchor="middle" x="179.5" y="-176.3" font-family="Times,serif" font-size="14.00">l1_cal_ndfiltspec_prod</text>
</g>
<!-- l1_cal_ndfiltspec_prod&#45;&gt;trans_cal_ndfiltspec -->
<g id="edge1" class="edge">
<title>l1_cal_ndfiltspec_prod&#45;&gt;trans_cal_ndfiltspec</title>
<path fill="none" stroke="black" stroke-dasharray="5,2" d="M254.04,-193.5C327.95,-193.5 430.22,-193.5 430.22,-193.5 430.22,-193.5 430.22,-207.84 430.22,-207.84"/>
<polygon fill="black" stroke="black" points="426.72,-207.84 430.22,-217.84 433.72,-207.84 426.72,-207.84"/>
</g>
<!-- l1_cal_ndfiltspec_man -->
<g id="node14" class="node">
<title>l1_cal_ndfiltspec_man</title>
<ellipse fill="none" stroke="black" cx="179.5" cy="-126" rx="111.28" ry="18"/>
<text text-anchor="middle" x="179.5" y="-122.3" font-family="Times,serif" font-size="14.00">l1_cal_ndfiltspec_man</text>
</g>
<!-- l1_cal_ndfiltspec_man&#45;&gt;trans_cal_ndfiltspec -->
<g id="edge2" class="edge">
<title>l1_cal_ndfiltspec_man&#45;&gt;trans_cal_ndfiltspec</title>
<path fill="none" stroke="black" d="M290.78,-126C371.01,-126 465.22,-126 465.22,-126 465.22,-126 465.22,-192.26 465.22,-192.26"/>
<polygon fill="black" stroke="black" points="461.72,-192.26 465.22,-202.26 468.72,-192.26 461.72,-192.26"/>
</g>
<!-- l1_cal_ndfiltspec_odir -->
<g id="node15" class="node">
<title>l1_cal_ndfiltspec_odir</title>
<ellipse fill="none" stroke="black" cx="179.5" cy="-72" rx="109.68" ry="18"/>
<text text-anchor="middle" x="179.5" y="-68.3" font-family="Times,serif" font-size="14.00">l1_cal_ndfiltspec_odir</text>
</g>
<!-- l1_cal_ndfiltspec_odir&#45;&gt;trans_cal_ndfiltspec -->
<g id="edge3" class="edge">
<title>l1_cal_ndfiltspec_odir&#45;&gt;trans_cal_ndfiltspec</title>
<path fill="none" stroke="black" d="M289.42,-72C382.26,-72 500.22,-72 500.22,-72 500.22,-72 500.22,-192.94 500.22,-192.94"/>
<polygon fill="black" stroke="black" points="496.72,-192.94 500.22,-202.94 503.72,-192.94 496.72,-192.94"/>
</g>
<!-- l1_cal_ndfiltspec_rec -->
<g id="node16" class="node">
<title>l1_cal_ndfiltspec_rec</title>
<ellipse fill="none" stroke="black" cx="179.5" cy="-18" rx="105.88" ry="18"/>
<text text-anchor="middle" x="179.5" y="-14.3" font-family="Times,serif" font-size="14.00">l1_cal_ndfiltspec_rec</text>
</g>
<!-- l1_cal_ndfiltspec_rec&#45;&gt;trans_cal_ndfiltspec -->
<g id="edge4" class="edge">
<title>l1_cal_ndfiltspec_rec&#45;&gt;trans_cal_ndfiltspec</title>
<path fill="none" stroke="black" d="M285.45,-18C389.97,-18 534.22,-18 534.22,-18 534.22,-18 534.22,-208.12 534.22,-208.12"/>
<polygon fill="black" stroke="black" points="530.72,-208.12 534.22,-218.12 537.72,-208.12 530.72,-208.12"/>
</g>
</g>
</svg>
