<?xml version="1.0" encoding="UTF-8" standalone="no"?>
<!DOCTYPE svg PUBLIC "-//W3C//DTD SVG 1.1//EN"
 "http://www.w3.org/Graphics/SVG/1.1/DTD/svg11.dtd">
<!-- Generated by graphviz version 2.43.0 (0)
 -->
<!-- Title: PupilCalibrations Pages: 1 -->
<svg width="790pt" height="206pt"
 viewBox="0.00 0.00 789.73 206.00" xmlns="http://www.w3.org/2000/svg" xmlns:xlink="http://www.w3.org/1999/xlink">
<g id="graph0" class="graph" transform="scale(1 1) rotate(0) translate(4 202)">
<title>PupilCalibrations</title>
<polygon fill="white" stroke="transparent" points="-4,4 -4,-202 785.73,-202 785.73,4 -4,4"/>
<!-- trans_cal_pupil_l1_l2a -->
<g id="node1" class="node">
<title>trans_cal_pupil_l1_l2a</title>
<ellipse fill="none" stroke="black" cx="381.77" cy="-99" rx="88.28" ry="88.28"/>
<text text-anchor="middle" x="381.77" y="-110.3" font-family="Times,serif" font-size="14.00">Pupil</text>
<text text-anchor="middle" x="381.77" y="-95.3" font-family="Times,serif" font-size="14.00">Transmutation</text>
<text text-anchor="middle" x="381.77" y="-80.3" font-family="Times,serif" font-size="14.00">L1 to L2a basic</text>
</g>
<!-- cal_pupil_prod -->
<g id="node6" class="node">
<title>cal_pupil_prod</title>
<polygon fill="none" stroke="black" points="719.94,-198 567.94,-198 567.94,-162 719.94,-162 719.94,-198"/>
<text text-anchor="middle" x="643.94" y="-176.3" font-family="Times,serif" font-size="14.00">Pupil products 1..1</text>
</g>
<!-- trans_cal_pupil_l1_l2a&#45;&gt;cal_pupil_prod -->
<g id="edge5" class="edge">
<title>trans_cal_pupil_l1_l2a&#45;&gt;cal_pupil_prod</title>
<path fill="none" stroke="black" stroke-dasharray="5,2" d="M427.43,-174.69C427.43,-174.69 557.76,-174.69 557.76,-174.69"/>
<polygon fill="black" stroke="black" points="557.76,-178.19 567.76,-174.69 557.76,-171.19 557.76,-178.19"/>
</g>
<!-- cal_pupil_log -->
<g id="node7" class="node">
<title>cal_pupil_log</title>
<ellipse fill="none" stroke="black" cx="643.94" cy="-126" rx="72.29" ry="18"/>
<text text-anchor="middle" x="643.94" y="-122.3" font-family="Times,serif" font-size="14.00">Pupil log 1..1</text>
</g>
<!-- trans_cal_pupil_l1_l2a&#45;&gt;cal_pupil_log -->
<g id="edge8" class="edge">
<title>trans_cal_pupil_l1_l2a&#45;&gt;cal_pupil_log</title>
<path fill="none" stroke="black" stroke-dasharray="5,2" d="M466.16,-126C466.16,-126 561.6,-126 561.6,-126"/>
<polygon fill="black" stroke="black" points="561.6,-129.5 571.6,-126 561.6,-122.5 561.6,-129.5"/>
</g>
<!-- cal_pupil_man -->
<g id="node8" class="node">
<title>cal_pupil_man</title>
<ellipse fill="none" stroke="black" cx="643.94" cy="-72" rx="137.58" ry="18"/>
<text text-anchor="middle" x="643.94" y="-68.3" font-family="Times,serif" font-size="14.00">Pupil product manifest 1..1</text>
</g>
<!-- trans_cal_pupil_l1_l2a&#45;&gt;cal_pupil_man -->
<g id="edge6" class="edge">
<title>trans_cal_pupil_l1_l2a&#45;&gt;cal_pupil_man</title>
<path fill="none" stroke="black" d="M466.16,-72C466.16,-72 495.78,-72 495.78,-72"/>
<polygon fill="black" stroke="black" points="495.78,-75.5 505.78,-72 495.78,-68.5 495.78,-75.5"/>
</g>
<!-- cal_pupil_src -->
<g id="node9" class="node">
<title>cal_pupil_src</title>
<ellipse fill="none" stroke="black" cx="643.94" cy="-18" rx="131.88" ry="18"/>
<text text-anchor="middle" x="643.94" y="-14.3" font-family="Times,serif" font-size="14.00">Pupil source manifest 1..1</text>
</g>
<!-- trans_cal_pupil_l1_l2a&#45;&gt;cal_pupil_src -->
<g id="edge7" class="edge">
<title>trans_cal_pupil_l1_l2a&#45;&gt;cal_pupil_src</title>
<path fill="none" stroke="black" d="M427.43,-23.31C427.43,-23.31 507.7,-23.31 507.7,-23.31"/>
<polygon fill="black" stroke="black" points="507.7,-26.81 517.7,-23.31 507.7,-19.81 507.7,-26.81"/>
</g>
<!-- l1_cal_pupil_prod -->
<g id="node2" class="node">
<title>l1_cal_pupil_prod</title>
<polygon fill="none" stroke="black" points="217.19,-198 40.19,-198 40.19,-162 217.19,-162 217.19,-198"/>
<text text-anchor="middle" x="128.69" y="-176.3" font-family="Times,serif" font-size="14.00">L1_Pupil products 1..b</text>
</g>
<!-- l1_cal_pupil_prod&#45;&gt;trans_cal_pupil_l1_l2a -->
<g id="edge1" class="edge">
<title>l1_cal_pupil_prod&#45;&gt;trans_cal_pupil_l1_l2a</title>
<path fill="none" stroke="black" stroke-dasharray="5,2" d="M217.2,-174.69C217.2,-174.69 325.96,-174.69 325.96,-174.69"/>
<polygon fill="black" stroke="black" points="325.96,-178.19 335.96,-174.69 325.96,-171.19 325.96,-178.19"/>
</g>
<!-- l1_cal_pupil_man -->
<g id="node3" class="node">
<title>l1_cal_pupil_man</title>
<ellipse fill="none" stroke="black" cx="128.69" cy="-126" rx="114.28" ry="18"/>
<text text-anchor="middle" x="128.69" y="-122.3" font-family="Times,serif" font-size="14.00">L1_Pupil manifest 1..1</text>
</g>
<!-- l1_cal_pupil_man&#45;&gt;trans_cal_pupil_l1_l2a -->
<g id="edge2" class="edge">
<title>l1_cal_pupil_man&#45;&gt;trans_cal_pupil_l1_l2a</title>
<path fill="none" stroke="black" d="M243.38,-126C243.38,-126 287.38,-126 287.38,-126"/>
<polygon fill="black" stroke="black" points="287.38,-129.5 297.38,-126 287.38,-122.5 287.38,-129.5"/>
</g>
<!-- l1_cal_pupil_odir -->
<g id="node4" class="node">
<title>l1_cal_pupil_odir</title>
<ellipse fill="none" stroke="black" cx="128.69" cy="-72" rx="128.88" ry="18"/>
<text text-anchor="middle" x="128.69" y="-68.3" font-family="Times,serif" font-size="14.00">L1_Pupil output path 1..1</text>
</g>
<!-- l1_cal_pupil_odir&#45;&gt;trans_cal_pupil_l1_l2a -->
<g id="edge3" class="edge">
<title>l1_cal_pupil_odir&#45;&gt;trans_cal_pupil_l1_l2a</title>
<path fill="none" stroke="black" d="M257.45,-72C257.45,-72 287.39,-72 287.39,-72"/>
<polygon fill="black" stroke="black" points="287.39,-75.5 297.39,-72 287.39,-68.5 287.39,-75.5"/>
</g>
<!-- l1_cal_pupil_rec -->
<g id="node5" class="node">
<title>l1_cal_pupil_rec</title>
<polygon fill="none" stroke="black" points="195.69,-30 49.69,-30 49.69,-6 195.69,-6 207.69,-18 195.69,-30"/>
<text text-anchor="middle" x="128.69" y="-14.3" font-family="Times,serif" font-size="14.00">L1_Pupil recipe 1..1</text>
</g>
<!-- l1_cal_pupil_rec&#45;&gt;trans_cal_pupil_l1_l2a -->
<g id="edge4" class="edge">
<title>l1_cal_pupil_rec&#45;&gt;trans_cal_pupil_l1_l2a</title>
<path fill="none" stroke="black" d="M207.72,-23.31C207.72,-23.31 326.07,-23.31 326.07,-23.31"/>
<polygon fill="black" stroke="black" points="326.07,-26.81 336.07,-23.31 326.07,-19.81 326.07,-26.81"/>
</g>
</g>
</svg>
