<?xml version="1.0" encoding="UTF-8" standalone="no"?>
<!DOCTYPE svg PUBLIC "-//W3C//DTD SVG 1.1//EN"
 "http://www.w3.org/Graphics/SVG/1.1/DTD/svg11.dtd">
<!-- Generated by graphviz version 2.43.0 (0)
 -->
<!-- Title: NDSpecFilterCalibration Pages: 1 -->
<svg width="2351pt" height="773pt"
 viewBox="0.00 0.00 2350.65 773.00" xmlns="http://www.w3.org/2000/svg" xmlns:xlink="http://www.w3.org/1999/xlink">
<g id="graph0" class="graph" transform="scale(1 1) rotate(0) translate(4 769)">
<title>NDSpecFilterCalibration</title>
<polygon fill="white" stroke="transparent" points="-4,4 -4,-769 2346.65,-769 2346.65,4 -4,4"/>
<!-- trans_cal_ndfiltspec_l1_l2a -->
<g id="node1" class="node">
<title>trans_cal_ndfiltspec_l1_l2a</title>
<ellipse fill="none" stroke="black" cx="472.76" cy="-126" rx="88.28" ry="88.28"/>
<text text-anchor="middle" x="472.76" y="-137.3" font-family="Times,serif" font-size="14.00">ND Spec Filter</text>
<text text-anchor="middle" x="472.76" y="-122.3" font-family="Times,serif" font-size="14.00">Transmutation</text>
<text text-anchor="middle" x="472.76" y="-107.3" font-family="Times,serif" font-size="14.00">L1 to L2a basic</text>
</g>
<!-- l2a_cal_ndfiltspec_prod -->
<g id="node9" class="node">
<title>l2a_cal_ndfiltspec_prod</title>
<polygon fill="none" stroke="black" points="928.73,-225 673.73,-225 673.73,-189 928.73,-189 928.73,-225"/>
<text text-anchor="middle" x="801.23" y="-203.3" font-family="Times,serif" font-size="14.00">L2a_ND Spec Filter products 1..b</text>
</g>
<!-- trans_cal_ndfiltspec_l1_l2a&#45;&gt;l2a_cal_ndfiltspec_prod -->
<g id="edge6" class="edge">
<title>trans_cal_ndfiltspec_l1_l2a&#45;&gt;l2a_cal_ndfiltspec_prod</title>
<path fill="none" stroke="black" stroke-dasharray="5,2" d="M518.43,-201.69C518.43,-201.69 663.46,-201.69 663.46,-201.69"/>
<polygon fill="black" stroke="black" points="663.46,-205.19 673.46,-201.69 663.46,-198.19 663.46,-205.19"/>
</g>
<!-- l2a_cal_ndfiltspec_man -->
<g id="node10" class="node">
<title>l2a_cal_ndfiltspec_man</title>
<ellipse fill="none" stroke="black" cx="801.23" cy="-153" rx="204.16" ry="18"/>
<text text-anchor="middle" x="801.23" y="-149.3" font-family="Times,serif" font-size="14.00">L2a_ND Spec Filter product manifest 1..1</text>
</g>
<!-- trans_cal_ndfiltspec_l1_l2a&#45;&gt;l2a_cal_ndfiltspec_man -->
<g id="edge7" class="edge">
<title>trans_cal_ndfiltspec_l1_l2a&#45;&gt;l2a_cal_ndfiltspec_man</title>
<path fill="none" stroke="black" d="M557.35,-153C557.35,-153 587.02,-153 587.02,-153"/>
<polygon fill="black" stroke="black" points="587.02,-156.5 597.02,-153 587.02,-149.5 587.02,-156.5"/>
</g>
<!-- l2a_cal_ndfiltspec_src -->
<g id="node11" class="node">
<title>l2a_cal_ndfiltspec_src</title>
<ellipse fill="none" stroke="black" cx="801.23" cy="-99" rx="198.76" ry="18"/>
<text text-anchor="middle" x="801.23" y="-95.3" font-family="Times,serif" font-size="14.00">L2a_ND Spec Filter source manifest 1..1</text>
</g>
<!-- trans_cal_ndfiltspec_l1_l2a&#45;&gt;l2a_cal_ndfiltspec_src -->
<g id="edge8" class="edge">
<title>trans_cal_ndfiltspec_l1_l2a&#45;&gt;l2a_cal_ndfiltspec_src</title>
<path fill="none" stroke="black" d="M557.35,-99C557.35,-99 592.04,-99 592.04,-99"/>
<polygon fill="black" stroke="black" points="592.04,-102.5 602.04,-99 592.04,-95.5 592.04,-102.5"/>
</g>
<!-- l2a_cal_ndfiltspec_log -->
<g id="node20" class="node">
<title>l2a_cal_ndfiltspec_log</title>
<ellipse fill="none" stroke="black" cx="801.23" cy="-45" rx="139.18" ry="18"/>
<text text-anchor="middle" x="801.23" y="-41.3" font-family="Times,serif" font-size="14.00">L2a_ND Spec Filter log 1..1</text>
</g>
<!-- trans_cal_ndfiltspec_l1_l2a&#45;&gt;l2a_cal_ndfiltspec_log -->
<g id="edge9" class="edge">
<title>trans_cal_ndfiltspec_l1_l2a&#45;&gt;l2a_cal_ndfiltspec_log</title>
<path fill="none" stroke="black" stroke-dasharray="5,2" d="M518.43,-50.31C518.43,-50.31 658.04,-50.31 658.04,-50.31"/>
<polygon fill="black" stroke="black" points="658.04,-53.81 668.04,-50.31 658.04,-46.81 658.04,-53.81"/>
</g>
<!-- trans_cal_ndfiltspec_l2a_l2b -->
<g id="node2" class="node">
<title>trans_cal_ndfiltspec_l2a_l2b</title>
<ellipse fill="none" stroke="black" cx="1128.28" cy="-396" rx="86.95" ry="86.95"/>
<text text-anchor="middle" x="1128.28" y="-407.3" font-family="Times,serif" font-size="14.00">ND Spec Filter</text>
<text text-anchor="middle" x="1128.28" y="-392.3" font-family="Times,serif" font-size="14.00">Transmutation</text>
<text text-anchor="middle" x="1128.28" y="-377.3" font-family="Times,serif" font-size="14.00">L2a to L2b</text>
</g>
<!-- l2b_cal_ndfiltspec_prod -->
<g id="node21" class="node">
<title>l2b_cal_ndfiltspec_prod</title>
<polygon fill="none" stroke="black" points="1583.99,-495 1327.99,-495 1327.99,-459 1583.99,-459 1583.99,-495"/>
<text text-anchor="middle" x="1455.99" y="-473.3" font-family="Times,serif" font-size="14.00">L2b_ND Spec Filter products 1..1</text>
</g>
<!-- trans_cal_ndfiltspec_l2a_l2b&#45;&gt;l2b_cal_ndfiltspec_prod -->
<g id="edge20" class="edge">
<title>trans_cal_ndfiltspec_l2a_l2b&#45;&gt;l2b_cal_ndfiltspec_prod</title>
<path fill="none" stroke="black" stroke-dasharray="5,2" d="M1172.48,-470.99C1172.48,-470.99 1317.84,-470.99 1317.84,-470.99"/>
<polygon fill="black" stroke="black" points="1317.84,-474.49 1327.84,-470.99 1317.84,-467.49 1317.84,-474.49"/>
</g>
<!-- l2b_cal_ndfiltspec_man -->
<g id="node22" class="node">
<title>l2b_cal_ndfiltspec_man</title>
<ellipse fill="none" stroke="black" cx="1455.99" cy="-423" rx="204.96" ry="18"/>
<text text-anchor="middle" x="1455.99" y="-419.3" font-family="Times,serif" font-size="14.00">L2b_ND Spec Filter product manifest 1..1</text>
</g>
<!-- trans_cal_ndfiltspec_l2a_l2b&#45;&gt;l2b_cal_ndfiltspec_man -->
<g id="edge22" class="edge">
<title>trans_cal_ndfiltspec_l2a_l2b&#45;&gt;l2b_cal_ndfiltspec_man</title>
<path fill="none" stroke="black" d="M1210.98,-423C1210.98,-423 1241.26,-423 1241.26,-423"/>
<polygon fill="black" stroke="black" points="1241.26,-426.5 1251.26,-423 1241.26,-419.5 1241.26,-426.5"/>
</g>
<!-- l2b_cal_ndfiltspec_src -->
<g id="node23" class="node">
<title>l2b_cal_ndfiltspec_src</title>
<ellipse fill="none" stroke="black" cx="1455.99" cy="-369" rx="199.56" ry="18"/>
<text text-anchor="middle" x="1455.99" y="-365.3" font-family="Times,serif" font-size="14.00">L2b_ND Spec Filter source manifest 1..1</text>
</g>
<!-- trans_cal_ndfiltspec_l2a_l2b&#45;&gt;l2b_cal_ndfiltspec_src -->
<g id="edge23" class="edge">
<title>trans_cal_ndfiltspec_l2a_l2b&#45;&gt;l2b_cal_ndfiltspec_src</title>
<path fill="none" stroke="black" d="M1210.98,-369C1210.98,-369 1246.29,-369 1246.29,-369"/>
<polygon fill="black" stroke="black" points="1246.29,-372.5 1256.29,-369 1246.29,-365.5 1246.29,-372.5"/>
</g>
<!-- l2b_cal_ndfiltspec_log -->
<g id="node29" class="node">
<title>l2b_cal_ndfiltspec_log</title>
<ellipse fill="none" stroke="black" cx="1455.99" cy="-315" rx="139.98" ry="18"/>
<text text-anchor="middle" x="1455.99" y="-311.3" font-family="Times,serif" font-size="14.00">L2b_ND Spec Filter log 1..1</text>
</g>
<!-- trans_cal_ndfiltspec_l2a_l2b&#45;&gt;l2b_cal_ndfiltspec_log -->
<g id="edge21" class="edge">
<title>trans_cal_ndfiltspec_l2a_l2b&#45;&gt;l2b_cal_ndfiltspec_log</title>
<path fill="none" stroke="black" stroke-dasharray="5,2" d="M1172.48,-321.01C1172.48,-321.01 1314.22,-321.01 1314.22,-321.01"/>
<polygon fill="black" stroke="black" points="1314.22,-324.51 1324.22,-321.01 1314.22,-317.51 1314.22,-324.51"/>
</g>
<!-- trans_cal_ndfiltspec_l2b_ctp -->
<g id="node3" class="node">
<title>trans_cal_ndfiltspec_l2b_ctp</title>
<ellipse fill="none" stroke="black" cx="1819.05" cy="-585" rx="122.16" ry="122.16"/>
<text text-anchor="middle" x="1819.05" y="-596.3" font-family="Times,serif" font-size="14.00">ND Spec Filter</text>
<text text-anchor="middle" x="1819.05" y="-581.3" font-family="Times,serif" font-size="14.00">Transmutation</text>
<text text-anchor="middle" x="1819.05" y="-566.3" font-family="Times,serif" font-size="14.00">L2b to ND Spec Filter</text>
</g>
<!-- cal_ndfiltspec_prod -->
<g id="node30" class="node">
<title>cal_ndfiltspec_prod</title>
<polygon fill="none" stroke="black" points="2271.01,-684 2049.01,-684 2049.01,-648 2271.01,-648 2271.01,-684"/>
<text text-anchor="middle" x="2160.01" y="-662.3" font-family="Times,serif" font-size="14.00">ND Spec Filter products 1..1</text>
</g>
<!-- trans_cal_ndfiltspec_l2b_ctp&#45;&gt;cal_ndfiltspec_prod -->
<g id="edge31" class="edge">
<title>trans_cal_ndfiltspec_l2b_ctp&#45;&gt;cal_ndfiltspec_prod</title>
<path fill="none" stroke="black" stroke-dasharray="5,2" d="M1910.87,-666C1910.87,-666 2038.89,-666 2038.89,-666"/>
<polygon fill="black" stroke="black" points="2038.89,-669.5 2048.89,-666 2038.89,-662.5 2038.89,-669.5"/>
</g>
<!-- cal_ndfiltspec_log -->
<g id="node31" class="node">
<title>cal_ndfiltspec_log</title>
<ellipse fill="none" stroke="black" cx="2160.01" cy="-612" rx="117.78" ry="18"/>
<text text-anchor="middle" x="2160.01" y="-608.3" font-family="Times,serif" font-size="14.00">ND Spec Filter log 1..1</text>
</g>
<!-- trans_cal_ndfiltspec_l2b_ctp&#45;&gt;cal_ndfiltspec_log -->
<g id="edge32" class="edge">
<title>trans_cal_ndfiltspec_l2b_ctp&#45;&gt;cal_ndfiltspec_log</title>
<path fill="none" stroke="black" stroke-dasharray="5,2" d="M1938.78,-612C1938.78,-612 2032.29,-612 2032.29,-612"/>
<polygon fill="black" stroke="black" points="2032.29,-615.5 2042.29,-612 2032.29,-608.5 2032.29,-615.5"/>
</g>
<!-- cal_ndfiltspec_man -->
<g id="node32" class="node">
<title>cal_ndfiltspec_man</title>
<ellipse fill="none" stroke="black" cx="2160.01" cy="-558" rx="182.77" ry="18"/>
<text text-anchor="middle" x="2160.01" y="-554.3" font-family="Times,serif" font-size="14.00">ND Spec Filter product manifest 1..1</text>
</g>
<!-- trans_cal_ndfiltspec_l2b_ctp&#45;&gt;cal_ndfiltspec_man -->
<g id="edge33" class="edge">
<title>trans_cal_ndfiltspec_l2b_ctp&#45;&gt;cal_ndfiltspec_man</title>
<path fill="none" stroke="black" d="M1938.78,-558C1938.78,-558 1967.09,-558 1967.09,-558"/>
<polygon fill="black" stroke="black" points="1967.09,-561.5 1977.09,-558 1967.09,-554.5 1967.09,-561.5"/>
</g>
<!-- cal_ndfiltspec_src -->
<g id="node33" class="node">
<title>cal_ndfiltspec_src</title>
<ellipse fill="none" stroke="black" cx="2160.01" cy="-504" rx="177.37" ry="18"/>
<text text-anchor="middle" x="2160.01" y="-500.3" font-family="Times,serif" font-size="14.00">ND Spec Filter source manifest 1..1</text>
</g>
<!-- trans_cal_ndfiltspec_l2b_ctp&#45;&gt;cal_ndfiltspec_src -->
<g id="edge34" class="edge">
<title>trans_cal_ndfiltspec_l2b_ctp&#45;&gt;cal_ndfiltspec_src</title>
<path fill="none" stroke="black" d="M1910.87,-504C1910.87,-504 1972.53,-504 1972.53,-504"/>
<polygon fill="black" stroke="black" points="1972.53,-507.5 1982.53,-504 1972.53,-500.5 1972.53,-507.5"/>
</g>
<!-- l1_cal_ndfiltspec_prod -->
<g id="node4" class="node">
<title>l1_cal_ndfiltspec_prod</title>
<polygon fill="none" stroke="black" points="297.68,-252 50.68,-252 50.68,-216 297.68,-216 297.68,-252"/>
<text text-anchor="middle" x="174.18" y="-230.3" font-family="Times,serif" font-size="14.00">L1_ND Spec Filter products 1..b</text>
</g>
<!-- l1_cal_ndfiltspec_prod&#45;&gt;trans_cal_ndfiltspec_l1_l2a -->
<g id="edge1" class="edge">
<title>l1_cal_ndfiltspec_prod&#45;&gt;trans_cal_ndfiltspec_l1_l2a</title>
<path fill="none" stroke="black" stroke-dasharray="5,2" d="M297.72,-220.5C380.21,-220.5 473.65,-220.5 473.65,-220.5 473.65,-220.5 473.65,-219.91 473.65,-219.91"/>
<polygon fill="black" stroke="black" points="477.15,-224.59 473.65,-214.59 470.15,-224.59 477.15,-224.59"/>
</g>
<!-- l1_cal_ndfiltspec_man -->
<g id="node5" class="node">
<title>l1_cal_ndfiltspec_man</title>
<ellipse fill="none" stroke="black" cx="174.18" cy="-180" rx="159.77" ry="18"/>
<text text-anchor="middle" x="174.18" y="-176.3" font-family="Times,serif" font-size="14.00">L1_ND Spec Filter manifest 1..1</text>
</g>
<!-- l1_cal_ndfiltspec_man&#45;&gt;trans_cal_ndfiltspec_l1_l2a -->
<g id="edge2" class="edge">
<title>l1_cal_ndfiltspec_man&#45;&gt;trans_cal_ndfiltspec_l1_l2a</title>
<path fill="none" stroke="black" d="M334.4,-180C334.4,-180 392.59,-180 392.59,-180"/>
<polygon fill="black" stroke="black" points="392.59,-183.5 402.59,-180 392.59,-176.5 392.59,-183.5"/>
</g>
<!-- l1_cal_ndfiltspec_odir -->
<g id="node6" class="node">
<title>l1_cal_ndfiltspec_odir</title>
<ellipse fill="none" stroke="black" cx="174.18" cy="-126" rx="174.37" ry="18"/>
<text text-anchor="middle" x="174.18" y="-122.3" font-family="Times,serif" font-size="14.00">L1_ND Spec Filter output path 1..1</text>
</g>
<!-- l1_cal_ndfiltspec_odir&#45;&gt;trans_cal_ndfiltspec_l1_l2a -->
<g id="edge3" class="edge">
<title>l1_cal_ndfiltspec_odir&#45;&gt;trans_cal_ndfiltspec_l1_l2a</title>
<path fill="none" stroke="black" d="M348.73,-126C348.73,-126 374.08,-126 374.08,-126"/>
<polygon fill="black" stroke="black" points="374.08,-129.5 384.08,-126 374.08,-122.5 374.08,-129.5"/>
</g>
<!-- l1_cal_ndfiltspec_rec -->
<g id="node7" class="node">
<title>l1_cal_ndfiltspec_rec</title>
<polygon fill="none" stroke="black" points="276.18,-84 60.18,-84 60.18,-60 276.18,-60 288.18,-72 276.18,-84"/>
<text text-anchor="middle" x="174.18" y="-68.3" font-family="Times,serif" font-size="14.00">L1_ND Spec Filter recipe 1..1</text>
</g>
<!-- l1_cal_ndfiltspec_rec&#45;&gt;trans_cal_ndfiltspec_l1_l2a -->
<g id="edge4" class="edge">
<title>l1_cal_ndfiltspec_rec&#45;&gt;trans_cal_ndfiltspec_l1_l2a</title>
<path fill="none" stroke="black" d="M288.34,-72C288.34,-72 392.76,-72 392.76,-72"/>
<polygon fill="black" stroke="black" points="392.76,-75.5 402.76,-72 392.76,-68.5 392.76,-75.5"/>
</g>
<!-- l1_cal_ndfiltspec_nllut -->
<g id="node8" class="node">
<title>l1_cal_ndfiltspec_nllut</title>
<polygon fill="none" stroke="black" points="307.18,-30 29.18,-30 29.18,-6 307.18,-6 319.18,-18 307.18,-30"/>
<text text-anchor="middle" x="174.18" y="-14.3" font-family="Times,serif" font-size="14.00">L1_ND Spec Filter non&#45;linear LUT 1..1</text>
</g>
<!-- l1_cal_ndfiltspec_nllut&#45;&gt;trans_cal_ndfiltspec_l1_l2a -->
<g id="edge5" class="edge">
<title>l1_cal_ndfiltspec_nllut&#45;&gt;trans_cal_ndfiltspec_l1_l2a</title>
<path fill="none" stroke="black" d="M304.65,-36.08C304.65,-41.39 304.65,-45.81 304.65,-45.81 304.65,-45.81 425.45,-45.81 425.45,-45.81"/>
<polygon fill="black" stroke="black" points="425.45,-49.31 435.45,-45.81 425.45,-42.31 425.45,-49.31"/>
</g>
<!-- l2a_cal_ndfiltspec_prod&#45;&gt;trans_cal_ndfiltspec_l2a_l2b -->
<g id="edge10" class="edge">
<title>l2a_cal_ndfiltspec_prod&#45;&gt;trans_cal_ndfiltspec_l2a_l2b</title>
<path fill="none" stroke="black" stroke-dasharray="5,2" d="M928.9,-207C1031.17,-207 1157.65,-207 1157.65,-207 1157.65,-207 1157.65,-303.93 1157.65,-303.93"/>
<polygon fill="black" stroke="black" points="1154.15,-303.93 1157.65,-313.93 1161.15,-303.93 1154.15,-303.93"/>
</g>
<!-- l2a_cal_ndfiltspec_man&#45;&gt;trans_cal_ndfiltspec_l2a_l2b -->
<g id="edge19" class="edge">
<title>l2a_cal_ndfiltspec_man&#45;&gt;trans_cal_ndfiltspec_l2a_l2b</title>
<path fill="none" stroke="black" d="M993.65,-159.23C993.65,-189.19 993.65,-317.02 993.65,-317.02 993.65,-317.02 1081.85,-317.02 1081.85,-317.02"/>
<polygon fill="black" stroke="black" points="1081.85,-320.52 1091.85,-317.02 1081.85,-313.52 1081.85,-320.52"/>
</g>
<!-- l2a_cal_ndfiltspec_odir -->
<g id="node12" class="node">
<title>l2a_cal_ndfiltspec_odir</title>
<ellipse fill="none" stroke="black" cx="801.23" cy="-641" rx="179.27" ry="18"/>
<text text-anchor="middle" x="801.23" y="-637.3" font-family="Times,serif" font-size="14.00">L2a_ND Spec Filter output path 1..1</text>
</g>
<!-- l2a_cal_ndfiltspec_odir&#45;&gt;trans_cal_ndfiltspec_l2a_l2b -->
<g id="edge12" class="edge">
<title>l2a_cal_ndfiltspec_odir&#45;&gt;trans_cal_ndfiltspec_l2a_l2b</title>
<path fill="none" stroke="black" d="M980.48,-640C1069.24,-640 1157.65,-640 1157.65,-640 1157.65,-640 1157.65,-487.93 1157.65,-487.93"/>
<polygon fill="black" stroke="black" points="1161.15,-487.93 1157.65,-477.93 1154.15,-487.93 1161.15,-487.93"/>
</g>
<!-- l2a_cal_ndfiltspec_rec -->
<g id="node13" class="node">
<title>l2a_cal_ndfiltspec_rec</title>
<polygon fill="none" stroke="black" points="907.23,-599 683.23,-599 683.23,-575 907.23,-575 919.23,-587 907.23,-599"/>
<text text-anchor="middle" x="801.23" y="-583.3" font-family="Times,serif" font-size="14.00">L2a_ND Spec Filter recipe 1..1</text>
</g>
<!-- l2a_cal_ndfiltspec_rec&#45;&gt;trans_cal_ndfiltspec_l2a_l2b -->
<g id="edge13" class="edge">
<title>l2a_cal_ndfiltspec_rec&#45;&gt;trans_cal_ndfiltspec_l2a_l2b</title>
<path fill="none" stroke="black" d="M919.6,-586C1002.92,-586 1099.65,-586 1099.65,-586 1099.65,-586 1099.65,-488.23 1099.65,-488.23"/>
<polygon fill="black" stroke="black" points="1103.15,-488.23 1099.65,-478.23 1096.15,-488.23 1103.15,-488.23"/>
</g>
<!-- l2a_cal_ndfiltspec_cti -->
<g id="node14" class="node">
<title>l2a_cal_ndfiltspec_cti</title>
<polygon fill="none" stroke="black" points="968.73,-545 621.73,-545 621.73,-521 968.73,-521 980.73,-533 968.73,-545"/>
<text text-anchor="middle" x="801.23" y="-529.3" font-family="Times,serif" font-size="14.00">L2a_ND Spec Filter charge xfer inefficiency 1..1</text>
</g>
<!-- l2a_cal_ndfiltspec_cti&#45;&gt;trans_cal_ndfiltspec_l2a_l2b -->
<g id="edge14" class="edge">
<title>l2a_cal_ndfiltspec_cti&#45;&gt;trans_cal_ndfiltspec_l2a_l2b</title>
<path fill="none" stroke="black" d="M969.65,-514.96C969.65,-497.93 969.65,-474.98 969.65,-474.98 969.65,-474.98 1081.49,-474.98 1081.49,-474.98"/>
<polygon fill="black" stroke="black" points="1081.49,-478.48 1091.49,-474.98 1081.49,-471.48 1081.49,-478.48"/>
</g>
<!-- l2a_cal_ndfiltspec_dnb -->
<g id="node15" class="node">
<title>l2a_cal_ndfiltspec_dnb</title>
<polygon fill="none" stroke="black" points="950.73,-491 639.73,-491 639.73,-465 950.73,-465 962.73,-478 950.73,-491"/>
<text text-anchor="middle" x="801.23" y="-481.8" font-family="Times,serif" font-size="14.00">L2a_ND Spec Filter CIC/Dark Current/FPN</text>
<text text-anchor="middle" x="801.23" y="-466.8" font-family="Times,serif" font-size="14.00"> or master dark 1..1</text>
</g>
<!-- l2a_cal_ndfiltspec_dnb&#45;&gt;trans_cal_ndfiltspec_l2a_l2b -->
<g id="edge15" class="edge">
<title>l2a_cal_ndfiltspec_dnb&#45;&gt;trans_cal_ndfiltspec_l2a_l2b</title>
<path fill="none" stroke="black" d="M962.84,-466.99C962.84,-466.99 1067.91,-466.99 1067.91,-466.99"/>
<polygon fill="black" stroke="black" points="1067.91,-470.49 1077.91,-466.99 1067.91,-463.49 1067.91,-470.49"/>
</g>
<!-- l2a_cal_ndfiltspec_mbpm -->
<g id="node16" class="node">
<title>l2a_cal_ndfiltspec_mbpm</title>
<polygon fill="none" stroke="black" points="962.73,-435 627.73,-435 627.73,-411 962.73,-411 974.73,-423 962.73,-435"/>
<text text-anchor="middle" x="801.23" y="-419.3" font-family="Times,serif" font-size="14.00">L2a_ND Spec Filter master bad pixel map 1..1</text>
</g>
<!-- l2a_cal_ndfiltspec_mbpm&#45;&gt;trans_cal_ndfiltspec_l2a_l2b -->
<g id="edge16" class="edge">
<title>l2a_cal_ndfiltspec_mbpm&#45;&gt;trans_cal_ndfiltspec_l2a_l2b</title>
<path fill="none" stroke="black" d="M974.81,-423C974.81,-423 1035.5,-423 1035.5,-423"/>
<polygon fill="black" stroke="black" points="1035.5,-426.5 1045.5,-423 1035.5,-419.5 1035.5,-426.5"/>
</g>
<!-- l2a_cal_ndfiltspec_ff -->
<g id="node17" class="node">
<title>l2a_cal_ndfiltspec_ff</title>
<polygon fill="none" stroke="black" points="918.23,-381 672.23,-381 672.23,-357 918.23,-357 930.23,-369 918.23,-381"/>
<text text-anchor="middle" x="801.23" y="-365.3" font-family="Times,serif" font-size="14.00">L2a_ND Spec Filter flat fields 1..1</text>
</g>
<!-- l2a_cal_ndfiltspec_ff&#45;&gt;trans_cal_ndfiltspec_l2a_l2b -->
<g id="edge17" class="edge">
<title>l2a_cal_ndfiltspec_ff&#45;&gt;trans_cal_ndfiltspec_l2a_l2b</title>
<path fill="none" stroke="black" d="M930.49,-369C930.49,-369 1035.55,-369 1035.55,-369"/>
<polygon fill="black" stroke="black" points="1035.55,-372.5 1045.55,-369 1035.55,-365.5 1035.55,-372.5"/>
</g>
<!-- l2a_cal_ndfiltspec_emg -->
<g id="node18" class="node">
<title>l2a_cal_ndfiltspec_emg</title>
<polygon fill="none" stroke="black" points="915.23,-327 675.23,-327 675.23,-303 915.23,-303 927.23,-315 915.23,-327"/>
<text text-anchor="middle" x="801.23" y="-311.3" font-family="Times,serif" font-size="14.00">L2a_ND Spec Filter EM gain 1..1</text>
</g>
<!-- l2a_cal_ndfiltspec_emg&#45;&gt;trans_cal_ndfiltspec_l2a_l2b -->
<g id="edge18" class="edge">
<title>l2a_cal_ndfiltspec_emg&#45;&gt;trans_cal_ndfiltspec_l2a_l2b</title>
<path fill="none" stroke="black" d="M927.68,-325.01C927.68,-325.01 1067.66,-325.01 1067.66,-325.01"/>
<polygon fill="black" stroke="black" points="1067.66,-328.51 1077.66,-325.01 1067.66,-321.51 1067.66,-328.51"/>
</g>
<!-- l2a_cal_ndfiltspec_kgain -->
<g id="node19" class="node">
<title>l2a_cal_ndfiltspec_kgain</title>
<polygon fill="none" stroke="black" points="901.73,-273 688.73,-273 688.73,-249 901.73,-249 913.73,-261 901.73,-273"/>
<text text-anchor="middle" x="801.23" y="-257.3" font-family="Times,serif" font-size="14.00">L2_ND Spec Filter Kgain 1..1</text>
</g>
<!-- l2a_cal_ndfiltspec_kgain&#45;&gt;trans_cal_ndfiltspec_l2a_l2b -->
<g id="edge11" class="edge">
<title>l2a_cal_ndfiltspec_kgain&#45;&gt;trans_cal_ndfiltspec_l2a_l2b</title>
<path fill="none" stroke="black" d="M914.05,-261C998.56,-261 1099.65,-261 1099.65,-261 1099.65,-261 1099.65,-303.58 1099.65,-303.58"/>
<polygon fill="black" stroke="black" points="1096.15,-303.58 1099.65,-313.58 1103.15,-303.58 1096.15,-303.58"/>
</g>
<!-- l2b_cal_ndfiltspec_prod&#45;&gt;trans_cal_ndfiltspec_l2b_ctp -->
<g id="edge24" class="edge">
<title>l2b_cal_ndfiltspec_prod&#45;&gt;trans_cal_ndfiltspec_l2b_ctp</title>
<path fill="none" stroke="black" stroke-dasharray="5,2" d="M1583.99,-484.22C1583.99,-484.22 1739.64,-484.22 1739.64,-484.22"/>
<polygon fill="black" stroke="black" points="1739.64,-487.72 1749.64,-484.22 1739.64,-480.72 1739.64,-487.72"/>
</g>
<!-- l2b_cal_ndfiltspec_man&#45;&gt;trans_cal_ndfiltspec_l2b_ctp -->
<g id="edge25" class="edge">
<title>l2b_cal_ndfiltspec_man&#45;&gt;trans_cal_ndfiltspec_l2b_ctp</title>
<path fill="none" stroke="black" d="M1649.65,-429.19C1649.65,-442.66 1649.65,-473.45 1649.65,-473.45 1649.65,-473.45 1758.68,-473.45 1758.68,-473.45"/>
<polygon fill="black" stroke="black" points="1758.68,-476.95 1768.68,-473.45 1758.68,-469.95 1758.68,-476.95"/>
</g>
<!-- l2b_cal_ndfiltspec_odir -->
<g id="node24" class="node">
<title>l2b_cal_ndfiltspec_odir</title>
<ellipse fill="none" stroke="black" cx="1455.99" cy="-747" rx="180.07" ry="18"/>
<text text-anchor="middle" x="1455.99" y="-743.3" font-family="Times,serif" font-size="14.00">L2b_ND Spec Filter output path 1..1</text>
</g>
<!-- l2b_cal_ndfiltspec_odir&#45;&gt;trans_cal_ndfiltspec_l2b_ctp -->
<g id="edge26" class="edge">
<title>l2b_cal_ndfiltspec_odir&#45;&gt;trans_cal_ndfiltspec_l2b_ctp</title>
<path fill="none" stroke="black" d="M1602.65,-736.3C1602.65,-721.49 1602.65,-696.55 1602.65,-696.55 1602.65,-696.55 1758.59,-696.55 1758.59,-696.55"/>
<polygon fill="black" stroke="black" points="1758.59,-700.05 1768.59,-696.55 1758.59,-693.05 1758.59,-700.05"/>
</g>
<!-- l2b_cal_ndfiltspec_rec -->
<g id="node25" class="node">
<title>l2b_cal_ndfiltspec_rec</title>
<polygon fill="none" stroke="black" points="1562.49,-705 1337.49,-705 1337.49,-681 1562.49,-681 1574.49,-693 1562.49,-705"/>
<text text-anchor="middle" x="1455.99" y="-689.3" font-family="Times,serif" font-size="14.00">L2b_ND Spec Filter recipe 1..1</text>
</g>
<!-- l2b_cal_ndfiltspec_rec&#45;&gt;trans_cal_ndfiltspec_l2b_ctp -->
<g id="edge27" class="edge">
<title>l2b_cal_ndfiltspec_rec&#45;&gt;trans_cal_ndfiltspec_l2b_ctp</title>
<path fill="none" stroke="black" d="M1574.62,-685.78C1574.62,-685.78 1739.65,-685.78 1739.65,-685.78"/>
<polygon fill="black" stroke="black" points="1739.65,-689.28 1749.65,-685.78 1739.65,-682.28 1739.65,-689.28"/>
</g>
<!-- l2b_cal_ndfiltspec_excicrf -->
<g id="node26" class="node">
<title>l2b_cal_ndfiltspec_excicrf</title>
<polygon fill="none" stroke="black" points="1618.49,-651 1281.49,-651 1281.49,-627 1618.49,-627 1630.49,-639 1618.49,-651"/>
<text text-anchor="middle" x="1455.99" y="-635.3" font-family="Times,serif" font-size="14.00">L2b_ND Spec Filter EXCAM ICRF location 1..1</text>
</g>
<!-- l2b_cal_ndfiltspec_excicrf&#45;&gt;trans_cal_ndfiltspec_l2b_ctp -->
<g id="edge28" class="edge">
<title>l2b_cal_ndfiltspec_excicrf&#45;&gt;trans_cal_ndfiltspec_l2b_ctp</title>
<path fill="none" stroke="black" d="M1630.61,-639C1630.61,-639 1699.26,-639 1699.26,-639"/>
<polygon fill="black" stroke="black" points="1699.26,-642.5 1709.26,-639 1699.26,-635.5 1699.26,-642.5"/>
</g>
<!-- l2b_cal_ndfiltspec_excfovps -->
<g id="node27" class="node">
<title>l2b_cal_ndfiltspec_excfovps</title>
<polygon fill="none" stroke="black" points="1624.99,-597 1274.99,-597 1274.99,-573 1624.99,-573 1636.99,-585 1624.99,-597"/>
<text text-anchor="middle" x="1455.99" y="-581.3" font-family="Times,serif" font-size="14.00">L2b_ND Spec Filter EXCAM FOV pixel scale 1..1</text>
</g>
<!-- l2b_cal_ndfiltspec_excfovps&#45;&gt;trans_cal_ndfiltspec_l2b_ctp -->
<g id="edge29" class="edge">
<title>l2b_cal_ndfiltspec_excfovps&#45;&gt;trans_cal_ndfiltspec_l2b_ctp</title>
<path fill="none" stroke="black" d="M1637.25,-585C1637.25,-585 1686.7,-585 1686.7,-585"/>
<polygon fill="black" stroke="black" points="1686.7,-588.5 1696.7,-585 1686.7,-581.5 1686.7,-588.5"/>
</g>
<!-- l2b_cal_ndfiltspec_distm -->
<g id="node28" class="node">
<title>l2b_cal_ndfiltspec_distm</title>
<polygon fill="none" stroke="black" points="1592.99,-543 1306.99,-543 1306.99,-519 1592.99,-519 1604.99,-531 1592.99,-543"/>
<text text-anchor="middle" x="1455.99" y="-527.3" font-family="Times,serif" font-size="14.00">L2b_ND Spec Filter distortion map 1..1</text>
</g>
<!-- l2b_cal_ndfiltspec_distm&#45;&gt;trans_cal_ndfiltspec_l2b_ctp -->
<g id="edge30" class="edge">
<title>l2b_cal_ndfiltspec_distm&#45;&gt;trans_cal_ndfiltspec_l2b_ctp</title>
<path fill="none" stroke="black" d="M1605.23,-531C1605.23,-531 1699.24,-531 1699.24,-531"/>
<polygon fill="black" stroke="black" points="1699.24,-534.5 1709.24,-531 1699.24,-527.5 1699.24,-534.5"/>
</g>
</g>
</svg>
