<?xml version="1.0" encoding="UTF-8" standalone="no"?>
<!DOCTYPE svg PUBLIC "-//W3C//DTD SVG 1.1//EN"
 "http://www.w3.org/Graphics/SVG/1.1/DTD/svg11.dtd">
<!-- Generated by graphviz version 2.43.0 (0)
 -->
<!-- Title: Throughput Pages: 1 -->
<svg width="2295pt" height="773pt"
 viewBox="0.00 0.00 2294.71 773.00" xmlns="http://www.w3.org/2000/svg" xmlns:xlink="http://www.w3.org/1999/xlink">
<g id="graph0" class="graph" transform="scale(1 1) rotate(0) translate(4 769)">
<title>Throughput</title>
<polygon fill="white" stroke="transparent" points="-4,4 -4,-769 2290.71,-769 2290.71,4 -4,4"/>
<!-- trans_cal_corethpt_l1_l2a -->
<g id="node1" class="node">
<title>trans_cal_corethpt_l1_l2a</title>
<ellipse fill="none" stroke="black" cx="442.86" cy="-126" rx="88.28" ry="88.28"/>
<text text-anchor="middle" x="442.86" y="-137.3" font-family="Times,serif" font-size="14.00">Throughput</text>
<text text-anchor="middle" x="442.86" y="-122.3" font-family="Times,serif" font-size="14.00">Transmutation</text>
<text text-anchor="middle" x="442.86" y="-107.3" font-family="Times,serif" font-size="14.00">L1 to L2a basic</text>
</g>
<!-- l2a_cal_corethpt_prod -->
<g id="node9" class="node">
<title>l2a_cal_corethpt_prod</title>
<polygon fill="none" stroke="black" points="873.53,-225 640.53,-225 640.53,-189 873.53,-189 873.53,-225"/>
<text text-anchor="middle" x="757.03" y="-203.3" font-family="Times,serif" font-size="14.00">L2a_Throughput products 1..b</text>
</g>
<!-- trans_cal_corethpt_l1_l2a&#45;&gt;l2a_cal_corethpt_prod -->
<g id="edge6" class="edge">
<title>trans_cal_corethpt_l1_l2a&#45;&gt;l2a_cal_corethpt_prod</title>
<path fill="none" stroke="black" stroke-dasharray="5,2" d="M488.54,-201.69C488.54,-201.69 630.41,-201.69 630.41,-201.69"/>
<polygon fill="black" stroke="black" points="630.41,-205.19 640.41,-201.69 630.41,-198.19 630.41,-205.19"/>
</g>
<!-- l2a_cal_corethpt_man -->
<g id="node10" class="node">
<title>l2a_cal_corethpt_man</title>
<ellipse fill="none" stroke="black" cx="757.03" cy="-153" rx="189.57" ry="18"/>
<text text-anchor="middle" x="757.03" y="-149.3" font-family="Times,serif" font-size="14.00">L2a_Throughput product manifest 1..1</text>
</g>
<!-- trans_cal_corethpt_l1_l2a&#45;&gt;l2a_cal_corethpt_man -->
<g id="edge7" class="edge">
<title>trans_cal_corethpt_l1_l2a&#45;&gt;l2a_cal_corethpt_man</title>
<path fill="none" stroke="black" d="M527.05,-153C527.05,-153 557.22,-153 557.22,-153"/>
<polygon fill="black" stroke="black" points="557.22,-156.5 567.22,-153 557.22,-149.5 557.22,-156.5"/>
</g>
<!-- l2a_cal_corethpt_src -->
<g id="node11" class="node">
<title>l2a_cal_corethpt_src</title>
<ellipse fill="none" stroke="black" cx="757.03" cy="-99" rx="184.67" ry="18"/>
<text text-anchor="middle" x="757.03" y="-95.3" font-family="Times,serif" font-size="14.00">L2a_Throughput source manifest 1..1</text>
</g>
<!-- trans_cal_corethpt_l1_l2a&#45;&gt;l2a_cal_corethpt_src -->
<g id="edge8" class="edge">
<title>trans_cal_corethpt_l1_l2a&#45;&gt;l2a_cal_corethpt_src</title>
<path fill="none" stroke="black" d="M527.05,-99C527.05,-99 562.3,-99 562.3,-99"/>
<polygon fill="black" stroke="black" points="562.3,-102.5 572.3,-99 562.3,-95.5 562.3,-102.5"/>
</g>
<!-- l2a_cal_corethpt_log -->
<g id="node20" class="node">
<title>l2a_cal_corethpt_log</title>
<ellipse fill="none" stroke="black" cx="757.03" cy="-45" rx="124.28" ry="18"/>
<text text-anchor="middle" x="757.03" y="-41.3" font-family="Times,serif" font-size="14.00">L2a_Throughput log 1..1</text>
</g>
<!-- trans_cal_corethpt_l1_l2a&#45;&gt;l2a_cal_corethpt_log -->
<g id="edge9" class="edge">
<title>trans_cal_corethpt_l1_l2a&#45;&gt;l2a_cal_corethpt_log</title>
<path fill="none" stroke="black" stroke-dasharray="5,2" d="M488.54,-50.31C488.54,-50.31 628.37,-50.31 628.37,-50.31"/>
<polygon fill="black" stroke="black" points="628.37,-53.81 638.37,-50.31 628.37,-46.81 628.37,-53.81"/>
</g>
<!-- trans_cal_corethpt_l2a_l2b -->
<g id="node2" class="node">
<title>trans_cal_corethpt_l2a_l2b</title>
<ellipse fill="none" stroke="black" cx="1069.08" cy="-396" rx="86.03" ry="86.03"/>
<text text-anchor="middle" x="1069.08" y="-407.3" font-family="Times,serif" font-size="14.00">Throughput</text>
<text text-anchor="middle" x="1069.08" y="-392.3" font-family="Times,serif" font-size="14.00">Transmutation</text>
<text text-anchor="middle" x="1069.08" y="-377.3" font-family="Times,serif" font-size="14.00">L2a to L2b</text>
</g>
<!-- l2b_cal_corethpt_prod -->
<g id="node21" class="node">
<title>l2b_cal_corethpt_prod</title>
<polygon fill="none" stroke="black" points="1498.28,-495 1265.28,-495 1265.28,-459 1498.28,-459 1498.28,-495"/>
<text text-anchor="middle" x="1381.78" y="-473.3" font-family="Times,serif" font-size="14.00">L2b_Throughput products 1..1</text>
</g>
<!-- trans_cal_corethpt_l2a_l2b&#45;&gt;l2b_cal_corethpt_prod -->
<g id="edge20" class="edge">
<title>trans_cal_corethpt_l2a_l2b&#45;&gt;l2b_cal_corethpt_prod</title>
<path fill="none" stroke="black" stroke-dasharray="5,2" d="M1112.56,-470.63C1112.56,-470.63 1255.27,-470.63 1255.27,-470.63"/>
<polygon fill="black" stroke="black" points="1255.27,-474.13 1265.27,-470.63 1255.27,-467.13 1255.27,-474.13"/>
</g>
<!-- l2b_cal_corethpt_man -->
<g id="node22" class="node">
<title>l2b_cal_corethpt_man</title>
<ellipse fill="none" stroke="black" cx="1381.78" cy="-423" rx="190.37" ry="18"/>
<text text-anchor="middle" x="1381.78" y="-419.3" font-family="Times,serif" font-size="14.00">L2b_Throughput product manifest 1..1</text>
</g>
<!-- trans_cal_corethpt_l2a_l2b&#45;&gt;l2b_cal_corethpt_man -->
<g id="edge22" class="edge">
<title>trans_cal_corethpt_l2a_l2b&#45;&gt;l2b_cal_corethpt_man</title>
<path fill="none" stroke="black" d="M1151.24,-423C1151.24,-423 1181.31,-423 1181.31,-423"/>
<polygon fill="black" stroke="black" points="1181.31,-426.5 1191.31,-423 1181.31,-419.5 1181.31,-426.5"/>
</g>
<!-- l2b_cal_corethpt_src -->
<g id="node23" class="node">
<title>l2b_cal_corethpt_src</title>
<ellipse fill="none" stroke="black" cx="1381.78" cy="-369" rx="184.67" ry="18"/>
<text text-anchor="middle" x="1381.78" y="-365.3" font-family="Times,serif" font-size="14.00">L2b_Throughput source manifest 1..1</text>
</g>
<!-- trans_cal_corethpt_l2a_l2b&#45;&gt;l2b_cal_corethpt_src -->
<g id="edge23" class="edge">
<title>trans_cal_corethpt_l2a_l2b&#45;&gt;l2b_cal_corethpt_src</title>
<path fill="none" stroke="black" d="M1151.24,-369C1151.24,-369 1186.98,-369 1186.98,-369"/>
<polygon fill="black" stroke="black" points="1186.98,-372.5 1196.98,-369 1186.98,-365.5 1186.98,-372.5"/>
</g>
<!-- l2b_cal_corethpt_log -->
<g id="node29" class="node">
<title>l2b_cal_corethpt_log</title>
<ellipse fill="none" stroke="black" cx="1381.78" cy="-315" rx="124.58" ry="18"/>
<text text-anchor="middle" x="1381.78" y="-311.3" font-family="Times,serif" font-size="14.00">L2b_Throughput log 1..1</text>
</g>
<!-- trans_cal_corethpt_l2a_l2b&#45;&gt;l2b_cal_corethpt_log -->
<g id="edge21" class="edge">
<title>trans_cal_corethpt_l2a_l2b&#45;&gt;l2b_cal_corethpt_log</title>
<path fill="none" stroke="black" stroke-dasharray="5,2" d="M1112.56,-321.37C1112.56,-321.37 1254.93,-321.37 1254.93,-321.37"/>
<polygon fill="black" stroke="black" points="1254.93,-324.87 1264.93,-321.37 1254.93,-317.87 1254.93,-324.87"/>
</g>
<!-- trans_cal_corethpt_l2b_ctp -->
<g id="node3" class="node">
<title>trans_cal_corethpt_l2b_ctp</title>
<ellipse fill="none" stroke="black" cx="1739.03" cy="-585" rx="130.63" ry="130.63"/>
<text text-anchor="middle" x="1739.03" y="-596.3" font-family="Times,serif" font-size="14.00">Throughput</text>
<text text-anchor="middle" x="1739.03" y="-581.3" font-family="Times,serif" font-size="14.00">Transmutation</text>
<text text-anchor="middle" x="1739.03" y="-566.3" font-family="Times,serif" font-size="14.00">L2b to CoreThroughput</text>
</g>
<!-- cal_corethpt_prod -->
<g id="node30" class="node">
<title>cal_corethpt_prod</title>
<polygon fill="none" stroke="black" points="2212.78,-684 1979.78,-684 1979.78,-648 2212.78,-648 2212.78,-684"/>
<text text-anchor="middle" x="2096.28" y="-662.3" font-family="Times,serif" font-size="14.00">CoreThroughput products 1..1</text>
</g>
<!-- trans_cal_corethpt_l2b_ctp&#45;&gt;cal_corethpt_prod -->
<g id="edge31" class="edge">
<title>trans_cal_corethpt_l2b_ctp&#45;&gt;cal_corethpt_prod</title>
<path fill="none" stroke="black" stroke-dasharray="5,2" d="M1841.88,-666C1841.88,-666 1969.71,-666 1969.71,-666"/>
<polygon fill="black" stroke="black" points="1969.71,-669.5 1979.71,-666 1969.71,-662.5 1969.71,-669.5"/>
</g>
<!-- cal_corethpt_log -->
<g id="node31" class="node">
<title>cal_corethpt_log</title>
<ellipse fill="none" stroke="black" cx="2096.28" cy="-612" rx="124.58" ry="18"/>
<text text-anchor="middle" x="2096.28" y="-608.3" font-family="Times,serif" font-size="14.00">CoreThroughput log 1..1</text>
</g>
<!-- trans_cal_corethpt_l2b_ctp&#45;&gt;cal_corethpt_log -->
<g id="edge32" class="edge">
<title>trans_cal_corethpt_l2b_ctp&#45;&gt;cal_corethpt_log</title>
<path fill="none" stroke="black" stroke-dasharray="5,2" d="M1867.25,-612C1867.25,-612 1961.47,-612 1961.47,-612"/>
<polygon fill="black" stroke="black" points="1961.47,-615.5 1971.47,-612 1961.47,-608.5 1961.47,-615.5"/>
</g>
<!-- cal_corethpt_man -->
<g id="node32" class="node">
<title>cal_corethpt_man</title>
<ellipse fill="none" stroke="black" cx="2096.28" cy="-558" rx="190.37" ry="18"/>
<text text-anchor="middle" x="2096.28" y="-554.3" font-family="Times,serif" font-size="14.00">CoreThroughput product manifest 1..1</text>
</g>
<!-- trans_cal_corethpt_l2b_ctp&#45;&gt;cal_corethpt_man -->
<g id="edge33" class="edge">
<title>trans_cal_corethpt_l2b_ctp&#45;&gt;cal_corethpt_man</title>
<path fill="none" stroke="black" d="M1867.25,-558C1867.25,-558 1895.57,-558 1895.57,-558"/>
<polygon fill="black" stroke="black" points="1895.57,-561.5 1905.57,-558 1895.57,-554.5 1895.57,-561.5"/>
</g>
<!-- cal_corethpt_src -->
<g id="node33" class="node">
<title>cal_corethpt_src</title>
<ellipse fill="none" stroke="black" cx="2096.28" cy="-504" rx="184.67" ry="18"/>
<text text-anchor="middle" x="2096.28" y="-500.3" font-family="Times,serif" font-size="14.00">CoreThroughput source manifest 1..1</text>
</g>
<!-- trans_cal_corethpt_l2b_ctp&#45;&gt;cal_corethpt_src -->
<g id="edge34" class="edge">
<title>trans_cal_corethpt_l2b_ctp&#45;&gt;cal_corethpt_src</title>
<path fill="none" stroke="black" d="M1841.88,-504C1841.88,-504 1901.63,-504 1901.63,-504"/>
<polygon fill="black" stroke="black" points="1901.63,-507.5 1911.63,-504 1901.63,-500.5 1901.63,-507.5"/>
</g>
<!-- l1_cal_corethpt_prod -->
<g id="node4" class="node">
<title>l1_cal_corethpt_prod</title>
<polygon fill="none" stroke="black" points="271.24,-252 47.24,-252 47.24,-216 271.24,-216 271.24,-252"/>
<text text-anchor="middle" x="159.24" y="-230.3" font-family="Times,serif" font-size="14.00">L1_Throughput products 1..b</text>
</g>
<!-- l1_cal_corethpt_prod&#45;&gt;trans_cal_corethpt_l1_l2a -->
<g id="edge1" class="edge">
<title>l1_cal_corethpt_prod&#45;&gt;trans_cal_corethpt_l1_l2a</title>
<path fill="none" stroke="black" stroke-dasharray="5,2" d="M271.26,-220.5C350.87,-220.5 443.71,-220.5 443.71,-220.5 443.71,-220.5 443.71,-219.91 443.71,-219.91"/>
<polygon fill="black" stroke="black" points="447.21,-224.59 443.71,-214.59 440.21,-224.59 447.21,-224.59"/>
</g>
<!-- l1_cal_corethpt_man -->
<g id="node5" class="node">
<title>l1_cal_corethpt_man</title>
<ellipse fill="none" stroke="black" cx="159.24" cy="-180" rx="145.67" ry="18"/>
<text text-anchor="middle" x="159.24" y="-176.3" font-family="Times,serif" font-size="14.00">L1_Throughput manifest 1..1</text>
</g>
<!-- l1_cal_corethpt_man&#45;&gt;trans_cal_corethpt_l1_l2a -->
<g id="edge2" class="edge">
<title>l1_cal_corethpt_man&#45;&gt;trans_cal_corethpt_l1_l2a</title>
<path fill="none" stroke="black" d="M305.2,-180C305.2,-180 362.61,-180 362.61,-180"/>
<polygon fill="black" stroke="black" points="362.61,-183.5 372.61,-180 362.61,-176.5 362.61,-183.5"/>
</g>
<!-- l1_cal_corethpt_odir -->
<g id="node6" class="node">
<title>l1_cal_corethpt_odir</title>
<ellipse fill="none" stroke="black" cx="159.24" cy="-126" rx="159.47" ry="18"/>
<text text-anchor="middle" x="159.24" y="-122.3" font-family="Times,serif" font-size="14.00">L1_Throughput output path 1..1</text>
</g>
<!-- l1_cal_corethpt_odir&#45;&gt;trans_cal_corethpt_l1_l2a -->
<g id="edge3" class="edge">
<title>l1_cal_corethpt_odir&#45;&gt;trans_cal_corethpt_l1_l2a</title>
<path fill="none" stroke="black" d="M318.87,-126C318.87,-126 344.26,-126 344.26,-126"/>
<polygon fill="black" stroke="black" points="344.26,-129.5 354.26,-126 344.26,-122.5 344.26,-129.5"/>
</g>
<!-- l1_cal_corethpt_rec -->
<g id="node7" class="node">
<title>l1_cal_corethpt_rec</title>
<polygon fill="none" stroke="black" points="250.24,-84 56.24,-84 56.24,-60 250.24,-60 262.24,-72 250.24,-84"/>
<text text-anchor="middle" x="159.24" y="-68.3" font-family="Times,serif" font-size="14.00">L1_Throughput recipe 1..1</text>
</g>
<!-- l1_cal_corethpt_rec&#45;&gt;trans_cal_corethpt_l1_l2a -->
<g id="edge4" class="edge">
<title>l1_cal_corethpt_rec&#45;&gt;trans_cal_corethpt_l1_l2a</title>
<path fill="none" stroke="black" d="M262.43,-72C262.43,-72 362.54,-72 362.54,-72"/>
<polygon fill="black" stroke="black" points="362.54,-75.5 372.54,-72 362.54,-68.5 362.54,-75.5"/>
</g>
<!-- l1_cal_corethpt_nllut -->
<g id="node8" class="node">
<title>l1_cal_corethpt_nllut</title>
<polygon fill="none" stroke="black" points="280.74,-30 25.74,-30 25.74,-6 280.74,-6 292.74,-18 280.74,-30"/>
<text text-anchor="middle" x="159.24" y="-14.3" font-family="Times,serif" font-size="14.00">L1_Throughput non&#45;linear LUT 1..1</text>
</g>
<!-- l1_cal_corethpt_nllut&#45;&gt;trans_cal_corethpt_l1_l2a -->
<g id="edge5" class="edge">
<title>l1_cal_corethpt_nllut&#45;&gt;trans_cal_corethpt_l1_l2a</title>
<path fill="none" stroke="black" d="M277.71,-36.08C277.71,-41.39 277.71,-45.81 277.71,-45.81 277.71,-45.81 395.39,-45.81 395.39,-45.81"/>
<polygon fill="black" stroke="black" points="395.39,-49.31 405.39,-45.81 395.39,-42.31 395.39,-49.31"/>
</g>
<!-- l2a_cal_corethpt_prod&#45;&gt;trans_cal_corethpt_l2a_l2b -->
<g id="edge10" class="edge">
<title>l2a_cal_corethpt_prod&#45;&gt;trans_cal_corethpt_l2a_l2b</title>
<path fill="none" stroke="black" stroke-dasharray="5,2" d="M873.66,-207C972.64,-207 1098.71,-207 1098.71,-207 1098.71,-207 1098.71,-304.75 1098.71,-304.75"/>
<polygon fill="black" stroke="black" points="1095.21,-304.75 1098.71,-314.75 1102.21,-304.75 1095.21,-304.75"/>
</g>
<!-- l2a_cal_corethpt_man&#45;&gt;trans_cal_corethpt_l2a_l2b -->
<g id="edge19" class="edge">
<title>l2a_cal_corethpt_man&#45;&gt;trans_cal_corethpt_l2a_l2b</title>
<path fill="none" stroke="black" d="M936.71,-158.85C936.71,-188.16 936.71,-317.49 936.71,-317.49 936.71,-317.49 1023.26,-317.49 1023.26,-317.49"/>
<polygon fill="black" stroke="black" points="1023.26,-320.99 1033.26,-317.49 1023.26,-313.99 1023.26,-320.99"/>
</g>
<!-- l2a_cal_corethpt_odir -->
<g id="node12" class="node">
<title>l2a_cal_corethpt_odir</title>
<ellipse fill="none" stroke="black" cx="757.03" cy="-641" rx="165.17" ry="18"/>
<text text-anchor="middle" x="757.03" y="-637.3" font-family="Times,serif" font-size="14.00">L2a_Throughput output path 1..1</text>
</g>
<!-- l2a_cal_corethpt_odir&#45;&gt;trans_cal_corethpt_l2a_l2b -->
<g id="edge12" class="edge">
<title>l2a_cal_corethpt_odir&#45;&gt;trans_cal_corethpt_l2a_l2b</title>
<path fill="none" stroke="black" d="M921.87,-640C1009.24,-640 1098.71,-640 1098.71,-640 1098.71,-640 1098.71,-487.25 1098.71,-487.25"/>
<polygon fill="black" stroke="black" points="1102.21,-487.25 1098.71,-477.25 1095.21,-487.25 1102.21,-487.25"/>
</g>
<!-- l2a_cal_corethpt_rec -->
<g id="node13" class="node">
<title>l2a_cal_corethpt_rec</title>
<polygon fill="none" stroke="black" points="852.03,-599 650.03,-599 650.03,-575 852.03,-575 864.03,-587 852.03,-599"/>
<text text-anchor="middle" x="757.03" y="-583.3" font-family="Times,serif" font-size="14.00">L2a_Throughput recipe 1..1</text>
</g>
<!-- l2a_cal_corethpt_rec&#45;&gt;trans_cal_corethpt_l2a_l2b -->
<g id="edge13" class="edge">
<title>l2a_cal_corethpt_rec&#45;&gt;trans_cal_corethpt_l2a_l2b</title>
<path fill="none" stroke="black" d="M864.28,-586C944.61,-586 1040.71,-586 1040.71,-586 1040.71,-586 1040.71,-487.68 1040.71,-487.68"/>
<polygon fill="black" stroke="black" points="1044.21,-487.68 1040.71,-477.68 1037.21,-487.68 1044.21,-487.68"/>
</g>
<!-- l2a_cal_corethpt_cti -->
<g id="node14" class="node">
<title>l2a_cal_corethpt_cti</title>
<polygon fill="none" stroke="black" points="913.53,-545 588.53,-545 588.53,-521 913.53,-521 925.53,-533 913.53,-545"/>
<text text-anchor="middle" x="757.03" y="-529.3" font-family="Times,serif" font-size="14.00">L2a_Throughput charge xfer inefficiency 1..1</text>
</g>
<!-- l2a_cal_corethpt_cti&#45;&gt;trans_cal_corethpt_l2a_l2b -->
<g id="edge14" class="edge">
<title>l2a_cal_corethpt_cti&#45;&gt;trans_cal_corethpt_l2a_l2b</title>
<path fill="none" stroke="black" d="M913.71,-514.81C913.71,-497.64 913.71,-474.51 913.71,-474.51 913.71,-474.51 1023.05,-474.51 1023.05,-474.51"/>
<polygon fill="black" stroke="black" points="1023.05,-478.01 1033.05,-474.51 1023.05,-471.01 1023.05,-478.01"/>
</g>
<!-- l2a_cal_corethpt_dnb -->
<g id="node15" class="node">
<title>l2a_cal_corethpt_dnb</title>
<polygon fill="none" stroke="black" points="895.03,-491 607.03,-491 607.03,-465 895.03,-465 907.03,-478 895.03,-491"/>
<text text-anchor="middle" x="757.03" y="-481.8" font-family="Times,serif" font-size="14.00">L2a_Throughput CIC/Dark Current/FPN</text>
<text text-anchor="middle" x="757.03" y="-466.8" font-family="Times,serif" font-size="14.00"> or master dark 1..1</text>
</g>
<!-- l2a_cal_corethpt_dnb&#45;&gt;trans_cal_corethpt_l2a_l2b -->
<g id="edge15" class="edge">
<title>l2a_cal_corethpt_dnb&#45;&gt;trans_cal_corethpt_l2a_l2b</title>
<path fill="none" stroke="black" d="M907.12,-466.76C907.12,-466.76 1009.5,-466.76 1009.5,-466.76"/>
<polygon fill="black" stroke="black" points="1009.5,-470.26 1019.5,-466.76 1009.5,-463.26 1009.5,-470.26"/>
</g>
<!-- l2a_cal_corethpt_mbpm -->
<g id="node16" class="node">
<title>l2a_cal_corethpt_mbpm</title>
<polygon fill="none" stroke="black" points="907.53,-435 594.53,-435 594.53,-411 907.53,-411 919.53,-423 907.53,-435"/>
<text text-anchor="middle" x="757.03" y="-419.3" font-family="Times,serif" font-size="14.00">L2a_Throughput master bad pixel map 1..1</text>
</g>
<!-- l2a_cal_corethpt_mbpm&#45;&gt;trans_cal_corethpt_l2a_l2b -->
<g id="edge16" class="edge">
<title>l2a_cal_corethpt_mbpm&#45;&gt;trans_cal_corethpt_l2a_l2b</title>
<path fill="none" stroke="black" d="M919.91,-423C919.91,-423 976.85,-423 976.85,-423"/>
<polygon fill="black" stroke="black" points="976.85,-426.5 986.85,-423 976.85,-419.5 976.85,-426.5"/>
</g>
<!-- l2a_cal_corethpt_ff -->
<g id="node17" class="node">
<title>l2a_cal_corethpt_ff</title>
<polygon fill="none" stroke="black" points="863.03,-381 639.03,-381 639.03,-357 863.03,-357 875.03,-369 863.03,-381"/>
<text text-anchor="middle" x="757.03" y="-365.3" font-family="Times,serif" font-size="14.00">L2a_Throughput flat fields 1..1</text>
</g>
<!-- l2a_cal_corethpt_ff&#45;&gt;trans_cal_corethpt_l2a_l2b -->
<g id="edge17" class="edge">
<title>l2a_cal_corethpt_ff&#45;&gt;trans_cal_corethpt_l2a_l2b</title>
<path fill="none" stroke="black" d="M875.45,-369C875.45,-369 977.1,-369 977.1,-369"/>
<polygon fill="black" stroke="black" points="977.1,-372.5 987.1,-369 977.1,-365.5 977.1,-372.5"/>
</g>
<!-- l2a_cal_corethpt_emg -->
<g id="node18" class="node">
<title>l2a_cal_corethpt_emg</title>
<polygon fill="none" stroke="black" points="860.03,-327 642.03,-327 642.03,-303 860.03,-303 872.03,-315 860.03,-327"/>
<text text-anchor="middle" x="757.03" y="-311.3" font-family="Times,serif" font-size="14.00">L2a_Throughput EM gain 1..1</text>
</g>
<!-- l2a_cal_corethpt_emg&#45;&gt;trans_cal_corethpt_l2a_l2b -->
<g id="edge18" class="edge">
<title>l2a_cal_corethpt_emg&#45;&gt;trans_cal_corethpt_l2a_l2b</title>
<path fill="none" stroke="black" d="M872.34,-325.24C872.34,-325.24 1009.4,-325.24 1009.4,-325.24"/>
<polygon fill="black" stroke="black" points="1009.4,-328.74 1019.4,-325.24 1009.4,-321.74 1009.4,-328.74"/>
</g>
<!-- l2a_cal_corethpt_kgain -->
<g id="node19" class="node">
<title>l2a_cal_corethpt_kgain</title>
<polygon fill="none" stroke="black" points="846.53,-273 655.53,-273 655.53,-249 846.53,-249 858.53,-261 846.53,-273"/>
<text text-anchor="middle" x="757.03" y="-257.3" font-family="Times,serif" font-size="14.00">L2_Throughput Kgain 1..1</text>
</g>
<!-- l2a_cal_corethpt_kgain&#45;&gt;trans_cal_corethpt_l2a_l2b -->
<g id="edge11" class="edge">
<title>l2a_cal_corethpt_kgain&#45;&gt;trans_cal_corethpt_l2a_l2b</title>
<path fill="none" stroke="black" d="M858.65,-261C940.04,-261 1040.71,-261 1040.71,-261 1040.71,-261 1040.71,-304.36 1040.71,-304.36"/>
<polygon fill="black" stroke="black" points="1037.21,-304.36 1040.71,-314.36 1044.21,-304.36 1037.21,-304.36"/>
</g>
<!-- l2b_cal_corethpt_prod&#45;&gt;trans_cal_corethpt_l2b_ctp -->
<g id="edge24" class="edge">
<title>l2b_cal_corethpt_prod&#45;&gt;trans_cal_corethpt_l2b_ctp</title>
<path fill="none" stroke="black" stroke-dasharray="5,2" d="M1498.76,-483C1498.76,-483 1646.86,-483 1646.86,-483"/>
<polygon fill="black" stroke="black" points="1646.86,-486.5 1656.86,-483 1646.86,-479.5 1646.86,-486.5"/>
</g>
<!-- l2b_cal_corethpt_man&#45;&gt;trans_cal_corethpt_l2b_ctp -->
<g id="edge25" class="edge">
<title>l2b_cal_corethpt_man&#45;&gt;trans_cal_corethpt_l2b_ctp</title>
<path fill="none" stroke="black" d="M1562.71,-428.89C1562.71,-441.7 1562.71,-471 1562.71,-471 1562.71,-471 1664.38,-471 1664.38,-471"/>
<polygon fill="black" stroke="black" points="1664.38,-474.5 1674.38,-471 1664.38,-467.5 1664.38,-474.5"/>
</g>
<!-- l2b_cal_corethpt_odir -->
<g id="node24" class="node">
<title>l2b_cal_corethpt_odir</title>
<ellipse fill="none" stroke="black" cx="1381.78" cy="-747" rx="165.17" ry="18"/>
<text text-anchor="middle" x="1381.78" y="-743.3" font-family="Times,serif" font-size="14.00">L2b_Throughput output path 1..1</text>
</g>
<!-- l2b_cal_corethpt_odir&#45;&gt;trans_cal_corethpt_l2b_ctp -->
<g id="edge26" class="edge">
<title>l2b_cal_corethpt_odir&#45;&gt;trans_cal_corethpt_l2b_ctp</title>
<path fill="none" stroke="black" d="M1517.71,-736.35C1517.71,-722.21 1517.71,-699 1517.71,-699 1517.71,-699 1664.72,-699 1664.72,-699"/>
<polygon fill="black" stroke="black" points="1664.72,-702.5 1674.72,-699 1664.72,-695.5 1664.72,-702.5"/>
</g>
<!-- l2b_cal_corethpt_rec -->
<g id="node25" class="node">
<title>l2b_cal_corethpt_rec</title>
<polygon fill="none" stroke="black" points="1477.28,-705 1274.28,-705 1274.28,-681 1477.28,-681 1489.28,-693 1477.28,-705"/>
<text text-anchor="middle" x="1381.78" y="-689.3" font-family="Times,serif" font-size="14.00">L2b_Throughput recipe 1..1</text>
</g>
<!-- l2b_cal_corethpt_rec&#45;&gt;trans_cal_corethpt_l2b_ctp -->
<g id="edge27" class="edge">
<title>l2b_cal_corethpt_rec&#45;&gt;trans_cal_corethpt_l2b_ctp</title>
<path fill="none" stroke="black" d="M1489.45,-687C1489.45,-687 1646.84,-687 1646.84,-687"/>
<polygon fill="black" stroke="black" points="1646.84,-690.5 1656.84,-687 1646.84,-683.5 1646.84,-690.5"/>
</g>
<!-- l2b_cal_corethpt_excicrf -->
<g id="node26" class="node">
<title>l2b_cal_corethpt_excicrf</title>
<polygon fill="none" stroke="black" points="1532.78,-651 1218.78,-651 1218.78,-627 1532.78,-627 1544.78,-639 1532.78,-651"/>
<text text-anchor="middle" x="1381.78" y="-635.3" font-family="Times,serif" font-size="14.00">L2b_Throughput EXCAM ICRF location 1..1</text>
</g>
<!-- l2b_cal_corethpt_excicrf&#45;&gt;trans_cal_corethpt_l2b_ctp -->
<g id="edge28" class="edge">
<title>l2b_cal_corethpt_excicrf&#45;&gt;trans_cal_corethpt_l2b_ctp</title>
<path fill="none" stroke="black" d="M1544.99,-639C1544.99,-639 1609.77,-639 1609.77,-639"/>
<polygon fill="black" stroke="black" points="1609.77,-642.5 1619.77,-639 1609.77,-635.5 1609.77,-642.5"/>
</g>
<!-- l2b_cal_corethpt_excfovps -->
<g id="node27" class="node">
<title>l2b_cal_corethpt_excfovps</title>
<polygon fill="none" stroke="black" points="1539.78,-597 1211.78,-597 1211.78,-573 1539.78,-573 1551.78,-585 1539.78,-597"/>
<text text-anchor="middle" x="1381.78" y="-581.3" font-family="Times,serif" font-size="14.00">L2b_Throughput EXCAM FOV pixel scale 1..1</text>
</g>
<!-- l2b_cal_corethpt_excfovps&#45;&gt;trans_cal_corethpt_l2b_ctp -->
<g id="edge29" class="edge">
<title>l2b_cal_corethpt_excfovps&#45;&gt;trans_cal_corethpt_l2b_ctp</title>
<path fill="none" stroke="black" d="M1552.04,-585C1552.04,-585 1598.17,-585 1598.17,-585"/>
<polygon fill="black" stroke="black" points="1598.17,-588.5 1608.17,-585 1598.17,-581.5 1598.17,-588.5"/>
</g>
<!-- l2b_cal_corethpt_distm -->
<g id="node28" class="node">
<title>l2b_cal_corethpt_distm</title>
<polygon fill="none" stroke="black" points="1507.28,-543 1244.28,-543 1244.28,-519 1507.28,-519 1519.28,-531 1507.28,-543"/>
<text text-anchor="middle" x="1381.78" y="-527.3" font-family="Times,serif" font-size="14.00">L2b_Throughput distortion map 1..1</text>
</g>
<!-- l2b_cal_corethpt_distm&#45;&gt;trans_cal_corethpt_l2b_ctp -->
<g id="edge30" class="edge">
<title>l2b_cal_corethpt_distm&#45;&gt;trans_cal_corethpt_l2b_ctp</title>
<path fill="none" stroke="black" d="M1519.39,-531C1519.39,-531 1609.82,-531 1609.82,-531"/>
<polygon fill="black" stroke="black" points="1609.82,-534.5 1619.82,-531 1609.82,-527.5 1609.82,-534.5"/>
</g>
</g>
</svg>
