<?xml version="1.0" encoding="UTF-8" standalone="no"?>
<!DOCTYPE svg PUBLIC "-//W3C//DTD SVG 1.1//EN"
 "http://www.w3.org/Graphics/SVG/1.1/DTD/svg11.dtd">
<!-- Generated by graphviz version 2.43.0 (0)
 -->
<!-- Title: Astrometric Pages: 1 -->
<svg width="2094pt" height="773pt"
 viewBox="0.00 0.00 2093.69 773.00" xmlns="http://www.w3.org/2000/svg" xmlns:xlink="http://www.w3.org/1999/xlink">
<g id="graph0" class="graph" transform="scale(1 1) rotate(0) translate(4 769)">
<title>Astrometric</title>
<polygon fill="white" stroke="transparent" points="-4,4 -4,-769 2089.69,-769 2089.69,4 -4,4"/>
<!-- trans_bs_l1_l2a_basic -->
<g id="node1" class="node">
<title>trans_bs_l1_l2a_basic</title>
<ellipse fill="none" stroke="black" cx="444.16" cy="-126" rx="88.28" ry="88.28"/>
<text text-anchor="middle" x="444.16" y="-137.3" font-family="Times,serif" font-size="14.00">Astrometric</text>
<text text-anchor="middle" x="444.16" y="-122.3" font-family="Times,serif" font-size="14.00">Transmutation</text>
<text text-anchor="middle" x="444.16" y="-107.3" font-family="Times,serif" font-size="14.00">L1 to L2a basic</text>
</g>
<!-- l2a_bs_prod -->
<g id="node9" class="node">
<title>l2a_bs_prod</title>
<polygon fill="none" stroke="black" points="854.05,-198 621.05,-198 621.05,-162 854.05,-162 854.05,-198"/>
<text text-anchor="middle" x="737.55" y="-176.3" font-family="Times,serif" font-size="14.00">L2a_Astrometric products 1..b</text>
</g>
<!-- trans_bs_l1_l2a_basic&#45;&gt;l2a_bs_prod -->
<g id="edge6" class="edge">
<title>trans_bs_l1_l2a_basic&#45;&gt;l2a_bs_prod</title>
<path fill="none" stroke="black" stroke-dasharray="5,2" d="M514.43,-180C514.43,-180 610.88,-180 610.88,-180"/>
<polygon fill="black" stroke="black" points="610.88,-183.5 620.88,-180 610.88,-176.5 610.88,-183.5"/>
</g>
<!-- l2a_bs_man -->
<g id="node10" class="node">
<title>l2a_bs_man</title>
<ellipse fill="none" stroke="black" cx="737.55" cy="-126" rx="151.37" ry="18"/>
<text text-anchor="middle" x="737.55" y="-122.3" font-family="Times,serif" font-size="14.00">L2a_Astrometric manifest 1..1</text>
</g>
<!-- trans_bs_l1_l2a_basic&#45;&gt;l2a_bs_man -->
<g id="edge7" class="edge">
<title>trans_bs_l1_l2a_basic&#45;&gt;l2a_bs_man</title>
<path fill="none" stroke="black" d="M532.58,-126C532.58,-126 576.03,-126 576.03,-126"/>
<polygon fill="black" stroke="black" points="576.03,-129.5 586.03,-126 576.03,-122.5 576.03,-129.5"/>
</g>
<!-- l2a_bs_log -->
<g id="node19" class="node">
<title>l2a_bs_log</title>
<ellipse fill="none" stroke="black" cx="737.55" cy="-72" rx="124.58" ry="18"/>
<text text-anchor="middle" x="737.55" y="-68.3" font-family="Times,serif" font-size="14.00">L2a_Astrometric log 1..1</text>
</g>
<!-- trans_bs_l1_l2a_basic&#45;&gt;l2a_bs_log -->
<g id="edge8" class="edge">
<title>trans_bs_l1_l2a_basic&#45;&gt;l2a_bs_log</title>
<path fill="none" stroke="black" stroke-dasharray="5,2" d="M514.43,-72C514.43,-72 602.5,-72 602.5,-72"/>
<polygon fill="black" stroke="black" points="602.5,-75.5 612.5,-72 602.5,-68.5 602.5,-75.5"/>
</g>
<!-- trans_bs_l2a_l2b -->
<g id="node2" class="node">
<title>trans_bs_l2a_l2b</title>
<ellipse fill="none" stroke="black" cx="1028.82" cy="-396" rx="86.03" ry="86.03"/>
<text text-anchor="middle" x="1028.82" y="-407.3" font-family="Times,serif" font-size="14.00">Astrometric</text>
<text text-anchor="middle" x="1028.82" y="-392.3" font-family="Times,serif" font-size="14.00">Transmutation</text>
<text text-anchor="middle" x="1028.82" y="-377.3" font-family="Times,serif" font-size="14.00">L2a to L2b</text>
</g>
<!-- l2b_bs_prod -->
<g id="node20" class="node">
<title>l2b_bs_prod</title>
<polygon fill="none" stroke="black" points="1438.58,-441 1204.58,-441 1204.58,-405 1438.58,-405 1438.58,-441"/>
<text text-anchor="middle" x="1321.58" y="-419.3" font-family="Times,serif" font-size="14.00">L2b_Astrometric products 1..1</text>
</g>
<!-- trans_bs_l2a_l2b&#45;&gt;l2b_bs_prod -->
<g id="edge18" class="edge">
<title>trans_bs_l2a_l2b&#45;&gt;l2b_bs_prod</title>
<path fill="none" stroke="black" stroke-dasharray="5,2" d="M1110.76,-423C1110.76,-423 1194.37,-423 1194.37,-423"/>
<polygon fill="black" stroke="black" points="1194.37,-426.5 1204.37,-423 1194.37,-419.5 1194.37,-426.5"/>
</g>
<!-- l2b_bs_log -->
<g id="node31" class="node">
<title>l2b_bs_log</title>
<ellipse fill="none" stroke="black" cx="1321.58" cy="-369" rx="59.29" ry="18"/>
<text text-anchor="middle" x="1321.58" y="-365.3" font-family="Times,serif" font-size="14.00">l2b_bs_log</text>
</g>
<!-- trans_bs_l2a_l2b&#45;&gt;l2b_bs_log -->
<g id="edge19" class="edge">
<title>trans_bs_l2a_l2b&#45;&gt;l2b_bs_log</title>
<path fill="none" stroke="black" stroke-dasharray="5,2" d="M1110.76,-369C1110.76,-369 1252.44,-369 1252.44,-369"/>
<polygon fill="black" stroke="black" points="1252.44,-372.5 1262.44,-369 1252.43,-365.5 1252.44,-372.5"/>
</g>
<!-- trans_bs_l2b_abs -->
<g id="node3" class="node">
<title>trans_bs_l2b_abs</title>
<ellipse fill="none" stroke="black" cx="1658.9" cy="-585" rx="130.63" ry="130.63"/>
<text text-anchor="middle" x="1658.9" y="-596.3" font-family="Times,serif" font-size="14.00">Astrometric</text>
<text text-anchor="middle" x="1658.9" y="-581.3" font-family="Times,serif" font-size="14.00">Transmutation</text>
<text text-anchor="middle" x="1658.9" y="-566.3" font-family="Times,serif" font-size="14.00">L2b to CoreAstrometric</text>
</g>
<!-- bs_prod -->
<g id="node28" class="node">
<title>bs_prod</title>
<polygon fill="none" stroke="black" points="2055.7,-657 1855.7,-657 1855.7,-621 2055.7,-621 2055.7,-657"/>
<text text-anchor="middle" x="1955.7" y="-635.3" font-family="Times,serif" font-size="14.00">Astrometric products 1..1</text>
</g>
<!-- trans_bs_l2b_abs&#45;&gt;bs_prod -->
<g id="edge27" class="edge">
<title>trans_bs_l2b_abs&#45;&gt;bs_prod</title>
<path fill="none" stroke="black" stroke-dasharray="5,2" d="M1778.34,-639C1778.34,-639 1845.55,-639 1845.55,-639"/>
<polygon fill="black" stroke="black" points="1845.55,-642.5 1855.55,-639 1845.55,-635.5 1845.55,-642.5"/>
</g>
<!-- bs_log -->
<g id="node29" class="node">
<title>bs_log</title>
<ellipse fill="none" stroke="black" cx="1955.7" cy="-585" rx="103.18" ry="18"/>
<text text-anchor="middle" x="1955.7" y="-581.3" font-family="Times,serif" font-size="14.00">Astrometric log 1..1</text>
</g>
<!-- trans_bs_l2b_abs&#45;&gt;bs_log -->
<g id="edge29" class="edge">
<title>trans_bs_l2b_abs&#45;&gt;bs_log</title>
<path fill="none" stroke="black" stroke-dasharray="5,2" d="M1789.94,-585C1789.94,-585 1842.09,-585 1842.09,-585"/>
<polygon fill="black" stroke="black" points="1842.09,-588.5 1852.09,-585 1842.09,-581.5 1842.09,-588.5"/>
</g>
<!-- bs_man -->
<g id="node30" class="node">
<title>bs_man</title>
<ellipse fill="none" stroke="black" cx="1955.7" cy="-531" rx="129.98" ry="18"/>
<text text-anchor="middle" x="1955.7" y="-527.3" font-family="Times,serif" font-size="14.00">Astrometric manifest 1..1</text>
</g>
<!-- trans_bs_l2b_abs&#45;&gt;bs_man -->
<g id="edge28" class="edge">
<title>trans_bs_l2b_abs&#45;&gt;bs_man</title>
<path fill="none" stroke="black" d="M1778.34,-531C1778.34,-531 1815.33,-531 1815.33,-531"/>
<polygon fill="black" stroke="black" points="1815.33,-534.5 1825.33,-531 1815.33,-527.5 1815.33,-534.5"/>
</g>
<!-- l1_bs_prod -->
<g id="node4" class="node">
<title>l1_bs_prod</title>
<polygon fill="none" stroke="black" points="272.39,-252 47.39,-252 47.39,-216 272.39,-216 272.39,-252"/>
<text text-anchor="middle" x="159.89" y="-230.3" font-family="Times,serif" font-size="14.00">L1_Astrometric products 1..b</text>
</g>
<!-- l1_bs_prod&#45;&gt;trans_bs_l1_l2a_basic -->
<g id="edge1" class="edge">
<title>l1_bs_prod&#45;&gt;trans_bs_l1_l2a_basic</title>
<path fill="none" stroke="black" stroke-dasharray="5,2" d="M272.45,-234C352.05,-234 444.69,-234 444.69,-234 444.69,-234 444.69,-224.44 444.69,-224.44"/>
<polygon fill="black" stroke="black" points="448.19,-224.44 444.69,-214.44 441.19,-224.44 448.19,-224.44"/>
</g>
<!-- l1_bs_man -->
<g id="node5" class="node">
<title>l1_bs_man</title>
<ellipse fill="none" stroke="black" cx="159.89" cy="-180" rx="145.67" ry="18"/>
<text text-anchor="middle" x="159.89" y="-176.3" font-family="Times,serif" font-size="14.00">L1_Astrometric manifest 1..1</text>
</g>
<!-- l1_bs_man&#45;&gt;trans_bs_l1_l2a_basic -->
<g id="edge2" class="edge">
<title>l1_bs_man&#45;&gt;trans_bs_l1_l2a_basic</title>
<path fill="none" stroke="black" d="M305.77,-180C305.77,-180 363.87,-180 363.87,-180"/>
<polygon fill="black" stroke="black" points="363.87,-183.5 373.87,-180 363.87,-176.5 363.87,-183.5"/>
</g>
<!-- l1_bs_odir -->
<g id="node6" class="node">
<title>l1_bs_odir</title>
<ellipse fill="none" stroke="black" cx="159.89" cy="-126" rx="159.77" ry="18"/>
<text text-anchor="middle" x="159.89" y="-122.3" font-family="Times,serif" font-size="14.00">L1_Astrometric output path 1..1</text>
</g>
<!-- l1_bs_odir&#45;&gt;trans_bs_l1_l2a_basic -->
<g id="edge3" class="edge">
<title>l1_bs_odir&#45;&gt;trans_bs_l1_l2a_basic</title>
<path fill="none" stroke="black" d="M319.89,-126C319.89,-126 345.72,-126 345.72,-126"/>
<polygon fill="black" stroke="black" points="345.72,-129.5 355.72,-126 345.72,-122.5 345.72,-129.5"/>
</g>
<!-- l1_bs_rec -->
<g id="node7" class="node">
<title>l1_bs_rec</title>
<polygon fill="none" stroke="black" points="250.89,-84 56.89,-84 56.89,-60 250.89,-60 262.89,-72 250.89,-84"/>
<text text-anchor="middle" x="159.89" y="-68.3" font-family="Times,serif" font-size="14.00">L1_Astrometric recipe 1..1</text>
</g>
<!-- l1_bs_rec&#45;&gt;trans_bs_l1_l2a_basic -->
<g id="edge4" class="edge">
<title>l1_bs_rec&#45;&gt;trans_bs_l1_l2a_basic</title>
<path fill="none" stroke="black" d="M262.92,-72C262.92,-72 363.91,-72 363.91,-72"/>
<polygon fill="black" stroke="black" points="363.91,-75.5 373.91,-72 363.91,-68.5 363.91,-75.5"/>
</g>
<!-- l1_bs_nllut -->
<g id="node8" class="node">
<title>l1_bs_nllut</title>
<polygon fill="none" stroke="black" points="281.89,-30 25.89,-30 25.89,-6 281.89,-6 293.89,-18 281.89,-30"/>
<text text-anchor="middle" x="159.89" y="-14.3" font-family="Times,serif" font-size="14.00">L1_Astrometric non&#45;linear LUT 1..1</text>
</g>
<!-- l1_bs_nllut&#45;&gt;trans_bs_l1_l2a_basic -->
<g id="edge5" class="edge">
<title>l1_bs_nllut&#45;&gt;trans_bs_l1_l2a_basic</title>
<path fill="none" stroke="black" d="M278.69,-36.08C278.69,-41.39 278.69,-45.81 278.69,-45.81 278.69,-45.81 396.61,-45.81 396.61,-45.81"/>
<polygon fill="black" stroke="black" points="396.61,-49.31 406.61,-45.81 396.61,-42.31 396.61,-49.31"/>
</g>
<!-- l2a_bs_prod&#45;&gt;trans_bs_l2a_l2b -->
<g id="edge9" class="edge">
<title>l2a_bs_prod&#45;&gt;trans_bs_l2a_l2b</title>
<path fill="none" stroke="black" stroke-dasharray="5,2" d="M854.29,-180C951.01,-180 1072.69,-180 1072.69,-180 1072.69,-180 1072.69,-311.67 1072.69,-311.67"/>
<polygon fill="black" stroke="black" points="1069.19,-311.67 1072.69,-321.67 1076.19,-311.67 1069.19,-311.67"/>
</g>
<!-- l2a_bs_odir -->
<g id="node11" class="node">
<title>l2a_bs_odir</title>
<ellipse fill="none" stroke="black" cx="737.55" cy="-614" rx="165.17" ry="18"/>
<text text-anchor="middle" x="737.55" y="-610.3" font-family="Times,serif" font-size="14.00">L2a_Astrometric output path 1..1</text>
</g>
<!-- l2a_bs_odir&#45;&gt;trans_bs_l2a_l2b -->
<g id="edge11" class="edge">
<title>l2a_bs_odir&#45;&gt;trans_bs_l2a_l2b</title>
<path fill="none" stroke="black" d="M835.78,-599.5C929.88,-599.5 1057.69,-599.5 1057.69,-599.5 1057.69,-599.5 1057.69,-487.31 1057.69,-487.31"/>
<polygon fill="black" stroke="black" points="1061.19,-487.31 1057.69,-477.31 1054.19,-487.31 1061.19,-487.31"/>
</g>
<!-- l2a_bs_rec -->
<g id="node12" class="node">
<title>l2a_bs_rec</title>
<polygon fill="none" stroke="black" points="833.05,-572 630.05,-572 630.05,-548 833.05,-548 845.05,-560 833.05,-572"/>
<text text-anchor="middle" x="737.55" y="-556.3" font-family="Times,serif" font-size="14.00">L2a_Astrometric recipe 1..1</text>
</g>
<!-- l2a_bs_rec&#45;&gt;trans_bs_l2a_l2b -->
<g id="edge12" class="edge">
<title>l2a_bs_rec&#45;&gt;trans_bs_l2a_l2b</title>
<path fill="none" stroke="black" d="M845.34,-545.5C918.01,-545.5 1000.69,-545.5 1000.69,-545.5 1000.69,-545.5 1000.69,-487.75 1000.69,-487.75"/>
<polygon fill="black" stroke="black" points="1004.19,-487.75 1000.69,-477.75 997.19,-487.75 1004.19,-487.75"/>
</g>
<!-- l2a_bs_cti -->
<g id="node13" class="node">
<title>l2a_bs_cti</title>
<polygon fill="none" stroke="black" points="894.55,-518 568.55,-518 568.55,-494 894.55,-494 906.55,-506 894.55,-518"/>
<text text-anchor="middle" x="737.55" y="-502.3" font-family="Times,serif" font-size="14.00">L2a_Astrometric charge xfer inefficiency 1..1</text>
</g>
<!-- l2a_bs_cti&#45;&gt;trans_bs_l2a_l2b -->
<g id="edge13" class="edge">
<title>l2a_bs_cti&#45;&gt;trans_bs_l2a_l2b</title>
<path fill="none" stroke="black" d="M894.69,-487.94C894.69,-481.65 894.69,-476.13 894.69,-476.13 894.69,-476.13 986.69,-476.13 986.69,-476.13"/>
<polygon fill="black" stroke="black" points="986.69,-479.63 996.69,-476.13 986.69,-472.63 986.69,-479.63"/>
</g>
<!-- l2a_bs_dnb -->
<g id="node14" class="node">
<title>l2a_bs_dnb</title>
<polygon fill="none" stroke="black" points="876.05,-464 587.05,-464 587.05,-438 876.05,-438 888.05,-451 876.05,-464"/>
<text text-anchor="middle" x="737.55" y="-454.8" font-family="Times,serif" font-size="14.00">L2a_Astrometric CIC/Dark Current/FPN</text>
<text text-anchor="middle" x="737.55" y="-439.8" font-family="Times,serif" font-size="14.00"> or master dark 1..1</text>
</g>
<!-- l2a_bs_dnb&#45;&gt;trans_bs_l2a_l2b -->
<g id="edge14" class="edge">
<title>l2a_bs_dnb&#45;&gt;trans_bs_l2a_l2b</title>
<path fill="none" stroke="black" d="M888.3,-451C888.3,-451 952.22,-451 952.22,-451"/>
<polygon fill="black" stroke="black" points="952.22,-454.5 962.22,-451 952.22,-447.5 952.22,-454.5"/>
</g>
<!-- l2a_bs_mbpm -->
<g id="node15" class="node">
<title>l2a_bs_mbpm</title>
<polygon fill="none" stroke="black" points="888.55,-408 574.55,-408 574.55,-384 888.55,-384 900.55,-396 888.55,-408"/>
<text text-anchor="middle" x="737.55" y="-392.3" font-family="Times,serif" font-size="14.00">L2a_Astrometric master bad pixel map 1..1</text>
</g>
<!-- l2a_bs_mbpm&#45;&gt;trans_bs_l2a_l2b -->
<g id="edge15" class="edge">
<title>l2a_bs_mbpm&#45;&gt;trans_bs_l2a_l2b</title>
<path fill="none" stroke="black" d="M900.64,-396C900.64,-396 932.29,-396 932.29,-396"/>
<polygon fill="black" stroke="black" points="932.29,-399.5 942.29,-396 932.29,-392.5 932.29,-399.5"/>
</g>
<!-- l2a_bs_ff -->
<g id="node16" class="node">
<title>l2a_bs_ff</title>
<polygon fill="none" stroke="black" points="843.55,-354 619.55,-354 619.55,-330 843.55,-330 855.55,-342 843.55,-354"/>
<text text-anchor="middle" x="737.55" y="-338.3" font-family="Times,serif" font-size="14.00">L2a_Astrometric flat fields 1..1</text>
</g>
<!-- l2a_bs_ff&#45;&gt;trans_bs_l2a_l2b -->
<g id="edge16" class="edge">
<title>l2a_bs_ff&#45;&gt;trans_bs_l2a_l2b</title>
<path fill="none" stroke="black" d="M855.6,-342C855.6,-342 951.24,-342 951.24,-342"/>
<polygon fill="black" stroke="black" points="951.24,-345.5 961.24,-342 951.24,-338.5 951.24,-345.5"/>
</g>
<!-- l2a_bs_emg -->
<g id="node17" class="node">
<title>l2a_bs_emg</title>
<polygon fill="none" stroke="black" points="840.55,-300 622.55,-300 622.55,-276 840.55,-276 852.55,-288 840.55,-300"/>
<text text-anchor="middle" x="737.55" y="-284.3" font-family="Times,serif" font-size="14.00">L2a_Astrometric EM gain 1..1</text>
</g>
<!-- l2a_bs_emg&#45;&gt;trans_bs_l2a_l2b -->
<g id="edge17" class="edge">
<title>l2a_bs_emg&#45;&gt;trans_bs_l2a_l2b</title>
<path fill="none" stroke="black" d="M852.9,-288C917.7,-288 985.69,-288 985.69,-288 985.69,-288 985.69,-311.28 985.69,-311.28"/>
<polygon fill="black" stroke="black" points="982.19,-311.28 985.69,-321.28 989.19,-311.28 982.19,-311.28"/>
</g>
<!-- l2a_bs_kgain -->
<g id="node18" class="node">
<title>l2a_bs_kgain</title>
<polygon fill="none" stroke="black" points="827.05,-246 636.05,-246 636.05,-222 827.05,-222 839.05,-234 827.05,-246"/>
<text text-anchor="middle" x="737.55" y="-230.3" font-family="Times,serif" font-size="14.00">L2_Astrometric Kgain 1..1</text>
</g>
<!-- l2a_bs_kgain&#45;&gt;trans_bs_l2a_l2b -->
<g id="edge10" class="edge">
<title>l2a_bs_kgain&#45;&gt;trans_bs_l2a_l2b</title>
<path fill="none" stroke="black" d="M839.31,-234C923.63,-234 1029.69,-234 1029.69,-234 1029.69,-234 1029.69,-299.31 1029.69,-299.31"/>
<polygon fill="black" stroke="black" points="1026.19,-299.31 1029.69,-309.31 1033.19,-299.31 1026.19,-299.31"/>
</g>
<!-- l2b_bs_prod&#45;&gt;trans_bs_l2b_abs -->
<g id="edge20" class="edge">
<title>l2b_bs_prod&#45;&gt;trans_bs_l2b_abs</title>
<path fill="none" stroke="black" stroke-dasharray="5,2" d="M1416.69,-441.15C1416.69,-454.74 1416.69,-471 1416.69,-471 1416.69,-471 1584.63,-471 1584.63,-471"/>
<polygon fill="black" stroke="black" points="1584.63,-474.5 1594.63,-471 1584.63,-467.5 1584.63,-474.5"/>
</g>
<!-- l2b_bs_man -->
<g id="node21" class="node">
<title>l2b_bs_man</title>
<ellipse fill="none" stroke="black" cx="1321.58" cy="-747" rx="151.37" ry="18"/>
<text text-anchor="middle" x="1321.58" y="-743.3" font-family="Times,serif" font-size="14.00">L2b_Astrometric manifest 1..1</text>
</g>
<!-- l2b_bs_man&#45;&gt;trans_bs_l2b_abs -->
<g id="edge21" class="edge">
<title>l2b_bs_man&#45;&gt;trans_bs_l2b_abs</title>
<path fill="none" stroke="black" d="M1473.33,-747C1563.21,-747 1659.69,-747 1659.69,-747 1659.69,-747 1659.69,-726.15 1659.69,-726.15"/>
<polygon fill="black" stroke="black" points="1663.19,-726.15 1659.69,-716.15 1656.19,-726.15 1663.19,-726.15"/>
</g>
<!-- l2b_bs_odir -->
<g id="node22" class="node">
<title>l2b_bs_odir</title>
<ellipse fill="none" stroke="black" cx="1321.58" cy="-693" rx="165.97" ry="18"/>
<text text-anchor="middle" x="1321.58" y="-689.3" font-family="Times,serif" font-size="14.00">L2b_Astrometric output path 1..1</text>
</g>
<!-- l2b_bs_odir&#45;&gt;trans_bs_l2b_abs -->
<g id="edge22" class="edge">
<title>l2b_bs_odir&#45;&gt;trans_bs_l2b_abs</title>
<path fill="none" stroke="black" d="M1487.77,-693C1487.77,-693 1574.87,-693 1574.87,-693"/>
<polygon fill="black" stroke="black" points="1574.87,-696.5 1584.87,-693 1574.87,-689.5 1574.87,-696.5"/>
</g>
<!-- l2b_bs_rec -->
<g id="node23" class="node">
<title>l2b_bs_rec</title>
<polygon fill="none" stroke="black" points="1417.08,-651 1214.08,-651 1214.08,-627 1417.08,-627 1429.08,-639 1417.08,-651"/>
<text text-anchor="middle" x="1321.58" y="-635.3" font-family="Times,serif" font-size="14.00">L2b_Astrometric recipe 1..1</text>
</g>
<!-- l2b_bs_rec&#45;&gt;trans_bs_l2b_abs -->
<g id="edge23" class="edge">
<title>l2b_bs_rec&#45;&gt;trans_bs_l2b_abs</title>
<path fill="none" stroke="black" d="M1429.24,-639C1429.24,-639 1529.69,-639 1529.69,-639"/>
<polygon fill="black" stroke="black" points="1529.69,-642.5 1539.69,-639 1529.69,-635.5 1529.69,-642.5"/>
</g>
<!-- l2b_bs_excicrf -->
<g id="node24" class="node">
<title>l2b_bs_excicrf</title>
<polygon fill="none" stroke="black" points="1473.08,-597 1158.08,-597 1158.08,-573 1473.08,-573 1485.08,-585 1473.08,-597"/>
<text text-anchor="middle" x="1321.58" y="-581.3" font-family="Times,serif" font-size="14.00">L2b_Astrometric EXCAM ICRF location 1..1</text>
</g>
<!-- l2b_bs_excicrf&#45;&gt;trans_bs_l2b_abs -->
<g id="edge24" class="edge">
<title>l2b_bs_excicrf&#45;&gt;trans_bs_l2b_abs</title>
<path fill="none" stroke="black" d="M1485.3,-585C1485.3,-585 1517.84,-585 1517.84,-585"/>
<polygon fill="black" stroke="black" points="1517.84,-588.5 1527.84,-585 1517.84,-581.5 1517.84,-588.5"/>
</g>
<!-- l2b_bs_excfovps -->
<g id="node25" class="node">
<title>l2b_bs_excfovps</title>
<polygon fill="none" stroke="black" points="1480.08,-543 1151.08,-543 1151.08,-519 1480.08,-519 1492.08,-531 1480.08,-543"/>
<text text-anchor="middle" x="1321.58" y="-527.3" font-family="Times,serif" font-size="14.00">L2b_Astrometric EXCAM FOV pixel scale 1..1</text>
</g>
<!-- l2b_bs_excfovps&#45;&gt;trans_bs_l2b_abs -->
<g id="edge25" class="edge">
<title>l2b_bs_excfovps&#45;&gt;trans_bs_l2b_abs</title>
<path fill="none" stroke="black" d="M1492.22,-531C1492.22,-531 1529.61,-531 1529.61,-531"/>
<polygon fill="black" stroke="black" points="1529.61,-534.5 1539.61,-531 1529.61,-527.5 1529.61,-534.5"/>
</g>
<!-- l2b_tp_distm -->
<g id="node26" class="node">
<title>l2b_tp_distm</title>
<polygon fill="none" stroke="black" points="285.89,-300 21.89,-300 21.89,-276 285.89,-276 297.89,-288 285.89,-300"/>
<text text-anchor="middle" x="159.89" y="-284.3" font-family="Times,serif" font-size="14.00">L2b_Astrometric distortion map 1..1</text>
</g>
<!-- l2b_tp_log -->
<g id="node27" class="node">
<title>l2b_tp_log</title>
<ellipse fill="none" stroke="black" cx="159.89" cy="-342" rx="125.38" ry="18"/>
<text text-anchor="middle" x="159.89" y="-338.3" font-family="Times,serif" font-size="14.00">L2b_Astrometric log 1..1</text>
</g>
<!-- l2b_bs_distm -->
<g id="node32" class="node">
<title>l2b_bs_distm</title>
<ellipse fill="none" stroke="black" cx="1321.58" cy="-477" rx="71.49" ry="18"/>
<text text-anchor="middle" x="1321.58" y="-473.3" font-family="Times,serif" font-size="14.00">l2b_bs_distm</text>
</g>
<!-- l2b_bs_distm&#45;&gt;trans_bs_l2b_abs -->
<g id="edge26" class="edge">
<title>l2b_bs_distm&#45;&gt;trans_bs_l2b_abs</title>
<path fill="none" stroke="black" d="M1389.03,-483C1389.03,-483 1566.97,-483 1566.97,-483"/>
<polygon fill="black" stroke="black" points="1566.97,-486.5 1576.97,-483 1566.97,-479.5 1566.97,-486.5"/>
</g>
</g>
</svg>
