<?xml version="1.0" encoding="UTF-8" standalone="no"?>
<!DOCTYPE svg PUBLIC "-//W3C//DTD SVG 1.1//EN"
 "http://www.w3.org/Graphics/SVG/1.1/DTD/svg11.dtd">
<!-- Generated by graphviz version 2.43.0 (0)
 -->
<!-- Title: Throughput Pages: 1 -->
<svg width="2133pt" height="746pt"
 viewBox="0.00 0.00 2133.29 746.00" xmlns="http://www.w3.org/2000/svg" xmlns:xlink="http://www.w3.org/1999/xlink">
<g id="graph0" class="graph" transform="scale(1 1) rotate(0) translate(4 742)">
<title>Throughput</title>
<polygon fill="white" stroke="transparent" points="-4,4 -4,-742 2129.29,-742 2129.29,4 -4,4"/>
<!-- trans_tp_l1_l2a_basic -->
<g id="node1" class="node">
<title>trans_tp_l1_l2a_basic</title>
<ellipse fill="none" stroke="black" cx="442.86" cy="-126" rx="88.28" ry="88.28"/>
<text text-anchor="middle" x="442.86" y="-137.3" font-family="Times,serif" font-size="14.00">Throughput</text>
<text text-anchor="middle" x="442.86" y="-122.3" font-family="Times,serif" font-size="14.00">Transmutation</text>
<text text-anchor="middle" x="442.86" y="-107.3" font-family="Times,serif" font-size="14.00">L1 to L2a basic</text>
</g>
<!-- l2a_tp_prod -->
<g id="node9" class="node">
<title>l2a_tp_prod</title>
<polygon fill="none" stroke="black" points="852.25,-198 619.25,-198 619.25,-162 852.25,-162 852.25,-198"/>
<text text-anchor="middle" x="735.75" y="-176.3" font-family="Times,serif" font-size="14.00">L2a_Throughput products 1..b</text>
</g>
<!-- trans_tp_l1_l2a_basic&#45;&gt;l2a_tp_prod -->
<g id="edge6" class="edge">
<title>trans_tp_l1_l2a_basic&#45;&gt;l2a_tp_prod</title>
<path fill="none" stroke="black" stroke-dasharray="5,2" d="M513.01,-180C513.01,-180 608.99,-180 608.99,-180"/>
<polygon fill="black" stroke="black" points="608.99,-183.5 618.99,-180 608.99,-176.5 608.99,-183.5"/>
</g>
<!-- l2a_tp_man -->
<g id="node10" class="node">
<title>l2a_tp_man</title>
<ellipse fill="none" stroke="black" cx="735.75" cy="-126" rx="150.57" ry="18"/>
<text text-anchor="middle" x="735.75" y="-122.3" font-family="Times,serif" font-size="14.00">L2a_Throughput manifest 1..1</text>
</g>
<!-- trans_tp_l1_l2a_basic&#45;&gt;l2a_tp_man -->
<g id="edge7" class="edge">
<title>trans_tp_l1_l2a_basic&#45;&gt;l2a_tp_man</title>
<path fill="none" stroke="black" d="M531.53,-126C531.53,-126 574.84,-126 574.84,-126"/>
<polygon fill="black" stroke="black" points="574.84,-129.5 584.84,-126 574.84,-122.5 574.84,-129.5"/>
</g>
<!-- l2a_tp_log -->
<g id="node19" class="node">
<title>l2a_tp_log</title>
<ellipse fill="none" stroke="black" cx="735.75" cy="-72" rx="124.28" ry="18"/>
<text text-anchor="middle" x="735.75" y="-68.3" font-family="Times,serif" font-size="14.00">L2a_Throughput log 1..1</text>
</g>
<!-- trans_tp_l1_l2a_basic&#45;&gt;l2a_tp_log -->
<g id="edge8" class="edge">
<title>trans_tp_l1_l2a_basic&#45;&gt;l2a_tp_log</title>
<path fill="none" stroke="black" stroke-dasharray="5,2" d="M513.01,-72C513.01,-72 601.49,-72 601.49,-72"/>
<polygon fill="black" stroke="black" points="601.49,-75.5 611.49,-72 601.49,-68.5 601.49,-75.5"/>
</g>
<!-- trans_tp_l2a_l2b -->
<g id="node2" class="node">
<title>trans_tp_l2a_l2b</title>
<ellipse fill="none" stroke="black" cx="1026.52" cy="-396" rx="86.03" ry="86.03"/>
<text text-anchor="middle" x="1026.52" y="-407.3" font-family="Times,serif" font-size="14.00">Throughput</text>
<text text-anchor="middle" x="1026.52" y="-392.3" font-family="Times,serif" font-size="14.00">Transmutation</text>
<text text-anchor="middle" x="1026.52" y="-377.3" font-family="Times,serif" font-size="14.00">L2a to L2b</text>
</g>
<!-- l2b_tp_prod -->
<g id="node20" class="node">
<title>l2b_tp_prod</title>
<polygon fill="none" stroke="black" points="1435.28,-468 1202.28,-468 1202.28,-432 1435.28,-432 1435.28,-468"/>
<text text-anchor="middle" x="1318.78" y="-446.3" font-family="Times,serif" font-size="14.00">L2b_Throughput products 1..1</text>
</g>
<!-- trans_tp_l2a_l2b&#45;&gt;l2b_tp_prod -->
<g id="edge19" class="edge">
<title>trans_tp_l2a_l2b&#45;&gt;l2b_tp_prod</title>
<path fill="none" stroke="black" stroke-dasharray="5,2" d="M1093.93,-450C1093.93,-450 1192.14,-450 1192.14,-450"/>
<polygon fill="black" stroke="black" points="1192.14,-453.5 1202.14,-450 1192.14,-446.5 1192.14,-453.5"/>
</g>
<!-- l2b_tp_man -->
<g id="node21" class="node">
<title>l2b_tp_man</title>
<ellipse fill="none" stroke="black" cx="1318.78" cy="-396" rx="151.37" ry="18"/>
<text text-anchor="middle" x="1318.78" y="-392.3" font-family="Times,serif" font-size="14.00">L2b_Throughput manifest 1..1</text>
</g>
<!-- trans_tp_l2a_l2b&#45;&gt;l2b_tp_man -->
<g id="edge21" class="edge">
<title>trans_tp_l2a_l2b&#45;&gt;l2b_tp_man</title>
<path fill="none" stroke="black" d="M1113.02,-396C1113.02,-396 1157.29,-396 1157.29,-396"/>
<polygon fill="black" stroke="black" points="1157.29,-399.5 1167.29,-396 1157.29,-392.5 1157.29,-399.5"/>
</g>
<!-- l2b_tp_log -->
<g id="node27" class="node">
<title>l2b_tp_log</title>
<ellipse fill="none" stroke="black" cx="1318.78" cy="-342" rx="124.58" ry="18"/>
<text text-anchor="middle" x="1318.78" y="-338.3" font-family="Times,serif" font-size="14.00">L2b_Throughput log 1..1</text>
</g>
<!-- trans_tp_l2a_l2b&#45;&gt;l2b_tp_log -->
<g id="edge20" class="edge">
<title>trans_tp_l2a_l2b&#45;&gt;l2b_tp_log</title>
<path fill="none" stroke="black" stroke-dasharray="5,2" d="M1093.93,-342C1093.93,-342 1183.71,-342 1183.71,-342"/>
<polygon fill="black" stroke="black" points="1183.71,-345.5 1193.71,-342 1183.71,-338.5 1183.71,-345.5"/>
</g>
<!-- trans_tp_l2b_ctp -->
<g id="node3" class="node">
<title>trans_tp_l2b_ctp</title>
<ellipse fill="none" stroke="black" cx="1655.6" cy="-558" rx="130.63" ry="130.63"/>
<text text-anchor="middle" x="1655.6" y="-569.3" font-family="Times,serif" font-size="14.00">Throughput</text>
<text text-anchor="middle" x="1655.6" y="-554.3" font-family="Times,serif" font-size="14.00">Transmutation</text>
<text text-anchor="middle" x="1655.6" y="-539.3" font-family="Times,serif" font-size="14.00">L2b to CoreThroughput</text>
</g>
<!-- ctp_prod -->
<g id="node28" class="node">
<title>ctp_prod</title>
<polygon fill="none" stroke="black" points="2090.35,-630 1857.35,-630 1857.35,-594 2090.35,-594 2090.35,-630"/>
<text text-anchor="middle" x="1973.85" y="-608.3" font-family="Times,serif" font-size="14.00">CoreThroughput products 1..1</text>
</g>
<!-- trans_tp_l2b_ctp&#45;&gt;ctp_prod -->
<g id="edge29" class="edge">
<title>trans_tp_l2b_ctp&#45;&gt;ctp_prod</title>
<path fill="none" stroke="black" stroke-dasharray="5,2" d="M1775.01,-612C1775.01,-612 1847.2,-612 1847.2,-612"/>
<polygon fill="black" stroke="black" points="1847.2,-615.5 1857.2,-612 1847.2,-608.5 1847.2,-615.5"/>
</g>
<!-- ctp_log -->
<g id="node29" class="node">
<title>ctp_log</title>
<ellipse fill="none" stroke="black" cx="1973.85" cy="-558" rx="124.58" ry="18"/>
<text text-anchor="middle" x="1973.85" y="-554.3" font-family="Times,serif" font-size="14.00">CoreThroughput log 1..1</text>
</g>
<!-- trans_tp_l2b_ctp&#45;&gt;ctp_log -->
<g id="edge30" class="edge">
<title>trans_tp_l2b_ctp&#45;&gt;ctp_log</title>
<path fill="none" stroke="black" stroke-dasharray="5,2" d="M1786.42,-558C1786.42,-558 1838.92,-558 1838.92,-558"/>
<polygon fill="black" stroke="black" points="1838.92,-561.5 1848.92,-558 1838.92,-554.5 1838.92,-561.5"/>
</g>
<!-- ctp_man -->
<g id="node30" class="node">
<title>ctp_man</title>
<ellipse fill="none" stroke="black" cx="1973.85" cy="-504" rx="151.37" ry="18"/>
<text text-anchor="middle" x="1973.85" y="-500.3" font-family="Times,serif" font-size="14.00">CoreThroughput manifest 1..1</text>
</g>
<!-- trans_tp_l2b_ctp&#45;&gt;ctp_man -->
<g id="edge31" class="edge">
<title>trans_tp_l2b_ctp&#45;&gt;ctp_man</title>
<path fill="none" stroke="black" d="M1775.01,-504C1775.01,-504 1812.27,-504 1812.27,-504"/>
<polygon fill="black" stroke="black" points="1812.27,-507.5 1822.27,-504 1812.27,-500.5 1812.27,-507.5"/>
</g>
<!-- l1_tp_prod -->
<g id="node4" class="node">
<title>l1_tp_prod</title>
<polygon fill="none" stroke="black" points="271.24,-252 47.24,-252 47.24,-216 271.24,-216 271.24,-252"/>
<text text-anchor="middle" x="159.24" y="-230.3" font-family="Times,serif" font-size="14.00">L1_Throughput products 1..b</text>
</g>
<!-- l1_tp_prod&#45;&gt;trans_tp_l1_l2a_basic -->
<g id="edge1" class="edge">
<title>l1_tp_prod&#45;&gt;trans_tp_l1_l2a_basic</title>
<path fill="none" stroke="black" stroke-dasharray="5,2" d="M271.5,-234C350.9,-234 443.29,-234 443.29,-234 443.29,-234 443.29,-224.44 443.29,-224.44"/>
<polygon fill="black" stroke="black" points="446.79,-224.44 443.29,-214.44 439.79,-224.44 446.79,-224.44"/>
</g>
<!-- l1_tp_man -->
<g id="node5" class="node">
<title>l1_tp_man</title>
<ellipse fill="none" stroke="black" cx="159.24" cy="-180" rx="145.67" ry="18"/>
<text text-anchor="middle" x="159.24" y="-176.3" font-family="Times,serif" font-size="14.00">L1_Throughput manifest 1..1</text>
</g>
<!-- l1_tp_man&#45;&gt;trans_tp_l1_l2a_basic -->
<g id="edge2" class="edge">
<title>l1_tp_man&#45;&gt;trans_tp_l1_l2a_basic</title>
<path fill="none" stroke="black" d="M305.2,-180C305.2,-180 362.61,-180 362.61,-180"/>
<polygon fill="black" stroke="black" points="362.61,-183.5 372.61,-180 362.61,-176.5 362.61,-183.5"/>
</g>
<!-- l1_tp_odir -->
<g id="node6" class="node">
<title>l1_tp_odir</title>
<ellipse fill="none" stroke="black" cx="159.24" cy="-126" rx="159.47" ry="18"/>
<text text-anchor="middle" x="159.24" y="-122.3" font-family="Times,serif" font-size="14.00">L1_Throughput output path 1..1</text>
</g>
<!-- l1_tp_odir&#45;&gt;trans_tp_l1_l2a_basic -->
<g id="edge3" class="edge">
<title>l1_tp_odir&#45;&gt;trans_tp_l1_l2a_basic</title>
<path fill="none" stroke="black" d="M318.87,-126C318.87,-126 344.26,-126 344.26,-126"/>
<polygon fill="black" stroke="black" points="344.26,-129.5 354.26,-126 344.26,-122.5 344.26,-129.5"/>
</g>
<!-- l1_tp_rec -->
<g id="node7" class="node">
<title>l1_tp_rec</title>
<polygon fill="none" stroke="black" points="250.24,-84 56.24,-84 56.24,-60 250.24,-60 262.24,-72 250.24,-84"/>
<text text-anchor="middle" x="159.24" y="-68.3" font-family="Times,serif" font-size="14.00">L1_Throughput recipe 1..1</text>
</g>
<!-- l1_tp_rec&#45;&gt;trans_tp_l1_l2a_basic -->
<g id="edge4" class="edge">
<title>l1_tp_rec&#45;&gt;trans_tp_l1_l2a_basic</title>
<path fill="none" stroke="black" d="M262.43,-72C262.43,-72 362.54,-72 362.54,-72"/>
<polygon fill="black" stroke="black" points="362.54,-75.5 372.54,-72 362.54,-68.5 362.54,-75.5"/>
</g>
<!-- l1_tp_nllut -->
<g id="node8" class="node">
<title>l1_tp_nllut</title>
<polygon fill="none" stroke="black" points="280.74,-30 25.74,-30 25.74,-6 280.74,-6 292.74,-18 280.74,-30"/>
<text text-anchor="middle" x="159.24" y="-14.3" font-family="Times,serif" font-size="14.00">L1_Throughput non&#45;linear LUT 1..1</text>
</g>
<!-- l1_tp_nllut&#45;&gt;trans_tp_l1_l2a_basic -->
<g id="edge5" class="edge">
<title>l1_tp_nllut&#45;&gt;trans_tp_l1_l2a_basic</title>
<path fill="none" stroke="black" d="M278.29,-36.08C278.29,-41.39 278.29,-45.81 278.29,-45.81 278.29,-45.81 395.52,-45.81 395.52,-45.81"/>
<polygon fill="black" stroke="black" points="395.52,-49.31 405.52,-45.81 395.52,-42.31 395.52,-49.31"/>
</g>
<!-- l2a_tp_prod&#45;&gt;trans_tp_l2a_l2b -->
<g id="edge9" class="edge">
<title>l2a_tp_prod&#45;&gt;trans_tp_l2a_l2b</title>
<path fill="none" stroke="black" stroke-dasharray="5,2" d="M852.28,-180C948.83,-180 1070.29,-180 1070.29,-180 1070.29,-180 1070.29,-311.36 1070.29,-311.36"/>
<polygon fill="black" stroke="black" points="1066.79,-311.36 1070.29,-321.36 1073.79,-311.36 1066.79,-311.36"/>
</g>
<!-- trans_tc_l2a_l2b -->
<g id="node31" class="node">
<title>trans_tc_l2a_l2b</title>
<ellipse fill="none" stroke="black" cx="1026.52" cy="-126" rx="85.59" ry="18"/>
<text text-anchor="middle" x="1026.52" y="-122.3" font-family="Times,serif" font-size="14.00">trans_tc_l2a_l2b</text>
</g>
<!-- l2a_tp_man&#45;&gt;trans_tc_l2a_l2b -->
<g id="edge18" class="edge">
<title>l2a_tp_man&#45;&gt;trans_tc_l2a_l2b</title>
<path fill="none" stroke="black" d="M886.67,-126C886.67,-126 930.69,-126 930.69,-126"/>
<polygon fill="black" stroke="black" points="930.69,-129.5 940.69,-126 930.69,-122.5 930.69,-129.5"/>
</g>
<!-- l2a_tp_odir -->
<g id="node11" class="node">
<title>l2a_tp_odir</title>
<ellipse fill="none" stroke="black" cx="735.75" cy="-614" rx="165.17" ry="18"/>
<text text-anchor="middle" x="735.75" y="-610.3" font-family="Times,serif" font-size="14.00">L2a_Throughput output path 1..1</text>
</g>
<!-- l2a_tp_odir&#45;&gt;trans_tp_l2a_l2b -->
<g id="edge11" class="edge">
<title>l2a_tp_odir&#45;&gt;trans_tp_l2a_l2b</title>
<path fill="none" stroke="black" d="M900.66,-613C978.8,-613 1055.29,-613 1055.29,-613 1055.29,-613 1055.29,-487.42 1055.29,-487.42"/>
<polygon fill="black" stroke="black" points="1058.79,-487.42 1055.29,-477.42 1051.79,-487.42 1058.79,-487.42"/>
</g>
<!-- l2a_tp_rec -->
<g id="node12" class="node">
<title>l2a_tp_rec</title>
<polygon fill="none" stroke="black" points="830.75,-572 628.75,-572 628.75,-548 830.75,-548 842.75,-560 830.75,-572"/>
<text text-anchor="middle" x="735.75" y="-556.3" font-family="Times,serif" font-size="14.00">L2a_Throughput recipe 1..1</text>
</g>
<!-- l2a_tp_rec&#45;&gt;trans_tp_l2a_l2b -->
<g id="edge12" class="edge">
<title>l2a_tp_rec&#45;&gt;trans_tp_l2a_l2b</title>
<path fill="none" stroke="black" d="M842.91,-559C915.51,-559 998.29,-559 998.29,-559 998.29,-559 998.29,-487.98 998.29,-487.98"/>
<polygon fill="black" stroke="black" points="1001.79,-487.98 998.29,-477.98 994.79,-487.98 1001.79,-487.98"/>
</g>
<!-- l2a_tp_cti -->
<g id="node13" class="node">
<title>l2a_tp_cti</title>
<polygon fill="none" stroke="black" points="892.25,-518 567.25,-518 567.25,-494 892.25,-494 904.25,-506 892.25,-518"/>
<text text-anchor="middle" x="735.75" y="-502.3" font-family="Times,serif" font-size="14.00">L2a_Throughput charge xfer inefficiency 1..1</text>
</g>
<!-- l2a_tp_cti&#45;&gt;trans_tp_l2a_l2b -->
<g id="edge13" class="edge">
<title>l2a_tp_cti&#45;&gt;trans_tp_l2a_l2b</title>
<path fill="none" stroke="black" stroke-dasharray="5,2" d="M892.29,-487.94C892.29,-481.65 892.29,-476.13 892.29,-476.13 892.29,-476.13 984.36,-476.13 984.36,-476.13"/>
<polygon fill="black" stroke="black" points="984.36,-479.63 994.36,-476.13 984.36,-472.63 984.36,-479.63"/>
</g>
<!-- l2a_tp_dnb -->
<g id="node14" class="node">
<title>l2a_tp_dnb</title>
<polygon fill="none" stroke="black" points="873.75,-464 585.75,-464 585.75,-438 873.75,-438 885.75,-451 873.75,-464"/>
<text text-anchor="middle" x="735.75" y="-454.8" font-family="Times,serif" font-size="14.00">L2a_Throughput CIC/Dark Current/FPN</text>
<text text-anchor="middle" x="735.75" y="-439.8" font-family="Times,serif" font-size="14.00"> or master dark 1..1</text>
</g>
<!-- l2a_tp_dnb&#45;&gt;trans_tp_l2a_l2b -->
<g id="edge14" class="edge">
<title>l2a_tp_dnb&#45;&gt;trans_tp_l2a_l2b</title>
<path fill="none" stroke="black" d="M885.82,-451C885.82,-451 949.8,-451 949.8,-451"/>
<polygon fill="black" stroke="black" points="949.8,-454.5 959.8,-451 949.8,-447.5 949.8,-454.5"/>
</g>
<!-- l2a_tp_mbpm -->
<g id="node15" class="node">
<title>l2a_tp_mbpm</title>
<polygon fill="none" stroke="black" points="886.25,-408 573.25,-408 573.25,-384 886.25,-384 898.25,-396 886.25,-408"/>
<text text-anchor="middle" x="735.75" y="-392.3" font-family="Times,serif" font-size="14.00">L2a_Throughput master bad pixel map 1..1</text>
</g>
<!-- l2a_tp_mbpm&#45;&gt;trans_tp_l2a_l2b -->
<g id="edge15" class="edge">
<title>l2a_tp_mbpm&#45;&gt;trans_tp_l2a_l2b</title>
<path fill="none" stroke="black" d="M898.56,-396C898.56,-396 930.14,-396 930.14,-396"/>
<polygon fill="black" stroke="black" points="930.14,-399.5 940.14,-396 930.14,-392.5 930.14,-399.5"/>
</g>
<!-- l2a_tp_ff -->
<g id="node16" class="node">
<title>l2a_tp_ff</title>
<polygon fill="none" stroke="black" points="841.75,-354 617.75,-354 617.75,-330 841.75,-330 853.75,-342 841.75,-354"/>
<text text-anchor="middle" x="735.75" y="-338.3" font-family="Times,serif" font-size="14.00">L2a_Throughput flat fields 1..1</text>
</g>
<!-- l2a_tp_ff&#45;&gt;trans_tp_l2a_l2b -->
<g id="edge16" class="edge">
<title>l2a_tp_ff&#45;&gt;trans_tp_l2a_l2b</title>
<path fill="none" stroke="black" d="M854.01,-342C854.01,-342 948.85,-342 948.85,-342"/>
<polygon fill="black" stroke="black" points="948.85,-345.5 958.85,-342 948.85,-338.5 948.85,-345.5"/>
</g>
<!-- l2a_tp_emg -->
<g id="node17" class="node">
<title>l2a_tp_emg</title>
<polygon fill="none" stroke="black" points="838.75,-300 620.75,-300 620.75,-276 838.75,-276 850.75,-288 838.75,-300"/>
<text text-anchor="middle" x="735.75" y="-284.3" font-family="Times,serif" font-size="14.00">L2a_Throughput EM gain 1..1</text>
</g>
<!-- l2a_tp_emg&#45;&gt;trans_tp_l2a_l2b -->
<g id="edge17" class="edge">
<title>l2a_tp_emg&#45;&gt;trans_tp_l2a_l2b</title>
<path fill="none" stroke="black" d="M850.92,-288C915.94,-288 984.29,-288 984.29,-288 984.29,-288 984.29,-310.7 984.29,-310.7"/>
<polygon fill="black" stroke="black" points="980.79,-310.7 984.29,-320.7 987.79,-310.7 980.79,-310.7"/>
</g>
<!-- l2a_tp_kgain -->
<g id="node18" class="node">
<title>l2a_tp_kgain</title>
<polygon fill="none" stroke="black" points="825.25,-246 634.25,-246 634.25,-222 825.25,-222 837.25,-234 825.25,-246"/>
<text text-anchor="middle" x="735.75" y="-230.3" font-family="Times,serif" font-size="14.00">L2_Throughput Kgain 1..1</text>
</g>
<!-- l2a_tp_kgain&#45;&gt;trans_tp_l2a_l2b -->
<g id="edge10" class="edge">
<title>l2a_tp_kgain&#45;&gt;trans_tp_l2a_l2b</title>
<path fill="none" stroke="black" d="M837.3,-234C921.44,-234 1027.29,-234 1027.29,-234 1027.29,-234 1027.29,-299.31 1027.29,-299.31"/>
<polygon fill="black" stroke="black" points="1023.79,-299.31 1027.29,-309.31 1030.79,-299.31 1023.79,-299.31"/>
</g>
<!-- l2b_tp_prod&#45;&gt;trans_tp_l2b_ctp -->
<g id="edge22" class="edge">
<title>l2b_tp_prod&#45;&gt;trans_tp_l2b_ctp</title>
<path fill="none" stroke="black" stroke-dasharray="5,2" d="M1435.64,-456C1435.64,-456 1563.67,-456 1563.67,-456"/>
<polygon fill="black" stroke="black" points="1563.67,-459.5 1573.67,-456 1563.67,-452.5 1563.67,-459.5"/>
</g>
<!-- l2b_tp_man&#45;&gt;trans_tp_l2b_ctp -->
<g id="edge23" class="edge">
<title>l2b_tp_man&#45;&gt;trans_tp_l2b_ctp</title>
<path fill="none" stroke="black" d="M1463.29,-401.51C1463.29,-414.11 1463.29,-444 1463.29,-444 1463.29,-444 1581.29,-444 1581.29,-444"/>
<polygon fill="black" stroke="black" points="1581.29,-447.5 1591.29,-444 1581.29,-440.5 1581.29,-447.5"/>
</g>
<!-- l2b_tp_odir -->
<g id="node22" class="node">
<title>l2b_tp_odir</title>
<ellipse fill="none" stroke="black" cx="1318.78" cy="-720" rx="165.17" ry="18"/>
<text text-anchor="middle" x="1318.78" y="-716.3" font-family="Times,serif" font-size="14.00">L2b_Throughput output path 1..1</text>
</g>
<!-- l2b_tp_odir&#45;&gt;trans_tp_l2b_ctp -->
<g id="edge24" class="edge">
<title>l2b_tp_odir&#45;&gt;trans_tp_l2b_ctp</title>
<path fill="none" stroke="black" d="M1454.29,-709.35C1454.29,-695.21 1454.29,-672 1454.29,-672 1454.29,-672 1581.35,-672 1581.35,-672"/>
<polygon fill="black" stroke="black" points="1581.35,-675.5 1591.35,-672 1581.35,-668.5 1581.35,-675.5"/>
</g>
<!-- l2b_tp_rec -->
<g id="node23" class="node">
<title>l2b_tp_rec</title>
<polygon fill="none" stroke="black" points="1414.28,-678 1211.28,-678 1211.28,-654 1414.28,-654 1426.28,-666 1414.28,-678"/>
<text text-anchor="middle" x="1318.78" y="-662.3" font-family="Times,serif" font-size="14.00">L2b_Throughput recipe 1..1</text>
</g>
<!-- l2b_tp_rec&#45;&gt;trans_tp_l2b_ctp -->
<g id="edge25" class="edge">
<title>l2b_tp_rec&#45;&gt;trans_tp_l2b_ctp</title>
<path fill="none" stroke="black" d="M1426.74,-660C1426.74,-660 1563.6,-660 1563.6,-660"/>
<polygon fill="black" stroke="black" points="1563.6,-663.5 1573.6,-660 1563.6,-656.5 1563.6,-663.5"/>
</g>
<!-- l2b_tp_excicrf -->
<g id="node24" class="node">
<title>l2b_tp_excicrf</title>
<polygon fill="none" stroke="black" points="1469.78,-624 1155.78,-624 1155.78,-600 1469.78,-600 1481.78,-612 1469.78,-624"/>
<text text-anchor="middle" x="1318.78" y="-608.3" font-family="Times,serif" font-size="14.00">L2b_Throughput EXCAM ICRF location 1..1</text>
</g>
<!-- l2b_tp_excicrf&#45;&gt;trans_tp_l2b_ctp -->
<g id="edge26" class="edge">
<title>l2b_tp_excicrf&#45;&gt;trans_tp_l2b_ctp</title>
<path fill="none" stroke="black" d="M1482.26,-612C1482.26,-612 1526.44,-612 1526.44,-612"/>
<polygon fill="black" stroke="black" points="1526.44,-615.5 1536.44,-612 1526.44,-608.5 1526.44,-615.5"/>
</g>
<!-- l2b_tp_excfovps -->
<g id="node25" class="node">
<title>l2b_tp_excfovps</title>
<polygon fill="none" stroke="black" points="1476.78,-570 1148.78,-570 1148.78,-546 1476.78,-546 1488.78,-558 1476.78,-570"/>
<text text-anchor="middle" x="1318.78" y="-554.3" font-family="Times,serif" font-size="14.00">L2b_Throughput EXCAM FOV pixel scale 1..1</text>
</g>
<!-- l2b_tp_excfovps&#45;&gt;trans_tp_l2b_ctp -->
<g id="edge27" class="edge">
<title>l2b_tp_excfovps&#45;&gt;trans_tp_l2b_ctp</title>
<path fill="none" stroke="black" d="M1489.16,-558C1489.16,-558 1514.62,-558 1514.62,-558"/>
<polygon fill="black" stroke="black" points="1514.62,-561.5 1524.62,-558 1514.62,-554.5 1514.62,-561.5"/>
</g>
<!-- l2b_tp_distm -->
<g id="node26" class="node">
<title>l2b_tp_distm</title>
<polygon fill="none" stroke="black" points="1444.28,-516 1181.28,-516 1181.28,-492 1444.28,-492 1456.28,-504 1444.28,-516"/>
<text text-anchor="middle" x="1318.78" y="-500.3" font-family="Times,serif" font-size="14.00">L2b_Throughput distortion map 1..1</text>
</g>
<!-- l2b_tp_distm&#45;&gt;trans_tp_l2b_ctp -->
<g id="edge28" class="edge">
<title>l2b_tp_distm&#45;&gt;trans_tp_l2b_ctp</title>
<path fill="none" stroke="black" d="M1456.75,-504C1456.75,-504 1526.43,-504 1526.43,-504"/>
<polygon fill="black" stroke="black" points="1526.43,-507.5 1536.43,-504 1526.43,-500.5 1526.43,-507.5"/>
</g>
</g>
</svg>
