<?xml version="1.0" encoding="UTF-8" standalone="no"?>
<!DOCTYPE svg PUBLIC "-//W3C//DTD SVG 1.1//EN"
 "http://www.w3.org/Graphics/SVG/1.1/DTD/svg11.dtd">
<!-- Generated by graphviz version 2.43.0 (0)
 -->
<!-- Title: Throughput Pages: 1 -->
<svg width="2080pt" height="773pt"
 viewBox="0.00 0.00 2079.99 773.00" xmlns="http://www.w3.org/2000/svg" xmlns:xlink="http://www.w3.org/1999/xlink">
<g id="graph0" class="graph" transform="scale(1 1) rotate(0) translate(4 769)">
<title>Throughput</title>
<polygon fill="white" stroke="transparent" points="-4,4 -4,-769 2075.99,-769 2075.99,4 -4,4"/>
<!-- trans_tp_l1_l2a_basic -->
<g id="node1" class="node">
<title>trans_tp_l1_l2a_basic</title>
<ellipse fill="none" stroke="black" cx="442.86" cy="-126" rx="88.28" ry="88.28"/>
<text text-anchor="middle" x="442.86" y="-137.3" font-family="Times,serif" font-size="14.00">Throughput</text>
<text text-anchor="middle" x="442.86" y="-122.3" font-family="Times,serif" font-size="14.00">Transmutation</text>
<text text-anchor="middle" x="442.86" y="-107.3" font-family="Times,serif" font-size="14.00">L1 to L2a basic</text>
</g>
<!-- l2a_tp_prod -->
<g id="node9" class="node">
<title>l2a_tp_prod</title>
<polygon fill="none" stroke="black" points="852.25,-198 619.25,-198 619.25,-162 852.25,-162 852.25,-198"/>
<text text-anchor="middle" x="735.75" y="-176.3" font-family="Times,serif" font-size="14.00">L2a_Throughput products 1..b</text>
</g>
<!-- trans_tp_l1_l2a_basic&#45;&gt;l2a_tp_prod -->
<g id="edge6" class="edge">
<title>trans_tp_l1_l2a_basic&#45;&gt;l2a_tp_prod</title>
<path fill="none" stroke="black" d="M513.01,-180C513.01,-180 608.99,-180 608.99,-180"/>
<polygon fill="black" stroke="black" points="608.99,-183.5 618.99,-180 608.99,-176.5 608.99,-183.5"/>
</g>
<!-- l2a_tp_man -->
<g id="node10" class="node">
<title>l2a_tp_man</title>
<ellipse fill="none" stroke="black" cx="735.75" cy="-126" rx="150.57" ry="18"/>
<text text-anchor="middle" x="735.75" y="-122.3" font-family="Times,serif" font-size="14.00">L2a_Throughput manifest 1..1</text>
</g>
<!-- trans_tp_l1_l2a_basic&#45;&gt;l2a_tp_man -->
<g id="edge7" class="edge">
<title>trans_tp_l1_l2a_basic&#45;&gt;l2a_tp_man</title>
<path fill="none" stroke="black" d="M531.53,-126C531.53,-126 574.84,-126 574.84,-126"/>
<polygon fill="black" stroke="black" points="574.84,-129.5 584.84,-126 574.84,-122.5 574.84,-129.5"/>
</g>
<!-- l2a_tp_log -->
<g id="node19" class="node">
<title>l2a_tp_log</title>
<ellipse fill="none" stroke="black" cx="735.75" cy="-72" rx="124.28" ry="18"/>
<text text-anchor="middle" x="735.75" y="-68.3" font-family="Times,serif" font-size="14.00">L2a_Throughput log 1..1</text>
</g>
<!-- trans_tp_l1_l2a_basic&#45;&gt;l2a_tp_log -->
<g id="edge8" class="edge">
<title>trans_tp_l1_l2a_basic&#45;&gt;l2a_tp_log</title>
<path fill="none" stroke="black" d="M513.01,-72C513.01,-72 601.49,-72 601.49,-72"/>
<polygon fill="black" stroke="black" points="601.49,-75.5 611.49,-72 601.49,-68.5 601.49,-75.5"/>
</g>
<!-- trans_tp_l2a_l2b -->
<g id="node2" class="node">
<title>trans_tp_l2a_l2b</title>
<ellipse fill="none" stroke="black" cx="1026.52" cy="-396" rx="86.03" ry="86.03"/>
<text text-anchor="middle" x="1026.52" y="-407.3" font-family="Times,serif" font-size="14.00">Throughput</text>
<text text-anchor="middle" x="1026.52" y="-392.3" font-family="Times,serif" font-size="14.00">Transmutation</text>
<text text-anchor="middle" x="1026.52" y="-377.3" font-family="Times,serif" font-size="14.00">L2a to L2b</text>
</g>
<!-- l2b_tp_prod -->
<g id="node20" class="node">
<title>l2b_tp_prod</title>
<polygon fill="none" stroke="black" points="1435.28,-441 1202.28,-441 1202.28,-405 1435.28,-405 1435.28,-441"/>
<text text-anchor="middle" x="1318.78" y="-419.3" font-family="Times,serif" font-size="14.00">L2b_Throughput products 1..1</text>
</g>
<!-- trans_tp_l2a_l2b&#45;&gt;l2b_tp_prod -->
<g id="edge18" class="edge">
<title>trans_tp_l2a_l2b&#45;&gt;l2b_tp_prod</title>
<path fill="none" stroke="black" d="M1108.71,-423C1108.71,-423 1192.05,-423 1192.05,-423"/>
<polygon fill="black" stroke="black" points="1192.05,-426.5 1202.05,-423 1192.05,-419.5 1192.05,-426.5"/>
</g>
<!-- l2b_tp_log -->
<g id="node27" class="node">
<title>l2b_tp_log</title>
<ellipse fill="none" stroke="black" cx="1318.78" cy="-369" rx="124.58" ry="18"/>
<text text-anchor="middle" x="1318.78" y="-365.3" font-family="Times,serif" font-size="14.00">L2b_Throughput log 1..1</text>
</g>
<!-- trans_tp_l2a_l2b&#45;&gt;l2b_tp_log -->
<g id="edge19" class="edge">
<title>trans_tp_l2a_l2b&#45;&gt;l2b_tp_log</title>
<path fill="none" stroke="black" d="M1108.71,-369C1108.71,-369 1183.81,-369 1183.81,-369"/>
<polygon fill="black" stroke="black" points="1183.81,-372.5 1193.81,-369 1183.81,-365.5 1183.81,-372.5"/>
</g>
<!-- trans_tp_l2b_ctp -->
<g id="node3" class="node">
<title>trans_tp_l2b_ctp</title>
<ellipse fill="none" stroke="black" cx="1655.6" cy="-585" rx="130.63" ry="130.63"/>
<text text-anchor="middle" x="1655.6" y="-596.3" font-family="Times,serif" font-size="14.00">Throughput</text>
<text text-anchor="middle" x="1655.6" y="-581.3" font-family="Times,serif" font-size="14.00">Transmutation</text>
<text text-anchor="middle" x="1655.6" y="-566.3" font-family="Times,serif" font-size="14.00">L2b to CoreThroughput</text>
</g>
<!-- ctp_prod -->
<g id="node28" class="node">
<title>ctp_prod</title>
<polygon fill="none" stroke="black" points="2063.7,-630 1830.7,-630 1830.7,-594 2063.7,-594 2063.7,-630"/>
<text text-anchor="middle" x="1947.2" y="-608.3" font-family="Times,serif" font-size="14.00">CoreThroughput products 1..1</text>
</g>
<!-- trans_tp_l2b_ctp&#45;&gt;ctp_prod -->
<g id="edge27" class="edge">
<title>trans_tp_l2b_ctp&#45;&gt;ctp_prod</title>
<path fill="none" stroke="black" d="M1783.92,-612C1783.92,-612 1820.31,-612 1820.31,-612"/>
<polygon fill="black" stroke="black" points="1820.31,-615.5 1830.31,-612 1820.31,-608.5 1820.31,-615.5"/>
</g>
<!-- ctp_log -->
<g id="node29" class="node">
<title>ctp_log</title>
<ellipse fill="none" stroke="black" cx="1947.2" cy="-558" rx="124.58" ry="18"/>
<text text-anchor="middle" x="1947.2" y="-554.3" font-family="Times,serif" font-size="14.00">CoreThroughput log 1..1</text>
</g>
<!-- trans_tp_l2b_ctp&#45;&gt;ctp_log -->
<g id="edge28" class="edge">
<title>trans_tp_l2b_ctp&#45;&gt;ctp_log</title>
<path fill="none" stroke="black" d="M1783.92,-558C1783.92,-558 1812.12,-558 1812.12,-558"/>
<polygon fill="black" stroke="black" points="1812.12,-561.5 1822.12,-558 1812.12,-554.5 1812.12,-561.5"/>
</g>
<!-- l1_tp_prod -->
<g id="node4" class="node">
<title>l1_tp_prod</title>
<polygon fill="none" stroke="black" points="271.24,-252 47.24,-252 47.24,-216 271.24,-216 271.24,-252"/>
<text text-anchor="middle" x="159.24" y="-230.3" font-family="Times,serif" font-size="14.00">L1_Throughput products 1..b</text>
</g>
<!-- l1_tp_prod&#45;&gt;trans_tp_l1_l2a_basic -->
<g id="edge1" class="edge">
<title>l1_tp_prod&#45;&gt;trans_tp_l1_l2a_basic</title>
<path fill="none" stroke="black" d="M271.38,-234C350.7,-234 442.99,-234 442.99,-234 442.99,-234 442.99,-224.44 442.99,-224.44"/>
<polygon fill="black" stroke="black" points="446.49,-224.44 442.99,-214.44 439.49,-224.44 446.49,-224.44"/>
</g>
<!-- l1_tp_man -->
<g id="node5" class="node">
<title>l1_tp_man</title>
<ellipse fill="none" stroke="black" cx="159.24" cy="-180" rx="145.67" ry="18"/>
<text text-anchor="middle" x="159.24" y="-176.3" font-family="Times,serif" font-size="14.00">L1_Throughput manifest 1..1</text>
</g>
<!-- l1_tp_man&#45;&gt;trans_tp_l1_l2a_basic -->
<g id="edge2" class="edge">
<title>l1_tp_man&#45;&gt;trans_tp_l1_l2a_basic</title>
<path fill="none" stroke="black" d="M305.2,-180C305.2,-180 362.61,-180 362.61,-180"/>
<polygon fill="black" stroke="black" points="362.61,-183.5 372.61,-180 362.61,-176.5 362.61,-183.5"/>
</g>
<!-- l1_tp_odir -->
<g id="node6" class="node">
<title>l1_tp_odir</title>
<ellipse fill="none" stroke="black" cx="159.24" cy="-126" rx="159.47" ry="18"/>
<text text-anchor="middle" x="159.24" y="-122.3" font-family="Times,serif" font-size="14.00">L1_Throughput output path 1..1</text>
</g>
<!-- l1_tp_odir&#45;&gt;trans_tp_l1_l2a_basic -->
<g id="edge3" class="edge">
<title>l1_tp_odir&#45;&gt;trans_tp_l1_l2a_basic</title>
<path fill="none" stroke="black" d="M318.87,-126C318.87,-126 344.26,-126 344.26,-126"/>
<polygon fill="black" stroke="black" points="344.26,-129.5 354.26,-126 344.26,-122.5 344.26,-129.5"/>
</g>
<!-- l1_tp_rec -->
<g id="node7" class="node">
<title>l1_tp_rec</title>
<polygon fill="none" stroke="black" points="250.24,-84 56.24,-84 56.24,-60 250.24,-60 262.24,-72 250.24,-84"/>
<text text-anchor="middle" x="159.24" y="-68.3" font-family="Times,serif" font-size="14.00">L1_Throughput recipe 1..1</text>
</g>
<!-- l1_tp_rec&#45;&gt;trans_tp_l1_l2a_basic -->
<g id="edge4" class="edge">
<title>l1_tp_rec&#45;&gt;trans_tp_l1_l2a_basic</title>
<path fill="none" stroke="black" d="M262.43,-72C262.43,-72 362.54,-72 362.54,-72"/>
<polygon fill="black" stroke="black" points="362.54,-75.5 372.54,-72 362.54,-68.5 362.54,-75.5"/>
</g>
<!-- l1_tp_nllut -->
<g id="node8" class="node">
<title>l1_tp_nllut</title>
<polygon fill="none" stroke="black" points="280.74,-30 25.74,-30 25.74,-6 280.74,-6 292.74,-18 280.74,-30"/>
<text text-anchor="middle" x="159.24" y="-14.3" font-family="Times,serif" font-size="14.00">L1_Throughput non&#45;linear LUT 1..1</text>
</g>
<!-- l1_tp_nllut&#45;&gt;trans_tp_l1_l2a_basic -->
<g id="edge5" class="edge">
<title>l1_tp_nllut&#45;&gt;trans_tp_l1_l2a_basic</title>
<path fill="none" stroke="black" d="M277.99,-36.08C277.99,-41.39 277.99,-45.81 277.99,-45.81 277.99,-45.81 395.45,-45.81 395.45,-45.81"/>
<polygon fill="black" stroke="black" points="395.45,-49.31 405.45,-45.81 395.45,-42.31 395.45,-49.31"/>
</g>
<!-- l2a_tp_prod&#45;&gt;trans_tp_l2a_l2b -->
<g id="edge9" class="edge">
<title>l2a_tp_prod&#45;&gt;trans_tp_l2a_l2b</title>
<path fill="none" stroke="black" d="M852.65,-180C949.04,-180 1069.99,-180 1069.99,-180 1069.99,-180 1069.99,-311.36 1069.99,-311.36"/>
<polygon fill="black" stroke="black" points="1066.49,-311.36 1069.99,-321.36 1073.49,-311.36 1066.49,-311.36"/>
</g>
<!-- l2a_tp_odir -->
<g id="node11" class="node">
<title>l2a_tp_odir</title>
<ellipse fill="none" stroke="black" cx="735.75" cy="-614" rx="165.17" ry="18"/>
<text text-anchor="middle" x="735.75" y="-610.3" font-family="Times,serif" font-size="14.00">L2a_Throughput output path 1..1</text>
</g>
<!-- l2a_tp_odir&#45;&gt;trans_tp_l2a_l2b -->
<g id="edge11" class="edge">
<title>l2a_tp_odir&#45;&gt;trans_tp_l2a_l2b</title>
<path fill="none" stroke="black" d="M833.57,-599.5C927.75,-599.5 1055.99,-599.5 1055.99,-599.5 1055.99,-599.5 1055.99,-487.31 1055.99,-487.31"/>
<polygon fill="black" stroke="black" points="1059.49,-487.31 1055.99,-477.31 1052.49,-487.31 1059.49,-487.31"/>
</g>
<!-- l2a_tp_rec -->
<g id="node12" class="node">
<title>l2a_tp_rec</title>
<polygon fill="none" stroke="black" points="830.75,-572 628.75,-572 628.75,-548 830.75,-548 842.75,-560 830.75,-572"/>
<text text-anchor="middle" x="735.75" y="-556.3" font-family="Times,serif" font-size="14.00">L2a_Throughput recipe 1..1</text>
</g>
<!-- l2a_tp_rec&#45;&gt;trans_tp_l2a_l2b -->
<g id="edge12" class="edge">
<title>l2a_tp_rec&#45;&gt;trans_tp_l2a_l2b</title>
<path fill="none" stroke="black" d="M842.79,-545.5C915.3,-545.5 997.99,-545.5 997.99,-545.5 997.99,-545.5 997.99,-487.75 997.99,-487.75"/>
<polygon fill="black" stroke="black" points="1001.49,-487.75 997.99,-477.75 994.49,-487.75 1001.49,-487.75"/>
</g>
<!-- l2a_tp_cti -->
<g id="node13" class="node">
<title>l2a_tp_cti</title>
<polygon fill="none" stroke="black" points="892.25,-518 567.25,-518 567.25,-494 892.25,-494 904.25,-506 892.25,-518"/>
<text text-anchor="middle" x="735.75" y="-502.3" font-family="Times,serif" font-size="14.00">L2a_Throughput charge xfer inefficiency 1..1</text>
</g>
<!-- l2a_tp_cti&#45;&gt;trans_tp_l2a_l2b -->
<g id="edge13" class="edge">
<title>l2a_tp_cti&#45;&gt;trans_tp_l2a_l2b</title>
<path fill="none" stroke="black" stroke-dasharray="5,2" d="M892.99,-487.94C892.99,-481.65 892.99,-476.13 892.99,-476.13 892.99,-476.13 984.53,-476.13 984.53,-476.13"/>
<polygon fill="black" stroke="black" points="984.53,-479.63 994.53,-476.13 984.53,-472.63 984.53,-479.63"/>
</g>
<!-- l2a_tp_dnb -->
<g id="node14" class="node">
<title>l2a_tp_dnb</title>
<polygon fill="none" stroke="black" points="873.75,-464 585.75,-464 585.75,-438 873.75,-438 885.75,-451 873.75,-464"/>
<text text-anchor="middle" x="735.75" y="-454.8" font-family="Times,serif" font-size="14.00">L2a_Throughput CIC/Dark Current/FPN</text>
<text text-anchor="middle" x="735.75" y="-439.8" font-family="Times,serif" font-size="14.00"> or master dark 1..1</text>
</g>
<!-- l2a_tp_dnb&#45;&gt;trans_tp_l2a_l2b -->
<g id="edge14" class="edge">
<title>l2a_tp_dnb&#45;&gt;trans_tp_l2a_l2b</title>
<path fill="none" stroke="black" d="M885.82,-451C885.82,-451 949.8,-451 949.8,-451"/>
<polygon fill="black" stroke="black" points="949.8,-454.5 959.8,-451 949.8,-447.5 949.8,-454.5"/>
</g>
<!-- l2a_tp_mbpm -->
<g id="node15" class="node">
<title>l2a_tp_mbpm</title>
<polygon fill="none" stroke="black" points="886.25,-408 573.25,-408 573.25,-384 886.25,-384 898.25,-396 886.25,-408"/>
<text text-anchor="middle" x="735.75" y="-392.3" font-family="Times,serif" font-size="14.00">L2a_Throughput master bad pixel map 1..1</text>
</g>
<!-- l2a_tp_mbpm&#45;&gt;trans_tp_l2a_l2b -->
<g id="edge15" class="edge">
<title>l2a_tp_mbpm&#45;&gt;trans_tp_l2a_l2b</title>
<path fill="none" stroke="black" d="M898.56,-396C898.56,-396 930.14,-396 930.14,-396"/>
<polygon fill="black" stroke="black" points="930.14,-399.5 940.14,-396 930.14,-392.5 930.14,-399.5"/>
</g>
<!-- l2a_tp_ff -->
<g id="node16" class="node">
<title>l2a_tp_ff</title>
<polygon fill="none" stroke="black" points="841.75,-354 617.75,-354 617.75,-330 841.75,-330 853.75,-342 841.75,-354"/>
<text text-anchor="middle" x="735.75" y="-338.3" font-family="Times,serif" font-size="14.00">L2a_Throughput flat fields 1..1</text>
</g>
<!-- l2a_tp_ff&#45;&gt;trans_tp_l2a_l2b -->
<g id="edge16" class="edge">
<title>l2a_tp_ff&#45;&gt;trans_tp_l2a_l2b</title>
<path fill="none" stroke="black" d="M854.01,-342C854.01,-342 948.85,-342 948.85,-342"/>
<polygon fill="black" stroke="black" points="948.85,-345.5 958.85,-342 948.85,-338.5 948.85,-345.5"/>
</g>
<!-- l2a_tp_emg -->
<g id="node17" class="node">
<title>l2a_tp_emg</title>
<polygon fill="none" stroke="black" points="838.75,-300 620.75,-300 620.75,-276 838.75,-276 850.75,-288 838.75,-300"/>
<text text-anchor="middle" x="735.75" y="-284.3" font-family="Times,serif" font-size="14.00">L2a_Throughput EM gain 1..1</text>
</g>
<!-- l2a_tp_emg&#45;&gt;trans_tp_l2a_l2b -->
<g id="edge17" class="edge">
<title>l2a_tp_emg&#45;&gt;trans_tp_l2a_l2b</title>
<path fill="none" stroke="black" d="M850.79,-288C915.72,-288 983.99,-288 983.99,-288 983.99,-288 983.99,-310.7 983.99,-310.7"/>
<polygon fill="black" stroke="black" points="980.49,-310.7 983.99,-320.7 987.49,-310.7 980.49,-310.7"/>
</g>
<!-- l2a_tp_kgain -->
<g id="node18" class="node">
<title>l2a_tp_kgain</title>
<polygon fill="none" stroke="black" points="825.25,-246 634.25,-246 634.25,-222 825.25,-222 837.25,-234 825.25,-246"/>
<text text-anchor="middle" x="735.75" y="-230.3" font-family="Times,serif" font-size="14.00">L2_Throughput Kgain 1..1</text>
</g>
<!-- l2a_tp_kgain&#45;&gt;trans_tp_l2a_l2b -->
<g id="edge10" class="edge">
<title>l2a_tp_kgain&#45;&gt;trans_tp_l2a_l2b</title>
<path fill="none" stroke="black" d="M837.61,-234C921.6,-234 1026.99,-234 1026.99,-234 1026.99,-234 1026.99,-299.31 1026.99,-299.31"/>
<polygon fill="black" stroke="black" points="1023.49,-299.31 1026.99,-309.31 1030.49,-299.31 1023.49,-299.31"/>
</g>
<!-- l2b_tp_prod&#45;&gt;trans_tp_l2b_ctp -->
<g id="edge20" class="edge">
<title>l2b_tp_prod&#45;&gt;trans_tp_l2b_ctp</title>
<path fill="none" stroke="black" d="M1435.3,-423C1532.77,-423 1655.99,-423 1655.99,-423 1655.99,-423 1655.99,-443.85 1655.99,-443.85"/>
<polygon fill="black" stroke="black" points="1652.49,-443.85 1655.99,-453.85 1659.49,-443.85 1652.49,-443.85"/>
</g>
<!-- l2b_tp_man -->
<g id="node21" class="node">
<title>l2b_tp_man</title>
<ellipse fill="none" stroke="black" cx="1318.78" cy="-747" rx="151.37" ry="18"/>
<text text-anchor="middle" x="1318.78" y="-743.3" font-family="Times,serif" font-size="14.00">L2b_Throughput manifest 1..1</text>
</g>
<!-- l2b_tp_man&#45;&gt;trans_tp_l2b_ctp -->
<g id="edge21" class="edge">
<title>l2b_tp_man&#45;&gt;trans_tp_l2b_ctp</title>
<path fill="none" stroke="black" d="M1470.62,-747C1560.12,-747 1655.99,-747 1655.99,-747 1655.99,-747 1655.99,-726.15 1655.99,-726.15"/>
<polygon fill="black" stroke="black" points="1659.49,-726.15 1655.99,-716.15 1652.49,-726.15 1659.49,-726.15"/>
</g>
<!-- l2b_tp_odir -->
<g id="node22" class="node">
<title>l2b_tp_odir</title>
<ellipse fill="none" stroke="black" cx="1318.78" cy="-693" rx="165.17" ry="18"/>
<text text-anchor="middle" x="1318.78" y="-689.3" font-family="Times,serif" font-size="14.00">L2b_Throughput output path 1..1</text>
</g>
<!-- l2b_tp_odir&#45;&gt;trans_tp_l2b_ctp -->
<g id="edge22" class="edge">
<title>l2b_tp_odir&#45;&gt;trans_tp_l2b_ctp</title>
<path fill="none" stroke="black" d="M1484.23,-693C1484.23,-693 1571.43,-693 1571.43,-693"/>
<polygon fill="black" stroke="black" points="1571.43,-696.5 1581.43,-693 1571.43,-689.5 1571.43,-696.5"/>
</g>
<!-- l2b_tp_rec -->
<g id="node23" class="node">
<title>l2b_tp_rec</title>
<polygon fill="none" stroke="black" points="1414.28,-651 1211.28,-651 1211.28,-627 1414.28,-627 1426.28,-639 1414.28,-651"/>
<text text-anchor="middle" x="1318.78" y="-635.3" font-family="Times,serif" font-size="14.00">L2b_Throughput recipe 1..1</text>
</g>
<!-- l2b_tp_rec&#45;&gt;trans_tp_l2b_ctp -->
<g id="edge23" class="edge">
<title>l2b_tp_rec&#45;&gt;trans_tp_l2b_ctp</title>
<path fill="none" stroke="black" d="M1426.74,-639C1426.74,-639 1526.29,-639 1526.29,-639"/>
<polygon fill="black" stroke="black" points="1526.29,-642.5 1536.29,-639 1526.29,-635.5 1526.29,-642.5"/>
</g>
<!-- l2b_tp_excicrf -->
<g id="node24" class="node">
<title>l2b_tp_excicrf</title>
<polygon fill="none" stroke="black" points="1469.78,-597 1155.78,-597 1155.78,-573 1469.78,-573 1481.78,-585 1469.78,-597"/>
<text text-anchor="middle" x="1318.78" y="-581.3" font-family="Times,serif" font-size="14.00">L2b_Throughput EXCAM ICRF location 1..1</text>
</g>
<!-- l2b_tp_excicrf&#45;&gt;trans_tp_l2b_ctp -->
<g id="edge24" class="edge">
<title>l2b_tp_excicrf&#45;&gt;trans_tp_l2b_ctp</title>
<path fill="none" stroke="black" d="M1482.26,-585C1482.26,-585 1514.73,-585 1514.73,-585"/>
<polygon fill="black" stroke="black" points="1514.73,-588.5 1524.73,-585 1514.73,-581.5 1514.73,-588.5"/>
</g>
<!-- l2b_tp_excfovps -->
<g id="node25" class="node">
<title>l2b_tp_excfovps</title>
<polygon fill="none" stroke="black" points="1476.78,-543 1148.78,-543 1148.78,-519 1476.78,-519 1488.78,-531 1476.78,-543"/>
<text text-anchor="middle" x="1318.78" y="-527.3" font-family="Times,serif" font-size="14.00">L2b_Throughput EXCAM FOV pixel scale 1..1</text>
</g>
<!-- l2b_tp_excfovps&#45;&gt;trans_tp_l2b_ctp -->
<g id="edge25" class="edge">
<title>l2b_tp_excfovps&#45;&gt;trans_tp_l2b_ctp</title>
<path fill="none" stroke="black" d="M1489.16,-531C1489.16,-531 1526.02,-531 1526.02,-531"/>
<polygon fill="black" stroke="black" points="1526.02,-534.5 1536.02,-531 1526.02,-527.5 1526.02,-534.5"/>
</g>
<!-- l2b_tp_distm -->
<g id="node26" class="node">
<title>l2b_tp_distm</title>
<polygon fill="none" stroke="black" points="1444.28,-489 1181.28,-489 1181.28,-465 1444.28,-465 1456.28,-477 1444.28,-489"/>
<text text-anchor="middle" x="1318.78" y="-473.3" font-family="Times,serif" font-size="14.00">L2b_Throughput distortion map 1..1</text>
</g>
<!-- l2b_tp_distm&#45;&gt;trans_tp_l2b_ctp -->
<g id="edge26" class="edge">
<title>l2b_tp_distm&#45;&gt;trans_tp_l2b_ctp</title>
<path fill="none" stroke="black" d="M1456.75,-477C1456.75,-477 1571.46,-477 1571.46,-477"/>
<polygon fill="black" stroke="black" points="1571.46,-480.5 1581.46,-477 1571.46,-473.5 1571.46,-480.5"/>
</g>
</g>
</svg>
