<?xml version="1.0" encoding="UTF-8" standalone="no"?>
<!DOCTYPE svg PUBLIC "-//W3C//DTD SVG 1.1//EN"
 "http://www.w3.org/Graphics/SVG/1.1/DTD/svg11.dtd">
<!-- Generated by graphviz version 2.43.0 (0)
 -->
<!-- Title: FlatFieldCalibrations Pages: 1 -->
<svg width="861pt" height="206pt"
 viewBox="0.00 0.00 861.22 206.00" xmlns="http://www.w3.org/2000/svg" xmlns:xlink="http://www.w3.org/1999/xlink">
<g id="graph0" class="graph" transform="scale(1 1) rotate(0) translate(4 202)">
<title>FlatFieldCalibrations</title>
<polygon fill="white" stroke="transparent" points="-4,4 -4,-202 857.22,-202 857.22,4 -4,4"/>
<!-- trans_cal_ff_l1_l2a -->
<g id="node1" class="node">
<title>trans_cal_ff_l1_l2a</title>
<ellipse fill="none" stroke="black" cx="418.16" cy="-99" rx="88.28" ry="88.28"/>
<text text-anchor="middle" x="418.16" y="-110.3" font-family="Times,serif" font-size="14.00">FlatField</text>
<text text-anchor="middle" x="418.16" y="-95.3" font-family="Times,serif" font-size="14.00">Transmutation</text>
<text text-anchor="middle" x="418.16" y="-80.3" font-family="Times,serif" font-size="14.00">L1 to L2a basic</text>
</g>
<!-- cal_ff_prod -->
<g id="node6" class="node">
<title>cal_ff_prod</title>
<polygon fill="none" stroke="black" points="787.89,-198 607.89,-198 607.89,-162 787.89,-162 787.89,-198"/>
<text text-anchor="middle" x="697.89" y="-176.3" font-family="Times,serif" font-size="14.00">FlatField products 1..1</text>
</g>
<!-- trans_cal_ff_l1_l2a&#45;&gt;cal_ff_prod -->
<g id="edge5" class="edge">
<title>trans_cal_ff_l1_l2a&#45;&gt;cal_ff_prod</title>
<path fill="none" stroke="black" stroke-dasharray="5,2" d="M464.04,-174.69C464.04,-174.69 597.87,-174.69 597.87,-174.69"/>
<polygon fill="black" stroke="black" points="597.87,-178.19 607.87,-174.69 597.87,-171.19 597.87,-178.19"/>
</g>
<!-- cal_ff_log -->
<g id="node7" class="node">
<title>cal_ff_log</title>
<ellipse fill="none" stroke="black" cx="697.89" cy="-126" rx="90.18" ry="18"/>
<text text-anchor="middle" x="697.89" y="-122.3" font-family="Times,serif" font-size="14.00">FlatField log 1..1</text>
</g>
<!-- trans_cal_ff_l1_l2a&#45;&gt;cal_ff_log -->
<g id="edge8" class="edge">
<title>trans_cal_ff_l1_l2a&#45;&gt;cal_ff_log</title>
<path fill="none" stroke="black" stroke-dasharray="5,2" d="M502.47,-126C502.47,-126 597.43,-126 597.43,-126"/>
<polygon fill="black" stroke="black" points="597.43,-129.5 607.43,-126 597.43,-122.5 597.43,-129.5"/>
</g>
<!-- cal_ff_man -->
<g id="node8" class="node">
<title>cal_ff_man</title>
<ellipse fill="none" stroke="black" cx="697.89" cy="-72" rx="155.17" ry="18"/>
<text text-anchor="middle" x="697.89" y="-68.3" font-family="Times,serif" font-size="14.00">FlatField product manifest 1..1</text>
</g>
<!-- trans_cal_ff_l1_l2a&#45;&gt;cal_ff_man -->
<g id="edge6" class="edge">
<title>trans_cal_ff_l1_l2a&#45;&gt;cal_ff_man</title>
<path fill="none" stroke="black" d="M502.47,-72C502.47,-72 532.52,-72 532.52,-72"/>
<polygon fill="black" stroke="black" points="532.52,-75.5 542.52,-72 532.52,-68.5 532.52,-75.5"/>
</g>
<!-- cal_ff_src -->
<g id="node9" class="node">
<title>cal_ff_src</title>
<ellipse fill="none" stroke="black" cx="697.89" cy="-18" rx="150.27" ry="18"/>
<text text-anchor="middle" x="697.89" y="-14.3" font-family="Times,serif" font-size="14.00">FlatField source manifest 1..1</text>
</g>
<!-- trans_cal_ff_l1_l2a&#45;&gt;cal_ff_src -->
<g id="edge7" class="edge">
<title>trans_cal_ff_l1_l2a&#45;&gt;cal_ff_src</title>
<path fill="none" stroke="black" d="M464.04,-23.31C464.04,-23.31 544.35,-23.31 544.35,-23.31"/>
<polygon fill="black" stroke="black" points="544.35,-26.81 554.35,-23.31 544.35,-19.81 544.35,-26.81"/>
</g>
<!-- l1_cal_ff_prod -->
<g id="node2" class="node">
<title>l1_cal_ff_prod</title>
<polygon fill="none" stroke="black" points="249.39,-198 44.39,-198 44.39,-162 249.39,-162 249.39,-198"/>
<text text-anchor="middle" x="146.89" y="-176.3" font-family="Times,serif" font-size="14.00">L1_FlatField products 1..b</text>
</g>
<!-- l1_cal_ff_prod&#45;&gt;trans_cal_ff_l1_l2a -->
<g id="edge1" class="edge">
<title>l1_cal_ff_prod&#45;&gt;trans_cal_ff_l1_l2a</title>
<path fill="none" stroke="black" stroke-dasharray="5,2" d="M249.44,-174.69C249.44,-174.69 362.23,-174.69 362.23,-174.69"/>
<polygon fill="black" stroke="black" points="362.23,-178.19 372.23,-174.69 362.23,-171.19 362.23,-178.19"/>
</g>
<!-- l1_cal_ff_man -->
<g id="node3" class="node">
<title>l1_cal_ff_man</title>
<ellipse fill="none" stroke="black" cx="146.89" cy="-126" rx="132.68" ry="18"/>
<text text-anchor="middle" x="146.89" y="-122.3" font-family="Times,serif" font-size="14.00">L1_FlatField manifest 1..1</text>
</g>
<!-- l1_cal_ff_man&#45;&gt;trans_cal_ff_l1_l2a -->
<g id="edge2" class="edge">
<title>l1_cal_ff_man&#45;&gt;trans_cal_ff_l1_l2a</title>
<path fill="none" stroke="black" d="M279.74,-126C279.74,-126 323.77,-126 323.77,-126"/>
<polygon fill="black" stroke="black" points="323.77,-129.5 333.77,-126 323.77,-122.5 323.77,-129.5"/>
</g>
<!-- l1_cal_ff_odir -->
<g id="node4" class="node">
<title>l1_cal_ff_odir</title>
<ellipse fill="none" stroke="black" cx="146.89" cy="-72" rx="146.77" ry="18"/>
<text text-anchor="middle" x="146.89" y="-68.3" font-family="Times,serif" font-size="14.00">L1_FlatField output path 1..1</text>
</g>
<!-- l1_cal_ff_odir&#45;&gt;trans_cal_ff_l1_l2a -->
<g id="edge3" class="edge">
<title>l1_cal_ff_odir&#45;&gt;trans_cal_ff_l1_l2a</title>
<path fill="none" stroke="black" d="M294.04,-72C294.04,-72 323.75,-72 323.75,-72"/>
<polygon fill="black" stroke="black" points="323.75,-75.5 333.75,-72 323.75,-68.5 323.75,-75.5"/>
</g>
<!-- l1_cal_ff_rec -->
<g id="node5" class="node">
<title>l1_cal_ff_rec</title>
<polygon fill="none" stroke="black" points="227.89,-30 53.89,-30 53.89,-6 227.89,-6 239.89,-18 227.89,-30"/>
<text text-anchor="middle" x="146.89" y="-14.3" font-family="Times,serif" font-size="14.00">L1_FlatField recipe 1..1</text>
</g>
<!-- l1_cal_ff_rec&#45;&gt;trans_cal_ff_l1_l2a -->
<g id="edge4" class="edge">
<title>l1_cal_ff_rec&#45;&gt;trans_cal_ff_l1_l2a</title>
<path fill="none" stroke="black" d="M240.24,-23.31C240.24,-23.31 362.26,-23.31 362.26,-23.31"/>
<polygon fill="black" stroke="black" points="362.26,-26.81 372.26,-23.31 362.26,-19.81 362.26,-26.81"/>
</g>
</g>
</svg>
