<?xml version="1.0" encoding="UTF-8" standalone="no"?>
<!DOCTYPE svg PUBLIC "-//W3C//DTD SVG 1.1//EN"
 "http://www.w3.org/Graphics/SVG/1.1/DTD/svg11.dtd">
<!-- Generated by graphviz version 2.43.0 (0)
 -->
<!-- Title: DarkPhotonCountCalibrations Pages: 1 -->
<svg width="1095pt" height="227pt"
 viewBox="0.00 0.00 1094.73 227.20" xmlns="http://www.w3.org/2000/svg" xmlns:xlink="http://www.w3.org/1999/xlink">
<g id="graph0" class="graph" transform="scale(1 1) rotate(0) translate(4 223.2)">
<title>DarkPhotonCountCalibrations</title>
<polygon fill="white" stroke="transparent" points="-4,4 -4,-223.2 1090.73,-223.2 1090.73,4 -4,4"/>
<!-- trans_cal_drkpc_l1_l2a -->
<g id="node1" class="node">
<title>trans_cal_drkpc_l1_l2a</title>
<ellipse fill="none" stroke="black" cx="534.27" cy="-109.6" rx="109.7" ry="109.7"/>
<text text-anchor="middle" x="534.27" y="-120.9" font-family="Times,serif" font-size="14.00">Dark(PhotonCount)</text>
<text text-anchor="middle" x="534.27" y="-105.9" font-family="Times,serif" font-size="14.00">Transmutation</text>
<text text-anchor="middle" x="534.27" y="-90.9" font-family="Times,serif" font-size="14.00">L1 to L2a basic</text>
</g>
<!-- cal_drkpc_prod -->
<g id="node6" class="node">
<title>cal_drkpc_prod</title>
<polygon fill="none" stroke="black" points="1010.3,-208.6 756.3,-208.6 756.3,-172.6 1010.3,-172.6 1010.3,-208.6"/>
<text text-anchor="middle" x="883.3" y="-186.9" font-family="Times,serif" font-size="14.00">Dark(PhotonCount) products 1..1</text>
</g>
<!-- trans_cal_drkpc_l1_l2a&#45;&gt;cal_drkpc_prod -->
<g id="edge5" class="edge">
<title>trans_cal_drkpc_l1_l2a&#45;&gt;cal_drkpc_prod</title>
<path fill="none" stroke="black" stroke-dasharray="5,2" d="M608.29,-190.6C608.29,-190.6 746.13,-190.6 746.13,-190.6"/>
<polygon fill="black" stroke="black" points="746.13,-194.1 756.13,-190.6 746.13,-187.1 746.13,-194.1"/>
</g>
<!-- cal_drkpc_log -->
<g id="node7" class="node">
<title>cal_drkpc_log</title>
<ellipse fill="none" stroke="black" cx="883.3" cy="-136.6" rx="137.58" ry="18"/>
<text text-anchor="middle" x="883.3" y="-132.9" font-family="Times,serif" font-size="14.00">Dark(PhotonCount) log 1..1</text>
</g>
<!-- trans_cal_drkpc_l1_l2a&#45;&gt;cal_drkpc_log -->
<g id="edge8" class="edge">
<title>trans_cal_drkpc_l1_l2a&#45;&gt;cal_drkpc_log</title>
<path fill="none" stroke="black" stroke-dasharray="5,2" d="M640.89,-136.6C640.89,-136.6 735.45,-136.6 735.45,-136.6"/>
<polygon fill="black" stroke="black" points="735.45,-140.1 745.45,-136.6 735.45,-133.1 735.45,-140.1"/>
</g>
<!-- cal_drkpc_man -->
<g id="node8" class="node">
<title>cal_drkpc_man</title>
<ellipse fill="none" stroke="black" cx="883.3" cy="-82.6" rx="203.36" ry="18"/>
<text text-anchor="middle" x="883.3" y="-78.9" font-family="Times,serif" font-size="14.00">Dark(PhotonCount) product manifest 1..1</text>
</g>
<!-- trans_cal_drkpc_l1_l2a&#45;&gt;cal_drkpc_man -->
<g id="edge6" class="edge">
<title>trans_cal_drkpc_l1_l2a&#45;&gt;cal_drkpc_man</title>
<path fill="none" stroke="black" d="M640.89,-82.6C640.89,-82.6 669.81,-82.6 669.81,-82.6"/>
<polygon fill="black" stroke="black" points="669.81,-86.1 679.81,-82.6 669.81,-79.1 669.81,-86.1"/>
</g>
<!-- cal_drkpc_src -->
<g id="node9" class="node">
<title>cal_drkpc_src</title>
<ellipse fill="none" stroke="black" cx="883.3" cy="-28.6" rx="198.47" ry="18"/>
<text text-anchor="middle" x="883.3" y="-24.9" font-family="Times,serif" font-size="14.00">Dark(PhotonCount) source manifest 1..1</text>
</g>
<!-- trans_cal_drkpc_l1_l2a&#45;&gt;cal_drkpc_src -->
<g id="edge7" class="edge">
<title>trans_cal_drkpc_l1_l2a&#45;&gt;cal_drkpc_src</title>
<path fill="none" stroke="black" d="M608.29,-28.6C608.29,-28.6 674.83,-28.6 674.83,-28.6"/>
<polygon fill="black" stroke="black" points="674.83,-32.1 684.83,-28.6 674.83,-25.1 674.83,-32.1"/>
</g>
<!-- l1_cal_drkpc_prod -->
<g id="node2" class="node">
<title>l1_cal_drkpc_prod</title>
<polygon fill="none" stroke="black" points="333.33,-208.6 55.33,-208.6 55.33,-172.6 333.33,-172.6 333.33,-208.6"/>
<text text-anchor="middle" x="194.33" y="-186.9" font-family="Times,serif" font-size="14.00">L1_Dark(PhotonCount) products 1..b</text>
</g>
<!-- l1_cal_drkpc_prod&#45;&gt;trans_cal_drkpc_l1_l2a -->
<g id="edge1" class="edge">
<title>l1_cal_drkpc_prod&#45;&gt;trans_cal_drkpc_l1_l2a</title>
<path fill="none" stroke="black" stroke-dasharray="5,2" d="M333.58,-190.6C333.58,-190.6 450.38,-190.6 450.38,-190.6"/>
<polygon fill="black" stroke="black" points="450.38,-194.1 460.38,-190.6 450.38,-187.1 450.38,-194.1"/>
</g>
<!-- l1_cal_drkpc_man -->
<g id="node3" class="node">
<title>l1_cal_drkpc_man</title>
<ellipse fill="none" stroke="black" cx="194.33" cy="-136.6" rx="180.87" ry="18"/>
<text text-anchor="middle" x="194.33" y="-132.9" font-family="Times,serif" font-size="14.00">L1_Dark(PhotonCount) manifest 1..1</text>
</g>
<!-- l1_cal_drkpc_man&#45;&gt;trans_cal_drkpc_l1_l2a -->
<g id="edge2" class="edge">
<title>l1_cal_drkpc_man&#45;&gt;trans_cal_drkpc_l1_l2a</title>
<path fill="none" stroke="black" d="M375.25,-136.6C375.25,-136.6 417.71,-136.6 417.71,-136.6"/>
<polygon fill="black" stroke="black" points="417.71,-140.1 427.71,-136.6 417.71,-133.1 417.71,-140.1"/>
</g>
<!-- l1_cal_drkpc_odir -->
<g id="node4" class="node">
<title>l1_cal_drkpc_odir</title>
<ellipse fill="none" stroke="black" cx="194.33" cy="-82.6" rx="194.17" ry="18"/>
<text text-anchor="middle" x="194.33" y="-78.9" font-family="Times,serif" font-size="14.00">L1_Dark(PhotonCount) output path 1..1</text>
</g>
<!-- l1_cal_drkpc_odir&#45;&gt;trans_cal_drkpc_l1_l2a -->
<g id="edge3" class="edge">
<title>l1_cal_drkpc_odir&#45;&gt;trans_cal_drkpc_l1_l2a</title>
<path fill="none" stroke="black" d="M389.12,-82.6C389.12,-82.6 417.79,-82.6 417.79,-82.6"/>
<polygon fill="black" stroke="black" points="417.79,-86.1 427.79,-82.6 417.79,-79.1 417.79,-86.1"/>
</g>
<!-- l1_cal_drkpc_rec -->
<g id="node5" class="node">
<title>l1_cal_drkpc_rec</title>
<polygon fill="none" stroke="black" points="312.33,-40.6 64.33,-40.6 64.33,-16.6 312.33,-16.6 324.33,-28.6 312.33,-40.6"/>
<text text-anchor="middle" x="194.33" y="-24.9" font-family="Times,serif" font-size="14.00">L1_Dark(PhotonCount) recipe 1..1</text>
</g>
<!-- l1_cal_drkpc_rec&#45;&gt;trans_cal_drkpc_l1_l2a -->
<g id="edge4" class="edge">
<title>l1_cal_drkpc_rec&#45;&gt;trans_cal_drkpc_l1_l2a</title>
<path fill="none" stroke="black" d="M324.79,-28.6C324.79,-28.6 450.21,-28.6 450.21,-28.6"/>
<polygon fill="black" stroke="black" points="450.21,-32.1 460.21,-28.6 450.21,-25.1 450.21,-32.1"/>
</g>
</g>
</svg>
