<?xml version="1.0" encoding="UTF-8" standalone="no"?>
<!DOCTYPE svg PUBLIC "-//W3C//DTD SVG 1.1//EN"
 "http://www.w3.org/Graphics/SVG/1.1/DTD/svg11.dtd">
<!-- Generated by graphviz version 2.43.0 (0)
 -->
<!-- Title: PupilCalibrations Pages: 1 -->
<svg width="712pt" height="260pt"
 viewBox="0.00 0.00 711.74 260.00" xmlns="http://www.w3.org/2000/svg" xmlns:xlink="http://www.w3.org/1999/xlink">
<g id="graph0" class="graph" transform="scale(1 1) rotate(0) translate(4 256)">
<title>PupilCalibrations</title>
<polygon fill="white" stroke="transparent" points="-4,4 -4,-256 707.74,-256 707.74,4 -4,4"/>
<!-- trans_pupil_l1_l2a -->
<g id="node1" class="node">
<title>trans_pupil_l1_l2a</title>
<ellipse fill="none" stroke="black" cx="381.77" cy="-126" rx="88.28" ry="88.28"/>
<text text-anchor="middle" x="381.77" y="-137.3" font-family="Times,serif" font-size="14.00">Pupil</text>
<text text-anchor="middle" x="381.77" y="-122.3" font-family="Times,serif" font-size="14.00">Transmutation</text>
<text text-anchor="middle" x="381.77" y="-107.3" font-family="Times,serif" font-size="14.00">L1 to L2a basic</text>
</g>
<!-- pupil_prod -->
<g id="node7" class="node">
<title>pupil_prod</title>
<polygon fill="none" stroke="black" points="680.95,-198 528.95,-198 528.95,-162 680.95,-162 680.95,-198"/>
<text text-anchor="middle" x="604.95" y="-176.3" font-family="Times,serif" font-size="14.00">Pupil products 1..1</text>
</g>
<!-- trans_pupil_l1_l2a&#45;&gt;pupil_prod -->
<g id="edge6" class="edge">
<title>trans_pupil_l1_l2a&#45;&gt;pupil_prod</title>
<path fill="none" stroke="black" stroke-dasharray="5,2" d="M451.77,-180C451.77,-180 518.61,-180 518.61,-180"/>
<polygon fill="black" stroke="black" points="518.61,-183.5 528.61,-180 518.61,-176.5 518.61,-183.5"/>
</g>
<!-- pupil_log -->
<g id="node8" class="node">
<title>pupil_log</title>
<ellipse fill="none" stroke="black" cx="604.95" cy="-126" rx="72.29" ry="18"/>
<text text-anchor="middle" x="604.95" y="-122.3" font-family="Times,serif" font-size="14.00">Pupil log 1..1</text>
</g>
<!-- trans_pupil_l1_l2a&#45;&gt;pupil_log -->
<g id="edge8" class="edge">
<title>trans_pupil_l1_l2a&#45;&gt;pupil_log</title>
<path fill="none" stroke="black" stroke-dasharray="5,2" d="M470.29,-126C470.29,-126 522.66,-126 522.66,-126"/>
<polygon fill="black" stroke="black" points="522.66,-129.5 532.66,-126 522.66,-122.5 522.66,-129.5"/>
</g>
<!-- pupil_man -->
<g id="node9" class="node">
<title>pupil_man</title>
<ellipse fill="none" stroke="black" cx="604.95" cy="-72" rx="98.58" ry="18"/>
<text text-anchor="middle" x="604.95" y="-68.3" font-family="Times,serif" font-size="14.00">Pupil manifest 1..1</text>
</g>
<!-- trans_pupil_l1_l2a&#45;&gt;pupil_man -->
<g id="edge7" class="edge">
<title>trans_pupil_l1_l2a&#45;&gt;pupil_man</title>
<path fill="none" stroke="black" d="M451.77,-72C451.77,-72 495.76,-72 495.76,-72"/>
<polygon fill="black" stroke="black" points="495.76,-75.5 505.76,-72 495.76,-68.5 495.76,-75.5"/>
</g>
<!-- l1_pupil_prod -->
<g id="node2" class="node">
<title>l1_pupil_prod</title>
<polygon fill="none" stroke="black" points="217.19,-252 40.19,-252 40.19,-216 217.19,-216 217.19,-252"/>
<text text-anchor="middle" x="128.69" y="-230.3" font-family="Times,serif" font-size="14.00">L1_Pupil products 1..b</text>
</g>
<!-- l1_pupil_prod&#45;&gt;trans_pupil_l1_l2a -->
<g id="edge1" class="edge">
<title>l1_pupil_prod&#45;&gt;trans_pupil_l1_l2a</title>
<path fill="none" stroke="black" stroke-dasharray="5,2" d="M128.74,-215.92C128.74,-210.61 128.74,-206.19 128.74,-206.19 128.74,-206.19 334.43,-206.19 334.43,-206.19"/>
<polygon fill="black" stroke="black" points="334.43,-209.69 344.43,-206.19 334.43,-202.69 334.43,-209.69"/>
</g>
<!-- l1_pupil_man -->
<g id="node3" class="node">
<title>l1_pupil_man</title>
<ellipse fill="none" stroke="black" cx="128.69" cy="-180" rx="114.28" ry="18"/>
<text text-anchor="middle" x="128.69" y="-176.3" font-family="Times,serif" font-size="14.00">L1_Pupil manifest 1..1</text>
</g>
<!-- l1_pupil_man&#45;&gt;trans_pupil_l1_l2a -->
<g id="edge2" class="edge">
<title>l1_pupil_man&#45;&gt;trans_pupil_l1_l2a</title>
<path fill="none" stroke="black" d="M243.38,-180C243.38,-180 301.65,-180 301.65,-180"/>
<polygon fill="black" stroke="black" points="301.65,-183.5 311.65,-180 301.65,-176.5 301.65,-183.5"/>
</g>
<!-- l1_pupil_odir -->
<g id="node4" class="node">
<title>l1_pupil_odir</title>
<ellipse fill="none" stroke="black" cx="128.69" cy="-126" rx="128.88" ry="18"/>
<text text-anchor="middle" x="128.69" y="-122.3" font-family="Times,serif" font-size="14.00">L1_Pupil output path 1..1</text>
</g>
<!-- l1_pupil_odir&#45;&gt;trans_pupil_l1_l2a -->
<g id="edge3" class="edge">
<title>l1_pupil_odir&#45;&gt;trans_pupil_l1_l2a</title>
<path fill="none" stroke="black" d="M257.45,-126C257.45,-126 283.19,-126 283.19,-126"/>
<polygon fill="black" stroke="black" points="283.19,-129.5 293.19,-126 283.19,-122.5 283.19,-129.5"/>
</g>
<!-- l1_pupil_rec -->
<g id="node5" class="node">
<title>l1_pupil_rec</title>
<polygon fill="none" stroke="black" points="195.69,-84 49.69,-84 49.69,-60 195.69,-60 207.69,-72 195.69,-84"/>
<text text-anchor="middle" x="128.69" y="-68.3" font-family="Times,serif" font-size="14.00">L1_Pupil recipe 1..1</text>
</g>
<!-- l1_pupil_rec&#45;&gt;trans_pupil_l1_l2a -->
<g id="edge4" class="edge">
<title>l1_pupil_rec&#45;&gt;trans_pupil_l1_l2a</title>
<path fill="none" stroke="black" d="M207.72,-72C207.72,-72 301.47,-72 301.47,-72"/>
<polygon fill="black" stroke="black" points="301.47,-75.5 311.47,-72 301.47,-68.5 301.47,-75.5"/>
</g>
<!-- l1_pupil_nllut -->
<g id="node6" class="node">
<title>l1_pupil_nllut</title>
<polygon fill="none" stroke="black" points="226.69,-30 18.69,-30 18.69,-6 226.69,-6 238.69,-18 226.69,-30"/>
<text text-anchor="middle" x="128.69" y="-14.3" font-family="Times,serif" font-size="14.00">L1_Pupil non&#45;linear LUT 1..1</text>
</g>
<!-- l1_pupil_nllut&#45;&gt;trans_pupil_l1_l2a -->
<g id="edge5" class="edge">
<title>l1_pupil_nllut&#45;&gt;trans_pupil_l1_l2a</title>
<path fill="none" stroke="black" d="M223.74,-36.08C223.74,-41.39 223.74,-45.81 223.74,-45.81 223.74,-45.81 334.31,-45.81 334.31,-45.81"/>
<polygon fill="black" stroke="black" points="334.31,-49.31 344.31,-45.81 334.31,-42.31 334.31,-49.31"/>
</g>
</g>
</svg>
