<?xml version="1.0" encoding="UTF-8" standalone="no"?>
<!DOCTYPE svg PUBLIC "-//W3C//DTD SVG 1.1//EN"
 "http://www.w3.org/Graphics/SVG/1.1/DTD/svg11.dtd">
<!-- Generated by graphviz version 2.43.0 (0)
 -->
<!-- Title: AbsoluteFluxCalibration Pages: 1 -->
<svg width="866pt" height="640pt"
 viewBox="0.00 0.00 866.41 640.00" xmlns="http://www.w3.org/2000/svg" xmlns:xlink="http://www.w3.org/1999/xlink">
<g id="graph0" class="graph" transform="scale(1 1) rotate(0) translate(4 636)">
<title>AbsoluteFluxCalibration</title>
<polygon fill="white" stroke="transparent" points="-4,4 -4,-636 862.41,-636 862.41,4 -4,4"/>
<!-- trans_cal_absflux -->
<g id="node1" class="node">
<title>trans_cal_absflux</title>
<ellipse fill="none" stroke="black" cx="433.27" cy="-290" rx="86.03" ry="86.03"/>
<text text-anchor="middle" x="433.27" y="-301.3" font-family="Times,serif" font-size="14.00">L1</text>
<text text-anchor="middle" x="433.27" y="-286.3" font-family="Times,serif" font-size="14.00">Transmutation</text>
<text text-anchor="middle" x="433.27" y="-271.3" font-family="Times,serif" font-size="14.00">AbsFlux</text>
</g>
<!-- cal_absflux_prod -->
<g id="node14" class="node">
<title>cal_absflux_prod</title>
<polygon fill="none" stroke="black" points="793.47,-389 620.47,-389 620.47,-353 793.47,-353 793.47,-389"/>
<text text-anchor="middle" x="706.97" y="-367.3" font-family="Times,serif" font-size="14.00">AbsFlux products 1..1</text>
</g>
<!-- trans_cal_absflux&#45;&gt;cal_absflux_prod -->
<g id="edge12" class="edge">
<title>trans_cal_absflux&#45;&gt;cal_absflux_prod</title>
<path fill="none" stroke="black" stroke-dasharray="5,2" d="M476.64,-364.63C476.64,-364.63 610.46,-364.63 610.46,-364.63"/>
<polygon fill="black" stroke="black" points="610.46,-368.13 620.46,-364.63 610.46,-361.13 610.46,-368.13"/>
</g>
<!-- cal_absflux_log -->
<g id="node15" class="node">
<title>cal_absflux_log</title>
<ellipse fill="none" stroke="black" cx="706.97" cy="-317" rx="85.59" ry="18"/>
<text text-anchor="middle" x="706.97" y="-313.3" font-family="Times,serif" font-size="14.00">AbsFlux log 1..1</text>
</g>
<!-- trans_cal_absflux&#45;&gt;cal_absflux_log -->
<g id="edge13" class="edge">
<title>trans_cal_absflux&#45;&gt;cal_absflux_log</title>
<path fill="none" stroke="black" stroke-dasharray="5,2" d="M515.39,-317C515.39,-317 611.11,-317 611.11,-317"/>
<polygon fill="black" stroke="black" points="611.11,-320.5 621.11,-317 611.11,-313.5 611.11,-320.5"/>
</g>
<!-- cal_absflux_man -->
<g id="node16" class="node">
<title>cal_absflux_man</title>
<ellipse fill="none" stroke="black" cx="706.97" cy="-263" rx="151.37" ry="18"/>
<text text-anchor="middle" x="706.97" y="-259.3" font-family="Times,serif" font-size="14.00">AbsFlux product manifest 1..1</text>
</g>
<!-- trans_cal_absflux&#45;&gt;cal_absflux_man -->
<g id="edge14" class="edge">
<title>trans_cal_absflux&#45;&gt;cal_absflux_man</title>
<path fill="none" stroke="black" d="M515.39,-263C515.39,-263 545.37,-263 545.37,-263"/>
<polygon fill="black" stroke="black" points="545.37,-266.5 555.37,-263 545.37,-259.5 545.37,-266.5"/>
</g>
<!-- cal_absflux_src -->
<g id="node17" class="node">
<title>cal_absflux_src</title>
<ellipse fill="none" stroke="black" cx="706.97" cy="-209" rx="145.67" ry="18"/>
<text text-anchor="middle" x="706.97" y="-205.3" font-family="Times,serif" font-size="14.00">AbsFlux source manifest 1..1</text>
</g>
<!-- trans_cal_absflux&#45;&gt;cal_absflux_src -->
<g id="edge15" class="edge">
<title>trans_cal_absflux&#45;&gt;cal_absflux_src</title>
<path fill="none" stroke="black" d="M476.64,-215.37C476.64,-215.37 560.55,-215.37 560.55,-215.37"/>
<polygon fill="black" stroke="black" points="560.55,-218.87 570.55,-215.37 560.55,-211.87 560.55,-218.87"/>
</g>
<!-- l1_cal_absflux_prod -->
<g id="node2" class="node">
<title>l1_cal_absflux_prod</title>
<polygon fill="none" stroke="black" points="254.5,-578 56.5,-578 56.5,-542 254.5,-542 254.5,-578"/>
<text text-anchor="middle" x="155.5" y="-556.3" font-family="Times,serif" font-size="14.00">L1_AbsFlux products 1..b</text>
</g>
<!-- l1_cal_absflux_prod&#45;&gt;trans_cal_absflux -->
<g id="edge1" class="edge">
<title>l1_cal_absflux_prod&#45;&gt;trans_cal_absflux</title>
<path fill="none" stroke="black" stroke-dasharray="5,2" d="M254.84,-560C349.09,-560 476.41,-560 476.41,-560 476.41,-560 476.41,-374.85 476.41,-374.85"/>
<polygon fill="black" stroke="black" points="479.91,-374.85 476.41,-364.85 472.91,-374.85 479.91,-374.85"/>
</g>
<!-- l1_cal_absflux_man -->
<g id="node3" class="node">
<title>l1_cal_absflux_man</title>
<ellipse fill="none" stroke="black" cx="155.5" cy="-506" rx="128.08" ry="18"/>
<text text-anchor="middle" x="155.5" y="-502.3" font-family="Times,serif" font-size="14.00">L1_AbsFlux manifest 1..1</text>
</g>
<!-- l1_cal_absflux_man&#45;&gt;trans_cal_absflux -->
<g id="edge2" class="edge">
<title>l1_cal_absflux_man&#45;&gt;trans_cal_absflux</title>
<path fill="none" stroke="black" d="M283.88,-506C356.69,-506 433.41,-506 433.41,-506 433.41,-506 433.41,-386.3 433.41,-386.3"/>
<polygon fill="black" stroke="black" points="436.91,-386.3 433.41,-376.3 429.91,-386.3 436.91,-386.3"/>
</g>
<!-- l1_cal_absflux_odir -->
<g id="node4" class="node">
<title>l1_cal_absflux_odir</title>
<ellipse fill="none" stroke="black" cx="155.5" cy="-452" rx="142.17" ry="18"/>
<text text-anchor="middle" x="155.5" y="-448.3" font-family="Times,serif" font-size="14.00">L1_AbsFlux output path 1..1</text>
</g>
<!-- l1_cal_absflux_odir&#45;&gt;trans_cal_absflux -->
<g id="edge3" class="edge">
<title>l1_cal_absflux_odir&#45;&gt;trans_cal_absflux</title>
<path fill="none" stroke="black" d="M287.41,-445.22C287.41,-425.43 287.41,-369.13 287.41,-369.13 287.41,-369.13 388.7,-369.13 388.7,-369.13"/>
<polygon fill="black" stroke="black" points="388.7,-372.63 398.7,-369.13 388.7,-365.63 388.7,-372.63"/>
</g>
<!-- l1_cal_absflux_rec -->
<g id="node5" class="node">
<title>l1_cal_absflux_rec</title>
<polygon fill="none" stroke="black" points="233,-410 66,-410 66,-386 233,-386 245,-398 233,-410"/>
<text text-anchor="middle" x="155.5" y="-394.3" font-family="Times,serif" font-size="14.00">L1_AbsFlux recipe 1..1</text>
</g>
<!-- l1_cal_absflux_rec&#45;&gt;trans_cal_absflux -->
<g id="edge4" class="edge">
<title>l1_cal_absflux_rec&#45;&gt;trans_cal_absflux</title>
<path fill="none" stroke="black" d="M245.31,-384.5C311.63,-384.5 390.41,-384.5 390.41,-384.5 390.41,-384.5 390.41,-374.92 390.41,-374.92"/>
<polygon fill="black" stroke="black" points="393.91,-374.92 390.41,-364.92 386.91,-374.92 393.91,-374.92"/>
</g>
<!-- l1_cal_absflux_nllut -->
<g id="node6" class="node">
<title>l1_cal_absflux_nllut</title>
<polygon fill="none" stroke="black" points="264,-356 35,-356 35,-332 264,-332 276,-344 264,-356"/>
<text text-anchor="middle" x="155.5" y="-340.3" font-family="Times,serif" font-size="14.00">L1_AbsFlux non&#45;linear LUT 1..1</text>
</g>
<!-- l1_cal_absflux_nllut&#45;&gt;trans_cal_absflux -->
<g id="edge5" class="edge">
<title>l1_cal_absflux_nllut&#45;&gt;trans_cal_absflux</title>
<path fill="none" stroke="black" d="M276.12,-344C276.12,-344 355.83,-344 355.83,-344"/>
<polygon fill="black" stroke="black" points="355.83,-347.5 365.83,-344 355.83,-340.5 355.83,-347.5"/>
</g>
<!-- l2a_cal_absflux_cti -->
<g id="node7" class="node">
<title>l2a_cal_absflux_cti</title>
<polygon fill="none" stroke="black" points="299,-302 0,-302 0,-278 299,-278 311,-290 299,-302"/>
<text text-anchor="middle" x="155.5" y="-286.3" font-family="Times,serif" font-size="14.00">L2a_AbsFlux charge xfer inefficiency 1..1</text>
</g>
<!-- l2a_cal_absflux_cti&#45;&gt;trans_cal_absflux -->
<g id="edge7" class="edge">
<title>l2a_cal_absflux_cti&#45;&gt;trans_cal_absflux</title>
<path fill="none" stroke="black" d="M311.03,-290C311.03,-290 336.93,-290 336.93,-290"/>
<polygon fill="black" stroke="black" points="336.93,-293.5 346.93,-290 336.93,-286.5 336.93,-293.5"/>
</g>
<!-- l2a_cal_absflux_dnb -->
<g id="node8" class="node">
<title>l2a_cal_absflux_dnb</title>
<polygon fill="none" stroke="black" points="280.5,-248 18.5,-248 18.5,-222 280.5,-222 292.5,-235 280.5,-248"/>
<text text-anchor="middle" x="155.5" y="-238.8" font-family="Times,serif" font-size="14.00">L2a_AbsFlux CIC/Dark Current/FPN</text>
<text text-anchor="middle" x="155.5" y="-223.8" font-family="Times,serif" font-size="14.00"> or master dark 1..1</text>
</g>
<!-- l2a_cal_absflux_dnb&#45;&gt;trans_cal_absflux -->
<g id="edge8" class="edge">
<title>l2a_cal_absflux_dnb&#45;&gt;trans_cal_absflux</title>
<path fill="none" stroke="black" d="M292.76,-235C292.76,-235 356.55,-235 356.55,-235"/>
<polygon fill="black" stroke="black" points="356.55,-238.5 366.55,-235 356.55,-231.5 356.55,-238.5"/>
</g>
<!-- l2a_cal_absflux_mbpm -->
<g id="node9" class="node">
<title>l2a_cal_absflux_mbpm</title>
<polygon fill="none" stroke="black" points="293,-192 6,-192 6,-168 293,-168 305,-180 293,-192"/>
<text text-anchor="middle" x="155.5" y="-176.3" font-family="Times,serif" font-size="14.00">L2a_AbsFlux master bad pixel map 1..1</text>
</g>
<!-- l2a_cal_absflux_mbpm&#45;&gt;trans_cal_absflux -->
<g id="edge9" class="edge">
<title>l2a_cal_absflux_mbpm&#45;&gt;trans_cal_absflux</title>
<path fill="none" stroke="black" d="M299.41,-198.06C299.41,-204.35 299.41,-209.87 299.41,-209.87 299.41,-209.87 391.2,-209.87 391.2,-209.87"/>
<polygon fill="black" stroke="black" points="391.2,-213.37 401.2,-209.87 391.2,-206.37 391.2,-213.37"/>
</g>
<!-- l2a_cal_absflux_ff -->
<g id="node10" class="node">
<title>l2a_cal_absflux_ff</title>
<polygon fill="none" stroke="black" points="248,-138 51,-138 51,-114 248,-114 260,-126 248,-138"/>
<text text-anchor="middle" x="155.5" y="-122.3" font-family="Times,serif" font-size="14.00">L2a_AbsFlux flat fields 1..1</text>
</g>
<!-- l2a_cal_absflux_ff&#45;&gt;trans_cal_absflux -->
<g id="edge10" class="edge">
<title>l2a_cal_absflux_ff&#45;&gt;trans_cal_absflux</title>
<path fill="none" stroke="black" d="M260.24,-126C322.89,-126 390.41,-126 390.41,-126 390.41,-126 390.41,-204.72 390.41,-204.72"/>
<polygon fill="black" stroke="black" points="386.91,-204.72 390.41,-214.72 393.91,-204.72 386.91,-204.72"/>
</g>
<!-- l2a_cal_absflux_emg -->
<g id="node11" class="node">
<title>l2a_cal_absflux_emg</title>
<polygon fill="none" stroke="black" points="245,-84 54,-84 54,-60 245,-60 257,-72 245,-84"/>
<text text-anchor="middle" x="155.5" y="-68.3" font-family="Times,serif" font-size="14.00">L2a_AbsFlux EM gain 1..1</text>
</g>
<!-- l2a_cal_absflux_emg&#45;&gt;trans_cal_absflux -->
<g id="edge11" class="edge">
<title>l2a_cal_absflux_emg&#45;&gt;trans_cal_absflux</title>
<path fill="none" stroke="black" d="M257.01,-72C336.4,-72 433.41,-72 433.41,-72 433.41,-72 433.41,-193.53 433.41,-193.53"/>
<polygon fill="black" stroke="black" points="429.91,-193.53 433.41,-203.53 436.91,-193.53 429.91,-193.53"/>
</g>
<!-- l2a_cal_absflux_kgain -->
<g id="node12" class="node">
<title>l2a_cal_absflux_kgain</title>
<polygon fill="none" stroke="black" points="231.5,-30 67.5,-30 67.5,-6 231.5,-6 243.5,-18 231.5,-30"/>
<text text-anchor="middle" x="155.5" y="-14.3" font-family="Times,serif" font-size="14.00">L2_AbsFlux Kgain 1..1</text>
</g>
<!-- l2a_cal_absflux_kgain&#45;&gt;trans_cal_absflux -->
<g id="edge6" class="edge">
<title>l2a_cal_absflux_kgain&#45;&gt;trans_cal_absflux</title>
<path fill="none" stroke="black" d="M243.61,-18C338.62,-18 476.41,-18 476.41,-18 476.41,-18 476.41,-204.95 476.41,-204.95"/>
<polygon fill="black" stroke="black" points="472.91,-204.95 476.41,-214.95 479.91,-204.95 472.91,-204.95"/>
</g>
<!-- l2a_cal_absflux_log -->
<g id="node13" class="node">
<title>l2a_cal_absflux_log</title>
<ellipse fill="none" stroke="black" cx="155.5" cy="-614" rx="107.48" ry="18"/>
<text text-anchor="middle" x="155.5" y="-610.3" font-family="Times,serif" font-size="14.00">L2a_AbsFlux log 1..1</text>
</g>
</g>
</svg>
