<?xml version="1.0" encoding="UTF-8" standalone="no"?>
<!DOCTYPE svg PUBLIC "-//W3C//DTD SVG 1.1//EN"
 "http://www.w3.org/Graphics/SVG/1.1/DTD/svg11.dtd">
<!-- Generated by graphviz version 2.43.0 (0)
 -->
<!-- Title: Astrometric Pages: 1 -->
<svg width="1827pt" height="773pt"
 viewBox="0.00 0.00 1827.32 773.00" xmlns="http://www.w3.org/2000/svg" xmlns:xlink="http://www.w3.org/1999/xlink">
<g id="graph0" class="graph" transform="scale(1 1) rotate(0) translate(4 769)">
<title>Astrometric</title>
<polygon fill="white" stroke="transparent" points="-4,4 -4,-769 1823.32,-769 1823.32,4 -4,4"/>
<!-- trans_cal_boresight_l1_l2a -->
<g id="node1" class="node">
<title>trans_cal_boresight_l1_l2a</title>
<ellipse fill="none" stroke="black" cx="360.3" cy="-126" rx="72.25" ry="72.25"/>
<text text-anchor="middle" x="360.3" y="-137.3" font-family="Times,serif" font-size="14.00">Astrometric</text>
<text text-anchor="middle" x="360.3" y="-122.3" font-family="Times,serif" font-size="14.00">Transmutation</text>
<text text-anchor="middle" x="360.3" y="-107.3" font-family="Times,serif" font-size="14.00">L1 to L2a basic</text>
</g>
<!-- l2a_cal_boresight_prod -->
<g id="node9" class="node">
<title>l2a_cal_boresight_prod</title>
<polygon fill="none" stroke="black" points="710.41,-225 525.41,-225 525.41,-189 710.41,-189 710.41,-225"/>
<text text-anchor="middle" x="617.91" y="-203.3" font-family="Times,serif" font-size="14.00">L2a_Astrometric products 1..b</text>
</g>
<!-- trans_cal_boresight_l1_l2a&#45;&gt;l2a_cal_boresight_prod -->
<g id="edge6" class="edge">
<title>trans_cal_boresight_l1_l2a&#45;&gt;l2a_cal_boresight_prod</title>
<path fill="none" stroke="black" stroke-dasharray="5,2" d="M385.95,-193.56C385.95,-193.56 515.19,-193.56 515.19,-193.56"/>
<polygon fill="black" stroke="black" points="515.19,-197.06 525.19,-193.56 515.19,-190.06 515.19,-197.06"/>
</g>
<!-- l2a_cal_boresight_man -->
<g id="node10" class="node">
<title>l2a_cal_boresight_man</title>
<ellipse fill="none" stroke="black" cx="617.91" cy="-153" rx="149.47" ry="18"/>
<text text-anchor="middle" x="617.91" y="-149.3" font-family="Times,serif" font-size="14.00">L2a_Astrometric product manifest 1..1</text>
</g>
<!-- trans_cal_boresight_l1_l2a&#45;&gt;l2a_cal_boresight_man -->
<g id="edge7" class="edge">
<title>trans_cal_boresight_l1_l2a&#45;&gt;l2a_cal_boresight_man</title>
<path fill="none" stroke="black" d="M427.31,-153C427.31,-153 458.27,-153 458.27,-153"/>
<polygon fill="black" stroke="black" points="458.27,-156.5 468.27,-153 458.27,-149.5 458.27,-156.5"/>
</g>
<!-- l2a_cal_boresight_src -->
<g id="node11" class="node">
<title>l2a_cal_boresight_src</title>
<ellipse fill="none" stroke="black" cx="617.91" cy="-99" rx="128.08" ry="18"/>
<text text-anchor="middle" x="617.91" y="-95.3" font-family="Times,serif" font-size="14.00">Astrometric source manifest 1..1</text>
</g>
<!-- trans_cal_boresight_l1_l2a&#45;&gt;l2a_cal_boresight_src -->
<g id="edge8" class="edge">
<title>trans_cal_boresight_l1_l2a&#45;&gt;l2a_cal_boresight_src</title>
<path fill="none" stroke="black" d="M427.31,-99C427.31,-99 479.8,-99 479.8,-99"/>
<polygon fill="black" stroke="black" points="479.8,-102.5 489.8,-99 479.8,-95.5 479.8,-102.5"/>
</g>
<!-- l2a_cal_boresight_log -->
<g id="node20" class="node">
<title>l2a_cal_boresight_log</title>
<ellipse fill="none" stroke="black" cx="617.91" cy="-45" rx="100.98" ry="18"/>
<text text-anchor="middle" x="617.91" y="-41.3" font-family="Times,serif" font-size="14.00">L2a_Astrometric log 1..1</text>
</g>
<!-- trans_cal_boresight_l1_l2a&#45;&gt;l2a_cal_boresight_log -->
<g id="edge9" class="edge">
<title>trans_cal_boresight_l1_l2a&#45;&gt;l2a_cal_boresight_log</title>
<path fill="none" stroke="black" stroke-dasharray="5,2" d="M385.95,-58.44C385.95,-58.44 540.63,-58.44 540.63,-58.44"/>
<polygon fill="black" stroke="black" points="540.63,-61.94 550.63,-58.44 540.63,-54.94 540.63,-61.94"/>
</g>
<!-- trans_cal_boresight_l2a_l2b -->
<g id="node2" class="node">
<title>trans_cal_boresight_l2a_l2b</title>
<ellipse fill="none" stroke="black" cx="871.28" cy="-396" rx="67.76" ry="67.76"/>
<text text-anchor="middle" x="871.28" y="-407.3" font-family="Times,serif" font-size="14.00">Astrometric</text>
<text text-anchor="middle" x="871.28" y="-392.3" font-family="Times,serif" font-size="14.00">Transmutation</text>
<text text-anchor="middle" x="871.28" y="-377.3" font-family="Times,serif" font-size="14.00">L2a to L2b</text>
</g>
<!-- l2b_cal_boresight_prod -->
<g id="node21" class="node">
<title>l2b_cal_boresight_prod</title>
<polygon fill="none" stroke="black" points="1217.15,-495 1032.15,-495 1032.15,-459 1217.15,-459 1217.15,-495"/>
<text text-anchor="middle" x="1124.65" y="-473.3" font-family="Times,serif" font-size="14.00">L2b_Astrometric products 1..1</text>
</g>
<!-- trans_cal_boresight_l2a_l2b&#45;&gt;l2b_cal_boresight_prod -->
<g id="edge20" class="edge">
<title>trans_cal_boresight_l2a_l2b&#45;&gt;l2b_cal_boresight_prod</title>
<path fill="none" stroke="black" stroke-dasharray="5,2" d="M912.32,-450.11C912.32,-468.56 912.32,-484.63 912.32,-484.63 912.32,-484.63 1022.14,-484.63 1022.14,-484.63"/>
<polygon fill="black" stroke="black" points="1022.14,-488.13 1032.14,-484.63 1022.14,-481.13 1022.14,-488.13"/>
</g>
<!-- l2b_cal_boresight_man -->
<g id="node22" class="node">
<title>l2b_cal_boresight_man</title>
<ellipse fill="none" stroke="black" cx="1124.65" cy="-423" rx="149.47" ry="18"/>
<text text-anchor="middle" x="1124.65" y="-419.3" font-family="Times,serif" font-size="14.00">L2a_Astrometric product manifest 1..1</text>
</g>
<!-- trans_cal_boresight_l2a_l2b&#45;&gt;l2b_cal_boresight_man -->
<g id="edge22" class="edge">
<title>trans_cal_boresight_l2a_l2b&#45;&gt;l2b_cal_boresight_man</title>
<path fill="none" stroke="black" d="M933.59,-423C933.59,-423 965.11,-423 965.11,-423"/>
<polygon fill="black" stroke="black" points="965.11,-426.5 975.11,-423 965.11,-419.5 965.11,-426.5"/>
</g>
<!-- l2b_cal_boresight_src -->
<g id="node23" class="node">
<title>l2b_cal_boresight_src</title>
<ellipse fill="none" stroke="black" cx="1124.65" cy="-369" rx="128.08" ry="18"/>
<text text-anchor="middle" x="1124.65" y="-365.3" font-family="Times,serif" font-size="14.00">Astrometric source manifest 1..1</text>
</g>
<!-- trans_cal_boresight_l2a_l2b&#45;&gt;l2b_cal_boresight_src -->
<g id="edge23" class="edge">
<title>trans_cal_boresight_l2a_l2b&#45;&gt;l2b_cal_boresight_src</title>
<path fill="none" stroke="black" d="M933.59,-369C933.59,-369 986.6,-369 986.6,-369"/>
<polygon fill="black" stroke="black" points="986.6,-372.5 996.6,-369 986.6,-365.5 986.6,-372.5"/>
</g>
<!-- l2b_cal_boresight_log -->
<g id="node29" class="node">
<title>l2b_cal_boresight_log</title>
<ellipse fill="none" stroke="black" cx="1124.65" cy="-315" rx="101.28" ry="18"/>
<text text-anchor="middle" x="1124.65" y="-311.3" font-family="Times,serif" font-size="14.00">L2b_Astrometric log 1..1</text>
</g>
<!-- trans_cal_boresight_l2a_l2b&#45;&gt;l2b_cal_boresight_log -->
<g id="edge21" class="edge">
<title>trans_cal_boresight_l2a_l2b&#45;&gt;l2b_cal_boresight_log</title>
<path fill="none" stroke="black" stroke-dasharray="5,2" d="M912.32,-341.65C912.32,-328.3 912.32,-317.75 912.32,-317.75 912.32,-317.75 1014.39,-317.75 1014.39,-317.75"/>
<polygon fill="black" stroke="black" points="1014.39,-321.25 1024.39,-317.75 1014.39,-314.25 1014.39,-321.25"/>
</g>
<!-- trans_cal_boresight_l2b_aboresight -->
<g id="node3" class="node">
<title>trans_cal_boresight_l2b_aboresight</title>
<ellipse fill="none" stroke="black" cx="1414.79" cy="-585" rx="104.8" ry="104.8"/>
<text text-anchor="middle" x="1414.79" y="-596.3" font-family="Times,serif" font-size="14.00">Astrometric</text>
<text text-anchor="middle" x="1414.79" y="-581.3" font-family="Times,serif" font-size="14.00">Transmutation</text>
<text text-anchor="middle" x="1414.79" y="-566.3" font-family="Times,serif" font-size="14.00">L2b to CoreAstrometric</text>
</g>
<!-- cal_boresight_prod -->
<g id="node30" class="node">
<title>cal_boresight_prod</title>
<polygon fill="none" stroke="black" points="1765.88,-684 1608.88,-684 1608.88,-648 1765.88,-648 1765.88,-684"/>
<text text-anchor="middle" x="1687.38" y="-662.3" font-family="Times,serif" font-size="14.00">Astrometric products 1..1</text>
</g>
<!-- trans_cal_boresight_l2b_aboresight&#45;&gt;cal_boresight_prod -->
<g id="edge31" class="edge">
<title>trans_cal_boresight_l2b_aboresight&#45;&gt;cal_boresight_prod</title>
<path fill="none" stroke="black" stroke-dasharray="5,2" d="M1481.13,-666C1481.13,-666 1598.61,-666 1598.61,-666"/>
<polygon fill="black" stroke="black" points="1598.61,-669.5 1608.61,-666 1598.61,-662.5 1598.61,-669.5"/>
</g>
<!-- cal_boresight_log -->
<g id="node31" class="node">
<title>cal_boresight_log</title>
<ellipse fill="none" stroke="black" cx="1687.38" cy="-612" rx="83.39" ry="18"/>
<text text-anchor="middle" x="1687.38" y="-608.3" font-family="Times,serif" font-size="14.00">Astrometric log 1..1</text>
</g>
<!-- trans_cal_boresight_l2b_aboresight&#45;&gt;cal_boresight_log -->
<g id="edge34" class="edge">
<title>trans_cal_boresight_l2b_aboresight&#45;&gt;cal_boresight_log</title>
<path fill="none" stroke="black" stroke-dasharray="5,2" d="M1515.91,-612C1515.91,-612 1593.82,-612 1593.82,-612"/>
<polygon fill="black" stroke="black" points="1593.82,-615.5 1603.82,-612 1593.82,-608.5 1593.82,-615.5"/>
</g>
<!-- cal_boresight_man -->
<g id="node32" class="node">
<title>cal_boresight_man</title>
<ellipse fill="none" stroke="black" cx="1687.38" cy="-558" rx="131.88" ry="18"/>
<text text-anchor="middle" x="1687.38" y="-554.3" font-family="Times,serif" font-size="14.00">Astrometric product manifest 1..1</text>
</g>
<!-- trans_cal_boresight_l2b_aboresight&#45;&gt;cal_boresight_man -->
<g id="edge32" class="edge">
<title>trans_cal_boresight_l2b_aboresight&#45;&gt;cal_boresight_man</title>
<path fill="none" stroke="black" d="M1515.91,-558C1515.91,-558 1545.39,-558 1545.39,-558"/>
<polygon fill="black" stroke="black" points="1545.39,-561.5 1555.39,-558 1545.39,-554.5 1545.39,-561.5"/>
</g>
<!-- cal_boresight_src -->
<g id="node33" class="node">
<title>cal_boresight_src</title>
<ellipse fill="none" stroke="black" cx="1687.38" cy="-504" rx="128.08" ry="18"/>
<text text-anchor="middle" x="1687.38" y="-500.3" font-family="Times,serif" font-size="14.00">Astrometric source manifest 1..1</text>
</g>
<!-- trans_cal_boresight_l2b_aboresight&#45;&gt;cal_boresight_src -->
<g id="edge33" class="edge">
<title>trans_cal_boresight_l2b_aboresight&#45;&gt;cal_boresight_src</title>
<path fill="none" stroke="black" d="M1481.13,-504C1481.13,-504 1549.31,-504 1549.31,-504"/>
<polygon fill="black" stroke="black" points="1549.31,-507.5 1559.31,-504 1549.31,-500.5 1549.31,-507.5"/>
</g>
<!-- l1_cal_boresight_prod -->
<g id="node4" class="node">
<title>l1_cal_boresight_prod</title>
<polygon fill="none" stroke="black" points="215.59,-252 36.59,-252 36.59,-216 215.59,-216 215.59,-252"/>
<text text-anchor="middle" x="126.09" y="-230.3" font-family="Times,serif" font-size="14.00">L1_Astrometric products 1..b</text>
</g>
<!-- l1_cal_boresight_prod&#45;&gt;trans_cal_boresight_l1_l2a -->
<g id="edge1" class="edge">
<title>l1_cal_boresight_prod&#45;&gt;trans_cal_boresight_l1_l2a</title>
<path fill="none" stroke="black" stroke-dasharray="5,2" d="M215.64,-220.5C281.77,-220.5 360.32,-220.5 360.32,-220.5 360.32,-220.5 360.32,-208.58 360.32,-208.58"/>
<polygon fill="black" stroke="black" points="363.82,-208.58 360.32,-198.58 356.82,-208.58 363.82,-208.58"/>
</g>
<!-- l1_cal_boresight_man -->
<g id="node5" class="node">
<title>l1_cal_boresight_man</title>
<ellipse fill="none" stroke="black" cx="126.09" cy="-180" rx="116.18" ry="18"/>
<text text-anchor="middle" x="126.09" y="-176.3" font-family="Times,serif" font-size="14.00">L1_Astrometric manifest 1..1</text>
</g>
<!-- l1_cal_boresight_man&#45;&gt;trans_cal_boresight_l1_l2a -->
<g id="edge2" class="edge">
<title>l1_cal_boresight_man&#45;&gt;trans_cal_boresight_l1_l2a</title>
<path fill="none" stroke="black" d="M242.51,-180C242.51,-180 302.3,-180 302.3,-180"/>
<polygon fill="black" stroke="black" points="302.3,-183.5 312.3,-180 302.3,-176.5 302.3,-183.5"/>
</g>
<!-- l1_cal_boresight_odir -->
<g id="node6" class="node">
<title>l1_cal_boresight_odir</title>
<ellipse fill="none" stroke="black" cx="126.09" cy="-126" rx="126.18" ry="18"/>
<text text-anchor="middle" x="126.09" y="-122.3" font-family="Times,serif" font-size="14.00">L1_Astrometric output path 1..1</text>
</g>
<!-- l1_cal_boresight_odir&#45;&gt;trans_cal_boresight_l1_l2a -->
<g id="edge3" class="edge">
<title>l1_cal_boresight_odir&#45;&gt;trans_cal_boresight_l1_l2a</title>
<path fill="none" stroke="black" d="M252.45,-126C252.45,-126 278.13,-126 278.13,-126"/>
<polygon fill="black" stroke="black" points="278.13,-129.5 288.13,-126 278.13,-122.5 278.13,-129.5"/>
</g>
<!-- l1_cal_boresight_rec -->
<g id="node7" class="node">
<title>l1_cal_boresight_rec</title>
<polygon fill="none" stroke="black" points="196.59,-84 43.59,-84 43.59,-60 196.59,-60 208.59,-72 196.59,-84"/>
<text text-anchor="middle" x="126.09" y="-68.3" font-family="Times,serif" font-size="14.00">L1_Astrometric recipe 1..1</text>
</g>
<!-- l1_cal_boresight_rec&#45;&gt;trans_cal_boresight_l1_l2a -->
<g id="edge4" class="edge">
<title>l1_cal_boresight_rec&#45;&gt;trans_cal_boresight_l1_l2a</title>
<path fill="none" stroke="black" d="M208.66,-78C208.66,-78 296.28,-78 296.28,-78"/>
<polygon fill="black" stroke="black" points="296.28,-81.5 306.28,-78 296.28,-74.5 296.28,-81.5"/>
</g>
<!-- l1_cal_boresight_nllut -->
<g id="node8" class="node">
<title>l1_cal_boresight_nllut</title>
<polygon fill="none" stroke="black" points="222.59,-30 17.59,-30 17.59,-6 222.59,-6 234.59,-18 222.59,-30"/>
<text text-anchor="middle" x="126.09" y="-14.3" font-family="Times,serif" font-size="14.00">L1_Astrometric non&#45;linear LUT 1..1</text>
</g>
<!-- l1_cal_boresight_nllut&#45;&gt;trans_cal_boresight_l1_l2a -->
<g id="edge5" class="edge">
<title>l1_cal_boresight_nllut&#45;&gt;trans_cal_boresight_l1_l2a</title>
<path fill="none" stroke="black" d="M222.32,-36.15C222.32,-49.74 222.32,-66 222.32,-66 222.32,-66 310.02,-66 310.02,-66"/>
<polygon fill="black" stroke="black" points="310.02,-69.5 320.02,-66 310.02,-62.5 310.02,-69.5"/>
</g>
<!-- l2a_cal_boresight_prod&#45;&gt;trans_cal_boresight_l2a_l2b -->
<g id="edge10" class="edge">
<title>l2a_cal_boresight_prod&#45;&gt;trans_cal_boresight_l2a_l2b</title>
<path fill="none" stroke="black" stroke-dasharray="5,2" d="M710.52,-207C778.24,-207 858.32,-207 858.32,-207 858.32,-207 858.32,-319.37 858.32,-319.37"/>
<polygon fill="black" stroke="black" points="854.82,-319.37 858.32,-329.37 861.82,-319.37 854.82,-319.37"/>
</g>
<!-- l2a_cal_boresight_man&#45;&gt;trans_cal_boresight_l2a_l2b -->
<g id="edge19" class="edge">
<title>l2a_cal_boresight_man&#45;&gt;trans_cal_boresight_l2a_l2b</title>
<path fill="none" stroke="black" d="M760.32,-158.86C760.32,-190.76 760.32,-342 760.32,-342 760.32,-342 819.96,-342 819.96,-342"/>
<polygon fill="black" stroke="black" points="819.96,-345.5 829.96,-342 819.96,-338.5 819.96,-345.5"/>
</g>
<!-- l2a_cal_boresight_odir -->
<g id="node12" class="node">
<title>l2a_cal_boresight_odir</title>
<ellipse fill="none" stroke="black" cx="617.91" cy="-641" rx="129.98" ry="18"/>
<text text-anchor="middle" x="617.91" y="-637.3" font-family="Times,serif" font-size="14.00">L2a_Astrometric output path 1..1</text>
</g>
<!-- l2a_cal_boresight_odir&#45;&gt;trans_cal_boresight_l2a_l2b -->
<g id="edge12" class="edge">
<title>l2a_cal_boresight_odir&#45;&gt;trans_cal_boresight_l2a_l2b</title>
<path fill="none" stroke="black" d="M748.09,-640C816.1,-640 885.32,-640 885.32,-640 885.32,-640 885.32,-472.67 885.32,-472.67"/>
<polygon fill="black" stroke="black" points="888.82,-472.67 885.32,-462.67 881.82,-472.67 888.82,-472.67"/>
</g>
<!-- l2a_cal_boresight_rec -->
<g id="node13" class="node">
<title>l2a_cal_boresight_rec</title>
<polygon fill="none" stroke="black" points="691.41,-599 532.41,-599 532.41,-575 691.41,-575 703.41,-587 691.41,-599"/>
<text text-anchor="middle" x="617.91" y="-583.3" font-family="Times,serif" font-size="14.00">L2a_Astrometric recipe 1..1</text>
</g>
<!-- l2a_cal_boresight_rec&#45;&gt;trans_cal_boresight_l2a_l2b -->
<g id="edge13" class="edge">
<title>l2a_cal_boresight_rec&#45;&gt;trans_cal_boresight_l2a_l2b</title>
<path fill="none" stroke="black" d="M703.69,-586C772.73,-586 858.32,-586 858.32,-586 858.32,-586 858.32,-472.72 858.32,-472.72"/>
<polygon fill="black" stroke="black" points="861.82,-472.72 858.32,-462.72 854.82,-472.72 861.82,-472.72"/>
</g>
<!-- l2a_cal_boresight_cti -->
<g id="node14" class="node">
<title>l2a_cal_boresight_cti</title>
<polygon fill="none" stroke="black" points="739.91,-545 483.91,-545 483.91,-521 739.91,-521 751.91,-533 739.91,-545"/>
<text text-anchor="middle" x="617.91" y="-529.3" font-family="Times,serif" font-size="14.00">L2a_Astrometric charge xfer inefficiency 1..1</text>
</g>
<!-- l2a_cal_boresight_cti&#45;&gt;trans_cal_boresight_l2a_l2b -->
<g id="edge14" class="edge">
<title>l2a_cal_boresight_cti&#45;&gt;trans_cal_boresight_l2a_l2b</title>
<path fill="none" stroke="black" d="M742.32,-514.99C742.32,-490.58 742.32,-450 742.32,-450 742.32,-450 820.12,-450 820.12,-450"/>
<polygon fill="black" stroke="black" points="820.12,-453.5 830.12,-450 820.12,-446.5 820.12,-453.5"/>
</g>
<!-- l2a_cal_boresight_dnb -->
<g id="node15" class="node">
<title>l2a_cal_boresight_dnb</title>
<polygon fill="none" stroke="black" points="725.91,-491 497.91,-491 497.91,-465 725.91,-465 737.91,-478 725.91,-491"/>
<text text-anchor="middle" x="617.91" y="-481.8" font-family="Times,serif" font-size="14.00">L2a_Astrometric CIC/Dark Current/FPN</text>
<text text-anchor="middle" x="617.91" y="-466.8" font-family="Times,serif" font-size="14.00"> or master dark 1..1</text>
</g>
<!-- l2a_cal_boresight_dnb&#45;&gt;trans_cal_boresight_l2a_l2b -->
<g id="edge15" class="edge">
<title>l2a_cal_boresight_dnb&#45;&gt;trans_cal_boresight_l2a_l2b</title>
<path fill="none" stroke="black" d="M738.03,-474.25C786.55,-474.25 831.32,-474.25 831.32,-474.25 831.32,-474.25 831.32,-461.2 831.32,-461.2"/>
<polygon fill="black" stroke="black" points="834.82,-461.2 831.32,-451.2 827.82,-461.2 834.82,-461.2"/>
</g>
<!-- l2a_cal_boresight_mbpm -->
<g id="node16" class="node">
<title>l2a_cal_boresight_mbpm</title>
<polygon fill="none" stroke="black" points="734.41,-435 489.41,-435 489.41,-411 734.41,-411 746.41,-423 734.41,-435"/>
<text text-anchor="middle" x="617.91" y="-419.3" font-family="Times,serif" font-size="14.00">L2a_Astrometric master bad pixel map 1..1</text>
</g>
<!-- l2a_cal_boresight_mbpm&#45;&gt;trans_cal_boresight_l2a_l2b -->
<g id="edge16" class="edge">
<title>l2a_cal_boresight_mbpm&#45;&gt;trans_cal_boresight_l2a_l2b</title>
<path fill="none" stroke="black" d="M746.45,-423C746.45,-423 798.74,-423 798.74,-423"/>
<polygon fill="black" stroke="black" points="798.74,-426.5 808.74,-423 798.74,-419.5 798.74,-426.5"/>
</g>
<!-- l2a_cal_boresight_ff -->
<g id="node17" class="node">
<title>l2a_cal_boresight_ff</title>
<polygon fill="none" stroke="black" points="700.91,-381 522.91,-381 522.91,-357 700.91,-357 712.91,-369 700.91,-381"/>
<text text-anchor="middle" x="617.91" y="-365.3" font-family="Times,serif" font-size="14.00">L2a_Astrometric flat fields 1..1</text>
</g>
<!-- l2a_cal_boresight_ff&#45;&gt;trans_cal_boresight_l2a_l2b -->
<g id="edge17" class="edge">
<title>l2a_cal_boresight_ff&#45;&gt;trans_cal_boresight_l2a_l2b</title>
<path fill="none" stroke="black" d="M712.98,-369C712.98,-369 798.75,-369 798.75,-369"/>
<polygon fill="black" stroke="black" points="798.75,-372.5 808.75,-369 798.75,-365.5 798.75,-372.5"/>
</g>
<!-- l2a_cal_boresight_emg -->
<g id="node18" class="node">
<title>l2a_cal_boresight_emg</title>
<polygon fill="none" stroke="black" points="698.91,-327 524.91,-327 524.91,-303 698.91,-303 710.91,-315 698.91,-327"/>
<text text-anchor="middle" x="617.91" y="-311.3" font-family="Times,serif" font-size="14.00">L2a_Astrometric EM gain 1..1</text>
</g>
<!-- l2a_cal_boresight_emg&#45;&gt;trans_cal_boresight_l2a_l2b -->
<g id="edge18" class="edge">
<title>l2a_cal_boresight_emg&#45;&gt;trans_cal_boresight_l2a_l2b</title>
<path fill="none" stroke="black" d="M711.06,-307.37C788.24,-307.37 885.32,-307.37 885.32,-307.37 885.32,-307.37 885.32,-319.28 885.32,-319.28"/>
<polygon fill="black" stroke="black" points="881.82,-319.28 885.32,-329.28 888.82,-319.28 881.82,-319.28"/>
</g>
<!-- l2a_cal_boresight_kgain -->
<g id="node19" class="node">
<title>l2a_cal_boresight_kgain</title>
<polygon fill="none" stroke="black" points="688.41,-273 535.41,-273 535.41,-249 688.41,-249 700.41,-261 688.41,-273"/>
<text text-anchor="middle" x="617.91" y="-257.3" font-family="Times,serif" font-size="14.00">L2_Astrometric Kgain 1..1</text>
</g>
<!-- l2a_cal_boresight_kgain&#45;&gt;trans_cal_boresight_l2a_l2b -->
<g id="edge11" class="edge">
<title>l2a_cal_boresight_kgain&#45;&gt;trans_cal_boresight_l2a_l2b</title>
<path fill="none" stroke="black" d="M700.42,-261C760.47,-261 831.32,-261 831.32,-261 831.32,-261 831.32,-331.09 831.32,-331.09"/>
<polygon fill="black" stroke="black" points="827.82,-331.09 831.32,-341.09 834.82,-331.09 827.82,-331.09"/>
</g>
<!-- l2b_cal_boresight_prod&#45;&gt;trans_cal_boresight_l2b_aboresight -->
<g id="edge24" class="edge">
<title>l2b_cal_boresight_prod&#45;&gt;trans_cal_boresight_l2b_aboresight</title>
<path fill="none" stroke="black" stroke-dasharray="5,2" d="M1217.25,-490.12C1217.25,-490.12 1360.42,-490.12 1360.42,-490.12"/>
<polygon fill="black" stroke="black" points="1360.42,-493.62 1370.42,-490.12 1360.42,-486.62 1360.42,-493.62"/>
</g>
<!-- l2b_cal_boresight_man&#45;&gt;trans_cal_boresight_l2b_aboresight -->
<g id="edge25" class="edge">
<title>l2b_cal_boresight_man&#45;&gt;trans_cal_boresight_l2b_aboresight</title>
<path fill="none" stroke="black" d="M1270.32,-427.08C1270.32,-440.93 1270.32,-485.23 1270.32,-485.23 1270.32,-485.23 1373.09,-485.23 1373.09,-485.23"/>
<polygon fill="black" stroke="black" points="1373.09,-488.73 1383.09,-485.23 1373.09,-481.73 1373.09,-488.73"/>
</g>
<!-- l2b_cal_boresight_odir -->
<g id="node24" class="node">
<title>l2b_cal_boresight_odir</title>
<ellipse fill="none" stroke="black" cx="1124.65" cy="-747" rx="129.98" ry="18"/>
<text text-anchor="middle" x="1124.65" y="-743.3" font-family="Times,serif" font-size="14.00">L2b_Astrometric output path 1..1</text>
</g>
<!-- l2b_cal_boresight_odir&#45;&gt;trans_cal_boresight_l2b_aboresight -->
<g id="edge26" class="edge">
<title>l2b_cal_boresight_odir&#45;&gt;trans_cal_boresight_l2b_aboresight</title>
<path fill="none" stroke="black" d="M1233.32,-737C1233.32,-719.41 1233.32,-684.77 1233.32,-684.77 1233.32,-684.77 1373.18,-684.77 1373.18,-684.77"/>
<polygon fill="black" stroke="black" points="1373.18,-688.27 1383.18,-684.77 1373.18,-681.27 1373.18,-688.27"/>
</g>
<!-- l2b_cal_boresight_rec -->
<g id="node25" class="node">
<title>l2b_cal_boresight_rec</title>
<polygon fill="none" stroke="black" points="1198.65,-705 1038.65,-705 1038.65,-681 1198.65,-681 1210.65,-693 1198.65,-705"/>
<text text-anchor="middle" x="1124.65" y="-689.3" font-family="Times,serif" font-size="14.00">L2b_Astrometric recipe 1..1</text>
</g>
<!-- l2b_cal_boresight_rec&#45;&gt;trans_cal_boresight_l2b_aboresight -->
<g id="edge27" class="edge">
<title>l2b_cal_boresight_rec&#45;&gt;trans_cal_boresight_l2b_aboresight</title>
<path fill="none" stroke="black" d="M1210.92,-679.88C1210.92,-679.88 1360.44,-679.88 1360.44,-679.88"/>
<polygon fill="black" stroke="black" points="1360.44,-683.38 1370.44,-679.88 1360.44,-676.38 1360.44,-683.38"/>
</g>
<!-- l2b_cal_boresight_excicrf -->
<g id="node26" class="node">
<title>l2b_cal_boresight_excicrf</title>
<polygon fill="none" stroke="black" points="1247.15,-651 990.15,-651 990.15,-627 1247.15,-627 1259.15,-639 1247.15,-651"/>
<text text-anchor="middle" x="1124.65" y="-635.3" font-family="Times,serif" font-size="14.00">L2b_Astrometric EXCAM ICRF location 1..1</text>
</g>
<!-- l2b_cal_boresight_excicrf&#45;&gt;trans_cal_boresight_l2b_aboresight -->
<g id="edge28" class="edge">
<title>l2b_cal_boresight_excicrf&#45;&gt;trans_cal_boresight_l2b_aboresight</title>
<path fill="none" stroke="black" d="M1259.53,-639C1259.53,-639 1314.99,-639 1314.99,-639"/>
<polygon fill="black" stroke="black" points="1314.99,-642.5 1324.99,-639 1314.99,-635.5 1314.99,-642.5"/>
</g>
<!-- l2b_cal_boresight_excfovps -->
<g id="node27" class="node">
<title>l2b_cal_boresight_excfovps</title>
<polygon fill="none" stroke="black" points="1252.65,-597 984.65,-597 984.65,-573 1252.65,-573 1264.65,-585 1252.65,-597"/>
<text text-anchor="middle" x="1124.65" y="-581.3" font-family="Times,serif" font-size="14.00">L2b_Astrometric EXCAM FOV pixel scale 1..1</text>
</g>
<!-- l2b_cal_boresight_excfovps&#45;&gt;trans_cal_boresight_l2b_aboresight -->
<g id="edge29" class="edge">
<title>l2b_cal_boresight_excfovps&#45;&gt;trans_cal_boresight_l2b_aboresight</title>
<path fill="none" stroke="black" d="M1265.05,-585C1265.05,-585 1299.73,-585 1299.73,-585"/>
<polygon fill="black" stroke="black" points="1299.73,-588.5 1309.73,-585 1299.73,-581.5 1299.73,-588.5"/>
</g>
<!-- l2b_cal_boresight_distm -->
<g id="node28" class="node">
<title>l2b_cal_boresight_distm</title>
<polygon fill="none" stroke="black" points="1221.65,-543 1015.65,-543 1015.65,-519 1221.65,-519 1233.65,-531 1221.65,-543"/>
<text text-anchor="middle" x="1124.65" y="-527.3" font-family="Times,serif" font-size="14.00">L2b_Astrometric distortion map 1..1</text>
</g>
<!-- l2b_cal_boresight_distm&#45;&gt;trans_cal_boresight_l2b_aboresight -->
<g id="edge30" class="edge">
<title>l2b_cal_boresight_distm&#45;&gt;trans_cal_boresight_l2b_aboresight</title>
<path fill="none" stroke="black" d="M1233.93,-531C1233.93,-531 1314.99,-531 1314.99,-531"/>
<polygon fill="black" stroke="black" points="1314.99,-534.5 1324.99,-531 1314.99,-527.5 1314.99,-534.5"/>
</g>
</g>
</svg>
