<?xml version="1.0" encoding="UTF-8" standalone="no"?>
<!DOCTYPE svg PUBLIC "-//W3C//DTD SVG 1.1//EN"
 "http://www.w3.org/Graphics/SVG/1.1/DTD/svg11.dtd">
<!-- Generated by graphviz version 2.43.0 (0)
 -->
<!-- Title: DarkSyntheticCalibrations Pages: 1 -->
<svg width="996pt" height="206pt"
 viewBox="0.00 0.00 995.68 206.00" xmlns="http://www.w3.org/2000/svg" xmlns:xlink="http://www.w3.org/1999/xlink">
<g id="graph0" class="graph" transform="scale(1 1) rotate(0) translate(4 202)">
<title>DarkSyntheticCalibrations</title>
<polygon fill="white" stroke="transparent" points="-4,4 -4,-202 991.68,-202 991.68,4 -4,4"/>
<!-- trans_cal_drksynth_l1_l2a -->
<g id="node1" class="node">
<title>trans_cal_drksynth_l1_l2a</title>
<ellipse fill="none" stroke="black" cx="485.39" cy="-99" rx="91.85" ry="91.85"/>
<text text-anchor="middle" x="485.39" y="-110.3" font-family="Times,serif" font-size="14.00">Dark(Synthetic)</text>
<text text-anchor="middle" x="485.39" y="-95.3" font-family="Times,serif" font-size="14.00">Transmutation</text>
<text text-anchor="middle" x="485.39" y="-80.3" font-family="Times,serif" font-size="14.00">L1 to L2a basic</text>
</g>
<!-- cal_drksynth_prod -->
<g id="node6" class="node">
<title>cal_drksynth_prod</title>
<polygon fill="none" stroke="black" points="915,-198 686,-198 686,-162 915,-162 915,-198"/>
<text text-anchor="middle" x="800.5" y="-176.3" font-family="Times,serif" font-size="14.00">Dark(Synthetic) products 1..1</text>
</g>
<!-- trans_cal_drksynth_l1_l2a&#45;&gt;cal_drksynth_prod -->
<g id="edge5" class="edge">
<title>trans_cal_drksynth_l1_l2a&#45;&gt;cal_drksynth_prod</title>
<path fill="none" stroke="black" stroke-dasharray="5,2" d="M534.97,-176.46C534.97,-176.46 675.87,-176.46 675.87,-176.46"/>
<polygon fill="black" stroke="black" points="675.87,-179.96 685.87,-176.46 675.87,-172.96 675.87,-179.96"/>
</g>
<!-- cal_drksynth_log -->
<g id="node7" class="node">
<title>cal_drksynth_log</title>
<ellipse fill="none" stroke="black" cx="800.5" cy="-126" rx="122.38" ry="18"/>
<text text-anchor="middle" x="800.5" y="-122.3" font-family="Times,serif" font-size="14.00">Dark(Synthetic) log 1..1</text>
</g>
<!-- trans_cal_drksynth_l1_l2a&#45;&gt;cal_drksynth_log -->
<g id="edge8" class="edge">
<title>trans_cal_drksynth_l1_l2a&#45;&gt;cal_drksynth_log</title>
<path fill="none" stroke="black" stroke-dasharray="5,2" d="M573.59,-126C573.59,-126 668.17,-126 668.17,-126"/>
<polygon fill="black" stroke="black" points="668.17,-129.5 678.17,-126 668.17,-122.5 668.17,-129.5"/>
</g>
<!-- cal_drksynth_man -->
<g id="node8" class="node">
<title>cal_drksynth_man</title>
<ellipse fill="none" stroke="black" cx="800.5" cy="-72" rx="187.37" ry="18"/>
<text text-anchor="middle" x="800.5" y="-68.3" font-family="Times,serif" font-size="14.00">Dark(Synthetic) product manifest 1..1</text>
</g>
<!-- trans_cal_drksynth_l1_l2a&#45;&gt;cal_drksynth_man -->
<g id="edge6" class="edge">
<title>trans_cal_drksynth_l1_l2a&#45;&gt;cal_drksynth_man</title>
<path fill="none" stroke="black" d="M573.59,-72C573.59,-72 603.05,-72 603.05,-72"/>
<polygon fill="black" stroke="black" points="603.05,-75.5 613.05,-72 603.05,-68.5 603.05,-75.5"/>
</g>
<!-- cal_drksynth_src -->
<g id="node9" class="node">
<title>cal_drksynth_src</title>
<ellipse fill="none" stroke="black" cx="800.5" cy="-18" rx="181.97" ry="18"/>
<text text-anchor="middle" x="800.5" y="-14.3" font-family="Times,serif" font-size="14.00">Dark(Synthetic) source manifest 1..1</text>
</g>
<!-- trans_cal_drksynth_l1_l2a&#45;&gt;cal_drksynth_src -->
<g id="edge7" class="edge">
<title>trans_cal_drksynth_l1_l2a&#45;&gt;cal_drksynth_src</title>
<path fill="none" stroke="black" d="M534.97,-21.54C534.97,-21.54 611.76,-21.54 611.76,-21.54"/>
<polygon fill="black" stroke="black" points="611.76,-25.04 621.76,-21.54 611.76,-18.04 611.76,-25.04"/>
</g>
<!-- l1_cal_drksynth_prod -->
<g id="node2" class="node">
<title>l1_cal_drksynth_prod</title>
<polygon fill="none" stroke="black" points="305.73,-198 51.73,-198 51.73,-162 305.73,-162 305.73,-198"/>
<text text-anchor="middle" x="178.73" y="-176.3" font-family="Times,serif" font-size="14.00">L1_Dark(Synthetic) products 1..b</text>
</g>
<!-- l1_cal_drksynth_prod&#45;&gt;trans_cal_drksynth_l1_l2a -->
<g id="edge1" class="edge">
<title>l1_cal_drksynth_prod&#45;&gt;trans_cal_drksynth_l1_l2a</title>
<path fill="none" stroke="black" stroke-dasharray="5,2" d="M306.12,-176.46C306.12,-176.46 425.57,-176.46 425.57,-176.46"/>
<polygon fill="black" stroke="black" points="425.57,-179.96 435.57,-176.46 425.57,-172.96 425.57,-179.96"/>
</g>
<!-- l1_cal_drksynth_man -->
<g id="node3" class="node">
<title>l1_cal_drksynth_man</title>
<ellipse fill="none" stroke="black" cx="178.73" cy="-126" rx="164.37" ry="18"/>
<text text-anchor="middle" x="178.73" y="-122.3" font-family="Times,serif" font-size="14.00">L1_Dark(Synthetic) manifest 1..1</text>
</g>
<!-- l1_cal_drksynth_man&#45;&gt;trans_cal_drksynth_l1_l2a -->
<g id="edge2" class="edge">
<title>l1_cal_drksynth_man&#45;&gt;trans_cal_drksynth_l1_l2a</title>
<path fill="none" stroke="black" d="M343.28,-126C343.28,-126 387.35,-126 387.35,-126"/>
<polygon fill="black" stroke="black" points="387.35,-129.5 397.35,-126 387.35,-122.5 387.35,-129.5"/>
</g>
<!-- l1_cal_drksynth_odir -->
<g id="node4" class="node">
<title>l1_cal_drksynth_odir</title>
<ellipse fill="none" stroke="black" cx="178.73" cy="-72" rx="178.97" ry="18"/>
<text text-anchor="middle" x="178.73" y="-68.3" font-family="Times,serif" font-size="14.00">L1_Dark(Synthetic) output path 1..1</text>
</g>
<!-- l1_cal_drksynth_odir&#45;&gt;trans_cal_drksynth_l1_l2a -->
<g id="edge3" class="edge">
<title>l1_cal_drksynth_odir&#45;&gt;trans_cal_drksynth_l1_l2a</title>
<path fill="none" stroke="black" d="M357.56,-72C357.56,-72 387.28,-72 387.28,-72"/>
<polygon fill="black" stroke="black" points="387.28,-75.5 397.28,-72 387.28,-68.5 387.28,-75.5"/>
</g>
<!-- l1_cal_drksynth_rec -->
<g id="node5" class="node">
<title>l1_cal_drksynth_rec</title>
<polygon fill="none" stroke="black" points="284.23,-30 61.23,-30 61.23,-6 284.23,-6 296.23,-18 284.23,-30"/>
<text text-anchor="middle" x="178.73" y="-14.3" font-family="Times,serif" font-size="14.00">L1_Dark(Synthetic) recipe 1..1</text>
</g>
<!-- l1_cal_drksynth_rec&#45;&gt;trans_cal_drksynth_l1_l2a -->
<g id="edge4" class="edge">
<title>l1_cal_drksynth_rec&#45;&gt;trans_cal_drksynth_l1_l2a</title>
<path fill="none" stroke="black" d="M296.42,-21.54C296.42,-21.54 425.67,-21.54 425.67,-21.54"/>
<polygon fill="black" stroke="black" points="425.67,-25.04 435.67,-21.54 425.67,-18.04 425.67,-25.04"/>
</g>
</g>
</svg>
