<?xml version="1.0" encoding="UTF-8" standalone="no"?>
<!DOCTYPE svg PUBLIC "-//W3C//DTD SVG 1.1//EN"
 "http://www.w3.org/Graphics/SVG/1.1/DTD/svg11.dtd">
<!-- Generated by graphviz version 2.43.0 (0)
 -->
<!-- Title: Astrometric Pages: 1 -->
<svg width="2094pt" height="719pt"
 viewBox="0.00 0.00 2093.69 719.00" xmlns="http://www.w3.org/2000/svg" xmlns:xlink="http://www.w3.org/1999/xlink">
<g id="graph0" class="graph" transform="scale(1 1) rotate(0) translate(4 715)">
<title>Astrometric</title>
<polygon fill="white" stroke="transparent" points="-4,4 -4,-715 2089.69,-715 2089.69,4 -4,4"/>
<!-- trans_boresight_l1_l2a -->
<g id="node1" class="node">
<title>trans_boresight_l1_l2a</title>
<ellipse fill="none" stroke="black" cx="444.16" cy="-126" rx="88.28" ry="88.28"/>
<text text-anchor="middle" x="444.16" y="-137.3" font-family="Times,serif" font-size="14.00">Astrometric</text>
<text text-anchor="middle" x="444.16" y="-122.3" font-family="Times,serif" font-size="14.00">Transmutation</text>
<text text-anchor="middle" x="444.16" y="-107.3" font-family="Times,serif" font-size="14.00">L1 to L2a basic</text>
</g>
<!-- l2a_boresight_prod -->
<g id="node9" class="node">
<title>l2a_boresight_prod</title>
<polygon fill="none" stroke="black" points="854.05,-198 621.05,-198 621.05,-162 854.05,-162 854.05,-198"/>
<text text-anchor="middle" x="737.55" y="-176.3" font-family="Times,serif" font-size="14.00">L2a_Astrometric products 1..b</text>
</g>
<!-- trans_boresight_l1_l2a&#45;&gt;l2a_boresight_prod -->
<g id="edge6" class="edge">
<title>trans_boresight_l1_l2a&#45;&gt;l2a_boresight_prod</title>
<path fill="none" stroke="black" stroke-dasharray="5,2" d="M514.43,-180C514.43,-180 610.88,-180 610.88,-180"/>
<polygon fill="black" stroke="black" points="610.88,-183.5 620.88,-180 610.88,-176.5 610.88,-183.5"/>
</g>
<!-- l2a_boresight_man -->
<g id="node10" class="node">
<title>l2a_boresight_man</title>
<ellipse fill="none" stroke="black" cx="737.55" cy="-126" rx="151.37" ry="18"/>
<text text-anchor="middle" x="737.55" y="-122.3" font-family="Times,serif" font-size="14.00">L2a_Astrometric manifest 1..1</text>
</g>
<!-- trans_boresight_l1_l2a&#45;&gt;l2a_boresight_man -->
<g id="edge7" class="edge">
<title>trans_boresight_l1_l2a&#45;&gt;l2a_boresight_man</title>
<path fill="none" stroke="black" d="M532.58,-126C532.58,-126 576.03,-126 576.03,-126"/>
<polygon fill="black" stroke="black" points="576.03,-129.5 586.03,-126 576.03,-122.5 576.03,-129.5"/>
</g>
<!-- l2a_boresight_log -->
<g id="node19" class="node">
<title>l2a_boresight_log</title>
<ellipse fill="none" stroke="black" cx="737.55" cy="-72" rx="124.58" ry="18"/>
<text text-anchor="middle" x="737.55" y="-68.3" font-family="Times,serif" font-size="14.00">L2a_Astrometric log 1..1</text>
</g>
<!-- trans_boresight_l1_l2a&#45;&gt;l2a_boresight_log -->
<g id="edge8" class="edge">
<title>trans_boresight_l1_l2a&#45;&gt;l2a_boresight_log</title>
<path fill="none" stroke="black" stroke-dasharray="5,2" d="M514.43,-72C514.43,-72 602.5,-72 602.5,-72"/>
<polygon fill="black" stroke="black" points="602.5,-75.5 612.5,-72 602.5,-68.5 602.5,-75.5"/>
</g>
<!-- trans_boresight_l2a_l2b -->
<g id="node2" class="node">
<title>trans_boresight_l2a_l2b</title>
<ellipse fill="none" stroke="black" cx="1028.82" cy="-369" rx="86.03" ry="86.03"/>
<text text-anchor="middle" x="1028.82" y="-380.3" font-family="Times,serif" font-size="14.00">Astrometric</text>
<text text-anchor="middle" x="1028.82" y="-365.3" font-family="Times,serif" font-size="14.00">Transmutation</text>
<text text-anchor="middle" x="1028.82" y="-350.3" font-family="Times,serif" font-size="14.00">L2a to L2b</text>
</g>
<!-- l2b_boresight_prod -->
<g id="node20" class="node">
<title>l2b_boresight_prod</title>
<polygon fill="none" stroke="black" points="1438.58,-441 1204.58,-441 1204.58,-405 1438.58,-405 1438.58,-441"/>
<text text-anchor="middle" x="1321.58" y="-419.3" font-family="Times,serif" font-size="14.00">L2b_Astrometric products 1..1</text>
</g>
<!-- trans_boresight_l2a_l2b&#45;&gt;l2b_boresight_prod -->
<g id="edge19" class="edge">
<title>trans_boresight_l2a_l2b&#45;&gt;l2b_boresight_prod</title>
<path fill="none" stroke="black" stroke-dasharray="5,2" d="M1096.35,-423C1096.35,-423 1194.45,-423 1194.45,-423"/>
<polygon fill="black" stroke="black" points="1194.45,-426.5 1204.45,-423 1194.45,-419.5 1194.45,-426.5"/>
</g>
<!-- l2b_boresight_man -->
<g id="node21" class="node">
<title>l2b_boresight_man</title>
<ellipse fill="none" stroke="black" cx="1321.58" cy="-369" rx="151.37" ry="18"/>
<text text-anchor="middle" x="1321.58" y="-365.3" font-family="Times,serif" font-size="14.00">L2b_Astrometric manifest 1..1</text>
</g>
<!-- trans_boresight_l2a_l2b&#45;&gt;l2b_boresight_man -->
<g id="edge21" class="edge">
<title>trans_boresight_l2a_l2b&#45;&gt;l2b_boresight_man</title>
<path fill="none" stroke="black" d="M1115.47,-369C1115.47,-369 1160.11,-369 1160.11,-369"/>
<polygon fill="black" stroke="black" points="1160.11,-372.5 1170.11,-369 1160.11,-365.5 1160.11,-372.5"/>
</g>
<!-- l2b_boresight_log -->
<g id="node27" class="node">
<title>l2b_boresight_log</title>
<ellipse fill="none" stroke="black" cx="1321.58" cy="-315" rx="125.38" ry="18"/>
<text text-anchor="middle" x="1321.58" y="-311.3" font-family="Times,serif" font-size="14.00">L2b_Astrometric log 1..1</text>
</g>
<!-- trans_boresight_l2a_l2b&#45;&gt;l2b_boresight_log -->
<g id="edge20" class="edge">
<title>trans_boresight_l2a_l2b&#45;&gt;l2b_boresight_log</title>
<path fill="none" stroke="black" stroke-dasharray="5,2" d="M1096.35,-315C1096.35,-315 1186,-315 1186,-315"/>
<polygon fill="black" stroke="black" points="1186,-318.5 1196,-315 1186,-311.5 1186,-318.5"/>
</g>
<!-- trans_boresight_l2b_aboresight -->
<g id="node3" class="node">
<title>trans_boresight_l2b_aboresight</title>
<ellipse fill="none" stroke="black" cx="1658.9" cy="-531" rx="130.63" ry="130.63"/>
<text text-anchor="middle" x="1658.9" y="-542.3" font-family="Times,serif" font-size="14.00">Astrometric</text>
<text text-anchor="middle" x="1658.9" y="-527.3" font-family="Times,serif" font-size="14.00">Transmutation</text>
<text text-anchor="middle" x="1658.9" y="-512.3" font-family="Times,serif" font-size="14.00">L2b to CoreAstrometric</text>
</g>
<!-- boresight_prod -->
<g id="node28" class="node">
<title>boresight_prod</title>
<polygon fill="none" stroke="black" points="2055.7,-603 1855.7,-603 1855.7,-567 2055.7,-567 2055.7,-603"/>
<text text-anchor="middle" x="1955.7" y="-581.3" font-family="Times,serif" font-size="14.00">Astrometric products 1..1</text>
</g>
<!-- trans_boresight_l2b_aboresight&#45;&gt;boresight_prod -->
<g id="edge29" class="edge">
<title>trans_boresight_l2b_aboresight&#45;&gt;boresight_prod</title>
<path fill="none" stroke="black" stroke-dasharray="5,2" d="M1778.34,-585C1778.34,-585 1845.55,-585 1845.55,-585"/>
<polygon fill="black" stroke="black" points="1845.55,-588.5 1855.55,-585 1845.55,-581.5 1845.55,-588.5"/>
</g>
<!-- boresight_log -->
<g id="node29" class="node">
<title>boresight_log</title>
<ellipse fill="none" stroke="black" cx="1955.7" cy="-531" rx="103.18" ry="18"/>
<text text-anchor="middle" x="1955.7" y="-527.3" font-family="Times,serif" font-size="14.00">Astrometric log 1..1</text>
</g>
<!-- trans_boresight_l2b_aboresight&#45;&gt;boresight_log -->
<g id="edge31" class="edge">
<title>trans_boresight_l2b_aboresight&#45;&gt;boresight_log</title>
<path fill="none" stroke="black" stroke-dasharray="5,2" d="M1789.94,-531C1789.94,-531 1842.09,-531 1842.09,-531"/>
<polygon fill="black" stroke="black" points="1842.09,-534.5 1852.09,-531 1842.09,-527.5 1842.09,-534.5"/>
</g>
<!-- boresight_man -->
<g id="node30" class="node">
<title>boresight_man</title>
<ellipse fill="none" stroke="black" cx="1955.7" cy="-477" rx="129.98" ry="18"/>
<text text-anchor="middle" x="1955.7" y="-473.3" font-family="Times,serif" font-size="14.00">Astrometric manifest 1..1</text>
</g>
<!-- trans_boresight_l2b_aboresight&#45;&gt;boresight_man -->
<g id="edge30" class="edge">
<title>trans_boresight_l2b_aboresight&#45;&gt;boresight_man</title>
<path fill="none" stroke="black" d="M1778.34,-477C1778.34,-477 1815.33,-477 1815.33,-477"/>
<polygon fill="black" stroke="black" points="1815.33,-480.5 1825.33,-477 1815.33,-473.5 1815.33,-480.5"/>
</g>
<!-- l1_boresight_prod -->
<g id="node4" class="node">
<title>l1_boresight_prod</title>
<polygon fill="none" stroke="black" points="272.39,-252 47.39,-252 47.39,-216 272.39,-216 272.39,-252"/>
<text text-anchor="middle" x="159.89" y="-230.3" font-family="Times,serif" font-size="14.00">L1_Astrometric products 1..b</text>
</g>
<!-- l1_boresight_prod&#45;&gt;trans_boresight_l1_l2a -->
<g id="edge1" class="edge">
<title>l1_boresight_prod&#45;&gt;trans_boresight_l1_l2a</title>
<path fill="none" stroke="black" stroke-dasharray="5,2" d="M272.45,-234C352.05,-234 444.69,-234 444.69,-234 444.69,-234 444.69,-224.44 444.69,-224.44"/>
<polygon fill="black" stroke="black" points="448.19,-224.44 444.69,-214.44 441.19,-224.44 448.19,-224.44"/>
</g>
<!-- l1_boresight_man -->
<g id="node5" class="node">
<title>l1_boresight_man</title>
<ellipse fill="none" stroke="black" cx="159.89" cy="-180" rx="145.67" ry="18"/>
<text text-anchor="middle" x="159.89" y="-176.3" font-family="Times,serif" font-size="14.00">L1_Astrometric manifest 1..1</text>
</g>
<!-- l1_boresight_man&#45;&gt;trans_boresight_l1_l2a -->
<g id="edge2" class="edge">
<title>l1_boresight_man&#45;&gt;trans_boresight_l1_l2a</title>
<path fill="none" stroke="black" d="M305.77,-180C305.77,-180 363.87,-180 363.87,-180"/>
<polygon fill="black" stroke="black" points="363.87,-183.5 373.87,-180 363.87,-176.5 363.87,-183.5"/>
</g>
<!-- l1_boresight_odir -->
<g id="node6" class="node">
<title>l1_boresight_odir</title>
<ellipse fill="none" stroke="black" cx="159.89" cy="-126" rx="159.77" ry="18"/>
<text text-anchor="middle" x="159.89" y="-122.3" font-family="Times,serif" font-size="14.00">L1_Astrometric output path 1..1</text>
</g>
<!-- l1_boresight_odir&#45;&gt;trans_boresight_l1_l2a -->
<g id="edge3" class="edge">
<title>l1_boresight_odir&#45;&gt;trans_boresight_l1_l2a</title>
<path fill="none" stroke="black" d="M319.89,-126C319.89,-126 345.72,-126 345.72,-126"/>
<polygon fill="black" stroke="black" points="345.72,-129.5 355.72,-126 345.72,-122.5 345.72,-129.5"/>
</g>
<!-- l1_boresight_rec -->
<g id="node7" class="node">
<title>l1_boresight_rec</title>
<polygon fill="none" stroke="black" points="250.89,-84 56.89,-84 56.89,-60 250.89,-60 262.89,-72 250.89,-84"/>
<text text-anchor="middle" x="159.89" y="-68.3" font-family="Times,serif" font-size="14.00">L1_Astrometric recipe 1..1</text>
</g>
<!-- l1_boresight_rec&#45;&gt;trans_boresight_l1_l2a -->
<g id="edge4" class="edge">
<title>l1_boresight_rec&#45;&gt;trans_boresight_l1_l2a</title>
<path fill="none" stroke="black" d="M262.92,-72C262.92,-72 363.91,-72 363.91,-72"/>
<polygon fill="black" stroke="black" points="363.91,-75.5 373.91,-72 363.91,-68.5 363.91,-75.5"/>
</g>
<!-- l1_boresight_nllut -->
<g id="node8" class="node">
<title>l1_boresight_nllut</title>
<polygon fill="none" stroke="black" points="281.89,-30 25.89,-30 25.89,-6 281.89,-6 293.89,-18 281.89,-30"/>
<text text-anchor="middle" x="159.89" y="-14.3" font-family="Times,serif" font-size="14.00">L1_Astrometric non&#45;linear LUT 1..1</text>
</g>
<!-- l1_boresight_nllut&#45;&gt;trans_boresight_l1_l2a -->
<g id="edge5" class="edge">
<title>l1_boresight_nllut&#45;&gt;trans_boresight_l1_l2a</title>
<path fill="none" stroke="black" d="M278.69,-36.08C278.69,-41.39 278.69,-45.81 278.69,-45.81 278.69,-45.81 396.61,-45.81 396.61,-45.81"/>
<polygon fill="black" stroke="black" points="396.61,-49.31 406.61,-45.81 396.61,-42.31 396.61,-49.31"/>
</g>
<!-- l2a_boresight_prod&#45;&gt;trans_boresight_l2a_l2b -->
<g id="edge9" class="edge">
<title>l2a_boresight_prod&#45;&gt;trans_boresight_l2a_l2b</title>
<path fill="none" stroke="black" stroke-dasharray="5,2" d="M854.49,-180C945.94,-180 1057.69,-180 1057.69,-180 1057.69,-180 1057.69,-277.48 1057.69,-277.48"/>
<polygon fill="black" stroke="black" points="1054.19,-277.48 1057.69,-287.48 1061.19,-277.48 1054.19,-277.48"/>
</g>
<!-- l2a_boresight_man&#45;&gt;trans_boresight_l2a_l2b -->
<g id="edge18" class="edge">
<title>l2a_boresight_man&#45;&gt;trans_boresight_l2a_l2b</title>
<path fill="none" stroke="black" d="M872.69,-134.38C872.69,-167.9 872.69,-290.49 872.69,-290.49 872.69,-290.49 983,-290.49 983,-290.49"/>
<polygon fill="black" stroke="black" points="983,-293.99 993,-290.49 983,-286.99 983,-293.99"/>
</g>
<!-- l2a_boresight_odir -->
<g id="node11" class="node">
<title>l2a_boresight_odir</title>
<ellipse fill="none" stroke="black" cx="737.55" cy="-614" rx="165.17" ry="18"/>
<text text-anchor="middle" x="737.55" y="-610.3" font-family="Times,serif" font-size="14.00">L2a_Astrometric output path 1..1</text>
</g>
<!-- l2a_boresight_odir&#45;&gt;trans_boresight_l2a_l2b -->
<g id="edge11" class="edge">
<title>l2a_boresight_odir&#45;&gt;trans_boresight_l2a_l2b</title>
<path fill="none" stroke="black" d="M835.78,-599.5C929.88,-599.5 1057.69,-599.5 1057.69,-599.5 1057.69,-599.5 1057.69,-460.59 1057.69,-460.59"/>
<polygon fill="black" stroke="black" points="1061.19,-460.59 1057.69,-450.59 1054.19,-460.59 1061.19,-460.59"/>
</g>
<!-- l2a_boresight_rec -->
<g id="node12" class="node">
<title>l2a_boresight_rec</title>
<polygon fill="none" stroke="black" points="833.05,-572 630.05,-572 630.05,-548 833.05,-548 845.05,-560 833.05,-572"/>
<text text-anchor="middle" x="737.55" y="-556.3" font-family="Times,serif" font-size="14.00">L2a_Astrometric recipe 1..1</text>
</g>
<!-- l2a_boresight_rec&#45;&gt;trans_boresight_l2a_l2b -->
<g id="edge12" class="edge">
<title>l2a_boresight_rec&#45;&gt;trans_boresight_l2a_l2b</title>
<path fill="none" stroke="black" d="M845.34,-545.5C918.01,-545.5 1000.69,-545.5 1000.69,-545.5 1000.69,-545.5 1000.69,-460.79 1000.69,-460.79"/>
<polygon fill="black" stroke="black" points="1004.19,-460.79 1000.69,-450.79 997.19,-460.79 1004.19,-460.79"/>
</g>
<!-- l2a_boresight_cti -->
<g id="node13" class="node">
<title>l2a_boresight_cti</title>
<polygon fill="none" stroke="black" points="894.55,-518 568.55,-518 568.55,-494 894.55,-494 906.55,-506 894.55,-518"/>
<text text-anchor="middle" x="737.55" y="-502.3" font-family="Times,serif" font-size="14.00">L2a_Astrometric charge xfer inefficiency 1..1</text>
</g>
<!-- l2a_boresight_cti&#45;&gt;trans_boresight_l2a_l2b -->
<g id="edge13" class="edge">
<title>l2a_boresight_cti&#45;&gt;trans_boresight_l2a_l2b</title>
<path fill="none" stroke="black" d="M894.69,-487.81C894.69,-470.64 894.69,-447.51 894.69,-447.51 894.69,-447.51 982.87,-447.51 982.87,-447.51"/>
<polygon fill="black" stroke="black" points="982.87,-451.01 992.87,-447.51 982.87,-444.01 982.87,-451.01"/>
</g>
<!-- l2a_boresight_dnb -->
<g id="node14" class="node">
<title>l2a_boresight_dnb</title>
<polygon fill="none" stroke="black" points="876.05,-464 587.05,-464 587.05,-438 876.05,-438 888.05,-451 876.05,-464"/>
<text text-anchor="middle" x="737.55" y="-454.8" font-family="Times,serif" font-size="14.00">L2a_Astrometric CIC/Dark Current/FPN</text>
<text text-anchor="middle" x="737.55" y="-439.8" font-family="Times,serif" font-size="14.00"> or master dark 1..1</text>
</g>
<!-- l2a_boresight_dnb&#45;&gt;trans_boresight_l2a_l2b -->
<g id="edge14" class="edge">
<title>l2a_boresight_dnb&#45;&gt;trans_boresight_l2a_l2b</title>
<path fill="none" stroke="black" d="M888.3,-439.76C888.3,-439.76 969.22,-439.76 969.22,-439.76"/>
<polygon fill="black" stroke="black" points="969.22,-443.26 979.22,-439.76 969.22,-436.26 969.22,-443.26"/>
</g>
<!-- l2a_boresight_mbpm -->
<g id="node15" class="node">
<title>l2a_boresight_mbpm</title>
<polygon fill="none" stroke="black" points="888.55,-408 574.55,-408 574.55,-384 888.55,-384 900.55,-396 888.55,-408"/>
<text text-anchor="middle" x="737.55" y="-392.3" font-family="Times,serif" font-size="14.00">L2a_Astrometric master bad pixel map 1..1</text>
</g>
<!-- l2a_boresight_mbpm&#45;&gt;trans_boresight_l2a_l2b -->
<g id="edge15" class="edge">
<title>l2a_boresight_mbpm&#45;&gt;trans_boresight_l2a_l2b</title>
<path fill="none" stroke="black" d="M900.64,-396C900.64,-396 936.61,-396 936.61,-396"/>
<polygon fill="black" stroke="black" points="936.61,-399.5 946.61,-396 936.61,-392.5 936.61,-399.5"/>
</g>
<!-- l2a_boresight_ff -->
<g id="node16" class="node">
<title>l2a_boresight_ff</title>
<polygon fill="none" stroke="black" points="843.55,-354 619.55,-354 619.55,-330 843.55,-330 855.55,-342 843.55,-354"/>
<text text-anchor="middle" x="737.55" y="-338.3" font-family="Times,serif" font-size="14.00">L2a_Astrometric flat fields 1..1</text>
</g>
<!-- l2a_boresight_ff&#45;&gt;trans_boresight_l2a_l2b -->
<g id="edge16" class="edge">
<title>l2a_boresight_ff&#45;&gt;trans_boresight_l2a_l2b</title>
<path fill="none" stroke="black" d="M855.6,-342C855.6,-342 936.76,-342 936.76,-342"/>
<polygon fill="black" stroke="black" points="936.76,-345.5 946.76,-342 936.76,-338.5 936.76,-345.5"/>
</g>
<!-- l2a_boresight_emg -->
<g id="node17" class="node">
<title>l2a_boresight_emg</title>
<polygon fill="none" stroke="black" points="840.55,-300 622.55,-300 622.55,-276 840.55,-276 852.55,-288 840.55,-300"/>
<text text-anchor="middle" x="737.55" y="-284.3" font-family="Times,serif" font-size="14.00">L2a_Astrometric EM gain 1..1</text>
</g>
<!-- l2a_boresight_emg&#45;&gt;trans_boresight_l2a_l2b -->
<g id="edge17" class="edge">
<title>l2a_boresight_emg&#45;&gt;trans_boresight_l2a_l2b</title>
<path fill="none" stroke="black" d="M852.66,-298.24C852.66,-298.24 969.39,-298.24 969.39,-298.24"/>
<polygon fill="black" stroke="black" points="969.39,-301.74 979.39,-298.24 969.39,-294.74 969.39,-301.74"/>
</g>
<!-- l2a_boresight_kgain -->
<g id="node18" class="node">
<title>l2a_boresight_kgain</title>
<polygon fill="none" stroke="black" points="827.05,-246 636.05,-246 636.05,-222 827.05,-222 839.05,-234 827.05,-246"/>
<text text-anchor="middle" x="737.55" y="-230.3" font-family="Times,serif" font-size="14.00">L2_Astrometric Kgain 1..1</text>
</g>
<!-- l2a_boresight_kgain&#45;&gt;trans_boresight_l2a_l2b -->
<g id="edge10" class="edge">
<title>l2a_boresight_kgain&#45;&gt;trans_boresight_l2a_l2b</title>
<path fill="none" stroke="black" d="M839.29,-234C913.33,-234 1000.69,-234 1000.69,-234 1000.69,-234 1000.69,-277.36 1000.69,-277.36"/>
<polygon fill="black" stroke="black" points="997.19,-277.36 1000.69,-287.36 1004.19,-277.36 997.19,-277.36"/>
</g>
<!-- l2b_boresight_prod&#45;&gt;trans_boresight_l2b_aboresight -->
<g id="edge22" class="edge">
<title>l2b_boresight_prod&#45;&gt;trans_boresight_l2b_aboresight</title>
<path fill="none" stroke="black" stroke-dasharray="5,2" d="M1438.61,-429C1438.61,-429 1566.85,-429 1566.85,-429"/>
<polygon fill="black" stroke="black" points="1566.85,-432.5 1576.85,-429 1566.85,-425.5 1566.85,-432.5"/>
</g>
<!-- l2b_boresight_man&#45;&gt;trans_boresight_l2b_aboresight -->
<g id="edge23" class="edge">
<title>l2b_boresight_man&#45;&gt;trans_boresight_l2b_aboresight</title>
<path fill="none" stroke="black" d="M1466.69,-374.51C1466.69,-387.11 1466.69,-417 1466.69,-417 1466.69,-417 1584.63,-417 1584.63,-417"/>
<polygon fill="black" stroke="black" points="1584.63,-420.5 1594.63,-417 1584.63,-413.5 1584.63,-420.5"/>
</g>
<!-- l2b_boresight_odir -->
<g id="node22" class="node">
<title>l2b_boresight_odir</title>
<ellipse fill="none" stroke="black" cx="1321.58" cy="-693" rx="165.97" ry="18"/>
<text text-anchor="middle" x="1321.58" y="-689.3" font-family="Times,serif" font-size="14.00">L2b_Astrometric output path 1..1</text>
</g>
<!-- l2b_boresight_odir&#45;&gt;trans_boresight_l2b_aboresight -->
<g id="edge24" class="edge">
<title>l2b_boresight_odir&#45;&gt;trans_boresight_l2b_aboresight</title>
<path fill="none" stroke="black" d="M1457.69,-682.35C1457.69,-668.21 1457.69,-645 1457.69,-645 1457.69,-645 1584.68,-645 1584.68,-645"/>
<polygon fill="black" stroke="black" points="1584.68,-648.5 1594.68,-645 1584.68,-641.5 1584.68,-648.5"/>
</g>
<!-- l2b_boresight_rec -->
<g id="node23" class="node">
<title>l2b_boresight_rec</title>
<polygon fill="none" stroke="black" points="1417.08,-651 1214.08,-651 1214.08,-627 1417.08,-627 1429.08,-639 1417.08,-651"/>
<text text-anchor="middle" x="1321.58" y="-635.3" font-family="Times,serif" font-size="14.00">L2b_Astrometric recipe 1..1</text>
</g>
<!-- l2b_boresight_rec&#45;&gt;trans_boresight_l2b_aboresight -->
<g id="edge25" class="edge">
<title>l2b_boresight_rec&#45;&gt;trans_boresight_l2b_aboresight</title>
<path fill="none" stroke="black" d="M1429.24,-633C1429.24,-633 1566.83,-633 1566.83,-633"/>
<polygon fill="black" stroke="black" points="1566.83,-636.5 1576.83,-633 1566.83,-629.5 1566.83,-636.5"/>
</g>
<!-- l2b_boresight_excicrf -->
<g id="node24" class="node">
<title>l2b_boresight_excicrf</title>
<polygon fill="none" stroke="black" points="1473.08,-597 1158.08,-597 1158.08,-573 1473.08,-573 1485.08,-585 1473.08,-597"/>
<text text-anchor="middle" x="1321.58" y="-581.3" font-family="Times,serif" font-size="14.00">L2b_Astrometric EXCAM ICRF location 1..1</text>
</g>
<!-- l2b_boresight_excicrf&#45;&gt;trans_boresight_l2b_aboresight -->
<g id="edge26" class="edge">
<title>l2b_boresight_excicrf&#45;&gt;trans_boresight_l2b_aboresight</title>
<path fill="none" stroke="black" d="M1485.3,-585C1485.3,-585 1529.56,-585 1529.56,-585"/>
<polygon fill="black" stroke="black" points="1529.56,-588.5 1539.56,-585 1529.56,-581.5 1529.56,-588.5"/>
</g>
<!-- l2b_boresight_excfovps -->
<g id="node25" class="node">
<title>l2b_boresight_excfovps</title>
<polygon fill="none" stroke="black" points="1480.08,-543 1151.08,-543 1151.08,-519 1480.08,-519 1492.08,-531 1480.08,-543"/>
<text text-anchor="middle" x="1321.58" y="-527.3" font-family="Times,serif" font-size="14.00">L2b_Astrometric EXCAM FOV pixel scale 1..1</text>
</g>
<!-- l2b_boresight_excfovps&#45;&gt;trans_boresight_l2b_aboresight -->
<g id="edge27" class="edge">
<title>l2b_boresight_excfovps&#45;&gt;trans_boresight_l2b_aboresight</title>
<path fill="none" stroke="black" d="M1492.22,-531C1492.22,-531 1517.72,-531 1517.72,-531"/>
<polygon fill="black" stroke="black" points="1517.72,-534.5 1527.72,-531 1517.72,-527.5 1517.72,-534.5"/>
</g>
<!-- l2b_boresight_distm -->
<g id="node26" class="node">
<title>l2b_boresight_distm</title>
<polygon fill="none" stroke="black" points="1447.58,-489 1183.58,-489 1183.58,-465 1447.58,-465 1459.58,-477 1447.58,-489"/>
<text text-anchor="middle" x="1321.58" y="-473.3" font-family="Times,serif" font-size="14.00">L2b_Astrometric distortion map 1..1</text>
</g>
<!-- l2b_boresight_distm&#45;&gt;trans_boresight_l2b_aboresight -->
<g id="edge28" class="edge">
<title>l2b_boresight_distm&#45;&gt;trans_boresight_l2b_aboresight</title>
<path fill="none" stroke="black" d="M1459.75,-477C1459.75,-477 1529.55,-477 1529.55,-477"/>
<polygon fill="black" stroke="black" points="1529.55,-480.5 1539.55,-477 1529.55,-473.5 1529.55,-480.5"/>
</g>
</g>
</svg>
