<?xml version="1.0" encoding="UTF-8" standalone="no"?>
<!DOCTYPE svg PUBLIC "-//W3C//DTD SVG 1.1//EN"
 "http://www.w3.org/Graphics/SVG/1.1/DTD/svg11.dtd">
<!-- Generated by graphviz version 2.43.0 (0)
 -->
<!-- Title: LineSpreadFunctionCalibrations Pages: 1 -->
<svg width="1121pt" height="236pt"
 viewBox="0.00 0.00 1121.42 235.69" xmlns="http://www.w3.org/2000/svg" xmlns:xlink="http://www.w3.org/1999/xlink">
<g id="graph0" class="graph" transform="scale(1 1) rotate(0) translate(4 231.69)">
<title>LineSpreadFunctionCalibrations</title>
<polygon fill="white" stroke="transparent" points="-4,4 -4,-231.69 1117.42,-231.69 1117.42,4 -4,4"/>
<!-- trans_cal_lsf_l1_l2a -->
<g id="node1" class="node">
<title>trans_cal_lsf_l1_l2a</title>
<ellipse fill="none" stroke="black" cx="547.61" cy="-113.84" rx="113.69" ry="113.69"/>
<text text-anchor="middle" x="547.61" y="-125.14" font-family="Times,serif" font-size="14.00">LineSpreadFunction</text>
<text text-anchor="middle" x="547.61" y="-110.14" font-family="Times,serif" font-size="14.00">Transmutation</text>
<text text-anchor="middle" x="547.61" y="-95.14" font-family="Times,serif" font-size="14.00">L1 to L2a basic</text>
</g>
<!-- cal_lsf_prod -->
<g id="node6" class="node">
<title>cal_lsf_prod</title>
<polygon fill="none" stroke="black" points="1035.43,-212.84 775.43,-212.84 775.43,-176.84 1035.43,-176.84 1035.43,-212.84"/>
<text text-anchor="middle" x="905.43" y="-191.14" font-family="Times,serif" font-size="14.00">LineSpreadFunction products 1..1</text>
</g>
<!-- trans_cal_lsf_l1_l2a&#45;&gt;cal_lsf_prod -->
<g id="edge5" class="edge">
<title>trans_cal_lsf_l1_l2a&#45;&gt;cal_lsf_prod</title>
<path fill="none" stroke="black" stroke-dasharray="5,2" d="M627.91,-194.84C627.91,-194.84 765.19,-194.84 765.19,-194.84"/>
<polygon fill="black" stroke="black" points="765.19,-198.34 775.19,-194.84 765.19,-191.34 765.19,-198.34"/>
</g>
<!-- cal_lsf_log -->
<g id="node7" class="node">
<title>cal_lsf_log</title>
<ellipse fill="none" stroke="black" cx="905.43" cy="-140.84" rx="142.17" ry="18"/>
<text text-anchor="middle" x="905.43" y="-137.14" font-family="Times,serif" font-size="14.00">LineSpreadFunction log 1..1</text>
</g>
<!-- trans_cal_lsf_l1_l2a&#45;&gt;cal_lsf_log -->
<g id="edge8" class="edge">
<title>trans_cal_lsf_l1_l2a&#45;&gt;cal_lsf_log</title>
<path fill="none" stroke="black" stroke-dasharray="5,2" d="M658.38,-140.84C658.38,-140.84 752.89,-140.84 752.89,-140.84"/>
<polygon fill="black" stroke="black" points="752.89,-144.34 762.89,-140.84 752.89,-137.34 752.89,-144.34"/>
</g>
<!-- cal_lsf_man -->
<g id="node8" class="node">
<title>cal_lsf_man</title>
<ellipse fill="none" stroke="black" cx="905.43" cy="-86.84" rx="207.96" ry="18"/>
<text text-anchor="middle" x="905.43" y="-83.14" font-family="Times,serif" font-size="14.00">LineSpreadFunction product manifest 1..1</text>
</g>
<!-- trans_cal_lsf_l1_l2a&#45;&gt;cal_lsf_man -->
<g id="edge6" class="edge">
<title>trans_cal_lsf_l1_l2a&#45;&gt;cal_lsf_man</title>
<path fill="none" stroke="black" d="M658.38,-86.84C658.38,-86.84 687.21,-86.84 687.21,-86.84"/>
<polygon fill="black" stroke="black" points="687.21,-90.34 697.21,-86.84 687.21,-83.34 687.21,-90.34"/>
</g>
<!-- cal_lsf_src -->
<g id="node9" class="node">
<title>cal_lsf_src</title>
<ellipse fill="none" stroke="black" cx="905.43" cy="-32.84" rx="202.26" ry="18"/>
<text text-anchor="middle" x="905.43" y="-29.14" font-family="Times,serif" font-size="14.00">LineSpreadFunction source manifest 1..1</text>
</g>
<!-- trans_cal_lsf_l1_l2a&#45;&gt;cal_lsf_src -->
<g id="edge7" class="edge">
<title>trans_cal_lsf_l1_l2a&#45;&gt;cal_lsf_src</title>
<path fill="none" stroke="black" d="M627.91,-32.84C627.91,-32.84 693.12,-32.84 693.12,-32.84"/>
<polygon fill="black" stroke="black" points="693.12,-36.34 703.12,-32.84 693.12,-29.34 693.12,-36.34"/>
</g>
<!-- l1_cal_lsf_prod -->
<g id="node2" class="node">
<title>l1_cal_lsf_prod</title>
<polygon fill="none" stroke="black" points="341.38,-212.84 56.38,-212.84 56.38,-176.84 341.38,-176.84 341.38,-212.84"/>
<text text-anchor="middle" x="198.88" y="-191.14" font-family="Times,serif" font-size="14.00">L1_LineSpreadFunction products 1..b</text>
</g>
<!-- l1_cal_lsf_prod&#45;&gt;trans_cal_lsf_l1_l2a -->
<g id="edge1" class="edge">
<title>l1_cal_lsf_prod&#45;&gt;trans_cal_lsf_l1_l2a</title>
<path fill="none" stroke="black" stroke-dasharray="5,2" d="M341.48,-194.84C341.48,-194.84 457.31,-194.84 457.31,-194.84"/>
<polygon fill="black" stroke="black" points="457.31,-198.34 467.31,-194.84 457.31,-191.34 457.31,-198.34"/>
</g>
<!-- l1_cal_lsf_man -->
<g id="node3" class="node">
<title>l1_cal_lsf_man</title>
<ellipse fill="none" stroke="black" cx="198.88" cy="-140.84" rx="184.67" ry="18"/>
<text text-anchor="middle" x="198.88" y="-137.14" font-family="Times,serif" font-size="14.00">L1_LineSpreadFunction manifest 1..1</text>
</g>
<!-- l1_cal_lsf_man&#45;&gt;trans_cal_lsf_l1_l2a -->
<g id="edge2" class="edge">
<title>l1_cal_lsf_man&#45;&gt;trans_cal_lsf_l1_l2a</title>
<path fill="none" stroke="black" d="M383.71,-140.84C383.71,-140.84 426.82,-140.84 426.82,-140.84"/>
<polygon fill="black" stroke="black" points="426.82,-144.34 436.82,-140.84 426.82,-137.34 426.82,-144.34"/>
</g>
<!-- l1_cal_lsf_odir -->
<g id="node4" class="node">
<title>l1_cal_lsf_odir</title>
<ellipse fill="none" stroke="black" cx="198.88" cy="-86.84" rx="198.76" ry="18"/>
<text text-anchor="middle" x="198.88" y="-83.14" font-family="Times,serif" font-size="14.00">L1_LineSpreadFunction output path 1..1</text>
</g>
<!-- l1_cal_lsf_odir&#45;&gt;trans_cal_lsf_l1_l2a -->
<g id="edge3" class="edge">
<title>l1_cal_lsf_odir&#45;&gt;trans_cal_lsf_l1_l2a</title>
<path fill="none" stroke="black" d="M397.95,-86.84C397.95,-86.84 426.91,-86.84 426.91,-86.84"/>
<polygon fill="black" stroke="black" points="426.91,-90.34 436.91,-86.84 426.91,-83.34 426.91,-90.34"/>
</g>
<!-- l1_cal_lsf_rec -->
<g id="node5" class="node">
<title>l1_cal_lsf_rec</title>
<polygon fill="none" stroke="black" points="319.88,-44.84 65.88,-44.84 65.88,-20.84 319.88,-20.84 331.88,-32.84 319.88,-44.84"/>
<text text-anchor="middle" x="198.88" y="-29.14" font-family="Times,serif" font-size="14.00">L1_LineSpreadFunction recipe 1..1</text>
</g>
<!-- l1_cal_lsf_rec&#45;&gt;trans_cal_lsf_l1_l2a -->
<g id="edge4" class="edge">
<title>l1_cal_lsf_rec&#45;&gt;trans_cal_lsf_l1_l2a</title>
<path fill="none" stroke="black" d="M332.21,-32.84C332.21,-32.84 457.38,-32.84 457.38,-32.84"/>
<polygon fill="black" stroke="black" points="457.38,-36.34 467.38,-32.84 457.38,-29.34 457.38,-36.34"/>
</g>
</g>
</svg>
