<?xml version="1.0" encoding="UTF-8" standalone="no"?>
<!DOCTYPE svg PUBLIC "-//W3C//DTD SVG 1.1//EN"
 "http://www.w3.org/Graphics/SVG/1.1/DTD/svg11.dtd">
<!-- Generated by graphviz version 2.43.0 (0)
 -->
<!-- Title: NDImagingFilterCalibration Pages: 1 -->
<svg width="2574pt" height="773pt"
 viewBox="0.00 0.00 2574.43 773.00" xmlns="http://www.w3.org/2000/svg" xmlns:xlink="http://www.w3.org/1999/xlink">
<g id="graph0" class="graph" transform="scale(1 1) rotate(0) translate(4 769)">
<title>NDImagingFilterCalibration</title>
<polygon fill="white" stroke="transparent" points="-4,4 -4,-769 2570.43,-769 2570.43,4 -4,4"/>
<!-- trans_cal_ndfiltimg_l1_l2a -->
<g id="node1" class="node">
<title>trans_cal_ndfiltimg_l1_l2a</title>
<ellipse fill="none" stroke="black" cx="519.51" cy="-126" rx="103.89" ry="103.89"/>
<text text-anchor="middle" x="519.51" y="-137.3" font-family="Times,serif" font-size="14.00">ND Imaging Filter</text>
<text text-anchor="middle" x="519.51" y="-122.3" font-family="Times,serif" font-size="14.00">Transmutation</text>
<text text-anchor="middle" x="519.51" y="-107.3" font-family="Times,serif" font-size="14.00">L1 to L2a basic</text>
</g>
<!-- l2a_cal_ndfiltimg_prod -->
<g id="node9" class="node">
<title>l2a_cal_ndfiltimg_prod</title>
<polygon fill="none" stroke="black" points="1018.64,-225 739.64,-225 739.64,-189 1018.64,-189 1018.64,-225"/>
<text text-anchor="middle" x="879.14" y="-203.3" font-family="Times,serif" font-size="14.00">L2a_ND Imaging Filter products 1..b</text>
</g>
<!-- trans_cal_ndfiltimg_l1_l2a&#45;&gt;l2a_cal_ndfiltimg_prod -->
<g id="edge6" class="edge">
<title>trans_cal_ndfiltimg_l1_l2a&#45;&gt;l2a_cal_ndfiltimg_prod</title>
<path fill="none" stroke="black" stroke-dasharray="5,2" d="M585.05,-207C585.05,-207 729.55,-207 729.55,-207"/>
<polygon fill="black" stroke="black" points="729.55,-210.5 739.55,-207 729.55,-203.5 729.55,-210.5"/>
</g>
<!-- l2a_cal_ndfiltimg_man -->
<g id="node10" class="node">
<title>l2a_cal_ndfiltimg_man</title>
<ellipse fill="none" stroke="black" cx="879.14" cy="-153" rx="219.86" ry="18"/>
<text text-anchor="middle" x="879.14" y="-149.3" font-family="Times,serif" font-size="14.00">L2a_ND Imaging Filter product manifest 1..1</text>
</g>
<!-- trans_cal_ndfiltimg_l1_l2a&#45;&gt;l2a_cal_ndfiltimg_man -->
<g id="edge7" class="edge">
<title>trans_cal_ndfiltimg_l1_l2a&#45;&gt;l2a_cal_ndfiltimg_man</title>
<path fill="none" stroke="black" d="M620.16,-153C620.16,-153 649.15,-153 649.15,-153"/>
<polygon fill="black" stroke="black" points="649.15,-156.5 659.15,-153 649.15,-149.5 649.15,-156.5"/>
</g>
<!-- l2a_cal_ndfiltimg_src -->
<g id="node11" class="node">
<title>l2a_cal_ndfiltimg_src</title>
<ellipse fill="none" stroke="black" cx="879.14" cy="-99" rx="214.46" ry="18"/>
<text text-anchor="middle" x="879.14" y="-95.3" font-family="Times,serif" font-size="14.00">L2a_ND Imaging Filter source manifest 1..1</text>
</g>
<!-- trans_cal_ndfiltimg_l1_l2a&#45;&gt;l2a_cal_ndfiltimg_src -->
<g id="edge8" class="edge">
<title>trans_cal_ndfiltimg_l1_l2a&#45;&gt;l2a_cal_ndfiltimg_src</title>
<path fill="none" stroke="black" d="M620.16,-99C620.16,-99 654.53,-99 654.53,-99"/>
<polygon fill="black" stroke="black" points="654.53,-102.5 664.53,-99 654.53,-95.5 654.53,-102.5"/>
</g>
<!-- l2a_cal_ndfiltimg_log -->
<g id="node20" class="node">
<title>l2a_cal_ndfiltimg_log</title>
<ellipse fill="none" stroke="black" cx="879.14" cy="-45" rx="154.87" ry="18"/>
<text text-anchor="middle" x="879.14" y="-41.3" font-family="Times,serif" font-size="14.00">L2a_ND Imaging Filter log 1..1</text>
</g>
<!-- trans_cal_ndfiltimg_l1_l2a&#45;&gt;l2a_cal_ndfiltimg_log -->
<g id="edge9" class="edge">
<title>trans_cal_ndfiltimg_l1_l2a&#45;&gt;l2a_cal_ndfiltimg_log</title>
<path fill="none" stroke="black" stroke-dasharray="5,2" d="M585.05,-45C585.05,-45 714.45,-45 714.45,-45"/>
<polygon fill="black" stroke="black" points="714.45,-48.5 724.45,-45 714.45,-41.5 714.45,-48.5"/>
</g>
<!-- trans_cal_ndfiltimg_l2a_l2b -->
<g id="node2" class="node">
<title>trans_cal_ndfiltimg_l2a_l2b</title>
<ellipse fill="none" stroke="black" cx="1238.76" cy="-396" rx="103.89" ry="103.89"/>
<text text-anchor="middle" x="1238.76" y="-407.3" font-family="Times,serif" font-size="14.00">ND Imaging Filter</text>
<text text-anchor="middle" x="1238.76" y="-392.3" font-family="Times,serif" font-size="14.00">Transmutation</text>
<text text-anchor="middle" x="1238.76" y="-377.3" font-family="Times,serif" font-size="14.00">L2a to L2b</text>
</g>
<!-- l2b_cal_ndfiltimg_prod -->
<g id="node21" class="node">
<title>l2b_cal_ndfiltimg_prod</title>
<polygon fill="none" stroke="black" points="1739.04,-495 1459.04,-495 1459.04,-459 1739.04,-459 1739.04,-495"/>
<text text-anchor="middle" x="1599.04" y="-473.3" font-family="Times,serif" font-size="14.00">L2b_ND Imaging Filter products 1..1</text>
</g>
<!-- trans_cal_ndfiltimg_l2a_l2b&#45;&gt;l2b_cal_ndfiltimg_prod -->
<g id="edge20" class="edge">
<title>trans_cal_ndfiltimg_l2a_l2b&#45;&gt;l2b_cal_ndfiltimg_prod</title>
<path fill="none" stroke="black" stroke-dasharray="5,2" d="M1304,-477C1304,-477 1448.89,-477 1448.89,-477"/>
<polygon fill="black" stroke="black" points="1448.89,-480.5 1458.89,-477 1448.89,-473.5 1448.89,-480.5"/>
</g>
<!-- l2b_cal_ndfiltimg_man -->
<g id="node22" class="node">
<title>l2b_cal_ndfiltimg_man</title>
<ellipse fill="none" stroke="black" cx="1599.04" cy="-423" rx="220.16" ry="18"/>
<text text-anchor="middle" x="1599.04" y="-419.3" font-family="Times,serif" font-size="14.00">L2b_ND Imaging Filter product manifest 1..1</text>
</g>
<!-- trans_cal_ndfiltimg_l2a_l2b&#45;&gt;l2b_cal_ndfiltimg_man -->
<g id="edge22" class="edge">
<title>trans_cal_ndfiltimg_l2a_l2b&#45;&gt;l2b_cal_ndfiltimg_man</title>
<path fill="none" stroke="black" d="M1339.6,-423C1339.6,-423 1368.65,-423 1368.65,-423"/>
<polygon fill="black" stroke="black" points="1368.65,-426.5 1378.65,-423 1368.65,-419.5 1368.65,-426.5"/>
</g>
<!-- l2b_cal_ndfiltimg_src -->
<g id="node23" class="node">
<title>l2b_cal_ndfiltimg_src</title>
<ellipse fill="none" stroke="black" cx="1599.04" cy="-369" rx="215.26" ry="18"/>
<text text-anchor="middle" x="1599.04" y="-365.3" font-family="Times,serif" font-size="14.00">L2b_ND Imaging Filter source manifest 1..1</text>
</g>
<!-- trans_cal_ndfiltimg_l2a_l2b&#45;&gt;l2b_cal_ndfiltimg_src -->
<g id="edge23" class="edge">
<title>trans_cal_ndfiltimg_l2a_l2b&#45;&gt;l2b_cal_ndfiltimg_src</title>
<path fill="none" stroke="black" d="M1339.6,-369C1339.6,-369 1373.71,-369 1373.71,-369"/>
<polygon fill="black" stroke="black" points="1373.71,-372.5 1383.71,-369 1373.71,-365.5 1373.71,-372.5"/>
</g>
<!-- l2b_cal_ndfiltimg_log -->
<g id="node29" class="node">
<title>l2b_cal_ndfiltimg_log</title>
<ellipse fill="none" stroke="black" cx="1599.04" cy="-315" rx="155.17" ry="18"/>
<text text-anchor="middle" x="1599.04" y="-311.3" font-family="Times,serif" font-size="14.00">L2b_ND Imaging Filter log 1..1</text>
</g>
<!-- trans_cal_ndfiltimg_l2a_l2b&#45;&gt;l2b_cal_ndfiltimg_log -->
<g id="edge21" class="edge">
<title>trans_cal_ndfiltimg_l2a_l2b&#45;&gt;l2b_cal_ndfiltimg_log</title>
<path fill="none" stroke="black" stroke-dasharray="5,2" d="M1304,-315C1304,-315 1433.36,-315 1433.36,-315"/>
<polygon fill="black" stroke="black" points="1433.36,-318.5 1443.36,-315 1433.36,-311.5 1433.36,-318.5"/>
</g>
<!-- trans_cal_ndfiltimg_l2b_ctp -->
<g id="node3" class="node">
<title>trans_cal_ndfiltimg_l2b_ctp</title>
<ellipse fill="none" stroke="black" cx="1994.67" cy="-585" rx="139.1" ry="139.1"/>
<text text-anchor="middle" x="1994.67" y="-596.3" font-family="Times,serif" font-size="14.00">ND Imaging Filter</text>
<text text-anchor="middle" x="1994.67" y="-581.3" font-family="Times,serif" font-size="14.00">Transmutation</text>
<text text-anchor="middle" x="1994.67" y="-566.3" font-family="Times,serif" font-size="14.00">L2b to ND Imaging Filter</text>
</g>
<!-- cal_ndfiltimg_prod -->
<g id="node30" class="node">
<title>cal_ndfiltimg_prod</title>
<polygon fill="none" stroke="black" points="2491.2,-684 2245.2,-684 2245.2,-648 2491.2,-648 2491.2,-684"/>
<text text-anchor="middle" x="2368.2" y="-662.3" font-family="Times,serif" font-size="14.00">ND Imaging Filter products 1..1</text>
</g>
<!-- trans_cal_ndfiltimg_l2b_ctp&#45;&gt;cal_ndfiltimg_prod -->
<g id="edge31" class="edge">
<title>trans_cal_ndfiltimg_l2b_ctp&#45;&gt;cal_ndfiltimg_prod</title>
<path fill="none" stroke="black" stroke-dasharray="5,2" d="M2108.01,-666C2108.01,-666 2234.91,-666 2234.91,-666"/>
<polygon fill="black" stroke="black" points="2234.91,-669.5 2244.91,-666 2234.91,-662.5 2234.91,-669.5"/>
</g>
<!-- cal_ndfiltimg_log -->
<g id="node31" class="node">
<title>cal_ndfiltimg_log</title>
<ellipse fill="none" stroke="black" cx="2368.2" cy="-612" rx="133.48" ry="18"/>
<text text-anchor="middle" x="2368.2" y="-608.3" font-family="Times,serif" font-size="14.00">ND Imaging Filter log 1..1</text>
</g>
<!-- trans_cal_ndfiltimg_l2b_ctp&#45;&gt;cal_ndfiltimg_log -->
<g id="edge32" class="edge">
<title>trans_cal_ndfiltimg_l2b_ctp&#45;&gt;cal_ndfiltimg_log</title>
<path fill="none" stroke="black" stroke-dasharray="5,2" d="M2131.37,-612C2131.37,-612 2224.81,-612 2224.81,-612"/>
<polygon fill="black" stroke="black" points="2224.81,-615.5 2234.81,-612 2224.81,-608.5 2224.81,-615.5"/>
</g>
<!-- cal_ndfiltimg_man -->
<g id="node32" class="node">
<title>cal_ndfiltimg_man</title>
<ellipse fill="none" stroke="black" cx="2368.2" cy="-558" rx="198.47" ry="18"/>
<text text-anchor="middle" x="2368.2" y="-554.3" font-family="Times,serif" font-size="14.00">ND Imaging Filter product manifest 1..1</text>
</g>
<!-- trans_cal_ndfiltimg_l2b_ctp&#45;&gt;cal_ndfiltimg_man -->
<g id="edge33" class="edge">
<title>trans_cal_ndfiltimg_l2b_ctp&#45;&gt;cal_ndfiltimg_man</title>
<path fill="none" stroke="black" d="M2131.37,-558C2131.37,-558 2159.91,-558 2159.91,-558"/>
<polygon fill="black" stroke="black" points="2159.91,-561.5 2169.91,-558 2159.91,-554.5 2159.91,-561.5"/>
</g>
<!-- cal_ndfiltimg_src -->
<g id="node33" class="node">
<title>cal_ndfiltimg_src</title>
<ellipse fill="none" stroke="black" cx="2368.2" cy="-504" rx="193.07" ry="18"/>
<text text-anchor="middle" x="2368.2" y="-500.3" font-family="Times,serif" font-size="14.00">ND Imaging Filter source manifest 1..1</text>
</g>
<!-- trans_cal_ndfiltimg_l2b_ctp&#45;&gt;cal_ndfiltimg_src -->
<g id="edge34" class="edge">
<title>trans_cal_ndfiltimg_l2b_ctp&#45;&gt;cal_ndfiltimg_src</title>
<path fill="none" stroke="black" d="M2108.01,-504C2108.01,-504 2164.92,-504 2164.92,-504"/>
<polygon fill="black" stroke="black" points="2164.92,-507.5 2174.92,-504 2164.92,-500.5 2164.92,-507.5"/>
</g>
<!-- l1_cal_ndfiltimg_prod -->
<g id="node4" class="node">
<title>l1_cal_ndfiltimg_prod</title>
<polygon fill="none" stroke="black" points="325.28,-252 54.28,-252 54.28,-216 325.28,-216 325.28,-252"/>
<text text-anchor="middle" x="189.78" y="-230.3" font-family="Times,serif" font-size="14.00">L1_ND Imaging Filter products 1..b</text>
</g>
<!-- l1_cal_ndfiltimg_prod&#45;&gt;trans_cal_ndfiltimg_l1_l2a -->
<g id="edge1" class="edge">
<title>l1_cal_ndfiltimg_prod&#45;&gt;trans_cal_ndfiltimg_l1_l2a</title>
<path fill="none" stroke="black" stroke-dasharray="5,2" d="M325.32,-222.97C325.32,-222.97 472.05,-222.97 472.05,-222.97"/>
<polygon fill="black" stroke="black" points="472.05,-226.47 482.05,-222.97 472.05,-219.47 472.05,-226.47"/>
</g>
<!-- l1_cal_ndfiltimg_man -->
<g id="node5" class="node">
<title>l1_cal_ndfiltimg_man</title>
<ellipse fill="none" stroke="black" cx="189.78" cy="-180" rx="175.47" ry="18"/>
<text text-anchor="middle" x="189.78" y="-176.3" font-family="Times,serif" font-size="14.00">L1_ND Imaging Filter manifest 1..1</text>
</g>
<!-- l1_cal_ndfiltimg_man&#45;&gt;trans_cal_ndfiltimg_l1_l2a -->
<g id="edge2" class="edge">
<title>l1_cal_ndfiltimg_man&#45;&gt;trans_cal_ndfiltimg_l1_l2a</title>
<path fill="none" stroke="black" d="M365.75,-180C365.75,-180 420.47,-180 420.47,-180"/>
<polygon fill="black" stroke="black" points="420.47,-183.5 430.47,-180 420.47,-176.5 420.47,-183.5"/>
</g>
<!-- l1_cal_ndfiltimg_odir -->
<g id="node6" class="node">
<title>l1_cal_ndfiltimg_odir</title>
<ellipse fill="none" stroke="black" cx="189.78" cy="-126" rx="189.57" ry="18"/>
<text text-anchor="middle" x="189.78" y="-122.3" font-family="Times,serif" font-size="14.00">L1_ND Imaging Filter output path 1..1</text>
</g>
<!-- l1_cal_ndfiltimg_odir&#45;&gt;trans_cal_ndfiltimg_l1_l2a -->
<g id="edge3" class="edge">
<title>l1_cal_ndfiltimg_odir&#45;&gt;trans_cal_ndfiltimg_l1_l2a</title>
<path fill="none" stroke="black" d="M379.68,-126C379.68,-126 405.35,-126 405.35,-126"/>
<polygon fill="black" stroke="black" points="405.35,-129.5 415.35,-126 405.35,-122.5 405.35,-129.5"/>
</g>
<!-- l1_cal_ndfiltimg_rec -->
<g id="node7" class="node">
<title>l1_cal_ndfiltimg_rec</title>
<polygon fill="none" stroke="black" points="303.78,-84 63.78,-84 63.78,-60 303.78,-60 315.78,-72 303.78,-84"/>
<text text-anchor="middle" x="189.78" y="-68.3" font-family="Times,serif" font-size="14.00">L1_ND Imaging Filter recipe 1..1</text>
</g>
<!-- l1_cal_ndfiltimg_rec&#45;&gt;trans_cal_ndfiltimg_l1_l2a -->
<g id="edge4" class="edge">
<title>l1_cal_ndfiltimg_rec&#45;&gt;trans_cal_ndfiltimg_l1_l2a</title>
<path fill="none" stroke="black" d="M315.85,-72C315.85,-72 420.63,-72 420.63,-72"/>
<polygon fill="black" stroke="black" points="420.63,-75.5 430.63,-72 420.63,-68.5 420.63,-75.5"/>
</g>
<!-- l1_cal_ndfiltimg_nllut -->
<g id="node8" class="node">
<title>l1_cal_ndfiltimg_nllut</title>
<polygon fill="none" stroke="black" points="334.78,-30 32.78,-30 32.78,-6 334.78,-6 346.78,-18 334.78,-30"/>
<text text-anchor="middle" x="189.78" y="-14.3" font-family="Times,serif" font-size="14.00">L1_ND Imaging Filter non&#45;linear LUT 1..1</text>
</g>
<!-- l1_cal_ndfiltimg_nllut&#45;&gt;trans_cal_ndfiltimg_l1_l2a -->
<g id="edge5" class="edge">
<title>l1_cal_ndfiltimg_nllut&#45;&gt;trans_cal_ndfiltimg_l1_l2a</title>
<path fill="none" stroke="black" d="M346.92,-29.03C346.92,-29.03 471.84,-29.03 471.84,-29.03"/>
<polygon fill="black" stroke="black" points="471.84,-32.53 481.84,-29.03 471.84,-25.53 471.84,-32.53"/>
</g>
<!-- l2a_cal_ndfiltimg_prod&#45;&gt;trans_cal_ndfiltimg_l2a_l2b -->
<g id="edge10" class="edge">
<title>l2a_cal_ndfiltimg_prod&#45;&gt;trans_cal_ndfiltimg_l2a_l2b</title>
<path fill="none" stroke="black" stroke-dasharray="5,2" d="M1018.71,-207C1132.13,-207 1273.43,-207 1273.43,-207 1273.43,-207 1273.43,-287.9 1273.43,-287.9"/>
<polygon fill="black" stroke="black" points="1269.93,-287.9 1273.43,-297.9 1276.93,-287.9 1269.93,-287.9"/>
</g>
<!-- l2a_cal_ndfiltimg_man&#45;&gt;trans_cal_ndfiltimg_l2a_l2b -->
<g id="edge19" class="edge">
<title>l2a_cal_ndfiltimg_man&#45;&gt;trans_cal_ndfiltimg_l2a_l2b</title>
<path fill="none" stroke="black" d="M1087.43,-158.92C1087.43,-187.42 1087.43,-309 1087.43,-309 1087.43,-309 1171.55,-309 1171.55,-309"/>
<polygon fill="black" stroke="black" points="1171.55,-312.5 1181.55,-309 1171.55,-305.5 1171.55,-312.5"/>
</g>
<!-- l2a_cal_ndfiltimg_odir -->
<g id="node12" class="node">
<title>l2a_cal_ndfiltimg_odir</title>
<ellipse fill="none" stroke="black" cx="879.14" cy="-641" rx="194.97" ry="18"/>
<text text-anchor="middle" x="879.14" y="-637.3" font-family="Times,serif" font-size="14.00">L2a_ND Imaging Filter output path 1..1</text>
</g>
<!-- l2a_cal_ndfiltimg_odir&#45;&gt;trans_cal_ndfiltimg_l2a_l2b -->
<g id="edge12" class="edge">
<title>l2a_cal_ndfiltimg_odir&#45;&gt;trans_cal_ndfiltimg_l2a_l2b</title>
<path fill="none" stroke="black" d="M1073.97,-640C1173.31,-640 1273.43,-640 1273.43,-640 1273.43,-640 1273.43,-504.19 1273.43,-504.19"/>
<polygon fill="black" stroke="black" points="1276.93,-504.19 1273.43,-494.19 1269.93,-504.19 1276.93,-504.19"/>
</g>
<!-- l2a_cal_ndfiltimg_rec -->
<g id="node13" class="node">
<title>l2a_cal_ndfiltimg_rec</title>
<polygon fill="none" stroke="black" points="997.14,-599 749.14,-599 749.14,-575 997.14,-575 1009.14,-587 997.14,-599"/>
<text text-anchor="middle" x="879.14" y="-583.3" font-family="Times,serif" font-size="14.00">L2a_ND Imaging Filter recipe 1..1</text>
</g>
<!-- l2a_cal_ndfiltimg_rec&#45;&gt;trans_cal_ndfiltimg_l2a_l2b -->
<g id="edge13" class="edge">
<title>l2a_cal_ndfiltimg_rec&#45;&gt;trans_cal_ndfiltimg_l2a_l2b</title>
<path fill="none" stroke="black" d="M1009.57,-586C1100.07,-586 1204.43,-586 1204.43,-586 1204.43,-586 1204.43,-504.34 1204.43,-504.34"/>
<polygon fill="black" stroke="black" points="1207.93,-504.34 1204.43,-494.34 1200.93,-504.34 1207.93,-504.34"/>
</g>
<!-- l2a_cal_ndfiltimg_cti -->
<g id="node14" class="node">
<title>l2a_cal_ndfiltimg_cti</title>
<polygon fill="none" stroke="black" points="1058.64,-545 687.64,-545 687.64,-521 1058.64,-521 1070.64,-533 1058.64,-545"/>
<text text-anchor="middle" x="879.14" y="-529.3" font-family="Times,serif" font-size="14.00">L2a_ND Imaging Filter charge xfer inefficiency 1..1</text>
</g>
<!-- l2a_cal_ndfiltimg_cti&#45;&gt;trans_cal_ndfiltimg_l2a_l2b -->
<g id="edge14" class="edge">
<title>l2a_cal_ndfiltimg_cti&#45;&gt;trans_cal_ndfiltimg_l2a_l2b</title>
<path fill="none" stroke="black" d="M1059.43,-514.88C1059.43,-501.04 1059.43,-484.33 1059.43,-484.33 1059.43,-484.33 1173.49,-484.33 1173.49,-484.33"/>
<polygon fill="black" stroke="black" points="1173.49,-487.83 1183.49,-484.33 1173.49,-480.83 1173.49,-487.83"/>
</g>
<!-- l2a_cal_ndfiltimg_dnb -->
<g id="node15" class="node">
<title>l2a_cal_ndfiltimg_dnb</title>
<polygon fill="none" stroke="black" points="1040.64,-491 705.64,-491 705.64,-465 1040.64,-465 1052.64,-478 1040.64,-491"/>
<text text-anchor="middle" x="879.14" y="-481.8" font-family="Times,serif" font-size="14.00">L2a_ND Imaging Filter CIC/Dark Current/FPN</text>
<text text-anchor="middle" x="879.14" y="-466.8" font-family="Times,serif" font-size="14.00"> or master dark 1..1</text>
</g>
<!-- l2a_cal_ndfiltimg_dnb&#45;&gt;trans_cal_ndfiltimg_l2a_l2b -->
<g id="edge15" class="edge">
<title>l2a_cal_ndfiltimg_dnb&#45;&gt;trans_cal_ndfiltimg_l2a_l2b</title>
<path fill="none" stroke="black" d="M1052.89,-471.67C1052.89,-471.67 1157.09,-471.67 1157.09,-471.67"/>
<polygon fill="black" stroke="black" points="1157.09,-475.17 1167.09,-471.67 1157.09,-468.17 1157.09,-475.17"/>
</g>
<!-- l2a_cal_ndfiltimg_mbpm -->
<g id="node16" class="node">
<title>l2a_cal_ndfiltimg_mbpm</title>
<polygon fill="none" stroke="black" points="1052.64,-435 693.64,-435 693.64,-411 1052.64,-411 1064.64,-423 1052.64,-435"/>
<text text-anchor="middle" x="879.14" y="-419.3" font-family="Times,serif" font-size="14.00">L2a_ND Imaging Filter master bad pixel map 1..1</text>
</g>
<!-- l2a_cal_ndfiltimg_mbpm&#45;&gt;trans_cal_ndfiltimg_l2a_l2b -->
<g id="edge16" class="edge">
<title>l2a_cal_ndfiltimg_mbpm&#45;&gt;trans_cal_ndfiltimg_l2a_l2b</title>
<path fill="none" stroke="black" d="M1064.74,-423C1064.74,-423 1128.03,-423 1128.03,-423"/>
<polygon fill="black" stroke="black" points="1128.03,-426.5 1138.03,-423 1128.03,-419.5 1128.03,-426.5"/>
</g>
<!-- l2a_cal_ndfiltimg_ff -->
<g id="node17" class="node">
<title>l2a_cal_ndfiltimg_ff</title>
<polygon fill="none" stroke="black" points="1008.14,-381 738.14,-381 738.14,-357 1008.14,-357 1020.14,-369 1008.14,-381"/>
<text text-anchor="middle" x="879.14" y="-365.3" font-family="Times,serif" font-size="14.00">L2a_ND Imaging Filter flat fields 1..1</text>
</g>
<!-- l2a_cal_ndfiltimg_ff&#45;&gt;trans_cal_ndfiltimg_l2a_l2b -->
<g id="edge17" class="edge">
<title>l2a_cal_ndfiltimg_ff&#45;&gt;trans_cal_ndfiltimg_l2a_l2b</title>
<path fill="none" stroke="black" d="M1020.24,-369C1020.24,-369 1128.34,-369 1128.34,-369"/>
<polygon fill="black" stroke="black" points="1128.34,-372.5 1138.34,-369 1128.34,-365.5 1128.34,-372.5"/>
</g>
<!-- l2a_cal_ndfiltimg_emg -->
<g id="node18" class="node">
<title>l2a_cal_ndfiltimg_emg</title>
<polygon fill="none" stroke="black" points="1005.14,-327 741.14,-327 741.14,-303 1005.14,-303 1017.14,-315 1005.14,-327"/>
<text text-anchor="middle" x="879.14" y="-311.3" font-family="Times,serif" font-size="14.00">L2a_ND Imaging Filter EM gain 1..1</text>
</g>
<!-- l2a_cal_ndfiltimg_emg&#45;&gt;trans_cal_ndfiltimg_l2a_l2b -->
<g id="edge18" class="edge">
<title>l2a_cal_ndfiltimg_emg&#45;&gt;trans_cal_ndfiltimg_l2a_l2b</title>
<path fill="none" stroke="black" d="M1017.15,-321C1017.15,-321 1156.49,-321 1156.49,-321"/>
<polygon fill="black" stroke="black" points="1156.49,-324.5 1166.49,-321 1156.49,-317.5 1156.49,-324.5"/>
</g>
<!-- l2a_cal_ndfiltimg_kgain -->
<g id="node19" class="node">
<title>l2a_cal_ndfiltimg_kgain</title>
<polygon fill="none" stroke="black" points="991.64,-273 754.64,-273 754.64,-249 991.64,-249 1003.64,-261 991.64,-273"/>
<text text-anchor="middle" x="879.14" y="-257.3" font-family="Times,serif" font-size="14.00">L2_ND Imaging Filter Kgain 1..1</text>
</g>
<!-- l2a_cal_ndfiltimg_kgain&#45;&gt;trans_cal_ndfiltimg_l2a_l2b -->
<g id="edge11" class="edge">
<title>l2a_cal_ndfiltimg_kgain&#45;&gt;trans_cal_ndfiltimg_l2a_l2b</title>
<path fill="none" stroke="black" d="M1003.97,-261C1095.71,-261 1204.43,-261 1204.43,-261 1204.43,-261 1204.43,-287.53 1204.43,-287.53"/>
<polygon fill="black" stroke="black" points="1200.93,-287.53 1204.43,-297.53 1207.93,-287.53 1200.93,-287.53"/>
</g>
<!-- l2b_cal_ndfiltimg_prod&#45;&gt;trans_cal_ndfiltimg_l2b_ctp -->
<g id="edge24" class="edge">
<title>l2b_cal_ndfiltimg_prod&#45;&gt;trans_cal_ndfiltimg_l2b_ctp</title>
<path fill="none" stroke="black" stroke-dasharray="5,2" d="M1739.08,-477C1739.08,-477 1896.62,-477 1896.62,-477"/>
<polygon fill="black" stroke="black" points="1896.62,-480.5 1906.62,-477 1896.62,-473.5 1896.62,-480.5"/>
</g>
<!-- l2b_cal_ndfiltimg_man&#45;&gt;trans_cal_ndfiltimg_l2b_ctp -->
<g id="edge25" class="edge">
<title>l2b_cal_ndfiltimg_man&#45;&gt;trans_cal_ndfiltimg_l2b_ctp</title>
<path fill="none" stroke="black" d="M1807.43,-428.94C1807.43,-437.52 1807.43,-452.35 1807.43,-452.35 1807.43,-452.35 1941.71,-452.35 1941.71,-452.35"/>
<polygon fill="black" stroke="black" points="1941.71,-455.85 1951.71,-452.35 1941.71,-448.85 1941.71,-455.85"/>
</g>
<!-- l2b_cal_ndfiltimg_odir -->
<g id="node24" class="node">
<title>l2b_cal_ndfiltimg_odir</title>
<ellipse fill="none" stroke="black" cx="1599.04" cy="-747" rx="195.77" ry="18"/>
<text text-anchor="middle" x="1599.04" y="-743.3" font-family="Times,serif" font-size="14.00">L2b_ND Imaging Filter output path 1..1</text>
</g>
<!-- l2b_cal_ndfiltimg_odir&#45;&gt;trans_cal_ndfiltimg_l2b_ctp -->
<g id="edge26" class="edge">
<title>l2b_cal_ndfiltimg_odir&#45;&gt;trans_cal_ndfiltimg_l2b_ctp</title>
<path fill="none" stroke="black" d="M1758.43,-736.4C1758.43,-728 1758.43,-717.65 1758.43,-717.65 1758.43,-717.65 1941.89,-717.65 1941.89,-717.65"/>
<polygon fill="black" stroke="black" points="1941.89,-721.15 1951.89,-717.65 1941.89,-714.15 1941.89,-721.15"/>
</g>
<!-- l2b_cal_ndfiltimg_rec -->
<g id="node25" class="node">
<title>l2b_cal_ndfiltimg_rec</title>
<polygon fill="none" stroke="black" points="1717.54,-705 1468.54,-705 1468.54,-681 1717.54,-681 1729.54,-693 1717.54,-705"/>
<text text-anchor="middle" x="1599.04" y="-689.3" font-family="Times,serif" font-size="14.00">L2b_ND Imaging Filter recipe 1..1</text>
</g>
<!-- l2b_cal_ndfiltimg_rec&#45;&gt;trans_cal_ndfiltimg_l2b_ctp -->
<g id="edge27" class="edge">
<title>l2b_cal_ndfiltimg_rec&#45;&gt;trans_cal_ndfiltimg_l2b_ctp</title>
<path fill="none" stroke="black" d="M1729.68,-693C1729.68,-693 1896.6,-693 1896.6,-693"/>
<polygon fill="black" stroke="black" points="1896.6,-696.5 1906.6,-693 1896.6,-689.5 1896.6,-696.5"/>
</g>
<!-- l2b_cal_ndfiltimg_excicrf -->
<g id="node26" class="node">
<title>l2b_cal_ndfiltimg_excicrf</title>
<polygon fill="none" stroke="black" points="1773.54,-651 1412.54,-651 1412.54,-627 1773.54,-627 1785.54,-639 1773.54,-651"/>
<text text-anchor="middle" x="1599.04" y="-635.3" font-family="Times,serif" font-size="14.00">L2b_ND Imaging Filter EXCAM ICRF location 1..1</text>
</g>
<!-- l2b_cal_ndfiltimg_excicrf&#45;&gt;trans_cal_ndfiltimg_l2b_ctp -->
<g id="edge28" class="edge">
<title>l2b_cal_ndfiltimg_excicrf&#45;&gt;trans_cal_ndfiltimg_l2b_ctp</title>
<path fill="none" stroke="black" d="M1785.56,-639C1785.56,-639 1856.04,-639 1856.04,-639"/>
<polygon fill="black" stroke="black" points="1856.04,-642.5 1866.04,-639 1856.04,-635.5 1856.04,-642.5"/>
</g>
<!-- l2b_cal_ndfiltimg_excfovps -->
<g id="node27" class="node">
<title>l2b_cal_ndfiltimg_excfovps</title>
<polygon fill="none" stroke="black" points="1780.04,-597 1406.04,-597 1406.04,-573 1780.04,-573 1792.04,-585 1780.04,-597"/>
<text text-anchor="middle" x="1599.04" y="-581.3" font-family="Times,serif" font-size="14.00">L2b_ND Imaging Filter EXCAM FOV pixel scale 1..1</text>
</g>
<!-- l2b_cal_ndfiltimg_excfovps&#45;&gt;trans_cal_ndfiltimg_l2b_ctp -->
<g id="edge29" class="edge">
<title>l2b_cal_ndfiltimg_excfovps&#45;&gt;trans_cal_ndfiltimg_l2b_ctp</title>
<path fill="none" stroke="black" d="M1792.22,-585C1792.22,-585 1845.29,-585 1845.29,-585"/>
<polygon fill="black" stroke="black" points="1845.29,-588.5 1855.29,-585 1845.29,-581.5 1845.29,-588.5"/>
</g>
<!-- l2b_cal_ndfiltimg_distm -->
<g id="node28" class="node">
<title>l2b_cal_ndfiltimg_distm</title>
<polygon fill="none" stroke="black" points="1748.04,-543 1438.04,-543 1438.04,-519 1748.04,-519 1760.04,-531 1748.04,-543"/>
<text text-anchor="middle" x="1599.04" y="-527.3" font-family="Times,serif" font-size="14.00">L2b_ND Imaging Filter distortion map 1..1</text>
</g>
<!-- l2b_cal_ndfiltimg_distm&#45;&gt;trans_cal_ndfiltimg_l2b_ctp -->
<g id="edge30" class="edge">
<title>l2b_cal_ndfiltimg_distm&#45;&gt;trans_cal_ndfiltimg_l2b_ctp</title>
<path fill="none" stroke="black" d="M1760.24,-531C1760.24,-531 1856.2,-531 1856.2,-531"/>
<polygon fill="black" stroke="black" points="1856.2,-534.5 1866.2,-531 1856.2,-527.5 1856.2,-534.5"/>
</g>
</g>
</svg>
