<?xml version="1.0" encoding="UTF-8" standalone="no"?>
<!DOCTYPE svg PUBLIC "-//W3C//DTD SVG 1.1//EN"
 "http://www.w3.org/Graphics/SVG/1.1/DTD/svg11.dtd">
<!-- Generated by graphviz version 2.43.0 (0)
 -->
<!-- Title: Astrometric Pages: 1 -->
<svg width="2254pt" height="773pt"
 viewBox="0.00 0.00 2254.41 773.00" xmlns="http://www.w3.org/2000/svg" xmlns:xlink="http://www.w3.org/1999/xlink">
<g id="graph0" class="graph" transform="scale(1 1) rotate(0) translate(4 769)">
<title>Astrometric</title>
<polygon fill="white" stroke="transparent" points="-4,4 -4,-769 2250.41,-769 2250.41,4 -4,4"/>
<!-- trans_cal_boresight_l1_l2a -->
<g id="node1" class="node">
<title>trans_cal_boresight_l1_l2a</title>
<ellipse fill="none" stroke="black" cx="444.16" cy="-126" rx="88.28" ry="88.28"/>
<text text-anchor="middle" x="444.16" y="-137.3" font-family="Times,serif" font-size="14.00">Astrometric</text>
<text text-anchor="middle" x="444.16" y="-122.3" font-family="Times,serif" font-size="14.00">Transmutation</text>
<text text-anchor="middle" x="444.16" y="-107.3" font-family="Times,serif" font-size="14.00">L1 to L2a basic</text>
</g>
<!-- l2a_cal_boresight_prod -->
<g id="node9" class="node">
<title>l2a_cal_boresight_prod</title>
<polygon fill="none" stroke="black" points="875.48,-225 642.48,-225 642.48,-189 875.48,-189 875.48,-225"/>
<text text-anchor="middle" x="758.98" y="-203.3" font-family="Times,serif" font-size="14.00">L2a_Astrometric products 1..b</text>
</g>
<!-- trans_cal_boresight_l1_l2a&#45;&gt;l2a_cal_boresight_prod -->
<g id="edge6" class="edge">
<title>trans_cal_boresight_l1_l2a&#45;&gt;l2a_cal_boresight_prod</title>
<path fill="none" stroke="black" stroke-dasharray="5,2" d="M489.94,-201.69C489.94,-201.69 632.46,-201.69 632.46,-201.69"/>
<polygon fill="black" stroke="black" points="632.46,-205.19 642.46,-201.69 632.46,-198.19 632.46,-205.19"/>
</g>
<!-- l2a_cal_boresight_man -->
<g id="node10" class="node">
<title>l2a_cal_boresight_man</title>
<ellipse fill="none" stroke="black" cx="758.98" cy="-153" rx="190.37" ry="18"/>
<text text-anchor="middle" x="758.98" y="-149.3" font-family="Times,serif" font-size="14.00">L2a_Astrometric product manifest 1..1</text>
</g>
<!-- trans_cal_boresight_l1_l2a&#45;&gt;l2a_cal_boresight_man -->
<g id="edge7" class="edge">
<title>trans_cal_boresight_l1_l2a&#45;&gt;l2a_cal_boresight_man</title>
<path fill="none" stroke="black" d="M528.53,-153C528.53,-153 558.48,-153 558.48,-153"/>
<polygon fill="black" stroke="black" points="558.48,-156.5 568.48,-153 558.48,-149.5 558.48,-156.5"/>
</g>
<!-- l2a_cal_boresight_src -->
<g id="node11" class="node">
<title>l2a_cal_boresight_src</title>
<ellipse fill="none" stroke="black" cx="758.98" cy="-99" rx="163.27" ry="18"/>
<text text-anchor="middle" x="758.98" y="-95.3" font-family="Times,serif" font-size="14.00">Astrometric source manifest 1..1</text>
</g>
<!-- trans_cal_boresight_l1_l2a&#45;&gt;l2a_cal_boresight_src -->
<g id="edge8" class="edge">
<title>trans_cal_boresight_l1_l2a&#45;&gt;l2a_cal_boresight_src</title>
<path fill="none" stroke="black" d="M528.53,-99C528.53,-99 585.66,-99 585.66,-99"/>
<polygon fill="black" stroke="black" points="585.66,-102.5 595.66,-99 585.66,-95.5 585.66,-102.5"/>
</g>
<!-- l2a_cal_boresight_log -->
<g id="node20" class="node">
<title>l2a_cal_boresight_log</title>
<ellipse fill="none" stroke="black" cx="758.98" cy="-45" rx="124.58" ry="18"/>
<text text-anchor="middle" x="758.98" y="-41.3" font-family="Times,serif" font-size="14.00">L2a_Astrometric log 1..1</text>
</g>
<!-- trans_cal_boresight_l1_l2a&#45;&gt;l2a_cal_boresight_log -->
<g id="edge9" class="edge">
<title>trans_cal_boresight_l1_l2a&#45;&gt;l2a_cal_boresight_log</title>
<path fill="none" stroke="black" stroke-dasharray="5,2" d="M489.94,-50.31C489.94,-50.31 629.73,-50.31 629.73,-50.31"/>
<polygon fill="black" stroke="black" points="629.73,-53.81 639.73,-50.31 629.73,-46.81 629.73,-53.81"/>
</g>
<!-- trans_cal_boresight_l2a_l2b -->
<g id="node2" class="node">
<title>trans_cal_boresight_l2a_l2b</title>
<ellipse fill="none" stroke="black" cx="1071.68" cy="-396" rx="86.03" ry="86.03"/>
<text text-anchor="middle" x="1071.68" y="-407.3" font-family="Times,serif" font-size="14.00">Astrometric</text>
<text text-anchor="middle" x="1071.68" y="-392.3" font-family="Times,serif" font-size="14.00">Transmutation</text>
<text text-anchor="middle" x="1071.68" y="-377.3" font-family="Times,serif" font-size="14.00">L2a to L2b</text>
</g>
<!-- l2b_cal_boresight_prod -->
<g id="node21" class="node">
<title>l2b_cal_boresight_prod</title>
<polygon fill="none" stroke="black" points="1501.38,-495 1267.38,-495 1267.38,-459 1501.38,-459 1501.38,-495"/>
<text text-anchor="middle" x="1384.38" y="-473.3" font-family="Times,serif" font-size="14.00">L2b_Astrometric products 1..1</text>
</g>
<!-- trans_cal_boresight_l2a_l2b&#45;&gt;l2b_cal_boresight_prod -->
<g id="edge20" class="edge">
<title>trans_cal_boresight_l2a_l2b&#45;&gt;l2b_cal_boresight_prod</title>
<path fill="none" stroke="black" stroke-dasharray="5,2" d="M1115.16,-470.63C1115.16,-470.63 1257.19,-470.63 1257.19,-470.63"/>
<polygon fill="black" stroke="black" points="1257.19,-474.13 1267.19,-470.63 1257.19,-467.13 1257.19,-474.13"/>
</g>
<!-- l2b_cal_boresight_man -->
<g id="node22" class="node">
<title>l2b_cal_boresight_man</title>
<ellipse fill="none" stroke="black" cx="1384.38" cy="-423" rx="190.37" ry="18"/>
<text text-anchor="middle" x="1384.38" y="-419.3" font-family="Times,serif" font-size="14.00">L2a_Astrometric product manifest 1..1</text>
</g>
<!-- trans_cal_boresight_l2a_l2b&#45;&gt;l2b_cal_boresight_man -->
<g id="edge22" class="edge">
<title>trans_cal_boresight_l2a_l2b&#45;&gt;l2b_cal_boresight_man</title>
<path fill="none" stroke="black" d="M1153.84,-423C1153.84,-423 1183.91,-423 1183.91,-423"/>
<polygon fill="black" stroke="black" points="1183.91,-426.5 1193.91,-423 1183.91,-419.5 1183.91,-426.5"/>
</g>
<!-- l2b_cal_boresight_src -->
<g id="node23" class="node">
<title>l2b_cal_boresight_src</title>
<ellipse fill="none" stroke="black" cx="1384.38" cy="-369" rx="163.27" ry="18"/>
<text text-anchor="middle" x="1384.38" y="-365.3" font-family="Times,serif" font-size="14.00">Astrometric source manifest 1..1</text>
</g>
<!-- trans_cal_boresight_l2a_l2b&#45;&gt;l2b_cal_boresight_src -->
<g id="edge23" class="edge">
<title>trans_cal_boresight_l2a_l2b&#45;&gt;l2b_cal_boresight_src</title>
<path fill="none" stroke="black" d="M1153.84,-369C1153.84,-369 1211.04,-369 1211.04,-369"/>
<polygon fill="black" stroke="black" points="1211.04,-372.5 1221.04,-369 1211.04,-365.5 1211.04,-372.5"/>
</g>
<!-- l2b_cal_boresight_log -->
<g id="node29" class="node">
<title>l2b_cal_boresight_log</title>
<ellipse fill="none" stroke="black" cx="1384.38" cy="-315" rx="125.38" ry="18"/>
<text text-anchor="middle" x="1384.38" y="-311.3" font-family="Times,serif" font-size="14.00">L2b_Astrometric log 1..1</text>
</g>
<!-- trans_cal_boresight_l2a_l2b&#45;&gt;l2b_cal_boresight_log -->
<g id="edge21" class="edge">
<title>trans_cal_boresight_l2a_l2b&#45;&gt;l2b_cal_boresight_log</title>
<path fill="none" stroke="black" stroke-dasharray="5,2" d="M1115.16,-321.37C1115.16,-321.37 1256.85,-321.37 1256.85,-321.37"/>
<polygon fill="black" stroke="black" points="1256.85,-324.87 1266.85,-321.37 1256.85,-317.87 1256.85,-324.87"/>
</g>
<!-- trans_cal_boresight_l2b_aboresight -->
<g id="node3" class="node">
<title>trans_cal_boresight_l2b_aboresight</title>
<ellipse fill="none" stroke="black" cx="1741.63" cy="-585" rx="130.63" ry="130.63"/>
<text text-anchor="middle" x="1741.63" y="-596.3" font-family="Times,serif" font-size="14.00">Astrometric</text>
<text text-anchor="middle" x="1741.63" y="-581.3" font-family="Times,serif" font-size="14.00">Transmutation</text>
<text text-anchor="middle" x="1741.63" y="-566.3" font-family="Times,serif" font-size="14.00">L2b to CoreAstrometric</text>
</g>
<!-- cal_boresight_prod -->
<g id="node30" class="node">
<title>cal_boresight_prod</title>
<polygon fill="none" stroke="black" points="2177.43,-684 1977.43,-684 1977.43,-648 2177.43,-648 2177.43,-684"/>
<text text-anchor="middle" x="2077.43" y="-662.3" font-family="Times,serif" font-size="14.00">Astrometric products 1..1</text>
</g>
<!-- trans_cal_boresight_l2b_aboresight&#45;&gt;cal_boresight_prod -->
<g id="edge31" class="edge">
<title>trans_cal_boresight_l2b_aboresight&#45;&gt;cal_boresight_prod</title>
<path fill="none" stroke="black" stroke-dasharray="5,2" d="M1844.66,-666C1844.66,-666 1967.18,-666 1967.18,-666"/>
<polygon fill="black" stroke="black" points="1967.18,-669.5 1977.18,-666 1967.18,-662.5 1967.18,-669.5"/>
</g>
<!-- cal_boresight_log -->
<g id="node31" class="node">
<title>cal_boresight_log</title>
<ellipse fill="none" stroke="black" cx="2077.43" cy="-612" rx="103.18" ry="18"/>
<text text-anchor="middle" x="2077.43" y="-608.3" font-family="Times,serif" font-size="14.00">Astrometric log 1..1</text>
</g>
<!-- trans_cal_boresight_l2b_aboresight&#45;&gt;cal_boresight_log -->
<g id="edge34" class="edge">
<title>trans_cal_boresight_l2b_aboresight&#45;&gt;cal_boresight_log</title>
<path fill="none" stroke="black" stroke-dasharray="5,2" d="M1870.02,-612C1870.02,-612 1963.87,-612 1963.87,-612"/>
<polygon fill="black" stroke="black" points="1963.87,-615.5 1973.87,-612 1963.87,-608.5 1963.87,-615.5"/>
</g>
<!-- cal_boresight_man -->
<g id="node32" class="node">
<title>cal_boresight_man</title>
<ellipse fill="none" stroke="black" cx="2077.43" cy="-558" rx="168.97" ry="18"/>
<text text-anchor="middle" x="2077.43" y="-554.3" font-family="Times,serif" font-size="14.00">Astrometric product manifest 1..1</text>
</g>
<!-- trans_cal_boresight_l2b_aboresight&#45;&gt;cal_boresight_man -->
<g id="edge32" class="edge">
<title>trans_cal_boresight_l2b_aboresight&#45;&gt;cal_boresight_man</title>
<path fill="none" stroke="black" d="M1870.02,-558C1870.02,-558 1898.43,-558 1898.43,-558"/>
<polygon fill="black" stroke="black" points="1898.43,-561.5 1908.43,-558 1898.43,-554.5 1898.43,-561.5"/>
</g>
<!-- cal_boresight_src -->
<g id="node33" class="node">
<title>cal_boresight_src</title>
<ellipse fill="none" stroke="black" cx="2077.43" cy="-504" rx="163.27" ry="18"/>
<text text-anchor="middle" x="2077.43" y="-500.3" font-family="Times,serif" font-size="14.00">Astrometric source manifest 1..1</text>
</g>
<!-- trans_cal_boresight_l2b_aboresight&#45;&gt;cal_boresight_src -->
<g id="edge33" class="edge">
<title>trans_cal_boresight_l2b_aboresight&#45;&gt;cal_boresight_src</title>
<path fill="none" stroke="black" d="M1844.66,-504C1844.66,-504 1903.98,-504 1903.98,-504"/>
<polygon fill="black" stroke="black" points="1903.98,-507.5 1913.98,-504 1903.98,-500.5 1903.98,-507.5"/>
</g>
<!-- l1_cal_boresight_prod -->
<g id="node4" class="node">
<title>l1_cal_boresight_prod</title>
<polygon fill="none" stroke="black" points="272.39,-252 47.39,-252 47.39,-216 272.39,-216 272.39,-252"/>
<text text-anchor="middle" x="159.89" y="-230.3" font-family="Times,serif" font-size="14.00">L1_Astrometric products 1..b</text>
</g>
<!-- l1_cal_boresight_prod&#45;&gt;trans_cal_boresight_l1_l2a -->
<g id="edge1" class="edge">
<title>l1_cal_boresight_prod&#45;&gt;trans_cal_boresight_l1_l2a</title>
<path fill="none" stroke="black" stroke-dasharray="5,2" d="M272.75,-220.5C352.19,-220.5 444.41,-220.5 444.41,-220.5 444.41,-220.5 444.41,-219.91 444.41,-219.91"/>
<polygon fill="black" stroke="black" points="447.91,-224.59 444.41,-214.59 440.91,-224.59 447.91,-224.59"/>
</g>
<!-- l1_cal_boresight_man -->
<g id="node5" class="node">
<title>l1_cal_boresight_man</title>
<ellipse fill="none" stroke="black" cx="159.89" cy="-180" rx="145.67" ry="18"/>
<text text-anchor="middle" x="159.89" y="-176.3" font-family="Times,serif" font-size="14.00">L1_Astrometric manifest 1..1</text>
</g>
<!-- l1_cal_boresight_man&#45;&gt;trans_cal_boresight_l1_l2a -->
<g id="edge2" class="edge">
<title>l1_cal_boresight_man&#45;&gt;trans_cal_boresight_l1_l2a</title>
<path fill="none" stroke="black" d="M305.77,-180C305.77,-180 363.87,-180 363.87,-180"/>
<polygon fill="black" stroke="black" points="363.87,-183.5 373.87,-180 363.87,-176.5 363.87,-183.5"/>
</g>
<!-- l1_cal_boresight_odir -->
<g id="node6" class="node">
<title>l1_cal_boresight_odir</title>
<ellipse fill="none" stroke="black" cx="159.89" cy="-126" rx="159.77" ry="18"/>
<text text-anchor="middle" x="159.89" y="-122.3" font-family="Times,serif" font-size="14.00">L1_Astrometric output path 1..1</text>
</g>
<!-- l1_cal_boresight_odir&#45;&gt;trans_cal_boresight_l1_l2a -->
<g id="edge3" class="edge">
<title>l1_cal_boresight_odir&#45;&gt;trans_cal_boresight_l1_l2a</title>
<path fill="none" stroke="black" d="M319.89,-126C319.89,-126 345.72,-126 345.72,-126"/>
<polygon fill="black" stroke="black" points="345.72,-129.5 355.72,-126 345.72,-122.5 345.72,-129.5"/>
</g>
<!-- l1_cal_boresight_rec -->
<g id="node7" class="node">
<title>l1_cal_boresight_rec</title>
<polygon fill="none" stroke="black" points="250.89,-84 56.89,-84 56.89,-60 250.89,-60 262.89,-72 250.89,-84"/>
<text text-anchor="middle" x="159.89" y="-68.3" font-family="Times,serif" font-size="14.00">L1_Astrometric recipe 1..1</text>
</g>
<!-- l1_cal_boresight_rec&#45;&gt;trans_cal_boresight_l1_l2a -->
<g id="edge4" class="edge">
<title>l1_cal_boresight_rec&#45;&gt;trans_cal_boresight_l1_l2a</title>
<path fill="none" stroke="black" d="M262.92,-72C262.92,-72 363.91,-72 363.91,-72"/>
<polygon fill="black" stroke="black" points="363.91,-75.5 373.91,-72 363.91,-68.5 363.91,-75.5"/>
</g>
<!-- l1_cal_boresight_nllut -->
<g id="node8" class="node">
<title>l1_cal_boresight_nllut</title>
<polygon fill="none" stroke="black" points="281.89,-30 25.89,-30 25.89,-6 281.89,-6 293.89,-18 281.89,-30"/>
<text text-anchor="middle" x="159.89" y="-14.3" font-family="Times,serif" font-size="14.00">L1_Astrometric non&#45;linear LUT 1..1</text>
</g>
<!-- l1_cal_boresight_nllut&#45;&gt;trans_cal_boresight_l1_l2a -->
<g id="edge5" class="edge">
<title>l1_cal_boresight_nllut&#45;&gt;trans_cal_boresight_l1_l2a</title>
<path fill="none" stroke="black" d="M278.41,-36.08C278.41,-41.39 278.41,-45.81 278.41,-45.81 278.41,-45.81 396.96,-45.81 396.96,-45.81"/>
<polygon fill="black" stroke="black" points="396.96,-49.31 406.96,-45.81 396.96,-42.31 396.96,-49.31"/>
</g>
<!-- l2a_cal_boresight_prod&#45;&gt;trans_cal_boresight_l2a_l2b -->
<g id="edge10" class="edge">
<title>l2a_cal_boresight_prod&#45;&gt;trans_cal_boresight_l2a_l2b</title>
<path fill="none" stroke="black" stroke-dasharray="5,2" d="M875.87,-207C975.07,-207 1101.41,-207 1101.41,-207 1101.41,-207 1101.41,-304.75 1101.41,-304.75"/>
<polygon fill="black" stroke="black" points="1097.91,-304.75 1101.41,-314.75 1104.91,-304.75 1097.91,-304.75"/>
</g>
<!-- l2a_cal_boresight_man&#45;&gt;trans_cal_boresight_l2a_l2b -->
<g id="edge19" class="edge">
<title>l2a_cal_boresight_man&#45;&gt;trans_cal_boresight_l2a_l2b</title>
<path fill="none" stroke="black" d="M939.41,-158.85C939.41,-188.16 939.41,-317.49 939.41,-317.49 939.41,-317.49 1025.89,-317.49 1025.89,-317.49"/>
<polygon fill="black" stroke="black" points="1025.89,-320.99 1035.89,-317.49 1025.89,-313.99 1025.89,-320.99"/>
</g>
<!-- l2a_cal_boresight_odir -->
<g id="node12" class="node">
<title>l2a_cal_boresight_odir</title>
<ellipse fill="none" stroke="black" cx="758.98" cy="-641" rx="165.17" ry="18"/>
<text text-anchor="middle" x="758.98" y="-637.3" font-family="Times,serif" font-size="14.00">L2a_Astrometric output path 1..1</text>
</g>
<!-- l2a_cal_boresight_odir&#45;&gt;trans_cal_boresight_l2a_l2b -->
<g id="edge12" class="edge">
<title>l2a_cal_boresight_odir&#45;&gt;trans_cal_boresight_l2a_l2b</title>
<path fill="none" stroke="black" d="M923.93,-640C1011.57,-640 1101.41,-640 1101.41,-640 1101.41,-640 1101.41,-487.25 1101.41,-487.25"/>
<polygon fill="black" stroke="black" points="1104.91,-487.25 1101.41,-477.25 1097.91,-487.25 1104.91,-487.25"/>
</g>
<!-- l2a_cal_boresight_rec -->
<g id="node13" class="node">
<title>l2a_cal_boresight_rec</title>
<polygon fill="none" stroke="black" points="854.48,-599 651.48,-599 651.48,-575 854.48,-575 866.48,-587 854.48,-599"/>
<text text-anchor="middle" x="758.98" y="-583.3" font-family="Times,serif" font-size="14.00">L2a_Astrometric recipe 1..1</text>
</g>
<!-- l2a_cal_boresight_rec&#45;&gt;trans_cal_boresight_l2a_l2b -->
<g id="edge13" class="edge">
<title>l2a_cal_boresight_rec&#45;&gt;trans_cal_boresight_l2a_l2b</title>
<path fill="none" stroke="black" d="M866.51,-586C947.06,-586 1043.41,-586 1043.41,-586 1043.41,-586 1043.41,-487.68 1043.41,-487.68"/>
<polygon fill="black" stroke="black" points="1046.91,-487.68 1043.41,-477.68 1039.91,-487.68 1046.91,-487.68"/>
</g>
<!-- l2a_cal_boresight_cti -->
<g id="node14" class="node">
<title>l2a_cal_boresight_cti</title>
<polygon fill="none" stroke="black" points="915.98,-545 589.98,-545 589.98,-521 915.98,-521 927.98,-533 915.98,-545"/>
<text text-anchor="middle" x="758.98" y="-529.3" font-family="Times,serif" font-size="14.00">L2a_Astrometric charge xfer inefficiency 1..1</text>
</g>
<!-- l2a_cal_boresight_cti&#45;&gt;trans_cal_boresight_l2a_l2b -->
<g id="edge14" class="edge">
<title>l2a_cal_boresight_cti&#45;&gt;trans_cal_boresight_l2a_l2b</title>
<path fill="none" stroke="black" d="M916.41,-514.81C916.41,-497.64 916.41,-474.51 916.41,-474.51 916.41,-474.51 1025.67,-474.51 1025.67,-474.51"/>
<polygon fill="black" stroke="black" points="1025.67,-478.01 1035.67,-474.51 1025.67,-471.01 1025.67,-478.01"/>
</g>
<!-- l2a_cal_boresight_dnb -->
<g id="node15" class="node">
<title>l2a_cal_boresight_dnb</title>
<polygon fill="none" stroke="black" points="897.48,-491 608.48,-491 608.48,-465 897.48,-465 909.48,-478 897.48,-491"/>
<text text-anchor="middle" x="758.98" y="-481.8" font-family="Times,serif" font-size="14.00">L2a_Astrometric CIC/Dark Current/FPN</text>
<text text-anchor="middle" x="758.98" y="-466.8" font-family="Times,serif" font-size="14.00"> or master dark 1..1</text>
</g>
<!-- l2a_cal_boresight_dnb&#45;&gt;trans_cal_boresight_l2a_l2b -->
<g id="edge15" class="edge">
<title>l2a_cal_boresight_dnb&#45;&gt;trans_cal_boresight_l2a_l2b</title>
<path fill="none" stroke="black" d="M909.84,-466.76C909.84,-466.76 1012.17,-466.76 1012.17,-466.76"/>
<polygon fill="black" stroke="black" points="1012.17,-470.26 1022.17,-466.76 1012.17,-463.26 1012.17,-470.26"/>
</g>
<!-- l2a_cal_boresight_mbpm -->
<g id="node16" class="node">
<title>l2a_cal_boresight_mbpm</title>
<polygon fill="none" stroke="black" points="909.98,-435 595.98,-435 595.98,-411 909.98,-411 921.98,-423 909.98,-435"/>
<text text-anchor="middle" x="758.98" y="-419.3" font-family="Times,serif" font-size="14.00">L2a_Astrometric master bad pixel map 1..1</text>
</g>
<!-- l2a_cal_boresight_mbpm&#45;&gt;trans_cal_boresight_l2a_l2b -->
<g id="edge16" class="edge">
<title>l2a_cal_boresight_mbpm&#45;&gt;trans_cal_boresight_l2a_l2b</title>
<path fill="none" stroke="black" d="M922.2,-423C922.2,-423 979.67,-423 979.67,-423"/>
<polygon fill="black" stroke="black" points="979.67,-426.5 989.67,-423 979.67,-419.5 979.67,-426.5"/>
</g>
<!-- l2a_cal_boresight_ff -->
<g id="node17" class="node">
<title>l2a_cal_boresight_ff</title>
<polygon fill="none" stroke="black" points="864.98,-381 640.98,-381 640.98,-357 864.98,-357 876.98,-369 864.98,-381"/>
<text text-anchor="middle" x="758.98" y="-365.3" font-family="Times,serif" font-size="14.00">L2a_Astrometric flat fields 1..1</text>
</g>
<!-- l2a_cal_boresight_ff&#45;&gt;trans_cal_boresight_l2a_l2b -->
<g id="edge17" class="edge">
<title>l2a_cal_boresight_ff&#45;&gt;trans_cal_boresight_l2a_l2b</title>
<path fill="none" stroke="black" d="M877.2,-369C877.2,-369 979.29,-369 979.29,-369"/>
<polygon fill="black" stroke="black" points="979.29,-372.5 989.29,-369 979.29,-365.5 979.29,-372.5"/>
</g>
<!-- l2a_cal_boresight_emg -->
<g id="node18" class="node">
<title>l2a_cal_boresight_emg</title>
<polygon fill="none" stroke="black" points="861.98,-327 643.98,-327 643.98,-303 861.98,-303 873.98,-315 861.98,-327"/>
<text text-anchor="middle" x="758.98" y="-311.3" font-family="Times,serif" font-size="14.00">L2a_Astrometric EM gain 1..1</text>
</g>
<!-- l2a_cal_boresight_emg&#45;&gt;trans_cal_boresight_l2a_l2b -->
<g id="edge18" class="edge">
<title>l2a_cal_boresight_emg&#45;&gt;trans_cal_boresight_l2a_l2b</title>
<path fill="none" stroke="black" d="M874.09,-325.24C874.09,-325.24 1012.16,-325.24 1012.16,-325.24"/>
<polygon fill="black" stroke="black" points="1012.16,-328.74 1022.16,-325.24 1012.16,-321.74 1012.16,-328.74"/>
</g>
<!-- l2a_cal_boresight_kgain -->
<g id="node19" class="node">
<title>l2a_cal_boresight_kgain</title>
<polygon fill="none" stroke="black" points="848.48,-273 657.48,-273 657.48,-249 848.48,-249 860.48,-261 848.48,-273"/>
<text text-anchor="middle" x="758.98" y="-257.3" font-family="Times,serif" font-size="14.00">L2_Astrometric Kgain 1..1</text>
</g>
<!-- l2a_cal_boresight_kgain&#45;&gt;trans_cal_boresight_l2a_l2b -->
<g id="edge11" class="edge">
<title>l2a_cal_boresight_kgain&#45;&gt;trans_cal_boresight_l2a_l2b</title>
<path fill="none" stroke="black" d="M860.86,-261C942.48,-261 1043.41,-261 1043.41,-261 1043.41,-261 1043.41,-304.36 1043.41,-304.36"/>
<polygon fill="black" stroke="black" points="1039.91,-304.36 1043.41,-314.36 1046.91,-304.36 1039.91,-304.36"/>
</g>
<!-- l2b_cal_boresight_prod&#45;&gt;trans_cal_boresight_l2b_aboresight -->
<g id="edge24" class="edge">
<title>l2b_cal_boresight_prod&#45;&gt;trans_cal_boresight_l2b_aboresight</title>
<path fill="none" stroke="black" stroke-dasharray="5,2" d="M1501.85,-483C1501.85,-483 1649.69,-483 1649.69,-483"/>
<polygon fill="black" stroke="black" points="1649.69,-486.5 1659.69,-483 1649.69,-479.5 1649.69,-486.5"/>
</g>
<!-- l2b_cal_boresight_man&#45;&gt;trans_cal_boresight_l2b_aboresight -->
<g id="edge25" class="edge">
<title>l2b_cal_boresight_man&#45;&gt;trans_cal_boresight_l2b_aboresight</title>
<path fill="none" stroke="black" d="M1565.41,-428.89C1565.41,-441.7 1565.41,-471 1565.41,-471 1565.41,-471 1667.01,-471 1667.01,-471"/>
<polygon fill="black" stroke="black" points="1667.01,-474.5 1677.01,-471 1667.01,-467.5 1667.01,-474.5"/>
</g>
<!-- l2b_cal_boresight_odir -->
<g id="node24" class="node">
<title>l2b_cal_boresight_odir</title>
<ellipse fill="none" stroke="black" cx="1384.38" cy="-747" rx="165.97" ry="18"/>
<text text-anchor="middle" x="1384.38" y="-743.3" font-family="Times,serif" font-size="14.00">L2b_Astrometric output path 1..1</text>
</g>
<!-- l2b_cal_boresight_odir&#45;&gt;trans_cal_boresight_l2b_aboresight -->
<g id="edge26" class="edge">
<title>l2b_cal_boresight_odir&#45;&gt;trans_cal_boresight_l2b_aboresight</title>
<path fill="none" stroke="black" d="M1520.41,-736.35C1520.41,-722.21 1520.41,-699 1520.41,-699 1520.41,-699 1667.35,-699 1667.35,-699"/>
<polygon fill="black" stroke="black" points="1667.35,-702.5 1677.35,-699 1667.35,-695.5 1667.35,-702.5"/>
</g>
<!-- l2b_cal_boresight_rec -->
<g id="node25" class="node">
<title>l2b_cal_boresight_rec</title>
<polygon fill="none" stroke="black" points="1479.88,-705 1276.88,-705 1276.88,-681 1479.88,-681 1491.88,-693 1479.88,-705"/>
<text text-anchor="middle" x="1384.38" y="-689.3" font-family="Times,serif" font-size="14.00">L2b_Astrometric recipe 1..1</text>
</g>
<!-- l2b_cal_boresight_rec&#45;&gt;trans_cal_boresight_l2b_aboresight -->
<g id="edge27" class="edge">
<title>l2b_cal_boresight_rec&#45;&gt;trans_cal_boresight_l2b_aboresight</title>
<path fill="none" stroke="black" d="M1492.05,-687C1492.05,-687 1649.44,-687 1649.44,-687"/>
<polygon fill="black" stroke="black" points="1649.44,-690.5 1659.44,-687 1649.44,-683.5 1649.44,-690.5"/>
</g>
<!-- l2b_cal_boresight_excicrf -->
<g id="node26" class="node">
<title>l2b_cal_boresight_excicrf</title>
<polygon fill="none" stroke="black" points="1535.88,-651 1220.88,-651 1220.88,-627 1535.88,-627 1547.88,-639 1535.88,-651"/>
<text text-anchor="middle" x="1384.38" y="-635.3" font-family="Times,serif" font-size="14.00">L2b_Astrometric EXCAM ICRF location 1..1</text>
</g>
<!-- l2b_cal_boresight_excicrf&#45;&gt;trans_cal_boresight_l2b_aboresight -->
<g id="edge28" class="edge">
<title>l2b_cal_boresight_excicrf&#45;&gt;trans_cal_boresight_l2b_aboresight</title>
<path fill="none" stroke="black" d="M1548.11,-639C1548.11,-639 1612.47,-639 1612.47,-639"/>
<polygon fill="black" stroke="black" points="1612.47,-642.5 1622.47,-639 1612.47,-635.5 1612.47,-642.5"/>
</g>
<!-- l2b_cal_boresight_excfovps -->
<g id="node27" class="node">
<title>l2b_cal_boresight_excfovps</title>
<polygon fill="none" stroke="black" points="1542.88,-597 1213.88,-597 1213.88,-573 1542.88,-573 1554.88,-585 1542.88,-597"/>
<text text-anchor="middle" x="1384.38" y="-581.3" font-family="Times,serif" font-size="14.00">L2b_Astrometric EXCAM FOV pixel scale 1..1</text>
</g>
<!-- l2b_cal_boresight_excfovps&#45;&gt;trans_cal_boresight_l2b_aboresight -->
<g id="edge29" class="edge">
<title>l2b_cal_boresight_excfovps&#45;&gt;trans_cal_boresight_l2b_aboresight</title>
<path fill="none" stroke="black" d="M1554.9,-585C1554.9,-585 1600.72,-585 1600.72,-585"/>
<polygon fill="black" stroke="black" points="1600.72,-588.5 1610.72,-585 1600.71,-581.5 1600.72,-588.5"/>
</g>
<!-- l2b_cal_boresight_distm -->
<g id="node28" class="node">
<title>l2b_cal_boresight_distm</title>
<polygon fill="none" stroke="black" points="1510.38,-543 1246.38,-543 1246.38,-519 1510.38,-519 1522.38,-531 1510.38,-543"/>
<text text-anchor="middle" x="1384.38" y="-527.3" font-family="Times,serif" font-size="14.00">L2b_Astrometric distortion map 1..1</text>
</g>
<!-- l2b_cal_boresight_distm&#45;&gt;trans_cal_boresight_l2b_aboresight -->
<g id="edge30" class="edge">
<title>l2b_cal_boresight_distm&#45;&gt;trans_cal_boresight_l2b_aboresight</title>
<path fill="none" stroke="black" d="M1522.5,-531C1522.5,-531 1612.47,-531 1612.47,-531"/>
<polygon fill="black" stroke="black" points="1612.47,-534.5 1622.47,-531 1612.47,-527.5 1612.47,-534.5"/>
</g>
</g>
</svg>
