<?xml version="1.0" encoding="UTF-8" standalone="no"?>
<!DOCTYPE svg PUBLIC "-//W3C//DTD SVG 1.1//EN"
 "http://www.w3.org/Graphics/SVG/1.1/DTD/svg11.dtd">
<!-- Generated by graphviz version 2.43.0 (0)
 -->
<!-- Title: AbsoluteFluxCalibration Pages: 1 -->
<svg width="2029pt" height="773pt"
 viewBox="0.00 0.00 2029.17 773.00" xmlns="http://www.w3.org/2000/svg" xmlns:xlink="http://www.w3.org/1999/xlink">
<g id="graph0" class="graph" transform="scale(1 1) rotate(0) translate(4 769)">
<title>AbsoluteFluxCalibration</title>
<polygon fill="white" stroke="transparent" points="-4,4 -4,-769 2025.17,-769 2025.17,4 -4,4"/>
<!-- trans_cal_absflux_l1_l2a -->
<g id="node1" class="node">
<title>trans_cal_absflux_l1_l2a</title>
<ellipse fill="none" stroke="black" cx="409.06" cy="-126" rx="88.28" ry="88.28"/>
<text text-anchor="middle" x="409.06" y="-137.3" font-family="Times,serif" font-size="14.00">AbsFlux</text>
<text text-anchor="middle" x="409.06" y="-122.3" font-family="Times,serif" font-size="14.00">Transmutation</text>
<text text-anchor="middle" x="409.06" y="-107.3" font-family="Times,serif" font-size="14.00">L1 to L2a basic</text>
</g>
<!-- l2a_cal_absflux_prod -->
<g id="node9" class="node">
<title>l2a_cal_absflux_prod</title>
<polygon fill="none" stroke="black" points="809.34,-225 603.34,-225 603.34,-189 809.34,-189 809.34,-225"/>
<text text-anchor="middle" x="706.34" y="-203.3" font-family="Times,serif" font-size="14.00">L2a_AbsFlux products 1..b</text>
</g>
<!-- trans_cal_absflux_l1_l2a&#45;&gt;l2a_cal_absflux_prod -->
<g id="edge6" class="edge">
<title>trans_cal_absflux_l1_l2a&#45;&gt;l2a_cal_absflux_prod</title>
<path fill="none" stroke="black" stroke-dasharray="5,2" d="M454.86,-201.69C454.86,-201.69 593.18,-201.69 593.18,-201.69"/>
<polygon fill="black" stroke="black" points="593.18,-205.19 603.18,-201.69 593.18,-198.19 593.18,-205.19"/>
</g>
<!-- l2a_cal_absflux_man -->
<g id="node10" class="node">
<title>l2a_cal_absflux_man</title>
<ellipse fill="none" stroke="black" cx="706.34" cy="-153" rx="172.77" ry="18"/>
<text text-anchor="middle" x="706.34" y="-149.3" font-family="Times,serif" font-size="14.00">L2a_AbsFlux product manifest 1..1</text>
</g>
<!-- trans_cal_absflux_l1_l2a&#45;&gt;l2a_cal_absflux_man -->
<g id="edge7" class="edge">
<title>trans_cal_absflux_l1_l2a&#45;&gt;l2a_cal_absflux_man</title>
<path fill="none" stroke="black" d="M493.45,-153C493.45,-153 523.4,-153 523.4,-153"/>
<polygon fill="black" stroke="black" points="523.4,-156.5 533.4,-153 523.4,-149.5 523.4,-156.5"/>
</g>
<!-- l2a_cal_absflux_src -->
<g id="node11" class="node">
<title>l2a_cal_absflux_src</title>
<ellipse fill="none" stroke="black" cx="706.34" cy="-99" rx="167.07" ry="18"/>
<text text-anchor="middle" x="706.34" y="-95.3" font-family="Times,serif" font-size="14.00">L2a_AbsFlux source manifest 1..1</text>
</g>
<!-- trans_cal_absflux_l1_l2a&#45;&gt;l2a_cal_absflux_src -->
<g id="edge8" class="edge">
<title>trans_cal_absflux_l1_l2a&#45;&gt;l2a_cal_absflux_src</title>
<path fill="none" stroke="black" d="M493.45,-99C493.45,-99 529.27,-99 529.27,-99"/>
<polygon fill="black" stroke="black" points="529.27,-102.5 539.27,-99 529.27,-95.5 529.27,-102.5"/>
</g>
<!-- l2a_cal_absflux_log -->
<g id="node20" class="node">
<title>l2a_cal_absflux_log</title>
<ellipse fill="none" stroke="black" cx="706.34" cy="-45" rx="107.48" ry="18"/>
<text text-anchor="middle" x="706.34" y="-41.3" font-family="Times,serif" font-size="14.00">L2a_AbsFlux log 1..1</text>
</g>
<!-- trans_cal_absflux_l1_l2a&#45;&gt;l2a_cal_absflux_log -->
<g id="edge9" class="edge">
<title>trans_cal_absflux_l1_l2a&#45;&gt;l2a_cal_absflux_log</title>
<path fill="none" stroke="black" stroke-dasharray="5,2" d="M454.86,-50.31C454.86,-50.31 593.8,-50.31 593.8,-50.31"/>
<polygon fill="black" stroke="black" points="593.8,-53.81 603.8,-50.31 593.8,-46.81 593.8,-53.81"/>
</g>
<!-- trans_cal_absflux_l2a_l2b -->
<g id="node2" class="node">
<title>trans_cal_absflux_l2a_l2b</title>
<ellipse fill="none" stroke="black" cx="1001.49" cy="-396" rx="86.03" ry="86.03"/>
<text text-anchor="middle" x="1001.49" y="-407.3" font-family="Times,serif" font-size="14.00">AbsFlux</text>
<text text-anchor="middle" x="1001.49" y="-392.3" font-family="Times,serif" font-size="14.00">Transmutation</text>
<text text-anchor="middle" x="1001.49" y="-377.3" font-family="Times,serif" font-size="14.00">L2a to L2b</text>
</g>
<!-- l2b_cal_absflux_prod -->
<g id="node21" class="node">
<title>l2b_cal_absflux_prod</title>
<polygon fill="none" stroke="black" points="1400.14,-495 1193.14,-495 1193.14,-459 1400.14,-459 1400.14,-495"/>
<text text-anchor="middle" x="1296.64" y="-473.3" font-family="Times,serif" font-size="14.00">L2b_AbsFlux products 1..1</text>
</g>
<!-- trans_cal_absflux_l2a_l2b&#45;&gt;l2b_cal_absflux_prod -->
<g id="edge20" class="edge">
<title>trans_cal_absflux_l2a_l2b&#45;&gt;l2b_cal_absflux_prod</title>
<path fill="none" stroke="black" stroke-dasharray="5,2" d="M1045.04,-470.63C1045.04,-470.63 1182.9,-470.63 1182.9,-470.63"/>
<polygon fill="black" stroke="black" points="1182.9,-474.13 1192.9,-470.63 1182.9,-467.13 1182.9,-474.13"/>
</g>
<!-- l2b_cal_absflux_man -->
<g id="node22" class="node">
<title>l2b_cal_absflux_man</title>
<ellipse fill="none" stroke="black" cx="1296.64" cy="-423" rx="172.77" ry="18"/>
<text text-anchor="middle" x="1296.64" y="-419.3" font-family="Times,serif" font-size="14.00">L2b_AbsFlux product manifest 1..1</text>
</g>
<!-- trans_cal_absflux_l2a_l2b&#45;&gt;l2b_cal_absflux_man -->
<g id="edge22" class="edge">
<title>trans_cal_absflux_l2a_l2b&#45;&gt;l2b_cal_absflux_man</title>
<path fill="none" stroke="black" d="M1083.7,-423C1083.7,-423 1113.75,-423 1113.75,-423"/>
<polygon fill="black" stroke="black" points="1113.75,-426.5 1123.75,-423 1113.75,-419.5 1113.75,-426.5"/>
</g>
<!-- l2b_cal_absflux_src -->
<g id="node23" class="node">
<title>l2b_cal_absflux_src</title>
<ellipse fill="none" stroke="black" cx="1296.64" cy="-369" rx="167.87" ry="18"/>
<text text-anchor="middle" x="1296.64" y="-365.3" font-family="Times,serif" font-size="14.00">L2b_AbsFlux source manifest 1..1</text>
</g>
<!-- trans_cal_absflux_l2a_l2b&#45;&gt;l2b_cal_absflux_src -->
<g id="edge23" class="edge">
<title>trans_cal_absflux_l2a_l2b&#45;&gt;l2b_cal_absflux_src</title>
<path fill="none" stroke="black" d="M1083.7,-369C1083.7,-369 1118.78,-369 1118.78,-369"/>
<polygon fill="black" stroke="black" points="1118.78,-372.5 1128.78,-369 1118.78,-365.5 1118.78,-372.5"/>
</g>
<!-- l2b_cal_absflux_log -->
<g id="node29" class="node">
<title>l2b_cal_absflux_log</title>
<ellipse fill="none" stroke="black" cx="1296.64" cy="-315" rx="107.78" ry="18"/>
<text text-anchor="middle" x="1296.64" y="-311.3" font-family="Times,serif" font-size="14.00">L2b_AbsFlux log 1..1</text>
</g>
<!-- trans_cal_absflux_l2a_l2b&#45;&gt;l2b_cal_absflux_log -->
<g id="edge21" class="edge">
<title>trans_cal_absflux_l2a_l2b&#45;&gt;l2b_cal_absflux_log</title>
<path fill="none" stroke="black" stroke-dasharray="5,2" d="M1045.04,-321.37C1045.04,-321.37 1185.41,-321.37 1185.41,-321.37"/>
<polygon fill="black" stroke="black" points="1185.41,-324.87 1195.41,-321.37 1185.41,-317.87 1185.41,-324.87"/>
</g>
<!-- trans_cal_absflux_l2b_ctp -->
<g id="node3" class="node">
<title>trans_cal_absflux_l2b_ctp</title>
<ellipse fill="none" stroke="black" cx="1593.91" cy="-585" rx="88.28" ry="88.28"/>
<text text-anchor="middle" x="1593.91" y="-596.3" font-family="Times,serif" font-size="14.00">AbsFlux</text>
<text text-anchor="middle" x="1593.91" y="-581.3" font-family="Times,serif" font-size="14.00">Transmutation</text>
<text text-anchor="middle" x="1593.91" y="-566.3" font-family="Times,serif" font-size="14.00">L2b to AbsFlux</text>
</g>
<!-- cal_absflux_prod -->
<g id="node30" class="node">
<title>cal_absflux_prod</title>
<polygon fill="none" stroke="black" points="1956.24,-684 1783.24,-684 1783.24,-648 1956.24,-648 1956.24,-684"/>
<text text-anchor="middle" x="1869.74" y="-662.3" font-family="Times,serif" font-size="14.00">AbsFlux products 1..1</text>
</g>
<!-- trans_cal_absflux_l2b_ctp&#45;&gt;cal_absflux_prod -->
<g id="edge31" class="edge">
<title>trans_cal_absflux_l2b_ctp&#45;&gt;cal_absflux_prod</title>
<path fill="none" stroke="black" stroke-dasharray="5,2" d="M1639.77,-660.69C1639.77,-660.69 1773.05,-660.69 1773.05,-660.69"/>
<polygon fill="black" stroke="black" points="1773.05,-664.19 1783.05,-660.69 1773.05,-657.19 1773.05,-664.19"/>
</g>
<!-- cal_absflux_log -->
<g id="node31" class="node">
<title>cal_absflux_log</title>
<ellipse fill="none" stroke="black" cx="1869.74" cy="-612" rx="85.59" ry="18"/>
<text text-anchor="middle" x="1869.74" y="-608.3" font-family="Times,serif" font-size="14.00">AbsFlux log 1..1</text>
</g>
<!-- trans_cal_absflux_l2b_ctp&#45;&gt;cal_absflux_log -->
<g id="edge32" class="edge">
<title>trans_cal_absflux_l2b_ctp&#45;&gt;cal_absflux_log</title>
<path fill="none" stroke="black" stroke-dasharray="5,2" d="M1678.17,-612C1678.17,-612 1773.62,-612 1773.62,-612"/>
<polygon fill="black" stroke="black" points="1773.62,-615.5 1783.62,-612 1773.62,-608.5 1773.62,-615.5"/>
</g>
<!-- cal_absflux_man -->
<g id="node32" class="node">
<title>cal_absflux_man</title>
<ellipse fill="none" stroke="black" cx="1869.74" cy="-558" rx="151.37" ry="18"/>
<text text-anchor="middle" x="1869.74" y="-554.3" font-family="Times,serif" font-size="14.00">AbsFlux product manifest 1..1</text>
</g>
<!-- trans_cal_absflux_l2b_ctp&#45;&gt;cal_absflux_man -->
<g id="edge33" class="edge">
<title>trans_cal_absflux_l2b_ctp&#45;&gt;cal_absflux_man</title>
<path fill="none" stroke="black" d="M1678.17,-558C1678.17,-558 1708.06,-558 1708.06,-558"/>
<polygon fill="black" stroke="black" points="1708.06,-561.5 1718.06,-558 1708.06,-554.5 1708.06,-561.5"/>
</g>
<!-- cal_absflux_src -->
<g id="node33" class="node">
<title>cal_absflux_src</title>
<ellipse fill="none" stroke="black" cx="1869.74" cy="-504" rx="145.67" ry="18"/>
<text text-anchor="middle" x="1869.74" y="-500.3" font-family="Times,serif" font-size="14.00">AbsFlux source manifest 1..1</text>
</g>
<!-- trans_cal_absflux_l2b_ctp&#45;&gt;cal_absflux_src -->
<g id="edge34" class="edge">
<title>trans_cal_absflux_l2b_ctp&#45;&gt;cal_absflux_src</title>
<path fill="none" stroke="black" d="M1639.77,-509.31C1639.77,-509.31 1720.56,-509.31 1720.56,-509.31"/>
<polygon fill="black" stroke="black" points="1720.56,-512.81 1730.56,-509.31 1720.56,-505.81 1720.56,-512.81"/>
</g>
<!-- l1_cal_absflux_prod -->
<g id="node4" class="node">
<title>l1_cal_absflux_prod</title>
<polygon fill="none" stroke="black" points="241.34,-252 43.34,-252 43.34,-216 241.34,-216 241.34,-252"/>
<text text-anchor="middle" x="142.34" y="-230.3" font-family="Times,serif" font-size="14.00">L1_AbsFlux products 1..b</text>
</g>
<!-- l1_cal_absflux_prod&#45;&gt;trans_cal_absflux_l1_l2a -->
<g id="edge1" class="edge">
<title>l1_cal_absflux_prod&#45;&gt;trans_cal_absflux_l1_l2a</title>
<path fill="none" stroke="black" stroke-dasharray="5,2" d="M241.7,-220.5C317.56,-220.5 409.17,-220.5 409.17,-220.5 409.17,-220.5 409.17,-219.91 409.17,-219.91"/>
<polygon fill="black" stroke="black" points="412.67,-224.59 409.17,-214.59 405.67,-224.59 412.67,-224.59"/>
</g>
<!-- l1_cal_absflux_man -->
<g id="node5" class="node">
<title>l1_cal_absflux_man</title>
<ellipse fill="none" stroke="black" cx="142.34" cy="-180" rx="128.08" ry="18"/>
<text text-anchor="middle" x="142.34" y="-176.3" font-family="Times,serif" font-size="14.00">L1_AbsFlux manifest 1..1</text>
</g>
<!-- l1_cal_absflux_man&#45;&gt;trans_cal_absflux_l1_l2a -->
<g id="edge2" class="edge">
<title>l1_cal_absflux_man&#45;&gt;trans_cal_absflux_l1_l2a</title>
<path fill="none" stroke="black" d="M270.62,-180C270.62,-180 328.8,-180 328.8,-180"/>
<polygon fill="black" stroke="black" points="328.8,-183.5 338.8,-180 328.8,-176.5 328.8,-183.5"/>
</g>
<!-- l1_cal_absflux_odir -->
<g id="node6" class="node">
<title>l1_cal_absflux_odir</title>
<ellipse fill="none" stroke="black" cx="142.34" cy="-126" rx="142.17" ry="18"/>
<text text-anchor="middle" x="142.34" y="-122.3" font-family="Times,serif" font-size="14.00">L1_AbsFlux output path 1..1</text>
</g>
<!-- l1_cal_absflux_odir&#45;&gt;trans_cal_absflux_l1_l2a -->
<g id="edge3" class="edge">
<title>l1_cal_absflux_odir&#45;&gt;trans_cal_absflux_l1_l2a</title>
<path fill="none" stroke="black" d="M284.68,-126C284.68,-126 310.47,-126 310.47,-126"/>
<polygon fill="black" stroke="black" points="310.47,-129.5 320.47,-126 310.47,-122.5 310.47,-129.5"/>
</g>
<!-- l1_cal_absflux_rec -->
<g id="node7" class="node">
<title>l1_cal_absflux_rec</title>
<polygon fill="none" stroke="black" points="219.84,-84 52.84,-84 52.84,-60 219.84,-60 231.84,-72 219.84,-84"/>
<text text-anchor="middle" x="142.34" y="-68.3" font-family="Times,serif" font-size="14.00">L1_AbsFlux recipe 1..1</text>
</g>
<!-- l1_cal_absflux_rec&#45;&gt;trans_cal_absflux_l1_l2a -->
<g id="edge4" class="edge">
<title>l1_cal_absflux_rec&#45;&gt;trans_cal_absflux_l1_l2a</title>
<path fill="none" stroke="black" d="M231.9,-72C231.9,-72 328.71,-72 328.71,-72"/>
<polygon fill="black" stroke="black" points="328.71,-75.5 338.71,-72 328.71,-68.5 328.71,-75.5"/>
</g>
<!-- l1_cal_absflux_nllut -->
<g id="node8" class="node">
<title>l1_cal_absflux_nllut</title>
<polygon fill="none" stroke="black" points="250.84,-30 21.84,-30 21.84,-6 250.84,-6 262.84,-18 250.84,-30"/>
<text text-anchor="middle" x="142.34" y="-14.3" font-family="Times,serif" font-size="14.00">L1_AbsFlux non&#45;linear LUT 1..1</text>
</g>
<!-- l1_cal_absflux_nllut&#45;&gt;trans_cal_absflux_l1_l2a -->
<g id="edge5" class="edge">
<title>l1_cal_absflux_nllut&#45;&gt;trans_cal_absflux_l1_l2a</title>
<path fill="none" stroke="black" d="M248.17,-36.08C248.17,-41.39 248.17,-45.81 248.17,-45.81 248.17,-45.81 361.75,-45.81 361.75,-45.81"/>
<polygon fill="black" stroke="black" points="361.75,-49.31 371.75,-45.81 361.75,-42.31 361.75,-49.31"/>
</g>
<!-- l2a_cal_absflux_prod&#45;&gt;trans_cal_absflux_l2a_l2b -->
<g id="edge10" class="edge">
<title>l2a_cal_absflux_prod&#45;&gt;trans_cal_absflux_l2a_l2b</title>
<path fill="none" stroke="black" stroke-dasharray="5,2" d="M809.56,-207C904.68,-207 1031.17,-207 1031.17,-207 1031.17,-207 1031.17,-304.75 1031.17,-304.75"/>
<polygon fill="black" stroke="black" points="1027.67,-304.75 1031.17,-314.75 1034.67,-304.75 1027.67,-304.75"/>
</g>
<!-- l2a_cal_absflux_man&#45;&gt;trans_cal_absflux_l2a_l2b -->
<g id="edge19" class="edge">
<title>l2a_cal_absflux_man&#45;&gt;trans_cal_absflux_l2a_l2b</title>
<path fill="none" stroke="black" d="M871.17,-158.47C871.17,-187.01 871.17,-317.49 871.17,-317.49 871.17,-317.49 955.53,-317.49 955.53,-317.49"/>
<polygon fill="black" stroke="black" points="955.53,-320.99 965.53,-317.49 955.53,-313.99 955.53,-320.99"/>
</g>
<!-- l2a_cal_absflux_odir -->
<g id="node12" class="node">
<title>l2a_cal_absflux_odir</title>
<ellipse fill="none" stroke="black" cx="706.34" cy="-641" rx="147.57" ry="18"/>
<text text-anchor="middle" x="706.34" y="-637.3" font-family="Times,serif" font-size="14.00">L2a_AbsFlux output path 1..1</text>
</g>
<!-- l2a_cal_absflux_odir&#45;&gt;trans_cal_absflux_l2a_l2b -->
<g id="edge12" class="edge">
<title>l2a_cal_absflux_odir&#45;&gt;trans_cal_absflux_l2a_l2b</title>
<path fill="none" stroke="black" d="M854.02,-640C939.83,-640 1031.17,-640 1031.17,-640 1031.17,-640 1031.17,-487.25 1031.17,-487.25"/>
<polygon fill="black" stroke="black" points="1034.67,-487.25 1031.17,-477.25 1027.67,-487.25 1034.67,-487.25"/>
</g>
<!-- l2a_cal_absflux_rec -->
<g id="node13" class="node">
<title>l2a_cal_absflux_rec</title>
<polygon fill="none" stroke="black" points="788.34,-599 612.34,-599 612.34,-575 788.34,-575 800.34,-587 788.34,-599"/>
<text text-anchor="middle" x="706.34" y="-583.3" font-family="Times,serif" font-size="14.00">L2a_AbsFlux recipe 1..1</text>
</g>
<!-- l2a_cal_absflux_rec&#45;&gt;trans_cal_absflux_l2a_l2b -->
<g id="edge13" class="edge">
<title>l2a_cal_absflux_rec&#45;&gt;trans_cal_absflux_l2a_l2b</title>
<path fill="none" stroke="black" d="M800.41,-586C877.24,-586 973.17,-586 973.17,-586 973.17,-586 973.17,-487.68 973.17,-487.68"/>
<polygon fill="black" stroke="black" points="976.67,-487.68 973.17,-477.68 969.67,-487.68 976.67,-487.68"/>
</g>
<!-- l2a_cal_absflux_cti -->
<g id="node14" class="node">
<title>l2a_cal_absflux_cti</title>
<polygon fill="none" stroke="black" points="849.84,-545 550.84,-545 550.84,-521 849.84,-521 861.84,-533 849.84,-545"/>
<text text-anchor="middle" x="706.34" y="-529.3" font-family="Times,serif" font-size="14.00">L2a_AbsFlux charge xfer inefficiency 1..1</text>
</g>
<!-- l2a_cal_absflux_cti&#45;&gt;trans_cal_absflux_l2a_l2b -->
<g id="edge14" class="edge">
<title>l2a_cal_absflux_cti&#45;&gt;trans_cal_absflux_l2a_l2b</title>
<path fill="none" stroke="black" d="M850.17,-514.81C850.17,-497.64 850.17,-474.51 850.17,-474.51 850.17,-474.51 955.63,-474.51 955.63,-474.51"/>
<polygon fill="black" stroke="black" points="955.63,-478.01 965.63,-474.51 955.63,-471.01 955.63,-478.01"/>
</g>
<!-- l2a_cal_absflux_dnb -->
<g id="node15" class="node">
<title>l2a_cal_absflux_dnb</title>
<polygon fill="none" stroke="black" points="831.34,-491 569.34,-491 569.34,-465 831.34,-465 843.34,-478 831.34,-491"/>
<text text-anchor="middle" x="706.34" y="-481.8" font-family="Times,serif" font-size="14.00">L2a_AbsFlux CIC/Dark Current/FPN</text>
<text text-anchor="middle" x="706.34" y="-466.8" font-family="Times,serif" font-size="14.00"> or master dark 1..1</text>
</g>
<!-- l2a_cal_absflux_dnb&#45;&gt;trans_cal_absflux_l2a_l2b -->
<g id="edge15" class="edge">
<title>l2a_cal_absflux_dnb&#45;&gt;trans_cal_absflux_l2a_l2b</title>
<path fill="none" stroke="black" d="M843.54,-466.76C843.54,-466.76 942.12,-466.76 942.12,-466.76"/>
<polygon fill="black" stroke="black" points="942.12,-470.26 952.12,-466.76 942.12,-463.26 942.12,-470.26"/>
</g>
<!-- l2a_cal_absflux_mbpm -->
<g id="node16" class="node">
<title>l2a_cal_absflux_mbpm</title>
<polygon fill="none" stroke="black" points="843.84,-435 556.84,-435 556.84,-411 843.84,-411 855.84,-423 843.84,-435"/>
<text text-anchor="middle" x="706.34" y="-419.3" font-family="Times,serif" font-size="14.00">L2a_AbsFlux master bad pixel map 1..1</text>
</g>
<!-- l2a_cal_absflux_mbpm&#45;&gt;trans_cal_absflux_l2a_l2b -->
<g id="edge16" class="edge">
<title>l2a_cal_absflux_mbpm&#45;&gt;trans_cal_absflux_l2a_l2b</title>
<path fill="none" stroke="black" d="M856.07,-423C856.07,-423 909.47,-423 909.47,-423"/>
<polygon fill="black" stroke="black" points="909.47,-426.5 919.47,-423 909.47,-419.5 909.47,-426.5"/>
</g>
<!-- l2a_cal_absflux_ff -->
<g id="node17" class="node">
<title>l2a_cal_absflux_ff</title>
<polygon fill="none" stroke="black" points="798.84,-381 601.84,-381 601.84,-357 798.84,-357 810.84,-369 798.84,-381"/>
<text text-anchor="middle" x="706.34" y="-365.3" font-family="Times,serif" font-size="14.00">L2a_AbsFlux flat fields 1..1</text>
</g>
<!-- l2a_cal_absflux_ff&#45;&gt;trans_cal_absflux_l2a_l2b -->
<g id="edge17" class="edge">
<title>l2a_cal_absflux_ff&#45;&gt;trans_cal_absflux_l2a_l2b</title>
<path fill="none" stroke="black" d="M811.23,-369C811.23,-369 909.19,-369 909.19,-369"/>
<polygon fill="black" stroke="black" points="909.19,-372.5 919.19,-369 909.19,-365.5 909.19,-372.5"/>
</g>
<!-- l2a_cal_absflux_emg -->
<g id="node18" class="node">
<title>l2a_cal_absflux_emg</title>
<polygon fill="none" stroke="black" points="795.84,-327 604.84,-327 604.84,-303 795.84,-303 807.84,-315 795.84,-327"/>
<text text-anchor="middle" x="706.34" y="-311.3" font-family="Times,serif" font-size="14.00">L2a_AbsFlux EM gain 1..1</text>
</g>
<!-- l2a_cal_absflux_emg&#45;&gt;trans_cal_absflux_l2a_l2b -->
<g id="edge18" class="edge">
<title>l2a_cal_absflux_emg&#45;&gt;trans_cal_absflux_l2a_l2b</title>
<path fill="none" stroke="black" d="M807.91,-325.24C807.91,-325.24 941.95,-325.24 941.95,-325.24"/>
<polygon fill="black" stroke="black" points="941.95,-328.74 951.95,-325.24 941.95,-321.74 941.95,-328.74"/>
</g>
<!-- l2a_cal_absflux_kgain -->
<g id="node19" class="node">
<title>l2a_cal_absflux_kgain</title>
<polygon fill="none" stroke="black" points="782.34,-273 618.34,-273 618.34,-249 782.34,-249 794.34,-261 782.34,-273"/>
<text text-anchor="middle" x="706.34" y="-257.3" font-family="Times,serif" font-size="14.00">L2_AbsFlux Kgain 1..1</text>
</g>
<!-- l2a_cal_absflux_kgain&#45;&gt;trans_cal_absflux_l2a_l2b -->
<g id="edge11" class="edge">
<title>l2a_cal_absflux_kgain&#45;&gt;trans_cal_absflux_l2a_l2b</title>
<path fill="none" stroke="black" d="M794.45,-261C872.17,-261 973.17,-261 973.17,-261 973.17,-261 973.17,-304.36 973.17,-304.36"/>
<polygon fill="black" stroke="black" points="969.67,-304.36 973.17,-314.36 976.67,-304.36 969.67,-304.36"/>
</g>
<!-- l2b_cal_absflux_prod&#45;&gt;trans_cal_absflux_l2b_ctp -->
<g id="edge24" class="edge">
<title>l2b_cal_absflux_prod&#45;&gt;trans_cal_absflux_l2b_ctp</title>
<path fill="none" stroke="black" stroke-dasharray="5,2" d="M1400.28,-490.5C1486.15,-490.5 1594.17,-490.5 1594.17,-490.5 1594.17,-490.5 1594.17,-491.09 1594.17,-491.09"/>
<polygon fill="black" stroke="black" points="1590.67,-486.41 1594.17,-496.41 1597.67,-486.41 1590.67,-486.41"/>
</g>
<!-- l2b_cal_absflux_man&#45;&gt;trans_cal_absflux_l2b_ctp -->
<g id="edge25" class="edge">
<title>l2b_cal_absflux_man&#45;&gt;trans_cal_absflux_l2b_ctp</title>
<path fill="none" stroke="black" d="M1462.17,-428.38C1462.17,-446.62 1462.17,-505 1462.17,-505 1462.17,-505 1546.16,-505 1546.16,-505"/>
<polygon fill="black" stroke="black" points="1546.16,-508.5 1556.16,-505 1546.16,-501.5 1546.16,-508.5"/>
</g>
<!-- l2b_cal_absflux_odir -->
<g id="node24" class="node">
<title>l2b_cal_absflux_odir</title>
<ellipse fill="none" stroke="black" cx="1296.64" cy="-747" rx="148.37" ry="18"/>
<text text-anchor="middle" x="1296.64" y="-743.3" font-family="Times,serif" font-size="14.00">L2b_AbsFlux output path 1..1</text>
</g>
<!-- l2b_cal_absflux_odir&#45;&gt;trans_cal_absflux_l2b_ctp -->
<g id="edge26" class="edge">
<title>l2b_cal_absflux_odir&#45;&gt;trans_cal_absflux_l2b_ctp</title>
<path fill="none" stroke="black" d="M1418.17,-736.44C1418.17,-714.53 1418.17,-666.19 1418.17,-666.19 1418.17,-666.19 1548.77,-666.19 1548.77,-666.19"/>
<polygon fill="black" stroke="black" points="1548.77,-669.69 1558.77,-666.19 1548.77,-662.69 1548.77,-669.69"/>
</g>
<!-- l2b_cal_absflux_rec -->
<g id="node25" class="node">
<title>l2b_cal_absflux_rec</title>
<polygon fill="none" stroke="black" points="1378.64,-705 1202.64,-705 1202.64,-681 1378.64,-681 1390.64,-693 1378.64,-705"/>
<text text-anchor="middle" x="1296.64" y="-689.3" font-family="Times,serif" font-size="14.00">L2b_AbsFlux recipe 1..1</text>
</g>
<!-- l2b_cal_absflux_rec&#45;&gt;trans_cal_absflux_l2b_ctp -->
<g id="edge27" class="edge">
<title>l2b_cal_absflux_rec&#45;&gt;trans_cal_absflux_l2b_ctp</title>
<path fill="none" stroke="black" d="M1390.78,-679.5C1477.95,-679.5 1594.17,-679.5 1594.17,-679.5 1594.17,-679.5 1594.17,-678.91 1594.17,-678.91"/>
<polygon fill="black" stroke="black" points="1597.67,-683.59 1594.17,-673.59 1590.67,-683.59 1597.67,-683.59"/>
</g>
<!-- l2b_cal_absflux_excicrf -->
<g id="node26" class="node">
<title>l2b_cal_absflux_excicrf</title>
<polygon fill="none" stroke="black" points="1434.64,-651 1146.64,-651 1146.64,-627 1434.64,-627 1446.64,-639 1434.64,-651"/>
<text text-anchor="middle" x="1296.64" y="-635.3" font-family="Times,serif" font-size="14.00">L2b_AbsFlux EXCAM ICRF location 1..1</text>
</g>
<!-- l2b_cal_absflux_excicrf&#45;&gt;trans_cal_absflux_l2b_ctp -->
<g id="edge28" class="edge">
<title>l2b_cal_absflux_excicrf&#45;&gt;trans_cal_absflux_l2b_ctp</title>
<path fill="none" stroke="black" d="M1447.02,-639C1447.02,-639 1513.67,-639 1513.67,-639"/>
<polygon fill="black" stroke="black" points="1513.67,-642.5 1523.67,-639 1513.67,-635.5 1513.67,-642.5"/>
</g>
<!-- l2b_cal_absflux_excfovps -->
<g id="node27" class="node">
<title>l2b_cal_absflux_excfovps</title>
<polygon fill="none" stroke="black" points="1441.64,-597 1139.64,-597 1139.64,-573 1441.64,-573 1453.64,-585 1441.64,-597"/>
<text text-anchor="middle" x="1296.64" y="-581.3" font-family="Times,serif" font-size="14.00">L2b_AbsFlux EXCAM FOV pixel scale 1..1</text>
</g>
<!-- l2b_cal_absflux_excfovps&#45;&gt;trans_cal_absflux_l2b_ctp -->
<g id="edge29" class="edge">
<title>l2b_cal_absflux_excfovps&#45;&gt;trans_cal_absflux_l2b_ctp</title>
<path fill="none" stroke="black" d="M1453.98,-585C1453.98,-585 1495.15,-585 1495.15,-585"/>
<polygon fill="black" stroke="black" points="1495.15,-588.5 1505.15,-585 1495.15,-581.5 1495.15,-588.5"/>
</g>
<!-- l2b_cal_absflux_distm -->
<g id="node28" class="node">
<title>l2b_cal_absflux_distm</title>
<polygon fill="none" stroke="black" points="1409.14,-543 1172.14,-543 1172.14,-519 1409.14,-519 1421.14,-531 1409.14,-543"/>
<text text-anchor="middle" x="1296.64" y="-527.3" font-family="Times,serif" font-size="14.00">L2b_AbsFlux distortion map 1..1</text>
</g>
<!-- l2b_cal_absflux_distm&#45;&gt;trans_cal_absflux_l2b_ctp -->
<g id="edge30" class="edge">
<title>l2b_cal_absflux_distm&#45;&gt;trans_cal_absflux_l2b_ctp</title>
<path fill="none" stroke="black" d="M1421.42,-531C1421.42,-531 1513.7,-531 1513.7,-531"/>
<polygon fill="black" stroke="black" points="1513.7,-534.5 1523.7,-531 1513.7,-527.5 1513.7,-534.5"/>
</g>
</g>
</svg>
