<?xml version="1.0" encoding="UTF-8" standalone="no"?>
<!DOCTYPE svg PUBLIC "-//W3C//DTD SVG 1.1//EN"
 "http://www.w3.org/Graphics/SVG/1.1/DTD/svg11.dtd">
<!-- Generated by graphviz version 2.43.0 (0)
 -->
<!-- Title: BadPixelMapCalibrations Pages: 1 -->
<svg width="939pt" height="206pt"
 viewBox="0.00 0.00 939.22 206.00" xmlns="http://www.w3.org/2000/svg" xmlns:xlink="http://www.w3.org/1999/xlink">
<g id="graph0" class="graph" transform="scale(1 1) rotate(0) translate(4 202)">
<title>BadPixelMapCalibrations</title>
<polygon fill="white" stroke="transparent" points="-4,4 -4,-202 935.22,-202 935.22,4 -4,4"/>
<!-- trans_cal_bpm_l1_l2a -->
<g id="node1" class="node">
<title>trans_cal_bpm_l1_l2a</title>
<ellipse fill="none" stroke="black" cx="457.16" cy="-99" rx="88.28" ry="88.28"/>
<text text-anchor="middle" x="457.16" y="-110.3" font-family="Times,serif" font-size="14.00">BadPixelMap</text>
<text text-anchor="middle" x="457.16" y="-95.3" font-family="Times,serif" font-size="14.00">Transmutation</text>
<text text-anchor="middle" x="457.16" y="-80.3" font-family="Times,serif" font-size="14.00">L1 to L2a basic</text>
</g>
<!-- cal_bpm_prod -->
<g id="node6" class="node">
<title>cal_bpm_prod</title>
<polygon fill="none" stroke="black" points="861.38,-198 651.38,-198 651.38,-162 861.38,-162 861.38,-198"/>
<text text-anchor="middle" x="756.38" y="-176.3" font-family="Times,serif" font-size="14.00">BadPixelMap products 1..1</text>
</g>
<!-- trans_cal_bpm_l1_l2a&#45;&gt;cal_bpm_prod -->
<g id="edge5" class="edge">
<title>trans_cal_bpm_l1_l2a&#45;&gt;cal_bpm_prod</title>
<path fill="none" stroke="black" stroke-dasharray="5,2" d="M502.93,-174.69C502.93,-174.69 641.37,-174.69 641.37,-174.69"/>
<polygon fill="black" stroke="black" points="641.37,-178.19 651.37,-174.69 641.37,-171.19 641.37,-178.19"/>
</g>
<!-- cal_bpm_log -->
<g id="node7" class="node">
<title>cal_bpm_log</title>
<ellipse fill="none" stroke="black" cx="756.38" cy="-126" rx="109.68" ry="18"/>
<text text-anchor="middle" x="756.38" y="-122.3" font-family="Times,serif" font-size="14.00">BadPixelMap log 1..1</text>
</g>
<!-- trans_cal_bpm_l1_l2a&#45;&gt;cal_bpm_log -->
<g id="edge8" class="edge">
<title>trans_cal_bpm_l1_l2a&#45;&gt;cal_bpm_log</title>
<path fill="none" stroke="black" stroke-dasharray="5,2" d="M541.7,-126C541.7,-126 636.31,-126 636.31,-126"/>
<polygon fill="black" stroke="black" points="636.31,-129.5 646.31,-126 636.31,-122.5 636.31,-129.5"/>
</g>
<!-- cal_bpm_man -->
<g id="node8" class="node">
<title>cal_bpm_man</title>
<ellipse fill="none" stroke="black" cx="756.38" cy="-72" rx="174.67" ry="18"/>
<text text-anchor="middle" x="756.38" y="-68.3" font-family="Times,serif" font-size="14.00">BadPixelMap product manifest 1..1</text>
</g>
<!-- trans_cal_bpm_l1_l2a&#45;&gt;cal_bpm_man -->
<g id="edge6" class="edge">
<title>trans_cal_bpm_l1_l2a&#45;&gt;cal_bpm_man</title>
<path fill="none" stroke="black" d="M541.7,-72C541.7,-72 571.38,-72 571.38,-72"/>
<polygon fill="black" stroke="black" points="571.38,-75.5 581.38,-72 571.38,-68.5 571.38,-75.5"/>
</g>
<!-- cal_bpm_src -->
<g id="node9" class="node">
<title>cal_bpm_src</title>
<ellipse fill="none" stroke="black" cx="756.38" cy="-18" rx="169.77" ry="18"/>
<text text-anchor="middle" x="756.38" y="-14.3" font-family="Times,serif" font-size="14.00">BadPixelMap source manifest 1..1</text>
</g>
<!-- trans_cal_bpm_l1_l2a&#45;&gt;cal_bpm_src -->
<g id="edge7" class="edge">
<title>trans_cal_bpm_l1_l2a&#45;&gt;cal_bpm_src</title>
<path fill="none" stroke="black" d="M502.93,-23.31C502.93,-23.31 584.25,-23.31 584.25,-23.31"/>
<polygon fill="black" stroke="black" points="584.25,-26.81 594.25,-23.31 584.25,-19.81 584.25,-26.81"/>
</g>
<!-- l1_cal_bpm_prod -->
<g id="node2" class="node">
<title>l1_cal_bpm_prod</title>
<polygon fill="none" stroke="black" points="283.89,-198 48.89,-198 48.89,-162 283.89,-162 283.89,-198"/>
<text text-anchor="middle" x="166.39" y="-176.3" font-family="Times,serif" font-size="14.00">L1_BadPixelMap products 1..b</text>
</g>
<!-- l1_cal_bpm_prod&#45;&gt;trans_cal_bpm_l1_l2a -->
<g id="edge1" class="edge">
<title>l1_cal_bpm_prod&#45;&gt;trans_cal_bpm_l1_l2a</title>
<path fill="none" stroke="black" stroke-dasharray="5,2" d="M284.23,-174.69C284.23,-174.69 401.42,-174.69 401.42,-174.69"/>
<polygon fill="black" stroke="black" points="401.42,-178.19 411.42,-174.69 401.42,-171.19 401.42,-178.19"/>
</g>
<!-- l1_cal_bpm_man -->
<g id="node3" class="node">
<title>l1_cal_bpm_man</title>
<ellipse fill="none" stroke="black" cx="166.39" cy="-126" rx="152.17" ry="18"/>
<text text-anchor="middle" x="166.39" y="-122.3" font-family="Times,serif" font-size="14.00">L1_BadPixelMap manifest 1..1</text>
</g>
<!-- l1_cal_bpm_man&#45;&gt;trans_cal_bpm_l1_l2a -->
<g id="edge2" class="edge">
<title>l1_cal_bpm_man&#45;&gt;trans_cal_bpm_l1_l2a</title>
<path fill="none" stroke="black" d="M318.58,-126C318.58,-126 362.96,-126 362.96,-126"/>
<polygon fill="black" stroke="black" points="362.96,-129.5 372.96,-126 362.96,-122.5 362.96,-129.5"/>
</g>
<!-- l1_cal_bpm_odir -->
<g id="node4" class="node">
<title>l1_cal_bpm_odir</title>
<ellipse fill="none" stroke="black" cx="166.39" cy="-72" rx="166.27" ry="18"/>
<text text-anchor="middle" x="166.39" y="-68.3" font-family="Times,serif" font-size="14.00">L1_BadPixelMap output path 1..1</text>
</g>
<!-- l1_cal_bpm_odir&#45;&gt;trans_cal_bpm_l1_l2a -->
<g id="edge3" class="edge">
<title>l1_cal_bpm_odir&#45;&gt;trans_cal_bpm_l1_l2a</title>
<path fill="none" stroke="black" d="M333,-72C333,-72 362.84,-72 362.84,-72"/>
<polygon fill="black" stroke="black" points="362.84,-75.5 372.84,-72 362.84,-68.5 362.84,-75.5"/>
</g>
<!-- l1_cal_bpm_rec -->
<g id="node5" class="node">
<title>l1_cal_bpm_rec</title>
<polygon fill="none" stroke="black" points="262.39,-30 58.39,-30 58.39,-6 262.39,-6 274.39,-18 262.39,-30"/>
<text text-anchor="middle" x="166.39" y="-14.3" font-family="Times,serif" font-size="14.00">L1_BadPixelMap recipe 1..1</text>
</g>
<!-- l1_cal_bpm_rec&#45;&gt;trans_cal_bpm_l1_l2a -->
<g id="edge4" class="edge">
<title>l1_cal_bpm_rec&#45;&gt;trans_cal_bpm_l1_l2a</title>
<path fill="none" stroke="black" d="M274.66,-23.31C274.66,-23.31 401.15,-23.31 401.15,-23.31"/>
<polygon fill="black" stroke="black" points="401.15,-26.81 411.15,-23.31 401.15,-19.81 401.15,-26.81"/>
</g>
</g>
</svg>
