<?xml version="1.0" encoding="UTF-8" standalone="no"?>
<!DOCTYPE svg PUBLIC "-//W3C//DTD SVG 1.1//EN"
 "http://www.w3.org/Graphics/SVG/1.1/DTD/svg11.dtd">
<!-- Generated by graphviz version 2.43.0 (0)
 -->
<!-- Title: MuellerMatrixCalibrations Pages: 1 -->
<svg width="963pt" height="206pt"
 viewBox="0.00 0.00 962.61 206.00" xmlns="http://www.w3.org/2000/svg" xmlns:xlink="http://www.w3.org/1999/xlink">
<g id="graph0" class="graph" transform="scale(1 1) rotate(0) translate(4 202)">
<title>MuellerMatrixCalibrations</title>
<polygon fill="white" stroke="transparent" points="-4,4 -4,-202 958.61,-202 958.61,4 -4,4"/>
<!-- trans_cal_mm_l1_l2a -->
<g id="node1" class="node">
<title>trans_cal_mm_l1_l2a</title>
<ellipse fill="none" stroke="black" cx="468.86" cy="-99" rx="88.28" ry="88.28"/>
<text text-anchor="middle" x="468.86" y="-110.3" font-family="Times,serif" font-size="14.00">MuellerMatrix</text>
<text text-anchor="middle" x="468.86" y="-95.3" font-family="Times,serif" font-size="14.00">Transmutation</text>
<text text-anchor="middle" x="468.86" y="-80.3" font-family="Times,serif" font-size="14.00">L1 to L2a basic</text>
</g>
<!-- cal_mm_prod -->
<g id="node6" class="node">
<title>cal_mm_prod</title>
<polygon fill="none" stroke="black" points="883.43,-198 664.43,-198 664.43,-162 883.43,-162 883.43,-198"/>
<text text-anchor="middle" x="773.93" y="-176.3" font-family="Times,serif" font-size="14.00">MuellerMatrix products 1..1</text>
</g>
<!-- trans_cal_mm_l1_l2a&#45;&gt;cal_mm_prod -->
<g id="edge5" class="edge">
<title>trans_cal_mm_l1_l2a&#45;&gt;cal_mm_prod</title>
<path fill="none" stroke="black" stroke-dasharray="5,2" d="M514.53,-174.69C514.53,-174.69 654.24,-174.69 654.24,-174.69"/>
<polygon fill="black" stroke="black" points="654.24,-178.19 664.24,-174.69 654.24,-171.19 654.24,-178.19"/>
</g>
<!-- cal_mm_log -->
<g id="node7" class="node">
<title>cal_mm_log</title>
<ellipse fill="none" stroke="black" cx="773.93" cy="-126" rx="115.88" ry="18"/>
<text text-anchor="middle" x="773.93" y="-122.3" font-family="Times,serif" font-size="14.00">MuellerMatrix log 1..1</text>
</g>
<!-- trans_cal_mm_l1_l2a&#45;&gt;cal_mm_log -->
<g id="edge8" class="edge">
<title>trans_cal_mm_l1_l2a&#45;&gt;cal_mm_log</title>
<path fill="none" stroke="black" stroke-dasharray="5,2" d="M553.03,-126C553.03,-126 648.07,-126 648.07,-126"/>
<polygon fill="black" stroke="black" points="648.07,-129.5 658.07,-126 648.07,-122.5 648.07,-129.5"/>
</g>
<!-- cal_mm_man -->
<g id="node8" class="node">
<title>cal_mm_man</title>
<ellipse fill="none" stroke="black" cx="773.93" cy="-72" rx="180.87" ry="18"/>
<text text-anchor="middle" x="773.93" y="-68.3" font-family="Times,serif" font-size="14.00">MuellerMatrix product manifest 1..1</text>
</g>
<!-- trans_cal_mm_l1_l2a&#45;&gt;cal_mm_man -->
<g id="edge6" class="edge">
<title>trans_cal_mm_l1_l2a&#45;&gt;cal_mm_man</title>
<path fill="none" stroke="black" d="M553.03,-72C553.03,-72 583.04,-72 583.04,-72"/>
<polygon fill="black" stroke="black" points="583.04,-75.5 593.04,-72 583.04,-68.5 583.04,-75.5"/>
</g>
<!-- cal_mm_src -->
<g id="node9" class="node">
<title>cal_mm_src</title>
<ellipse fill="none" stroke="black" cx="773.93" cy="-18" rx="175.47" ry="18"/>
<text text-anchor="middle" x="773.93" y="-14.3" font-family="Times,serif" font-size="14.00">MuellerMatrix source manifest 1..1</text>
</g>
<!-- trans_cal_mm_l1_l2a&#45;&gt;cal_mm_src -->
<g id="edge7" class="edge">
<title>trans_cal_mm_l1_l2a&#45;&gt;cal_mm_src</title>
<path fill="none" stroke="black" d="M514.53,-23.31C514.53,-23.31 596.01,-23.31 596.01,-23.31"/>
<polygon fill="black" stroke="black" points="596.01,-26.81 606.01,-23.31 596.01,-19.81 596.01,-26.81"/>
</g>
<!-- l1_cal_mm_prod -->
<g id="node2" class="node">
<title>l1_cal_mm_prod</title>
<polygon fill="none" stroke="black" points="294.23,-198 50.23,-198 50.23,-162 294.23,-162 294.23,-198"/>
<text text-anchor="middle" x="172.23" y="-176.3" font-family="Times,serif" font-size="14.00">L1_MuellerMatrix products 1..b</text>
</g>
<!-- l1_cal_mm_prod&#45;&gt;trans_cal_mm_l1_l2a -->
<g id="edge1" class="edge">
<title>l1_cal_mm_prod&#45;&gt;trans_cal_mm_l1_l2a</title>
<path fill="none" stroke="black" stroke-dasharray="5,2" d="M294.6,-174.69C294.6,-174.69 412.93,-174.69 412.93,-174.69"/>
<polygon fill="black" stroke="black" points="412.93,-178.19 422.93,-174.69 412.93,-171.19 412.93,-178.19"/>
</g>
<!-- l1_cal_mm_man -->
<g id="node3" class="node">
<title>l1_cal_mm_man</title>
<ellipse fill="none" stroke="black" cx="172.23" cy="-126" rx="157.87" ry="18"/>
<text text-anchor="middle" x="172.23" y="-122.3" font-family="Times,serif" font-size="14.00">L1_MuellerMatrix manifest 1..1</text>
</g>
<!-- l1_cal_mm_man&#45;&gt;trans_cal_mm_l1_l2a -->
<g id="edge2" class="edge">
<title>l1_cal_mm_man&#45;&gt;trans_cal_mm_l1_l2a</title>
<path fill="none" stroke="black" d="M330.53,-126C330.53,-126 374.63,-126 374.63,-126"/>
<polygon fill="black" stroke="black" points="374.63,-129.5 384.63,-126 374.63,-122.5 374.63,-129.5"/>
</g>
<!-- l1_cal_mm_odir -->
<g id="node4" class="node">
<title>l1_cal_mm_odir</title>
<ellipse fill="none" stroke="black" cx="172.23" cy="-72" rx="172.47" ry="18"/>
<text text-anchor="middle" x="172.23" y="-68.3" font-family="Times,serif" font-size="14.00">L1_MuellerMatrix output path 1..1</text>
</g>
<!-- l1_cal_mm_odir&#45;&gt;trans_cal_mm_l1_l2a -->
<g id="edge3" class="edge">
<title>l1_cal_mm_odir&#45;&gt;trans_cal_mm_l1_l2a</title>
<path fill="none" stroke="black" d="M344.78,-72C344.78,-72 374.37,-72 374.37,-72"/>
<polygon fill="black" stroke="black" points="374.37,-75.5 384.37,-72 374.37,-68.5 374.37,-75.5"/>
</g>
<!-- l1_cal_mm_rec -->
<g id="node5" class="node">
<title>l1_cal_mm_rec</title>
<polygon fill="none" stroke="black" points="272.73,-30 59.73,-30 59.73,-6 272.73,-6 284.73,-18 272.73,-30"/>
<text text-anchor="middle" x="172.23" y="-14.3" font-family="Times,serif" font-size="14.00">L1_MuellerMatrix recipe 1..1</text>
</g>
<!-- l1_cal_mm_rec&#45;&gt;trans_cal_mm_l1_l2a -->
<g id="edge4" class="edge">
<title>l1_cal_mm_rec&#45;&gt;trans_cal_mm_l1_l2a</title>
<path fill="none" stroke="black" d="M284.8,-23.31C284.8,-23.31 413,-23.31 413,-23.31"/>
<polygon fill="black" stroke="black" points="413,-26.81 423,-23.31 413,-19.81 413,-26.81"/>
</g>
</g>
</svg>
