<?xml version="1.0" encoding="UTF-8" standalone="no"?>
<!DOCTYPE svg PUBLIC "-//W3C//DTD SVG 1.1//EN"
 "http://www.w3.org/Graphics/SVG/1.1/DTD/svg11.dtd">
<!-- Generated by graphviz version 2.43.0 (0)
 -->
<!-- Title: Astrometric Pages: 1 -->
<svg width="2085pt" height="773pt"
 viewBox="0.00 0.00 2084.59 773.00" xmlns="http://www.w3.org/2000/svg" xmlns:xlink="http://www.w3.org/1999/xlink">
<g id="graph0" class="graph" transform="scale(1 1) rotate(0) translate(4 769)">
<title>Astrometric</title>
<polygon fill="white" stroke="transparent" points="-4,4 -4,-769 2080.59,-769 2080.59,4 -4,4"/>
<!-- trans_bs_l1_l2a_basic -->
<g id="node1" class="node">
<title>trans_bs_l1_l2a_basic</title>
<ellipse fill="none" stroke="black" cx="444.16" cy="-126" rx="88.28" ry="88.28"/>
<text text-anchor="middle" x="444.16" y="-137.3" font-family="Times,serif" font-size="14.00">Astrometric</text>
<text text-anchor="middle" x="444.16" y="-122.3" font-family="Times,serif" font-size="14.00">Transmutation</text>
<text text-anchor="middle" x="444.16" y="-107.3" font-family="Times,serif" font-size="14.00">L1 to L2a basic</text>
</g>
<!-- l2a_bs_prod -->
<g id="node9" class="node">
<title>l2a_bs_prod</title>
<polygon fill="none" stroke="black" points="854.05,-198 621.05,-198 621.05,-162 854.05,-162 854.05,-198"/>
<text text-anchor="middle" x="737.55" y="-176.3" font-family="Times,serif" font-size="14.00">L2a_Astrometric products 1..b</text>
</g>
<!-- trans_bs_l1_l2a_basic&#45;&gt;l2a_bs_prod -->
<g id="edge6" class="edge">
<title>trans_bs_l1_l2a_basic&#45;&gt;l2a_bs_prod</title>
<path fill="none" stroke="black" d="M514.43,-180C514.43,-180 610.88,-180 610.88,-180"/>
<polygon fill="black" stroke="black" points="610.88,-183.5 620.88,-180 610.88,-176.5 610.88,-183.5"/>
</g>
<!-- l2a_bs_man -->
<g id="node10" class="node">
<title>l2a_bs_man</title>
<ellipse fill="none" stroke="black" cx="737.55" cy="-126" rx="151.37" ry="18"/>
<text text-anchor="middle" x="737.55" y="-122.3" font-family="Times,serif" font-size="14.00">L2a_Astrometric manifest 1..1</text>
</g>
<!-- trans_bs_l1_l2a_basic&#45;&gt;l2a_bs_man -->
<g id="edge7" class="edge">
<title>trans_bs_l1_l2a_basic&#45;&gt;l2a_bs_man</title>
<path fill="none" stroke="black" d="M532.58,-126C532.58,-126 576.03,-126 576.03,-126"/>
<polygon fill="black" stroke="black" points="576.03,-129.5 586.03,-126 576.03,-122.5 576.03,-129.5"/>
</g>
<!-- l2a_bs_log -->
<g id="node19" class="node">
<title>l2a_bs_log</title>
<ellipse fill="none" stroke="black" cx="737.55" cy="-72" rx="124.58" ry="18"/>
<text text-anchor="middle" x="737.55" y="-68.3" font-family="Times,serif" font-size="14.00">L2a_Astrometric log 1..1</text>
</g>
<!-- trans_bs_l1_l2a_basic&#45;&gt;l2a_bs_log -->
<g id="edge8" class="edge">
<title>trans_bs_l1_l2a_basic&#45;&gt;l2a_bs_log</title>
<path fill="none" stroke="black" d="M514.43,-72C514.43,-72 602.5,-72 602.5,-72"/>
<polygon fill="black" stroke="black" points="602.5,-75.5 612.5,-72 602.5,-68.5 602.5,-75.5"/>
</g>
<!-- trans_bs_l2a_l2b -->
<g id="node2" class="node">
<title>trans_bs_l2a_l2b</title>
<ellipse fill="none" stroke="black" cx="1028.82" cy="-396" rx="86.03" ry="86.03"/>
<text text-anchor="middle" x="1028.82" y="-407.3" font-family="Times,serif" font-size="14.00">Astrometric</text>
<text text-anchor="middle" x="1028.82" y="-392.3" font-family="Times,serif" font-size="14.00">Transmutation</text>
<text text-anchor="middle" x="1028.82" y="-377.3" font-family="Times,serif" font-size="14.00">L2a to L2b</text>
</g>
<!-- l2b_bs_prod -->
<g id="node20" class="node">
<title>l2b_bs_prod</title>
<polygon fill="none" stroke="black" points="1438.58,-441 1204.58,-441 1204.58,-405 1438.58,-405 1438.58,-441"/>
<text text-anchor="middle" x="1321.58" y="-419.3" font-family="Times,serif" font-size="14.00">L2b_Astrometric products 1..1</text>
</g>
<!-- trans_bs_l2a_l2b&#45;&gt;l2b_bs_prod -->
<g id="edge18" class="edge">
<title>trans_bs_l2a_l2b&#45;&gt;l2b_bs_prod</title>
<path fill="none" stroke="black" d="M1110.76,-423C1110.76,-423 1194.37,-423 1194.37,-423"/>
<polygon fill="black" stroke="black" points="1194.37,-426.5 1204.37,-423 1194.37,-419.5 1194.37,-426.5"/>
</g>
<!-- l2b_bs_log -->
<g id="node27" class="node">
<title>l2b_bs_log</title>
<ellipse fill="none" stroke="black" cx="1321.58" cy="-369" rx="125.38" ry="18"/>
<text text-anchor="middle" x="1321.58" y="-365.3" font-family="Times,serif" font-size="14.00">L2b_Astrometric log 1..1</text>
</g>
<!-- trans_bs_l2a_l2b&#45;&gt;l2b_bs_log -->
<g id="edge19" class="edge">
<title>trans_bs_l2a_l2b&#45;&gt;l2b_bs_log</title>
<path fill="none" stroke="black" d="M1110.76,-369C1110.76,-369 1186.1,-369 1186.1,-369"/>
<polygon fill="black" stroke="black" points="1186.1,-372.5 1196.1,-369 1186.1,-365.5 1186.1,-372.5"/>
</g>
<!-- trans_bs_l2b_ctp -->
<g id="node3" class="node">
<title>trans_bs_l2b_ctp</title>
<ellipse fill="none" stroke="black" cx="1658.9" cy="-585" rx="130.63" ry="130.63"/>
<text text-anchor="middle" x="1658.9" y="-596.3" font-family="Times,serif" font-size="14.00">Astrometric</text>
<text text-anchor="middle" x="1658.9" y="-581.3" font-family="Times,serif" font-size="14.00">Transmutation</text>
<text text-anchor="middle" x="1658.9" y="-566.3" font-family="Times,serif" font-size="14.00">L2b to CoreAstrometric</text>
</g>
<!-- ctp_prod -->
<g id="node28" class="node">
<title>ctp_prod</title>
<polygon fill="none" stroke="black" points="2068.15,-630 1834.15,-630 1834.15,-594 2068.15,-594 2068.15,-630"/>
<text text-anchor="middle" x="1951.15" y="-608.3" font-family="Times,serif" font-size="14.00">CoreAstrometric products 1..1</text>
</g>
<!-- trans_bs_l2b_ctp&#45;&gt;ctp_prod -->
<g id="edge27" class="edge">
<title>trans_bs_l2b_ctp&#45;&gt;ctp_prod</title>
<path fill="none" stroke="black" d="M1787.08,-612C1787.08,-612 1824.12,-612 1824.12,-612"/>
<polygon fill="black" stroke="black" points="1824.12,-615.5 1834.12,-612 1824.12,-608.5 1824.12,-615.5"/>
</g>
<!-- ctp_log -->
<g id="node29" class="node">
<title>ctp_log</title>
<ellipse fill="none" stroke="black" cx="1951.15" cy="-558" rx="125.38" ry="18"/>
<text text-anchor="middle" x="1951.15" y="-554.3" font-family="Times,serif" font-size="14.00">CoreAstrometric log 1..1</text>
</g>
<!-- trans_bs_l2b_ctp&#45;&gt;ctp_log -->
<g id="edge28" class="edge">
<title>trans_bs_l2b_ctp&#45;&gt;ctp_log</title>
<path fill="none" stroke="black" d="M1787.08,-558C1787.08,-558 1815.43,-558 1815.43,-558"/>
<polygon fill="black" stroke="black" points="1815.43,-561.5 1825.43,-558 1815.43,-554.5 1815.43,-561.5"/>
</g>
<!-- l1_bs_prod -->
<g id="node4" class="node">
<title>l1_bs_prod</title>
<polygon fill="none" stroke="black" points="272.39,-252 47.39,-252 47.39,-216 272.39,-216 272.39,-252"/>
<text text-anchor="middle" x="159.89" y="-230.3" font-family="Times,serif" font-size="14.00">L1_Astrometric products 1..b</text>
</g>
<!-- l1_bs_prod&#45;&gt;trans_bs_l1_l2a_basic -->
<g id="edge1" class="edge">
<title>l1_bs_prod&#45;&gt;trans_bs_l1_l2a_basic</title>
<path fill="none" stroke="black" d="M272.41,-234C351.99,-234 444.59,-234 444.59,-234 444.59,-234 444.59,-224.44 444.59,-224.44"/>
<polygon fill="black" stroke="black" points="448.09,-224.44 444.59,-214.44 441.09,-224.44 448.09,-224.44"/>
</g>
<!-- l1_bs_man -->
<g id="node5" class="node">
<title>l1_bs_man</title>
<ellipse fill="none" stroke="black" cx="159.89" cy="-180" rx="145.67" ry="18"/>
<text text-anchor="middle" x="159.89" y="-176.3" font-family="Times,serif" font-size="14.00">L1_Astrometric manifest 1..1</text>
</g>
<!-- l1_bs_man&#45;&gt;trans_bs_l1_l2a_basic -->
<g id="edge2" class="edge">
<title>l1_bs_man&#45;&gt;trans_bs_l1_l2a_basic</title>
<path fill="none" stroke="black" d="M305.77,-180C305.77,-180 363.87,-180 363.87,-180"/>
<polygon fill="black" stroke="black" points="363.87,-183.5 373.87,-180 363.87,-176.5 363.87,-183.5"/>
</g>
<!-- l1_bs_odir -->
<g id="node6" class="node">
<title>l1_bs_odir</title>
<ellipse fill="none" stroke="black" cx="159.89" cy="-126" rx="159.77" ry="18"/>
<text text-anchor="middle" x="159.89" y="-122.3" font-family="Times,serif" font-size="14.00">L1_Astrometric output path 1..1</text>
</g>
<!-- l1_bs_odir&#45;&gt;trans_bs_l1_l2a_basic -->
<g id="edge3" class="edge">
<title>l1_bs_odir&#45;&gt;trans_bs_l1_l2a_basic</title>
<path fill="none" stroke="black" d="M319.89,-126C319.89,-126 345.72,-126 345.72,-126"/>
<polygon fill="black" stroke="black" points="345.72,-129.5 355.72,-126 345.72,-122.5 345.72,-129.5"/>
</g>
<!-- l1_bs_rec -->
<g id="node7" class="node">
<title>l1_bs_rec</title>
<polygon fill="none" stroke="black" points="250.89,-84 56.89,-84 56.89,-60 250.89,-60 262.89,-72 250.89,-84"/>
<text text-anchor="middle" x="159.89" y="-68.3" font-family="Times,serif" font-size="14.00">L1_Astrometric recipe 1..1</text>
</g>
<!-- l1_bs_rec&#45;&gt;trans_bs_l1_l2a_basic -->
<g id="edge4" class="edge">
<title>l1_bs_rec&#45;&gt;trans_bs_l1_l2a_basic</title>
<path fill="none" stroke="black" d="M262.92,-72C262.92,-72 363.91,-72 363.91,-72"/>
<polygon fill="black" stroke="black" points="363.91,-75.5 373.91,-72 363.91,-68.5 363.91,-75.5"/>
</g>
<!-- l1_bs_nllut -->
<g id="node8" class="node">
<title>l1_bs_nllut</title>
<polygon fill="none" stroke="black" points="281.89,-30 25.89,-30 25.89,-6 281.89,-6 293.89,-18 281.89,-30"/>
<text text-anchor="middle" x="159.89" y="-14.3" font-family="Times,serif" font-size="14.00">L1_Astrometric non&#45;linear LUT 1..1</text>
</g>
<!-- l1_bs_nllut&#45;&gt;trans_bs_l1_l2a_basic -->
<g id="edge5" class="edge">
<title>l1_bs_nllut&#45;&gt;trans_bs_l1_l2a_basic</title>
<path fill="none" stroke="black" d="M278.59,-36.08C278.59,-41.39 278.59,-45.81 278.59,-45.81 278.59,-45.81 396.59,-45.81 396.59,-45.81"/>
<polygon fill="black" stroke="black" points="396.59,-49.31 406.59,-45.81 396.59,-42.31 396.59,-49.31"/>
</g>
<!-- l2a_bs_prod&#45;&gt;trans_bs_l2a_l2b -->
<g id="edge9" class="edge">
<title>l2a_bs_prod&#45;&gt;trans_bs_l2a_l2b</title>
<path fill="none" stroke="black" d="M854.26,-180C950.95,-180 1072.59,-180 1072.59,-180 1072.59,-180 1072.59,-311.36 1072.59,-311.36"/>
<polygon fill="black" stroke="black" points="1069.09,-311.36 1072.59,-321.36 1076.09,-311.36 1069.09,-311.36"/>
</g>
<!-- l2a_bs_odir -->
<g id="node11" class="node">
<title>l2a_bs_odir</title>
<ellipse fill="none" stroke="black" cx="737.55" cy="-614" rx="165.17" ry="18"/>
<text text-anchor="middle" x="737.55" y="-610.3" font-family="Times,serif" font-size="14.00">L2a_Astrometric output path 1..1</text>
</g>
<!-- l2a_bs_odir&#45;&gt;trans_bs_l2a_l2b -->
<g id="edge11" class="edge">
<title>l2a_bs_odir&#45;&gt;trans_bs_l2a_l2b</title>
<path fill="none" stroke="black" d="M835.75,-599.5C929.82,-599.5 1057.59,-599.5 1057.59,-599.5 1057.59,-599.5 1057.59,-487.6 1057.59,-487.6"/>
<polygon fill="black" stroke="black" points="1061.09,-487.6 1057.59,-477.6 1054.09,-487.6 1061.09,-487.6"/>
</g>
<!-- l2a_bs_rec -->
<g id="node12" class="node">
<title>l2a_bs_rec</title>
<polygon fill="none" stroke="black" points="833.05,-572 630.05,-572 630.05,-548 833.05,-548 845.05,-560 833.05,-572"/>
<text text-anchor="middle" x="737.55" y="-556.3" font-family="Times,serif" font-size="14.00">L2a_Astrometric recipe 1..1</text>
</g>
<!-- l2a_bs_rec&#45;&gt;trans_bs_l2a_l2b -->
<g id="edge12" class="edge">
<title>l2a_bs_rec&#45;&gt;trans_bs_l2a_l2b</title>
<path fill="none" stroke="black" d="M845.3,-545.5C917.94,-545.5 1000.59,-545.5 1000.59,-545.5 1000.59,-545.5 1000.59,-487.75 1000.59,-487.75"/>
<polygon fill="black" stroke="black" points="1004.09,-487.75 1000.59,-477.75 997.09,-487.75 1004.09,-487.75"/>
</g>
<!-- l2a_bs_cti -->
<g id="node13" class="node">
<title>l2a_bs_cti</title>
<polygon fill="none" stroke="black" points="894.55,-518 568.55,-518 568.55,-494 894.55,-494 906.55,-506 894.55,-518"/>
<text text-anchor="middle" x="737.55" y="-502.3" font-family="Times,serif" font-size="14.00">L2a_Astrometric charge xfer inefficiency 1..1</text>
</g>
<!-- l2a_bs_cti&#45;&gt;trans_bs_l2a_l2b -->
<g id="edge13" class="edge">
<title>l2a_bs_cti&#45;&gt;trans_bs_l2a_l2b</title>
<path fill="none" stroke="black" stroke-dasharray="5,2" d="M894.59,-487.94C894.59,-481.65 894.59,-476.13 894.59,-476.13 894.59,-476.13 986.66,-476.13 986.66,-476.13"/>
<polygon fill="black" stroke="black" points="986.66,-479.63 996.66,-476.13 986.66,-472.63 986.66,-479.63"/>
</g>
<!-- l2a_bs_dnb -->
<g id="node14" class="node">
<title>l2a_bs_dnb</title>
<polygon fill="none" stroke="black" points="876.05,-464 587.05,-464 587.05,-438 876.05,-438 888.05,-451 876.05,-464"/>
<text text-anchor="middle" x="737.55" y="-454.8" font-family="Times,serif" font-size="14.00">L2a_Astrometric CIC/Dark Current/FPN</text>
<text text-anchor="middle" x="737.55" y="-439.8" font-family="Times,serif" font-size="14.00"> or master dark 1..1</text>
</g>
<!-- l2a_bs_dnb&#45;&gt;trans_bs_l2a_l2b -->
<g id="edge14" class="edge">
<title>l2a_bs_dnb&#45;&gt;trans_bs_l2a_l2b</title>
<path fill="none" stroke="black" d="M888.3,-451C888.3,-451 952.22,-451 952.22,-451"/>
<polygon fill="black" stroke="black" points="952.22,-454.5 962.22,-451 952.22,-447.5 952.22,-454.5"/>
</g>
<!-- l2a_bs_mbpm -->
<g id="node15" class="node">
<title>l2a_bs_mbpm</title>
<polygon fill="none" stroke="black" points="888.55,-408 574.55,-408 574.55,-384 888.55,-384 900.55,-396 888.55,-408"/>
<text text-anchor="middle" x="737.55" y="-392.3" font-family="Times,serif" font-size="14.00">L2a_Astrometric master bad pixel map 1..1</text>
</g>
<!-- l2a_bs_mbpm&#45;&gt;trans_bs_l2a_l2b -->
<g id="edge15" class="edge">
<title>l2a_bs_mbpm&#45;&gt;trans_bs_l2a_l2b</title>
<path fill="none" stroke="black" d="M900.64,-396C900.64,-396 932.29,-396 932.29,-396"/>
<polygon fill="black" stroke="black" points="932.29,-399.5 942.29,-396 932.29,-392.5 932.29,-399.5"/>
</g>
<!-- l2a_bs_ff -->
<g id="node16" class="node">
<title>l2a_bs_ff</title>
<polygon fill="none" stroke="black" points="843.55,-354 619.55,-354 619.55,-330 843.55,-330 855.55,-342 843.55,-354"/>
<text text-anchor="middle" x="737.55" y="-338.3" font-family="Times,serif" font-size="14.00">L2a_Astrometric flat fields 1..1</text>
</g>
<!-- l2a_bs_ff&#45;&gt;trans_bs_l2a_l2b -->
<g id="edge16" class="edge">
<title>l2a_bs_ff&#45;&gt;trans_bs_l2a_l2b</title>
<path fill="none" stroke="black" d="M855.6,-342C855.6,-342 951.24,-342 951.24,-342"/>
<polygon fill="black" stroke="black" points="951.24,-345.5 961.24,-342 951.24,-338.5 951.24,-345.5"/>
</g>
<!-- l2a_bs_emg -->
<g id="node17" class="node">
<title>l2a_bs_emg</title>
<polygon fill="none" stroke="black" points="840.55,-300 622.55,-300 622.55,-276 840.55,-276 852.55,-288 840.55,-300"/>
<text text-anchor="middle" x="737.55" y="-284.3" font-family="Times,serif" font-size="14.00">L2a_Astrometric EM gain 1..1</text>
</g>
<!-- l2a_bs_emg&#45;&gt;trans_bs_l2a_l2b -->
<g id="edge17" class="edge">
<title>l2a_bs_emg&#45;&gt;trans_bs_l2a_l2b</title>
<path fill="none" stroke="black" d="M852.59,-288C917.85,-288 986.59,-288 986.59,-288 986.59,-288 986.59,-310.7 986.59,-310.7"/>
<polygon fill="black" stroke="black" points="983.09,-310.7 986.59,-320.7 990.09,-310.7 983.09,-310.7"/>
</g>
<!-- l2a_bs_kgain -->
<g id="node18" class="node">
<title>l2a_bs_kgain</title>
<polygon fill="none" stroke="black" points="827.05,-246 636.05,-246 636.05,-222 827.05,-222 839.05,-234 827.05,-246"/>
<text text-anchor="middle" x="737.55" y="-230.3" font-family="Times,serif" font-size="14.00">L2_Astrometric Kgain 1..1</text>
</g>
<!-- l2a_bs_kgain&#45;&gt;trans_bs_l2a_l2b -->
<g id="edge10" class="edge">
<title>l2a_bs_kgain&#45;&gt;trans_bs_l2a_l2b</title>
<path fill="none" stroke="black" d="M839.28,-234C923.56,-234 1029.59,-234 1029.59,-234 1029.59,-234 1029.59,-299.31 1029.59,-299.31"/>
<polygon fill="black" stroke="black" points="1026.09,-299.31 1029.59,-309.31 1033.09,-299.31 1026.09,-299.31"/>
</g>
<!-- l2b_bs_prod&#45;&gt;trans_bs_l2b_ctp -->
<g id="edge20" class="edge">
<title>l2b_bs_prod&#45;&gt;trans_bs_l2b_ctp</title>
<path fill="none" stroke="black" d="M1438.85,-423C1536.48,-423 1659.59,-423 1659.59,-423 1659.59,-423 1659.59,-443.85 1659.59,-443.85"/>
<polygon fill="black" stroke="black" points="1656.09,-443.85 1659.59,-453.85 1663.09,-443.85 1656.09,-443.85"/>
</g>
<!-- l2b_bs_man -->
<g id="node21" class="node">
<title>l2b_bs_man</title>
<ellipse fill="none" stroke="black" cx="1321.58" cy="-747" rx="151.37" ry="18"/>
<text text-anchor="middle" x="1321.58" y="-743.3" font-family="Times,serif" font-size="14.00">L2b_Astrometric manifest 1..1</text>
</g>
<!-- l2b_bs_man&#45;&gt;trans_bs_l2b_ctp -->
<g id="edge21" class="edge">
<title>l2b_bs_man&#45;&gt;trans_bs_l2b_ctp</title>
<path fill="none" stroke="black" d="M1473.28,-747C1563.14,-747 1659.59,-747 1659.59,-747 1659.59,-747 1659.59,-726.15 1659.59,-726.15"/>
<polygon fill="black" stroke="black" points="1663.09,-726.15 1659.59,-716.15 1656.09,-726.15 1663.09,-726.15"/>
</g>
<!-- l2b_bs_odir -->
<g id="node22" class="node">
<title>l2b_bs_odir</title>
<ellipse fill="none" stroke="black" cx="1321.58" cy="-693" rx="165.97" ry="18"/>
<text text-anchor="middle" x="1321.58" y="-689.3" font-family="Times,serif" font-size="14.00">L2b_Astrometric output path 1..1</text>
</g>
<!-- l2b_bs_odir&#45;&gt;trans_bs_l2b_ctp -->
<g id="edge22" class="edge">
<title>l2b_bs_odir&#45;&gt;trans_bs_l2b_ctp</title>
<path fill="none" stroke="black" d="M1487.77,-693C1487.77,-693 1574.87,-693 1574.87,-693"/>
<polygon fill="black" stroke="black" points="1574.87,-696.5 1584.87,-693 1574.87,-689.5 1574.87,-696.5"/>
</g>
<!-- l2b_bs_rec -->
<g id="node23" class="node">
<title>l2b_bs_rec</title>
<polygon fill="none" stroke="black" points="1417.08,-651 1214.08,-651 1214.08,-627 1417.08,-627 1429.08,-639 1417.08,-651"/>
<text text-anchor="middle" x="1321.58" y="-635.3" font-family="Times,serif" font-size="14.00">L2b_Astrometric recipe 1..1</text>
</g>
<!-- l2b_bs_rec&#45;&gt;trans_bs_l2b_ctp -->
<g id="edge23" class="edge">
<title>l2b_bs_rec&#45;&gt;trans_bs_l2b_ctp</title>
<path fill="none" stroke="black" d="M1429.24,-639C1429.24,-639 1529.69,-639 1529.69,-639"/>
<polygon fill="black" stroke="black" points="1529.69,-642.5 1539.69,-639 1529.69,-635.5 1529.69,-642.5"/>
</g>
<!-- l2b_bs_excicrf -->
<g id="node24" class="node">
<title>l2b_bs_excicrf</title>
<polygon fill="none" stroke="black" points="1473.08,-597 1158.08,-597 1158.08,-573 1473.08,-573 1485.08,-585 1473.08,-597"/>
<text text-anchor="middle" x="1321.58" y="-581.3" font-family="Times,serif" font-size="14.00">L2b_Astrometric EXCAM ICRF location 1..1</text>
</g>
<!-- l2b_bs_excicrf&#45;&gt;trans_bs_l2b_ctp -->
<g id="edge24" class="edge">
<title>l2b_bs_excicrf&#45;&gt;trans_bs_l2b_ctp</title>
<path fill="none" stroke="black" d="M1485.3,-585C1485.3,-585 1517.84,-585 1517.84,-585"/>
<polygon fill="black" stroke="black" points="1517.84,-588.5 1527.84,-585 1517.84,-581.5 1517.84,-588.5"/>
</g>
<!-- l2b_bs_excfovps -->
<g id="node25" class="node">
<title>l2b_bs_excfovps</title>
<polygon fill="none" stroke="black" points="1480.08,-543 1151.08,-543 1151.08,-519 1480.08,-519 1492.08,-531 1480.08,-543"/>
<text text-anchor="middle" x="1321.58" y="-527.3" font-family="Times,serif" font-size="14.00">L2b_Astrometric EXCAM FOV pixel scale 1..1</text>
</g>
<!-- l2b_bs_excfovps&#45;&gt;trans_bs_l2b_ctp -->
<g id="edge25" class="edge">
<title>l2b_bs_excfovps&#45;&gt;trans_bs_l2b_ctp</title>
<path fill="none" stroke="black" d="M1492.22,-531C1492.22,-531 1529.61,-531 1529.61,-531"/>
<polygon fill="black" stroke="black" points="1529.61,-534.5 1539.61,-531 1529.61,-527.5 1529.61,-534.5"/>
</g>
<!-- l2b_bs_distm -->
<g id="node26" class="node">
<title>l2b_bs_distm</title>
<polygon fill="none" stroke="black" points="1447.58,-489 1183.58,-489 1183.58,-465 1447.58,-465 1459.58,-477 1447.58,-489"/>
<text text-anchor="middle" x="1321.58" y="-473.3" font-family="Times,serif" font-size="14.00">L2b_Astrometric distortion map 1..1</text>
</g>
<!-- l2b_bs_distm&#45;&gt;trans_bs_l2b_ctp -->
<g id="edge26" class="edge">
<title>l2b_bs_distm&#45;&gt;trans_bs_l2b_ctp</title>
<path fill="none" stroke="black" d="M1459.75,-477C1459.75,-477 1574.65,-477 1574.65,-477"/>
<polygon fill="black" stroke="black" points="1574.65,-480.5 1584.65,-477 1574.65,-473.5 1574.65,-480.5"/>
</g>
</g>
</svg>
