<?xml version="1.0" encoding="UTF-8" standalone="no"?>
<!DOCTYPE svg PUBLIC "-//W3C//DTD SVG 1.1//EN"
 "http://www.w3.org/Graphics/SVG/1.1/DTD/svg11.dtd">
<!-- Generated by graphviz version 2.43.0 (0)
 -->
<!-- Title: NDImagingFilterCalibration Pages: 1 -->
<svg width="1067pt" height="586pt"
 viewBox="0.00 0.00 1067.35 586.00" xmlns="http://www.w3.org/2000/svg" xmlns:xlink="http://www.w3.org/1999/xlink">
<g id="graph0" class="graph" transform="scale(1 1) rotate(0) translate(4 582)">
<title>NDImagingFilterCalibration</title>
<polygon fill="white" stroke="transparent" points="-4,4 -4,-582 1063.35,-582 1063.35,4 -4,4"/>
<!-- trans_cal_ndfiltimg -->
<g id="node1" class="node">
<title>trans_cal_ndfiltimg</title>
<ellipse fill="none" stroke="black" cx="522.94" cy="-290" rx="103.89" ry="103.89"/>
<text text-anchor="middle" x="522.94" y="-301.3" font-family="Times,serif" font-size="14.00">L1</text>
<text text-anchor="middle" x="522.94" y="-286.3" font-family="Times,serif" font-size="14.00">Transmutation</text>
<text text-anchor="middle" x="522.94" y="-271.3" font-family="Times,serif" font-size="14.00">ND Filter Imaging</text>
</g>
<!-- cal_ndfiltimg_prod -->
<g id="node13" class="node">
<title>cal_ndfiltimg_prod</title>
<polygon fill="none" stroke="black" points="984.12,-389 738.12,-389 738.12,-353 984.12,-353 984.12,-389"/>
<text text-anchor="middle" x="861.12" y="-367.3" font-family="Times,serif" font-size="14.00">ND Imaging Filter products 1..1</text>
</g>
<!-- trans_cal_ndfiltimg&#45;&gt;cal_ndfiltimg_prod -->
<g id="edge12" class="edge">
<title>trans_cal_ndfiltimg&#45;&gt;cal_ndfiltimg_prod</title>
<path fill="none" stroke="black" stroke-dasharray="5,2" d="M588.15,-371C588.15,-371 727.93,-371 727.93,-371"/>
<polygon fill="black" stroke="black" points="727.93,-374.5 737.93,-371 727.93,-367.5 727.93,-374.5"/>
</g>
<!-- cal_ndfiltimg_log -->
<g id="node14" class="node">
<title>cal_ndfiltimg_log</title>
<ellipse fill="none" stroke="black" cx="861.12" cy="-317" rx="133.48" ry="18"/>
<text text-anchor="middle" x="861.12" y="-313.3" font-family="Times,serif" font-size="14.00">ND Imaging Filter log 1..1</text>
</g>
<!-- trans_cal_ndfiltimg&#45;&gt;cal_ndfiltimg_log -->
<g id="edge13" class="edge">
<title>trans_cal_ndfiltimg&#45;&gt;cal_ndfiltimg_log</title>
<path fill="none" stroke="black" stroke-dasharray="5,2" d="M623.49,-317C623.49,-317 717.75,-317 717.75,-317"/>
<polygon fill="black" stroke="black" points="717.75,-320.5 727.75,-317 717.75,-313.5 717.75,-320.5"/>
</g>
<!-- cal_ndfiltimg_man -->
<g id="node15" class="node">
<title>cal_ndfiltimg_man</title>
<ellipse fill="none" stroke="black" cx="861.12" cy="-263" rx="198.47" ry="18"/>
<text text-anchor="middle" x="861.12" y="-259.3" font-family="Times,serif" font-size="14.00">ND Imaging Filter product manifest 1..1</text>
</g>
<!-- trans_cal_ndfiltimg&#45;&gt;cal_ndfiltimg_man -->
<g id="edge14" class="edge">
<title>trans_cal_ndfiltimg&#45;&gt;cal_ndfiltimg_man</title>
<path fill="none" stroke="black" d="M623.49,-263C623.49,-263 652.64,-263 652.64,-263"/>
<polygon fill="black" stroke="black" points="652.64,-266.5 662.64,-263 652.64,-259.5 652.64,-266.5"/>
</g>
<!-- cal_ndfiltimg_src -->
<g id="node16" class="node">
<title>cal_ndfiltimg_src</title>
<ellipse fill="none" stroke="black" cx="861.12" cy="-209" rx="193.07" ry="18"/>
<text text-anchor="middle" x="861.12" y="-205.3" font-family="Times,serif" font-size="14.00">ND Imaging Filter source manifest 1..1</text>
</g>
<!-- trans_cal_ndfiltimg&#45;&gt;cal_ndfiltimg_src -->
<g id="edge15" class="edge">
<title>trans_cal_ndfiltimg&#45;&gt;cal_ndfiltimg_src</title>
<path fill="none" stroke="black" d="M588.15,-209C588.15,-209 658.02,-209 658.02,-209"/>
<polygon fill="black" stroke="black" points="658.02,-212.5 668.02,-209 658.02,-205.5 658.02,-212.5"/>
</g>
<!-- l1_cal_ndfiltimg_prod -->
<g id="node2" class="node">
<title>l1_cal_ndfiltimg_prod</title>
<polygon fill="none" stroke="black" points="327,-578 56,-578 56,-542 327,-542 327,-578"/>
<text text-anchor="middle" x="191.5" y="-556.3" font-family="Times,serif" font-size="14.00">L1_ND Imaging Filter products 1..b</text>
</g>
<!-- l1_cal_ndfiltimg_prod&#45;&gt;trans_cal_ndfiltimg -->
<g id="edge1" class="edge">
<title>l1_cal_ndfiltimg_prod&#45;&gt;trans_cal_ndfiltimg</title>
<path fill="none" stroke="black" stroke-dasharray="5,2" d="M327.06,-560C431.56,-560 558.35,-560 558.35,-560 558.35,-560 558.35,-397.86 558.35,-397.86"/>
<polygon fill="black" stroke="black" points="561.85,-397.86 558.35,-387.86 554.85,-397.86 561.85,-397.86"/>
</g>
<!-- l1_cal_ndfiltimg_man -->
<g id="node3" class="node">
<title>l1_cal_ndfiltimg_man</title>
<ellipse fill="none" stroke="black" cx="191.5" cy="-506" rx="175.47" ry="18"/>
<text text-anchor="middle" x="191.5" y="-502.3" font-family="Times,serif" font-size="14.00">L1_ND Imaging Filter manifest 1..1</text>
</g>
<!-- l1_cal_ndfiltimg_man&#45;&gt;trans_cal_ndfiltimg -->
<g id="edge2" class="edge">
<title>l1_cal_ndfiltimg_man&#45;&gt;trans_cal_ndfiltimg</title>
<path fill="none" stroke="black" d="M367.18,-506C431.28,-506 488.35,-506 488.35,-506 488.35,-506 488.35,-398.2 488.35,-398.2"/>
<polygon fill="black" stroke="black" points="491.85,-398.2 488.35,-388.2 484.85,-398.2 491.85,-398.2"/>
</g>
<!-- l1_cal_ndfiltimg_odir -->
<g id="node4" class="node">
<title>l1_cal_ndfiltimg_odir</title>
<ellipse fill="none" stroke="black" cx="191.5" cy="-452" rx="189.57" ry="18"/>
<text text-anchor="middle" x="191.5" y="-448.3" font-family="Times,serif" font-size="14.00">L1_ND Imaging Filter output path 1..1</text>
</g>
<!-- l1_cal_ndfiltimg_odir&#45;&gt;trans_cal_ndfiltimg -->
<g id="edge3" class="edge">
<title>l1_cal_ndfiltimg_odir&#45;&gt;trans_cal_ndfiltimg</title>
<path fill="none" stroke="black" d="M365.35,-444.31C365.35,-427.57 365.35,-389.3 365.35,-389.3 365.35,-389.3 482.19,-389.3 482.19,-389.3"/>
<polygon fill="black" stroke="black" points="482.19,-392.8 492.19,-389.3 482.19,-385.8 482.19,-392.8"/>
</g>
<!-- l1_cal_ndfiltimg_rec -->
<g id="node5" class="node">
<title>l1_cal_ndfiltimg_rec</title>
<polygon fill="none" stroke="black" points="305.5,-410 65.5,-410 65.5,-386 305.5,-386 317.5,-398 305.5,-410"/>
<text text-anchor="middle" x="191.5" y="-394.3" font-family="Times,serif" font-size="14.00">L1_ND Imaging Filter recipe 1..1</text>
</g>
<!-- l1_cal_ndfiltimg_rec&#45;&gt;trans_cal_ndfiltimg -->
<g id="edge4" class="edge">
<title>l1_cal_ndfiltimg_rec&#45;&gt;trans_cal_ndfiltimg</title>
<path fill="none" stroke="black" d="M317.75,-384.65C317.75,-384.65 469.6,-384.65 469.6,-384.65"/>
<polygon fill="black" stroke="black" points="469.6,-388.15 479.6,-384.65 469.6,-381.15 469.6,-388.15"/>
</g>
<!-- l1_cal_ndfiltimg_nllut -->
<g id="node6" class="node">
<title>l1_cal_ndfiltimg_nllut</title>
<polygon fill="none" stroke="black" points="336.5,-356 34.5,-356 34.5,-332 336.5,-332 348.5,-344 336.5,-356"/>
<text text-anchor="middle" x="191.5" y="-340.3" font-family="Times,serif" font-size="14.00">L1_ND Imaging Filter non&#45;linear LUT 1..1</text>
</g>
<!-- l1_cal_ndfiltimg_nllut&#45;&gt;trans_cal_ndfiltimg -->
<g id="edge5" class="edge">
<title>l1_cal_ndfiltimg_nllut&#45;&gt;trans_cal_ndfiltimg</title>
<path fill="none" stroke="black" d="M348.97,-344C348.97,-344 424.04,-344 424.04,-344"/>
<polygon fill="black" stroke="black" points="424.04,-347.5 434.04,-344 424.04,-340.5 424.04,-347.5"/>
</g>
<!-- l2a_cal_ndfiltimg_cti -->
<g id="node7" class="node">
<title>l2a_cal_ndfiltimg_cti</title>
<polygon fill="none" stroke="black" points="371,-302 0,-302 0,-278 371,-278 383,-290 371,-302"/>
<text text-anchor="middle" x="191.5" y="-286.3" font-family="Times,serif" font-size="14.00">L2a_ND Imaging Filter charge xfer inefficiency 1..1</text>
</g>
<!-- l2a_cal_ndfiltimg_cti&#45;&gt;trans_cal_ndfiltimg -->
<g id="edge7" class="edge">
<title>l2a_cal_ndfiltimg_cti&#45;&gt;trans_cal_ndfiltimg</title>
<path fill="none" stroke="black" d="M383.34,-290C383.34,-290 409,-290 409,-290"/>
<polygon fill="black" stroke="black" points="409,-293.5 419,-290 409,-286.5 409,-293.5"/>
</g>
<!-- l2a_cal_ndfiltimg_dnb -->
<g id="node8" class="node">
<title>l2a_cal_ndfiltimg_dnb</title>
<polygon fill="none" stroke="black" points="353,-248 18,-248 18,-222 353,-222 365,-235 353,-248"/>
<text text-anchor="middle" x="191.5" y="-238.8" font-family="Times,serif" font-size="14.00">L2a_ND Imaging Filter CIC/Dark Current/FPN</text>
<text text-anchor="middle" x="191.5" y="-223.8" font-family="Times,serif" font-size="14.00"> or master dark 1..1</text>
</g>
<!-- l2a_cal_ndfiltimg_dnb&#45;&gt;trans_cal_ndfiltimg -->
<g id="edge8" class="edge">
<title>l2a_cal_ndfiltimg_dnb&#45;&gt;trans_cal_ndfiltimg</title>
<path fill="none" stroke="black" d="M365.47,-235C365.47,-235 424.52,-235 424.52,-235"/>
<polygon fill="black" stroke="black" points="424.52,-238.5 434.52,-235 424.52,-231.5 424.52,-238.5"/>
</g>
<!-- l2a_cal_ndfiltimg_mbpm -->
<g id="node9" class="node">
<title>l2a_cal_ndfiltimg_mbpm</title>
<polygon fill="none" stroke="black" points="365,-192 6,-192 6,-168 365,-168 377,-180 365,-192"/>
<text text-anchor="middle" x="191.5" y="-176.3" font-family="Times,serif" font-size="14.00">L2a_ND Imaging Filter master bad pixel map 1..1</text>
</g>
<!-- l2a_cal_ndfiltimg_mbpm&#45;&gt;trans_cal_ndfiltimg -->
<g id="edge9" class="edge">
<title>l2a_cal_ndfiltimg_mbpm&#45;&gt;trans_cal_ndfiltimg</title>
<path fill="none" stroke="black" d="M377.09,-192.03C377.09,-192.03 478.08,-192.03 478.08,-192.03"/>
<polygon fill="black" stroke="black" points="478.08,-195.53 488.08,-192.03 478.08,-188.53 478.08,-195.53"/>
</g>
<!-- l2a_cal_ndfiltimg_ff -->
<g id="node10" class="node">
<title>l2a_cal_ndfiltimg_ff</title>
<polygon fill="none" stroke="black" points="320.5,-138 50.5,-138 50.5,-114 320.5,-114 332.5,-126 320.5,-138"/>
<text text-anchor="middle" x="191.5" y="-122.3" font-family="Times,serif" font-size="14.00">L2a_ND Imaging Filter flat fields 1..1</text>
</g>
<!-- l2a_cal_ndfiltimg_ff&#45;&gt;trans_cal_ndfiltimg -->
<g id="edge10" class="edge">
<title>l2a_cal_ndfiltimg_ff&#45;&gt;trans_cal_ndfiltimg</title>
<path fill="none" stroke="black" d="M332.66,-126C402.21,-126 471.35,-126 471.35,-126 471.35,-126 471.35,-189.37 471.35,-189.37"/>
<polygon fill="black" stroke="black" points="467.85,-189.37 471.35,-199.37 474.85,-189.37 467.85,-189.37"/>
</g>
<!-- l2a_cal_ndfiltimg_emg -->
<g id="node11" class="node">
<title>l2a_cal_ndfiltimg_emg</title>
<polygon fill="none" stroke="black" points="317.5,-84 53.5,-84 53.5,-60 317.5,-60 329.5,-72 317.5,-84"/>
<text text-anchor="middle" x="191.5" y="-68.3" font-family="Times,serif" font-size="14.00">L2a_ND Imaging Filter EM gain 1..1</text>
</g>
<!-- l2a_cal_ndfiltimg_emg&#45;&gt;trans_cal_ndfiltimg -->
<g id="edge11" class="edge">
<title>l2a_cal_ndfiltimg_emg&#45;&gt;trans_cal_ndfiltimg</title>
<path fill="none" stroke="black" d="M329.83,-72C420.89,-72 523.35,-72 523.35,-72 523.35,-72 523.35,-175.79 523.35,-175.79"/>
<polygon fill="black" stroke="black" points="519.85,-175.79 523.35,-185.79 526.85,-175.79 519.85,-175.79"/>
</g>
<!-- l2a_cal_ndfiltimg_kgain -->
<g id="node12" class="node">
<title>l2a_cal_ndfiltimg_kgain</title>
<polygon fill="none" stroke="black" points="304,-30 67,-30 67,-6 304,-6 316,-18 304,-30"/>
<text text-anchor="middle" x="191.5" y="-14.3" font-family="Times,serif" font-size="14.00">L2_ND Imaging Filter Kgain 1..1</text>
</g>
<!-- l2a_cal_ndfiltimg_kgain&#45;&gt;trans_cal_ndfiltimg -->
<g id="edge6" class="edge">
<title>l2a_cal_ndfiltimg_kgain&#45;&gt;trans_cal_ndfiltimg</title>
<path fill="none" stroke="black" d="M316.13,-18C428.21,-18 575.35,-18 575.35,-18 575.35,-18 575.35,-190.18 575.35,-190.18"/>
<polygon fill="black" stroke="black" points="571.85,-190.18 575.35,-200.18 578.85,-190.18 571.85,-190.18"/>
</g>
</g>
</svg>
