<?xml version="1.0" encoding="UTF-8" standalone="no"?>
<!DOCTYPE svg PUBLIC "-//W3C//DTD SVG 1.1//EN"
 "http://www.w3.org/Graphics/SVG/1.1/DTD/svg11.dtd">
<!-- Generated by graphviz version 2.43.0 (0)
 -->
<!-- Title: DarkTraditionalCalibrations Pages: 1 -->
<svg width="1035pt" height="206pt"
 viewBox="0.00 0.00 1034.52 206.00" xmlns="http://www.w3.org/2000/svg" xmlns:xlink="http://www.w3.org/1999/xlink">
<g id="graph0" class="graph" transform="scale(1 1) rotate(0) translate(4 202)">
<title>DarkTraditionalCalibrations</title>
<polygon fill="white" stroke="transparent" points="-4,4 -4,-202 1030.52,-202 1030.52,4 -4,4"/>
<!-- trans_cal_drktrad_l1_l2a -->
<g id="node1" class="node">
<title>trans_cal_drktrad_l1_l2a</title>
<ellipse fill="none" stroke="black" cx="504.16" cy="-99" rx="98.99" ry="98.99"/>
<text text-anchor="middle" x="504.16" y="-110.3" font-family="Times,serif" font-size="14.00">Dark(Traditional)</text>
<text text-anchor="middle" x="504.16" y="-95.3" font-family="Times,serif" font-size="14.00">Transmutation</text>
<text text-anchor="middle" x="504.16" y="-80.3" font-family="Times,serif" font-size="14.00">L1 to L2a basic</text>
</g>
<!-- cal_drktrad_prod -->
<g id="node6" class="node">
<title>cal_drktrad_prod</title>
<polygon fill="none" stroke="black" points="952.34,-198 713.34,-198 713.34,-162 952.34,-162 952.34,-198"/>
<text text-anchor="middle" x="832.84" y="-176.3" font-family="Times,serif" font-size="14.00">Dark(Traditional) products 1..1</text>
</g>
<!-- trans_cal_drktrad_l1_l2a&#45;&gt;cal_drktrad_prod -->
<g id="edge5" class="edge">
<title>trans_cal_drktrad_l1_l2a&#45;&gt;cal_drktrad_prod</title>
<path fill="none" stroke="black" stroke-dasharray="5,2" d="M561.41,-180C561.41,-180 703.32,-180 703.32,-180"/>
<polygon fill="black" stroke="black" points="703.32,-183.5 713.32,-180 703.32,-176.5 703.32,-183.5"/>
</g>
<!-- cal_drktrad_log -->
<g id="node7" class="node">
<title>cal_drktrad_log</title>
<ellipse fill="none" stroke="black" cx="832.84" cy="-126" rx="128.08" ry="18"/>
<text text-anchor="middle" x="832.84" y="-122.3" font-family="Times,serif" font-size="14.00">Dark(Traditional) log 1..1</text>
</g>
<!-- trans_cal_drktrad_l1_l2a&#45;&gt;cal_drktrad_log -->
<g id="edge8" class="edge">
<title>trans_cal_drktrad_l1_l2a&#45;&gt;cal_drktrad_log</title>
<path fill="none" stroke="black" stroke-dasharray="5,2" d="M599.67,-126C599.67,-126 694.67,-126 694.67,-126"/>
<polygon fill="black" stroke="black" points="694.67,-129.5 704.67,-126 694.67,-122.5 694.67,-129.5"/>
</g>
<!-- cal_drktrad_man -->
<g id="node8" class="node">
<title>cal_drktrad_man</title>
<ellipse fill="none" stroke="black" cx="832.84" cy="-72" rx="193.87" ry="18"/>
<text text-anchor="middle" x="832.84" y="-68.3" font-family="Times,serif" font-size="14.00">Dark(Traditional) product manifest 1..1</text>
</g>
<!-- trans_cal_drktrad_l1_l2a&#45;&gt;cal_drktrad_man -->
<g id="edge6" class="edge">
<title>trans_cal_drktrad_l1_l2a&#45;&gt;cal_drktrad_man</title>
<path fill="none" stroke="black" d="M599.67,-72C599.67,-72 629.08,-72 629.08,-72"/>
<polygon fill="black" stroke="black" points="629.08,-75.5 639.08,-72 629.08,-68.5 629.08,-75.5"/>
</g>
<!-- cal_drktrad_src -->
<g id="node9" class="node">
<title>cal_drktrad_src</title>
<ellipse fill="none" stroke="black" cx="832.84" cy="-18" rx="188.47" ry="18"/>
<text text-anchor="middle" x="832.84" y="-14.3" font-family="Times,serif" font-size="14.00">Dark(Traditional) source manifest 1..1</text>
</g>
<!-- trans_cal_drktrad_l1_l2a&#45;&gt;cal_drktrad_src -->
<g id="edge7" class="edge">
<title>trans_cal_drktrad_l1_l2a&#45;&gt;cal_drktrad_src</title>
<path fill="none" stroke="black" d="M561.41,-18C561.41,-18 634.25,-18 634.25,-18"/>
<polygon fill="black" stroke="black" points="634.25,-21.5 644.25,-18 634.25,-14.5 634.25,-21.5"/>
</g>
<!-- l1_cal_drktrad_prod -->
<g id="node2" class="node">
<title>l1_cal_drktrad_prod</title>
<polygon fill="none" stroke="black" points="316.08,-198 53.08,-198 53.08,-162 316.08,-162 316.08,-198"/>
<text text-anchor="middle" x="184.58" y="-176.3" font-family="Times,serif" font-size="14.00">L1_Dark(Traditional) products 1..b</text>
</g>
<!-- l1_cal_drktrad_prod&#45;&gt;trans_cal_drktrad_l1_l2a -->
<g id="edge1" class="edge">
<title>l1_cal_drktrad_prod&#45;&gt;trans_cal_drktrad_l1_l2a</title>
<path fill="none" stroke="black" stroke-dasharray="5,2" d="M316.41,-180C316.41,-180 437.05,-180 437.05,-180"/>
<polygon fill="black" stroke="black" points="437.05,-183.5 447.05,-180 437.05,-176.5 437.05,-183.5"/>
</g>
<!-- l1_cal_drktrad_man -->
<g id="node3" class="node">
<title>l1_cal_drktrad_man</title>
<ellipse fill="none" stroke="black" cx="184.58" cy="-126" rx="170.87" ry="18"/>
<text text-anchor="middle" x="184.58" y="-122.3" font-family="Times,serif" font-size="14.00">L1_Dark(Traditional) manifest 1..1</text>
</g>
<!-- l1_cal_drktrad_man&#45;&gt;trans_cal_drktrad_l1_l2a -->
<g id="edge2" class="edge">
<title>l1_cal_drktrad_man&#45;&gt;trans_cal_drktrad_l1_l2a</title>
<path fill="none" stroke="black" d="M355.6,-126C355.6,-126 398.81,-126 398.81,-126"/>
<polygon fill="black" stroke="black" points="398.81,-129.5 408.81,-126 398.81,-122.5 398.81,-129.5"/>
</g>
<!-- l1_cal_drktrad_odir -->
<g id="node4" class="node">
<title>l1_cal_drktrad_odir</title>
<ellipse fill="none" stroke="black" cx="184.58" cy="-72" rx="184.67" ry="18"/>
<text text-anchor="middle" x="184.58" y="-68.3" font-family="Times,serif" font-size="14.00">L1_Dark(Traditional) output path 1..1</text>
</g>
<!-- l1_cal_drktrad_odir&#45;&gt;trans_cal_drktrad_l1_l2a -->
<g id="edge3" class="edge">
<title>l1_cal_drktrad_odir&#45;&gt;trans_cal_drktrad_l1_l2a</title>
<path fill="none" stroke="black" d="M369.56,-72C369.56,-72 398.61,-72 398.61,-72"/>
<polygon fill="black" stroke="black" points="398.61,-75.5 408.61,-72 398.61,-68.5 398.61,-75.5"/>
</g>
<!-- l1_cal_drktrad_rec -->
<g id="node5" class="node">
<title>l1_cal_drktrad_rec</title>
<polygon fill="none" stroke="black" points="295.08,-30 62.08,-30 62.08,-6 295.08,-6 307.08,-18 295.08,-30"/>
<text text-anchor="middle" x="184.58" y="-14.3" font-family="Times,serif" font-size="14.00">L1_Dark(Traditional) recipe 1..1</text>
</g>
<!-- l1_cal_drktrad_rec&#45;&gt;trans_cal_drktrad_l1_l2a -->
<g id="edge4" class="edge">
<title>l1_cal_drktrad_rec&#45;&gt;trans_cal_drktrad_l1_l2a</title>
<path fill="none" stroke="black" d="M307.23,-18C307.23,-18 436.9,-18 436.9,-18"/>
<polygon fill="black" stroke="black" points="436.9,-21.5 446.9,-18 436.9,-14.5 436.9,-21.5"/>
</g>
</g>
</svg>
