<?xml version="1.0" encoding="UTF-8" standalone="no"?>
<!DOCTYPE svg PUBLIC "-//W3C//DTD SVG 1.1//EN"
 "http://www.w3.org/Graphics/SVG/1.1/DTD/svg11.dtd">
<!-- Generated by graphviz version 2.43.0 (0)
 -->
<!-- Title: PupilCalibrations Pages: 1 -->
<svg width="790pt" height="260pt"
 viewBox="0.00 0.00 789.73 260.00" xmlns="http://www.w3.org/2000/svg" xmlns:xlink="http://www.w3.org/1999/xlink">
<g id="graph0" class="graph" transform="scale(1 1) rotate(0) translate(4 256)">
<title>PupilCalibrations</title>
<polygon fill="white" stroke="transparent" points="-4,4 -4,-256 785.73,-256 785.73,4 -4,4"/>
<!-- trans_cal_pupil_l1_l2a -->
<g id="node1" class="node">
<title>trans_cal_pupil_l1_l2a</title>
<ellipse fill="none" stroke="black" cx="381.77" cy="-126" rx="88.28" ry="88.28"/>
<text text-anchor="middle" x="381.77" y="-137.3" font-family="Times,serif" font-size="14.00">Pupil</text>
<text text-anchor="middle" x="381.77" y="-122.3" font-family="Times,serif" font-size="14.00">Transmutation</text>
<text text-anchor="middle" x="381.77" y="-107.3" font-family="Times,serif" font-size="14.00">L1 to L2a basic</text>
</g>
<!-- cal_pupil_prod -->
<g id="node7" class="node">
<title>cal_pupil_prod</title>
<polygon fill="none" stroke="black" points="719.94,-225 567.94,-225 567.94,-189 719.94,-189 719.94,-225"/>
<text text-anchor="middle" x="643.94" y="-203.3" font-family="Times,serif" font-size="14.00">Pupil products 1..1</text>
</g>
<!-- trans_cal_pupil_l1_l2a&#45;&gt;cal_pupil_prod -->
<g id="edge6" class="edge">
<title>trans_cal_pupil_l1_l2a&#45;&gt;cal_pupil_prod</title>
<path fill="none" stroke="black" stroke-dasharray="5,2" d="M427.43,-201.69C427.43,-201.69 557.76,-201.69 557.76,-201.69"/>
<polygon fill="black" stroke="black" points="557.76,-205.19 567.76,-201.69 557.76,-198.19 557.76,-205.19"/>
</g>
<!-- cal_pupil_log -->
<g id="node8" class="node">
<title>cal_pupil_log</title>
<ellipse fill="none" stroke="black" cx="643.94" cy="-153" rx="72.29" ry="18"/>
<text text-anchor="middle" x="643.94" y="-149.3" font-family="Times,serif" font-size="14.00">Pupil log 1..1</text>
</g>
<!-- trans_cal_pupil_l1_l2a&#45;&gt;cal_pupil_log -->
<g id="edge9" class="edge">
<title>trans_cal_pupil_l1_l2a&#45;&gt;cal_pupil_log</title>
<path fill="none" stroke="black" stroke-dasharray="5,2" d="M466.16,-153C466.16,-153 561.6,-153 561.6,-153"/>
<polygon fill="black" stroke="black" points="561.6,-156.5 571.6,-153 561.6,-149.5 561.6,-156.5"/>
</g>
<!-- cal_pupil_man -->
<g id="node9" class="node">
<title>cal_pupil_man</title>
<ellipse fill="none" stroke="black" cx="643.94" cy="-99" rx="137.58" ry="18"/>
<text text-anchor="middle" x="643.94" y="-95.3" font-family="Times,serif" font-size="14.00">Pupil product manifest 1..1</text>
</g>
<!-- trans_cal_pupil_l1_l2a&#45;&gt;cal_pupil_man -->
<g id="edge7" class="edge">
<title>trans_cal_pupil_l1_l2a&#45;&gt;cal_pupil_man</title>
<path fill="none" stroke="black" d="M466.16,-99C466.16,-99 495.78,-99 495.78,-99"/>
<polygon fill="black" stroke="black" points="495.78,-102.5 505.78,-99 495.78,-95.5 495.78,-102.5"/>
</g>
<!-- cal_pupil_src -->
<g id="node10" class="node">
<title>cal_pupil_src</title>
<ellipse fill="none" stroke="black" cx="643.94" cy="-45" rx="131.88" ry="18"/>
<text text-anchor="middle" x="643.94" y="-41.3" font-family="Times,serif" font-size="14.00">Pupil source manifest 1..1</text>
</g>
<!-- trans_cal_pupil_l1_l2a&#45;&gt;cal_pupil_src -->
<g id="edge8" class="edge">
<title>trans_cal_pupil_l1_l2a&#45;&gt;cal_pupil_src</title>
<path fill="none" stroke="black" d="M427.43,-50.31C427.43,-50.31 507.7,-50.31 507.7,-50.31"/>
<polygon fill="black" stroke="black" points="507.7,-53.81 517.7,-50.31 507.7,-46.81 507.7,-53.81"/>
</g>
<!-- l1_cal_pupil_prod -->
<g id="node2" class="node">
<title>l1_cal_pupil_prod</title>
<polygon fill="none" stroke="black" points="217.19,-252 40.19,-252 40.19,-216 217.19,-216 217.19,-252"/>
<text text-anchor="middle" x="128.69" y="-230.3" font-family="Times,serif" font-size="14.00">L1_Pupil products 1..b</text>
</g>
<!-- l1_cal_pupil_prod&#45;&gt;trans_cal_pupil_l1_l2a -->
<g id="edge1" class="edge">
<title>l1_cal_pupil_prod&#45;&gt;trans_cal_pupil_l1_l2a</title>
<path fill="none" stroke="black" stroke-dasharray="5,2" d="M217.54,-220.5C290.8,-220.5 382.73,-220.5 382.73,-220.5 382.73,-220.5 382.73,-219.91 382.73,-219.91"/>
<polygon fill="black" stroke="black" points="386.23,-224.59 382.73,-214.59 379.23,-224.59 386.23,-224.59"/>
</g>
<!-- l1_cal_pupil_man -->
<g id="node3" class="node">
<title>l1_cal_pupil_man</title>
<ellipse fill="none" stroke="black" cx="128.69" cy="-180" rx="114.28" ry="18"/>
<text text-anchor="middle" x="128.69" y="-176.3" font-family="Times,serif" font-size="14.00">L1_Pupil manifest 1..1</text>
</g>
<!-- l1_cal_pupil_man&#45;&gt;trans_cal_pupil_l1_l2a -->
<g id="edge2" class="edge">
<title>l1_cal_pupil_man&#45;&gt;trans_cal_pupil_l1_l2a</title>
<path fill="none" stroke="black" d="M243.38,-180C243.38,-180 301.65,-180 301.65,-180"/>
<polygon fill="black" stroke="black" points="301.65,-183.5 311.65,-180 301.65,-176.5 301.65,-183.5"/>
</g>
<!-- l1_cal_pupil_odir -->
<g id="node4" class="node">
<title>l1_cal_pupil_odir</title>
<ellipse fill="none" stroke="black" cx="128.69" cy="-126" rx="128.88" ry="18"/>
<text text-anchor="middle" x="128.69" y="-122.3" font-family="Times,serif" font-size="14.00">L1_Pupil output path 1..1</text>
</g>
<!-- l1_cal_pupil_odir&#45;&gt;trans_cal_pupil_l1_l2a -->
<g id="edge3" class="edge">
<title>l1_cal_pupil_odir&#45;&gt;trans_cal_pupil_l1_l2a</title>
<path fill="none" stroke="black" d="M257.45,-126C257.45,-126 283.19,-126 283.19,-126"/>
<polygon fill="black" stroke="black" points="283.19,-129.5 293.19,-126 283.19,-122.5 283.19,-129.5"/>
</g>
<!-- l1_cal_pupil_rec -->
<g id="node5" class="node">
<title>l1_cal_pupil_rec</title>
<polygon fill="none" stroke="black" points="195.69,-84 49.69,-84 49.69,-60 195.69,-60 207.69,-72 195.69,-84"/>
<text text-anchor="middle" x="128.69" y="-68.3" font-family="Times,serif" font-size="14.00">L1_Pupil recipe 1..1</text>
</g>
<!-- l1_cal_pupil_rec&#45;&gt;trans_cal_pupil_l1_l2a -->
<g id="edge4" class="edge">
<title>l1_cal_pupil_rec&#45;&gt;trans_cal_pupil_l1_l2a</title>
<path fill="none" stroke="black" d="M207.72,-72C207.72,-72 301.47,-72 301.47,-72"/>
<polygon fill="black" stroke="black" points="301.47,-75.5 311.47,-72 301.47,-68.5 301.47,-75.5"/>
</g>
<!-- l1_cal_pupil_nllut -->
<g id="node6" class="node">
<title>l1_cal_pupil_nllut</title>
<polygon fill="none" stroke="black" points="226.69,-30 18.69,-30 18.69,-6 226.69,-6 238.69,-18 226.69,-30"/>
<text text-anchor="middle" x="128.69" y="-14.3" font-family="Times,serif" font-size="14.00">L1_Pupil non&#45;linear LUT 1..1</text>
</g>
<!-- l1_cal_pupil_nllut&#45;&gt;trans_cal_pupil_l1_l2a -->
<g id="edge5" class="edge">
<title>l1_cal_pupil_nllut&#45;&gt;trans_cal_pupil_l1_l2a</title>
<path fill="none" stroke="black" d="M223.73,-36.08C223.73,-41.39 223.73,-45.81 223.73,-45.81 223.73,-45.81 334.31,-45.81 334.31,-45.81"/>
<polygon fill="black" stroke="black" points="334.31,-49.31 344.31,-45.81 334.31,-42.31 334.31,-49.31"/>
</g>
</g>
</svg>
