<?xml version="1.0" encoding="UTF-8" standalone="no"?>
<!DOCTYPE svg PUBLIC "-//W3C//DTD SVG 1.1//EN"
 "http://www.w3.org/Graphics/SVG/1.1/DTD/svg11.dtd">
<!-- Generated by graphviz version 2.43.0 (0)
 -->
<!-- Title: Throughput Pages: 1 -->
<svg width="3241pt" height="745pt"
 viewBox="0.00 0.00 3241.14 745.00" xmlns="http://www.w3.org/2000/svg" xmlns:xlink="http://www.w3.org/1999/xlink">
<g id="graph0" class="graph" transform="scale(1 1) rotate(0) translate(4 741)">
<title>Throughput</title>
<polygon fill="white" stroke="transparent" points="-4,4 -4,-741 3237.14,-741 3237.14,4 -4,4"/>
<!-- trans_tp_l1_l2a_basic -->
<g id="node1" class="node">
<title>trans_tp_l1_l2a_basic</title>
<ellipse fill="none" stroke="black" cx="442.86" cy="-126" rx="88.28" ry="88.28"/>
<text text-anchor="middle" x="442.86" y="-137.3" font-family="Times,serif" font-size="14.00">Throughput</text>
<text text-anchor="middle" x="442.86" y="-122.3" font-family="Times,serif" font-size="14.00">Transmutation</text>
<text text-anchor="middle" x="442.86" y="-107.3" font-family="Times,serif" font-size="14.00">L1 to L2a basic</text>
</g>
<!-- l2a_tp_prod -->
<g id="node11" class="node">
<title>l2a_tp_prod</title>
<polygon fill="none" stroke="black" points="1137.82,-235 904.82,-235 904.82,-199 1137.82,-199 1137.82,-235"/>
<text text-anchor="middle" x="1021.32" y="-213.3" font-family="Times,serif" font-size="14.00">L2a_Throughput products 1..b</text>
</g>
<!-- trans_tp_l1_l2a_basic&#45;&gt;l2a_tp_prod -->
<g id="edge6" class="edge">
<title>trans_tp_l1_l2a_basic&#45;&gt;l2a_tp_prod</title>
<path fill="none" stroke="black" d="M479.05,-206.69C479.05,-206.69 894.67,-206.69 894.67,-206.69"/>
<polygon fill="black" stroke="black" points="894.67,-210.19 904.67,-206.69 894.67,-203.19 894.67,-210.19"/>
</g>
<!-- l2a_tp_man -->
<g id="node12" class="node">
<title>l2a_tp_man</title>
<ellipse fill="none" stroke="black" cx="718.04" cy="-126" rx="150.57" ry="18"/>
<text text-anchor="middle" x="718.04" y="-122.3" font-family="Times,serif" font-size="14.00">L2a_Throughput manifest 1..1</text>
</g>
<!-- trans_tp_l1_l2a_basic&#45;&gt;l2a_tp_man -->
<g id="edge7" class="edge">
<title>trans_tp_l1_l2a_basic&#45;&gt;l2a_tp_man</title>
<path fill="none" stroke="black" d="M531.44,-126C531.44,-126 557.04,-126 557.04,-126"/>
<polygon fill="black" stroke="black" points="557.04,-129.5 567.04,-126 557.04,-122.5 557.04,-129.5"/>
</g>
<!-- l2a_tp_log -->
<g id="node21" class="node">
<title>l2a_tp_log</title>
<ellipse fill="none" stroke="black" cx="718.04" cy="-72" rx="124.28" ry="18"/>
<text text-anchor="middle" x="718.04" y="-68.3" font-family="Times,serif" font-size="14.00">L2a_Throughput log 1..1</text>
</g>
<!-- trans_tp_l1_l2a_basic&#45;&gt;l2a_tp_log -->
<g id="edge8" class="edge">
<title>trans_tp_l1_l2a_basic&#45;&gt;l2a_tp_log</title>
<path fill="none" stroke="black" d="M513.01,-72C513.01,-72 583.73,-72 583.73,-72"/>
<polygon fill="black" stroke="black" points="583.73,-75.5 593.73,-72 583.73,-68.5 583.73,-75.5"/>
</g>
<!-- l2a_tp_demux -->
<g id="node2" class="node">
<title>l2a_tp_demux</title>
<ellipse fill="none" stroke="black" cx="1021.32" cy="-110" rx="71.34" ry="71.34"/>
<text text-anchor="middle" x="1021.32" y="-121.3" font-family="Times,serif" font-size="14.00">Throughput</text>
<text text-anchor="middle" x="1021.32" y="-106.3" font-family="Times,serif" font-size="14.00">l2a Demux</text>
<text text-anchor="middle" x="1021.32" y="-91.3" font-family="Times,serif" font-size="14.00">Exposure</text>
</g>
<!-- l2a_tp_man_demux -->
<g id="node22" class="node">
<title>l2a_tp_man_demux</title>
<ellipse fill="none" stroke="black" cx="1342.32" cy="-140" rx="119.68" ry="18"/>
<text text-anchor="middle" x="1342.32" y="-136.3" font-family="Times,serif" font-size="14.00">L2a_tp(E) manifest 1..1</text>
</g>
<!-- l2a_tp_demux&#45;&gt;l2a_tp_man_demux -->
<g id="edge22" class="edge">
<title>l2a_tp_demux&#45;&gt;l2a_tp_man_demux</title>
<path fill="none" stroke="black" d="M1086.28,-140C1086.28,-140 1212.6,-140 1212.6,-140"/>
<polygon fill="black" stroke="black" points="1212.6,-143.5 1222.6,-140 1212.6,-136.5 1212.6,-143.5"/>
</g>
<!-- trans_tp_l2a_l2b -->
<g id="node3" class="node">
<title>trans_tp_l2a_l2b</title>
<ellipse fill="none" stroke="black" cx="1633.09" cy="-382" rx="86.03" ry="86.03"/>
<text text-anchor="middle" x="1633.09" y="-393.3" font-family="Times,serif" font-size="14.00">Throughput</text>
<text text-anchor="middle" x="1633.09" y="-378.3" font-family="Times,serif" font-size="14.00">Transmutation</text>
<text text-anchor="middle" x="1633.09" y="-363.3" font-family="Times,serif" font-size="14.00">L2a to L2b</text>
</g>
<!-- l2b_tp_prod -->
<g id="node23" class="node">
<title>l2b_tp_prod</title>
<polygon fill="none" stroke="black" points="2273.93,-491 2040.93,-491 2040.93,-455 2273.93,-455 2273.93,-491"/>
<text text-anchor="middle" x="2157.43" y="-469.3" font-family="Times,serif" font-size="14.00">L2b_Throughput products 1..1</text>
</g>
<!-- trans_tp_l2a_l2b&#45;&gt;l2b_tp_prod -->
<g id="edge18" class="edge">
<title>trans_tp_l2a_l2b&#45;&gt;l2b_tp_prod</title>
<path fill="none" stroke="black" d="M1666.29,-461.63C1666.29,-461.63 2030.79,-461.63 2030.79,-461.63"/>
<polygon fill="black" stroke="black" points="2030.79,-465.13 2040.79,-461.63 2030.79,-458.13 2030.79,-465.13"/>
</g>
<!-- l2b_tp_man_demux -->
<g id="node30" class="node">
<title>l2b_tp_man_demux</title>
<ellipse fill="none" stroke="black" cx="1880.14" cy="-382" rx="120.48" ry="18"/>
<text text-anchor="middle" x="1880.14" y="-378.3" font-family="Times,serif" font-size="14.00">L2b_tp(E) manifest 1..1</text>
</g>
<!-- trans_tp_l2a_l2b&#45;&gt;l2b_tp_man_demux -->
<g id="edge19" class="edge">
<title>trans_tp_l2a_l2b&#45;&gt;l2b_tp_man_demux</title>
<path fill="none" stroke="black" d="M1719.5,-382C1719.5,-382 1749.47,-382 1749.47,-382"/>
<polygon fill="black" stroke="black" points="1749.47,-385.5 1759.47,-382 1749.47,-378.5 1749.47,-385.5"/>
</g>
<!-- l2b_tp_log -->
<g id="node31" class="node">
<title>l2b_tp_log</title>
<ellipse fill="none" stroke="black" cx="1880.14" cy="-328" rx="124.58" ry="18"/>
<text text-anchor="middle" x="1880.14" y="-324.3" font-family="Times,serif" font-size="14.00">L2b_Throughput log 1..1</text>
</g>
<!-- trans_tp_l2a_l2b&#45;&gt;l2b_tp_log -->
<g id="edge20" class="edge">
<title>trans_tp_l2a_l2b&#45;&gt;l2b_tp_log</title>
<path fill="none" stroke="black" d="M1700.6,-328C1700.6,-328 1745.24,-328 1745.24,-328"/>
<polygon fill="black" stroke="black" points="1745.24,-331.5 1755.24,-328 1745.24,-324.5 1745.24,-331.5"/>
</g>
<!-- l2b_tp_mux -->
<g id="node4" class="node">
<title>l2b_tp_mux</title>
<ellipse fill="none" stroke="black" cx="2157.43" cy="-366" rx="71.34" ry="71.34"/>
<text text-anchor="middle" x="2157.43" y="-377.3" font-family="Times,serif" font-size="14.00">Throughput</text>
<text text-anchor="middle" x="2157.43" y="-362.3" font-family="Times,serif" font-size="14.00">l2b Mux</text>
<text text-anchor="middle" x="2157.43" y="-347.3" font-family="Times,serif" font-size="14.00">Exposure</text>
</g>
<!-- l2b_tp_man -->
<g id="node24" class="node">
<title>l2b_tp_man</title>
<ellipse fill="none" stroke="black" cx="2479.93" cy="-396" rx="151.37" ry="18"/>
<text text-anchor="middle" x="2479.93" y="-392.3" font-family="Times,serif" font-size="14.00">L2b_Throughput manifest 1..1</text>
</g>
<!-- l2b_tp_mux&#45;&gt;l2b_tp_man -->
<g id="edge25" class="edge">
<title>l2b_tp_mux&#45;&gt;l2b_tp_man</title>
<path fill="none" stroke="black" d="M2222.31,-396C2222.31,-396 2318.49,-396 2318.49,-396"/>
<polygon fill="black" stroke="black" points="2318.49,-399.5 2328.49,-396 2318.49,-392.5 2318.49,-399.5"/>
</g>
<!-- trans_tp_l2b_ctp -->
<g id="node5" class="node">
<title>trans_tp_l2b_ctp</title>
<ellipse fill="none" stroke="black" cx="2816.75" cy="-557" rx="130.63" ry="130.63"/>
<text text-anchor="middle" x="2816.75" y="-568.3" font-family="Times,serif" font-size="14.00">Throughput</text>
<text text-anchor="middle" x="2816.75" y="-553.3" font-family="Times,serif" font-size="14.00">Transmutation</text>
<text text-anchor="middle" x="2816.75" y="-538.3" font-family="Times,serif" font-size="14.00">L2b to CoreThroughput</text>
</g>
<!-- ctp_prod -->
<g id="node32" class="node">
<title>ctp_prod</title>
<polygon fill="none" stroke="black" points="3224.85,-602 2991.85,-602 2991.85,-566 3224.85,-566 3224.85,-602"/>
<text text-anchor="middle" x="3108.35" y="-580.3" font-family="Times,serif" font-size="14.00">CoreThroughput products 1..1</text>
</g>
<!-- trans_tp_l2b_ctp&#45;&gt;ctp_prod -->
<g id="edge33" class="edge">
<title>trans_tp_l2b_ctp&#45;&gt;ctp_prod</title>
<path fill="none" stroke="black" d="M2945.07,-584C2945.07,-584 2981.46,-584 2981.46,-584"/>
<polygon fill="black" stroke="black" points="2981.46,-587.5 2991.46,-584 2981.46,-580.5 2981.46,-587.5"/>
</g>
<!-- ctp_log -->
<g id="node33" class="node">
<title>ctp_log</title>
<ellipse fill="none" stroke="black" cx="3108.35" cy="-530" rx="124.58" ry="18"/>
<text text-anchor="middle" x="3108.35" y="-526.3" font-family="Times,serif" font-size="14.00">CoreThroughput log 1..1</text>
</g>
<!-- trans_tp_l2b_ctp&#45;&gt;ctp_log -->
<g id="edge34" class="edge">
<title>trans_tp_l2b_ctp&#45;&gt;ctp_log</title>
<path fill="none" stroke="black" d="M2945.07,-530C2945.07,-530 2973.27,-530 2973.27,-530"/>
<polygon fill="black" stroke="black" points="2973.27,-533.5 2983.27,-530 2973.27,-526.5 2973.27,-533.5"/>
</g>
<!-- l1_tp_prod -->
<g id="node6" class="node">
<title>l1_tp_prod</title>
<polygon fill="none" stroke="black" points="271.24,-252 47.24,-252 47.24,-216 271.24,-216 271.24,-252"/>
<text text-anchor="middle" x="159.24" y="-230.3" font-family="Times,serif" font-size="14.00">L1_Throughput products 1..b</text>
</g>
<!-- l1_tp_prod&#45;&gt;trans_tp_l1_l2a_basic -->
<g id="edge1" class="edge">
<title>l1_tp_prod&#45;&gt;trans_tp_l1_l2a_basic</title>
<path fill="none" stroke="black" d="M271.44,-225.5C350.8,-225.5 443.14,-225.5 443.14,-225.5 443.14,-225.5 443.14,-224.4 443.14,-224.4"/>
<polygon fill="black" stroke="black" points="446.64,-224.47 443.14,-214.47 439.64,-224.47 446.64,-224.47"/>
</g>
<!-- l1_tp_man -->
<g id="node7" class="node">
<title>l1_tp_man</title>
<ellipse fill="none" stroke="black" cx="159.24" cy="-180" rx="145.67" ry="18"/>
<text text-anchor="middle" x="159.24" y="-176.3" font-family="Times,serif" font-size="14.00">L1_Throughput manifest 1..1</text>
</g>
<!-- l1_tp_man&#45;&gt;trans_tp_l1_l2a_basic -->
<g id="edge2" class="edge">
<title>l1_tp_man&#45;&gt;trans_tp_l1_l2a_basic</title>
<path fill="none" stroke="black" d="M305.2,-180C305.2,-180 362.61,-180 362.61,-180"/>
<polygon fill="black" stroke="black" points="362.61,-183.5 372.61,-180 362.61,-176.5 362.61,-183.5"/>
</g>
<!-- l1_tp_odir -->
<g id="node8" class="node">
<title>l1_tp_odir</title>
<ellipse fill="none" stroke="black" cx="159.24" cy="-126" rx="159.47" ry="18"/>
<text text-anchor="middle" x="159.24" y="-122.3" font-family="Times,serif" font-size="14.00">L1_Throughput output path 1..1</text>
</g>
<!-- l1_tp_odir&#45;&gt;trans_tp_l1_l2a_basic -->
<g id="edge3" class="edge">
<title>l1_tp_odir&#45;&gt;trans_tp_l1_l2a_basic</title>
<path fill="none" stroke="black" d="M318.87,-126C318.87,-126 344.26,-126 344.26,-126"/>
<polygon fill="black" stroke="black" points="344.26,-129.5 354.26,-126 344.26,-122.5 344.26,-129.5"/>
</g>
<!-- l1_tp_rec -->
<g id="node9" class="node">
<title>l1_tp_rec</title>
<polygon fill="none" stroke="black" points="250.24,-84 56.24,-84 56.24,-60 250.24,-60 262.24,-72 250.24,-84"/>
<text text-anchor="middle" x="159.24" y="-68.3" font-family="Times,serif" font-size="14.00">L1_Throughput recipe 1..1</text>
</g>
<!-- l1_tp_rec&#45;&gt;trans_tp_l1_l2a_basic -->
<g id="edge4" class="edge">
<title>l1_tp_rec&#45;&gt;trans_tp_l1_l2a_basic</title>
<path fill="none" stroke="black" d="M262.43,-72C262.43,-72 362.54,-72 362.54,-72"/>
<polygon fill="black" stroke="black" points="362.54,-75.5 372.54,-72 362.54,-68.5 362.54,-75.5"/>
</g>
<!-- l1_tp_nllut -->
<g id="node10" class="node">
<title>l1_tp_nllut</title>
<polygon fill="none" stroke="black" points="280.74,-30 25.74,-30 25.74,-6 280.74,-6 292.74,-18 280.74,-30"/>
<text text-anchor="middle" x="159.24" y="-14.3" font-family="Times,serif" font-size="14.00">L1_Throughput non&#45;linear LUT 1..1</text>
</g>
<!-- l1_tp_nllut&#45;&gt;trans_tp_l1_l2a_basic -->
<g id="edge5" class="edge">
<title>l1_tp_nllut&#45;&gt;trans_tp_l1_l2a_basic</title>
<path fill="none" stroke="black" d="M278.14,-36.08C278.14,-41.39 278.14,-45.81 278.14,-45.81 278.14,-45.81 395.48,-45.81 395.48,-45.81"/>
<polygon fill="black" stroke="black" points="395.48,-49.31 405.48,-45.81 395.48,-42.31 395.48,-49.31"/>
</g>
<!-- l2a_tp_prod&#45;&gt;trans_tp_l2a_l2b -->
<g id="edge9" class="edge">
<title>l2a_tp_prod&#45;&gt;trans_tp_l2a_l2b</title>
<path fill="none" stroke="black" d="M1137.84,-214C1315.35,-214 1633.14,-214 1633.14,-214 1633.14,-214 1633.14,-285.54 1633.14,-285.54"/>
<polygon fill="black" stroke="black" points="1629.64,-285.54 1633.14,-295.54 1636.64,-285.54 1629.64,-285.54"/>
</g>
<!-- l2a_tp_man&#45;&gt;l2a_tp_demux -->
<g id="edge21" class="edge">
<title>l2a_tp_man&#45;&gt;l2a_tp_demux</title>
<path fill="none" stroke="black" d="M869.23,-126C869.23,-126 941.51,-126 941.51,-126"/>
<polygon fill="black" stroke="black" points="941.51,-129.5 951.51,-126 941.51,-122.5 941.51,-129.5"/>
</g>
<!-- l2a_tp_odir -->
<g id="node13" class="node">
<title>l2a_tp_odir</title>
<ellipse fill="none" stroke="black" cx="1342.32" cy="-627" rx="165.17" ry="18"/>
<text text-anchor="middle" x="1342.32" y="-623.3" font-family="Times,serif" font-size="14.00">L2a_Throughput output path 1..1</text>
</g>
<!-- l2a_tp_odir&#45;&gt;trans_tp_l2a_l2b -->
<g id="edge11" class="edge">
<title>l2a_tp_odir&#45;&gt;trans_tp_l2a_l2b</title>
<path fill="none" stroke="black" d="M1490.53,-619C1574.19,-619 1662.14,-619 1662.14,-619 1662.14,-619 1662.14,-473.23 1662.14,-473.23"/>
<polygon fill="black" stroke="black" points="1665.64,-473.23 1662.14,-463.23 1658.64,-473.23 1665.64,-473.23"/>
</g>
<!-- l2a_tp_rec -->
<g id="node14" class="node">
<title>l2a_tp_rec</title>
<polygon fill="none" stroke="black" points="1437.32,-585 1235.32,-585 1235.32,-561 1437.32,-561 1449.32,-573 1437.32,-585"/>
<text text-anchor="middle" x="1342.32" y="-569.3" font-family="Times,serif" font-size="14.00">L2a_Throughput recipe 1..1</text>
</g>
<!-- l2a_tp_rec&#45;&gt;trans_tp_l2a_l2b -->
<g id="edge12" class="edge">
<title>l2a_tp_rec&#45;&gt;trans_tp_l2a_l2b</title>
<path fill="none" stroke="black" d="M1449.6,-565C1522.27,-565 1605.14,-565 1605.14,-565 1605.14,-565 1605.14,-473.87 1605.14,-473.87"/>
<polygon fill="black" stroke="black" points="1608.64,-473.87 1605.14,-463.87 1601.64,-473.87 1608.64,-473.87"/>
</g>
<!-- l2a_tp_cti -->
<g id="node15" class="node">
<title>l2a_tp_cti</title>
<polygon fill="none" stroke="black" points="1498.82,-531 1173.82,-531 1173.82,-507 1498.82,-507 1510.82,-519 1498.82,-531"/>
<text text-anchor="middle" x="1342.32" y="-515.3" font-family="Times,serif" font-size="14.00">L2a_Throughput charge xfer inefficiency 1..1</text>
</g>
<!-- l2a_tp_cti&#45;&gt;trans_tp_l2a_l2b -->
<g id="edge13" class="edge">
<title>l2a_tp_cti&#45;&gt;trans_tp_l2a_l2b</title>
<path fill="none" stroke="black" stroke-dasharray="5,2" d="M1499.14,-500.81C1499.14,-483.64 1499.14,-460.51 1499.14,-460.51 1499.14,-460.51 1587.19,-460.51 1587.19,-460.51"/>
<polygon fill="black" stroke="black" points="1587.19,-464.01 1597.19,-460.51 1587.19,-457.01 1587.19,-464.01"/>
</g>
<!-- l2a_tp_dnb -->
<g id="node16" class="node">
<title>l2a_tp_dnb</title>
<polygon fill="none" stroke="black" points="1480.32,-477 1192.32,-477 1192.32,-451 1480.32,-451 1492.32,-464 1480.32,-477"/>
<text text-anchor="middle" x="1342.32" y="-467.8" font-family="Times,serif" font-size="14.00">L2a_Throughput CIC/Dark Current/FPN</text>
<text text-anchor="middle" x="1342.32" y="-452.8" font-family="Times,serif" font-size="14.00"> or master dark 1..1</text>
</g>
<!-- l2a_tp_dnb&#45;&gt;trans_tp_l2a_l2b -->
<g id="edge14" class="edge">
<title>l2a_tp_dnb&#45;&gt;trans_tp_l2a_l2b</title>
<path fill="none" stroke="black" d="M1492.39,-452.76C1492.39,-452.76 1573.73,-452.76 1573.73,-452.76"/>
<polygon fill="black" stroke="black" points="1573.73,-456.26 1583.73,-452.76 1573.73,-449.26 1573.73,-456.26"/>
</g>
<!-- l2a_tp_mbpm -->
<g id="node17" class="node">
<title>l2a_tp_mbpm</title>
<polygon fill="none" stroke="black" points="1492.82,-421 1179.82,-421 1179.82,-397 1492.82,-397 1504.82,-409 1492.82,-421"/>
<text text-anchor="middle" x="1342.32" y="-405.3" font-family="Times,serif" font-size="14.00">L2a_Throughput master bad pixel map 1..1</text>
</g>
<!-- l2a_tp_mbpm&#45;&gt;trans_tp_l2a_l2b -->
<g id="edge15" class="edge">
<title>l2a_tp_mbpm&#45;&gt;trans_tp_l2a_l2b</title>
<path fill="none" stroke="black" d="M1505.13,-409C1505.13,-409 1541.02,-409 1541.02,-409"/>
<polygon fill="black" stroke="black" points="1541.02,-412.5 1551.02,-409 1541.02,-405.5 1541.02,-412.5"/>
</g>
<!-- l2a_tp_ff -->
<g id="node18" class="node">
<title>l2a_tp_ff</title>
<polygon fill="none" stroke="black" points="1448.32,-367 1224.32,-367 1224.32,-343 1448.32,-343 1460.32,-355 1448.32,-367"/>
<text text-anchor="middle" x="1342.32" y="-351.3" font-family="Times,serif" font-size="14.00">L2a_Throughput flat fields 1..1</text>
</g>
<!-- l2a_tp_ff&#45;&gt;trans_tp_l2a_l2b -->
<g id="edge16" class="edge">
<title>l2a_tp_ff&#45;&gt;trans_tp_l2a_l2b</title>
<path fill="none" stroke="black" d="M1460.59,-355C1460.59,-355 1540.98,-355 1540.98,-355"/>
<polygon fill="black" stroke="black" points="1540.98,-358.5 1550.98,-355 1540.98,-351.5 1540.98,-358.5"/>
</g>
<!-- l2a_tp_emg -->
<g id="node19" class="node">
<title>l2a_tp_emg</title>
<polygon fill="none" stroke="black" points="1445.32,-313 1227.32,-313 1227.32,-289 1445.32,-289 1457.32,-301 1445.32,-313"/>
<text text-anchor="middle" x="1342.32" y="-297.3" font-family="Times,serif" font-size="14.00">L2a_Throughput EM gain 1..1</text>
</g>
<!-- l2a_tp_emg&#45;&gt;trans_tp_l2a_l2b -->
<g id="edge17" class="edge">
<title>l2a_tp_emg&#45;&gt;trans_tp_l2a_l2b</title>
<path fill="none" stroke="black" d="M1457.66,-307.37C1457.66,-307.37 1579.76,-307.37 1579.76,-307.37"/>
<polygon fill="black" stroke="black" points="1579.76,-310.87 1589.76,-307.37 1579.76,-303.87 1579.76,-310.87"/>
</g>
<!-- l2a_tp_kgain -->
<g id="node20" class="node">
<title>l2a_tp_kgain</title>
<polygon fill="none" stroke="black" points="1431.82,-259 1240.82,-259 1240.82,-235 1431.82,-235 1443.82,-247 1431.82,-259"/>
<text text-anchor="middle" x="1342.32" y="-243.3" font-family="Times,serif" font-size="14.00">L2_Throughput Kgain 1..1</text>
</g>
<!-- l2a_tp_kgain&#45;&gt;trans_tp_l2a_l2b -->
<g id="edge10" class="edge">
<title>l2a_tp_kgain&#45;&gt;trans_tp_l2a_l2b</title>
<path fill="none" stroke="black" d="M1443.83,-247C1512.27,-247 1590.14,-247 1590.14,-247 1590.14,-247 1590.14,-297 1590.14,-297"/>
<polygon fill="black" stroke="black" points="1586.64,-297 1590.14,-307 1593.64,-297 1586.64,-297"/>
</g>
<!-- l2a_tp_man_demux&#45;&gt;trans_tp_l2a_l2b -->
<g id="edge23" class="edge">
<title>l2a_tp_man_demux&#45;&gt;trans_tp_l2a_l2b</title>
<path fill="none" stroke="black" d="M1462.25,-140C1558.33,-140 1677.14,-140 1677.14,-140 1677.14,-140 1677.14,-297.75 1677.14,-297.75"/>
<polygon fill="black" stroke="black" points="1673.64,-297.75 1677.14,-307.75 1680.64,-297.75 1673.64,-297.75"/>
</g>
<!-- l2b_tp_prod&#45;&gt;trans_tp_l2b_ctp -->
<g id="edge26" class="edge">
<title>l2b_tp_prod&#45;&gt;trans_tp_l2b_ctp</title>
<path fill="none" stroke="black" d="M2274.17,-470C2274.17,-470 2708.86,-470 2708.86,-470"/>
<polygon fill="black" stroke="black" points="2708.86,-473.5 2718.86,-470 2708.86,-466.5 2708.86,-473.5"/>
</g>
<!-- l2b_tp_man&#45;&gt;trans_tp_l2b_ctp -->
<g id="edge27" class="edge">
<title>l2b_tp_man&#45;&gt;trans_tp_l2b_ctp</title>
<path fill="none" stroke="black" d="M2625.14,-401.28C2625.14,-411.24 2625.14,-431.8 2625.14,-431.8 2625.14,-431.8 2768.43,-431.8 2768.43,-431.8"/>
<polygon fill="black" stroke="black" points="2768.43,-435.3 2778.43,-431.8 2768.43,-428.3 2768.43,-435.3"/>
</g>
<!-- l2b_tp_odir -->
<g id="node25" class="node">
<title>l2b_tp_odir</title>
<ellipse fill="none" stroke="black" cx="2479.93" cy="-719" rx="165.17" ry="18"/>
<text text-anchor="middle" x="2479.93" y="-715.3" font-family="Times,serif" font-size="14.00">L2b_Throughput output path 1..1</text>
</g>
<!-- l2b_tp_odir&#45;&gt;trans_tp_l2b_ctp -->
<g id="edge28" class="edge">
<title>l2b_tp_odir&#45;&gt;trans_tp_l2b_ctp</title>
<path fill="none" stroke="black" d="M2616.14,-708.82C2616.14,-694.73 2616.14,-671 2616.14,-671 2616.14,-671 2742.45,-671 2742.45,-671"/>
<polygon fill="black" stroke="black" points="2742.45,-674.5 2752.45,-671 2742.45,-667.5 2742.45,-674.5"/>
</g>
<!-- l2b_tp_rec -->
<g id="node26" class="node">
<title>l2b_tp_rec</title>
<polygon fill="none" stroke="black" points="2575.43,-677 2372.43,-677 2372.43,-653 2575.43,-653 2587.43,-665 2575.43,-677"/>
<text text-anchor="middle" x="2479.93" y="-661.3" font-family="Times,serif" font-size="14.00">L2b_Throughput recipe 1..1</text>
</g>
<!-- l2b_tp_rec&#45;&gt;trans_tp_l2b_ctp -->
<g id="edge29" class="edge">
<title>l2b_tp_rec&#45;&gt;trans_tp_l2b_ctp</title>
<path fill="none" stroke="black" d="M2587.89,-659C2587.89,-659 2724.75,-659 2724.75,-659"/>
<polygon fill="black" stroke="black" points="2724.75,-662.5 2734.75,-659 2724.75,-655.5 2724.75,-662.5"/>
</g>
<!-- l2b_tp_excicrf -->
<g id="node27" class="node">
<title>l2b_tp_excicrf</title>
<polygon fill="none" stroke="black" points="2630.93,-623 2316.93,-623 2316.93,-599 2630.93,-599 2642.93,-611 2630.93,-623"/>
<text text-anchor="middle" x="2479.93" y="-607.3" font-family="Times,serif" font-size="14.00">L2b_Throughput EXCAM ICRF location 1..1</text>
</g>
<!-- l2b_tp_excicrf&#45;&gt;trans_tp_l2b_ctp -->
<g id="edge30" class="edge">
<title>l2b_tp_excicrf&#45;&gt;trans_tp_l2b_ctp</title>
<path fill="none" stroke="black" d="M2643.41,-611C2643.41,-611 2687.59,-611 2687.59,-611"/>
<polygon fill="black" stroke="black" points="2687.59,-614.5 2697.59,-611 2687.59,-607.5 2687.59,-614.5"/>
</g>
<!-- l2b_tp_excfovps -->
<g id="node28" class="node">
<title>l2b_tp_excfovps</title>
<polygon fill="none" stroke="black" points="2637.93,-569 2309.93,-569 2309.93,-545 2637.93,-545 2649.93,-557 2637.93,-569"/>
<text text-anchor="middle" x="2479.93" y="-553.3" font-family="Times,serif" font-size="14.00">L2b_Throughput EXCAM FOV pixel scale 1..1</text>
</g>
<!-- l2b_tp_excfovps&#45;&gt;trans_tp_l2b_ctp -->
<g id="edge31" class="edge">
<title>l2b_tp_excfovps&#45;&gt;trans_tp_l2b_ctp</title>
<path fill="none" stroke="black" d="M2650.31,-557C2650.31,-557 2675.77,-557 2675.77,-557"/>
<polygon fill="black" stroke="black" points="2675.77,-560.5 2685.77,-557 2675.77,-553.5 2675.77,-560.5"/>
</g>
<!-- l2b_tp_distm -->
<g id="node29" class="node">
<title>l2b_tp_distm</title>
<polygon fill="none" stroke="black" points="2605.43,-515 2342.43,-515 2342.43,-491 2605.43,-491 2617.43,-503 2605.43,-515"/>
<text text-anchor="middle" x="2479.93" y="-499.3" font-family="Times,serif" font-size="14.00">L2b_Throughput distortion map 1..1</text>
</g>
<!-- l2b_tp_distm&#45;&gt;trans_tp_l2b_ctp -->
<g id="edge32" class="edge">
<title>l2b_tp_distm&#45;&gt;trans_tp_l2b_ctp</title>
<path fill="none" stroke="black" d="M2617.9,-503C2617.9,-503 2687.58,-503 2687.58,-503"/>
<polygon fill="black" stroke="black" points="2687.58,-506.5 2697.58,-503 2687.58,-499.5 2687.58,-506.5"/>
</g>
<!-- l2b_tp_man_demux&#45;&gt;l2b_tp_mux -->
<g id="edge24" class="edge">
<title>l2b_tp_man_demux&#45;&gt;l2b_tp_mux</title>
<path fill="none" stroke="black" d="M2000.56,-382C2000.56,-382 2077.79,-382 2077.79,-382"/>
<polygon fill="black" stroke="black" points="2077.79,-385.5 2087.79,-382 2077.79,-378.5 2077.79,-385.5"/>
</g>
</g>
</svg>
