<?xml version="1.0" encoding="UTF-8" standalone="no"?>
<!DOCTYPE svg PUBLIC "-//W3C//DTD SVG 1.1//EN"
 "http://www.w3.org/Graphics/SVG/1.1/DTD/svg11.dtd">
<!-- Generated by graphviz version 2.43.0 (0)
 -->
<!-- Title: Channel_eng_a_Design Pages: 1 -->
<svg width="1680pt" height="840pt"
 viewBox="0.00 0.00 1680.14 840.00" xmlns="http://www.w3.org/2000/svg" xmlns:xlink="http://www.w3.org/1999/xlink">
<g id="graph0" class="graph" transform="scale(1 1) rotate(0) translate(4 836)">
<title>Channel_eng_a_Design</title>
<polygon fill="white" stroke="transparent" points="-4,4 -4,-836 1676.14,-836 1676.14,4 -4,4"/>
<!-- trans_eng_a_l1_l2a -->
<g id="node1" class="node">
<title>trans_eng_a_l1_l2a</title>
<ellipse fill="none" stroke="black" cx="313.16" cy="-652" rx="67.76" ry="67.76"/>
<text text-anchor="middle" x="313.16" y="-655.8" font-family="Times,serif" font-size="14.00">Transmutation</text>
<text text-anchor="middle" x="313.16" y="-640.8" font-family="Times,serif" font-size="14.00">L1 to L2a</text>
</g>
<!-- l2a_eng_a_man -->
<g id="node11" class="node">
<title>l2a_eng_a_man</title>
<ellipse fill="none" stroke="black" cx="515.84" cy="-696" rx="98.58" ry="18"/>
<text text-anchor="middle" x="515.84" y="-692.3" font-family="Times,serif" font-size="14.00">L2a_eng_a manifest 1..1</text>
</g>
<!-- trans_eng_a_l1_l2a&#45;&gt;l2a_eng_a_man -->
<g id="edge9" class="edge">
<title>trans_eng_a_l1_l2a&#45;&gt;l2a_eng_a_man</title>
<path fill="none" stroke="black" d="M365.09,-696C365.09,-696 406.76,-696 406.76,-696"/>
<polygon fill="black" stroke="black" points="406.76,-699.5 416.76,-696 406.76,-692.5 406.76,-699.5"/>
</g>
<!-- l2a_eng_a_log -->
<g id="node13" class="node">
<title>l2a_eng_a_log</title>
<ellipse fill="none" stroke="black" cx="515.84" cy="-642" rx="79.09" ry="18"/>
<text text-anchor="middle" x="515.84" y="-638.3" font-family="Times,serif" font-size="14.00">L2a_eng_a log 1..1</text>
</g>
<!-- trans_eng_a_l1_l2a&#45;&gt;l2a_eng_a_log -->
<g id="edge8" class="edge">
<title>trans_eng_a_l1_l2a&#45;&gt;l2a_eng_a_log</title>
<path fill="none" stroke="black" stroke-dasharray="5,2" d="M380.37,-642C380.37,-642 426.51,-642 426.51,-642"/>
<polygon fill="black" stroke="black" points="426.51,-645.5 436.51,-642 426.51,-638.5 426.51,-645.5"/>
</g>
<!-- l2a_eng_a_prod -->
<g id="node14" class="node">
<title>l2a_eng_a_prod</title>
<polygon fill="none" stroke="black" points="763.63,-614 650.63,-614 650.63,-578 763.63,-578 763.63,-614"/>
<text text-anchor="middle" x="707.13" y="-592.3" font-family="Times,serif" font-size="14.00">L2a products 1..b</text>
</g>
<!-- trans_eng_a_l1_l2a&#45;&gt;l2a_eng_a_prod -->
<g id="edge7" class="edge">
<title>trans_eng_a_l1_l2a&#45;&gt;l2a_eng_a_prod</title>
<path fill="none" stroke="black" stroke-dasharray="5,2" d="M355.7,-599.06C355.7,-599.06 640.54,-599.06 640.54,-599.06"/>
<polygon fill="black" stroke="black" points="640.54,-602.56 650.54,-599.06 640.54,-595.56 640.54,-602.56"/>
</g>
<!-- trans_eng_a_l2a_l2b -->
<g id="node2" class="node">
<title>trans_eng_a_l2a_l2b</title>
<ellipse fill="none" stroke="black" cx="1124.49" cy="-342" rx="67.76" ry="67.76"/>
<text text-anchor="middle" x="1124.49" y="-345.8" font-family="Times,serif" font-size="14.00">Transmutation</text>
<text text-anchor="middle" x="1124.49" y="-330.8" font-family="Times,serif" font-size="14.00">L2a to L2b</text>
</g>
<!-- l2b_eng_a_man_demux -->
<g id="node26" class="node">
<title>l2b_eng_a_man_demux</title>
<ellipse fill="none" stroke="black" cx="1313.52" cy="-396" rx="85.29" ry="18"/>
<text text-anchor="middle" x="1313.52" y="-392.3" font-family="Times,serif" font-size="14.00">L2b(E) manifest 1..1</text>
</g>
<!-- trans_eng_a_l2a_l2b&#45;&gt;l2b_eng_a_man_demux -->
<g id="edge27" class="edge">
<title>trans_eng_a_l2a_l2b&#45;&gt;l2b_eng_a_man_demux</title>
<path fill="none" stroke="black" d="M1168.33,-393.94C1168.33,-393.94 1218.65,-393.94 1218.65,-393.94"/>
<polygon fill="black" stroke="black" points="1218.65,-397.44 1228.65,-393.94 1218.65,-390.44 1218.65,-397.44"/>
</g>
<!-- l2b_eng_a_prod -->
<g id="node27" class="node">
<title>l2b_eng_a_prod</title>
<polygon fill="none" stroke="black" points="1370.02,-360 1257.02,-360 1257.02,-324 1370.02,-324 1370.02,-360"/>
<text text-anchor="middle" x="1313.52" y="-338.3" font-family="Times,serif" font-size="14.00">L2b products 1..b</text>
</g>
<!-- trans_eng_a_l2a_l2b&#45;&gt;l2b_eng_a_prod -->
<g id="edge25" class="edge">
<title>trans_eng_a_l2a_l2b&#45;&gt;l2b_eng_a_prod</title>
<path fill="none" stroke="black" stroke-dasharray="5,2" d="M1192.47,-342C1192.47,-342 1246.73,-342 1246.73,-342"/>
<polygon fill="black" stroke="black" points="1246.73,-345.5 1256.73,-342 1246.73,-338.5 1246.73,-345.5"/>
</g>
<!-- l2b_eng_a_log -->
<g id="node28" class="node">
<title>l2b_eng_a_log</title>
<ellipse fill="none" stroke="black" cx="1313.52" cy="-288" rx="79.89" ry="18"/>
<text text-anchor="middle" x="1313.52" y="-284.3" font-family="Times,serif" font-size="14.00">L2b_eng_a log 1..1</text>
</g>
<!-- trans_eng_a_l2a_l2b&#45;&gt;l2b_eng_a_log -->
<g id="edge26" class="edge">
<title>trans_eng_a_l2a_l2b&#45;&gt;l2b_eng_a_log</title>
<path fill="none" stroke="black" stroke-dasharray="5,2" d="M1168.33,-290.06C1168.33,-290.06 1223.93,-290.06 1223.93,-290.06"/>
<polygon fill="black" stroke="black" points="1223.93,-293.56 1233.93,-290.06 1223.93,-286.56 1223.93,-293.56"/>
</g>
<!-- l2_eng_a_demux -->
<g id="node3" class="node">
<title>l2_eng_a_demux</title>
<ellipse fill="none" stroke="black" cx="707.13" cy="-681" rx="35.19" ry="35.19"/>
<text text-anchor="middle" x="707.13" y="-677.3" font-family="Times,serif" font-size="14.00">demux</text>
</g>
<!-- l2a_eng_a_man_demux -->
<g id="node12" class="node">
<title>l2a_eng_a_man_demux</title>
<ellipse fill="none" stroke="black" cx="910.12" cy="-662" rx="110.48" ry="18"/>
<text text-anchor="middle" x="910.12" y="-658.3" font-family="Times,serif" font-size="14.00">L2a_eng_a(E) manifest 1..1</text>
</g>
<!-- l2_eng_a_demux&#45;&gt;l2a_eng_a_man_demux -->
<g id="edge12" class="edge">
<title>l2_eng_a_demux&#45;&gt;l2a_eng_a_man_demux</title>
<path fill="none" stroke="black" d="M737.52,-662.95C737.52,-662.95 789.5,-662.95 789.5,-662.95"/>
<polygon fill="black" stroke="black" points="789.5,-666.45 799.5,-662.95 789.5,-659.45 789.5,-666.45"/>
</g>
<!-- l2_eng_a_mux -->
<g id="node4" class="node">
<title>l2_eng_a_mux</title>
<ellipse fill="none" stroke="black" cx="1461.31" cy="-396" rx="26.8" ry="26.8"/>
<text text-anchor="middle" x="1461.31" y="-392.3" font-family="Times,serif" font-size="14.00">mux</text>
</g>
<!-- l2b_eng_a_man -->
<g id="node25" class="node">
<title>l2b_eng_a_man</title>
<ellipse fill="none" stroke="black" cx="1598.05" cy="-396" rx="74.19" ry="18"/>
<text text-anchor="middle" x="1598.05" y="-392.3" font-family="Times,serif" font-size="14.00">L2b manifest 1..1</text>
</g>
<!-- l2_eng_a_mux&#45;&gt;l2b_eng_a_man -->
<g id="edge29" class="edge">
<title>l2_eng_a_mux&#45;&gt;l2b_eng_a_man</title>
<path fill="none" stroke="black" d="M1488,-396C1488,-396 1513.69,-396 1513.69,-396"/>
<polygon fill="black" stroke="black" points="1513.69,-399.5 1523.69,-396 1513.69,-392.5 1513.69,-399.5"/>
</g>
<!-- l1_eng_a_prod -->
<g id="node5" class="node">
<title>l1_eng_a_prod</title>
<polygon fill="none" stroke="black" points="177.64,-832 31.64,-832 31.64,-796 177.64,-796 177.64,-832"/>
<text text-anchor="middle" x="104.64" y="-810.3" font-family="Times,serif" font-size="14.00">L1_eng_a products 1..b</text>
</g>
<!-- l1_eng_a_prod&#45;&gt;trans_eng_a_l1_l2a -->
<g id="edge1" class="edge">
<title>l1_eng_a_prod&#45;&gt;trans_eng_a_l1_l2a</title>
<path fill="none" stroke="black" stroke-dasharray="5,2" d="M177.89,-814C245.71,-814 336.14,-814 336.14,-814 336.14,-814 336.14,-726.03 336.14,-726.03"/>
<polygon fill="black" stroke="black" points="339.64,-726.03 336.14,-716.03 332.64,-726.03 339.64,-726.03"/>
</g>
<!-- l1_eng_a_man -->
<g id="node6" class="node">
<title>l1_eng_a_man</title>
<ellipse fill="none" stroke="black" cx="104.64" cy="-760" rx="94.78" ry="18"/>
<text text-anchor="middle" x="104.64" y="-756.3" font-family="Times,serif" font-size="14.00">L1_eng_a manifest 1..1</text>
</g>
<!-- l1_eng_a_man&#45;&gt;trans_eng_a_l1_l2a -->
<g id="edge2" class="edge">
<title>l1_eng_a_man&#45;&gt;trans_eng_a_l1_l2a</title>
<path fill="none" stroke="black" d="M199.8,-760C245.78,-760 291.14,-760 291.14,-760 291.14,-760 291.14,-726.38 291.14,-726.38"/>
<polygon fill="black" stroke="black" points="294.64,-726.38 291.14,-716.38 287.64,-726.38 294.64,-726.38"/>
</g>
<!-- eng_a_cpgs -->
<g id="node7" class="node">
<title>eng_a_cpgs</title>
<polygon fill="none" stroke="black" points="148.14,-556 49.14,-556 49.14,-532 148.14,-532 160.14,-544 148.14,-556"/>
<text text-anchor="middle" x="104.64" y="-540.3" font-family="Times,serif" font-size="14.00">eng_a CPGS 1..1</text>
</g>
<!-- eng_a_cpgs&#45;&gt;trans_eng_a_l1_l2a -->
<g id="edge3" class="edge">
<title>eng_a_cpgs&#45;&gt;trans_eng_a_l1_l2a</title>
<path fill="none" stroke="black" d="M160.23,-550C222.3,-550 314.14,-550 314.14,-550 314.14,-550 314.14,-573.96 314.14,-573.96"/>
<polygon fill="black" stroke="black" points="310.64,-573.96 314.14,-583.96 317.64,-573.96 310.64,-573.96"/>
</g>
<!-- eng_a_cpgs&#45;&gt;trans_eng_a_l2a_l2b -->
<g id="edge14" class="edge">
<title>eng_a_cpgs&#45;&gt;trans_eng_a_l2a_l2b</title>
<path fill="none" stroke="black" d="M160.19,-538C371.19,-538 1111.14,-538 1111.14,-538 1111.14,-538 1111.14,-418.63 1111.14,-418.63"/>
<polygon fill="black" stroke="black" points="1114.64,-418.63 1111.14,-408.63 1107.64,-418.63 1114.64,-418.63"/>
</g>
<!-- l1_eng_a_odir -->
<g id="node8" class="node">
<title>l1_eng_a_odir</title>
<ellipse fill="none" stroke="black" cx="104.64" cy="-706" rx="104.78" ry="18"/>
<text text-anchor="middle" x="104.64" y="-702.3" font-family="Times,serif" font-size="14.00">L1_eng_a output path 1..1</text>
</g>
<!-- l1_eng_a_odir&#45;&gt;trans_eng_a_l1_l2a -->
<g id="edge4" class="edge">
<title>l1_eng_a_odir&#45;&gt;trans_eng_a_l1_l2a</title>
<path fill="none" stroke="black" d="M208.6,-703.94C208.6,-703.94 259.3,-703.94 259.3,-703.94"/>
<polygon fill="black" stroke="black" points="259.3,-707.44 269.3,-703.94 259.3,-700.44 259.3,-707.44"/>
</g>
<!-- l1_eng_a_rec -->
<g id="node9" class="node">
<title>l1_eng_a_rec</title>
<polygon fill="none" stroke="black" points="129.64,-664 67.64,-664 67.64,-640 129.64,-640 141.64,-652 129.64,-664"/>
<text text-anchor="middle" x="104.64" y="-648.3" font-family="Times,serif" font-size="14.00">recipe 1..1</text>
</g>
<!-- l1_eng_a_rec&#45;&gt;trans_eng_a_l1_l2a -->
<g id="edge5" class="edge">
<title>l1_eng_a_rec&#45;&gt;trans_eng_a_l1_l2a</title>
<path fill="none" stroke="black" d="M141.92,-652C141.92,-652 235.02,-652 235.02,-652"/>
<polygon fill="black" stroke="black" points="235.02,-655.5 245.02,-652 235.02,-648.5 235.02,-655.5"/>
</g>
<!-- l1_eng_a_nln -->
<g id="node10" class="node">
<title>l1_eng_a_nln</title>
<polygon fill="none" stroke="black" points="171.64,-610 25.64,-610 25.64,-586 171.64,-586 183.64,-598 171.64,-610"/>
<text text-anchor="middle" x="104.64" y="-594.3" font-family="Times,serif" font-size="14.00">non linear calibration 1..1</text>
</g>
<!-- l1_eng_a_nln&#45;&gt;trans_eng_a_l1_l2a -->
<g id="edge6" class="edge">
<title>l1_eng_a_nln&#45;&gt;trans_eng_a_l1_l2a</title>
<path fill="none" stroke="black" d="M183.77,-600.06C183.77,-600.06 259.41,-600.06 259.41,-600.06"/>
<polygon fill="black" stroke="black" points="259.41,-603.56 269.41,-600.06 259.41,-596.56 259.41,-603.56"/>
</g>
<!-- l2a_eng_a_man&#45;&gt;l2_eng_a_demux -->
<g id="edge11" class="edge">
<title>l2a_eng_a_man&#45;&gt;l2_eng_a_demux</title>
<path fill="none" stroke="black" d="M614.84,-696C614.84,-696 665.19,-696 665.19,-696"/>
<polygon fill="black" stroke="black" points="665.19,-699.5 675.19,-696 665.19,-692.5 665.19,-699.5"/>
</g>
<!-- l2a_eng_a_man_demux&#45;&gt;trans_eng_a_l2a_l2b -->
<g id="edge13" class="edge">
<title>l2a_eng_a_man_demux&#45;&gt;trans_eng_a_l2a_l2b</title>
<path fill="none" stroke="black" d="M1020.92,-662C1090.12,-662 1166.14,-662 1166.14,-662 1166.14,-662 1166.14,-405.92 1166.14,-405.92"/>
<polygon fill="black" stroke="black" points="1169.64,-405.92 1166.14,-395.92 1162.64,-405.92 1169.64,-405.92"/>
</g>
<!-- l2a_eng_a_prod&#45;&gt;trans_eng_a_l2a_l2b -->
<g id="edge10" class="edge">
<title>l2a_eng_a_prod&#45;&gt;trans_eng_a_l2a_l2b</title>
<path fill="none" stroke="black" stroke-dasharray="5,2" d="M763.92,-596C880.96,-596 1138.14,-596 1138.14,-596 1138.14,-596 1138.14,-418.74 1138.14,-418.74"/>
<polygon fill="black" stroke="black" points="1141.64,-418.74 1138.14,-408.74 1134.64,-418.74 1141.64,-418.74"/>
</g>
<!-- l2a_eng_a_odir -->
<g id="node15" class="node">
<title>l2a_eng_a_odir</title>
<ellipse fill="none" stroke="black" cx="910.12" cy="-504" rx="108.58" ry="18"/>
<text text-anchor="middle" x="910.12" y="-500.3" font-family="Times,serif" font-size="14.00">L2a_eng_a output path 1..1</text>
</g>
<!-- l2a_eng_a_odir&#45;&gt;trans_eng_a_l2a_l2b -->
<g id="edge15" class="edge">
<title>l2a_eng_a_odir&#45;&gt;trans_eng_a_l2a_l2b</title>
<path fill="none" stroke="black" d="M1006.14,-495.43C1006.14,-470.41 1006.14,-399.25 1006.14,-399.25 1006.14,-399.25 1078.02,-399.25 1078.02,-399.25"/>
<polygon fill="black" stroke="black" points="1078.02,-402.75 1088.02,-399.25 1078.02,-395.75 1078.02,-402.75"/>
</g>
<!-- l2a_eng_a_rec -->
<g id="node16" class="node">
<title>l2a_eng_a_rec</title>
<polygon fill="none" stroke="black" points="935.12,-462 873.12,-462 873.12,-438 935.12,-438 947.12,-450 935.12,-462"/>
<text text-anchor="middle" x="910.12" y="-446.3" font-family="Times,serif" font-size="14.00">recipe 1..1</text>
</g>
<!-- l2a_eng_a_rec&#45;&gt;trans_eng_a_l2a_l2b -->
<g id="edge16" class="edge">
<title>l2a_eng_a_rec&#45;&gt;trans_eng_a_l2a_l2b</title>
<path fill="none" stroke="black" d="M947.45,-450C998.58,-450 1084.14,-450 1084.14,-450 1084.14,-450 1084.14,-406.63 1084.14,-406.63"/>
<polygon fill="black" stroke="black" points="1087.64,-406.63 1084.14,-396.63 1080.64,-406.63 1087.64,-406.63"/>
</g>
<!-- l2a_eng_a_bpm -->
<g id="node17" class="node">
<title>l2a_eng_a_bpm</title>
<polygon fill="none" stroke="black" points="957.62,-408 850.62,-408 850.62,-384 957.62,-384 969.62,-396 957.62,-408"/>
<text text-anchor="middle" x="910.12" y="-392.3" font-family="Times,serif" font-size="14.00">bad pixel map 1..1</text>
</g>
<!-- l2a_eng_a_bpm&#45;&gt;trans_eng_a_l2a_l2b -->
<g id="edge17" class="edge">
<title>l2a_eng_a_bpm&#45;&gt;trans_eng_a_l2a_l2b</title>
<path fill="none" stroke="black" d="M969.83,-388.63C969.83,-388.63 1064.87,-388.63 1064.87,-388.63"/>
<polygon fill="black" stroke="black" points="1064.87,-392.13 1074.87,-388.63 1064.87,-385.13 1064.87,-392.13"/>
</g>
<!-- l2a_eng_a_dt -->
<g id="node18" class="node">
<title>l2a_eng_a_dt</title>
<polygon fill="none" stroke="black" points="965.12,-354 843.12,-354 843.12,-330 965.12,-330 977.12,-342 965.12,-354"/>
<text text-anchor="middle" x="910.12" y="-338.3" font-family="Times,serif" font-size="14.00">dark (traditional) 1..1</text>
</g>
<!-- l2a_eng_a_dt&#45;&gt;trans_eng_a_l2a_l2b -->
<g id="edge18" class="edge">
<title>l2a_eng_a_dt&#45;&gt;trans_eng_a_l2a_l2b</title>
<path fill="none" stroke="black" d="M977.36,-342C977.36,-342 1046.38,-342 1046.38,-342"/>
<polygon fill="black" stroke="black" points="1046.38,-345.5 1056.38,-342 1046.38,-338.5 1046.38,-345.5"/>
</g>
<!-- l2a_eng_a_ds -->
<g id="node19" class="node">
<title>l2a_eng_a_ds</title>
<polygon fill="none" stroke="black" points="968.12,-300 840.12,-300 840.12,-276 968.12,-276 980.12,-288 968.12,-300"/>
<text text-anchor="middle" x="910.12" y="-284.3" font-family="Times,serif" font-size="14.00">dark (synthetized) 1..1</text>
</g>
<!-- l2a_eng_a_ds&#45;&gt;trans_eng_a_l2a_l2b -->
<g id="edge19" class="edge">
<title>l2a_eng_a_ds&#45;&gt;trans_eng_a_l2a_l2b</title>
<path fill="none" stroke="black" d="M980.31,-295.37C980.31,-295.37 1064.85,-295.37 1064.85,-295.37"/>
<polygon fill="black" stroke="black" points="1064.85,-298.87 1074.85,-295.37 1064.85,-291.87 1064.85,-298.87"/>
</g>
<!-- l2a_eng_a_dn -->
<g id="node20" class="node">
<title>l2a_eng_a_dn</title>
<polygon fill="none" stroke="black" points="980.62,-246 827.62,-246 827.62,-222 980.62,-222 992.62,-234 980.62,-246"/>
<text text-anchor="middle" x="910.12" y="-230.3" font-family="Times,serif" font-size="14.00">dark (from noise map) 1..1</text>
</g>
<!-- l2a_eng_a_dn&#45;&gt;trans_eng_a_l2a_l2b -->
<g id="edge20" class="edge">
<title>l2a_eng_a_dn&#45;&gt;trans_eng_a_l2a_l2b</title>
<path fill="none" stroke="black" d="M987.14,-252.03C987.14,-266.62 987.14,-284.75 987.14,-284.75 987.14,-284.75 1077.68,-284.75 1077.68,-284.75"/>
<polygon fill="black" stroke="black" points="1077.68,-288.25 1087.68,-284.75 1077.68,-281.25 1077.68,-288.25"/>
</g>
<!-- l2a_eng_a_nm -->
<g id="node21" class="node">
<title>l2a_eng_a_nm</title>
<polygon fill="none" stroke="black" points="949.62,-192 858.62,-192 858.62,-168 949.62,-168 961.62,-180 949.62,-192"/>
<text text-anchor="middle" x="910.12" y="-176.3" font-family="Times,serif" font-size="14.00">noise maps 1..1</text>
</g>
<!-- l2a_eng_a_nm&#45;&gt;trans_eng_a_l2a_l2b -->
<g id="edge21" class="edge">
<title>l2a_eng_a_nm&#45;&gt;trans_eng_a_l2a_l2b</title>
<path fill="none" stroke="black" d="M961.86,-180C1013.16,-180 1084.14,-180 1084.14,-180 1084.14,-180 1084.14,-277.15 1084.14,-277.15"/>
<polygon fill="black" stroke="black" points="1080.64,-277.15 1084.14,-287.15 1087.64,-277.15 1080.64,-277.15"/>
</g>
<!-- l2a_eng_a_ff -->
<g id="node22" class="node">
<title>l2a_eng_a_ff</title>
<polygon fill="none" stroke="black" points="942.12,-138 866.12,-138 866.12,-114 942.12,-114 954.12,-126 942.12,-138"/>
<text text-anchor="middle" x="910.12" y="-122.3" font-family="Times,serif" font-size="14.00">flat field 1..1</text>
</g>
<!-- l2a_eng_a_ff&#45;&gt;trans_eng_a_l2a_l2b -->
<g id="edge22" class="edge">
<title>l2a_eng_a_ff&#45;&gt;trans_eng_a_l2a_l2b</title>
<path fill="none" stroke="black" d="M954.23,-126C1013.41,-126 1111.14,-126 1111.14,-126 1111.14,-126 1111.14,-265.43 1111.14,-265.43"/>
<polygon fill="black" stroke="black" points="1107.64,-265.43 1111.14,-275.43 1114.64,-265.43 1107.64,-265.43"/>
</g>
<!-- l2a_eng_a_kg -->
<g id="node23" class="node">
<title>l2a_eng_a_kg</title>
<polygon fill="none" stroke="black" points="936.12,-84 872.12,-84 872.12,-60 936.12,-60 948.12,-72 936.12,-84"/>
<text text-anchor="middle" x="910.12" y="-68.3" font-family="Times,serif" font-size="14.00">k&#45;gain 1..1</text>
</g>
<!-- l2a_eng_a_kg&#45;&gt;trans_eng_a_l2a_l2b -->
<g id="edge23" class="edge">
<title>l2a_eng_a_kg&#45;&gt;trans_eng_a_l2a_l2b</title>
<path fill="none" stroke="black" d="M948.28,-72C1013.2,-72 1138.14,-72 1138.14,-72 1138.14,-72 1138.14,-265.26 1138.14,-265.26"/>
<polygon fill="black" stroke="black" points="1134.64,-265.26 1138.14,-275.26 1141.64,-265.26 1134.64,-265.26"/>
</g>
<!-- l2a_eng_a_emg -->
<g id="node24" class="node">
<title>l2a_eng_a_emg</title>
<polygon fill="none" stroke="black" points="942.62,-30 865.62,-30 865.62,-6 942.62,-6 954.62,-18 942.62,-30"/>
<text text-anchor="middle" x="910.12" y="-14.3" font-family="Times,serif" font-size="14.00">EM gain 1..1</text>
</g>
<!-- l2a_eng_a_emg&#45;&gt;trans_eng_a_l2a_l2b -->
<g id="edge24" class="edge">
<title>l2a_eng_a_emg&#45;&gt;trans_eng_a_l2a_l2b</title>
<path fill="none" stroke="black" d="M954.71,-18C1028.07,-18 1166.14,-18 1166.14,-18 1166.14,-18 1166.14,-278.13 1166.14,-278.13"/>
<polygon fill="black" stroke="black" points="1162.64,-278.13 1166.14,-288.13 1169.64,-278.13 1162.64,-278.13"/>
</g>
<!-- l2b_eng_a_man_demux&#45;&gt;l2_eng_a_mux -->
<g id="edge28" class="edge">
<title>l2b_eng_a_man_demux&#45;&gt;l2_eng_a_mux</title>
<path fill="none" stroke="black" d="M1399.06,-396C1399.06,-396 1424.35,-396 1424.35,-396"/>
<polygon fill="black" stroke="black" points="1424.35,-399.5 1434.35,-396 1424.35,-392.5 1424.35,-399.5"/>
</g>
</g>
</svg>
