<?xml version="1.0" encoding="UTF-8" standalone="no"?>
<!DOCTYPE svg PUBLIC "-//W3C//DTD SVG 1.1//EN"
 "http://www.w3.org/Graphics/SVG/1.1/DTD/svg11.dtd">
<!-- Generated by graphviz version 2.43.0 (0)
 -->
<!-- Title: Channel_eng_a_Design Pages: 1 -->
<svg width="2024pt" height="738pt"
 viewBox="0.00 0.00 2024.46 738.00" xmlns="http://www.w3.org/2000/svg" xmlns:xlink="http://www.w3.org/1999/xlink">
<g id="graph0" class="graph" transform="scale(1 1) rotate(0) translate(4 734)">
<title>Channel_eng_a_Design</title>
<polygon fill="white" stroke="transparent" points="-4,4 -4,-734 2020.46,-734 2020.46,4 -4,4"/>
<!-- trans_eng_a_l1_l2a -->
<g id="node1" class="node">
<title>trans_eng_a_l1_l2a</title>
<ellipse fill="none" stroke="black" cx="386.14" cy="-556" rx="86.03" ry="86.03"/>
<text text-anchor="middle" x="386.14" y="-559.8" font-family="Times,serif" font-size="14.00">Transmutation</text>
<text text-anchor="middle" x="386.14" y="-544.8" font-family="Times,serif" font-size="14.00">L1 to L2a</text>
</g>
<!-- l2a_eng_a_man -->
<g id="node11" class="node">
<title>l2a_eng_a_man</title>
<ellipse fill="none" stroke="black" cx="631.25" cy="-588" rx="122.68" ry="18"/>
<text text-anchor="middle" x="631.25" y="-584.3" font-family="Times,serif" font-size="14.00">L2a_eng_a manifest 1..1</text>
</g>
<!-- trans_eng_a_l1_l2a&#45;&gt;l2a_eng_a_man -->
<g id="edge9" class="edge">
<title>trans_eng_a_l1_l2a&#45;&gt;l2a_eng_a_man</title>
<path fill="none" stroke="black" d="M466.4,-588C466.4,-588 498.16,-588 498.16,-588"/>
<polygon fill="black" stroke="black" points="498.16,-591.5 508.16,-588 498.16,-584.5 498.16,-591.5"/>
</g>
<!-- l2a_eng_a_log -->
<g id="node13" class="node">
<title>l2a_eng_a_log</title>
<ellipse fill="none" stroke="black" cx="631.25" cy="-534" rx="96.68" ry="18"/>
<text text-anchor="middle" x="631.25" y="-530.3" font-family="Times,serif" font-size="14.00">L2a_eng_a log 1..1</text>
</g>
<!-- trans_eng_a_l1_l2a&#45;&gt;l2a_eng_a_log -->
<g id="edge8" class="edge">
<title>trans_eng_a_l1_l2a&#45;&gt;l2a_eng_a_log</title>
<path fill="none" stroke="black" stroke-dasharray="5,2" d="M469.81,-534C469.81,-534 524.03,-534 524.03,-534"/>
<polygon fill="black" stroke="black" points="524.03,-537.5 534.03,-534 524.03,-530.5 524.03,-537.5"/>
</g>
<!-- l2a_eng_a_prod -->
<g id="node14" class="node">
<title>l2a_eng_a_prod</title>
<polygon fill="none" stroke="black" points="932.09,-506 790.09,-506 790.09,-470 932.09,-470 932.09,-506"/>
<text text-anchor="middle" x="861.09" y="-484.3" font-family="Times,serif" font-size="14.00">L2a products 1..b</text>
</g>
<!-- trans_eng_a_l1_l2a&#45;&gt;l2a_eng_a_prod -->
<g id="edge7" class="edge">
<title>trans_eng_a_l1_l2a&#45;&gt;l2a_eng_a_prod</title>
<path fill="none" stroke="black" stroke-dasharray="5,2" d="M439.24,-488C439.24,-488 779.85,-488 779.85,-488"/>
<polygon fill="black" stroke="black" points="779.85,-491.5 789.85,-488 779.85,-484.5 779.85,-491.5"/>
</g>
<!-- trans_eng_a_l2a_l2b -->
<g id="node2" class="node">
<title>trans_eng_a_l2a_l2b</title>
<ellipse fill="none" stroke="black" cx="1364.63" cy="-288" rx="86.03" ry="86.03"/>
<text text-anchor="middle" x="1364.63" y="-291.8" font-family="Times,serif" font-size="14.00">Transmutation</text>
<text text-anchor="middle" x="1364.63" y="-276.8" font-family="Times,serif" font-size="14.00">L2a to L2b</text>
</g>
<!-- l2b_eng_a_man_demux -->
<g id="node24" class="node">
<title>l2b_eng_a_man_demux</title>
<ellipse fill="none" stroke="black" cx="1592.84" cy="-342" rx="105.88" ry="18"/>
<text text-anchor="middle" x="1592.84" y="-338.3" font-family="Times,serif" font-size="14.00">L2b(E) manifest 1..1</text>
</g>
<!-- trans_eng_a_l2a_l2b&#45;&gt;l2b_eng_a_man_demux -->
<g id="edge25" class="edge">
<title>trans_eng_a_l2a_l2b&#45;&gt;l2b_eng_a_man_demux</title>
<path fill="none" stroke="black" d="M1432.18,-342C1432.18,-342 1476.52,-342 1476.52,-342"/>
<polygon fill="black" stroke="black" points="1476.52,-345.5 1486.52,-342 1476.52,-338.5 1476.52,-345.5"/>
</g>
<!-- l2b_eng_a_prod -->
<g id="node25" class="node">
<title>l2b_eng_a_prod</title>
<polygon fill="none" stroke="black" points="1664.34,-306 1521.34,-306 1521.34,-270 1664.34,-270 1664.34,-306"/>
<text text-anchor="middle" x="1592.84" y="-284.3" font-family="Times,serif" font-size="14.00">L2b products 1..b</text>
</g>
<!-- trans_eng_a_l2a_l2b&#45;&gt;l2b_eng_a_prod -->
<g id="edge23" class="edge">
<title>trans_eng_a_l2a_l2b&#45;&gt;l2b_eng_a_prod</title>
<path fill="none" stroke="black" stroke-dasharray="5,2" d="M1450.91,-288C1450.91,-288 1511.32,-288 1511.32,-288"/>
<polygon fill="black" stroke="black" points="1511.32,-291.5 1521.32,-288 1511.32,-284.5 1511.32,-291.5"/>
</g>
<!-- l2b_eng_a_log -->
<g id="node26" class="node">
<title>l2b_eng_a_log</title>
<ellipse fill="none" stroke="black" cx="1592.84" cy="-234" rx="96.68" ry="18"/>
<text text-anchor="middle" x="1592.84" y="-230.3" font-family="Times,serif" font-size="14.00">L2b_eng_a log 1..1</text>
</g>
<!-- trans_eng_a_l2a_l2b&#45;&gt;l2b_eng_a_log -->
<g id="edge24" class="edge">
<title>trans_eng_a_l2a_l2b&#45;&gt;l2b_eng_a_log</title>
<path fill="none" stroke="black" stroke-dasharray="5,2" d="M1432.18,-234C1432.18,-234 1485.88,-234 1485.88,-234"/>
<polygon fill="black" stroke="black" points="1485.88,-237.5 1495.88,-234 1485.88,-230.5 1485.88,-237.5"/>
</g>
<!-- l2_eng_a_demux -->
<g id="node3" class="node">
<title>l2_eng_a_demux</title>
<ellipse fill="none" stroke="black" cx="861.09" cy="-577" rx="42.49" ry="42.49"/>
<text text-anchor="middle" x="861.09" y="-573.3" font-family="Times,serif" font-size="14.00">demux</text>
</g>
<!-- l2a_eng_a_man_demux -->
<g id="node12" class="node">
<title>l2a_eng_a_man_demux</title>
<ellipse fill="none" stroke="black" cx="1105.23" cy="-553" rx="136.48" ry="18"/>
<text text-anchor="middle" x="1105.23" y="-549.3" font-family="Times,serif" font-size="14.00">L2a_eng_a(E) manifest 1..1</text>
</g>
<!-- l2_eng_a_demux&#45;&gt;l2a_eng_a_man_demux -->
<g id="edge12" class="edge">
<title>l2_eng_a_demux&#45;&gt;l2a_eng_a_man_demux</title>
<path fill="none" stroke="black" d="M896.07,-553C896.07,-553 958.52,-553 958.52,-553"/>
<polygon fill="black" stroke="black" points="958.52,-556.5 968.52,-553 958.52,-549.5 958.52,-556.5"/>
</g>
<!-- l2_eng_a_mux -->
<g id="node4" class="node">
<title>l2_eng_a_mux</title>
<ellipse fill="none" stroke="black" cx="1765.33" cy="-342" rx="30.59" ry="30.59"/>
<text text-anchor="middle" x="1765.33" y="-338.3" font-family="Times,serif" font-size="14.00">mux</text>
</g>
<!-- l2b_eng_a_man -->
<g id="node23" class="node">
<title>l2b_eng_a_man</title>
<ellipse fill="none" stroke="black" cx="1924.17" cy="-342" rx="92.08" ry="18"/>
<text text-anchor="middle" x="1924.17" y="-338.3" font-family="Times,serif" font-size="14.00">L2b manifest 1..1</text>
</g>
<!-- l2_eng_a_mux&#45;&gt;l2b_eng_a_man -->
<g id="edge27" class="edge">
<title>l2_eng_a_mux&#45;&gt;l2b_eng_a_man</title>
<path fill="none" stroke="black" d="M1795.95,-342C1795.95,-342 1821.81,-342 1821.81,-342"/>
<polygon fill="black" stroke="black" points="1821.81,-345.5 1831.81,-342 1821.81,-338.5 1821.81,-345.5"/>
</g>
<!-- l1_eng_a_prod -->
<g id="node5" class="node">
<title>l1_eng_a_prod</title>
<polygon fill="none" stroke="black" points="222.94,-730 40.94,-730 40.94,-694 222.94,-694 222.94,-730"/>
<text text-anchor="middle" x="131.94" y="-708.3" font-family="Times,serif" font-size="14.00">L1_eng_a products 1..b</text>
</g>
<!-- l1_eng_a_prod&#45;&gt;trans_eng_a_l1_l2a -->
<g id="edge1" class="edge">
<title>l1_eng_a_prod&#45;&gt;trans_eng_a_l1_l2a</title>
<path fill="none" stroke="black" stroke-dasharray="5,2" d="M223.21,-712C306.09,-712 415.46,-712 415.46,-712 415.46,-712 415.46,-647.2 415.46,-647.2"/>
<polygon fill="black" stroke="black" points="418.96,-647.2 415.46,-637.2 411.96,-647.2 418.96,-647.2"/>
</g>
<!-- l1_eng_a_man -->
<g id="node6" class="node">
<title>l1_eng_a_man</title>
<ellipse fill="none" stroke="black" cx="131.94" cy="-658" rx="117.78" ry="18"/>
<text text-anchor="middle" x="131.94" y="-654.3" font-family="Times,serif" font-size="14.00">L1_eng_a manifest 1..1</text>
</g>
<!-- l1_eng_a_man&#45;&gt;trans_eng_a_l1_l2a -->
<g id="edge2" class="edge">
<title>l1_eng_a_man&#45;&gt;trans_eng_a_l1_l2a</title>
<path fill="none" stroke="black" d="M249.65,-659.13C304.33,-659.13 357.46,-659.13 357.46,-659.13 357.46,-659.13 357.46,-647.76 357.46,-647.76"/>
<polygon fill="black" stroke="black" points="360.96,-647.76 357.46,-637.76 353.96,-647.76 360.96,-647.76"/>
</g>
<!-- eng_a_cpgs -->
<g id="node7" class="node">
<title>eng_a_cpgs</title>
<polygon fill="none" stroke="black" points="187.44,-454 64.44,-454 64.44,-430 187.44,-430 199.44,-442 187.44,-454"/>
<text text-anchor="middle" x="131.94" y="-438.3" font-family="Times,serif" font-size="14.00">eng_a CPGS 1..1</text>
</g>
<!-- eng_a_cpgs&#45;&gt;trans_eng_a_l1_l2a -->
<g id="edge3" class="edge">
<title>eng_a_cpgs&#45;&gt;trans_eng_a_l1_l2a</title>
<path fill="none" stroke="black" d="M132.46,-460.17C132.46,-467.32 132.46,-473.87 132.46,-473.87 132.46,-473.87 349.47,-473.87 349.47,-473.87"/>
<polygon fill="black" stroke="black" points="349.47,-477.37 359.47,-473.87 349.47,-470.37 349.47,-477.37"/>
</g>
<!-- eng_a_cpgs&#45;&gt;trans_eng_a_l2a_l2b -->
<g id="edge14" class="edge">
<title>eng_a_cpgs&#45;&gt;trans_eng_a_l2a_l2b</title>
<path fill="none" stroke="black" d="M132.46,-423.81C132.46,-400.64 132.46,-363.57 132.46,-363.57 132.46,-363.57 1312.93,-363.57 1312.93,-363.57"/>
<polygon fill="black" stroke="black" points="1312.93,-367.07 1322.93,-363.57 1312.93,-360.07 1312.93,-367.07"/>
</g>
<!-- l1_eng_a_odir -->
<g id="node8" class="node">
<title>l1_eng_a_odir</title>
<ellipse fill="none" stroke="black" cx="131.94" cy="-604" rx="131.88" ry="18"/>
<text text-anchor="middle" x="131.94" y="-600.3" font-family="Times,serif" font-size="14.00">L1_eng_a output path 1..1</text>
</g>
<!-- l1_eng_a_odir&#45;&gt;trans_eng_a_l1_l2a -->
<g id="edge4" class="edge">
<title>l1_eng_a_odir&#45;&gt;trans_eng_a_l1_l2a</title>
<path fill="none" stroke="black" d="M263.88,-604C263.88,-604 304.43,-604 304.43,-604"/>
<polygon fill="black" stroke="black" points="304.43,-607.5 314.43,-604 304.43,-600.5 304.43,-607.5"/>
</g>
<!-- l1_eng_a_rec -->
<g id="node9" class="node">
<title>l1_eng_a_rec</title>
<polygon fill="none" stroke="black" points="165.94,-562 85.94,-562 85.94,-538 165.94,-538 177.94,-550 165.94,-562"/>
<text text-anchor="middle" x="131.94" y="-546.3" font-family="Times,serif" font-size="14.00">recipe 1..1</text>
</g>
<!-- l1_eng_a_rec&#45;&gt;trans_eng_a_l1_l2a -->
<g id="edge5" class="edge">
<title>l1_eng_a_rec&#45;&gt;trans_eng_a_l1_l2a</title>
<path fill="none" stroke="black" d="M177.97,-550C177.97,-550 289.84,-550 289.84,-550"/>
<polygon fill="black" stroke="black" points="289.84,-553.5 299.84,-550 289.84,-546.5 289.84,-553.5"/>
</g>
<!-- l1_eng_a_nln -->
<g id="node10" class="node">
<title>l1_eng_a_nln</title>
<polygon fill="none" stroke="black" points="220.44,-508 31.44,-508 31.44,-484 220.44,-484 232.44,-496 220.44,-508"/>
<text text-anchor="middle" x="131.94" y="-492.3" font-family="Times,serif" font-size="14.00">non linear calibration 1..1</text>
</g>
<!-- l1_eng_a_nln&#45;&gt;trans_eng_a_l1_l2a -->
<g id="edge6" class="edge">
<title>l1_eng_a_nln&#45;&gt;trans_eng_a_l1_l2a</title>
<path fill="none" stroke="black" d="M232.77,-496C232.77,-496 313.89,-496 313.89,-496"/>
<polygon fill="black" stroke="black" points="313.89,-499.5 323.89,-496 313.89,-492.5 313.89,-499.5"/>
</g>
<!-- l2a_eng_a_man&#45;&gt;l2_eng_a_demux -->
<g id="edge11" class="edge">
<title>l2a_eng_a_man&#45;&gt;l2_eng_a_demux</title>
<path fill="none" stroke="black" d="M754.24,-588C754.24,-588 810.14,-588 810.14,-588"/>
<polygon fill="black" stroke="black" points="810.14,-591.5 820.14,-588 810.14,-584.5 810.14,-591.5"/>
</g>
<!-- l2a_eng_a_man_demux&#45;&gt;trans_eng_a_l2a_l2b -->
<g id="edge13" class="edge">
<title>l2a_eng_a_man_demux&#45;&gt;trans_eng_a_l2a_l2b</title>
<path fill="none" stroke="black" d="M1241.82,-553C1304.65,-553 1365.46,-553 1365.46,-553 1365.46,-553 1365.46,-384.4 1365.46,-384.4"/>
<polygon fill="black" stroke="black" points="1368.96,-384.4 1365.46,-374.4 1361.96,-384.4 1368.96,-384.4"/>
</g>
<!-- l2a_eng_a_prod&#45;&gt;trans_eng_a_l2a_l2b -->
<g id="edge10" class="edge">
<title>l2a_eng_a_prod&#45;&gt;trans_eng_a_l2a_l2b</title>
<path fill="none" stroke="black" stroke-dasharray="5,2" d="M861.46,-469.91C861.46,-436.19 861.46,-367.13 861.46,-367.13 861.46,-367.13 1320.05,-367.13 1320.05,-367.13"/>
<polygon fill="black" stroke="black" points="1320.05,-370.63 1330.05,-367.13 1320.05,-363.63 1320.05,-370.63"/>
</g>
<!-- l2a_eng_a_odir -->
<g id="node15" class="node">
<title>l2a_eng_a_odir</title>
<ellipse fill="none" stroke="black" cx="1105.23" cy="-396" rx="137.28" ry="18"/>
<text text-anchor="middle" x="1105.23" y="-392.3" font-family="Times,serif" font-size="14.00">L2a_eng_a output path 1..1</text>
</g>
<!-- l2a_eng_a_odir&#45;&gt;trans_eng_a_l2a_l2b -->
<g id="edge15" class="edge">
<title>l2a_eng_a_odir&#45;&gt;trans_eng_a_l2a_l2b</title>
<path fill="none" stroke="black" d="M1237.46,-391.12C1237.46,-383.77 1237.46,-370.7 1237.46,-370.7 1237.46,-370.7 1329.81,-370.7 1329.81,-370.7"/>
<polygon fill="black" stroke="black" points="1329.81,-374.2 1339.81,-370.7 1329.81,-367.2 1329.81,-374.2"/>
</g>
<!-- l2a_eng_a_rec -->
<g id="node16" class="node">
<title>l2a_eng_a_rec</title>
<polygon fill="none" stroke="black" points="1139.23,-354 1059.23,-354 1059.23,-330 1139.23,-330 1151.23,-342 1139.23,-354"/>
<text text-anchor="middle" x="1105.23" y="-338.3" font-family="Times,serif" font-size="14.00">recipe 1..1</text>
</g>
<!-- l2a_eng_a_rec&#45;&gt;trans_eng_a_l2a_l2b -->
<g id="edge16" class="edge">
<title>l2a_eng_a_rec&#45;&gt;trans_eng_a_l2a_l2b</title>
<path fill="none" stroke="black" d="M1151.3,-342C1151.3,-342 1287.05,-342 1287.05,-342"/>
<polygon fill="black" stroke="black" points="1287.05,-345.5 1297.05,-342 1287.05,-338.5 1287.05,-345.5"/>
</g>
<!-- l2a_eng_a_mbpm -->
<g id="node17" class="node">
<title>l2a_eng_a_mbpm</title>
<polygon fill="none" stroke="black" points="1167.73,-300 1030.73,-300 1030.73,-276 1167.73,-276 1179.73,-288 1167.73,-300"/>
<text text-anchor="middle" x="1105.23" y="-284.3" font-family="Times,serif" font-size="14.00">bad pixel map 1..1</text>
</g>
<!-- l2a_eng_a_mbpm&#45;&gt;trans_eng_a_l2a_l2b -->
<g id="edge17" class="edge">
<title>l2a_eng_a_mbpm&#45;&gt;trans_eng_a_l2a_l2b</title>
<path fill="none" stroke="black" d="M1179.91,-288C1179.91,-288 1268.13,-288 1268.13,-288"/>
<polygon fill="black" stroke="black" points="1268.13,-291.5 1278.13,-288 1268.13,-284.5 1268.13,-291.5"/>
</g>
<!-- l2a_eng_a_dnb -->
<g id="node18" class="node">
<title>l2a_eng_a_dnb</title>
<polygon fill="none" stroke="black" points="1219.23,-246 979.23,-246 979.23,-222 1219.23,-222 1231.23,-234 1219.23,-246"/>
<text text-anchor="middle" x="1105.23" y="-230.3" font-family="Times,serif" font-size="14.00">dark (CIC/FPN/dark current) 1..1</text>
</g>
<!-- l2a_eng_a_dnb&#45;&gt;trans_eng_a_l2a_l2b -->
<g id="edge18" class="edge">
<title>l2a_eng_a_dnb&#45;&gt;trans_eng_a_l2a_l2b</title>
<path fill="none" stroke="black" d="M1231.51,-234C1231.51,-234 1287.18,-234 1287.18,-234"/>
<polygon fill="black" stroke="black" points="1287.18,-237.5 1297.18,-234 1287.18,-230.5 1287.18,-237.5"/>
</g>
<!-- l2a_eng_a_nm -->
<g id="node19" class="node">
<title>l2a_eng_a_nm</title>
<polygon fill="none" stroke="black" points="1157.23,-192 1041.23,-192 1041.23,-168 1157.23,-168 1169.23,-180 1157.23,-192"/>
<text text-anchor="middle" x="1105.23" y="-176.3" font-family="Times,serif" font-size="14.00">noise maps 1..1</text>
</g>
<!-- l2a_eng_a_nm&#45;&gt;trans_eng_a_l2a_l2b -->
<g id="edge19" class="edge">
<title>l2a_eng_a_nm&#45;&gt;trans_eng_a_l2a_l2b</title>
<path fill="none" stroke="black" d="M1105.46,-198.12C1105.46,-203.92 1105.46,-208.87 1105.46,-208.87 1105.46,-208.87 1320.22,-208.87 1320.22,-208.87"/>
<polygon fill="black" stroke="black" points="1320.22,-212.37 1330.22,-208.87 1320.22,-205.37 1320.22,-212.37"/>
</g>
<!-- l2a_eng_a_ff -->
<g id="node20" class="node">
<title>l2a_eng_a_ff</title>
<polygon fill="none" stroke="black" points="1146.73,-138 1051.73,-138 1051.73,-114 1146.73,-114 1158.73,-126 1146.73,-138"/>
<text text-anchor="middle" x="1105.23" y="-122.3" font-family="Times,serif" font-size="14.00">flat field 1..1</text>
</g>
<!-- l2a_eng_a_ff&#45;&gt;trans_eng_a_l2a_l2b -->
<g id="edge20" class="edge">
<title>l2a_eng_a_ff&#45;&gt;trans_eng_a_l2a_l2b</title>
<path fill="none" stroke="black" d="M1158.92,-126C1223.25,-126 1322.46,-126 1322.46,-126 1322.46,-126 1322.46,-202.69 1322.46,-202.69"/>
<polygon fill="black" stroke="black" points="1318.96,-202.69 1322.46,-212.69 1325.96,-202.69 1318.96,-202.69"/>
</g>
<!-- l2a_eng_a_kgain -->
<g id="node21" class="node">
<title>l2a_eng_a_kgain</title>
<polygon fill="none" stroke="black" points="1139.23,-84 1059.23,-84 1059.23,-60 1139.23,-60 1151.23,-72 1139.23,-84"/>
<text text-anchor="middle" x="1105.23" y="-68.3" font-family="Times,serif" font-size="14.00">k&#45;gain 1..1</text>
</g>
<!-- l2a_eng_a_kgain&#45;&gt;trans_eng_a_l2a_l2b -->
<g id="edge21" class="edge">
<title>l2a_eng_a_kgain&#45;&gt;trans_eng_a_l2a_l2b</title>
<path fill="none" stroke="black" d="M1151.45,-72C1226.23,-72 1365.46,-72 1365.46,-72 1365.46,-72 1365.46,-191.7 1365.46,-191.7"/>
<polygon fill="black" stroke="black" points="1361.96,-191.7 1365.46,-201.7 1368.96,-191.7 1361.96,-191.7"/>
</g>
<!-- l2a_eng_a_emg -->
<g id="node22" class="node">
<title>l2a_eng_a_emg</title>
<polygon fill="none" stroke="black" points="1147.23,-30 1051.23,-30 1051.23,-6 1147.23,-6 1159.23,-18 1147.23,-30"/>
<text text-anchor="middle" x="1105.23" y="-14.3" font-family="Times,serif" font-size="14.00">EM gain 1..1</text>
</g>
<!-- l2a_eng_a_emg&#45;&gt;trans_eng_a_l2a_l2b -->
<g id="edge22" class="edge">
<title>l2a_eng_a_emg&#45;&gt;trans_eng_a_l2a_l2b</title>
<path fill="none" stroke="black" d="M1159.44,-18C1246.66,-18 1408.46,-18 1408.46,-18 1408.46,-18 1408.46,-203.51 1408.46,-203.51"/>
<polygon fill="black" stroke="black" points="1404.96,-203.51 1408.46,-213.51 1411.96,-203.51 1404.96,-203.51"/>
</g>
<!-- l2b_eng_a_man_demux&#45;&gt;l2_eng_a_mux -->
<g id="edge26" class="edge">
<title>l2b_eng_a_man_demux&#45;&gt;l2_eng_a_mux</title>
<path fill="none" stroke="black" d="M1699.13,-342C1699.13,-342 1724.68,-342 1724.68,-342"/>
<polygon fill="black" stroke="black" points="1724.68,-345.5 1734.68,-342 1724.68,-338.5 1724.68,-345.5"/>
</g>
</g>
</svg>
