<?xml version="1.0" encoding="UTF-8" standalone="no"?>
<!DOCTYPE svg PUBLIC "-//W3C//DTD SVG 1.1//EN"
 "http://www.w3.org/Graphics/SVG/1.1/DTD/svg11.dtd">
<!-- Generated by graphviz version 2.43.0 (0)
 -->
<!-- Title: Channel_eng_a_Design Pages: 1 -->
<svg width="2024pt" height="846pt"
 viewBox="0.00 0.00 2024.46 846.00" xmlns="http://www.w3.org/2000/svg" xmlns:xlink="http://www.w3.org/1999/xlink">
<g id="graph0" class="graph" transform="scale(1 1) rotate(0) translate(4 842)">
<title>Channel_eng_a_Design</title>
<polygon fill="white" stroke="transparent" points="-4,4 -4,-842 2020.46,-842 2020.46,4 -4,4"/>
<!-- trans_eng_a_l1_l2a -->
<g id="node1" class="node">
<title>trans_eng_a_l1_l2a</title>
<ellipse fill="none" stroke="black" cx="386.14" cy="-664" rx="86.03" ry="86.03"/>
<text text-anchor="middle" x="386.14" y="-667.8" font-family="Times,serif" font-size="14.00">Transmutation</text>
<text text-anchor="middle" x="386.14" y="-652.8" font-family="Times,serif" font-size="14.00">L1 to L2a</text>
</g>
<!-- l2a_eng_a_man -->
<g id="node11" class="node">
<title>l2a_eng_a_man</title>
<ellipse fill="none" stroke="black" cx="631.25" cy="-696" rx="122.68" ry="18"/>
<text text-anchor="middle" x="631.25" y="-692.3" font-family="Times,serif" font-size="14.00">L2a_eng_a manifest 1..1</text>
</g>
<!-- trans_eng_a_l1_l2a&#45;&gt;l2a_eng_a_man -->
<g id="edge9" class="edge">
<title>trans_eng_a_l1_l2a&#45;&gt;l2a_eng_a_man</title>
<path fill="none" stroke="black" d="M466.4,-696C466.4,-696 498.16,-696 498.16,-696"/>
<polygon fill="black" stroke="black" points="498.16,-699.5 508.16,-696 498.16,-692.5 498.16,-699.5"/>
</g>
<!-- l2a_eng_a_log -->
<g id="node13" class="node">
<title>l2a_eng_a_log</title>
<ellipse fill="none" stroke="black" cx="631.25" cy="-642" rx="96.68" ry="18"/>
<text text-anchor="middle" x="631.25" y="-638.3" font-family="Times,serif" font-size="14.00">L2a_eng_a log 1..1</text>
</g>
<!-- trans_eng_a_l1_l2a&#45;&gt;l2a_eng_a_log -->
<g id="edge8" class="edge">
<title>trans_eng_a_l1_l2a&#45;&gt;l2a_eng_a_log</title>
<path fill="none" stroke="black" stroke-dasharray="5,2" d="M469.81,-642C469.81,-642 524.03,-642 524.03,-642"/>
<polygon fill="black" stroke="black" points="524.03,-645.5 534.03,-642 524.03,-638.5 524.03,-645.5"/>
</g>
<!-- l2a_eng_a_prod -->
<g id="node14" class="node">
<title>l2a_eng_a_prod</title>
<polygon fill="none" stroke="black" points="932.09,-614 790.09,-614 790.09,-578 932.09,-578 932.09,-614"/>
<text text-anchor="middle" x="861.09" y="-592.3" font-family="Times,serif" font-size="14.00">L2a products 1..b</text>
</g>
<!-- trans_eng_a_l1_l2a&#45;&gt;l2a_eng_a_prod -->
<g id="edge7" class="edge">
<title>trans_eng_a_l1_l2a&#45;&gt;l2a_eng_a_prod</title>
<path fill="none" stroke="black" stroke-dasharray="5,2" d="M439.24,-596C439.24,-596 779.85,-596 779.85,-596"/>
<polygon fill="black" stroke="black" points="779.85,-599.5 789.85,-596 779.85,-592.5 779.85,-599.5"/>
</g>
<!-- trans_eng_a_l2a_l2b -->
<g id="node2" class="node">
<title>trans_eng_a_l2a_l2b</title>
<ellipse fill="none" stroke="black" cx="1364.63" cy="-342" rx="86.03" ry="86.03"/>
<text text-anchor="middle" x="1364.63" y="-345.8" font-family="Times,serif" font-size="14.00">Transmutation</text>
<text text-anchor="middle" x="1364.63" y="-330.8" font-family="Times,serif" font-size="14.00">L2a to L2b</text>
</g>
<!-- l2b_eng_a_man_demux -->
<g id="node26" class="node">
<title>l2b_eng_a_man_demux</title>
<ellipse fill="none" stroke="black" cx="1592.84" cy="-396" rx="105.88" ry="18"/>
<text text-anchor="middle" x="1592.84" y="-392.3" font-family="Times,serif" font-size="14.00">L2b(E) manifest 1..1</text>
</g>
<!-- trans_eng_a_l2a_l2b&#45;&gt;l2b_eng_a_man_demux -->
<g id="edge27" class="edge">
<title>trans_eng_a_l2a_l2b&#45;&gt;l2b_eng_a_man_demux</title>
<path fill="none" stroke="black" d="M1432.18,-396C1432.18,-396 1476.52,-396 1476.52,-396"/>
<polygon fill="black" stroke="black" points="1476.52,-399.5 1486.52,-396 1476.52,-392.5 1476.52,-399.5"/>
</g>
<!-- l2b_eng_a_prod -->
<g id="node27" class="node">
<title>l2b_eng_a_prod</title>
<polygon fill="none" stroke="black" points="1664.34,-360 1521.34,-360 1521.34,-324 1664.34,-324 1664.34,-360"/>
<text text-anchor="middle" x="1592.84" y="-338.3" font-family="Times,serif" font-size="14.00">L2b products 1..b</text>
</g>
<!-- trans_eng_a_l2a_l2b&#45;&gt;l2b_eng_a_prod -->
<g id="edge25" class="edge">
<title>trans_eng_a_l2a_l2b&#45;&gt;l2b_eng_a_prod</title>
<path fill="none" stroke="black" stroke-dasharray="5,2" d="M1450.91,-342C1450.91,-342 1511.32,-342 1511.32,-342"/>
<polygon fill="black" stroke="black" points="1511.32,-345.5 1521.32,-342 1511.32,-338.5 1511.32,-345.5"/>
</g>
<!-- l2b_eng_a_log -->
<g id="node28" class="node">
<title>l2b_eng_a_log</title>
<ellipse fill="none" stroke="black" cx="1592.84" cy="-288" rx="96.68" ry="18"/>
<text text-anchor="middle" x="1592.84" y="-284.3" font-family="Times,serif" font-size="14.00">L2b_eng_a log 1..1</text>
</g>
<!-- trans_eng_a_l2a_l2b&#45;&gt;l2b_eng_a_log -->
<g id="edge26" class="edge">
<title>trans_eng_a_l2a_l2b&#45;&gt;l2b_eng_a_log</title>
<path fill="none" stroke="black" stroke-dasharray="5,2" d="M1432.18,-288C1432.18,-288 1485.88,-288 1485.88,-288"/>
<polygon fill="black" stroke="black" points="1485.88,-291.5 1495.88,-288 1485.88,-284.5 1485.88,-291.5"/>
</g>
<!-- l2_eng_a_demux -->
<g id="node3" class="node">
<title>l2_eng_a_demux</title>
<ellipse fill="none" stroke="black" cx="861.09" cy="-685" rx="42.49" ry="42.49"/>
<text text-anchor="middle" x="861.09" y="-681.3" font-family="Times,serif" font-size="14.00">demux</text>
</g>
<!-- l2a_eng_a_man_demux -->
<g id="node12" class="node">
<title>l2a_eng_a_man_demux</title>
<ellipse fill="none" stroke="black" cx="1105.23" cy="-661" rx="136.48" ry="18"/>
<text text-anchor="middle" x="1105.23" y="-657.3" font-family="Times,serif" font-size="14.00">L2a_eng_a(E) manifest 1..1</text>
</g>
<!-- l2_eng_a_demux&#45;&gt;l2a_eng_a_man_demux -->
<g id="edge12" class="edge">
<title>l2_eng_a_demux&#45;&gt;l2a_eng_a_man_demux</title>
<path fill="none" stroke="black" d="M896.07,-661C896.07,-661 958.52,-661 958.52,-661"/>
<polygon fill="black" stroke="black" points="958.52,-664.5 968.52,-661 958.52,-657.5 958.52,-664.5"/>
</g>
<!-- l2_eng_a_mux -->
<g id="node4" class="node">
<title>l2_eng_a_mux</title>
<ellipse fill="none" stroke="black" cx="1765.33" cy="-396" rx="30.59" ry="30.59"/>
<text text-anchor="middle" x="1765.33" y="-392.3" font-family="Times,serif" font-size="14.00">mux</text>
</g>
<!-- l2b_eng_a_man -->
<g id="node25" class="node">
<title>l2b_eng_a_man</title>
<ellipse fill="none" stroke="black" cx="1924.17" cy="-396" rx="92.08" ry="18"/>
<text text-anchor="middle" x="1924.17" y="-392.3" font-family="Times,serif" font-size="14.00">L2b manifest 1..1</text>
</g>
<!-- l2_eng_a_mux&#45;&gt;l2b_eng_a_man -->
<g id="edge29" class="edge">
<title>l2_eng_a_mux&#45;&gt;l2b_eng_a_man</title>
<path fill="none" stroke="black" d="M1795.95,-396C1795.95,-396 1821.81,-396 1821.81,-396"/>
<polygon fill="black" stroke="black" points="1821.81,-399.5 1831.81,-396 1821.81,-392.5 1821.81,-399.5"/>
</g>
<!-- l1_eng_a_prod -->
<g id="node5" class="node">
<title>l1_eng_a_prod</title>
<polygon fill="none" stroke="black" points="222.94,-838 40.94,-838 40.94,-802 222.94,-802 222.94,-838"/>
<text text-anchor="middle" x="131.94" y="-816.3" font-family="Times,serif" font-size="14.00">L1_eng_a products 1..b</text>
</g>
<!-- l1_eng_a_prod&#45;&gt;trans_eng_a_l1_l2a -->
<g id="edge1" class="edge">
<title>l1_eng_a_prod&#45;&gt;trans_eng_a_l1_l2a</title>
<path fill="none" stroke="black" stroke-dasharray="5,2" d="M223.21,-820C306.09,-820 415.46,-820 415.46,-820 415.46,-820 415.46,-755.2 415.46,-755.2"/>
<polygon fill="black" stroke="black" points="418.96,-755.2 415.46,-745.2 411.96,-755.2 418.96,-755.2"/>
</g>
<!-- l1_eng_a_man -->
<g id="node6" class="node">
<title>l1_eng_a_man</title>
<ellipse fill="none" stroke="black" cx="131.94" cy="-766" rx="117.78" ry="18"/>
<text text-anchor="middle" x="131.94" y="-762.3" font-family="Times,serif" font-size="14.00">L1_eng_a manifest 1..1</text>
</g>
<!-- l1_eng_a_man&#45;&gt;trans_eng_a_l1_l2a -->
<g id="edge2" class="edge">
<title>l1_eng_a_man&#45;&gt;trans_eng_a_l1_l2a</title>
<path fill="none" stroke="black" d="M249.65,-767.13C304.33,-767.13 357.46,-767.13 357.46,-767.13 357.46,-767.13 357.46,-755.76 357.46,-755.76"/>
<polygon fill="black" stroke="black" points="360.96,-755.76 357.46,-745.76 353.96,-755.76 360.96,-755.76"/>
</g>
<!-- eng_a_cpgs -->
<g id="node7" class="node">
<title>eng_a_cpgs</title>
<polygon fill="none" stroke="black" points="187.44,-562 64.44,-562 64.44,-538 187.44,-538 199.44,-550 187.44,-562"/>
<text text-anchor="middle" x="131.94" y="-546.3" font-family="Times,serif" font-size="14.00">eng_a CPGS 1..1</text>
</g>
<!-- eng_a_cpgs&#45;&gt;trans_eng_a_l1_l2a -->
<g id="edge3" class="edge">
<title>eng_a_cpgs&#45;&gt;trans_eng_a_l1_l2a</title>
<path fill="none" stroke="black" d="M132.46,-568.17C132.46,-575.32 132.46,-581.87 132.46,-581.87 132.46,-581.87 349.47,-581.87 349.47,-581.87"/>
<polygon fill="black" stroke="black" points="349.47,-585.37 359.47,-581.87 349.47,-578.37 349.47,-585.37"/>
</g>
<!-- eng_a_cpgs&#45;&gt;trans_eng_a_l2a_l2b -->
<g id="edge14" class="edge">
<title>eng_a_cpgs&#45;&gt;trans_eng_a_l2a_l2b</title>
<path fill="none" stroke="black" d="M132.46,-531.77C132.46,-495.3 132.46,-416.85 132.46,-416.85 132.46,-416.85 1311.5,-416.85 1311.5,-416.85"/>
<polygon fill="black" stroke="black" points="1311.5,-420.35 1321.5,-416.85 1311.5,-413.35 1311.5,-420.35"/>
</g>
<!-- l1_eng_a_odir -->
<g id="node8" class="node">
<title>l1_eng_a_odir</title>
<ellipse fill="none" stroke="black" cx="131.94" cy="-712" rx="131.88" ry="18"/>
<text text-anchor="middle" x="131.94" y="-708.3" font-family="Times,serif" font-size="14.00">L1_eng_a output path 1..1</text>
</g>
<!-- l1_eng_a_odir&#45;&gt;trans_eng_a_l1_l2a -->
<g id="edge4" class="edge">
<title>l1_eng_a_odir&#45;&gt;trans_eng_a_l1_l2a</title>
<path fill="none" stroke="black" d="M263.88,-712C263.88,-712 304.43,-712 304.43,-712"/>
<polygon fill="black" stroke="black" points="304.43,-715.5 314.43,-712 304.43,-708.5 304.43,-715.5"/>
</g>
<!-- l1_eng_a_rec -->
<g id="node9" class="node">
<title>l1_eng_a_rec</title>
<polygon fill="none" stroke="black" points="165.94,-670 85.94,-670 85.94,-646 165.94,-646 177.94,-658 165.94,-670"/>
<text text-anchor="middle" x="131.94" y="-654.3" font-family="Times,serif" font-size="14.00">recipe 1..1</text>
</g>
<!-- l1_eng_a_rec&#45;&gt;trans_eng_a_l1_l2a -->
<g id="edge5" class="edge">
<title>l1_eng_a_rec&#45;&gt;trans_eng_a_l1_l2a</title>
<path fill="none" stroke="black" d="M177.97,-658C177.97,-658 289.84,-658 289.84,-658"/>
<polygon fill="black" stroke="black" points="289.84,-661.5 299.84,-658 289.84,-654.5 289.84,-661.5"/>
</g>
<!-- l1_eng_a_nln -->
<g id="node10" class="node">
<title>l1_eng_a_nln</title>
<polygon fill="none" stroke="black" points="220.44,-616 31.44,-616 31.44,-592 220.44,-592 232.44,-604 220.44,-616"/>
<text text-anchor="middle" x="131.94" y="-600.3" font-family="Times,serif" font-size="14.00">non linear calibration 1..1</text>
</g>
<!-- l1_eng_a_nln&#45;&gt;trans_eng_a_l1_l2a -->
<g id="edge6" class="edge">
<title>l1_eng_a_nln&#45;&gt;trans_eng_a_l1_l2a</title>
<path fill="none" stroke="black" d="M232.77,-604C232.77,-604 313.89,-604 313.89,-604"/>
<polygon fill="black" stroke="black" points="313.89,-607.5 323.89,-604 313.89,-600.5 313.89,-607.5"/>
</g>
<!-- l2a_eng_a_man&#45;&gt;l2_eng_a_demux -->
<g id="edge11" class="edge">
<title>l2a_eng_a_man&#45;&gt;l2_eng_a_demux</title>
<path fill="none" stroke="black" d="M754.24,-696C754.24,-696 810.14,-696 810.14,-696"/>
<polygon fill="black" stroke="black" points="810.14,-699.5 820.14,-696 810.14,-692.5 810.14,-699.5"/>
</g>
<!-- l2a_eng_a_man_demux&#45;&gt;trans_eng_a_l2a_l2b -->
<g id="edge13" class="edge">
<title>l2a_eng_a_man_demux&#45;&gt;trans_eng_a_l2a_l2b</title>
<path fill="none" stroke="black" d="M1241.82,-661C1304.65,-661 1365.46,-661 1365.46,-661 1365.46,-661 1365.46,-438.33 1365.46,-438.33"/>
<polygon fill="black" stroke="black" points="1368.96,-438.33 1365.46,-428.33 1361.96,-438.33 1368.96,-438.33"/>
</g>
<!-- l2a_eng_a_prod&#45;&gt;trans_eng_a_l2a_l2b -->
<g id="edge10" class="edge">
<title>l2a_eng_a_prod&#45;&gt;trans_eng_a_l2a_l2b</title>
<path fill="none" stroke="black" stroke-dasharray="5,2" d="M861.46,-577.8C861.46,-532.75 861.46,-419.71 861.46,-419.71 861.46,-419.71 1316.81,-419.71 1316.81,-419.71"/>
<polygon fill="black" stroke="black" points="1316.81,-423.21 1326.81,-419.71 1316.81,-416.21 1316.81,-423.21"/>
</g>
<!-- l2a_eng_a_odir -->
<g id="node15" class="node">
<title>l2a_eng_a_odir</title>
<ellipse fill="none" stroke="black" cx="1105.23" cy="-504" rx="137.28" ry="18"/>
<text text-anchor="middle" x="1105.23" y="-500.3" font-family="Times,serif" font-size="14.00">L2a_eng_a output path 1..1</text>
</g>
<!-- l2a_eng_a_odir&#45;&gt;trans_eng_a_l2a_l2b -->
<g id="edge15" class="edge">
<title>l2a_eng_a_odir&#45;&gt;trans_eng_a_l2a_l2b</title>
<path fill="none" stroke="black" d="M1225.46,-495.29C1225.46,-474.83 1225.46,-425.41 1225.46,-425.41 1225.46,-425.41 1332.58,-425.41 1332.58,-425.41"/>
<polygon fill="black" stroke="black" points="1332.58,-428.91 1342.58,-425.41 1332.58,-421.91 1332.58,-428.91"/>
</g>
<!-- l2a_eng_a_rec -->
<g id="node16" class="node">
<title>l2a_eng_a_rec</title>
<polygon fill="none" stroke="black" points="1139.23,-462 1059.23,-462 1059.23,-438 1139.23,-438 1151.23,-450 1139.23,-462"/>
<text text-anchor="middle" x="1105.23" y="-446.3" font-family="Times,serif" font-size="14.00">recipe 1..1</text>
</g>
<!-- l2a_eng_a_rec&#45;&gt;trans_eng_a_l2a_l2b -->
<g id="edge16" class="edge">
<title>l2a_eng_a_rec&#45;&gt;trans_eng_a_l2a_l2b</title>
<path fill="none" stroke="black" d="M1105.46,-431.85C1105.46,-426.75 1105.46,-422.56 1105.46,-422.56 1105.46,-422.56 1323.63,-422.56 1323.63,-422.56"/>
<polygon fill="black" stroke="black" points="1323.63,-426.06 1333.63,-422.56 1323.63,-419.06 1323.63,-426.06"/>
</g>
<!-- l2a_eng_a_bpm -->
<g id="node17" class="node">
<title>l2a_eng_a_bpm</title>
<polygon fill="none" stroke="black" points="1167.73,-408 1030.73,-408 1030.73,-384 1167.73,-384 1179.73,-396 1167.73,-408"/>
<text text-anchor="middle" x="1105.23" y="-392.3" font-family="Times,serif" font-size="14.00">bad pixel map 1..1</text>
</g>
<!-- l2a_eng_a_bpm&#45;&gt;trans_eng_a_l2a_l2b -->
<g id="edge17" class="edge">
<title>l2a_eng_a_bpm&#45;&gt;trans_eng_a_l2a_l2b</title>
<path fill="none" stroke="black" d="M1179.91,-396C1179.91,-396 1287.11,-396 1287.11,-396"/>
<polygon fill="black" stroke="black" points="1287.11,-399.5 1297.11,-396 1287.11,-392.5 1287.11,-399.5"/>
</g>
<!-- l2a_eng_a_dt -->
<g id="node18" class="node">
<title>l2a_eng_a_dt</title>
<polygon fill="none" stroke="black" points="1178.23,-354 1020.23,-354 1020.23,-330 1178.23,-330 1190.23,-342 1178.23,-354"/>
<text text-anchor="middle" x="1105.23" y="-338.3" font-family="Times,serif" font-size="14.00">dark (traditional) 1..1</text>
</g>
<!-- l2a_eng_a_dt&#45;&gt;trans_eng_a_l2a_l2b -->
<g id="edge18" class="edge">
<title>l2a_eng_a_dt&#45;&gt;trans_eng_a_l2a_l2b</title>
<path fill="none" stroke="black" d="M1190.52,-342C1190.52,-342 1267.95,-342 1267.95,-342"/>
<polygon fill="black" stroke="black" points="1267.95,-345.5 1277.95,-342 1267.95,-338.5 1267.95,-345.5"/>
</g>
<!-- l2a_eng_a_ds -->
<g id="node19" class="node">
<title>l2a_eng_a_ds</title>
<polygon fill="none" stroke="black" points="1182.73,-300 1015.73,-300 1015.73,-276 1182.73,-276 1194.73,-288 1182.73,-300"/>
<text text-anchor="middle" x="1105.23" y="-284.3" font-family="Times,serif" font-size="14.00">dark (synthetized) 1..1</text>
</g>
<!-- l2a_eng_a_ds&#45;&gt;trans_eng_a_l2a_l2b -->
<g id="edge19" class="edge">
<title>l2a_eng_a_ds&#45;&gt;trans_eng_a_l2a_l2b</title>
<path fill="none" stroke="black" d="M1194.86,-288C1194.86,-288 1287.1,-288 1287.1,-288"/>
<polygon fill="black" stroke="black" points="1287.1,-291.5 1297.1,-288 1287.1,-284.5 1287.1,-291.5"/>
</g>
<!-- l2a_eng_a_dn -->
<g id="node20" class="node">
<title>l2a_eng_a_dn</title>
<polygon fill="none" stroke="black" points="1196.23,-246 1002.23,-246 1002.23,-222 1196.23,-222 1208.23,-234 1196.23,-246"/>
<text text-anchor="middle" x="1105.23" y="-230.3" font-family="Times,serif" font-size="14.00">dark (from noise map) 1..1</text>
</g>
<!-- l2a_eng_a_dn&#45;&gt;trans_eng_a_l2a_l2b -->
<g id="edge20" class="edge">
<title>l2a_eng_a_dn&#45;&gt;trans_eng_a_l2a_l2b</title>
<path fill="none" stroke="black" d="M1202.46,-252.12C1202.46,-257.92 1202.46,-262.87 1202.46,-262.87 1202.46,-262.87 1320.24,-262.87 1320.24,-262.87"/>
<polygon fill="black" stroke="black" points="1320.24,-266.37 1330.24,-262.87 1320.24,-259.37 1320.24,-266.37"/>
</g>
<!-- l2a_eng_a_nm -->
<g id="node21" class="node">
<title>l2a_eng_a_nm</title>
<polygon fill="none" stroke="black" points="1157.23,-192 1041.23,-192 1041.23,-168 1157.23,-168 1169.23,-180 1157.23,-192"/>
<text text-anchor="middle" x="1105.23" y="-176.3" font-family="Times,serif" font-size="14.00">noise maps 1..1</text>
</g>
<!-- l2a_eng_a_nm&#45;&gt;trans_eng_a_l2a_l2b -->
<g id="edge21" class="edge">
<title>l2a_eng_a_nm&#45;&gt;trans_eng_a_l2a_l2b</title>
<path fill="none" stroke="black" d="M1169.4,-180C1230.59,-180 1313.46,-180 1313.46,-180 1313.46,-180 1313.46,-262.36 1313.46,-262.36"/>
<polygon fill="black" stroke="black" points="1309.96,-262.36 1313.46,-272.36 1316.96,-262.36 1309.96,-262.36"/>
</g>
<!-- l2a_eng_a_ff -->
<g id="node22" class="node">
<title>l2a_eng_a_ff</title>
<polygon fill="none" stroke="black" points="1146.73,-138 1051.73,-138 1051.73,-114 1146.73,-114 1158.73,-126 1146.73,-138"/>
<text text-anchor="middle" x="1105.23" y="-122.3" font-family="Times,serif" font-size="14.00">flat field 1..1</text>
</g>
<!-- l2a_eng_a_ff&#45;&gt;trans_eng_a_l2a_l2b -->
<g id="edge22" class="edge">
<title>l2a_eng_a_ff&#45;&gt;trans_eng_a_l2a_l2b</title>
<path fill="none" stroke="black" d="M1158.99,-126C1230.35,-126 1347.46,-126 1347.46,-126 1347.46,-126 1347.46,-247.25 1347.46,-247.25"/>
<polygon fill="black" stroke="black" points="1343.96,-247.25 1347.46,-257.25 1350.96,-247.25 1343.96,-247.25"/>
</g>
<!-- l2a_eng_a_kg -->
<g id="node23" class="node">
<title>l2a_eng_a_kg</title>
<polygon fill="none" stroke="black" points="1139.23,-84 1059.23,-84 1059.23,-60 1139.23,-60 1151.23,-72 1139.23,-84"/>
<text text-anchor="middle" x="1105.23" y="-68.3" font-family="Times,serif" font-size="14.00">k&#45;gain 1..1</text>
</g>
<!-- l2a_eng_a_kg&#45;&gt;trans_eng_a_l2a_l2b -->
<g id="edge23" class="edge">
<title>l2a_eng_a_kg&#45;&gt;trans_eng_a_l2a_l2b</title>
<path fill="none" stroke="black" d="M1151.32,-72C1230.15,-72 1382.46,-72 1382.46,-72 1382.46,-72 1382.46,-247.31 1382.46,-247.31"/>
<polygon fill="black" stroke="black" points="1378.96,-247.31 1382.46,-257.31 1385.96,-247.31 1378.96,-247.31"/>
</g>
<!-- l2a_eng_a_emg -->
<g id="node24" class="node">
<title>l2a_eng_a_emg</title>
<polygon fill="none" stroke="black" points="1147.23,-30 1051.23,-30 1051.23,-6 1147.23,-6 1159.23,-18 1147.23,-30"/>
<text text-anchor="middle" x="1105.23" y="-14.3" font-family="Times,serif" font-size="14.00">EM gain 1..1</text>
</g>
<!-- l2a_eng_a_emg&#45;&gt;trans_eng_a_l2a_l2b -->
<g id="edge24" class="edge">
<title>l2a_eng_a_emg&#45;&gt;trans_eng_a_l2a_l2b</title>
<path fill="none" stroke="black" d="M1159.44,-18C1248.61,-18 1416.46,-18 1416.46,-18 1416.46,-18 1416.46,-262.89 1416.46,-262.89"/>
<polygon fill="black" stroke="black" points="1412.96,-262.89 1416.46,-272.89 1419.96,-262.89 1412.96,-262.89"/>
</g>
<!-- l2b_eng_a_man_demux&#45;&gt;l2_eng_a_mux -->
<g id="edge28" class="edge">
<title>l2b_eng_a_man_demux&#45;&gt;l2_eng_a_mux</title>
<path fill="none" stroke="black" d="M1699.13,-396C1699.13,-396 1724.68,-396 1724.68,-396"/>
<polygon fill="black" stroke="black" points="1724.68,-399.5 1734.68,-396 1724.68,-392.5 1724.68,-399.5"/>
</g>
</g>
</svg>
