<?xml version="1.0" encoding="UTF-8" standalone="no"?>
<!DOCTYPE svg PUBLIC "-//W3C//DTD SVG 1.1//EN"
 "http://www.w3.org/Graphics/SVG/1.1/DTD/svg11.dtd">
<!-- Generated by graphviz version 2.43.0 (0)
 -->
<!-- Title: Channel_eng_a_Design Pages: 1 -->
<svg width="1386pt" height="738pt"
 viewBox="0.00 0.00 1386.19 738.00" xmlns="http://www.w3.org/2000/svg" xmlns:xlink="http://www.w3.org/1999/xlink">
<g id="graph0" class="graph" transform="scale(1 1) rotate(0) translate(4 734)">
<title>Channel_eng_a_Design</title>
<polygon fill="white" stroke="transparent" points="-4,4 -4,-734 1382.19,-734 1382.19,4 -4,4"/>
<!-- trans_eng_a_l1_l2a -->
<g id="node1" class="node">
<title>trans_eng_a_l1_l2a</title>
<ellipse fill="none" stroke="black" cx="435.54" cy="-576" rx="86.03" ry="86.03"/>
<text text-anchor="middle" x="435.54" y="-579.8" font-family="Times,serif" font-size="14.00">Transmutation</text>
<text text-anchor="middle" x="435.54" y="-564.8" font-family="Times,serif" font-size="14.00">L1 to L2a</text>
</g>
<!-- l2a_eng_a_man -->
<g id="node9" class="node">
<title>l2a_eng_a_man</title>
<ellipse fill="none" stroke="black" cx="719.64" cy="-650" rx="161.67" ry="18"/>
<text text-anchor="middle" x="719.64" y="-646.3" font-family="Times,serif" font-size="14.00">L2a_eng_a product manifest 1..1</text>
</g>
<!-- trans_eng_a_l1_l2a&#45;&gt;l2a_eng_a_man -->
<g id="edge9" class="edge">
<title>trans_eng_a_l1_l2a&#45;&gt;l2a_eng_a_man</title>
<path fill="none" stroke="black" d="M484.38,-647.13C484.38,-647.13 549.66,-647.13 549.66,-647.13"/>
<polygon fill="black" stroke="black" points="549.66,-650.63 559.66,-647.13 549.66,-643.63 549.66,-650.63"/>
</g>
<!-- l2a_eng_a_log -->
<g id="node10" class="node">
<title>l2a_eng_a_log</title>
<ellipse fill="none" stroke="black" cx="719.64" cy="-596" rx="96.68" ry="18"/>
<text text-anchor="middle" x="719.64" y="-592.3" font-family="Times,serif" font-size="14.00">L2a_eng_a log 1..1</text>
</g>
<!-- trans_eng_a_l1_l2a&#45;&gt;l2a_eng_a_log -->
<g id="edge8" class="edge">
<title>trans_eng_a_l1_l2a&#45;&gt;l2a_eng_a_log</title>
<path fill="none" stroke="black" stroke-dasharray="5,2" d="M519.63,-596C519.63,-596 612.78,-596 612.78,-596"/>
<polygon fill="black" stroke="black" points="612.78,-599.5 622.78,-596 612.78,-592.5 612.78,-599.5"/>
</g>
<!-- l2a_eng_a_prod -->
<g id="node11" class="node">
<title>l2a_eng_a_prod</title>
<polygon fill="none" stroke="black" points="790.64,-560 648.64,-560 648.64,-524 790.64,-524 790.64,-560"/>
<text text-anchor="middle" x="719.64" y="-538.3" font-family="Times,serif" font-size="14.00">L2a products 1..b</text>
</g>
<!-- trans_eng_a_l1_l2a&#45;&gt;l2a_eng_a_prod -->
<g id="edge7" class="edge">
<title>trans_eng_a_l1_l2a&#45;&gt;l2a_eng_a_prod</title>
<path fill="none" stroke="black" stroke-dasharray="5,2" d="M515.06,-542C515.06,-542 638.39,-542 638.39,-542"/>
<polygon fill="black" stroke="black" points="638.39,-545.5 648.39,-542 638.39,-538.5 638.39,-545.5"/>
</g>
<!-- l2a_eng_a_src -->
<g id="node23" class="node">
<title>l2a_eng_a_src</title>
<ellipse fill="none" stroke="black" cx="719.64" cy="-488" rx="156.77" ry="18"/>
<text text-anchor="middle" x="719.64" y="-484.3" font-family="Times,serif" font-size="14.00">L2a_eng_a source manifest 1..1</text>
</g>
<!-- trans_eng_a_l1_l2a&#45;&gt;l2a_eng_a_src -->
<g id="edge24" class="edge">
<title>trans_eng_a_l1_l2a&#45;&gt;l2a_eng_a_src</title>
<path fill="none" stroke="black" d="M472.39,-497.87C472.39,-497.87 578.59,-497.87 578.59,-497.87"/>
<polygon fill="black" stroke="black" points="578.59,-501.37 588.59,-497.87 578.59,-494.37 578.59,-501.37"/>
</g>
<!-- trans_eng_a_l2a_l2b -->
<g id="node2" class="node">
<title>trans_eng_a_l2a_l2b</title>
<ellipse fill="none" stroke="black" cx="1003.74" cy="-288" rx="86.03" ry="86.03"/>
<text text-anchor="middle" x="1003.74" y="-291.8" font-family="Times,serif" font-size="14.00">Transmutation</text>
<text text-anchor="middle" x="1003.74" y="-276.8" font-family="Times,serif" font-size="14.00">L2a to L2b</text>
</g>
<!-- l2b_eng_a_man -->
<g id="node20" class="node">
<title>l2b_eng_a_man</title>
<ellipse fill="none" stroke="black" cx="1252.1" cy="-369" rx="92.08" ry="18"/>
<text text-anchor="middle" x="1252.1" y="-365.3" font-family="Times,serif" font-size="14.00">L2b manifest 1..1</text>
</g>
<!-- trans_eng_a_l2a_l2b&#45;&gt;l2b_eng_a_man -->
<g id="edge23" class="edge">
<title>trans_eng_a_l2a_l2b&#45;&gt;l2b_eng_a_man</title>
<path fill="none" stroke="black" d="M1047.29,-362.63C1047.29,-362.63 1155.57,-362.63 1155.57,-362.63"/>
<polygon fill="black" stroke="black" points="1155.57,-366.13 1165.57,-362.63 1155.57,-359.13 1155.57,-366.13"/>
</g>
<!-- l2b_eng_a_prod -->
<g id="node21" class="node">
<title>l2b_eng_a_prod</title>
<polygon fill="none" stroke="black" points="1323.6,-333 1180.6,-333 1180.6,-297 1323.6,-297 1323.6,-333"/>
<text text-anchor="middle" x="1252.1" y="-311.3" font-family="Times,serif" font-size="14.00">L2b products 1..b</text>
</g>
<!-- trans_eng_a_l2a_l2b&#45;&gt;l2b_eng_a_prod -->
<g id="edge21" class="edge">
<title>trans_eng_a_l2a_l2b&#45;&gt;l2b_eng_a_prod</title>
<path fill="none" stroke="black" stroke-dasharray="5,2" d="M1085.75,-315C1085.75,-315 1170.19,-315 1170.19,-315"/>
<polygon fill="black" stroke="black" points="1170.19,-318.5 1180.19,-315 1170.19,-311.5 1170.19,-318.5"/>
</g>
<!-- l2b_eng_a_log -->
<g id="node22" class="node">
<title>l2b_eng_a_log</title>
<ellipse fill="none" stroke="black" cx="1252.1" cy="-261" rx="96.68" ry="18"/>
<text text-anchor="middle" x="1252.1" y="-257.3" font-family="Times,serif" font-size="14.00">L2b_eng_a log 1..1</text>
</g>
<!-- trans_eng_a_l2a_l2b&#45;&gt;l2b_eng_a_log -->
<g id="edge22" class="edge">
<title>trans_eng_a_l2a_l2b&#45;&gt;l2b_eng_a_log</title>
<path fill="none" stroke="black" stroke-dasharray="5,2" d="M1085.75,-261C1085.75,-261 1145.08,-261 1145.08,-261"/>
<polygon fill="black" stroke="black" points="1145.08,-264.5 1155.08,-261 1145.08,-257.5 1145.08,-264.5"/>
</g>
<!-- l2b_eng_a_src -->
<g id="node24" class="node">
<title>l2b_eng_a_src</title>
<ellipse fill="none" stroke="black" cx="1252.1" cy="-207" rx="126.18" ry="18"/>
<text text-anchor="middle" x="1252.1" y="-203.3" font-family="Times,serif" font-size="14.00">L2b source manifest 1..1</text>
</g>
<!-- trans_eng_a_l2a_l2b&#45;&gt;l2b_eng_a_src -->
<g id="edge25" class="edge">
<title>trans_eng_a_l2a_l2b&#45;&gt;l2b_eng_a_src</title>
<path fill="none" stroke="black" d="M1047.29,-213.37C1047.29,-213.37 1124.09,-213.37 1124.09,-213.37"/>
<polygon fill="black" stroke="black" points="1124.09,-216.87 1134.09,-213.37 1124.09,-209.87 1124.09,-216.87"/>
</g>
<!-- l1_eng_a_prod -->
<g id="node3" class="node">
<title>l1_eng_a_prod</title>
<polygon fill="none" stroke="black" points="247.64,-730 65.64,-730 65.64,-694 247.64,-694 247.64,-730"/>
<text text-anchor="middle" x="156.64" y="-708.3" font-family="Times,serif" font-size="14.00">L1_eng_a products 1..b</text>
</g>
<!-- l1_eng_a_prod&#45;&gt;trans_eng_a_l1_l2a -->
<g id="edge1" class="edge">
<title>l1_eng_a_prod&#45;&gt;trans_eng_a_l1_l2a</title>
<path fill="none" stroke="black" stroke-dasharray="5,2" d="M247.79,-712C329.36,-712 436.19,-712 436.19,-712 436.19,-712 436.19,-672.52 436.19,-672.52"/>
<polygon fill="black" stroke="black" points="439.69,-672.52 436.19,-662.52 432.69,-672.52 439.69,-672.52"/>
</g>
<!-- l1_eng_a_man -->
<g id="node4" class="node">
<title>l1_eng_a_man</title>
<ellipse fill="none" stroke="black" cx="156.64" cy="-658" rx="156.77" ry="18"/>
<text text-anchor="middle" x="156.64" y="-654.3" font-family="Times,serif" font-size="14.00">L1_eng_a product manifest 1..1</text>
</g>
<!-- l1_eng_a_man&#45;&gt;trans_eng_a_l1_l2a -->
<g id="edge2" class="edge">
<title>l1_eng_a_man&#45;&gt;trans_eng_a_l1_l2a</title>
<path fill="none" stroke="black" d="M301.81,-651.13C301.81,-651.13 382.91,-651.13 382.91,-651.13"/>
<polygon fill="black" stroke="black" points="382.91,-654.63 392.91,-651.13 382.91,-647.63 382.91,-654.63"/>
</g>
<!-- eng_a_cpgs -->
<g id="node5" class="node">
<title>eng_a_cpgs</title>
<polygon fill="none" stroke="black" points="212.14,-454 89.14,-454 89.14,-430 212.14,-430 224.14,-442 212.14,-454"/>
<text text-anchor="middle" x="156.64" y="-438.3" font-family="Times,serif" font-size="14.00">eng_a CPGS 1..1</text>
</g>
<!-- eng_a_cpgs&#45;&gt;trans_eng_a_l1_l2a -->
<g id="edge3" class="edge">
<title>eng_a_cpgs&#45;&gt;trans_eng_a_l1_l2a</title>
<path fill="none" stroke="black" d="M224.31,-442C307.04,-442 436.19,-442 436.19,-442 436.19,-442 436.19,-479.62 436.19,-479.62"/>
<polygon fill="black" stroke="black" points="432.69,-479.62 436.19,-489.62 439.69,-479.62 432.69,-479.62"/>
</g>
<!-- eng_a_cpgs&#45;&gt;trans_eng_a_l2a_l2b -->
<g id="edge12" class="edge">
<title>eng_a_cpgs&#45;&gt;trans_eng_a_l2a_l2b</title>
<path fill="none" stroke="black" d="M157.19,-423.69C157.19,-400.85 157.19,-364.76 157.19,-364.76 157.19,-364.76 954.33,-364.76 954.33,-364.76"/>
<polygon fill="black" stroke="black" points="954.33,-368.26 964.33,-364.76 954.33,-361.26 954.33,-368.26"/>
</g>
<!-- l1_eng_a_odir -->
<g id="node6" class="node">
<title>l1_eng_a_odir</title>
<ellipse fill="none" stroke="black" cx="156.64" cy="-604" rx="131.88" ry="18"/>
<text text-anchor="middle" x="156.64" y="-600.3" font-family="Times,serif" font-size="14.00">L1_eng_a output path 1..1</text>
</g>
<!-- l1_eng_a_odir&#45;&gt;trans_eng_a_l1_l2a -->
<g id="edge4" class="edge">
<title>l1_eng_a_odir&#45;&gt;trans_eng_a_l1_l2a</title>
<path fill="none" stroke="black" d="M288.74,-604C288.74,-604 343.56,-604 343.56,-604"/>
<polygon fill="black" stroke="black" points="343.56,-607.5 353.56,-604 343.56,-600.5 343.56,-607.5"/>
</g>
<!-- l1_eng_a_rec -->
<g id="node7" class="node">
<title>l1_eng_a_rec</title>
<polygon fill="none" stroke="black" points="190.64,-562 110.64,-562 110.64,-538 190.64,-538 202.64,-550 190.64,-562"/>
<text text-anchor="middle" x="156.64" y="-546.3" font-family="Times,serif" font-size="14.00">recipe 1..1</text>
</g>
<!-- l1_eng_a_rec&#45;&gt;trans_eng_a_l1_l2a -->
<g id="edge5" class="edge">
<title>l1_eng_a_rec&#45;&gt;trans_eng_a_l1_l2a</title>
<path fill="none" stroke="black" d="M202.69,-550C202.69,-550 343.04,-550 343.04,-550"/>
<polygon fill="black" stroke="black" points="343.04,-553.5 353.04,-550 343.04,-546.5 343.04,-553.5"/>
</g>
<!-- l1_eng_a_nln -->
<g id="node8" class="node">
<title>l1_eng_a_nln</title>
<polygon fill="none" stroke="black" points="245.14,-508 56.14,-508 56.14,-484 245.14,-484 257.14,-496 245.14,-508"/>
<text text-anchor="middle" x="156.64" y="-492.3" font-family="Times,serif" font-size="14.00">non linear calibration 1..1</text>
</g>
<!-- l1_eng_a_nln&#45;&gt;trans_eng_a_l1_l2a -->
<g id="edge6" class="edge">
<title>l1_eng_a_nln&#45;&gt;trans_eng_a_l1_l2a</title>
<path fill="none" stroke="black" d="M257.33,-501.87C257.33,-501.87 381.08,-501.87 381.08,-501.87"/>
<polygon fill="black" stroke="black" points="381.08,-505.37 391.08,-501.87 381.08,-498.37 381.08,-505.37"/>
</g>
<!-- l2a_eng_a_man&#45;&gt;trans_eng_a_l2a_l2b -->
<g id="edge11" class="edge">
<title>l2a_eng_a_man&#45;&gt;trans_eng_a_l2a_l2b</title>
<path fill="none" stroke="black" d="M881.93,-650C958.43,-650 1033.19,-650 1033.19,-650 1033.19,-650 1033.19,-379.24 1033.19,-379.24"/>
<polygon fill="black" stroke="black" points="1036.69,-379.24 1033.19,-369.24 1029.69,-379.24 1036.69,-379.24"/>
</g>
<!-- l2a_eng_a_prod&#45;&gt;trans_eng_a_l2a_l2b -->
<g id="edge10" class="edge">
<title>l2a_eng_a_prod&#45;&gt;trans_eng_a_l2a_l2b</title>
<path fill="none" stroke="black" stroke-dasharray="5,2" d="M790.83,-542C866.44,-542 975.19,-542 975.19,-542 975.19,-542 975.19,-379.42 975.19,-379.42"/>
<polygon fill="black" stroke="black" points="978.69,-379.42 975.19,-369.42 971.69,-379.42 978.69,-379.42"/>
</g>
<!-- l2a_eng_a_odir -->
<g id="node12" class="node">
<title>l2a_eng_a_odir</title>
<ellipse fill="none" stroke="black" cx="719.64" cy="-396" rx="137.28" ry="18"/>
<text text-anchor="middle" x="719.64" y="-392.3" font-family="Times,serif" font-size="14.00">L2a_eng_a output path 1..1</text>
</g>
<!-- l2a_eng_a_odir&#45;&gt;trans_eng_a_l2a_l2b -->
<g id="edge13" class="edge">
<title>l2a_eng_a_odir&#45;&gt;trans_eng_a_l2a_l2b</title>
<path fill="none" stroke="black" d="M852.19,-390.89C852.19,-383.2 852.19,-369.51 852.19,-369.51 852.19,-369.51 965.24,-369.51 965.24,-369.51"/>
<polygon fill="black" stroke="black" points="965.24,-373.01 975.24,-369.51 965.24,-366.01 965.24,-373.01"/>
</g>
<!-- l2a_eng_a_rec -->
<g id="node13" class="node">
<title>l2a_eng_a_rec</title>
<polygon fill="none" stroke="black" points="753.64,-354 673.64,-354 673.64,-330 753.64,-330 765.64,-342 753.64,-354"/>
<text text-anchor="middle" x="719.64" y="-338.3" font-family="Times,serif" font-size="14.00">recipe 1..1</text>
</g>
<!-- l2a_eng_a_rec&#45;&gt;trans_eng_a_l2a_l2b -->
<g id="edge14" class="edge">
<title>l2a_eng_a_rec&#45;&gt;trans_eng_a_l2a_l2b</title>
<path fill="none" stroke="black" d="M765.92,-342C765.92,-342 926.26,-342 926.26,-342"/>
<polygon fill="black" stroke="black" points="926.26,-345.5 936.26,-342 926.26,-338.5 926.26,-345.5"/>
</g>
<!-- l2a_eng_a_mbpm -->
<g id="node14" class="node">
<title>l2a_eng_a_mbpm</title>
<polygon fill="none" stroke="black" points="782.14,-300 645.14,-300 645.14,-276 782.14,-276 794.14,-288 782.14,-300"/>
<text text-anchor="middle" x="719.64" y="-284.3" font-family="Times,serif" font-size="14.00">bad pixel map 1..1</text>
</g>
<!-- l2a_eng_a_mbpm&#45;&gt;trans_eng_a_l2a_l2b -->
<g id="edge15" class="edge">
<title>l2a_eng_a_mbpm&#45;&gt;trans_eng_a_l2a_l2b</title>
<path fill="none" stroke="black" d="M794.29,-288C794.29,-288 907.27,-288 907.27,-288"/>
<polygon fill="black" stroke="black" points="907.27,-291.5 917.27,-288 907.27,-284.5 907.27,-291.5"/>
</g>
<!-- l2a_eng_a_dnb -->
<g id="node15" class="node">
<title>l2a_eng_a_dnb</title>
<polygon fill="none" stroke="black" points="833.64,-246 593.64,-246 593.64,-222 833.64,-222 845.64,-234 833.64,-246"/>
<text text-anchor="middle" x="719.64" y="-230.3" font-family="Times,serif" font-size="14.00">dark (CIC/FPN/dark current) 1..1</text>
</g>
<!-- l2a_eng_a_dnb&#45;&gt;trans_eng_a_l2a_l2b -->
<g id="edge16" class="edge">
<title>l2a_eng_a_dnb&#45;&gt;trans_eng_a_l2a_l2b</title>
<path fill="none" stroke="black" d="M845.91,-234C845.91,-234 926.27,-234 926.27,-234"/>
<polygon fill="black" stroke="black" points="926.27,-237.5 936.27,-234 926.27,-230.5 926.27,-237.5"/>
</g>
<!-- l2a_eng_a_nm -->
<g id="node16" class="node">
<title>l2a_eng_a_nm</title>
<polygon fill="none" stroke="black" points="771.64,-192 655.64,-192 655.64,-168 771.64,-168 783.64,-180 771.64,-192"/>
<text text-anchor="middle" x="719.64" y="-176.3" font-family="Times,serif" font-size="14.00">noise maps 1..1</text>
</g>
<!-- l2a_eng_a_nm&#45;&gt;trans_eng_a_l2a_l2b -->
<g id="edge17" class="edge">
<title>l2a_eng_a_nm&#45;&gt;trans_eng_a_l2a_l2b</title>
<path fill="none" stroke="black" d="M720.19,-198.12C720.19,-203.92 720.19,-208.87 720.19,-208.87 720.19,-208.87 959.26,-208.87 959.26,-208.87"/>
<polygon fill="black" stroke="black" points="959.26,-212.37 969.26,-208.87 959.26,-205.37 959.26,-212.37"/>
</g>
<!-- l2a_eng_a_ff -->
<g id="node17" class="node">
<title>l2a_eng_a_ff</title>
<polygon fill="none" stroke="black" points="761.14,-138 666.14,-138 666.14,-114 761.14,-114 773.14,-126 761.14,-138"/>
<text text-anchor="middle" x="719.64" y="-122.3" font-family="Times,serif" font-size="14.00">flat field 1..1</text>
</g>
<!-- l2a_eng_a_ff&#45;&gt;trans_eng_a_l2a_l2b -->
<g id="edge18" class="edge">
<title>l2a_eng_a_ff&#45;&gt;trans_eng_a_l2a_l2b</title>
<path fill="none" stroke="black" d="M773.25,-126C844.41,-126 961.19,-126 961.19,-126 961.19,-126 961.19,-202.69 961.19,-202.69"/>
<polygon fill="black" stroke="black" points="957.69,-202.69 961.19,-212.69 964.69,-202.69 957.69,-202.69"/>
</g>
<!-- l2a_eng_a_kgain -->
<g id="node18" class="node">
<title>l2a_eng_a_kgain</title>
<polygon fill="none" stroke="black" points="753.64,-84 673.64,-84 673.64,-60 753.64,-60 765.64,-72 753.64,-84"/>
<text text-anchor="middle" x="719.64" y="-68.3" font-family="Times,serif" font-size="14.00">k&#45;gain 1..1</text>
</g>
<!-- l2a_eng_a_kgain&#45;&gt;trans_eng_a_l2a_l2b -->
<g id="edge19" class="edge">
<title>l2a_eng_a_kgain&#45;&gt;trans_eng_a_l2a_l2b</title>
<path fill="none" stroke="black" d="M765.68,-72C846.21,-72 1004.19,-72 1004.19,-72 1004.19,-72 1004.19,-191.7 1004.19,-191.7"/>
<polygon fill="black" stroke="black" points="1000.69,-191.7 1004.19,-201.7 1007.69,-191.7 1000.69,-191.7"/>
</g>
<!-- l2a_eng_a_emg -->
<g id="node19" class="node">
<title>l2a_eng_a_emg</title>
<polygon fill="none" stroke="black" points="761.64,-30 665.64,-30 665.64,-6 761.64,-6 773.64,-18 761.64,-30"/>
<text text-anchor="middle" x="719.64" y="-14.3" font-family="Times,serif" font-size="14.00">EM gain 1..1</text>
</g>
<!-- l2a_eng_a_emg&#45;&gt;trans_eng_a_l2a_l2b -->
<g id="edge20" class="edge">
<title>l2a_eng_a_emg&#45;&gt;trans_eng_a_l2a_l2b</title>
<path fill="none" stroke="black" d="M773.73,-18C866.76,-18 1047.19,-18 1047.19,-18 1047.19,-18 1047.19,-203.15 1047.19,-203.15"/>
<polygon fill="black" stroke="black" points="1043.69,-203.15 1047.19,-213.15 1050.69,-203.15 1043.69,-203.15"/>
</g>
</g>
</svg>
