<?xml version="1.0" encoding="UTF-8" standalone="no"?>
<!DOCTYPE svg PUBLIC "-//W3C//DTD SVG 1.1//EN"
 "http://www.w3.org/Graphics/SVG/1.1/DTD/svg11.dtd">
<!-- Generated by graphviz version 2.43.0 (0)
 -->
<!-- Title: Channel_eng_a_Design Pages: 1 -->
<svg width="1326pt" height="738pt"
 viewBox="0.00 0.00 1326.39 738.00" xmlns="http://www.w3.org/2000/svg" xmlns:xlink="http://www.w3.org/1999/xlink">
<g id="graph0" class="graph" transform="scale(1 1) rotate(0) translate(4 734)">
<title>Channel_eng_a_Design</title>
<polygon fill="white" stroke="transparent" points="-4,4 -4,-734 1322.39,-734 1322.39,4 -4,4"/>
<!-- trans_eng_a_l1_l2a -->
<g id="node1" class="node">
<title>trans_eng_a_l1_l2a</title>
<ellipse fill="none" stroke="black" cx="386.14" cy="-576" rx="86.03" ry="86.03"/>
<text text-anchor="middle" x="386.14" y="-579.8" font-family="Times,serif" font-size="14.00">Transmutation</text>
<text text-anchor="middle" x="386.14" y="-564.8" font-family="Times,serif" font-size="14.00">L1 to L2a</text>
</g>
<!-- l2a_eng_a_man -->
<g id="node9" class="node">
<title>l2a_eng_a_man</title>
<ellipse fill="none" stroke="black" cx="665.05" cy="-650" rx="122.68" ry="18"/>
<text text-anchor="middle" x="665.05" y="-646.3" font-family="Times,serif" font-size="14.00">L2a_eng_a manifest 1..1</text>
</g>
<!-- trans_eng_a_l1_l2a&#45;&gt;l2a_eng_a_man -->
<g id="edge9" class="edge">
<title>trans_eng_a_l1_l2a&#45;&gt;l2a_eng_a_man</title>
<path fill="none" stroke="black" d="M435.04,-647.13C435.04,-647.13 533.56,-647.13 533.56,-647.13"/>
<polygon fill="black" stroke="black" points="533.56,-650.63 543.56,-647.13 533.56,-643.63 533.56,-650.63"/>
</g>
<!-- l2a_eng_a_log -->
<g id="node10" class="node">
<title>l2a_eng_a_log</title>
<ellipse fill="none" stroke="black" cx="665.05" cy="-596" rx="96.68" ry="18"/>
<text text-anchor="middle" x="665.05" y="-592.3" font-family="Times,serif" font-size="14.00">L2a_eng_a log 1..1</text>
</g>
<!-- trans_eng_a_l1_l2a&#45;&gt;l2a_eng_a_log -->
<g id="edge8" class="edge">
<title>trans_eng_a_l1_l2a&#45;&gt;l2a_eng_a_log</title>
<path fill="none" stroke="black" stroke-dasharray="5,2" d="M470.2,-596C470.2,-596 557.94,-596 557.94,-596"/>
<polygon fill="black" stroke="black" points="557.94,-599.5 567.94,-596 557.94,-592.5 557.94,-599.5"/>
</g>
<!-- l2a_eng_a_prod -->
<g id="node11" class="node">
<title>l2a_eng_a_prod</title>
<polygon fill="none" stroke="black" points="736.05,-560 594.05,-560 594.05,-524 736.05,-524 736.05,-560"/>
<text text-anchor="middle" x="665.05" y="-538.3" font-family="Times,serif" font-size="14.00">L2a products 1..b</text>
</g>
<!-- trans_eng_a_l1_l2a&#45;&gt;l2a_eng_a_prod -->
<g id="edge7" class="edge">
<title>trans_eng_a_l1_l2a&#45;&gt;l2a_eng_a_prod</title>
<path fill="none" stroke="black" stroke-dasharray="5,2" d="M465.69,-542C465.69,-542 583.96,-542 583.96,-542"/>
<polygon fill="black" stroke="black" points="583.96,-545.5 593.96,-542 583.96,-538.5 583.96,-545.5"/>
</g>
<!-- l2a_eng_a_src -->
<g id="node23" class="node">
<title>l2a_eng_a_src</title>
<ellipse fill="none" stroke="black" cx="665.05" cy="-488" rx="156.77" ry="18"/>
<text text-anchor="middle" x="665.05" y="-484.3" font-family="Times,serif" font-size="14.00">L2a_eng_a source manifest 1..1</text>
</g>
<!-- trans_eng_a_l1_l2a&#45;&gt;l2a_eng_a_src -->
<g id="edge24" class="edge">
<title>trans_eng_a_l1_l2a&#45;&gt;l2a_eng_a_src</title>
<path fill="none" stroke="black" d="M422.89,-497.87C422.89,-497.87 523.74,-497.87 523.74,-497.87"/>
<polygon fill="black" stroke="black" points="523.74,-501.37 533.74,-497.87 523.74,-494.37 523.74,-501.37"/>
</g>
<!-- trans_eng_a_l2a_l2b -->
<g id="node2" class="node">
<title>trans_eng_a_l2a_l2b</title>
<ellipse fill="none" stroke="black" cx="943.95" cy="-288" rx="86.03" ry="86.03"/>
<text text-anchor="middle" x="943.95" y="-291.8" font-family="Times,serif" font-size="14.00">Transmutation</text>
<text text-anchor="middle" x="943.95" y="-276.8" font-family="Times,serif" font-size="14.00">L2a to L2b</text>
</g>
<!-- l2b_eng_a_man -->
<g id="node20" class="node">
<title>l2b_eng_a_man</title>
<ellipse fill="none" stroke="black" cx="1192.31" cy="-369" rx="92.08" ry="18"/>
<text text-anchor="middle" x="1192.31" y="-365.3" font-family="Times,serif" font-size="14.00">L2b manifest 1..1</text>
</g>
<!-- trans_eng_a_l2a_l2b&#45;&gt;l2b_eng_a_man -->
<g id="edge23" class="edge">
<title>trans_eng_a_l2a_l2b&#45;&gt;l2b_eng_a_man</title>
<path fill="none" stroke="black" d="M987.49,-362.63C987.49,-362.63 1095.78,-362.63 1095.78,-362.63"/>
<polygon fill="black" stroke="black" points="1095.78,-366.13 1105.78,-362.63 1095.78,-359.13 1095.78,-366.13"/>
</g>
<!-- l2b_eng_a_prod -->
<g id="node21" class="node">
<title>l2b_eng_a_prod</title>
<polygon fill="none" stroke="black" points="1263.81,-333 1120.81,-333 1120.81,-297 1263.81,-297 1263.81,-333"/>
<text text-anchor="middle" x="1192.31" y="-311.3" font-family="Times,serif" font-size="14.00">L2b products 1..b</text>
</g>
<!-- trans_eng_a_l2a_l2b&#45;&gt;l2b_eng_a_prod -->
<g id="edge21" class="edge">
<title>trans_eng_a_l2a_l2b&#45;&gt;l2b_eng_a_prod</title>
<path fill="none" stroke="black" stroke-dasharray="5,2" d="M1025.96,-315C1025.96,-315 1110.4,-315 1110.4,-315"/>
<polygon fill="black" stroke="black" points="1110.4,-318.5 1120.4,-315 1110.4,-311.5 1110.4,-318.5"/>
</g>
<!-- l2b_eng_a_log -->
<g id="node22" class="node">
<title>l2b_eng_a_log</title>
<ellipse fill="none" stroke="black" cx="1192.31" cy="-261" rx="96.68" ry="18"/>
<text text-anchor="middle" x="1192.31" y="-257.3" font-family="Times,serif" font-size="14.00">L2b_eng_a log 1..1</text>
</g>
<!-- trans_eng_a_l2a_l2b&#45;&gt;l2b_eng_a_log -->
<g id="edge22" class="edge">
<title>trans_eng_a_l2a_l2b&#45;&gt;l2b_eng_a_log</title>
<path fill="none" stroke="black" stroke-dasharray="5,2" d="M1025.96,-261C1025.96,-261 1085.28,-261 1085.28,-261"/>
<polygon fill="black" stroke="black" points="1085.28,-264.5 1095.28,-261 1085.28,-257.5 1085.28,-264.5"/>
</g>
<!-- l2b_eng_a_src -->
<g id="node24" class="node">
<title>l2b_eng_a_src</title>
<ellipse fill="none" stroke="black" cx="1192.31" cy="-207" rx="126.18" ry="18"/>
<text text-anchor="middle" x="1192.31" y="-203.3" font-family="Times,serif" font-size="14.00">L2b source manifest 1..1</text>
</g>
<!-- trans_eng_a_l2a_l2b&#45;&gt;l2b_eng_a_src -->
<g id="edge25" class="edge">
<title>trans_eng_a_l2a_l2b&#45;&gt;l2b_eng_a_src</title>
<path fill="none" stroke="black" d="M987.49,-213.37C987.49,-213.37 1064.29,-213.37 1064.29,-213.37"/>
<polygon fill="black" stroke="black" points="1064.29,-216.87 1074.29,-213.37 1064.29,-209.87 1064.29,-216.87"/>
</g>
<!-- l1_eng_a_prod -->
<g id="node3" class="node">
<title>l1_eng_a_prod</title>
<polygon fill="none" stroke="black" points="222.94,-730 40.94,-730 40.94,-694 222.94,-694 222.94,-730"/>
<text text-anchor="middle" x="131.94" y="-708.3" font-family="Times,serif" font-size="14.00">L1_eng_a products 1..b</text>
</g>
<!-- l1_eng_a_prod&#45;&gt;trans_eng_a_l1_l2a -->
<g id="edge1" class="edge">
<title>l1_eng_a_prod&#45;&gt;trans_eng_a_l1_l2a</title>
<path fill="none" stroke="black" stroke-dasharray="5,2" d="M223.08,-712C296.1,-712 386.39,-712 386.39,-712 386.39,-712 386.39,-672.52 386.39,-672.52"/>
<polygon fill="black" stroke="black" points="389.89,-672.52 386.39,-662.52 382.89,-672.52 389.89,-672.52"/>
</g>
<!-- l1_eng_a_man -->
<g id="node4" class="node">
<title>l1_eng_a_man</title>
<ellipse fill="none" stroke="black" cx="131.94" cy="-658" rx="117.78" ry="18"/>
<text text-anchor="middle" x="131.94" y="-654.3" font-family="Times,serif" font-size="14.00">L1_eng_a manifest 1..1</text>
</g>
<!-- l1_eng_a_man&#45;&gt;trans_eng_a_l1_l2a -->
<g id="edge2" class="edge">
<title>l1_eng_a_man&#45;&gt;trans_eng_a_l1_l2a</title>
<path fill="none" stroke="black" d="M240.85,-651.13C240.85,-651.13 333.52,-651.13 333.52,-651.13"/>
<polygon fill="black" stroke="black" points="333.52,-654.63 343.52,-651.13 333.52,-647.63 333.52,-654.63"/>
</g>
<!-- eng_a_cpgs -->
<g id="node5" class="node">
<title>eng_a_cpgs</title>
<polygon fill="none" stroke="black" points="187.44,-454 64.44,-454 64.44,-430 187.44,-430 199.44,-442 187.44,-454"/>
<text text-anchor="middle" x="131.94" y="-438.3" font-family="Times,serif" font-size="14.00">eng_a CPGS 1..1</text>
</g>
<!-- eng_a_cpgs&#45;&gt;trans_eng_a_l1_l2a -->
<g id="edge3" class="edge">
<title>eng_a_cpgs&#45;&gt;trans_eng_a_l1_l2a</title>
<path fill="none" stroke="black" d="M199.46,-442C274.84,-442 386.39,-442 386.39,-442 386.39,-442 386.39,-479.62 386.39,-479.62"/>
<polygon fill="black" stroke="black" points="382.89,-479.62 386.39,-489.62 389.89,-479.62 382.89,-479.62"/>
</g>
<!-- eng_a_cpgs&#45;&gt;trans_eng_a_l2a_l2b -->
<g id="edge12" class="edge">
<title>eng_a_cpgs&#45;&gt;trans_eng_a_l2a_l2b</title>
<path fill="none" stroke="black" d="M132.39,-423.69C132.39,-400.85 132.39,-364.76 132.39,-364.76 132.39,-364.76 894.53,-364.76 894.53,-364.76"/>
<polygon fill="black" stroke="black" points="894.53,-368.26 904.53,-364.76 894.53,-361.26 894.53,-368.26"/>
</g>
<!-- l1_eng_a_odir -->
<g id="node6" class="node">
<title>l1_eng_a_odir</title>
<ellipse fill="none" stroke="black" cx="131.94" cy="-604" rx="131.88" ry="18"/>
<text text-anchor="middle" x="131.94" y="-600.3" font-family="Times,serif" font-size="14.00">L1_eng_a output path 1..1</text>
</g>
<!-- l1_eng_a_odir&#45;&gt;trans_eng_a_l1_l2a -->
<g id="edge4" class="edge">
<title>l1_eng_a_odir&#45;&gt;trans_eng_a_l1_l2a</title>
<path fill="none" stroke="black" d="M263.88,-604C263.88,-604 294.35,-604 294.35,-604"/>
<polygon fill="black" stroke="black" points="294.35,-607.5 304.35,-604 294.35,-600.5 294.35,-607.5"/>
</g>
<!-- l1_eng_a_rec -->
<g id="node7" class="node">
<title>l1_eng_a_rec</title>
<polygon fill="none" stroke="black" points="165.94,-562 85.94,-562 85.94,-538 165.94,-538 177.94,-550 165.94,-562"/>
<text text-anchor="middle" x="131.94" y="-546.3" font-family="Times,serif" font-size="14.00">recipe 1..1</text>
</g>
<!-- l1_eng_a_rec&#45;&gt;trans_eng_a_l1_l2a -->
<g id="edge5" class="edge">
<title>l1_eng_a_rec&#45;&gt;trans_eng_a_l1_l2a</title>
<path fill="none" stroke="black" d="M177.97,-550C177.97,-550 293.7,-550 293.7,-550"/>
<polygon fill="black" stroke="black" points="293.7,-553.5 303.7,-550 293.7,-546.5 293.7,-553.5"/>
</g>
<!-- l1_eng_a_nln -->
<g id="node8" class="node">
<title>l1_eng_a_nln</title>
<polygon fill="none" stroke="black" points="220.44,-508 31.44,-508 31.44,-484 220.44,-484 232.44,-496 220.44,-508"/>
<text text-anchor="middle" x="131.94" y="-492.3" font-family="Times,serif" font-size="14.00">non linear calibration 1..1</text>
</g>
<!-- l1_eng_a_nln&#45;&gt;trans_eng_a_l1_l2a -->
<g id="edge6" class="edge">
<title>l1_eng_a_nln&#45;&gt;trans_eng_a_l1_l2a</title>
<path fill="none" stroke="black" d="M232.77,-501.87C232.77,-501.87 331.82,-501.87 331.82,-501.87"/>
<polygon fill="black" stroke="black" points="331.82,-505.37 341.82,-501.87 331.82,-498.37 331.82,-505.37"/>
</g>
<!-- l2a_eng_a_man&#45;&gt;trans_eng_a_l2a_l2b -->
<g id="edge11" class="edge">
<title>l2a_eng_a_man&#45;&gt;trans_eng_a_l2a_l2b</title>
<path fill="none" stroke="black" d="M788.24,-650C874.13,-650 973.39,-650 973.39,-650 973.39,-650 973.39,-379.24 973.39,-379.24"/>
<polygon fill="black" stroke="black" points="976.89,-379.24 973.39,-369.24 969.89,-379.24 976.89,-379.24"/>
</g>
<!-- l2a_eng_a_prod&#45;&gt;trans_eng_a_l2a_l2b -->
<g id="edge10" class="edge">
<title>l2a_eng_a_prod&#45;&gt;trans_eng_a_l2a_l2b</title>
<path fill="none" stroke="black" stroke-dasharray="5,2" d="M736.12,-542C810.13,-542 915.39,-542 915.39,-542 915.39,-542 915.39,-379.42 915.39,-379.42"/>
<polygon fill="black" stroke="black" points="918.89,-379.42 915.39,-369.42 911.89,-379.42 918.89,-379.42"/>
</g>
<!-- l2a_eng_a_odir -->
<g id="node12" class="node">
<title>l2a_eng_a_odir</title>
<ellipse fill="none" stroke="black" cx="665.05" cy="-396" rx="137.28" ry="18"/>
<text text-anchor="middle" x="665.05" y="-392.3" font-family="Times,serif" font-size="14.00">L2a_eng_a output path 1..1</text>
</g>
<!-- l2a_eng_a_odir&#45;&gt;trans_eng_a_l2a_l2b -->
<g id="edge13" class="edge">
<title>l2a_eng_a_odir&#45;&gt;trans_eng_a_l2a_l2b</title>
<path fill="none" stroke="black" d="M797.39,-390.89C797.39,-383.2 797.39,-369.51 797.39,-369.51 797.39,-369.51 905.69,-369.51 905.69,-369.51"/>
<polygon fill="black" stroke="black" points="905.69,-373.01 915.69,-369.51 905.69,-366.01 905.69,-373.01"/>
</g>
<!-- l2a_eng_a_rec -->
<g id="node13" class="node">
<title>l2a_eng_a_rec</title>
<polygon fill="none" stroke="black" points="699.05,-354 619.05,-354 619.05,-330 699.05,-330 711.05,-342 699.05,-354"/>
<text text-anchor="middle" x="665.05" y="-338.3" font-family="Times,serif" font-size="14.00">recipe 1..1</text>
</g>
<!-- l2a_eng_a_rec&#45;&gt;trans_eng_a_l2a_l2b -->
<g id="edge14" class="edge">
<title>l2a_eng_a_rec&#45;&gt;trans_eng_a_l2a_l2b</title>
<path fill="none" stroke="black" d="M711.1,-342C711.1,-342 866.42,-342 866.42,-342"/>
<polygon fill="black" stroke="black" points="866.42,-345.5 876.42,-342 866.42,-338.5 866.42,-345.5"/>
</g>
<!-- l2a_eng_a_mbpm -->
<g id="node14" class="node">
<title>l2a_eng_a_mbpm</title>
<polygon fill="none" stroke="black" points="727.55,-300 590.55,-300 590.55,-276 727.55,-276 739.55,-288 727.55,-300"/>
<text text-anchor="middle" x="665.05" y="-284.3" font-family="Times,serif" font-size="14.00">bad pixel map 1..1</text>
</g>
<!-- l2a_eng_a_mbpm&#45;&gt;trans_eng_a_l2a_l2b -->
<g id="edge15" class="edge">
<title>l2a_eng_a_mbpm&#45;&gt;trans_eng_a_l2a_l2b</title>
<path fill="none" stroke="black" d="M739.79,-288C739.79,-288 847.64,-288 847.64,-288"/>
<polygon fill="black" stroke="black" points="847.64,-291.5 857.64,-288 847.64,-284.5 847.64,-291.5"/>
</g>
<!-- l2a_eng_a_dnb -->
<g id="node15" class="node">
<title>l2a_eng_a_dnb</title>
<polygon fill="none" stroke="black" points="779.05,-246 539.05,-246 539.05,-222 779.05,-222 791.05,-234 779.05,-246"/>
<text text-anchor="middle" x="665.05" y="-230.3" font-family="Times,serif" font-size="14.00">dark (CIC/FPN/dark current) 1..1</text>
</g>
<!-- l2a_eng_a_dnb&#45;&gt;trans_eng_a_l2a_l2b -->
<g id="edge16" class="edge">
<title>l2a_eng_a_dnb&#45;&gt;trans_eng_a_l2a_l2b</title>
<path fill="none" stroke="black" d="M791.44,-234C791.44,-234 866.32,-234 866.32,-234"/>
<polygon fill="black" stroke="black" points="866.32,-237.5 876.32,-234 866.32,-230.5 866.32,-237.5"/>
</g>
<!-- l2a_eng_a_nm -->
<g id="node16" class="node">
<title>l2a_eng_a_nm</title>
<polygon fill="none" stroke="black" points="717.05,-192 601.05,-192 601.05,-168 717.05,-168 729.05,-180 717.05,-192"/>
<text text-anchor="middle" x="665.05" y="-176.3" font-family="Times,serif" font-size="14.00">noise maps 1..1</text>
</g>
<!-- l2a_eng_a_nm&#45;&gt;trans_eng_a_l2a_l2b -->
<g id="edge17" class="edge">
<title>l2a_eng_a_nm&#45;&gt;trans_eng_a_l2a_l2b</title>
<path fill="none" stroke="black" d="M665.39,-198.12C665.39,-203.92 665.39,-208.87 665.39,-208.87 665.39,-208.87 899.51,-208.87 899.51,-208.87"/>
<polygon fill="black" stroke="black" points="899.51,-212.37 909.51,-208.87 899.51,-205.37 899.51,-212.37"/>
</g>
<!-- l2a_eng_a_ff -->
<g id="node17" class="node">
<title>l2a_eng_a_ff</title>
<polygon fill="none" stroke="black" points="706.55,-138 611.55,-138 611.55,-114 706.55,-114 718.55,-126 706.55,-138"/>
<text text-anchor="middle" x="665.05" y="-122.3" font-family="Times,serif" font-size="14.00">flat field 1..1</text>
</g>
<!-- l2a_eng_a_ff&#45;&gt;trans_eng_a_l2a_l2b -->
<g id="edge18" class="edge">
<title>l2a_eng_a_ff&#45;&gt;trans_eng_a_l2a_l2b</title>
<path fill="none" stroke="black" d="M718.68,-126C788.41,-126 901.39,-126 901.39,-126 901.39,-126 901.39,-202.69 901.39,-202.69"/>
<polygon fill="black" stroke="black" points="897.89,-202.69 901.39,-212.69 904.89,-202.69 897.89,-202.69"/>
</g>
<!-- l2a_eng_a_kgain -->
<g id="node18" class="node">
<title>l2a_eng_a_kgain</title>
<polygon fill="none" stroke="black" points="699.05,-84 619.05,-84 619.05,-60 699.05,-60 711.05,-72 699.05,-84"/>
<text text-anchor="middle" x="665.05" y="-68.3" font-family="Times,serif" font-size="14.00">k&#45;gain 1..1</text>
</g>
<!-- l2a_eng_a_kgain&#45;&gt;trans_eng_a_l2a_l2b -->
<g id="edge19" class="edge">
<title>l2a_eng_a_kgain&#45;&gt;trans_eng_a_l2a_l2b</title>
<path fill="none" stroke="black" d="M711.18,-72C790.52,-72 944.39,-72 944.39,-72 944.39,-72 944.39,-191.7 944.39,-191.7"/>
<polygon fill="black" stroke="black" points="940.89,-191.7 944.39,-201.7 947.89,-191.7 940.89,-191.7"/>
</g>
<!-- l2a_eng_a_emg -->
<g id="node19" class="node">
<title>l2a_eng_a_emg</title>
<polygon fill="none" stroke="black" points="707.05,-30 611.05,-30 611.05,-6 707.05,-6 719.05,-18 707.05,-30"/>
<text text-anchor="middle" x="665.05" y="-14.3" font-family="Times,serif" font-size="14.00">EM gain 1..1</text>
</g>
<!-- l2a_eng_a_emg&#45;&gt;trans_eng_a_l2a_l2b -->
<g id="edge20" class="edge">
<title>l2a_eng_a_emg&#45;&gt;trans_eng_a_l2a_l2b</title>
<path fill="none" stroke="black" d="M719.36,-18C811.23,-18 987.39,-18 987.39,-18 987.39,-18 987.39,-203.15 987.39,-203.15"/>
<polygon fill="black" stroke="black" points="983.89,-203.15 987.39,-213.15 990.89,-203.15 983.89,-203.15"/>
</g>
</g>
</svg>
