<?xml version="1.0" encoding="UTF-8" standalone="no"?>
<!DOCTYPE svg PUBLIC "-//W3C//DTD SVG 1.1//EN"
 "http://www.w3.org/Graphics/SVG/1.1/DTD/svg11.dtd">
<!-- Generated by graphviz version 2.43.0 (0)
 -->
<!-- Title: Channel_eng_a_Design Pages: 1 -->
<svg width="1127pt" height="738pt"
 viewBox="0.00 0.00 1126.77 738.00" xmlns="http://www.w3.org/2000/svg" xmlns:xlink="http://www.w3.org/1999/xlink">
<g id="graph0" class="graph" transform="scale(1 1) rotate(0) translate(4 734)">
<title>Channel_eng_a_Design</title>
<polygon fill="white" stroke="transparent" points="-4,4 -4,-734 1122.77,-734 1122.77,4 -4,4"/>
<!-- trans_eng_a_l1_l2a -->
<g id="node1" class="node">
<title>trans_eng_a_l1_l2a</title>
<ellipse fill="none" stroke="black" cx="352.16" cy="-573" rx="67.76" ry="67.76"/>
<text text-anchor="middle" x="352.16" y="-576.8" font-family="Times,serif" font-size="14.00">Transmutation</text>
<text text-anchor="middle" x="352.16" y="-561.8" font-family="Times,serif" font-size="14.00">L1 to L2a</text>
</g>
<!-- l2a_eng_a_man -->
<g id="node9" class="node">
<title>l2a_eng_a_man</title>
<ellipse fill="none" stroke="black" cx="584.08" cy="-650" rx="128.08" ry="18"/>
<text text-anchor="middle" x="584.08" y="-646.3" font-family="Times,serif" font-size="14.00">L2a_eng_a product manifest 1..1</text>
</g>
<!-- trans_eng_a_l1_l2a&#45;&gt;l2a_eng_a_man -->
<g id="edge9" class="edge">
<title>trans_eng_a_l1_l2a&#45;&gt;l2a_eng_a_man</title>
<path fill="none" stroke="black" d="M376.54,-636.44C376.54,-636.44 489.77,-636.44 489.77,-636.44"/>
<polygon fill="black" stroke="black" points="489.77,-639.94 499.77,-636.44 489.77,-632.94 489.77,-639.94"/>
</g>
<!-- l2a_eng_a_log -->
<g id="node10" class="node">
<title>l2a_eng_a_log</title>
<ellipse fill="none" stroke="black" cx="584.08" cy="-596" rx="79.09" ry="18"/>
<text text-anchor="middle" x="584.08" y="-592.3" font-family="Times,serif" font-size="14.00">L2a_eng_a log 1..1</text>
</g>
<!-- trans_eng_a_l1_l2a&#45;&gt;l2a_eng_a_log -->
<g id="edge8" class="edge">
<title>trans_eng_a_l1_l2a&#45;&gt;l2a_eng_a_log</title>
<path fill="none" stroke="black" stroke-dasharray="5,2" d="M416.15,-596C416.15,-596 494.58,-596 494.58,-596"/>
<polygon fill="black" stroke="black" points="494.58,-599.5 504.58,-596 494.58,-592.5 494.58,-599.5"/>
</g>
<!-- l2a_eng_a_prod -->
<g id="node11" class="node">
<title>l2a_eng_a_prod</title>
<polygon fill="none" stroke="black" points="640.58,-560 527.58,-560 527.58,-524 640.58,-524 640.58,-560"/>
<text text-anchor="middle" x="584.08" y="-538.3" font-family="Times,serif" font-size="14.00">L2a products 1..b</text>
</g>
<!-- trans_eng_a_l1_l2a&#45;&gt;l2a_eng_a_prod -->
<g id="edge7" class="edge">
<title>trans_eng_a_l1_l2a&#45;&gt;l2a_eng_a_prod</title>
<path fill="none" stroke="black" stroke-dasharray="5,2" d="M412.79,-542C412.79,-542 517.39,-542 517.39,-542"/>
<polygon fill="black" stroke="black" points="517.39,-545.5 527.39,-542 517.39,-538.5 517.39,-545.5"/>
</g>
<!-- l2a_eng_a_src -->
<g id="node23" class="node">
<title>l2a_eng_a_src</title>
<ellipse fill="none" stroke="black" cx="584.08" cy="-488" rx="124.28" ry="18"/>
<text text-anchor="middle" x="584.08" y="-484.3" font-family="Times,serif" font-size="14.00">L2a_eng_a source manifest 1..1</text>
</g>
<!-- trans_eng_a_l1_l2a&#45;&gt;l2a_eng_a_src -->
<g id="edge24" class="edge">
<title>trans_eng_a_l1_l2a&#45;&gt;l2a_eng_a_src</title>
<path fill="none" stroke="black" d="M387.5,-515C426.18,-515 482.77,-515 482.77,-515 482.77,-515 482.77,-508.67 482.77,-508.67"/>
<polygon fill="black" stroke="black" points="486.27,-508.67 482.77,-498.67 479.27,-508.67 486.27,-508.67"/>
</g>
<!-- trans_eng_a_l2a_l2b -->
<g id="node2" class="node">
<title>trans_eng_a_l2a_l2b</title>
<ellipse fill="none" stroke="black" cx="816" cy="-288" rx="67.76" ry="67.76"/>
<text text-anchor="middle" x="816" y="-291.8" font-family="Times,serif" font-size="14.00">Transmutation</text>
<text text-anchor="middle" x="816" y="-276.8" font-family="Times,serif" font-size="14.00">L2a to L2b</text>
</g>
<!-- l2b_eng_a_man -->
<g id="node20" class="node">
<title>l2b_eng_a_man</title>
<ellipse fill="none" stroke="black" cx="1019.33" cy="-369" rx="74.19" ry="18"/>
<text text-anchor="middle" x="1019.33" y="-365.3" font-family="Times,serif" font-size="14.00">L2b manifest 1..1</text>
</g>
<!-- trans_eng_a_l2a_l2b&#45;&gt;l2b_eng_a_man -->
<g id="edge23" class="edge">
<title>trans_eng_a_l2a_l2b&#45;&gt;l2b_eng_a_man</title>
<path fill="none" stroke="black" d="M857.26,-342C898.16,-342 954.77,-342 954.77,-342 954.77,-342 954.77,-350.16 954.77,-350.16"/>
<polygon fill="black" stroke="black" points="951.27,-350.16 954.77,-360.16 958.27,-350.16 951.27,-350.16"/>
</g>
<!-- l2b_eng_a_prod -->
<g id="node21" class="node">
<title>l2b_eng_a_prod</title>
<polygon fill="none" stroke="black" points="1075.83,-333 962.83,-333 962.83,-297 1075.83,-297 1075.83,-333"/>
<text text-anchor="middle" x="1019.33" y="-311.3" font-family="Times,serif" font-size="14.00">L2b products 1..b</text>
</g>
<!-- trans_eng_a_l2a_l2b&#45;&gt;l2b_eng_a_prod -->
<g id="edge21" class="edge">
<title>trans_eng_a_l2a_l2b&#45;&gt;l2b_eng_a_prod</title>
<path fill="none" stroke="black" stroke-dasharray="5,2" d="M878.39,-315C878.39,-315 952.59,-315 952.59,-315"/>
<polygon fill="black" stroke="black" points="952.59,-318.5 962.59,-315 952.59,-311.5 952.59,-318.5"/>
</g>
<!-- l2b_eng_a_log -->
<g id="node22" class="node">
<title>l2b_eng_a_log</title>
<ellipse fill="none" stroke="black" cx="1019.33" cy="-261" rx="79.89" ry="18"/>
<text text-anchor="middle" x="1019.33" y="-257.3" font-family="Times,serif" font-size="14.00">L2b_eng_a log 1..1</text>
</g>
<!-- trans_eng_a_l2a_l2b&#45;&gt;l2b_eng_a_log -->
<g id="edge22" class="edge">
<title>trans_eng_a_l2a_l2b&#45;&gt;l2b_eng_a_log</title>
<path fill="none" stroke="black" stroke-dasharray="5,2" d="M878.39,-261C878.39,-261 929.04,-261 929.04,-261"/>
<polygon fill="black" stroke="black" points="929.04,-264.5 939.04,-261 929.04,-257.5 929.04,-264.5"/>
</g>
<!-- l2b_eng_a_src -->
<g id="node24" class="node">
<title>l2b_eng_a_src</title>
<ellipse fill="none" stroke="black" cx="1019.33" cy="-207" rx="99.38" ry="18"/>
<text text-anchor="middle" x="1019.33" y="-203.3" font-family="Times,serif" font-size="14.00">L2b source manifest 1..1</text>
</g>
<!-- trans_eng_a_l2a_l2b&#45;&gt;l2b_eng_a_src -->
<g id="edge25" class="edge">
<title>trans_eng_a_l2a_l2b&#45;&gt;l2b_eng_a_src</title>
<path fill="none" stroke="black" d="M857.4,-234C889.92,-234 929.77,-234 929.77,-234 929.77,-234 929.77,-224.95 929.77,-224.95"/>
<polygon fill="black" stroke="black" points="933.27,-224.95 929.77,-214.95 926.27,-224.95 933.27,-224.95"/>
</g>
<!-- l1_eng_a_prod -->
<g id="node3" class="node">
<title>l1_eng_a_prod</title>
<polygon fill="none" stroke="black" points="197.14,-730 51.14,-730 51.14,-694 197.14,-694 197.14,-730"/>
<text text-anchor="middle" x="124.14" y="-708.3" font-family="Times,serif" font-size="14.00">L1_eng_a products 1..b</text>
</g>
<!-- l1_eng_a_prod&#45;&gt;trans_eng_a_l1_l2a -->
<g id="edge1" class="edge">
<title>l1_eng_a_prod&#45;&gt;trans_eng_a_l1_l2a</title>
<path fill="none" stroke="black" stroke-dasharray="5,2" d="M197.42,-712C264.29,-712 352.77,-712 352.77,-712 352.77,-712 352.77,-651.28 352.77,-651.28"/>
<polygon fill="black" stroke="black" points="356.27,-651.28 352.77,-641.28 349.27,-651.28 356.27,-651.28"/>
</g>
<!-- l1_eng_a_man -->
<g id="node4" class="node">
<title>l1_eng_a_man</title>
<ellipse fill="none" stroke="black" cx="124.14" cy="-658" rx="124.28" ry="18"/>
<text text-anchor="middle" x="124.14" y="-654.3" font-family="Times,serif" font-size="14.00">L1_eng_a product manifest 1..1</text>
</g>
<!-- l1_eng_a_man&#45;&gt;trans_eng_a_l1_l2a -->
<g id="edge2" class="edge">
<title>l1_eng_a_man&#45;&gt;trans_eng_a_l1_l2a</title>
<path fill="none" stroke="black" d="M238.77,-650.91C238.77,-642.91 238.77,-631 238.77,-631 238.77,-631 306.59,-631 306.59,-631"/>
<polygon fill="black" stroke="black" points="306.59,-634.5 316.59,-631 306.59,-627.5 306.59,-634.5"/>
</g>
<!-- eng_a_cpgs -->
<g id="node5" class="node">
<title>eng_a_cpgs</title>
<polygon fill="none" stroke="black" points="167.64,-454 68.64,-454 68.64,-430 167.64,-430 179.64,-442 167.64,-454"/>
<text text-anchor="middle" x="124.14" y="-438.3" font-family="Times,serif" font-size="14.00">eng_a CPGS 1..1</text>
</g>
<!-- eng_a_cpgs&#45;&gt;trans_eng_a_l1_l2a -->
<g id="edge3" class="edge">
<title>eng_a_cpgs&#45;&gt;trans_eng_a_l1_l2a</title>
<path fill="none" stroke="black" d="M179.78,-448C247.45,-448 352.77,-448 352.77,-448 352.77,-448 352.77,-495.01 352.77,-495.01"/>
<polygon fill="black" stroke="black" points="349.27,-495.01 352.77,-505.01 356.27,-495.01 349.27,-495.01"/>
</g>
<!-- eng_a_cpgs&#45;&gt;trans_eng_a_l2a_l2b -->
<g id="edge12" class="edge">
<title>eng_a_cpgs&#45;&gt;trans_eng_a_l2a_l2b</title>
<path fill="none" stroke="black" d="M179.73,-436C338.51,-436 782.77,-436 782.77,-436 782.77,-436 782.77,-357.34 782.77,-357.34"/>
<polygon fill="black" stroke="black" points="786.27,-357.34 782.77,-347.34 779.27,-357.34 786.27,-357.34"/>
</g>
<!-- l1_eng_a_odir -->
<g id="node6" class="node">
<title>l1_eng_a_odir</title>
<ellipse fill="none" stroke="black" cx="124.14" cy="-604" rx="104.78" ry="18"/>
<text text-anchor="middle" x="124.14" y="-600.3" font-family="Times,serif" font-size="14.00">L1_eng_a output path 1..1</text>
</g>
<!-- l1_eng_a_odir&#45;&gt;trans_eng_a_l1_l2a -->
<g id="edge4" class="edge">
<title>l1_eng_a_odir&#45;&gt;trans_eng_a_l1_l2a</title>
<path fill="none" stroke="black" d="M228.81,-604C228.81,-604 281.67,-604 281.67,-604"/>
<polygon fill="black" stroke="black" points="281.67,-607.5 291.67,-604 281.67,-600.5 281.67,-607.5"/>
</g>
<!-- l1_eng_a_rec -->
<g id="node7" class="node">
<title>l1_eng_a_rec</title>
<polygon fill="none" stroke="black" points="149.14,-562 87.14,-562 87.14,-538 149.14,-538 161.14,-550 149.14,-562"/>
<text text-anchor="middle" x="124.14" y="-546.3" font-family="Times,serif" font-size="14.00">recipe 1..1</text>
</g>
<!-- l1_eng_a_rec&#45;&gt;trans_eng_a_l1_l2a -->
<g id="edge5" class="edge">
<title>l1_eng_a_rec&#45;&gt;trans_eng_a_l1_l2a</title>
<path fill="none" stroke="black" d="M161.28,-550C161.28,-550 278.28,-550 278.28,-550"/>
<polygon fill="black" stroke="black" points="278.28,-553.5 288.28,-550 278.28,-546.5 278.28,-553.5"/>
</g>
<!-- l1_eng_a_nln -->
<g id="node8" class="node">
<title>l1_eng_a_nln</title>
<polygon fill="none" stroke="black" points="191.14,-508 45.14,-508 45.14,-484 191.14,-484 203.14,-496 191.14,-508"/>
<text text-anchor="middle" x="124.14" y="-492.3" font-family="Times,serif" font-size="14.00">non linear calibration 1..1</text>
</g>
<!-- l1_eng_a_nln&#45;&gt;trans_eng_a_l1_l2a -->
<g id="edge6" class="edge">
<title>l1_eng_a_nln&#45;&gt;trans_eng_a_l1_l2a</title>
<path fill="none" stroke="black" d="M203.25,-509.56C203.25,-509.56 317.84,-509.56 317.84,-509.56"/>
<polygon fill="black" stroke="black" points="317.84,-513.06 327.84,-509.56 317.84,-506.06 317.84,-513.06"/>
</g>
<!-- l2a_eng_a_man&#45;&gt;trans_eng_a_l2a_l2b -->
<g id="edge11" class="edge">
<title>l2a_eng_a_man&#45;&gt;trans_eng_a_l2a_l2b</title>
<path fill="none" stroke="black" d="M712.35,-650C780.67,-650 850.77,-650 850.77,-650 850.77,-650 850.77,-356.56 850.77,-356.56"/>
<polygon fill="black" stroke="black" points="854.27,-356.56 850.77,-346.56 847.27,-356.56 854.27,-356.56"/>
</g>
<!-- l2a_eng_a_prod&#45;&gt;trans_eng_a_l2a_l2b -->
<g id="edge10" class="edge">
<title>l2a_eng_a_prod&#45;&gt;trans_eng_a_l2a_l2b</title>
<path fill="none" stroke="black" stroke-dasharray="5,2" d="M640.7,-542C709.58,-542 816.77,-542 816.77,-542 816.77,-542 816.77,-366.07 816.77,-366.07"/>
<polygon fill="black" stroke="black" points="820.27,-366.07 816.77,-356.07 813.27,-366.07 820.27,-366.07"/>
</g>
<!-- l2a_eng_a_odir -->
<g id="node12" class="node">
<title>l2a_eng_a_odir</title>
<ellipse fill="none" stroke="black" cx="584.08" cy="-396" rx="108.58" ry="18"/>
<text text-anchor="middle" x="584.08" y="-392.3" font-family="Times,serif" font-size="14.00">L2a_eng_a output path 1..1</text>
</g>
<!-- l2a_eng_a_odir&#45;&gt;trans_eng_a_l2a_l2b -->
<g id="edge13" class="edge">
<title>l2a_eng_a_odir&#45;&gt;trans_eng_a_l2a_l2b</title>
<path fill="none" stroke="black" d="M688.77,-390.95C688.77,-378.11 688.77,-345.25 688.77,-345.25 688.77,-345.25 769.2,-345.25 769.2,-345.25"/>
<polygon fill="black" stroke="black" points="769.2,-348.75 779.2,-345.25 769.2,-341.75 769.2,-348.75"/>
</g>
<!-- l2a_eng_a_rec -->
<g id="node13" class="node">
<title>l2a_eng_a_rec</title>
<polygon fill="none" stroke="black" points="609.08,-354 547.08,-354 547.08,-330 609.08,-330 621.08,-342 609.08,-354"/>
<text text-anchor="middle" x="584.08" y="-338.3" font-family="Times,serif" font-size="14.00">recipe 1..1</text>
</g>
<!-- l2a_eng_a_rec&#45;&gt;trans_eng_a_l2a_l2b -->
<g id="edge14" class="edge">
<title>l2a_eng_a_rec&#45;&gt;trans_eng_a_l2a_l2b</title>
<path fill="none" stroke="black" d="M621.09,-334.63C621.09,-334.63 756.59,-334.63 756.59,-334.63"/>
<polygon fill="black" stroke="black" points="756.59,-338.13 766.59,-334.63 756.59,-331.13 756.59,-338.13"/>
</g>
<!-- l2a_eng_a_mbpm -->
<g id="node14" class="node">
<title>l2a_eng_a_mbpm</title>
<polygon fill="none" stroke="black" points="631.58,-300 524.58,-300 524.58,-276 631.58,-276 643.58,-288 631.58,-300"/>
<text text-anchor="middle" x="584.08" y="-284.3" font-family="Times,serif" font-size="14.00">bad pixel map 1..1</text>
</g>
<!-- l2a_eng_a_mbpm&#45;&gt;trans_eng_a_l2a_l2b -->
<g id="edge15" class="edge">
<title>l2a_eng_a_mbpm&#45;&gt;trans_eng_a_l2a_l2b</title>
<path fill="none" stroke="black" d="M643.81,-288C643.81,-288 737.87,-288 737.87,-288"/>
<polygon fill="black" stroke="black" points="737.87,-291.5 747.87,-288 737.87,-284.5 737.87,-291.5"/>
</g>
<!-- l2a_eng_a_dnb -->
<g id="node15" class="node">
<title>l2a_eng_a_dnb</title>
<polygon fill="none" stroke="black" points="671.58,-246 484.58,-246 484.58,-222 671.58,-222 683.58,-234 671.58,-246"/>
<text text-anchor="middle" x="584.08" y="-230.3" font-family="Times,serif" font-size="14.00">dark (CIC/FPN/dark current) 1..1</text>
</g>
<!-- l2a_eng_a_dnb&#45;&gt;trans_eng_a_l2a_l2b -->
<g id="edge16" class="edge">
<title>l2a_eng_a_dnb&#45;&gt;trans_eng_a_l2a_l2b</title>
<path fill="none" stroke="black" d="M683.78,-236.06C683.78,-236.06 762.28,-236.06 762.28,-236.06"/>
<polygon fill="black" stroke="black" points="762.28,-239.56 772.28,-236.06 762.28,-232.56 762.28,-239.56"/>
</g>
<!-- l2a_eng_a_nm -->
<g id="node16" class="node">
<title>l2a_eng_a_nm</title>
<polygon fill="none" stroke="black" points="623.58,-192 532.58,-192 532.58,-168 623.58,-168 635.58,-180 623.58,-192"/>
<text text-anchor="middle" x="584.08" y="-176.3" font-family="Times,serif" font-size="14.00">noise maps 1..1</text>
</g>
<!-- l2a_eng_a_nm&#45;&gt;trans_eng_a_l2a_l2b -->
<g id="edge17" class="edge">
<title>l2a_eng_a_nm&#45;&gt;trans_eng_a_l2a_l2b</title>
<path fill="none" stroke="black" d="M635.7,-193.5C692.48,-193.5 775.77,-193.5 775.77,-193.5 775.77,-193.5 775.77,-223.3 775.77,-223.3"/>
<polygon fill="black" stroke="black" points="772.27,-223.3 775.77,-233.3 779.27,-223.3 772.27,-223.3"/>
</g>
<!-- l2a_eng_a_ff -->
<g id="node17" class="node">
<title>l2a_eng_a_ff</title>
<polygon fill="none" stroke="black" points="616.08,-138 540.08,-138 540.08,-114 616.08,-114 628.08,-126 616.08,-138"/>
<text text-anchor="middle" x="584.08" y="-122.3" font-family="Times,serif" font-size="14.00">flat field 1..1</text>
</g>
<!-- l2a_eng_a_ff&#45;&gt;trans_eng_a_l2a_l2b -->
<g id="edge18" class="edge">
<title>l2a_eng_a_ff&#45;&gt;trans_eng_a_l2a_l2b</title>
<path fill="none" stroke="black" d="M628.34,-126C692.24,-126 802.77,-126 802.77,-126 802.77,-126 802.77,-211.17 802.77,-211.17"/>
<polygon fill="black" stroke="black" points="799.27,-211.17 802.77,-221.17 806.27,-211.17 799.27,-211.17"/>
</g>
<!-- l2a_eng_a_kgain -->
<g id="node18" class="node">
<title>l2a_eng_a_kgain</title>
<polygon fill="none" stroke="black" points="610.08,-84 546.08,-84 546.08,-60 610.08,-60 622.08,-72 610.08,-84"/>
<text text-anchor="middle" x="584.08" y="-68.3" font-family="Times,serif" font-size="14.00">k&#45;gain 1..1</text>
</g>
<!-- l2a_eng_a_kgain&#45;&gt;trans_eng_a_l2a_l2b -->
<g id="edge19" class="edge">
<title>l2a_eng_a_kgain&#45;&gt;trans_eng_a_l2a_l2b</title>
<path fill="none" stroke="black" d="M622.2,-72C691.21,-72 829.77,-72 829.77,-72 829.77,-72 829.77,-211.43 829.77,-211.43"/>
<polygon fill="black" stroke="black" points="826.27,-211.43 829.77,-221.43 833.27,-211.43 826.27,-211.43"/>
</g>
<!-- l2a_eng_a_emg -->
<g id="node19" class="node">
<title>l2a_eng_a_emg</title>
<polygon fill="none" stroke="black" points="616.58,-30 539.58,-30 539.58,-6 616.58,-6 628.58,-18 616.58,-30"/>
<text text-anchor="middle" x="584.08" y="-14.3" font-family="Times,serif" font-size="14.00">EM gain 1..1</text>
</g>
<!-- l2a_eng_a_emg&#45;&gt;trans_eng_a_l2a_l2b -->
<g id="edge20" class="edge">
<title>l2a_eng_a_emg&#45;&gt;trans_eng_a_l2a_l2b</title>
<path fill="none" stroke="black" d="M628.8,-18C706.16,-18 856.77,-18 856.77,-18 856.77,-18 856.77,-223.69 856.77,-223.69"/>
<polygon fill="black" stroke="black" points="853.27,-223.69 856.77,-233.69 860.27,-223.69 853.27,-223.69"/>
</g>
</g>
</svg>
