<?xml version="1.0" encoding="UTF-8" standalone="no"?>
<!DOCTYPE svg PUBLIC "-//W3C//DTD SVG 1.1//EN"
 "http://www.w3.org/Graphics/SVG/1.1/DTD/svg11.dtd">
<!-- Generated by graphviz version 2.43.0 (0)
 -->
<!-- Title: Channel_eng_a_Design Pages: 1 -->
<svg width="1229pt" height="738pt"
 viewBox="0.00 0.00 1228.90 738.00" xmlns="http://www.w3.org/2000/svg" xmlns:xlink="http://www.w3.org/1999/xlink">
<g id="graph0" class="graph" transform="scale(1 1) rotate(0) translate(4 734)">
<title>Channel_eng_a_Design</title>
<polygon fill="white" stroke="transparent" points="-4,4 -4,-734 1224.9,-734 1224.9,4 -4,4"/>
<!-- trans_eng_a_l1_l2a -->
<g id="node1" class="node">
<title>trans_eng_a_l1_l2a</title>
<ellipse fill="none" stroke="black" cx="386.14" cy="-556" rx="86.03" ry="86.03"/>
<text text-anchor="middle" x="386.14" y="-559.8" font-family="Times,serif" font-size="14.00">Transmutation</text>
<text text-anchor="middle" x="386.14" y="-544.8" font-family="Times,serif" font-size="14.00">L1 to L2a</text>
</g>
<!-- l2a_eng_a_man -->
<g id="node9" class="node">
<title>l2a_eng_a_man</title>
<ellipse fill="none" stroke="black" cx="645.55" cy="-596" rx="122.68" ry="18"/>
<text text-anchor="middle" x="645.55" y="-592.3" font-family="Times,serif" font-size="14.00">L2a_eng_a manifest 1..1</text>
</g>
<!-- trans_eng_a_l1_l2a&#45;&gt;l2a_eng_a_man -->
<g id="edge9" class="edge">
<title>trans_eng_a_l1_l2a&#45;&gt;l2a_eng_a_man</title>
<path fill="none" stroke="black" d="M462.92,-596C462.92,-596 512.27,-596 512.27,-596"/>
<polygon fill="black" stroke="black" points="512.27,-599.5 522.27,-596 512.27,-592.5 512.27,-599.5"/>
</g>
<!-- l2a_eng_a_log -->
<g id="node10" class="node">
<title>l2a_eng_a_log</title>
<ellipse fill="none" stroke="black" cx="645.55" cy="-542" rx="96.68" ry="18"/>
<text text-anchor="middle" x="645.55" y="-538.3" font-family="Times,serif" font-size="14.00">L2a_eng_a log 1..1</text>
</g>
<!-- trans_eng_a_l1_l2a&#45;&gt;l2a_eng_a_log -->
<g id="edge8" class="edge">
<title>trans_eng_a_l1_l2a&#45;&gt;l2a_eng_a_log</title>
<path fill="none" stroke="black" stroke-dasharray="5,2" d="M471.44,-542C471.44,-542 538.52,-542 538.52,-542"/>
<polygon fill="black" stroke="black" points="538.52,-545.5 548.52,-542 538.52,-538.5 538.52,-545.5"/>
</g>
<!-- l2a_eng_a_prod -->
<g id="node11" class="node">
<title>l2a_eng_a_prod</title>
<polygon fill="none" stroke="black" points="716.55,-506 574.55,-506 574.55,-470 716.55,-470 716.55,-506"/>
<text text-anchor="middle" x="645.55" y="-484.3" font-family="Times,serif" font-size="14.00">L2a products 1..b</text>
</g>
<!-- trans_eng_a_l1_l2a&#45;&gt;l2a_eng_a_prod -->
<g id="edge7" class="edge">
<title>trans_eng_a_l1_l2a&#45;&gt;l2a_eng_a_prod</title>
<path fill="none" stroke="black" stroke-dasharray="5,2" d="M439.26,-488C439.26,-488 564.3,-488 564.3,-488"/>
<polygon fill="black" stroke="black" points="564.3,-491.5 574.3,-488 564.3,-484.5 564.3,-491.5"/>
</g>
<!-- trans_eng_a_l2a_l2b -->
<g id="node2" class="node">
<title>trans_eng_a_l2a_l2b</title>
<ellipse fill="none" stroke="black" cx="904.95" cy="-288" rx="86.03" ry="86.03"/>
<text text-anchor="middle" x="904.95" y="-291.8" font-family="Times,serif" font-size="14.00">Transmutation</text>
<text text-anchor="middle" x="904.95" y="-276.8" font-family="Times,serif" font-size="14.00">L2a to L2b</text>
</g>
<!-- l2b_eng_a_man -->
<g id="node20" class="node">
<title>l2b_eng_a_man</title>
<ellipse fill="none" stroke="black" cx="1124.06" cy="-342" rx="92.08" ry="18"/>
<text text-anchor="middle" x="1124.06" y="-338.3" font-family="Times,serif" font-size="14.00">L2b manifest 1..1</text>
</g>
<!-- trans_eng_a_l2a_l2b&#45;&gt;l2b_eng_a_man -->
<g id="edge23" class="edge">
<title>trans_eng_a_l2a_l2b&#45;&gt;l2b_eng_a_man</title>
<path fill="none" stroke="black" d="M972.48,-342C972.48,-342 1021.37,-342 1021.37,-342"/>
<polygon fill="black" stroke="black" points="1021.37,-345.5 1031.37,-342 1021.37,-338.5 1021.37,-345.5"/>
</g>
<!-- l2b_eng_a_prod -->
<g id="node21" class="node">
<title>l2b_eng_a_prod</title>
<polygon fill="none" stroke="black" points="1195.56,-306 1052.56,-306 1052.56,-270 1195.56,-270 1195.56,-306"/>
<text text-anchor="middle" x="1124.06" y="-284.3" font-family="Times,serif" font-size="14.00">L2b products 1..b</text>
</g>
<!-- trans_eng_a_l2a_l2b&#45;&gt;l2b_eng_a_prod -->
<g id="edge21" class="edge">
<title>trans_eng_a_l2a_l2b&#45;&gt;l2b_eng_a_prod</title>
<path fill="none" stroke="black" stroke-dasharray="5,2" d="M991.24,-288C991.24,-288 1042.35,-288 1042.35,-288"/>
<polygon fill="black" stroke="black" points="1042.35,-291.5 1052.35,-288 1042.35,-284.5 1042.35,-291.5"/>
</g>
<!-- l2b_eng_a_log -->
<g id="node22" class="node">
<title>l2b_eng_a_log</title>
<ellipse fill="none" stroke="black" cx="1124.06" cy="-234" rx="96.68" ry="18"/>
<text text-anchor="middle" x="1124.06" y="-230.3" font-family="Times,serif" font-size="14.00">L2b_eng_a log 1..1</text>
</g>
<!-- trans_eng_a_l2a_l2b&#45;&gt;l2b_eng_a_log -->
<g id="edge22" class="edge">
<title>trans_eng_a_l2a_l2b&#45;&gt;l2b_eng_a_log</title>
<path fill="none" stroke="black" stroke-dasharray="5,2" d="M972.48,-234C972.48,-234 1016.95,-234 1016.95,-234"/>
<polygon fill="black" stroke="black" points="1016.95,-237.5 1026.95,-234 1016.95,-230.5 1016.95,-237.5"/>
</g>
<!-- l1_eng_a_prod -->
<g id="node3" class="node">
<title>l1_eng_a_prod</title>
<polygon fill="none" stroke="black" points="222.94,-730 40.94,-730 40.94,-694 222.94,-694 222.94,-730"/>
<text text-anchor="middle" x="131.94" y="-708.3" font-family="Times,serif" font-size="14.00">L1_eng_a products 1..b</text>
</g>
<!-- l1_eng_a_prod&#45;&gt;trans_eng_a_l1_l2a -->
<g id="edge1" class="edge">
<title>l1_eng_a_prod&#45;&gt;trans_eng_a_l1_l2a</title>
<path fill="none" stroke="black" stroke-dasharray="5,2" d="M223.03,-712C305.75,-712 414.9,-712 414.9,-712 414.9,-712 414.9,-647.66 414.9,-647.66"/>
<polygon fill="black" stroke="black" points="418.4,-647.66 414.9,-637.66 411.4,-647.66 418.4,-647.66"/>
</g>
<!-- l1_eng_a_man -->
<g id="node4" class="node">
<title>l1_eng_a_man</title>
<ellipse fill="none" stroke="black" cx="131.94" cy="-658" rx="117.78" ry="18"/>
<text text-anchor="middle" x="131.94" y="-654.3" font-family="Times,serif" font-size="14.00">L1_eng_a manifest 1..1</text>
</g>
<!-- l1_eng_a_man&#45;&gt;trans_eng_a_l1_l2a -->
<g id="edge2" class="edge">
<title>l1_eng_a_man&#45;&gt;trans_eng_a_l1_l2a</title>
<path fill="none" stroke="black" d="M249.55,-659.13C304.46,-659.13 357.9,-659.13 357.9,-659.13 357.9,-659.13 357.9,-647.76 357.9,-647.76"/>
<polygon fill="black" stroke="black" points="361.4,-647.76 357.9,-637.76 354.4,-647.76 361.4,-647.76"/>
</g>
<!-- eng_a_cpgs -->
<g id="node5" class="node">
<title>eng_a_cpgs</title>
<polygon fill="none" stroke="black" points="187.44,-454 64.44,-454 64.44,-430 187.44,-430 199.44,-442 187.44,-454"/>
<text text-anchor="middle" x="131.94" y="-438.3" font-family="Times,serif" font-size="14.00">eng_a CPGS 1..1</text>
</g>
<!-- eng_a_cpgs&#45;&gt;trans_eng_a_l1_l2a -->
<g id="edge3" class="edge">
<title>eng_a_cpgs&#45;&gt;trans_eng_a_l1_l2a</title>
<path fill="none" stroke="black" d="M132.9,-460.17C132.9,-467.32 132.9,-473.87 132.9,-473.87 132.9,-473.87 349.52,-473.87 349.52,-473.87"/>
<polygon fill="black" stroke="black" points="349.52,-477.37 359.52,-473.87 349.52,-470.37 349.52,-477.37"/>
</g>
<!-- eng_a_cpgs&#45;&gt;trans_eng_a_l2a_l2b -->
<g id="edge12" class="edge">
<title>eng_a_cpgs&#45;&gt;trans_eng_a_l2a_l2b</title>
<path fill="none" stroke="black" d="M132.9,-423.69C132.9,-400.85 132.9,-364.76 132.9,-364.76 132.9,-364.76 855.34,-364.76 855.34,-364.76"/>
<polygon fill="black" stroke="black" points="855.34,-368.26 865.34,-364.76 855.34,-361.26 855.34,-368.26"/>
</g>
<!-- l1_eng_a_odir -->
<g id="node6" class="node">
<title>l1_eng_a_odir</title>
<ellipse fill="none" stroke="black" cx="131.94" cy="-604" rx="131.88" ry="18"/>
<text text-anchor="middle" x="131.94" y="-600.3" font-family="Times,serif" font-size="14.00">L1_eng_a output path 1..1</text>
</g>
<!-- l1_eng_a_odir&#45;&gt;trans_eng_a_l1_l2a -->
<g id="edge4" class="edge">
<title>l1_eng_a_odir&#45;&gt;trans_eng_a_l1_l2a</title>
<path fill="none" stroke="black" d="M263.88,-604C263.88,-604 304.43,-604 304.43,-604"/>
<polygon fill="black" stroke="black" points="304.43,-607.5 314.43,-604 304.43,-600.5 304.43,-607.5"/>
</g>
<!-- l1_eng_a_rec -->
<g id="node7" class="node">
<title>l1_eng_a_rec</title>
<polygon fill="none" stroke="black" points="165.94,-562 85.94,-562 85.94,-538 165.94,-538 177.94,-550 165.94,-562"/>
<text text-anchor="middle" x="131.94" y="-546.3" font-family="Times,serif" font-size="14.00">recipe 1..1</text>
</g>
<!-- l1_eng_a_rec&#45;&gt;trans_eng_a_l1_l2a -->
<g id="edge5" class="edge">
<title>l1_eng_a_rec&#45;&gt;trans_eng_a_l1_l2a</title>
<path fill="none" stroke="black" d="M177.97,-550C177.97,-550 289.84,-550 289.84,-550"/>
<polygon fill="black" stroke="black" points="289.84,-553.5 299.84,-550 289.84,-546.5 289.84,-553.5"/>
</g>
<!-- l1_eng_a_nln -->
<g id="node8" class="node">
<title>l1_eng_a_nln</title>
<polygon fill="none" stroke="black" points="220.44,-508 31.44,-508 31.44,-484 220.44,-484 232.44,-496 220.44,-508"/>
<text text-anchor="middle" x="131.94" y="-492.3" font-family="Times,serif" font-size="14.00">non linear calibration 1..1</text>
</g>
<!-- l1_eng_a_nln&#45;&gt;trans_eng_a_l1_l2a -->
<g id="edge6" class="edge">
<title>l1_eng_a_nln&#45;&gt;trans_eng_a_l1_l2a</title>
<path fill="none" stroke="black" d="M232.77,-496C232.77,-496 313.89,-496 313.89,-496"/>
<polygon fill="black" stroke="black" points="313.89,-499.5 323.89,-496 313.89,-492.5 313.89,-499.5"/>
</g>
<!-- l2a_eng_a_man&#45;&gt;trans_eng_a_l2a_l2b -->
<g id="edge11" class="edge">
<title>l2a_eng_a_man&#45;&gt;trans_eng_a_l2a_l2b</title>
<path fill="none" stroke="black" d="M768.67,-596C847.05,-596 933.9,-596 933.9,-596 933.9,-596 933.9,-379.33 933.9,-379.33"/>
<polygon fill="black" stroke="black" points="937.4,-379.33 933.9,-369.33 930.4,-379.33 937.4,-379.33"/>
</g>
<!-- l2a_eng_a_prod&#45;&gt;trans_eng_a_l2a_l2b -->
<g id="edge10" class="edge">
<title>l2a_eng_a_prod&#45;&gt;trans_eng_a_l2a_l2b</title>
<path fill="none" stroke="black" stroke-dasharray="5,2" d="M716.85,-488C784.83,-488 876.9,-488 876.9,-488 876.9,-488 876.9,-379.64 876.9,-379.64"/>
<polygon fill="black" stroke="black" points="880.4,-379.64 876.9,-369.64 873.4,-379.64 880.4,-379.64"/>
</g>
<!-- l2a_eng_a_odir -->
<g id="node12" class="node">
<title>l2a_eng_a_odir</title>
<ellipse fill="none" stroke="black" cx="645.55" cy="-396" rx="137.28" ry="18"/>
<text text-anchor="middle" x="645.55" y="-392.3" font-family="Times,serif" font-size="14.00">L2a_eng_a output path 1..1</text>
</g>
<!-- l2a_eng_a_odir&#45;&gt;trans_eng_a_l2a_l2b -->
<g id="edge13" class="edge">
<title>l2a_eng_a_odir&#45;&gt;trans_eng_a_l2a_l2b</title>
<path fill="none" stroke="black" d="M777.9,-390.89C777.9,-383.2 777.9,-369.51 777.9,-369.51 777.9,-369.51 866.44,-369.51 866.44,-369.51"/>
<polygon fill="black" stroke="black" points="866.44,-373.01 876.44,-369.51 866.44,-366.01 866.44,-373.01"/>
</g>
<!-- l2a_eng_a_rec -->
<g id="node13" class="node">
<title>l2a_eng_a_rec</title>
<polygon fill="none" stroke="black" points="679.55,-354 599.55,-354 599.55,-330 679.55,-330 691.55,-342 679.55,-354"/>
<text text-anchor="middle" x="645.55" y="-338.3" font-family="Times,serif" font-size="14.00">recipe 1..1</text>
</g>
<!-- l2a_eng_a_rec&#45;&gt;trans_eng_a_l2a_l2b -->
<g id="edge14" class="edge">
<title>l2a_eng_a_rec&#45;&gt;trans_eng_a_l2a_l2b</title>
<path fill="none" stroke="black" d="M691.63,-342C691.63,-342 827.37,-342 827.37,-342"/>
<polygon fill="black" stroke="black" points="827.37,-345.5 837.37,-342 827.37,-338.5 827.37,-345.5"/>
</g>
<!-- l2a_eng_a_mbpm -->
<g id="node14" class="node">
<title>l2a_eng_a_mbpm</title>
<polygon fill="none" stroke="black" points="708.05,-300 571.05,-300 571.05,-276 708.05,-276 720.05,-288 708.05,-300"/>
<text text-anchor="middle" x="645.55" y="-284.3" font-family="Times,serif" font-size="14.00">bad pixel map 1..1</text>
</g>
<!-- l2a_eng_a_mbpm&#45;&gt;trans_eng_a_l2a_l2b -->
<g id="edge15" class="edge">
<title>l2a_eng_a_mbpm&#45;&gt;trans_eng_a_l2a_l2b</title>
<path fill="none" stroke="black" d="M720.23,-288C720.23,-288 808.45,-288 808.45,-288"/>
<polygon fill="black" stroke="black" points="808.45,-291.5 818.45,-288 808.45,-284.5 808.45,-291.5"/>
</g>
<!-- l2a_eng_a_dnb -->
<g id="node15" class="node">
<title>l2a_eng_a_dnb</title>
<polygon fill="none" stroke="black" points="759.55,-246 519.55,-246 519.55,-222 759.55,-222 771.55,-234 759.55,-246"/>
<text text-anchor="middle" x="645.55" y="-230.3" font-family="Times,serif" font-size="14.00">dark (CIC/FPN/dark current) 1..1</text>
</g>
<!-- l2a_eng_a_dnb&#45;&gt;trans_eng_a_l2a_l2b -->
<g id="edge16" class="edge">
<title>l2a_eng_a_dnb&#45;&gt;trans_eng_a_l2a_l2b</title>
<path fill="none" stroke="black" d="M771.83,-234C771.83,-234 827.51,-234 827.51,-234"/>
<polygon fill="black" stroke="black" points="827.51,-237.5 837.51,-234 827.51,-230.5 827.51,-237.5"/>
</g>
<!-- l2a_eng_a_nm -->
<g id="node16" class="node">
<title>l2a_eng_a_nm</title>
<polygon fill="none" stroke="black" points="697.55,-192 581.55,-192 581.55,-168 697.55,-168 709.55,-180 697.55,-192"/>
<text text-anchor="middle" x="645.55" y="-176.3" font-family="Times,serif" font-size="14.00">noise maps 1..1</text>
</g>
<!-- l2a_eng_a_nm&#45;&gt;trans_eng_a_l2a_l2b -->
<g id="edge17" class="edge">
<title>l2a_eng_a_nm&#45;&gt;trans_eng_a_l2a_l2b</title>
<path fill="none" stroke="black" d="M645.9,-198.12C645.9,-203.92 645.9,-208.87 645.9,-208.87 645.9,-208.87 860.55,-208.87 860.55,-208.87"/>
<polygon fill="black" stroke="black" points="860.55,-212.37 870.55,-208.87 860.55,-205.37 860.55,-212.37"/>
</g>
<!-- l2a_eng_a_ff -->
<g id="node17" class="node">
<title>l2a_eng_a_ff</title>
<polygon fill="none" stroke="black" points="687.05,-138 592.05,-138 592.05,-114 687.05,-114 699.05,-126 687.05,-138"/>
<text text-anchor="middle" x="645.55" y="-122.3" font-family="Times,serif" font-size="14.00">flat field 1..1</text>
</g>
<!-- l2a_eng_a_ff&#45;&gt;trans_eng_a_l2a_l2b -->
<g id="edge18" class="edge">
<title>l2a_eng_a_ff&#45;&gt;trans_eng_a_l2a_l2b</title>
<path fill="none" stroke="black" d="M699.31,-126C763.38,-126 861.9,-126 861.9,-126 861.9,-126 861.9,-203.16 861.9,-203.16"/>
<polygon fill="black" stroke="black" points="858.4,-203.16 861.9,-213.16 865.4,-203.16 858.4,-203.16"/>
</g>
<!-- l2a_eng_a_kgain -->
<g id="node18" class="node">
<title>l2a_eng_a_kgain</title>
<polygon fill="none" stroke="black" points="679.55,-84 599.55,-84 599.55,-60 679.55,-60 691.55,-72 679.55,-84"/>
<text text-anchor="middle" x="645.55" y="-68.3" font-family="Times,serif" font-size="14.00">k&#45;gain 1..1</text>
</g>
<!-- l2a_eng_a_kgain&#45;&gt;trans_eng_a_l2a_l2b -->
<g id="edge19" class="edge">
<title>l2a_eng_a_kgain&#45;&gt;trans_eng_a_l2a_l2b</title>
<path fill="none" stroke="black" d="M691.79,-72C766.61,-72 905.9,-72 905.9,-72 905.9,-72 905.9,-191.7 905.9,-191.7"/>
<polygon fill="black" stroke="black" points="902.4,-191.7 905.9,-201.7 909.4,-191.7 902.4,-191.7"/>
</g>
<!-- l2a_eng_a_emg -->
<g id="node19" class="node">
<title>l2a_eng_a_emg</title>
<polygon fill="none" stroke="black" points="687.55,-30 591.55,-30 591.55,-6 687.55,-6 699.55,-18 687.55,-30"/>
<text text-anchor="middle" x="645.55" y="-14.3" font-family="Times,serif" font-size="14.00">EM gain 1..1</text>
</g>
<!-- l2a_eng_a_emg&#45;&gt;trans_eng_a_l2a_l2b -->
<g id="edge20" class="edge">
<title>l2a_eng_a_emg&#45;&gt;trans_eng_a_l2a_l2b</title>
<path fill="none" stroke="black" d="M699.78,-18C787.04,-18 948.9,-18 948.9,-18 948.9,-18 948.9,-203.51 948.9,-203.51"/>
<polygon fill="black" stroke="black" points="945.4,-203.51 948.9,-213.51 952.4,-203.51 945.4,-203.51"/>
</g>
</g>
</svg>
