<?xml version="1.0" encoding="UTF-8" standalone="no"?>
<!DOCTYPE svg PUBLIC "-//W3C//DTD SVG 1.1//EN"
 "http://www.w3.org/Graphics/SVG/1.1/DTD/svg11.dtd">
<!-- Generated by graphviz version 2.43.0 (0)
 -->
<!-- Title: NarrowFieldOfViewPhotonCount Pages: 1 -->
<svg width="3000pt" height="1097pt"
 viewBox="0.00 0.00 3000.24 1097.00" xmlns="http://www.w3.org/2000/svg" xmlns:xlink="http://www.w3.org/1999/xlink">
<g id="graph0" class="graph" transform="scale(1 1) rotate(0) translate(4 1093)">
<title>NarrowFieldOfViewPhotonCount</title>
<polygon fill="white" stroke="transparent" points="-4,4 -4,-1093 2996.24,-1093 2996.24,4 -4,4"/>
<!-- trans_nfov_pc_l1_l2a -->
<g id="node1" class="node">
<title>trans_nfov_pc_l1_l2a</title>
<ellipse fill="none" stroke="black" cx="417.89" cy="-126" rx="101.23" ry="101.23"/>
<text text-anchor="middle" x="417.89" y="-129.8" font-family="Times,serif" font-size="14.00">nfov_pc Transmutation</text>
<text text-anchor="middle" x="417.89" y="-114.8" font-family="Times,serif" font-size="14.00">L1 to L2a</text>
</g>
<!-- l2a_nfov_pc_prod -->
<g id="node11" class="node">
<title>l2a_nfov_pc_prod</title>
<polygon fill="none" stroke="black" points="772.85,-225 608.85,-225 608.85,-189 772.85,-189 772.85,-225"/>
<text text-anchor="middle" x="690.85" y="-203.3" font-family="Times,serif" font-size="14.00">L2a_nfov_pc products 1..b</text>
</g>
<!-- trans_nfov_pc_l1_l2a&#45;&gt;l2a_nfov_pc_prod -->
<g id="edge6" class="edge">
<title>trans_nfov_pc_l1_l2a&#45;&gt;l2a_nfov_pc_prod</title>
<path fill="none" stroke="black" stroke-dasharray="5,2" d="M478.47,-207C478.47,-207 598.7,-207 598.7,-207"/>
<polygon fill="black" stroke="black" points="598.7,-210.5 608.7,-207 598.7,-203.5 598.7,-210.5"/>
</g>
<!-- l2a_nfov_pc_man -->
<g id="node12" class="node">
<title>l2a_nfov_pc_man</title>
<ellipse fill="none" stroke="black" cx="690.85" cy="-153" rx="135.68" ry="18"/>
<text text-anchor="middle" x="690.85" y="-149.3" font-family="Times,serif" font-size="14.00">L2a_nfov_pc product manifest 1..1</text>
</g>
<!-- trans_nfov_pc_l1_l2a&#45;&gt;l2a_nfov_pc_man -->
<g id="edge7" class="edge">
<title>trans_nfov_pc_l1_l2a&#45;&gt;l2a_nfov_pc_man</title>
<path fill="none" stroke="black" d="M515.66,-153C515.66,-153 544.72,-153 544.72,-153"/>
<polygon fill="black" stroke="black" points="544.72,-156.5 554.72,-153 544.72,-149.5 544.72,-156.5"/>
</g>
<!-- l2a_nfov_pc_log -->
<g id="node21" class="node">
<title>l2a_nfov_pc_log</title>
<ellipse fill="none" stroke="black" cx="690.85" cy="-99" rx="87.18" ry="18"/>
<text text-anchor="middle" x="690.85" y="-95.3" font-family="Times,serif" font-size="14.00">L2a log_nfov_pc 1..1</text>
</g>
<!-- trans_nfov_pc_l1_l2a&#45;&gt;l2a_nfov_pc_log -->
<g id="edge8" class="edge">
<title>trans_nfov_pc_l1_l2a&#45;&gt;l2a_nfov_pc_log</title>
<path fill="none" stroke="black" stroke-dasharray="5,2" d="M515.66,-99C515.66,-99 593.72,-99 593.72,-99"/>
<polygon fill="black" stroke="black" points="593.72,-102.5 603.72,-99 593.72,-95.5 593.72,-102.5"/>
</g>
<!-- l2a_nfov_pc_src -->
<g id="node47" class="node">
<title>l2a_nfov_pc_src</title>
<ellipse fill="none" stroke="black" cx="690.85" cy="-45" rx="131.88" ry="18"/>
<text text-anchor="middle" x="690.85" y="-41.3" font-family="Times,serif" font-size="14.00">L2a_nfov_pc source manifest 1..1</text>
</g>
<!-- trans_nfov_pc_l1_l2a&#45;&gt;l2a_nfov_pc_src -->
<g id="edge49" class="edge">
<title>trans_nfov_pc_l1_l2a&#45;&gt;l2a_nfov_pc_src</title>
<path fill="none" stroke="black" d="M478.47,-45C478.47,-45 548.64,-45 548.64,-45"/>
<polygon fill="black" stroke="black" points="548.64,-48.5 558.64,-45 548.64,-41.5 548.64,-48.5"/>
</g>
<!-- trans_nfov_pc_l2a_l2b -->
<g id="node2" class="node">
<title>trans_nfov_pc_l2a_l2b</title>
<ellipse fill="none" stroke="black" cx="963.8" cy="-396" rx="101.23" ry="101.23"/>
<text text-anchor="middle" x="963.8" y="-399.8" font-family="Times,serif" font-size="14.00">nfov_pc Transmutation</text>
<text text-anchor="middle" x="963.8" y="-384.8" font-family="Times,serif" font-size="14.00">L2a to L2b</text>
</g>
<!-- l2b_nfov_pc_prod -->
<g id="node22" class="node">
<title>l2b_nfov_pc_prod</title>
<polygon fill="none" stroke="black" points="1319.4,-495 1155.4,-495 1155.4,-459 1319.4,-459 1319.4,-495"/>
<text text-anchor="middle" x="1237.4" y="-473.3" font-family="Times,serif" font-size="14.00">L2b_nfov_pc products 1..1</text>
</g>
<!-- trans_nfov_pc_l2a_l2b&#45;&gt;l2b_nfov_pc_prod -->
<g id="edge18" class="edge">
<title>trans_nfov_pc_l2a_l2b&#45;&gt;l2b_nfov_pc_prod</title>
<path fill="none" stroke="black" stroke-dasharray="5,2" d="M1024.52,-477C1024.52,-477 1145.32,-477 1145.32,-477"/>
<polygon fill="black" stroke="black" points="1145.32,-480.5 1155.32,-477 1145.32,-473.5 1145.32,-480.5"/>
</g>
<!-- l2b_nfov_pc_man -->
<g id="node23" class="node">
<title>l2b_nfov_pc_man</title>
<ellipse fill="none" stroke="black" cx="1237.4" cy="-423" rx="136.48" ry="18"/>
<text text-anchor="middle" x="1237.4" y="-419.3" font-family="Times,serif" font-size="14.00">L2b_nfov_pc product manifest 1..1</text>
</g>
<!-- trans_nfov_pc_l2a_l2b&#45;&gt;l2b_nfov_pc_man -->
<g id="edge19" class="edge">
<title>trans_nfov_pc_l2a_l2b&#45;&gt;l2b_nfov_pc_man</title>
<path fill="none" stroke="black" d="M1061.42,-423C1061.42,-423 1090.62,-423 1090.62,-423"/>
<polygon fill="black" stroke="black" points="1090.62,-426.5 1100.62,-423 1090.62,-419.5 1090.62,-426.5"/>
</g>
<!-- l2b_nfov_pc_log -->
<g id="node29" class="node">
<title>l2b_nfov_pc_log</title>
<ellipse fill="none" stroke="black" cx="1237.4" cy="-369" rx="87.99" ry="18"/>
<text text-anchor="middle" x="1237.4" y="-365.3" font-family="Times,serif" font-size="14.00">L2b_nfov_pc log 1..1</text>
</g>
<!-- trans_nfov_pc_l2a_l2b&#45;&gt;l2b_nfov_pc_log -->
<g id="edge20" class="edge">
<title>trans_nfov_pc_l2a_l2b&#45;&gt;l2b_nfov_pc_log</title>
<path fill="none" stroke="black" stroke-dasharray="5,2" d="M1061.42,-369C1061.42,-369 1139.39,-369 1139.39,-369"/>
<polygon fill="black" stroke="black" points="1139.39,-372.5 1149.39,-369 1139.39,-365.5 1139.39,-372.5"/>
</g>
<!-- l2b_nfov_pc_src -->
<g id="node48" class="node">
<title>l2b_nfov_pc_src</title>
<ellipse fill="none" stroke="black" cx="1237.4" cy="-315" rx="132.68" ry="18"/>
<text text-anchor="middle" x="1237.4" y="-311.3" font-family="Times,serif" font-size="14.00">L2b_nfov_pc source manifest 1..1</text>
</g>
<!-- trans_nfov_pc_l2a_l2b&#45;&gt;l2b_nfov_pc_src -->
<g id="edge50" class="edge">
<title>trans_nfov_pc_l2a_l2b&#45;&gt;l2b_nfov_pc_src</title>
<path fill="none" stroke="black" d="M1024.52,-315C1024.52,-315 1094.6,-315 1094.6,-315"/>
<polygon fill="black" stroke="black" points="1094.6,-318.5 1104.6,-315 1094.6,-311.5 1094.6,-318.5"/>
</g>
<!-- trans_nfov_pc_l2b_l3 -->
<g id="node3" class="node">
<title>trans_nfov_pc_l2b_l3</title>
<ellipse fill="none" stroke="black" cx="1511.01" cy="-585" rx="101.23" ry="101.23"/>
<text text-anchor="middle" x="1511.01" y="-588.8" font-family="Times,serif" font-size="14.00">nfov_pc Transmutation</text>
<text text-anchor="middle" x="1511.01" y="-573.8" font-family="Times,serif" font-size="14.00">L2b to L3</text>
</g>
<!-- l3_nfov_pc_prod -->
<g id="node30" class="node">
<title>l3_nfov_pc_prod</title>
<polygon fill="none" stroke="black" points="1859.06,-684 1701.06,-684 1701.06,-648 1859.06,-648 1859.06,-684"/>
<text text-anchor="middle" x="1780.06" y="-662.3" font-family="Times,serif" font-size="14.00">L3_nfov_pc products 1..1</text>
</g>
<!-- trans_nfov_pc_l2b_l3&#45;&gt;l3_nfov_pc_prod -->
<g id="edge29" class="edge">
<title>trans_nfov_pc_l2b_l3&#45;&gt;l3_nfov_pc_prod</title>
<path fill="none" stroke="black" stroke-dasharray="5,2" d="M1571.72,-666C1571.72,-666 1690.92,-666 1690.92,-666"/>
<polygon fill="black" stroke="black" points="1690.92,-669.5 1700.92,-666 1690.92,-662.5 1690.92,-669.5"/>
</g>
<!-- l3_nfov_pc_man -->
<g id="node32" class="node">
<title>l3_nfov_pc_man</title>
<ellipse fill="none" stroke="black" cx="1780.06" cy="-612" rx="131.88" ry="18"/>
<text text-anchor="middle" x="1780.06" y="-608.3" font-family="Times,serif" font-size="14.00">L3_nfov_pc product manifest 1..1</text>
</g>
<!-- trans_nfov_pc_l2b_l3&#45;&gt;l3_nfov_pc_man -->
<g id="edge30" class="edge">
<title>trans_nfov_pc_l2b_l3&#45;&gt;l3_nfov_pc_man</title>
<path fill="none" stroke="black" d="M1608.52,-612C1608.52,-612 1637.81,-612 1637.81,-612"/>
<polygon fill="black" stroke="black" points="1637.81,-615.5 1647.81,-612 1637.81,-608.5 1637.81,-615.5"/>
</g>
<!-- l3_nfov_pc_log -->
<g id="node35" class="node">
<title>l3_nfov_pc_log</title>
<ellipse fill="none" stroke="black" cx="1780.06" cy="-558" rx="83.39" ry="18"/>
<text text-anchor="middle" x="1780.06" y="-554.3" font-family="Times,serif" font-size="14.00">L3_nfov_pc log 1..1</text>
</g>
<!-- trans_nfov_pc_l2b_l3&#45;&gt;l3_nfov_pc_log -->
<g id="edge31" class="edge">
<title>trans_nfov_pc_l2b_l3&#45;&gt;l3_nfov_pc_log</title>
<path fill="none" stroke="black" stroke-dasharray="5,2" d="M1608.52,-558C1608.52,-558 1686.64,-558 1686.64,-558"/>
<polygon fill="black" stroke="black" points="1686.64,-561.5 1696.64,-558 1686.64,-554.5 1686.64,-561.5"/>
</g>
<!-- l3_nfov_pc_src -->
<g id="node49" class="node">
<title>l3_nfov_pc_src</title>
<ellipse fill="none" stroke="black" cx="1780.06" cy="-504" rx="128.08" ry="18"/>
<text text-anchor="middle" x="1780.06" y="-500.3" font-family="Times,serif" font-size="14.00">L3_nfov_pc source manifest 1..1</text>
</g>
<!-- trans_nfov_pc_l2b_l3&#45;&gt;l3_nfov_pc_src -->
<g id="edge51" class="edge">
<title>trans_nfov_pc_l2b_l3&#45;&gt;l3_nfov_pc_src</title>
<path fill="none" stroke="black" d="M1571.72,-504C1571.72,-504 1641.94,-504 1641.94,-504"/>
<polygon fill="black" stroke="black" points="1641.94,-507.5 1651.94,-504 1641.94,-500.5 1641.94,-507.5"/>
</g>
<!-- trans_nfov_pc_l3_l4 -->
<g id="node4" class="node">
<title>trans_nfov_pc_l3_l4</title>
<ellipse fill="none" stroke="black" cx="2049.12" cy="-720" rx="101.23" ry="101.23"/>
<text text-anchor="middle" x="2049.12" y="-723.8" font-family="Times,serif" font-size="14.00">nfov_pc Transmutation</text>
<text text-anchor="middle" x="2049.12" y="-708.8" font-family="Times,serif" font-size="14.00">L3 to L4</text>
</g>
<!-- l4_nfov_pc_prod -->
<g id="node36" class="node">
<title>l4_nfov_pc_prod</title>
<polygon fill="none" stroke="black" points="2397.23,-819 2239.23,-819 2239.23,-783 2397.23,-783 2397.23,-819"/>
<text text-anchor="middle" x="2318.23" y="-797.3" font-family="Times,serif" font-size="14.00">L4_nfov_pc products 1..1</text>
</g>
<!-- trans_nfov_pc_l3_l4&#45;&gt;l4_nfov_pc_prod -->
<g id="edge37" class="edge">
<title>trans_nfov_pc_l3_l4&#45;&gt;l4_nfov_pc_prod</title>
<path fill="none" stroke="black" stroke-dasharray="5,2" d="M2109.85,-801C2109.85,-801 2229.07,-801 2229.07,-801"/>
<polygon fill="black" stroke="black" points="2229.07,-804.5 2239.07,-801 2229.07,-797.5 2229.07,-804.5"/>
</g>
<!-- l4_nfov_pc_log -->
<g id="node38" class="node">
<title>l4_nfov_pc_log</title>
<ellipse fill="none" stroke="black" cx="2318.23" cy="-747" rx="83.39" ry="18"/>
<text text-anchor="middle" x="2318.23" y="-743.3" font-family="Times,serif" font-size="14.00">L4_nfov_pc log 1..1</text>
</g>
<!-- trans_nfov_pc_l3_l4&#45;&gt;l4_nfov_pc_log -->
<g id="edge38" class="edge">
<title>trans_nfov_pc_l3_l4&#45;&gt;l4_nfov_pc_log</title>
<path fill="none" stroke="black" stroke-dasharray="5,2" d="M2146.65,-747C2146.65,-747 2224.79,-747 2224.79,-747"/>
<polygon fill="black" stroke="black" points="2224.79,-750.5 2234.79,-747 2224.79,-743.5 2224.79,-750.5"/>
</g>
<!-- l4_nfov_pc_man -->
<g id="node39" class="node">
<title>l4_nfov_pc_man</title>
<ellipse fill="none" stroke="black" cx="2318.23" cy="-693" rx="131.88" ry="18"/>
<text text-anchor="middle" x="2318.23" y="-689.3" font-family="Times,serif" font-size="14.00">L4_nfov_pc product manifest 1..1</text>
</g>
<!-- trans_nfov_pc_l3_l4&#45;&gt;l4_nfov_pc_man -->
<g id="edge39" class="edge">
<title>trans_nfov_pc_l3_l4&#45;&gt;l4_nfov_pc_man</title>
<path fill="none" stroke="black" d="M2146.65,-693C2146.65,-693 2175.95,-693 2175.95,-693"/>
<polygon fill="black" stroke="black" points="2175.95,-696.5 2185.95,-693 2175.95,-689.5 2175.95,-696.5"/>
</g>
<!-- l4_nfov_pc_src -->
<g id="node50" class="node">
<title>l4_nfov_pc_src</title>
<ellipse fill="none" stroke="black" cx="2318.23" cy="-639" rx="126.18" ry="18"/>
<text text-anchor="middle" x="2318.23" y="-635.3" font-family="Times,serif" font-size="14.00">L4_nfov_pc sourcemanifest 1..1</text>
</g>
<!-- trans_nfov_pc_l3_l4&#45;&gt;l4_nfov_pc_src -->
<g id="edge52" class="edge">
<title>trans_nfov_pc_l3_l4&#45;&gt;l4_nfov_pc_src</title>
<path fill="none" stroke="black" d="M2109.85,-639C2109.85,-639 2181.99,-639 2181.99,-639"/>
<polygon fill="black" stroke="black" points="2181.99,-642.5 2191.99,-639 2181.99,-635.5 2181.99,-642.5"/>
</g>
<!-- trans_nfov_pc_l4_tda -->
<g id="node5" class="node">
<title>trans_nfov_pc_l4_tda</title>
<ellipse fill="none" stroke="black" cx="2587.35" cy="-909" rx="101.23" ry="101.23"/>
<text text-anchor="middle" x="2587.35" y="-912.8" font-family="Times,serif" font-size="14.00">nfov_pc Transmutation</text>
<text text-anchor="middle" x="2587.35" y="-897.8" font-family="Times,serif" font-size="14.00">L4 to TDA</text>
</g>
<!-- tda_nfov_pc_prod -->
<g id="node45" class="node">
<title>tda_nfov_pc_prod</title>
<ellipse fill="none" stroke="black" cx="2858.35" cy="-963" rx="75.29" ry="18"/>
<text text-anchor="middle" x="2858.35" y="-959.3" font-family="Times,serif" font-size="14.00">tda_nfov_pc_prod</text>
</g>
<!-- trans_nfov_pc_l4_tda&#45;&gt;tda_nfov_pc_prod -->
<g id="edge47" class="edge">
<title>trans_nfov_pc_l4_tda&#45;&gt;tda_nfov_pc_prod</title>
<path fill="none" stroke="black" stroke-dasharray="5,2" d="M2673.1,-963C2673.1,-963 2772.77,-963 2772.77,-963"/>
<polygon fill="black" stroke="black" points="2772.77,-966.5 2782.77,-963 2772.77,-959.5 2772.77,-966.5"/>
</g>
<!-- tda_nfov_pc_log -->
<g id="node46" class="node">
<title>tda_nfov_pc_log</title>
<ellipse fill="none" stroke="black" cx="2858.35" cy="-909" rx="70.39" ry="18"/>
<text text-anchor="middle" x="2858.35" y="-905.3" font-family="Times,serif" font-size="14.00">tda_nfov_pc_log</text>
</g>
<!-- trans_nfov_pc_l4_tda&#45;&gt;tda_nfov_pc_log -->
<g id="edge48" class="edge">
<title>trans_nfov_pc_l4_tda&#45;&gt;tda_nfov_pc_log</title>
<path fill="none" stroke="black" stroke-dasharray="5,2" d="M2688.65,-909C2688.65,-909 2777.99,-909 2777.99,-909"/>
<polygon fill="black" stroke="black" points="2777.99,-912.5 2787.99,-909 2777.99,-905.5 2777.99,-912.5"/>
</g>
<!-- tda_nfov_pc_src -->
<g id="node51" class="node">
<title>tda_nfov_pc_src</title>
<ellipse fill="none" stroke="black" cx="2858.35" cy="-855" rx="133.78" ry="18"/>
<text text-anchor="middle" x="2858.35" y="-851.3" font-family="Times,serif" font-size="14.00">TDA_nfov_pc sourcemanifest 1..1</text>
</g>
<!-- trans_nfov_pc_l4_tda&#45;&gt;tda_nfov_pc_src -->
<g id="edge53" class="edge">
<title>trans_nfov_pc_l4_tda&#45;&gt;tda_nfov_pc_src</title>
<path fill="none" stroke="black" d="M2673.1,-855C2673.1,-855 2714.14,-855 2714.14,-855"/>
<polygon fill="black" stroke="black" points="2714.14,-858.5 2724.14,-855 2714.14,-851.5 2714.14,-858.5"/>
</g>
<!-- l1_nfov_pc_prod -->
<g id="node6" class="node">
<title>l1_nfov_pc_prod</title>
<polygon fill="none" stroke="black" points="219.39,-252 61.39,-252 61.39,-216 219.39,-216 219.39,-252"/>
<text text-anchor="middle" x="140.39" y="-230.3" font-family="Times,serif" font-size="14.00">L1_nfov_pc products 1..b</text>
</g>
<!-- l1_nfov_pc_prod&#45;&gt;trans_nfov_pc_l1_l2a -->
<g id="edge1" class="edge">
<title>l1_nfov_pc_prod&#45;&gt;trans_nfov_pc_l1_l2a</title>
<path fill="none" stroke="black" stroke-dasharray="5,2" d="M219.54,-221.56C219.54,-221.56 374.57,-221.56 374.57,-221.56"/>
<polygon fill="black" stroke="black" points="374.57,-225.06 384.57,-221.56 374.57,-218.06 374.57,-225.06"/>
</g>
<!-- l1_nfov_pc_man -->
<g id="node7" class="node">
<title>l1_nfov_pc_man</title>
<ellipse fill="none" stroke="black" cx="140.39" cy="-180" rx="131.88" ry="18"/>
<text text-anchor="middle" x="140.39" y="-176.3" font-family="Times,serif" font-size="14.00">L1_nfov_pc product manifest 1..1</text>
</g>
<!-- l1_nfov_pc_man&#45;&gt;trans_nfov_pc_l1_l2a -->
<g id="edge2" class="edge">
<title>l1_nfov_pc_man&#45;&gt;trans_nfov_pc_l1_l2a</title>
<path fill="none" stroke="black" d="M272.64,-180C272.64,-180 322.19,-180 322.19,-180"/>
<polygon fill="black" stroke="black" points="322.19,-183.5 332.19,-180 322.19,-176.5 322.19,-183.5"/>
</g>
<!-- l1_nfov_pc_odir -->
<g id="node8" class="node">
<title>l1_nfov_pc_odir</title>
<ellipse fill="none" stroke="black" cx="140.39" cy="-126" rx="112.38" ry="18"/>
<text text-anchor="middle" x="140.39" y="-122.3" font-family="Times,serif" font-size="14.00">L1_nfov_pc output path 1..1</text>
</g>
<!-- l1_nfov_pc_odir&#45;&gt;trans_nfov_pc_l1_l2a -->
<g id="edge3" class="edge">
<title>l1_nfov_pc_odir&#45;&gt;trans_nfov_pc_l1_l2a</title>
<path fill="none" stroke="black" d="M252.86,-126C252.86,-126 306.44,-126 306.44,-126"/>
<polygon fill="black" stroke="black" points="306.44,-129.5 316.44,-126 306.44,-122.5 306.44,-129.5"/>
</g>
<!-- l1_nfov_pc_rec -->
<g id="node9" class="node">
<title>l1_nfov_pc_rec</title>
<polygon fill="none" stroke="black" points="200.39,-84 68.39,-84 68.39,-60 200.39,-60 212.39,-72 200.39,-84"/>
<text text-anchor="middle" x="140.39" y="-68.3" font-family="Times,serif" font-size="14.00">L1_nfov_pc recipe 1..1</text>
</g>
<!-- l1_nfov_pc_rec&#45;&gt;trans_nfov_pc_l1_l2a -->
<g id="edge4" class="edge">
<title>l1_nfov_pc_rec&#45;&gt;trans_nfov_pc_l1_l2a</title>
<path fill="none" stroke="black" d="M212.57,-72C212.57,-72 322.25,-72 322.25,-72"/>
<polygon fill="black" stroke="black" points="322.25,-75.5 332.25,-72 322.25,-68.5 322.25,-75.5"/>
</g>
<!-- l1_nfov_pc_nllut -->
<g id="node10" class="node">
<title>l1_nfov_pc_nllut</title>
<polygon fill="none" stroke="black" points="226.39,-30 42.39,-30 42.39,-6 226.39,-6 238.39,-18 226.39,-30"/>
<text text-anchor="middle" x="140.39" y="-14.3" font-family="Times,serif" font-size="14.00">L1_nfov_pc non&#45;linear LUT 1..1</text>
</g>
<!-- l1_nfov_pc_nllut&#45;&gt;trans_nfov_pc_l1_l2a -->
<g id="edge5" class="edge">
<title>l1_nfov_pc_nllut&#45;&gt;trans_nfov_pc_l1_l2a</title>
<path fill="none" stroke="black" d="M238.62,-30.44C238.62,-30.44 374.56,-30.44 374.56,-30.44"/>
<polygon fill="black" stroke="black" points="374.56,-33.94 384.56,-30.44 374.56,-26.94 374.56,-33.94"/>
</g>
<!-- l2a_nfov_pc_prod&#45;&gt;trans_nfov_pc_l2a_l2b -->
<g id="edge9" class="edge">
<title>l2a_nfov_pc_prod&#45;&gt;trans_nfov_pc_l2a_l2b</title>
<path fill="none" stroke="black" stroke-dasharray="5,2" d="M773.22,-207C864.28,-207 998.24,-207 998.24,-207 998.24,-207 998.24,-290.67 998.24,-290.67"/>
<polygon fill="black" stroke="black" points="994.74,-290.67 998.24,-300.67 1001.74,-290.67 994.74,-290.67"/>
</g>
<!-- l2a_nfov_pc_man&#45;&gt;trans_nfov_pc_l2a_l2b -->
<g id="edge21" class="edge">
<title>l2a_nfov_pc_man&#45;&gt;trans_nfov_pc_l2a_l2b</title>
<path fill="none" stroke="black" d="M821.24,-158.19C821.24,-185.26 821.24,-309 821.24,-309 821.24,-309 901.93,-309 901.93,-309"/>
<polygon fill="black" stroke="black" points="901.93,-312.5 911.93,-309 901.93,-305.5 901.93,-312.5"/>
</g>
<!-- l2a_nfov_pc_odir -->
<g id="node13" class="node">
<title>l2a_nfov_pc_odir</title>
<ellipse fill="none" stroke="black" cx="690.85" cy="-641" rx="116.18" ry="18"/>
<text text-anchor="middle" x="690.85" y="-637.3" font-family="Times,serif" font-size="14.00">L2a_nfov_pc output path 1..1</text>
</g>
<!-- l2a_nfov_pc_odir&#45;&gt;trans_nfov_pc_l2a_l2b -->
<g id="edge11" class="edge">
<title>l2a_nfov_pc_odir&#45;&gt;trans_nfov_pc_l2a_l2b</title>
<path fill="none" stroke="black" d="M807.06,-640C894.11,-640 998.24,-640 998.24,-640 998.24,-640 998.24,-501.39 998.24,-501.39"/>
<polygon fill="black" stroke="black" points="1001.74,-501.39 998.24,-491.39 994.74,-501.39 1001.74,-501.39"/>
</g>
<!-- l2a_nfov_pc_rec -->
<g id="node14" class="node">
<title>l2a_nfov_pc_rec</title>
<polygon fill="none" stroke="black" points="753.85,-599 615.85,-599 615.85,-575 753.85,-575 765.85,-587 753.85,-599"/>
<text text-anchor="middle" x="690.85" y="-583.3" font-family="Times,serif" font-size="14.00">L2a_nfov_pc recipe 1..1</text>
</g>
<!-- l2a_nfov_pc_rec&#45;&gt;trans_nfov_pc_l2a_l2b -->
<g id="edge12" class="edge">
<title>l2a_nfov_pc_rec&#45;&gt;trans_nfov_pc_l2a_l2b</title>
<path fill="none" stroke="black" d="M765.94,-586C836.14,-586 930.24,-586 930.24,-586 930.24,-586 930.24,-501.56 930.24,-501.56"/>
<polygon fill="black" stroke="black" points="933.74,-501.56 930.24,-491.56 926.74,-501.56 933.74,-501.56"/>
</g>
<!-- l2a_nfov_pc_cti -->
<g id="node15" class="node">
<title>l2a_nfov_pc_cti</title>
<polygon fill="none" stroke="black" points="802.35,-545 567.35,-545 567.35,-521 802.35,-521 814.35,-533 802.35,-545"/>
<text text-anchor="middle" x="690.85" y="-529.3" font-family="Times,serif" font-size="14.00">L2a_nfov_pc charge xfer inefficiency 1..1</text>
</g>
<!-- l2a_nfov_pc_cti&#45;&gt;trans_nfov_pc_l2a_l2b -->
<g id="edge13" class="edge">
<title>l2a_nfov_pc_cti&#45;&gt;trans_nfov_pc_l2a_l2b</title>
<path fill="none" stroke="black" d="M805.24,-514.88C805.24,-501.04 805.24,-484.33 805.24,-484.33 805.24,-484.33 904.5,-484.33 904.5,-484.33"/>
<polygon fill="black" stroke="black" points="904.5,-487.83 914.5,-484.33 904.5,-480.83 904.5,-487.83"/>
</g>
<!-- l2a_nfov_pc_dnb -->
<g id="node16" class="node">
<title>l2a_nfov_pc_dnb</title>
<polygon fill="none" stroke="black" points="788.35,-491 581.35,-491 581.35,-465 788.35,-465 800.35,-478 788.35,-491"/>
<text text-anchor="middle" x="690.85" y="-481.8" font-family="Times,serif" font-size="14.00">L2a_nfov_pc CIC/Dark Current/FPN</text>
<text text-anchor="middle" x="690.85" y="-466.8" font-family="Times,serif" font-size="14.00"> or master dark 1..1</text>
</g>
<!-- l2a_nfov_pc_dnb&#45;&gt;trans_nfov_pc_l2a_l2b -->
<g id="edge14" class="edge">
<title>l2a_nfov_pc_dnb&#45;&gt;trans_nfov_pc_l2a_l2b</title>
<path fill="none" stroke="black" d="M800.69,-471.67C800.69,-471.67 886.56,-471.67 886.56,-471.67"/>
<polygon fill="black" stroke="black" points="886.56,-475.17 896.56,-471.67 886.56,-468.17 886.56,-475.17"/>
</g>
<!-- l2a_nfov_pc_mbpm -->
<g id="node17" class="node">
<title>l2a_nfov_pc_mbpm</title>
<polygon fill="none" stroke="black" points="796.85,-435 572.85,-435 572.85,-411 796.85,-411 808.85,-423 796.85,-435"/>
<text text-anchor="middle" x="690.85" y="-419.3" font-family="Times,serif" font-size="14.00">L2a_nfov_pc master bad pixel map 1..1</text>
</g>
<!-- l2a_nfov_pc_mbpm&#45;&gt;trans_nfov_pc_l2a_l2b -->
<g id="edge15" class="edge">
<title>l2a_nfov_pc_mbpm&#45;&gt;trans_nfov_pc_l2a_l2b</title>
<path fill="none" stroke="black" d="M808.98,-423C808.98,-423 855.97,-423 855.97,-423"/>
<polygon fill="black" stroke="black" points="855.97,-426.5 865.97,-423 855.97,-419.5 855.97,-426.5"/>
</g>
<!-- l2a_nfov_pc_ff -->
<g id="node18" class="node">
<title>l2a_nfov_pc_ff</title>
<polygon fill="none" stroke="black" points="763.35,-381 606.35,-381 606.35,-357 763.35,-357 775.35,-369 763.35,-381"/>
<text text-anchor="middle" x="690.85" y="-365.3" font-family="Times,serif" font-size="14.00">L2a_nfov_pc flat fields 1..1</text>
</g>
<!-- l2a_nfov_pc_ff&#45;&gt;trans_nfov_pc_l2a_l2b -->
<g id="edge16" class="edge">
<title>l2a_nfov_pc_ff&#45;&gt;trans_nfov_pc_l2a_l2b</title>
<path fill="none" stroke="black" d="M775.71,-369C775.71,-369 856.1,-369 856.1,-369"/>
<polygon fill="black" stroke="black" points="856.1,-372.5 866.1,-369 856.1,-365.5 856.1,-372.5"/>
</g>
<!-- l2a_nfov_pc_emg -->
<g id="node19" class="node">
<title>l2a_nfov_pc_emg</title>
<polygon fill="none" stroke="black" points="761.35,-327 608.35,-327 608.35,-303 761.35,-303 773.35,-315 761.35,-327"/>
<text text-anchor="middle" x="690.85" y="-311.3" font-family="Times,serif" font-size="14.00">L2a_nfov_pc EM gain 1..1</text>
</g>
<!-- l2a_nfov_pc_emg&#45;&gt;trans_nfov_pc_l2a_l2b -->
<g id="edge17" class="edge">
<title>l2a_nfov_pc_emg&#45;&gt;trans_nfov_pc_l2a_l2b</title>
<path fill="none" stroke="black" d="M773.48,-321C773.48,-321 885.67,-321 885.67,-321"/>
<polygon fill="black" stroke="black" points="885.67,-324.5 895.67,-321 885.67,-317.5 885.67,-324.5"/>
</g>
<!-- l2a_nfov_pc_kgain -->
<g id="node20" class="node">
<title>l2a_nfov_pc_kgain</title>
<polygon fill="none" stroke="black" points="750.85,-273 618.85,-273 618.85,-249 750.85,-249 762.85,-261 750.85,-273"/>
<text text-anchor="middle" x="690.85" y="-257.3" font-family="Times,serif" font-size="14.00">L2_nfov_pc Kgain 1..1</text>
</g>
<!-- l2a_nfov_pc_kgain&#45;&gt;trans_nfov_pc_l2a_l2b -->
<g id="edge10" class="edge">
<title>l2a_nfov_pc_kgain&#45;&gt;trans_nfov_pc_l2a_l2b</title>
<path fill="none" stroke="black" d="M763,-261C833.49,-261 930.24,-261 930.24,-261 930.24,-261 930.24,-290.41 930.24,-290.41"/>
<polygon fill="black" stroke="black" points="926.74,-290.41 930.24,-300.41 933.74,-290.41 926.74,-290.41"/>
</g>
<!-- l2b_nfov_pc_prod&#45;&gt;trans_nfov_pc_l2b_l3 -->
<g id="edge22" class="edge">
<title>l2b_nfov_pc_prod&#45;&gt;trans_nfov_pc_l2b_l3</title>
<path fill="none" stroke="black" stroke-dasharray="5,2" d="M1319.49,-491.29C1319.49,-491.29 1462.77,-491.29 1462.77,-491.29"/>
<polygon fill="black" stroke="black" points="1462.77,-494.79 1472.77,-491.29 1462.77,-487.79 1462.77,-494.79"/>
</g>
<!-- l2b_nfov_pc_man&#45;&gt;trans_nfov_pc_l2b_l3 -->
<g id="edge23" class="edge">
<title>l2b_nfov_pc_man&#45;&gt;trans_nfov_pc_l2b_l3</title>
<path fill="none" stroke="black" d="M1352.24,-432.81C1352.24,-450.88 1352.24,-487.59 1352.24,-487.59 1352.24,-487.59 1473.72,-487.59 1473.72,-487.59"/>
<polygon fill="black" stroke="black" points="1473.72,-491.09 1483.72,-487.59 1473.72,-484.09 1473.72,-491.09"/>
</g>
<!-- l2b_nfov_pc_odir -->
<g id="node24" class="node">
<title>l2b_nfov_pc_odir</title>
<ellipse fill="none" stroke="black" cx="1237.4" cy="-747" rx="116.18" ry="18"/>
<text text-anchor="middle" x="1237.4" y="-743.3" font-family="Times,serif" font-size="14.00">L2b_nfov_pc output path 1..1</text>
</g>
<!-- l2b_nfov_pc_odir&#45;&gt;trans_nfov_pc_l2b_l3 -->
<g id="edge24" class="edge">
<title>l2b_nfov_pc_odir&#45;&gt;trans_nfov_pc_l2b_l3</title>
<path fill="none" stroke="black" d="M1334.24,-736.91C1334.24,-718.74 1334.24,-682.41 1334.24,-682.41 1334.24,-682.41 1473.78,-682.41 1473.78,-682.41"/>
<polygon fill="black" stroke="black" points="1473.78,-685.91 1483.78,-682.41 1473.78,-678.91 1473.78,-685.91"/>
</g>
<!-- l2b_nfov_pc_rec -->
<g id="node25" class="node">
<title>l2b_nfov_pc_rec</title>
<polygon fill="none" stroke="black" points="1300.9,-705 1161.9,-705 1161.9,-681 1300.9,-681 1312.9,-693 1300.9,-705"/>
<text text-anchor="middle" x="1237.4" y="-689.3" font-family="Times,serif" font-size="14.00">L2b_nfov_pc recipe 1..1</text>
</g>
<!-- l2b_nfov_pc_rec&#45;&gt;trans_nfov_pc_l2b_l3 -->
<g id="edge25" class="edge">
<title>l2b_nfov_pc_rec&#45;&gt;trans_nfov_pc_l2b_l3</title>
<path fill="none" stroke="black" d="M1313.25,-678.71C1313.25,-678.71 1462.84,-678.71 1462.84,-678.71"/>
<polygon fill="black" stroke="black" points="1462.84,-682.21 1472.84,-678.71 1462.84,-675.21 1462.84,-682.21"/>
</g>
<!-- l2b_nfov_pc_excicrf -->
<g id="node26" class="node">
<title>l2b_nfov_pc_excicrf</title>
<polygon fill="none" stroke="black" points="1349.4,-651 1113.4,-651 1113.4,-627 1349.4,-627 1361.4,-639 1349.4,-651"/>
<text text-anchor="middle" x="1237.4" y="-635.3" font-family="Times,serif" font-size="14.00">L2b_nfov_pc EXCAM ICRF location 1..1</text>
</g>
<!-- l2b_nfov_pc_excicrf&#45;&gt;trans_nfov_pc_l2b_l3 -->
<g id="edge26" class="edge">
<title>l2b_nfov_pc_excicrf&#45;&gt;trans_nfov_pc_l2b_l3</title>
<path fill="none" stroke="black" d="M1361.8,-639C1361.8,-639 1415.26,-639 1415.26,-639"/>
<polygon fill="black" stroke="black" points="1415.26,-642.5 1425.26,-639 1415.26,-635.5 1415.26,-642.5"/>
</g>
<!-- l2b_nfov_pc_excfovps -->
<g id="node27" class="node">
<title>l2b_nfov_pc_excfovps</title>
<polygon fill="none" stroke="black" points="1354.9,-597 1107.9,-597 1107.9,-573 1354.9,-573 1366.9,-585 1354.9,-597"/>
<text text-anchor="middle" x="1237.4" y="-581.3" font-family="Times,serif" font-size="14.00">L2b_nfov_pc EXCAM FOV pixel scale 1..1</text>
</g>
<!-- l2b_nfov_pc_excfovps&#45;&gt;trans_nfov_pc_l2b_l3 -->
<g id="edge27" class="edge">
<title>l2b_nfov_pc_excfovps&#45;&gt;trans_nfov_pc_l2b_l3</title>
<path fill="none" stroke="black" d="M1366.99,-585C1366.99,-585 1399.77,-585 1399.77,-585"/>
<polygon fill="black" stroke="black" points="1399.77,-588.5 1409.77,-585 1399.77,-581.5 1399.77,-588.5"/>
</g>
<!-- l2b_nfov_pc_distm -->
<g id="node28" class="node">
<title>l2b_nfov_pc_distm</title>
<polygon fill="none" stroke="black" points="1323.9,-543 1138.9,-543 1138.9,-519 1323.9,-519 1335.9,-531 1323.9,-543"/>
<text text-anchor="middle" x="1237.4" y="-527.3" font-family="Times,serif" font-size="14.00">L2b_nfov_pc distortion map 1..1</text>
</g>
<!-- l2b_nfov_pc_distm&#45;&gt;trans_nfov_pc_l2b_l3 -->
<g id="edge28" class="edge">
<title>l2b_nfov_pc_distm&#45;&gt;trans_nfov_pc_l2b_l3</title>
<path fill="none" stroke="black" d="M1336.18,-531C1336.18,-531 1415.49,-531 1415.49,-531"/>
<polygon fill="black" stroke="black" points="1415.49,-534.5 1425.49,-531 1415.49,-527.5 1415.49,-534.5"/>
</g>
<!-- l3_nfov_pc_prod&#45;&gt;trans_nfov_pc_l3_l4 -->
<g id="edge32" class="edge">
<title>l3_nfov_pc_prod&#45;&gt;trans_nfov_pc_l3_l4</title>
<path fill="none" stroke="black" stroke-dasharray="5,2" d="M1859.33,-666C1859.33,-666 1953.37,-666 1953.37,-666"/>
<polygon fill="black" stroke="black" points="1953.37,-669.5 1963.37,-666 1953.37,-662.5 1953.37,-669.5"/>
</g>
<!-- l3_nfov_pc_odir -->
<g id="node31" class="node">
<title>l3_nfov_pc_odir</title>
<ellipse fill="none" stroke="black" cx="1780.06" cy="-828" rx="112.38" ry="18"/>
<text text-anchor="middle" x="1780.06" y="-824.3" font-family="Times,serif" font-size="14.00">L3_nfov_pc output path 1..1</text>
</g>
<!-- l3_nfov_pc_odir&#45;&gt;trans_nfov_pc_l3_l4 -->
<g id="edge34" class="edge">
<title>l3_nfov_pc_odir&#45;&gt;trans_nfov_pc_l3_l4</title>
<path fill="none" stroke="black" d="M1861.52,-815.56C1861.52,-815.56 2005.94,-815.56 2005.94,-815.56"/>
<polygon fill="black" stroke="black" points="2005.94,-819.06 2015.94,-815.56 2005.94,-812.06 2005.94,-819.06"/>
</g>
<!-- l3_nfov_pc_man&#45;&gt;trans_nfov_pc_l3_l4 -->
<g id="edge33" class="edge">
<title>l3_nfov_pc_man&#45;&gt;trans_nfov_pc_l3_l4</title>
<path fill="none" stroke="black" d="M1875.68,-624.44C1875.68,-624.44 2005.93,-624.44 2005.93,-624.44"/>
<polygon fill="black" stroke="black" points="2005.93,-627.94 2015.93,-624.44 2005.93,-620.94 2005.93,-627.94"/>
</g>
<!-- l3_nfov_pc_rec -->
<g id="node33" class="node">
<title>l3_nfov_pc_rec</title>
<polygon fill="none" stroke="black" points="1840.06,-786 1708.06,-786 1708.06,-762 1840.06,-762 1852.06,-774 1840.06,-786"/>
<text text-anchor="middle" x="1780.06" y="-770.3" font-family="Times,serif" font-size="14.00">L3_nfov_pc recipe 1..1</text>
</g>
<!-- l3_nfov_pc_rec&#45;&gt;trans_nfov_pc_l3_l4 -->
<g id="edge35" class="edge">
<title>l3_nfov_pc_rec&#45;&gt;trans_nfov_pc_l3_l4</title>
<path fill="none" stroke="black" d="M1852.16,-774C1852.16,-774 1953.42,-774 1953.42,-774"/>
<polygon fill="black" stroke="black" points="1953.42,-777.5 1963.42,-774 1953.42,-770.5 1953.42,-777.5"/>
</g>
<!-- l3_nfov_pc_cal -->
<g id="node34" class="node">
<title>l3_nfov_pc_cal</title>
<polygon fill="none" stroke="black" points="1852.56,-732 1695.56,-732 1695.56,-708 1852.56,-708 1864.56,-720 1852.56,-732"/>
<text text-anchor="middle" x="1780.06" y="-716.3" font-family="Times,serif" font-size="14.00">L3_nfov_pc calibration 1..1</text>
</g>
<!-- l3_nfov_pc_cal&#45;&gt;trans_nfov_pc_l3_l4 -->
<g id="edge36" class="edge">
<title>l3_nfov_pc_cal&#45;&gt;trans_nfov_pc_l3_l4</title>
<path fill="none" stroke="black" d="M1864.82,-720C1864.82,-720 1937.81,-720 1937.81,-720"/>
<polygon fill="black" stroke="black" points="1937.81,-723.5 1947.81,-720 1937.81,-716.5 1937.81,-723.5"/>
</g>
<!-- l4_nfov_pc_prod&#45;&gt;trans_nfov_pc_l4_tda -->
<g id="edge40" class="edge">
<title>l4_nfov_pc_prod&#45;&gt;trans_nfov_pc_l4_tda</title>
<path fill="none" stroke="black" stroke-dasharray="5,2" d="M2397.52,-815.29C2397.52,-815.29 2539.32,-815.29 2539.32,-815.29"/>
<polygon fill="black" stroke="black" points="2539.32,-818.79 2549.32,-815.29 2539.32,-811.79 2539.32,-818.79"/>
</g>
<!-- l4_nfov_pc_odir -->
<g id="node37" class="node">
<title>l4_nfov_pc_odir</title>
<ellipse fill="none" stroke="black" cx="2318.23" cy="-1071" rx="112.38" ry="18"/>
<text text-anchor="middle" x="2318.23" y="-1067.3" font-family="Times,serif" font-size="14.00">L4_nfov_pc output path 1..1</text>
</g>
<!-- l4_nfov_pc_odir&#45;&gt;trans_nfov_pc_l4_tda -->
<g id="edge42" class="edge">
<title>l4_nfov_pc_odir&#45;&gt;trans_nfov_pc_l4_tda</title>
<path fill="none" stroke="black" d="M2411.24,-1060.62C2411.24,-1042.36 2411.24,-1006.41 2411.24,-1006.41 2411.24,-1006.41 2550.22,-1006.41 2550.22,-1006.41"/>
<polygon fill="black" stroke="black" points="2550.22,-1009.91 2560.22,-1006.41 2550.22,-1002.91 2550.22,-1009.91"/>
</g>
<!-- l4_nfov_pc_man&#45;&gt;trans_nfov_pc_l4_tda -->
<g id="edge41" class="edge">
<title>l4_nfov_pc_man&#45;&gt;trans_nfov_pc_l4_tda</title>
<path fill="none" stroke="black" d="M2426.24,-703.52C2426.24,-732.55 2426.24,-811.59 2426.24,-811.59 2426.24,-811.59 2550.02,-811.59 2550.02,-811.59"/>
<polygon fill="black" stroke="black" points="2550.02,-815.09 2560.02,-811.59 2550.02,-808.09 2550.02,-815.09"/>
</g>
<!-- l4_nfov_pc_rec -->
<g id="node40" class="node">
<title>l4_nfov_pc_rec</title>
<polygon fill="none" stroke="black" points="2378.23,-1029 2246.23,-1029 2246.23,-1005 2378.23,-1005 2390.23,-1017 2378.23,-1029"/>
<text text-anchor="middle" x="2318.23" y="-1013.3" font-family="Times,serif" font-size="14.00">L4_nfov_pc recipe 1..1</text>
</g>
<!-- l4_nfov_pc_rec&#45;&gt;trans_nfov_pc_l4_tda -->
<g id="edge43" class="edge">
<title>l4_nfov_pc_rec&#45;&gt;trans_nfov_pc_l4_tda</title>
<path fill="none" stroke="black" d="M2390.35,-1002.71C2390.35,-1002.71 2539.1,-1002.71 2539.1,-1002.71"/>
<polygon fill="black" stroke="black" points="2539.1,-1006.21 2549.1,-1002.71 2539.1,-999.21 2539.1,-1006.21"/>
</g>
<!-- l4_nfov_pc_afcal -->
<g id="node41" class="node">
<title>l4_nfov_pc_afcal</title>
<polygon fill="none" stroke="black" points="2430.23,-975 2194.23,-975 2194.23,-951 2430.23,-951 2442.23,-963 2430.23,-975"/>
<text text-anchor="middle" x="2318.23" y="-959.3" font-family="Times,serif" font-size="14.00">L4_nfov_pc absolute flux calibrations 1..1</text>
</g>
<!-- l4_nfov_pc_afcal&#45;&gt;trans_nfov_pc_l4_tda -->
<g id="edge44" class="edge">
<title>l4_nfov_pc_afcal&#45;&gt;trans_nfov_pc_l4_tda</title>
<path fill="none" stroke="black" d="M2442.55,-963C2442.55,-963 2491.59,-963 2491.59,-963"/>
<polygon fill="black" stroke="black" points="2491.59,-966.5 2501.59,-963 2491.59,-959.5 2491.59,-966.5"/>
</g>
<!-- l4_nfov_pc_ctcal -->
<g id="node42" class="node">
<title>l4_nfov_pc_ctcal</title>
<polygon fill="none" stroke="black" points="2438.23,-921 2186.23,-921 2186.23,-897 2438.23,-897 2450.23,-909 2438.23,-921"/>
<text text-anchor="middle" x="2318.23" y="-905.3" font-family="Times,serif" font-size="14.00">L4_nfov_pc core throughput calibrations 1..1</text>
</g>
<!-- l4_nfov_pc_ctcal&#45;&gt;trans_nfov_pc_l4_tda -->
<g id="edge45" class="edge">
<title>l4_nfov_pc_ctcal&#45;&gt;trans_nfov_pc_l4_tda</title>
<path fill="none" stroke="black" d="M2450.43,-909C2450.43,-909 2476.01,-909 2476.01,-909"/>
<polygon fill="black" stroke="black" points="2476.01,-912.5 2486.01,-909 2476.01,-905.5 2476.01,-912.5"/>
</g>
<!-- l4_nfov_pc_ndfilt -->
<g id="node43" class="node">
<title>l4_nfov_pc_ndfilt</title>
<polygon fill="none" stroke="black" points="2386.73,-867 2237.73,-867 2237.73,-843 2386.73,-843 2398.73,-855 2386.73,-867"/>
<text text-anchor="middle" x="2318.23" y="-851.3" font-family="Times,serif" font-size="14.00">L4_nfov_pc ND filter 1..1</text>
</g>
<!-- l4_nfov_pc_ndfilt&#45;&gt;trans_nfov_pc_l4_tda -->
<g id="edge46" class="edge">
<title>l4_nfov_pc_ndfilt&#45;&gt;trans_nfov_pc_l4_tda</title>
<path fill="none" stroke="black" d="M2398.98,-855C2398.98,-855 2491.51,-855 2491.51,-855"/>
<polygon fill="black" stroke="black" points="2491.51,-858.5 2501.51,-855 2491.51,-851.5 2491.51,-858.5"/>
</g>
<!-- tda_nfov_pc_man -->
<g id="node44" class="node">
<title>tda_nfov_pc_man</title>
<ellipse fill="none" stroke="black" cx="140.39" cy="-288" rx="140.28" ry="18"/>
<text text-anchor="middle" x="140.39" y="-284.3" font-family="Times,serif" font-size="14.00">TDA_nfov_pc product manifest 1..1</text>
</g>
</g>
</svg>
