<?xml version="1.0" encoding="UTF-8" standalone="no"?>
<!DOCTYPE svg PUBLIC "-//W3C//DTD SVG 1.1//EN"
 "http://www.w3.org/Graphics/SVG/1.1/DTD/svg11.dtd">
<!-- Generated by graphviz version 2.43.0 (0)
 -->
<!-- Title: NarrowFieldOfViewAnalog Pages: 1 -->
<svg width="4296pt" height="1040pt"
 viewBox="0.00 0.00 4295.85 1040.00" xmlns="http://www.w3.org/2000/svg" xmlns:xlink="http://www.w3.org/1999/xlink">
<g id="graph0" class="graph" transform="scale(1 1) rotate(0) translate(4 1036)">
<title>NarrowFieldOfViewAnalog</title>
<polygon fill="white" stroke="transparent" points="-4,4 -4,-1036 4291.85,-1036 4291.85,4 -4,4"/>
<!-- trans_nfov_a_l1_l2a -->
<g id="node1" class="node">
<title>trans_nfov_a_l1_l2a</title>
<ellipse fill="none" stroke="black" cx="426.7" cy="-126" rx="121.74" ry="121.74"/>
<text text-anchor="middle" x="426.7" y="-129.8" font-family="Times,serif" font-size="14.00">nfov_a Transmutation</text>
<text text-anchor="middle" x="426.7" y="-114.8" font-family="Times,serif" font-size="14.00">L1 to L2a</text>
</g>
<!-- l2a_nfov_a_prod -->
<g id="node13" class="node">
<title>l2a_nfov_a_prod</title>
<polygon fill="none" stroke="black" points="1070.61,-258 876.61,-258 876.61,-222 1070.61,-222 1070.61,-258"/>
<text text-anchor="middle" x="973.61" y="-236.3" font-family="Times,serif" font-size="14.00">L2a_nfov_a products 1..b</text>
</g>
<!-- trans_nfov_a_l1_l2a&#45;&gt;l2a_nfov_a_prod -->
<g id="edge6" class="edge">
<title>trans_nfov_a_l1_l2a&#45;&gt;l2a_nfov_a_prod</title>
<path fill="none" stroke="black" d="M481.14,-234.81C481.14,-234.81 866.59,-234.81 866.59,-234.81"/>
<polygon fill="black" stroke="black" points="866.59,-238.31 876.59,-234.81 866.59,-231.31 866.59,-238.31"/>
</g>
<!-- l2a_nfov_a_man -->
<g id="node14" class="node">
<title>l2a_nfov_a_man</title>
<ellipse fill="none" stroke="black" cx="710.41" cy="-126" rx="126.18" ry="18"/>
<text text-anchor="middle" x="710.41" y="-122.3" font-family="Times,serif" font-size="14.00">L2a_nfov_a manifest 1..1</text>
</g>
<!-- trans_nfov_a_l1_l2a&#45;&gt;l2a_nfov_a_man -->
<g id="edge7" class="edge">
<title>trans_nfov_a_l1_l2a&#45;&gt;l2a_nfov_a_man</title>
<path fill="none" stroke="black" d="M548.66,-126C548.66,-126 574.03,-126 574.03,-126"/>
<polygon fill="black" stroke="black" points="574.03,-129.5 584.03,-126 574.03,-122.5 574.03,-129.5"/>
</g>
<!-- l2a_nfov_a_log -->
<g id="node23" class="node">
<title>l2a_nfov_a_log</title>
<ellipse fill="none" stroke="black" cx="710.41" cy="-72" rx="99.38" ry="18"/>
<text text-anchor="middle" x="710.41" y="-68.3" font-family="Times,serif" font-size="14.00">L2a log_nfov_a 1..1</text>
</g>
<!-- trans_nfov_a_l1_l2a&#45;&gt;l2a_nfov_a_log -->
<g id="edge8" class="edge">
<title>trans_nfov_a_l1_l2a&#45;&gt;l2a_nfov_a_log</title>
<path fill="none" stroke="black" d="M535.98,-72C535.98,-72 600.93,-72 600.93,-72"/>
<polygon fill="black" stroke="black" points="600.93,-75.5 610.93,-72 600.93,-68.5 600.93,-75.5"/>
</g>
<!-- l2a_nfov_a_demux -->
<g id="node2" class="node">
<title>l2a_nfov_a_demux</title>
<ellipse fill="none" stroke="black" cx="973.61" cy="-103" rx="101.23" ry="101.23"/>
<text text-anchor="middle" x="973.61" y="-106.8" font-family="Times,serif" font-size="14.00">nfov_a l2a Demux</text>
<text text-anchor="middle" x="973.61" y="-91.8" font-family="Times,serif" font-size="14.00">Exposure</text>
</g>
<!-- l2a_nfov_a_man_demux -->
<g id="node24" class="node">
<title>l2a_nfov_a_man_demux</title>
<ellipse fill="none" stroke="black" cx="1260.23" cy="-148" rx="139.98" ry="18"/>
<text text-anchor="middle" x="1260.23" y="-144.3" font-family="Times,serif" font-size="14.00">L2a_nfov_a(E) manifest 1..1</text>
</g>
<!-- l2a_nfov_a_demux&#45;&gt;l2a_nfov_a_man_demux -->
<g id="edge22" class="edge">
<title>l2a_nfov_a_demux&#45;&gt;l2a_nfov_a_man_demux</title>
<path fill="none" stroke="black" d="M1064.3,-148C1064.3,-148 1110.39,-148 1110.39,-148"/>
<polygon fill="black" stroke="black" points="1110.39,-151.5 1120.39,-148 1110.39,-144.5 1110.39,-151.5"/>
</g>
<!-- trans_nfov_a_l2a_l2b -->
<g id="node3" class="node">
<title>trans_nfov_a_l2a_l2b</title>
<ellipse fill="none" stroke="black" cx="1567.35" cy="-398" rx="121.74" ry="121.74"/>
<text text-anchor="middle" x="1567.35" y="-401.8" font-family="Times,serif" font-size="14.00">nfov_a Transmutation</text>
<text text-anchor="middle" x="1567.35" y="-386.8" font-family="Times,serif" font-size="14.00">L2a to L2b</text>
</g>
<!-- l2b_nfov_a_prod -->
<g id="node25" class="node">
<title>l2b_nfov_a_prod</title>
<polygon fill="none" stroke="black" points="2235.45,-520 2040.45,-520 2040.45,-484 2235.45,-484 2235.45,-520"/>
<text text-anchor="middle" x="2137.95" y="-498.3" font-family="Times,serif" font-size="14.00">L2b_nfov_a products 1..1</text>
</g>
<!-- trans_nfov_a_l2a_l2b&#45;&gt;l2b_nfov_a_prod -->
<g id="edge18" class="edge">
<title>trans_nfov_a_l2a_l2b&#45;&gt;l2b_nfov_a_prod</title>
<path fill="none" stroke="black" d="M1630.87,-501.81C1630.87,-501.81 2030.22,-501.81 2030.22,-501.81"/>
<polygon fill="black" stroke="black" points="2030.22,-505.31 2040.22,-501.81 2030.22,-498.31 2030.22,-505.31"/>
</g>
<!-- l2b_nfov_a_man_demux -->
<g id="node32" class="node">
<title>l2b_nfov_a_man_demux</title>
<ellipse fill="none" stroke="black" cx="1864.71" cy="-398" rx="139.98" ry="18"/>
<text text-anchor="middle" x="1864.71" y="-394.3" font-family="Times,serif" font-size="14.00">L2b_nfov_a(E) manifest 1..1</text>
</g>
<!-- trans_nfov_a_l2a_l2b&#45;&gt;l2b_nfov_a_man_demux -->
<g id="edge19" class="edge">
<title>trans_nfov_a_l2a_l2b&#45;&gt;l2b_nfov_a_man_demux</title>
<path fill="none" stroke="black" d="M1689.16,-398C1689.16,-398 1714.67,-398 1714.67,-398"/>
<polygon fill="black" stroke="black" points="1714.67,-401.5 1724.67,-398 1714.67,-394.5 1714.67,-401.5"/>
</g>
<!-- l2b_nfov_a_log -->
<g id="node33" class="node">
<title>l2b_nfov_a_log</title>
<ellipse fill="none" stroke="black" cx="1864.71" cy="-344" rx="100.18" ry="18"/>
<text text-anchor="middle" x="1864.71" y="-340.3" font-family="Times,serif" font-size="14.00">L2b_nfov_a log 1..1</text>
</g>
<!-- trans_nfov_a_l2a_l2b&#45;&gt;l2b_nfov_a_log -->
<g id="edge20" class="edge">
<title>trans_nfov_a_l2a_l2b&#45;&gt;l2b_nfov_a_log</title>
<path fill="none" stroke="black" d="M1676.39,-344C1676.39,-344 1754.57,-344 1754.57,-344"/>
<polygon fill="black" stroke="black" points="1754.57,-347.5 1764.57,-344 1754.57,-340.5 1754.57,-347.5"/>
</g>
<!-- l2b_nfov_a_mux -->
<g id="node4" class="node">
<title>l2b_nfov_a_mux</title>
<ellipse fill="none" stroke="black" cx="2137.95" cy="-378" rx="88.28" ry="88.28"/>
<text text-anchor="middle" x="2137.95" y="-381.8" font-family="Times,serif" font-size="14.00">nfov_a l2b Mux</text>
<text text-anchor="middle" x="2137.95" y="-366.8" font-family="Times,serif" font-size="14.00">Exposure</text>
</g>
<!-- l2b_nfov_a_man -->
<g id="node26" class="node">
<title>l2b_nfov_a_man</title>
<ellipse fill="none" stroke="black" cx="2422.45" cy="-417" rx="126.18" ry="18"/>
<text text-anchor="middle" x="2422.45" y="-413.3" font-family="Times,serif" font-size="14.00">L2b_nfov_a manifest 1..1</text>
</g>
<!-- l2b_nfov_a_mux&#45;&gt;l2b_nfov_a_man -->
<g id="edge25" class="edge">
<title>l2b_nfov_a_mux&#45;&gt;l2b_nfov_a_man</title>
<path fill="none" stroke="black" d="M2217.58,-417C2217.58,-417 2286.2,-417 2286.2,-417"/>
<polygon fill="black" stroke="black" points="2286.2,-420.5 2296.2,-417 2286.2,-413.5 2286.2,-420.5"/>
</g>
<!-- trans_nfov_a_l2b_l3 -->
<g id="node5" class="node">
<title>trans_nfov_a_l2b_l3</title>
<ellipse fill="none" stroke="black" cx="2731.07" cy="-582" rx="121.74" ry="121.74"/>
<text text-anchor="middle" x="2731.07" y="-585.8" font-family="Times,serif" font-size="14.00">nfov_a Transmutation</text>
<text text-anchor="middle" x="2731.07" y="-570.8" font-family="Times,serif" font-size="14.00">L2b to L3</text>
</g>
<!-- l3_nfov_a_prod -->
<g id="node34" class="node">
<title>l3_nfov_a_prod</title>
<polygon fill="none" stroke="black" points="3116.23,-654 2930.23,-654 2930.23,-618 3116.23,-618 3116.23,-654"/>
<text text-anchor="middle" x="3023.23" y="-632.3" font-family="Times,serif" font-size="14.00">L3_nfov_a products 1..1</text>
</g>
<!-- trans_nfov_a_l2b_l3&#45;&gt;l3_nfov_a_prod -->
<g id="edge33" class="edge">
<title>trans_nfov_a_l2b_l3&#45;&gt;l3_nfov_a_prod</title>
<path fill="none" stroke="black" d="M2840.28,-636C2840.28,-636 2919.96,-636 2919.96,-636"/>
<polygon fill="black" stroke="black" points="2919.96,-639.5 2929.96,-636 2919.96,-632.5 2919.96,-639.5"/>
</g>
<!-- l3_nfov_a_man -->
<g id="node36" class="node">
<title>l3_nfov_a_man</title>
<ellipse fill="none" stroke="black" cx="3023.23" cy="-582" rx="120.48" ry="18"/>
<text text-anchor="middle" x="3023.23" y="-578.3" font-family="Times,serif" font-size="14.00">L3_nfov_a manifest 1..1</text>
</g>
<!-- trans_nfov_a_l2b_l3&#45;&gt;l3_nfov_a_man -->
<g id="edge34" class="edge">
<title>trans_nfov_a_l2b_l3&#45;&gt;l3_nfov_a_man</title>
<path fill="none" stroke="black" d="M2852.86,-582C2852.86,-582 2892.58,-582 2892.58,-582"/>
<polygon fill="black" stroke="black" points="2892.58,-585.5 2902.58,-582 2892.58,-578.5 2892.58,-585.5"/>
</g>
<!-- l3_nfov_a_log -->
<g id="node39" class="node">
<title>l3_nfov_a_log</title>
<ellipse fill="none" stroke="black" cx="3023.23" cy="-528" rx="94.48" ry="18"/>
<text text-anchor="middle" x="3023.23" y="-524.3" font-family="Times,serif" font-size="14.00">L3_nfov_a log 1..1</text>
</g>
<!-- trans_nfov_a_l2b_l3&#45;&gt;l3_nfov_a_log -->
<g id="edge35" class="edge">
<title>trans_nfov_a_l2b_l3&#45;&gt;l3_nfov_a_log</title>
<path fill="none" stroke="black" d="M2840.28,-528C2840.28,-528 2918.55,-528 2918.55,-528"/>
<polygon fill="black" stroke="black" points="2918.55,-531.5 2928.55,-528 2918.55,-524.5 2918.55,-531.5"/>
</g>
<!-- trans_nfov_a_l3_l4 -->
<g id="node6" class="node">
<title>trans_nfov_a_l3_l4</title>
<ellipse fill="none" stroke="black" cx="3315.39" cy="-690" rx="121.74" ry="121.74"/>
<text text-anchor="middle" x="3315.39" y="-693.8" font-family="Times,serif" font-size="14.00">nfov_a Transmutation</text>
<text text-anchor="middle" x="3315.39" y="-678.8" font-family="Times,serif" font-size="14.00">L3 to L4</text>
</g>
<!-- l4_nfov_a_prod -->
<g id="node40" class="node">
<title>l4_nfov_a_prod</title>
<polygon fill="none" stroke="black" points="3730.02,-762 3544.02,-762 3544.02,-726 3730.02,-726 3730.02,-762"/>
<text text-anchor="middle" x="3637.02" y="-740.3" font-family="Times,serif" font-size="14.00">L4_nfov_a products 1..1</text>
</g>
<!-- trans_nfov_a_l3_l4&#45;&gt;l4_nfov_a_prod -->
<g id="edge41" class="edge">
<title>trans_nfov_a_l3_l4&#45;&gt;l4_nfov_a_prod</title>
<path fill="none" stroke="black" d="M3424.73,-744C3424.73,-744 3533.8,-744 3533.8,-744"/>
<polygon fill="black" stroke="black" points="3533.8,-747.5 3543.8,-744 3533.8,-740.5 3533.8,-747.5"/>
</g>
<!-- l4_nfov_a_log -->
<g id="node42" class="node">
<title>l4_nfov_a_log</title>
<ellipse fill="none" stroke="black" cx="3637.02" cy="-690" rx="94.48" ry="18"/>
<text text-anchor="middle" x="3637.02" y="-686.3" font-family="Times,serif" font-size="14.00">L4_nfov_a log 1..1</text>
</g>
<!-- trans_nfov_a_l3_l4&#45;&gt;l4_nfov_a_log -->
<g id="edge42" class="edge">
<title>trans_nfov_a_l3_l4&#45;&gt;l4_nfov_a_log</title>
<path fill="none" stroke="black" d="M3437.44,-690C3437.44,-690 3532.59,-690 3532.59,-690"/>
<polygon fill="black" stroke="black" points="3532.59,-693.5 3542.59,-690 3532.59,-686.5 3532.59,-693.5"/>
</g>
<!-- l4_nfov_a_man -->
<g id="node43" class="node">
<title>l4_nfov_a_man</title>
<ellipse fill="none" stroke="black" cx="3637.02" cy="-636" rx="120.48" ry="18"/>
<text text-anchor="middle" x="3637.02" y="-632.3" font-family="Times,serif" font-size="14.00">L4_nfov_a manifest 1..1</text>
</g>
<!-- trans_nfov_a_l3_l4&#45;&gt;l4_nfov_a_man -->
<g id="edge43" class="edge">
<title>trans_nfov_a_l3_l4&#45;&gt;l4_nfov_a_man</title>
<path fill="none" stroke="black" d="M3424.73,-636C3424.73,-636 3506.68,-636 3506.68,-636"/>
<polygon fill="black" stroke="black" points="3506.68,-639.5 3516.68,-636 3506.68,-632.5 3506.68,-639.5"/>
</g>
<!-- trans_nfov_a_l4_tda -->
<g id="node7" class="node">
<title>trans_nfov_a_l4_tda</title>
<ellipse fill="none" stroke="black" cx="3958.64" cy="-852" rx="121.74" ry="121.74"/>
<text text-anchor="middle" x="3958.64" y="-855.8" font-family="Times,serif" font-size="14.00">nfov_a Transmutation</text>
<text text-anchor="middle" x="3958.64" y="-840.8" font-family="Times,serif" font-size="14.00">L4 to TDA</text>
</g>
<!-- tda_nfov_a_prod -->
<g id="node48" class="node">
<title>tda_nfov_a_prod</title>
<ellipse fill="none" stroke="black" cx="4202.05" cy="-879" rx="85.59" ry="18"/>
<text text-anchor="middle" x="4202.05" y="-875.3" font-family="Times,serif" font-size="14.00">tda_nfov_a_prod</text>
</g>
<!-- trans_nfov_a_l4_tda&#45;&gt;tda_nfov_a_prod -->
<g id="edge51" class="edge">
<title>trans_nfov_a_l4_tda&#45;&gt;tda_nfov_a_prod</title>
<path fill="none" stroke="black" d="M4077.49,-879C4077.49,-879 4106.13,-879 4106.13,-879"/>
<polygon fill="black" stroke="black" points="4106.13,-882.5 4116.13,-879 4106.13,-875.5 4106.13,-882.5"/>
</g>
<!-- tda_nfov_a_log -->
<g id="node49" class="node">
<title>tda_nfov_a_log</title>
<ellipse fill="none" stroke="black" cx="4202.05" cy="-825" rx="78.79" ry="18"/>
<text text-anchor="middle" x="4202.05" y="-821.3" font-family="Times,serif" font-size="14.00">tda_nfov_a_log</text>
</g>
<!-- trans_nfov_a_l4_tda&#45;&gt;tda_nfov_a_log -->
<g id="edge52" class="edge">
<title>trans_nfov_a_l4_tda&#45;&gt;tda_nfov_a_log</title>
<path fill="none" stroke="black" d="M4077.49,-825C4077.49,-825 4113.37,-825 4113.37,-825"/>
<polygon fill="black" stroke="black" points="4113.37,-828.5 4123.37,-825 4113.37,-821.5 4113.37,-828.5"/>
</g>
<!-- l1_nfov_a_prod -->
<g id="node8" class="node">
<title>l1_nfov_a_prod</title>
<polygon fill="none" stroke="black" points="227.54,-252 41.54,-252 41.54,-216 227.54,-216 227.54,-252"/>
<text text-anchor="middle" x="134.54" y="-230.3" font-family="Times,serif" font-size="14.00">L1_nfov_a products 1..b</text>
</g>
<!-- l1_nfov_a_prod&#45;&gt;trans_nfov_a_l1_l2a -->
<g id="edge1" class="edge">
<title>l1_nfov_a_prod&#45;&gt;trans_nfov_a_l1_l2a</title>
<path fill="none" stroke="black" d="M227.78,-231.81C227.78,-231.81 356.49,-231.81 356.49,-231.81"/>
<polygon fill="black" stroke="black" points="356.49,-235.31 366.49,-231.81 356.49,-228.31 356.49,-235.31"/>
</g>
<!-- l1_nfov_a_man -->
<g id="node9" class="node">
<title>l1_nfov_a_man</title>
<ellipse fill="none" stroke="black" cx="134.54" cy="-180" rx="120.48" ry="18"/>
<text text-anchor="middle" x="134.54" y="-176.3" font-family="Times,serif" font-size="14.00">L1_nfov_a manifest 1..1</text>
</g>
<!-- l1_nfov_a_man&#45;&gt;trans_nfov_a_l1_l2a -->
<g id="edge2" class="edge">
<title>l1_nfov_a_man&#45;&gt;trans_nfov_a_l1_l2a</title>
<path fill="none" stroke="black" d="M255.06,-180C255.06,-180 307.69,-180 307.69,-180"/>
<polygon fill="black" stroke="black" points="307.69,-183.5 317.69,-180 307.69,-176.5 307.69,-183.5"/>
</g>
<!-- l1_nfov_a_odir -->
<g id="node10" class="node">
<title>l1_nfov_a_odir</title>
<ellipse fill="none" stroke="black" cx="134.54" cy="-126" rx="134.58" ry="18"/>
<text text-anchor="middle" x="134.54" y="-122.3" font-family="Times,serif" font-size="14.00">L1_nfov_a output path 1..1</text>
</g>
<!-- l1_nfov_a_odir&#45;&gt;trans_nfov_a_l1_l2a -->
<g id="edge3" class="edge">
<title>l1_nfov_a_odir&#45;&gt;trans_nfov_a_l1_l2a</title>
<path fill="none" stroke="black" d="M269.5,-126C269.5,-126 294.92,-126 294.92,-126"/>
<polygon fill="black" stroke="black" points="294.92,-129.5 304.92,-126 294.92,-122.5 294.92,-129.5"/>
</g>
<!-- l1_nfov_a_rec -->
<g id="node11" class="node">
<title>l1_nfov_a_rec</title>
<polygon fill="none" stroke="black" points="206.04,-84 51.04,-84 51.04,-60 206.04,-60 218.04,-72 206.04,-84"/>
<text text-anchor="middle" x="134.54" y="-68.3" font-family="Times,serif" font-size="14.00">L1_nfov_a recipe 1..1</text>
</g>
<!-- l1_nfov_a_rec&#45;&gt;trans_nfov_a_l1_l2a -->
<g id="edge4" class="edge">
<title>l1_nfov_a_rec&#45;&gt;trans_nfov_a_l1_l2a</title>
<path fill="none" stroke="black" d="M218.26,-72C218.26,-72 307.6,-72 307.6,-72"/>
<polygon fill="black" stroke="black" points="307.6,-75.5 317.6,-72 307.6,-68.5 307.6,-75.5"/>
</g>
<!-- l1_nfov_a_nllut -->
<g id="node12" class="node">
<title>l1_nfov_a_nllut</title>
<polygon fill="none" stroke="black" points="237.04,-30 20.04,-30 20.04,-6 237.04,-6 249.04,-18 237.04,-30"/>
<text text-anchor="middle" x="134.54" y="-14.3" font-family="Times,serif" font-size="14.00">L1_nfov_a non&#45;linear LUT 1..1</text>
</g>
<!-- l1_nfov_a_nllut&#45;&gt;trans_nfov_a_l1_l2a -->
<g id="edge5" class="edge">
<title>l1_nfov_a_nllut&#45;&gt;trans_nfov_a_l1_l2a</title>
<path fill="none" stroke="black" d="M249.17,-20.19C249.17,-20.19 356.62,-20.19 356.62,-20.19"/>
<polygon fill="black" stroke="black" points="356.62,-23.69 366.62,-20.19 356.62,-16.69 356.62,-23.69"/>
</g>
<!-- l2a_nfov_a_prod&#45;&gt;trans_nfov_a_l2a_l2b -->
<g id="edge9" class="edge">
<title>l2a_nfov_a_prod&#45;&gt;trans_nfov_a_l2a_l2b</title>
<path fill="none" stroke="black" d="M973.85,-258.15C973.85,-274 973.85,-294.5 973.85,-294.5 973.85,-294.5 1493.27,-294.5 1493.27,-294.5"/>
<polygon fill="black" stroke="black" points="1493.27,-298 1503.27,-294.5 1493.27,-291 1493.27,-298"/>
</g>
<!-- l2a_nfov_a_man&#45;&gt;l2a_nfov_a_demux -->
<g id="edge21" class="edge">
<title>l2a_nfov_a_man&#45;&gt;l2a_nfov_a_demux</title>
<path fill="none" stroke="black" d="M836.62,-126C836.62,-126 865.11,-126 865.11,-126"/>
<polygon fill="black" stroke="black" points="865.11,-129.5 875.11,-126 865.11,-122.5 865.11,-129.5"/>
</g>
<!-- l2a_nfov_a_odir -->
<g id="node15" class="node">
<title>l2a_nfov_a_odir</title>
<ellipse fill="none" stroke="black" cx="1260.23" cy="-643" rx="139.98" ry="18"/>
<text text-anchor="middle" x="1260.23" y="-639.3" font-family="Times,serif" font-size="14.00">L2a_nfov_a output path 1..1</text>
</g>
<!-- l2a_nfov_a_odir&#45;&gt;trans_nfov_a_l2a_l2b -->
<g id="edge11" class="edge">
<title>l2a_nfov_a_odir&#45;&gt;trans_nfov_a_l2a_l2b</title>
<path fill="none" stroke="black" d="M1397.51,-639.5C1495.07,-639.5 1608.85,-639.5 1608.85,-639.5 1608.85,-639.5 1608.85,-522.38 1608.85,-522.38"/>
<polygon fill="black" stroke="black" points="1612.35,-522.38 1608.85,-512.38 1605.35,-522.38 1612.35,-522.38"/>
</g>
<!-- l2a_nfov_a_rec -->
<g id="node16" class="node">
<title>l2a_nfov_a_rec</title>
<polygon fill="none" stroke="black" points="1336.23,-601 1172.23,-601 1172.23,-577 1336.23,-577 1348.23,-589 1336.23,-601"/>
<text text-anchor="middle" x="1260.23" y="-585.3" font-family="Times,serif" font-size="14.00">L2a_nfov_a recipe 1..1</text>
</g>
<!-- l2a_nfov_a_rec&#45;&gt;trans_nfov_a_l2a_l2b -->
<g id="edge12" class="edge">
<title>l2a_nfov_a_rec&#45;&gt;trans_nfov_a_l2a_l2b</title>
<path fill="none" stroke="black" d="M1348.27,-585.5C1425.93,-585.5 1526.85,-585.5 1526.85,-585.5 1526.85,-585.5 1526.85,-522.74 1526.85,-522.74"/>
<polygon fill="black" stroke="black" points="1530.35,-522.74 1526.85,-512.74 1523.35,-522.74 1530.35,-522.74"/>
</g>
<!-- l2a_nfov_a_cti -->
<g id="node17" class="node">
<title>l2a_nfov_a_cti</title>
<polygon fill="none" stroke="black" points="1397.73,-547 1110.73,-547 1110.73,-523 1397.73,-523 1409.73,-535 1397.73,-547"/>
<text text-anchor="middle" x="1260.23" y="-531.3" font-family="Times,serif" font-size="14.00">L2a_nfov_a charge xfer inefficiency 1..1</text>
</g>
<!-- l2a_nfov_a_cti&#45;&gt;trans_nfov_a_l2a_l2b -->
<g id="edge13" class="edge">
<title>l2a_nfov_a_cti&#45;&gt;trans_nfov_a_l2a_l2b</title>
<path fill="none" stroke="black" stroke-dasharray="5,2" d="M1397.85,-516.84C1397.85,-511.96 1397.85,-508 1397.85,-508 1397.85,-508 1505.11,-508 1505.11,-508"/>
<polygon fill="black" stroke="black" points="1505.11,-511.5 1515.11,-508 1505.11,-504.5 1505.11,-511.5"/>
</g>
<!-- l2a_nfov_a_dnb -->
<g id="node18" class="node">
<title>l2a_nfov_a_dnb</title>
<polygon fill="none" stroke="black" points="1379.23,-493 1129.23,-493 1129.23,-467 1379.23,-467 1391.23,-480 1379.23,-493"/>
<text text-anchor="middle" x="1260.23" y="-483.8" font-family="Times,serif" font-size="14.00">L2a_nfov_a CIC/Dark Current/FPN</text>
<text text-anchor="middle" x="1260.23" y="-468.8" font-family="Times,serif" font-size="14.00"> or master dark 1..1</text>
</g>
<!-- l2a_nfov_a_dnb&#45;&gt;trans_nfov_a_l2a_l2b -->
<g id="edge14" class="edge">
<title>l2a_nfov_a_dnb&#45;&gt;trans_nfov_a_l2a_l2b</title>
<path fill="none" stroke="black" d="M1391.37,-480C1391.37,-480 1467.44,-480 1467.44,-480"/>
<polygon fill="black" stroke="black" points="1467.44,-483.5 1477.44,-480 1467.44,-476.5 1467.44,-483.5"/>
</g>
<!-- l2a_nfov_a_mbpm -->
<g id="node19" class="node">
<title>l2a_nfov_a_mbpm</title>
<polygon fill="none" stroke="black" points="1391.73,-437 1116.73,-437 1116.73,-413 1391.73,-413 1403.73,-425 1391.73,-437"/>
<text text-anchor="middle" x="1260.23" y="-421.3" font-family="Times,serif" font-size="14.00">L2a_nfov_a master bad pixel map 1..1</text>
</g>
<!-- l2a_nfov_a_mbpm&#45;&gt;trans_nfov_a_l2a_l2b -->
<g id="edge15" class="edge">
<title>l2a_nfov_a_mbpm&#45;&gt;trans_nfov_a_l2a_l2b</title>
<path fill="none" stroke="black" d="M1403.9,-425C1403.9,-425 1438.67,-425 1438.67,-425"/>
<polygon fill="black" stroke="black" points="1438.67,-428.5 1448.67,-425 1438.67,-421.5 1438.67,-428.5"/>
</g>
<!-- l2a_nfov_a_ff -->
<g id="node20" class="node">
<title>l2a_nfov_a_ff</title>
<polygon fill="none" stroke="black" points="1346.73,-383 1161.73,-383 1161.73,-359 1346.73,-359 1358.73,-371 1346.73,-383"/>
<text text-anchor="middle" x="1260.23" y="-367.3" font-family="Times,serif" font-size="14.00">L2a_nfov_a flat fields 1..1</text>
</g>
<!-- l2a_nfov_a_ff&#45;&gt;trans_nfov_a_l2a_l2b -->
<g id="edge16" class="edge">
<title>l2a_nfov_a_ff&#45;&gt;trans_nfov_a_l2a_l2b</title>
<path fill="none" stroke="black" d="M1359.1,-371C1359.1,-371 1438.55,-371 1438.55,-371"/>
<polygon fill="black" stroke="black" points="1438.55,-374.5 1448.55,-371 1438.55,-367.5 1438.55,-374.5"/>
</g>
<!-- l2a_nfov_a_emg -->
<g id="node21" class="node">
<title>l2a_nfov_a_emg</title>
<polygon fill="none" stroke="black" points="1343.73,-329 1164.73,-329 1164.73,-305 1343.73,-305 1355.73,-317 1343.73,-329"/>
<text text-anchor="middle" x="1260.23" y="-313.3" font-family="Times,serif" font-size="14.00">L2a_nfov_a EM gain 1..1</text>
</g>
<!-- l2a_nfov_a_emg&#45;&gt;trans_nfov_a_l2a_l2b -->
<g id="edge17" class="edge">
<title>l2a_nfov_a_emg&#45;&gt;trans_nfov_a_l2a_l2b</title>
<path fill="none" stroke="black" d="M1356.14,-317C1356.14,-317 1466.62,-317 1466.62,-317"/>
<polygon fill="black" stroke="black" points="1466.62,-320.5 1476.62,-317 1466.62,-313.5 1466.62,-320.5"/>
</g>
<!-- l2a_nfov_a_kgain -->
<g id="node22" class="node">
<title>l2a_nfov_a_kgain</title>
<polygon fill="none" stroke="black" points="1330.23,-275 1178.23,-275 1178.23,-251 1330.23,-251 1342.23,-263 1330.23,-275"/>
<text text-anchor="middle" x="1260.23" y="-259.3" font-family="Times,serif" font-size="14.00">L2_nfov_a Kgain 1..1</text>
</g>
<!-- l2a_nfov_a_kgain&#45;&gt;trans_nfov_a_l2a_l2b -->
<g id="edge10" class="edge">
<title>l2a_nfov_a_kgain&#45;&gt;trans_nfov_a_l2a_l2b</title>
<path fill="none" stroke="black" d="M1260.85,-281.16C1260.85,-286.04 1260.85,-290 1260.85,-290 1260.85,-290 1501.14,-290 1501.14,-290"/>
<polygon fill="black" stroke="black" points="1501.14,-293.5 1511.14,-290 1501.14,-286.5 1501.14,-293.5"/>
</g>
<!-- l2a_nfov_a_man_demux&#45;&gt;trans_nfov_a_l2a_l2b -->
<g id="edge23" class="edge">
<title>l2a_nfov_a_man_demux&#45;&gt;trans_nfov_a_l2a_l2b</title>
<path fill="none" stroke="black" d="M1379.85,-157.45C1379.85,-188.52 1379.85,-285.5 1379.85,-285.5 1379.85,-285.5 1511,-285.5 1511,-285.5"/>
<polygon fill="black" stroke="black" points="1511,-289 1521,-285.5 1511,-282 1511,-289"/>
</g>
<!-- l2b_nfov_a_prod&#45;&gt;trans_nfov_a_l2b_l3 -->
<g id="edge26" class="edge">
<title>l2b_nfov_a_prod&#45;&gt;trans_nfov_a_l2b_l3</title>
<path fill="none" stroke="black" d="M2235.56,-497C2235.56,-497 2634,-497 2634,-497"/>
<polygon fill="black" stroke="black" points="2634,-500.5 2644,-497 2634,-493.5 2634,-500.5"/>
</g>
<!-- l2b_nfov_a_man&#45;&gt;trans_nfov_a_l2b_l3 -->
<g id="edge27" class="edge">
<title>l2b_nfov_a_man&#45;&gt;trans_nfov_a_l2b_l3</title>
<path fill="none" stroke="black" d="M2544.85,-421.57C2544.85,-435.29 2544.85,-475.19 2544.85,-475.19 2544.85,-475.19 2662.66,-475.19 2662.66,-475.19"/>
<polygon fill="black" stroke="black" points="2662.66,-478.69 2672.66,-475.19 2662.66,-471.69 2662.66,-478.69"/>
</g>
<!-- l2b_nfov_a_odir -->
<g id="node27" class="node">
<title>l2b_nfov_a_odir</title>
<ellipse fill="none" stroke="black" cx="2422.45" cy="-744" rx="140.28" ry="18"/>
<text text-anchor="middle" x="2422.45" y="-740.3" font-family="Times,serif" font-size="14.00">L2b_nfov_a output path 1..1</text>
</g>
<!-- l2b_nfov_a_odir&#45;&gt;trans_nfov_a_l2b_l3 -->
<g id="edge28" class="edge">
<title>l2b_nfov_a_odir&#45;&gt;trans_nfov_a_l2b_l3</title>
<path fill="none" stroke="black" d="M2536.85,-733.2C2536.85,-718.25 2536.85,-693.08 2536.85,-693.08 2536.85,-693.08 2671.31,-693.08 2671.31,-693.08"/>
<polygon fill="black" stroke="black" points="2671.31,-696.58 2681.31,-693.08 2671.31,-689.58 2671.31,-696.58"/>
</g>
<!-- l2b_nfov_a_rec -->
<g id="node28" class="node">
<title>l2b_nfov_a_rec</title>
<polygon fill="none" stroke="black" points="2498.45,-702 2334.45,-702 2334.45,-678 2498.45,-678 2510.45,-690 2498.45,-702"/>
<text text-anchor="middle" x="2422.45" y="-686.3" font-family="Times,serif" font-size="14.00">L2b_nfov_a recipe 1..1</text>
</g>
<!-- l2b_nfov_a_rec&#45;&gt;trans_nfov_a_l2b_l3 -->
<g id="edge29" class="edge">
<title>l2b_nfov_a_rec&#45;&gt;trans_nfov_a_l2b_l3</title>
<path fill="none" stroke="black" d="M2510.48,-682.54C2510.48,-682.54 2652.55,-682.54 2652.55,-682.54"/>
<polygon fill="black" stroke="black" points="2652.55,-686.04 2662.55,-682.54 2652.55,-679.04 2652.55,-686.04"/>
</g>
<!-- l2b_nfov_a_excicrf -->
<g id="node29" class="node">
<title>l2b_nfov_a_excicrf</title>
<polygon fill="none" stroke="black" points="2554.45,-648 2278.45,-648 2278.45,-624 2554.45,-624 2566.45,-636 2554.45,-648"/>
<text text-anchor="middle" x="2422.45" y="-632.3" font-family="Times,serif" font-size="14.00">L2b_nfov_a EXCAM ICRF location 1..1</text>
</g>
<!-- l2b_nfov_a_excicrf&#45;&gt;trans_nfov_a_l2b_l3 -->
<g id="edge30" class="edge">
<title>l2b_nfov_a_excicrf&#45;&gt;trans_nfov_a_l2b_l3</title>
<path fill="none" stroke="black" d="M2566.82,-636C2566.82,-636 2611.86,-636 2611.86,-636"/>
<polygon fill="black" stroke="black" points="2611.86,-639.5 2621.86,-636 2611.86,-632.5 2611.86,-639.5"/>
</g>
<!-- l2b_nfov_a_excfovps -->
<g id="node30" class="node">
<title>l2b_nfov_a_excfovps</title>
<polygon fill="none" stroke="black" points="2561.45,-594 2271.45,-594 2271.45,-570 2561.45,-570 2573.45,-582 2561.45,-594"/>
<text text-anchor="middle" x="2422.45" y="-578.3" font-family="Times,serif" font-size="14.00">L2b_nfov_a EXCAM FOV pixel scale 1..1</text>
</g>
<!-- l2b_nfov_a_excfovps&#45;&gt;trans_nfov_a_l2b_l3 -->
<g id="edge31" class="edge">
<title>l2b_nfov_a_excfovps&#45;&gt;trans_nfov_a_l2b_l3</title>
<path fill="none" stroke="black" d="M2573.6,-582C2573.6,-582 2599.13,-582 2599.13,-582"/>
<polygon fill="black" stroke="black" points="2599.13,-585.5 2609.13,-582 2599.13,-578.5 2599.13,-585.5"/>
</g>
<!-- l2b_nfov_a_distm -->
<g id="node31" class="node">
<title>l2b_nfov_a_distm</title>
<polygon fill="none" stroke="black" points="2528.95,-540 2303.95,-540 2303.95,-516 2528.95,-516 2540.95,-528 2528.95,-540"/>
<text text-anchor="middle" x="2422.45" y="-524.3" font-family="Times,serif" font-size="14.00">L2b_nfov_a distortion map 1..1</text>
</g>
<!-- l2b_nfov_a_distm&#45;&gt;trans_nfov_a_l2b_l3 -->
<g id="edge32" class="edge">
<title>l2b_nfov_a_distm&#45;&gt;trans_nfov_a_l2b_l3</title>
<path fill="none" stroke="black" d="M2541.33,-528C2541.33,-528 2611.86,-528 2611.86,-528"/>
<polygon fill="black" stroke="black" points="2611.86,-531.5 2621.86,-528 2611.86,-524.5 2611.86,-531.5"/>
</g>
<!-- l2b_nfov_a_man_demux&#45;&gt;l2b_nfov_a_mux -->
<g id="edge24" class="edge">
<title>l2b_nfov_a_man_demux&#45;&gt;l2b_nfov_a_mux</title>
<path fill="none" stroke="black" d="M2004.53,-398C2004.53,-398 2041.53,-398 2041.53,-398"/>
<polygon fill="black" stroke="black" points="2041.53,-401.5 2051.53,-398 2041.53,-394.5 2041.53,-401.5"/>
</g>
<!-- l3_nfov_a_prod&#45;&gt;trans_nfov_a_l3_l4 -->
<g id="edge36" class="edge">
<title>l3_nfov_a_prod&#45;&gt;trans_nfov_a_l3_l4</title>
<path fill="none" stroke="black" d="M3116.48,-636C3116.48,-636 3196.22,-636 3196.22,-636"/>
<polygon fill="black" stroke="black" points="3196.22,-639.5 3206.22,-636 3196.22,-632.5 3196.22,-639.5"/>
</g>
<!-- l3_nfov_a_odir -->
<g id="node35" class="node">
<title>l3_nfov_a_odir</title>
<ellipse fill="none" stroke="black" cx="3023.23" cy="-798" rx="134.58" ry="18"/>
<text text-anchor="middle" x="3023.23" y="-794.3" font-family="Times,serif" font-size="14.00">L3_nfov_a output path 1..1</text>
</g>
<!-- l3_nfov_a_odir&#45;&gt;trans_nfov_a_l3_l4 -->
<g id="edge38" class="edge">
<title>l3_nfov_a_odir&#45;&gt;trans_nfov_a_l3_l4</title>
<path fill="none" stroke="black" d="M3156.92,-795.81C3156.92,-795.81 3245.2,-795.81 3245.2,-795.81"/>
<polygon fill="black" stroke="black" points="3245.2,-799.31 3255.2,-795.81 3245.2,-792.31 3245.2,-799.31"/>
</g>
<!-- l3_nfov_a_man&#45;&gt;trans_nfov_a_l3_l4 -->
<g id="edge37" class="edge">
<title>l3_nfov_a_man&#45;&gt;trans_nfov_a_l3_l4</title>
<path fill="none" stroke="black" d="M3142.91,-584.19C3142.91,-584.19 3245.1,-584.19 3245.1,-584.19"/>
<polygon fill="black" stroke="black" points="3245.1,-587.69 3255.1,-584.19 3245.1,-580.69 3245.1,-587.69"/>
</g>
<!-- l3_nfov_a_rec -->
<g id="node37" class="node">
<title>l3_nfov_a_rec</title>
<polygon fill="none" stroke="black" points="3094.73,-756 2939.73,-756 2939.73,-732 3094.73,-732 3106.73,-744 3094.73,-756"/>
<text text-anchor="middle" x="3023.23" y="-740.3" font-family="Times,serif" font-size="14.00">L3_nfov_a recipe 1..1</text>
</g>
<!-- l3_nfov_a_rec&#45;&gt;trans_nfov_a_l3_l4 -->
<g id="edge39" class="edge">
<title>l3_nfov_a_rec&#45;&gt;trans_nfov_a_l3_l4</title>
<path fill="none" stroke="black" d="M3106.96,-744C3106.96,-744 3196.3,-744 3196.3,-744"/>
<polygon fill="black" stroke="black" points="3196.3,-747.5 3206.3,-744 3196.3,-740.5 3196.3,-747.5"/>
</g>
<!-- l3_nfov_a_cal -->
<g id="node38" class="node">
<title>l3_nfov_a_cal</title>
<polygon fill="none" stroke="black" points="3111.23,-702 2923.23,-702 2923.23,-678 3111.23,-678 3123.23,-690 3111.23,-702"/>
<text text-anchor="middle" x="3023.23" y="-686.3" font-family="Times,serif" font-size="14.00">L3_nfov_a calibration 1..1</text>
</g>
<!-- l3_nfov_a_cal&#45;&gt;trans_nfov_a_l3_l4 -->
<g id="edge40" class="edge">
<title>l3_nfov_a_cal&#45;&gt;trans_nfov_a_l3_l4</title>
<path fill="none" stroke="black" d="M3123.37,-690C3123.37,-690 3183.68,-690 3183.68,-690"/>
<polygon fill="black" stroke="black" points="3183.68,-693.5 3193.68,-690 3183.68,-686.5 3183.68,-693.5"/>
</g>
<!-- l4_nfov_a_prod&#45;&gt;trans_nfov_a_l4_tda -->
<g id="edge44" class="edge">
<title>l4_nfov_a_prod&#45;&gt;trans_nfov_a_l4_tda</title>
<path fill="none" stroke="black" d="M3730.04,-751.46C3730.04,-751.46 3880.09,-751.46 3880.09,-751.46"/>
<polygon fill="black" stroke="black" points="3880.09,-754.96 3890.09,-751.46 3880.09,-747.96 3880.09,-754.96"/>
</g>
<!-- l4_nfov_a_odir -->
<g id="node41" class="node">
<title>l4_nfov_a_odir</title>
<ellipse fill="none" stroke="black" cx="3637.02" cy="-1014" rx="134.58" ry="18"/>
<text text-anchor="middle" x="3637.02" y="-1010.3" font-family="Times,serif" font-size="14.00">L4_nfov_a output path 1..1</text>
</g>
<!-- l4_nfov_a_odir&#45;&gt;trans_nfov_a_l4_tda -->
<g id="edge46" class="edge">
<title>l4_nfov_a_odir&#45;&gt;trans_nfov_a_l4_tda</title>
<path fill="none" stroke="black" d="M3746.85,-1003.2C3746.85,-988.25 3746.85,-963.08 3746.85,-963.08 3746.85,-963.08 3898.98,-963.08 3898.98,-963.08"/>
<polygon fill="black" stroke="black" points="3898.98,-966.58 3908.98,-963.08 3898.98,-959.58 3898.98,-966.58"/>
</g>
<!-- l4_nfov_a_man&#45;&gt;trans_nfov_a_l4_tda -->
<g id="edge45" class="edge">
<title>l4_nfov_a_man&#45;&gt;trans_nfov_a_l4_tda</title>
<path fill="none" stroke="black" d="M3744.85,-644.23C3744.85,-668.97 3744.85,-740.92 3744.85,-740.92 3744.85,-740.92 3899.05,-740.92 3899.05,-740.92"/>
<polygon fill="black" stroke="black" points="3899.05,-744.42 3909.05,-740.92 3899.05,-737.42 3899.05,-744.42"/>
</g>
<!-- l4_nfov_a_rec -->
<g id="node44" class="node">
<title>l4_nfov_a_rec</title>
<polygon fill="none" stroke="black" points="3708.52,-972 3553.52,-972 3553.52,-948 3708.52,-948 3720.52,-960 3708.52,-972"/>
<text text-anchor="middle" x="3637.02" y="-956.3" font-family="Times,serif" font-size="14.00">L4_nfov_a recipe 1..1</text>
</g>
<!-- l4_nfov_a_rec&#45;&gt;trans_nfov_a_l4_tda -->
<g id="edge47" class="edge">
<title>l4_nfov_a_rec&#45;&gt;trans_nfov_a_l4_tda</title>
<path fill="none" stroke="black" d="M3720.68,-952.54C3720.68,-952.54 3880.02,-952.54 3880.02,-952.54"/>
<polygon fill="black" stroke="black" points="3880.02,-956.04 3890.02,-952.54 3880.02,-949.04 3880.02,-956.04"/>
</g>
<!-- l4_nfov_a_afcal -->
<g id="node45" class="node">
<title>l4_nfov_a_afcal</title>
<polygon fill="none" stroke="black" points="3776.52,-918 3485.52,-918 3485.52,-894 3776.52,-894 3788.52,-906 3776.52,-918"/>
<text text-anchor="middle" x="3637.02" y="-902.3" font-family="Times,serif" font-size="14.00">L4_nfov_a absolute flux calibrations 1..1</text>
</g>
<!-- l4_nfov_a_afcal&#45;&gt;trans_nfov_a_l4_tda -->
<g id="edge48" class="edge">
<title>l4_nfov_a_afcal&#45;&gt;trans_nfov_a_l4_tda</title>
<path fill="none" stroke="black" d="M3788.88,-906C3788.88,-906 3839.61,-906 3839.61,-906"/>
<polygon fill="black" stroke="black" points="3839.61,-909.5 3849.61,-906 3839.61,-902.5 3839.61,-909.5"/>
</g>
<!-- l4_nfov_a_ctcal -->
<g id="node46" class="node">
<title>l4_nfov_a_ctcal</title>
<polygon fill="none" stroke="black" points="3789.02,-864 3473.02,-864 3473.02,-840 3789.02,-840 3801.02,-852 3789.02,-864"/>
<text text-anchor="middle" x="3637.02" y="-848.3" font-family="Times,serif" font-size="14.00">L4_nfov_a core throughput calibrations 1..1</text>
</g>
<!-- l4_nfov_a_ctcal&#45;&gt;trans_nfov_a_l4_tda -->
<g id="edge49" class="edge">
<title>l4_nfov_a_ctcal&#45;&gt;trans_nfov_a_l4_tda</title>
<path fill="none" stroke="black" d="M3801.13,-852C3801.13,-852 3826.56,-852 3826.56,-852"/>
<polygon fill="black" stroke="black" points="3826.56,-855.5 3836.56,-852 3826.56,-848.5 3826.56,-855.5"/>
</g>
<!-- l4_nfov_a_ndfilt -->
<g id="node47" class="node">
<title>l4_nfov_a_ndfilt</title>
<polygon fill="none" stroke="black" points="3717.52,-810 3544.52,-810 3544.52,-786 3717.52,-786 3729.52,-798 3717.52,-810"/>
<text text-anchor="middle" x="3637.02" y="-794.3" font-family="Times,serif" font-size="14.00">L4_nfov_a ND filter 1..1</text>
</g>
<!-- l4_nfov_a_ndfilt&#45;&gt;trans_nfov_a_l4_tda -->
<g id="edge50" class="edge">
<title>l4_nfov_a_ndfilt&#45;&gt;trans_nfov_a_l4_tda</title>
<path fill="none" stroke="black" d="M3729.61,-798C3729.61,-798 3839.66,-798 3839.66,-798"/>
<polygon fill="black" stroke="black" points="3839.66,-801.5 3849.66,-798 3839.66,-794.5 3839.66,-801.5"/>
</g>
</g>
</svg>
