<?xml version="1.0" encoding="UTF-8" standalone="no"?>
<!DOCTYPE svg PUBLIC "-//W3C//DTD SVG 1.1//EN"
 "http://www.w3.org/Graphics/SVG/1.1/DTD/svg11.dtd">
<!-- Generated by graphviz version 2.43.0 (0)
 -->
<!-- Title: NarrowFieldOfViewPhotonCount Pages: 1 -->
<svg width="2353pt" height="828pt"
 viewBox="0.00 0.00 2352.55 828.28" xmlns="http://www.w3.org/2000/svg" xmlns:xlink="http://www.w3.org/1999/xlink">
<g id="graph0" class="graph" transform="scale(1 1) rotate(0) translate(4 824.28)">
<title>NarrowFieldOfViewPhotonCount</title>
<polygon fill="white" stroke="transparent" points="-4,4 -4,-824.28 2348.55,-824.28 2348.55,4 -4,4"/>
<!-- trans_nfov_pc_l1_l2a -->
<g id="node1" class="node">
<title>trans_nfov_pc_l1_l2a</title>
<ellipse fill="none" stroke="black" cx="493.45" cy="-127.28" rx="127.06" ry="127.06"/>
<text text-anchor="middle" x="493.45" y="-131.08" font-family="Times,serif" font-size="14.00">nfov_pc Transmutation</text>
<text text-anchor="middle" x="493.45" y="-116.08" font-family="Times,serif" font-size="14.00">L1 to L2a</text>
</g>
<!-- l2a_nfov_pc_prod -->
<g id="node10" class="node">
<title>l2a_nfov_pc_prod</title>
<polygon fill="none" stroke="black" points="939.56,-226.28 736.56,-226.28 736.56,-190.28 939.56,-190.28 939.56,-226.28"/>
<text text-anchor="middle" x="838.06" y="-204.58" font-family="Times,serif" font-size="14.00">L2a_nfov_pc products 1..b</text>
</g>
<!-- trans_nfov_pc_l1_l2a&#45;&gt;l2a_nfov_pc_prod -->
<g id="edge6" class="edge">
<title>trans_nfov_pc_l1_l2a&#45;&gt;l2a_nfov_pc_prod</title>
<path fill="none" stroke="black" stroke-dasharray="5,2" d="M591.74,-208.28C591.74,-208.28 726.34,-208.28 726.34,-208.28"/>
<polygon fill="black" stroke="black" points="726.34,-211.78 736.34,-208.28 726.34,-204.78 726.34,-211.78"/>
</g>
<!-- l2a_nfov_pc_man -->
<g id="node11" class="node">
<title>l2a_nfov_pc_man</title>
<ellipse fill="none" stroke="black" cx="838.06" cy="-154.28" rx="170.07" ry="18"/>
<text text-anchor="middle" x="838.06" y="-150.58" font-family="Times,serif" font-size="14.00">L2a_nfov_pc product manifest 1..1</text>
</g>
<!-- trans_nfov_pc_l1_l2a&#45;&gt;l2a_nfov_pc_man -->
<g id="edge7" class="edge">
<title>trans_nfov_pc_l1_l2a&#45;&gt;l2a_nfov_pc_man</title>
<path fill="none" stroke="black" d="M617.86,-154.28C617.86,-154.28 657.65,-154.28 657.65,-154.28"/>
<polygon fill="black" stroke="black" points="657.65,-157.78 667.65,-154.28 657.65,-150.78 657.65,-157.78"/>
</g>
<!-- l2a_nfov_pc_log -->
<g id="node20" class="node">
<title>l2a_nfov_pc_log</title>
<ellipse fill="none" stroke="black" cx="838.06" cy="-100.28" rx="104.78" ry="18"/>
<text text-anchor="middle" x="838.06" y="-96.58" font-family="Times,serif" font-size="14.00">L2a log_nfov_pc 1..1</text>
</g>
<!-- trans_nfov_pc_l1_l2a&#45;&gt;l2a_nfov_pc_log -->
<g id="edge8" class="edge">
<title>trans_nfov_pc_l1_l2a&#45;&gt;l2a_nfov_pc_log</title>
<path fill="none" stroke="black" stroke-dasharray="5,2" d="M617.86,-100.28C617.86,-100.28 723.15,-100.28 723.15,-100.28"/>
<polygon fill="black" stroke="black" points="723.15,-103.78 733.15,-100.28 723.15,-96.78 723.15,-103.78"/>
</g>
<!-- l2a_nfov_pc_src -->
<g id="node36" class="node">
<title>l2a_nfov_pc_src</title>
<ellipse fill="none" stroke="black" cx="838.06" cy="-46.28" rx="165.17" ry="18"/>
<text text-anchor="middle" x="838.06" y="-42.58" font-family="Times,serif" font-size="14.00">L2a_nfov_pc source manifest 1..1</text>
</g>
<!-- trans_nfov_pc_l1_l2a&#45;&gt;l2a_nfov_pc_src -->
<g id="edge32" class="edge">
<title>trans_nfov_pc_l1_l2a&#45;&gt;l2a_nfov_pc_src</title>
<path fill="none" stroke="black" d="M591.74,-46.28C591.74,-46.28 662.87,-46.28 662.87,-46.28"/>
<polygon fill="black" stroke="black" points="662.87,-49.78 672.87,-46.28 662.87,-42.78 662.87,-49.78"/>
</g>
<!-- trans_nfov_pc_l2a_l2b -->
<g id="node2" class="node">
<title>trans_nfov_pc_l2a_l2b</title>
<ellipse fill="none" stroke="black" cx="1182.68" cy="-451.28" rx="127.06" ry="127.06"/>
<text text-anchor="middle" x="1182.68" y="-455.08" font-family="Times,serif" font-size="14.00">nfov_pc Transmutation</text>
<text text-anchor="middle" x="1182.68" y="-440.08" font-family="Times,serif" font-size="14.00">L2a to L2b</text>
</g>
<!-- l2b_nfov_pc_prod -->
<g id="node21" class="node">
<title>l2b_nfov_pc_prod</title>
<polygon fill="none" stroke="black" points="1618.39,-550.28 1415.39,-550.28 1415.39,-514.28 1618.39,-514.28 1618.39,-550.28"/>
<text text-anchor="middle" x="1516.89" y="-528.58" font-family="Times,serif" font-size="14.00">L2b_nfov_pc products 1..1</text>
</g>
<!-- trans_nfov_pc_l2a_l2b&#45;&gt;l2b_nfov_pc_prod -->
<g id="edge18" class="edge">
<title>trans_nfov_pc_l2a_l2b&#45;&gt;l2b_nfov_pc_prod</title>
<path fill="none" stroke="black" stroke-dasharray="5,2" d="M1281.14,-532.28C1281.14,-532.28 1405.36,-532.28 1405.36,-532.28"/>
<polygon fill="black" stroke="black" points="1405.36,-535.78 1415.36,-532.28 1405.36,-528.78 1405.36,-535.78"/>
</g>
<!-- l2b_nfov_pc_man -->
<g id="node22" class="node">
<title>l2b_nfov_pc_man</title>
<ellipse fill="none" stroke="black" cx="1516.89" cy="-478.28" rx="170.87" ry="18"/>
<text text-anchor="middle" x="1516.89" y="-474.58" font-family="Times,serif" font-size="14.00">L2b_nfov_pc product manifest 1..1</text>
</g>
<!-- trans_nfov_pc_l2a_l2b&#45;&gt;l2b_nfov_pc_man -->
<g id="edge19" class="edge">
<title>trans_nfov_pc_l2a_l2b&#45;&gt;l2b_nfov_pc_man</title>
<path fill="none" stroke="black" d="M1307.13,-478.28C1307.13,-478.28 1335.71,-478.28 1335.71,-478.28"/>
<polygon fill="black" stroke="black" points="1335.71,-481.78 1345.71,-478.28 1335.71,-474.78 1335.71,-481.78"/>
</g>
<!-- l2b_nfov_pc_log -->
<g id="node28" class="node">
<title>l2b_nfov_pc_log</title>
<ellipse fill="none" stroke="black" cx="1516.89" cy="-424.28" rx="105.08" ry="18"/>
<text text-anchor="middle" x="1516.89" y="-420.58" font-family="Times,serif" font-size="14.00">L2b_nfov_pc log 1..1</text>
</g>
<!-- trans_nfov_pc_l2a_l2b&#45;&gt;l2b_nfov_pc_log -->
<g id="edge20" class="edge">
<title>trans_nfov_pc_l2a_l2b&#45;&gt;l2b_nfov_pc_log</title>
<path fill="none" stroke="black" stroke-dasharray="5,2" d="M1307.13,-424.28C1307.13,-424.28 1401.51,-424.28 1401.51,-424.28"/>
<polygon fill="black" stroke="black" points="1401.51,-427.78 1411.51,-424.28 1401.51,-420.78 1401.51,-427.78"/>
</g>
<!-- l2b_nfov_pc_src -->
<g id="node37" class="node">
<title>l2b_nfov_pc_src</title>
<ellipse fill="none" stroke="black" cx="1516.89" cy="-370.28" rx="165.17" ry="18"/>
<text text-anchor="middle" x="1516.89" y="-366.58" font-family="Times,serif" font-size="14.00">L2b_nfov_pc source manifest 1..1</text>
</g>
<!-- trans_nfov_pc_l2a_l2b&#45;&gt;l2b_nfov_pc_src -->
<g id="edge33" class="edge">
<title>trans_nfov_pc_l2a_l2b&#45;&gt;l2b_nfov_pc_src</title>
<path fill="none" stroke="black" d="M1281.14,-370.28C1281.14,-370.28 1341.73,-370.28 1341.73,-370.28"/>
<polygon fill="black" stroke="black" points="1341.73,-373.78 1351.73,-370.28 1341.73,-366.78 1341.73,-373.78"/>
</g>
<!-- trans_nfov_pc_l2b_l3 -->
<g id="node3" class="node">
<title>trans_nfov_pc_l2b_l3</title>
<ellipse fill="none" stroke="black" cx="1851.1" cy="-640.28" rx="127.06" ry="127.06"/>
<text text-anchor="middle" x="1851.1" y="-644.08" font-family="Times,serif" font-size="14.00">nfov_pc Transmutation</text>
<text text-anchor="middle" x="1851.1" y="-629.08" font-family="Times,serif" font-size="14.00">L2b to L3</text>
</g>
<!-- l3_nfov_pc_prod -->
<g id="node29" class="node">
<title>l3_nfov_pc_prod</title>
<polygon fill="none" stroke="black" points="2276.47,-739.28 2082.47,-739.28 2082.47,-703.28 2276.47,-703.28 2276.47,-739.28"/>
<text text-anchor="middle" x="2179.47" y="-717.58" font-family="Times,serif" font-size="14.00">L3_nfov_pc products 1..1</text>
</g>
<!-- trans_nfov_pc_l2b_l3&#45;&gt;l3_nfov_pc_prod -->
<g id="edge29" class="edge">
<title>trans_nfov_pc_l2b_l3&#45;&gt;l3_nfov_pc_prod</title>
<path fill="none" stroke="black" stroke-dasharray="5,2" d="M1949.62,-721.28C1949.62,-721.28 2072.43,-721.28 2072.43,-721.28"/>
<polygon fill="black" stroke="black" points="2072.43,-724.78 2082.43,-721.28 2072.43,-717.78 2072.43,-724.78"/>
</g>
<!-- l3_nfov_pc_man -->
<g id="node31" class="node">
<title>l3_nfov_pc_man</title>
<ellipse fill="none" stroke="black" cx="2179.47" cy="-667.28" rx="165.17" ry="18"/>
<text text-anchor="middle" x="2179.47" y="-663.58" font-family="Times,serif" font-size="14.00">L3_nfov_pc product manifest 1..1</text>
</g>
<!-- trans_nfov_pc_l2b_l3&#45;&gt;l3_nfov_pc_man -->
<g id="edge30" class="edge">
<title>trans_nfov_pc_l2b_l3&#45;&gt;l3_nfov_pc_man</title>
<path fill="none" stroke="black" d="M1975.71,-667.28C1975.71,-667.28 2004.21,-667.28 2004.21,-667.28"/>
<polygon fill="black" stroke="black" points="2004.21,-670.78 2014.21,-667.28 2004.21,-663.78 2004.21,-670.78"/>
</g>
<!-- l3_nfov_pc_log -->
<g id="node35" class="node">
<title>l3_nfov_pc_log</title>
<ellipse fill="none" stroke="black" cx="2179.47" cy="-613.28" rx="99.38" ry="18"/>
<text text-anchor="middle" x="2179.47" y="-609.58" font-family="Times,serif" font-size="14.00">L3_nfov_pc log 1..1</text>
</g>
<!-- trans_nfov_pc_l2b_l3&#45;&gt;l3_nfov_pc_log -->
<g id="edge31" class="edge">
<title>trans_nfov_pc_l2b_l3&#45;&gt;l3_nfov_pc_log</title>
<path fill="none" stroke="black" stroke-dasharray="5,2" d="M1975.71,-613.28C1975.71,-613.28 2069.97,-613.28 2069.97,-613.28"/>
<polygon fill="black" stroke="black" points="2069.97,-616.78 2079.97,-613.28 2069.97,-609.78 2069.97,-616.78"/>
</g>
<!-- l3_nfov_pc_src -->
<g id="node38" class="node">
<title>l3_nfov_pc_src</title>
<ellipse fill="none" stroke="black" cx="2179.47" cy="-559.28" rx="159.47" ry="18"/>
<text text-anchor="middle" x="2179.47" y="-555.58" font-family="Times,serif" font-size="14.00">L3_nfov_pc source manifest 1..1</text>
</g>
<!-- trans_nfov_pc_l2b_l3&#45;&gt;l3_nfov_pc_src -->
<g id="edge34" class="edge">
<title>trans_nfov_pc_l2b_l3&#45;&gt;l3_nfov_pc_src</title>
<path fill="none" stroke="black" d="M1949.62,-559.28C1949.62,-559.28 2010.22,-559.28 2010.22,-559.28"/>
<polygon fill="black" stroke="black" points="2010.22,-562.78 2020.22,-559.28 2010.22,-555.78 2010.22,-562.78"/>
</g>
<!-- l1_nfov_pc_prod -->
<g id="node4" class="node">
<title>l1_nfov_pc_prod</title>
<polygon fill="none" stroke="black" points="262.09,-253.28 68.09,-253.28 68.09,-217.28 262.09,-217.28 262.09,-253.28"/>
<text text-anchor="middle" x="165.09" y="-231.58" font-family="Times,serif" font-size="14.00">L1_nfov_pc products 1..b</text>
</g>
<!-- l1_nfov_pc_prod&#45;&gt;trans_nfov_pc_l1_l2a -->
<g id="edge1" class="edge">
<title>l1_nfov_pc_prod&#45;&gt;trans_nfov_pc_l1_l2a</title>
<path fill="none" stroke="black" stroke-dasharray="5,2" d="M262.27,-235.28C262.27,-235.28 415.92,-235.28 415.92,-235.28"/>
<polygon fill="black" stroke="black" points="415.92,-238.78 425.92,-235.28 415.92,-231.78 415.92,-238.78"/>
</g>
<!-- l1_nfov_pc_man -->
<g id="node5" class="node">
<title>l1_nfov_pc_man</title>
<ellipse fill="none" stroke="black" cx="165.09" cy="-181.28" rx="165.17" ry="18"/>
<text text-anchor="middle" x="165.09" y="-177.58" font-family="Times,serif" font-size="14.00">L1_nfov_pc product manifest 1..1</text>
</g>
<!-- l1_nfov_pc_man&#45;&gt;trans_nfov_pc_l1_l2a -->
<g id="edge2" class="edge">
<title>l1_nfov_pc_man&#45;&gt;trans_nfov_pc_l1_l2a</title>
<path fill="none" stroke="black" d="M330.23,-181.28C330.23,-181.28 367.96,-181.28 367.96,-181.28"/>
<polygon fill="black" stroke="black" points="367.96,-184.78 377.96,-181.28 367.96,-177.78 367.96,-184.78"/>
</g>
<!-- agg_nfov_pc_man -->
<g id="node6" class="node">
<title>agg_nfov_pc_man</title>
<ellipse fill="none" stroke="black" cx="838.06" cy="-696.28" rx="181.17" ry="18"/>
<text text-anchor="middle" x="838.06" y="-692.58" font-family="Times,serif" font-size="14.00">L2a_nfov_pc aggregate manifest 1..1</text>
</g>
<!-- agg_nfov_pc_man&#45;&gt;trans_nfov_pc_l2a_l2b -->
<g id="edge21" class="edge">
<title>agg_nfov_pc_man&#45;&gt;trans_nfov_pc_l2a_l2b</title>
<path fill="none" stroke="black" d="M1014.55,-692.02C1014.55,-670.68 1014.55,-576.49 1014.55,-576.49 1014.55,-576.49 1149.65,-576.49 1149.65,-576.49"/>
<polygon fill="black" stroke="black" points="1149.65,-579.99 1159.65,-576.49 1149.65,-572.99 1149.65,-579.99"/>
</g>
<!-- l1_nfov_pc_odir -->
<g id="node7" class="node">
<title>l1_nfov_pc_odir</title>
<ellipse fill="none" stroke="black" cx="165.09" cy="-127.28" rx="139.98" ry="18"/>
<text text-anchor="middle" x="165.09" y="-123.58" font-family="Times,serif" font-size="14.00">L1_nfov_pc output path 1..1</text>
</g>
<!-- l1_nfov_pc_odir&#45;&gt;trans_nfov_pc_l1_l2a -->
<g id="edge3" class="edge">
<title>l1_nfov_pc_odir&#45;&gt;trans_nfov_pc_l1_l2a</title>
<path fill="none" stroke="black" d="M305.29,-127.28C305.29,-127.28 355.92,-127.28 355.92,-127.28"/>
<polygon fill="black" stroke="black" points="355.92,-130.78 365.92,-127.28 355.92,-123.78 355.92,-130.78"/>
</g>
<!-- l1_nfov_pc_rec -->
<g id="node8" class="node">
<title>l1_nfov_pc_rec</title>
<polygon fill="none" stroke="black" points="241.09,-85.28 77.09,-85.28 77.09,-61.28 241.09,-61.28 253.09,-73.28 241.09,-85.28"/>
<text text-anchor="middle" x="165.09" y="-69.58" font-family="Times,serif" font-size="14.00">L1_nfov_pc recipe 1..1</text>
</g>
<!-- l1_nfov_pc_rec&#45;&gt;trans_nfov_pc_l1_l2a -->
<g id="edge4" class="edge">
<title>l1_nfov_pc_rec&#45;&gt;trans_nfov_pc_l1_l2a</title>
<path fill="none" stroke="black" d="M253.51,-73.28C253.51,-73.28 367.98,-73.28 367.98,-73.28"/>
<polygon fill="black" stroke="black" points="367.98,-76.78 377.98,-73.28 367.98,-69.78 367.98,-76.78"/>
</g>
<!-- l1_nfov_pc_nllut -->
<g id="node9" class="node">
<title>l1_nfov_pc_nllut</title>
<polygon fill="none" stroke="black" points="271.59,-31.28 46.59,-31.28 46.59,-7.28 271.59,-7.28 283.59,-19.28 271.59,-31.28"/>
<text text-anchor="middle" x="165.09" y="-15.58" font-family="Times,serif" font-size="14.00">L1_nfov_pc non&#45;linear LUT 1..1</text>
</g>
<!-- l1_nfov_pc_nllut&#45;&gt;trans_nfov_pc_l1_l2a -->
<g id="edge5" class="edge">
<title>l1_nfov_pc_nllut&#45;&gt;trans_nfov_pc_l1_l2a</title>
<path fill="none" stroke="black" d="M283.63,-19.28C283.63,-19.28 415.71,-19.28 415.71,-19.28"/>
<polygon fill="black" stroke="black" points="415.71,-22.78 425.71,-19.28 415.71,-15.78 415.71,-22.78"/>
</g>
<!-- l2a_nfov_pc_prod&#45;&gt;trans_nfov_pc_l2a_l2b -->
<g id="edge9" class="edge">
<title>l2a_nfov_pc_prod&#45;&gt;trans_nfov_pc_l2a_l2b</title>
<path fill="none" stroke="black" stroke-dasharray="5,2" d="M939.62,-208.28C1054.43,-208.28 1225.55,-208.28 1225.55,-208.28 1225.55,-208.28 1225.55,-321.2 1225.55,-321.2"/>
<polygon fill="black" stroke="black" points="1222.05,-321.2 1225.55,-331.2 1229.05,-321.2 1222.05,-321.2"/>
</g>
<!-- l2a_nfov_pc_odir -->
<g id="node12" class="node">
<title>l2a_nfov_pc_odir</title>
<ellipse fill="none" stroke="black" cx="838.06" cy="-642.28" rx="145.67" ry="18"/>
<text text-anchor="middle" x="838.06" y="-638.58" font-family="Times,serif" font-size="14.00">L2a_nfov_pc output path 1..1</text>
</g>
<!-- l2a_nfov_pc_odir&#45;&gt;trans_nfov_pc_l2a_l2b -->
<g id="edge11" class="edge">
<title>l2a_nfov_pc_odir&#45;&gt;trans_nfov_pc_l2a_l2b</title>
<path fill="none" stroke="black" d="M957.55,-631.97C957.55,-612.99 957.55,-574.42 957.55,-574.42 957.55,-574.42 1140.42,-574.42 1140.42,-574.42"/>
<polygon fill="black" stroke="black" points="1140.42,-577.92 1150.42,-574.42 1140.42,-570.92 1140.42,-577.92"/>
</g>
<!-- l2a_nfov_pc_rec -->
<g id="node13" class="node">
<title>l2a_nfov_pc_rec</title>
<polygon fill="none" stroke="black" points="918.06,-600.28 746.06,-600.28 746.06,-576.28 918.06,-576.28 930.06,-588.28 918.06,-600.28"/>
<text text-anchor="middle" x="838.06" y="-584.58" font-family="Times,serif" font-size="14.00">L2a_nfov_pc recipe 1..1</text>
</g>
<!-- l2a_nfov_pc_rec&#45;&gt;trans_nfov_pc_l2a_l2b -->
<g id="edge12" class="edge">
<title>l2a_nfov_pc_rec&#45;&gt;trans_nfov_pc_l2a_l2b</title>
<path fill="none" stroke="black" d="M930.41,-572.35C930.41,-572.35 1132.97,-572.35 1132.97,-572.35"/>
<polygon fill="black" stroke="black" points="1132.97,-575.85 1142.97,-572.35 1132.97,-568.85 1132.97,-575.85"/>
</g>
<!-- l2a_nfov_pc_cti -->
<g id="node14" class="node">
<title>l2a_nfov_pc_cti</title>
<polygon fill="none" stroke="black" points="979.56,-546.28 684.56,-546.28 684.56,-522.28 979.56,-522.28 991.56,-534.28 979.56,-546.28"/>
<text text-anchor="middle" x="838.06" y="-530.58" font-family="Times,serif" font-size="14.00">L2a_nfov_pc charge xfer inefficiency 1..1</text>
</g>
<!-- l2a_nfov_pc_cti&#45;&gt;trans_nfov_pc_l2a_l2b -->
<g id="edge13" class="edge">
<title>l2a_nfov_pc_cti&#45;&gt;trans_nfov_pc_l2a_l2b</title>
<path fill="none" stroke="black" d="M991.72,-534.28C991.72,-534.28 1075.7,-534.28 1075.7,-534.28"/>
<polygon fill="black" stroke="black" points="1075.7,-537.78 1085.7,-534.28 1075.7,-530.78 1075.7,-537.78"/>
</g>
<!-- l2a_nfov_pc_dnb -->
<g id="node15" class="node">
<title>l2a_nfov_pc_dnb</title>
<polygon fill="none" stroke="black" points="961.06,-492.28 703.06,-492.28 703.06,-466.28 961.06,-466.28 973.06,-479.28 961.06,-492.28"/>
<text text-anchor="middle" x="838.06" y="-483.08" font-family="Times,serif" font-size="14.00">L2a_nfov_pc CIC/Dark Current/FPN</text>
<text text-anchor="middle" x="838.06" y="-468.08" font-family="Times,serif" font-size="14.00"> or master dark 1..1</text>
</g>
<!-- l2a_nfov_pc_dnb&#45;&gt;trans_nfov_pc_l2a_l2b -->
<g id="edge14" class="edge">
<title>l2a_nfov_pc_dnb&#45;&gt;trans_nfov_pc_l2a_l2b</title>
<path fill="none" stroke="black" d="M973.27,-479.28C973.27,-479.28 1048.24,-479.28 1048.24,-479.28"/>
<polygon fill="black" stroke="black" points="1048.24,-482.78 1058.24,-479.28 1048.24,-475.78 1048.24,-482.78"/>
</g>
<!-- l2a_nfov_pc_mbpm -->
<g id="node16" class="node">
<title>l2a_nfov_pc_mbpm</title>
<polygon fill="none" stroke="black" points="973.56,-436.28 690.56,-436.28 690.56,-412.28 973.56,-412.28 985.56,-424.28 973.56,-436.28"/>
<text text-anchor="middle" x="838.06" y="-420.58" font-family="Times,serif" font-size="14.00">L2a_nfov_pc master bad pixel map 1..1</text>
</g>
<!-- l2a_nfov_pc_mbpm&#45;&gt;trans_nfov_pc_l2a_l2b -->
<g id="edge15" class="edge">
<title>l2a_nfov_pc_mbpm&#45;&gt;trans_nfov_pc_l2a_l2b</title>
<path fill="none" stroke="black" d="M985.71,-424.28C985.71,-424.28 1048.08,-424.28 1048.08,-424.28"/>
<polygon fill="black" stroke="black" points="1048.08,-427.78 1058.08,-424.28 1048.08,-420.78 1048.08,-427.78"/>
</g>
<!-- l2a_nfov_pc_ff -->
<g id="node17" class="node">
<title>l2a_nfov_pc_ff</title>
<polygon fill="none" stroke="black" points="929.06,-382.28 735.06,-382.28 735.06,-358.28 929.06,-358.28 941.06,-370.28 929.06,-382.28"/>
<text text-anchor="middle" x="838.06" y="-366.58" font-family="Times,serif" font-size="14.00">L2a_nfov_pc flat fields 1..1</text>
</g>
<!-- l2a_nfov_pc_ff&#45;&gt;trans_nfov_pc_l2a_l2b -->
<g id="edge16" class="edge">
<title>l2a_nfov_pc_ff&#45;&gt;trans_nfov_pc_l2a_l2b</title>
<path fill="none" stroke="black" d="M941.46,-370.28C941.46,-370.28 1074.38,-370.28 1074.38,-370.28"/>
<polygon fill="black" stroke="black" points="1074.38,-373.78 1084.38,-370.28 1074.38,-366.78 1074.38,-373.78"/>
</g>
<!-- l2a_nfov_pc_emg -->
<g id="node18" class="node">
<title>l2a_nfov_pc_emg</title>
<polygon fill="none" stroke="black" points="926.06,-328.28 738.06,-328.28 738.06,-304.28 926.06,-304.28 938.06,-316.28 926.06,-328.28"/>
<text text-anchor="middle" x="838.06" y="-312.58" font-family="Times,serif" font-size="14.00">L2a_nfov_pc EM gain 1..1</text>
</g>
<!-- l2a_nfov_pc_emg&#45;&gt;trans_nfov_pc_l2a_l2b -->
<g id="edge17" class="edge">
<title>l2a_nfov_pc_emg&#45;&gt;trans_nfov_pc_l2a_l2b</title>
<path fill="none" stroke="black" d="M938.2,-329.14C938.2,-329.14 1136.47,-329.14 1136.47,-329.14"/>
<polygon fill="black" stroke="black" points="1136.47,-332.64 1146.47,-329.14 1136.47,-325.64 1136.47,-332.64"/>
</g>
<!-- l2a_nfov_pc_kgain -->
<g id="node19" class="node">
<title>l2a_nfov_pc_kgain</title>
<polygon fill="none" stroke="black" points="912.56,-274.28 751.56,-274.28 751.56,-250.28 912.56,-250.28 924.56,-262.28 912.56,-274.28"/>
<text text-anchor="middle" x="838.06" y="-258.58" font-family="Times,serif" font-size="14.00">L2_nfov_pc Kgain 1..1</text>
</g>
<!-- l2a_nfov_pc_kgain&#45;&gt;trans_nfov_pc_l2a_l2b -->
<g id="edge10" class="edge">
<title>l2a_nfov_pc_kgain&#45;&gt;trans_nfov_pc_l2a_l2b</title>
<path fill="none" stroke="black" d="M924.74,-262.28C1014.13,-262.28 1140.55,-262.28 1140.55,-262.28 1140.55,-262.28 1140.55,-321.05 1140.55,-321.05"/>
<polygon fill="black" stroke="black" points="1137.05,-321.05 1140.55,-331.05 1144.05,-321.05 1137.05,-321.05"/>
</g>
<!-- l2b_nfov_pc_prod&#45;&gt;trans_nfov_pc_l2b_l3 -->
<g id="edge22" class="edge">
<title>l2b_nfov_pc_prod&#45;&gt;trans_nfov_pc_l2b_l3</title>
<path fill="none" stroke="black" stroke-dasharray="5,2" d="M1618.53,-538.28C1618.53,-538.28 1764.89,-538.28 1764.89,-538.28"/>
<polygon fill="black" stroke="black" points="1764.89,-541.78 1774.89,-538.28 1764.89,-534.78 1764.89,-541.78"/>
</g>
<!-- l2b_nfov_pc_man&#45;&gt;trans_nfov_pc_l2b_l3 -->
<g id="edge23" class="edge">
<title>l2b_nfov_pc_man&#45;&gt;trans_nfov_pc_l2b_l3</title>
<path fill="none" stroke="black" d="M1680.55,-483.79C1680.55,-496.39 1680.55,-526.28 1680.55,-526.28 1680.55,-526.28 1784.31,-526.28 1784.31,-526.28"/>
<polygon fill="black" stroke="black" points="1784.31,-529.78 1794.31,-526.28 1784.31,-522.78 1784.31,-529.78"/>
</g>
<!-- l2b_nfov_pc_odir -->
<g id="node23" class="node">
<title>l2b_nfov_pc_odir</title>
<ellipse fill="none" stroke="black" cx="1516.89" cy="-802.28" rx="145.67" ry="18"/>
<text text-anchor="middle" x="1516.89" y="-798.58" font-family="Times,serif" font-size="14.00">L2b_nfov_pc output path 1..1</text>
</g>
<!-- l2b_nfov_pc_odir&#45;&gt;trans_nfov_pc_l2b_l3 -->
<g id="edge24" class="edge">
<title>l2b_nfov_pc_odir&#45;&gt;trans_nfov_pc_l2b_l3</title>
<path fill="none" stroke="black" d="M1636.55,-791.63C1636.55,-777.49 1636.55,-754.28 1636.55,-754.28 1636.55,-754.28 1784.45,-754.28 1784.45,-754.28"/>
<polygon fill="black" stroke="black" points="1784.45,-757.78 1794.45,-754.28 1784.45,-750.78 1784.45,-757.78"/>
</g>
<!-- l2b_nfov_pc_rec -->
<g id="node24" class="node">
<title>l2b_nfov_pc_rec</title>
<polygon fill="none" stroke="black" points="1597.39,-760.28 1424.39,-760.28 1424.39,-736.28 1597.39,-736.28 1609.39,-748.28 1597.39,-760.28"/>
<text text-anchor="middle" x="1516.89" y="-744.58" font-family="Times,serif" font-size="14.00">L2b_nfov_pc recipe 1..1</text>
</g>
<!-- l2b_nfov_pc_rec&#45;&gt;trans_nfov_pc_l2b_l3 -->
<g id="edge25" class="edge">
<title>l2b_nfov_pc_rec&#45;&gt;trans_nfov_pc_l2b_l3</title>
<path fill="none" stroke="black" d="M1609.54,-742.28C1609.54,-742.28 1764.91,-742.28 1764.91,-742.28"/>
<polygon fill="black" stroke="black" points="1764.91,-745.78 1774.91,-742.28 1764.91,-738.78 1764.91,-745.78"/>
</g>
<!-- l2b_nfov_pc_excicrf -->
<g id="node25" class="node">
<title>l2b_nfov_pc_excicrf</title>
<polygon fill="none" stroke="black" points="1652.89,-706.28 1368.89,-706.28 1368.89,-682.28 1652.89,-682.28 1664.89,-694.28 1652.89,-706.28"/>
<text text-anchor="middle" x="1516.89" y="-690.58" font-family="Times,serif" font-size="14.00">L2b_nfov_pc EXCAM ICRF location 1..1</text>
</g>
<!-- l2b_nfov_pc_excicrf&#45;&gt;trans_nfov_pc_l2b_l3 -->
<g id="edge26" class="edge">
<title>l2b_nfov_pc_excicrf&#45;&gt;trans_nfov_pc_l2b_l3</title>
<path fill="none" stroke="black" d="M1664.94,-694.28C1664.94,-694.28 1725.79,-694.28 1725.79,-694.28"/>
<polygon fill="black" stroke="black" points="1725.79,-697.78 1735.79,-694.28 1725.79,-690.78 1725.79,-697.78"/>
</g>
<!-- l2b_nfov_pc_excfovps -->
<g id="node26" class="node">
<title>l2b_nfov_pc_excfovps</title>
<polygon fill="none" stroke="black" points="1659.89,-652.28 1361.89,-652.28 1361.89,-628.28 1659.89,-628.28 1671.89,-640.28 1659.89,-652.28"/>
<text text-anchor="middle" x="1516.89" y="-636.58" font-family="Times,serif" font-size="14.00">L2b_nfov_pc EXCAM FOV pixel scale 1..1</text>
</g>
<!-- l2b_nfov_pc_excfovps&#45;&gt;trans_nfov_pc_l2b_l3 -->
<g id="edge27" class="edge">
<title>l2b_nfov_pc_excfovps&#45;&gt;trans_nfov_pc_l2b_l3</title>
<path fill="none" stroke="black" d="M1672.26,-640.28C1672.26,-640.28 1713.67,-640.28 1713.67,-640.28"/>
<polygon fill="black" stroke="black" points="1713.67,-643.78 1723.67,-640.28 1713.67,-636.78 1713.67,-643.78"/>
</g>
<!-- l2b_nfov_pc_distm -->
<g id="node27" class="node">
<title>l2b_nfov_pc_distm</title>
<polygon fill="none" stroke="black" points="1627.39,-598.28 1394.39,-598.28 1394.39,-574.28 1627.39,-574.28 1639.39,-586.28 1627.39,-598.28"/>
<text text-anchor="middle" x="1516.89" y="-582.58" font-family="Times,serif" font-size="14.00">L2b_nfov_pc distortion map 1..1</text>
</g>
<!-- l2b_nfov_pc_distm&#45;&gt;trans_nfov_pc_l2b_l3 -->
<g id="edge28" class="edge">
<title>l2b_nfov_pc_distm&#45;&gt;trans_nfov_pc_l2b_l3</title>
<path fill="none" stroke="black" d="M1639.44,-586.28C1639.44,-586.28 1725.79,-586.28 1725.79,-586.28"/>
<polygon fill="black" stroke="black" points="1725.79,-589.78 1735.79,-586.28 1725.79,-582.78 1725.79,-589.78"/>
</g>
<!-- l3_nfov_pc_odir -->
<g id="node30" class="node">
<title>l3_nfov_pc_odir</title>
<ellipse fill="none" stroke="black" cx="165.09" cy="-289.28" rx="139.98" ry="18"/>
<text text-anchor="middle" x="165.09" y="-285.58" font-family="Times,serif" font-size="14.00">L3_nfov_pc output path 1..1</text>
</g>
<!-- l3_nfov_pc_rec -->
<g id="node32" class="node">
<title>l3_nfov_pc_rec</title>
<polygon fill="none" stroke="black" points="241.09,-355.28 77.09,-355.28 77.09,-331.28 241.09,-331.28 253.09,-343.28 241.09,-355.28"/>
<text text-anchor="middle" x="165.09" y="-339.58" font-family="Times,serif" font-size="14.00">L3_nfov_pc recipe 1..1</text>
</g>
<!-- l3_nfov_pc_ast -->
<g id="node33" class="node">
<title>l3_nfov_pc_ast</title>
<polygon fill="none" stroke="black" points="260.59,-409.28 57.59,-409.28 57.59,-385.28 260.59,-385.28 272.59,-397.28 260.59,-409.28"/>
<text text-anchor="middle" x="165.09" y="-393.58" font-family="Times,serif" font-size="14.00">L3_nfov_pc astrometric 1..1</text>
</g>
<!-- l3_nfov_pc_ndf -->
<g id="node34" class="node">
<title>l3_nfov_pc_ndf</title>
<polygon fill="none" stroke="black" points="252.59,-463.28 65.59,-463.28 65.59,-439.28 252.59,-439.28 264.59,-451.28 252.59,-463.28"/>
<text text-anchor="middle" x="165.09" y="-447.58" font-family="Times,serif" font-size="14.00">L3_nfov_pc ND Filter 1..1</text>
</g>
</g>
</svg>
