<?xml version="1.0" encoding="UTF-8" standalone="no"?>
<!DOCTYPE svg PUBLIC "-//W3C//DTD SVG 1.1//EN"
 "http://www.w3.org/Graphics/SVG/1.1/DTD/svg11.dtd">
<!-- Generated by graphviz version 2.43.0 (0)
 -->
<!-- Title: NarrowFieldOfViewAnalog Pages: 1 -->
<svg width="3544pt" height="1124pt"
 viewBox="0.00 0.00 3543.58 1124.00" xmlns="http://www.w3.org/2000/svg" xmlns:xlink="http://www.w3.org/1999/xlink">
<g id="graph0" class="graph" transform="scale(1 1) rotate(0) translate(4 1120)">
<title>NarrowFieldOfViewAnalog</title>
<polygon fill="white" stroke="transparent" points="-4,4 -4,-1120 3539.58,-1120 3539.58,4 -4,4"/>
<!-- trans_nfov_a_l1_l2a -->
<g id="node1" class="node">
<title>trans_nfov_a_l1_l2a</title>
<ellipse fill="none" stroke="black" cx="491.69" cy="-126" rx="121.74" ry="121.74"/>
<text text-anchor="middle" x="491.69" y="-129.8" font-family="Times,serif" font-size="14.00">nfov_a Transmutation</text>
<text text-anchor="middle" x="491.69" y="-114.8" font-family="Times,serif" font-size="14.00">L1 to L2a</text>
</g>
<!-- l2a_nfov_a_prod -->
<g id="node11" class="node">
<title>l2a_nfov_a_prod</title>
<polygon fill="none" stroke="black" points="911.4,-225 717.4,-225 717.4,-189 911.4,-189 911.4,-225"/>
<text text-anchor="middle" x="814.4" y="-203.3" font-family="Times,serif" font-size="14.00">L2a_nfov_a products 1..b</text>
</g>
<!-- trans_nfov_a_l1_l2a&#45;&gt;l2a_nfov_a_prod -->
<g id="edge6" class="edge">
<title>trans_nfov_a_l1_l2a&#45;&gt;l2a_nfov_a_prod</title>
<path fill="none" stroke="black" stroke-dasharray="5,2" d="M582.44,-207C582.44,-207 707.28,-207 707.28,-207"/>
<polygon fill="black" stroke="black" points="707.28,-210.5 717.28,-207 707.28,-203.5 707.28,-210.5"/>
</g>
<!-- l2a_nfov_a_man -->
<g id="node12" class="node">
<title>l2a_nfov_a_man</title>
<ellipse fill="none" stroke="black" cx="814.4" cy="-153" rx="165.17" ry="18"/>
<text text-anchor="middle" x="814.4" y="-149.3" font-family="Times,serif" font-size="14.00">L2a_nfov_a product manifest 1..1</text>
</g>
<!-- trans_nfov_a_l1_l2a&#45;&gt;l2a_nfov_a_man -->
<g id="edge7" class="edge">
<title>trans_nfov_a_l1_l2a&#45;&gt;l2a_nfov_a_man</title>
<path fill="none" stroke="black" d="M610.48,-153C610.48,-153 639.28,-153 639.28,-153"/>
<polygon fill="black" stroke="black" points="639.28,-156.5 649.28,-153 639.28,-149.5 639.28,-156.5"/>
</g>
<!-- l2a_nfov_a_log -->
<g id="node21" class="node">
<title>l2a_nfov_a_log</title>
<ellipse fill="none" stroke="black" cx="814.4" cy="-99" rx="99.38" ry="18"/>
<text text-anchor="middle" x="814.4" y="-95.3" font-family="Times,serif" font-size="14.00">L2a log_nfov_a 1..1</text>
</g>
<!-- trans_nfov_a_l1_l2a&#45;&gt;l2a_nfov_a_log -->
<g id="edge8" class="edge">
<title>trans_nfov_a_l1_l2a&#45;&gt;l2a_nfov_a_log</title>
<path fill="none" stroke="black" stroke-dasharray="5,2" d="M610.48,-99C610.48,-99 704.92,-99 704.92,-99"/>
<polygon fill="black" stroke="black" points="704.92,-102.5 714.92,-99 704.92,-95.5 704.92,-102.5"/>
</g>
<!-- l2a_nfov_a_src -->
<g id="node48" class="node">
<title>l2a_nfov_a_src</title>
<ellipse fill="none" stroke="black" cx="814.4" cy="-45" rx="159.47" ry="18"/>
<text text-anchor="middle" x="814.4" y="-41.3" font-family="Times,serif" font-size="14.00">L2a_nfov_a source manifest 1..1</text>
</g>
<!-- trans_nfov_a_l1_l2a&#45;&gt;l2a_nfov_a_src -->
<g id="edge50" class="edge">
<title>trans_nfov_a_l1_l2a&#45;&gt;l2a_nfov_a_src</title>
<path fill="none" stroke="black" d="M582.44,-45C582.44,-45 644.96,-45 644.96,-45"/>
<polygon fill="black" stroke="black" points="644.96,-48.5 654.96,-45 644.96,-41.5 644.96,-48.5"/>
</g>
<!-- trans_nfov_a_l2a_l2b -->
<g id="node2" class="node">
<title>trans_nfov_a_l2a_l2b</title>
<ellipse fill="none" stroke="black" cx="1137.11" cy="-396" rx="121.74" ry="121.74"/>
<text text-anchor="middle" x="1137.11" y="-399.8" font-family="Times,serif" font-size="14.00">nfov_a Transmutation</text>
<text text-anchor="middle" x="1137.11" y="-384.8" font-family="Times,serif" font-size="14.00">L2a to L2b</text>
</g>
<!-- l2b_nfov_a_prod -->
<g id="node22" class="node">
<title>l2b_nfov_a_prod</title>
<polygon fill="none" stroke="black" points="1557.32,-495 1362.32,-495 1362.32,-459 1557.32,-459 1557.32,-495"/>
<text text-anchor="middle" x="1459.82" y="-473.3" font-family="Times,serif" font-size="14.00">L2b_nfov_a products 1..1</text>
</g>
<!-- trans_nfov_a_l2a_l2b&#45;&gt;l2b_nfov_a_prod -->
<g id="edge18" class="edge">
<title>trans_nfov_a_l2a_l2b&#45;&gt;l2b_nfov_a_prod</title>
<path fill="none" stroke="black" stroke-dasharray="5,2" d="M1227.86,-477C1227.86,-477 1352.13,-477 1352.13,-477"/>
<polygon fill="black" stroke="black" points="1352.13,-480.5 1362.13,-477 1352.13,-473.5 1352.13,-480.5"/>
</g>
<!-- l2b_nfov_a_man -->
<g id="node23" class="node">
<title>l2b_nfov_a_man</title>
<ellipse fill="none" stroke="black" cx="1459.82" cy="-423" rx="165.17" ry="18"/>
<text text-anchor="middle" x="1459.82" y="-419.3" font-family="Times,serif" font-size="14.00">L2b_nfov_a product manifest 1..1</text>
</g>
<!-- trans_nfov_a_l2a_l2b&#45;&gt;l2b_nfov_a_man -->
<g id="edge19" class="edge">
<title>trans_nfov_a_l2a_l2b&#45;&gt;l2b_nfov_a_man</title>
<path fill="none" stroke="black" d="M1255.9,-423C1255.9,-423 1284.69,-423 1284.69,-423"/>
<polygon fill="black" stroke="black" points="1284.69,-426.5 1294.69,-423 1284.69,-419.5 1284.69,-426.5"/>
</g>
<!-- l2b_nfov_a_log -->
<g id="node29" class="node">
<title>l2b_nfov_a_log</title>
<ellipse fill="none" stroke="black" cx="1459.82" cy="-369" rx="100.18" ry="18"/>
<text text-anchor="middle" x="1459.82" y="-365.3" font-family="Times,serif" font-size="14.00">L2b_nfov_a log 1..1</text>
</g>
<!-- trans_nfov_a_l2a_l2b&#45;&gt;l2b_nfov_a_log -->
<g id="edge20" class="edge">
<title>trans_nfov_a_l2a_l2b&#45;&gt;l2b_nfov_a_log</title>
<path fill="none" stroke="black" stroke-dasharray="5,2" d="M1255.9,-369C1255.9,-369 1349.56,-369 1349.56,-369"/>
<polygon fill="black" stroke="black" points="1349.56,-372.5 1359.56,-369 1349.56,-365.5 1349.56,-372.5"/>
</g>
<!-- l2b_nfov_a_src -->
<g id="node49" class="node">
<title>l2b_nfov_a_src</title>
<ellipse fill="none" stroke="black" cx="1459.82" cy="-315" rx="159.77" ry="18"/>
<text text-anchor="middle" x="1459.82" y="-311.3" font-family="Times,serif" font-size="14.00">L2b_nfov_a source manifest 1..1</text>
</g>
<!-- trans_nfov_a_l2a_l2b&#45;&gt;l2b_nfov_a_src -->
<g id="edge51" class="edge">
<title>trans_nfov_a_l2a_l2b&#45;&gt;l2b_nfov_a_src</title>
<path fill="none" stroke="black" d="M1227.86,-315C1227.86,-315 1289.76,-315 1289.76,-315"/>
<polygon fill="black" stroke="black" points="1289.76,-318.5 1299.76,-315 1289.76,-311.5 1289.76,-318.5"/>
</g>
<!-- trans_nfov_a_l2b_l3 -->
<g id="node3" class="node">
<title>trans_nfov_a_l2b_l3</title>
<ellipse fill="none" stroke="black" cx="1782.52" cy="-585" rx="121.74" ry="121.74"/>
<text text-anchor="middle" x="1782.52" y="-588.8" font-family="Times,serif" font-size="14.00">nfov_a Transmutation</text>
<text text-anchor="middle" x="1782.52" y="-573.8" font-family="Times,serif" font-size="14.00">L2b to L3</text>
</g>
<!-- l3_nfov_a_prod -->
<g id="node30" class="node">
<title>l3_nfov_a_prod</title>
<polygon fill="none" stroke="black" points="2192.38,-684 2006.38,-684 2006.38,-648 2192.38,-648 2192.38,-684"/>
<text text-anchor="middle" x="2099.38" y="-662.3" font-family="Times,serif" font-size="14.00">L3_nfov_a products 1..1</text>
</g>
<!-- trans_nfov_a_l2b_l3&#45;&gt;l3_nfov_a_prod -->
<g id="edge29" class="edge">
<title>trans_nfov_a_l2b_l3&#45;&gt;l3_nfov_a_prod</title>
<path fill="none" stroke="black" stroke-dasharray="5,2" d="M1873.32,-666C1873.32,-666 1996.37,-666 1996.37,-666"/>
<polygon fill="black" stroke="black" points="1996.37,-669.5 2006.37,-666 1996.37,-662.5 1996.37,-669.5"/>
</g>
<!-- l3_nfov_a_man -->
<g id="node32" class="node">
<title>l3_nfov_a_man</title>
<ellipse fill="none" stroke="black" cx="2099.38" cy="-612" rx="159.47" ry="18"/>
<text text-anchor="middle" x="2099.38" y="-608.3" font-family="Times,serif" font-size="14.00">L3_nfov_a product manifest 1..1</text>
</g>
<!-- trans_nfov_a_l2b_l3&#45;&gt;l3_nfov_a_man -->
<g id="edge30" class="edge">
<title>trans_nfov_a_l2b_l3&#45;&gt;l3_nfov_a_man</title>
<path fill="none" stroke="black" d="M1901.41,-612C1901.41,-612 1930.07,-612 1930.07,-612"/>
<polygon fill="black" stroke="black" points="1930.07,-615.5 1940.07,-612 1930.07,-608.5 1930.07,-615.5"/>
</g>
<!-- l3_nfov_a_log -->
<g id="node36" class="node">
<title>l3_nfov_a_log</title>
<ellipse fill="none" stroke="black" cx="2099.38" cy="-558" rx="94.48" ry="18"/>
<text text-anchor="middle" x="2099.38" y="-554.3" font-family="Times,serif" font-size="14.00">L3_nfov_a log 1..1</text>
</g>
<!-- trans_nfov_a_l2b_l3&#45;&gt;l3_nfov_a_log -->
<g id="edge31" class="edge">
<title>trans_nfov_a_l2b_l3&#45;&gt;l3_nfov_a_log</title>
<path fill="none" stroke="black" stroke-dasharray="5,2" d="M1901.41,-558C1901.41,-558 1995.07,-558 1995.07,-558"/>
<polygon fill="black" stroke="black" points="1995.07,-561.5 2005.07,-558 1995.07,-554.5 1995.07,-561.5"/>
</g>
<!-- l3_nfov_a_src -->
<g id="node50" class="node">
<title>l3_nfov_a_src</title>
<ellipse fill="none" stroke="black" cx="2099.38" cy="-504" rx="154.07" ry="18"/>
<text text-anchor="middle" x="2099.38" y="-500.3" font-family="Times,serif" font-size="14.00">L3_nfov_a source manifest 1..1</text>
</g>
<!-- trans_nfov_a_l2b_l3&#45;&gt;l3_nfov_a_src -->
<g id="edge52" class="edge">
<title>trans_nfov_a_l2b_l3&#45;&gt;l3_nfov_a_src</title>
<path fill="none" stroke="black" d="M1873.32,-504C1873.32,-504 1935.15,-504 1935.15,-504"/>
<polygon fill="black" stroke="black" points="1935.15,-507.5 1945.15,-504 1935.15,-500.5 1935.15,-507.5"/>
</g>
<!-- trans_nfov_a_l3_l4 -->
<g id="node4" class="node">
<title>trans_nfov_a_l3_l4</title>
<ellipse fill="none" stroke="black" cx="2416.24" cy="-747" rx="121.74" ry="121.74"/>
<text text-anchor="middle" x="2416.24" y="-750.8" font-family="Times,serif" font-size="14.00">nfov_a Transmutation</text>
<text text-anchor="middle" x="2416.24" y="-735.8" font-family="Times,serif" font-size="14.00">L3 to L4</text>
</g>
<!-- l4_nfov_a_prod -->
<g id="node37" class="node">
<title>l4_nfov_a_prod</title>
<polygon fill="none" stroke="black" points="2830.86,-846 2644.86,-846 2644.86,-810 2830.86,-810 2830.86,-846"/>
<text text-anchor="middle" x="2737.86" y="-824.3" font-family="Times,serif" font-size="14.00">L4_nfov_a products 1..1</text>
</g>
<!-- trans_nfov_a_l3_l4&#45;&gt;l4_nfov_a_prod -->
<g id="edge38" class="edge">
<title>trans_nfov_a_l3_l4&#45;&gt;l4_nfov_a_prod</title>
<path fill="none" stroke="black" stroke-dasharray="5,2" d="M2507.11,-828C2507.11,-828 2634.7,-828 2634.7,-828"/>
<polygon fill="black" stroke="black" points="2634.7,-831.5 2644.7,-828 2634.7,-824.5 2634.7,-831.5"/>
</g>
<!-- l4_nfov_a_log -->
<g id="node39" class="node">
<title>l4_nfov_a_log</title>
<ellipse fill="none" stroke="black" cx="2737.86" cy="-774" rx="94.48" ry="18"/>
<text text-anchor="middle" x="2737.86" y="-770.3" font-family="Times,serif" font-size="14.00">L4_nfov_a log 1..1</text>
</g>
<!-- trans_nfov_a_l3_l4&#45;&gt;l4_nfov_a_log -->
<g id="edge39" class="edge">
<title>trans_nfov_a_l3_l4&#45;&gt;l4_nfov_a_log</title>
<path fill="none" stroke="black" stroke-dasharray="5,2" d="M2535.09,-774C2535.09,-774 2633.61,-774 2633.61,-774"/>
<polygon fill="black" stroke="black" points="2633.61,-777.5 2643.61,-774 2633.61,-770.5 2633.61,-777.5"/>
</g>
<!-- l4_nfov_a_man -->
<g id="node40" class="node">
<title>l4_nfov_a_man</title>
<ellipse fill="none" stroke="black" cx="2737.86" cy="-720" rx="159.47" ry="18"/>
<text text-anchor="middle" x="2737.86" y="-716.3" font-family="Times,serif" font-size="14.00">L4_nfov_a product manifest 1..1</text>
</g>
<!-- trans_nfov_a_l3_l4&#45;&gt;l4_nfov_a_man -->
<g id="edge40" class="edge">
<title>trans_nfov_a_l3_l4&#45;&gt;l4_nfov_a_man</title>
<path fill="none" stroke="black" d="M2535.09,-720C2535.09,-720 2568.41,-720 2568.41,-720"/>
<polygon fill="black" stroke="black" points="2568.41,-723.5 2578.41,-720 2568.41,-716.5 2568.41,-723.5"/>
</g>
<!-- l4_nfov_a_src -->
<g id="node51" class="node">
<title>l4_nfov_a_src</title>
<ellipse fill="none" stroke="black" cx="2737.86" cy="-666" rx="151.37" ry="18"/>
<text text-anchor="middle" x="2737.86" y="-662.3" font-family="Times,serif" font-size="14.00">L4_nfov_a sourcemanifest 1..1</text>
</g>
<!-- trans_nfov_a_l3_l4&#45;&gt;l4_nfov_a_src -->
<g id="edge53" class="edge">
<title>trans_nfov_a_l3_l4&#45;&gt;l4_nfov_a_src</title>
<path fill="none" stroke="black" d="M2507.11,-666C2507.11,-666 2576.35,-666 2576.35,-666"/>
<polygon fill="black" stroke="black" points="2576.35,-669.5 2586.35,-666 2576.35,-662.5 2576.35,-669.5"/>
</g>
<!-- trans_nfov_a_l4_tda -->
<g id="node5" class="node">
<title>trans_nfov_a_l4_tda</title>
<ellipse fill="none" stroke="black" cx="3059.48" cy="-936" rx="121.74" ry="121.74"/>
<text text-anchor="middle" x="3059.48" y="-939.8" font-family="Times,serif" font-size="14.00">nfov_a Transmutation</text>
<text text-anchor="middle" x="3059.48" y="-924.8" font-family="Times,serif" font-size="14.00">L4 to TDA</text>
</g>
<!-- tda_nfov_a_prod -->
<g id="node46" class="node">
<title>tda_nfov_a_prod</title>
<ellipse fill="none" stroke="black" cx="3376.34" cy="-990" rx="85.59" ry="18"/>
<text text-anchor="middle" x="3376.34" y="-986.3" font-family="Times,serif" font-size="14.00">tda_nfov_a_prod</text>
</g>
<!-- trans_nfov_a_l4_tda&#45;&gt;tda_nfov_a_prod -->
<g id="edge48" class="edge">
<title>trans_nfov_a_l4_tda&#45;&gt;tda_nfov_a_prod</title>
<path fill="none" stroke="black" stroke-dasharray="5,2" d="M3168.53,-990C3168.53,-990 3280.36,-990 3280.36,-990"/>
<polygon fill="black" stroke="black" points="3280.36,-993.5 3290.36,-990 3280.36,-986.5 3280.36,-993.5"/>
</g>
<!-- tda_nfov_a_log -->
<g id="node47" class="node">
<title>tda_nfov_a_log</title>
<ellipse fill="none" stroke="black" cx="3376.34" cy="-936" rx="78.79" ry="18"/>
<text text-anchor="middle" x="3376.34" y="-932.3" font-family="Times,serif" font-size="14.00">tda_nfov_a_log</text>
</g>
<!-- trans_nfov_a_l4_tda&#45;&gt;tda_nfov_a_log -->
<g id="edge49" class="edge">
<title>trans_nfov_a_l4_tda&#45;&gt;tda_nfov_a_log</title>
<path fill="none" stroke="black" stroke-dasharray="5,2" d="M3181.54,-936C3181.54,-936 3287.37,-936 3287.37,-936"/>
<polygon fill="black" stroke="black" points="3287.37,-939.5 3297.37,-936 3287.37,-932.5 3287.37,-939.5"/>
</g>
<!-- tda_nfov_a_src -->
<g id="node52" class="node">
<title>tda_nfov_a_src</title>
<ellipse fill="none" stroke="black" cx="3376.34" cy="-882" rx="159.47" ry="18"/>
<text text-anchor="middle" x="3376.34" y="-878.3" font-family="Times,serif" font-size="14.00">TDA_nfov_a sourcemanifest 1..1</text>
</g>
<!-- trans_nfov_a_l4_tda&#45;&gt;tda_nfov_a_src -->
<g id="edge54" class="edge">
<title>trans_nfov_a_l4_tda&#45;&gt;tda_nfov_a_src</title>
<path fill="none" stroke="black" d="M3168.53,-882C3168.53,-882 3206.97,-882 3206.97,-882"/>
<polygon fill="black" stroke="black" points="3206.97,-885.5 3216.97,-882 3206.97,-878.5 3206.97,-885.5"/>
</g>
<!-- l1_nfov_a_prod -->
<g id="node6" class="node">
<title>l1_nfov_a_prod</title>
<polygon fill="none" stroke="black" points="260.04,-252 74.04,-252 74.04,-216 260.04,-216 260.04,-252"/>
<text text-anchor="middle" x="167.04" y="-230.3" font-family="Times,serif" font-size="14.00">L1_nfov_a products 1..b</text>
</g>
<!-- l1_nfov_a_prod&#45;&gt;trans_nfov_a_l1_l2a -->
<g id="edge1" class="edge">
<title>l1_nfov_a_prod&#45;&gt;trans_nfov_a_l1_l2a</title>
<path fill="none" stroke="black" stroke-dasharray="5,2" d="M260.07,-231.81C260.07,-231.81 421.44,-231.81 421.44,-231.81"/>
<polygon fill="black" stroke="black" points="421.44,-235.31 431.44,-231.81 421.44,-228.31 421.44,-235.31"/>
</g>
<!-- l1_nfov_a_man -->
<g id="node7" class="node">
<title>l1_nfov_a_man</title>
<ellipse fill="none" stroke="black" cx="167.04" cy="-180" rx="159.47" ry="18"/>
<text text-anchor="middle" x="167.04" y="-176.3" font-family="Times,serif" font-size="14.00">L1_nfov_a product manifest 1..1</text>
</g>
<!-- l1_nfov_a_man&#45;&gt;trans_nfov_a_l1_l2a -->
<g id="edge2" class="edge">
<title>l1_nfov_a_man&#45;&gt;trans_nfov_a_l1_l2a</title>
<path fill="none" stroke="black" d="M326.51,-180C326.51,-180 372.4,-180 372.4,-180"/>
<polygon fill="black" stroke="black" points="372.4,-183.5 382.4,-180 372.4,-176.5 372.4,-183.5"/>
</g>
<!-- l1_nfov_a_odir -->
<g id="node8" class="node">
<title>l1_nfov_a_odir</title>
<ellipse fill="none" stroke="black" cx="167.04" cy="-126" rx="134.58" ry="18"/>
<text text-anchor="middle" x="167.04" y="-122.3" font-family="Times,serif" font-size="14.00">L1_nfov_a output path 1..1</text>
</g>
<!-- l1_nfov_a_odir&#45;&gt;trans_nfov_a_l1_l2a -->
<g id="edge3" class="edge">
<title>l1_nfov_a_odir&#45;&gt;trans_nfov_a_l1_l2a</title>
<path fill="none" stroke="black" d="M301.9,-126C301.9,-126 359.96,-126 359.96,-126"/>
<polygon fill="black" stroke="black" points="359.96,-129.5 369.96,-126 359.96,-122.5 359.96,-129.5"/>
</g>
<!-- l1_nfov_a_rec -->
<g id="node9" class="node">
<title>l1_nfov_a_rec</title>
<polygon fill="none" stroke="black" points="238.54,-84 83.54,-84 83.54,-60 238.54,-60 250.54,-72 238.54,-84"/>
<text text-anchor="middle" x="167.04" y="-68.3" font-family="Times,serif" font-size="14.00">L1_nfov_a recipe 1..1</text>
</g>
<!-- l1_nfov_a_rec&#45;&gt;trans_nfov_a_l1_l2a -->
<g id="edge4" class="edge">
<title>l1_nfov_a_rec&#45;&gt;trans_nfov_a_l1_l2a</title>
<path fill="none" stroke="black" d="M250.64,-72C250.64,-72 372.63,-72 372.63,-72"/>
<polygon fill="black" stroke="black" points="372.63,-75.5 382.63,-72 372.63,-68.5 372.63,-75.5"/>
</g>
<!-- l1_nfov_a_nllut -->
<g id="node10" class="node">
<title>l1_nfov_a_nllut</title>
<polygon fill="none" stroke="black" points="269.54,-30 52.54,-30 52.54,-6 269.54,-6 281.54,-18 269.54,-30"/>
<text text-anchor="middle" x="167.04" y="-14.3" font-family="Times,serif" font-size="14.00">L1_nfov_a non&#45;linear LUT 1..1</text>
</g>
<!-- l1_nfov_a_nllut&#45;&gt;trans_nfov_a_l1_l2a -->
<g id="edge5" class="edge">
<title>l1_nfov_a_nllut&#45;&gt;trans_nfov_a_l1_l2a</title>
<path fill="none" stroke="black" d="M281.95,-20.19C281.95,-20.19 421.63,-20.19 421.63,-20.19"/>
<polygon fill="black" stroke="black" points="421.63,-23.69 431.63,-20.19 421.63,-16.69 421.63,-23.69"/>
</g>
<!-- l2a_nfov_a_prod&#45;&gt;trans_nfov_a_l2a_l2b -->
<g id="edge9" class="edge">
<title>l2a_nfov_a_prod&#45;&gt;trans_nfov_a_l2a_l2b</title>
<path fill="none" stroke="black" stroke-dasharray="5,2" d="M903.58,-225.38C903.58,-249.28 903.58,-288 903.58,-288 903.58,-288 1071.17,-288 1071.17,-288"/>
<polygon fill="black" stroke="black" points="1071.17,-291.5 1081.17,-288 1071.17,-284.5 1071.17,-291.5"/>
</g>
<!-- l2a_nfov_a_man&#45;&gt;trans_nfov_a_l2a_l2b -->
<g id="edge21" class="edge">
<title>l2a_nfov_a_man&#45;&gt;trans_nfov_a_l2a_l2b</title>
<path fill="none" stroke="black" d="M972.58,-158.28C972.58,-182.69 972.58,-283.5 972.58,-283.5 972.58,-283.5 1080.84,-283.5 1080.84,-283.5"/>
<polygon fill="black" stroke="black" points="1080.84,-287 1090.84,-283.5 1080.84,-280 1080.84,-287"/>
</g>
<!-- l2a_nfov_a_odir -->
<g id="node13" class="node">
<title>l2a_nfov_a_odir</title>
<ellipse fill="none" stroke="black" cx="814.4" cy="-641" rx="139.98" ry="18"/>
<text text-anchor="middle" x="814.4" y="-637.3" font-family="Times,serif" font-size="14.00">L2a_nfov_a output path 1..1</text>
</g>
<!-- l2a_nfov_a_odir&#45;&gt;trans_nfov_a_l2a_l2b -->
<g id="edge11" class="edge">
<title>l2a_nfov_a_odir&#45;&gt;trans_nfov_a_l2a_l2b</title>
<path fill="none" stroke="black" d="M954.16,-640C1056.86,-640 1178.58,-640 1178.58,-640 1178.58,-640 1178.58,-520.5 1178.58,-520.5"/>
<polygon fill="black" stroke="black" points="1182.08,-520.5 1178.58,-510.5 1175.08,-520.5 1182.08,-520.5"/>
</g>
<!-- l2a_nfov_a_rec -->
<g id="node14" class="node">
<title>l2a_nfov_a_rec</title>
<polygon fill="none" stroke="black" points="890.4,-599 726.4,-599 726.4,-575 890.4,-575 902.4,-587 890.4,-599"/>
<text text-anchor="middle" x="814.4" y="-583.3" font-family="Times,serif" font-size="14.00">L2a_nfov_a recipe 1..1</text>
</g>
<!-- l2a_nfov_a_rec&#45;&gt;trans_nfov_a_l2a_l2b -->
<g id="edge12" class="edge">
<title>l2a_nfov_a_rec&#45;&gt;trans_nfov_a_l2a_l2b</title>
<path fill="none" stroke="black" d="M902.52,-586C985.32,-586 1096.58,-586 1096.58,-586 1096.58,-586 1096.58,-520.91 1096.58,-520.91"/>
<polygon fill="black" stroke="black" points="1100.08,-520.91 1096.58,-510.91 1093.08,-520.91 1100.08,-520.91"/>
</g>
<!-- l2a_nfov_a_cti -->
<g id="node15" class="node">
<title>l2a_nfov_a_cti</title>
<polygon fill="none" stroke="black" points="951.9,-545 664.9,-545 664.9,-521 951.9,-521 963.9,-533 951.9,-545"/>
<text text-anchor="middle" x="814.4" y="-529.3" font-family="Times,serif" font-size="14.00">L2a_nfov_a charge xfer inefficiency 1..1</text>
</g>
<!-- l2a_nfov_a_cti&#45;&gt;trans_nfov_a_l2a_l2b -->
<g id="edge13" class="edge">
<title>l2a_nfov_a_cti&#45;&gt;trans_nfov_a_l2a_l2b</title>
<path fill="none" stroke="black" d="M952.58,-514.84C952.58,-509.96 952.58,-506 952.58,-506 952.58,-506 1075.22,-506 1075.22,-506"/>
<polygon fill="black" stroke="black" points="1075.22,-509.5 1085.22,-506 1075.22,-502.5 1075.22,-509.5"/>
</g>
<!-- l2a_nfov_a_dnb -->
<g id="node16" class="node">
<title>l2a_nfov_a_dnb</title>
<polygon fill="none" stroke="black" points="933.4,-491 683.4,-491 683.4,-465 933.4,-465 945.4,-478 933.4,-491"/>
<text text-anchor="middle" x="814.4" y="-481.8" font-family="Times,serif" font-size="14.00">L2a_nfov_a CIC/Dark Current/FPN</text>
<text text-anchor="middle" x="814.4" y="-466.8" font-family="Times,serif" font-size="14.00"> or master dark 1..1</text>
</g>
<!-- l2a_nfov_a_dnb&#45;&gt;trans_nfov_a_l2a_l2b -->
<g id="edge14" class="edge">
<title>l2a_nfov_a_dnb&#45;&gt;trans_nfov_a_l2a_l2b</title>
<path fill="none" stroke="black" d="M945.66,-478C945.66,-478 1036.95,-478 1036.95,-478"/>
<polygon fill="black" stroke="black" points="1036.95,-481.5 1046.95,-478 1036.95,-474.5 1036.95,-481.5"/>
</g>
<!-- l2a_nfov_a_mbpm -->
<g id="node17" class="node">
<title>l2a_nfov_a_mbpm</title>
<polygon fill="none" stroke="black" points="945.9,-435 670.9,-435 670.9,-411 945.9,-411 957.9,-423 945.9,-435"/>
<text text-anchor="middle" x="814.4" y="-419.3" font-family="Times,serif" font-size="14.00">L2a_nfov_a master bad pixel map 1..1</text>
</g>
<!-- l2a_nfov_a_mbpm&#45;&gt;trans_nfov_a_l2a_l2b -->
<g id="edge15" class="edge">
<title>l2a_nfov_a_mbpm&#45;&gt;trans_nfov_a_l2a_l2b</title>
<path fill="none" stroke="black" d="M958.29,-423C958.29,-423 1008.14,-423 1008.14,-423"/>
<polygon fill="black" stroke="black" points="1008.14,-426.5 1018.14,-423 1008.14,-419.5 1008.14,-426.5"/>
</g>
<!-- l2a_nfov_a_ff -->
<g id="node18" class="node">
<title>l2a_nfov_a_ff</title>
<polygon fill="none" stroke="black" points="900.9,-381 715.9,-381 715.9,-357 900.9,-357 912.9,-369 900.9,-381"/>
<text text-anchor="middle" x="814.4" y="-365.3" font-family="Times,serif" font-size="14.00">L2a_nfov_a flat fields 1..1</text>
</g>
<!-- l2a_nfov_a_ff&#45;&gt;trans_nfov_a_l2a_l2b -->
<g id="edge16" class="edge">
<title>l2a_nfov_a_ff&#45;&gt;trans_nfov_a_l2a_l2b</title>
<path fill="none" stroke="black" d="M912.98,-369C912.98,-369 1008.4,-369 1008.4,-369"/>
<polygon fill="black" stroke="black" points="1008.4,-372.5 1018.4,-369 1008.4,-365.5 1008.4,-372.5"/>
</g>
<!-- l2a_nfov_a_emg -->
<g id="node19" class="node">
<title>l2a_nfov_a_emg</title>
<polygon fill="none" stroke="black" points="897.9,-327 718.9,-327 718.9,-303 897.9,-303 909.9,-315 897.9,-327"/>
<text text-anchor="middle" x="814.4" y="-311.3" font-family="Times,serif" font-size="14.00">L2a_nfov_a EM gain 1..1</text>
</g>
<!-- l2a_nfov_a_emg&#45;&gt;trans_nfov_a_l2a_l2b -->
<g id="edge17" class="edge">
<title>l2a_nfov_a_emg&#45;&gt;trans_nfov_a_l2a_l2b</title>
<path fill="none" stroke="black" d="M909.91,-315C909.91,-315 1036.27,-315 1036.27,-315"/>
<polygon fill="black" stroke="black" points="1036.27,-318.5 1046.27,-315 1036.27,-311.5 1036.27,-318.5"/>
</g>
<!-- l2a_nfov_a_kgain -->
<g id="node20" class="node">
<title>l2a_nfov_a_kgain</title>
<polygon fill="none" stroke="black" points="884.4,-273 732.4,-273 732.4,-249 884.4,-249 896.4,-261 884.4,-273"/>
<text text-anchor="middle" x="814.4" y="-257.3" font-family="Times,serif" font-size="14.00">L2_nfov_a Kgain 1..1</text>
</g>
<!-- l2a_nfov_a_kgain&#45;&gt;trans_nfov_a_l2a_l2b -->
<g id="edge10" class="edge">
<title>l2a_nfov_a_kgain&#45;&gt;trans_nfov_a_l2a_l2b</title>
<path fill="none" stroke="black" d="M814.58,-279.32C814.58,-286.25 814.58,-292.5 814.58,-292.5 814.58,-292.5 1063,-292.5 1063,-292.5"/>
<polygon fill="black" stroke="black" points="1063,-296 1073,-292.5 1063,-289 1063,-296"/>
</g>
<!-- l2b_nfov_a_prod&#45;&gt;trans_nfov_a_l2b_l3 -->
<g id="edge22" class="edge">
<title>l2b_nfov_a_prod&#45;&gt;trans_nfov_a_l2b_l3</title>
<path fill="none" stroke="black" stroke-dasharray="5,2" d="M1557.51,-484.46C1557.51,-484.46 1703.81,-484.46 1703.81,-484.46"/>
<polygon fill="black" stroke="black" points="1703.81,-487.96 1713.81,-484.46 1703.81,-480.96 1703.81,-487.96"/>
</g>
<!-- l2b_nfov_a_man&#45;&gt;trans_nfov_a_l2b_l3 -->
<g id="edge23" class="edge">
<title>l2b_nfov_a_man&#45;&gt;trans_nfov_a_l2b_l3</title>
<path fill="none" stroke="black" d="M1618.58,-428.07C1618.58,-440.95 1618.58,-473.92 1618.58,-473.92 1618.58,-473.92 1722.89,-473.92 1722.89,-473.92"/>
<polygon fill="black" stroke="black" points="1722.89,-477.42 1732.89,-473.92 1722.89,-470.42 1722.89,-477.42"/>
</g>
<!-- l2b_nfov_a_odir -->
<g id="node24" class="node">
<title>l2b_nfov_a_odir</title>
<ellipse fill="none" stroke="black" cx="1459.82" cy="-747" rx="140.28" ry="18"/>
<text text-anchor="middle" x="1459.82" y="-743.3" font-family="Times,serif" font-size="14.00">L2b_nfov_a output path 1..1</text>
</g>
<!-- l2b_nfov_a_odir&#45;&gt;trans_nfov_a_l2b_l3 -->
<g id="edge24" class="edge">
<title>l2b_nfov_a_odir&#45;&gt;trans_nfov_a_l2b_l3</title>
<path fill="none" stroke="black" d="M1574.58,-736.2C1574.58,-721.25 1574.58,-696.08 1574.58,-696.08 1574.58,-696.08 1722.98,-696.08 1722.98,-696.08"/>
<polygon fill="black" stroke="black" points="1722.98,-699.58 1732.98,-696.08 1722.98,-692.58 1722.98,-699.58"/>
</g>
<!-- l2b_nfov_a_rec -->
<g id="node25" class="node">
<title>l2b_nfov_a_rec</title>
<polygon fill="none" stroke="black" points="1535.82,-705 1371.82,-705 1371.82,-681 1535.82,-681 1547.82,-693 1535.82,-705"/>
<text text-anchor="middle" x="1459.82" y="-689.3" font-family="Times,serif" font-size="14.00">L2b_nfov_a recipe 1..1</text>
</g>
<!-- l2b_nfov_a_rec&#45;&gt;trans_nfov_a_l2b_l3 -->
<g id="edge25" class="edge">
<title>l2b_nfov_a_rec&#45;&gt;trans_nfov_a_l2b_l3</title>
<path fill="none" stroke="black" d="M1548,-685.54C1548,-685.54 1703.89,-685.54 1703.89,-685.54"/>
<polygon fill="black" stroke="black" points="1703.89,-689.04 1713.89,-685.54 1703.89,-682.04 1703.89,-689.04"/>
</g>
<!-- l2b_nfov_a_excicrf -->
<g id="node26" class="node">
<title>l2b_nfov_a_excicrf</title>
<polygon fill="none" stroke="black" points="1591.82,-651 1315.82,-651 1315.82,-627 1591.82,-627 1603.82,-639 1591.82,-651"/>
<text text-anchor="middle" x="1459.82" y="-635.3" font-family="Times,serif" font-size="14.00">L2b_nfov_a EXCAM ICRF location 1..1</text>
</g>
<!-- l2b_nfov_a_excicrf&#45;&gt;trans_nfov_a_l2b_l3 -->
<g id="edge26" class="edge">
<title>l2b_nfov_a_excicrf&#45;&gt;trans_nfov_a_l2b_l3</title>
<path fill="none" stroke="black" d="M1604.18,-639C1604.18,-639 1663.14,-639 1663.14,-639"/>
<polygon fill="black" stroke="black" points="1663.14,-642.5 1673.14,-639 1663.14,-635.5 1663.14,-642.5"/>
</g>
<!-- l2b_nfov_a_excfovps -->
<g id="node27" class="node">
<title>l2b_nfov_a_excfovps</title>
<polygon fill="none" stroke="black" points="1598.82,-597 1308.82,-597 1308.82,-573 1598.82,-573 1610.82,-585 1598.82,-597"/>
<text text-anchor="middle" x="1459.82" y="-581.3" font-family="Times,serif" font-size="14.00">L2b_nfov_a EXCAM FOV pixel scale 1..1</text>
</g>
<!-- l2b_nfov_a_excfovps&#45;&gt;trans_nfov_a_l2b_l3 -->
<g id="edge27" class="edge">
<title>l2b_nfov_a_excfovps&#45;&gt;trans_nfov_a_l2b_l3</title>
<path fill="none" stroke="black" d="M1611.25,-585C1611.25,-585 1650.59,-585 1650.59,-585"/>
<polygon fill="black" stroke="black" points="1650.59,-588.5 1660.59,-585 1650.59,-581.5 1650.59,-588.5"/>
</g>
<!-- l2b_nfov_a_distm -->
<g id="node28" class="node">
<title>l2b_nfov_a_distm</title>
<polygon fill="none" stroke="black" points="1566.32,-543 1341.32,-543 1341.32,-519 1566.32,-519 1578.32,-531 1566.32,-543"/>
<text text-anchor="middle" x="1459.82" y="-527.3" font-family="Times,serif" font-size="14.00">L2b_nfov_a distortion map 1..1</text>
</g>
<!-- l2b_nfov_a_distm&#45;&gt;trans_nfov_a_l2b_l3 -->
<g id="edge28" class="edge">
<title>l2b_nfov_a_distm&#45;&gt;trans_nfov_a_l2b_l3</title>
<path fill="none" stroke="black" d="M1578.61,-531C1578.61,-531 1663.34,-531 1663.34,-531"/>
<polygon fill="black" stroke="black" points="1663.34,-534.5 1673.34,-531 1663.34,-527.5 1663.34,-534.5"/>
</g>
<!-- l3_nfov_a_prod&#45;&gt;trans_nfov_a_l3_l4 -->
<g id="edge32" class="edge">
<title>l3_nfov_a_prod&#45;&gt;trans_nfov_a_l3_l4</title>
<path fill="none" stroke="black" stroke-dasharray="5,2" d="M2192.74,-666C2192.74,-666 2315.46,-666 2315.46,-666"/>
<polygon fill="black" stroke="black" points="2315.46,-669.5 2325.46,-666 2315.46,-662.5 2315.46,-669.5"/>
</g>
<!-- l3_nfov_a_odir -->
<g id="node31" class="node">
<title>l3_nfov_a_odir</title>
<ellipse fill="none" stroke="black" cx="2099.38" cy="-882" rx="134.58" ry="18"/>
<text text-anchor="middle" x="2099.38" y="-878.3" font-family="Times,serif" font-size="14.00">L3_nfov_a output path 1..1</text>
</g>
<!-- l3_nfov_a_odir&#45;&gt;trans_nfov_a_l3_l4 -->
<g id="edge34" class="edge">
<title>l3_nfov_a_odir&#45;&gt;trans_nfov_a_l3_l4</title>
<path fill="none" stroke="black" d="M2218.58,-873.46C2218.58,-865.55 2218.58,-855 2218.58,-855 2218.58,-855 2350.13,-855 2350.13,-855"/>
<polygon fill="black" stroke="black" points="2350.13,-858.5 2360.13,-855 2350.13,-851.5 2350.13,-858.5"/>
</g>
<!-- l3_nfov_a_man&#45;&gt;trans_nfov_a_l3_l4 -->
<g id="edge33" class="edge">
<title>l3_nfov_a_man&#45;&gt;trans_nfov_a_l3_l4</title>
<path fill="none" stroke="black" d="M2246.58,-619.09C2246.58,-627.09 2246.58,-639 2246.58,-639 2246.58,-639 2350.22,-639 2350.22,-639"/>
<polygon fill="black" stroke="black" points="2350.22,-642.5 2360.22,-639 2350.22,-635.5 2350.22,-642.5"/>
</g>
<!-- l3_nfov_a_rec -->
<g id="node33" class="node">
<title>l3_nfov_a_rec</title>
<polygon fill="none" stroke="black" points="2170.88,-840 2015.88,-840 2015.88,-816 2170.88,-816 2182.88,-828 2170.88,-840"/>
<text text-anchor="middle" x="2099.38" y="-824.3" font-family="Times,serif" font-size="14.00">L3_nfov_a recipe 1..1</text>
</g>
<!-- l3_nfov_a_rec&#45;&gt;trans_nfov_a_l3_l4 -->
<g id="edge35" class="edge">
<title>l3_nfov_a_rec&#45;&gt;trans_nfov_a_l3_l4</title>
<path fill="none" stroke="black" d="M2183.05,-828C2183.05,-828 2315.42,-828 2315.42,-828"/>
<polygon fill="black" stroke="black" points="2315.42,-831.5 2325.42,-828 2315.42,-824.5 2315.42,-831.5"/>
</g>
<!-- l3_nfov_a_ast -->
<g id="node34" class="node">
<title>l3_nfov_a_ast</title>
<polygon fill="none" stroke="black" points="2190.38,-786 1996.38,-786 1996.38,-762 2190.38,-762 2202.38,-774 2190.38,-786"/>
<text text-anchor="middle" x="2099.38" y="-770.3" font-family="Times,serif" font-size="14.00">L3_nfov_a astrometric 1..1</text>
</g>
<!-- l3_nfov_a_ast&#45;&gt;trans_nfov_a_l3_l4 -->
<g id="edge36" class="edge">
<title>l3_nfov_a_ast&#45;&gt;trans_nfov_a_l3_l4</title>
<path fill="none" stroke="black" d="M2202.69,-774C2202.69,-774 2287.39,-774 2287.39,-774"/>
<polygon fill="black" stroke="black" points="2287.39,-777.5 2297.39,-774 2287.39,-770.5 2287.39,-777.5"/>
</g>
<!-- l3_nfov_a_ndf -->
<g id="node35" class="node">
<title>l3_nfov_a_ndf</title>
<polygon fill="none" stroke="black" points="2182.88,-732 2003.88,-732 2003.88,-708 2182.88,-708 2194.88,-720 2182.88,-732"/>
<text text-anchor="middle" x="2099.38" y="-716.3" font-family="Times,serif" font-size="14.00">L3_nfov_a ND Filter 1..1</text>
</g>
<!-- l3_nfov_a_ndf&#45;&gt;trans_nfov_a_l3_l4 -->
<g id="edge37" class="edge">
<title>l3_nfov_a_ndf&#45;&gt;trans_nfov_a_l3_l4</title>
<path fill="none" stroke="black" d="M2195.31,-720C2195.31,-720 2287.38,-720 2287.38,-720"/>
<polygon fill="black" stroke="black" points="2287.38,-723.5 2297.38,-720 2287.38,-716.5 2287.38,-723.5"/>
</g>
<!-- l4_nfov_a_prod&#45;&gt;trans_nfov_a_l4_tda -->
<g id="edge41" class="edge">
<title>l4_nfov_a_prod&#45;&gt;trans_nfov_a_l4_tda</title>
<path fill="none" stroke="black" stroke-dasharray="5,2" d="M2830.89,-835.46C2830.89,-835.46 2980.94,-835.46 2980.94,-835.46"/>
<polygon fill="black" stroke="black" points="2980.94,-838.96 2990.94,-835.46 2980.94,-831.96 2980.94,-838.96"/>
</g>
<!-- l4_nfov_a_odir -->
<g id="node38" class="node">
<title>l4_nfov_a_odir</title>
<ellipse fill="none" stroke="black" cx="2737.86" cy="-1098" rx="134.58" ry="18"/>
<text text-anchor="middle" x="2737.86" y="-1094.3" font-family="Times,serif" font-size="14.00">L4_nfov_a output path 1..1</text>
</g>
<!-- l4_nfov_a_odir&#45;&gt;trans_nfov_a_l4_tda -->
<g id="edge43" class="edge">
<title>l4_nfov_a_odir&#45;&gt;trans_nfov_a_l4_tda</title>
<path fill="none" stroke="black" d="M2847.58,-1087.2C2847.58,-1072.25 2847.58,-1047.08 2847.58,-1047.08 2847.58,-1047.08 2999.8,-1047.08 2999.8,-1047.08"/>
<polygon fill="black" stroke="black" points="2999.8,-1050.58 3009.8,-1047.08 2999.8,-1043.58 2999.8,-1050.58"/>
</g>
<!-- l4_nfov_a_man&#45;&gt;trans_nfov_a_l4_tda -->
<g id="edge42" class="edge">
<title>l4_nfov_a_man&#45;&gt;trans_nfov_a_l4_tda</title>
<path fill="none" stroke="black" d="M2865.58,-730.83C2865.58,-757.64 2865.58,-824.92 2865.58,-824.92 2865.58,-824.92 2999.8,-824.92 2999.8,-824.92"/>
<polygon fill="black" stroke="black" points="2999.8,-828.42 3009.8,-824.92 2999.8,-821.42 2999.8,-828.42"/>
</g>
<!-- l4_nfov_a_rec -->
<g id="node41" class="node">
<title>l4_nfov_a_rec</title>
<polygon fill="none" stroke="black" points="2809.36,-1056 2654.36,-1056 2654.36,-1032 2809.36,-1032 2821.36,-1044 2809.36,-1056"/>
<text text-anchor="middle" x="2737.86" y="-1040.3" font-family="Times,serif" font-size="14.00">L4_nfov_a recipe 1..1</text>
</g>
<!-- l4_nfov_a_rec&#45;&gt;trans_nfov_a_l4_tda -->
<g id="edge44" class="edge">
<title>l4_nfov_a_rec&#45;&gt;trans_nfov_a_l4_tda</title>
<path fill="none" stroke="black" d="M2821.53,-1036.54C2821.53,-1036.54 2980.87,-1036.54 2980.87,-1036.54"/>
<polygon fill="black" stroke="black" points="2980.87,-1040.04 2990.87,-1036.54 2980.87,-1033.04 2980.87,-1040.04"/>
</g>
<!-- l4_nfov_a_afcal -->
<g id="node42" class="node">
<title>l4_nfov_a_afcal</title>
<polygon fill="none" stroke="black" points="2877.36,-1002 2586.36,-1002 2586.36,-978 2877.36,-978 2889.36,-990 2877.36,-1002"/>
<text text-anchor="middle" x="2737.86" y="-986.3" font-family="Times,serif" font-size="14.00">L4_nfov_a absolute flux calibrations 1..1</text>
</g>
<!-- l4_nfov_a_afcal&#45;&gt;trans_nfov_a_l4_tda -->
<g id="edge45" class="edge">
<title>l4_nfov_a_afcal&#45;&gt;trans_nfov_a_l4_tda</title>
<path fill="none" stroke="black" d="M2889.73,-990C2889.73,-990 2940.45,-990 2940.45,-990"/>
<polygon fill="black" stroke="black" points="2940.45,-993.5 2950.45,-990 2940.45,-986.5 2940.45,-993.5"/>
</g>
<!-- l4_nfov_a_ctcal -->
<g id="node43" class="node">
<title>l4_nfov_a_ctcal</title>
<polygon fill="none" stroke="black" points="2889.86,-948 2573.86,-948 2573.86,-924 2889.86,-924 2901.86,-936 2889.86,-948"/>
<text text-anchor="middle" x="2737.86" y="-932.3" font-family="Times,serif" font-size="14.00">L4_nfov_a core throughput calibrations 1..1</text>
</g>
<!-- l4_nfov_a_ctcal&#45;&gt;trans_nfov_a_l4_tda -->
<g id="edge46" class="edge">
<title>l4_nfov_a_ctcal&#45;&gt;trans_nfov_a_l4_tda</title>
<path fill="none" stroke="black" d="M2901.97,-936C2901.97,-936 2927.41,-936 2927.41,-936"/>
<polygon fill="black" stroke="black" points="2927.41,-939.5 2937.41,-936 2927.41,-932.5 2927.41,-939.5"/>
</g>
<!-- l4_nfov_a_ndfilt -->
<g id="node44" class="node">
<title>l4_nfov_a_ndfilt</title>
<polygon fill="none" stroke="black" points="2818.36,-894 2645.36,-894 2645.36,-870 2818.36,-870 2830.36,-882 2818.36,-894"/>
<text text-anchor="middle" x="2737.86" y="-878.3" font-family="Times,serif" font-size="14.00">L4_nfov_a ND filter 1..1</text>
</g>
<!-- l4_nfov_a_ndfilt&#45;&gt;trans_nfov_a_l4_tda -->
<g id="edge47" class="edge">
<title>l4_nfov_a_ndfilt&#45;&gt;trans_nfov_a_l4_tda</title>
<path fill="none" stroke="black" d="M2830.46,-882C2830.46,-882 2940.5,-882 2940.5,-882"/>
<polygon fill="black" stroke="black" points="2940.5,-885.5 2950.5,-882 2940.5,-878.5 2940.5,-885.5"/>
</g>
<!-- tda_nfov_a_man -->
<g id="node45" class="node">
<title>tda_nfov_a_man</title>
<ellipse fill="none" stroke="black" cx="167.04" cy="-288" rx="167.07" ry="18"/>
<text text-anchor="middle" x="167.04" y="-284.3" font-family="Times,serif" font-size="14.00">TDA_nfov_a product manifest 1..1</text>
</g>
</g>
</svg>
