<?xml version="1.0" encoding="UTF-8" standalone="no"?>
<!DOCTYPE svg PUBLIC "-//W3C//DTD SVG 1.1//EN"
 "http://www.w3.org/Graphics/SVG/1.1/DTD/svg11.dtd">
<!-- Generated by graphviz version 2.43.0 (0)
 -->
<!-- Title: NarrowFieldOfViewAnalog Pages: 1 -->
<svg width="3223pt" height="989pt"
 viewBox="0.00 0.00 3222.96 989.00" xmlns="http://www.w3.org/2000/svg" xmlns:xlink="http://www.w3.org/1999/xlink">
<g id="graph0" class="graph" transform="scale(1 1) rotate(0) translate(4 985)">
<title>NarrowFieldOfViewAnalog</title>
<polygon fill="white" stroke="transparent" points="-4,4 -4,-985 3218.96,-985 3218.96,4 -4,4"/>
<!-- trans_nfov_a_l1_l2a -->
<g id="node1" class="node">
<title>trans_nfov_a_l1_l2a</title>
<ellipse fill="none" stroke="black" cx="426.7" cy="-126" rx="121.74" ry="121.74"/>
<text text-anchor="middle" x="426.7" y="-129.8" font-family="Times,serif" font-size="14.00">nfov_a Transmutation</text>
<text text-anchor="middle" x="426.7" y="-114.8" font-family="Times,serif" font-size="14.00">L1 to L2a</text>
</g>
<!-- l2a_nfov_a_prod -->
<g id="node11" class="node">
<title>l2a_nfov_a_prod</title>
<polygon fill="none" stroke="black" points="830.82,-198 636.82,-198 636.82,-162 830.82,-162 830.82,-198"/>
<text text-anchor="middle" x="733.82" y="-176.3" font-family="Times,serif" font-size="14.00">L2a_nfov_a products 1..b</text>
</g>
<!-- trans_nfov_a_l1_l2a&#45;&gt;l2a_nfov_a_prod -->
<g id="edge6" class="edge">
<title>trans_nfov_a_l1_l2a&#45;&gt;l2a_nfov_a_prod</title>
<path fill="none" stroke="black" stroke-dasharray="5,2" d="M535.84,-180C535.84,-180 626.77,-180 626.77,-180"/>
<polygon fill="black" stroke="black" points="626.77,-183.5 636.77,-180 626.77,-176.5 626.77,-183.5"/>
</g>
<!-- l2a_nfov_a_man -->
<g id="node12" class="node">
<title>l2a_nfov_a_man</title>
<ellipse fill="none" stroke="black" cx="733.82" cy="-126" rx="126.18" ry="18"/>
<text text-anchor="middle" x="733.82" y="-122.3" font-family="Times,serif" font-size="14.00">L2a_nfov_a manifest 1..1</text>
</g>
<!-- trans_nfov_a_l1_l2a&#45;&gt;l2a_nfov_a_man -->
<g id="edge7" class="edge">
<title>trans_nfov_a_l1_l2a&#45;&gt;l2a_nfov_a_man</title>
<path fill="none" stroke="black" d="M548.52,-126C548.52,-126 597.61,-126 597.61,-126"/>
<polygon fill="black" stroke="black" points="597.61,-129.5 607.61,-126 597.61,-122.5 597.61,-129.5"/>
</g>
<!-- l2a_nfov_a_log -->
<g id="node21" class="node">
<title>l2a_nfov_a_log</title>
<ellipse fill="none" stroke="black" cx="733.82" cy="-72" rx="99.38" ry="18"/>
<text text-anchor="middle" x="733.82" y="-68.3" font-family="Times,serif" font-size="14.00">L2a log_nfov_a 1..1</text>
</g>
<!-- trans_nfov_a_l1_l2a&#45;&gt;l2a_nfov_a_log -->
<g id="edge8" class="edge">
<title>trans_nfov_a_l1_l2a&#45;&gt;l2a_nfov_a_log</title>
<path fill="none" stroke="black" stroke-dasharray="5,2" d="M535.84,-72C535.84,-72 624.25,-72 624.25,-72"/>
<polygon fill="black" stroke="black" points="624.25,-75.5 634.25,-72 624.25,-68.5 624.25,-75.5"/>
</g>
<!-- trans_nfov_a_l2a_l2b -->
<g id="node2" class="node">
<title>trans_nfov_a_l2a_l2b</title>
<ellipse fill="none" stroke="black" cx="1040.94" cy="-369" rx="121.74" ry="121.74"/>
<text text-anchor="middle" x="1040.94" y="-372.8" font-family="Times,serif" font-size="14.00">nfov_a Transmutation</text>
<text text-anchor="middle" x="1040.94" y="-357.8" font-family="Times,serif" font-size="14.00">L2a to L2b</text>
</g>
<!-- l2b_nfov_a_prod -->
<g id="node22" class="node">
<title>l2b_nfov_a_prod</title>
<polygon fill="none" stroke="black" points="1447.07,-441 1252.07,-441 1252.07,-405 1447.07,-405 1447.07,-441"/>
<text text-anchor="middle" x="1349.57" y="-419.3" font-family="Times,serif" font-size="14.00">L2b_nfov_a products 1..1</text>
</g>
<!-- trans_nfov_a_l2a_l2b&#45;&gt;l2b_nfov_a_prod -->
<g id="edge18" class="edge">
<title>trans_nfov_a_l2a_l2b&#45;&gt;l2b_nfov_a_prod</title>
<path fill="none" stroke="black" stroke-dasharray="5,2" d="M1150.19,-423C1150.19,-423 1242.03,-423 1242.03,-423"/>
<polygon fill="black" stroke="black" points="1242.03,-426.5 1252.03,-423 1242.03,-419.5 1242.03,-426.5"/>
</g>
<!-- l2b_nfov_a_man -->
<g id="node23" class="node">
<title>l2b_nfov_a_man</title>
<ellipse fill="none" stroke="black" cx="1349.57" cy="-369" rx="126.18" ry="18"/>
<text text-anchor="middle" x="1349.57" y="-365.3" font-family="Times,serif" font-size="14.00">L2b_nfov_a manifest 1..1</text>
</g>
<!-- trans_nfov_a_l2a_l2b&#45;&gt;l2b_nfov_a_man -->
<g id="edge19" class="edge">
<title>trans_nfov_a_l2a_l2b&#45;&gt;l2b_nfov_a_man</title>
<path fill="none" stroke="black" d="M1162.92,-369C1162.92,-369 1213.41,-369 1213.41,-369"/>
<polygon fill="black" stroke="black" points="1213.41,-372.5 1223.41,-369 1213.41,-365.5 1213.41,-372.5"/>
</g>
<!-- l2b_nfov_a_log -->
<g id="node29" class="node">
<title>l2b_nfov_a_log</title>
<ellipse fill="none" stroke="black" cx="1349.57" cy="-315" rx="100.18" ry="18"/>
<text text-anchor="middle" x="1349.57" y="-311.3" font-family="Times,serif" font-size="14.00">L2b_nfov_a log 1..1</text>
</g>
<!-- trans_nfov_a_l2a_l2b&#45;&gt;l2b_nfov_a_log -->
<g id="edge20" class="edge">
<title>trans_nfov_a_l2a_l2b&#45;&gt;l2b_nfov_a_log</title>
<path fill="none" stroke="black" stroke-dasharray="5,2" d="M1150.19,-315C1150.19,-315 1239.23,-315 1239.23,-315"/>
<polygon fill="black" stroke="black" points="1239.23,-318.5 1249.23,-315 1239.23,-311.5 1239.23,-318.5"/>
</g>
<!-- trans_nfov_a_l2b_l3 -->
<g id="node3" class="node">
<title>trans_nfov_a_l2b_l3</title>
<ellipse fill="none" stroke="black" cx="1658.19" cy="-531" rx="121.74" ry="121.74"/>
<text text-anchor="middle" x="1658.19" y="-534.8" font-family="Times,serif" font-size="14.00">nfov_a Transmutation</text>
<text text-anchor="middle" x="1658.19" y="-519.8" font-family="Times,serif" font-size="14.00">L2b to L3</text>
</g>
<!-- l3_nfov_a_prod -->
<g id="node30" class="node">
<title>l3_nfov_a_prod</title>
<polygon fill="none" stroke="black" points="2043.35,-603 1857.35,-603 1857.35,-567 2043.35,-567 2043.35,-603"/>
<text text-anchor="middle" x="1950.35" y="-581.3" font-family="Times,serif" font-size="14.00">L3_nfov_a products 1..1</text>
</g>
<!-- trans_nfov_a_l2b_l3&#45;&gt;l3_nfov_a_prod -->
<g id="edge29" class="edge">
<title>trans_nfov_a_l2b_l3&#45;&gt;l3_nfov_a_prod</title>
<path fill="none" stroke="black" stroke-dasharray="5,2" d="M1767.39,-585C1767.39,-585 1847.07,-585 1847.07,-585"/>
<polygon fill="black" stroke="black" points="1847.07,-588.5 1857.07,-585 1847.07,-581.5 1847.07,-588.5"/>
</g>
<!-- l3_nfov_a_man -->
<g id="node32" class="node">
<title>l3_nfov_a_man</title>
<ellipse fill="none" stroke="black" cx="1950.35" cy="-531" rx="120.48" ry="18"/>
<text text-anchor="middle" x="1950.35" y="-527.3" font-family="Times,serif" font-size="14.00">L3_nfov_a manifest 1..1</text>
</g>
<!-- trans_nfov_a_l2b_l3&#45;&gt;l3_nfov_a_man -->
<g id="edge30" class="edge">
<title>trans_nfov_a_l2b_l3&#45;&gt;l3_nfov_a_man</title>
<path fill="none" stroke="black" d="M1779.97,-531C1779.97,-531 1819.7,-531 1819.7,-531"/>
<polygon fill="black" stroke="black" points="1819.7,-534.5 1829.7,-531 1819.7,-527.5 1819.7,-534.5"/>
</g>
<!-- l3_nfov_a_log -->
<g id="node35" class="node">
<title>l3_nfov_a_log</title>
<ellipse fill="none" stroke="black" cx="1950.35" cy="-477" rx="94.48" ry="18"/>
<text text-anchor="middle" x="1950.35" y="-473.3" font-family="Times,serif" font-size="14.00">L3_nfov_a log 1..1</text>
</g>
<!-- trans_nfov_a_l2b_l3&#45;&gt;l3_nfov_a_log -->
<g id="edge31" class="edge">
<title>trans_nfov_a_l2b_l3&#45;&gt;l3_nfov_a_log</title>
<path fill="none" stroke="black" stroke-dasharray="5,2" d="M1767.39,-477C1767.39,-477 1845.66,-477 1845.66,-477"/>
<polygon fill="black" stroke="black" points="1845.66,-480.5 1855.66,-477 1845.66,-473.5 1845.66,-480.5"/>
</g>
<!-- trans_nfov_a_l3_l4 -->
<g id="node4" class="node">
<title>trans_nfov_a_l3_l4</title>
<ellipse fill="none" stroke="black" cx="2242.51" cy="-639" rx="121.74" ry="121.74"/>
<text text-anchor="middle" x="2242.51" y="-642.8" font-family="Times,serif" font-size="14.00">nfov_a Transmutation</text>
<text text-anchor="middle" x="2242.51" y="-627.8" font-family="Times,serif" font-size="14.00">L3 to L4</text>
</g>
<!-- l4_nfov_a_prod -->
<g id="node36" class="node">
<title>l4_nfov_a_prod</title>
<polygon fill="none" stroke="black" points="2657.13,-711 2471.13,-711 2471.13,-675 2657.13,-675 2657.13,-711"/>
<text text-anchor="middle" x="2564.13" y="-689.3" font-family="Times,serif" font-size="14.00">L4_nfov_a products 1..1</text>
</g>
<!-- trans_nfov_a_l3_l4&#45;&gt;l4_nfov_a_prod -->
<g id="edge37" class="edge">
<title>trans_nfov_a_l3_l4&#45;&gt;l4_nfov_a_prod</title>
<path fill="none" stroke="black" stroke-dasharray="5,2" d="M2351.84,-693C2351.84,-693 2460.92,-693 2460.92,-693"/>
<polygon fill="black" stroke="black" points="2460.92,-696.5 2470.92,-693 2460.92,-689.5 2460.92,-696.5"/>
</g>
<!-- l4_nfov_a_log -->
<g id="node38" class="node">
<title>l4_nfov_a_log</title>
<ellipse fill="none" stroke="black" cx="2564.13" cy="-639" rx="94.48" ry="18"/>
<text text-anchor="middle" x="2564.13" y="-635.3" font-family="Times,serif" font-size="14.00">L4_nfov_a log 1..1</text>
</g>
<!-- trans_nfov_a_l3_l4&#45;&gt;l4_nfov_a_log -->
<g id="edge38" class="edge">
<title>trans_nfov_a_l3_l4&#45;&gt;l4_nfov_a_log</title>
<path fill="none" stroke="black" stroke-dasharray="5,2" d="M2364.56,-639C2364.56,-639 2459.71,-639 2459.71,-639"/>
<polygon fill="black" stroke="black" points="2459.71,-642.5 2469.71,-639 2459.71,-635.5 2459.71,-642.5"/>
</g>
<!-- l4_nfov_a_man -->
<g id="node39" class="node">
<title>l4_nfov_a_man</title>
<ellipse fill="none" stroke="black" cx="2564.13" cy="-585" rx="120.48" ry="18"/>
<text text-anchor="middle" x="2564.13" y="-581.3" font-family="Times,serif" font-size="14.00">L4_nfov_a manifest 1..1</text>
</g>
<!-- trans_nfov_a_l3_l4&#45;&gt;l4_nfov_a_man -->
<g id="edge39" class="edge">
<title>trans_nfov_a_l3_l4&#45;&gt;l4_nfov_a_man</title>
<path fill="none" stroke="black" d="M2351.84,-585C2351.84,-585 2433.79,-585 2433.79,-585"/>
<polygon fill="black" stroke="black" points="2433.79,-588.5 2443.79,-585 2433.79,-581.5 2433.79,-588.5"/>
</g>
<!-- trans_nfov_a_l4_tda -->
<g id="node5" class="node">
<title>trans_nfov_a_l4_tda</title>
<ellipse fill="none" stroke="black" cx="2885.75" cy="-801" rx="121.74" ry="121.74"/>
<text text-anchor="middle" x="2885.75" y="-804.8" font-family="Times,serif" font-size="14.00">nfov_a Transmutation</text>
<text text-anchor="middle" x="2885.75" y="-789.8" font-family="Times,serif" font-size="14.00">L4 to TDA</text>
</g>
<!-- tda_nfov_a_prod -->
<g id="node45" class="node">
<title>tda_nfov_a_prod</title>
<ellipse fill="none" stroke="black" cx="3129.17" cy="-828" rx="85.59" ry="18"/>
<text text-anchor="middle" x="3129.17" y="-824.3" font-family="Times,serif" font-size="14.00">tda_nfov_a_prod</text>
</g>
<!-- trans_nfov_a_l4_tda&#45;&gt;tda_nfov_a_prod -->
<g id="edge47" class="edge">
<title>trans_nfov_a_l4_tda&#45;&gt;tda_nfov_a_prod</title>
<path fill="none" stroke="black" stroke-dasharray="5,2" d="M3004.61,-828C3004.61,-828 3033.24,-828 3033.24,-828"/>
<polygon fill="black" stroke="black" points="3033.24,-831.5 3043.24,-828 3033.24,-824.5 3033.24,-831.5"/>
</g>
<!-- tda_nfov_a_log -->
<g id="node46" class="node">
<title>tda_nfov_a_log</title>
<ellipse fill="none" stroke="black" cx="3129.17" cy="-774" rx="78.79" ry="18"/>
<text text-anchor="middle" x="3129.17" y="-770.3" font-family="Times,serif" font-size="14.00">tda_nfov_a_log</text>
</g>
<!-- trans_nfov_a_l4_tda&#45;&gt;tda_nfov_a_log -->
<g id="edge48" class="edge">
<title>trans_nfov_a_l4_tda&#45;&gt;tda_nfov_a_log</title>
<path fill="none" stroke="black" stroke-dasharray="5,2" d="M3004.61,-774C3004.61,-774 3040.48,-774 3040.48,-774"/>
<polygon fill="black" stroke="black" points="3040.48,-777.5 3050.48,-774 3040.48,-770.5 3040.48,-777.5"/>
</g>
<!-- l1_nfov_a_prod -->
<g id="node6" class="node">
<title>l1_nfov_a_prod</title>
<polygon fill="none" stroke="black" points="227.54,-252 41.54,-252 41.54,-216 227.54,-216 227.54,-252"/>
<text text-anchor="middle" x="134.54" y="-230.3" font-family="Times,serif" font-size="14.00">L1_nfov_a products 1..b</text>
</g>
<!-- l1_nfov_a_prod&#45;&gt;trans_nfov_a_l1_l2a -->
<g id="edge1" class="edge">
<title>l1_nfov_a_prod&#45;&gt;trans_nfov_a_l1_l2a</title>
<path fill="none" stroke="black" stroke-dasharray="5,2" d="M227.78,-231.81C227.78,-231.81 356.49,-231.81 356.49,-231.81"/>
<polygon fill="black" stroke="black" points="356.49,-235.31 366.49,-231.81 356.49,-228.31 356.49,-235.31"/>
</g>
<!-- l1_nfov_a_man -->
<g id="node7" class="node">
<title>l1_nfov_a_man</title>
<ellipse fill="none" stroke="black" cx="134.54" cy="-180" rx="120.48" ry="18"/>
<text text-anchor="middle" x="134.54" y="-176.3" font-family="Times,serif" font-size="14.00">L1_nfov_a manifest 1..1</text>
</g>
<!-- l1_nfov_a_man&#45;&gt;trans_nfov_a_l1_l2a -->
<g id="edge2" class="edge">
<title>l1_nfov_a_man&#45;&gt;trans_nfov_a_l1_l2a</title>
<path fill="none" stroke="black" d="M255.06,-180C255.06,-180 307.69,-180 307.69,-180"/>
<polygon fill="black" stroke="black" points="307.69,-183.5 317.69,-180 307.69,-176.5 307.69,-183.5"/>
</g>
<!-- l1_nfov_a_odir -->
<g id="node8" class="node">
<title>l1_nfov_a_odir</title>
<ellipse fill="none" stroke="black" cx="134.54" cy="-126" rx="134.58" ry="18"/>
<text text-anchor="middle" x="134.54" y="-122.3" font-family="Times,serif" font-size="14.00">L1_nfov_a output path 1..1</text>
</g>
<!-- l1_nfov_a_odir&#45;&gt;trans_nfov_a_l1_l2a -->
<g id="edge3" class="edge">
<title>l1_nfov_a_odir&#45;&gt;trans_nfov_a_l1_l2a</title>
<path fill="none" stroke="black" d="M269.5,-126C269.5,-126 294.92,-126 294.92,-126"/>
<polygon fill="black" stroke="black" points="294.92,-129.5 304.92,-126 294.92,-122.5 294.92,-129.5"/>
</g>
<!-- l1_nfov_a_rec -->
<g id="node9" class="node">
<title>l1_nfov_a_rec</title>
<polygon fill="none" stroke="black" points="206.04,-84 51.04,-84 51.04,-60 206.04,-60 218.04,-72 206.04,-84"/>
<text text-anchor="middle" x="134.54" y="-68.3" font-family="Times,serif" font-size="14.00">L1_nfov_a recipe 1..1</text>
</g>
<!-- l1_nfov_a_rec&#45;&gt;trans_nfov_a_l1_l2a -->
<g id="edge4" class="edge">
<title>l1_nfov_a_rec&#45;&gt;trans_nfov_a_l1_l2a</title>
<path fill="none" stroke="black" d="M218.26,-72C218.26,-72 307.6,-72 307.6,-72"/>
<polygon fill="black" stroke="black" points="307.6,-75.5 317.6,-72 307.6,-68.5 307.6,-75.5"/>
</g>
<!-- l1_nfov_a_nllut -->
<g id="node10" class="node">
<title>l1_nfov_a_nllut</title>
<polygon fill="none" stroke="black" points="237.04,-30 20.04,-30 20.04,-6 237.04,-6 249.04,-18 237.04,-30"/>
<text text-anchor="middle" x="134.54" y="-14.3" font-family="Times,serif" font-size="14.00">L1_nfov_a non&#45;linear LUT 1..1</text>
</g>
<!-- l1_nfov_a_nllut&#45;&gt;trans_nfov_a_l1_l2a -->
<g id="edge5" class="edge">
<title>l1_nfov_a_nllut&#45;&gt;trans_nfov_a_l1_l2a</title>
<path fill="none" stroke="black" d="M249.17,-20.19C249.17,-20.19 356.62,-20.19 356.62,-20.19"/>
<polygon fill="black" stroke="black" points="356.62,-23.69 366.62,-20.19 356.62,-16.69 356.62,-23.69"/>
</g>
<!-- l2a_nfov_a_prod&#45;&gt;trans_nfov_a_l2a_l2b -->
<g id="edge9" class="edge">
<title>l2a_nfov_a_prod&#45;&gt;trans_nfov_a_l2a_l2b</title>
<path fill="none" stroke="black" stroke-dasharray="5,2" d="M822.96,-198.38C822.96,-222.28 822.96,-261 822.96,-261 822.96,-261 974.81,-261 974.81,-261"/>
<polygon fill="black" stroke="black" points="974.81,-264.5 984.81,-261 974.81,-257.5 974.81,-264.5"/>
</g>
<!-- l2a_nfov_a_man&#45;&gt;trans_nfov_a_l2a_l2b -->
<g id="edge21" class="edge">
<title>l2a_nfov_a_man&#45;&gt;trans_nfov_a_l2a_l2b</title>
<path fill="none" stroke="black" d="M846.96,-134.16C846.96,-162.73 846.96,-256.5 846.96,-256.5 846.96,-256.5 984.48,-256.5 984.48,-256.5"/>
<polygon fill="black" stroke="black" points="984.48,-260 994.48,-256.5 984.48,-253 984.48,-260"/>
</g>
<!-- l2a_nfov_a_odir -->
<g id="node13" class="node">
<title>l2a_nfov_a_odir</title>
<ellipse fill="none" stroke="black" cx="733.82" cy="-614" rx="139.98" ry="18"/>
<text text-anchor="middle" x="733.82" y="-610.3" font-family="Times,serif" font-size="14.00">L2a_nfov_a output path 1..1</text>
</g>
<!-- l2a_nfov_a_odir&#45;&gt;trans_nfov_a_l2a_l2b -->
<g id="edge11" class="edge">
<title>l2a_nfov_a_odir&#45;&gt;trans_nfov_a_l2a_l2b</title>
<path fill="none" stroke="black" d="M816.77,-599.5C919.74,-599.5 1081.96,-599.5 1081.96,-599.5 1081.96,-599.5 1081.96,-493.57 1081.96,-493.57"/>
<polygon fill="black" stroke="black" points="1085.46,-493.57 1081.96,-483.57 1078.46,-493.57 1085.46,-493.57"/>
</g>
<!-- l2a_nfov_a_rec -->
<g id="node14" class="node">
<title>l2a_nfov_a_rec</title>
<polygon fill="none" stroke="black" points="809.82,-572 645.82,-572 645.82,-548 809.82,-548 821.82,-560 809.82,-572"/>
<text text-anchor="middle" x="733.82" y="-556.3" font-family="Times,serif" font-size="14.00">L2a_nfov_a recipe 1..1</text>
</g>
<!-- l2a_nfov_a_rec&#45;&gt;trans_nfov_a_l2a_l2b -->
<g id="edge12" class="edge">
<title>l2a_nfov_a_rec&#45;&gt;trans_nfov_a_l2a_l2b</title>
<path fill="none" stroke="black" d="M822.03,-545.5C899.84,-545.5 1000.96,-545.5 1000.96,-545.5 1000.96,-545.5 1000.96,-494.26 1000.96,-494.26"/>
<polygon fill="black" stroke="black" points="1004.46,-494.26 1000.96,-484.26 997.46,-494.26 1004.46,-494.26"/>
</g>
<!-- l2a_nfov_a_cti -->
<g id="node15" class="node">
<title>l2a_nfov_a_cti</title>
<polygon fill="none" stroke="black" points="871.32,-518 584.32,-518 584.32,-494 871.32,-494 883.32,-506 871.32,-518"/>
<text text-anchor="middle" x="733.82" y="-502.3" font-family="Times,serif" font-size="14.00">L2a_nfov_a charge xfer inefficiency 1..1</text>
</g>
<!-- l2a_nfov_a_cti&#45;&gt;trans_nfov_a_l2a_l2b -->
<g id="edge13" class="edge">
<title>l2a_nfov_a_cti&#45;&gt;trans_nfov_a_l2a_l2b</title>
<path fill="none" stroke="black" d="M871.96,-487.84C871.96,-482.96 871.96,-479 871.96,-479 871.96,-479 978.86,-479 978.86,-479"/>
<polygon fill="black" stroke="black" points="978.86,-482.5 988.86,-479 978.86,-475.5 978.86,-482.5"/>
</g>
<!-- l2a_nfov_a_dnb -->
<g id="node16" class="node">
<title>l2a_nfov_a_dnb</title>
<polygon fill="none" stroke="black" points="852.82,-464 602.82,-464 602.82,-438 852.82,-438 864.82,-451 852.82,-464"/>
<text text-anchor="middle" x="733.82" y="-454.8" font-family="Times,serif" font-size="14.00">L2a_nfov_a CIC/Dark Current/FPN</text>
<text text-anchor="middle" x="733.82" y="-439.8" font-family="Times,serif" font-size="14.00"> or master dark 1..1</text>
</g>
<!-- l2a_nfov_a_dnb&#45;&gt;trans_nfov_a_l2a_l2b -->
<g id="edge14" class="edge">
<title>l2a_nfov_a_dnb&#45;&gt;trans_nfov_a_l2a_l2b</title>
<path fill="none" stroke="black" d="M864.96,-451C864.96,-451 941.03,-451 941.03,-451"/>
<polygon fill="black" stroke="black" points="941.03,-454.5 951.03,-451 941.03,-447.5 941.03,-454.5"/>
</g>
<!-- l2a_nfov_a_mbpm -->
<g id="node17" class="node">
<title>l2a_nfov_a_mbpm</title>
<polygon fill="none" stroke="black" points="865.32,-408 590.32,-408 590.32,-384 865.32,-384 877.32,-396 865.32,-408"/>
<text text-anchor="middle" x="733.82" y="-392.3" font-family="Times,serif" font-size="14.00">L2a_nfov_a master bad pixel map 1..1</text>
</g>
<!-- l2a_nfov_a_mbpm&#45;&gt;trans_nfov_a_l2a_l2b -->
<g id="edge15" class="edge">
<title>l2a_nfov_a_mbpm&#45;&gt;trans_nfov_a_l2a_l2b</title>
<path fill="none" stroke="black" d="M877.49,-396C877.49,-396 912.26,-396 912.26,-396"/>
<polygon fill="black" stroke="black" points="912.26,-399.5 922.26,-396 912.26,-392.5 912.26,-399.5"/>
</g>
<!-- l2a_nfov_a_ff -->
<g id="node18" class="node">
<title>l2a_nfov_a_ff</title>
<polygon fill="none" stroke="black" points="820.32,-354 635.32,-354 635.32,-330 820.32,-330 832.32,-342 820.32,-354"/>
<text text-anchor="middle" x="733.82" y="-338.3" font-family="Times,serif" font-size="14.00">L2a_nfov_a flat fields 1..1</text>
</g>
<!-- l2a_nfov_a_ff&#45;&gt;trans_nfov_a_l2a_l2b -->
<g id="edge16" class="edge">
<title>l2a_nfov_a_ff&#45;&gt;trans_nfov_a_l2a_l2b</title>
<path fill="none" stroke="black" d="M832.69,-342C832.69,-342 912.14,-342 912.14,-342"/>
<polygon fill="black" stroke="black" points="912.14,-345.5 922.14,-342 912.14,-338.5 912.14,-345.5"/>
</g>
<!-- l2a_nfov_a_emg -->
<g id="node19" class="node">
<title>l2a_nfov_a_emg</title>
<polygon fill="none" stroke="black" points="817.32,-300 638.32,-300 638.32,-276 817.32,-276 829.32,-288 817.32,-300"/>
<text text-anchor="middle" x="733.82" y="-284.3" font-family="Times,serif" font-size="14.00">L2a_nfov_a EM gain 1..1</text>
</g>
<!-- l2a_nfov_a_emg&#45;&gt;trans_nfov_a_l2a_l2b -->
<g id="edge17" class="edge">
<title>l2a_nfov_a_emg&#45;&gt;trans_nfov_a_l2a_l2b</title>
<path fill="none" stroke="black" d="M829.73,-288C829.73,-288 940.21,-288 940.21,-288"/>
<polygon fill="black" stroke="black" points="940.21,-291.5 950.21,-288 940.21,-284.5 940.21,-291.5"/>
</g>
<!-- l2a_nfov_a_kgain -->
<g id="node20" class="node">
<title>l2a_nfov_a_kgain</title>
<polygon fill="none" stroke="black" points="803.82,-246 651.82,-246 651.82,-222 803.82,-222 815.82,-234 803.82,-246"/>
<text text-anchor="middle" x="733.82" y="-230.3" font-family="Times,serif" font-size="14.00">L2_nfov_a Kgain 1..1</text>
</g>
<!-- l2a_nfov_a_kgain&#45;&gt;trans_nfov_a_l2a_l2b -->
<g id="edge10" class="edge">
<title>l2a_nfov_a_kgain&#45;&gt;trans_nfov_a_l2a_l2b</title>
<path fill="none" stroke="black" d="M733.96,-252.32C733.96,-259.25 733.96,-265.5 733.96,-265.5 733.96,-265.5 966.96,-265.5 966.96,-265.5"/>
<polygon fill="black" stroke="black" points="966.96,-269 976.96,-265.5 966.96,-262 966.96,-269"/>
</g>
<!-- l2b_nfov_a_prod&#45;&gt;trans_nfov_a_l2b_l3 -->
<g id="edge22" class="edge">
<title>l2b_nfov_a_prod&#45;&gt;trans_nfov_a_l2b_l3</title>
<path fill="none" stroke="black" stroke-dasharray="5,2" d="M1447.22,-430.46C1447.22,-430.46 1579.5,-430.46 1579.5,-430.46"/>
<polygon fill="black" stroke="black" points="1579.5,-433.96 1589.5,-430.46 1579.5,-426.96 1579.5,-433.96"/>
</g>
<!-- l2b_nfov_a_man&#45;&gt;trans_nfov_a_l2b_l3 -->
<g id="edge23" class="edge">
<title>l2b_nfov_a_man&#45;&gt;trans_nfov_a_l2b_l3</title>
<path fill="none" stroke="black" d="M1471.96,-373.34C1471.96,-385.65 1471.96,-419.92 1471.96,-419.92 1471.96,-419.92 1598.28,-419.92 1598.28,-419.92"/>
<polygon fill="black" stroke="black" points="1598.28,-423.42 1608.28,-419.92 1598.28,-416.42 1598.28,-423.42"/>
</g>
<!-- l2b_nfov_a_odir -->
<g id="node24" class="node">
<title>l2b_nfov_a_odir</title>
<ellipse fill="none" stroke="black" cx="1349.57" cy="-693" rx="140.28" ry="18"/>
<text text-anchor="middle" x="1349.57" y="-689.3" font-family="Times,serif" font-size="14.00">L2b_nfov_a output path 1..1</text>
</g>
<!-- l2b_nfov_a_odir&#45;&gt;trans_nfov_a_l2b_l3 -->
<g id="edge24" class="edge">
<title>l2b_nfov_a_odir&#45;&gt;trans_nfov_a_l2b_l3</title>
<path fill="none" stroke="black" d="M1463.96,-682.2C1463.96,-667.25 1463.96,-642.08 1463.96,-642.08 1463.96,-642.08 1598.42,-642.08 1598.42,-642.08"/>
<polygon fill="black" stroke="black" points="1598.42,-645.58 1608.42,-642.08 1598.42,-638.58 1598.42,-645.58"/>
</g>
<!-- l2b_nfov_a_rec -->
<g id="node25" class="node">
<title>l2b_nfov_a_rec</title>
<polygon fill="none" stroke="black" points="1425.57,-651 1261.57,-651 1261.57,-627 1425.57,-627 1437.57,-639 1425.57,-651"/>
<text text-anchor="middle" x="1349.57" y="-635.3" font-family="Times,serif" font-size="14.00">L2b_nfov_a recipe 1..1</text>
</g>
<!-- l2b_nfov_a_rec&#45;&gt;trans_nfov_a_l2b_l3 -->
<g id="edge25" class="edge">
<title>l2b_nfov_a_rec&#45;&gt;trans_nfov_a_l2b_l3</title>
<path fill="none" stroke="black" d="M1437.59,-631.54C1437.59,-631.54 1579.67,-631.54 1579.67,-631.54"/>
<polygon fill="black" stroke="black" points="1579.67,-635.04 1589.67,-631.54 1579.67,-628.04 1579.67,-635.04"/>
</g>
<!-- l2b_nfov_a_excicrf -->
<g id="node26" class="node">
<title>l2b_nfov_a_excicrf</title>
<polygon fill="none" stroke="black" points="1481.57,-597 1205.57,-597 1205.57,-573 1481.57,-573 1493.57,-585 1481.57,-597"/>
<text text-anchor="middle" x="1349.57" y="-581.3" font-family="Times,serif" font-size="14.00">L2b_nfov_a EXCAM ICRF location 1..1</text>
</g>
<!-- l2b_nfov_a_excicrf&#45;&gt;trans_nfov_a_l2b_l3 -->
<g id="edge26" class="edge">
<title>l2b_nfov_a_excicrf&#45;&gt;trans_nfov_a_l2b_l3</title>
<path fill="none" stroke="black" d="M1493.94,-585C1493.94,-585 1538.98,-585 1538.98,-585"/>
<polygon fill="black" stroke="black" points="1538.98,-588.5 1548.98,-585 1538.98,-581.5 1538.98,-588.5"/>
</g>
<!-- l2b_nfov_a_excfovps -->
<g id="node27" class="node">
<title>l2b_nfov_a_excfovps</title>
<polygon fill="none" stroke="black" points="1488.57,-543 1198.57,-543 1198.57,-519 1488.57,-519 1500.57,-531 1488.57,-543"/>
<text text-anchor="middle" x="1349.57" y="-527.3" font-family="Times,serif" font-size="14.00">L2b_nfov_a EXCAM FOV pixel scale 1..1</text>
</g>
<!-- l2b_nfov_a_excfovps&#45;&gt;trans_nfov_a_l2b_l3 -->
<g id="edge27" class="edge">
<title>l2b_nfov_a_excfovps&#45;&gt;trans_nfov_a_l2b_l3</title>
<path fill="none" stroke="black" d="M1500.71,-531C1500.71,-531 1526.24,-531 1526.24,-531"/>
<polygon fill="black" stroke="black" points="1526.24,-534.5 1536.24,-531 1526.24,-527.5 1526.24,-534.5"/>
</g>
<!-- l2b_nfov_a_distm -->
<g id="node28" class="node">
<title>l2b_nfov_a_distm</title>
<polygon fill="none" stroke="black" points="1456.07,-489 1231.07,-489 1231.07,-465 1456.07,-465 1468.07,-477 1456.07,-489"/>
<text text-anchor="middle" x="1349.57" y="-473.3" font-family="Times,serif" font-size="14.00">L2b_nfov_a distortion map 1..1</text>
</g>
<!-- l2b_nfov_a_distm&#45;&gt;trans_nfov_a_l2b_l3 -->
<g id="edge28" class="edge">
<title>l2b_nfov_a_distm&#45;&gt;trans_nfov_a_l2b_l3</title>
<path fill="none" stroke="black" d="M1468.45,-477C1468.45,-477 1538.98,-477 1538.98,-477"/>
<polygon fill="black" stroke="black" points="1538.98,-480.5 1548.98,-477 1538.98,-473.5 1538.98,-480.5"/>
</g>
<!-- l3_nfov_a_prod&#45;&gt;trans_nfov_a_l3_l4 -->
<g id="edge32" class="edge">
<title>l3_nfov_a_prod&#45;&gt;trans_nfov_a_l3_l4</title>
<path fill="none" stroke="black" stroke-dasharray="5,2" d="M2043.59,-585C2043.59,-585 2123.34,-585 2123.34,-585"/>
<polygon fill="black" stroke="black" points="2123.34,-588.5 2133.34,-585 2123.34,-581.5 2123.34,-588.5"/>
</g>
<!-- l3_nfov_a_odir -->
<g id="node31" class="node">
<title>l3_nfov_a_odir</title>
<ellipse fill="none" stroke="black" cx="1950.35" cy="-747" rx="134.58" ry="18"/>
<text text-anchor="middle" x="1950.35" y="-743.3" font-family="Times,serif" font-size="14.00">L3_nfov_a output path 1..1</text>
</g>
<!-- l3_nfov_a_odir&#45;&gt;trans_nfov_a_l3_l4 -->
<g id="edge34" class="edge">
<title>l3_nfov_a_odir&#45;&gt;trans_nfov_a_l3_l4</title>
<path fill="none" stroke="black" d="M2084.03,-744.81C2084.03,-744.81 2172.32,-744.81 2172.32,-744.81"/>
<polygon fill="black" stroke="black" points="2172.32,-748.31 2182.32,-744.81 2172.32,-741.31 2172.32,-748.31"/>
</g>
<!-- l3_nfov_a_man&#45;&gt;trans_nfov_a_l3_l4 -->
<g id="edge33" class="edge">
<title>l3_nfov_a_man&#45;&gt;trans_nfov_a_l3_l4</title>
<path fill="none" stroke="black" d="M2070.02,-533.19C2070.02,-533.19 2172.21,-533.19 2172.21,-533.19"/>
<polygon fill="black" stroke="black" points="2172.21,-536.69 2182.21,-533.19 2172.21,-529.69 2172.21,-536.69"/>
</g>
<!-- l3_nfov_a_rec -->
<g id="node33" class="node">
<title>l3_nfov_a_rec</title>
<polygon fill="none" stroke="black" points="2021.85,-705 1866.85,-705 1866.85,-681 2021.85,-681 2033.85,-693 2021.85,-705"/>
<text text-anchor="middle" x="1950.35" y="-689.3" font-family="Times,serif" font-size="14.00">L3_nfov_a recipe 1..1</text>
</g>
<!-- l3_nfov_a_rec&#45;&gt;trans_nfov_a_l3_l4 -->
<g id="edge35" class="edge">
<title>l3_nfov_a_rec&#45;&gt;trans_nfov_a_l3_l4</title>
<path fill="none" stroke="black" d="M2034.07,-693C2034.07,-693 2123.41,-693 2123.41,-693"/>
<polygon fill="black" stroke="black" points="2123.41,-696.5 2133.41,-693 2123.41,-689.5 2123.41,-696.5"/>
</g>
<!-- l3_nfov_a_cal -->
<g id="node34" class="node">
<title>l3_nfov_a_cal</title>
<polygon fill="none" stroke="black" points="2038.35,-651 1850.35,-651 1850.35,-627 2038.35,-627 2050.35,-639 2038.35,-651"/>
<text text-anchor="middle" x="1950.35" y="-635.3" font-family="Times,serif" font-size="14.00">L3_nfov_a calibration 1..1</text>
</g>
<!-- l3_nfov_a_cal&#45;&gt;trans_nfov_a_l3_l4 -->
<g id="edge36" class="edge">
<title>l3_nfov_a_cal&#45;&gt;trans_nfov_a_l3_l4</title>
<path fill="none" stroke="black" d="M2050.48,-639C2050.48,-639 2110.79,-639 2110.79,-639"/>
<polygon fill="black" stroke="black" points="2110.79,-642.5 2120.79,-639 2110.79,-635.5 2110.79,-642.5"/>
</g>
<!-- l4_nfov_a_prod&#45;&gt;trans_nfov_a_l4_tda -->
<g id="edge40" class="edge">
<title>l4_nfov_a_prod&#45;&gt;trans_nfov_a_l4_tda</title>
<path fill="none" stroke="black" stroke-dasharray="5,2" d="M2657.16,-700.46C2657.16,-700.46 2807.21,-700.46 2807.21,-700.46"/>
<polygon fill="black" stroke="black" points="2807.21,-703.96 2817.21,-700.46 2807.21,-696.96 2807.21,-703.96"/>
</g>
<!-- l4_nfov_a_odir -->
<g id="node37" class="node">
<title>l4_nfov_a_odir</title>
<ellipse fill="none" stroke="black" cx="2564.13" cy="-963" rx="134.58" ry="18"/>
<text text-anchor="middle" x="2564.13" y="-959.3" font-family="Times,serif" font-size="14.00">L4_nfov_a output path 1..1</text>
</g>
<!-- l4_nfov_a_odir&#45;&gt;trans_nfov_a_l4_tda -->
<g id="edge42" class="edge">
<title>l4_nfov_a_odir&#45;&gt;trans_nfov_a_l4_tda</title>
<path fill="none" stroke="black" d="M2673.96,-952.2C2673.96,-937.25 2673.96,-912.08 2673.96,-912.08 2673.96,-912.08 2826.1,-912.08 2826.1,-912.08"/>
<polygon fill="black" stroke="black" points="2826.1,-915.58 2836.1,-912.08 2826.1,-908.58 2826.1,-915.58"/>
</g>
<!-- l4_nfov_a_man&#45;&gt;trans_nfov_a_l4_tda -->
<g id="edge41" class="edge">
<title>l4_nfov_a_man&#45;&gt;trans_nfov_a_l4_tda</title>
<path fill="none" stroke="black" d="M2671.96,-593.23C2671.96,-617.97 2671.96,-689.92 2671.96,-689.92 2671.96,-689.92 2826.17,-689.92 2826.17,-689.92"/>
<polygon fill="black" stroke="black" points="2826.17,-693.42 2836.17,-689.92 2826.17,-686.42 2826.17,-693.42"/>
</g>
<!-- l4_nfov_a_rec -->
<g id="node40" class="node">
<title>l4_nfov_a_rec</title>
<polygon fill="none" stroke="black" points="2635.63,-921 2480.63,-921 2480.63,-897 2635.63,-897 2647.63,-909 2635.63,-921"/>
<text text-anchor="middle" x="2564.13" y="-905.3" font-family="Times,serif" font-size="14.00">L4_nfov_a recipe 1..1</text>
</g>
<!-- l4_nfov_a_rec&#45;&gt;trans_nfov_a_l4_tda -->
<g id="edge43" class="edge">
<title>l4_nfov_a_rec&#45;&gt;trans_nfov_a_l4_tda</title>
<path fill="none" stroke="black" d="M2647.79,-901.54C2647.79,-901.54 2807.14,-901.54 2807.14,-901.54"/>
<polygon fill="black" stroke="black" points="2807.14,-905.04 2817.14,-901.54 2807.14,-898.04 2807.14,-905.04"/>
</g>
<!-- l4_nfov_a_afcal -->
<g id="node41" class="node">
<title>l4_nfov_a_afcal</title>
<polygon fill="none" stroke="black" points="2703.63,-867 2412.63,-867 2412.63,-843 2703.63,-843 2715.63,-855 2703.63,-867"/>
<text text-anchor="middle" x="2564.13" y="-851.3" font-family="Times,serif" font-size="14.00">L4_nfov_a absolute flux calibrations 1..1</text>
</g>
<!-- l4_nfov_a_afcal&#45;&gt;trans_nfov_a_l4_tda -->
<g id="edge44" class="edge">
<title>l4_nfov_a_afcal&#45;&gt;trans_nfov_a_l4_tda</title>
<path fill="none" stroke="black" d="M2716,-855C2716,-855 2766.72,-855 2766.72,-855"/>
<polygon fill="black" stroke="black" points="2766.72,-858.5 2776.72,-855 2766.72,-851.5 2766.72,-858.5"/>
</g>
<!-- l4_nfov_a_ctcal -->
<g id="node42" class="node">
<title>l4_nfov_a_ctcal</title>
<polygon fill="none" stroke="black" points="2716.13,-813 2400.13,-813 2400.13,-789 2716.13,-789 2728.13,-801 2716.13,-813"/>
<text text-anchor="middle" x="2564.13" y="-797.3" font-family="Times,serif" font-size="14.00">L4_nfov_a core throughput calibrations 1..1</text>
</g>
<!-- l4_nfov_a_ctcal&#45;&gt;trans_nfov_a_l4_tda -->
<g id="edge45" class="edge">
<title>l4_nfov_a_ctcal&#45;&gt;trans_nfov_a_l4_tda</title>
<path fill="none" stroke="black" d="M2728.24,-801C2728.24,-801 2753.68,-801 2753.68,-801"/>
<polygon fill="black" stroke="black" points="2753.68,-804.5 2763.68,-801 2753.68,-797.5 2753.68,-804.5"/>
</g>
<!-- l4_nfov_a_ndfilt -->
<g id="node43" class="node">
<title>l4_nfov_a_ndfilt</title>
<polygon fill="none" stroke="black" points="2644.63,-759 2471.63,-759 2471.63,-735 2644.63,-735 2656.63,-747 2644.63,-759"/>
<text text-anchor="middle" x="2564.13" y="-743.3" font-family="Times,serif" font-size="14.00">L4_nfov_a ND filter 1..1</text>
</g>
<!-- l4_nfov_a_ndfilt&#45;&gt;trans_nfov_a_l4_tda -->
<g id="edge46" class="edge">
<title>l4_nfov_a_ndfilt&#45;&gt;trans_nfov_a_l4_tda</title>
<path fill="none" stroke="black" d="M2656.73,-747C2656.73,-747 2766.77,-747 2766.77,-747"/>
<polygon fill="black" stroke="black" points="2766.77,-750.5 2776.77,-747 2766.77,-743.5 2766.77,-750.5"/>
</g>
<!-- tda_nfov_a_man -->
<g id="node44" class="node">
<title>tda_nfov_a_man</title>
<ellipse fill="none" stroke="black" cx="134.54" cy="-288" rx="128.08" ry="18"/>
<text text-anchor="middle" x="134.54" y="-284.3" font-family="Times,serif" font-size="14.00">TDA_nfov_a manifest 1..1</text>
</g>
</g>
</svg>
