<?xml version="1.0" encoding="UTF-8" standalone="no"?>
<!DOCTYPE svg PUBLIC "-//W3C//DTD SVG 1.1//EN"
 "http://www.w3.org/Graphics/SVG/1.1/DTD/svg11.dtd">
<!-- Generated by graphviz version 2.43.0 (0)
 -->
<!-- Title: NarrowFieldOfViewPhotonCount Pages: 1 -->
<svg width="3664pt" height="1098pt"
 viewBox="0.00 0.00 3664.04 1098.28" xmlns="http://www.w3.org/2000/svg" xmlns:xlink="http://www.w3.org/1999/xlink">
<g id="graph0" class="graph" transform="scale(1 1) rotate(0) translate(4 1094.28)">
<title>NarrowFieldOfViewPhotonCount</title>
<polygon fill="white" stroke="transparent" points="-4,4 -4,-1094.28 3660.04,-1094.28 3660.04,4 -4,4"/>
<!-- trans_nfov_pc_l1_l2a -->
<g id="node1" class="node">
<title>trans_nfov_pc_l1_l2a</title>
<ellipse fill="none" stroke="black" cx="509.05" cy="-127.28" rx="127.06" ry="127.06"/>
<text text-anchor="middle" x="509.05" y="-131.08" font-family="Times,serif" font-size="14.00">nfov_pc Transmutation</text>
<text text-anchor="middle" x="509.05" y="-116.08" font-family="Times,serif" font-size="14.00">L1 to L2a</text>
</g>
<!-- l2a_nfov_pc_prod -->
<g id="node11" class="node">
<title>l2a_nfov_pc_prod</title>
<polygon fill="none" stroke="black" points="944.11,-226.28 741.11,-226.28 741.11,-190.28 944.11,-190.28 944.11,-226.28"/>
<text text-anchor="middle" x="842.61" y="-204.58" font-family="Times,serif" font-size="14.00">L2a_nfov_pc products 1..b</text>
</g>
<!-- trans_nfov_pc_l1_l2a&#45;&gt;l2a_nfov_pc_prod -->
<g id="edge6" class="edge">
<title>trans_nfov_pc_l1_l2a&#45;&gt;l2a_nfov_pc_prod</title>
<path fill="none" stroke="black" stroke-dasharray="5,2" d="M607.32,-208.28C607.32,-208.28 730.99,-208.28 730.99,-208.28"/>
<polygon fill="black" stroke="black" points="730.99,-211.78 740.99,-208.28 730.99,-204.78 730.99,-211.78"/>
</g>
<!-- l2a_nfov_pc_man -->
<g id="node12" class="node">
<title>l2a_nfov_pc_man</title>
<ellipse fill="none" stroke="black" cx="842.61" cy="-154.28" rx="170.07" ry="18"/>
<text text-anchor="middle" x="842.61" y="-150.58" font-family="Times,serif" font-size="14.00">L2a_nfov_pc product manifest 1..1</text>
</g>
<!-- trans_nfov_pc_l1_l2a&#45;&gt;l2a_nfov_pc_man -->
<g id="edge7" class="edge">
<title>trans_nfov_pc_l1_l2a&#45;&gt;l2a_nfov_pc_man</title>
<path fill="none" stroke="black" d="M633.73,-154.28C633.73,-154.28 662.19,-154.28 662.19,-154.28"/>
<polygon fill="black" stroke="black" points="662.19,-157.78 672.19,-154.28 662.19,-150.78 662.19,-157.78"/>
</g>
<!-- l2a_nfov_pc_log -->
<g id="node21" class="node">
<title>l2a_nfov_pc_log</title>
<ellipse fill="none" stroke="black" cx="842.61" cy="-100.28" rx="104.78" ry="18"/>
<text text-anchor="middle" x="842.61" y="-96.58" font-family="Times,serif" font-size="14.00">L2a log_nfov_pc 1..1</text>
</g>
<!-- trans_nfov_pc_l1_l2a&#45;&gt;l2a_nfov_pc_log -->
<g id="edge8" class="edge">
<title>trans_nfov_pc_l1_l2a&#45;&gt;l2a_nfov_pc_log</title>
<path fill="none" stroke="black" stroke-dasharray="5,2" d="M633.73,-100.28C633.73,-100.28 727.73,-100.28 727.73,-100.28"/>
<polygon fill="black" stroke="black" points="727.73,-103.78 737.73,-100.28 727.73,-96.78 727.73,-103.78"/>
</g>
<!-- l2a_nfov_pc_src -->
<g id="node47" class="node">
<title>l2a_nfov_pc_src</title>
<ellipse fill="none" stroke="black" cx="842.61" cy="-46.28" rx="165.17" ry="18"/>
<text text-anchor="middle" x="842.61" y="-42.58" font-family="Times,serif" font-size="14.00">L2a_nfov_pc source manifest 1..1</text>
</g>
<!-- trans_nfov_pc_l1_l2a&#45;&gt;l2a_nfov_pc_src -->
<g id="edge49" class="edge">
<title>trans_nfov_pc_l1_l2a&#45;&gt;l2a_nfov_pc_src</title>
<path fill="none" stroke="black" d="M607.32,-46.28C607.32,-46.28 667.46,-46.28 667.46,-46.28"/>
<polygon fill="black" stroke="black" points="667.46,-49.78 677.46,-46.28 667.46,-42.78 667.46,-49.78"/>
</g>
<!-- trans_nfov_pc_l2a_l2b -->
<g id="node2" class="node">
<title>trans_nfov_pc_l2a_l2b</title>
<ellipse fill="none" stroke="black" cx="1176.18" cy="-397.28" rx="127.06" ry="127.06"/>
<text text-anchor="middle" x="1176.18" y="-401.08" font-family="Times,serif" font-size="14.00">nfov_pc Transmutation</text>
<text text-anchor="middle" x="1176.18" y="-386.08" font-family="Times,serif" font-size="14.00">L2a to L2b</text>
</g>
<!-- l2b_nfov_pc_prod -->
<g id="node22" class="node">
<title>l2b_nfov_pc_prod</title>
<polygon fill="none" stroke="black" points="1611.89,-496.28 1408.89,-496.28 1408.89,-460.28 1611.89,-460.28 1611.89,-496.28"/>
<text text-anchor="middle" x="1510.39" y="-474.58" font-family="Times,serif" font-size="14.00">L2b_nfov_pc products 1..1</text>
</g>
<!-- trans_nfov_pc_l2a_l2b&#45;&gt;l2b_nfov_pc_prod -->
<g id="edge18" class="edge">
<title>trans_nfov_pc_l2a_l2b&#45;&gt;l2b_nfov_pc_prod</title>
<path fill="none" stroke="black" stroke-dasharray="5,2" d="M1274.64,-478.28C1274.64,-478.28 1398.86,-478.28 1398.86,-478.28"/>
<polygon fill="black" stroke="black" points="1398.86,-481.78 1408.86,-478.28 1398.86,-474.78 1398.86,-481.78"/>
</g>
<!-- l2b_nfov_pc_man -->
<g id="node23" class="node">
<title>l2b_nfov_pc_man</title>
<ellipse fill="none" stroke="black" cx="1510.39" cy="-424.28" rx="170.87" ry="18"/>
<text text-anchor="middle" x="1510.39" y="-420.58" font-family="Times,serif" font-size="14.00">L2b_nfov_pc product manifest 1..1</text>
</g>
<!-- trans_nfov_pc_l2a_l2b&#45;&gt;l2b_nfov_pc_man -->
<g id="edge19" class="edge">
<title>trans_nfov_pc_l2a_l2b&#45;&gt;l2b_nfov_pc_man</title>
<path fill="none" stroke="black" d="M1300.63,-424.28C1300.63,-424.28 1329.21,-424.28 1329.21,-424.28"/>
<polygon fill="black" stroke="black" points="1329.21,-427.78 1339.21,-424.28 1329.21,-420.78 1329.21,-427.78"/>
</g>
<!-- l2b_nfov_pc_log -->
<g id="node29" class="node">
<title>l2b_nfov_pc_log</title>
<ellipse fill="none" stroke="black" cx="1510.39" cy="-370.28" rx="105.08" ry="18"/>
<text text-anchor="middle" x="1510.39" y="-366.58" font-family="Times,serif" font-size="14.00">L2b_nfov_pc log 1..1</text>
</g>
<!-- trans_nfov_pc_l2a_l2b&#45;&gt;l2b_nfov_pc_log -->
<g id="edge20" class="edge">
<title>trans_nfov_pc_l2a_l2b&#45;&gt;l2b_nfov_pc_log</title>
<path fill="none" stroke="black" stroke-dasharray="5,2" d="M1300.63,-370.28C1300.63,-370.28 1395.01,-370.28 1395.01,-370.28"/>
<polygon fill="black" stroke="black" points="1395.01,-373.78 1405.01,-370.28 1395.01,-366.78 1395.01,-373.78"/>
</g>
<!-- l2b_nfov_pc_src -->
<g id="node48" class="node">
<title>l2b_nfov_pc_src</title>
<ellipse fill="none" stroke="black" cx="1510.39" cy="-316.28" rx="165.17" ry="18"/>
<text text-anchor="middle" x="1510.39" y="-312.58" font-family="Times,serif" font-size="14.00">L2b_nfov_pc source manifest 1..1</text>
</g>
<!-- trans_nfov_pc_l2a_l2b&#45;&gt;l2b_nfov_pc_src -->
<g id="edge50" class="edge">
<title>trans_nfov_pc_l2a_l2b&#45;&gt;l2b_nfov_pc_src</title>
<path fill="none" stroke="black" d="M1274.64,-316.28C1274.64,-316.28 1335.23,-316.28 1335.23,-316.28"/>
<polygon fill="black" stroke="black" points="1335.23,-319.78 1345.23,-316.28 1335.23,-312.78 1335.23,-319.78"/>
</g>
<!-- trans_nfov_pc_l2b_l3 -->
<g id="node3" class="node">
<title>trans_nfov_pc_l2b_l3</title>
<ellipse fill="none" stroke="black" cx="1844.6" cy="-586.28" rx="127.06" ry="127.06"/>
<text text-anchor="middle" x="1844.6" y="-590.08" font-family="Times,serif" font-size="14.00">nfov_pc Transmutation</text>
<text text-anchor="middle" x="1844.6" y="-575.08" font-family="Times,serif" font-size="14.00">L2b to L3</text>
</g>
<!-- l3_nfov_pc_prod -->
<g id="node30" class="node">
<title>l3_nfov_pc_prod</title>
<polygon fill="none" stroke="black" points="2269.97,-685.28 2075.97,-685.28 2075.97,-649.28 2269.97,-649.28 2269.97,-685.28"/>
<text text-anchor="middle" x="2172.97" y="-663.58" font-family="Times,serif" font-size="14.00">L3_nfov_pc products 1..1</text>
</g>
<!-- trans_nfov_pc_l2b_l3&#45;&gt;l3_nfov_pc_prod -->
<g id="edge29" class="edge">
<title>trans_nfov_pc_l2b_l3&#45;&gt;l3_nfov_pc_prod</title>
<path fill="none" stroke="black" stroke-dasharray="5,2" d="M1943.13,-667.28C1943.13,-667.28 2065.93,-667.28 2065.93,-667.28"/>
<polygon fill="black" stroke="black" points="2065.93,-670.78 2075.93,-667.28 2065.93,-663.78 2065.93,-670.78"/>
</g>
<!-- l3_nfov_pc_man -->
<g id="node32" class="node">
<title>l3_nfov_pc_man</title>
<ellipse fill="none" stroke="black" cx="2172.97" cy="-613.28" rx="165.17" ry="18"/>
<text text-anchor="middle" x="2172.97" y="-609.58" font-family="Times,serif" font-size="14.00">L3_nfov_pc product manifest 1..1</text>
</g>
<!-- trans_nfov_pc_l2b_l3&#45;&gt;l3_nfov_pc_man -->
<g id="edge30" class="edge">
<title>trans_nfov_pc_l2b_l3&#45;&gt;l3_nfov_pc_man</title>
<path fill="none" stroke="black" d="M1969.21,-613.28C1969.21,-613.28 1997.71,-613.28 1997.71,-613.28"/>
<polygon fill="black" stroke="black" points="1997.71,-616.78 2007.71,-613.28 1997.71,-609.78 1997.71,-616.78"/>
</g>
<!-- l3_nfov_pc_log -->
<g id="node35" class="node">
<title>l3_nfov_pc_log</title>
<ellipse fill="none" stroke="black" cx="2172.97" cy="-559.28" rx="99.38" ry="18"/>
<text text-anchor="middle" x="2172.97" y="-555.58" font-family="Times,serif" font-size="14.00">L3_nfov_pc log 1..1</text>
</g>
<!-- trans_nfov_pc_l2b_l3&#45;&gt;l3_nfov_pc_log -->
<g id="edge31" class="edge">
<title>trans_nfov_pc_l2b_l3&#45;&gt;l3_nfov_pc_log</title>
<path fill="none" stroke="black" stroke-dasharray="5,2" d="M1969.21,-559.28C1969.21,-559.28 2063.47,-559.28 2063.47,-559.28"/>
<polygon fill="black" stroke="black" points="2063.47,-562.78 2073.47,-559.28 2063.47,-555.78 2063.47,-562.78"/>
</g>
<!-- l3_nfov_pc_src -->
<g id="node49" class="node">
<title>l3_nfov_pc_src</title>
<ellipse fill="none" stroke="black" cx="2172.97" cy="-505.28" rx="159.47" ry="18"/>
<text text-anchor="middle" x="2172.97" y="-501.58" font-family="Times,serif" font-size="14.00">L3_nfov_pc source manifest 1..1</text>
</g>
<!-- trans_nfov_pc_l2b_l3&#45;&gt;l3_nfov_pc_src -->
<g id="edge51" class="edge">
<title>trans_nfov_pc_l2b_l3&#45;&gt;l3_nfov_pc_src</title>
<path fill="none" stroke="black" d="M1943.13,-505.28C1943.13,-505.28 2003.72,-505.28 2003.72,-505.28"/>
<polygon fill="black" stroke="black" points="2003.72,-508.78 2013.72,-505.28 2003.72,-501.78 2003.72,-508.78"/>
</g>
<!-- trans_nfov_pc_l3_l4 -->
<g id="node4" class="node">
<title>trans_nfov_pc_l3_l4</title>
<ellipse fill="none" stroke="black" cx="2501.33" cy="-721.28" rx="127.06" ry="127.06"/>
<text text-anchor="middle" x="2501.33" y="-725.08" font-family="Times,serif" font-size="14.00">nfov_pc Transmutation</text>
<text text-anchor="middle" x="2501.33" y="-710.08" font-family="Times,serif" font-size="14.00">L3 to L4</text>
</g>
<!-- l4_nfov_pc_prod -->
<g id="node36" class="node">
<title>l4_nfov_pc_prod</title>
<polygon fill="none" stroke="black" points="2929.61,-820.28 2735.61,-820.28 2735.61,-784.28 2929.61,-784.28 2929.61,-820.28"/>
<text text-anchor="middle" x="2832.61" y="-798.58" font-family="Times,serif" font-size="14.00">L4_nfov_pc products 1..1</text>
</g>
<!-- trans_nfov_pc_l3_l4&#45;&gt;l4_nfov_pc_prod -->
<g id="edge37" class="edge">
<title>trans_nfov_pc_l3_l4&#45;&gt;l4_nfov_pc_prod</title>
<path fill="none" stroke="black" stroke-dasharray="5,2" d="M2599.83,-802.28C2599.83,-802.28 2725.35,-802.28 2725.35,-802.28"/>
<polygon fill="black" stroke="black" points="2725.35,-805.78 2735.35,-802.28 2725.35,-798.78 2725.35,-805.78"/>
</g>
<!-- l4_nfov_pc_log -->
<g id="node38" class="node">
<title>l4_nfov_pc_log</title>
<ellipse fill="none" stroke="black" cx="2832.61" cy="-748.28" rx="99.38" ry="18"/>
<text text-anchor="middle" x="2832.61" y="-744.58" font-family="Times,serif" font-size="14.00">L4_nfov_pc log 1..1</text>
</g>
<!-- trans_nfov_pc_l3_l4&#45;&gt;l4_nfov_pc_log -->
<g id="edge38" class="edge">
<title>trans_nfov_pc_l3_l4&#45;&gt;l4_nfov_pc_log</title>
<path fill="none" stroke="black" stroke-dasharray="5,2" d="M2626.1,-748.28C2626.1,-748.28 2722.98,-748.28 2722.98,-748.28"/>
<polygon fill="black" stroke="black" points="2722.98,-751.78 2732.98,-748.28 2722.98,-744.78 2722.98,-751.78"/>
</g>
<!-- l4_nfov_pc_man -->
<g id="node39" class="node">
<title>l4_nfov_pc_man</title>
<ellipse fill="none" stroke="black" cx="2832.61" cy="-694.28" rx="165.17" ry="18"/>
<text text-anchor="middle" x="2832.61" y="-690.58" font-family="Times,serif" font-size="14.00">L4_nfov_pc product manifest 1..1</text>
</g>
<!-- trans_nfov_pc_l3_l4&#45;&gt;l4_nfov_pc_man -->
<g id="edge39" class="edge">
<title>trans_nfov_pc_l3_l4&#45;&gt;l4_nfov_pc_man</title>
<path fill="none" stroke="black" d="M2626.1,-694.28C2626.1,-694.28 2657.31,-694.28 2657.31,-694.28"/>
<polygon fill="black" stroke="black" points="2657.31,-697.78 2667.31,-694.28 2657.31,-690.78 2657.31,-697.78"/>
</g>
<!-- l4_nfov_pc_src -->
<g id="node50" class="node">
<title>l4_nfov_pc_src</title>
<ellipse fill="none" stroke="black" cx="2832.61" cy="-640.28" rx="156.77" ry="18"/>
<text text-anchor="middle" x="2832.61" y="-636.58" font-family="Times,serif" font-size="14.00">L4_nfov_pc sourcemanifest 1..1</text>
</g>
<!-- trans_nfov_pc_l3_l4&#45;&gt;l4_nfov_pc_src -->
<g id="edge52" class="edge">
<title>trans_nfov_pc_l3_l4&#45;&gt;l4_nfov_pc_src</title>
<path fill="none" stroke="black" d="M2599.83,-640.28C2599.83,-640.28 2665.85,-640.28 2665.85,-640.28"/>
<polygon fill="black" stroke="black" points="2665.85,-643.78 2675.85,-640.28 2665.85,-636.78 2665.85,-643.78"/>
</g>
<!-- trans_nfov_pc_l4_tda -->
<g id="node5" class="node">
<title>trans_nfov_pc_l4_tda</title>
<ellipse fill="none" stroke="black" cx="3163.89" cy="-910.28" rx="127.06" ry="127.06"/>
<text text-anchor="middle" x="3163.89" y="-914.08" font-family="Times,serif" font-size="14.00">nfov_pc Transmutation</text>
<text text-anchor="middle" x="3163.89" y="-899.08" font-family="Times,serif" font-size="14.00">L4 to TDA</text>
</g>
<!-- tda_nfov_pc_prod -->
<g id="node45" class="node">
<title>tda_nfov_pc_prod</title>
<ellipse fill="none" stroke="black" cx="3491.61" cy="-964.28" rx="90.98" ry="18"/>
<text text-anchor="middle" x="3491.61" y="-960.58" font-family="Times,serif" font-size="14.00">tda_nfov_pc_prod</text>
</g>
<!-- trans_nfov_pc_l4_tda&#45;&gt;tda_nfov_pc_prod -->
<g id="edge47" class="edge">
<title>trans_nfov_pc_l4_tda&#45;&gt;tda_nfov_pc_prod</title>
<path fill="none" stroke="black" stroke-dasharray="5,2" d="M3279.43,-964.28C3279.43,-964.28 3390.51,-964.28 3390.51,-964.28"/>
<polygon fill="black" stroke="black" points="3390.51,-967.78 3400.51,-964.28 3390.51,-960.78 3390.51,-967.78"/>
</g>
<!-- tda_nfov_pc_log -->
<g id="node46" class="node">
<title>tda_nfov_pc_log</title>
<ellipse fill="none" stroke="black" cx="3491.61" cy="-910.28" rx="83.69" ry="18"/>
<text text-anchor="middle" x="3491.61" y="-906.58" font-family="Times,serif" font-size="14.00">tda_nfov_pc_log</text>
</g>
<!-- trans_nfov_pc_l4_tda&#45;&gt;tda_nfov_pc_log -->
<g id="edge48" class="edge">
<title>trans_nfov_pc_l4_tda&#45;&gt;tda_nfov_pc_log</title>
<path fill="none" stroke="black" stroke-dasharray="5,2" d="M3291.53,-910.28C3291.53,-910.28 3397.73,-910.28 3397.73,-910.28"/>
<polygon fill="black" stroke="black" points="3397.73,-913.78 3407.73,-910.28 3397.73,-906.78 3397.73,-913.78"/>
</g>
<!-- tda_nfov_pc_src -->
<g id="node51" class="node">
<title>tda_nfov_pc_src</title>
<ellipse fill="none" stroke="black" cx="3491.61" cy="-856.28" rx="164.37" ry="18"/>
<text text-anchor="middle" x="3491.61" y="-852.58" font-family="Times,serif" font-size="14.00">TDA_nfov_pc sourcemanifest 1..1</text>
</g>
<!-- trans_nfov_pc_l4_tda&#45;&gt;tda_nfov_pc_src -->
<g id="edge53" class="edge">
<title>trans_nfov_pc_l4_tda&#45;&gt;tda_nfov_pc_src</title>
<path fill="none" stroke="black" d="M3279.43,-856.28C3279.43,-856.28 3317.14,-856.28 3317.14,-856.28"/>
<polygon fill="black" stroke="black" points="3317.14,-859.78 3327.14,-856.28 3317.14,-852.78 3317.14,-859.78"/>
</g>
<!-- l1_nfov_pc_prod -->
<g id="node6" class="node">
<title>l1_nfov_pc_prod</title>
<polygon fill="none" stroke="black" points="269.88,-253.28 75.88,-253.28 75.88,-217.28 269.88,-217.28 269.88,-253.28"/>
<text text-anchor="middle" x="172.88" y="-231.58" font-family="Times,serif" font-size="14.00">L1_nfov_pc products 1..b</text>
</g>
<!-- l1_nfov_pc_prod&#45;&gt;trans_nfov_pc_l1_l2a -->
<g id="edge1" class="edge">
<title>l1_nfov_pc_prod&#45;&gt;trans_nfov_pc_l1_l2a</title>
<path fill="none" stroke="black" stroke-dasharray="5,2" d="M270.12,-235.28C270.12,-235.28 431.61,-235.28 431.61,-235.28"/>
<polygon fill="black" stroke="black" points="431.61,-238.78 441.61,-235.28 431.61,-231.78 431.61,-238.78"/>
</g>
<!-- l1_nfov_pc_man -->
<g id="node7" class="node">
<title>l1_nfov_pc_man</title>
<ellipse fill="none" stroke="black" cx="172.88" cy="-181.28" rx="165.17" ry="18"/>
<text text-anchor="middle" x="172.88" y="-177.58" font-family="Times,serif" font-size="14.00">L1_nfov_pc product manifest 1..1</text>
</g>
<!-- l1_nfov_pc_man&#45;&gt;trans_nfov_pc_l1_l2a -->
<g id="edge2" class="edge">
<title>l1_nfov_pc_man&#45;&gt;trans_nfov_pc_l1_l2a</title>
<path fill="none" stroke="black" d="M338.01,-181.28C338.01,-181.28 383.51,-181.28 383.51,-181.28"/>
<polygon fill="black" stroke="black" points="383.51,-184.78 393.51,-181.28 383.51,-177.78 383.51,-184.78"/>
</g>
<!-- l1_nfov_pc_odir -->
<g id="node8" class="node">
<title>l1_nfov_pc_odir</title>
<ellipse fill="none" stroke="black" cx="172.88" cy="-127.28" rx="139.98" ry="18"/>
<text text-anchor="middle" x="172.88" y="-123.58" font-family="Times,serif" font-size="14.00">L1_nfov_pc output path 1..1</text>
</g>
<!-- l1_nfov_pc_odir&#45;&gt;trans_nfov_pc_l1_l2a -->
<g id="edge3" class="edge">
<title>l1_nfov_pc_odir&#45;&gt;trans_nfov_pc_l1_l2a</title>
<path fill="none" stroke="black" d="M313.01,-127.28C313.01,-127.28 371.76,-127.28 371.76,-127.28"/>
<polygon fill="black" stroke="black" points="371.76,-130.78 381.76,-127.28 371.76,-123.78 371.76,-130.78"/>
</g>
<!-- l1_nfov_pc_rec -->
<g id="node9" class="node">
<title>l1_nfov_pc_rec</title>
<polygon fill="none" stroke="black" points="248.88,-85.28 84.88,-85.28 84.88,-61.28 248.88,-61.28 260.88,-73.28 248.88,-85.28"/>
<text text-anchor="middle" x="172.88" y="-69.58" font-family="Times,serif" font-size="14.00">L1_nfov_pc recipe 1..1</text>
</g>
<!-- l1_nfov_pc_rec&#45;&gt;trans_nfov_pc_l1_l2a -->
<g id="edge4" class="edge">
<title>l1_nfov_pc_rec&#45;&gt;trans_nfov_pc_l1_l2a</title>
<path fill="none" stroke="black" d="M261.21,-73.28C261.21,-73.28 383.79,-73.28 383.79,-73.28"/>
<polygon fill="black" stroke="black" points="383.79,-76.78 393.79,-73.28 383.79,-69.78 383.79,-76.78"/>
</g>
<!-- l1_nfov_pc_nllut -->
<g id="node10" class="node">
<title>l1_nfov_pc_nllut</title>
<polygon fill="none" stroke="black" points="279.38,-31.28 54.38,-31.28 54.38,-7.28 279.38,-7.28 291.38,-19.28 279.38,-31.28"/>
<text text-anchor="middle" x="172.88" y="-15.58" font-family="Times,serif" font-size="14.00">L1_nfov_pc non&#45;linear LUT 1..1</text>
</g>
<!-- l1_nfov_pc_nllut&#45;&gt;trans_nfov_pc_l1_l2a -->
<g id="edge5" class="edge">
<title>l1_nfov_pc_nllut&#45;&gt;trans_nfov_pc_l1_l2a</title>
<path fill="none" stroke="black" d="M291.4,-19.28C291.4,-19.28 431.42,-19.28 431.42,-19.28"/>
<polygon fill="black" stroke="black" points="431.42,-22.78 441.42,-19.28 431.42,-15.78 431.42,-22.78"/>
</g>
<!-- l2a_nfov_pc_prod&#45;&gt;trans_nfov_pc_l2a_l2b -->
<g id="edge9" class="edge">
<title>l2a_nfov_pc_prod&#45;&gt;trans_nfov_pc_l2a_l2b</title>
<path fill="none" stroke="black" stroke-dasharray="5,2" d="M936.04,-226.55C936.04,-246.35 936.04,-275.14 936.04,-275.14 936.04,-275.14 1130.23,-275.14 1130.23,-275.14"/>
<polygon fill="black" stroke="black" points="1130.23,-278.64 1140.23,-275.14 1130.23,-271.64 1130.23,-278.64"/>
</g>
<!-- l2a_nfov_pc_man&#45;&gt;trans_nfov_pc_l2a_l2b -->
<g id="edge21" class="edge">
<title>l2a_nfov_pc_man&#45;&gt;trans_nfov_pc_l2a_l2b</title>
<path fill="none" stroke="black" d="M1005.04,-159.98C1005.04,-183.61 1005.04,-272.57 1005.04,-272.57 1005.04,-272.57 1140.56,-272.57 1140.56,-272.57"/>
<polygon fill="black" stroke="black" points="1140.56,-276.07 1150.56,-272.57 1140.56,-269.07 1140.56,-276.07"/>
</g>
<!-- l2a_nfov_pc_odir -->
<g id="node13" class="node">
<title>l2a_nfov_pc_odir</title>
<ellipse fill="none" stroke="black" cx="842.61" cy="-642.28" rx="145.67" ry="18"/>
<text text-anchor="middle" x="842.61" y="-638.58" font-family="Times,serif" font-size="14.00">L2a_nfov_pc output path 1..1</text>
</g>
<!-- l2a_nfov_pc_odir&#45;&gt;trans_nfov_pc_l2a_l2b -->
<g id="edge11" class="edge">
<title>l2a_nfov_pc_odir&#45;&gt;trans_nfov_pc_l2a_l2b</title>
<path fill="none" stroke="black" d="M988.15,-641.28C1094.08,-641.28 1219.04,-641.28 1219.04,-641.28 1219.04,-641.28 1219.04,-527.13 1219.04,-527.13"/>
<polygon fill="black" stroke="black" points="1222.54,-527.13 1219.04,-517.13 1215.54,-527.13 1222.54,-527.13"/>
</g>
<!-- l2a_nfov_pc_rec -->
<g id="node14" class="node">
<title>l2a_nfov_pc_rec</title>
<polygon fill="none" stroke="black" points="922.61,-600.28 750.61,-600.28 750.61,-576.28 922.61,-576.28 934.61,-588.28 922.61,-600.28"/>
<text text-anchor="middle" x="842.61" y="-584.58" font-family="Times,serif" font-size="14.00">L2a_nfov_pc recipe 1..1</text>
</g>
<!-- l2a_nfov_pc_rec&#45;&gt;trans_nfov_pc_l2a_l2b -->
<g id="edge12" class="edge">
<title>l2a_nfov_pc_rec&#45;&gt;trans_nfov_pc_l2a_l2b</title>
<path fill="none" stroke="black" d="M934.82,-587.28C1020.2,-587.28 1134.04,-587.28 1134.04,-587.28 1134.04,-587.28 1134.04,-527.61 1134.04,-527.61"/>
<polygon fill="black" stroke="black" points="1137.54,-527.61 1134.04,-517.61 1130.54,-527.61 1137.54,-527.61"/>
</g>
<!-- l2a_nfov_pc_cti -->
<g id="node15" class="node">
<title>l2a_nfov_pc_cti</title>
<polygon fill="none" stroke="black" points="984.11,-546.28 689.11,-546.28 689.11,-522.28 984.11,-522.28 996.11,-534.28 984.11,-546.28"/>
<text text-anchor="middle" x="842.61" y="-530.58" font-family="Times,serif" font-size="14.00">L2a_nfov_pc charge xfer inefficiency 1..1</text>
</g>
<!-- l2a_nfov_pc_cti&#45;&gt;trans_nfov_pc_l2a_l2b -->
<g id="edge13" class="edge">
<title>l2a_nfov_pc_cti&#45;&gt;trans_nfov_pc_l2a_l2b</title>
<path fill="none" stroke="black" d="M996.21,-520.42C996.21,-520.42 1133.93,-520.42 1133.93,-520.42"/>
<polygon fill="black" stroke="black" points="1133.93,-523.92 1143.93,-520.42 1133.93,-516.92 1133.93,-523.92"/>
</g>
<!-- l2a_nfov_pc_dnb -->
<g id="node16" class="node">
<title>l2a_nfov_pc_dnb</title>
<polygon fill="none" stroke="black" points="965.61,-492.28 707.61,-492.28 707.61,-466.28 965.61,-466.28 977.61,-479.28 965.61,-492.28"/>
<text text-anchor="middle" x="842.61" y="-483.08" font-family="Times,serif" font-size="14.00">L2a_nfov_pc CIC/Dark Current/FPN</text>
<text text-anchor="middle" x="842.61" y="-468.08" font-family="Times,serif" font-size="14.00"> or master dark 1..1</text>
</g>
<!-- l2a_nfov_pc_dnb&#45;&gt;trans_nfov_pc_l2a_l2b -->
<g id="edge14" class="edge">
<title>l2a_nfov_pc_dnb&#45;&gt;trans_nfov_pc_l2a_l2b</title>
<path fill="none" stroke="black" d="M977.81,-479.28C977.81,-479.28 1068.68,-479.28 1068.68,-479.28"/>
<polygon fill="black" stroke="black" points="1068.68,-482.78 1078.68,-479.28 1068.68,-475.78 1068.68,-482.78"/>
</g>
<!-- l2a_nfov_pc_mbpm -->
<g id="node17" class="node">
<title>l2a_nfov_pc_mbpm</title>
<polygon fill="none" stroke="black" points="978.11,-436.28 695.11,-436.28 695.11,-412.28 978.11,-412.28 990.11,-424.28 978.11,-436.28"/>
<text text-anchor="middle" x="842.61" y="-420.58" font-family="Times,serif" font-size="14.00">L2a_nfov_pc master bad pixel map 1..1</text>
</g>
<!-- l2a_nfov_pc_mbpm&#45;&gt;trans_nfov_pc_l2a_l2b -->
<g id="edge15" class="edge">
<title>l2a_nfov_pc_mbpm&#45;&gt;trans_nfov_pc_l2a_l2b</title>
<path fill="none" stroke="black" d="M990.38,-424.28C990.38,-424.28 1041.71,-424.28 1041.71,-424.28"/>
<polygon fill="black" stroke="black" points="1041.71,-427.78 1051.71,-424.28 1041.71,-420.78 1041.71,-427.78"/>
</g>
<!-- l2a_nfov_pc_ff -->
<g id="node18" class="node">
<title>l2a_nfov_pc_ff</title>
<polygon fill="none" stroke="black" points="933.61,-382.28 739.61,-382.28 739.61,-358.28 933.61,-358.28 945.61,-370.28 933.61,-382.28"/>
<text text-anchor="middle" x="842.61" y="-366.58" font-family="Times,serif" font-size="14.00">L2a_nfov_pc flat fields 1..1</text>
</g>
<!-- l2a_nfov_pc_ff&#45;&gt;trans_nfov_pc_l2a_l2b -->
<g id="edge16" class="edge">
<title>l2a_nfov_pc_ff&#45;&gt;trans_nfov_pc_l2a_l2b</title>
<path fill="none" stroke="black" d="M945.87,-370.28C945.87,-370.28 1041.71,-370.28 1041.71,-370.28"/>
<polygon fill="black" stroke="black" points="1041.71,-373.78 1051.71,-370.28 1041.71,-366.78 1041.71,-373.78"/>
</g>
<!-- l2a_nfov_pc_emg -->
<g id="node19" class="node">
<title>l2a_nfov_pc_emg</title>
<polygon fill="none" stroke="black" points="930.61,-328.28 742.61,-328.28 742.61,-304.28 930.61,-304.28 942.61,-316.28 930.61,-328.28"/>
<text text-anchor="middle" x="842.61" y="-312.58" font-family="Times,serif" font-size="14.00">L2a_nfov_pc EM gain 1..1</text>
</g>
<!-- l2a_nfov_pc_emg&#45;&gt;trans_nfov_pc_l2a_l2b -->
<g id="edge17" class="edge">
<title>l2a_nfov_pc_emg&#45;&gt;trans_nfov_pc_l2a_l2b</title>
<path fill="none" stroke="black" d="M942.69,-316.28C942.69,-316.28 1067.89,-316.28 1067.89,-316.28"/>
<polygon fill="black" stroke="black" points="1067.89,-319.78 1077.89,-316.28 1067.89,-312.78 1067.89,-319.78"/>
</g>
<!-- l2a_nfov_pc_kgain -->
<g id="node20" class="node">
<title>l2a_nfov_pc_kgain</title>
<polygon fill="none" stroke="black" points="917.11,-274.28 756.11,-274.28 756.11,-250.28 917.11,-250.28 929.11,-262.28 917.11,-274.28"/>
<text text-anchor="middle" x="842.61" y="-258.58" font-family="Times,serif" font-size="14.00">L2_nfov_pc Kgain 1..1</text>
</g>
<!-- l2a_nfov_pc_kgain&#45;&gt;trans_nfov_pc_l2a_l2b -->
<g id="edge10" class="edge">
<title>l2a_nfov_pc_kgain&#45;&gt;trans_nfov_pc_l2a_l2b</title>
<path fill="none" stroke="black" d="M929.38,-277.71C929.38,-277.71 1122.19,-277.71 1122.19,-277.71"/>
<polygon fill="black" stroke="black" points="1122.19,-281.21 1132.19,-277.71 1122.19,-274.21 1122.19,-281.21"/>
</g>
<!-- l2b_nfov_pc_prod&#45;&gt;trans_nfov_pc_l2b_l3 -->
<g id="edge22" class="edge">
<title>l2b_nfov_pc_prod&#45;&gt;trans_nfov_pc_l2b_l3</title>
<path fill="none" stroke="black" stroke-dasharray="5,2" d="M1612.03,-484.28C1612.03,-484.28 1758.39,-484.28 1758.39,-484.28"/>
<polygon fill="black" stroke="black" points="1758.39,-487.78 1768.39,-484.28 1758.39,-480.78 1758.39,-487.78"/>
</g>
<!-- l2b_nfov_pc_man&#45;&gt;trans_nfov_pc_l2b_l3 -->
<g id="edge23" class="edge">
<title>l2b_nfov_pc_man&#45;&gt;trans_nfov_pc_l2b_l3</title>
<path fill="none" stroke="black" d="M1674.04,-429.79C1674.04,-442.39 1674.04,-472.28 1674.04,-472.28 1674.04,-472.28 1777.81,-472.28 1777.81,-472.28"/>
<polygon fill="black" stroke="black" points="1777.81,-475.78 1787.81,-472.28 1777.81,-468.78 1777.81,-475.78"/>
</g>
<!-- l2b_nfov_pc_odir -->
<g id="node24" class="node">
<title>l2b_nfov_pc_odir</title>
<ellipse fill="none" stroke="black" cx="1510.39" cy="-748.28" rx="145.67" ry="18"/>
<text text-anchor="middle" x="1510.39" y="-744.58" font-family="Times,serif" font-size="14.00">L2b_nfov_pc output path 1..1</text>
</g>
<!-- l2b_nfov_pc_odir&#45;&gt;trans_nfov_pc_l2b_l3 -->
<g id="edge24" class="edge">
<title>l2b_nfov_pc_odir&#45;&gt;trans_nfov_pc_l2b_l3</title>
<path fill="none" stroke="black" d="M1630.04,-737.63C1630.04,-723.49 1630.04,-700.28 1630.04,-700.28 1630.04,-700.28 1777.95,-700.28 1777.95,-700.28"/>
<polygon fill="black" stroke="black" points="1777.95,-703.78 1787.95,-700.28 1777.95,-696.78 1777.95,-703.78"/>
</g>
<!-- l2b_nfov_pc_rec -->
<g id="node25" class="node">
<title>l2b_nfov_pc_rec</title>
<polygon fill="none" stroke="black" points="1590.89,-706.28 1417.89,-706.28 1417.89,-682.28 1590.89,-682.28 1602.89,-694.28 1590.89,-706.28"/>
<text text-anchor="middle" x="1510.39" y="-690.58" font-family="Times,serif" font-size="14.00">L2b_nfov_pc recipe 1..1</text>
</g>
<!-- l2b_nfov_pc_rec&#45;&gt;trans_nfov_pc_l2b_l3 -->
<g id="edge25" class="edge">
<title>l2b_nfov_pc_rec&#45;&gt;trans_nfov_pc_l2b_l3</title>
<path fill="none" stroke="black" d="M1603.04,-688.28C1603.04,-688.28 1758.41,-688.28 1758.41,-688.28"/>
<polygon fill="black" stroke="black" points="1758.41,-691.78 1768.41,-688.28 1758.41,-684.78 1758.41,-691.78"/>
</g>
<!-- l2b_nfov_pc_excicrf -->
<g id="node26" class="node">
<title>l2b_nfov_pc_excicrf</title>
<polygon fill="none" stroke="black" points="1646.39,-652.28 1362.39,-652.28 1362.39,-628.28 1646.39,-628.28 1658.39,-640.28 1646.39,-652.28"/>
<text text-anchor="middle" x="1510.39" y="-636.58" font-family="Times,serif" font-size="14.00">L2b_nfov_pc EXCAM ICRF location 1..1</text>
</g>
<!-- l2b_nfov_pc_excicrf&#45;&gt;trans_nfov_pc_l2b_l3 -->
<g id="edge26" class="edge">
<title>l2b_nfov_pc_excicrf&#45;&gt;trans_nfov_pc_l2b_l3</title>
<path fill="none" stroke="black" d="M1658.44,-640.28C1658.44,-640.28 1719.29,-640.28 1719.29,-640.28"/>
<polygon fill="black" stroke="black" points="1719.29,-643.78 1729.29,-640.28 1719.29,-636.78 1719.29,-643.78"/>
</g>
<!-- l2b_nfov_pc_excfovps -->
<g id="node27" class="node">
<title>l2b_nfov_pc_excfovps</title>
<polygon fill="none" stroke="black" points="1653.39,-598.28 1355.39,-598.28 1355.39,-574.28 1653.39,-574.28 1665.39,-586.28 1653.39,-598.28"/>
<text text-anchor="middle" x="1510.39" y="-582.58" font-family="Times,serif" font-size="14.00">L2b_nfov_pc EXCAM FOV pixel scale 1..1</text>
</g>
<!-- l2b_nfov_pc_excfovps&#45;&gt;trans_nfov_pc_l2b_l3 -->
<g id="edge27" class="edge">
<title>l2b_nfov_pc_excfovps&#45;&gt;trans_nfov_pc_l2b_l3</title>
<path fill="none" stroke="black" d="M1665.76,-586.28C1665.76,-586.28 1707.17,-586.28 1707.17,-586.28"/>
<polygon fill="black" stroke="black" points="1707.17,-589.78 1717.17,-586.28 1707.17,-582.78 1707.17,-589.78"/>
</g>
<!-- l2b_nfov_pc_distm -->
<g id="node28" class="node">
<title>l2b_nfov_pc_distm</title>
<polygon fill="none" stroke="black" points="1620.89,-544.28 1387.89,-544.28 1387.89,-520.28 1620.89,-520.28 1632.89,-532.28 1620.89,-544.28"/>
<text text-anchor="middle" x="1510.39" y="-528.58" font-family="Times,serif" font-size="14.00">L2b_nfov_pc distortion map 1..1</text>
</g>
<!-- l2b_nfov_pc_distm&#45;&gt;trans_nfov_pc_l2b_l3 -->
<g id="edge28" class="edge">
<title>l2b_nfov_pc_distm&#45;&gt;trans_nfov_pc_l2b_l3</title>
<path fill="none" stroke="black" d="M1632.94,-532.28C1632.94,-532.28 1719.29,-532.28 1719.29,-532.28"/>
<polygon fill="black" stroke="black" points="1719.29,-535.78 1729.29,-532.28 1719.29,-528.78 1719.29,-535.78"/>
</g>
<!-- l3_nfov_pc_prod&#45;&gt;trans_nfov_pc_l3_l4 -->
<g id="edge32" class="edge">
<title>l3_nfov_pc_prod&#45;&gt;trans_nfov_pc_l3_l4</title>
<path fill="none" stroke="black" stroke-dasharray="5,2" d="M2270.16,-667.28C2270.16,-667.28 2375.85,-667.28 2375.85,-667.28"/>
<polygon fill="black" stroke="black" points="2375.85,-670.78 2385.85,-667.28 2375.85,-663.78 2375.85,-670.78"/>
</g>
<!-- l3_nfov_pc_odir -->
<g id="node31" class="node">
<title>l3_nfov_pc_odir</title>
<ellipse fill="none" stroke="black" cx="2172.97" cy="-829.28" rx="139.98" ry="18"/>
<text text-anchor="middle" x="2172.97" y="-825.58" font-family="Times,serif" font-size="14.00">L3_nfov_pc output path 1..1</text>
</g>
<!-- l3_nfov_pc_odir&#45;&gt;trans_nfov_pc_l3_l4 -->
<g id="edge34" class="edge">
<title>l3_nfov_pc_odir&#45;&gt;trans_nfov_pc_l3_l4</title>
<path fill="none" stroke="black" d="M2313.18,-829.28C2313.18,-829.28 2423.87,-829.28 2423.87,-829.28"/>
<polygon fill="black" stroke="black" points="2423.87,-832.78 2433.87,-829.28 2423.87,-825.78 2423.87,-832.78"/>
</g>
<!-- l3_nfov_pc_man&#45;&gt;trans_nfov_pc_l3_l4 -->
<g id="edge33" class="edge">
<title>l3_nfov_pc_man&#45;&gt;trans_nfov_pc_l3_l4</title>
<path fill="none" stroke="black" d="M2338.11,-613.28C2338.11,-613.28 2423.76,-613.28 2423.76,-613.28"/>
<polygon fill="black" stroke="black" points="2423.76,-616.78 2433.76,-613.28 2423.76,-609.78 2423.76,-616.78"/>
</g>
<!-- l3_nfov_pc_rec -->
<g id="node33" class="node">
<title>l3_nfov_pc_rec</title>
<polygon fill="none" stroke="black" points="2248.97,-787.28 2084.97,-787.28 2084.97,-763.28 2248.97,-763.28 2260.97,-775.28 2248.97,-787.28"/>
<text text-anchor="middle" x="2172.97" y="-771.58" font-family="Times,serif" font-size="14.00">L3_nfov_pc recipe 1..1</text>
</g>
<!-- l3_nfov_pc_rec&#45;&gt;trans_nfov_pc_l3_l4 -->
<g id="edge35" class="edge">
<title>l3_nfov_pc_rec&#45;&gt;trans_nfov_pc_l3_l4</title>
<path fill="none" stroke="black" d="M2261.4,-775.28C2261.4,-775.28 2375.86,-775.28 2375.86,-775.28"/>
<polygon fill="black" stroke="black" points="2375.86,-778.78 2385.86,-775.28 2375.86,-771.78 2375.86,-778.78"/>
</g>
<!-- l3_nfov_pc_cal -->
<g id="node34" class="node">
<title>l3_nfov_pc_cal</title>
<polygon fill="none" stroke="black" points="2264.97,-733.28 2068.97,-733.28 2068.97,-709.28 2264.97,-709.28 2276.97,-721.28 2264.97,-733.28"/>
<text text-anchor="middle" x="2172.97" y="-717.58" font-family="Times,serif" font-size="14.00">L3_nfov_pc calibration 1..1</text>
</g>
<!-- l3_nfov_pc_cal&#45;&gt;trans_nfov_pc_l3_l4 -->
<g id="edge36" class="edge">
<title>l3_nfov_pc_cal&#45;&gt;trans_nfov_pc_l3_l4</title>
<path fill="none" stroke="black" d="M2277.32,-721.28C2277.32,-721.28 2363.94,-721.28 2363.94,-721.28"/>
<polygon fill="black" stroke="black" points="2363.94,-724.78 2373.94,-721.28 2363.94,-717.78 2363.94,-724.78"/>
</g>
<!-- l4_nfov_pc_prod&#45;&gt;trans_nfov_pc_l4_tda -->
<g id="edge40" class="edge">
<title>l4_nfov_pc_prod&#45;&gt;trans_nfov_pc_l4_tda</title>
<path fill="none" stroke="black" stroke-dasharray="5,2" d="M2929.77,-808.28C2929.77,-808.28 3077.53,-808.28 3077.53,-808.28"/>
<polygon fill="black" stroke="black" points="3077.53,-811.78 3087.53,-808.28 3077.53,-804.78 3077.53,-811.78"/>
</g>
<!-- l4_nfov_pc_odir -->
<g id="node37" class="node">
<title>l4_nfov_pc_odir</title>
<ellipse fill="none" stroke="black" cx="2832.61" cy="-1072.28" rx="139.98" ry="18"/>
<text text-anchor="middle" x="2832.61" y="-1068.58" font-family="Times,serif" font-size="14.00">L4_nfov_pc output path 1..1</text>
</g>
<!-- l4_nfov_pc_odir&#45;&gt;trans_nfov_pc_l4_tda -->
<g id="edge42" class="edge">
<title>l4_nfov_pc_odir&#45;&gt;trans_nfov_pc_l4_tda</title>
<path fill="none" stroke="black" d="M2947.04,-1061.63C2947.04,-1047.49 2947.04,-1024.28 2947.04,-1024.28 2947.04,-1024.28 3097.2,-1024.28 3097.2,-1024.28"/>
<polygon fill="black" stroke="black" points="3097.2,-1027.78 3107.2,-1024.28 3097.2,-1020.78 3097.2,-1027.78"/>
</g>
<!-- l4_nfov_pc_man&#45;&gt;trans_nfov_pc_l4_tda -->
<g id="edge41" class="edge">
<title>l4_nfov_pc_man&#45;&gt;trans_nfov_pc_l4_tda</title>
<path fill="none" stroke="black" d="M2965.04,-705.2C2965.04,-731.51 2965.04,-796.28 2965.04,-796.28 2965.04,-796.28 3097.18,-796.28 3097.18,-796.28"/>
<polygon fill="black" stroke="black" points="3097.18,-799.78 3107.18,-796.28 3097.18,-792.78 3097.18,-799.78"/>
</g>
<!-- l4_nfov_pc_rec -->
<g id="node40" class="node">
<title>l4_nfov_pc_rec</title>
<polygon fill="none" stroke="black" points="2908.61,-1030.28 2744.61,-1030.28 2744.61,-1006.28 2908.61,-1006.28 2920.61,-1018.28 2908.61,-1030.28"/>
<text text-anchor="middle" x="2832.61" y="-1014.58" font-family="Times,serif" font-size="14.00">L4_nfov_pc recipe 1..1</text>
</g>
<!-- l4_nfov_pc_rec&#45;&gt;trans_nfov_pc_l4_tda -->
<g id="edge43" class="edge">
<title>l4_nfov_pc_rec&#45;&gt;trans_nfov_pc_l4_tda</title>
<path fill="none" stroke="black" d="M2920.95,-1012.28C2920.95,-1012.28 3077.61,-1012.28 3077.61,-1012.28"/>
<polygon fill="black" stroke="black" points="3077.61,-1015.78 3087.61,-1012.28 3077.61,-1008.78 3077.61,-1015.78"/>
</g>
<!-- l4_nfov_pc_afcal -->
<g id="node41" class="node">
<title>l4_nfov_pc_afcal</title>
<polygon fill="none" stroke="black" points="2976.11,-976.28 2677.11,-976.28 2677.11,-952.28 2976.11,-952.28 2988.11,-964.28 2976.11,-976.28"/>
<text text-anchor="middle" x="2832.61" y="-960.58" font-family="Times,serif" font-size="14.00">L4_nfov_pc absolute flux calibrations 1..1</text>
</g>
<!-- l4_nfov_pc_afcal&#45;&gt;trans_nfov_pc_l4_tda -->
<g id="edge44" class="edge">
<title>l4_nfov_pc_afcal&#45;&gt;trans_nfov_pc_l4_tda</title>
<path fill="none" stroke="black" d="M2988.55,-964.28C2988.55,-964.28 3038.35,-964.28 3038.35,-964.28"/>
<polygon fill="black" stroke="black" points="3038.35,-967.78 3048.35,-964.28 3038.35,-960.78 3038.35,-967.78"/>
</g>
<!-- l4_nfov_pc_ctcal -->
<g id="node42" class="node">
<title>l4_nfov_pc_ctcal</title>
<polygon fill="none" stroke="black" points="2988.61,-922.28 2664.61,-922.28 2664.61,-898.28 2988.61,-898.28 3000.61,-910.28 2988.61,-922.28"/>
<text text-anchor="middle" x="2832.61" y="-906.58" font-family="Times,serif" font-size="14.00">L4_nfov_pc core throughput calibrations 1..1</text>
</g>
<!-- l4_nfov_pc_ctcal&#45;&gt;trans_nfov_pc_l4_tda -->
<g id="edge45" class="edge">
<title>l4_nfov_pc_ctcal&#45;&gt;trans_nfov_pc_l4_tda</title>
<path fill="none" stroke="black" d="M3000.68,-910.28C3000.68,-910.28 3026.41,-910.28 3026.41,-910.28"/>
<polygon fill="black" stroke="black" points="3026.41,-913.78 3036.41,-910.28 3026.41,-906.78 3026.41,-913.78"/>
</g>
<!-- l4_nfov_pc_ndfilt -->
<g id="node43" class="node">
<title>l4_nfov_pc_ndfilt</title>
<polygon fill="none" stroke="black" points="2917.61,-868.28 2735.61,-868.28 2735.61,-844.28 2917.61,-844.28 2929.61,-856.28 2917.61,-868.28"/>
<text text-anchor="middle" x="2832.61" y="-852.58" font-family="Times,serif" font-size="14.00">L4_nfov_pc ND filter 1..1</text>
</g>
<!-- l4_nfov_pc_ndfilt&#45;&gt;trans_nfov_pc_l4_tda -->
<g id="edge46" class="edge">
<title>l4_nfov_pc_ndfilt&#45;&gt;trans_nfov_pc_l4_tda</title>
<path fill="none" stroke="black" d="M2929.77,-856.28C2929.77,-856.28 3038.6,-856.28 3038.6,-856.28"/>
<polygon fill="black" stroke="black" points="3038.6,-859.78 3048.6,-856.28 3038.6,-852.78 3038.6,-859.78"/>
</g>
<!-- tda_nfov_pc_man -->
<g id="node44" class="node">
<title>tda_nfov_pc_man</title>
<ellipse fill="none" stroke="black" cx="172.88" cy="-289.28" rx="172.77" ry="18"/>
<text text-anchor="middle" x="172.88" y="-285.58" font-family="Times,serif" font-size="14.00">TDA_nfov_pc product manifest 1..1</text>
</g>
</g>
</svg>
