<?xml version="1.0" encoding="UTF-8" standalone="no"?>
<!DOCTYPE svg PUBLIC "-//W3C//DTD SVG 1.1//EN"
 "http://www.w3.org/Graphics/SVG/1.1/DTD/svg11.dtd">
<!-- Generated by graphviz version 2.43.0 (0)
 -->
<!-- Title: NarrowFieldOfViewAnalog Pages: 1 -->
<svg width="2909pt" height="1097pt"
 viewBox="0.00 0.00 2909.22 1097.00" xmlns="http://www.w3.org/2000/svg" xmlns:xlink="http://www.w3.org/1999/xlink">
<g id="graph0" class="graph" transform="scale(1 1) rotate(0) translate(4 1093)">
<title>NarrowFieldOfViewAnalog</title>
<polygon fill="white" stroke="transparent" points="-4,4 -4,-1093 2905.22,-1093 2905.22,4 -4,4"/>
<!-- trans_nfov_a_l1_l2a -->
<g id="node1" class="node">
<title>trans_nfov_a_l1_l2a</title>
<ellipse fill="none" stroke="black" cx="404.55" cy="-126" rx="96.75" ry="96.75"/>
<text text-anchor="middle" x="404.55" y="-129.8" font-family="Times,serif" font-size="14.00">nfov_a Transmutation</text>
<text text-anchor="middle" x="404.55" y="-114.8" font-family="Times,serif" font-size="14.00">L1 to L2a</text>
</g>
<!-- l2a_nfov_a_prod -->
<g id="node11" class="node">
<title>l2a_nfov_a_prod</title>
<polygon fill="none" stroke="black" points="747.86,-225 590.86,-225 590.86,-189 747.86,-189 747.86,-225"/>
<text text-anchor="middle" x="669.36" y="-203.3" font-family="Times,serif" font-size="14.00">L2a_nfov_a products 1..b</text>
</g>
<!-- trans_nfov_a_l1_l2a&#45;&gt;l2a_nfov_a_prod -->
<g id="edge6" class="edge">
<title>trans_nfov_a_l1_l2a&#45;&gt;l2a_nfov_a_prod</title>
<path fill="none" stroke="black" stroke-dasharray="5,2" d="M459.42,-205.94C459.42,-205.94 580.71,-205.94 580.71,-205.94"/>
<polygon fill="black" stroke="black" points="580.71,-209.44 590.71,-205.94 580.71,-202.44 580.71,-209.44"/>
</g>
<!-- l2a_nfov_a_man -->
<g id="node12" class="node">
<title>l2a_nfov_a_man</title>
<ellipse fill="none" stroke="black" cx="669.36" cy="-153" rx="131.88" ry="18"/>
<text text-anchor="middle" x="669.36" y="-149.3" font-family="Times,serif" font-size="14.00">L2a_nfov_a product manifest 1..1</text>
</g>
<!-- trans_nfov_a_l1_l2a&#45;&gt;l2a_nfov_a_man -->
<g id="edge7" class="edge">
<title>trans_nfov_a_l1_l2a&#45;&gt;l2a_nfov_a_man</title>
<path fill="none" stroke="black" d="M497.91,-153C497.91,-153 527.39,-153 527.39,-153"/>
<polygon fill="black" stroke="black" points="527.39,-156.5 537.39,-153 527.39,-149.5 527.39,-156.5"/>
</g>
<!-- l2a_nfov_a_log -->
<g id="node21" class="node">
<title>l2a_nfov_a_log</title>
<ellipse fill="none" stroke="black" cx="669.36" cy="-99" rx="83.39" ry="18"/>
<text text-anchor="middle" x="669.36" y="-95.3" font-family="Times,serif" font-size="14.00">L2a log_nfov_a 1..1</text>
</g>
<!-- trans_nfov_a_l1_l2a&#45;&gt;l2a_nfov_a_log -->
<g id="edge8" class="edge">
<title>trans_nfov_a_l1_l2a&#45;&gt;l2a_nfov_a_log</title>
<path fill="none" stroke="black" stroke-dasharray="5,2" d="M497.91,-99C497.91,-99 576.1,-99 576.1,-99"/>
<polygon fill="black" stroke="black" points="576.1,-102.5 586.1,-99 576.1,-95.5 576.1,-102.5"/>
</g>
<!-- l2a_nfov_a_src -->
<g id="node47" class="node">
<title>l2a_nfov_a_src</title>
<ellipse fill="none" stroke="black" cx="669.36" cy="-45" rx="128.08" ry="18"/>
<text text-anchor="middle" x="669.36" y="-41.3" font-family="Times,serif" font-size="14.00">L2a_nfov_a source manifest 1..1</text>
</g>
<!-- trans_nfov_a_l1_l2a&#45;&gt;l2a_nfov_a_src -->
<g id="edge49" class="edge">
<title>trans_nfov_a_l1_l2a&#45;&gt;l2a_nfov_a_src</title>
<path fill="none" stroke="black" d="M459.42,-46.06C459.42,-46.06 531.39,-46.06 531.39,-46.06"/>
<polygon fill="black" stroke="black" points="531.39,-49.56 541.39,-46.06 531.39,-42.56 531.39,-49.56"/>
</g>
<!-- trans_nfov_a_l2a_l2b -->
<g id="node2" class="node">
<title>trans_nfov_a_l2a_l2b</title>
<ellipse fill="none" stroke="black" cx="934.17" cy="-396" rx="96.75" ry="96.75"/>
<text text-anchor="middle" x="934.17" y="-399.8" font-family="Times,serif" font-size="14.00">nfov_a Transmutation</text>
<text text-anchor="middle" x="934.17" y="-384.8" font-family="Times,serif" font-size="14.00">L2a to L2b</text>
</g>
<!-- l2b_nfov_a_prod -->
<g id="node22" class="node">
<title>l2b_nfov_a_prod</title>
<polygon fill="none" stroke="black" points="1277.99,-495 1119.99,-495 1119.99,-459 1277.99,-459 1277.99,-495"/>
<text text-anchor="middle" x="1198.99" y="-473.3" font-family="Times,serif" font-size="14.00">L2b_nfov_a products 1..1</text>
</g>
<!-- trans_nfov_a_l2a_l2b&#45;&gt;l2b_nfov_a_prod -->
<g id="edge18" class="edge">
<title>trans_nfov_a_l2a_l2b&#45;&gt;l2b_nfov_a_prod</title>
<path fill="none" stroke="black" stroke-dasharray="5,2" d="M989.04,-475.94C989.04,-475.94 1109.82,-475.94 1109.82,-475.94"/>
<polygon fill="black" stroke="black" points="1109.82,-479.44 1119.82,-475.94 1109.82,-472.44 1109.82,-479.44"/>
</g>
<!-- l2b_nfov_a_man -->
<g id="node23" class="node">
<title>l2b_nfov_a_man</title>
<ellipse fill="none" stroke="black" cx="1198.99" cy="-423" rx="131.88" ry="18"/>
<text text-anchor="middle" x="1198.99" y="-419.3" font-family="Times,serif" font-size="14.00">L2b_nfov_a product manifest 1..1</text>
</g>
<!-- trans_nfov_a_l2a_l2b&#45;&gt;l2b_nfov_a_man -->
<g id="edge19" class="edge">
<title>trans_nfov_a_l2a_l2b&#45;&gt;l2b_nfov_a_man</title>
<path fill="none" stroke="black" d="M1027.54,-423C1027.54,-423 1057.02,-423 1057.02,-423"/>
<polygon fill="black" stroke="black" points="1057.02,-426.5 1067.02,-423 1057.02,-419.5 1057.02,-426.5"/>
</g>
<!-- l2b_nfov_a_log -->
<g id="node29" class="node">
<title>l2b_nfov_a_log</title>
<ellipse fill="none" stroke="black" cx="1198.99" cy="-369" rx="83.39" ry="18"/>
<text text-anchor="middle" x="1198.99" y="-365.3" font-family="Times,serif" font-size="14.00">L2b_nfov_a log 1..1</text>
</g>
<!-- trans_nfov_a_l2a_l2b&#45;&gt;l2b_nfov_a_log -->
<g id="edge20" class="edge">
<title>trans_nfov_a_l2a_l2b&#45;&gt;l2b_nfov_a_log</title>
<path fill="none" stroke="black" stroke-dasharray="5,2" d="M1027.54,-369C1027.54,-369 1105.72,-369 1105.72,-369"/>
<polygon fill="black" stroke="black" points="1105.72,-372.5 1115.72,-369 1105.72,-365.5 1105.72,-372.5"/>
</g>
<!-- l2b_nfov_a_src -->
<g id="node48" class="node">
<title>l2b_nfov_a_src</title>
<ellipse fill="none" stroke="black" cx="1198.99" cy="-315" rx="128.08" ry="18"/>
<text text-anchor="middle" x="1198.99" y="-311.3" font-family="Times,serif" font-size="14.00">L2b_nfov_a source manifest 1..1</text>
</g>
<!-- trans_nfov_a_l2a_l2b&#45;&gt;l2b_nfov_a_src -->
<g id="edge50" class="edge">
<title>trans_nfov_a_l2a_l2b&#45;&gt;l2b_nfov_a_src</title>
<path fill="none" stroke="black" d="M989.04,-316.06C989.04,-316.06 1061.01,-316.06 1061.01,-316.06"/>
<polygon fill="black" stroke="black" points="1061.01,-319.56 1071.01,-316.06 1061.01,-312.56 1061.01,-319.56"/>
</g>
<!-- trans_nfov_a_l2b_l3 -->
<g id="node3" class="node">
<title>trans_nfov_a_l2b_l3</title>
<ellipse fill="none" stroke="black" cx="1463.8" cy="-585" rx="96.75" ry="96.75"/>
<text text-anchor="middle" x="1463.8" y="-588.8" font-family="Times,serif" font-size="14.00">nfov_a Transmutation</text>
<text text-anchor="middle" x="1463.8" y="-573.8" font-family="Times,serif" font-size="14.00">L2b to L3</text>
</g>
<!-- l3_nfov_a_prod -->
<g id="node30" class="node">
<title>l3_nfov_a_prod</title>
<polygon fill="none" stroke="black" points="1800.21,-684 1649.21,-684 1649.21,-648 1800.21,-648 1800.21,-684"/>
<text text-anchor="middle" x="1724.71" y="-662.3" font-family="Times,serif" font-size="14.00">L3_nfov_a products 1..1</text>
</g>
<!-- trans_nfov_a_l2b_l3&#45;&gt;l3_nfov_a_prod -->
<g id="edge29" class="edge">
<title>trans_nfov_a_l2b_l3&#45;&gt;l3_nfov_a_prod</title>
<path fill="none" stroke="black" stroke-dasharray="5,2" d="M1518.81,-664.94C1518.81,-664.94 1638.99,-664.94 1638.99,-664.94"/>
<polygon fill="black" stroke="black" points="1638.99,-668.44 1648.99,-664.94 1638.99,-661.44 1638.99,-668.44"/>
</g>
<!-- l3_nfov_a_man -->
<g id="node32" class="node">
<title>l3_nfov_a_man</title>
<ellipse fill="none" stroke="black" cx="1724.71" cy="-612" rx="128.08" ry="18"/>
<text text-anchor="middle" x="1724.71" y="-608.3" font-family="Times,serif" font-size="14.00">L3_nfov_a product manifest 1..1</text>
</g>
<!-- trans_nfov_a_l2b_l3&#45;&gt;l3_nfov_a_man -->
<g id="edge30" class="edge">
<title>trans_nfov_a_l2b_l3&#45;&gt;l3_nfov_a_man</title>
<path fill="none" stroke="black" d="M1556.89,-612C1556.89,-612 1586.55,-612 1586.55,-612"/>
<polygon fill="black" stroke="black" points="1586.55,-615.5 1596.55,-612 1586.55,-608.5 1586.55,-615.5"/>
</g>
<!-- l3_nfov_a_log -->
<g id="node35" class="node">
<title>l3_nfov_a_log</title>
<ellipse fill="none" stroke="black" cx="1724.71" cy="-558" rx="79.09" ry="18"/>
<text text-anchor="middle" x="1724.71" y="-554.3" font-family="Times,serif" font-size="14.00">L3_nfov_a log 1..1</text>
</g>
<!-- trans_nfov_a_l2b_l3&#45;&gt;l3_nfov_a_log -->
<g id="edge31" class="edge">
<title>trans_nfov_a_l2b_l3&#45;&gt;l3_nfov_a_log</title>
<path fill="none" stroke="black" stroke-dasharray="5,2" d="M1556.89,-558C1556.89,-558 1635.04,-558 1635.04,-558"/>
<polygon fill="black" stroke="black" points="1635.04,-561.5 1645.04,-558 1635.04,-554.5 1635.04,-561.5"/>
</g>
<!-- l3_nfov_a_src -->
<g id="node49" class="node">
<title>l3_nfov_a_src</title>
<ellipse fill="none" stroke="black" cx="1724.71" cy="-504" rx="124.28" ry="18"/>
<text text-anchor="middle" x="1724.71" y="-500.3" font-family="Times,serif" font-size="14.00">L3_nfov_a source manifest 1..1</text>
</g>
<!-- trans_nfov_a_l2b_l3&#45;&gt;l3_nfov_a_src -->
<g id="edge51" class="edge">
<title>trans_nfov_a_l2b_l3&#45;&gt;l3_nfov_a_src</title>
<path fill="none" stroke="black" d="M1518.81,-505.06C1518.81,-505.06 1590.75,-505.06 1590.75,-505.06"/>
<polygon fill="black" stroke="black" points="1590.75,-508.56 1600.75,-505.06 1590.75,-501.56 1590.75,-508.56"/>
</g>
<!-- trans_nfov_a_l3_l4 -->
<g id="node4" class="node">
<title>trans_nfov_a_l3_l4</title>
<ellipse fill="none" stroke="black" cx="1985.62" cy="-720" rx="96.75" ry="96.75"/>
<text text-anchor="middle" x="1985.62" y="-723.8" font-family="Times,serif" font-size="14.00">nfov_a Transmutation</text>
<text text-anchor="middle" x="1985.62" y="-708.8" font-family="Times,serif" font-size="14.00">L3 to L4</text>
</g>
<!-- l4_nfov_a_prod -->
<g id="node36" class="node">
<title>l4_nfov_a_prod</title>
<polygon fill="none" stroke="black" points="2322.5,-819 2171.5,-819 2171.5,-783 2322.5,-783 2322.5,-819"/>
<text text-anchor="middle" x="2247" y="-797.3" font-family="Times,serif" font-size="14.00">L4_nfov_a products 1..1</text>
</g>
<!-- trans_nfov_a_l3_l4&#45;&gt;l4_nfov_a_prod -->
<g id="edge37" class="edge">
<title>trans_nfov_a_l3_l4&#45;&gt;l4_nfov_a_prod</title>
<path fill="none" stroke="black" stroke-dasharray="5,2" d="M2040.41,-799.94C2040.41,-799.94 2161.46,-799.94 2161.46,-799.94"/>
<polygon fill="black" stroke="black" points="2161.46,-803.44 2171.46,-799.94 2161.46,-796.44 2161.46,-803.44"/>
</g>
<!-- l4_nfov_a_log -->
<g id="node38" class="node">
<title>l4_nfov_a_log</title>
<ellipse fill="none" stroke="black" cx="2247" cy="-747" rx="79.09" ry="18"/>
<text text-anchor="middle" x="2247" y="-743.3" font-family="Times,serif" font-size="14.00">L4_nfov_a log 1..1</text>
</g>
<!-- trans_nfov_a_l3_l4&#45;&gt;l4_nfov_a_log -->
<g id="edge38" class="edge">
<title>trans_nfov_a_l3_l4&#45;&gt;l4_nfov_a_log</title>
<path fill="none" stroke="black" stroke-dasharray="5,2" d="M2078.88,-747C2078.88,-747 2157.61,-747 2157.61,-747"/>
<polygon fill="black" stroke="black" points="2157.61,-750.5 2167.61,-747 2157.61,-743.5 2157.61,-750.5"/>
</g>
<!-- l4_nfov_a_man -->
<g id="node39" class="node">
<title>l4_nfov_a_man</title>
<ellipse fill="none" stroke="black" cx="2247" cy="-693" rx="128.08" ry="18"/>
<text text-anchor="middle" x="2247" y="-689.3" font-family="Times,serif" font-size="14.00">L4_nfov_a product manifest 1..1</text>
</g>
<!-- trans_nfov_a_l3_l4&#45;&gt;l4_nfov_a_man -->
<g id="edge39" class="edge">
<title>trans_nfov_a_l3_l4&#45;&gt;l4_nfov_a_man</title>
<path fill="none" stroke="black" d="M2078.88,-693C2078.88,-693 2108.61,-693 2108.61,-693"/>
<polygon fill="black" stroke="black" points="2108.61,-696.5 2118.61,-693 2108.61,-689.5 2108.61,-696.5"/>
</g>
<!-- l4_nfov_a_src -->
<g id="node50" class="node">
<title>l4_nfov_a_src</title>
<ellipse fill="none" stroke="black" cx="2247" cy="-639" rx="121.58" ry="18"/>
<text text-anchor="middle" x="2247" y="-635.3" font-family="Times,serif" font-size="14.00">L4_nfov_a sourcemanifest 1..1</text>
</g>
<!-- trans_nfov_a_l3_l4&#45;&gt;l4_nfov_a_src -->
<g id="edge52" class="edge">
<title>trans_nfov_a_l3_l4&#45;&gt;l4_nfov_a_src</title>
<path fill="none" stroke="black" d="M2040.41,-640.06C2040.41,-640.06 2115.52,-640.06 2115.52,-640.06"/>
<polygon fill="black" stroke="black" points="2115.52,-643.56 2125.52,-640.06 2115.52,-636.56 2115.52,-643.56"/>
</g>
<!-- trans_nfov_a_l4_tda -->
<g id="node5" class="node">
<title>trans_nfov_a_l4_tda</title>
<ellipse fill="none" stroke="black" cx="2508.37" cy="-909" rx="96.75" ry="96.75"/>
<text text-anchor="middle" x="2508.37" y="-912.8" font-family="Times,serif" font-size="14.00">nfov_a Transmutation</text>
<text text-anchor="middle" x="2508.37" y="-897.8" font-family="Times,serif" font-size="14.00">L4 to TDA</text>
</g>
<!-- tda_nfov_a_prod -->
<g id="node45" class="node">
<title>tda_nfov_a_prod</title>
<ellipse fill="none" stroke="black" cx="2771.23" cy="-963" rx="70.69" ry="18"/>
<text text-anchor="middle" x="2771.23" y="-959.3" font-family="Times,serif" font-size="14.00">tda_nfov_a_prod</text>
</g>
<!-- trans_nfov_a_l4_tda&#45;&gt;tda_nfov_a_prod -->
<g id="edge47" class="edge">
<title>trans_nfov_a_l4_tda&#45;&gt;tda_nfov_a_prod</title>
<path fill="none" stroke="black" stroke-dasharray="5,2" d="M2589.02,-963C2589.02,-963 2690.08,-963 2690.08,-963"/>
<polygon fill="black" stroke="black" points="2690.08,-966.5 2700.08,-963 2690.08,-959.5 2690.08,-966.5"/>
</g>
<!-- tda_nfov_a_log -->
<g id="node46" class="node">
<title>tda_nfov_a_log</title>
<ellipse fill="none" stroke="black" cx="2771.23" cy="-909" rx="65.79" ry="18"/>
<text text-anchor="middle" x="2771.23" y="-905.3" font-family="Times,serif" font-size="14.00">tda_nfov_a_log</text>
</g>
<!-- trans_nfov_a_l4_tda&#45;&gt;tda_nfov_a_log -->
<g id="edge48" class="edge">
<title>trans_nfov_a_l4_tda&#45;&gt;tda_nfov_a_log</title>
<path fill="none" stroke="black" stroke-dasharray="5,2" d="M2605.5,-909C2605.5,-909 2695.21,-909 2695.21,-909"/>
<polygon fill="black" stroke="black" points="2695.21,-912.5 2705.21,-909 2695.21,-905.5 2695.21,-912.5"/>
</g>
<!-- tda_nfov_a_src -->
<g id="node51" class="node">
<title>tda_nfov_a_src</title>
<ellipse fill="none" stroke="black" cx="2771.23" cy="-855" rx="129.98" ry="18"/>
<text text-anchor="middle" x="2771.23" y="-851.3" font-family="Times,serif" font-size="14.00">TDA_nfov_a sourcemanifest 1..1</text>
</g>
<!-- trans_nfov_a_l4_tda&#45;&gt;tda_nfov_a_src -->
<g id="edge53" class="edge">
<title>trans_nfov_a_l4_tda&#45;&gt;tda_nfov_a_src</title>
<path fill="none" stroke="black" d="M2589.02,-855C2589.02,-855 2630.86,-855 2630.86,-855"/>
<polygon fill="black" stroke="black" points="2630.86,-858.5 2640.86,-855 2630.86,-851.5 2630.86,-858.5"/>
</g>
<!-- l1_nfov_a_prod -->
<g id="node6" class="node">
<title>l1_nfov_a_prod</title>
<polygon fill="none" stroke="black" points="211.34,-252 60.34,-252 60.34,-216 211.34,-216 211.34,-252"/>
<text text-anchor="middle" x="135.84" y="-230.3" font-family="Times,serif" font-size="14.00">L1_nfov_a products 1..b</text>
</g>
<!-- l1_nfov_a_prod&#45;&gt;trans_nfov_a_l1_l2a -->
<g id="edge1" class="edge">
<title>l1_nfov_a_prod&#45;&gt;trans_nfov_a_l1_l2a</title>
<path fill="none" stroke="black" stroke-dasharray="5,2" d="M136.22,-215.84C136.22,-210.96 136.22,-207 136.22,-207 136.22,-207 341.22,-207 341.22,-207"/>
<polygon fill="black" stroke="black" points="341.22,-210.5 351.22,-207 341.22,-203.5 341.22,-210.5"/>
</g>
<!-- l1_nfov_a_man -->
<g id="node7" class="node">
<title>l1_nfov_a_man</title>
<ellipse fill="none" stroke="black" cx="135.84" cy="-180" rx="128.08" ry="18"/>
<text text-anchor="middle" x="135.84" y="-176.3" font-family="Times,serif" font-size="14.00">L1_nfov_a product manifest 1..1</text>
</g>
<!-- l1_nfov_a_man&#45;&gt;trans_nfov_a_l1_l2a -->
<g id="edge2" class="edge">
<title>l1_nfov_a_man&#45;&gt;trans_nfov_a_l1_l2a</title>
<path fill="none" stroke="black" d="M263.9,-180C263.9,-180 313.82,-180 313.82,-180"/>
<polygon fill="black" stroke="black" points="313.82,-183.5 323.82,-180 313.82,-176.5 313.82,-183.5"/>
</g>
<!-- l1_nfov_a_odir -->
<g id="node8" class="node">
<title>l1_nfov_a_odir</title>
<ellipse fill="none" stroke="black" cx="135.84" cy="-126" rx="107.78" ry="18"/>
<text text-anchor="middle" x="135.84" y="-122.3" font-family="Times,serif" font-size="14.00">L1_nfov_a output path 1..1</text>
</g>
<!-- l1_nfov_a_odir&#45;&gt;trans_nfov_a_l1_l2a -->
<g id="edge3" class="edge">
<title>l1_nfov_a_odir&#45;&gt;trans_nfov_a_l1_l2a</title>
<path fill="none" stroke="black" d="M243.97,-126C243.97,-126 297.48,-126 297.48,-126"/>
<polygon fill="black" stroke="black" points="297.48,-129.5 307.48,-126 297.48,-122.5 297.48,-129.5"/>
</g>
<!-- l1_nfov_a_rec -->
<g id="node9" class="node">
<title>l1_nfov_a_rec</title>
<polygon fill="none" stroke="black" points="192.34,-84 67.34,-84 67.34,-60 192.34,-60 204.34,-72 192.34,-84"/>
<text text-anchor="middle" x="135.84" y="-68.3" font-family="Times,serif" font-size="14.00">L1_nfov_a recipe 1..1</text>
</g>
<!-- l1_nfov_a_rec&#45;&gt;trans_nfov_a_l1_l2a -->
<g id="edge4" class="edge">
<title>l1_nfov_a_rec&#45;&gt;trans_nfov_a_l1_l2a</title>
<path fill="none" stroke="black" d="M204.34,-72C204.34,-72 313.75,-72 313.75,-72"/>
<polygon fill="black" stroke="black" points="313.75,-75.5 323.75,-72 313.75,-68.5 313.75,-75.5"/>
</g>
<!-- l1_nfov_a_nllut -->
<g id="node10" class="node">
<title>l1_nfov_a_nllut</title>
<polygon fill="none" stroke="black" points="218.34,-30 41.34,-30 41.34,-6 218.34,-6 230.34,-18 218.34,-30"/>
<text text-anchor="middle" x="135.84" y="-14.3" font-family="Times,serif" font-size="14.00">L1_nfov_a non&#45;linear LUT 1..1</text>
</g>
<!-- l1_nfov_a_nllut&#45;&gt;trans_nfov_a_l1_l2a -->
<g id="edge5" class="edge">
<title>l1_nfov_a_nllut&#45;&gt;trans_nfov_a_l1_l2a</title>
<path fill="none" stroke="black" d="M218.22,-36.16C218.22,-41.04 218.22,-45 218.22,-45 218.22,-45 341.15,-45 341.15,-45"/>
<polygon fill="black" stroke="black" points="341.15,-48.5 351.15,-45 341.15,-41.5 341.15,-48.5"/>
</g>
<!-- l2a_nfov_a_prod&#45;&gt;trans_nfov_a_l2a_l2b -->
<g id="edge9" class="edge">
<title>l2a_nfov_a_prod&#45;&gt;trans_nfov_a_l2a_l2b</title>
<path fill="none" stroke="black" stroke-dasharray="5,2" d="M748.01,-207C836.26,-207 967.22,-207 967.22,-207 967.22,-207 967.22,-294.82 967.22,-294.82"/>
<polygon fill="black" stroke="black" points="963.72,-294.82 967.22,-304.82 970.72,-294.82 963.72,-294.82"/>
</g>
<!-- l2a_nfov_a_man&#45;&gt;trans_nfov_a_l2a_l2b -->
<g id="edge21" class="edge">
<title>l2a_nfov_a_man&#45;&gt;trans_nfov_a_l2a_l2b</title>
<path fill="none" stroke="black" d="M796.22,-158.24C796.22,-185.55 796.22,-310.42 796.22,-310.42 796.22,-310.42 878.62,-310.42 878.62,-310.42"/>
<polygon fill="black" stroke="black" points="878.62,-313.92 888.62,-310.42 878.62,-306.92 878.62,-313.92"/>
</g>
<!-- l2a_nfov_a_odir -->
<g id="node13" class="node">
<title>l2a_nfov_a_odir</title>
<ellipse fill="none" stroke="black" cx="669.36" cy="-641" rx="111.58" ry="18"/>
<text text-anchor="middle" x="669.36" y="-637.3" font-family="Times,serif" font-size="14.00">L2a_nfov_a output path 1..1</text>
</g>
<!-- l2a_nfov_a_odir&#45;&gt;trans_nfov_a_l2a_l2b -->
<g id="edge11" class="edge">
<title>l2a_nfov_a_odir&#45;&gt;trans_nfov_a_l2a_l2b</title>
<path fill="none" stroke="black" d="M781.12,-640C865.64,-640 967.22,-640 967.22,-640 967.22,-640 967.22,-497.2 967.22,-497.2"/>
<polygon fill="black" stroke="black" points="970.72,-497.2 967.22,-487.2 963.72,-497.2 970.72,-497.2"/>
</g>
<!-- l2a_nfov_a_rec -->
<g id="node14" class="node">
<title>l2a_nfov_a_rec</title>
<polygon fill="none" stroke="black" points="728.86,-599 597.86,-599 597.86,-575 728.86,-575 740.86,-587 728.86,-599"/>
<text text-anchor="middle" x="669.36" y="-583.3" font-family="Times,serif" font-size="14.00">L2a_nfov_a recipe 1..1</text>
</g>
<!-- l2a_nfov_a_rec&#45;&gt;trans_nfov_a_l2a_l2b -->
<g id="edge12" class="edge">
<title>l2a_nfov_a_rec&#45;&gt;trans_nfov_a_l2a_l2b</title>
<path fill="none" stroke="black" d="M741.13,-586C809.55,-586 902.22,-586 902.22,-586 902.22,-586 902.22,-497.66 902.22,-497.66"/>
<polygon fill="black" stroke="black" points="905.72,-497.66 902.22,-487.66 898.72,-497.66 905.72,-497.66"/>
</g>
<!-- l2a_nfov_a_cti -->
<g id="node15" class="node">
<title>l2a_nfov_a_cti</title>
<polygon fill="none" stroke="black" points="777.36,-545 549.36,-545 549.36,-521 777.36,-521 789.36,-533 777.36,-545"/>
<text text-anchor="middle" x="669.36" y="-529.3" font-family="Times,serif" font-size="14.00">L2a_nfov_a charge xfer inefficiency 1..1</text>
</g>
<!-- l2a_nfov_a_cti&#45;&gt;trans_nfov_a_l2a_l2b -->
<g id="edge13" class="edge">
<title>l2a_nfov_a_cti&#45;&gt;trans_nfov_a_l2a_l2b</title>
<path fill="none" stroke="black" d="M780.22,-514.73C780.22,-499.95 780.22,-481.58 780.22,-481.58 780.22,-481.58 878.4,-481.58 878.4,-481.58"/>
<polygon fill="black" stroke="black" points="878.4,-485.08 888.4,-481.58 878.4,-478.08 878.4,-485.08"/>
</g>
<!-- l2a_nfov_a_dnb -->
<g id="node16" class="node">
<title>l2a_nfov_a_dnb</title>
<polygon fill="none" stroke="black" points="763.36,-491 563.36,-491 563.36,-465 763.36,-465 775.36,-478 763.36,-491"/>
<text text-anchor="middle" x="669.36" y="-481.8" font-family="Times,serif" font-size="14.00">L2a_nfov_a CIC/Dark Current/FPN</text>
<text text-anchor="middle" x="669.36" y="-466.8" font-family="Times,serif" font-size="14.00"> or master dark 1..1</text>
</g>
<!-- l2a_nfov_a_dnb&#45;&gt;trans_nfov_a_l2a_l2b -->
<g id="edge14" class="edge">
<title>l2a_nfov_a_dnb&#45;&gt;trans_nfov_a_l2a_l2b</title>
<path fill="none" stroke="black" d="M775.54,-470.29C775.54,-470.29 861.8,-470.29 861.8,-470.29"/>
<polygon fill="black" stroke="black" points="861.8,-473.79 871.8,-470.29 861.8,-466.79 861.8,-473.79"/>
</g>
<!-- l2a_nfov_a_mbpm -->
<g id="node17" class="node">
<title>l2a_nfov_a_mbpm</title>
<polygon fill="none" stroke="black" points="771.86,-435 554.86,-435 554.86,-411 771.86,-411 783.86,-423 771.86,-435"/>
<text text-anchor="middle" x="669.36" y="-419.3" font-family="Times,serif" font-size="14.00">L2a_nfov_a master bad pixel map 1..1</text>
</g>
<!-- l2a_nfov_a_mbpm&#45;&gt;trans_nfov_a_l2a_l2b -->
<g id="edge15" class="edge">
<title>l2a_nfov_a_mbpm&#45;&gt;trans_nfov_a_l2a_l2b</title>
<path fill="none" stroke="black" d="M783.97,-423C783.97,-423 830.89,-423 830.89,-423"/>
<polygon fill="black" stroke="black" points="830.89,-426.5 840.89,-423 830.89,-419.5 830.89,-426.5"/>
</g>
<!-- l2a_nfov_a_ff -->
<g id="node18" class="node">
<title>l2a_nfov_a_ff</title>
<polygon fill="none" stroke="black" points="738.36,-381 588.36,-381 588.36,-357 738.36,-357 750.36,-369 738.36,-381"/>
<text text-anchor="middle" x="669.36" y="-365.3" font-family="Times,serif" font-size="14.00">L2a_nfov_a flat fields 1..1</text>
</g>
<!-- l2a_nfov_a_ff&#45;&gt;trans_nfov_a_l2a_l2b -->
<g id="edge16" class="edge">
<title>l2a_nfov_a_ff&#45;&gt;trans_nfov_a_l2a_l2b</title>
<path fill="none" stroke="black" d="M750.61,-369C750.61,-369 831.02,-369 831.02,-369"/>
<polygon fill="black" stroke="black" points="831.02,-372.5 841.02,-369 831.02,-365.5 831.02,-372.5"/>
</g>
<!-- l2a_nfov_a_emg -->
<g id="node19" class="node">
<title>l2a_nfov_a_emg</title>
<polygon fill="none" stroke="black" points="736.36,-327 590.36,-327 590.36,-303 736.36,-303 748.36,-315 736.36,-327"/>
<text text-anchor="middle" x="669.36" y="-311.3" font-family="Times,serif" font-size="14.00">L2a_nfov_a EM gain 1..1</text>
</g>
<!-- l2a_nfov_a_emg&#45;&gt;trans_nfov_a_l2a_l2b -->
<g id="edge17" class="edge">
<title>l2a_nfov_a_emg&#45;&gt;trans_nfov_a_l2a_l2b</title>
<path fill="none" stroke="black" d="M748.46,-321.71C748.46,-321.71 861.86,-321.71 861.86,-321.71"/>
<polygon fill="black" stroke="black" points="861.86,-325.21 871.86,-321.71 861.86,-318.21 861.86,-325.21"/>
</g>
<!-- l2a_nfov_a_kgain -->
<g id="node20" class="node">
<title>l2a_nfov_a_kgain</title>
<polygon fill="none" stroke="black" points="725.86,-273 600.86,-273 600.86,-249 725.86,-249 737.86,-261 725.86,-273"/>
<text text-anchor="middle" x="669.36" y="-257.3" font-family="Times,serif" font-size="14.00">L2_nfov_a Kgain 1..1</text>
</g>
<!-- l2a_nfov_a_kgain&#45;&gt;trans_nfov_a_l2a_l2b -->
<g id="edge10" class="edge">
<title>l2a_nfov_a_kgain&#45;&gt;trans_nfov_a_l2a_l2b</title>
<path fill="none" stroke="black" d="M737.97,-261C806.65,-261 902.22,-261 902.22,-261 902.22,-261 902.22,-294.46 902.22,-294.46"/>
<polygon fill="black" stroke="black" points="898.72,-294.46 902.22,-304.46 905.72,-294.46 898.72,-294.46"/>
</g>
<!-- l2b_nfov_a_prod&#45;&gt;trans_nfov_a_l2b_l3 -->
<g id="edge22" class="edge">
<title>l2b_nfov_a_prod&#45;&gt;trans_nfov_a_l2b_l3</title>
<path fill="none" stroke="black" stroke-dasharray="5,2" d="M1199.22,-495.19C1199.22,-501.8 1199.22,-507.67 1199.22,-507.67 1199.22,-507.67 1395.41,-507.67 1395.41,-507.67"/>
<polygon fill="black" stroke="black" points="1395.41,-511.17 1405.41,-507.67 1395.41,-504.17 1395.41,-511.17"/>
</g>
<!-- l2b_nfov_a_man&#45;&gt;trans_nfov_a_l2b_l3 -->
<g id="edge23" class="edge">
<title>l2b_nfov_a_man&#45;&gt;trans_nfov_a_l2b_l3</title>
<path fill="none" stroke="black" d="M1310.22,-432.73C1310.22,-453.91 1310.22,-502.33 1310.22,-502.33 1310.22,-502.33 1403.08,-502.33 1403.08,-502.33"/>
<polygon fill="black" stroke="black" points="1403.08,-505.83 1413.08,-502.33 1403.08,-498.83 1403.08,-505.83"/>
</g>
<!-- l2b_nfov_a_odir -->
<g id="node24" class="node">
<title>l2b_nfov_a_odir</title>
<ellipse fill="none" stroke="black" cx="1198.99" cy="-747" rx="112.38" ry="18"/>
<text text-anchor="middle" x="1198.99" y="-743.3" font-family="Times,serif" font-size="14.00">L2b_nfov_a output path 1..1</text>
</g>
<!-- l2b_nfov_a_odir&#45;&gt;trans_nfov_a_l2b_l3 -->
<g id="edge24" class="edge">
<title>l2b_nfov_a_odir&#45;&gt;trans_nfov_a_l2b_l3</title>
<path fill="none" stroke="black" d="M1291.22,-736.57C1291.22,-715.46 1291.22,-669.67 1291.22,-669.67 1291.22,-669.67 1406.64,-669.67 1406.64,-669.67"/>
<polygon fill="black" stroke="black" points="1406.64,-673.17 1416.64,-669.67 1406.64,-666.17 1406.64,-673.17"/>
</g>
<!-- l2b_nfov_a_rec -->
<g id="node25" class="node">
<title>l2b_nfov_a_rec</title>
<polygon fill="none" stroke="black" points="1258.99,-705 1126.99,-705 1126.99,-681 1258.99,-681 1270.99,-693 1258.99,-705"/>
<text text-anchor="middle" x="1198.99" y="-689.3" font-family="Times,serif" font-size="14.00">L2b_nfov_a recipe 1..1</text>
</g>
<!-- l2b_nfov_a_rec&#45;&gt;trans_nfov_a_l2b_l3 -->
<g id="edge25" class="edge">
<title>l2b_nfov_a_rec&#45;&gt;trans_nfov_a_l2b_l3</title>
<path fill="none" stroke="black" d="M1199.22,-674.68C1199.22,-669.06 1199.22,-664.33 1199.22,-664.33 1199.22,-664.33 1398.01,-664.33 1398.01,-664.33"/>
<polygon fill="black" stroke="black" points="1398.01,-667.83 1408.01,-664.33 1398.01,-660.83 1398.01,-667.83"/>
</g>
<!-- l2b_nfov_a_excicrf -->
<g id="node26" class="node">
<title>l2b_nfov_a_excicrf</title>
<polygon fill="none" stroke="black" points="1307.99,-651 1077.99,-651 1077.99,-627 1307.99,-627 1319.99,-639 1307.99,-651"/>
<text text-anchor="middle" x="1198.99" y="-635.3" font-family="Times,serif" font-size="14.00">L2b_nfov_a EXCAM ICRF location 1..1</text>
</g>
<!-- l2b_nfov_a_excicrf&#45;&gt;trans_nfov_a_l2b_l3 -->
<g id="edge26" class="edge">
<title>l2b_nfov_a_excicrf&#45;&gt;trans_nfov_a_l2b_l3</title>
<path fill="none" stroke="black" d="M1320.15,-639C1320.15,-639 1373.23,-639 1373.23,-639"/>
<polygon fill="black" stroke="black" points="1373.23,-642.5 1383.23,-639 1373.23,-635.5 1373.23,-642.5"/>
</g>
<!-- l2b_nfov_a_excfovps -->
<g id="node27" class="node">
<title>l2b_nfov_a_excfovps</title>
<polygon fill="none" stroke="black" points="1312.99,-597 1072.99,-597 1072.99,-573 1312.99,-573 1324.99,-585 1312.99,-597"/>
<text text-anchor="middle" x="1198.99" y="-581.3" font-family="Times,serif" font-size="14.00">L2b_nfov_a EXCAM FOV pixel scale 1..1</text>
</g>
<!-- l2b_nfov_a_excfovps&#45;&gt;trans_nfov_a_l2b_l3 -->
<g id="edge27" class="edge">
<title>l2b_nfov_a_excfovps&#45;&gt;trans_nfov_a_l2b_l3</title>
<path fill="none" stroke="black" d="M1325.19,-585C1325.19,-585 1356.8,-585 1356.8,-585"/>
<polygon fill="black" stroke="black" points="1356.8,-588.5 1366.8,-585 1356.8,-581.5 1356.8,-588.5"/>
</g>
<!-- l2b_nfov_a_distm -->
<g id="node28" class="node">
<title>l2b_nfov_a_distm</title>
<polygon fill="none" stroke="black" points="1282.49,-543 1103.49,-543 1103.49,-519 1282.49,-519 1294.49,-531 1282.49,-543"/>
<text text-anchor="middle" x="1198.99" y="-527.3" font-family="Times,serif" font-size="14.00">L2b_nfov_a distortion map 1..1</text>
</g>
<!-- l2b_nfov_a_distm&#45;&gt;trans_nfov_a_l2b_l3 -->
<g id="edge28" class="edge">
<title>l2b_nfov_a_distm&#45;&gt;trans_nfov_a_l2b_l3</title>
<path fill="none" stroke="black" d="M1294.59,-531C1294.59,-531 1373.18,-531 1373.18,-531"/>
<polygon fill="black" stroke="black" points="1373.18,-534.5 1383.18,-531 1373.18,-527.5 1373.18,-534.5"/>
</g>
<!-- l3_nfov_a_prod&#45;&gt;trans_nfov_a_l3_l4 -->
<g id="edge32" class="edge">
<title>l3_nfov_a_prod&#45;&gt;trans_nfov_a_l3_l4</title>
<path fill="none" stroke="black" stroke-dasharray="5,2" d="M1800.53,-666C1800.53,-666 1895.06,-666 1895.06,-666"/>
<polygon fill="black" stroke="black" points="1895.06,-669.5 1905.06,-666 1895.06,-662.5 1895.06,-669.5"/>
</g>
<!-- l3_nfov_a_odir -->
<g id="node31" class="node">
<title>l3_nfov_a_odir</title>
<ellipse fill="none" stroke="black" cx="1724.71" cy="-828" rx="107.78" ry="18"/>
<text text-anchor="middle" x="1724.71" y="-824.3" font-family="Times,serif" font-size="14.00">L3_nfov_a output path 1..1</text>
</g>
<!-- l3_nfov_a_odir&#45;&gt;trans_nfov_a_l3_l4 -->
<g id="edge34" class="edge">
<title>l3_nfov_a_odir&#45;&gt;trans_nfov_a_l3_l4</title>
<path fill="none" stroke="black" d="M1819.22,-819.16C1819.22,-811.28 1819.22,-801 1819.22,-801 1819.22,-801 1922.06,-801 1922.06,-801"/>
<polygon fill="black" stroke="black" points="1922.06,-804.5 1932.06,-801 1922.06,-797.5 1922.06,-804.5"/>
</g>
<!-- l3_nfov_a_man&#45;&gt;trans_nfov_a_l3_l4 -->
<g id="edge33" class="edge">
<title>l3_nfov_a_man&#45;&gt;trans_nfov_a_l3_l4</title>
<path fill="none" stroke="black" d="M1843.22,-619.09C1843.22,-627.09 1843.22,-639 1843.22,-639 1843.22,-639 1922.19,-639 1922.19,-639"/>
<polygon fill="black" stroke="black" points="1922.19,-642.5 1932.19,-639 1922.19,-635.5 1922.19,-642.5"/>
</g>
<!-- l3_nfov_a_rec -->
<g id="node33" class="node">
<title>l3_nfov_a_rec</title>
<polygon fill="none" stroke="black" points="1781.21,-786 1656.21,-786 1656.21,-762 1781.21,-762 1793.21,-774 1781.21,-786"/>
<text text-anchor="middle" x="1724.71" y="-770.3" font-family="Times,serif" font-size="14.00">L3_nfov_a recipe 1..1</text>
</g>
<!-- l3_nfov_a_rec&#45;&gt;trans_nfov_a_l3_l4 -->
<g id="edge35" class="edge">
<title>l3_nfov_a_rec&#45;&gt;trans_nfov_a_l3_l4</title>
<path fill="none" stroke="black" d="M1793.26,-774C1793.26,-774 1895.03,-774 1895.03,-774"/>
<polygon fill="black" stroke="black" points="1895.03,-777.5 1905.03,-774 1895.03,-770.5 1895.03,-777.5"/>
</g>
<!-- l3_nfov_a_cal -->
<g id="node34" class="node">
<title>l3_nfov_a_cal</title>
<polygon fill="none" stroke="black" points="1793.71,-732 1643.71,-732 1643.71,-708 1793.71,-708 1805.71,-720 1793.71,-732"/>
<text text-anchor="middle" x="1724.71" y="-716.3" font-family="Times,serif" font-size="14.00">L3_nfov_a calibration 1..1</text>
</g>
<!-- l3_nfov_a_cal&#45;&gt;trans_nfov_a_l3_l4 -->
<g id="edge36" class="edge">
<title>l3_nfov_a_cal&#45;&gt;trans_nfov_a_l3_l4</title>
<path fill="none" stroke="black" d="M1805.83,-720C1805.83,-720 1878.51,-720 1878.51,-720"/>
<polygon fill="black" stroke="black" points="1878.51,-723.5 1888.51,-720 1878.51,-716.5 1878.51,-723.5"/>
</g>
<!-- l4_nfov_a_prod&#45;&gt;trans_nfov_a_l4_tda -->
<g id="edge40" class="edge">
<title>l4_nfov_a_prod&#45;&gt;trans_nfov_a_l4_tda</title>
<path fill="none" stroke="black" stroke-dasharray="5,2" d="M2247.22,-819.14C2247.22,-825.46 2247.22,-831 2247.22,-831 2247.22,-831 2440.74,-831 2440.74,-831"/>
<polygon fill="black" stroke="black" points="2440.74,-834.5 2450.74,-831 2440.74,-827.5 2440.74,-834.5"/>
</g>
<!-- l4_nfov_a_odir -->
<g id="node37" class="node">
<title>l4_nfov_a_odir</title>
<ellipse fill="none" stroke="black" cx="2247" cy="-1071" rx="107.78" ry="18"/>
<text text-anchor="middle" x="2247" y="-1067.3" font-family="Times,serif" font-size="14.00">L4_nfov_a output path 1..1</text>
</g>
<!-- l4_nfov_a_odir&#45;&gt;trans_nfov_a_l4_tda -->
<g id="edge42" class="edge">
<title>l4_nfov_a_odir&#45;&gt;trans_nfov_a_l4_tda</title>
<path fill="none" stroke="black" d="M2335.22,-1060.48C2335.22,-1039.19 2335.22,-993 2335.22,-993 2335.22,-993 2449.68,-993 2449.68,-993"/>
<polygon fill="black" stroke="black" points="2449.68,-996.5 2459.68,-993 2449.68,-989.5 2449.68,-996.5"/>
</g>
<!-- l4_nfov_a_man&#45;&gt;trans_nfov_a_l4_tda -->
<g id="edge41" class="edge">
<title>l4_nfov_a_man&#45;&gt;trans_nfov_a_l4_tda</title>
<path fill="none" stroke="black" d="M2351.22,-703.8C2351.22,-735.33 2351.22,-825 2351.22,-825 2351.22,-825 2449.94,-825 2449.94,-825"/>
<polygon fill="black" stroke="black" points="2449.94,-828.5 2459.94,-825 2449.94,-821.5 2449.94,-828.5"/>
</g>
<!-- l4_nfov_a_rec -->
<g id="node40" class="node">
<title>l4_nfov_a_rec</title>
<polygon fill="none" stroke="black" points="2303.5,-1029 2178.5,-1029 2178.5,-1005 2303.5,-1005 2315.5,-1017 2303.5,-1029"/>
<text text-anchor="middle" x="2247" y="-1013.3" font-family="Times,serif" font-size="14.00">L4_nfov_a recipe 1..1</text>
</g>
<!-- l4_nfov_a_rec&#45;&gt;trans_nfov_a_l4_tda -->
<g id="edge43" class="edge">
<title>l4_nfov_a_rec&#45;&gt;trans_nfov_a_l4_tda</title>
<path fill="none" stroke="black" d="M2247.22,-998.86C2247.22,-992.54 2247.22,-987 2247.22,-987 2247.22,-987 2440.74,-987 2440.74,-987"/>
<polygon fill="black" stroke="black" points="2440.74,-990.5 2450.74,-987 2440.74,-983.5 2440.74,-990.5"/>
</g>
<!-- l4_nfov_a_afcal -->
<g id="node41" class="node">
<title>l4_nfov_a_afcal</title>
<polygon fill="none" stroke="black" points="2356,-975 2126,-975 2126,-951 2356,-951 2368,-963 2356,-975"/>
<text text-anchor="middle" x="2247" y="-959.3" font-family="Times,serif" font-size="14.00">L4_nfov_a absolute flux calibrations 1..1</text>
</g>
<!-- l4_nfov_a_afcal&#45;&gt;trans_nfov_a_l4_tda -->
<g id="edge44" class="edge">
<title>l4_nfov_a_afcal&#45;&gt;trans_nfov_a_l4_tda</title>
<path fill="none" stroke="black" d="M2368.12,-963C2368.12,-963 2417.59,-963 2417.59,-963"/>
<polygon fill="black" stroke="black" points="2417.59,-966.5 2427.59,-963 2417.59,-959.5 2417.59,-966.5"/>
</g>
<!-- l4_nfov_a_ctcal -->
<g id="node42" class="node">
<title>l4_nfov_a_ctcal</title>
<polygon fill="none" stroke="black" points="2363.5,-921 2118.5,-921 2118.5,-897 2363.5,-897 2375.5,-909 2363.5,-921"/>
<text text-anchor="middle" x="2247" y="-905.3" font-family="Times,serif" font-size="14.00">L4_nfov_a core throughput calibrations 1..1</text>
</g>
<!-- l4_nfov_a_ctcal&#45;&gt;trans_nfov_a_l4_tda -->
<g id="edge45" class="edge">
<title>l4_nfov_a_ctcal&#45;&gt;trans_nfov_a_l4_tda</title>
<path fill="none" stroke="black" d="M2375.77,-909C2375.77,-909 2401.38,-909 2401.38,-909"/>
<polygon fill="black" stroke="black" points="2401.38,-912.5 2411.38,-909 2401.38,-905.5 2401.38,-912.5"/>
</g>
<!-- l4_nfov_a_ndfilt -->
<g id="node43" class="node">
<title>l4_nfov_a_ndfilt</title>
<polygon fill="none" stroke="black" points="2312,-867 2170,-867 2170,-843 2312,-843 2324,-855 2312,-867"/>
<text text-anchor="middle" x="2247" y="-851.3" font-family="Times,serif" font-size="14.00">L4_nfov_a ND filter 1..1</text>
</g>
<!-- l4_nfov_a_ndfilt&#45;&gt;trans_nfov_a_l4_tda -->
<g id="edge46" class="edge">
<title>l4_nfov_a_ndfilt&#45;&gt;trans_nfov_a_l4_tda</title>
<path fill="none" stroke="black" d="M2324,-855C2324,-855 2417.83,-855 2417.83,-855"/>
<polygon fill="black" stroke="black" points="2417.83,-858.5 2427.83,-855 2417.83,-851.5 2417.83,-858.5"/>
</g>
<!-- tda_nfov_a_man -->
<g id="node44" class="node">
<title>tda_nfov_a_man</title>
<ellipse fill="none" stroke="black" cx="135.84" cy="-288" rx="135.68" ry="18"/>
<text text-anchor="middle" x="135.84" y="-284.3" font-family="Times,serif" font-size="14.00">TDA_nfov_a product manifest 1..1</text>
</g>
</g>
</svg>
