<?xml version="1.0" encoding="UTF-8" standalone="no"?>
<!DOCTYPE svg PUBLIC "-//W3C//DTD SVG 1.1//EN"
 "http://www.w3.org/Graphics/SVG/1.1/DTD/svg11.dtd">
<!-- Generated by graphviz version 2.43.0 (0)
 -->
<!-- Title: NarrowFieldOfViewPhotonCount Pages: 1 -->
<svg width="3335pt" height="990pt"
 viewBox="0.00 0.00 3334.73 990.28" xmlns="http://www.w3.org/2000/svg" xmlns:xlink="http://www.w3.org/1999/xlink">
<g id="graph0" class="graph" transform="scale(1 1) rotate(0) translate(4 986.28)">
<title>NarrowFieldOfViewPhotonCount</title>
<polygon fill="white" stroke="transparent" points="-4,4 -4,-986.28 3330.73,-986.28 3330.73,4 -4,4"/>
<!-- trans_nfov_pc_l1_l2a -->
<g id="node1" class="node">
<title>trans_nfov_pc_l1_l2a</title>
<ellipse fill="none" stroke="black" cx="442.75" cy="-127.28" rx="127.06" ry="127.06"/>
<text text-anchor="middle" x="442.75" y="-131.08" font-family="Times,serif" font-size="14.00">nfov_pc Transmutation</text>
<text text-anchor="middle" x="442.75" y="-116.08" font-family="Times,serif" font-size="14.00">L1 to L2a</text>
</g>
<!-- l2a_nfov_pc_prod -->
<g id="node11" class="node">
<title>l2a_nfov_pc_prod</title>
<polygon fill="none" stroke="black" points="861.03,-199.28 658.03,-199.28 658.03,-163.28 861.03,-163.28 861.03,-199.28"/>
<text text-anchor="middle" x="759.53" y="-177.58" font-family="Times,serif" font-size="14.00">L2a_nfov_pc products 1..b</text>
</g>
<!-- trans_nfov_pc_l1_l2a&#45;&gt;l2a_nfov_pc_prod -->
<g id="edge6" class="edge">
<title>trans_nfov_pc_l1_l2a&#45;&gt;l2a_nfov_pc_prod</title>
<path fill="none" stroke="black" stroke-dasharray="5,2" d="M558.02,-181.28C558.02,-181.28 647.98,-181.28 647.98,-181.28"/>
<polygon fill="black" stroke="black" points="647.98,-184.78 657.98,-181.28 647.98,-177.78 647.98,-184.78"/>
</g>
<!-- l2a_nfov_pc_man -->
<g id="node12" class="node">
<title>l2a_nfov_pc_man</title>
<ellipse fill="none" stroke="black" cx="759.53" cy="-127.28" rx="131.08" ry="18"/>
<text text-anchor="middle" x="759.53" y="-123.58" font-family="Times,serif" font-size="14.00">L2a_nfov_pc manifest 1..1</text>
</g>
<!-- trans_nfov_pc_l1_l2a&#45;&gt;l2a_nfov_pc_man -->
<g id="edge7" class="edge">
<title>trans_nfov_pc_l1_l2a&#45;&gt;l2a_nfov_pc_man</title>
<path fill="none" stroke="black" d="M570.23,-127.28C570.23,-127.28 618.18,-127.28 618.18,-127.28"/>
<polygon fill="black" stroke="black" points="618.18,-130.78 628.18,-127.28 618.18,-123.78 618.18,-130.78"/>
</g>
<!-- l2a_nfov_pc_log -->
<g id="node21" class="node">
<title>l2a_nfov_pc_log</title>
<ellipse fill="none" stroke="black" cx="759.53" cy="-73.28" rx="104.78" ry="18"/>
<text text-anchor="middle" x="759.53" y="-69.58" font-family="Times,serif" font-size="14.00">L2a log_nfov_pc 1..1</text>
</g>
<!-- trans_nfov_pc_l1_l2a&#45;&gt;l2a_nfov_pc_log -->
<g id="edge8" class="edge">
<title>trans_nfov_pc_l1_l2a&#45;&gt;l2a_nfov_pc_log</title>
<path fill="none" stroke="black" stroke-dasharray="5,2" d="M558.02,-73.28C558.02,-73.28 644.87,-73.28 644.87,-73.28"/>
<polygon fill="black" stroke="black" points="644.87,-76.78 654.87,-73.28 644.87,-69.78 644.87,-76.78"/>
</g>
<!-- trans_nfov_pc_l2a_l2b -->
<g id="node2" class="node">
<title>trans_nfov_pc_l2a_l2b</title>
<ellipse fill="none" stroke="black" cx="1076.31" cy="-370.28" rx="127.06" ry="127.06"/>
<text text-anchor="middle" x="1076.31" y="-374.08" font-family="Times,serif" font-size="14.00">nfov_pc Transmutation</text>
<text text-anchor="middle" x="1076.31" y="-359.08" font-family="Times,serif" font-size="14.00">L2a to L2b</text>
</g>
<!-- l2b_nfov_pc_prod -->
<g id="node22" class="node">
<title>l2b_nfov_pc_prod</title>
<polygon fill="none" stroke="black" points="1496.09,-442.28 1293.09,-442.28 1293.09,-406.28 1496.09,-406.28 1496.09,-442.28"/>
<text text-anchor="middle" x="1394.59" y="-420.58" font-family="Times,serif" font-size="14.00">L2b_nfov_pc products 1..1</text>
</g>
<!-- trans_nfov_pc_l2a_l2b&#45;&gt;l2b_nfov_pc_prod -->
<g id="edge18" class="edge">
<title>trans_nfov_pc_l2a_l2b&#45;&gt;l2b_nfov_pc_prod</title>
<path fill="none" stroke="black" stroke-dasharray="5,2" d="M1191.67,-424.28C1191.67,-424.28 1283.06,-424.28 1283.06,-424.28"/>
<polygon fill="black" stroke="black" points="1283.06,-427.78 1293.06,-424.28 1283.06,-420.78 1283.06,-427.78"/>
</g>
<!-- l2b_nfov_pc_man -->
<g id="node23" class="node">
<title>l2b_nfov_pc_man</title>
<ellipse fill="none" stroke="black" cx="1394.59" cy="-370.28" rx="131.88" ry="18"/>
<text text-anchor="middle" x="1394.59" y="-366.58" font-family="Times,serif" font-size="14.00">L2b_nfov_pc manifest 1..1</text>
</g>
<!-- trans_nfov_pc_l2a_l2b&#45;&gt;l2b_nfov_pc_man -->
<g id="edge19" class="edge">
<title>trans_nfov_pc_l2a_l2b&#45;&gt;l2b_nfov_pc_man</title>
<path fill="none" stroke="black" d="M1203.94,-370.28C1203.94,-370.28 1252.52,-370.28 1252.52,-370.28"/>
<polygon fill="black" stroke="black" points="1252.52,-373.78 1262.52,-370.28 1252.52,-366.78 1252.52,-373.78"/>
</g>
<!-- l2b_nfov_pc_log -->
<g id="node29" class="node">
<title>l2b_nfov_pc_log</title>
<ellipse fill="none" stroke="black" cx="1394.59" cy="-316.28" rx="105.08" ry="18"/>
<text text-anchor="middle" x="1394.59" y="-312.58" font-family="Times,serif" font-size="14.00">L2b_nfov_pc log 1..1</text>
</g>
<!-- trans_nfov_pc_l2a_l2b&#45;&gt;l2b_nfov_pc_log -->
<g id="edge20" class="edge">
<title>trans_nfov_pc_l2a_l2b&#45;&gt;l2b_nfov_pc_log</title>
<path fill="none" stroke="black" stroke-dasharray="5,2" d="M1191.67,-316.28C1191.67,-316.28 1279.15,-316.28 1279.15,-316.28"/>
<polygon fill="black" stroke="black" points="1279.15,-319.78 1289.15,-316.28 1279.15,-312.78 1279.15,-319.78"/>
</g>
<!-- trans_nfov_pc_l2b_l3 -->
<g id="node3" class="node">
<title>trans_nfov_pc_l2b_l3</title>
<ellipse fill="none" stroke="black" cx="1712.87" cy="-532.28" rx="127.06" ry="127.06"/>
<text text-anchor="middle" x="1712.87" y="-536.08" font-family="Times,serif" font-size="14.00">nfov_pc Transmutation</text>
<text text-anchor="middle" x="1712.87" y="-521.08" font-family="Times,serif" font-size="14.00">L2b to L3</text>
</g>
<!-- l3_nfov_pc_prod -->
<g id="node30" class="node">
<title>l3_nfov_pc_prod</title>
<polygon fill="none" stroke="black" points="2112.89,-604.28 1918.89,-604.28 1918.89,-568.28 2112.89,-568.28 2112.89,-604.28"/>
<text text-anchor="middle" x="2015.89" y="-582.58" font-family="Times,serif" font-size="14.00">L3_nfov_pc products 1..1</text>
</g>
<!-- trans_nfov_pc_l2b_l3&#45;&gt;l3_nfov_pc_prod -->
<g id="edge29" class="edge">
<title>trans_nfov_pc_l2b_l3&#45;&gt;l3_nfov_pc_prod</title>
<path fill="none" stroke="black" stroke-dasharray="5,2" d="M1828.29,-586.28C1828.29,-586.28 1908.56,-586.28 1908.56,-586.28"/>
<polygon fill="black" stroke="black" points="1908.56,-589.78 1918.56,-586.28 1908.56,-582.78 1908.56,-589.78"/>
</g>
<!-- l3_nfov_pc_man -->
<g id="node32" class="node">
<title>l3_nfov_pc_man</title>
<ellipse fill="none" stroke="black" cx="2015.89" cy="-532.28" rx="126.18" ry="18"/>
<text text-anchor="middle" x="2015.89" y="-528.58" font-family="Times,serif" font-size="14.00">L3_nfov_pc manifest 1..1</text>
</g>
<!-- trans_nfov_pc_l2b_l3&#45;&gt;l3_nfov_pc_man -->
<g id="edge30" class="edge">
<title>trans_nfov_pc_l2b_l3&#45;&gt;l3_nfov_pc_man</title>
<path fill="none" stroke="black" d="M1840.5,-532.28C1840.5,-532.28 1879.38,-532.28 1879.38,-532.28"/>
<polygon fill="black" stroke="black" points="1879.38,-535.78 1889.38,-532.28 1879.38,-528.78 1879.38,-535.78"/>
</g>
<!-- l3_nfov_pc_log -->
<g id="node35" class="node">
<title>l3_nfov_pc_log</title>
<ellipse fill="none" stroke="black" cx="2015.89" cy="-478.28" rx="99.38" ry="18"/>
<text text-anchor="middle" x="2015.89" y="-474.58" font-family="Times,serif" font-size="14.00">L3_nfov_pc log 1..1</text>
</g>
<!-- trans_nfov_pc_l2b_l3&#45;&gt;l3_nfov_pc_log -->
<g id="edge31" class="edge">
<title>trans_nfov_pc_l2b_l3&#45;&gt;l3_nfov_pc_log</title>
<path fill="none" stroke="black" stroke-dasharray="5,2" d="M1828.29,-478.28C1828.29,-478.28 1906.13,-478.28 1906.13,-478.28"/>
<polygon fill="black" stroke="black" points="1906.13,-481.78 1916.13,-478.28 1906.13,-474.78 1906.13,-481.78"/>
</g>
<!-- trans_nfov_pc_l3_l4 -->
<g id="node4" class="node">
<title>trans_nfov_pc_l3_l4</title>
<ellipse fill="none" stroke="black" cx="2318.9" cy="-640.28" rx="127.06" ry="127.06"/>
<text text-anchor="middle" x="2318.9" y="-644.08" font-family="Times,serif" font-size="14.00">nfov_pc Transmutation</text>
<text text-anchor="middle" x="2318.9" y="-629.08" font-family="Times,serif" font-size="14.00">L3 to L4</text>
</g>
<!-- l4_nfov_pc_prod -->
<g id="node36" class="node">
<title>l4_nfov_pc_prod</title>
<polygon fill="none" stroke="black" points="2747.18,-712.28 2553.18,-712.28 2553.18,-676.28 2747.18,-676.28 2747.18,-712.28"/>
<text text-anchor="middle" x="2650.18" y="-690.58" font-family="Times,serif" font-size="14.00">L4_nfov_pc products 1..1</text>
</g>
<!-- trans_nfov_pc_l3_l4&#45;&gt;l4_nfov_pc_prod -->
<g id="edge37" class="edge">
<title>trans_nfov_pc_l3_l4&#45;&gt;l4_nfov_pc_prod</title>
<path fill="none" stroke="black" stroke-dasharray="5,2" d="M2434.31,-694.28C2434.31,-694.28 2543.05,-694.28 2543.05,-694.28"/>
<polygon fill="black" stroke="black" points="2543.05,-697.78 2553.05,-694.28 2543.05,-690.78 2543.05,-697.78"/>
</g>
<!-- l4_nfov_pc_log -->
<g id="node38" class="node">
<title>l4_nfov_pc_log</title>
<ellipse fill="none" stroke="black" cx="2650.18" cy="-640.28" rx="99.38" ry="18"/>
<text text-anchor="middle" x="2650.18" y="-636.58" font-family="Times,serif" font-size="14.00">L4_nfov_pc log 1..1</text>
</g>
<!-- trans_nfov_pc_l3_l4&#45;&gt;l4_nfov_pc_log -->
<g id="edge38" class="edge">
<title>trans_nfov_pc_l3_l4&#45;&gt;l4_nfov_pc_log</title>
<path fill="none" stroke="black" stroke-dasharray="5,2" d="M2446.51,-640.28C2446.51,-640.28 2540.67,-640.28 2540.67,-640.28"/>
<polygon fill="black" stroke="black" points="2540.67,-643.78 2550.67,-640.28 2540.67,-636.78 2540.67,-643.78"/>
</g>
<!-- l4_nfov_pc_man -->
<g id="node39" class="node">
<title>l4_nfov_pc_man</title>
<ellipse fill="none" stroke="black" cx="2650.18" cy="-586.28" rx="126.18" ry="18"/>
<text text-anchor="middle" x="2650.18" y="-582.58" font-family="Times,serif" font-size="14.00">L4_nfov_pc manifest 1..1</text>
</g>
<!-- trans_nfov_pc_l3_l4&#45;&gt;l4_nfov_pc_man -->
<g id="edge39" class="edge">
<title>trans_nfov_pc_l3_l4&#45;&gt;l4_nfov_pc_man</title>
<path fill="none" stroke="black" d="M2434.31,-586.28C2434.31,-586.28 2513.9,-586.28 2513.9,-586.28"/>
<polygon fill="black" stroke="black" points="2513.9,-589.78 2523.9,-586.28 2513.9,-582.78 2513.9,-589.78"/>
</g>
<!-- trans_nfov_pc_l4_tda -->
<g id="node5" class="node">
<title>trans_nfov_pc_l4_tda</title>
<ellipse fill="none" stroke="black" cx="2981.46" cy="-802.28" rx="127.06" ry="127.06"/>
<text text-anchor="middle" x="2981.46" y="-806.08" font-family="Times,serif" font-size="14.00">nfov_pc Transmutation</text>
<text text-anchor="middle" x="2981.46" y="-791.08" font-family="Times,serif" font-size="14.00">L4 to TDA</text>
</g>
<!-- tda_nfov_pc_prod -->
<g id="node45" class="node">
<title>tda_nfov_pc_prod</title>
<ellipse fill="none" stroke="black" cx="3235.73" cy="-829.28" rx="90.98" ry="18"/>
<text text-anchor="middle" x="3235.73" y="-825.58" font-family="Times,serif" font-size="14.00">tda_nfov_pc_prod</text>
</g>
<!-- trans_nfov_pc_l4_tda&#45;&gt;tda_nfov_pc_prod -->
<g id="edge47" class="edge">
<title>trans_nfov_pc_l4_tda&#45;&gt;tda_nfov_pc_prod</title>
<path fill="none" stroke="black" stroke-dasharray="5,2" d="M3105.99,-829.28C3105.99,-829.28 3134.44,-829.28 3134.44,-829.28"/>
<polygon fill="black" stroke="black" points="3134.44,-832.78 3144.44,-829.28 3134.44,-825.78 3134.44,-832.78"/>
</g>
<!-- tda_nfov_pc_log -->
<g id="node46" class="node">
<title>tda_nfov_pc_log</title>
<ellipse fill="none" stroke="black" cx="3235.73" cy="-775.28" rx="83.69" ry="18"/>
<text text-anchor="middle" x="3235.73" y="-771.58" font-family="Times,serif" font-size="14.00">tda_nfov_pc_log</text>
</g>
<!-- trans_nfov_pc_l4_tda&#45;&gt;tda_nfov_pc_log -->
<g id="edge48" class="edge">
<title>trans_nfov_pc_l4_tda&#45;&gt;tda_nfov_pc_log</title>
<path fill="none" stroke="black" stroke-dasharray="5,2" d="M3105.99,-775.28C3105.99,-775.28 3141.66,-775.28 3141.66,-775.28"/>
<polygon fill="black" stroke="black" points="3141.66,-778.78 3151.66,-775.28 3141.66,-771.78 3141.66,-778.78"/>
</g>
<!-- l1_nfov_pc_prod -->
<g id="node6" class="node">
<title>l1_nfov_pc_prod</title>
<polygon fill="none" stroke="black" points="236.74,-253.28 42.74,-253.28 42.74,-217.28 236.74,-217.28 236.74,-253.28"/>
<text text-anchor="middle" x="139.74" y="-231.58" font-family="Times,serif" font-size="14.00">L1_nfov_pc products 1..b</text>
</g>
<!-- l1_nfov_pc_prod&#45;&gt;trans_nfov_pc_l1_l2a -->
<g id="edge1" class="edge">
<title>l1_nfov_pc_prod&#45;&gt;trans_nfov_pc_l1_l2a</title>
<path fill="none" stroke="black" stroke-dasharray="5,2" d="M236.86,-235.28C236.86,-235.28 365.4,-235.28 365.4,-235.28"/>
<polygon fill="black" stroke="black" points="365.4,-238.78 375.4,-235.28 365.4,-231.78 365.4,-238.78"/>
</g>
<!-- l1_nfov_pc_man -->
<g id="node7" class="node">
<title>l1_nfov_pc_man</title>
<ellipse fill="none" stroke="black" cx="139.74" cy="-181.28" rx="126.18" ry="18"/>
<text text-anchor="middle" x="139.74" y="-177.58" font-family="Times,serif" font-size="14.00">L1_nfov_pc manifest 1..1</text>
</g>
<!-- l1_nfov_pc_man&#45;&gt;trans_nfov_pc_l1_l2a -->
<g id="edge2" class="edge">
<title>l1_nfov_pc_man&#45;&gt;trans_nfov_pc_l1_l2a</title>
<path fill="none" stroke="black" d="M266.05,-181.28C266.05,-181.28 317.3,-181.28 317.3,-181.28"/>
<polygon fill="black" stroke="black" points="317.3,-184.78 327.3,-181.28 317.3,-177.78 317.3,-184.78"/>
</g>
<!-- l1_nfov_pc_odir -->
<g id="node8" class="node">
<title>l1_nfov_pc_odir</title>
<ellipse fill="none" stroke="black" cx="139.74" cy="-127.28" rx="139.98" ry="18"/>
<text text-anchor="middle" x="139.74" y="-123.58" font-family="Times,serif" font-size="14.00">L1_nfov_pc output path 1..1</text>
</g>
<!-- l1_nfov_pc_odir&#45;&gt;trans_nfov_pc_l1_l2a -->
<g id="edge3" class="edge">
<title>l1_nfov_pc_odir&#45;&gt;trans_nfov_pc_l1_l2a</title>
<path fill="none" stroke="black" d="M279.72,-127.28C279.72,-127.28 305.06,-127.28 305.06,-127.28"/>
<polygon fill="black" stroke="black" points="305.06,-130.78 315.06,-127.28 305.06,-123.78 305.06,-130.78"/>
</g>
<!-- l1_nfov_pc_rec -->
<g id="node9" class="node">
<title>l1_nfov_pc_rec</title>
<polygon fill="none" stroke="black" points="215.74,-85.28 51.74,-85.28 51.74,-61.28 215.74,-61.28 227.74,-73.28 215.74,-85.28"/>
<text text-anchor="middle" x="139.74" y="-69.58" font-family="Times,serif" font-size="14.00">L1_nfov_pc recipe 1..1</text>
</g>
<!-- l1_nfov_pc_rec&#45;&gt;trans_nfov_pc_l1_l2a -->
<g id="edge4" class="edge">
<title>l1_nfov_pc_rec&#45;&gt;trans_nfov_pc_l1_l2a</title>
<path fill="none" stroke="black" d="M227.79,-73.28C227.79,-73.28 317.38,-73.28 317.38,-73.28"/>
<polygon fill="black" stroke="black" points="317.38,-76.78 327.38,-73.28 317.38,-69.78 317.38,-76.78"/>
</g>
<!-- l1_nfov_pc_nllut -->
<g id="node10" class="node">
<title>l1_nfov_pc_nllut</title>
<polygon fill="none" stroke="black" points="246.24,-31.28 21.24,-31.28 21.24,-7.28 246.24,-7.28 258.24,-19.28 246.24,-31.28"/>
<text text-anchor="middle" x="139.74" y="-15.58" font-family="Times,serif" font-size="14.00">L1_nfov_pc non&#45;linear LUT 1..1</text>
</g>
<!-- l1_nfov_pc_nllut&#45;&gt;trans_nfov_pc_l1_l2a -->
<g id="edge5" class="edge">
<title>l1_nfov_pc_nllut&#45;&gt;trans_nfov_pc_l1_l2a</title>
<path fill="none" stroke="black" d="M258.63,-19.28C258.63,-19.28 365.33,-19.28 365.33,-19.28"/>
<polygon fill="black" stroke="black" points="365.33,-22.78 375.33,-19.28 365.33,-15.78 365.33,-22.78"/>
</g>
<!-- l2a_nfov_pc_prod&#45;&gt;trans_nfov_pc_l2a_l2b -->
<g id="edge9" class="edge">
<title>l2a_nfov_pc_prod&#45;&gt;trans_nfov_pc_l2a_l2b</title>
<path fill="none" stroke="black" stroke-dasharray="5,2" d="M853.73,-199.55C853.73,-219.35 853.73,-248.14 853.73,-248.14 853.73,-248.14 1030.06,-248.14 1030.06,-248.14"/>
<polygon fill="black" stroke="black" points="1030.06,-251.64 1040.06,-248.14 1030.06,-244.64 1030.06,-251.64"/>
</g>
<!-- l2a_nfov_pc_man&#45;&gt;trans_nfov_pc_l2a_l2b -->
<g id="edge21" class="edge">
<title>l2a_nfov_pc_man&#45;&gt;trans_nfov_pc_l2a_l2b</title>
<path fill="none" stroke="black" d="M876.73,-135.41C876.73,-162.14 876.73,-245.57 876.73,-245.57 876.73,-245.57 1040.63,-245.57 1040.63,-245.57"/>
<polygon fill="black" stroke="black" points="1040.63,-249.07 1050.63,-245.57 1040.63,-242.07 1040.63,-249.07"/>
</g>
<!-- l2a_nfov_pc_odir -->
<g id="node13" class="node">
<title>l2a_nfov_pc_odir</title>
<ellipse fill="none" stroke="black" cx="759.53" cy="-615.28" rx="145.67" ry="18"/>
<text text-anchor="middle" x="759.53" y="-611.58" font-family="Times,serif" font-size="14.00">L2a_nfov_pc output path 1..1</text>
</g>
<!-- l2a_nfov_pc_odir&#45;&gt;trans_nfov_pc_l2a_l2b -->
<g id="edge11" class="edge">
<title>l2a_nfov_pc_odir&#45;&gt;trans_nfov_pc_l2a_l2b</title>
<path fill="none" stroke="black" d="M845.81,-600.78C952.37,-600.78 1119.73,-600.78 1119.73,-600.78 1119.73,-600.78 1119.73,-500.26 1119.73,-500.26"/>
<polygon fill="black" stroke="black" points="1123.23,-500.26 1119.73,-490.26 1116.23,-500.26 1123.23,-500.26"/>
</g>
<!-- l2a_nfov_pc_rec -->
<g id="node14" class="node">
<title>l2a_nfov_pc_rec</title>
<polygon fill="none" stroke="black" points="839.53,-573.28 667.53,-573.28 667.53,-549.28 839.53,-549.28 851.53,-561.28 839.53,-573.28"/>
<text text-anchor="middle" x="759.53" y="-557.58" font-family="Times,serif" font-size="14.00">L2a_nfov_pc recipe 1..1</text>
</g>
<!-- l2a_nfov_pc_rec&#45;&gt;trans_nfov_pc_l2a_l2b -->
<g id="edge12" class="edge">
<title>l2a_nfov_pc_rec&#45;&gt;trans_nfov_pc_l2a_l2b</title>
<path fill="none" stroke="black" d="M851.55,-546.78C931.55,-546.78 1034.73,-546.78 1034.73,-546.78 1034.73,-546.78 1034.73,-500.93 1034.73,-500.93"/>
<polygon fill="black" stroke="black" points="1038.23,-500.93 1034.73,-490.93 1031.23,-500.93 1038.23,-500.93"/>
</g>
<!-- l2a_nfov_pc_cti -->
<g id="node15" class="node">
<title>l2a_nfov_pc_cti</title>
<polygon fill="none" stroke="black" points="901.03,-519.28 606.03,-519.28 606.03,-495.28 901.03,-495.28 913.03,-507.28 901.03,-519.28"/>
<text text-anchor="middle" x="759.53" y="-503.58" font-family="Times,serif" font-size="14.00">L2a_nfov_pc charge xfer inefficiency 1..1</text>
</g>
<!-- l2a_nfov_pc_cti&#45;&gt;trans_nfov_pc_l2a_l2b -->
<g id="edge13" class="edge">
<title>l2a_nfov_pc_cti&#45;&gt;trans_nfov_pc_l2a_l2b</title>
<path fill="none" stroke="black" d="M913.28,-493.42C913.28,-493.42 1033.93,-493.42 1033.93,-493.42"/>
<polygon fill="black" stroke="black" points="1033.93,-496.92 1043.93,-493.42 1033.93,-489.92 1033.93,-496.92"/>
</g>
<!-- l2a_nfov_pc_dnb -->
<g id="node16" class="node">
<title>l2a_nfov_pc_dnb</title>
<polygon fill="none" stroke="black" points="882.53,-465.28 624.53,-465.28 624.53,-439.28 882.53,-439.28 894.53,-452.28 882.53,-465.28"/>
<text text-anchor="middle" x="759.53" y="-456.08" font-family="Times,serif" font-size="14.00">L2a_nfov_pc CIC/Dark Current/FPN</text>
<text text-anchor="middle" x="759.53" y="-441.08" font-family="Times,serif" font-size="14.00"> or master dark 1..1</text>
</g>
<!-- l2a_nfov_pc_dnb&#45;&gt;trans_nfov_pc_l2a_l2b -->
<g id="edge14" class="edge">
<title>l2a_nfov_pc_dnb&#45;&gt;trans_nfov_pc_l2a_l2b</title>
<path fill="none" stroke="black" d="M894.8,-452.28C894.8,-452.28 968.86,-452.28 968.86,-452.28"/>
<polygon fill="black" stroke="black" points="968.86,-455.78 978.86,-452.28 968.86,-448.78 968.86,-455.78"/>
</g>
<!-- l2a_nfov_pc_mbpm -->
<g id="node17" class="node">
<title>l2a_nfov_pc_mbpm</title>
<polygon fill="none" stroke="black" points="895.03,-409.28 612.03,-409.28 612.03,-385.28 895.03,-385.28 907.03,-397.28 895.03,-409.28"/>
<text text-anchor="middle" x="759.53" y="-393.58" font-family="Times,serif" font-size="14.00">L2a_nfov_pc master bad pixel map 1..1</text>
</g>
<!-- l2a_nfov_pc_mbpm&#45;&gt;trans_nfov_pc_l2a_l2b -->
<g id="edge15" class="edge">
<title>l2a_nfov_pc_mbpm&#45;&gt;trans_nfov_pc_l2a_l2b</title>
<path fill="none" stroke="black" d="M907.26,-397.28C907.26,-397.28 941.63,-397.28 941.63,-397.28"/>
<polygon fill="black" stroke="black" points="941.63,-400.78 951.63,-397.28 941.63,-393.78 941.63,-400.78"/>
</g>
<!-- l2a_nfov_pc_ff -->
<g id="node18" class="node">
<title>l2a_nfov_pc_ff</title>
<polygon fill="none" stroke="black" points="850.53,-355.28 656.53,-355.28 656.53,-331.28 850.53,-331.28 862.53,-343.28 850.53,-355.28"/>
<text text-anchor="middle" x="759.53" y="-339.58" font-family="Times,serif" font-size="14.00">L2a_nfov_pc flat fields 1..1</text>
</g>
<!-- l2a_nfov_pc_ff&#45;&gt;trans_nfov_pc_l2a_l2b -->
<g id="edge16" class="edge">
<title>l2a_nfov_pc_ff&#45;&gt;trans_nfov_pc_l2a_l2b</title>
<path fill="none" stroke="black" d="M862.82,-343.28C862.82,-343.28 941.9,-343.28 941.9,-343.28"/>
<polygon fill="black" stroke="black" points="941.9,-346.78 951.9,-343.28 941.9,-339.78 941.9,-346.78"/>
</g>
<!-- l2a_nfov_pc_emg -->
<g id="node19" class="node">
<title>l2a_nfov_pc_emg</title>
<polygon fill="none" stroke="black" points="847.53,-301.28 659.53,-301.28 659.53,-277.28 847.53,-277.28 859.53,-289.28 847.53,-301.28"/>
<text text-anchor="middle" x="759.53" y="-285.58" font-family="Times,serif" font-size="14.00">L2a_nfov_pc EM gain 1..1</text>
</g>
<!-- l2a_nfov_pc_emg&#45;&gt;trans_nfov_pc_l2a_l2b -->
<g id="edge17" class="edge">
<title>l2a_nfov_pc_emg&#45;&gt;trans_nfov_pc_l2a_l2b</title>
<path fill="none" stroke="black" d="M859.76,-289.28C859.76,-289.28 968.09,-289.28 968.09,-289.28"/>
<polygon fill="black" stroke="black" points="968.09,-292.78 978.09,-289.28 968.09,-285.78 968.09,-292.78"/>
</g>
<!-- l2a_nfov_pc_kgain -->
<g id="node20" class="node">
<title>l2a_nfov_pc_kgain</title>
<polygon fill="none" stroke="black" points="834.03,-247.28 673.03,-247.28 673.03,-223.28 834.03,-223.28 846.03,-235.28 834.03,-247.28"/>
<text text-anchor="middle" x="759.53" y="-231.58" font-family="Times,serif" font-size="14.00">L2_nfov_pc Kgain 1..1</text>
</g>
<!-- l2a_nfov_pc_kgain&#45;&gt;trans_nfov_pc_l2a_l2b -->
<g id="edge10" class="edge">
<title>l2a_nfov_pc_kgain&#45;&gt;trans_nfov_pc_l2a_l2b</title>
<path fill="none" stroke="black" d="M846.09,-250.71C846.09,-250.71 1022.64,-250.71 1022.64,-250.71"/>
<polygon fill="black" stroke="black" points="1022.64,-254.21 1032.64,-250.71 1022.64,-247.21 1022.64,-254.21"/>
</g>
<!-- l2b_nfov_pc_prod&#45;&gt;trans_nfov_pc_l2b_l3 -->
<g id="edge22" class="edge">
<title>l2b_nfov_pc_prod&#45;&gt;trans_nfov_pc_l2b_l3</title>
<path fill="none" stroke="black" stroke-dasharray="5,2" d="M1496.17,-430.28C1496.17,-430.28 1626.69,-430.28 1626.69,-430.28"/>
<polygon fill="black" stroke="black" points="1626.69,-433.78 1636.69,-430.28 1626.69,-426.78 1626.69,-433.78"/>
</g>
<!-- l2b_nfov_pc_man&#45;&gt;trans_nfov_pc_l2b_l3 -->
<g id="edge23" class="edge">
<title>l2b_nfov_pc_man&#45;&gt;trans_nfov_pc_l2b_l3</title>
<path fill="none" stroke="black" d="M1522.73,-374.71C1522.73,-386.59 1522.73,-418.28 1522.73,-418.28 1522.73,-418.28 1646.08,-418.28 1646.08,-418.28"/>
<polygon fill="black" stroke="black" points="1646.08,-421.78 1656.08,-418.28 1646.08,-414.78 1646.08,-421.78"/>
</g>
<!-- l2b_nfov_pc_odir -->
<g id="node24" class="node">
<title>l2b_nfov_pc_odir</title>
<ellipse fill="none" stroke="black" cx="1394.59" cy="-694.28" rx="145.67" ry="18"/>
<text text-anchor="middle" x="1394.59" y="-690.58" font-family="Times,serif" font-size="14.00">L2b_nfov_pc output path 1..1</text>
</g>
<!-- l2b_nfov_pc_odir&#45;&gt;trans_nfov_pc_l2b_l3 -->
<g id="edge24" class="edge">
<title>l2b_nfov_pc_odir&#45;&gt;trans_nfov_pc_l2b_l3</title>
<path fill="none" stroke="black" d="M1513.73,-683.63C1513.73,-669.49 1513.73,-646.28 1513.73,-646.28 1513.73,-646.28 1646.07,-646.28 1646.07,-646.28"/>
<polygon fill="black" stroke="black" points="1646.07,-649.78 1656.07,-646.28 1646.07,-642.78 1646.07,-649.78"/>
</g>
<!-- l2b_nfov_pc_rec -->
<g id="node25" class="node">
<title>l2b_nfov_pc_rec</title>
<polygon fill="none" stroke="black" points="1475.09,-652.28 1302.09,-652.28 1302.09,-628.28 1475.09,-628.28 1487.09,-640.28 1475.09,-652.28"/>
<text text-anchor="middle" x="1394.59" y="-636.58" font-family="Times,serif" font-size="14.00">L2b_nfov_pc recipe 1..1</text>
</g>
<!-- l2b_nfov_pc_rec&#45;&gt;trans_nfov_pc_l2b_l3 -->
<g id="edge25" class="edge">
<title>l2b_nfov_pc_rec&#45;&gt;trans_nfov_pc_l2b_l3</title>
<path fill="none" stroke="black" d="M1487.51,-634.28C1487.51,-634.28 1626.72,-634.28 1626.72,-634.28"/>
<polygon fill="black" stroke="black" points="1626.72,-637.78 1636.72,-634.28 1626.72,-630.78 1626.72,-637.78"/>
</g>
<!-- l2b_nfov_pc_excicrf -->
<g id="node26" class="node">
<title>l2b_nfov_pc_excicrf</title>
<polygon fill="none" stroke="black" points="1530.59,-598.28 1246.59,-598.28 1246.59,-574.28 1530.59,-574.28 1542.59,-586.28 1530.59,-598.28"/>
<text text-anchor="middle" x="1394.59" y="-582.58" font-family="Times,serif" font-size="14.00">L2b_nfov_pc EXCAM ICRF location 1..1</text>
</g>
<!-- l2b_nfov_pc_excicrf&#45;&gt;trans_nfov_pc_l2b_l3 -->
<g id="edge26" class="edge">
<title>l2b_nfov_pc_excicrf&#45;&gt;trans_nfov_pc_l2b_l3</title>
<path fill="none" stroke="black" d="M1543.02,-586.28C1543.02,-586.28 1587.55,-586.28 1587.55,-586.28"/>
<polygon fill="black" stroke="black" points="1587.55,-589.78 1597.55,-586.28 1587.55,-582.78 1587.55,-589.78"/>
</g>
<!-- l2b_nfov_pc_excfovps -->
<g id="node27" class="node">
<title>l2b_nfov_pc_excfovps</title>
<polygon fill="none" stroke="black" points="1537.59,-544.28 1239.59,-544.28 1239.59,-520.28 1537.59,-520.28 1549.59,-532.28 1537.59,-544.28"/>
<text text-anchor="middle" x="1394.59" y="-528.58" font-family="Times,serif" font-size="14.00">L2b_nfov_pc EXCAM FOV pixel scale 1..1</text>
</g>
<!-- l2b_nfov_pc_excfovps&#45;&gt;trans_nfov_pc_l2b_l3 -->
<g id="edge27" class="edge">
<title>l2b_nfov_pc_excfovps&#45;&gt;trans_nfov_pc_l2b_l3</title>
<path fill="none" stroke="black" d="M1550,-532.28C1550,-532.28 1575.33,-532.28 1575.33,-532.28"/>
<polygon fill="black" stroke="black" points="1575.33,-535.78 1585.33,-532.28 1575.33,-528.78 1575.33,-535.78"/>
</g>
<!-- l2b_nfov_pc_distm -->
<g id="node28" class="node">
<title>l2b_nfov_pc_distm</title>
<polygon fill="none" stroke="black" points="1505.09,-490.28 1272.09,-490.28 1272.09,-466.28 1505.09,-466.28 1517.09,-478.28 1505.09,-490.28"/>
<text text-anchor="middle" x="1394.59" y="-474.58" font-family="Times,serif" font-size="14.00">L2b_nfov_pc distortion map 1..1</text>
</g>
<!-- l2b_nfov_pc_distm&#45;&gt;trans_nfov_pc_l2b_l3 -->
<g id="edge28" class="edge">
<title>l2b_nfov_pc_distm&#45;&gt;trans_nfov_pc_l2b_l3</title>
<path fill="none" stroke="black" d="M1517.19,-478.28C1517.19,-478.28 1587.39,-478.28 1587.39,-478.28"/>
<polygon fill="black" stroke="black" points="1587.39,-481.78 1597.39,-478.28 1587.39,-474.78 1587.39,-481.78"/>
</g>
<!-- l3_nfov_pc_prod&#45;&gt;trans_nfov_pc_l3_l4 -->
<g id="edge32" class="edge">
<title>l3_nfov_pc_prod&#45;&gt;trans_nfov_pc_l3_l4</title>
<path fill="none" stroke="black" stroke-dasharray="5,2" d="M2113.01,-586.28C2113.01,-586.28 2193.55,-586.28 2193.55,-586.28"/>
<polygon fill="black" stroke="black" points="2193.55,-589.78 2203.55,-586.28 2193.55,-582.78 2193.55,-589.78"/>
</g>
<!-- l3_nfov_pc_odir -->
<g id="node31" class="node">
<title>l3_nfov_pc_odir</title>
<ellipse fill="none" stroke="black" cx="2015.89" cy="-748.28" rx="139.98" ry="18"/>
<text text-anchor="middle" x="2015.89" y="-744.58" font-family="Times,serif" font-size="14.00">L3_nfov_pc output path 1..1</text>
</g>
<!-- l3_nfov_pc_odir&#45;&gt;trans_nfov_pc_l3_l4 -->
<g id="edge34" class="edge">
<title>l3_nfov_pc_odir&#45;&gt;trans_nfov_pc_l3_l4</title>
<path fill="none" stroke="black" d="M2155.87,-748.28C2155.87,-748.28 2241.23,-748.28 2241.23,-748.28"/>
<polygon fill="black" stroke="black" points="2241.23,-751.78 2251.23,-748.28 2241.23,-744.78 2241.23,-751.78"/>
</g>
<!-- l3_nfov_pc_man&#45;&gt;trans_nfov_pc_l3_l4 -->
<g id="edge33" class="edge">
<title>l3_nfov_pc_man&#45;&gt;trans_nfov_pc_l3_l4</title>
<path fill="none" stroke="black" d="M2142.2,-532.28C2142.2,-532.28 2241.55,-532.28 2241.55,-532.28"/>
<polygon fill="black" stroke="black" points="2241.55,-535.78 2251.55,-532.28 2241.55,-528.78 2241.55,-535.78"/>
</g>
<!-- l3_nfov_pc_rec -->
<g id="node33" class="node">
<title>l3_nfov_pc_rec</title>
<polygon fill="none" stroke="black" points="2091.89,-706.28 1927.89,-706.28 1927.89,-682.28 2091.89,-682.28 2103.89,-694.28 2091.89,-706.28"/>
<text text-anchor="middle" x="2015.89" y="-690.58" font-family="Times,serif" font-size="14.00">L3_nfov_pc recipe 1..1</text>
</g>
<!-- l3_nfov_pc_rec&#45;&gt;trans_nfov_pc_l3_l4 -->
<g id="edge35" class="edge">
<title>l3_nfov_pc_rec&#45;&gt;trans_nfov_pc_l3_l4</title>
<path fill="none" stroke="black" d="M2103.94,-694.28C2103.94,-694.28 2193.53,-694.28 2193.53,-694.28"/>
<polygon fill="black" stroke="black" points="2193.53,-697.78 2203.53,-694.28 2193.53,-690.78 2193.53,-697.78"/>
</g>
<!-- l3_nfov_pc_cal -->
<g id="node34" class="node">
<title>l3_nfov_pc_cal</title>
<polygon fill="none" stroke="black" points="2107.89,-652.28 1911.89,-652.28 1911.89,-628.28 2107.89,-628.28 2119.89,-640.28 2107.89,-652.28"/>
<text text-anchor="middle" x="2015.89" y="-636.58" font-family="Times,serif" font-size="14.00">L3_nfov_pc calibration 1..1</text>
</g>
<!-- l3_nfov_pc_cal&#45;&gt;trans_nfov_pc_l3_l4 -->
<g id="edge36" class="edge">
<title>l3_nfov_pc_cal&#45;&gt;trans_nfov_pc_l3_l4</title>
<path fill="none" stroke="black" d="M2120.17,-640.28C2120.17,-640.28 2181.39,-640.28 2181.39,-640.28"/>
<polygon fill="black" stroke="black" points="2181.39,-643.78 2191.39,-640.28 2181.39,-636.78 2181.39,-643.78"/>
</g>
<!-- l4_nfov_pc_prod&#45;&gt;trans_nfov_pc_l4_tda -->
<g id="edge40" class="edge">
<title>l4_nfov_pc_prod&#45;&gt;trans_nfov_pc_l4_tda</title>
<path fill="none" stroke="black" stroke-dasharray="5,2" d="M2747.34,-700.28C2747.34,-700.28 2895.1,-700.28 2895.1,-700.28"/>
<polygon fill="black" stroke="black" points="2895.1,-703.78 2905.1,-700.28 2895.1,-696.78 2895.1,-703.78"/>
</g>
<!-- l4_nfov_pc_odir -->
<g id="node37" class="node">
<title>l4_nfov_pc_odir</title>
<ellipse fill="none" stroke="black" cx="2650.18" cy="-964.28" rx="139.98" ry="18"/>
<text text-anchor="middle" x="2650.18" y="-960.58" font-family="Times,serif" font-size="14.00">L4_nfov_pc output path 1..1</text>
</g>
<!-- l4_nfov_pc_odir&#45;&gt;trans_nfov_pc_l4_tda -->
<g id="edge42" class="edge">
<title>l4_nfov_pc_odir&#45;&gt;trans_nfov_pc_l4_tda</title>
<path fill="none" stroke="black" d="M2764.73,-953.63C2764.73,-939.49 2764.73,-916.28 2764.73,-916.28 2764.73,-916.28 2914.8,-916.28 2914.8,-916.28"/>
<polygon fill="black" stroke="black" points="2914.8,-919.78 2924.8,-916.28 2914.8,-912.78 2914.8,-919.78"/>
</g>
<!-- l4_nfov_pc_man&#45;&gt;trans_nfov_pc_l4_tda -->
<g id="edge41" class="edge">
<title>l4_nfov_pc_man&#45;&gt;trans_nfov_pc_l4_tda</title>
<path fill="none" stroke="black" d="M2763.73,-594.28C2763.73,-618.33 2763.73,-688.28 2763.73,-688.28 2763.73,-688.28 2914.82,-688.28 2914.82,-688.28"/>
<polygon fill="black" stroke="black" points="2914.82,-691.78 2924.82,-688.28 2914.82,-684.78 2914.82,-691.78"/>
</g>
<!-- l4_nfov_pc_rec -->
<g id="node40" class="node">
<title>l4_nfov_pc_rec</title>
<polygon fill="none" stroke="black" points="2726.18,-922.28 2562.18,-922.28 2562.18,-898.28 2726.18,-898.28 2738.18,-910.28 2726.18,-922.28"/>
<text text-anchor="middle" x="2650.18" y="-906.58" font-family="Times,serif" font-size="14.00">L4_nfov_pc recipe 1..1</text>
</g>
<!-- l4_nfov_pc_rec&#45;&gt;trans_nfov_pc_l4_tda -->
<g id="edge43" class="edge">
<title>l4_nfov_pc_rec&#45;&gt;trans_nfov_pc_l4_tda</title>
<path fill="none" stroke="black" d="M2738.53,-904.28C2738.53,-904.28 2895.18,-904.28 2895.18,-904.28"/>
<polygon fill="black" stroke="black" points="2895.18,-907.78 2905.18,-904.28 2895.18,-900.78 2895.18,-907.78"/>
</g>
<!-- l4_nfov_pc_afcal -->
<g id="node41" class="node">
<title>l4_nfov_pc_afcal</title>
<polygon fill="none" stroke="black" points="2793.68,-868.28 2494.68,-868.28 2494.68,-844.28 2793.68,-844.28 2805.68,-856.28 2793.68,-868.28"/>
<text text-anchor="middle" x="2650.18" y="-852.58" font-family="Times,serif" font-size="14.00">L4_nfov_pc absolute flux calibrations 1..1</text>
</g>
<!-- l4_nfov_pc_afcal&#45;&gt;trans_nfov_pc_l4_tda -->
<g id="edge44" class="edge">
<title>l4_nfov_pc_afcal&#45;&gt;trans_nfov_pc_l4_tda</title>
<path fill="none" stroke="black" d="M2806.12,-856.28C2806.12,-856.28 2855.92,-856.28 2855.92,-856.28"/>
<polygon fill="black" stroke="black" points="2855.92,-859.78 2865.92,-856.28 2855.92,-852.78 2855.92,-859.78"/>
</g>
<!-- l4_nfov_pc_ctcal -->
<g id="node42" class="node">
<title>l4_nfov_pc_ctcal</title>
<polygon fill="none" stroke="black" points="2806.18,-814.28 2482.18,-814.28 2482.18,-790.28 2806.18,-790.28 2818.18,-802.28 2806.18,-814.28"/>
<text text-anchor="middle" x="2650.18" y="-798.58" font-family="Times,serif" font-size="14.00">L4_nfov_pc core throughput calibrations 1..1</text>
</g>
<!-- l4_nfov_pc_ctcal&#45;&gt;trans_nfov_pc_l4_tda -->
<g id="edge45" class="edge">
<title>l4_nfov_pc_ctcal&#45;&gt;trans_nfov_pc_l4_tda</title>
<path fill="none" stroke="black" d="M2818.25,-802.28C2818.25,-802.28 2843.98,-802.28 2843.98,-802.28"/>
<polygon fill="black" stroke="black" points="2843.98,-805.78 2853.98,-802.28 2843.98,-798.78 2843.98,-805.78"/>
</g>
<!-- l4_nfov_pc_ndfilt -->
<g id="node43" class="node">
<title>l4_nfov_pc_ndfilt</title>
<polygon fill="none" stroke="black" points="2735.18,-760.28 2553.18,-760.28 2553.18,-736.28 2735.18,-736.28 2747.18,-748.28 2735.18,-760.28"/>
<text text-anchor="middle" x="2650.18" y="-744.58" font-family="Times,serif" font-size="14.00">L4_nfov_pc ND filter 1..1</text>
</g>
<!-- l4_nfov_pc_ndfilt&#45;&gt;trans_nfov_pc_l4_tda -->
<g id="edge46" class="edge">
<title>l4_nfov_pc_ndfilt&#45;&gt;trans_nfov_pc_l4_tda</title>
<path fill="none" stroke="black" d="M2747.34,-748.28C2747.34,-748.28 2856.17,-748.28 2856.17,-748.28"/>
<polygon fill="black" stroke="black" points="2856.17,-751.78 2866.17,-748.28 2856.17,-744.78 2856.17,-751.78"/>
</g>
<!-- tda_nfov_pc_man -->
<g id="node44" class="node">
<title>tda_nfov_pc_man</title>
<ellipse fill="none" stroke="black" cx="139.74" cy="-289.28" rx="133.78" ry="18"/>
<text text-anchor="middle" x="139.74" y="-285.58" font-family="Times,serif" font-size="14.00">TDA_nfov_pc manifest 1..1</text>
</g>
</g>
</svg>
