<?xml version="1.0" encoding="UTF-8" standalone="no"?>
<!DOCTYPE svg PUBLIC "-//W3C//DTD SVG 1.1//EN"
 "http://www.w3.org/Graphics/SVG/1.1/DTD/svg11.dtd">
<!-- Generated by graphviz version 2.43.0 (0)
 -->
<!-- Title: NarrowFieldOfViewAnalog Pages: 1 -->
<svg width="3544pt" height="1097pt"
 viewBox="0.00 0.00 3543.58 1097.00" xmlns="http://www.w3.org/2000/svg" xmlns:xlink="http://www.w3.org/1999/xlink">
<g id="graph0" class="graph" transform="scale(1 1) rotate(0) translate(4 1093)">
<title>NarrowFieldOfViewAnalog</title>
<polygon fill="white" stroke="transparent" points="-4,4 -4,-1093 3539.58,-1093 3539.58,4 -4,4"/>
<!-- trans_nfov_a_l1_l2a -->
<g id="node1" class="node">
<title>trans_nfov_a_l1_l2a</title>
<ellipse fill="none" stroke="black" cx="491.69" cy="-126" rx="121.74" ry="121.74"/>
<text text-anchor="middle" x="491.69" y="-129.8" font-family="Times,serif" font-size="14.00">nfov_a Transmutation</text>
<text text-anchor="middle" x="491.69" y="-114.8" font-family="Times,serif" font-size="14.00">L1 to L2a</text>
</g>
<!-- l2a_nfov_a_prod -->
<g id="node11" class="node">
<title>l2a_nfov_a_prod</title>
<polygon fill="none" stroke="black" points="911.4,-225 717.4,-225 717.4,-189 911.4,-189 911.4,-225"/>
<text text-anchor="middle" x="814.4" y="-203.3" font-family="Times,serif" font-size="14.00">L2a_nfov_a products 1..b</text>
</g>
<!-- trans_nfov_a_l1_l2a&#45;&gt;l2a_nfov_a_prod -->
<g id="edge6" class="edge">
<title>trans_nfov_a_l1_l2a&#45;&gt;l2a_nfov_a_prod</title>
<path fill="none" stroke="black" stroke-dasharray="5,2" d="M582.44,-207C582.44,-207 707.28,-207 707.28,-207"/>
<polygon fill="black" stroke="black" points="707.28,-210.5 717.28,-207 707.28,-203.5 707.28,-210.5"/>
</g>
<!-- l2a_nfov_a_man -->
<g id="node12" class="node">
<title>l2a_nfov_a_man</title>
<ellipse fill="none" stroke="black" cx="814.4" cy="-153" rx="165.17" ry="18"/>
<text text-anchor="middle" x="814.4" y="-149.3" font-family="Times,serif" font-size="14.00">L2a_nfov_a product manifest 1..1</text>
</g>
<!-- trans_nfov_a_l1_l2a&#45;&gt;l2a_nfov_a_man -->
<g id="edge7" class="edge">
<title>trans_nfov_a_l1_l2a&#45;&gt;l2a_nfov_a_man</title>
<path fill="none" stroke="black" d="M610.48,-153C610.48,-153 639.28,-153 639.28,-153"/>
<polygon fill="black" stroke="black" points="639.28,-156.5 649.28,-153 639.28,-149.5 639.28,-156.5"/>
</g>
<!-- l2a_nfov_a_log -->
<g id="node21" class="node">
<title>l2a_nfov_a_log</title>
<ellipse fill="none" stroke="black" cx="814.4" cy="-99" rx="99.38" ry="18"/>
<text text-anchor="middle" x="814.4" y="-95.3" font-family="Times,serif" font-size="14.00">L2a log_nfov_a 1..1</text>
</g>
<!-- trans_nfov_a_l1_l2a&#45;&gt;l2a_nfov_a_log -->
<g id="edge8" class="edge">
<title>trans_nfov_a_l1_l2a&#45;&gt;l2a_nfov_a_log</title>
<path fill="none" stroke="black" stroke-dasharray="5,2" d="M610.48,-99C610.48,-99 704.92,-99 704.92,-99"/>
<polygon fill="black" stroke="black" points="704.92,-102.5 714.92,-99 704.92,-95.5 704.92,-102.5"/>
</g>
<!-- l2a_nfov_a_src -->
<g id="node47" class="node">
<title>l2a_nfov_a_src</title>
<ellipse fill="none" stroke="black" cx="814.4" cy="-45" rx="159.47" ry="18"/>
<text text-anchor="middle" x="814.4" y="-41.3" font-family="Times,serif" font-size="14.00">L2a_nfov_a source manifest 1..1</text>
</g>
<!-- trans_nfov_a_l1_l2a&#45;&gt;l2a_nfov_a_src -->
<g id="edge49" class="edge">
<title>trans_nfov_a_l1_l2a&#45;&gt;l2a_nfov_a_src</title>
<path fill="none" stroke="black" d="M582.44,-45C582.44,-45 644.96,-45 644.96,-45"/>
<polygon fill="black" stroke="black" points="644.96,-48.5 654.96,-45 644.96,-41.5 644.96,-48.5"/>
</g>
<!-- trans_nfov_a_l2a_l2b -->
<g id="node2" class="node">
<title>trans_nfov_a_l2a_l2b</title>
<ellipse fill="none" stroke="black" cx="1137.11" cy="-396" rx="121.74" ry="121.74"/>
<text text-anchor="middle" x="1137.11" y="-399.8" font-family="Times,serif" font-size="14.00">nfov_a Transmutation</text>
<text text-anchor="middle" x="1137.11" y="-384.8" font-family="Times,serif" font-size="14.00">L2a to L2b</text>
</g>
<!-- l2b_nfov_a_prod -->
<g id="node22" class="node">
<title>l2b_nfov_a_prod</title>
<polygon fill="none" stroke="black" points="1557.32,-495 1362.32,-495 1362.32,-459 1557.32,-459 1557.32,-495"/>
<text text-anchor="middle" x="1459.82" y="-473.3" font-family="Times,serif" font-size="14.00">L2b_nfov_a products 1..1</text>
</g>
<!-- trans_nfov_a_l2a_l2b&#45;&gt;l2b_nfov_a_prod -->
<g id="edge18" class="edge">
<title>trans_nfov_a_l2a_l2b&#45;&gt;l2b_nfov_a_prod</title>
<path fill="none" stroke="black" stroke-dasharray="5,2" d="M1227.86,-477C1227.86,-477 1352.13,-477 1352.13,-477"/>
<polygon fill="black" stroke="black" points="1352.13,-480.5 1362.13,-477 1352.13,-473.5 1352.13,-480.5"/>
</g>
<!-- l2b_nfov_a_man -->
<g id="node23" class="node">
<title>l2b_nfov_a_man</title>
<ellipse fill="none" stroke="black" cx="1459.82" cy="-423" rx="165.17" ry="18"/>
<text text-anchor="middle" x="1459.82" y="-419.3" font-family="Times,serif" font-size="14.00">L2b_nfov_a product manifest 1..1</text>
</g>
<!-- trans_nfov_a_l2a_l2b&#45;&gt;l2b_nfov_a_man -->
<g id="edge19" class="edge">
<title>trans_nfov_a_l2a_l2b&#45;&gt;l2b_nfov_a_man</title>
<path fill="none" stroke="black" d="M1255.9,-423C1255.9,-423 1284.69,-423 1284.69,-423"/>
<polygon fill="black" stroke="black" points="1284.69,-426.5 1294.69,-423 1284.69,-419.5 1284.69,-426.5"/>
</g>
<!-- l2b_nfov_a_log -->
<g id="node29" class="node">
<title>l2b_nfov_a_log</title>
<ellipse fill="none" stroke="black" cx="1459.82" cy="-369" rx="100.18" ry="18"/>
<text text-anchor="middle" x="1459.82" y="-365.3" font-family="Times,serif" font-size="14.00">L2b_nfov_a log 1..1</text>
</g>
<!-- trans_nfov_a_l2a_l2b&#45;&gt;l2b_nfov_a_log -->
<g id="edge20" class="edge">
<title>trans_nfov_a_l2a_l2b&#45;&gt;l2b_nfov_a_log</title>
<path fill="none" stroke="black" stroke-dasharray="5,2" d="M1255.9,-369C1255.9,-369 1349.56,-369 1349.56,-369"/>
<polygon fill="black" stroke="black" points="1349.56,-372.5 1359.56,-369 1349.56,-365.5 1349.56,-372.5"/>
</g>
<!-- l2b_nfov_a_src -->
<g id="node48" class="node">
<title>l2b_nfov_a_src</title>
<ellipse fill="none" stroke="black" cx="1459.82" cy="-315" rx="159.77" ry="18"/>
<text text-anchor="middle" x="1459.82" y="-311.3" font-family="Times,serif" font-size="14.00">L2b_nfov_a source manifest 1..1</text>
</g>
<!-- trans_nfov_a_l2a_l2b&#45;&gt;l2b_nfov_a_src -->
<g id="edge50" class="edge">
<title>trans_nfov_a_l2a_l2b&#45;&gt;l2b_nfov_a_src</title>
<path fill="none" stroke="black" d="M1227.86,-315C1227.86,-315 1289.76,-315 1289.76,-315"/>
<polygon fill="black" stroke="black" points="1289.76,-318.5 1299.76,-315 1289.76,-311.5 1289.76,-318.5"/>
</g>
<!-- trans_nfov_a_l2b_l3 -->
<g id="node3" class="node">
<title>trans_nfov_a_l2b_l3</title>
<ellipse fill="none" stroke="black" cx="1782.52" cy="-585" rx="121.74" ry="121.74"/>
<text text-anchor="middle" x="1782.52" y="-588.8" font-family="Times,serif" font-size="14.00">nfov_a Transmutation</text>
<text text-anchor="middle" x="1782.52" y="-573.8" font-family="Times,serif" font-size="14.00">L2b to L3</text>
</g>
<!-- l3_nfov_a_prod -->
<g id="node30" class="node">
<title>l3_nfov_a_prod</title>
<polygon fill="none" stroke="black" points="2192.38,-684 2006.38,-684 2006.38,-648 2192.38,-648 2192.38,-684"/>
<text text-anchor="middle" x="2099.38" y="-662.3" font-family="Times,serif" font-size="14.00">L3_nfov_a products 1..1</text>
</g>
<!-- trans_nfov_a_l2b_l3&#45;&gt;l3_nfov_a_prod -->
<g id="edge29" class="edge">
<title>trans_nfov_a_l2b_l3&#45;&gt;l3_nfov_a_prod</title>
<path fill="none" stroke="black" stroke-dasharray="5,2" d="M1873.32,-666C1873.32,-666 1996.37,-666 1996.37,-666"/>
<polygon fill="black" stroke="black" points="1996.37,-669.5 2006.37,-666 1996.37,-662.5 1996.37,-669.5"/>
</g>
<!-- l3_nfov_a_man -->
<g id="node32" class="node">
<title>l3_nfov_a_man</title>
<ellipse fill="none" stroke="black" cx="2099.38" cy="-612" rx="159.47" ry="18"/>
<text text-anchor="middle" x="2099.38" y="-608.3" font-family="Times,serif" font-size="14.00">L3_nfov_a product manifest 1..1</text>
</g>
<!-- trans_nfov_a_l2b_l3&#45;&gt;l3_nfov_a_man -->
<g id="edge30" class="edge">
<title>trans_nfov_a_l2b_l3&#45;&gt;l3_nfov_a_man</title>
<path fill="none" stroke="black" d="M1901.41,-612C1901.41,-612 1930.07,-612 1930.07,-612"/>
<polygon fill="black" stroke="black" points="1930.07,-615.5 1940.07,-612 1930.07,-608.5 1930.07,-615.5"/>
</g>
<!-- l3_nfov_a_log -->
<g id="node35" class="node">
<title>l3_nfov_a_log</title>
<ellipse fill="none" stroke="black" cx="2099.38" cy="-558" rx="94.48" ry="18"/>
<text text-anchor="middle" x="2099.38" y="-554.3" font-family="Times,serif" font-size="14.00">L3_nfov_a log 1..1</text>
</g>
<!-- trans_nfov_a_l2b_l3&#45;&gt;l3_nfov_a_log -->
<g id="edge31" class="edge">
<title>trans_nfov_a_l2b_l3&#45;&gt;l3_nfov_a_log</title>
<path fill="none" stroke="black" stroke-dasharray="5,2" d="M1901.41,-558C1901.41,-558 1995.07,-558 1995.07,-558"/>
<polygon fill="black" stroke="black" points="1995.07,-561.5 2005.07,-558 1995.07,-554.5 1995.07,-561.5"/>
</g>
<!-- l3_nfov_a_src -->
<g id="node49" class="node">
<title>l3_nfov_a_src</title>
<ellipse fill="none" stroke="black" cx="2099.38" cy="-504" rx="154.07" ry="18"/>
<text text-anchor="middle" x="2099.38" y="-500.3" font-family="Times,serif" font-size="14.00">L3_nfov_a source manifest 1..1</text>
</g>
<!-- trans_nfov_a_l2b_l3&#45;&gt;l3_nfov_a_src -->
<g id="edge51" class="edge">
<title>trans_nfov_a_l2b_l3&#45;&gt;l3_nfov_a_src</title>
<path fill="none" stroke="black" d="M1873.32,-504C1873.32,-504 1935.15,-504 1935.15,-504"/>
<polygon fill="black" stroke="black" points="1935.15,-507.5 1945.15,-504 1935.15,-500.5 1935.15,-507.5"/>
</g>
<!-- trans_nfov_a_l3_l4 -->
<g id="node4" class="node">
<title>trans_nfov_a_l3_l4</title>
<ellipse fill="none" stroke="black" cx="2416.24" cy="-720" rx="121.74" ry="121.74"/>
<text text-anchor="middle" x="2416.24" y="-723.8" font-family="Times,serif" font-size="14.00">nfov_a Transmutation</text>
<text text-anchor="middle" x="2416.24" y="-708.8" font-family="Times,serif" font-size="14.00">L3 to L4</text>
</g>
<!-- l4_nfov_a_prod -->
<g id="node36" class="node">
<title>l4_nfov_a_prod</title>
<polygon fill="none" stroke="black" points="2830.86,-819 2644.86,-819 2644.86,-783 2830.86,-783 2830.86,-819"/>
<text text-anchor="middle" x="2737.86" y="-797.3" font-family="Times,serif" font-size="14.00">L4_nfov_a products 1..1</text>
</g>
<!-- trans_nfov_a_l3_l4&#45;&gt;l4_nfov_a_prod -->
<g id="edge37" class="edge">
<title>trans_nfov_a_l3_l4&#45;&gt;l4_nfov_a_prod</title>
<path fill="none" stroke="black" stroke-dasharray="5,2" d="M2507.11,-801C2507.11,-801 2634.7,-801 2634.7,-801"/>
<polygon fill="black" stroke="black" points="2634.7,-804.5 2644.7,-801 2634.7,-797.5 2634.7,-804.5"/>
</g>
<!-- l4_nfov_a_log -->
<g id="node38" class="node">
<title>l4_nfov_a_log</title>
<ellipse fill="none" stroke="black" cx="2737.86" cy="-747" rx="94.48" ry="18"/>
<text text-anchor="middle" x="2737.86" y="-743.3" font-family="Times,serif" font-size="14.00">L4_nfov_a log 1..1</text>
</g>
<!-- trans_nfov_a_l3_l4&#45;&gt;l4_nfov_a_log -->
<g id="edge38" class="edge">
<title>trans_nfov_a_l3_l4&#45;&gt;l4_nfov_a_log</title>
<path fill="none" stroke="black" stroke-dasharray="5,2" d="M2535.09,-747C2535.09,-747 2633.61,-747 2633.61,-747"/>
<polygon fill="black" stroke="black" points="2633.61,-750.5 2643.61,-747 2633.61,-743.5 2633.61,-750.5"/>
</g>
<!-- l4_nfov_a_man -->
<g id="node39" class="node">
<title>l4_nfov_a_man</title>
<ellipse fill="none" stroke="black" cx="2737.86" cy="-693" rx="159.47" ry="18"/>
<text text-anchor="middle" x="2737.86" y="-689.3" font-family="Times,serif" font-size="14.00">L4_nfov_a product manifest 1..1</text>
</g>
<!-- trans_nfov_a_l3_l4&#45;&gt;l4_nfov_a_man -->
<g id="edge39" class="edge">
<title>trans_nfov_a_l3_l4&#45;&gt;l4_nfov_a_man</title>
<path fill="none" stroke="black" d="M2535.09,-693C2535.09,-693 2568.41,-693 2568.41,-693"/>
<polygon fill="black" stroke="black" points="2568.41,-696.5 2578.41,-693 2568.41,-689.5 2568.41,-696.5"/>
</g>
<!-- l4_nfov_a_src -->
<g id="node50" class="node">
<title>l4_nfov_a_src</title>
<ellipse fill="none" stroke="black" cx="2737.86" cy="-639" rx="151.37" ry="18"/>
<text text-anchor="middle" x="2737.86" y="-635.3" font-family="Times,serif" font-size="14.00">L4_nfov_a sourcemanifest 1..1</text>
</g>
<!-- trans_nfov_a_l3_l4&#45;&gt;l4_nfov_a_src -->
<g id="edge52" class="edge">
<title>trans_nfov_a_l3_l4&#45;&gt;l4_nfov_a_src</title>
<path fill="none" stroke="black" d="M2507.11,-639C2507.11,-639 2576.35,-639 2576.35,-639"/>
<polygon fill="black" stroke="black" points="2576.35,-642.5 2586.35,-639 2576.35,-635.5 2576.35,-642.5"/>
</g>
<!-- trans_nfov_a_l4_tda -->
<g id="node5" class="node">
<title>trans_nfov_a_l4_tda</title>
<ellipse fill="none" stroke="black" cx="3059.48" cy="-909" rx="121.74" ry="121.74"/>
<text text-anchor="middle" x="3059.48" y="-912.8" font-family="Times,serif" font-size="14.00">nfov_a Transmutation</text>
<text text-anchor="middle" x="3059.48" y="-897.8" font-family="Times,serif" font-size="14.00">L4 to TDA</text>
</g>
<!-- tda_nfov_a_prod -->
<g id="node45" class="node">
<title>tda_nfov_a_prod</title>
<ellipse fill="none" stroke="black" cx="3376.34" cy="-963" rx="85.59" ry="18"/>
<text text-anchor="middle" x="3376.34" y="-959.3" font-family="Times,serif" font-size="14.00">tda_nfov_a_prod</text>
</g>
<!-- trans_nfov_a_l4_tda&#45;&gt;tda_nfov_a_prod -->
<g id="edge47" class="edge">
<title>trans_nfov_a_l4_tda&#45;&gt;tda_nfov_a_prod</title>
<path fill="none" stroke="black" stroke-dasharray="5,2" d="M3168.53,-963C3168.53,-963 3280.36,-963 3280.36,-963"/>
<polygon fill="black" stroke="black" points="3280.36,-966.5 3290.36,-963 3280.36,-959.5 3280.36,-966.5"/>
</g>
<!-- tda_nfov_a_log -->
<g id="node46" class="node">
<title>tda_nfov_a_log</title>
<ellipse fill="none" stroke="black" cx="3376.34" cy="-909" rx="78.79" ry="18"/>
<text text-anchor="middle" x="3376.34" y="-905.3" font-family="Times,serif" font-size="14.00">tda_nfov_a_log</text>
</g>
<!-- trans_nfov_a_l4_tda&#45;&gt;tda_nfov_a_log -->
<g id="edge48" class="edge">
<title>trans_nfov_a_l4_tda&#45;&gt;tda_nfov_a_log</title>
<path fill="none" stroke="black" stroke-dasharray="5,2" d="M3181.54,-909C3181.54,-909 3287.37,-909 3287.37,-909"/>
<polygon fill="black" stroke="black" points="3287.37,-912.5 3297.37,-909 3287.37,-905.5 3287.37,-912.5"/>
</g>
<!-- tda_nfov_a_src -->
<g id="node51" class="node">
<title>tda_nfov_a_src</title>
<ellipse fill="none" stroke="black" cx="3376.34" cy="-855" rx="159.47" ry="18"/>
<text text-anchor="middle" x="3376.34" y="-851.3" font-family="Times,serif" font-size="14.00">TDA_nfov_a sourcemanifest 1..1</text>
</g>
<!-- trans_nfov_a_l4_tda&#45;&gt;tda_nfov_a_src -->
<g id="edge53" class="edge">
<title>trans_nfov_a_l4_tda&#45;&gt;tda_nfov_a_src</title>
<path fill="none" stroke="black" d="M3168.53,-855C3168.53,-855 3206.97,-855 3206.97,-855"/>
<polygon fill="black" stroke="black" points="3206.97,-858.5 3216.97,-855 3206.97,-851.5 3206.97,-858.5"/>
</g>
<!-- l1_nfov_a_prod -->
<g id="node6" class="node">
<title>l1_nfov_a_prod</title>
<polygon fill="none" stroke="black" points="260.04,-252 74.04,-252 74.04,-216 260.04,-216 260.04,-252"/>
<text text-anchor="middle" x="167.04" y="-230.3" font-family="Times,serif" font-size="14.00">L1_nfov_a products 1..b</text>
</g>
<!-- l1_nfov_a_prod&#45;&gt;trans_nfov_a_l1_l2a -->
<g id="edge1" class="edge">
<title>l1_nfov_a_prod&#45;&gt;trans_nfov_a_l1_l2a</title>
<path fill="none" stroke="black" stroke-dasharray="5,2" d="M260.07,-231.81C260.07,-231.81 421.44,-231.81 421.44,-231.81"/>
<polygon fill="black" stroke="black" points="421.44,-235.31 431.44,-231.81 421.44,-228.31 421.44,-235.31"/>
</g>
<!-- l1_nfov_a_man -->
<g id="node7" class="node">
<title>l1_nfov_a_man</title>
<ellipse fill="none" stroke="black" cx="167.04" cy="-180" rx="159.47" ry="18"/>
<text text-anchor="middle" x="167.04" y="-176.3" font-family="Times,serif" font-size="14.00">L1_nfov_a product manifest 1..1</text>
</g>
<!-- l1_nfov_a_man&#45;&gt;trans_nfov_a_l1_l2a -->
<g id="edge2" class="edge">
<title>l1_nfov_a_man&#45;&gt;trans_nfov_a_l1_l2a</title>
<path fill="none" stroke="black" d="M326.51,-180C326.51,-180 372.4,-180 372.4,-180"/>
<polygon fill="black" stroke="black" points="372.4,-183.5 382.4,-180 372.4,-176.5 372.4,-183.5"/>
</g>
<!-- l1_nfov_a_odir -->
<g id="node8" class="node">
<title>l1_nfov_a_odir</title>
<ellipse fill="none" stroke="black" cx="167.04" cy="-126" rx="134.58" ry="18"/>
<text text-anchor="middle" x="167.04" y="-122.3" font-family="Times,serif" font-size="14.00">L1_nfov_a output path 1..1</text>
</g>
<!-- l1_nfov_a_odir&#45;&gt;trans_nfov_a_l1_l2a -->
<g id="edge3" class="edge">
<title>l1_nfov_a_odir&#45;&gt;trans_nfov_a_l1_l2a</title>
<path fill="none" stroke="black" d="M301.9,-126C301.9,-126 359.96,-126 359.96,-126"/>
<polygon fill="black" stroke="black" points="359.96,-129.5 369.96,-126 359.96,-122.5 359.96,-129.5"/>
</g>
<!-- l1_nfov_a_rec -->
<g id="node9" class="node">
<title>l1_nfov_a_rec</title>
<polygon fill="none" stroke="black" points="238.54,-84 83.54,-84 83.54,-60 238.54,-60 250.54,-72 238.54,-84"/>
<text text-anchor="middle" x="167.04" y="-68.3" font-family="Times,serif" font-size="14.00">L1_nfov_a recipe 1..1</text>
</g>
<!-- l1_nfov_a_rec&#45;&gt;trans_nfov_a_l1_l2a -->
<g id="edge4" class="edge">
<title>l1_nfov_a_rec&#45;&gt;trans_nfov_a_l1_l2a</title>
<path fill="none" stroke="black" d="M250.64,-72C250.64,-72 372.63,-72 372.63,-72"/>
<polygon fill="black" stroke="black" points="372.63,-75.5 382.63,-72 372.63,-68.5 372.63,-75.5"/>
</g>
<!-- l1_nfov_a_nllut -->
<g id="node10" class="node">
<title>l1_nfov_a_nllut</title>
<polygon fill="none" stroke="black" points="269.54,-30 52.54,-30 52.54,-6 269.54,-6 281.54,-18 269.54,-30"/>
<text text-anchor="middle" x="167.04" y="-14.3" font-family="Times,serif" font-size="14.00">L1_nfov_a non&#45;linear LUT 1..1</text>
</g>
<!-- l1_nfov_a_nllut&#45;&gt;trans_nfov_a_l1_l2a -->
<g id="edge5" class="edge">
<title>l1_nfov_a_nllut&#45;&gt;trans_nfov_a_l1_l2a</title>
<path fill="none" stroke="black" d="M281.95,-20.19C281.95,-20.19 421.63,-20.19 421.63,-20.19"/>
<polygon fill="black" stroke="black" points="421.63,-23.69 431.63,-20.19 421.63,-16.69 421.63,-23.69"/>
</g>
<!-- l2a_nfov_a_prod&#45;&gt;trans_nfov_a_l2a_l2b -->
<g id="edge9" class="edge">
<title>l2a_nfov_a_prod&#45;&gt;trans_nfov_a_l2a_l2b</title>
<path fill="none" stroke="black" stroke-dasharray="5,2" d="M903.58,-225.38C903.58,-249.28 903.58,-288 903.58,-288 903.58,-288 1071.17,-288 1071.17,-288"/>
<polygon fill="black" stroke="black" points="1071.17,-291.5 1081.17,-288 1071.17,-284.5 1071.17,-291.5"/>
</g>
<!-- l2a_nfov_a_man&#45;&gt;trans_nfov_a_l2a_l2b -->
<g id="edge21" class="edge">
<title>l2a_nfov_a_man&#45;&gt;trans_nfov_a_l2a_l2b</title>
<path fill="none" stroke="black" d="M972.58,-158.28C972.58,-182.69 972.58,-283.5 972.58,-283.5 972.58,-283.5 1080.84,-283.5 1080.84,-283.5"/>
<polygon fill="black" stroke="black" points="1080.84,-287 1090.84,-283.5 1080.84,-280 1080.84,-287"/>
</g>
<!-- l2a_nfov_a_odir -->
<g id="node13" class="node">
<title>l2a_nfov_a_odir</title>
<ellipse fill="none" stroke="black" cx="814.4" cy="-641" rx="139.98" ry="18"/>
<text text-anchor="middle" x="814.4" y="-637.3" font-family="Times,serif" font-size="14.00">L2a_nfov_a output path 1..1</text>
</g>
<!-- l2a_nfov_a_odir&#45;&gt;trans_nfov_a_l2a_l2b -->
<g id="edge11" class="edge">
<title>l2a_nfov_a_odir&#45;&gt;trans_nfov_a_l2a_l2b</title>
<path fill="none" stroke="black" d="M954.16,-640C1056.86,-640 1178.58,-640 1178.58,-640 1178.58,-640 1178.58,-520.5 1178.58,-520.5"/>
<polygon fill="black" stroke="black" points="1182.08,-520.5 1178.58,-510.5 1175.08,-520.5 1182.08,-520.5"/>
</g>
<!-- l2a_nfov_a_rec -->
<g id="node14" class="node">
<title>l2a_nfov_a_rec</title>
<polygon fill="none" stroke="black" points="890.4,-599 726.4,-599 726.4,-575 890.4,-575 902.4,-587 890.4,-599"/>
<text text-anchor="middle" x="814.4" y="-583.3" font-family="Times,serif" font-size="14.00">L2a_nfov_a recipe 1..1</text>
</g>
<!-- l2a_nfov_a_rec&#45;&gt;trans_nfov_a_l2a_l2b -->
<g id="edge12" class="edge">
<title>l2a_nfov_a_rec&#45;&gt;trans_nfov_a_l2a_l2b</title>
<path fill="none" stroke="black" d="M902.52,-586C985.32,-586 1096.58,-586 1096.58,-586 1096.58,-586 1096.58,-520.91 1096.58,-520.91"/>
<polygon fill="black" stroke="black" points="1100.08,-520.91 1096.58,-510.91 1093.08,-520.91 1100.08,-520.91"/>
</g>
<!-- l2a_nfov_a_cti -->
<g id="node15" class="node">
<title>l2a_nfov_a_cti</title>
<polygon fill="none" stroke="black" points="951.9,-545 664.9,-545 664.9,-521 951.9,-521 963.9,-533 951.9,-545"/>
<text text-anchor="middle" x="814.4" y="-529.3" font-family="Times,serif" font-size="14.00">L2a_nfov_a charge xfer inefficiency 1..1</text>
</g>
<!-- l2a_nfov_a_cti&#45;&gt;trans_nfov_a_l2a_l2b -->
<g id="edge13" class="edge">
<title>l2a_nfov_a_cti&#45;&gt;trans_nfov_a_l2a_l2b</title>
<path fill="none" stroke="black" d="M952.58,-514.84C952.58,-509.96 952.58,-506 952.58,-506 952.58,-506 1075.22,-506 1075.22,-506"/>
<polygon fill="black" stroke="black" points="1075.22,-509.5 1085.22,-506 1075.22,-502.5 1075.22,-509.5"/>
</g>
<!-- l2a_nfov_a_dnb -->
<g id="node16" class="node">
<title>l2a_nfov_a_dnb</title>
<polygon fill="none" stroke="black" points="933.4,-491 683.4,-491 683.4,-465 933.4,-465 945.4,-478 933.4,-491"/>
<text text-anchor="middle" x="814.4" y="-481.8" font-family="Times,serif" font-size="14.00">L2a_nfov_a CIC/Dark Current/FPN</text>
<text text-anchor="middle" x="814.4" y="-466.8" font-family="Times,serif" font-size="14.00"> or master dark 1..1</text>
</g>
<!-- l2a_nfov_a_dnb&#45;&gt;trans_nfov_a_l2a_l2b -->
<g id="edge14" class="edge">
<title>l2a_nfov_a_dnb&#45;&gt;trans_nfov_a_l2a_l2b</title>
<path fill="none" stroke="black" d="M945.66,-478C945.66,-478 1036.95,-478 1036.95,-478"/>
<polygon fill="black" stroke="black" points="1036.95,-481.5 1046.95,-478 1036.95,-474.5 1036.95,-481.5"/>
</g>
<!-- l2a_nfov_a_mbpm -->
<g id="node17" class="node">
<title>l2a_nfov_a_mbpm</title>
<polygon fill="none" stroke="black" points="945.9,-435 670.9,-435 670.9,-411 945.9,-411 957.9,-423 945.9,-435"/>
<text text-anchor="middle" x="814.4" y="-419.3" font-family="Times,serif" font-size="14.00">L2a_nfov_a master bad pixel map 1..1</text>
</g>
<!-- l2a_nfov_a_mbpm&#45;&gt;trans_nfov_a_l2a_l2b -->
<g id="edge15" class="edge">
<title>l2a_nfov_a_mbpm&#45;&gt;trans_nfov_a_l2a_l2b</title>
<path fill="none" stroke="black" d="M958.29,-423C958.29,-423 1008.14,-423 1008.14,-423"/>
<polygon fill="black" stroke="black" points="1008.14,-426.5 1018.14,-423 1008.14,-419.5 1008.14,-426.5"/>
</g>
<!-- l2a_nfov_a_ff -->
<g id="node18" class="node">
<title>l2a_nfov_a_ff</title>
<polygon fill="none" stroke="black" points="900.9,-381 715.9,-381 715.9,-357 900.9,-357 912.9,-369 900.9,-381"/>
<text text-anchor="middle" x="814.4" y="-365.3" font-family="Times,serif" font-size="14.00">L2a_nfov_a flat fields 1..1</text>
</g>
<!-- l2a_nfov_a_ff&#45;&gt;trans_nfov_a_l2a_l2b -->
<g id="edge16" class="edge">
<title>l2a_nfov_a_ff&#45;&gt;trans_nfov_a_l2a_l2b</title>
<path fill="none" stroke="black" d="M912.98,-369C912.98,-369 1008.4,-369 1008.4,-369"/>
<polygon fill="black" stroke="black" points="1008.4,-372.5 1018.4,-369 1008.4,-365.5 1008.4,-372.5"/>
</g>
<!-- l2a_nfov_a_emg -->
<g id="node19" class="node">
<title>l2a_nfov_a_emg</title>
<polygon fill="none" stroke="black" points="897.9,-327 718.9,-327 718.9,-303 897.9,-303 909.9,-315 897.9,-327"/>
<text text-anchor="middle" x="814.4" y="-311.3" font-family="Times,serif" font-size="14.00">L2a_nfov_a EM gain 1..1</text>
</g>
<!-- l2a_nfov_a_emg&#45;&gt;trans_nfov_a_l2a_l2b -->
<g id="edge17" class="edge">
<title>l2a_nfov_a_emg&#45;&gt;trans_nfov_a_l2a_l2b</title>
<path fill="none" stroke="black" d="M909.91,-315C909.91,-315 1036.27,-315 1036.27,-315"/>
<polygon fill="black" stroke="black" points="1036.27,-318.5 1046.27,-315 1036.27,-311.5 1036.27,-318.5"/>
</g>
<!-- l2a_nfov_a_kgain -->
<g id="node20" class="node">
<title>l2a_nfov_a_kgain</title>
<polygon fill="none" stroke="black" points="884.4,-273 732.4,-273 732.4,-249 884.4,-249 896.4,-261 884.4,-273"/>
<text text-anchor="middle" x="814.4" y="-257.3" font-family="Times,serif" font-size="14.00">L2_nfov_a Kgain 1..1</text>
</g>
<!-- l2a_nfov_a_kgain&#45;&gt;trans_nfov_a_l2a_l2b -->
<g id="edge10" class="edge">
<title>l2a_nfov_a_kgain&#45;&gt;trans_nfov_a_l2a_l2b</title>
<path fill="none" stroke="black" d="M814.58,-279.32C814.58,-286.25 814.58,-292.5 814.58,-292.5 814.58,-292.5 1063,-292.5 1063,-292.5"/>
<polygon fill="black" stroke="black" points="1063,-296 1073,-292.5 1063,-289 1063,-296"/>
</g>
<!-- l2b_nfov_a_prod&#45;&gt;trans_nfov_a_l2b_l3 -->
<g id="edge22" class="edge">
<title>l2b_nfov_a_prod&#45;&gt;trans_nfov_a_l2b_l3</title>
<path fill="none" stroke="black" stroke-dasharray="5,2" d="M1557.51,-484.46C1557.51,-484.46 1703.81,-484.46 1703.81,-484.46"/>
<polygon fill="black" stroke="black" points="1703.81,-487.96 1713.81,-484.46 1703.81,-480.96 1703.81,-487.96"/>
</g>
<!-- l2b_nfov_a_man&#45;&gt;trans_nfov_a_l2b_l3 -->
<g id="edge23" class="edge">
<title>l2b_nfov_a_man&#45;&gt;trans_nfov_a_l2b_l3</title>
<path fill="none" stroke="black" d="M1618.58,-428.07C1618.58,-440.95 1618.58,-473.92 1618.58,-473.92 1618.58,-473.92 1722.89,-473.92 1722.89,-473.92"/>
<polygon fill="black" stroke="black" points="1722.89,-477.42 1732.89,-473.92 1722.89,-470.42 1722.89,-477.42"/>
</g>
<!-- l2b_nfov_a_odir -->
<g id="node24" class="node">
<title>l2b_nfov_a_odir</title>
<ellipse fill="none" stroke="black" cx="1459.82" cy="-747" rx="140.28" ry="18"/>
<text text-anchor="middle" x="1459.82" y="-743.3" font-family="Times,serif" font-size="14.00">L2b_nfov_a output path 1..1</text>
</g>
<!-- l2b_nfov_a_odir&#45;&gt;trans_nfov_a_l2b_l3 -->
<g id="edge24" class="edge">
<title>l2b_nfov_a_odir&#45;&gt;trans_nfov_a_l2b_l3</title>
<path fill="none" stroke="black" d="M1574.58,-736.2C1574.58,-721.25 1574.58,-696.08 1574.58,-696.08 1574.58,-696.08 1722.98,-696.08 1722.98,-696.08"/>
<polygon fill="black" stroke="black" points="1722.98,-699.58 1732.98,-696.08 1722.98,-692.58 1722.98,-699.58"/>
</g>
<!-- l2b_nfov_a_rec -->
<g id="node25" class="node">
<title>l2b_nfov_a_rec</title>
<polygon fill="none" stroke="black" points="1535.82,-705 1371.82,-705 1371.82,-681 1535.82,-681 1547.82,-693 1535.82,-705"/>
<text text-anchor="middle" x="1459.82" y="-689.3" font-family="Times,serif" font-size="14.00">L2b_nfov_a recipe 1..1</text>
</g>
<!-- l2b_nfov_a_rec&#45;&gt;trans_nfov_a_l2b_l3 -->
<g id="edge25" class="edge">
<title>l2b_nfov_a_rec&#45;&gt;trans_nfov_a_l2b_l3</title>
<path fill="none" stroke="black" d="M1548,-685.54C1548,-685.54 1703.89,-685.54 1703.89,-685.54"/>
<polygon fill="black" stroke="black" points="1703.89,-689.04 1713.89,-685.54 1703.89,-682.04 1703.89,-689.04"/>
</g>
<!-- l2b_nfov_a_excicrf -->
<g id="node26" class="node">
<title>l2b_nfov_a_excicrf</title>
<polygon fill="none" stroke="black" points="1591.82,-651 1315.82,-651 1315.82,-627 1591.82,-627 1603.82,-639 1591.82,-651"/>
<text text-anchor="middle" x="1459.82" y="-635.3" font-family="Times,serif" font-size="14.00">L2b_nfov_a EXCAM ICRF location 1..1</text>
</g>
<!-- l2b_nfov_a_excicrf&#45;&gt;trans_nfov_a_l2b_l3 -->
<g id="edge26" class="edge">
<title>l2b_nfov_a_excicrf&#45;&gt;trans_nfov_a_l2b_l3</title>
<path fill="none" stroke="black" d="M1604.18,-639C1604.18,-639 1663.14,-639 1663.14,-639"/>
<polygon fill="black" stroke="black" points="1663.14,-642.5 1673.14,-639 1663.14,-635.5 1663.14,-642.5"/>
</g>
<!-- l2b_nfov_a_excfovps -->
<g id="node27" class="node">
<title>l2b_nfov_a_excfovps</title>
<polygon fill="none" stroke="black" points="1598.82,-597 1308.82,-597 1308.82,-573 1598.82,-573 1610.82,-585 1598.82,-597"/>
<text text-anchor="middle" x="1459.82" y="-581.3" font-family="Times,serif" font-size="14.00">L2b_nfov_a EXCAM FOV pixel scale 1..1</text>
</g>
<!-- l2b_nfov_a_excfovps&#45;&gt;trans_nfov_a_l2b_l3 -->
<g id="edge27" class="edge">
<title>l2b_nfov_a_excfovps&#45;&gt;trans_nfov_a_l2b_l3</title>
<path fill="none" stroke="black" d="M1611.25,-585C1611.25,-585 1650.59,-585 1650.59,-585"/>
<polygon fill="black" stroke="black" points="1650.59,-588.5 1660.59,-585 1650.59,-581.5 1650.59,-588.5"/>
</g>
<!-- l2b_nfov_a_distm -->
<g id="node28" class="node">
<title>l2b_nfov_a_distm</title>
<polygon fill="none" stroke="black" points="1566.32,-543 1341.32,-543 1341.32,-519 1566.32,-519 1578.32,-531 1566.32,-543"/>
<text text-anchor="middle" x="1459.82" y="-527.3" font-family="Times,serif" font-size="14.00">L2b_nfov_a distortion map 1..1</text>
</g>
<!-- l2b_nfov_a_distm&#45;&gt;trans_nfov_a_l2b_l3 -->
<g id="edge28" class="edge">
<title>l2b_nfov_a_distm&#45;&gt;trans_nfov_a_l2b_l3</title>
<path fill="none" stroke="black" d="M1578.61,-531C1578.61,-531 1663.34,-531 1663.34,-531"/>
<polygon fill="black" stroke="black" points="1663.34,-534.5 1673.34,-531 1663.34,-527.5 1663.34,-534.5"/>
</g>
<!-- l3_nfov_a_prod&#45;&gt;trans_nfov_a_l3_l4 -->
<g id="edge32" class="edge">
<title>l3_nfov_a_prod&#45;&gt;trans_nfov_a_l3_l4</title>
<path fill="none" stroke="black" stroke-dasharray="5,2" d="M2192.74,-666C2192.74,-666 2297.09,-666 2297.09,-666"/>
<polygon fill="black" stroke="black" points="2297.09,-669.5 2307.09,-666 2297.09,-662.5 2297.09,-669.5"/>
</g>
<!-- l3_nfov_a_odir -->
<g id="node31" class="node">
<title>l3_nfov_a_odir</title>
<ellipse fill="none" stroke="black" cx="2099.38" cy="-828" rx="134.58" ry="18"/>
<text text-anchor="middle" x="2099.38" y="-824.3" font-family="Times,serif" font-size="14.00">L3_nfov_a output path 1..1</text>
</g>
<!-- l3_nfov_a_odir&#45;&gt;trans_nfov_a_l3_l4 -->
<g id="edge34" class="edge">
<title>l3_nfov_a_odir&#45;&gt;trans_nfov_a_l3_l4</title>
<path fill="none" stroke="black" d="M2233.3,-825.81C2233.3,-825.81 2345.97,-825.81 2345.97,-825.81"/>
<polygon fill="black" stroke="black" points="2345.97,-829.31 2355.97,-825.81 2345.97,-822.31 2345.97,-829.31"/>
</g>
<!-- l3_nfov_a_man&#45;&gt;trans_nfov_a_l3_l4 -->
<g id="edge33" class="edge">
<title>l3_nfov_a_man&#45;&gt;trans_nfov_a_l3_l4</title>
<path fill="none" stroke="black" d="M2257.81,-614.19C2257.81,-614.19 2346.27,-614.19 2346.27,-614.19"/>
<polygon fill="black" stroke="black" points="2346.27,-617.69 2356.27,-614.19 2346.27,-610.69 2346.27,-617.69"/>
</g>
<!-- l3_nfov_a_rec -->
<g id="node33" class="node">
<title>l3_nfov_a_rec</title>
<polygon fill="none" stroke="black" points="2170.88,-786 2015.88,-786 2015.88,-762 2170.88,-762 2182.88,-774 2170.88,-786"/>
<text text-anchor="middle" x="2099.38" y="-770.3" font-family="Times,serif" font-size="14.00">L3_nfov_a recipe 1..1</text>
</g>
<!-- l3_nfov_a_rec&#45;&gt;trans_nfov_a_l3_l4 -->
<g id="edge35" class="edge">
<title>l3_nfov_a_rec&#45;&gt;trans_nfov_a_l3_l4</title>
<path fill="none" stroke="black" d="M2183.05,-774C2183.05,-774 2296.98,-774 2296.98,-774"/>
<polygon fill="black" stroke="black" points="2296.98,-777.5 2306.98,-774 2296.98,-770.5 2296.98,-777.5"/>
</g>
<!-- l3_nfov_a_cal -->
<g id="node34" class="node">
<title>l3_nfov_a_cal</title>
<polygon fill="none" stroke="black" points="2187.38,-732 1999.38,-732 1999.38,-708 2187.38,-708 2199.38,-720 2187.38,-732"/>
<text text-anchor="middle" x="2099.38" y="-716.3" font-family="Times,serif" font-size="14.00">L3_nfov_a calibration 1..1</text>
</g>
<!-- l3_nfov_a_cal&#45;&gt;trans_nfov_a_l3_l4 -->
<g id="edge36" class="edge">
<title>l3_nfov_a_cal&#45;&gt;trans_nfov_a_l3_l4</title>
<path fill="none" stroke="black" d="M2199.64,-720C2199.64,-720 2284.41,-720 2284.41,-720"/>
<polygon fill="black" stroke="black" points="2284.41,-723.5 2294.41,-720 2284.41,-716.5 2284.41,-723.5"/>
</g>
<!-- l4_nfov_a_prod&#45;&gt;trans_nfov_a_l4_tda -->
<g id="edge40" class="edge">
<title>l4_nfov_a_prod&#45;&gt;trans_nfov_a_l4_tda</title>
<path fill="none" stroke="black" stroke-dasharray="5,2" d="M2830.89,-808.46C2830.89,-808.46 2980.94,-808.46 2980.94,-808.46"/>
<polygon fill="black" stroke="black" points="2980.94,-811.96 2990.94,-808.46 2980.94,-804.96 2980.94,-811.96"/>
</g>
<!-- l4_nfov_a_odir -->
<g id="node37" class="node">
<title>l4_nfov_a_odir</title>
<ellipse fill="none" stroke="black" cx="2737.86" cy="-1071" rx="134.58" ry="18"/>
<text text-anchor="middle" x="2737.86" y="-1067.3" font-family="Times,serif" font-size="14.00">L4_nfov_a output path 1..1</text>
</g>
<!-- l4_nfov_a_odir&#45;&gt;trans_nfov_a_l4_tda -->
<g id="edge42" class="edge">
<title>l4_nfov_a_odir&#45;&gt;trans_nfov_a_l4_tda</title>
<path fill="none" stroke="black" d="M2847.58,-1060.2C2847.58,-1045.25 2847.58,-1020.08 2847.58,-1020.08 2847.58,-1020.08 2999.8,-1020.08 2999.8,-1020.08"/>
<polygon fill="black" stroke="black" points="2999.8,-1023.58 3009.8,-1020.08 2999.8,-1016.58 2999.8,-1023.58"/>
</g>
<!-- l4_nfov_a_man&#45;&gt;trans_nfov_a_l4_tda -->
<g id="edge41" class="edge">
<title>l4_nfov_a_man&#45;&gt;trans_nfov_a_l4_tda</title>
<path fill="none" stroke="black" d="M2865.58,-703.83C2865.58,-730.64 2865.58,-797.92 2865.58,-797.92 2865.58,-797.92 2999.8,-797.92 2999.8,-797.92"/>
<polygon fill="black" stroke="black" points="2999.8,-801.42 3009.8,-797.92 2999.8,-794.42 2999.8,-801.42"/>
</g>
<!-- l4_nfov_a_rec -->
<g id="node40" class="node">
<title>l4_nfov_a_rec</title>
<polygon fill="none" stroke="black" points="2809.36,-1029 2654.36,-1029 2654.36,-1005 2809.36,-1005 2821.36,-1017 2809.36,-1029"/>
<text text-anchor="middle" x="2737.86" y="-1013.3" font-family="Times,serif" font-size="14.00">L4_nfov_a recipe 1..1</text>
</g>
<!-- l4_nfov_a_rec&#45;&gt;trans_nfov_a_l4_tda -->
<g id="edge43" class="edge">
<title>l4_nfov_a_rec&#45;&gt;trans_nfov_a_l4_tda</title>
<path fill="none" stroke="black" d="M2821.53,-1009.54C2821.53,-1009.54 2980.87,-1009.54 2980.87,-1009.54"/>
<polygon fill="black" stroke="black" points="2980.87,-1013.04 2990.87,-1009.54 2980.87,-1006.04 2980.87,-1013.04"/>
</g>
<!-- l4_nfov_a_afcal -->
<g id="node41" class="node">
<title>l4_nfov_a_afcal</title>
<polygon fill="none" stroke="black" points="2877.36,-975 2586.36,-975 2586.36,-951 2877.36,-951 2889.36,-963 2877.36,-975"/>
<text text-anchor="middle" x="2737.86" y="-959.3" font-family="Times,serif" font-size="14.00">L4_nfov_a absolute flux calibrations 1..1</text>
</g>
<!-- l4_nfov_a_afcal&#45;&gt;trans_nfov_a_l4_tda -->
<g id="edge44" class="edge">
<title>l4_nfov_a_afcal&#45;&gt;trans_nfov_a_l4_tda</title>
<path fill="none" stroke="black" d="M2889.73,-963C2889.73,-963 2940.45,-963 2940.45,-963"/>
<polygon fill="black" stroke="black" points="2940.45,-966.5 2950.45,-963 2940.45,-959.5 2940.45,-966.5"/>
</g>
<!-- l4_nfov_a_ctcal -->
<g id="node42" class="node">
<title>l4_nfov_a_ctcal</title>
<polygon fill="none" stroke="black" points="2889.86,-921 2573.86,-921 2573.86,-897 2889.86,-897 2901.86,-909 2889.86,-921"/>
<text text-anchor="middle" x="2737.86" y="-905.3" font-family="Times,serif" font-size="14.00">L4_nfov_a core throughput calibrations 1..1</text>
</g>
<!-- l4_nfov_a_ctcal&#45;&gt;trans_nfov_a_l4_tda -->
<g id="edge45" class="edge">
<title>l4_nfov_a_ctcal&#45;&gt;trans_nfov_a_l4_tda</title>
<path fill="none" stroke="black" d="M2901.97,-909C2901.97,-909 2927.41,-909 2927.41,-909"/>
<polygon fill="black" stroke="black" points="2927.41,-912.5 2937.41,-909 2927.41,-905.5 2927.41,-912.5"/>
</g>
<!-- l4_nfov_a_ndfilt -->
<g id="node43" class="node">
<title>l4_nfov_a_ndfilt</title>
<polygon fill="none" stroke="black" points="2818.36,-867 2645.36,-867 2645.36,-843 2818.36,-843 2830.36,-855 2818.36,-867"/>
<text text-anchor="middle" x="2737.86" y="-851.3" font-family="Times,serif" font-size="14.00">L4_nfov_a ND filter 1..1</text>
</g>
<!-- l4_nfov_a_ndfilt&#45;&gt;trans_nfov_a_l4_tda -->
<g id="edge46" class="edge">
<title>l4_nfov_a_ndfilt&#45;&gt;trans_nfov_a_l4_tda</title>
<path fill="none" stroke="black" d="M2830.46,-855C2830.46,-855 2940.5,-855 2940.5,-855"/>
<polygon fill="black" stroke="black" points="2940.5,-858.5 2950.5,-855 2940.5,-851.5 2940.5,-858.5"/>
</g>
<!-- tda_nfov_a_man -->
<g id="node44" class="node">
<title>tda_nfov_a_man</title>
<ellipse fill="none" stroke="black" cx="167.04" cy="-288" rx="167.07" ry="18"/>
<text text-anchor="middle" x="167.04" y="-284.3" font-family="Times,serif" font-size="14.00">TDA_nfov_a product manifest 1..1</text>
</g>
</g>
</svg>
