<?xml version="1.0" encoding="UTF-8" standalone="no"?>
<!DOCTYPE svg PUBLIC "-//W3C//DTD SVG 1.1//EN"
 "http://www.w3.org/Graphics/SVG/1.1/DTD/svg11.dtd">
<!-- Generated by graphviz version 2.43.0 (0)
 -->
<!-- Title: PolarimetryPhotonCount Pages: 1 -->
<svg width="3269pt" height="935pt"
 viewBox="0.00 0.00 3268.99 935.00" xmlns="http://www.w3.org/2000/svg" xmlns:xlink="http://www.w3.org/1999/xlink">
<g id="graph0" class="graph" transform="scale(1 1) rotate(0) translate(4 931)">
<title>PolarimetryPhotonCount</title>
<polygon fill="white" stroke="transparent" points="-4,4 -4,-931 3264.99,-931 3264.99,4 -4,4"/>
<!-- trans_pol_pc_l1_l2a -->
<g id="node1" class="node">
<title>trans_pol_pc_l1_l2a</title>
<ellipse fill="none" stroke="black" cx="424.69" cy="-126" rx="120.83" ry="120.83"/>
<text text-anchor="middle" x="424.69" y="-129.8" font-family="Times,serif" font-size="14.00">pol_pc Transmutation</text>
<text text-anchor="middle" x="424.69" y="-114.8" font-family="Times,serif" font-size="14.00">L1 to L2a</text>
</g>
<!-- l2a_pol_pc_prod -->
<g id="node11" class="node">
<title>l2a_pol_pc_prod</title>
<polygon fill="none" stroke="black" points="827.61,-198 633.61,-198 633.61,-162 827.61,-162 827.61,-198"/>
<text text-anchor="middle" x="730.61" y="-176.3" font-family="Times,serif" font-size="14.00">L2a_pol_pc products 1..b</text>
</g>
<!-- trans_pol_pc_l1_l2a&#45;&gt;l2a_pol_pc_prod -->
<g id="edge6" class="edge">
<title>trans_pol_pc_l1_l2a&#45;&gt;l2a_pol_pc_prod</title>
<path fill="none" stroke="black" stroke-dasharray="5,2" d="M532.98,-180C532.98,-180 623.43,-180 623.43,-180"/>
<polygon fill="black" stroke="black" points="623.43,-183.5 633.43,-180 623.43,-176.5 623.43,-183.5"/>
</g>
<!-- l2a_pol_pc_man -->
<g id="node12" class="node">
<title>l2a_pol_pc_man</title>
<ellipse fill="none" stroke="black" cx="730.61" cy="-126" rx="125.38" ry="18"/>
<text text-anchor="middle" x="730.61" y="-122.3" font-family="Times,serif" font-size="14.00">L2a_pol_pc manifest 1..1</text>
</g>
<!-- trans_pol_pc_l1_l2a&#45;&gt;l2a_pol_pc_man -->
<g id="edge7" class="edge">
<title>trans_pol_pc_l1_l2a&#45;&gt;l2a_pol_pc_man</title>
<path fill="none" stroke="black" d="M546.04,-126C546.04,-126 595.14,-126 595.14,-126"/>
<polygon fill="black" stroke="black" points="595.14,-129.5 605.14,-126 595.14,-122.5 595.14,-129.5"/>
</g>
<!-- l2a_pol_pc_log -->
<g id="node21" class="node">
<title>l2a_pol_pc_log</title>
<ellipse fill="none" stroke="black" cx="730.61" cy="-72" rx="98.58" ry="18"/>
<text text-anchor="middle" x="730.61" y="-68.3" font-family="Times,serif" font-size="14.00">L2a log_pol_pc 1..1</text>
</g>
<!-- trans_pol_pc_l1_l2a&#45;&gt;l2a_pol_pc_log -->
<g id="edge8" class="edge">
<title>trans_pol_pc_l1_l2a&#45;&gt;l2a_pol_pc_log</title>
<path fill="none" stroke="black" stroke-dasharray="5,2" d="M532.98,-72C532.98,-72 621.66,-72 621.66,-72"/>
<polygon fill="black" stroke="black" points="621.66,-75.5 631.66,-72 621.66,-68.5 621.66,-75.5"/>
</g>
<!-- trans_pol_pc_l2a_l2b -->
<g id="node2" class="node">
<title>trans_pol_pc_l2a_l2b</title>
<ellipse fill="none" stroke="black" cx="1036.52" cy="-369" rx="120.83" ry="120.83"/>
<text text-anchor="middle" x="1036.52" y="-372.8" font-family="Times,serif" font-size="14.00">pol_pc Transmutation</text>
<text text-anchor="middle" x="1036.52" y="-357.8" font-family="Times,serif" font-size="14.00">L2a to L2b</text>
</g>
<!-- l2b_pol_pc_prod -->
<g id="node22" class="node">
<title>l2b_pol_pc_prod</title>
<polygon fill="none" stroke="black" points="1440.94,-441 1246.94,-441 1246.94,-405 1440.94,-405 1440.94,-441"/>
<text text-anchor="middle" x="1343.94" y="-419.3" font-family="Times,serif" font-size="14.00">L2b_pol_pc products 1..1</text>
</g>
<!-- trans_pol_pc_l2a_l2b&#45;&gt;l2b_pol_pc_prod -->
<g id="edge18" class="edge">
<title>trans_pol_pc_l2a_l2b&#45;&gt;l2b_pol_pc_prod</title>
<path fill="none" stroke="black" stroke-dasharray="5,2" d="M1144.91,-423C1144.91,-423 1236.77,-423 1236.77,-423"/>
<polygon fill="black" stroke="black" points="1236.77,-426.5 1246.77,-423 1236.77,-419.5 1236.77,-426.5"/>
</g>
<!-- l2b_pol_pc_man -->
<g id="node23" class="node">
<title>l2b_pol_pc_man</title>
<ellipse fill="none" stroke="black" cx="1343.94" cy="-369" rx="126.18" ry="18"/>
<text text-anchor="middle" x="1343.94" y="-365.3" font-family="Times,serif" font-size="14.00">L2b_pol_pc manifest 1..1</text>
</g>
<!-- trans_pol_pc_l2a_l2b&#45;&gt;l2b_pol_pc_man -->
<g id="edge19" class="edge">
<title>trans_pol_pc_l2a_l2b&#45;&gt;l2b_pol_pc_man</title>
<path fill="none" stroke="black" d="M1157.58,-369C1157.58,-369 1207.68,-369 1207.68,-369"/>
<polygon fill="black" stroke="black" points="1207.68,-372.5 1217.68,-369 1207.68,-365.5 1207.68,-372.5"/>
</g>
<!-- l2b_pol_pc_log -->
<g id="node29" class="node">
<title>l2b_pol_pc_log</title>
<ellipse fill="none" stroke="black" cx="1343.94" cy="-315" rx="99.38" ry="18"/>
<text text-anchor="middle" x="1343.94" y="-311.3" font-family="Times,serif" font-size="14.00">L2b_pol_pc log 1..1</text>
</g>
<!-- trans_pol_pc_l2a_l2b&#45;&gt;l2b_pol_pc_log -->
<g id="edge20" class="edge">
<title>trans_pol_pc_l2a_l2b&#45;&gt;l2b_pol_pc_log</title>
<path fill="none" stroke="black" stroke-dasharray="5,2" d="M1144.91,-315C1144.91,-315 1234.49,-315 1234.49,-315"/>
<polygon fill="black" stroke="black" points="1234.49,-318.5 1244.49,-315 1234.49,-311.5 1234.49,-318.5"/>
</g>
<!-- trans_pol_pc_l2b_l3 -->
<g id="node3" class="node">
<title>trans_pol_pc_l2b_l3</title>
<ellipse fill="none" stroke="black" cx="1651.35" cy="-531" rx="120.83" ry="120.83"/>
<text text-anchor="middle" x="1651.35" y="-534.8" font-family="Times,serif" font-size="14.00">pol_pc Transmutation</text>
<text text-anchor="middle" x="1651.35" y="-519.8" font-family="Times,serif" font-size="14.00">L2b to L3</text>
</g>
<!-- l3_pol_pc_prod -->
<g id="node30" class="node">
<title>l3_pol_pc_prod</title>
<polygon fill="none" stroke="black" points="2034.66,-603 1849.66,-603 1849.66,-567 2034.66,-567 2034.66,-603"/>
<text text-anchor="middle" x="1942.16" y="-581.3" font-family="Times,serif" font-size="14.00">L3_pol_pc products 1..1</text>
</g>
<!-- trans_pol_pc_l2b_l3&#45;&gt;l3_pol_pc_prod -->
<g id="edge29" class="edge">
<title>trans_pol_pc_l2b_l3&#45;&gt;l3_pol_pc_prod</title>
<path fill="none" stroke="black" stroke-dasharray="5,2" d="M1759.64,-585C1759.64,-585 1839.53,-585 1839.53,-585"/>
<polygon fill="black" stroke="black" points="1839.53,-588.5 1849.53,-585 1839.53,-581.5 1839.53,-588.5"/>
</g>
<!-- l3_pol_pc_man -->
<g id="node32" class="node">
<title>l3_pol_pc_man</title>
<ellipse fill="none" stroke="black" cx="1942.16" cy="-531" rx="120.48" ry="18"/>
<text text-anchor="middle" x="1942.16" y="-527.3" font-family="Times,serif" font-size="14.00">L3_pol_pc manifest 1..1</text>
</g>
<!-- trans_pol_pc_l2b_l3&#45;&gt;l3_pol_pc_man -->
<g id="edge30" class="edge">
<title>trans_pol_pc_l2b_l3&#45;&gt;l3_pol_pc_man</title>
<path fill="none" stroke="black" d="M1772.57,-531C1772.57,-531 1811.6,-531 1811.6,-531"/>
<polygon fill="black" stroke="black" points="1811.6,-534.5 1821.6,-531 1811.6,-527.5 1811.6,-534.5"/>
</g>
<!-- l3_pol_pc_log -->
<g id="node35" class="node">
<title>l3_pol_pc_log</title>
<ellipse fill="none" stroke="black" cx="1942.16" cy="-477" rx="93.68" ry="18"/>
<text text-anchor="middle" x="1942.16" y="-473.3" font-family="Times,serif" font-size="14.00">L3_pol_pc log 1..1</text>
</g>
<!-- trans_pol_pc_l2b_l3&#45;&gt;l3_pol_pc_log -->
<g id="edge31" class="edge">
<title>trans_pol_pc_l2b_l3&#45;&gt;l3_pol_pc_log</title>
<path fill="none" stroke="black" stroke-dasharray="5,2" d="M1759.64,-477C1759.64,-477 1838.12,-477 1838.12,-477"/>
<polygon fill="black" stroke="black" points="1838.12,-480.5 1848.12,-477 1838.12,-473.5 1838.12,-480.5"/>
</g>
<!-- trans_pol_pc_l3_l4 -->
<g id="node4" class="node">
<title>trans_pol_pc_l3_l4</title>
<ellipse fill="none" stroke="black" cx="2232.96" cy="-639" rx="120.83" ry="120.83"/>
<text text-anchor="middle" x="2232.96" y="-642.8" font-family="Times,serif" font-size="14.00">pol_pc Transmutation</text>
<text text-anchor="middle" x="2232.96" y="-627.8" font-family="Times,serif" font-size="14.00">L3 to L4</text>
</g>
<!-- l4_pol_pc_prod -->
<g id="node36" class="node">
<title>l4_pol_pc_prod</title>
<polygon fill="none" stroke="black" points="2675.87,-711 2490.87,-711 2490.87,-675 2675.87,-675 2675.87,-711"/>
<text text-anchor="middle" x="2583.37" y="-689.3" font-family="Times,serif" font-size="14.00">L4_pol_pc products 1..1</text>
</g>
<!-- trans_pol_pc_l3_l4&#45;&gt;l4_pol_pc_prod -->
<g id="edge37" class="edge">
<title>trans_pol_pc_l3_l4&#45;&gt;l4_pol_pc_prod</title>
<path fill="none" stroke="black" stroke-dasharray="5,2" d="M2341.43,-693C2341.43,-693 2480.77,-693 2480.77,-693"/>
<polygon fill="black" stroke="black" points="2480.77,-696.5 2490.77,-693 2480.77,-689.5 2480.77,-696.5"/>
</g>
<!-- l4_pol_pc_log -->
<g id="node37" class="node">
<title>l4_pol_pc_log</title>
<ellipse fill="none" stroke="black" cx="2583.37" cy="-639" rx="93.68" ry="18"/>
<text text-anchor="middle" x="2583.37" y="-635.3" font-family="Times,serif" font-size="14.00">L4_pol_pc log 1..1</text>
</g>
<!-- trans_pol_pc_l3_l4&#45;&gt;l4_pol_pc_log -->
<g id="edge38" class="edge">
<title>trans_pol_pc_l3_l4&#45;&gt;l4_pol_pc_log</title>
<path fill="none" stroke="black" stroke-dasharray="5,2" d="M2354.04,-639C2354.04,-639 2479.66,-639 2479.66,-639"/>
<polygon fill="black" stroke="black" points="2479.66,-642.5 2489.66,-639 2479.66,-635.5 2479.66,-642.5"/>
</g>
<!-- l4_pol_pc_man -->
<g id="node38" class="node">
<title>l4_pol_pc_man</title>
<ellipse fill="none" stroke="black" cx="2583.37" cy="-585" rx="120.48" ry="18"/>
<text text-anchor="middle" x="2583.37" y="-581.3" font-family="Times,serif" font-size="14.00">L4_pol_pc manifest 1..1</text>
</g>
<!-- trans_pol_pc_l3_l4&#45;&gt;l4_pol_pc_man -->
<g id="edge39" class="edge">
<title>trans_pol_pc_l3_l4&#45;&gt;l4_pol_pc_man</title>
<path fill="none" stroke="black" d="M2341.43,-585C2341.43,-585 2452.9,-585 2452.9,-585"/>
<polygon fill="black" stroke="black" points="2452.9,-588.5 2462.9,-585 2452.9,-581.5 2452.9,-588.5"/>
</g>
<!-- trans_pol_pc_l4_tda -->
<g id="node5" class="node">
<title>trans_pol_pc_l4_tda</title>
<ellipse fill="none" stroke="black" cx="2933.79" cy="-774" rx="120.83" ry="120.83"/>
<text text-anchor="middle" x="2933.79" y="-777.8" font-family="Times,serif" font-size="14.00">pol_pc Transmutation</text>
<text text-anchor="middle" x="2933.79" y="-762.8" font-family="Times,serif" font-size="14.00">L4 to TDA</text>
</g>
<!-- tda_pol_pc_prod -->
<g id="node44" class="node">
<title>tda_pol_pc_prod</title>
<ellipse fill="none" stroke="black" cx="3175.85" cy="-801" rx="85.29" ry="18"/>
<text text-anchor="middle" x="3175.85" y="-797.3" font-family="Times,serif" font-size="14.00">tda_pol_pc_prod</text>
</g>
<!-- trans_pol_pc_l4_tda&#45;&gt;tda_pol_pc_prod -->
<g id="edge46" class="edge">
<title>trans_pol_pc_l4_tda&#45;&gt;tda_pol_pc_prod</title>
<path fill="none" stroke="black" stroke-dasharray="5,2" d="M3051.98,-801C3051.98,-801 3080.4,-801 3080.4,-801"/>
<polygon fill="black" stroke="black" points="3080.4,-804.5 3090.4,-801 3080.4,-797.5 3080.4,-804.5"/>
</g>
<!-- tda_pol_pc_log -->
<g id="node45" class="node">
<title>tda_pol_pc_log</title>
<ellipse fill="none" stroke="black" cx="3175.85" cy="-747" rx="77.99" ry="18"/>
<text text-anchor="middle" x="3175.85" y="-743.3" font-family="Times,serif" font-size="14.00">tda_pol_pc_log</text>
</g>
<!-- trans_pol_pc_l4_tda&#45;&gt;tda_pol_pc_log -->
<g id="edge47" class="edge">
<title>trans_pol_pc_l4_tda&#45;&gt;tda_pol_pc_log</title>
<path fill="none" stroke="black" stroke-dasharray="5,2" d="M3051.98,-747C3051.98,-747 3087.6,-747 3087.6,-747"/>
<polygon fill="black" stroke="black" points="3087.6,-750.5 3097.6,-747 3087.6,-743.5 3087.6,-750.5"/>
</g>
<!-- l1_pol_pc_prod -->
<g id="node6" class="node">
<title>l1_pol_pc_prod</title>
<polygon fill="none" stroke="black" points="226.39,-252 41.39,-252 41.39,-216 226.39,-216 226.39,-252"/>
<text text-anchor="middle" x="133.89" y="-230.3" font-family="Times,serif" font-size="14.00">L1_pol_pc products 1..b</text>
</g>
<!-- l1_pol_pc_prod&#45;&gt;trans_pol_pc_l1_l2a -->
<g id="edge1" class="edge">
<title>l1_pol_pc_prod&#45;&gt;trans_pol_pc_l1_l2a</title>
<path fill="none" stroke="black" stroke-dasharray="5,2" d="M226.7,-231.46C226.7,-231.46 355.21,-231.46 355.21,-231.46"/>
<polygon fill="black" stroke="black" points="355.21,-234.96 365.21,-231.46 355.21,-227.96 355.21,-234.96"/>
</g>
<!-- l1_pol_pc_man -->
<g id="node7" class="node">
<title>l1_pol_pc_man</title>
<ellipse fill="none" stroke="black" cx="133.89" cy="-180" rx="120.48" ry="18"/>
<text text-anchor="middle" x="133.89" y="-176.3" font-family="Times,serif" font-size="14.00">L1_pol_pc manifest 1..1</text>
</g>
<!-- l1_pol_pc_man&#45;&gt;trans_pol_pc_l1_l2a -->
<g id="edge2" class="edge">
<title>l1_pol_pc_man&#45;&gt;trans_pol_pc_l1_l2a</title>
<path fill="none" stroke="black" d="M254.27,-180C254.27,-180 306.49,-180 306.49,-180"/>
<polygon fill="black" stroke="black" points="306.49,-183.5 316.49,-180 306.49,-176.5 306.49,-183.5"/>
</g>
<!-- l1_pol_pc_odir -->
<g id="node8" class="node">
<title>l1_pol_pc_odir</title>
<ellipse fill="none" stroke="black" cx="133.89" cy="-126" rx="133.78" ry="18"/>
<text text-anchor="middle" x="133.89" y="-122.3" font-family="Times,serif" font-size="14.00">L1_pol_pc output path 1..1</text>
</g>
<!-- l1_pol_pc_odir&#45;&gt;trans_pol_pc_l1_l2a -->
<g id="edge3" class="edge">
<title>l1_pol_pc_odir&#45;&gt;trans_pol_pc_l1_l2a</title>
<path fill="none" stroke="black" d="M267.8,-126C267.8,-126 293.56,-126 293.56,-126"/>
<polygon fill="black" stroke="black" points="293.56,-129.5 303.56,-126 293.56,-122.5 293.56,-129.5"/>
</g>
<!-- l1_pol_pc_rec -->
<g id="node9" class="node">
<title>l1_pol_pc_rec</title>
<polygon fill="none" stroke="black" points="205.39,-84 50.39,-84 50.39,-60 205.39,-60 217.39,-72 205.39,-84"/>
<text text-anchor="middle" x="133.89" y="-68.3" font-family="Times,serif" font-size="14.00">L1_pol_pc recipe 1..1</text>
</g>
<!-- l1_pol_pc_rec&#45;&gt;trans_pol_pc_l1_l2a -->
<g id="edge4" class="edge">
<title>l1_pol_pc_rec&#45;&gt;trans_pol_pc_l1_l2a</title>
<path fill="none" stroke="black" d="M217.61,-72C217.61,-72 306.37,-72 306.37,-72"/>
<polygon fill="black" stroke="black" points="306.37,-75.5 316.37,-72 306.37,-68.5 306.37,-75.5"/>
</g>
<!-- l1_pol_pc_nllut -->
<g id="node10" class="node">
<title>l1_pol_pc_nllut</title>
<polygon fill="none" stroke="black" points="235.89,-30 19.89,-30 19.89,-6 235.89,-6 247.89,-18 235.89,-30"/>
<text text-anchor="middle" x="133.89" y="-14.3" font-family="Times,serif" font-size="14.00">L1_pol_pc non&#45;linear LUT 1..1</text>
</g>
<!-- l1_pol_pc_nllut&#45;&gt;trans_pol_pc_l1_l2a -->
<g id="edge5" class="edge">
<title>l1_pol_pc_nllut&#45;&gt;trans_pol_pc_l1_l2a</title>
<path fill="none" stroke="black" d="M247.99,-20.54C247.99,-20.54 355.29,-20.54 355.29,-20.54"/>
<polygon fill="black" stroke="black" points="355.29,-24.04 365.29,-20.54 355.29,-17.04 355.29,-24.04"/>
</g>
<!-- l2a_pol_pc_prod&#45;&gt;trans_pol_pc_l2a_l2b -->
<g id="edge9" class="edge">
<title>l2a_pol_pc_prod&#45;&gt;trans_pol_pc_l2a_l2b</title>
<path fill="none" stroke="black" stroke-dasharray="5,2" d="M827.91,-180C904,-180 996.99,-180 996.99,-180 996.99,-180 996.99,-244.7 996.99,-244.7"/>
<polygon fill="black" stroke="black" points="993.49,-244.7 996.99,-254.7 1000.49,-244.7 993.49,-244.7"/>
</g>
<!-- l2a_pol_pc_man&#45;&gt;trans_pol_pc_l2a_l2b -->
<g id="edge21" class="edge">
<title>l2a_pol_pc_man&#45;&gt;trans_pol_pc_l2a_l2b</title>
<path fill="none" stroke="black" d="M856.15,-126C955.28,-126 1076.99,-126 1076.99,-126 1076.99,-126 1076.99,-244.97 1076.99,-244.97"/>
<polygon fill="black" stroke="black" points="1073.49,-244.97 1076.99,-254.97 1080.49,-244.97 1073.49,-244.97"/>
</g>
<!-- l2a_pol_pc_odir -->
<g id="node13" class="node">
<title>l2a_pol_pc_odir</title>
<ellipse fill="none" stroke="black" cx="730.61" cy="-614" rx="139.98" ry="18"/>
<text text-anchor="middle" x="730.61" y="-610.3" font-family="Times,serif" font-size="14.00">L2a_pol_pc output path 1..1</text>
</g>
<!-- l2a_pol_pc_odir&#45;&gt;trans_pol_pc_l2a_l2b -->
<g id="edge10" class="edge">
<title>l2a_pol_pc_odir&#45;&gt;trans_pol_pc_l2a_l2b</title>
<path fill="none" stroke="black" d="M813.57,-599.5C916.05,-599.5 1076.99,-599.5 1076.99,-599.5 1076.99,-599.5 1076.99,-493.24 1076.99,-493.24"/>
<polygon fill="black" stroke="black" points="1080.49,-493.24 1076.99,-483.24 1073.49,-493.24 1080.49,-493.24"/>
</g>
<!-- l2a_pol_pc_rec -->
<g id="node14" class="node">
<title>l2a_pol_pc_rec</title>
<polygon fill="none" stroke="black" points="806.11,-572 643.11,-572 643.11,-548 806.11,-548 818.11,-560 806.11,-572"/>
<text text-anchor="middle" x="730.61" y="-556.3" font-family="Times,serif" font-size="14.00">L2a_pol_pc recipe 1..1</text>
</g>
<!-- l2a_pol_pc_rec&#45;&gt;trans_pol_pc_l2a_l2b -->
<g id="edge11" class="edge">
<title>l2a_pol_pc_rec&#45;&gt;trans_pol_pc_l2a_l2b</title>
<path fill="none" stroke="black" d="M818.2,-545.5C895.84,-545.5 996.99,-545.5 996.99,-545.5 996.99,-545.5 996.99,-493.27 996.99,-493.27"/>
<polygon fill="black" stroke="black" points="1000.49,-493.27 996.99,-483.27 993.49,-493.27 1000.49,-493.27"/>
</g>
<!-- l2a_pol_pc_cti -->
<g id="node15" class="node">
<title>l2a_pol_pc_cti</title>
<polygon fill="none" stroke="black" points="867.61,-518 581.61,-518 581.61,-494 867.61,-494 879.61,-506 867.61,-518"/>
<text text-anchor="middle" x="730.61" y="-502.3" font-family="Times,serif" font-size="14.00">L2a_pol_pc charge xfer inefficiency 1..1</text>
</g>
<!-- l2a_pol_pc_cti&#45;&gt;trans_pol_pc_l2a_l2b -->
<g id="edge12" class="edge">
<title>l2a_pol_pc_cti&#45;&gt;trans_pol_pc_l2a_l2b</title>
<path fill="none" stroke="black" d="M867.99,-487.84C867.99,-482.96 867.99,-479 867.99,-479 867.99,-479 975.96,-479 975.96,-479"/>
<polygon fill="black" stroke="black" points="975.96,-482.5 985.96,-479 975.96,-475.5 975.96,-482.5"/>
</g>
<!-- l2a_pol_pc_dnb -->
<g id="node16" class="node">
<title>l2a_pol_pc_dnb</title>
<polygon fill="none" stroke="black" points="849.11,-464 600.11,-464 600.11,-438 849.11,-438 861.11,-451 849.11,-464"/>
<text text-anchor="middle" x="730.61" y="-454.8" font-family="Times,serif" font-size="14.00">L2a_pol_pc CIC/Dark Current/FPN</text>
<text text-anchor="middle" x="730.61" y="-439.8" font-family="Times,serif" font-size="14.00"> or master dark 1..1</text>
</g>
<!-- l2a_pol_pc_dnb&#45;&gt;trans_pol_pc_l2a_l2b -->
<g id="edge13" class="edge">
<title>l2a_pol_pc_dnb&#45;&gt;trans_pol_pc_l2a_l2b</title>
<path fill="none" stroke="black" d="M861.23,-451C861.23,-451 937.41,-451 937.41,-451"/>
<polygon fill="black" stroke="black" points="937.41,-454.5 947.41,-451 937.41,-447.5 937.41,-454.5"/>
</g>
<!-- l2a_pol_pc_mbpm -->
<g id="node17" class="node">
<title>l2a_pol_pc_mbpm</title>
<polygon fill="none" stroke="black" points="861.61,-408 587.61,-408 587.61,-384 861.61,-384 873.61,-396 861.61,-408"/>
<text text-anchor="middle" x="730.61" y="-392.3" font-family="Times,serif" font-size="14.00">L2a_pol_pc master bad pixel map 1..1</text>
</g>
<!-- l2a_pol_pc_mbpm&#45;&gt;trans_pol_pc_l2a_l2b -->
<g id="edge14" class="edge">
<title>l2a_pol_pc_mbpm&#45;&gt;trans_pol_pc_l2a_l2b</title>
<path fill="none" stroke="black" d="M873.71,-396C873.71,-396 908.3,-396 908.3,-396"/>
<polygon fill="black" stroke="black" points="908.3,-399.5 918.3,-396 908.3,-392.5 908.3,-399.5"/>
</g>
<!-- l2a_pol_pc_emg -->
<g id="node18" class="node">
<title>l2a_pol_pc_emg</title>
<polygon fill="none" stroke="black" points="814.11,-354 635.11,-354 635.11,-330 814.11,-330 826.11,-342 814.11,-354"/>
<text text-anchor="middle" x="730.61" y="-338.3" font-family="Times,serif" font-size="14.00">L2a_pol_pc EM gain 1..1</text>
</g>
<!-- l2a_pol_pc_emg&#45;&gt;trans_pol_pc_l2a_l2b -->
<g id="edge15" class="edge">
<title>l2a_pol_pc_emg&#45;&gt;trans_pol_pc_l2a_l2b</title>
<path fill="none" stroke="black" d="M826.14,-342C826.14,-342 908.57,-342 908.57,-342"/>
<polygon fill="black" stroke="black" points="908.57,-345.5 918.57,-342 908.57,-338.5 908.57,-345.5"/>
</g>
<!-- l2a_pol_pc_kgain -->
<g id="node19" class="node">
<title>l2a_pol_pc_kgain</title>
<polygon fill="none" stroke="black" points="804.61,-300 644.61,-300 644.61,-276 804.61,-276 816.61,-288 804.61,-300"/>
<text text-anchor="middle" x="730.61" y="-284.3" font-family="Times,serif" font-size="14.00">L2a_pol_pc Kgain 1..1</text>
</g>
<!-- l2a_pol_pc_kgain&#45;&gt;trans_pol_pc_l2a_l2b -->
<g id="edge16" class="edge">
<title>l2a_pol_pc_kgain&#45;&gt;trans_pol_pc_l2a_l2b</title>
<path fill="none" stroke="black" d="M816.64,-288C816.64,-288 936.61,-288 936.61,-288"/>
<polygon fill="black" stroke="black" points="936.61,-291.5 946.61,-288 936.61,-284.5 936.61,-291.5"/>
</g>
<!-- l2a_pol_pc_polff -->
<g id="node20" class="node">
<title>l2a_pol_pc_polff</title>
<polygon fill="none" stroke="black" points="863.11,-246 586.11,-246 586.11,-222 863.11,-222 875.11,-234 863.11,-246"/>
<text text-anchor="middle" x="730.61" y="-230.3" font-family="Times,serif" font-size="14.00">L2a_pol_pc polarimetric flat fields 1..1</text>
</g>
<!-- l2a_pol_pc_polff&#45;&gt;trans_pol_pc_l2a_l2b -->
<g id="edge17" class="edge">
<title>l2a_pol_pc_polff&#45;&gt;trans_pol_pc_l2a_l2b</title>
<path fill="none" stroke="black" d="M849.99,-252.16C849.99,-257.04 849.99,-261 849.99,-261 849.99,-261 972.07,-261 972.07,-261"/>
<polygon fill="black" stroke="black" points="972.07,-264.5 982.07,-261 972.07,-257.5 972.07,-264.5"/>
</g>
<!-- l2b_pol_pc_prod&#45;&gt;trans_pol_pc_l2b_l3 -->
<g id="edge22" class="edge">
<title>l2b_pol_pc_prod&#45;&gt;trans_pol_pc_l2b_l3</title>
<path fill="none" stroke="black" stroke-dasharray="5,2" d="M1441.21,-430.69C1441.21,-430.69 1573.41,-430.69 1573.41,-430.69"/>
<polygon fill="black" stroke="black" points="1573.41,-434.2 1583.41,-430.69 1573.41,-427.2 1573.41,-434.2"/>
</g>
<!-- l2b_pol_pc_man&#45;&gt;trans_pol_pc_l2b_l3 -->
<g id="edge23" class="edge">
<title>l2b_pol_pc_man&#45;&gt;trans_pol_pc_l2b_l3</title>
<path fill="none" stroke="black" d="M1455.99,-377.49C1455.99,-392.08 1455.99,-420.39 1455.99,-420.39 1455.99,-420.39 1592.31,-420.39 1592.31,-420.39"/>
<polygon fill="black" stroke="black" points="1592.31,-423.89 1602.31,-420.39 1592.31,-416.89 1592.31,-423.89"/>
</g>
<!-- l2b_pol_pc_odir -->
<g id="node24" class="node">
<title>l2b_pol_pc_odir</title>
<ellipse fill="none" stroke="black" cx="1343.94" cy="-693" rx="139.98" ry="18"/>
<text text-anchor="middle" x="1343.94" y="-689.3" font-family="Times,serif" font-size="14.00">L2b_pol_pc output path 1..1</text>
</g>
<!-- l2b_pol_pc_odir&#45;&gt;trans_pol_pc_l2b_l3 -->
<g id="edge24" class="edge">
<title>l2b_pol_pc_odir&#45;&gt;trans_pol_pc_l2b_l3</title>
<path fill="none" stroke="black" d="M1457.99,-682.1C1457.99,-667.02 1457.99,-641.61 1457.99,-641.61 1457.99,-641.61 1592.31,-641.61 1592.31,-641.61"/>
<polygon fill="black" stroke="black" points="1592.31,-645.11 1602.31,-641.61 1592.31,-638.11 1592.31,-645.11"/>
</g>
<!-- l2b_pol_pc_rec -->
<g id="node25" class="node">
<title>l2b_pol_pc_rec</title>
<polygon fill="none" stroke="black" points="1419.94,-651 1255.94,-651 1255.94,-627 1419.94,-627 1431.94,-639 1419.94,-651"/>
<text text-anchor="middle" x="1343.94" y="-635.3" font-family="Times,serif" font-size="14.00">L2b_pol_pc recipe 1..1</text>
</g>
<!-- l2b_pol_pc_rec&#45;&gt;trans_pol_pc_l2b_l3 -->
<g id="edge25" class="edge">
<title>l2b_pol_pc_rec&#45;&gt;trans_pol_pc_l2b_l3</title>
<path fill="none" stroke="black" d="M1432.03,-631.31C1432.03,-631.31 1573.77,-631.31 1573.77,-631.31"/>
<polygon fill="black" stroke="black" points="1573.77,-634.81 1583.77,-631.31 1573.77,-627.81 1573.77,-634.81"/>
</g>
<!-- l2b_pol_pc_excicrf -->
<g id="node26" class="node">
<title>l2b_pol_pc_excicrf</title>
<polygon fill="none" stroke="black" points="1475.44,-597 1200.44,-597 1200.44,-573 1475.44,-573 1487.44,-585 1475.44,-597"/>
<text text-anchor="middle" x="1343.94" y="-581.3" font-family="Times,serif" font-size="14.00">L2b_pol_pc EXCAM ICRF location 1..1</text>
</g>
<!-- l2b_pol_pc_excicrf&#45;&gt;trans_pol_pc_l2b_l3 -->
<g id="edge26" class="edge">
<title>l2b_pol_pc_excicrf&#45;&gt;trans_pol_pc_l2b_l3</title>
<path fill="none" stroke="black" d="M1487.74,-585C1487.74,-585 1533.02,-585 1533.02,-585"/>
<polygon fill="black" stroke="black" points="1533.02,-588.5 1543.02,-585 1533.02,-581.5 1533.02,-588.5"/>
</g>
<!-- l2b_pol_pc_excfovps -->
<g id="node27" class="node">
<title>l2b_pol_pc_excfovps</title>
<polygon fill="none" stroke="black" points="1482.44,-543 1193.44,-543 1193.44,-519 1482.44,-519 1494.44,-531 1482.44,-543"/>
<text text-anchor="middle" x="1343.94" y="-527.3" font-family="Times,serif" font-size="14.00">L2b_pol_pc EXCAM FOV pixel scale 1..1</text>
</g>
<!-- l2b_pol_pc_excfovps&#45;&gt;trans_pol_pc_l2b_l3 -->
<g id="edge27" class="edge">
<title>l2b_pol_pc_excfovps&#45;&gt;trans_pol_pc_l2b_l3</title>
<path fill="none" stroke="black" d="M1494.49,-531C1494.49,-531 1520.33,-531 1520.33,-531"/>
<polygon fill="black" stroke="black" points="1520.33,-534.5 1530.33,-531 1520.33,-527.5 1520.33,-534.5"/>
</g>
<!-- l2b_pol_pc_cfamfo -->
<g id="node28" class="node">
<title>l2b_pol_pc_cfamfo</title>
<polygon fill="none" stroke="black" points="1464.44,-489 1211.44,-489 1211.44,-465 1464.44,-465 1476.44,-477 1464.44,-489"/>
<text text-anchor="middle" x="1343.94" y="-473.3" font-family="Times,serif" font-size="14.00">L2b_pol_pc CFAM filter offsets 1..1</text>
</g>
<!-- l2b_pol_pc_cfamfo&#45;&gt;trans_pol_pc_l2b_l3 -->
<g id="edge28" class="edge">
<title>l2b_pol_pc_cfamfo&#45;&gt;trans_pol_pc_l2b_l3</title>
<path fill="none" stroke="black" d="M1476.54,-477C1476.54,-477 1532.75,-477 1532.75,-477"/>
<polygon fill="black" stroke="black" points="1532.75,-480.5 1542.75,-477 1532.75,-473.5 1532.75,-480.5"/>
</g>
<!-- l3_pol_pc_prod&#45;&gt;trans_pol_pc_l3_l4 -->
<g id="edge32" class="edge">
<title>l3_pol_pc_prod&#45;&gt;trans_pol_pc_l3_l4</title>
<path fill="none" stroke="black" stroke-dasharray="5,2" d="M2034.97,-585C2034.97,-585 2114.55,-585 2114.55,-585"/>
<polygon fill="black" stroke="black" points="2114.55,-588.5 2124.55,-585 2114.55,-581.5 2114.55,-588.5"/>
</g>
<!-- l3_pol_pc_odir -->
<g id="node31" class="node">
<title>l3_pol_pc_odir</title>
<ellipse fill="none" stroke="black" cx="1942.16" cy="-747" rx="133.78" ry="18"/>
<text text-anchor="middle" x="1942.16" y="-743.3" font-family="Times,serif" font-size="14.00">L3_pol_pc output path 1..1</text>
</g>
<!-- l3_pol_pc_odir&#45;&gt;trans_pol_pc_l3_l4 -->
<g id="edge34" class="edge">
<title>l3_pol_pc_odir&#45;&gt;trans_pol_pc_l3_l4</title>
<path fill="none" stroke="black" d="M2074.79,-744.46C2074.79,-744.46 2163.6,-744.46 2163.6,-744.46"/>
<polygon fill="black" stroke="black" points="2163.6,-747.96 2173.6,-744.46 2163.6,-740.96 2163.6,-747.96"/>
</g>
<!-- l3_pol_pc_man&#45;&gt;trans_pol_pc_l3_l4 -->
<g id="edge33" class="edge">
<title>l3_pol_pc_man&#45;&gt;trans_pol_pc_l3_l4</title>
<path fill="none" stroke="black" d="M2061.28,-533.54C2061.28,-533.54 2163.73,-533.54 2163.73,-533.54"/>
<polygon fill="black" stroke="black" points="2163.73,-537.04 2173.73,-533.54 2163.73,-530.04 2163.73,-537.04"/>
</g>
<!-- l3_pol_pc_rec -->
<g id="node33" class="node">
<title>l3_pol_pc_rec</title>
<polygon fill="none" stroke="black" points="2013.66,-705 1858.66,-705 1858.66,-681 2013.66,-681 2025.66,-693 2013.66,-705"/>
<text text-anchor="middle" x="1942.16" y="-689.3" font-family="Times,serif" font-size="14.00">L3_pol_pc recipe 1..1</text>
</g>
<!-- l3_pol_pc_rec&#45;&gt;trans_pol_pc_l3_l4 -->
<g id="edge35" class="edge">
<title>l3_pol_pc_rec&#45;&gt;trans_pol_pc_l3_l4</title>
<path fill="none" stroke="black" d="M2025.88,-693C2025.88,-693 2114.63,-693 2114.63,-693"/>
<polygon fill="black" stroke="black" points="2114.63,-696.5 2124.63,-693 2114.63,-689.5 2114.63,-696.5"/>
</g>
<!-- l3_pol_pc_mueller -->
<g id="node34" class="node">
<title>l3_pol_pc_mueller</title>
<polygon fill="none" stroke="black" points="2044.66,-651 1827.66,-651 1827.66,-627 2044.66,-627 2056.66,-639 2044.66,-651"/>
<text text-anchor="middle" x="1942.16" y="-635.3" font-family="Times,serif" font-size="14.00">L3_pol_pc mueller matrix 1..1</text>
</g>
<!-- l3_pol_pc_mueller&#45;&gt;trans_pol_pc_l3_l4 -->
<g id="edge36" class="edge">
<title>l3_pol_pc_mueller&#45;&gt;trans_pol_pc_l3_l4</title>
<path fill="none" stroke="black" d="M2056.67,-639C2056.67,-639 2101.85,-639 2101.85,-639"/>
<polygon fill="black" stroke="black" points="2101.85,-642.5 2111.85,-639 2101.85,-635.5 2101.85,-642.5"/>
</g>
<!-- l4_pol_pc_prod&#45;&gt;trans_pol_pc_l4_tda -->
<g id="edge40" class="edge">
<title>l4_pol_pc_prod&#45;&gt;trans_pol_pc_l4_tda</title>
<path fill="none" stroke="black" stroke-dasharray="5,2" d="M2675.9,-693C2675.9,-693 2833.78,-693 2833.78,-693"/>
<polygon fill="black" stroke="black" points="2833.78,-696.5 2843.78,-693 2833.78,-689.5 2833.78,-696.5"/>
</g>
<!-- l4_pol_pc_man&#45;&gt;trans_pol_pc_l4_tda -->
<g id="edge41" class="edge">
<title>l4_pol_pc_man&#45;&gt;trans_pol_pc_l4_tda</title>
<path fill="none" stroke="black" d="M2690.99,-593.06C2690.99,-613.55 2690.99,-666 2690.99,-666 2690.99,-666 2869.3,-666 2869.3,-666"/>
<polygon fill="black" stroke="black" points="2869.3,-669.5 2879.3,-666 2869.3,-662.5 2869.3,-669.5"/>
</g>
<!-- l4_pol_pc_odir -->
<g id="node39" class="node">
<title>l4_pol_pc_odir</title>
<ellipse fill="none" stroke="black" cx="2583.37" cy="-909" rx="133.78" ry="18"/>
<text text-anchor="middle" x="2583.37" y="-905.3" font-family="Times,serif" font-size="14.00">L4_pol_pc output path 1..1</text>
</g>
<!-- l4_pol_pc_odir&#45;&gt;trans_pol_pc_l4_tda -->
<g id="edge42" class="edge">
<title>l4_pol_pc_odir&#45;&gt;trans_pol_pc_l4_tda</title>
<path fill="none" stroke="black" d="M2692.99,-898.64C2692.99,-891.02 2692.99,-882 2692.99,-882 2692.99,-882 2869.15,-882 2869.15,-882"/>
<polygon fill="black" stroke="black" points="2869.15,-885.5 2879.15,-882 2869.15,-878.5 2869.15,-885.5"/>
</g>
<!-- l4_pol_pc_rec -->
<g id="node40" class="node">
<title>l4_pol_pc_rec</title>
<polygon fill="none" stroke="black" points="2654.87,-867 2499.87,-867 2499.87,-843 2654.87,-843 2666.87,-855 2654.87,-867"/>
<text text-anchor="middle" x="2583.37" y="-851.3" font-family="Times,serif" font-size="14.00">L4_pol_pc recipe 1..1</text>
</g>
<!-- l4_pol_pc_rec&#45;&gt;trans_pol_pc_l4_tda -->
<g id="edge43" class="edge">
<title>l4_pol_pc_rec&#45;&gt;trans_pol_pc_l4_tda</title>
<path fill="none" stroke="black" d="M2667.31,-855C2667.31,-855 2833.8,-855 2833.8,-855"/>
<polygon fill="black" stroke="black" points="2833.8,-858.5 2843.8,-855 2833.8,-851.5 2833.8,-858.5"/>
</g>
<!-- l4_pol_pc_ctcal -->
<g id="node41" class="node">
<title>l4_pol_pc_ctcal</title>
<polygon fill="none" stroke="black" points="2734.87,-813 2419.87,-813 2419.87,-789 2734.87,-789 2746.87,-801 2734.87,-813"/>
<text text-anchor="middle" x="2583.37" y="-797.3" font-family="Times,serif" font-size="14.00">L4_pol_pc core throughput calibrations 1..1</text>
</g>
<!-- l4_pol_pc_ctcal&#45;&gt;trans_pol_pc_l4_tda -->
<g id="edge44" class="edge">
<title>l4_pol_pc_ctcal&#45;&gt;trans_pol_pc_l4_tda</title>
<path fill="none" stroke="black" d="M2747.04,-801C2747.04,-801 2805.75,-801 2805.75,-801"/>
<polygon fill="black" stroke="black" points="2805.75,-804.5 2815.75,-801 2805.75,-797.5 2805.75,-804.5"/>
</g>
<!-- l4_pol_pc_afcal -->
<g id="node42" class="node">
<title>l4_pol_pc_afcal</title>
<polygon fill="none" stroke="black" points="2764.87,-759 2389.87,-759 2389.87,-735 2764.87,-735 2776.87,-747 2764.87,-759"/>
<text text-anchor="middle" x="2583.37" y="-743.3" font-family="Times,serif" font-size="14.00">L4_pol_pc polarimetric absolute flux calibration 1..1</text>
</g>
<!-- l4_pol_pc_afcal&#45;&gt;trans_pol_pc_l4_tda -->
<g id="edge45" class="edge">
<title>l4_pol_pc_afcal&#45;&gt;trans_pol_pc_l4_tda</title>
<path fill="none" stroke="black" d="M2777.03,-747C2777.03,-747 2805.72,-747 2805.72,-747"/>
<polygon fill="black" stroke="black" points="2805.72,-750.5 2815.72,-747 2805.72,-743.5 2805.72,-750.5"/>
</g>
<!-- tda_pol_pc_man -->
<g id="node43" class="node">
<title>tda_pol_pc_man</title>
<ellipse fill="none" stroke="black" cx="133.89" cy="-288" rx="128.08" ry="18"/>
<text text-anchor="middle" x="133.89" y="-284.3" font-family="Times,serif" font-size="14.00">TDA_pol_pc manifest 1..1</text>
</g>
</g>
</svg>
