<?xml version="1.0" encoding="UTF-8" standalone="no"?>
<!DOCTYPE svg PUBLIC "-//W3C//DTD SVG 1.1//EN"
 "http://www.w3.org/Graphics/SVG/1.1/DTD/svg11.dtd">
<!-- Generated by graphviz version 2.43.0 (0)
 -->
<!-- Title: AbstractDesign Pages: 1 -->
<svg width="3608pt" height="944pt"
 viewBox="0.00 0.00 3608.45 944.00" xmlns="http://www.w3.org/2000/svg" xmlns:xlink="http://www.w3.org/1999/xlink">
<g id="graph0" class="graph" transform="scale(1 1) rotate(0) translate(4 940)">
<title>AbstractDesign</title>
<polygon fill="white" stroke="transparent" points="-4,4 -4,-940 3604.45,-940 3604.45,4 -4,4"/>
<!-- trans_pol_pc_l1_l2a -->
<g id="node1" class="node">
<title>trans_pol_pc_l1_l2a</title>
<ellipse fill="none" stroke="black" cx="346.65" cy="-126" rx="96.33" ry="96.33"/>
<text text-anchor="middle" x="346.65" y="-129.8" font-family="Times,serif" font-size="14.00">pol_pc Transmutation</text>
<text text-anchor="middle" x="346.65" y="-114.8" font-family="Times,serif" font-size="14.00">L1 to L2a</text>
</g>
<!-- l2a_pol_pc_prod -->
<g id="node13" class="node">
<title>l2a_pol_pc_prod</title>
<polygon fill="none" stroke="black" points="880.33,-245 724.33,-245 724.33,-209 880.33,-209 880.33,-245"/>
<text text-anchor="middle" x="802.33" y="-223.3" font-family="Times,serif" font-size="14.00">L2a_pol_pc products 1..b</text>
</g>
<!-- trans_pol_pc_l1_l2a&#45;&gt;l2a_pol_pc_prod -->
<g id="edge6" class="edge">
<title>trans_pol_pc_l1_l2a&#45;&gt;l2a_pol_pc_prod</title>
<path fill="none" stroke="black" d="M381.65,-215.58C381.65,-215.58 714.12,-215.58 714.12,-215.58"/>
<polygon fill="black" stroke="black" points="714.12,-219.08 724.12,-215.58 714.12,-212.08 714.12,-219.08"/>
</g>
<!-- l2a_pol_pc_man -->
<g id="node14" class="node">
<title>l2a_pol_pc_man</title>
<ellipse fill="none" stroke="black" cx="580.85" cy="-126" rx="102.08" ry="18"/>
<text text-anchor="middle" x="580.85" y="-122.3" font-family="Times,serif" font-size="14.00">L2a_pol_pc manifest 1..1</text>
</g>
<!-- trans_pol_pc_l1_l2a&#45;&gt;l2a_pol_pc_man -->
<g id="edge7" class="edge">
<title>trans_pol_pc_l1_l2a&#45;&gt;l2a_pol_pc_man</title>
<path fill="none" stroke="black" d="M442.92,-126C442.92,-126 468.5,-126 468.5,-126"/>
<polygon fill="black" stroke="black" points="468.5,-129.5 478.5,-126 468.5,-122.5 468.5,-129.5"/>
</g>
<!-- l2a_pol_pc_log -->
<g id="node22" class="node">
<title>l2a_pol_pc_log</title>
<ellipse fill="none" stroke="black" cx="580.85" cy="-72" rx="82.59" ry="18"/>
<text text-anchor="middle" x="580.85" y="-68.3" font-family="Times,serif" font-size="14.00">L2a log_pol_pc 1..1</text>
</g>
<!-- trans_pol_pc_l1_l2a&#45;&gt;l2a_pol_pc_log -->
<g id="edge8" class="edge">
<title>trans_pol_pc_l1_l2a&#45;&gt;l2a_pol_pc_log</title>
<path fill="none" stroke="black" d="M426.27,-72C426.27,-72 488.26,-72 488.26,-72"/>
<polygon fill="black" stroke="black" points="488.26,-75.5 498.26,-72 488.26,-68.5 488.26,-75.5"/>
</g>
<!-- l2a_pol_pc_demux -->
<g id="node2" class="node">
<title>l2a_pol_pc_demux</title>
<ellipse fill="none" stroke="black" cx="802.33" cy="-108" rx="83.38" ry="83.38"/>
<text text-anchor="middle" x="802.33" y="-111.8" font-family="Times,serif" font-size="14.00">pol_pc l2a Demux</text>
<text text-anchor="middle" x="802.33" y="-96.8" font-family="Times,serif" font-size="14.00">Exposure</text>
</g>
<!-- l2a_pol_pc_man_demux -->
<g id="node23" class="node">
<title>l2a_pol_pc_man_demux</title>
<ellipse fill="none" stroke="black" cx="1048.27" cy="-144" rx="113.18" ry="18"/>
<text text-anchor="middle" x="1048.27" y="-140.3" font-family="Times,serif" font-size="14.00">L2a_pol_pc(E) manifest 1..1</text>
</g>
<!-- l2a_pol_pc_demux&#45;&gt;l2a_pol_pc_man_demux -->
<g id="edge21" class="edge">
<title>l2a_pol_pc_demux&#45;&gt;l2a_pol_pc_man_demux</title>
<path fill="none" stroke="black" d="M877.8,-144C877.8,-144 924.93,-144 924.93,-144"/>
<polygon fill="black" stroke="black" points="924.93,-147.5 934.93,-144 924.93,-140.5 924.93,-147.5"/>
</g>
<!-- trans_pol_pc_l2a_l2b -->
<g id="node3" class="node">
<title>trans_pol_pc_l2a_l2b</title>
<ellipse fill="none" stroke="black" cx="1306.94" cy="-362" rx="96.33" ry="96.33"/>
<text text-anchor="middle" x="1306.94" y="-365.8" font-family="Times,serif" font-size="14.00">pol_pc Transmutation</text>
<text text-anchor="middle" x="1306.94" y="-350.8" font-family="Times,serif" font-size="14.00">L2a to L2b</text>
</g>
<!-- l2b_pol_pc_prod -->
<g id="node24" class="node">
<title>l2b_pol_pc_prod</title>
<polygon fill="none" stroke="black" points="1859.59,-474 1702.59,-474 1702.59,-438 1859.59,-438 1859.59,-474"/>
<text text-anchor="middle" x="1781.09" y="-452.3" font-family="Times,serif" font-size="14.00">L2b_pol_pc products 1..1</text>
</g>
<!-- trans_pol_pc_l2a_l2b&#45;&gt;l2b_pol_pc_prod -->
<g id="edge17" class="edge">
<title>trans_pol_pc_l2a_l2b&#45;&gt;l2b_pol_pc_prod</title>
<path fill="none" stroke="black" d="M1349.85,-448.08C1349.85,-448.08 1692.42,-448.08 1692.42,-448.08"/>
<polygon fill="black" stroke="black" points="1692.42,-451.58 1702.42,-448.08 1692.42,-444.58 1692.42,-451.58"/>
</g>
<!-- l2b_pol_pc_man_demux -->
<g id="node31" class="node">
<title>l2b_pol_pc_man_demux</title>
<ellipse fill="none" stroke="black" cx="1552.85" cy="-362" rx="113.98" ry="18"/>
<text text-anchor="middle" x="1552.85" y="-358.3" font-family="Times,serif" font-size="14.00">L2b_pol_pc(E) manifest 1..1</text>
</g>
<!-- trans_pol_pc_l2a_l2b&#45;&gt;l2b_pol_pc_man_demux -->
<g id="edge18" class="edge">
<title>trans_pol_pc_l2a_l2b&#45;&gt;l2b_pol_pc_man_demux</title>
<path fill="none" stroke="black" d="M1403.42,-362C1403.42,-362 1429.1,-362 1429.1,-362"/>
<polygon fill="black" stroke="black" points="1429.1,-365.5 1439.1,-362 1429.1,-358.5 1429.1,-365.5"/>
</g>
<!-- l2b_pol_pc_log -->
<g id="node32" class="node">
<title>l2b_pol_pc_log</title>
<ellipse fill="none" stroke="black" cx="1552.85" cy="-308" rx="83.39" ry="18"/>
<text text-anchor="middle" x="1552.85" y="-304.3" font-family="Times,serif" font-size="14.00">L2b_pol_pc log 1..1</text>
</g>
<!-- trans_pol_pc_l2a_l2b&#45;&gt;l2b_pol_pc_log -->
<g id="edge19" class="edge">
<title>trans_pol_pc_l2a_l2b&#45;&gt;l2b_pol_pc_log</title>
<path fill="none" stroke="black" d="M1386.78,-308C1386.78,-308 1459.61,-308 1459.61,-308"/>
<polygon fill="black" stroke="black" points="1459.61,-311.5 1469.61,-308 1459.61,-304.5 1459.61,-311.5"/>
</g>
<!-- l2b_pol_pc_mux -->
<g id="node4" class="node">
<title>l2b_pol_pc_mux</title>
<ellipse fill="none" stroke="black" cx="1781.09" cy="-346" rx="73.58" ry="73.58"/>
<text text-anchor="middle" x="1781.09" y="-349.8" font-family="Times,serif" font-size="14.00">pol_pc l2b Mux</text>
<text text-anchor="middle" x="1781.09" y="-334.8" font-family="Times,serif" font-size="14.00">Exposure</text>
</g>
<!-- l2b_pol_pc_man -->
<g id="node25" class="node">
<title>l2b_pol_pc_man</title>
<ellipse fill="none" stroke="black" cx="2021.09" cy="-378" rx="102.88" ry="18"/>
<text text-anchor="middle" x="2021.09" y="-374.3" font-family="Times,serif" font-size="14.00">L2b_pol_pc manifest 1..1</text>
</g>
<!-- l2b_pol_pc_mux&#45;&gt;l2b_pol_pc_man -->
<g id="edge24" class="edge">
<title>l2b_pol_pc_mux&#45;&gt;l2b_pol_pc_man</title>
<path fill="none" stroke="black" d="M1847.3,-378C1847.3,-378 1908.18,-378 1908.18,-378"/>
<polygon fill="black" stroke="black" points="1908.18,-381.5 1918.18,-378 1908.18,-374.5 1908.18,-381.5"/>
</g>
<!-- trans_pol_pc_l2b_l3 -->
<g id="node5" class="node">
<title>trans_pol_pc_l2b_l3</title>
<ellipse fill="none" stroke="black" cx="2278.75" cy="-540" rx="96.33" ry="96.33"/>
<text text-anchor="middle" x="2278.75" y="-543.8" font-family="Times,serif" font-size="14.00">pol_pc Transmutation</text>
<text text-anchor="middle" x="2278.75" y="-528.8" font-family="Times,serif" font-size="14.00">L2b to L3</text>
</g>
<!-- l3_pol_pc_prod -->
<g id="node33" class="node">
<title>l3_pol_pc_prod</title>
<polygon fill="none" stroke="black" points="2593.16,-612 2443.16,-612 2443.16,-576 2593.16,-576 2593.16,-612"/>
<text text-anchor="middle" x="2518.16" y="-590.3" font-family="Times,serif" font-size="14.00">L3_pol_pc products 1..1</text>
</g>
<!-- trans_pol_pc_l2b_l3&#45;&gt;l3_pol_pc_prod -->
<g id="edge32" class="edge">
<title>trans_pol_pc_l2b_l3&#45;&gt;l3_pol_pc_prod</title>
<path fill="none" stroke="black" d="M2358.47,-594C2358.47,-594 2432.84,-594 2432.84,-594"/>
<polygon fill="black" stroke="black" points="2432.84,-597.5 2442.84,-594 2432.84,-590.5 2432.84,-597.5"/>
</g>
<!-- l3_pol_pc_man -->
<g id="node35" class="node">
<title>l3_pol_pc_man</title>
<ellipse fill="none" stroke="black" cx="2518.16" cy="-540" rx="98.28" ry="18"/>
<text text-anchor="middle" x="2518.16" y="-536.3" font-family="Times,serif" font-size="14.00">L3_pol_pc manifest 1..1</text>
</g>
<!-- trans_pol_pc_l2b_l3&#45;&gt;l3_pol_pc_man -->
<g id="edge33" class="edge">
<title>trans_pol_pc_l2b_l3&#45;&gt;l3_pol_pc_man</title>
<path fill="none" stroke="black" d="M2375.09,-540C2375.09,-540 2409.67,-540 2409.67,-540"/>
<polygon fill="black" stroke="black" points="2409.67,-543.5 2419.67,-540 2409.67,-536.5 2409.67,-543.5"/>
</g>
<!-- l3_pol_pc_log -->
<g id="node38" class="node">
<title>l3_pol_pc_log</title>
<ellipse fill="none" stroke="black" cx="2518.16" cy="-486" rx="78.79" ry="18"/>
<text text-anchor="middle" x="2518.16" y="-482.3" font-family="Times,serif" font-size="14.00">L3_pol_pc log 1..1</text>
</g>
<!-- trans_pol_pc_l2b_l3&#45;&gt;l3_pol_pc_log -->
<g id="edge34" class="edge">
<title>trans_pol_pc_l2b_l3&#45;&gt;l3_pol_pc_log</title>
<path fill="none" stroke="black" d="M2358.47,-486C2358.47,-486 2429.2,-486 2429.2,-486"/>
<polygon fill="black" stroke="black" points="2429.2,-489.5 2439.2,-486 2429.2,-482.5 2429.2,-489.5"/>
</g>
<!-- trans_pol_pc_l3_l4 -->
<g id="node6" class="node">
<title>trans_pol_pc_l3_l4</title>
<ellipse fill="none" stroke="black" cx="2757.57" cy="-648" rx="96.33" ry="96.33"/>
<text text-anchor="middle" x="2757.57" y="-651.8" font-family="Times,serif" font-size="14.00">pol_pc Transmutation</text>
<text text-anchor="middle" x="2757.57" y="-636.8" font-family="Times,serif" font-size="14.00">L3 to L4</text>
</g>
<!-- l4_pol_pc_prod -->
<g id="node39" class="node">
<title>l4_pol_pc_prod</title>
<polygon fill="none" stroke="black" points="3117.73,-720 2967.73,-720 2967.73,-684 3117.73,-684 3117.73,-720"/>
<text text-anchor="middle" x="3042.73" y="-698.3" font-family="Times,serif" font-size="14.00">L4_pol_pc products 1..1</text>
</g>
<!-- trans_pol_pc_l3_l4&#45;&gt;l4_pol_pc_prod -->
<g id="edge40" class="edge">
<title>trans_pol_pc_l3_l4&#45;&gt;l4_pol_pc_prod</title>
<path fill="none" stroke="black" d="M2837.38,-702C2837.38,-702 2957.35,-702 2957.35,-702"/>
<polygon fill="black" stroke="black" points="2957.35,-705.5 2967.35,-702 2957.35,-698.5 2957.35,-705.5"/>
</g>
<!-- l4_pol_pc_log -->
<g id="node40" class="node">
<title>l4_pol_pc_log</title>
<ellipse fill="none" stroke="black" cx="3042.73" cy="-648" rx="78.79" ry="18"/>
<text text-anchor="middle" x="3042.73" y="-644.3" font-family="Times,serif" font-size="14.00">L4_pol_pc log 1..1</text>
</g>
<!-- trans_pol_pc_l3_l4&#45;&gt;l4_pol_pc_log -->
<g id="edge41" class="edge">
<title>trans_pol_pc_l3_l4&#45;&gt;l4_pol_pc_log</title>
<path fill="none" stroke="black" d="M2854.11,-648C2854.11,-648 2953.81,-648 2953.81,-648"/>
<polygon fill="black" stroke="black" points="2953.81,-651.5 2963.81,-648 2953.81,-644.5 2953.81,-651.5"/>
</g>
<!-- l4_pol_pc_man -->
<g id="node41" class="node">
<title>l4_pol_pc_man</title>
<ellipse fill="none" stroke="black" cx="3042.73" cy="-594" rx="98.28" ry="18"/>
<text text-anchor="middle" x="3042.73" y="-590.3" font-family="Times,serif" font-size="14.00">L4_pol_pc manifest 1..1</text>
</g>
<!-- trans_pol_pc_l3_l4&#45;&gt;l4_pol_pc_man -->
<g id="edge42" class="edge">
<title>trans_pol_pc_l3_l4&#45;&gt;l4_pol_pc_man</title>
<path fill="none" stroke="black" d="M2837.38,-594C2837.38,-594 2934.4,-594 2934.4,-594"/>
<polygon fill="black" stroke="black" points="2934.4,-597.5 2944.4,-594 2934.4,-590.5 2934.4,-597.5"/>
</g>
<!-- trans_pol_pc_l4_tda -->
<g id="node7" class="node">
<title>trans_pol_pc_l4_tda</title>
<ellipse fill="none" stroke="black" cx="3327.9" cy="-783" rx="96.33" ry="96.33"/>
<text text-anchor="middle" x="3327.9" y="-786.8" font-family="Times,serif" font-size="14.00">pol_pc Transmutation</text>
<text text-anchor="middle" x="3327.9" y="-771.8" font-family="Times,serif" font-size="14.00">L4 to TDA</text>
</g>
<!-- tda_pol_pc_prod -->
<g id="node46" class="node">
<title>tda_pol_pc_prod</title>
<ellipse fill="none" stroke="black" cx="3530.26" cy="-810" rx="70.39" ry="18"/>
<text text-anchor="middle" x="3530.26" y="-806.3" font-family="Times,serif" font-size="14.00">tda_pol_pc_prod</text>
</g>
<!-- trans_pol_pc_l4_tda&#45;&gt;tda_pol_pc_prod -->
<g id="edge49" class="edge">
<title>trans_pol_pc_l4_tda&#45;&gt;tda_pol_pc_prod</title>
<path fill="none" stroke="black" d="M3420.49,-810C3420.49,-810 3449.82,-810 3449.82,-810"/>
<polygon fill="black" stroke="black" points="3449.82,-813.5 3459.82,-810 3449.82,-806.5 3449.82,-813.5"/>
</g>
<!-- tda_pol_pc_log -->
<g id="node47" class="node">
<title>tda_pol_pc_log</title>
<ellipse fill="none" stroke="black" cx="3530.26" cy="-756" rx="65.79" ry="18"/>
<text text-anchor="middle" x="3530.26" y="-752.3" font-family="Times,serif" font-size="14.00">tda_pol_pc_log</text>
</g>
<!-- trans_pol_pc_l4_tda&#45;&gt;tda_pol_pc_log -->
<g id="edge50" class="edge">
<title>trans_pol_pc_l4_tda&#45;&gt;tda_pol_pc_log</title>
<path fill="none" stroke="black" d="M3420.49,-756C3420.49,-756 3454.59,-756 3454.59,-756"/>
<polygon fill="black" stroke="black" points="3454.59,-759.5 3464.59,-756 3454.59,-752.5 3454.59,-759.5"/>
</g>
<!-- l1_pol_pc_prod -->
<g id="node8" class="node">
<title>l1_pol_pc_prod</title>
<polygon fill="none" stroke="black" points="182.24,-252 32.24,-252 32.24,-216 182.24,-216 182.24,-252"/>
<text text-anchor="middle" x="107.24" y="-230.3" font-family="Times,serif" font-size="14.00">L1_pol_pc products 1..b</text>
</g>
<!-- l1_pol_pc_prod&#45;&gt;trans_pol_pc_l1_l2a -->
<g id="edge1" class="edge">
<title>l1_pol_pc_prod&#45;&gt;trans_pol_pc_l1_l2a</title>
<path fill="none" stroke="black" d="M107.45,-215.84C107.45,-210.96 107.45,-207 107.45,-207 107.45,-207 284.75,-207 284.75,-207"/>
<polygon fill="black" stroke="black" points="284.75,-210.5 294.75,-207 284.75,-203.5 284.75,-210.5"/>
</g>
<!-- l1_pol_pc_man -->
<g id="node9" class="node">
<title>l1_pol_pc_man</title>
<ellipse fill="none" stroke="black" cx="107.24" cy="-180" rx="98.28" ry="18"/>
<text text-anchor="middle" x="107.24" y="-176.3" font-family="Times,serif" font-size="14.00">L1_pol_pc manifest 1..1</text>
</g>
<!-- l1_pol_pc_man&#45;&gt;trans_pol_pc_l1_l2a -->
<g id="edge2" class="edge">
<title>l1_pol_pc_man&#45;&gt;trans_pol_pc_l1_l2a</title>
<path fill="none" stroke="black" d="M205.65,-180C205.65,-180 256.87,-180 256.87,-180"/>
<polygon fill="black" stroke="black" points="256.87,-183.5 266.87,-180 256.87,-176.5 256.87,-183.5"/>
</g>
<!-- l1_pol_pc_odir -->
<g id="node10" class="node">
<title>l1_pol_pc_odir</title>
<ellipse fill="none" stroke="black" cx="107.24" cy="-126" rx="107.48" ry="18"/>
<text text-anchor="middle" x="107.24" y="-122.3" font-family="Times,serif" font-size="14.00">L1_pol_pc output path 1..1</text>
</g>
<!-- l1_pol_pc_odir&#45;&gt;trans_pol_pc_l1_l2a -->
<g id="edge3" class="edge">
<title>l1_pol_pc_odir&#45;&gt;trans_pol_pc_l1_l2a</title>
<path fill="none" stroke="black" d="M214.69,-126C214.69,-126 240.13,-126 240.13,-126"/>
<polygon fill="black" stroke="black" points="240.13,-129.5 250.13,-126 240.13,-122.5 240.13,-129.5"/>
</g>
<!-- l1_pol_pc_rec -->
<g id="node11" class="node">
<title>l1_pol_pc_rec</title>
<polygon fill="none" stroke="black" points="163.74,-84 38.74,-84 38.74,-60 163.74,-60 175.74,-72 163.74,-84"/>
<text text-anchor="middle" x="107.24" y="-68.3" font-family="Times,serif" font-size="14.00">L1_pol_pc recipe 1..1</text>
</g>
<!-- l1_pol_pc_rec&#45;&gt;trans_pol_pc_l1_l2a -->
<g id="edge4" class="edge">
<title>l1_pol_pc_rec&#45;&gt;trans_pol_pc_l1_l2a</title>
<path fill="none" stroke="black" d="M175.84,-72C175.84,-72 257.05,-72 257.05,-72"/>
<polygon fill="black" stroke="black" points="257.05,-75.5 267.05,-72 257.05,-68.5 257.05,-75.5"/>
</g>
<!-- l1_pol_pc_nln -->
<g id="node12" class="node">
<title>l1_pol_pc_nln</title>
<polygon fill="none" stroke="black" points="200.74,-30 1.74,-30 1.74,-6 200.74,-6 212.74,-18 200.74,-30"/>
<text text-anchor="middle" x="107.24" y="-14.3" font-family="Times,serif" font-size="14.00">L1_pol_pc non&#45;linear &amp; Kgain 1..1</text>
</g>
<!-- l1_pol_pc_nln&#45;&gt;trans_pol_pc_l1_l2a -->
<g id="edge5" class="edge">
<title>l1_pol_pc_nln&#45;&gt;trans_pol_pc_l1_l2a</title>
<path fill="none" stroke="black" d="M194.45,-36.16C194.45,-41.04 194.45,-45 194.45,-45 194.45,-45 284.7,-45 284.7,-45"/>
<polygon fill="black" stroke="black" points="284.7,-48.5 294.7,-45 284.7,-41.5 284.7,-48.5"/>
</g>
<!-- l2a_pol_pc_prod&#45;&gt;trans_pol_pc_l2a_l2b -->
<g id="edge9" class="edge">
<title>l2a_pol_pc_prod&#45;&gt;trans_pol_pc_l2a_l2b</title>
<path fill="none" stroke="black" d="M802.45,-245.04C802.45,-261.73 802.45,-284 802.45,-284 802.45,-284 1240.54,-284 1240.54,-284"/>
<polygon fill="black" stroke="black" points="1240.54,-287.5 1250.54,-284 1240.54,-280.5 1240.54,-287.5"/>
</g>
<!-- l2a_pol_pc_man&#45;&gt;l2a_pol_pc_demux -->
<g id="edge20" class="edge">
<title>l2a_pol_pc_man&#45;&gt;l2a_pol_pc_demux</title>
<path fill="none" stroke="black" d="M683.17,-126C683.17,-126 710.69,-126 710.69,-126"/>
<polygon fill="black" stroke="black" points="710.69,-129.5 720.69,-126 710.69,-122.5 710.69,-129.5"/>
</g>
<!-- l2a_pol_pc_odir -->
<g id="node15" class="node">
<title>l2a_pol_pc_odir</title>
<ellipse fill="none" stroke="black" cx="1048.27" cy="-578" rx="111.28" ry="18"/>
<text text-anchor="middle" x="1048.27" y="-574.3" font-family="Times,serif" font-size="14.00">L2a_pol_pc output path 1..1</text>
</g>
<!-- l2a_pol_pc_odir&#45;&gt;trans_pol_pc_l2a_l2b -->
<g id="edge10" class="edge">
<title>l2a_pol_pc_odir&#45;&gt;trans_pol_pc_l2a_l2b</title>
<path fill="none" stroke="black" d="M1140.85,-568C1231.3,-568 1355.45,-568 1355.45,-568 1355.45,-568 1355.45,-455.19 1355.45,-455.19"/>
<polygon fill="black" stroke="black" points="1358.95,-455.19 1355.45,-445.19 1351.95,-455.19 1358.95,-455.19"/>
</g>
<!-- l2a_pol_pc_rec -->
<g id="node16" class="node">
<title>l2a_pol_pc_rec</title>
<polygon fill="none" stroke="black" points="1107.77,-536 976.77,-536 976.77,-512 1107.77,-512 1119.77,-524 1107.77,-536"/>
<text text-anchor="middle" x="1048.27" y="-520.3" font-family="Times,serif" font-size="14.00">L2a_pol_pc recipe 1..1</text>
</g>
<!-- l2a_pol_pc_rec&#45;&gt;trans_pol_pc_l2a_l2b -->
<g id="edge11" class="edge">
<title>l2a_pol_pc_rec&#45;&gt;trans_pol_pc_l2a_l2b</title>
<path fill="none" stroke="black" d="M1119.78,-514C1196.5,-514 1307.45,-514 1307.45,-514 1307.45,-514 1307.45,-468.26 1307.45,-468.26"/>
<polygon fill="black" stroke="black" points="1310.95,-468.26 1307.45,-458.26 1303.95,-468.26 1310.95,-468.26"/>
</g>
<!-- l2a_pol_pc_cti -->
<g id="node17" class="node">
<title>l2a_pol_pc_cti</title>
<polygon fill="none" stroke="black" points="1155.77,-482 928.77,-482 928.77,-458 1155.77,-458 1167.77,-470 1155.77,-482"/>
<text text-anchor="middle" x="1048.27" y="-466.3" font-family="Times,serif" font-size="14.00">L2a_pol_pc charge xfer inefficiency 1..1</text>
</g>
<!-- l2a_pol_pc_cti&#45;&gt;trans_pol_pc_l2a_l2b -->
<g id="edge12" class="edge">
<title>l2a_pol_pc_cti&#45;&gt;trans_pol_pc_l2a_l2b</title>
<path fill="none" stroke="black" d="M1168.06,-466.08C1215.72,-466.08 1259.45,-466.08 1259.45,-466.08 1259.45,-466.08 1259.45,-456.01 1259.45,-456.01"/>
<polygon fill="black" stroke="black" points="1262.95,-456.01 1259.45,-446.01 1255.95,-456.01 1262.95,-456.01"/>
</g>
<!-- l2a_pol_pc_dnb -->
<g id="node18" class="node">
<title>l2a_pol_pc_dnb</title>
<polygon fill="none" stroke="black" points="1162.77,-428 921.77,-428 921.77,-404 1162.77,-404 1174.77,-416 1162.77,-428"/>
<text text-anchor="middle" x="1048.27" y="-412.3" font-family="Times,serif" font-size="14.00">L2a_pol_pc detector noise background 1..1</text>
</g>
<!-- l2a_pol_pc_dnb&#45;&gt;trans_pol_pc_l2a_l2b -->
<g id="edge13" class="edge">
<title>l2a_pol_pc_dnb&#45;&gt;trans_pol_pc_l2a_l2b</title>
<path fill="none" stroke="black" d="M1174.95,-416C1174.95,-416 1217.19,-416 1217.19,-416"/>
<polygon fill="black" stroke="black" points="1217.19,-419.5 1227.19,-416 1217.19,-412.5 1217.19,-419.5"/>
</g>
<!-- l2a_pol_pc_mbpm -->
<g id="node19" class="node">
<title>l2a_pol_pc_mbpm</title>
<polygon fill="none" stroke="black" points="1150.27,-374 934.27,-374 934.27,-350 1150.27,-350 1162.27,-362 1150.27,-374"/>
<text text-anchor="middle" x="1048.27" y="-358.3" font-family="Times,serif" font-size="14.00">L2a_pol_pc master bad pixel map 1..1</text>
</g>
<!-- l2a_pol_pc_mbpm&#45;&gt;trans_pol_pc_l2a_l2b -->
<g id="edge14" class="edge">
<title>l2a_pol_pc_mbpm&#45;&gt;trans_pol_pc_l2a_l2b</title>
<path fill="none" stroke="black" d="M1162.48,-362C1162.48,-362 1200.73,-362 1200.73,-362"/>
<polygon fill="black" stroke="black" points="1200.73,-365.5 1210.73,-362 1200.73,-358.5 1200.73,-365.5"/>
</g>
<!-- l2a_pol_pc_emg -->
<g id="node20" class="node">
<title>l2a_pol_pc_emg</title>
<polygon fill="none" stroke="black" points="1115.27,-320 969.27,-320 969.27,-296 1115.27,-296 1127.27,-308 1115.27,-320"/>
<text text-anchor="middle" x="1048.27" y="-304.3" font-family="Times,serif" font-size="14.00">L2a_pol_pc EM gain 1..1</text>
</g>
<!-- l2a_pol_pc_emg&#45;&gt;trans_pol_pc_l2a_l2b -->
<g id="edge15" class="edge">
<title>l2a_pol_pc_emg&#45;&gt;trans_pol_pc_l2a_l2b</title>
<path fill="none" stroke="black" d="M1127.29,-308C1127.29,-308 1217.07,-308 1217.07,-308"/>
<polygon fill="black" stroke="black" points="1217.07,-311.5 1227.07,-308 1217.07,-304.5 1217.07,-311.5"/>
</g>
<!-- l2a_pol_pc_polff -->
<g id="node21" class="node">
<title>l2a_pol_pc_polff</title>
<polygon fill="none" stroke="black" points="1152.27,-266 932.27,-266 932.27,-242 1152.27,-242 1164.27,-254 1152.27,-266"/>
<text text-anchor="middle" x="1048.27" y="-250.3" font-family="Times,serif" font-size="14.00">L2a_pol_pc polarimetric flat fields 1..1</text>
</g>
<!-- l2a_pol_pc_polff&#45;&gt;trans_pol_pc_l2a_l2b -->
<g id="edge16" class="edge">
<title>l2a_pol_pc_polff&#45;&gt;trans_pol_pc_l2a_l2b</title>
<path fill="none" stroke="black" d="M1145.45,-272.19C1145.45,-275.54 1145.45,-278 1145.45,-278 1145.45,-278 1249.8,-278 1249.8,-278"/>
<polygon fill="black" stroke="black" points="1249.8,-281.5 1259.8,-278 1249.8,-274.5 1249.8,-281.5"/>
</g>
<!-- l2a_pol_pc_man_demux&#45;&gt;trans_pol_pc_l2a_l2b -->
<g id="edge22" class="edge">
<title>l2a_pol_pc_man_demux&#45;&gt;trans_pol_pc_l2a_l2b</title>
<path fill="none" stroke="black" d="M1161.58,-144C1231.32,-144 1307.45,-144 1307.45,-144 1307.45,-144 1307.45,-255.75 1307.45,-255.75"/>
<polygon fill="black" stroke="black" points="1303.95,-255.75 1307.45,-265.75 1310.95,-255.75 1303.95,-255.75"/>
</g>
<!-- l2b_pol_pc_prod&#45;&gt;trans_pol_pc_l2b_l3 -->
<g id="edge25" class="edge">
<title>l2b_pol_pc_prod&#45;&gt;trans_pol_pc_l2b_l3</title>
<path fill="none" stroke="black" d="M1859.67,-459.94C1859.67,-459.94 2215.45,-459.94 2215.45,-459.94"/>
<polygon fill="black" stroke="black" points="2215.45,-463.44 2225.45,-459.94 2215.45,-456.44 2215.45,-463.44"/>
</g>
<!-- l2b_pol_pc_man&#45;&gt;trans_pol_pc_l2b_l3 -->
<g id="edge26" class="edge">
<title>l2b_pol_pc_man&#45;&gt;trans_pol_pc_l2b_l3</title>
<path fill="none" stroke="black" d="M2021.45,-396.26C2021.45,-418.15 2021.45,-451.89 2021.45,-451.89 2021.45,-451.89 2229.95,-451.89 2229.95,-451.89"/>
<polygon fill="black" stroke="black" points="2229.95,-455.39 2239.95,-451.89 2229.95,-448.39 2229.95,-455.39"/>
</g>
<!-- l2b_pol_pc_odir -->
<g id="node26" class="node">
<title>l2b_pol_pc_odir</title>
<ellipse fill="none" stroke="black" cx="2021.09" cy="-702" rx="111.58" ry="18"/>
<text text-anchor="middle" x="2021.09" y="-698.3" font-family="Times,serif" font-size="14.00">L2b_pol_pc output path 1..1</text>
</g>
<!-- l2b_pol_pc_odir&#45;&gt;trans_pol_pc_l2b_l3 -->
<g id="edge27" class="edge">
<title>l2b_pol_pc_odir&#45;&gt;trans_pol_pc_l2b_l3</title>
<path fill="none" stroke="black" d="M2113.45,-691.8C2113.45,-670.66 2113.45,-624 2113.45,-624 2113.45,-624 2221.83,-624 2221.83,-624"/>
<polygon fill="black" stroke="black" points="2221.83,-627.5 2231.83,-624 2221.83,-620.5 2221.83,-627.5"/>
</g>
<!-- l2b_pol_pc_rec -->
<g id="node27" class="node">
<title>l2b_pol_pc_rec</title>
<polygon fill="none" stroke="black" points="2080.59,-660 1949.59,-660 1949.59,-636 2080.59,-636 2092.59,-648 2080.59,-660"/>
<text text-anchor="middle" x="2021.09" y="-644.3" font-family="Times,serif" font-size="14.00">L2b_pol_pc recipe 1..1</text>
</g>
<!-- l2b_pol_pc_rec&#45;&gt;trans_pol_pc_l2b_l3 -->
<g id="edge28" class="edge">
<title>l2b_pol_pc_rec&#45;&gt;trans_pol_pc_l2b_l3</title>
<path fill="none" stroke="black" d="M2021.45,-629.86C2021.45,-623.54 2021.45,-618 2021.45,-618 2021.45,-618 2212.29,-618 2212.29,-618"/>
<polygon fill="black" stroke="black" points="2212.29,-621.5 2222.29,-618 2212.29,-614.5 2212.29,-621.5"/>
</g>
<!-- l2b_pol_pc_excicrf -->
<g id="node28" class="node">
<title>l2b_pol_pc_excicrf</title>
<polygon fill="none" stroke="black" points="2129.59,-606 1900.59,-606 1900.59,-582 2129.59,-582 2141.59,-594 2129.59,-606"/>
<text text-anchor="middle" x="2021.09" y="-590.3" font-family="Times,serif" font-size="14.00">L2b_pol_pc EXCAM ICRF location 1..1</text>
</g>
<!-- l2b_pol_pc_excicrf&#45;&gt;trans_pol_pc_l2b_l3 -->
<g id="edge29" class="edge">
<title>l2b_pol_pc_excicrf&#45;&gt;trans_pol_pc_l2b_l3</title>
<path fill="none" stroke="black" d="M2141.62,-594C2141.62,-594 2189.13,-594 2189.13,-594"/>
<polygon fill="black" stroke="black" points="2189.13,-597.5 2199.13,-594 2189.13,-590.5 2189.13,-597.5"/>
</g>
<!-- l2b_pol_pc_excfovps -->
<g id="node29" class="node">
<title>l2b_pol_pc_excfovps</title>
<polygon fill="none" stroke="black" points="2134.59,-552 1895.59,-552 1895.59,-528 2134.59,-528 2146.59,-540 2134.59,-552"/>
<text text-anchor="middle" x="2021.09" y="-536.3" font-family="Times,serif" font-size="14.00">L2b_pol_pc EXCAM FOV pixel scale 1..1</text>
</g>
<!-- l2b_pol_pc_excfovps&#45;&gt;trans_pol_pc_l2b_l3 -->
<g id="edge30" class="edge">
<title>l2b_pol_pc_excfovps&#45;&gt;trans_pol_pc_l2b_l3</title>
<path fill="none" stroke="black" d="M2146.9,-540C2146.9,-540 2172.24,-540 2172.24,-540"/>
<polygon fill="black" stroke="black" points="2172.24,-543.5 2182.24,-540 2172.24,-536.5 2172.24,-543.5"/>
</g>
<!-- l2b_pol_pc_cfamfo -->
<g id="node30" class="node">
<title>l2b_pol_pc_cfamfo</title>
<polygon fill="none" stroke="black" points="2118.59,-498 1911.59,-498 1911.59,-474 2118.59,-474 2130.59,-486 2118.59,-498"/>
<text text-anchor="middle" x="2021.09" y="-482.3" font-family="Times,serif" font-size="14.00">L2b_pol_pc CFAM filter offsets 1..1</text>
</g>
<!-- l2b_pol_pc_cfamfo&#45;&gt;trans_pol_pc_l2b_l3 -->
<g id="edge31" class="edge">
<title>l2b_pol_pc_cfamfo&#45;&gt;trans_pol_pc_l2b_l3</title>
<path fill="none" stroke="black" d="M2130.73,-486C2130.73,-486 2188.86,-486 2188.86,-486"/>
<polygon fill="black" stroke="black" points="2188.86,-489.5 2198.86,-486 2188.86,-482.5 2188.86,-489.5"/>
</g>
<!-- l2b_pol_pc_man_demux&#45;&gt;l2b_pol_pc_mux -->
<g id="edge23" class="edge">
<title>l2b_pol_pc_man_demux&#45;&gt;l2b_pol_pc_mux</title>
<path fill="none" stroke="black" d="M1666.63,-362C1666.63,-362 1699.26,-362 1699.26,-362"/>
<polygon fill="black" stroke="black" points="1699.26,-365.5 1709.26,-362 1699.26,-358.5 1699.26,-365.5"/>
</g>
<!-- l3_pol_pc_prod&#45;&gt;trans_pol_pc_l3_l4 -->
<g id="edge35" class="edge">
<title>l3_pol_pc_prod&#45;&gt;trans_pol_pc_l3_l4</title>
<path fill="none" stroke="black" d="M2593.25,-594C2593.25,-594 2667.77,-594 2667.77,-594"/>
<polygon fill="black" stroke="black" points="2667.77,-597.5 2677.77,-594 2667.77,-590.5 2667.77,-597.5"/>
</g>
<!-- l3_pol_pc_odir -->
<g id="node34" class="node">
<title>l3_pol_pc_odir</title>
<ellipse fill="none" stroke="black" cx="2518.16" cy="-756" rx="107.48" ry="18"/>
<text text-anchor="middle" x="2518.16" y="-752.3" font-family="Times,serif" font-size="14.00">L3_pol_pc output path 1..1</text>
</g>
<!-- l3_pol_pc_odir&#45;&gt;trans_pol_pc_l3_l4 -->
<g id="edge37" class="edge">
<title>l3_pol_pc_odir&#45;&gt;trans_pol_pc_l3_l4</title>
<path fill="none" stroke="black" d="M2621.45,-751.05C2621.45,-743.25 2621.45,-729 2621.45,-729 2621.45,-729 2695.72,-729 2695.72,-729"/>
<polygon fill="black" stroke="black" points="2695.72,-732.5 2705.72,-729 2695.72,-725.5 2695.72,-732.5"/>
</g>
<!-- l3_pol_pc_man&#45;&gt;trans_pol_pc_l3_l4 -->
<g id="edge36" class="edge">
<title>l3_pol_pc_man&#45;&gt;trans_pol_pc_l3_l4</title>
<path fill="none" stroke="black" d="M2602.45,-549.44C2602.45,-557.23 2602.45,-567 2602.45,-567 2602.45,-567 2695.48,-567 2695.48,-567"/>
<polygon fill="black" stroke="black" points="2695.48,-570.5 2705.48,-567 2695.48,-563.5 2695.48,-570.5"/>
</g>
<!-- l3_pol_pc_rec -->
<g id="node36" class="node">
<title>l3_pol_pc_rec</title>
<polygon fill="none" stroke="black" points="2574.66,-714 2449.66,-714 2449.66,-690 2574.66,-690 2586.66,-702 2574.66,-714"/>
<text text-anchor="middle" x="2518.16" y="-698.3" font-family="Times,serif" font-size="14.00">L3_pol_pc recipe 1..1</text>
</g>
<!-- l3_pol_pc_rec&#45;&gt;trans_pol_pc_l3_l4 -->
<g id="edge38" class="edge">
<title>l3_pol_pc_rec&#45;&gt;trans_pol_pc_l3_l4</title>
<path fill="none" stroke="black" d="M2586.76,-702C2586.76,-702 2667.96,-702 2667.96,-702"/>
<polygon fill="black" stroke="black" points="2667.96,-705.5 2677.96,-702 2667.96,-698.5 2667.96,-705.5"/>
</g>
<!-- l3_pol_pc_mueller -->
<g id="node37" class="node">
<title>l3_pol_pc_mueller</title>
<polygon fill="none" stroke="black" points="2598.66,-660 2425.66,-660 2425.66,-636 2598.66,-636 2610.66,-648 2598.66,-660"/>
<text text-anchor="middle" x="2518.16" y="-644.3" font-family="Times,serif" font-size="14.00">L3_pol_pc mueller matrix 1..1</text>
</g>
<!-- l3_pol_pc_mueller&#45;&gt;trans_pol_pc_l3_l4 -->
<g id="edge39" class="edge">
<title>l3_pol_pc_mueller&#45;&gt;trans_pol_pc_l3_l4</title>
<path fill="none" stroke="black" d="M2610.72,-648C2610.72,-648 2651.29,-648 2651.29,-648"/>
<polygon fill="black" stroke="black" points="2651.29,-651.5 2661.29,-648 2651.29,-644.5 2651.29,-651.5"/>
</g>
<!-- l4_pol_pc_prod&#45;&gt;trans_pol_pc_l4_tda -->
<g id="edge43" class="edge">
<title>l4_pol_pc_prod&#45;&gt;trans_pol_pc_l4_tda</title>
<path fill="none" stroke="black" d="M3118.03,-708.94C3118.03,-708.94 3256.14,-708.94 3256.14,-708.94"/>
<polygon fill="black" stroke="black" points="3256.14,-712.44 3266.14,-708.94 3256.14,-705.44 3256.14,-712.44"/>
</g>
<!-- l4_pol_pc_man&#45;&gt;trans_pol_pc_l4_tda -->
<g id="edge44" class="edge">
<title>l4_pol_pc_man&#45;&gt;trans_pol_pc_l4_tda</title>
<path fill="none" stroke="black" d="M3131.45,-601.81C3131.45,-625.97 3131.45,-697.89 3131.45,-697.89 3131.45,-697.89 3272.83,-697.89 3272.83,-697.89"/>
<polygon fill="black" stroke="black" points="3272.83,-701.39 3282.83,-697.89 3272.83,-694.39 3272.83,-701.39"/>
</g>
<!-- l4_pol_pc_odir -->
<g id="node42" class="node">
<title>l4_pol_pc_odir</title>
<ellipse fill="none" stroke="black" cx="3042.73" cy="-918" rx="107.48" ry="18"/>
<text text-anchor="middle" x="3042.73" y="-914.3" font-family="Times,serif" font-size="14.00">L4_pol_pc output path 1..1</text>
</g>
<!-- l4_pol_pc_odir&#45;&gt;trans_pol_pc_l4_tda -->
<g id="edge45" class="edge">
<title>l4_pol_pc_odir&#45;&gt;trans_pol_pc_l4_tda</title>
<path fill="none" stroke="black" d="M3131.45,-907.42C3131.45,-892.78 3131.45,-868.11 3131.45,-868.11 3131.45,-868.11 3272.83,-868.11 3272.83,-868.11"/>
<polygon fill="black" stroke="black" points="3272.83,-871.61 3282.83,-868.11 3272.83,-864.61 3272.83,-871.61"/>
</g>
<!-- l4_pol_pc_rec -->
<g id="node43" class="node">
<title>l4_pol_pc_rec</title>
<polygon fill="none" stroke="black" points="3099.23,-876 2974.23,-876 2974.23,-852 3099.23,-852 3111.23,-864 3099.23,-876"/>
<text text-anchor="middle" x="3042.73" y="-860.3" font-family="Times,serif" font-size="14.00">L4_pol_pc recipe 1..1</text>
</g>
<!-- l4_pol_pc_rec&#45;&gt;trans_pol_pc_l4_tda -->
<g id="edge46" class="edge">
<title>l4_pol_pc_rec&#45;&gt;trans_pol_pc_l4_tda</title>
<path fill="none" stroke="black" d="M3111.4,-857.06C3111.4,-857.06 3256.14,-857.06 3256.14,-857.06"/>
<polygon fill="black" stroke="black" points="3256.14,-860.56 3266.14,-857.06 3256.14,-853.56 3256.14,-860.56"/>
</g>
<!-- l4_pol_pc_ctcal -->
<g id="node44" class="node">
<title>l4_pol_pc_ctcal</title>
<polygon fill="none" stroke="black" points="3159.23,-822 2914.23,-822 2914.23,-798 3159.23,-798 3171.23,-810 3159.23,-822"/>
<text text-anchor="middle" x="3042.73" y="-806.3" font-family="Times,serif" font-size="14.00">L4_pol_pc core throughput calibrations 1..1</text>
</g>
<!-- l4_pol_pc_ctcal&#45;&gt;trans_pol_pc_l4_tda -->
<g id="edge47" class="edge">
<title>l4_pol_pc_ctcal&#45;&gt;trans_pol_pc_l4_tda</title>
<path fill="none" stroke="black" d="M3171.55,-810C3171.55,-810 3225.48,-810 3225.48,-810"/>
<polygon fill="black" stroke="black" points="3225.48,-813.5 3235.48,-810 3225.48,-806.5 3225.48,-813.5"/>
</g>
<!-- l4_pol_pc_pafcal -->
<g id="node45" class="node">
<title>l4_pol_pc_pafcal</title>
<polygon fill="none" stroke="black" points="3183.73,-768 2889.73,-768 2889.73,-744 3183.73,-744 3195.73,-756 3183.73,-768"/>
<text text-anchor="middle" x="3042.73" y="-752.3" font-family="Times,serif" font-size="14.00">L4_pol_pc polarimetric absolute flux calibration 1..1</text>
</g>
<!-- l4_pol_pc_pafcal&#45;&gt;trans_pol_pc_l4_tda -->
<g id="edge48" class="edge">
<title>l4_pol_pc_pafcal&#45;&gt;trans_pol_pc_l4_tda</title>
<path fill="none" stroke="black" d="M3195.75,-756C3195.75,-756 3225.32,-756 3225.32,-756"/>
<polygon fill="black" stroke="black" points="3225.32,-759.5 3235.32,-756 3225.32,-752.5 3225.32,-759.5"/>
</g>
</g>
</svg>
