<?xml version="1.0" encoding="UTF-8" standalone="no"?>
<!DOCTYPE svg PUBLIC "-//W3C//DTD SVG 1.1//EN"
 "http://www.w3.org/Graphics/SVG/1.1/DTD/svg11.dtd">
<!-- Generated by graphviz version 2.43.0 (0)
 -->
<!-- Title: PolarimetryPhotonCount Pages: 1 -->
<svg width="2947pt" height="1043pt"
 viewBox="0.00 0.00 2947.25 1043.00" xmlns="http://www.w3.org/2000/svg" xmlns:xlink="http://www.w3.org/1999/xlink">
<g id="graph0" class="graph" transform="scale(1 1) rotate(0) translate(4 1039)">
<title>PolarimetryPhotonCount</title>
<polygon fill="white" stroke="transparent" points="-4,4 -4,-1039 2943.25,-1039 2943.25,4 -4,4"/>
<!-- trans_pol_pc_l1_l2a -->
<g id="node1" class="node">
<title>trans_pol_pc_l1_l2a</title>
<ellipse fill="none" stroke="black" cx="403.84" cy="-126" rx="96.33" ry="96.33"/>
<text text-anchor="middle" x="403.84" y="-129.8" font-family="Times,serif" font-size="14.00">pol_pc Transmutation</text>
<text text-anchor="middle" x="403.84" y="-114.8" font-family="Times,serif" font-size="14.00">L1 to L2a</text>
</g>
<!-- l2a_pol_pc_prod -->
<g id="node11" class="node">
<title>l2a_pol_pc_prod</title>
<polygon fill="none" stroke="black" points="745.3,-225 589.3,-225 589.3,-189 745.3,-189 745.3,-225"/>
<text text-anchor="middle" x="667.3" y="-203.3" font-family="Times,serif" font-size="14.00">L2a_pol_pc products 1..b</text>
</g>
<!-- trans_pol_pc_l1_l2a&#45;&gt;l2a_pol_pc_prod -->
<g id="edge6" class="edge">
<title>trans_pol_pc_l1_l2a&#45;&gt;l2a_pol_pc_prod</title>
<path fill="none" stroke="black" stroke-dasharray="5,2" d="M458.11,-205.58C458.11,-205.58 579.11,-205.58 579.11,-205.58"/>
<polygon fill="black" stroke="black" points="579.12,-209.08 589.11,-205.58 579.11,-202.08 579.12,-209.08"/>
</g>
<!-- l2a_pol_pc_man -->
<g id="node12" class="node">
<title>l2a_pol_pc_man</title>
<ellipse fill="none" stroke="black" cx="667.3" cy="-153" rx="131.08" ry="18"/>
<text text-anchor="middle" x="667.3" y="-149.3" font-family="Times,serif" font-size="14.00">L2a_pol_pc product manifest 1..1</text>
</g>
<!-- trans_pol_pc_l1_l2a&#45;&gt;l2a_pol_pc_man -->
<g id="edge7" class="edge">
<title>trans_pol_pc_l1_l2a&#45;&gt;l2a_pol_pc_man</title>
<path fill="none" stroke="black" d="M496.36,-153C496.36,-153 525.69,-153 525.69,-153"/>
<polygon fill="black" stroke="black" points="525.69,-156.5 535.69,-153 525.69,-149.5 525.69,-156.5"/>
</g>
<!-- l2a_pol_pc_log -->
<g id="node21" class="node">
<title>l2a_pol_pc_log</title>
<ellipse fill="none" stroke="black" cx="667.3" cy="-99" rx="82.59" ry="18"/>
<text text-anchor="middle" x="667.3" y="-95.3" font-family="Times,serif" font-size="14.00">L2a log_pol_pc 1..1</text>
</g>
<!-- trans_pol_pc_l1_l2a&#45;&gt;l2a_pol_pc_log -->
<g id="edge8" class="edge">
<title>trans_pol_pc_l1_l2a&#45;&gt;l2a_pol_pc_log</title>
<path fill="none" stroke="black" stroke-dasharray="5,2" d="M496.36,-99C496.36,-99 574.67,-99 574.67,-99"/>
<polygon fill="black" stroke="black" points="574.67,-102.5 584.67,-99 574.67,-95.5 574.67,-102.5"/>
</g>
<!-- l2a_pol_pc_src -->
<g id="node46" class="node">
<title>l2a_pol_pc_src</title>
<ellipse fill="none" stroke="black" cx="667.3" cy="-45" rx="127.28" ry="18"/>
<text text-anchor="middle" x="667.3" y="-41.3" font-family="Times,serif" font-size="14.00">L2a_pol_pc source manifest 1..1</text>
</g>
<!-- trans_pol_pc_l1_l2a&#45;&gt;l2a_pol_pc_src -->
<g id="edge48" class="edge">
<title>trans_pol_pc_l1_l2a&#45;&gt;l2a_pol_pc_src</title>
<path fill="none" stroke="black" d="M458.11,-46.42C458.11,-46.42 530.26,-46.42 530.26,-46.42"/>
<polygon fill="black" stroke="black" points="530.26,-49.92 540.26,-46.42 530.26,-42.92 530.26,-49.92"/>
</g>
<!-- trans_pol_pc_l2a_l2b -->
<g id="node2" class="node">
<title>trans_pol_pc_l2a_l2b</title>
<ellipse fill="none" stroke="black" cx="930.75" cy="-396" rx="96.33" ry="96.33"/>
<text text-anchor="middle" x="930.75" y="-399.8" font-family="Times,serif" font-size="14.00">pol_pc Transmutation</text>
<text text-anchor="middle" x="930.75" y="-384.8" font-family="Times,serif" font-size="14.00">L2a to L2b</text>
</g>
<!-- l2b_pol_pc_prod -->
<g id="node22" class="node">
<title>l2b_pol_pc_prod</title>
<polygon fill="none" stroke="black" points="1273.36,-495 1116.36,-495 1116.36,-459 1273.36,-459 1273.36,-495"/>
<text text-anchor="middle" x="1194.86" y="-473.3" font-family="Times,serif" font-size="14.00">L2b_pol_pc products 1..1</text>
</g>
<!-- trans_pol_pc_l2a_l2b&#45;&gt;l2b_pol_pc_prod -->
<g id="edge18" class="edge">
<title>trans_pol_pc_l2a_l2b&#45;&gt;l2b_pol_pc_prod</title>
<path fill="none" stroke="black" stroke-dasharray="5,2" d="M984.84,-475.58C984.84,-475.58 1106.3,-475.58 1106.3,-475.58"/>
<polygon fill="black" stroke="black" points="1106.3,-479.08 1116.3,-475.58 1106.3,-472.08 1106.3,-479.08"/>
</g>
<!-- l2b_pol_pc_man -->
<g id="node23" class="node">
<title>l2b_pol_pc_man</title>
<ellipse fill="none" stroke="black" cx="1194.86" cy="-423" rx="131.88" ry="18"/>
<text text-anchor="middle" x="1194.86" y="-419.3" font-family="Times,serif" font-size="14.00">L2b_pol_pc product manifest 1..1</text>
</g>
<!-- trans_pol_pc_l2a_l2b&#45;&gt;l2b_pol_pc_man -->
<g id="edge19" class="edge">
<title>trans_pol_pc_l2a_l2b&#45;&gt;l2b_pol_pc_man</title>
<path fill="none" stroke="black" d="M1023.12,-423C1023.12,-423 1052.6,-423 1052.6,-423"/>
<polygon fill="black" stroke="black" points="1052.6,-426.5 1062.6,-423 1052.6,-419.5 1052.6,-426.5"/>
</g>
<!-- l2b_pol_pc_log -->
<g id="node29" class="node">
<title>l2b_pol_pc_log</title>
<ellipse fill="none" stroke="black" cx="1194.86" cy="-369" rx="83.39" ry="18"/>
<text text-anchor="middle" x="1194.86" y="-365.3" font-family="Times,serif" font-size="14.00">L2b_pol_pc log 1..1</text>
</g>
<!-- trans_pol_pc_l2a_l2b&#45;&gt;l2b_pol_pc_log -->
<g id="edge20" class="edge">
<title>trans_pol_pc_l2a_l2b&#45;&gt;l2b_pol_pc_log</title>
<path fill="none" stroke="black" stroke-dasharray="5,2" d="M1023.12,-369C1023.12,-369 1101.37,-369 1101.37,-369"/>
<polygon fill="black" stroke="black" points="1101.37,-372.5 1111.37,-369 1101.37,-365.5 1101.37,-372.5"/>
</g>
<!-- l2b_pol_pc_src -->
<g id="node47" class="node">
<title>l2b_pol_pc_src</title>
<ellipse fill="none" stroke="black" cx="1194.86" cy="-315" rx="128.08" ry="18"/>
<text text-anchor="middle" x="1194.86" y="-311.3" font-family="Times,serif" font-size="14.00">L2b_pol_pc source manifest 1..1</text>
</g>
<!-- trans_pol_pc_l2a_l2b&#45;&gt;l2b_pol_pc_src -->
<g id="edge49" class="edge">
<title>trans_pol_pc_l2a_l2b&#45;&gt;l2b_pol_pc_src</title>
<path fill="none" stroke="black" d="M984.84,-316.42C984.84,-316.42 1056.96,-316.42 1056.96,-316.42"/>
<polygon fill="black" stroke="black" points="1056.96,-319.92 1066.96,-316.42 1056.96,-312.92 1056.96,-319.92"/>
</g>
<!-- trans_pol_pc_l2b_l3 -->
<g id="node3" class="node">
<title>trans_pol_pc_l2b_l3</title>
<ellipse fill="none" stroke="black" cx="1458.96" cy="-585" rx="96.33" ry="96.33"/>
<text text-anchor="middle" x="1458.96" y="-588.8" font-family="Times,serif" font-size="14.00">pol_pc Transmutation</text>
<text text-anchor="middle" x="1458.96" y="-573.8" font-family="Times,serif" font-size="14.00">L2b to L3</text>
</g>
<!-- l3_pol_pc_prod -->
<g id="node30" class="node">
<title>l3_pol_pc_prod</title>
<polygon fill="none" stroke="black" points="1793.52,-684 1643.52,-684 1643.52,-648 1793.52,-648 1793.52,-684"/>
<text text-anchor="middle" x="1718.52" y="-662.3" font-family="Times,serif" font-size="14.00">L3_pol_pc products 1..1</text>
</g>
<!-- trans_pol_pc_l2b_l3&#45;&gt;l3_pol_pc_prod -->
<g id="edge29" class="edge">
<title>trans_pol_pc_l2b_l3&#45;&gt;l3_pol_pc_prod</title>
<path fill="none" stroke="black" stroke-dasharray="5,2" d="M1513.06,-664.58C1513.06,-664.58 1633.33,-664.58 1633.33,-664.58"/>
<polygon fill="black" stroke="black" points="1633.33,-668.08 1643.33,-664.58 1633.33,-661.08 1633.33,-668.08"/>
</g>
<!-- l3_pol_pc_man -->
<g id="node32" class="node">
<title>l3_pol_pc_man</title>
<ellipse fill="none" stroke="black" cx="1718.52" cy="-612" rx="127.28" ry="18"/>
<text text-anchor="middle" x="1718.52" y="-608.3" font-family="Times,serif" font-size="14.00">L3_pol_pc product manifest 1..1</text>
</g>
<!-- trans_pol_pc_l2b_l3&#45;&gt;l3_pol_pc_man -->
<g id="edge30" class="edge">
<title>trans_pol_pc_l2b_l3&#45;&gt;l3_pol_pc_man</title>
<path fill="none" stroke="black" d="M1551.57,-612C1551.57,-612 1581.03,-612 1581.03,-612"/>
<polygon fill="black" stroke="black" points="1581.03,-615.5 1591.03,-612 1581.03,-608.5 1581.03,-615.5"/>
</g>
<!-- l3_pol_pc_log -->
<g id="node35" class="node">
<title>l3_pol_pc_log</title>
<ellipse fill="none" stroke="black" cx="1718.52" cy="-558" rx="78.79" ry="18"/>
<text text-anchor="middle" x="1718.52" y="-554.3" font-family="Times,serif" font-size="14.00">L3_pol_pc log 1..1</text>
</g>
<!-- trans_pol_pc_l2b_l3&#45;&gt;l3_pol_pc_log -->
<g id="edge31" class="edge">
<title>trans_pol_pc_l2b_l3&#45;&gt;l3_pol_pc_log</title>
<path fill="none" stroke="black" stroke-dasharray="5,2" d="M1551.57,-558C1551.57,-558 1629.69,-558 1629.69,-558"/>
<polygon fill="black" stroke="black" points="1629.69,-561.5 1639.69,-558 1629.69,-554.5 1629.69,-561.5"/>
</g>
<!-- l3_pol_pc_src -->
<g id="node48" class="node">
<title>l3_pol_pc_src</title>
<ellipse fill="none" stroke="black" cx="1718.52" cy="-504" rx="123.48" ry="18"/>
<text text-anchor="middle" x="1718.52" y="-500.3" font-family="Times,serif" font-size="14.00">L3_pol_pc source manifest 1..1</text>
</g>
<!-- trans_pol_pc_l2b_l3&#45;&gt;l3_pol_pc_src -->
<g id="edge50" class="edge">
<title>trans_pol_pc_l2b_l3&#45;&gt;l3_pol_pc_src</title>
<path fill="none" stroke="black" d="M1513.06,-505.42C1513.06,-505.42 1585.22,-505.42 1585.22,-505.42"/>
<polygon fill="black" stroke="black" points="1585.22,-508.92 1595.22,-505.42 1585.22,-501.92 1585.22,-508.92"/>
</g>
<!-- trans_pol_pc_l3_l4 -->
<g id="node4" class="node">
<title>trans_pol_pc_l3_l4</title>
<ellipse fill="none" stroke="black" cx="1978.07" cy="-720" rx="96.33" ry="96.33"/>
<text text-anchor="middle" x="1978.07" y="-723.8" font-family="Times,serif" font-size="14.00">pol_pc Transmutation</text>
<text text-anchor="middle" x="1978.07" y="-708.8" font-family="Times,serif" font-size="14.00">L3 to L4</text>
</g>
<!-- l4_pol_pc_prod -->
<g id="node36" class="node">
<title>l4_pol_pc_prod</title>
<polygon fill="none" stroke="black" points="2338.24,-819 2188.24,-819 2188.24,-783 2338.24,-783 2338.24,-819"/>
<text text-anchor="middle" x="2263.24" y="-797.3" font-family="Times,serif" font-size="14.00">L4_pol_pc products 1..1</text>
</g>
<!-- trans_pol_pc_l3_l4&#45;&gt;l4_pol_pc_prod -->
<g id="edge37" class="edge">
<title>trans_pol_pc_l3_l4&#45;&gt;l4_pol_pc_prod</title>
<path fill="none" stroke="black" stroke-dasharray="5,2" d="M2032.38,-799.58C2032.38,-799.58 2178.13,-799.58 2178.13,-799.58"/>
<polygon fill="black" stroke="black" points="2178.13,-803.08 2188.13,-799.58 2178.13,-796.08 2178.13,-803.08"/>
</g>
<!-- l4_pol_pc_log -->
<g id="node37" class="node">
<title>l4_pol_pc_log</title>
<ellipse fill="none" stroke="black" cx="2263.24" cy="-747" rx="78.79" ry="18"/>
<text text-anchor="middle" x="2263.24" y="-743.3" font-family="Times,serif" font-size="14.00">L4_pol_pc log 1..1</text>
</g>
<!-- trans_pol_pc_l3_l4&#45;&gt;l4_pol_pc_log -->
<g id="edge38" class="edge">
<title>trans_pol_pc_l3_l4&#45;&gt;l4_pol_pc_log</title>
<path fill="none" stroke="black" stroke-dasharray="5,2" d="M2070.66,-747C2070.66,-747 2174.5,-747 2174.5,-747"/>
<polygon fill="black" stroke="black" points="2174.5,-750.5 2184.5,-747 2174.5,-743.5 2174.5,-750.5"/>
</g>
<!-- l4_pol_pc_man -->
<g id="node38" class="node">
<title>l4_pol_pc_man</title>
<ellipse fill="none" stroke="black" cx="2263.24" cy="-693" rx="127.28" ry="18"/>
<text text-anchor="middle" x="2263.24" y="-689.3" font-family="Times,serif" font-size="14.00">L4_pol_pc product manifest 1..1</text>
</g>
<!-- trans_pol_pc_l3_l4&#45;&gt;l4_pol_pc_man -->
<g id="edge39" class="edge">
<title>trans_pol_pc_l3_l4&#45;&gt;l4_pol_pc_man</title>
<path fill="none" stroke="black" d="M2070.66,-693C2070.66,-693 2125.62,-693 2125.62,-693"/>
<polygon fill="black" stroke="black" points="2125.62,-696.5 2135.62,-693 2125.62,-689.5 2125.62,-696.5"/>
</g>
<!-- l4_pol_pc_src -->
<g id="node49" class="node">
<title>l4_pol_pc_src</title>
<ellipse fill="none" stroke="black" cx="2263.24" cy="-639" rx="120.78" ry="18"/>
<text text-anchor="middle" x="2263.24" y="-635.3" font-family="Times,serif" font-size="14.00">L4_pol_pc sourcemanifest 1..1</text>
</g>
<!-- trans_pol_pc_l3_l4&#45;&gt;l4_pol_pc_src -->
<g id="edge51" class="edge">
<title>trans_pol_pc_l3_l4&#45;&gt;l4_pol_pc_src</title>
<path fill="none" stroke="black" d="M2032.38,-640.42C2032.38,-640.42 2132.68,-640.42 2132.68,-640.42"/>
<polygon fill="black" stroke="black" points="2132.68,-643.92 2142.68,-640.42 2132.68,-636.92 2132.68,-643.92"/>
</g>
<!-- trans_pol_pc_l4_tda -->
<g id="node5" class="node">
<title>trans_pol_pc_l4_tda</title>
<ellipse fill="none" stroke="black" cx="2548.41" cy="-882" rx="96.33" ry="96.33"/>
<text text-anchor="middle" x="2548.41" y="-885.8" font-family="Times,serif" font-size="14.00">pol_pc Transmutation</text>
<text text-anchor="middle" x="2548.41" y="-870.8" font-family="Times,serif" font-size="14.00">L4 to TDA</text>
</g>
<!-- tda_pol_pc_prod -->
<g id="node44" class="node">
<title>tda_pol_pc_prod</title>
<ellipse fill="none" stroke="black" cx="2809.91" cy="-936" rx="70.39" ry="18"/>
<text text-anchor="middle" x="2809.91" y="-932.3" font-family="Times,serif" font-size="14.00">tda_pol_pc_prod</text>
</g>
<!-- trans_pol_pc_l4_tda&#45;&gt;tda_pol_pc_prod -->
<g id="edge46" class="edge">
<title>trans_pol_pc_l4_tda&#45;&gt;tda_pol_pc_prod</title>
<path fill="none" stroke="black" stroke-dasharray="5,2" d="M2628.29,-936C2628.29,-936 2729.38,-936 2729.38,-936"/>
<polygon fill="black" stroke="black" points="2729.38,-939.5 2739.38,-936 2729.38,-932.5 2729.38,-939.5"/>
</g>
<!-- tda_pol_pc_log -->
<g id="node45" class="node">
<title>tda_pol_pc_log</title>
<ellipse fill="none" stroke="black" cx="2809.91" cy="-882" rx="65.79" ry="18"/>
<text text-anchor="middle" x="2809.91" y="-878.3" font-family="Times,serif" font-size="14.00">tda_pol_pc_log</text>
</g>
<!-- trans_pol_pc_l4_tda&#45;&gt;tda_pol_pc_log -->
<g id="edge47" class="edge">
<title>trans_pol_pc_l4_tda&#45;&gt;tda_pol_pc_log</title>
<path fill="none" stroke="black" stroke-dasharray="5,2" d="M2644.67,-882C2644.67,-882 2734.04,-882 2734.04,-882"/>
<polygon fill="black" stroke="black" points="2734.04,-885.5 2744.04,-882 2734.04,-878.5 2734.04,-885.5"/>
</g>
<!-- tda_pol_pc_src -->
<g id="node50" class="node">
<title>tda_pol_pc_src</title>
<ellipse fill="none" stroke="black" cx="2809.91" cy="-828" rx="129.18" ry="18"/>
<text text-anchor="middle" x="2809.91" y="-824.3" font-family="Times,serif" font-size="14.00">TDA_pol_pc sourcemanifest 1..1</text>
</g>
<!-- trans_pol_pc_l4_tda&#45;&gt;tda_pol_pc_src -->
<g id="edge52" class="edge">
<title>trans_pol_pc_l4_tda&#45;&gt;tda_pol_pc_src</title>
<path fill="none" stroke="black" d="M2628.29,-828C2628.29,-828 2670.39,-828 2670.39,-828"/>
<polygon fill="black" stroke="black" points="2670.39,-831.5 2680.39,-828 2670.39,-824.5 2670.39,-831.5"/>
</g>
<!-- l1_pol_pc_prod -->
<g id="node6" class="node">
<title>l1_pol_pc_prod</title>
<polygon fill="none" stroke="black" points="210.84,-252 60.84,-252 60.84,-216 210.84,-216 210.84,-252"/>
<text text-anchor="middle" x="135.84" y="-230.3" font-family="Times,serif" font-size="14.00">L1_pol_pc products 1..b</text>
</g>
<!-- l1_pol_pc_prod&#45;&gt;trans_pol_pc_l1_l2a -->
<g id="edge1" class="edge">
<title>l1_pol_pc_prod&#45;&gt;trans_pol_pc_l1_l2a</title>
<path fill="none" stroke="black" stroke-dasharray="5,2" d="M136.25,-215.84C136.25,-210.96 136.25,-207 136.25,-207 136.25,-207 341.93,-207 341.93,-207"/>
<polygon fill="black" stroke="black" points="341.93,-210.5 351.93,-207 341.93,-203.5 341.93,-210.5"/>
</g>
<!-- l1_pol_pc_man -->
<g id="node7" class="node">
<title>l1_pol_pc_man</title>
<ellipse fill="none" stroke="black" cx="135.84" cy="-180" rx="127.28" ry="18"/>
<text text-anchor="middle" x="135.84" y="-176.3" font-family="Times,serif" font-size="14.00">L1_pol_pc product manifest 1..1</text>
</g>
<!-- l1_pol_pc_man&#45;&gt;trans_pol_pc_l1_l2a -->
<g id="edge2" class="edge">
<title>l1_pol_pc_man&#45;&gt;trans_pol_pc_l1_l2a</title>
<path fill="none" stroke="black" d="M263.56,-180C263.56,-180 314.08,-180 314.08,-180"/>
<polygon fill="black" stroke="black" points="314.08,-183.5 324.08,-180 314.08,-176.5 314.08,-183.5"/>
</g>
<!-- l1_pol_pc_odir -->
<g id="node8" class="node">
<title>l1_pol_pc_odir</title>
<ellipse fill="none" stroke="black" cx="135.84" cy="-126" rx="107.48" ry="18"/>
<text text-anchor="middle" x="135.84" y="-122.3" font-family="Times,serif" font-size="14.00">L1_pol_pc output path 1..1</text>
</g>
<!-- l1_pol_pc_odir&#45;&gt;trans_pol_pc_l1_l2a -->
<g id="edge3" class="edge">
<title>l1_pol_pc_odir&#45;&gt;trans_pol_pc_l1_l2a</title>
<path fill="none" stroke="black" d="M243.3,-126C243.3,-126 297.61,-126 297.61,-126"/>
<polygon fill="black" stroke="black" points="297.61,-129.5 307.61,-126 297.61,-122.5 297.61,-129.5"/>
</g>
<!-- l1_pol_pc_rec -->
<g id="node9" class="node">
<title>l1_pol_pc_rec</title>
<polygon fill="none" stroke="black" points="192.34,-84 67.34,-84 67.34,-60 192.34,-60 204.34,-72 192.34,-84"/>
<text text-anchor="middle" x="135.84" y="-68.3" font-family="Times,serif" font-size="14.00">L1_pol_pc recipe 1..1</text>
</g>
<!-- l1_pol_pc_rec&#45;&gt;trans_pol_pc_l1_l2a -->
<g id="edge4" class="edge">
<title>l1_pol_pc_rec&#45;&gt;trans_pol_pc_l1_l2a</title>
<path fill="none" stroke="black" d="M204.51,-72C204.51,-72 313.94,-72 313.94,-72"/>
<polygon fill="black" stroke="black" points="313.94,-75.5 323.94,-72 313.94,-68.5 313.94,-75.5"/>
</g>
<!-- l1_pol_pc_nllut -->
<g id="node10" class="node">
<title>l1_pol_pc_nllut</title>
<polygon fill="none" stroke="black" points="217.84,-30 41.84,-30 41.84,-6 217.84,-6 229.84,-18 217.84,-30"/>
<text text-anchor="middle" x="135.84" y="-14.3" font-family="Times,serif" font-size="14.00">L1_pol_pc non&#45;linear LUT 1..1</text>
</g>
<!-- l1_pol_pc_nllut&#45;&gt;trans_pol_pc_l1_l2a -->
<g id="edge5" class="edge">
<title>l1_pol_pc_nllut&#45;&gt;trans_pol_pc_l1_l2a</title>
<path fill="none" stroke="black" d="M217.25,-36.16C217.25,-41.04 217.25,-45 217.25,-45 217.25,-45 341.87,-45 341.87,-45"/>
<polygon fill="black" stroke="black" points="341.87,-48.5 351.87,-45 341.87,-41.5 341.87,-48.5"/>
</g>
<!-- l2a_pol_pc_prod&#45;&gt;trans_pol_pc_l2a_l2b -->
<g id="edge9" class="edge">
<title>l2a_pol_pc_prod&#45;&gt;trans_pol_pc_l2a_l2b</title>
<path fill="none" stroke="black" stroke-dasharray="5,2" d="M745.42,-207C823.25,-207 931.25,-207 931.25,-207 931.25,-207 931.25,-289.56 931.25,-289.56"/>
<polygon fill="black" stroke="black" points="927.75,-289.56 931.25,-299.56 934.75,-289.56 927.75,-289.56"/>
</g>
<!-- l2a_pol_pc_man&#45;&gt;trans_pol_pc_l2a_l2b -->
<g id="edge21" class="edge">
<title>l2a_pol_pc_man&#45;&gt;trans_pol_pc_l2a_l2b</title>
<path fill="none" stroke="black" d="M793.25,-158.16C793.25,-185.08 793.25,-308.13 793.25,-308.13 793.25,-308.13 881.35,-308.13 881.35,-308.13"/>
<polygon fill="black" stroke="black" points="881.35,-311.63 891.35,-308.13 881.35,-304.63 881.35,-311.63"/>
</g>
<!-- l2a_pol_pc_odir -->
<g id="node13" class="node">
<title>l2a_pol_pc_odir</title>
<ellipse fill="none" stroke="black" cx="667.3" cy="-641" rx="111.28" ry="18"/>
<text text-anchor="middle" x="667.3" y="-637.3" font-family="Times,serif" font-size="14.00">L2a_pol_pc output path 1..1</text>
</g>
<!-- l2a_pol_pc_odir&#45;&gt;trans_pol_pc_l2a_l2b -->
<g id="edge10" class="edge">
<title>l2a_pol_pc_odir&#45;&gt;trans_pol_pc_l2a_l2b</title>
<path fill="none" stroke="black" d="M778.34,-640C862.32,-640 963.25,-640 963.25,-640 963.25,-640 963.25,-496.51 963.25,-496.51"/>
<polygon fill="black" stroke="black" points="966.75,-496.51 963.25,-486.51 959.75,-496.51 966.75,-496.51"/>
</g>
<!-- l2a_pol_pc_rec -->
<g id="node14" class="node">
<title>l2a_pol_pc_rec</title>
<polygon fill="none" stroke="black" points="726.8,-599 595.8,-599 595.8,-575 726.8,-575 738.8,-587 726.8,-599"/>
<text text-anchor="middle" x="667.3" y="-583.3" font-family="Times,serif" font-size="14.00">L2a_pol_pc recipe 1..1</text>
</g>
<!-- l2a_pol_pc_rec&#45;&gt;trans_pol_pc_l2a_l2b -->
<g id="edge11" class="edge">
<title>l2a_pol_pc_rec&#45;&gt;trans_pol_pc_l2a_l2b</title>
<path fill="none" stroke="black" d="M739.1,-586C807.22,-586 899.25,-586 899.25,-586 899.25,-586 899.25,-497.1 899.25,-497.1"/>
<polygon fill="black" stroke="black" points="902.75,-497.1 899.25,-487.1 895.75,-497.1 902.75,-497.1"/>
</g>
<!-- l2a_pol_pc_cti -->
<g id="node15" class="node">
<title>l2a_pol_pc_cti</title>
<polygon fill="none" stroke="black" points="774.8,-545 547.8,-545 547.8,-521 774.8,-521 786.8,-533 774.8,-545"/>
<text text-anchor="middle" x="667.3" y="-529.3" font-family="Times,serif" font-size="14.00">L2a_pol_pc charge xfer inefficiency 1..1</text>
</g>
<!-- l2a_pol_pc_cti&#45;&gt;trans_pol_pc_l2a_l2b -->
<g id="edge12" class="edge">
<title>l2a_pol_pc_cti&#45;&gt;trans_pol_pc_l2a_l2b</title>
<path fill="none" stroke="black" d="M778.25,-514.85C778.25,-499.89 778.25,-481.11 778.25,-481.11 778.25,-481.11 875.82,-481.11 875.82,-481.11"/>
<polygon fill="black" stroke="black" points="875.82,-484.61 885.82,-481.11 875.82,-477.61 875.82,-484.61"/>
</g>
<!-- l2a_pol_pc_dnb -->
<g id="node16" class="node">
<title>l2a_pol_pc_dnb</title>
<polygon fill="none" stroke="black" points="761.3,-491 561.3,-491 561.3,-465 761.3,-465 773.3,-478 761.3,-491"/>
<text text-anchor="middle" x="667.3" y="-481.8" font-family="Times,serif" font-size="14.00">L2a_pol_pc CIC/Dark Current/FPN</text>
<text text-anchor="middle" x="667.3" y="-466.8" font-family="Times,serif" font-size="14.00"> or master dark 1..1</text>
</g>
<!-- l2a_pol_pc_dnb&#45;&gt;trans_pol_pc_l2a_l2b -->
<g id="edge13" class="edge">
<title>l2a_pol_pc_dnb&#45;&gt;trans_pol_pc_l2a_l2b</title>
<path fill="none" stroke="black" d="M773.32,-470.06C773.32,-470.06 859.26,-470.06 859.26,-470.06"/>
<polygon fill="black" stroke="black" points="859.26,-473.56 869.26,-470.06 859.26,-466.56 859.26,-473.56"/>
</g>
<!-- l2a_pol_pc_mbpm -->
<g id="node17" class="node">
<title>l2a_pol_pc_mbpm</title>
<polygon fill="none" stroke="black" points="769.3,-435 553.3,-435 553.3,-411 769.3,-411 781.3,-423 769.3,-435"/>
<text text-anchor="middle" x="667.3" y="-419.3" font-family="Times,serif" font-size="14.00">L2a_pol_pc master bad pixel map 1..1</text>
</g>
<!-- l2a_pol_pc_mbpm&#45;&gt;trans_pol_pc_l2a_l2b -->
<g id="edge14" class="edge">
<title>l2a_pol_pc_mbpm&#45;&gt;trans_pol_pc_l2a_l2b</title>
<path fill="none" stroke="black" d="M781.32,-423C781.32,-423 828.35,-423 828.35,-423"/>
<polygon fill="black" stroke="black" points="828.35,-426.5 838.35,-423 828.35,-419.5 828.35,-426.5"/>
</g>
<!-- l2a_pol_pc_emg -->
<g id="node18" class="node">
<title>l2a_pol_pc_emg</title>
<polygon fill="none" stroke="black" points="734.3,-381 588.3,-381 588.3,-357 734.3,-357 746.3,-369 734.3,-381"/>
<text text-anchor="middle" x="667.3" y="-365.3" font-family="Times,serif" font-size="14.00">L2a_pol_pc EM gain 1..1</text>
</g>
<!-- l2a_pol_pc_emg&#45;&gt;trans_pol_pc_l2a_l2b -->
<g id="edge15" class="edge">
<title>l2a_pol_pc_emg&#45;&gt;trans_pol_pc_l2a_l2b</title>
<path fill="none" stroke="black" d="M746.34,-369C746.34,-369 828.32,-369 828.32,-369"/>
<polygon fill="black" stroke="black" points="828.32,-372.5 838.32,-369 828.32,-365.5 828.32,-372.5"/>
</g>
<!-- l2a_pol_pc_kgain -->
<g id="node19" class="node">
<title>l2a_pol_pc_kgain</title>
<polygon fill="none" stroke="black" points="726.8,-327 595.8,-327 595.8,-303 726.8,-303 738.8,-315 726.8,-327"/>
<text text-anchor="middle" x="667.3" y="-311.3" font-family="Times,serif" font-size="14.00">L2a_pol_pc Kgain 1..1</text>
</g>
<!-- l2a_pol_pc_kgain&#45;&gt;trans_pol_pc_l2a_l2b -->
<g id="edge16" class="edge">
<title>l2a_pol_pc_kgain&#45;&gt;trans_pol_pc_l2a_l2b</title>
<path fill="none" stroke="black" d="M738.94,-324.71C738.94,-324.71 855.88,-324.71 855.88,-324.71"/>
<polygon fill="black" stroke="black" points="855.88,-328.21 865.88,-324.71 855.88,-321.21 855.88,-328.21"/>
</g>
<!-- l2a_pol_pc_polff -->
<g id="node20" class="node">
<title>l2a_pol_pc_polff</title>
<polygon fill="none" stroke="black" points="771.3,-273 551.3,-273 551.3,-249 771.3,-249 783.3,-261 771.3,-273"/>
<text text-anchor="middle" x="667.3" y="-257.3" font-family="Times,serif" font-size="14.00">L2a_pol_pc polarimetric flat fields 1..1</text>
</g>
<!-- l2a_pol_pc_polff&#45;&gt;trans_pol_pc_l2a_l2b -->
<g id="edge17" class="edge">
<title>l2a_pol_pc_polff&#45;&gt;trans_pol_pc_l2a_l2b</title>
<path fill="none" stroke="black" d="M764.25,-279.15C764.25,-295.31 764.25,-316.42 764.25,-316.42 764.25,-316.42 866.69,-316.42 866.69,-316.42"/>
<polygon fill="black" stroke="black" points="866.69,-319.92 876.69,-316.42 866.69,-312.92 866.69,-319.92"/>
</g>
<!-- l2b_pol_pc_prod&#45;&gt;trans_pol_pc_l2b_l3 -->
<g id="edge22" class="edge">
<title>l2b_pol_pc_prod&#45;&gt;trans_pol_pc_l2b_l3</title>
<path fill="none" stroke="black" stroke-dasharray="5,2" d="M1195.25,-495.19C1195.25,-501.8 1195.25,-507.67 1195.25,-507.67 1195.25,-507.67 1391.74,-507.67 1391.74,-507.67"/>
<polygon fill="black" stroke="black" points="1391.74,-511.17 1401.74,-507.67 1391.74,-504.17 1391.74,-511.17"/>
</g>
<!-- l2b_pol_pc_man&#45;&gt;trans_pol_pc_l2b_l3 -->
<g id="edge23" class="edge">
<title>l2b_pol_pc_man&#45;&gt;trans_pol_pc_l2b_l3</title>
<path fill="none" stroke="black" d="M1313.25,-431.19C1313.25,-451.46 1313.25,-502.33 1313.25,-502.33 1313.25,-502.33 1399.63,-502.33 1399.63,-502.33"/>
<polygon fill="black" stroke="black" points="1399.63,-505.83 1409.63,-502.33 1399.63,-498.83 1399.63,-505.83"/>
</g>
<!-- l2b_pol_pc_odir -->
<g id="node24" class="node">
<title>l2b_pol_pc_odir</title>
<ellipse fill="none" stroke="black" cx="1194.86" cy="-747" rx="111.58" ry="18"/>
<text text-anchor="middle" x="1194.86" y="-743.3" font-family="Times,serif" font-size="14.00">L2b_pol_pc output path 1..1</text>
</g>
<!-- l2b_pol_pc_odir&#45;&gt;trans_pol_pc_l2b_l3 -->
<g id="edge24" class="edge">
<title>l2b_pol_pc_odir&#45;&gt;trans_pol_pc_l2b_l3</title>
<path fill="none" stroke="black" d="M1287.25,-736.57C1287.25,-715.46 1287.25,-669.67 1287.25,-669.67 1287.25,-669.67 1402.95,-669.67 1402.95,-669.67"/>
<polygon fill="black" stroke="black" points="1402.95,-673.17 1412.95,-669.67 1402.95,-666.17 1402.95,-673.17"/>
</g>
<!-- l2b_pol_pc_rec -->
<g id="node25" class="node">
<title>l2b_pol_pc_rec</title>
<polygon fill="none" stroke="black" points="1254.36,-705 1123.36,-705 1123.36,-681 1254.36,-681 1266.36,-693 1254.36,-705"/>
<text text-anchor="middle" x="1194.86" y="-689.3" font-family="Times,serif" font-size="14.00">L2b_pol_pc recipe 1..1</text>
</g>
<!-- l2b_pol_pc_rec&#45;&gt;trans_pol_pc_l2b_l3 -->
<g id="edge25" class="edge">
<title>l2b_pol_pc_rec&#45;&gt;trans_pol_pc_l2b_l3</title>
<path fill="none" stroke="black" d="M1195.25,-674.68C1195.25,-669.06 1195.25,-664.33 1195.25,-664.33 1195.25,-664.33 1394.32,-664.33 1394.32,-664.33"/>
<polygon fill="black" stroke="black" points="1394.32,-667.83 1404.32,-664.33 1394.32,-660.83 1394.32,-667.83"/>
</g>
<!-- l2b_pol_pc_excicrf -->
<g id="node26" class="node">
<title>l2b_pol_pc_excicrf</title>
<polygon fill="none" stroke="black" points="1303.36,-651 1074.36,-651 1074.36,-627 1303.36,-627 1315.36,-639 1303.36,-651"/>
<text text-anchor="middle" x="1194.86" y="-635.3" font-family="Times,serif" font-size="14.00">L2b_pol_pc EXCAM ICRF location 1..1</text>
</g>
<!-- l2b_pol_pc_excicrf&#45;&gt;trans_pol_pc_l2b_l3 -->
<g id="edge26" class="edge">
<title>l2b_pol_pc_excicrf&#45;&gt;trans_pol_pc_l2b_l3</title>
<path fill="none" stroke="black" d="M1315.7,-639C1315.7,-639 1369.37,-639 1369.37,-639"/>
<polygon fill="black" stroke="black" points="1369.37,-642.5 1379.37,-639 1369.37,-635.5 1369.37,-642.5"/>
</g>
<!-- l2b_pol_pc_excfovps -->
<g id="node27" class="node">
<title>l2b_pol_pc_excfovps</title>
<polygon fill="none" stroke="black" points="1308.36,-597 1069.36,-597 1069.36,-573 1308.36,-573 1320.36,-585 1308.36,-597"/>
<text text-anchor="middle" x="1194.86" y="-581.3" font-family="Times,serif" font-size="14.00">L2b_pol_pc EXCAM FOV pixel scale 1..1</text>
</g>
<!-- l2b_pol_pc_excfovps&#45;&gt;trans_pol_pc_l2b_l3 -->
<g id="edge27" class="edge">
<title>l2b_pol_pc_excfovps&#45;&gt;trans_pol_pc_l2b_l3</title>
<path fill="none" stroke="black" d="M1320.72,-585C1320.72,-585 1352.61,-585 1352.61,-585"/>
<polygon fill="black" stroke="black" points="1352.61,-588.5 1362.61,-585 1352.61,-581.5 1352.61,-588.5"/>
</g>
<!-- l2b_pol_pc_cfamfo -->
<g id="node28" class="node">
<title>l2b_pol_pc_cfamfo</title>
<polygon fill="none" stroke="black" points="1292.36,-543 1085.36,-543 1085.36,-519 1292.36,-519 1304.36,-531 1292.36,-543"/>
<text text-anchor="middle" x="1194.86" y="-527.3" font-family="Times,serif" font-size="14.00">L2b_pol_pc CFAM filter offsets 1..1</text>
</g>
<!-- l2b_pol_pc_cfamfo&#45;&gt;trans_pol_pc_l2b_l3 -->
<g id="edge28" class="edge">
<title>l2b_pol_pc_cfamfo&#45;&gt;trans_pol_pc_l2b_l3</title>
<path fill="none" stroke="black" d="M1304.57,-531C1304.57,-531 1369.38,-531 1369.38,-531"/>
<polygon fill="black" stroke="black" points="1369.38,-534.5 1379.38,-531 1369.38,-527.5 1369.38,-534.5"/>
</g>
<!-- l3_pol_pc_prod&#45;&gt;trans_pol_pc_l3_l4 -->
<g id="edge32" class="edge">
<title>l3_pol_pc_prod&#45;&gt;trans_pol_pc_l3_l4</title>
<path fill="none" stroke="black" stroke-dasharray="5,2" d="M1793.59,-666C1793.59,-666 1888.19,-666 1888.19,-666"/>
<polygon fill="black" stroke="black" points="1888.19,-669.5 1898.19,-666 1888.19,-662.5 1888.19,-669.5"/>
</g>
<!-- l3_pol_pc_odir -->
<g id="node31" class="node">
<title>l3_pol_pc_odir</title>
<ellipse fill="none" stroke="black" cx="1718.52" cy="-828" rx="107.48" ry="18"/>
<text text-anchor="middle" x="1718.52" y="-824.3" font-family="Times,serif" font-size="14.00">L3_pol_pc output path 1..1</text>
</g>
<!-- l3_pol_pc_odir&#45;&gt;trans_pol_pc_l3_l4 -->
<g id="edge34" class="edge">
<title>l3_pol_pc_odir&#45;&gt;trans_pol_pc_l3_l4</title>
<path fill="none" stroke="black" d="M1819.25,-821.74C1819.25,-813.76 1819.25,-801 1819.25,-801 1819.25,-801 1916.07,-801 1916.07,-801"/>
<polygon fill="black" stroke="black" points="1916.07,-804.5 1926.07,-801 1916.07,-797.5 1916.07,-804.5"/>
</g>
<!-- l3_pol_pc_man&#45;&gt;trans_pol_pc_l3_l4 -->
<g id="edge33" class="edge">
<title>l3_pol_pc_man&#45;&gt;trans_pol_pc_l3_l4</title>
<path fill="none" stroke="black" d="M1836.25,-619.09C1836.25,-627.09 1836.25,-639 1836.25,-639 1836.25,-639 1916.07,-639 1916.07,-639"/>
<polygon fill="black" stroke="black" points="1916.07,-642.5 1926.07,-639 1916.07,-635.5 1916.07,-642.5"/>
</g>
<!-- l3_pol_pc_rec -->
<g id="node33" class="node">
<title>l3_pol_pc_rec</title>
<polygon fill="none" stroke="black" points="1775.02,-786 1650.02,-786 1650.02,-762 1775.02,-762 1787.02,-774 1775.02,-786"/>
<text text-anchor="middle" x="1718.52" y="-770.3" font-family="Times,serif" font-size="14.00">L3_pol_pc recipe 1..1</text>
</g>
<!-- l3_pol_pc_rec&#45;&gt;trans_pol_pc_l3_l4 -->
<g id="edge35" class="edge">
<title>l3_pol_pc_rec&#45;&gt;trans_pol_pc_l3_l4</title>
<path fill="none" stroke="black" d="M1787.05,-774C1787.05,-774 1888.09,-774 1888.09,-774"/>
<polygon fill="black" stroke="black" points="1888.09,-777.5 1898.09,-774 1888.09,-770.5 1888.09,-777.5"/>
</g>
<!-- l3_pol_pc_mueller -->
<g id="node34" class="node">
<title>l3_pol_pc_mueller</title>
<polygon fill="none" stroke="black" points="1799.02,-732 1626.02,-732 1626.02,-708 1799.02,-708 1811.02,-720 1799.02,-732"/>
<text text-anchor="middle" x="1718.52" y="-716.3" font-family="Times,serif" font-size="14.00">L3_pol_pc mueller matrix 1..1</text>
</g>
<!-- l3_pol_pc_mueller&#45;&gt;trans_pol_pc_l3_l4 -->
<g id="edge36" class="edge">
<title>l3_pol_pc_mueller&#45;&gt;trans_pol_pc_l3_l4</title>
<path fill="none" stroke="black" d="M1811.12,-720C1811.12,-720 1871.56,-720 1871.56,-720"/>
<polygon fill="black" stroke="black" points="1871.56,-723.5 1881.56,-720 1871.56,-716.5 1871.56,-723.5"/>
</g>
<!-- l4_pol_pc_prod&#45;&gt;trans_pol_pc_l4_tda -->
<g id="edge40" class="edge">
<title>l4_pol_pc_prod&#45;&gt;trans_pol_pc_l4_tda</title>
<path fill="none" stroke="black" stroke-dasharray="5,2" d="M2338.54,-807.94C2338.54,-807.94 2476.64,-807.94 2476.64,-807.94"/>
<polygon fill="black" stroke="black" points="2476.64,-811.44 2486.64,-807.94 2476.64,-804.44 2476.64,-811.44"/>
</g>
<!-- l4_pol_pc_man&#45;&gt;trans_pol_pc_l4_tda -->
<g id="edge41" class="edge">
<title>l4_pol_pc_man&#45;&gt;trans_pol_pc_l4_tda</title>
<path fill="none" stroke="black" d="M2367.25,-703.73C2367.25,-730.27 2367.25,-796.89 2367.25,-796.89 2367.25,-796.89 2493.63,-796.89 2493.63,-796.89"/>
<polygon fill="black" stroke="black" points="2493.63,-800.39 2503.63,-796.89 2493.62,-793.39 2493.63,-800.39"/>
</g>
<!-- l4_pol_pc_odir -->
<g id="node39" class="node">
<title>l4_pol_pc_odir</title>
<ellipse fill="none" stroke="black" cx="2263.24" cy="-1017" rx="107.48" ry="18"/>
<text text-anchor="middle" x="2263.24" y="-1013.3" font-family="Times,serif" font-size="14.00">L4_pol_pc output path 1..1</text>
</g>
<!-- l4_pol_pc_odir&#45;&gt;trans_pol_pc_l4_tda -->
<g id="edge42" class="edge">
<title>l4_pol_pc_odir&#45;&gt;trans_pol_pc_l4_tda</title>
<path fill="none" stroke="black" d="M2351.25,-1006.42C2351.25,-991.78 2351.25,-967.11 2351.25,-967.11 2351.25,-967.11 2493.17,-967.11 2493.17,-967.11"/>
<polygon fill="black" stroke="black" points="2493.17,-970.61 2503.17,-967.11 2493.17,-963.61 2493.17,-970.61"/>
</g>
<!-- l4_pol_pc_rec -->
<g id="node40" class="node">
<title>l4_pol_pc_rec</title>
<polygon fill="none" stroke="black" points="2319.74,-975 2194.74,-975 2194.74,-951 2319.74,-951 2331.74,-963 2319.74,-975"/>
<text text-anchor="middle" x="2263.24" y="-959.3" font-family="Times,serif" font-size="14.00">L4_pol_pc recipe 1..1</text>
</g>
<!-- l4_pol_pc_rec&#45;&gt;trans_pol_pc_l4_tda -->
<g id="edge43" class="edge">
<title>l4_pol_pc_rec&#45;&gt;trans_pol_pc_l4_tda</title>
<path fill="none" stroke="black" d="M2331.91,-956.06C2331.91,-956.06 2476.65,-956.06 2476.65,-956.06"/>
<polygon fill="black" stroke="black" points="2476.65,-959.56 2486.65,-956.06 2476.65,-952.56 2476.65,-959.56"/>
</g>
<!-- l4_pol_pc_ctcal -->
<g id="node41" class="node">
<title>l4_pol_pc_ctcal</title>
<polygon fill="none" stroke="black" points="2379.74,-921 2134.74,-921 2134.74,-897 2379.74,-897 2391.74,-909 2379.74,-921"/>
<text text-anchor="middle" x="2263.24" y="-905.3" font-family="Times,serif" font-size="14.00">L4_pol_pc core throughput calibrations 1..1</text>
</g>
<!-- l4_pol_pc_ctcal&#45;&gt;trans_pol_pc_l4_tda -->
<g id="edge44" class="edge">
<title>l4_pol_pc_ctcal&#45;&gt;trans_pol_pc_l4_tda</title>
<path fill="none" stroke="black" d="M2392.06,-909C2392.06,-909 2445.98,-909 2445.98,-909"/>
<polygon fill="black" stroke="black" points="2445.98,-912.5 2455.98,-909 2445.98,-905.5 2445.98,-912.5"/>
</g>
<!-- l4_pol_pc_afcal -->
<g id="node42" class="node">
<title>l4_pol_pc_afcal</title>
<polygon fill="none" stroke="black" points="2404.24,-867 2110.24,-867 2110.24,-843 2404.24,-843 2416.24,-855 2404.24,-867"/>
<text text-anchor="middle" x="2263.24" y="-851.3" font-family="Times,serif" font-size="14.00">L4_pol_pc polarimetric absolute flux calibration 1..1</text>
</g>
<!-- l4_pol_pc_afcal&#45;&gt;trans_pol_pc_l4_tda -->
<g id="edge45" class="edge">
<title>l4_pol_pc_afcal&#45;&gt;trans_pol_pc_l4_tda</title>
<path fill="none" stroke="black" d="M2416.26,-855C2416.26,-855 2445.83,-855 2445.83,-855"/>
<polygon fill="black" stroke="black" points="2445.83,-858.5 2455.83,-855 2445.83,-851.5 2445.83,-858.5"/>
</g>
<!-- tda_pol_pc_man -->
<g id="node43" class="node">
<title>tda_pol_pc_man</title>
<ellipse fill="none" stroke="black" cx="135.84" cy="-288" rx="135.68" ry="18"/>
<text text-anchor="middle" x="135.84" y="-284.3" font-family="Times,serif" font-size="14.00">TDA_pol_pc product manifest 1..1</text>
</g>
</g>
</svg>
