<?xml version="1.0" encoding="UTF-8" standalone="no"?>
<!DOCTYPE svg PUBLIC "-//W3C//DTD SVG 1.1//EN"
 "http://www.w3.org/Graphics/SVG/1.1/DTD/svg11.dtd">
<!-- Generated by graphviz version 2.43.0 (0)
 -->
<!-- Title: PolarimetryAnalog Pages: 1 -->
<svg width="4185pt" height="981pt"
 viewBox="0.00 0.00 4184.98 981.00" xmlns="http://www.w3.org/2000/svg" xmlns:xlink="http://www.w3.org/1999/xlink">
<g id="graph0" class="graph" transform="scale(1 1) rotate(0) translate(4 977)">
<title>PolarimetryAnalog</title>
<polygon fill="white" stroke="transparent" points="-4,4 -4,-977 4180.98,-977 4180.98,4 -4,4"/>
<!-- trans_pol_a_l1_l2a -->
<g id="node1" class="node">
<title>trans_pol_a_l1_l2a</title>
<ellipse fill="none" stroke="black" cx="408.64" cy="-126" rx="115.02" ry="115.02"/>
<text text-anchor="middle" x="408.64" y="-129.8" font-family="Times,serif" font-size="14.00">pol_a Transmutation</text>
<text text-anchor="middle" x="408.64" y="-114.8" font-family="Times,serif" font-size="14.00">L1 to L2a</text>
</g>
<!-- l2a_pol_a_prod -->
<g id="node13" class="node">
<title>l2a_pol_a_prod</title>
<polygon fill="none" stroke="black" points="1023.62,-254 838.62,-254 838.62,-218 1023.62,-218 1023.62,-254"/>
<text text-anchor="middle" x="931.12" y="-232.3" font-family="Times,serif" font-size="14.00">L2a_pol_a products 1..b</text>
</g>
<!-- trans_pol_a_l1_l2a&#45;&gt;l2a_pol_a_prod -->
<g id="edge6" class="edge">
<title>trans_pol_a_l1_l2a&#45;&gt;l2a_pol_a_prod</title>
<path fill="none" stroke="black" d="M459.21,-229.63C459.21,-229.63 828.56,-229.63 828.56,-229.63"/>
<polygon fill="black" stroke="black" points="828.56,-233.13 838.56,-229.63 828.56,-226.13 828.56,-233.13"/>
</g>
<!-- l2a_pol_a_man -->
<g id="node14" class="node">
<title>l2a_pol_a_man</title>
<ellipse fill="none" stroke="black" cx="680.13" cy="-126" rx="120.48" ry="18"/>
<text text-anchor="middle" x="680.13" y="-122.3" font-family="Times,serif" font-size="14.00">L2a_pol_a manifest 1..1</text>
</g>
<!-- trans_pol_a_l1_l2a&#45;&gt;l2a_pol_a_man -->
<g id="edge7" class="edge">
<title>trans_pol_a_l1_l2a&#45;&gt;l2a_pol_a_man</title>
<path fill="none" stroke="black" d="M524.17,-126C524.17,-126 549.5,-126 549.5,-126"/>
<polygon fill="black" stroke="black" points="549.5,-129.5 559.5,-126 549.5,-122.5 549.5,-129.5"/>
</g>
<!-- l2a_pol_a_log -->
<g id="node23" class="node">
<title>l2a_pol_a_log</title>
<ellipse fill="none" stroke="black" cx="680.13" cy="-72" rx="93.68" ry="18"/>
<text text-anchor="middle" x="680.13" y="-68.3" font-family="Times,serif" font-size="14.00">L2a log_pol_a 1..1</text>
</g>
<!-- trans_pol_a_l1_l2a&#45;&gt;l2a_pol_a_log -->
<g id="edge8" class="edge">
<title>trans_pol_a_l1_l2a&#45;&gt;l2a_pol_a_log</title>
<path fill="none" stroke="black" d="M510.5,-72C510.5,-72 576.21,-72 576.21,-72"/>
<polygon fill="black" stroke="black" points="576.21,-75.5 586.21,-72 576.21,-68.5 576.21,-75.5"/>
</g>
<!-- l2a_pol_a_demux -->
<g id="node2" class="node">
<title>l2a_pol_a_demux</title>
<ellipse fill="none" stroke="black" cx="931.12" cy="-105" rx="94.51" ry="94.51"/>
<text text-anchor="middle" x="931.12" y="-108.8" font-family="Times,serif" font-size="14.00">pol_a l2a Demux</text>
<text text-anchor="middle" x="931.12" y="-93.8" font-family="Times,serif" font-size="14.00">Exposure</text>
</g>
<!-- l2a_pol_a_man_demux -->
<g id="node24" class="node">
<title>l2a_pol_a_man_demux</title>
<ellipse fill="none" stroke="black" cx="1206.88" cy="-147" rx="133.78" ry="18"/>
<text text-anchor="middle" x="1206.88" y="-143.3" font-family="Times,serif" font-size="14.00">L2a_pol_a(E) manifest 1..1</text>
</g>
<!-- l2a_pol_a_demux&#45;&gt;l2a_pol_a_man_demux -->
<g id="edge22" class="edge">
<title>l2a_pol_a_demux&#45;&gt;l2a_pol_a_man_demux</title>
<path fill="none" stroke="black" d="M1016.11,-147C1016.11,-147 1062.97,-147 1062.97,-147"/>
<polygon fill="black" stroke="black" points="1062.97,-150.5 1072.97,-147 1062.97,-143.5 1062.97,-150.5"/>
</g>
<!-- trans_pol_a_l2a_l2b -->
<g id="node3" class="node">
<title>trans_pol_a_l2a_l2b</title>
<ellipse fill="none" stroke="black" cx="1503.14" cy="-395" rx="115.02" ry="115.02"/>
<text text-anchor="middle" x="1503.14" y="-398.8" font-family="Times,serif" font-size="14.00">pol_a Transmutation</text>
<text text-anchor="middle" x="1503.14" y="-383.8" font-family="Times,serif" font-size="14.00">L2a to L2b</text>
</g>
<!-- l2b_pol_a_prod -->
<g id="node25" class="node">
<title>l2b_pol_a_prod</title>
<polygon fill="none" stroke="black" points="2144.17,-513 1958.17,-513 1958.17,-477 2144.17,-477 2144.17,-513"/>
<text text-anchor="middle" x="2051.17" y="-491.3" font-family="Times,serif" font-size="14.00">L2b_pol_a products 1..1</text>
</g>
<!-- trans_pol_a_l2a_l2b&#45;&gt;l2b_pol_a_prod -->
<g id="edge18" class="edge">
<title>trans_pol_a_l2a_l2b&#45;&gt;l2b_pol_a_prod</title>
<path fill="none" stroke="black" d="M1562.83,-493.63C1562.83,-493.63 1947.78,-493.63 1947.78,-493.63"/>
<polygon fill="black" stroke="black" points="1947.78,-497.13 1957.78,-493.63 1947.78,-490.13 1947.78,-497.13"/>
</g>
<!-- l2b_pol_a_man_demux -->
<g id="node32" class="node">
<title>l2b_pol_a_man_demux</title>
<ellipse fill="none" stroke="black" cx="1788.28" cy="-395" rx="133.78" ry="18"/>
<text text-anchor="middle" x="1788.28" y="-391.3" font-family="Times,serif" font-size="14.00">L2b_pol_a(E) manifest 1..1</text>
</g>
<!-- trans_pol_a_l2a_l2b&#45;&gt;l2b_pol_a_man_demux -->
<g id="edge19" class="edge">
<title>trans_pol_a_l2a_l2b&#45;&gt;l2b_pol_a_man_demux</title>
<path fill="none" stroke="black" d="M1618.7,-395C1618.7,-395 1644.33,-395 1644.33,-395"/>
<polygon fill="black" stroke="black" points="1644.33,-398.5 1654.33,-395 1644.33,-391.5 1644.33,-398.5"/>
</g>
<!-- l2b_pol_a_log -->
<g id="node33" class="node">
<title>l2b_pol_a_log</title>
<ellipse fill="none" stroke="black" cx="1788.28" cy="-341" rx="94.48" ry="18"/>
<text text-anchor="middle" x="1788.28" y="-337.3" font-family="Times,serif" font-size="14.00">L2b_pol_a log 1..1</text>
</g>
<!-- trans_pol_a_l2a_l2b&#45;&gt;l2b_pol_a_log -->
<g id="edge20" class="edge">
<title>trans_pol_a_l2a_l2b&#45;&gt;l2b_pol_a_log</title>
<path fill="none" stroke="black" d="M1605.27,-341C1605.27,-341 1683.98,-341 1683.98,-341"/>
<polygon fill="black" stroke="black" points="1683.98,-344.5 1693.98,-341 1683.98,-337.5 1683.98,-344.5"/>
</g>
<!-- l2b_pol_a_mux -->
<g id="node4" class="node">
<title>l2b_pol_a_mux</title>
<ellipse fill="none" stroke="black" cx="2051.17" cy="-377" rx="82.05" ry="82.05"/>
<text text-anchor="middle" x="2051.17" y="-380.8" font-family="Times,serif" font-size="14.00">pol_a l2b Mux</text>
<text text-anchor="middle" x="2051.17" y="-365.8" font-family="Times,serif" font-size="14.00">Exposure</text>
</g>
<!-- l2b_pol_a_man -->
<g id="node26" class="node">
<title>l2b_pol_a_man</title>
<ellipse fill="none" stroke="black" cx="2326.67" cy="-413" rx="120.48" ry="18"/>
<text text-anchor="middle" x="2326.67" y="-409.3" font-family="Times,serif" font-size="14.00">L2b_pol_a manifest 1..1</text>
</g>
<!-- l2b_pol_a_mux&#45;&gt;l2b_pol_a_man -->
<g id="edge25" class="edge">
<title>l2b_pol_a_mux&#45;&gt;l2b_pol_a_man</title>
<path fill="none" stroke="black" d="M2125,-413C2125,-413 2196.35,-413 2196.35,-413"/>
<polygon fill="black" stroke="black" points="2196.35,-416.5 2206.35,-413 2196.35,-409.5 2196.35,-416.5"/>
</g>
<!-- trans_pol_a_l2b_l3 -->
<g id="node5" class="node">
<title>trans_pol_a_l2b_l3</title>
<ellipse fill="none" stroke="black" cx="2624.43" cy="-577" rx="115.02" ry="115.02"/>
<text text-anchor="middle" x="2624.43" y="-580.8" font-family="Times,serif" font-size="14.00">pol_a Transmutation</text>
<text text-anchor="middle" x="2624.43" y="-565.8" font-family="Times,serif" font-size="14.00">L2b to L3</text>
</g>
<!-- l3_pol_a_prod -->
<g id="node34" class="node">
<title>l3_pol_a_prod</title>
<polygon fill="none" stroke="black" points="2992.88,-649 2815.88,-649 2815.88,-613 2992.88,-613 2992.88,-649"/>
<text text-anchor="middle" x="2904.38" y="-627.3" font-family="Times,serif" font-size="14.00">L3_pol_a products 1..1</text>
</g>
<!-- trans_pol_a_l2b_l3&#45;&gt;l3_pol_a_prod -->
<g id="edge33" class="edge">
<title>trans_pol_a_l2b_l3&#45;&gt;l3_pol_a_prod</title>
<path fill="none" stroke="black" d="M2726.29,-631C2726.29,-631 2805.54,-631 2805.54,-631"/>
<polygon fill="black" stroke="black" points="2805.54,-634.5 2815.54,-631 2805.54,-627.5 2805.54,-634.5"/>
</g>
<!-- l3_pol_a_man -->
<g id="node36" class="node">
<title>l3_pol_a_man</title>
<ellipse fill="none" stroke="black" cx="2904.38" cy="-577" rx="114.28" ry="18"/>
<text text-anchor="middle" x="2904.38" y="-573.3" font-family="Times,serif" font-size="14.00">L3_pol_a manifest 1..1</text>
</g>
<!-- trans_pol_a_l2b_l3&#45;&gt;l3_pol_a_man -->
<g id="edge34" class="edge">
<title>trans_pol_a_l2b_l3&#45;&gt;l3_pol_a_man</title>
<path fill="none" stroke="black" d="M2739.91,-577C2739.91,-577 2779.61,-577 2779.61,-577"/>
<polygon fill="black" stroke="black" points="2779.61,-580.5 2789.61,-577 2779.61,-573.5 2779.61,-580.5"/>
</g>
<!-- l3_pol_a_log -->
<g id="node39" class="node">
<title>l3_pol_a_log</title>
<ellipse fill="none" stroke="black" cx="2904.38" cy="-523" rx="88.28" ry="18"/>
<text text-anchor="middle" x="2904.38" y="-519.3" font-family="Times,serif" font-size="14.00">L3_pol_a log 1..1</text>
</g>
<!-- trans_pol_a_l2b_l3&#45;&gt;l3_pol_a_log -->
<g id="edge35" class="edge">
<title>trans_pol_a_l2b_l3&#45;&gt;l3_pol_a_log</title>
<path fill="none" stroke="black" d="M2726.29,-523C2726.29,-523 2805.54,-523 2805.54,-523"/>
<polygon fill="black" stroke="black" points="2805.54,-526.5 2815.54,-523 2805.54,-519.5 2805.54,-526.5"/>
</g>
<!-- trans_pol_a_l3_l4 -->
<g id="node6" class="node">
<title>trans_pol_a_l3_l4</title>
<ellipse fill="none" stroke="black" cx="3184.32" cy="-685" rx="115.02" ry="115.02"/>
<text text-anchor="middle" x="3184.32" y="-688.8" font-family="Times,serif" font-size="14.00">pol_a Transmutation</text>
<text text-anchor="middle" x="3184.32" y="-673.8" font-family="Times,serif" font-size="14.00">L3 to L4</text>
</g>
<!-- l4_pol_a_prod -->
<g id="node40" class="node">
<title>l4_pol_a_prod</title>
<polygon fill="none" stroke="black" points="3613.58,-757 3436.58,-757 3436.58,-721 3613.58,-721 3613.58,-757"/>
<text text-anchor="middle" x="3525.08" y="-735.3" font-family="Times,serif" font-size="14.00">L4_pol_a products 1..1</text>
</g>
<!-- trans_pol_a_l3_l4&#45;&gt;l4_pol_a_prod -->
<g id="edge41" class="edge">
<title>trans_pol_a_l3_l4&#45;&gt;l4_pol_a_prod</title>
<path fill="none" stroke="black" d="M3286.56,-739C3286.56,-739 3426.48,-739 3426.48,-739"/>
<polygon fill="black" stroke="black" points="3426.48,-742.5 3436.48,-739 3426.48,-735.5 3426.48,-742.5"/>
</g>
<!-- l4_pol_a_log -->
<g id="node41" class="node">
<title>l4_pol_a_log</title>
<ellipse fill="none" stroke="black" cx="3525.08" cy="-685" rx="88.28" ry="18"/>
<text text-anchor="middle" x="3525.08" y="-681.3" font-family="Times,serif" font-size="14.00">L4_pol_a log 1..1</text>
</g>
<!-- trans_pol_a_l3_l4&#45;&gt;l4_pol_a_log -->
<g id="edge42" class="edge">
<title>trans_pol_a_l3_l4&#45;&gt;l4_pol_a_log</title>
<path fill="none" stroke="black" d="M3299.69,-685C3299.69,-685 3426.5,-685 3426.5,-685"/>
<polygon fill="black" stroke="black" points="3426.5,-688.5 3436.5,-685 3426.5,-681.5 3426.5,-688.5"/>
</g>
<!-- l4_pol_a_man -->
<g id="node42" class="node">
<title>l4_pol_a_man</title>
<ellipse fill="none" stroke="black" cx="3525.08" cy="-631" rx="114.28" ry="18"/>
<text text-anchor="middle" x="3525.08" y="-627.3" font-family="Times,serif" font-size="14.00">L4_pol_a manifest 1..1</text>
</g>
<!-- trans_pol_a_l3_l4&#45;&gt;l4_pol_a_man -->
<g id="edge43" class="edge">
<title>trans_pol_a_l3_l4&#45;&gt;l4_pol_a_man</title>
<path fill="none" stroke="black" d="M3286.56,-631C3286.56,-631 3400.69,-631 3400.69,-631"/>
<polygon fill="black" stroke="black" points="3400.69,-634.5 3410.69,-631 3400.69,-627.5 3400.69,-634.5"/>
</g>
<!-- trans_pol_a_l4_tda -->
<g id="node7" class="node">
<title>trans_pol_a_l4_tda</title>
<ellipse fill="none" stroke="black" cx="3865.84" cy="-820" rx="115.02" ry="115.02"/>
<text text-anchor="middle" x="3865.84" y="-823.8" font-family="Times,serif" font-size="14.00">pol_a Transmutation</text>
<text text-anchor="middle" x="3865.84" y="-808.8" font-family="Times,serif" font-size="14.00">L4 to TDA</text>
</g>
<!-- tda_pol_a_prod -->
<g id="node47" class="node">
<title>tda_pol_a_prod</title>
<ellipse fill="none" stroke="black" cx="4097.04" cy="-847" rx="79.89" ry="18"/>
<text text-anchor="middle" x="4097.04" y="-843.3" font-family="Times,serif" font-size="14.00">tda_pol_a_prod</text>
</g>
<!-- trans_pol_a_l4_tda&#45;&gt;tda_pol_a_prod -->
<g id="edge50" class="edge">
<title>trans_pol_a_l4_tda&#45;&gt;tda_pol_a_prod</title>
<path fill="none" stroke="black" d="M3978.05,-847C3978.05,-847 4006.9,-847 4006.9,-847"/>
<polygon fill="black" stroke="black" points="4006.9,-850.5 4016.9,-847 4006.9,-843.5 4006.9,-850.5"/>
</g>
<!-- tda_pol_a_log -->
<g id="node48" class="node">
<title>tda_pol_a_log</title>
<ellipse fill="none" stroke="black" cx="4097.04" cy="-793" rx="72.59" ry="18"/>
<text text-anchor="middle" x="4097.04" y="-789.3" font-family="Times,serif" font-size="14.00">tda_pol_a_log</text>
</g>
<!-- trans_pol_a_l4_tda&#45;&gt;tda_pol_a_log -->
<g id="edge51" class="edge">
<title>trans_pol_a_l4_tda&#45;&gt;tda_pol_a_log</title>
<path fill="none" stroke="black" d="M3978.05,-793C3978.05,-793 4014.1,-793 4014.1,-793"/>
<polygon fill="black" stroke="black" points="4014.1,-796.5 4024.1,-793 4014.1,-789.5 4014.1,-796.5"/>
</g>
<!-- l1_pol_a_prod -->
<g id="node8" class="node">
<title>l1_pol_a_prod</title>
<polygon fill="none" stroke="black" points="217.19,-252 40.19,-252 40.19,-216 217.19,-216 217.19,-252"/>
<text text-anchor="middle" x="128.69" y="-230.3" font-family="Times,serif" font-size="14.00">L1_pol_a products 1..b</text>
</g>
<!-- l1_pol_a_prod&#45;&gt;trans_pol_a_l1_l2a -->
<g id="edge1" class="edge">
<title>l1_pol_a_prod&#45;&gt;trans_pol_a_l1_l2a</title>
<path fill="none" stroke="black" d="M217.27,-228.63C217.27,-228.63 346.06,-228.63 346.06,-228.63"/>
<polygon fill="black" stroke="black" points="346.06,-232.13 356.06,-228.63 346.06,-225.13 346.06,-232.13"/>
</g>
<!-- l1_pol_a_man -->
<g id="node9" class="node">
<title>l1_pol_a_man</title>
<ellipse fill="none" stroke="black" cx="128.69" cy="-180" rx="114.28" ry="18"/>
<text text-anchor="middle" x="128.69" y="-176.3" font-family="Times,serif" font-size="14.00">L1_pol_a manifest 1..1</text>
</g>
<!-- l1_pol_a_man&#45;&gt;trans_pol_a_l1_l2a -->
<g id="edge2" class="edge">
<title>l1_pol_a_man&#45;&gt;trans_pol_a_l1_l2a</title>
<path fill="none" stroke="black" d="M243.36,-180C243.36,-180 296.71,-180 296.71,-180"/>
<polygon fill="black" stroke="black" points="296.71,-183.5 306.71,-180 296.71,-176.5 296.71,-183.5"/>
</g>
<!-- l1_pol_a_odir -->
<g id="node10" class="node">
<title>l1_pol_a_odir</title>
<ellipse fill="none" stroke="black" cx="128.69" cy="-126" rx="128.88" ry="18"/>
<text text-anchor="middle" x="128.69" y="-122.3" font-family="Times,serif" font-size="14.00">L1_pol_a output path 1..1</text>
</g>
<!-- l1_pol_a_odir&#45;&gt;trans_pol_a_l1_l2a -->
<g id="edge3" class="edge">
<title>l1_pol_a_odir&#45;&gt;trans_pol_a_l1_l2a</title>
<path fill="none" stroke="black" d="M257.6,-126C257.6,-126 283.31,-126 283.31,-126"/>
<polygon fill="black" stroke="black" points="283.31,-129.5 293.31,-126 283.31,-122.5 283.31,-129.5"/>
</g>
<!-- l1_pol_a_rec -->
<g id="node11" class="node">
<title>l1_pol_a_rec</title>
<polygon fill="none" stroke="black" points="195.69,-84 49.69,-84 49.69,-60 195.69,-60 207.69,-72 195.69,-84"/>
<text text-anchor="middle" x="128.69" y="-68.3" font-family="Times,serif" font-size="14.00">L1_pol_a recipe 1..1</text>
</g>
<!-- l1_pol_a_rec&#45;&gt;trans_pol_a_l1_l2a -->
<g id="edge4" class="edge">
<title>l1_pol_a_rec&#45;&gt;trans_pol_a_l1_l2a</title>
<path fill="none" stroke="black" d="M207.79,-72C207.79,-72 296.69,-72 296.69,-72"/>
<polygon fill="black" stroke="black" points="296.69,-75.5 306.69,-72 296.69,-68.5 296.69,-75.5"/>
</g>
<!-- l1_pol_a_nllut -->
<g id="node12" class="node">
<title>l1_pol_a_nllut</title>
<polygon fill="none" stroke="black" points="226.69,-30 18.69,-30 18.69,-6 226.69,-6 238.69,-18 226.69,-30"/>
<text text-anchor="middle" x="128.69" y="-14.3" font-family="Times,serif" font-size="14.00">L1_pol_a non&#45;linear LUT 1..1</text>
</g>
<!-- l1_pol_a_nllut&#45;&gt;trans_pol_a_l1_l2a -->
<g id="edge5" class="edge">
<title>l1_pol_a_nllut&#45;&gt;trans_pol_a_l1_l2a</title>
<path fill="none" stroke="black" d="M238.93,-23.37C238.93,-23.37 345.81,-23.37 345.81,-23.37"/>
<polygon fill="black" stroke="black" points="345.81,-26.87 355.81,-23.37 345.81,-19.87 345.81,-26.87"/>
</g>
<!-- l2a_pol_a_prod&#45;&gt;trans_pol_a_l2a_l2b -->
<g id="edge9" class="edge">
<title>l2a_pol_a_prod&#45;&gt;trans_pol_a_l2a_l2b</title>
<path fill="none" stroke="black" d="M931.98,-254.17C931.98,-270.05 931.98,-290.58 931.98,-290.58 931.98,-290.58 1443.95,-290.58 1443.95,-290.58"/>
<polygon fill="black" stroke="black" points="1443.95,-294.08 1453.95,-290.58 1443.95,-287.08 1443.95,-294.08"/>
</g>
<!-- l2a_pol_a_man&#45;&gt;l2a_pol_a_demux -->
<g id="edge21" class="edge">
<title>l2a_pol_a_man&#45;&gt;l2a_pol_a_demux</title>
<path fill="none" stroke="black" d="M800.48,-126C800.48,-126 828.66,-126 828.66,-126"/>
<polygon fill="black" stroke="black" points="828.66,-129.5 838.66,-126 828.66,-122.5 828.66,-129.5"/>
</g>
<!-- l2a_pol_a_odir -->
<g id="node15" class="node">
<title>l2a_pol_a_odir</title>
<ellipse fill="none" stroke="black" cx="1206.88" cy="-640" rx="133.78" ry="18"/>
<text text-anchor="middle" x="1206.88" y="-636.3" font-family="Times,serif" font-size="14.00">L2a_pol_a output path 1..1</text>
</g>
<!-- l2a_pol_a_odir&#45;&gt;trans_pol_a_l2a_l2b -->
<g id="edge10" class="edge">
<title>l2a_pol_a_odir&#45;&gt;trans_pol_a_l2a_l2b</title>
<path fill="none" stroke="black" d="M1336.92,-635.5C1431.11,-635.5 1541.98,-635.5 1541.98,-635.5 1541.98,-635.5 1541.98,-513.64 1541.98,-513.64"/>
<polygon fill="black" stroke="black" points="1545.48,-513.64 1541.98,-503.64 1538.48,-513.64 1545.48,-513.64"/>
</g>
<!-- l2a_pol_a_rec -->
<g id="node16" class="node">
<title>l2a_pol_a_rec</title>
<polygon fill="none" stroke="black" points="1278.38,-598 1123.38,-598 1123.38,-574 1278.38,-574 1290.38,-586 1278.38,-598"/>
<text text-anchor="middle" x="1206.88" y="-582.3" font-family="Times,serif" font-size="14.00">L2a_pol_a recipe 1..1</text>
</g>
<!-- l2a_pol_a_rec&#45;&gt;trans_pol_a_l2a_l2b -->
<g id="edge11" class="edge">
<title>l2a_pol_a_rec&#45;&gt;trans_pol_a_l2a_l2b</title>
<path fill="none" stroke="black" d="M1290.68,-581.5C1366.04,-581.5 1464.98,-581.5 1464.98,-581.5 1464.98,-581.5 1464.98,-514.03 1464.98,-514.03"/>
<polygon fill="black" stroke="black" points="1468.48,-514.03 1464.98,-504.03 1461.48,-514.03 1468.48,-514.03"/>
</g>
<!-- l2a_pol_a_cti -->
<g id="node17" class="node">
<title>l2a_pol_a_cti</title>
<polygon fill="none" stroke="black" points="1339.88,-544 1061.88,-544 1061.88,-520 1339.88,-520 1351.88,-532 1339.88,-544"/>
<text text-anchor="middle" x="1206.88" y="-528.3" font-family="Times,serif" font-size="14.00">L2a_pol_a charge xfer inefficiency 1..1</text>
</g>
<!-- l2a_pol_a_cti&#45;&gt;trans_pol_a_l2a_l2b -->
<g id="edge12" class="edge">
<title>l2a_pol_a_cti&#45;&gt;trans_pol_a_l2a_l2b</title>
<path fill="none" stroke="black" stroke-dasharray="5,2" d="M1339.98,-513.88C1339.98,-508.08 1339.98,-503.13 1339.98,-503.13 1339.98,-503.13 1453.22,-503.13 1453.22,-503.13"/>
<polygon fill="black" stroke="black" points="1453.22,-506.63 1463.22,-503.13 1453.22,-499.63 1453.22,-506.63"/>
</g>
<!-- l2a_pol_a_dnb -->
<g id="node18" class="node">
<title>l2a_pol_a_dnb</title>
<polygon fill="none" stroke="black" points="1321.38,-490 1080.38,-490 1080.38,-464 1321.38,-464 1333.38,-477 1321.38,-490"/>
<text text-anchor="middle" x="1206.88" y="-480.8" font-family="Times,serif" font-size="14.00">L2a_pol_a CIC/Dark Current/FPN</text>
<text text-anchor="middle" x="1206.88" y="-465.8" font-family="Times,serif" font-size="14.00"> or master dark 1..1</text>
</g>
<!-- l2a_pol_a_dnb&#45;&gt;trans_pol_a_l2a_l2b -->
<g id="edge13" class="edge">
<title>l2a_pol_a_dnb&#45;&gt;trans_pol_a_l2a_l2b</title>
<path fill="none" stroke="black" d="M1333.81,-477C1333.81,-477 1411.86,-477 1411.86,-477"/>
<polygon fill="black" stroke="black" points="1411.86,-480.5 1421.86,-477 1411.86,-473.5 1411.86,-480.5"/>
</g>
<!-- l2a_pol_a_mbpm -->
<g id="node19" class="node">
<title>l2a_pol_a_mbpm</title>
<polygon fill="none" stroke="black" points="1333.88,-434 1067.88,-434 1067.88,-410 1333.88,-410 1345.88,-422 1333.88,-434"/>
<text text-anchor="middle" x="1206.88" y="-418.3" font-family="Times,serif" font-size="14.00">L2a_pol_a master bad pixel map 1..1</text>
</g>
<!-- l2a_pol_a_mbpm&#45;&gt;trans_pol_a_l2a_l2b -->
<g id="edge14" class="edge">
<title>l2a_pol_a_mbpm&#45;&gt;trans_pol_a_l2a_l2b</title>
<path fill="none" stroke="black" d="M1345.9,-422C1345.9,-422 1380.75,-422 1380.75,-422"/>
<polygon fill="black" stroke="black" points="1380.75,-425.5 1390.75,-422 1380.75,-418.5 1380.75,-425.5"/>
</g>
<!-- l2a_pol_a_emg -->
<g id="node20" class="node">
<title>l2a_pol_a_emg</title>
<polygon fill="none" stroke="black" points="1285.88,-380 1115.88,-380 1115.88,-356 1285.88,-356 1297.88,-368 1285.88,-380"/>
<text text-anchor="middle" x="1206.88" y="-364.3" font-family="Times,serif" font-size="14.00">L2a_pol_a EM gain 1..1</text>
</g>
<!-- l2a_pol_a_emg&#45;&gt;trans_pol_a_l2a_l2b -->
<g id="edge15" class="edge">
<title>l2a_pol_a_emg&#45;&gt;trans_pol_a_l2a_l2b</title>
<path fill="none" stroke="black" d="M1298.18,-368C1298.18,-368 1380.98,-368 1380.98,-368"/>
<polygon fill="black" stroke="black" points="1380.98,-371.5 1390.98,-368 1380.98,-364.5 1380.98,-371.5"/>
</g>
<!-- l2a_pol_a_kgain -->
<g id="node21" class="node">
<title>l2a_pol_a_kgain</title>
<polygon fill="none" stroke="black" points="1276.88,-326 1124.88,-326 1124.88,-302 1276.88,-302 1288.88,-314 1276.88,-326"/>
<text text-anchor="middle" x="1206.88" y="-310.3" font-family="Times,serif" font-size="14.00">L2a_pol_a Kgain 1..1</text>
</g>
<!-- l2a_pol_a_kgain&#45;&gt;trans_pol_a_l2a_l2b -->
<g id="edge16" class="edge">
<title>l2a_pol_a_kgain&#45;&gt;trans_pol_a_l2a_l2b</title>
<path fill="none" stroke="black" d="M1289.01,-314C1289.01,-314 1411.1,-314 1411.1,-314"/>
<polygon fill="black" stroke="black" points="1411.1,-317.5 1421.1,-314 1411.1,-310.5 1411.1,-317.5"/>
</g>
<!-- l2a_pol_a_polff -->
<g id="node22" class="node">
<title>l2a_pol_a_polff</title>
<polygon fill="none" stroke="black" points="1335.38,-272 1066.38,-272 1066.38,-248 1335.38,-248 1347.38,-260 1335.38,-272"/>
<text text-anchor="middle" x="1206.88" y="-256.3" font-family="Times,serif" font-size="14.00">L2a_pol_a polarimetric flat fields 1..1</text>
</g>
<!-- l2a_pol_a_polff&#45;&gt;trans_pol_a_l2a_l2b -->
<g id="edge17" class="edge">
<title>l2a_pol_a_polff&#45;&gt;trans_pol_a_l2a_l2b</title>
<path fill="none" stroke="black" d="M1321.98,-278.02C1321.98,-282.05 1321.98,-285.16 1321.98,-285.16 1321.98,-285.16 1458.21,-285.16 1458.21,-285.16"/>
<polygon fill="black" stroke="black" points="1458.21,-288.66 1468.21,-285.16 1458.21,-281.66 1458.21,-288.66"/>
</g>
<!-- l2a_pol_a_man_demux&#45;&gt;trans_pol_a_l2a_l2b -->
<g id="edge23" class="edge">
<title>l2a_pol_a_man_demux&#45;&gt;trans_pol_a_l2a_l2b</title>
<path fill="none" stroke="black" d="M1341.09,-147C1419.82,-147 1503.98,-147 1503.98,-147 1503.98,-147 1503.98,-269.71 1503.98,-269.71"/>
<polygon fill="black" stroke="black" points="1500.48,-269.71 1503.98,-279.71 1507.48,-269.71 1500.48,-269.71"/>
</g>
<!-- l2b_pol_a_prod&#45;&gt;trans_pol_a_l2b_l3 -->
<g id="edge26" class="edge">
<title>l2b_pol_a_prod&#45;&gt;trans_pol_a_l2b_l3</title>
<path fill="none" stroke="black" d="M2144.23,-491C2144.23,-491 2537.53,-491 2537.53,-491"/>
<polygon fill="black" stroke="black" points="2537.53,-494.5 2547.53,-491 2537.53,-487.5 2537.53,-494.5"/>
</g>
<!-- l2b_pol_a_man&#45;&gt;trans_pol_a_l2b_l3 -->
<g id="edge27" class="edge">
<title>l2b_pol_a_man&#45;&gt;trans_pol_a_l2b_l3</title>
<path fill="none" stroke="black" d="M2326.98,-431.15C2326.98,-447.63 2326.98,-469.37 2326.98,-469.37 2326.98,-469.37 2573.07,-469.37 2573.07,-469.37"/>
<polygon fill="black" stroke="black" points="2573.07,-472.87 2583.07,-469.37 2573.07,-465.87 2573.07,-472.87"/>
</g>
<!-- l2b_pol_a_odir -->
<g id="node27" class="node">
<title>l2b_pol_a_odir</title>
<ellipse fill="none" stroke="black" cx="2326.67" cy="-739" rx="134.58" ry="18"/>
<text text-anchor="middle" x="2326.67" y="-735.3" font-family="Times,serif" font-size="14.00">L2b_pol_a output path 1..1</text>
</g>
<!-- l2b_pol_a_odir&#45;&gt;trans_pol_a_l2b_l3 -->
<g id="edge28" class="edge">
<title>l2b_pol_a_odir&#45;&gt;trans_pol_a_l2b_l3</title>
<path fill="none" stroke="black" d="M2435.98,-728.36C2435.98,-712.34 2435.98,-683.84 2435.98,-683.84 2435.98,-683.84 2570.72,-683.84 2570.72,-683.84"/>
<polygon fill="black" stroke="black" points="2570.72,-687.34 2580.72,-683.84 2570.72,-680.34 2570.72,-687.34"/>
</g>
<!-- l2b_pol_a_rec -->
<g id="node28" class="node">
<title>l2b_pol_a_rec</title>
<polygon fill="none" stroke="black" points="2398.17,-697 2243.17,-697 2243.17,-673 2398.17,-673 2410.17,-685 2398.17,-697"/>
<text text-anchor="middle" x="2326.67" y="-681.3" font-family="Times,serif" font-size="14.00">L2b_pol_a recipe 1..1</text>
</g>
<!-- l2b_pol_a_rec&#45;&gt;trans_pol_a_l2b_l3 -->
<g id="edge29" class="edge">
<title>l2b_pol_a_rec&#45;&gt;trans_pol_a_l2b_l3</title>
<path fill="none" stroke="black" d="M2410.41,-675.42C2410.41,-675.42 2554.43,-675.42 2554.43,-675.42"/>
<polygon fill="black" stroke="black" points="2554.43,-678.92 2564.43,-675.42 2554.43,-671.92 2554.43,-678.92"/>
</g>
<!-- l2b_pol_a_excicrf -->
<g id="node29" class="node">
<title>l2b_pol_a_excicrf</title>
<polygon fill="none" stroke="black" points="2454.17,-643 2187.17,-643 2187.17,-619 2454.17,-619 2466.17,-631 2454.17,-643"/>
<text text-anchor="middle" x="2326.67" y="-627.3" font-family="Times,serif" font-size="14.00">L2b_pol_a EXCAM ICRF location 1..1</text>
</g>
<!-- l2b_pol_a_excicrf&#45;&gt;trans_pol_a_l2b_l3 -->
<g id="edge30" class="edge">
<title>l2b_pol_a_excicrf&#45;&gt;trans_pol_a_l2b_l3</title>
<path fill="none" stroke="black" d="M2466.4,-631C2466.4,-631 2512.43,-631 2512.43,-631"/>
<polygon fill="black" stroke="black" points="2512.43,-634.5 2522.43,-631 2512.43,-627.5 2512.43,-634.5"/>
</g>
<!-- l2b_pol_a_excfovps -->
<g id="node30" class="node">
<title>l2b_pol_a_excfovps</title>
<polygon fill="none" stroke="black" points="2461.17,-589 2180.17,-589 2180.17,-565 2461.17,-565 2473.17,-577 2461.17,-589"/>
<text text-anchor="middle" x="2326.67" y="-573.3" font-family="Times,serif" font-size="14.00">L2b_pol_a EXCAM FOV pixel scale 1..1</text>
</g>
<!-- l2b_pol_a_excfovps&#45;&gt;trans_pol_a_l2b_l3 -->
<g id="edge31" class="edge">
<title>l2b_pol_a_excfovps&#45;&gt;trans_pol_a_l2b_l3</title>
<path fill="none" stroke="black" d="M2473.37,-577C2473.37,-577 2498.79,-577 2498.79,-577"/>
<polygon fill="black" stroke="black" points="2498.79,-580.5 2508.79,-577 2498.79,-573.5 2498.79,-580.5"/>
</g>
<!-- l2b_pol_a_cfamfo -->
<g id="node31" class="node">
<title>l2b_pol_a_cfamfo</title>
<polygon fill="none" stroke="black" points="2443.17,-535 2198.17,-535 2198.17,-511 2443.17,-511 2455.17,-523 2443.17,-535"/>
<text text-anchor="middle" x="2326.67" y="-519.3" font-family="Times,serif" font-size="14.00">L2b_pol_a CFAM filter offsets 1..1</text>
</g>
<!-- l2b_pol_a_cfamfo&#45;&gt;trans_pol_a_l2b_l3 -->
<g id="edge32" class="edge">
<title>l2b_pol_a_cfamfo&#45;&gt;trans_pol_a_l2b_l3</title>
<path fill="none" stroke="black" d="M2455.54,-523C2455.54,-523 2512.27,-523 2512.27,-523"/>
<polygon fill="black" stroke="black" points="2512.27,-526.5 2522.27,-523 2512.27,-519.5 2512.27,-526.5"/>
</g>
<!-- l2b_pol_a_man_demux&#45;&gt;l2b_pol_a_mux -->
<g id="edge24" class="edge">
<title>l2b_pol_a_man_demux&#45;&gt;l2b_pol_a_mux</title>
<path fill="none" stroke="black" d="M1922.42,-395C1922.42,-395 1960.94,-395 1960.94,-395"/>
<polygon fill="black" stroke="black" points="1960.94,-398.5 1970.94,-395 1960.94,-391.5 1960.94,-398.5"/>
</g>
<!-- l3_pol_a_prod&#45;&gt;trans_pol_a_l3_l4 -->
<g id="edge36" class="edge">
<title>l3_pol_a_prod&#45;&gt;trans_pol_a_l3_l4</title>
<path fill="none" stroke="black" d="M2992.95,-631C2992.95,-631 3072.17,-631 3072.17,-631"/>
<polygon fill="black" stroke="black" points="3072.17,-634.5 3082.17,-631 3072.17,-627.5 3072.17,-634.5"/>
</g>
<!-- l3_pol_a_odir -->
<g id="node35" class="node">
<title>l3_pol_a_odir</title>
<ellipse fill="none" stroke="black" cx="2904.38" cy="-793" rx="128.88" ry="18"/>
<text text-anchor="middle" x="2904.38" y="-789.3" font-family="Times,serif" font-size="14.00">L3_pol_a output path 1..1</text>
</g>
<!-- l3_pol_a_odir&#45;&gt;trans_pol_a_l3_l4 -->
<g id="edge38" class="edge">
<title>l3_pol_a_odir&#45;&gt;trans_pol_a_l3_l4</title>
<path fill="none" stroke="black" d="M3027.57,-787.63C3027.57,-787.63 3121.65,-787.63 3121.65,-787.63"/>
<polygon fill="black" stroke="black" points="3121.65,-791.13 3131.65,-787.63 3121.65,-784.13 3121.65,-791.13"/>
</g>
<!-- l3_pol_a_man&#45;&gt;trans_pol_a_l3_l4 -->
<g id="edge37" class="edge">
<title>l3_pol_a_man&#45;&gt;trans_pol_a_l3_l4</title>
<path fill="none" stroke="black" d="M3013.81,-582.37C3013.81,-582.37 3121.56,-582.37 3121.56,-582.37"/>
<polygon fill="black" stroke="black" points="3121.56,-585.87 3131.56,-582.37 3121.56,-578.87 3121.56,-585.87"/>
</g>
<!-- l3_pol_a_rec -->
<g id="node37" class="node">
<title>l3_pol_a_rec</title>
<polygon fill="none" stroke="black" points="2971.38,-751 2825.38,-751 2825.38,-727 2971.38,-727 2983.38,-739 2971.38,-751"/>
<text text-anchor="middle" x="2904.38" y="-735.3" font-family="Times,serif" font-size="14.00">L3_pol_a recipe 1..1</text>
</g>
<!-- l3_pol_a_rec&#45;&gt;trans_pol_a_l3_l4 -->
<g id="edge39" class="edge">
<title>l3_pol_a_rec&#45;&gt;trans_pol_a_l3_l4</title>
<path fill="none" stroke="black" d="M2983.47,-739C2983.47,-739 3072.38,-739 3072.38,-739"/>
<polygon fill="black" stroke="black" points="3072.38,-742.5 3082.38,-739 3072.38,-735.5 3072.38,-742.5"/>
</g>
<!-- l3_pol_a_mueller -->
<g id="node38" class="node">
<title>l3_pol_a_mueller</title>
<polygon fill="none" stroke="black" points="3002.88,-697 2793.88,-697 2793.88,-673 3002.88,-673 3014.88,-685 3002.88,-697"/>
<text text-anchor="middle" x="2904.38" y="-681.3" font-family="Times,serif" font-size="14.00">L3_pol_a mueller matrix 1..1</text>
</g>
<!-- l3_pol_a_mueller&#45;&gt;trans_pol_a_l3_l4 -->
<g id="edge40" class="edge">
<title>l3_pol_a_mueller&#45;&gt;trans_pol_a_l3_l4</title>
<path fill="none" stroke="black" d="M3015.02,-685C3015.02,-685 3058.97,-685 3058.97,-685"/>
<polygon fill="black" stroke="black" points="3058.97,-688.5 3068.97,-685 3058.97,-681.5 3058.97,-688.5"/>
</g>
<!-- l4_pol_a_prod&#45;&gt;trans_pol_a_l4_tda -->
<g id="edge44" class="edge">
<title>l4_pol_a_prod&#45;&gt;trans_pol_a_l4_tda</title>
<path fill="none" stroke="black" d="M3613.72,-739C3613.72,-739 3773.78,-739 3773.78,-739"/>
<polygon fill="black" stroke="black" points="3773.78,-742.5 3783.78,-739 3773.78,-735.5 3773.78,-742.5"/>
</g>
<!-- l4_pol_a_man&#45;&gt;trans_pol_a_l4_tda -->
<g id="edge45" class="edge">
<title>l4_pol_a_man&#45;&gt;trans_pol_a_l4_tda</title>
<path fill="none" stroke="black" d="M3626.98,-639.45C3626.98,-660.37 3626.98,-712.87 3626.98,-712.87 3626.98,-712.87 3813.14,-712.87 3813.14,-712.87"/>
<polygon fill="black" stroke="black" points="3813.14,-716.37 3823.14,-712.87 3813.14,-709.37 3813.14,-716.37"/>
</g>
<!-- l4_pol_a_odir -->
<g id="node43" class="node">
<title>l4_pol_a_odir</title>
<ellipse fill="none" stroke="black" cx="3525.08" cy="-955" rx="128.88" ry="18"/>
<text text-anchor="middle" x="3525.08" y="-951.3" font-family="Times,serif" font-size="14.00">L4_pol_a output path 1..1</text>
</g>
<!-- l4_pol_a_odir&#45;&gt;trans_pol_a_l4_tda -->
<g id="edge46" class="edge">
<title>l4_pol_a_odir&#45;&gt;trans_pol_a_l4_tda</title>
<path fill="none" stroke="black" d="M3628.98,-944.3C3628.98,-936.44 3628.98,-927.13 3628.98,-927.13 3628.98,-927.13 3813.22,-927.13 3813.22,-927.13"/>
<polygon fill="black" stroke="black" points="3813.22,-930.63 3823.22,-927.13 3813.22,-923.63 3813.22,-930.63"/>
</g>
<!-- l4_pol_a_rec -->
<g id="node44" class="node">
<title>l4_pol_a_rec</title>
<polygon fill="none" stroke="black" points="3592.08,-913 3446.08,-913 3446.08,-889 3592.08,-889 3604.08,-901 3592.08,-913"/>
<text text-anchor="middle" x="3525.08" y="-897.3" font-family="Times,serif" font-size="14.00">L4_pol_a recipe 1..1</text>
</g>
<!-- l4_pol_a_rec&#45;&gt;trans_pol_a_l4_tda -->
<g id="edge47" class="edge">
<title>l4_pol_a_rec&#45;&gt;trans_pol_a_l4_tda</title>
<path fill="none" stroke="black" d="M3604.11,-901C3604.11,-901 3773.68,-901 3773.68,-901"/>
<polygon fill="black" stroke="black" points="3773.68,-904.5 3783.68,-901 3773.68,-897.5 3773.68,-904.5"/>
</g>
<!-- l4_pol_a_ctcal -->
<g id="node45" class="node">
<title>l4_pol_a_ctcal</title>
<polygon fill="none" stroke="black" points="3672.58,-859 3365.58,-859 3365.58,-835 3672.58,-835 3684.58,-847 3672.58,-859"/>
<text text-anchor="middle" x="3525.08" y="-843.3" font-family="Times,serif" font-size="14.00">L4_pol_a core throughput calibrations 1..1</text>
</g>
<!-- l4_pol_a_ctcal&#45;&gt;trans_pol_a_l4_tda -->
<g id="edge48" class="edge">
<title>l4_pol_a_ctcal&#45;&gt;trans_pol_a_l4_tda</title>
<path fill="none" stroke="black" d="M3684.98,-847C3684.98,-847 3743.55,-847 3743.55,-847"/>
<polygon fill="black" stroke="black" points="3743.55,-850.5 3753.55,-847 3743.55,-843.5 3743.55,-850.5"/>
</g>
<!-- l4_pol_a_pafcal -->
<g id="node46" class="node">
<title>l4_pol_a_pafcal</title>
<polygon fill="none" stroke="black" points="3702.58,-805 3335.58,-805 3335.58,-781 3702.58,-781 3714.58,-793 3702.58,-805"/>
<text text-anchor="middle" x="3525.08" y="-789.3" font-family="Times,serif" font-size="14.00">L4_pol_a polarimetric absolute flux calibration 1..1</text>
</g>
<!-- l4_pol_a_pafcal&#45;&gt;trans_pol_a_l4_tda -->
<g id="edge49" class="edge">
<title>l4_pol_a_pafcal&#45;&gt;trans_pol_a_l4_tda</title>
<path fill="none" stroke="black" d="M3714.89,-793C3714.89,-793 3743.53,-793 3743.53,-793"/>
<polygon fill="black" stroke="black" points="3743.53,-796.5 3753.53,-793 3743.53,-789.5 3743.53,-796.5"/>
</g>
</g>
</svg>
