<?xml version="1.0" encoding="UTF-8" standalone="no"?>
<!DOCTYPE svg PUBLIC "-//W3C//DTD SVG 1.1//EN"
 "http://www.w3.org/Graphics/SVG/1.1/DTD/svg11.dtd">
<!-- Generated by graphviz version 2.43.0 (0)
 -->
<!-- Title: AbstractDesign Pages: 1 -->
<svg width="3477pt" height="939pt"
 viewBox="0.00 0.00 3476.56 939.00" xmlns="http://www.w3.org/2000/svg" xmlns:xlink="http://www.w3.org/1999/xlink">
<g id="graph0" class="graph" transform="scale(1 1) rotate(0) translate(4 935)">
<title>AbstractDesign</title>
<polygon fill="white" stroke="transparent" points="-4,4 -4,-935 3472.56,-935 3472.56,4 -4,4"/>
<!-- trans_pol_a_l1_l2a -->
<g id="node1" class="node">
<title>trans_pol_a_l1_l2a</title>
<ellipse fill="none" stroke="black" cx="332.6" cy="-126" rx="91.43" ry="91.43"/>
<text text-anchor="middle" x="332.6" y="-129.8" font-family="Times,serif" font-size="14.00">pol_a Transmutation</text>
<text text-anchor="middle" x="332.6" y="-114.8" font-family="Times,serif" font-size="14.00">L1 to L2a</text>
</g>
<!-- l2a_pol_a_prod -->
<g id="node13" class="node">
<title>l2a_pol_a_prod</title>
<polygon fill="none" stroke="black" points="843.79,-241 694.79,-241 694.79,-205 843.79,-205 843.79,-241"/>
<text text-anchor="middle" x="769.29" y="-219.3" font-family="Times,serif" font-size="14.00">L2a_pol_a products 1..b</text>
</g>
<!-- trans_pol_a_l1_l2a&#45;&gt;l2a_pol_a_prod -->
<g id="edge6" class="edge">
<title>trans_pol_a_l1_l2a&#45;&gt;l2a_pol_a_prod</title>
<path fill="none" stroke="black" d="M365.42,-211.11C365.42,-211.11 684.43,-211.11 684.43,-211.11"/>
<polygon fill="black" stroke="black" points="684.43,-214.61 694.43,-211.11 684.43,-207.61 684.43,-214.61"/>
</g>
<!-- l2a_pol_a_man -->
<g id="node14" class="node">
<title>l2a_pol_a_man</title>
<ellipse fill="none" stroke="black" cx="557.31" cy="-126" rx="97.48" ry="18"/>
<text text-anchor="middle" x="557.31" y="-122.3" font-family="Times,serif" font-size="14.00">L2a_pol_a manifest 1..1</text>
</g>
<!-- trans_pol_a_l1_l2a&#45;&gt;l2a_pol_a_man -->
<g id="edge7" class="edge">
<title>trans_pol_a_l1_l2a&#45;&gt;l2a_pol_a_man</title>
<path fill="none" stroke="black" d="M424,-126C424,-126 449.77,-126 449.77,-126"/>
<polygon fill="black" stroke="black" points="449.77,-129.5 459.77,-126 449.77,-122.5 449.77,-129.5"/>
</g>
<!-- l2a_pol_a_log -->
<g id="node22" class="node">
<title>l2a_pol_a_log</title>
<ellipse fill="none" stroke="black" cx="557.31" cy="-72" rx="77.99" ry="18"/>
<text text-anchor="middle" x="557.31" y="-68.3" font-family="Times,serif" font-size="14.00">L2a log_pol_a 1..1</text>
</g>
<!-- trans_pol_a_l1_l2a&#45;&gt;l2a_pol_a_log -->
<g id="edge8" class="edge">
<title>trans_pol_a_l1_l2a&#45;&gt;l2a_pol_a_log</title>
<path fill="none" stroke="black" d="M406.18,-72C406.18,-72 469.31,-72 469.31,-72"/>
<polygon fill="black" stroke="black" points="469.31,-75.5 479.31,-72 469.31,-68.5 469.31,-75.5"/>
</g>
<!-- l2a_pol_a_demux -->
<g id="node2" class="node">
<title>l2a_pol_a_demux</title>
<ellipse fill="none" stroke="black" cx="769.29" cy="-109" rx="78.48" ry="78.48"/>
<text text-anchor="middle" x="769.29" y="-112.8" font-family="Times,serif" font-size="14.00">pol_a l2a Demux</text>
<text text-anchor="middle" x="769.29" y="-97.8" font-family="Times,serif" font-size="14.00">Exposure</text>
</g>
<!-- l2a_pol_a_man_demux -->
<g id="node23" class="node">
<title>l2a_pol_a_man_demux</title>
<ellipse fill="none" stroke="black" cx="1006.78" cy="-143" rx="108.58" ry="18"/>
<text text-anchor="middle" x="1006.78" y="-139.3" font-family="Times,serif" font-size="14.00">L2a_pol_a(E) manifest 1..1</text>
</g>
<!-- l2a_pol_a_demux&#45;&gt;l2a_pol_a_man_demux -->
<g id="edge21" class="edge">
<title>l2a_pol_a_demux&#45;&gt;l2a_pol_a_man_demux</title>
<path fill="none" stroke="black" d="M840.22,-143C840.22,-143 887.98,-143 887.98,-143"/>
<polygon fill="black" stroke="black" points="887.98,-146.5 897.98,-143 887.98,-139.5 887.98,-146.5"/>
</g>
<!-- trans_pol_a_l2a_l2b -->
<g id="node3" class="node">
<title>trans_pol_a_l2a_l2b</title>
<ellipse fill="none" stroke="black" cx="1256.99" cy="-360" rx="91.43" ry="91.43"/>
<text text-anchor="middle" x="1256.99" y="-363.8" font-family="Times,serif" font-size="14.00">pol_a Transmutation</text>
<text text-anchor="middle" x="1256.99" y="-348.8" font-family="Times,serif" font-size="14.00">L2a to L2b</text>
</g>
<!-- l2b_pol_a_prod -->
<g id="node24" class="node">
<title>l2b_pol_a_prod</title>
<polygon fill="none" stroke="black" points="1788.59,-468 1638.59,-468 1638.59,-432 1788.59,-432 1788.59,-468"/>
<text text-anchor="middle" x="1713.59" y="-446.3" font-family="Times,serif" font-size="14.00">L2b_pol_a products 1..1</text>
</g>
<!-- trans_pol_a_l2a_l2b&#45;&gt;l2b_pol_a_prod -->
<g id="edge17" class="edge">
<title>trans_pol_a_l2a_l2b&#45;&gt;l2b_pol_a_prod</title>
<path fill="none" stroke="black" d="M1297.91,-441.61C1297.91,-441.61 1628.51,-441.61 1628.51,-441.61"/>
<polygon fill="black" stroke="black" points="1628.51,-445.11 1638.51,-441.61 1628.51,-438.11 1628.51,-445.11"/>
</g>
<!-- l2b_pol_a_man_demux -->
<g id="node31" class="node">
<title>l2b_pol_a_man_demux</title>
<ellipse fill="none" stroke="black" cx="1493.4" cy="-360" rx="109.38" ry="18"/>
<text text-anchor="middle" x="1493.4" y="-356.3" font-family="Times,serif" font-size="14.00">L2b_pol_a(E) manifest 1..1</text>
</g>
<!-- trans_pol_a_l2a_l2b&#45;&gt;l2b_pol_a_man_demux -->
<g id="edge18" class="edge">
<title>trans_pol_a_l2a_l2b&#45;&gt;l2b_pol_a_man_demux</title>
<path fill="none" stroke="black" d="M1348.39,-360C1348.39,-360 1374.09,-360 1374.09,-360"/>
<polygon fill="black" stroke="black" points="1374.09,-363.5 1384.09,-360 1374.09,-356.5 1374.09,-363.5"/>
</g>
<!-- l2b_pol_a_log -->
<g id="node32" class="node">
<title>l2b_pol_a_log</title>
<ellipse fill="none" stroke="black" cx="1493.4" cy="-306" rx="78.79" ry="18"/>
<text text-anchor="middle" x="1493.4" y="-302.3" font-family="Times,serif" font-size="14.00">L2b_pol_a log 1..1</text>
</g>
<!-- trans_pol_a_l2a_l2b&#45;&gt;l2b_pol_a_log -->
<g id="edge19" class="edge">
<title>trans_pol_a_l2a_l2b&#45;&gt;l2b_pol_a_log</title>
<path fill="none" stroke="black" d="M1330.82,-306C1330.82,-306 1404.4,-306 1404.4,-306"/>
<polygon fill="black" stroke="black" points="1404.4,-309.5 1414.4,-306 1404.4,-302.5 1404.4,-309.5"/>
</g>
<!-- l2b_pol_a_mux -->
<g id="node4" class="node">
<title>l2b_pol_a_mux</title>
<ellipse fill="none" stroke="black" cx="1713.59" cy="-345" rx="69.09" ry="69.09"/>
<text text-anchor="middle" x="1713.59" y="-348.8" font-family="Times,serif" font-size="14.00">pol_a l2b Mux</text>
<text text-anchor="middle" x="1713.59" y="-333.8" font-family="Times,serif" font-size="14.00">Exposure</text>
</g>
<!-- l2b_pol_a_man -->
<g id="node25" class="node">
<title>l2b_pol_a_man</title>
<ellipse fill="none" stroke="black" cx="1947.09" cy="-374" rx="98.28" ry="18"/>
<text text-anchor="middle" x="1947.09" y="-370.3" font-family="Times,serif" font-size="14.00">L2b_pol_a manifest 1..1</text>
</g>
<!-- l2b_pol_a_mux&#45;&gt;l2b_pol_a_man -->
<g id="edge24" class="edge">
<title>l2b_pol_a_mux&#45;&gt;l2b_pol_a_man</title>
<path fill="none" stroke="black" d="M1776.78,-374C1776.78,-374 1838.7,-374 1838.7,-374"/>
<polygon fill="black" stroke="black" points="1838.7,-377.5 1848.7,-374 1838.7,-370.5 1838.7,-377.5"/>
</g>
<!-- trans_pol_a_l2b_l3 -->
<g id="node5" class="node">
<title>trans_pol_a_l2b_l3</title>
<ellipse fill="none" stroke="black" cx="2196.81" cy="-535" rx="91.43" ry="91.43"/>
<text text-anchor="middle" x="2196.81" y="-538.8" font-family="Times,serif" font-size="14.00">pol_a Transmutation</text>
<text text-anchor="middle" x="2196.81" y="-523.8" font-family="Times,serif" font-size="14.00">L2b to L3</text>
</g>
<!-- l3_pol_a_prod -->
<g id="node33" class="node">
<title>l3_pol_a_prod</title>
<polygon fill="none" stroke="black" points="2498.21,-607 2355.21,-607 2355.21,-571 2498.21,-571 2498.21,-607"/>
<text text-anchor="middle" x="2426.71" y="-585.3" font-family="Times,serif" font-size="14.00">L3_pol_a products 1..1</text>
</g>
<!-- trans_pol_a_l2b_l3&#45;&gt;l3_pol_a_prod -->
<g id="edge32" class="edge">
<title>trans_pol_a_l2b_l3&#45;&gt;l3_pol_a_prod</title>
<path fill="none" stroke="black" d="M2270.5,-589C2270.5,-589 2345.01,-589 2345.01,-589"/>
<polygon fill="black" stroke="black" points="2345.01,-592.5 2355.01,-589 2345.01,-585.5 2345.01,-592.5"/>
</g>
<!-- l3_pol_a_man -->
<g id="node35" class="node">
<title>l3_pol_a_man</title>
<ellipse fill="none" stroke="black" cx="2426.71" cy="-535" rx="93.68" ry="18"/>
<text text-anchor="middle" x="2426.71" y="-531.3" font-family="Times,serif" font-size="14.00">L3_pol_a manifest 1..1</text>
</g>
<!-- trans_pol_a_l2b_l3&#45;&gt;l3_pol_a_man -->
<g id="edge33" class="edge">
<title>trans_pol_a_l2b_l3&#45;&gt;l3_pol_a_man</title>
<path fill="none" stroke="black" d="M2288.33,-535C2288.33,-535 2322.87,-535 2322.87,-535"/>
<polygon fill="black" stroke="black" points="2322.87,-538.5 2332.87,-535 2322.87,-531.5 2322.87,-538.5"/>
</g>
<!-- l3_pol_a_log -->
<g id="node38" class="node">
<title>l3_pol_a_log</title>
<ellipse fill="none" stroke="black" cx="2426.71" cy="-481" rx="74.19" ry="18"/>
<text text-anchor="middle" x="2426.71" y="-477.3" font-family="Times,serif" font-size="14.00">L3_pol_a log 1..1</text>
</g>
<!-- trans_pol_a_l2b_l3&#45;&gt;l3_pol_a_log -->
<g id="edge34" class="edge">
<title>trans_pol_a_l2b_l3&#45;&gt;l3_pol_a_log</title>
<path fill="none" stroke="black" d="M2270.5,-481C2270.5,-481 2342.26,-481 2342.26,-481"/>
<polygon fill="black" stroke="black" points="2342.26,-484.5 2352.26,-481 2342.26,-477.5 2342.26,-484.5"/>
</g>
<!-- trans_pol_a_l3_l4 -->
<g id="node6" class="node">
<title>trans_pol_a_l3_l4</title>
<ellipse fill="none" stroke="black" cx="2656.62" cy="-643" rx="91.43" ry="91.43"/>
<text text-anchor="middle" x="2656.62" y="-646.8" font-family="Times,serif" font-size="14.00">pol_a Transmutation</text>
<text text-anchor="middle" x="2656.62" y="-631.8" font-family="Times,serif" font-size="14.00">L3 to L4</text>
</g>
<!-- l4_pol_a_prod -->
<g id="node39" class="node">
<title>l4_pol_a_prod</title>
<polygon fill="none" stroke="black" points="3004.84,-715 2861.84,-715 2861.84,-679 3004.84,-679 3004.84,-715"/>
<text text-anchor="middle" x="2933.34" y="-693.3" font-family="Times,serif" font-size="14.00">L4_pol_a products 1..1</text>
</g>
<!-- trans_pol_a_l3_l4&#45;&gt;l4_pol_a_prod -->
<g id="edge40" class="edge">
<title>trans_pol_a_l3_l4&#45;&gt;l4_pol_a_prod</title>
<path fill="none" stroke="black" d="M2730.41,-697C2730.41,-697 2851.67,-697 2851.67,-697"/>
<polygon fill="black" stroke="black" points="2851.67,-700.5 2861.67,-697 2851.67,-693.5 2851.67,-700.5"/>
</g>
<!-- l4_pol_a_log -->
<g id="node40" class="node">
<title>l4_pol_a_log</title>
<ellipse fill="none" stroke="black" cx="2933.34" cy="-643" rx="74.19" ry="18"/>
<text text-anchor="middle" x="2933.34" y="-639.3" font-family="Times,serif" font-size="14.00">L4_pol_a log 1..1</text>
</g>
<!-- trans_pol_a_l3_l4&#45;&gt;l4_pol_a_log -->
<g id="edge41" class="edge">
<title>trans_pol_a_l3_l4&#45;&gt;l4_pol_a_log</title>
<path fill="none" stroke="black" d="M2748,-643C2748,-643 2849.1,-643 2849.1,-643"/>
<polygon fill="black" stroke="black" points="2849.1,-646.5 2859.1,-643 2849.1,-639.5 2849.1,-646.5"/>
</g>
<!-- l4_pol_a_man -->
<g id="node41" class="node">
<title>l4_pol_a_man</title>
<ellipse fill="none" stroke="black" cx="2933.34" cy="-589" rx="93.68" ry="18"/>
<text text-anchor="middle" x="2933.34" y="-585.3" font-family="Times,serif" font-size="14.00">L4_pol_a manifest 1..1</text>
</g>
<!-- trans_pol_a_l3_l4&#45;&gt;l4_pol_a_man -->
<g id="edge42" class="edge">
<title>trans_pol_a_l3_l4&#45;&gt;l4_pol_a_man</title>
<path fill="none" stroke="black" d="M2730.41,-589C2730.41,-589 2829.66,-589 2829.66,-589"/>
<polygon fill="black" stroke="black" points="2829.66,-592.5 2839.66,-589 2829.66,-585.5 2829.66,-592.5"/>
</g>
<!-- trans_pol_a_l4_tda -->
<g id="node7" class="node">
<title>trans_pol_a_l4_tda</title>
<ellipse fill="none" stroke="black" cx="3210.06" cy="-778" rx="91.43" ry="91.43"/>
<text text-anchor="middle" x="3210.06" y="-781.8" font-family="Times,serif" font-size="14.00">pol_a Transmutation</text>
<text text-anchor="middle" x="3210.06" y="-766.8" font-family="Times,serif" font-size="14.00">L4 to TDA</text>
</g>
<!-- tda_pol_a_prod -->
<g id="node46" class="node">
<title>tda_pol_a_prod</title>
<ellipse fill="none" stroke="black" cx="3402.92" cy="-805" rx="65.79" ry="18"/>
<text text-anchor="middle" x="3402.92" y="-801.3" font-family="Times,serif" font-size="14.00">tda_pol_a_prod</text>
</g>
<!-- trans_pol_a_l4_tda&#45;&gt;tda_pol_a_prod -->
<g id="edge49" class="edge">
<title>trans_pol_a_l4_tda&#45;&gt;tda_pol_a_prod</title>
<path fill="none" stroke="black" d="M3297.46,-805C3297.46,-805 3327.19,-805 3327.19,-805"/>
<polygon fill="black" stroke="black" points="3327.19,-808.5 3337.19,-805 3327.19,-801.5 3327.19,-808.5"/>
</g>
<!-- tda_pol_a_log -->
<g id="node47" class="node">
<title>tda_pol_a_log</title>
<ellipse fill="none" stroke="black" cx="3402.92" cy="-751" rx="61.19" ry="18"/>
<text text-anchor="middle" x="3402.92" y="-747.3" font-family="Times,serif" font-size="14.00">tda_pol_a_log</text>
</g>
<!-- trans_pol_a_l4_tda&#45;&gt;tda_pol_a_log -->
<g id="edge50" class="edge">
<title>trans_pol_a_l4_tda&#45;&gt;tda_pol_a_log</title>
<path fill="none" stroke="black" d="M3297.46,-751C3297.46,-751 3331.73,-751 3331.73,-751"/>
<polygon fill="black" stroke="black" points="3331.73,-754.5 3341.73,-751 3331.73,-747.5 3331.73,-754.5"/>
</g>
<!-- l1_pol_a_prod -->
<g id="node8" class="node">
<title>l1_pol_a_prod</title>
<polygon fill="none" stroke="black" points="174.19,-252 31.19,-252 31.19,-216 174.19,-216 174.19,-252"/>
<text text-anchor="middle" x="102.69" y="-230.3" font-family="Times,serif" font-size="14.00">L1_pol_a products 1..b</text>
</g>
<!-- l1_pol_a_prod&#45;&gt;trans_pol_a_l1_l2a -->
<g id="edge1" class="edge">
<title>l1_pol_a_prod&#45;&gt;trans_pol_a_l1_l2a</title>
<path fill="none" stroke="black" d="M103.56,-215.84C103.56,-210.96 103.56,-207 103.56,-207 103.56,-207 280.59,-207 280.59,-207"/>
<polygon fill="black" stroke="black" points="280.59,-210.5 290.59,-207 280.59,-203.5 280.59,-210.5"/>
</g>
<!-- l1_pol_a_man -->
<g id="node9" class="node">
<title>l1_pol_a_man</title>
<ellipse fill="none" stroke="black" cx="102.69" cy="-180" rx="93.68" ry="18"/>
<text text-anchor="middle" x="102.69" y="-176.3" font-family="Times,serif" font-size="14.00">L1_pol_a manifest 1..1</text>
</g>
<!-- l1_pol_a_man&#45;&gt;trans_pol_a_l1_l2a -->
<g id="edge2" class="edge">
<title>l1_pol_a_man&#45;&gt;trans_pol_a_l1_l2a</title>
<path fill="none" stroke="black" d="M196.53,-180C196.53,-180 248.76,-180 248.76,-180"/>
<polygon fill="black" stroke="black" points="248.76,-183.5 258.76,-180 248.76,-176.5 248.76,-183.5"/>
</g>
<!-- l1_pol_a_odir -->
<g id="node10" class="node">
<title>l1_pol_a_odir</title>
<ellipse fill="none" stroke="black" cx="102.69" cy="-126" rx="102.88" ry="18"/>
<text text-anchor="middle" x="102.69" y="-122.3" font-family="Times,serif" font-size="14.00">L1_pol_a output path 1..1</text>
</g>
<!-- l1_pol_a_odir&#45;&gt;trans_pol_a_l1_l2a -->
<g id="edge3" class="edge">
<title>l1_pol_a_odir&#45;&gt;trans_pol_a_l1_l2a</title>
<path fill="none" stroke="black" d="M205.54,-126C205.54,-126 231.06,-126 231.06,-126"/>
<polygon fill="black" stroke="black" points="231.06,-129.5 241.06,-126 231.06,-122.5 231.06,-129.5"/>
</g>
<!-- l1_pol_a_rec -->
<g id="node11" class="node">
<title>l1_pol_a_rec</title>
<polygon fill="none" stroke="black" points="155.69,-84 37.69,-84 37.69,-60 155.69,-60 167.69,-72 155.69,-84"/>
<text text-anchor="middle" x="102.69" y="-68.3" font-family="Times,serif" font-size="14.00">L1_pol_a recipe 1..1</text>
</g>
<!-- l1_pol_a_rec&#45;&gt;trans_pol_a_l1_l2a -->
<g id="edge4" class="edge">
<title>l1_pol_a_rec&#45;&gt;trans_pol_a_l1_l2a</title>
<path fill="none" stroke="black" d="M167.96,-72C167.96,-72 249.07,-72 249.07,-72"/>
<polygon fill="black" stroke="black" points="249.07,-75.5 259.07,-72 249.07,-68.5 249.07,-75.5"/>
</g>
<!-- l1_pol_a_nln -->
<g id="node12" class="node">
<title>l1_pol_a_nln</title>
<polygon fill="none" stroke="black" points="192.69,-30 0.69,-30 0.69,-6 192.69,-6 204.69,-18 192.69,-30"/>
<text text-anchor="middle" x="102.69" y="-14.3" font-family="Times,serif" font-size="14.00">L1_pol_a non&#45;linear &amp; Kgain 1..1</text>
</g>
<!-- l1_pol_a_nln&#45;&gt;trans_pol_a_l1_l2a -->
<g id="edge5" class="edge">
<title>l1_pol_a_nln&#45;&gt;trans_pol_a_l1_l2a</title>
<path fill="none" stroke="black" d="M186.56,-36.16C186.56,-41.04 186.56,-45 186.56,-45 186.56,-45 280.36,-45 280.36,-45"/>
<polygon fill="black" stroke="black" points="280.36,-48.5 290.36,-45 280.36,-41.5 280.36,-48.5"/>
</g>
<!-- l2a_pol_a_prod&#45;&gt;trans_pol_a_l2a_l2b -->
<g id="edge9" class="edge">
<title>l2a_pol_a_prod&#45;&gt;trans_pol_a_l2a_l2b</title>
<path fill="none" stroke="black" d="M769.56,-241.02C769.56,-258.37 769.56,-282 769.56,-282 769.56,-282 1199.37,-282 1199.37,-282"/>
<polygon fill="black" stroke="black" points="1199.37,-285.5 1209.37,-282 1199.37,-278.5 1199.37,-285.5"/>
</g>
<!-- l2a_pol_a_man&#45;&gt;l2a_pol_a_demux -->
<g id="edge20" class="edge">
<title>l2a_pol_a_man&#45;&gt;l2a_pol_a_demux</title>
<path fill="none" stroke="black" d="M654.92,-126C654.92,-126 682.49,-126 682.49,-126"/>
<polygon fill="black" stroke="black" points="682.49,-129.5 692.49,-126 682.49,-122.5 682.49,-129.5"/>
</g>
<!-- l2a_pol_a_odir -->
<g id="node15" class="node">
<title>l2a_pol_a_odir</title>
<ellipse fill="none" stroke="black" cx="1006.78" cy="-576" rx="106.68" ry="18"/>
<text text-anchor="middle" x="1006.78" y="-572.3" font-family="Times,serif" font-size="14.00">L2a_pol_a output path 1..1</text>
</g>
<!-- l2a_pol_a_odir&#45;&gt;trans_pol_a_l2a_l2b -->
<g id="edge10" class="edge">
<title>l2a_pol_a_odir&#45;&gt;trans_pol_a_l2a_l2b</title>
<path fill="none" stroke="black" d="M1089.05,-564.5C1176.88,-564.5 1303.56,-564.5 1303.56,-564.5 1303.56,-564.5 1303.56,-448.48 1303.56,-448.48"/>
<polygon fill="black" stroke="black" points="1307.06,-448.48 1303.56,-438.48 1300.06,-448.48 1307.06,-448.48"/>
</g>
<!-- l2a_pol_a_rec -->
<g id="node16" class="node">
<title>l2a_pol_a_rec</title>
<polygon fill="none" stroke="black" points="1062.78,-534 938.78,-534 938.78,-510 1062.78,-510 1074.78,-522 1062.78,-534"/>
<text text-anchor="middle" x="1006.78" y="-518.3" font-family="Times,serif" font-size="14.00">L2a_pol_a recipe 1..1</text>
</g>
<!-- l2a_pol_a_rec&#45;&gt;trans_pol_a_l2a_l2b -->
<g id="edge11" class="edge">
<title>l2a_pol_a_rec&#45;&gt;trans_pol_a_l2a_l2b</title>
<path fill="none" stroke="black" d="M1074.97,-510.5C1149.23,-510.5 1257.56,-510.5 1257.56,-510.5 1257.56,-510.5 1257.56,-461.45 1257.56,-461.45"/>
<polygon fill="black" stroke="black" points="1261.06,-461.45 1257.56,-451.45 1254.06,-461.45 1261.06,-461.45"/>
</g>
<!-- l2a_pol_a_cti -->
<g id="node17" class="node">
<title>l2a_pol_a_cti</title>
<polygon fill="none" stroke="black" points="1111.28,-480 890.28,-480 890.28,-456 1111.28,-456 1123.28,-468 1111.28,-480"/>
<text text-anchor="middle" x="1006.78" y="-464.3" font-family="Times,serif" font-size="14.00">L2a_pol_a charge xfer inefficiency 1..1</text>
</g>
<!-- l2a_pol_a_cti&#45;&gt;trans_pol_a_l2a_l2b -->
<g id="edge12" class="edge">
<title>l2a_pol_a_cti&#45;&gt;trans_pol_a_l2a_l2b</title>
<path fill="none" stroke="black" d="M1123.52,-459.61C1169.51,-459.61 1211.56,-459.61 1211.56,-459.61 1211.56,-459.61 1211.56,-449.45 1211.56,-449.45"/>
<polygon fill="black" stroke="black" points="1215.06,-449.45 1211.56,-439.45 1208.06,-449.45 1215.06,-449.45"/>
</g>
<!-- l2a_pol_a_dnb -->
<g id="node18" class="node">
<title>l2a_pol_a_dnb</title>
<polygon fill="none" stroke="black" points="1117.78,-426 883.78,-426 883.78,-402 1117.78,-402 1129.78,-414 1117.78,-426"/>
<text text-anchor="middle" x="1006.78" y="-410.3" font-family="Times,serif" font-size="14.00">L2a_pol_a detector noise background 1..1</text>
</g>
<!-- l2a_pol_a_dnb&#45;&gt;trans_pol_a_l2a_l2b -->
<g id="edge13" class="edge">
<title>l2a_pol_a_dnb&#45;&gt;trans_pol_a_l2a_l2b</title>
<path fill="none" stroke="black" d="M1130.05,-414C1130.05,-414 1173.42,-414 1173.42,-414"/>
<polygon fill="black" stroke="black" points="1173.42,-417.5 1183.42,-414 1173.42,-410.5 1173.42,-417.5"/>
</g>
<!-- l2a_pol_a_mbpm -->
<g id="node19" class="node">
<title>l2a_pol_a_mbpm</title>
<polygon fill="none" stroke="black" points="1105.28,-372 896.28,-372 896.28,-348 1105.28,-348 1117.28,-360 1105.28,-372"/>
<text text-anchor="middle" x="1006.78" y="-356.3" font-family="Times,serif" font-size="14.00">L2a_pol_a master bad pixel map 1..1</text>
</g>
<!-- l2a_pol_a_mbpm&#45;&gt;trans_pol_a_l2a_l2b -->
<g id="edge14" class="edge">
<title>l2a_pol_a_mbpm&#45;&gt;trans_pol_a_l2a_l2b</title>
<path fill="none" stroke="black" d="M1117.62,-360C1117.62,-360 1155.73,-360 1155.73,-360"/>
<polygon fill="black" stroke="black" points="1155.73,-363.5 1165.73,-360 1155.73,-356.5 1155.73,-363.5"/>
</g>
<!-- l2a_pol_a_emg -->
<g id="node20" class="node">
<title>l2a_pol_a_emg</title>
<polygon fill="none" stroke="black" points="1070.28,-318 931.28,-318 931.28,-294 1070.28,-294 1082.28,-306 1070.28,-318"/>
<text text-anchor="middle" x="1006.78" y="-302.3" font-family="Times,serif" font-size="14.00">L2a_pol_a EM gain 1..1</text>
</g>
<!-- l2a_pol_a_emg&#45;&gt;trans_pol_a_l2a_l2b -->
<g id="edge15" class="edge">
<title>l2a_pol_a_emg&#45;&gt;trans_pol_a_l2a_l2b</title>
<path fill="none" stroke="black" d="M1082.53,-306C1082.53,-306 1173.22,-306 1173.22,-306"/>
<polygon fill="black" stroke="black" points="1173.22,-309.5 1183.22,-306 1173.22,-302.5 1173.22,-309.5"/>
</g>
<!-- l2a_pol_a_polff -->
<g id="node21" class="node">
<title>l2a_pol_a_polff</title>
<polygon fill="none" stroke="black" points="1107.28,-264 894.28,-264 894.28,-240 1107.28,-240 1119.28,-252 1107.28,-264"/>
<text text-anchor="middle" x="1006.78" y="-248.3" font-family="Times,serif" font-size="14.00">L2a_pol_a polarimetric flat fields 1..1</text>
</g>
<!-- l2a_pol_a_polff&#45;&gt;trans_pol_a_l2a_l2b -->
<g id="edge16" class="edge">
<title>l2a_pol_a_polff&#45;&gt;trans_pol_a_l2a_l2b</title>
<path fill="none" stroke="black" d="M1100.56,-270.19C1100.56,-273.54 1100.56,-276 1100.56,-276 1100.56,-276 1211.1,-276 1211.1,-276"/>
<polygon fill="black" stroke="black" points="1211.1,-279.5 1221.1,-276 1211.1,-272.5 1211.1,-279.5"/>
</g>
<!-- l2a_pol_a_man_demux&#45;&gt;trans_pol_a_l2a_l2b -->
<g id="edge22" class="edge">
<title>l2a_pol_a_man_demux&#45;&gt;trans_pol_a_l2a_l2b</title>
<path fill="none" stroke="black" d="M1115.68,-143C1183.36,-143 1257.56,-143 1257.56,-143 1257.56,-143 1257.56,-258.6 1257.56,-258.6"/>
<polygon fill="black" stroke="black" points="1254.06,-258.6 1257.56,-268.6 1261.06,-258.6 1254.06,-258.6"/>
</g>
<!-- l2b_pol_a_prod&#45;&gt;trans_pol_a_l2b_l3 -->
<g id="edge25" class="edge">
<title>l2b_pol_a_prod&#45;&gt;trans_pol_a_l2b_l3</title>
<path fill="none" stroke="black" d="M1788.83,-456.59C1788.83,-456.59 2139.87,-456.59 2139.87,-456.59"/>
<polygon fill="black" stroke="black" points="2139.87,-460.09 2149.87,-456.59 2139.87,-453.09 2139.87,-460.09"/>
</g>
<!-- l2b_pol_a_man&#45;&gt;trans_pol_a_l2b_l3 -->
<g id="edge26" class="edge">
<title>l2b_pol_a_man&#45;&gt;trans_pol_a_l2b_l3</title>
<path fill="none" stroke="black" d="M1947.56,-392.06C1947.56,-414.59 1947.56,-450.19 1947.56,-450.19 1947.56,-450.19 2153.19,-450.19 2153.19,-450.19"/>
<polygon fill="black" stroke="black" points="2153.19,-453.69 2163.19,-450.19 2153.19,-446.69 2153.19,-453.69"/>
</g>
<!-- l2b_pol_a_odir -->
<g id="node26" class="node">
<title>l2b_pol_a_odir</title>
<ellipse fill="none" stroke="black" cx="1947.09" cy="-697" rx="107.48" ry="18"/>
<text text-anchor="middle" x="1947.09" y="-693.3" font-family="Times,serif" font-size="14.00">L2b_pol_a output path 1..1</text>
</g>
<!-- l2b_pol_a_odir&#45;&gt;trans_pol_a_l2b_l3 -->
<g id="edge27" class="edge">
<title>l2b_pol_a_odir&#45;&gt;trans_pol_a_l2b_l3</title>
<path fill="none" stroke="black" d="M2035.56,-686.8C2035.56,-665.66 2035.56,-619 2035.56,-619 2035.56,-619 2151.02,-619 2151.02,-619"/>
<polygon fill="black" stroke="black" points="2151.02,-622.5 2161.02,-619 2151.02,-615.5 2151.02,-622.5"/>
</g>
<!-- l2b_pol_a_rec -->
<g id="node27" class="node">
<title>l2b_pol_a_rec</title>
<polygon fill="none" stroke="black" points="2003.59,-655 1878.59,-655 1878.59,-631 2003.59,-631 2015.59,-643 2003.59,-655"/>
<text text-anchor="middle" x="1947.09" y="-639.3" font-family="Times,serif" font-size="14.00">L2b_pol_a recipe 1..1</text>
</g>
<!-- l2b_pol_a_rec&#45;&gt;trans_pol_a_l2b_l3 -->
<g id="edge28" class="edge">
<title>l2b_pol_a_rec&#45;&gt;trans_pol_a_l2b_l3</title>
<path fill="none" stroke="black" d="M1947.56,-624.86C1947.56,-618.54 1947.56,-613 1947.56,-613 1947.56,-613 2139.34,-613 2139.34,-613"/>
<polygon fill="black" stroke="black" points="2139.34,-616.5 2149.34,-613 2139.34,-609.5 2139.34,-616.5"/>
</g>
<!-- l2b_pol_a_excicrf -->
<g id="node28" class="node">
<title>l2b_pol_a_excicrf</title>
<polygon fill="none" stroke="black" points="2052.09,-601 1830.09,-601 1830.09,-577 2052.09,-577 2064.09,-589 2052.09,-601"/>
<text text-anchor="middle" x="1947.09" y="-585.3" font-family="Times,serif" font-size="14.00">L2b_pol_a EXCAM ICRF location 1..1</text>
</g>
<!-- l2b_pol_a_excicrf&#45;&gt;trans_pol_a_l2b_l3 -->
<g id="edge29" class="edge">
<title>l2b_pol_a_excicrf&#45;&gt;trans_pol_a_l2b_l3</title>
<path fill="none" stroke="black" d="M2064.27,-589C2064.27,-589 2113.06,-589 2113.06,-589"/>
<polygon fill="black" stroke="black" points="2113.06,-592.5 2123.06,-589 2113.06,-585.5 2113.06,-592.5"/>
</g>
<!-- l2b_pol_a_excfovps -->
<g id="node29" class="node">
<title>l2b_pol_a_excfovps</title>
<polygon fill="none" stroke="black" points="2057.59,-547 1824.59,-547 1824.59,-523 2057.59,-523 2069.59,-535 2057.59,-547"/>
<text text-anchor="middle" x="1947.09" y="-531.3" font-family="Times,serif" font-size="14.00">L2b_pol_a EXCAM FOV pixel scale 1..1</text>
</g>
<!-- l2b_pol_a_excfovps&#45;&gt;trans_pol_a_l2b_l3 -->
<g id="edge30" class="edge">
<title>l2b_pol_a_excfovps&#45;&gt;trans_pol_a_l2b_l3</title>
<path fill="none" stroke="black" d="M2069.75,-535C2069.75,-535 2095.29,-535 2095.29,-535"/>
<polygon fill="black" stroke="black" points="2095.29,-538.5 2105.29,-535 2095.29,-531.5 2095.29,-538.5"/>
</g>
<!-- l2b_pol_a_cfamfo -->
<g id="node30" class="node">
<title>l2b_pol_a_cfamfo</title>
<polygon fill="none" stroke="black" points="2041.09,-493 1841.09,-493 1841.09,-469 2041.09,-469 2053.09,-481 2041.09,-493"/>
<text text-anchor="middle" x="1947.09" y="-477.3" font-family="Times,serif" font-size="14.00">L2b_pol_a CFAM filter offsets 1..1</text>
</g>
<!-- l2b_pol_a_cfamfo&#45;&gt;trans_pol_a_l2b_l3 -->
<g id="edge31" class="edge">
<title>l2b_pol_a_cfamfo&#45;&gt;trans_pol_a_l2b_l3</title>
<path fill="none" stroke="black" d="M2053.35,-481C2053.35,-481 2113.11,-481 2113.11,-481"/>
<polygon fill="black" stroke="black" points="2113.11,-484.5 2123.11,-481 2113.11,-477.5 2113.11,-484.5"/>
</g>
<!-- l2b_pol_a_man_demux&#45;&gt;l2b_pol_a_mux -->
<g id="edge23" class="edge">
<title>l2b_pol_a_man_demux&#45;&gt;l2b_pol_a_mux</title>
<path fill="none" stroke="black" d="M1602.85,-360C1602.85,-360 1635.89,-360 1635.89,-360"/>
<polygon fill="black" stroke="black" points="1635.89,-363.5 1645.89,-360 1635.89,-356.5 1635.89,-363.5"/>
</g>
<!-- l3_pol_a_prod&#45;&gt;trans_pol_a_l3_l4 -->
<g id="edge35" class="edge">
<title>l3_pol_a_prod&#45;&gt;trans_pol_a_l3_l4</title>
<path fill="none" stroke="black" d="M2498.51,-589C2498.51,-589 2572.99,-589 2572.99,-589"/>
<polygon fill="black" stroke="black" points="2572.99,-592.5 2582.99,-589 2572.99,-585.5 2572.99,-592.5"/>
</g>
<!-- l3_pol_a_odir -->
<g id="node34" class="node">
<title>l3_pol_a_odir</title>
<ellipse fill="none" stroke="black" cx="2426.71" cy="-751" rx="102.88" ry="18"/>
<text text-anchor="middle" x="2426.71" y="-747.3" font-family="Times,serif" font-size="14.00">L3_pol_a output path 1..1</text>
</g>
<!-- l3_pol_a_odir&#45;&gt;trans_pol_a_l3_l4 -->
<g id="edge37" class="edge">
<title>l3_pol_a_odir&#45;&gt;trans_pol_a_l3_l4</title>
<path fill="none" stroke="black" d="M2525.56,-746.05C2525.56,-738.25 2525.56,-724 2525.56,-724 2525.56,-724 2604.43,-724 2604.43,-724"/>
<polygon fill="black" stroke="black" points="2604.43,-727.5 2614.43,-724 2604.43,-720.5 2604.43,-727.5"/>
</g>
<!-- l3_pol_a_man&#45;&gt;trans_pol_a_l3_l4 -->
<g id="edge36" class="edge">
<title>l3_pol_a_man&#45;&gt;trans_pol_a_l3_l4</title>
<path fill="none" stroke="black" d="M2507.56,-544.14C2507.56,-551.97 2507.56,-562 2507.56,-562 2507.56,-562 2604.31,-562 2604.31,-562"/>
<polygon fill="black" stroke="black" points="2604.31,-565.5 2614.31,-562 2604.31,-558.5 2604.31,-565.5"/>
</g>
<!-- l3_pol_a_rec -->
<g id="node36" class="node">
<title>l3_pol_a_rec</title>
<polygon fill="none" stroke="black" points="2479.71,-709 2361.71,-709 2361.71,-685 2479.71,-685 2491.71,-697 2479.71,-709"/>
<text text-anchor="middle" x="2426.71" y="-693.3" font-family="Times,serif" font-size="14.00">L3_pol_a recipe 1..1</text>
</g>
<!-- l3_pol_a_rec&#45;&gt;trans_pol_a_l3_l4 -->
<g id="edge38" class="edge">
<title>l3_pol_a_rec&#45;&gt;trans_pol_a_l3_l4</title>
<path fill="none" stroke="black" d="M2491.98,-697C2491.98,-697 2573.1,-697 2573.1,-697"/>
<polygon fill="black" stroke="black" points="2573.1,-700.5 2583.1,-697 2573.1,-693.5 2573.1,-700.5"/>
</g>
<!-- l3_pol_a_mueller -->
<g id="node37" class="node">
<title>l3_pol_a_mueller</title>
<polygon fill="none" stroke="black" points="2504.21,-655 2337.21,-655 2337.21,-631 2504.21,-631 2516.21,-643 2504.21,-655"/>
<text text-anchor="middle" x="2426.71" y="-639.3" font-family="Times,serif" font-size="14.00">L3_pol_a mueller matrix 1..1</text>
</g>
<!-- l3_pol_a_mueller&#45;&gt;trans_pol_a_l3_l4 -->
<g id="edge39" class="edge">
<title>l3_pol_a_mueller&#45;&gt;trans_pol_a_l3_l4</title>
<path fill="none" stroke="black" d="M2516.26,-643C2516.26,-643 2555.05,-643 2555.05,-643"/>
<polygon fill="black" stroke="black" points="2555.05,-646.5 2565.05,-643 2555.05,-639.5 2555.05,-646.5"/>
</g>
<!-- l4_pol_a_prod&#45;&gt;trans_pol_a_l4_tda -->
<g id="edge43" class="edge">
<title>l4_pol_a_prod&#45;&gt;trans_pol_a_l4_tda</title>
<path fill="none" stroke="black" d="M3004.96,-705.59C3004.96,-705.59 3144.45,-705.59 3144.45,-705.59"/>
<polygon fill="black" stroke="black" points="3144.45,-709.09 3154.45,-705.59 3144.45,-702.09 3144.45,-709.09"/>
</g>
<!-- l4_pol_a_man&#45;&gt;trans_pol_a_l4_tda -->
<g id="edge44" class="edge">
<title>l4_pol_a_man&#45;&gt;trans_pol_a_l4_tda</title>
<path fill="none" stroke="black" d="M3017.56,-597.06C3017.56,-621.98 3017.56,-696.19 3017.56,-696.19 3017.56,-696.19 3159.7,-696.19 3159.7,-696.19"/>
<polygon fill="black" stroke="black" points="3159.7,-699.69 3169.7,-696.19 3159.7,-692.69 3159.7,-699.69"/>
</g>
<!-- l4_pol_a_odir -->
<g id="node42" class="node">
<title>l4_pol_a_odir</title>
<ellipse fill="none" stroke="black" cx="2933.34" cy="-913" rx="102.88" ry="18"/>
<text text-anchor="middle" x="2933.34" y="-909.3" font-family="Times,serif" font-size="14.00">L4_pol_a output path 1..1</text>
</g>
<!-- l4_pol_a_odir&#45;&gt;trans_pol_a_l4_tda -->
<g id="edge45" class="edge">
<title>l4_pol_a_odir&#45;&gt;trans_pol_a_l4_tda</title>
<path fill="none" stroke="black" d="M3017.56,-902.49C3017.56,-886.99 3017.56,-859.81 3017.56,-859.81 3017.56,-859.81 3159.7,-859.81 3159.7,-859.81"/>
<polygon fill="black" stroke="black" points="3159.7,-863.31 3169.7,-859.81 3159.7,-856.31 3159.7,-863.31"/>
</g>
<!-- l4_pol_a_rec -->
<g id="node43" class="node">
<title>l4_pol_a_rec</title>
<polygon fill="none" stroke="black" points="2986.34,-871 2868.34,-871 2868.34,-847 2986.34,-847 2998.34,-859 2986.34,-871"/>
<text text-anchor="middle" x="2933.34" y="-855.3" font-family="Times,serif" font-size="14.00">L4_pol_a recipe 1..1</text>
</g>
<!-- l4_pol_a_rec&#45;&gt;trans_pol_a_l4_tda -->
<g id="edge46" class="edge">
<title>l4_pol_a_rec&#45;&gt;trans_pol_a_l4_tda</title>
<path fill="none" stroke="black" d="M2998.57,-850.41C2998.57,-850.41 3144.15,-850.41 3144.15,-850.41"/>
<polygon fill="black" stroke="black" points="3144.15,-853.91 3154.15,-850.41 3144.15,-846.91 3144.15,-853.91"/>
</g>
<!-- l4_pol_a_ctcal -->
<g id="node44" class="node">
<title>l4_pol_a_ctcal</title>
<polygon fill="none" stroke="black" points="3046.34,-817 2808.34,-817 2808.34,-793 3046.34,-793 3058.34,-805 3046.34,-817"/>
<text text-anchor="middle" x="2933.34" y="-801.3" font-family="Times,serif" font-size="14.00">L4_pol_a core throughput calibrations 1..1</text>
</g>
<!-- l4_pol_a_ctcal&#45;&gt;trans_pol_a_l4_tda -->
<g id="edge47" class="edge">
<title>l4_pol_a_ctcal&#45;&gt;trans_pol_a_l4_tda</title>
<path fill="none" stroke="black" d="M3058.34,-805C3058.34,-805 3112.8,-805 3112.8,-805"/>
<polygon fill="black" stroke="black" points="3112.8,-808.5 3122.8,-805 3112.8,-801.5 3112.8,-808.5"/>
</g>
<!-- l4_pol_a_pafcal -->
<g id="node45" class="node">
<title>l4_pol_a_pafcal</title>
<polygon fill="none" stroke="black" points="3070.84,-763 2783.84,-763 2783.84,-739 3070.84,-739 3082.84,-751 3070.84,-763"/>
<text text-anchor="middle" x="2933.34" y="-747.3" font-family="Times,serif" font-size="14.00">L4_pol_a polarimetric absolute flux calibration 1..1</text>
</g>
<!-- l4_pol_a_pafcal&#45;&gt;trans_pol_a_l4_tda -->
<g id="edge48" class="edge">
<title>l4_pol_a_pafcal&#45;&gt;trans_pol_a_l4_tda</title>
<path fill="none" stroke="black" d="M3083.04,-751C3083.04,-751 3112.58,-751 3112.58,-751"/>
<polygon fill="black" stroke="black" points="3112.58,-754.5 3122.58,-751 3112.58,-747.5 3112.58,-754.5"/>
</g>
</g>
</svg>
