<?xml version="1.0" encoding="UTF-8" standalone="no"?>
<!DOCTYPE svg PUBLIC "-//W3C//DTD SVG 1.1//EN"
 "http://www.w3.org/Graphics/SVG/1.1/DTD/svg11.dtd">
<!-- Generated by graphviz version 2.43.0 (0)
 -->
<!-- Title: PolarimetryAnalog Pages: 1 -->
<svg width="3472pt" height="1097pt"
 viewBox="0.00 0.00 3472.44 1097.00" xmlns="http://www.w3.org/2000/svg" xmlns:xlink="http://www.w3.org/1999/xlink">
<g id="graph0" class="graph" transform="scale(1 1) rotate(0) translate(4 1093)">
<title>PolarimetryAnalog</title>
<polygon fill="white" stroke="transparent" points="-4,4 -4,-1093 3468.44,-1093 3468.44,4 -4,4"/>
<!-- trans_pol_a_l1_l2a -->
<g id="node1" class="node">
<title>trans_pol_a_l1_l2a</title>
<ellipse fill="none" stroke="black" cx="473.63" cy="-126" rx="115.02" ry="115.02"/>
<text text-anchor="middle" x="473.63" y="-129.8" font-family="Times,serif" font-size="14.00">pol_a Transmutation</text>
<text text-anchor="middle" x="473.63" y="-114.8" font-family="Times,serif" font-size="14.00">L1 to L2a</text>
</g>
<!-- l2a_pol_a_prod -->
<g id="node11" class="node">
<title>l2a_pol_a_prod</title>
<polygon fill="none" stroke="black" points="876.62,-225 691.62,-225 691.62,-189 876.62,-189 876.62,-225"/>
<text text-anchor="middle" x="784.12" y="-203.3" font-family="Times,serif" font-size="14.00">L2a_pol_a products 1..b</text>
</g>
<!-- trans_pol_a_l1_l2a&#45;&gt;l2a_pol_a_prod -->
<g id="edge6" class="edge">
<title>trans_pol_a_l1_l2a&#45;&gt;l2a_pol_a_prod</title>
<path fill="none" stroke="black" stroke-dasharray="5,2" d="M556.02,-207C556.02,-207 681.48,-207 681.48,-207"/>
<polygon fill="black" stroke="black" points="681.48,-210.5 691.48,-207 681.48,-203.5 681.48,-210.5"/>
</g>
<!-- l2a_pol_a_man -->
<g id="node12" class="node">
<title>l2a_pol_a_man</title>
<ellipse fill="none" stroke="black" cx="784.12" cy="-153" rx="159.47" ry="18"/>
<text text-anchor="middle" x="784.12" y="-149.3" font-family="Times,serif" font-size="14.00">L2a_pol_a product manifest 1..1</text>
</g>
<!-- trans_pol_a_l1_l2a&#45;&gt;l2a_pol_a_man -->
<g id="edge7" class="edge">
<title>trans_pol_a_l1_l2a&#45;&gt;l2a_pol_a_man</title>
<path fill="none" stroke="black" d="M585.73,-153C585.73,-153 614.64,-153 614.64,-153"/>
<polygon fill="black" stroke="black" points="614.64,-156.5 624.64,-153 614.64,-149.5 614.64,-156.5"/>
</g>
<!-- l2a_pol_a_log -->
<g id="node21" class="node">
<title>l2a_pol_a_log</title>
<ellipse fill="none" stroke="black" cx="784.12" cy="-99" rx="93.68" ry="18"/>
<text text-anchor="middle" x="784.12" y="-95.3" font-family="Times,serif" font-size="14.00">L2a log_pol_a 1..1</text>
</g>
<!-- trans_pol_a_l1_l2a&#45;&gt;l2a_pol_a_log -->
<g id="edge8" class="edge">
<title>trans_pol_a_l1_l2a&#45;&gt;l2a_pol_a_log</title>
<path fill="none" stroke="black" stroke-dasharray="5,2" d="M585.73,-99C585.73,-99 680.35,-99 680.35,-99"/>
<polygon fill="black" stroke="black" points="680.35,-102.5 690.35,-99 680.35,-95.5 680.35,-102.5"/>
</g>
<!-- l2a_pol_a_src -->
<g id="node48" class="node">
<title>l2a_pol_a_src</title>
<ellipse fill="none" stroke="black" cx="784.12" cy="-45" rx="153.27" ry="18"/>
<text text-anchor="middle" x="784.12" y="-41.3" font-family="Times,serif" font-size="14.00">L2a_pol_a source manifest 1..1</text>
</g>
<!-- trans_pol_a_l1_l2a&#45;&gt;l2a_pol_a_src -->
<g id="edge50" class="edge">
<title>trans_pol_a_l1_l2a&#45;&gt;l2a_pol_a_src</title>
<path fill="none" stroke="black" d="M556.02,-45C556.02,-45 620.47,-45 620.47,-45"/>
<polygon fill="black" stroke="black" points="620.47,-48.5 630.47,-45 620.47,-41.5 620.47,-48.5"/>
</g>
<!-- trans_pol_a_l2a_l2b -->
<g id="node2" class="node">
<title>trans_pol_a_l2a_l2b</title>
<ellipse fill="none" stroke="black" cx="1094.62" cy="-396" rx="115.02" ry="115.02"/>
<text text-anchor="middle" x="1094.62" y="-399.8" font-family="Times,serif" font-size="14.00">pol_a Transmutation</text>
<text text-anchor="middle" x="1094.62" y="-384.8" font-family="Times,serif" font-size="14.00">L2a to L2b</text>
</g>
<!-- l2b_pol_a_prod -->
<g id="node22" class="node">
<title>l2b_pol_a_prod</title>
<polygon fill="none" stroke="black" points="1498.11,-495 1312.11,-495 1312.11,-459 1498.11,-459 1498.11,-495"/>
<text text-anchor="middle" x="1405.11" y="-473.3" font-family="Times,serif" font-size="14.00">L2b_pol_a products 1..1</text>
</g>
<!-- trans_pol_a_l2a_l2b&#45;&gt;l2b_pol_a_prod -->
<g id="edge18" class="edge">
<title>trans_pol_a_l2a_l2b&#45;&gt;l2b_pol_a_prod</title>
<path fill="none" stroke="black" stroke-dasharray="5,2" d="M1177.01,-477C1177.01,-477 1301.91,-477 1301.91,-477"/>
<polygon fill="black" stroke="black" points="1301.91,-480.5 1311.91,-477 1301.91,-473.5 1301.91,-480.5"/>
</g>
<!-- l2b_pol_a_man -->
<g id="node23" class="node">
<title>l2b_pol_a_man</title>
<ellipse fill="none" stroke="black" cx="1405.11" cy="-423" rx="159.47" ry="18"/>
<text text-anchor="middle" x="1405.11" y="-419.3" font-family="Times,serif" font-size="14.00">L2b_pol_a product manifest 1..1</text>
</g>
<!-- trans_pol_a_l2a_l2b&#45;&gt;l2b_pol_a_man -->
<g id="edge19" class="edge">
<title>trans_pol_a_l2a_l2b&#45;&gt;l2b_pol_a_man</title>
<path fill="none" stroke="black" d="M1206.71,-423C1206.71,-423 1235.63,-423 1235.63,-423"/>
<polygon fill="black" stroke="black" points="1235.63,-426.5 1245.63,-423 1235.63,-419.5 1235.63,-426.5"/>
</g>
<!-- l2b_pol_a_log -->
<g id="node29" class="node">
<title>l2b_pol_a_log</title>
<ellipse fill="none" stroke="black" cx="1405.11" cy="-369" rx="94.48" ry="18"/>
<text text-anchor="middle" x="1405.11" y="-365.3" font-family="Times,serif" font-size="14.00">L2b_pol_a log 1..1</text>
</g>
<!-- trans_pol_a_l2a_l2b&#45;&gt;l2b_pol_a_log -->
<g id="edge20" class="edge">
<title>trans_pol_a_l2a_l2b&#45;&gt;l2b_pol_a_log</title>
<path fill="none" stroke="black" stroke-dasharray="5,2" d="M1206.71,-369C1206.71,-369 1300.83,-369 1300.83,-369"/>
<polygon fill="black" stroke="black" points="1300.83,-372.5 1310.83,-369 1300.83,-365.5 1300.83,-372.5"/>
</g>
<!-- l2b_pol_a_src -->
<g id="node49" class="node">
<title>l2b_pol_a_src</title>
<ellipse fill="none" stroke="black" cx="1405.11" cy="-315" rx="154.07" ry="18"/>
<text text-anchor="middle" x="1405.11" y="-311.3" font-family="Times,serif" font-size="14.00">L2b_pol_a source manifest 1..1</text>
</g>
<!-- trans_pol_a_l2a_l2b&#45;&gt;l2b_pol_a_src -->
<g id="edge51" class="edge">
<title>trans_pol_a_l2a_l2b&#45;&gt;l2b_pol_a_src</title>
<path fill="none" stroke="black" d="M1177.01,-315C1177.01,-315 1240.86,-315 1240.86,-315"/>
<polygon fill="black" stroke="black" points="1240.86,-318.5 1250.86,-315 1240.86,-311.5 1240.86,-318.5"/>
</g>
<!-- trans_pol_a_l2b_l3 -->
<g id="node3" class="node">
<title>trans_pol_a_l2b_l3</title>
<ellipse fill="none" stroke="black" cx="1715.61" cy="-585" rx="115.02" ry="115.02"/>
<text text-anchor="middle" x="1715.61" y="-588.8" font-family="Times,serif" font-size="14.00">pol_a Transmutation</text>
<text text-anchor="middle" x="1715.61" y="-573.8" font-family="Times,serif" font-size="14.00">L2b to L3</text>
</g>
<!-- l3_pol_a_prod -->
<g id="node30" class="node">
<title>l3_pol_a_prod</title>
<polygon fill="none" stroke="black" points="2108.75,-684 1931.75,-684 1931.75,-648 2108.75,-648 2108.75,-684"/>
<text text-anchor="middle" x="2020.25" y="-662.3" font-family="Times,serif" font-size="14.00">L3_pol_a products 1..1</text>
</g>
<!-- trans_pol_a_l2b_l3&#45;&gt;l3_pol_a_prod -->
<g id="edge29" class="edge">
<title>trans_pol_a_l2b_l3&#45;&gt;l3_pol_a_prod</title>
<path fill="none" stroke="black" stroke-dasharray="5,2" d="M1797.65,-666C1797.65,-666 1921.65,-666 1921.65,-666"/>
<polygon fill="black" stroke="black" points="1921.65,-669.5 1931.65,-666 1921.65,-662.5 1921.65,-669.5"/>
</g>
<!-- l3_pol_a_man -->
<g id="node32" class="node">
<title>l3_pol_a_man</title>
<ellipse fill="none" stroke="black" cx="2020.25" cy="-612" rx="153.27" ry="18"/>
<text text-anchor="middle" x="2020.25" y="-608.3" font-family="Times,serif" font-size="14.00">L3_pol_a product manifest 1..1</text>
</g>
<!-- trans_pol_a_l2b_l3&#45;&gt;l3_pol_a_man -->
<g id="edge30" class="edge">
<title>trans_pol_a_l2b_l3&#45;&gt;l3_pol_a_man</title>
<path fill="none" stroke="black" d="M1827.75,-612C1827.75,-612 1856.74,-612 1856.74,-612"/>
<polygon fill="black" stroke="black" points="1856.74,-615.5 1866.74,-612 1856.74,-608.5 1856.74,-615.5"/>
</g>
<!-- l3_pol_a_log -->
<g id="node37" class="node">
<title>l3_pol_a_log</title>
<ellipse fill="none" stroke="black" cx="2020.25" cy="-558" rx="88.28" ry="18"/>
<text text-anchor="middle" x="2020.25" y="-554.3" font-family="Times,serif" font-size="14.00">L3_pol_a log 1..1</text>
</g>
<!-- trans_pol_a_l2b_l3&#45;&gt;l3_pol_a_log -->
<g id="edge31" class="edge">
<title>trans_pol_a_l2b_l3&#45;&gt;l3_pol_a_log</title>
<path fill="none" stroke="black" stroke-dasharray="5,2" d="M1827.75,-558C1827.75,-558 1921.69,-558 1921.69,-558"/>
<polygon fill="black" stroke="black" points="1921.69,-561.5 1931.69,-558 1921.69,-554.5 1921.69,-561.5"/>
</g>
<!-- l3_pol_a_src -->
<g id="node50" class="node">
<title>l3_pol_a_src</title>
<ellipse fill="none" stroke="black" cx="2020.25" cy="-504" rx="148.37" ry="18"/>
<text text-anchor="middle" x="2020.25" y="-500.3" font-family="Times,serif" font-size="14.00">L3_pol_a source manifest 1..1</text>
</g>
<!-- trans_pol_a_l2b_l3&#45;&gt;l3_pol_a_src -->
<g id="edge52" class="edge">
<title>trans_pol_a_l2b_l3&#45;&gt;l3_pol_a_src</title>
<path fill="none" stroke="black" d="M1797.65,-504C1797.65,-504 1861.97,-504 1861.97,-504"/>
<polygon fill="black" stroke="black" points="1861.97,-507.5 1871.97,-504 1861.97,-500.5 1861.97,-507.5"/>
</g>
<!-- trans_pol_a_l3_l4 -->
<g id="node4" class="node">
<title>trans_pol_a_l3_l4</title>
<ellipse fill="none" stroke="black" cx="2324.9" cy="-774" rx="115.02" ry="115.02"/>
<text text-anchor="middle" x="2324.9" y="-777.8" font-family="Times,serif" font-size="14.00">pol_a Transmutation</text>
<text text-anchor="middle" x="2324.9" y="-762.8" font-family="Times,serif" font-size="14.00">L3 to L4</text>
</g>
<!-- l4_pol_a_prod -->
<g id="node38" class="node">
<title>l4_pol_a_prod</title>
<polygon fill="none" stroke="black" points="2754.15,-873 2577.15,-873 2577.15,-837 2754.15,-837 2754.15,-873"/>
<text text-anchor="middle" x="2665.65" y="-851.3" font-family="Times,serif" font-size="14.00">L4_pol_a products 1..1</text>
</g>
<!-- trans_pol_a_l3_l4&#45;&gt;l4_pol_a_prod -->
<g id="edge39" class="edge">
<title>trans_pol_a_l3_l4&#45;&gt;l4_pol_a_prod</title>
<path fill="none" stroke="black" stroke-dasharray="5,2" d="M2406.95,-855C2406.95,-855 2567.15,-855 2567.15,-855"/>
<polygon fill="black" stroke="black" points="2567.15,-858.5 2577.15,-855 2567.15,-851.5 2567.15,-858.5"/>
</g>
<!-- l4_pol_a_log -->
<g id="node39" class="node">
<title>l4_pol_a_log</title>
<ellipse fill="none" stroke="black" cx="2665.65" cy="-801" rx="88.28" ry="18"/>
<text text-anchor="middle" x="2665.65" y="-797.3" font-family="Times,serif" font-size="14.00">L4_pol_a log 1..1</text>
</g>
<!-- trans_pol_a_l3_l4&#45;&gt;l4_pol_a_log -->
<g id="edge40" class="edge">
<title>trans_pol_a_l3_l4&#45;&gt;l4_pol_a_log</title>
<path fill="none" stroke="black" stroke-dasharray="5,2" d="M2437.42,-801C2437.42,-801 2567.26,-801 2567.26,-801"/>
<polygon fill="black" stroke="black" points="2567.26,-804.5 2577.26,-801 2567.26,-797.5 2567.26,-804.5"/>
</g>
<!-- l4_pol_a_man -->
<g id="node40" class="node">
<title>l4_pol_a_man</title>
<ellipse fill="none" stroke="black" cx="2665.65" cy="-747" rx="153.27" ry="18"/>
<text text-anchor="middle" x="2665.65" y="-743.3" font-family="Times,serif" font-size="14.00">L4_pol_a product manifest 1..1</text>
</g>
<!-- trans_pol_a_l3_l4&#45;&gt;l4_pol_a_man -->
<g id="edge41" class="edge">
<title>trans_pol_a_l3_l4&#45;&gt;l4_pol_a_man</title>
<path fill="none" stroke="black" d="M2437.42,-747C2437.42,-747 2502.2,-747 2502.2,-747"/>
<polygon fill="black" stroke="black" points="2502.2,-750.5 2512.2,-747 2502.2,-743.5 2502.2,-750.5"/>
</g>
<!-- l4_pol_a_src -->
<g id="node51" class="node">
<title>l4_pol_a_src</title>
<ellipse fill="none" stroke="black" cx="2665.65" cy="-693" rx="145.67" ry="18"/>
<text text-anchor="middle" x="2665.65" y="-689.3" font-family="Times,serif" font-size="14.00">L4_pol_a sourcemanifest 1..1</text>
</g>
<!-- trans_pol_a_l3_l4&#45;&gt;l4_pol_a_src -->
<g id="edge53" class="edge">
<title>trans_pol_a_l3_l4&#45;&gt;l4_pol_a_src</title>
<path fill="none" stroke="black" d="M2406.95,-693C2406.95,-693 2509.73,-693 2509.73,-693"/>
<polygon fill="black" stroke="black" points="2509.73,-696.5 2519.73,-693 2509.73,-689.5 2509.73,-696.5"/>
</g>
<!-- trans_pol_a_l4_tda -->
<g id="node5" class="node">
<title>trans_pol_a_l4_tda</title>
<ellipse fill="none" stroke="black" cx="3006.41" cy="-936" rx="115.02" ry="115.02"/>
<text text-anchor="middle" x="3006.41" y="-939.8" font-family="Times,serif" font-size="14.00">pol_a Transmutation</text>
<text text-anchor="middle" x="3006.41" y="-924.8" font-family="Times,serif" font-size="14.00">L4 to TDA</text>
</g>
<!-- tda_pol_a_prod -->
<g id="node46" class="node">
<title>tda_pol_a_prod</title>
<ellipse fill="none" stroke="black" cx="3311.06" cy="-990" rx="79.89" ry="18"/>
<text text-anchor="middle" x="3311.06" y="-986.3" font-family="Times,serif" font-size="14.00">tda_pol_a_prod</text>
</g>
<!-- trans_pol_a_l4_tda&#45;&gt;tda_pol_a_prod -->
<g id="edge48" class="edge">
<title>trans_pol_a_l4_tda&#45;&gt;tda_pol_a_prod</title>
<path fill="none" stroke="black" stroke-dasharray="5,2" d="M3108.28,-990C3108.28,-990 3220.97,-990 3220.97,-990"/>
<polygon fill="black" stroke="black" points="3220.97,-993.5 3230.97,-990 3220.97,-986.5 3220.97,-993.5"/>
</g>
<!-- tda_pol_a_log -->
<g id="node47" class="node">
<title>tda_pol_a_log</title>
<ellipse fill="none" stroke="black" cx="3311.06" cy="-936" rx="72.59" ry="18"/>
<text text-anchor="middle" x="3311.06" y="-932.3" font-family="Times,serif" font-size="14.00">tda_pol_a_log</text>
</g>
<!-- trans_pol_a_l4_tda&#45;&gt;tda_pol_a_log -->
<g id="edge49" class="edge">
<title>trans_pol_a_l4_tda&#45;&gt;tda_pol_a_log</title>
<path fill="none" stroke="black" stroke-dasharray="5,2" d="M3122.02,-936C3122.02,-936 3227.87,-936 3227.87,-936"/>
<polygon fill="black" stroke="black" points="3227.87,-939.5 3237.87,-936 3227.87,-932.5 3227.87,-939.5"/>
</g>
<!-- tda_pol_a_src -->
<g id="node52" class="node">
<title>tda_pol_a_src</title>
<ellipse fill="none" stroke="black" cx="3311.06" cy="-882" rx="153.27" ry="18"/>
<text text-anchor="middle" x="3311.06" y="-878.3" font-family="Times,serif" font-size="14.00">TDA_pol_a sourcemanifest 1..1</text>
</g>
<!-- trans_pol_a_l4_tda&#45;&gt;tda_pol_a_src -->
<g id="edge54" class="edge">
<title>trans_pol_a_l4_tda&#45;&gt;tda_pol_a_src</title>
<path fill="none" stroke="black" d="M3108.28,-882C3108.28,-882 3147.42,-882 3147.42,-882"/>
<polygon fill="black" stroke="black" points="3147.42,-885.5 3157.42,-882 3147.42,-878.5 3147.42,-885.5"/>
</g>
<!-- l1_pol_a_prod -->
<g id="node6" class="node">
<title>l1_pol_a_prod</title>
<polygon fill="none" stroke="black" points="249.69,-252 72.69,-252 72.69,-216 249.69,-216 249.69,-252"/>
<text text-anchor="middle" x="161.19" y="-230.3" font-family="Times,serif" font-size="14.00">L1_pol_a products 1..b</text>
</g>
<!-- l1_pol_a_prod&#45;&gt;trans_pol_a_l1_l2a -->
<g id="edge1" class="edge">
<title>l1_pol_a_prod&#45;&gt;trans_pol_a_l1_l2a</title>
<path fill="none" stroke="black" stroke-dasharray="5,2" d="M249.88,-228.63C249.88,-228.63 410.93,-228.63 410.93,-228.63"/>
<polygon fill="black" stroke="black" points="410.93,-232.13 420.93,-228.63 410.93,-225.13 410.93,-232.13"/>
</g>
<!-- l1_pol_a_man -->
<g id="node7" class="node">
<title>l1_pol_a_man</title>
<ellipse fill="none" stroke="black" cx="161.19" cy="-180" rx="153.27" ry="18"/>
<text text-anchor="middle" x="161.19" y="-176.3" font-family="Times,serif" font-size="14.00">L1_pol_a product manifest 1..1</text>
</g>
<!-- l1_pol_a_man&#45;&gt;trans_pol_a_l1_l2a -->
<g id="edge2" class="edge">
<title>l1_pol_a_man&#45;&gt;trans_pol_a_l1_l2a</title>
<path fill="none" stroke="black" d="M314.66,-180C314.66,-180 361.52,-180 361.52,-180"/>
<polygon fill="black" stroke="black" points="361.52,-183.5 371.52,-180 361.52,-176.5 361.52,-183.5"/>
</g>
<!-- l1_pol_a_odir -->
<g id="node8" class="node">
<title>l1_pol_a_odir</title>
<ellipse fill="none" stroke="black" cx="161.19" cy="-126" rx="128.88" ry="18"/>
<text text-anchor="middle" x="161.19" y="-122.3" font-family="Times,serif" font-size="14.00">L1_pol_a output path 1..1</text>
</g>
<!-- l1_pol_a_odir&#45;&gt;trans_pol_a_l1_l2a -->
<g id="edge3" class="edge">
<title>l1_pol_a_odir&#45;&gt;trans_pol_a_l1_l2a</title>
<path fill="none" stroke="black" d="M290.07,-126C290.07,-126 348.04,-126 348.04,-126"/>
<polygon fill="black" stroke="black" points="348.04,-129.5 358.04,-126 348.04,-122.5 348.04,-129.5"/>
</g>
<!-- l1_pol_a_rec -->
<g id="node9" class="node">
<title>l1_pol_a_rec</title>
<polygon fill="none" stroke="black" points="228.19,-84 82.19,-84 82.19,-60 228.19,-60 240.19,-72 228.19,-84"/>
<text text-anchor="middle" x="161.19" y="-68.3" font-family="Times,serif" font-size="14.00">L1_pol_a recipe 1..1</text>
</g>
<!-- l1_pol_a_rec&#45;&gt;trans_pol_a_l1_l2a -->
<g id="edge4" class="edge">
<title>l1_pol_a_rec&#45;&gt;trans_pol_a_l1_l2a</title>
<path fill="none" stroke="black" d="M240.43,-72C240.43,-72 361.7,-72 361.7,-72"/>
<polygon fill="black" stroke="black" points="361.7,-75.5 371.7,-72 361.7,-68.5 361.7,-75.5"/>
</g>
<!-- l1_pol_a_nllut -->
<g id="node10" class="node">
<title>l1_pol_a_nllut</title>
<polygon fill="none" stroke="black" points="259.19,-30 51.19,-30 51.19,-6 259.19,-6 271.19,-18 259.19,-30"/>
<text text-anchor="middle" x="161.19" y="-14.3" font-family="Times,serif" font-size="14.00">L1_pol_a non&#45;linear LUT 1..1</text>
</g>
<!-- l1_pol_a_nllut&#45;&gt;trans_pol_a_l1_l2a -->
<g id="edge5" class="edge">
<title>l1_pol_a_nllut&#45;&gt;trans_pol_a_l1_l2a</title>
<path fill="none" stroke="black" d="M271.34,-23.37C271.34,-23.37 410.83,-23.37 410.83,-23.37"/>
<polygon fill="black" stroke="black" points="410.83,-26.87 420.83,-23.37 410.83,-19.87 410.83,-26.87"/>
</g>
<!-- l2a_pol_a_prod&#45;&gt;trans_pol_a_l2a_l2b -->
<g id="edge9" class="edge">
<title>l2a_pol_a_prod&#45;&gt;trans_pol_a_l2a_l2b</title>
<path fill="none" stroke="black" stroke-dasharray="5,2" d="M876.69,-207C968.46,-207 1095.44,-207 1095.44,-207 1095.44,-207 1095.44,-270.61 1095.44,-270.61"/>
<polygon fill="black" stroke="black" points="1091.94,-270.61 1095.44,-280.61 1098.94,-270.61 1091.94,-270.61"/>
</g>
<!-- l2a_pol_a_man&#45;&gt;trans_pol_a_l2a_l2b -->
<g id="edge21" class="edge">
<title>l2a_pol_a_man&#45;&gt;trans_pol_a_l2a_l2b</title>
<path fill="none" stroke="black" d="M936.44,-158.38C936.44,-183.3 936.44,-286.16 936.44,-286.16 936.44,-286.16 1049.51,-286.16 1049.51,-286.16"/>
<polygon fill="black" stroke="black" points="1049.51,-289.66 1059.51,-286.16 1049.51,-282.66 1049.51,-289.66"/>
</g>
<!-- l2a_pol_a_odir -->
<g id="node13" class="node">
<title>l2a_pol_a_odir</title>
<ellipse fill="none" stroke="black" cx="784.12" cy="-641" rx="133.78" ry="18"/>
<text text-anchor="middle" x="784.12" y="-637.3" font-family="Times,serif" font-size="14.00">L2a_pol_a output path 1..1</text>
</g>
<!-- l2a_pol_a_odir&#45;&gt;trans_pol_a_l2a_l2b -->
<g id="edge10" class="edge">
<title>l2a_pol_a_odir&#45;&gt;trans_pol_a_l2a_l2b</title>
<path fill="none" stroke="black" d="M918.18,-640C1016.69,-640 1133.44,-640 1133.44,-640 1133.44,-640 1133.44,-514.8 1133.44,-514.8"/>
<polygon fill="black" stroke="black" points="1136.94,-514.8 1133.44,-504.8 1129.94,-514.8 1136.94,-514.8"/>
</g>
<!-- l2a_pol_a_rec -->
<g id="node14" class="node">
<title>l2a_pol_a_rec</title>
<polygon fill="none" stroke="black" points="855.62,-599 700.62,-599 700.62,-575 855.62,-575 867.62,-587 855.62,-599"/>
<text text-anchor="middle" x="784.12" y="-583.3" font-family="Times,serif" font-size="14.00">L2a_pol_a recipe 1..1</text>
</g>
<!-- l2a_pol_a_rec&#45;&gt;trans_pol_a_l2a_l2b -->
<g id="edge11" class="edge">
<title>l2a_pol_a_rec&#45;&gt;trans_pol_a_l2a_l2b</title>
<path fill="none" stroke="black" d="M867.68,-586C947.73,-586 1056.44,-586 1056.44,-586 1056.44,-586 1056.44,-514.87 1056.44,-514.87"/>
<polygon fill="black" stroke="black" points="1059.94,-514.87 1056.44,-504.87 1052.94,-514.87 1059.94,-514.87"/>
</g>
<!-- l2a_pol_a_cti -->
<g id="node15" class="node">
<title>l2a_pol_a_cti</title>
<polygon fill="none" stroke="black" points="917.12,-545 639.12,-545 639.12,-521 917.12,-521 929.12,-533 917.12,-545"/>
<text text-anchor="middle" x="784.12" y="-529.3" font-family="Times,serif" font-size="14.00">L2a_pol_a charge xfer inefficiency 1..1</text>
</g>
<!-- l2a_pol_a_cti&#45;&gt;trans_pol_a_l2a_l2b -->
<g id="edge12" class="edge">
<title>l2a_pol_a_cti&#45;&gt;trans_pol_a_l2a_l2b</title>
<path fill="none" stroke="black" d="M917.44,-514.88C917.44,-509.08 917.44,-504.13 917.44,-504.13 917.44,-504.13 1044.41,-504.13 1044.41,-504.13"/>
<polygon fill="black" stroke="black" points="1044.41,-507.63 1054.41,-504.13 1044.41,-500.63 1044.41,-507.63"/>
</g>
<!-- l2a_pol_a_dnb -->
<g id="node16" class="node">
<title>l2a_pol_a_dnb</title>
<polygon fill="none" stroke="black" points="898.62,-491 657.62,-491 657.62,-465 898.62,-465 910.62,-478 898.62,-491"/>
<text text-anchor="middle" x="784.12" y="-481.8" font-family="Times,serif" font-size="14.00">L2a_pol_a CIC/Dark Current/FPN</text>
<text text-anchor="middle" x="784.12" y="-466.8" font-family="Times,serif" font-size="14.00"> or master dark 1..1</text>
</g>
<!-- l2a_pol_a_dnb&#45;&gt;trans_pol_a_l2a_l2b -->
<g id="edge13" class="edge">
<title>l2a_pol_a_dnb&#45;&gt;trans_pol_a_l2a_l2b</title>
<path fill="none" stroke="black" d="M910.86,-478C910.86,-478 1003.18,-478 1003.18,-478"/>
<polygon fill="black" stroke="black" points="1003.18,-481.5 1013.18,-478 1003.18,-474.5 1003.18,-481.5"/>
</g>
<!-- l2a_pol_a_mbpm -->
<g id="node17" class="node">
<title>l2a_pol_a_mbpm</title>
<polygon fill="none" stroke="black" points="911.12,-435 645.12,-435 645.12,-411 911.12,-411 923.12,-423 911.12,-435"/>
<text text-anchor="middle" x="784.12" y="-419.3" font-family="Times,serif" font-size="14.00">L2a_pol_a master bad pixel map 1..1</text>
</g>
<!-- l2a_pol_a_mbpm&#45;&gt;trans_pol_a_l2a_l2b -->
<g id="edge14" class="edge">
<title>l2a_pol_a_mbpm&#45;&gt;trans_pol_a_l2a_l2b</title>
<path fill="none" stroke="black" d="M923.48,-423C923.48,-423 972.23,-423 972.23,-423"/>
<polygon fill="black" stroke="black" points="972.23,-426.5 982.23,-423 972.23,-419.5 972.23,-426.5"/>
</g>
<!-- l2a_pol_a_emg -->
<g id="node18" class="node">
<title>l2a_pol_a_emg</title>
<polygon fill="none" stroke="black" points="863.12,-381 693.12,-381 693.12,-357 863.12,-357 875.12,-369 863.12,-381"/>
<text text-anchor="middle" x="784.12" y="-365.3" font-family="Times,serif" font-size="14.00">L2a_pol_a EM gain 1..1</text>
</g>
<!-- l2a_pol_a_emg&#45;&gt;trans_pol_a_l2a_l2b -->
<g id="edge15" class="edge">
<title>l2a_pol_a_emg&#45;&gt;trans_pol_a_l2a_l2b</title>
<path fill="none" stroke="black" d="M875.18,-369C875.18,-369 972.35,-369 972.35,-369"/>
<polygon fill="black" stroke="black" points="972.35,-372.5 982.35,-369 972.35,-365.5 972.35,-372.5"/>
</g>
<!-- l2a_pol_a_kgain -->
<g id="node19" class="node">
<title>l2a_pol_a_kgain</title>
<polygon fill="none" stroke="black" points="854.12,-327 702.12,-327 702.12,-303 854.12,-303 866.12,-315 854.12,-327"/>
<text text-anchor="middle" x="784.12" y="-311.3" font-family="Times,serif" font-size="14.00">L2a_pol_a Kgain 1..1</text>
</g>
<!-- l2a_pol_a_kgain&#45;&gt;trans_pol_a_l2a_l2b -->
<g id="edge16" class="edge">
<title>l2a_pol_a_kgain&#45;&gt;trans_pol_a_l2a_l2b</title>
<path fill="none" stroke="black" d="M866.52,-315C866.52,-315 1002.38,-315 1002.38,-315"/>
<polygon fill="black" stroke="black" points="1002.38,-318.5 1012.38,-315 1002.38,-311.5 1002.38,-318.5"/>
</g>
<!-- l2a_pol_a_polff -->
<g id="node20" class="node">
<title>l2a_pol_a_polff</title>
<polygon fill="none" stroke="black" points="912.62,-273 643.62,-273 643.62,-249 912.62,-249 924.62,-261 912.62,-273"/>
<text text-anchor="middle" x="784.12" y="-257.3" font-family="Times,serif" font-size="14.00">L2a_pol_a polarimetric flat fields 1..1</text>
</g>
<!-- l2a_pol_a_polff&#45;&gt;trans_pol_a_l2a_l2b -->
<g id="edge17" class="edge">
<title>l2a_pol_a_polff&#45;&gt;trans_pol_a_l2a_l2b</title>
<path fill="none" stroke="black" d="M899.44,-279.14C899.44,-285.73 899.44,-291.58 899.44,-291.58 899.44,-291.58 1035.62,-291.58 1035.62,-291.58"/>
<polygon fill="black" stroke="black" points="1035.62,-295.08 1045.62,-291.58 1035.62,-288.08 1035.62,-295.08"/>
</g>
<!-- l2b_pol_a_prod&#45;&gt;trans_pol_a_l2b_l3 -->
<g id="edge22" class="edge">
<title>l2b_pol_a_prod&#45;&gt;trans_pol_a_l2b_l3</title>
<path fill="none" stroke="black" stroke-dasharray="5,2" d="M1498.27,-486.58C1498.27,-486.58 1645.35,-486.58 1645.35,-486.58"/>
<polygon fill="black" stroke="black" points="1645.35,-490.08 1655.35,-486.58 1645.35,-483.08 1645.35,-490.08"/>
</g>
<!-- l2b_pol_a_man&#45;&gt;trans_pol_a_l2b_l3 -->
<g id="edge23" class="edge">
<title>l2b_pol_a_man&#45;&gt;trans_pol_a_l2b_l3</title>
<path fill="none" stroke="black" d="M1558.44,-428.09C1558.44,-441.75 1558.44,-478.16 1558.44,-478.16 1558.44,-478.16 1662.25,-478.16 1662.25,-478.16"/>
<polygon fill="black" stroke="black" points="1662.25,-481.66 1672.25,-478.16 1662.25,-474.66 1662.25,-481.66"/>
</g>
<!-- l2b_pol_a_odir -->
<g id="node24" class="node">
<title>l2b_pol_a_odir</title>
<ellipse fill="none" stroke="black" cx="1405.11" cy="-747" rx="134.58" ry="18"/>
<text text-anchor="middle" x="1405.11" y="-743.3" font-family="Times,serif" font-size="14.00">L2b_pol_a output path 1..1</text>
</g>
<!-- l2b_pol_a_odir&#45;&gt;trans_pol_a_l2b_l3 -->
<g id="edge24" class="edge">
<title>l2b_pol_a_odir&#45;&gt;trans_pol_a_l2b_l3</title>
<path fill="none" stroke="black" d="M1514.44,-736.36C1514.44,-720.34 1514.44,-691.84 1514.44,-691.84 1514.44,-691.84 1661.96,-691.84 1661.96,-691.84"/>
<polygon fill="black" stroke="black" points="1661.96,-695.34 1671.96,-691.84 1661.96,-688.34 1661.96,-695.34"/>
</g>
<!-- l2b_pol_a_rec -->
<g id="node25" class="node">
<title>l2b_pol_a_rec</title>
<polygon fill="none" stroke="black" points="1476.61,-705 1321.61,-705 1321.61,-681 1476.61,-681 1488.61,-693 1476.61,-705"/>
<text text-anchor="middle" x="1405.11" y="-689.3" font-family="Times,serif" font-size="14.00">L2b_pol_a recipe 1..1</text>
</g>
<!-- l2b_pol_a_rec&#45;&gt;trans_pol_a_l2b_l3 -->
<g id="edge25" class="edge">
<title>l2b_pol_a_rec&#45;&gt;trans_pol_a_l2b_l3</title>
<path fill="none" stroke="black" d="M1488.73,-683.42C1488.73,-683.42 1645.48,-683.42 1645.48,-683.42"/>
<polygon fill="black" stroke="black" points="1645.48,-686.92 1655.48,-683.42 1645.48,-679.92 1645.48,-686.92"/>
</g>
<!-- l2b_pol_a_excicrf -->
<g id="node26" class="node">
<title>l2b_pol_a_excicrf</title>
<polygon fill="none" stroke="black" points="1532.61,-651 1265.61,-651 1265.61,-627 1532.61,-627 1544.61,-639 1532.61,-651"/>
<text text-anchor="middle" x="1405.11" y="-635.3" font-family="Times,serif" font-size="14.00">L2b_pol_a EXCAM ICRF location 1..1</text>
</g>
<!-- l2b_pol_a_excicrf&#45;&gt;trans_pol_a_l2b_l3 -->
<g id="edge26" class="edge">
<title>l2b_pol_a_excicrf&#45;&gt;trans_pol_a_l2b_l3</title>
<path fill="none" stroke="black" d="M1544.92,-639C1544.92,-639 1603.75,-639 1603.75,-639"/>
<polygon fill="black" stroke="black" points="1603.75,-642.5 1613.75,-639 1603.75,-635.5 1603.75,-642.5"/>
</g>
<!-- l2b_pol_a_excfovps -->
<g id="node27" class="node">
<title>l2b_pol_a_excfovps</title>
<polygon fill="none" stroke="black" points="1539.61,-597 1258.61,-597 1258.61,-573 1539.61,-573 1551.61,-585 1539.61,-597"/>
<text text-anchor="middle" x="1405.11" y="-581.3" font-family="Times,serif" font-size="14.00">L2b_pol_a EXCAM FOV pixel scale 1..1</text>
</g>
<!-- l2b_pol_a_excfovps&#45;&gt;trans_pol_a_l2b_l3 -->
<g id="edge27" class="edge">
<title>l2b_pol_a_excfovps&#45;&gt;trans_pol_a_l2b_l3</title>
<path fill="none" stroke="black" d="M1551.72,-585C1551.72,-585 1589.91,-585 1589.91,-585"/>
<polygon fill="black" stroke="black" points="1589.91,-588.5 1599.91,-585 1589.91,-581.5 1589.91,-588.5"/>
</g>
<!-- l2b_pol_a_cfamfo -->
<g id="node28" class="node">
<title>l2b_pol_a_cfamfo</title>
<polygon fill="none" stroke="black" points="1521.61,-543 1276.61,-543 1276.61,-519 1521.61,-519 1533.61,-531 1521.61,-543"/>
<text text-anchor="middle" x="1405.11" y="-527.3" font-family="Times,serif" font-size="14.00">L2b_pol_a CFAM filter offsets 1..1</text>
</g>
<!-- l2b_pol_a_cfamfo&#45;&gt;trans_pol_a_l2b_l3 -->
<g id="edge28" class="edge">
<title>l2b_pol_a_cfamfo&#45;&gt;trans_pol_a_l2b_l3</title>
<path fill="none" stroke="black" d="M1533.64,-531C1533.64,-531 1603.7,-531 1603.7,-531"/>
<polygon fill="black" stroke="black" points="1603.7,-534.5 1613.7,-531 1603.7,-527.5 1603.7,-534.5"/>
</g>
<!-- l3_pol_a_prod&#45;&gt;trans_pol_a_l3_l4 -->
<g id="edge32" class="edge">
<title>l3_pol_a_prod&#45;&gt;trans_pol_a_l3_l4</title>
<path fill="none" stroke="black" stroke-dasharray="5,2" d="M2108.78,-675.58C2108.78,-675.58 2254.65,-675.58 2254.65,-675.58"/>
<polygon fill="black" stroke="black" points="2254.65,-679.08 2264.65,-675.58 2254.65,-672.08 2254.65,-679.08"/>
</g>
<!-- l3_pol_a_odir -->
<g id="node31" class="node">
<title>l3_pol_a_odir</title>
<ellipse fill="none" stroke="black" cx="2020.25" cy="-936" rx="128.88" ry="18"/>
<text text-anchor="middle" x="2020.25" y="-932.3" font-family="Times,serif" font-size="14.00">L3_pol_a output path 1..1</text>
</g>
<!-- l3_pol_a_odir&#45;&gt;trans_pol_a_l3_l4 -->
<g id="edge34" class="edge">
<title>l3_pol_a_odir&#45;&gt;trans_pol_a_l3_l4</title>
<path fill="none" stroke="black" d="M2140.44,-929.24C2140.44,-914.51 2140.44,-880.84 2140.44,-880.84 2140.44,-880.84 2271.65,-880.84 2271.65,-880.84"/>
<polygon fill="black" stroke="black" points="2271.65,-884.34 2281.65,-880.84 2271.65,-877.34 2271.65,-884.34"/>
</g>
<!-- l3_pol_a_man&#45;&gt;trans_pol_a_l3_l4 -->
<g id="edge33" class="edge">
<title>l3_pol_a_man&#45;&gt;trans_pol_a_l3_l4</title>
<path fill="none" stroke="black" d="M2161.44,-619.21C2161.44,-634.16 2161.44,-667.16 2161.44,-667.16 2161.44,-667.16 2271.52,-667.16 2271.52,-667.16"/>
<polygon fill="black" stroke="black" points="2271.52,-670.66 2281.52,-667.16 2271.52,-663.66 2271.52,-670.66"/>
</g>
<!-- l3_pol_a_rec -->
<g id="node33" class="node">
<title>l3_pol_a_rec</title>
<polygon fill="none" stroke="black" points="2087.25,-894 1941.25,-894 1941.25,-870 2087.25,-870 2099.25,-882 2087.25,-894"/>
<text text-anchor="middle" x="2020.25" y="-878.3" font-family="Times,serif" font-size="14.00">L3_pol_a recipe 1..1</text>
</g>
<!-- l3_pol_a_rec&#45;&gt;trans_pol_a_l3_l4 -->
<g id="edge35" class="edge">
<title>l3_pol_a_rec&#45;&gt;trans_pol_a_l3_l4</title>
<path fill="none" stroke="black" d="M2099.5,-872.42C2099.5,-872.42 2254.81,-872.42 2254.81,-872.42"/>
<polygon fill="black" stroke="black" points="2254.81,-875.92 2264.81,-872.42 2254.81,-868.92 2254.81,-875.92"/>
</g>
<!-- l3_pol_a_ast -->
<g id="node34" class="node">
<title>l3_pol_a_ast</title>
<polygon fill="none" stroke="black" points="2106.75,-840 1921.75,-840 1921.75,-816 2106.75,-816 2118.75,-828 2106.75,-840"/>
<text text-anchor="middle" x="2020.25" y="-824.3" font-family="Times,serif" font-size="14.00">L3_pol_a astrometric 1..1</text>
</g>
<!-- l3_pol_a_ast&#45;&gt;trans_pol_a_l3_l4 -->
<g id="edge36" class="edge">
<title>l3_pol_a_ast&#45;&gt;trans_pol_a_l3_l4</title>
<path fill="none" stroke="black" d="M2119.16,-828C2119.16,-828 2212.82,-828 2212.82,-828"/>
<polygon fill="black" stroke="black" points="2212.82,-831.5 2222.82,-828 2212.82,-824.5 2212.82,-831.5"/>
</g>
<!-- l3_pol_a_ndf -->
<g id="node35" class="node">
<title>l3_pol_a_ndf</title>
<polygon fill="none" stroke="black" points="2099.25,-786 1929.25,-786 1929.25,-762 2099.25,-762 2111.25,-774 2099.25,-786"/>
<text text-anchor="middle" x="2020.25" y="-770.3" font-family="Times,serif" font-size="14.00">L3_pol_a ND Filter 1..1</text>
</g>
<!-- l3_pol_a_ndf&#45;&gt;trans_pol_a_l3_l4 -->
<g id="edge37" class="edge">
<title>l3_pol_a_ndf&#45;&gt;trans_pol_a_l3_l4</title>
<path fill="none" stroke="black" d="M2111.66,-774C2111.66,-774 2199.5,-774 2199.5,-774"/>
<polygon fill="black" stroke="black" points="2199.5,-777.5 2209.5,-774 2199.5,-770.5 2199.5,-777.5"/>
</g>
<!-- l3_pol_a_mueller -->
<g id="node36" class="node">
<title>l3_pol_a_mueller</title>
<polygon fill="none" stroke="black" points="2118.75,-732 1909.75,-732 1909.75,-708 2118.75,-708 2130.75,-720 2118.75,-732"/>
<text text-anchor="middle" x="2020.25" y="-716.3" font-family="Times,serif" font-size="14.00">L3_pol_a mueller matrix 1..1</text>
</g>
<!-- l3_pol_a_mueller&#45;&gt;trans_pol_a_l3_l4 -->
<g id="edge38" class="edge">
<title>l3_pol_a_mueller&#45;&gt;trans_pol_a_l3_l4</title>
<path fill="none" stroke="black" d="M2131.1,-720C2131.1,-720 2212.99,-720 2212.99,-720"/>
<polygon fill="black" stroke="black" points="2212.99,-723.5 2222.99,-720 2212.99,-716.5 2212.99,-723.5"/>
</g>
<!-- l4_pol_a_prod&#45;&gt;trans_pol_a_l4_tda -->
<g id="edge42" class="edge">
<title>l4_pol_a_prod&#45;&gt;trans_pol_a_l4_tda</title>
<path fill="none" stroke="black" stroke-dasharray="5,2" d="M2754.3,-855C2754.3,-855 2914.35,-855 2914.35,-855"/>
<polygon fill="black" stroke="black" points="2914.35,-858.5 2924.35,-855 2914.35,-851.5 2914.35,-858.5"/>
</g>
<!-- l4_pol_a_man&#45;&gt;trans_pol_a_l4_tda -->
<g id="edge43" class="edge">
<title>l4_pol_a_man&#45;&gt;trans_pol_a_l4_tda</title>
<path fill="none" stroke="black" d="M2787.44,-758.04C2787.44,-780.39 2787.44,-828.87 2787.44,-828.87 2787.44,-828.87 2953.67,-828.87 2953.67,-828.87"/>
<polygon fill="black" stroke="black" points="2953.67,-832.37 2963.67,-828.87 2953.67,-825.37 2953.67,-832.37"/>
</g>
<!-- l4_pol_a_odir -->
<g id="node41" class="node">
<title>l4_pol_a_odir</title>
<ellipse fill="none" stroke="black" cx="2665.65" cy="-1071" rx="128.88" ry="18"/>
<text text-anchor="middle" x="2665.65" y="-1067.3" font-family="Times,serif" font-size="14.00">L4_pol_a output path 1..1</text>
</g>
<!-- l4_pol_a_odir&#45;&gt;trans_pol_a_l4_tda -->
<g id="edge44" class="edge">
<title>l4_pol_a_odir&#45;&gt;trans_pol_a_l4_tda</title>
<path fill="none" stroke="black" d="M2770.44,-1060.3C2770.44,-1052.44 2770.44,-1043.13 2770.44,-1043.13 2770.44,-1043.13 2953.68,-1043.13 2953.68,-1043.13"/>
<polygon fill="black" stroke="black" points="2953.68,-1046.63 2963.68,-1043.13 2953.68,-1039.63 2953.68,-1046.63"/>
</g>
<!-- l4_pol_a_rec -->
<g id="node42" class="node">
<title>l4_pol_a_rec</title>
<polygon fill="none" stroke="black" points="2732.65,-1029 2586.65,-1029 2586.65,-1005 2732.65,-1005 2744.65,-1017 2732.65,-1029"/>
<text text-anchor="middle" x="2665.65" y="-1013.3" font-family="Times,serif" font-size="14.00">L4_pol_a recipe 1..1</text>
</g>
<!-- l4_pol_a_rec&#45;&gt;trans_pol_a_l4_tda -->
<g id="edge45" class="edge">
<title>l4_pol_a_rec&#45;&gt;trans_pol_a_l4_tda</title>
<path fill="none" stroke="black" d="M2744.69,-1017C2744.69,-1017 2914.25,-1017 2914.25,-1017"/>
<polygon fill="black" stroke="black" points="2914.25,-1020.5 2924.25,-1017 2914.25,-1013.5 2914.25,-1020.5"/>
</g>
<!-- l4_pol_a_ctcal -->
<g id="node43" class="node">
<title>l4_pol_a_ctcal</title>
<polygon fill="none" stroke="black" points="2813.15,-975 2506.15,-975 2506.15,-951 2813.15,-951 2825.15,-963 2813.15,-975"/>
<text text-anchor="middle" x="2665.65" y="-959.3" font-family="Times,serif" font-size="14.00">L4_pol_a core throughput calibrations 1..1</text>
</g>
<!-- l4_pol_a_ctcal&#45;&gt;trans_pol_a_l4_tda -->
<g id="edge46" class="edge">
<title>l4_pol_a_ctcal&#45;&gt;trans_pol_a_l4_tda</title>
<path fill="none" stroke="black" d="M2825.56,-963C2825.56,-963 2884.13,-963 2884.13,-963"/>
<polygon fill="black" stroke="black" points="2884.13,-966.5 2894.13,-963 2884.13,-959.5 2884.13,-966.5"/>
</g>
<!-- l4_pol_a_afcal -->
<g id="node44" class="node">
<title>l4_pol_a_afcal</title>
<polygon fill="none" stroke="black" points="2843.15,-921 2476.15,-921 2476.15,-897 2843.15,-897 2855.15,-909 2843.15,-921"/>
<text text-anchor="middle" x="2665.65" y="-905.3" font-family="Times,serif" font-size="14.00">L4_pol_a polarimetric absolute flux calibration 1..1</text>
</g>
<!-- l4_pol_a_afcal&#45;&gt;trans_pol_a_l4_tda -->
<g id="edge47" class="edge">
<title>l4_pol_a_afcal&#45;&gt;trans_pol_a_l4_tda</title>
<path fill="none" stroke="black" d="M2855.46,-909C2855.46,-909 2884.1,-909 2884.1,-909"/>
<polygon fill="black" stroke="black" points="2884.1,-912.5 2894.1,-909 2884.1,-905.5 2884.1,-912.5"/>
</g>
<!-- tda_pol_a_man -->
<g id="node45" class="node">
<title>tda_pol_a_man</title>
<ellipse fill="none" stroke="black" cx="161.19" cy="-288" rx="161.37" ry="18"/>
<text text-anchor="middle" x="161.19" y="-284.3" font-family="Times,serif" font-size="14.00">TDA_pol_a product manifest 1..1</text>
</g>
</g>
</svg>
