<?xml version="1.0" encoding="UTF-8" standalone="no"?>
<!DOCTYPE svg PUBLIC "-//W3C//DTD SVG 1.1//EN"
 "http://www.w3.org/Graphics/SVG/1.1/DTD/svg11.dtd">
<!-- Generated by graphviz version 2.43.0 (0)
 -->
<!-- Title: PolarimetryPhotonCount Pages: 1 -->
<svg width="3593pt" height="1043pt"
 viewBox="0.00 0.00 3592.91 1043.00" xmlns="http://www.w3.org/2000/svg" xmlns:xlink="http://www.w3.org/1999/xlink">
<g id="graph0" class="graph" transform="scale(1 1) rotate(0) translate(4 1039)">
<title>PolarimetryPhotonCount</title>
<polygon fill="white" stroke="transparent" points="-4,4 -4,-1039 3588.91,-1039 3588.91,4 -4,4"/>
<!-- trans_pol_pc_l1_l2a -->
<g id="node1" class="node">
<title>trans_pol_pc_l1_l2a</title>
<ellipse fill="none" stroke="black" cx="490.99" cy="-126" rx="120.83" ry="120.83"/>
<text text-anchor="middle" x="490.99" y="-129.8" font-family="Times,serif" font-size="14.00">pol_pc Transmutation</text>
<text text-anchor="middle" x="490.99" y="-114.8" font-family="Times,serif" font-size="14.00">L1 to L2a</text>
</g>
<!-- l2a_pol_pc_prod -->
<g id="node11" class="node">
<title>l2a_pol_pc_prod</title>
<polygon fill="none" stroke="black" points="909.34,-225 715.34,-225 715.34,-189 909.34,-189 909.34,-225"/>
<text text-anchor="middle" x="812.34" y="-203.3" font-family="Times,serif" font-size="14.00">L2a_pol_pc products 1..b</text>
</g>
<!-- trans_pol_pc_l1_l2a&#45;&gt;l2a_pol_pc_prod -->
<g id="edge6" class="edge">
<title>trans_pol_pc_l1_l2a&#45;&gt;l2a_pol_pc_prod</title>
<path fill="none" stroke="black" stroke-dasharray="5,2" d="M580.93,-207C580.93,-207 705.1,-207 705.1,-207"/>
<polygon fill="black" stroke="black" points="705.1,-210.5 715.1,-207 705.1,-203.5 705.1,-210.5"/>
</g>
<!-- l2a_pol_pc_man -->
<g id="node12" class="node">
<title>l2a_pol_pc_man</title>
<ellipse fill="none" stroke="black" cx="812.34" cy="-153" rx="164.37" ry="18"/>
<text text-anchor="middle" x="812.34" y="-149.3" font-family="Times,serif" font-size="14.00">L2a_pol_pc product manifest 1..1</text>
</g>
<!-- trans_pol_pc_l1_l2a&#45;&gt;l2a_pol_pc_man -->
<g id="edge7" class="edge">
<title>trans_pol_pc_l1_l2a&#45;&gt;l2a_pol_pc_man</title>
<path fill="none" stroke="black" d="M609.28,-153C609.28,-153 637.63,-153 637.63,-153"/>
<polygon fill="black" stroke="black" points="637.63,-156.5 647.63,-153 637.63,-149.5 637.63,-156.5"/>
</g>
<!-- l2a_pol_pc_log -->
<g id="node21" class="node">
<title>l2a_pol_pc_log</title>
<ellipse fill="none" stroke="black" cx="812.34" cy="-99" rx="98.58" ry="18"/>
<text text-anchor="middle" x="812.34" y="-95.3" font-family="Times,serif" font-size="14.00">L2a log_pol_pc 1..1</text>
</g>
<!-- trans_pol_pc_l1_l2a&#45;&gt;l2a_pol_pc_log -->
<g id="edge8" class="edge">
<title>trans_pol_pc_l1_l2a&#45;&gt;l2a_pol_pc_log</title>
<path fill="none" stroke="black" stroke-dasharray="5,2" d="M609.28,-99C609.28,-99 703.53,-99 703.53,-99"/>
<polygon fill="black" stroke="black" points="703.53,-102.5 713.53,-99 703.53,-95.5 703.53,-102.5"/>
</g>
<!-- l2a_pol_pc_src -->
<g id="node46" class="node">
<title>l2a_pol_pc_src</title>
<ellipse fill="none" stroke="black" cx="812.34" cy="-45" rx="159.47" ry="18"/>
<text text-anchor="middle" x="812.34" y="-41.3" font-family="Times,serif" font-size="14.00">L2a_pol_pc source manifest 1..1</text>
</g>
<!-- trans_pol_pc_l1_l2a&#45;&gt;l2a_pol_pc_src -->
<g id="edge48" class="edge">
<title>trans_pol_pc_l1_l2a&#45;&gt;l2a_pol_pc_src</title>
<path fill="none" stroke="black" d="M580.93,-45C580.93,-45 642.9,-45 642.9,-45"/>
<polygon fill="black" stroke="black" points="642.9,-48.5 652.9,-45 642.9,-41.5 642.9,-48.5"/>
</g>
<!-- trans_pol_pc_l2a_l2b -->
<g id="node2" class="node">
<title>trans_pol_pc_l2a_l2b</title>
<ellipse fill="none" stroke="black" cx="1133.69" cy="-396" rx="120.83" ry="120.83"/>
<text text-anchor="middle" x="1133.69" y="-399.8" font-family="Times,serif" font-size="14.00">pol_pc Transmutation</text>
<text text-anchor="middle" x="1133.69" y="-384.8" font-family="Times,serif" font-size="14.00">L2a to L2b</text>
</g>
<!-- l2b_pol_pc_prod -->
<g id="node22" class="node">
<title>l2b_pol_pc_prod</title>
<polygon fill="none" stroke="black" points="1552.69,-495 1358.69,-495 1358.69,-459 1552.69,-459 1552.69,-495"/>
<text text-anchor="middle" x="1455.69" y="-473.3" font-family="Times,serif" font-size="14.00">L2b_pol_pc products 1..1</text>
</g>
<!-- trans_pol_pc_l2a_l2b&#45;&gt;l2b_pol_pc_prod -->
<g id="edge18" class="edge">
<title>trans_pol_pc_l2a_l2b&#45;&gt;l2b_pol_pc_prod</title>
<path fill="none" stroke="black" stroke-dasharray="5,2" d="M1223.81,-477C1223.81,-477 1348.54,-477 1348.54,-477"/>
<polygon fill="black" stroke="black" points="1348.54,-480.5 1358.54,-477 1348.54,-473.5 1348.54,-480.5"/>
</g>
<!-- l2b_pol_pc_man -->
<g id="node23" class="node">
<title>l2b_pol_pc_man</title>
<ellipse fill="none" stroke="black" cx="1455.69" cy="-423" rx="165.17" ry="18"/>
<text text-anchor="middle" x="1455.69" y="-419.3" font-family="Times,serif" font-size="14.00">L2b_pol_pc product manifest 1..1</text>
</g>
<!-- trans_pol_pc_l2a_l2b&#45;&gt;l2b_pol_pc_man -->
<g id="edge19" class="edge">
<title>trans_pol_pc_l2a_l2b&#45;&gt;l2b_pol_pc_man</title>
<path fill="none" stroke="black" d="M1251.76,-423C1251.76,-423 1280.52,-423 1280.52,-423"/>
<polygon fill="black" stroke="black" points="1280.52,-426.5 1290.52,-423 1280.52,-419.5 1280.52,-426.5"/>
</g>
<!-- l2b_pol_pc_log -->
<g id="node29" class="node">
<title>l2b_pol_pc_log</title>
<ellipse fill="none" stroke="black" cx="1455.69" cy="-369" rx="99.38" ry="18"/>
<text text-anchor="middle" x="1455.69" y="-365.3" font-family="Times,serif" font-size="14.00">L2b_pol_pc log 1..1</text>
</g>
<!-- trans_pol_pc_l2a_l2b&#45;&gt;l2b_pol_pc_log -->
<g id="edge20" class="edge">
<title>trans_pol_pc_l2a_l2b&#45;&gt;l2b_pol_pc_log</title>
<path fill="none" stroke="black" stroke-dasharray="5,2" d="M1251.76,-369C1251.76,-369 1346.15,-369 1346.15,-369"/>
<polygon fill="black" stroke="black" points="1346.15,-372.5 1356.15,-369 1346.15,-365.5 1346.15,-372.5"/>
</g>
<!-- l2b_pol_pc_src -->
<g id="node47" class="node">
<title>l2b_pol_pc_src</title>
<ellipse fill="none" stroke="black" cx="1455.69" cy="-315" rx="159.47" ry="18"/>
<text text-anchor="middle" x="1455.69" y="-311.3" font-family="Times,serif" font-size="14.00">L2b_pol_pc source manifest 1..1</text>
</g>
<!-- trans_pol_pc_l2a_l2b&#45;&gt;l2b_pol_pc_src -->
<g id="edge49" class="edge">
<title>trans_pol_pc_l2a_l2b&#45;&gt;l2b_pol_pc_src</title>
<path fill="none" stroke="black" d="M1223.81,-315C1223.81,-315 1286.24,-315 1286.24,-315"/>
<polygon fill="black" stroke="black" points="1286.24,-318.5 1296.24,-315 1286.24,-311.5 1286.24,-318.5"/>
</g>
<!-- trans_pol_pc_l2b_l3 -->
<g id="node3" class="node">
<title>trans_pol_pc_l2b_l3</title>
<ellipse fill="none" stroke="black" cx="1777.69" cy="-585" rx="120.83" ry="120.83"/>
<text text-anchor="middle" x="1777.69" y="-588.8" font-family="Times,serif" font-size="14.00">pol_pc Transmutation</text>
<text text-anchor="middle" x="1777.69" y="-573.8" font-family="Times,serif" font-size="14.00">L2b to L3</text>
</g>
<!-- l3_pol_pc_prod -->
<g id="node30" class="node">
<title>l3_pol_pc_prod</title>
<polygon fill="none" stroke="black" points="2186.34,-684 2001.34,-684 2001.34,-648 2186.34,-648 2186.34,-684"/>
<text text-anchor="middle" x="2093.84" y="-662.3" font-family="Times,serif" font-size="14.00">L3_pol_pc products 1..1</text>
</g>
<!-- trans_pol_pc_l2b_l3&#45;&gt;l3_pol_pc_prod -->
<g id="edge29" class="edge">
<title>trans_pol_pc_l2b_l3&#45;&gt;l3_pol_pc_prod</title>
<path fill="none" stroke="black" stroke-dasharray="5,2" d="M1867.86,-666C1867.86,-666 1991.07,-666 1991.07,-666"/>
<polygon fill="black" stroke="black" points="1991.07,-669.5 2001.07,-666 1991.07,-662.5 1991.07,-669.5"/>
</g>
<!-- l3_pol_pc_man -->
<g id="node32" class="node">
<title>l3_pol_pc_man</title>
<ellipse fill="none" stroke="black" cx="2093.84" cy="-612" rx="159.47" ry="18"/>
<text text-anchor="middle" x="2093.84" y="-608.3" font-family="Times,serif" font-size="14.00">L3_pol_pc product manifest 1..1</text>
</g>
<!-- trans_pol_pc_l2b_l3&#45;&gt;l3_pol_pc_man -->
<g id="edge30" class="edge">
<title>trans_pol_pc_l2b_l3&#45;&gt;l3_pol_pc_man</title>
<path fill="none" stroke="black" d="M1895.86,-612C1895.86,-612 1924.48,-612 1924.48,-612"/>
<polygon fill="black" stroke="black" points="1924.48,-615.5 1934.48,-612 1924.48,-608.5 1924.48,-615.5"/>
</g>
<!-- l3_pol_pc_log -->
<g id="node35" class="node">
<title>l3_pol_pc_log</title>
<ellipse fill="none" stroke="black" cx="2093.84" cy="-558" rx="93.68" ry="18"/>
<text text-anchor="middle" x="2093.84" y="-554.3" font-family="Times,serif" font-size="14.00">L3_pol_pc log 1..1</text>
</g>
<!-- trans_pol_pc_l2b_l3&#45;&gt;l3_pol_pc_log -->
<g id="edge31" class="edge">
<title>trans_pol_pc_l2b_l3&#45;&gt;l3_pol_pc_log</title>
<path fill="none" stroke="black" stroke-dasharray="5,2" d="M1895.86,-558C1895.86,-558 1989.97,-558 1989.97,-558"/>
<polygon fill="black" stroke="black" points="1989.97,-561.5 1999.97,-558 1989.97,-554.5 1989.97,-561.5"/>
</g>
<!-- l3_pol_pc_src -->
<g id="node48" class="node">
<title>l3_pol_pc_src</title>
<ellipse fill="none" stroke="black" cx="2093.84" cy="-504" rx="153.27" ry="18"/>
<text text-anchor="middle" x="2093.84" y="-500.3" font-family="Times,serif" font-size="14.00">L3_pol_pc source manifest 1..1</text>
</g>
<!-- trans_pol_pc_l2b_l3&#45;&gt;l3_pol_pc_src -->
<g id="edge50" class="edge">
<title>trans_pol_pc_l2b_l3&#45;&gt;l3_pol_pc_src</title>
<path fill="none" stroke="black" d="M1867.86,-504C1867.86,-504 1930.2,-504 1930.2,-504"/>
<polygon fill="black" stroke="black" points="1930.2,-507.5 1940.2,-504 1930.2,-500.5 1930.2,-507.5"/>
</g>
<!-- trans_pol_pc_l3_l4 -->
<g id="node4" class="node">
<title>trans_pol_pc_l3_l4</title>
<ellipse fill="none" stroke="black" cx="2409.99" cy="-720" rx="120.83" ry="120.83"/>
<text text-anchor="middle" x="2409.99" y="-723.8" font-family="Times,serif" font-size="14.00">pol_pc Transmutation</text>
<text text-anchor="middle" x="2409.99" y="-708.8" font-family="Times,serif" font-size="14.00">L3 to L4</text>
</g>
<!-- l4_pol_pc_prod -->
<g id="node36" class="node">
<title>l4_pol_pc_prod</title>
<polygon fill="none" stroke="black" points="2852.91,-819 2667.91,-819 2667.91,-783 2852.91,-783 2852.91,-819"/>
<text text-anchor="middle" x="2760.41" y="-797.3" font-family="Times,serif" font-size="14.00">L4_pol_pc products 1..1</text>
</g>
<!-- trans_pol_pc_l3_l4&#45;&gt;l4_pol_pc_prod -->
<g id="edge37" class="edge">
<title>trans_pol_pc_l3_l4&#45;&gt;l4_pol_pc_prod</title>
<path fill="none" stroke="black" stroke-dasharray="5,2" d="M2499.78,-801C2499.78,-801 2657.8,-801 2657.8,-801"/>
<polygon fill="black" stroke="black" points="2657.8,-804.5 2667.8,-801 2657.8,-797.5 2657.8,-804.5"/>
</g>
<!-- l4_pol_pc_log -->
<g id="node37" class="node">
<title>l4_pol_pc_log</title>
<ellipse fill="none" stroke="black" cx="2760.41" cy="-747" rx="93.68" ry="18"/>
<text text-anchor="middle" x="2760.41" y="-743.3" font-family="Times,serif" font-size="14.00">L4_pol_pc log 1..1</text>
</g>
<!-- trans_pol_pc_l3_l4&#45;&gt;l4_pol_pc_log -->
<g id="edge38" class="edge">
<title>trans_pol_pc_l3_l4&#45;&gt;l4_pol_pc_log</title>
<path fill="none" stroke="black" stroke-dasharray="5,2" d="M2528.14,-747C2528.14,-747 2656.55,-747 2656.55,-747"/>
<polygon fill="black" stroke="black" points="2656.55,-750.5 2666.55,-747 2656.55,-743.5 2656.55,-750.5"/>
</g>
<!-- l4_pol_pc_man -->
<g id="node38" class="node">
<title>l4_pol_pc_man</title>
<ellipse fill="none" stroke="black" cx="2760.41" cy="-693" rx="159.47" ry="18"/>
<text text-anchor="middle" x="2760.41" y="-689.3" font-family="Times,serif" font-size="14.00">L4_pol_pc product manifest 1..1</text>
</g>
<!-- trans_pol_pc_l3_l4&#45;&gt;l4_pol_pc_man -->
<g id="edge39" class="edge">
<title>trans_pol_pc_l3_l4&#45;&gt;l4_pol_pc_man</title>
<path fill="none" stroke="black" d="M2528.14,-693C2528.14,-693 2591.11,-693 2591.11,-693"/>
<polygon fill="black" stroke="black" points="2591.11,-696.5 2601.11,-693 2591.11,-689.5 2591.11,-696.5"/>
</g>
<!-- l4_pol_pc_src -->
<g id="node49" class="node">
<title>l4_pol_pc_src</title>
<ellipse fill="none" stroke="black" cx="2760.41" cy="-639" rx="150.57" ry="18"/>
<text text-anchor="middle" x="2760.41" y="-635.3" font-family="Times,serif" font-size="14.00">L4_pol_pc sourcemanifest 1..1</text>
</g>
<!-- trans_pol_pc_l3_l4&#45;&gt;l4_pol_pc_src -->
<g id="edge51" class="edge">
<title>trans_pol_pc_l3_l4&#45;&gt;l4_pol_pc_src</title>
<path fill="none" stroke="black" d="M2499.78,-639C2499.78,-639 2599.3,-639 2599.3,-639"/>
<polygon fill="black" stroke="black" points="2599.3,-642.5 2609.3,-639 2599.3,-635.5 2599.3,-642.5"/>
</g>
<!-- trans_pol_pc_l4_tda -->
<g id="node5" class="node">
<title>trans_pol_pc_l4_tda</title>
<ellipse fill="none" stroke="black" cx="3110.82" cy="-882" rx="120.83" ry="120.83"/>
<text text-anchor="middle" x="3110.82" y="-885.8" font-family="Times,serif" font-size="14.00">pol_pc Transmutation</text>
<text text-anchor="middle" x="3110.82" y="-870.8" font-family="Times,serif" font-size="14.00">L4 to TDA</text>
</g>
<!-- tda_pol_pc_prod -->
<g id="node44" class="node">
<title>tda_pol_pc_prod</title>
<ellipse fill="none" stroke="black" cx="3426.32" cy="-936" rx="85.29" ry="18"/>
<text text-anchor="middle" x="3426.32" y="-932.3" font-family="Times,serif" font-size="14.00">tda_pol_pc_prod</text>
</g>
<!-- trans_pol_pc_l4_tda&#45;&gt;tda_pol_pc_prod -->
<g id="edge46" class="edge">
<title>trans_pol_pc_l4_tda&#45;&gt;tda_pol_pc_prod</title>
<path fill="none" stroke="black" stroke-dasharray="5,2" d="M3219.4,-936C3219.4,-936 3330.96,-936 3330.96,-936"/>
<polygon fill="black" stroke="black" points="3330.96,-939.5 3340.96,-936 3330.96,-932.5 3330.96,-939.5"/>
</g>
<!-- tda_pol_pc_log -->
<g id="node45" class="node">
<title>tda_pol_pc_log</title>
<ellipse fill="none" stroke="black" cx="3426.32" cy="-882" rx="77.99" ry="18"/>
<text text-anchor="middle" x="3426.32" y="-878.3" font-family="Times,serif" font-size="14.00">tda_pol_pc_log</text>
</g>
<!-- trans_pol_pc_l4_tda&#45;&gt;tda_pol_pc_log -->
<g id="edge47" class="edge">
<title>trans_pol_pc_l4_tda&#45;&gt;tda_pol_pc_log</title>
<path fill="none" stroke="black" stroke-dasharray="5,2" d="M3231.9,-882C3231.9,-882 3337.93,-882 3337.93,-882"/>
<polygon fill="black" stroke="black" points="3337.93,-885.5 3347.93,-882 3337.93,-878.5 3337.93,-885.5"/>
</g>
<!-- tda_pol_pc_src -->
<g id="node50" class="node">
<title>tda_pol_pc_src</title>
<ellipse fill="none" stroke="black" cx="3426.32" cy="-828" rx="158.67" ry="18"/>
<text text-anchor="middle" x="3426.32" y="-824.3" font-family="Times,serif" font-size="14.00">TDA_pol_pc sourcemanifest 1..1</text>
</g>
<!-- trans_pol_pc_l4_tda&#45;&gt;tda_pol_pc_src -->
<g id="edge52" class="edge">
<title>trans_pol_pc_l4_tda&#45;&gt;tda_pol_pc_src</title>
<path fill="none" stroke="black" d="M3219.4,-828C3219.4,-828 3257.63,-828 3257.63,-828"/>
<polygon fill="black" stroke="black" points="3257.63,-831.5 3267.63,-828 3257.63,-824.5 3257.63,-831.5"/>
</g>
<!-- l1_pol_pc_prod -->
<g id="node6" class="node">
<title>l1_pol_pc_prod</title>
<polygon fill="none" stroke="black" points="259.54,-252 74.54,-252 74.54,-216 259.54,-216 259.54,-252"/>
<text text-anchor="middle" x="167.04" y="-230.3" font-family="Times,serif" font-size="14.00">L1_pol_pc products 1..b</text>
</g>
<!-- l1_pol_pc_prod&#45;&gt;trans_pol_pc_l1_l2a -->
<g id="edge1" class="edge">
<title>l1_pol_pc_prod&#45;&gt;trans_pol_pc_l1_l2a</title>
<path fill="none" stroke="black" stroke-dasharray="5,2" d="M259.87,-231.46C259.87,-231.46 421.35,-231.46 421.35,-231.46"/>
<polygon fill="black" stroke="black" points="421.35,-234.96 431.35,-231.46 421.35,-227.96 421.35,-234.96"/>
</g>
<!-- l1_pol_pc_man -->
<g id="node7" class="node">
<title>l1_pol_pc_man</title>
<ellipse fill="none" stroke="black" cx="167.04" cy="-180" rx="159.47" ry="18"/>
<text text-anchor="middle" x="167.04" y="-176.3" font-family="Times,serif" font-size="14.00">L1_pol_pc product manifest 1..1</text>
</g>
<!-- l1_pol_pc_man&#45;&gt;trans_pol_pc_l1_l2a -->
<g id="edge2" class="edge">
<title>l1_pol_pc_man&#45;&gt;trans_pol_pc_l1_l2a</title>
<path fill="none" stroke="black" d="M326.64,-180C326.64,-180 372.74,-180 372.74,-180"/>
<polygon fill="black" stroke="black" points="372.74,-183.5 382.74,-180 372.74,-176.5 372.74,-183.5"/>
</g>
<!-- l1_pol_pc_odir -->
<g id="node8" class="node">
<title>l1_pol_pc_odir</title>
<ellipse fill="none" stroke="black" cx="167.04" cy="-126" rx="133.78" ry="18"/>
<text text-anchor="middle" x="167.04" y="-122.3" font-family="Times,serif" font-size="14.00">L1_pol_pc output path 1..1</text>
</g>
<!-- l1_pol_pc_odir&#45;&gt;trans_pol_pc_l1_l2a -->
<g id="edge3" class="edge">
<title>l1_pol_pc_odir&#45;&gt;trans_pol_pc_l1_l2a</title>
<path fill="none" stroke="black" d="M301.14,-126C301.14,-126 359.94,-126 359.94,-126"/>
<polygon fill="black" stroke="black" points="359.94,-129.5 369.94,-126 359.94,-122.5 359.94,-129.5"/>
</g>
<!-- l1_pol_pc_rec -->
<g id="node9" class="node">
<title>l1_pol_pc_rec</title>
<polygon fill="none" stroke="black" points="238.54,-84 83.54,-84 83.54,-60 238.54,-60 250.54,-72 238.54,-84"/>
<text text-anchor="middle" x="167.04" y="-68.3" font-family="Times,serif" font-size="14.00">L1_pol_pc recipe 1..1</text>
</g>
<!-- l1_pol_pc_rec&#45;&gt;trans_pol_pc_l1_l2a -->
<g id="edge4" class="edge">
<title>l1_pol_pc_rec&#45;&gt;trans_pol_pc_l1_l2a</title>
<path fill="none" stroke="black" d="M250.88,-72C250.88,-72 372.73,-72 372.73,-72"/>
<polygon fill="black" stroke="black" points="372.73,-75.5 382.73,-72 372.73,-68.5 372.73,-75.5"/>
</g>
<!-- l1_pol_pc_nllut -->
<g id="node10" class="node">
<title>l1_pol_pc_nllut</title>
<polygon fill="none" stroke="black" points="269.04,-30 53.04,-30 53.04,-6 269.04,-6 281.04,-18 269.04,-30"/>
<text text-anchor="middle" x="167.04" y="-14.3" font-family="Times,serif" font-size="14.00">L1_pol_pc non&#45;linear LUT 1..1</text>
</g>
<!-- l1_pol_pc_nllut&#45;&gt;trans_pol_pc_l1_l2a -->
<g id="edge5" class="edge">
<title>l1_pol_pc_nllut&#45;&gt;trans_pol_pc_l1_l2a</title>
<path fill="none" stroke="black" d="M281.25,-20.54C281.25,-20.54 421.79,-20.54 421.79,-20.54"/>
<polygon fill="black" stroke="black" points="421.79,-24.04 431.79,-20.54 421.79,-17.04 421.79,-24.04"/>
</g>
<!-- l2a_pol_pc_prod&#45;&gt;trans_pol_pc_l2a_l2b -->
<g id="edge9" class="edge">
<title>l2a_pol_pc_prod&#45;&gt;trans_pol_pc_l2a_l2b</title>
<path fill="none" stroke="black" stroke-dasharray="5,2" d="M909.69,-207C1004.34,-207 1133.91,-207 1133.91,-207 1133.91,-207 1133.91,-264.97 1133.91,-264.97"/>
<polygon fill="black" stroke="black" points="1130.41,-264.97 1133.91,-274.97 1137.41,-264.97 1130.41,-264.97"/>
</g>
<!-- l2a_pol_pc_man&#45;&gt;trans_pol_pc_l2a_l2b -->
<g id="edge21" class="edge">
<title>l2a_pol_pc_man&#45;&gt;trans_pol_pc_l2a_l2b</title>
<path fill="none" stroke="black" d="M969.91,-158.34C969.91,-183.03 969.91,-285 969.91,-285 969.91,-285 1075.43,-285 1075.43,-285"/>
<polygon fill="black" stroke="black" points="1075.43,-288.5 1085.43,-285 1075.43,-281.5 1075.43,-288.5"/>
</g>
<!-- l2a_pol_pc_odir -->
<g id="node13" class="node">
<title>l2a_pol_pc_odir</title>
<ellipse fill="none" stroke="black" cx="812.34" cy="-641" rx="139.98" ry="18"/>
<text text-anchor="middle" x="812.34" y="-637.3" font-family="Times,serif" font-size="14.00">L2a_pol_pc output path 1..1</text>
</g>
<!-- l2a_pol_pc_odir&#45;&gt;trans_pol_pc_l2a_l2b -->
<g id="edge10" class="edge">
<title>l2a_pol_pc_odir&#45;&gt;trans_pol_pc_l2a_l2b</title>
<path fill="none" stroke="black" d="M952,-640C1054.14,-640 1174.91,-640 1174.91,-640 1174.91,-640 1174.91,-519.78 1174.91,-519.78"/>
<polygon fill="black" stroke="black" points="1178.41,-519.78 1174.91,-509.78 1171.41,-519.78 1178.41,-519.78"/>
</g>
<!-- l2a_pol_pc_rec -->
<g id="node14" class="node">
<title>l2a_pol_pc_rec</title>
<polygon fill="none" stroke="black" points="887.84,-599 724.84,-599 724.84,-575 887.84,-575 899.84,-587 887.84,-599"/>
<text text-anchor="middle" x="812.34" y="-583.3" font-family="Times,serif" font-size="14.00">L2a_pol_pc recipe 1..1</text>
</g>
<!-- l2a_pol_pc_rec&#45;&gt;trans_pol_pc_l2a_l2b -->
<g id="edge11" class="edge">
<title>l2a_pol_pc_rec&#45;&gt;trans_pol_pc_l2a_l2b</title>
<path fill="none" stroke="black" d="M899.88,-586C982.54,-586 1093.91,-586 1093.91,-586 1093.91,-586 1093.91,-520.36 1093.91,-520.36"/>
<polygon fill="black" stroke="black" points="1097.41,-520.36 1093.91,-510.36 1090.41,-520.36 1097.41,-520.36"/>
</g>
<!-- l2a_pol_pc_cti -->
<g id="node15" class="node">
<title>l2a_pol_pc_cti</title>
<polygon fill="none" stroke="black" points="949.34,-545 663.34,-545 663.34,-521 949.34,-521 961.34,-533 949.34,-545"/>
<text text-anchor="middle" x="812.34" y="-529.3" font-family="Times,serif" font-size="14.00">L2a_pol_pc charge xfer inefficiency 1..1</text>
</g>
<!-- l2a_pol_pc_cti&#45;&gt;trans_pol_pc_l2a_l2b -->
<g id="edge12" class="edge">
<title>l2a_pol_pc_cti&#45;&gt;trans_pol_pc_l2a_l2b</title>
<path fill="none" stroke="black" d="M949.91,-514.84C949.91,-509.96 949.91,-506 949.91,-506 949.91,-506 1073.47,-506 1073.47,-506"/>
<polygon fill="black" stroke="black" points="1073.47,-509.5 1083.47,-506 1073.47,-502.5 1073.47,-509.5"/>
</g>
<!-- l2a_pol_pc_dnb -->
<g id="node16" class="node">
<title>l2a_pol_pc_dnb</title>
<polygon fill="none" stroke="black" points="930.84,-491 681.84,-491 681.84,-465 930.84,-465 942.84,-478 930.84,-491"/>
<text text-anchor="middle" x="812.34" y="-481.8" font-family="Times,serif" font-size="14.00">L2a_pol_pc CIC/Dark Current/FPN</text>
<text text-anchor="middle" x="812.34" y="-466.8" font-family="Times,serif" font-size="14.00"> or master dark 1..1</text>
</g>
<!-- l2a_pol_pc_dnb&#45;&gt;trans_pol_pc_l2a_l2b -->
<g id="edge13" class="edge">
<title>l2a_pol_pc_dnb&#45;&gt;trans_pol_pc_l2a_l2b</title>
<path fill="none" stroke="black" d="M943.04,-478C943.04,-478 1034.39,-478 1034.39,-478"/>
<polygon fill="black" stroke="black" points="1034.39,-481.5 1044.39,-478 1034.39,-474.5 1034.39,-481.5"/>
</g>
<!-- l2a_pol_pc_mbpm -->
<g id="node17" class="node">
<title>l2a_pol_pc_mbpm</title>
<polygon fill="none" stroke="black" points="943.34,-435 669.34,-435 669.34,-411 943.34,-411 955.34,-423 943.34,-435"/>
<text text-anchor="middle" x="812.34" y="-419.3" font-family="Times,serif" font-size="14.00">L2a_pol_pc master bad pixel map 1..1</text>
</g>
<!-- l2a_pol_pc_mbpm&#45;&gt;trans_pol_pc_l2a_l2b -->
<g id="edge14" class="edge">
<title>l2a_pol_pc_mbpm&#45;&gt;trans_pol_pc_l2a_l2b</title>
<path fill="none" stroke="black" d="M955.62,-423C955.62,-423 1005.7,-423 1005.7,-423"/>
<polygon fill="black" stroke="black" points="1005.7,-426.5 1015.7,-423 1005.7,-419.5 1005.7,-426.5"/>
</g>
<!-- l2a_pol_pc_emg -->
<g id="node18" class="node">
<title>l2a_pol_pc_emg</title>
<polygon fill="none" stroke="black" points="895.84,-381 716.84,-381 716.84,-357 895.84,-357 907.84,-369 895.84,-381"/>
<text text-anchor="middle" x="812.34" y="-365.3" font-family="Times,serif" font-size="14.00">L2a_pol_pc EM gain 1..1</text>
</g>
<!-- l2a_pol_pc_emg&#45;&gt;trans_pol_pc_l2a_l2b -->
<g id="edge15" class="edge">
<title>l2a_pol_pc_emg&#45;&gt;trans_pol_pc_l2a_l2b</title>
<path fill="none" stroke="black" d="M907.88,-369C907.88,-369 1005.74,-369 1005.74,-369"/>
<polygon fill="black" stroke="black" points="1005.74,-372.5 1015.74,-369 1005.74,-365.5 1005.74,-372.5"/>
</g>
<!-- l2a_pol_pc_kgain -->
<g id="node19" class="node">
<title>l2a_pol_pc_kgain</title>
<polygon fill="none" stroke="black" points="886.34,-327 726.34,-327 726.34,-303 886.34,-303 898.34,-315 886.34,-327"/>
<text text-anchor="middle" x="812.34" y="-311.3" font-family="Times,serif" font-size="14.00">L2a_pol_pc Kgain 1..1</text>
</g>
<!-- l2a_pol_pc_kgain&#45;&gt;trans_pol_pc_l2a_l2b -->
<g id="edge16" class="edge">
<title>l2a_pol_pc_kgain&#45;&gt;trans_pol_pc_l2a_l2b</title>
<path fill="none" stroke="black" d="M898.45,-315C898.45,-315 1033.68,-315 1033.68,-315"/>
<polygon fill="black" stroke="black" points="1033.68,-318.5 1043.68,-315 1033.68,-311.5 1033.68,-318.5"/>
</g>
<!-- l2a_pol_pc_polff -->
<g id="node20" class="node">
<title>l2a_pol_pc_polff</title>
<polygon fill="none" stroke="black" points="944.84,-273 667.84,-273 667.84,-249 944.84,-249 956.84,-261 944.84,-273"/>
<text text-anchor="middle" x="812.34" y="-257.3" font-family="Times,serif" font-size="14.00">L2a_pol_pc polarimetric flat fields 1..1</text>
</g>
<!-- l2a_pol_pc_polff&#45;&gt;trans_pol_pc_l2a_l2b -->
<g id="edge17" class="edge">
<title>l2a_pol_pc_polff&#45;&gt;trans_pol_pc_l2a_l2b</title>
<path fill="none" stroke="black" d="M931.91,-279.14C931.91,-285.46 931.91,-291 931.91,-291 931.91,-291 1063.69,-291 1063.69,-291"/>
<polygon fill="black" stroke="black" points="1063.69,-294.5 1073.69,-291 1063.69,-287.5 1063.69,-294.5"/>
</g>
<!-- l2b_pol_pc_prod&#45;&gt;trans_pol_pc_l2b_l3 -->
<g id="edge22" class="edge">
<title>l2b_pol_pc_prod&#45;&gt;trans_pol_pc_l2b_l3</title>
<path fill="none" stroke="black" stroke-dasharray="5,2" d="M1552.74,-484.69C1552.74,-484.69 1699.95,-484.69 1699.95,-484.69"/>
<polygon fill="black" stroke="black" points="1699.95,-488.2 1709.95,-484.69 1699.95,-481.2 1699.95,-488.2"/>
</g>
<!-- l2b_pol_pc_man&#45;&gt;trans_pol_pc_l2b_l3 -->
<g id="edge23" class="edge">
<title>l2b_pol_pc_man&#45;&gt;trans_pol_pc_l2b_l3</title>
<path fill="none" stroke="black" d="M1613.91,-428.5C1613.91,-441.76 1613.91,-474.39 1613.91,-474.39 1613.91,-474.39 1718.55,-474.39 1718.55,-474.39"/>
<polygon fill="black" stroke="black" points="1718.55,-477.89 1728.55,-474.39 1718.55,-470.89 1718.55,-477.89"/>
</g>
<!-- l2b_pol_pc_odir -->
<g id="node24" class="node">
<title>l2b_pol_pc_odir</title>
<ellipse fill="none" stroke="black" cx="1455.69" cy="-747" rx="139.98" ry="18"/>
<text text-anchor="middle" x="1455.69" y="-743.3" font-family="Times,serif" font-size="14.00">L2b_pol_pc output path 1..1</text>
</g>
<!-- l2b_pol_pc_odir&#45;&gt;trans_pol_pc_l2b_l3 -->
<g id="edge24" class="edge">
<title>l2b_pol_pc_odir&#45;&gt;trans_pol_pc_l2b_l3</title>
<path fill="none" stroke="black" d="M1569.91,-736.6C1569.91,-721.58 1569.91,-695.61 1569.91,-695.61 1569.91,-695.61 1718.71,-695.61 1718.71,-695.61"/>
<polygon fill="black" stroke="black" points="1718.71,-699.11 1728.71,-695.61 1718.71,-692.11 1718.71,-699.11"/>
</g>
<!-- l2b_pol_pc_rec -->
<g id="node25" class="node">
<title>l2b_pol_pc_rec</title>
<polygon fill="none" stroke="black" points="1531.69,-705 1367.69,-705 1367.69,-681 1531.69,-681 1543.69,-693 1531.69,-705"/>
<text text-anchor="middle" x="1455.69" y="-689.3" font-family="Times,serif" font-size="14.00">L2b_pol_pc recipe 1..1</text>
</g>
<!-- l2b_pol_pc_rec&#45;&gt;trans_pol_pc_l2b_l3 -->
<g id="edge25" class="edge">
<title>l2b_pol_pc_rec&#45;&gt;trans_pol_pc_l2b_l3</title>
<path fill="none" stroke="black" d="M1544.1,-685.31C1544.1,-685.31 1700.15,-685.31 1700.15,-685.31"/>
<polygon fill="black" stroke="black" points="1700.15,-688.81 1710.15,-685.31 1700.15,-681.81 1700.15,-688.81"/>
</g>
<!-- l2b_pol_pc_excicrf -->
<g id="node26" class="node">
<title>l2b_pol_pc_excicrf</title>
<polygon fill="none" stroke="black" points="1587.19,-651 1312.19,-651 1312.19,-627 1587.19,-627 1599.19,-639 1587.19,-651"/>
<text text-anchor="middle" x="1455.69" y="-635.3" font-family="Times,serif" font-size="14.00">L2b_pol_pc EXCAM ICRF location 1..1</text>
</g>
<!-- l2b_pol_pc_excicrf&#45;&gt;trans_pol_pc_l2b_l3 -->
<g id="edge26" class="edge">
<title>l2b_pol_pc_excicrf&#45;&gt;trans_pol_pc_l2b_l3</title>
<path fill="none" stroke="black" d="M1599.27,-639C1599.27,-639 1659.17,-639 1659.17,-639"/>
<polygon fill="black" stroke="black" points="1659.17,-642.5 1669.17,-639 1659.17,-635.5 1659.17,-642.5"/>
</g>
<!-- l2b_pol_pc_excfovps -->
<g id="node27" class="node">
<title>l2b_pol_pc_excfovps</title>
<polygon fill="none" stroke="black" points="1594.19,-597 1305.19,-597 1305.19,-573 1594.19,-573 1606.19,-585 1594.19,-597"/>
<text text-anchor="middle" x="1455.69" y="-581.3" font-family="Times,serif" font-size="14.00">L2b_pol_pc EXCAM FOV pixel scale 1..1</text>
</g>
<!-- l2b_pol_pc_excfovps&#45;&gt;trans_pol_pc_l2b_l3 -->
<g id="edge27" class="edge">
<title>l2b_pol_pc_excfovps&#45;&gt;trans_pol_pc_l2b_l3</title>
<path fill="none" stroke="black" d="M1606.32,-585C1606.32,-585 1646.61,-585 1646.61,-585"/>
<polygon fill="black" stroke="black" points="1646.61,-588.5 1656.61,-585 1646.61,-581.5 1646.61,-588.5"/>
</g>
<!-- l2b_pol_pc_cfamfo -->
<g id="node28" class="node">
<title>l2b_pol_pc_cfamfo</title>
<polygon fill="none" stroke="black" points="1576.19,-543 1323.19,-543 1323.19,-519 1576.19,-519 1588.19,-531 1576.19,-543"/>
<text text-anchor="middle" x="1455.69" y="-527.3" font-family="Times,serif" font-size="14.00">L2b_pol_pc CFAM filter offsets 1..1</text>
</g>
<!-- l2b_pol_pc_cfamfo&#45;&gt;trans_pol_pc_l2b_l3 -->
<g id="edge28" class="edge">
<title>l2b_pol_pc_cfamfo&#45;&gt;trans_pol_pc_l2b_l3</title>
<path fill="none" stroke="black" d="M1588.52,-531C1588.52,-531 1659.45,-531 1659.45,-531"/>
<polygon fill="black" stroke="black" points="1659.45,-534.5 1669.45,-531 1659.45,-527.5 1659.45,-534.5"/>
</g>
<!-- l3_pol_pc_prod&#45;&gt;trans_pol_pc_l3_l4 -->
<g id="edge32" class="edge">
<title>l3_pol_pc_prod&#45;&gt;trans_pol_pc_l3_l4</title>
<path fill="none" stroke="black" stroke-dasharray="5,2" d="M2186.56,-666C2186.56,-666 2291.66,-666 2291.66,-666"/>
<polygon fill="black" stroke="black" points="2291.66,-669.5 2301.66,-666 2291.66,-662.5 2291.66,-669.5"/>
</g>
<!-- l3_pol_pc_odir -->
<g id="node31" class="node">
<title>l3_pol_pc_odir</title>
<ellipse fill="none" stroke="black" cx="2093.84" cy="-828" rx="133.78" ry="18"/>
<text text-anchor="middle" x="2093.84" y="-824.3" font-family="Times,serif" font-size="14.00">L3_pol_pc output path 1..1</text>
</g>
<!-- l3_pol_pc_odir&#45;&gt;trans_pol_pc_l3_l4 -->
<g id="edge34" class="edge">
<title>l3_pol_pc_odir&#45;&gt;trans_pol_pc_l3_l4</title>
<path fill="none" stroke="black" d="M2226.54,-825.46C2226.54,-825.46 2340.71,-825.46 2340.71,-825.46"/>
<polygon fill="black" stroke="black" points="2340.71,-828.96 2350.71,-825.46 2340.71,-821.96 2340.71,-828.96"/>
</g>
<!-- l3_pol_pc_man&#45;&gt;trans_pol_pc_l3_l4 -->
<g id="edge33" class="edge">
<title>l3_pol_pc_man&#45;&gt;trans_pol_pc_l3_l4</title>
<path fill="none" stroke="black" d="M2251.91,-614.54C2251.91,-614.54 2340.52,-614.54 2340.52,-614.54"/>
<polygon fill="black" stroke="black" points="2340.52,-618.04 2350.52,-614.54 2340.52,-611.04 2340.52,-618.04"/>
</g>
<!-- l3_pol_pc_rec -->
<g id="node33" class="node">
<title>l3_pol_pc_rec</title>
<polygon fill="none" stroke="black" points="2165.34,-786 2010.34,-786 2010.34,-762 2165.34,-762 2177.34,-774 2165.34,-786"/>
<text text-anchor="middle" x="2093.84" y="-770.3" font-family="Times,serif" font-size="14.00">L3_pol_pc recipe 1..1</text>
</g>
<!-- l3_pol_pc_rec&#45;&gt;trans_pol_pc_l3_l4 -->
<g id="edge35" class="edge">
<title>l3_pol_pc_rec&#45;&gt;trans_pol_pc_l3_l4</title>
<path fill="none" stroke="black" d="M2177.73,-774C2177.73,-774 2291.53,-774 2291.53,-774"/>
<polygon fill="black" stroke="black" points="2291.53,-777.5 2301.53,-774 2291.53,-770.5 2291.53,-777.5"/>
</g>
<!-- l3_pol_pc_mueller -->
<g id="node34" class="node">
<title>l3_pol_pc_mueller</title>
<polygon fill="none" stroke="black" points="2196.34,-732 1979.34,-732 1979.34,-708 2196.34,-708 2208.34,-720 2196.34,-732"/>
<text text-anchor="middle" x="2093.84" y="-716.3" font-family="Times,serif" font-size="14.00">L3_pol_pc mueller matrix 1..1</text>
</g>
<!-- l3_pol_pc_mueller&#45;&gt;trans_pol_pc_l3_l4 -->
<g id="edge36" class="edge">
<title>l3_pol_pc_mueller&#45;&gt;trans_pol_pc_l3_l4</title>
<path fill="none" stroke="black" d="M2208.42,-720C2208.42,-720 2278.87,-720 2278.87,-720"/>
<polygon fill="black" stroke="black" points="2278.87,-723.5 2288.87,-720 2278.87,-716.5 2278.87,-723.5"/>
</g>
<!-- l4_pol_pc_prod&#45;&gt;trans_pol_pc_l4_tda -->
<g id="edge40" class="edge">
<title>l4_pol_pc_prod&#45;&gt;trans_pol_pc_l4_tda</title>
<path fill="none" stroke="black" stroke-dasharray="5,2" d="M2852.93,-801C2852.93,-801 3010.81,-801 3010.81,-801"/>
<polygon fill="black" stroke="black" points="3010.81,-804.5 3020.81,-801 3010.81,-797.5 3010.81,-804.5"/>
</g>
<!-- l4_pol_pc_man&#45;&gt;trans_pol_pc_l4_tda -->
<g id="edge41" class="edge">
<title>l4_pol_pc_man&#45;&gt;trans_pol_pc_l4_tda</title>
<path fill="none" stroke="black" d="M2886.91,-704.26C2886.91,-726.52 2886.91,-774 2886.91,-774 2886.91,-774 3046.33,-774 3046.33,-774"/>
<polygon fill="black" stroke="black" points="3046.33,-777.5 3056.33,-774 3046.33,-770.5 3046.33,-777.5"/>
</g>
<!-- l4_pol_pc_odir -->
<g id="node39" class="node">
<title>l4_pol_pc_odir</title>
<ellipse fill="none" stroke="black" cx="2760.41" cy="-1017" rx="133.78" ry="18"/>
<text text-anchor="middle" x="2760.41" y="-1013.3" font-family="Times,serif" font-size="14.00">L4_pol_pc output path 1..1</text>
</g>
<!-- l4_pol_pc_odir&#45;&gt;trans_pol_pc_l4_tda -->
<g id="edge42" class="edge">
<title>l4_pol_pc_odir&#45;&gt;trans_pol_pc_l4_tda</title>
<path fill="none" stroke="black" d="M2869.91,-1006.64C2869.91,-999.02 2869.91,-990 2869.91,-990 2869.91,-990 3046.15,-990 3046.15,-990"/>
<polygon fill="black" stroke="black" points="3046.15,-993.5 3056.15,-990 3046.15,-986.5 3046.15,-993.5"/>
</g>
<!-- l4_pol_pc_rec -->
<g id="node40" class="node">
<title>l4_pol_pc_rec</title>
<polygon fill="none" stroke="black" points="2831.91,-975 2676.91,-975 2676.91,-951 2831.91,-951 2843.91,-963 2831.91,-975"/>
<text text-anchor="middle" x="2760.41" y="-959.3" font-family="Times,serif" font-size="14.00">L4_pol_pc recipe 1..1</text>
</g>
<!-- l4_pol_pc_rec&#45;&gt;trans_pol_pc_l4_tda -->
<g id="edge43" class="edge">
<title>l4_pol_pc_rec&#45;&gt;trans_pol_pc_l4_tda</title>
<path fill="none" stroke="black" d="M2844.34,-963C2844.34,-963 3010.83,-963 3010.83,-963"/>
<polygon fill="black" stroke="black" points="3010.83,-966.5 3020.83,-963 3010.83,-959.5 3010.83,-966.5"/>
</g>
<!-- l4_pol_pc_ctcal -->
<g id="node41" class="node">
<title>l4_pol_pc_ctcal</title>
<polygon fill="none" stroke="black" points="2911.91,-921 2596.91,-921 2596.91,-897 2911.91,-897 2923.91,-909 2911.91,-921"/>
<text text-anchor="middle" x="2760.41" y="-905.3" font-family="Times,serif" font-size="14.00">L4_pol_pc core throughput calibrations 1..1</text>
</g>
<!-- l4_pol_pc_ctcal&#45;&gt;trans_pol_pc_l4_tda -->
<g id="edge44" class="edge">
<title>l4_pol_pc_ctcal&#45;&gt;trans_pol_pc_l4_tda</title>
<path fill="none" stroke="black" d="M2924.07,-909C2924.07,-909 2982.78,-909 2982.78,-909"/>
<polygon fill="black" stroke="black" points="2982.78,-912.5 2992.78,-909 2982.78,-905.5 2982.78,-912.5"/>
</g>
<!-- l4_pol_pc_afcal -->
<g id="node42" class="node">
<title>l4_pol_pc_afcal</title>
<polygon fill="none" stroke="black" points="2941.91,-867 2566.91,-867 2566.91,-843 2941.91,-843 2953.91,-855 2941.91,-867"/>
<text text-anchor="middle" x="2760.41" y="-851.3" font-family="Times,serif" font-size="14.00">L4_pol_pc polarimetric absolute flux calibration 1..1</text>
</g>
<!-- l4_pol_pc_afcal&#45;&gt;trans_pol_pc_l4_tda -->
<g id="edge45" class="edge">
<title>l4_pol_pc_afcal&#45;&gt;trans_pol_pc_l4_tda</title>
<path fill="none" stroke="black" d="M2954.06,-855C2954.06,-855 2982.75,-855 2982.75,-855"/>
<polygon fill="black" stroke="black" points="2982.75,-858.5 2992.75,-855 2982.75,-851.5 2982.75,-858.5"/>
</g>
<!-- tda_pol_pc_man -->
<g id="node43" class="node">
<title>tda_pol_pc_man</title>
<ellipse fill="none" stroke="black" cx="167.04" cy="-288" rx="167.07" ry="18"/>
<text text-anchor="middle" x="167.04" y="-284.3" font-family="Times,serif" font-size="14.00">TDA_pol_pc product manifest 1..1</text>
</g>
</g>
</svg>
