<?xml version="1.0" encoding="UTF-8" standalone="no"?>
<!DOCTYPE svg PUBLIC "-//W3C//DTD SVG 1.1//EN"
 "http://www.w3.org/Graphics/SVG/1.1/DTD/svg11.dtd">
<!-- Generated by graphviz version 2.43.0 (0)
 -->
<!-- Title: PolarimetryAnalog Pages: 1 -->
<svg width="2845pt" height="1043pt"
 viewBox="0.00 0.00 2845.26 1043.00" xmlns="http://www.w3.org/2000/svg" xmlns:xlink="http://www.w3.org/1999/xlink">
<g id="graph0" class="graph" transform="scale(1 1) rotate(0) translate(4 1039)">
<title>PolarimetryAnalog</title>
<polygon fill="white" stroke="transparent" points="-4,4 -4,-1039 2841.26,-1039 2841.26,4 -4,4"/>
<!-- trans_pol_a_l1_l2a -->
<g id="node1" class="node">
<title>trans_pol_a_l1_l2a</title>
<ellipse fill="none" stroke="black" cx="389.79" cy="-126" rx="91.43" ry="91.43"/>
<text text-anchor="middle" x="389.79" y="-129.8" font-family="Times,serif" font-size="14.00">pol_a Transmutation</text>
<text text-anchor="middle" x="389.79" y="-114.8" font-family="Times,serif" font-size="14.00">L1 to L2a</text>
</g>
<!-- l2a_pol_a_prod -->
<g id="node11" class="node">
<title>l2a_pol_a_prod</title>
<polygon fill="none" stroke="black" points="718.25,-225 569.25,-225 569.25,-189 718.25,-189 718.25,-225"/>
<text text-anchor="middle" x="643.75" y="-203.3" font-family="Times,serif" font-size="14.00">L2a_pol_a products 1..b</text>
</g>
<!-- trans_pol_a_l1_l2a&#45;&gt;l2a_pol_a_prod -->
<g id="edge6" class="edge">
<title>trans_pol_a_l1_l2a&#45;&gt;l2a_pol_a_prod</title>
<path fill="none" stroke="black" stroke-dasharray="5,2" d="M438.76,-203.11C438.76,-203.11 558.93,-203.11 558.93,-203.11"/>
<polygon fill="black" stroke="black" points="558.93,-206.61 568.93,-203.11 558.93,-199.61 558.93,-206.61"/>
</g>
<!-- l2a_pol_a_man -->
<g id="node12" class="node">
<title>l2a_pol_a_man</title>
<ellipse fill="none" stroke="black" cx="643.75" cy="-153" rx="126.98" ry="18"/>
<text text-anchor="middle" x="643.75" y="-149.3" font-family="Times,serif" font-size="14.00">L2a_pol_a product manifest 1..1</text>
</g>
<!-- trans_pol_a_l1_l2a&#45;&gt;l2a_pol_a_man -->
<g id="edge7" class="edge">
<title>trans_pol_a_l1_l2a&#45;&gt;l2a_pol_a_man</title>
<path fill="none" stroke="black" d="M477.19,-153C477.19,-153 506.69,-153 506.69,-153"/>
<polygon fill="black" stroke="black" points="506.69,-156.5 516.69,-153 506.69,-149.5 506.69,-156.5"/>
</g>
<!-- l2a_pol_a_log -->
<g id="node21" class="node">
<title>l2a_pol_a_log</title>
<ellipse fill="none" stroke="black" cx="643.75" cy="-99" rx="77.99" ry="18"/>
<text text-anchor="middle" x="643.75" y="-95.3" font-family="Times,serif" font-size="14.00">L2a log_pol_a 1..1</text>
</g>
<!-- trans_pol_a_l1_l2a&#45;&gt;l2a_pol_a_log -->
<g id="edge8" class="edge">
<title>trans_pol_a_l1_l2a&#45;&gt;l2a_pol_a_log</title>
<path fill="none" stroke="black" stroke-dasharray="5,2" d="M477.19,-99C477.19,-99 555.55,-99 555.55,-99"/>
<polygon fill="black" stroke="black" points="555.55,-102.5 565.55,-99 555.55,-95.5 555.55,-102.5"/>
</g>
<!-- l2a_pol_a_src -->
<g id="node46" class="node">
<title>l2a_pol_a_src</title>
<ellipse fill="none" stroke="black" cx="643.75" cy="-45" rx="122.68" ry="18"/>
<text text-anchor="middle" x="643.75" y="-41.3" font-family="Times,serif" font-size="14.00">L2a_pol_a source manifest 1..1</text>
</g>
<!-- trans_pol_a_l1_l2a&#45;&gt;l2a_pol_a_src -->
<g id="edge48" class="edge">
<title>trans_pol_a_l1_l2a&#45;&gt;l2a_pol_a_src</title>
<path fill="none" stroke="black" d="M438.76,-48.89C438.76,-48.89 513.81,-48.89 513.81,-48.89"/>
<polygon fill="black" stroke="black" points="513.81,-52.39 523.81,-48.89 513.81,-45.39 513.81,-52.39"/>
</g>
<!-- trans_pol_a_l2a_l2b -->
<g id="node2" class="node">
<title>trans_pol_a_l2a_l2b</title>
<ellipse fill="none" stroke="black" cx="897.7" cy="-396" rx="91.43" ry="91.43"/>
<text text-anchor="middle" x="897.7" y="-399.8" font-family="Times,serif" font-size="14.00">pol_a Transmutation</text>
<text text-anchor="middle" x="897.7" y="-384.8" font-family="Times,serif" font-size="14.00">L2a to L2b</text>
</g>
<!-- l2b_pol_a_prod -->
<g id="node22" class="node">
<title>l2b_pol_a_prod</title>
<polygon fill="none" stroke="black" points="1227.31,-495 1077.31,-495 1077.31,-459 1227.31,-459 1227.31,-495"/>
<text text-anchor="middle" x="1152.31" y="-473.3" font-family="Times,serif" font-size="14.00">L2b_pol_a products 1..1</text>
</g>
<!-- trans_pol_a_l2a_l2b&#45;&gt;l2b_pol_a_prod -->
<g id="edge18" class="edge">
<title>trans_pol_a_l2a_l2b&#45;&gt;l2b_pol_a_prod</title>
<path fill="none" stroke="black" stroke-dasharray="5,2" d="M946.49,-473.11C946.49,-473.11 1067.13,-473.11 1067.13,-473.11"/>
<polygon fill="black" stroke="black" points="1067.13,-476.61 1077.13,-473.11 1067.13,-469.61 1067.13,-476.61"/>
</g>
<!-- l2b_pol_a_man -->
<g id="node23" class="node">
<title>l2b_pol_a_man</title>
<ellipse fill="none" stroke="black" cx="1152.31" cy="-423" rx="127.28" ry="18"/>
<text text-anchor="middle" x="1152.31" y="-419.3" font-family="Times,serif" font-size="14.00">L2b_pol_a product manifest 1..1</text>
</g>
<!-- trans_pol_a_l2a_l2b&#45;&gt;l2b_pol_a_man -->
<g id="edge19" class="edge">
<title>trans_pol_a_l2a_l2b&#45;&gt;l2b_pol_a_man</title>
<path fill="none" stroke="black" d="M984.97,-423C984.97,-423 1014.61,-423 1014.61,-423"/>
<polygon fill="black" stroke="black" points="1014.61,-426.5 1024.61,-423 1014.61,-419.5 1014.61,-426.5"/>
</g>
<!-- l2b_pol_a_log -->
<g id="node29" class="node">
<title>l2b_pol_a_log</title>
<ellipse fill="none" stroke="black" cx="1152.31" cy="-369" rx="78.79" ry="18"/>
<text text-anchor="middle" x="1152.31" y="-365.3" font-family="Times,serif" font-size="14.00">L2b_pol_a log 1..1</text>
</g>
<!-- trans_pol_a_l2a_l2b&#45;&gt;l2b_pol_a_log -->
<g id="edge20" class="edge">
<title>trans_pol_a_l2a_l2b&#45;&gt;l2b_pol_a_log</title>
<path fill="none" stroke="black" stroke-dasharray="5,2" d="M984.97,-369C984.97,-369 1063.27,-369 1063.27,-369"/>
<polygon fill="black" stroke="black" points="1063.27,-372.5 1073.27,-369 1063.27,-365.5 1063.27,-372.5"/>
</g>
<!-- l2b_pol_a_src -->
<g id="node47" class="node">
<title>l2b_pol_a_src</title>
<ellipse fill="none" stroke="black" cx="1152.31" cy="-315" rx="123.48" ry="18"/>
<text text-anchor="middle" x="1152.31" y="-311.3" font-family="Times,serif" font-size="14.00">L2b_pol_a source manifest 1..1</text>
</g>
<!-- trans_pol_a_l2a_l2b&#45;&gt;l2b_pol_a_src -->
<g id="edge49" class="edge">
<title>trans_pol_a_l2a_l2b&#45;&gt;l2b_pol_a_src</title>
<path fill="none" stroke="black" d="M946.49,-318.89C946.49,-318.89 1021.55,-318.89 1021.55,-318.89"/>
<polygon fill="black" stroke="black" points="1021.55,-322.39 1031.55,-318.89 1021.55,-315.39 1021.55,-322.39"/>
</g>
<!-- trans_pol_a_l2b_l3 -->
<g id="node3" class="node">
<title>trans_pol_a_l2b_l3</title>
<ellipse fill="none" stroke="black" cx="1406.92" cy="-585" rx="91.43" ry="91.43"/>
<text text-anchor="middle" x="1406.92" y="-588.8" font-family="Times,serif" font-size="14.00">pol_a Transmutation</text>
<text text-anchor="middle" x="1406.92" y="-573.8" font-family="Times,serif" font-size="14.00">L2b to L3</text>
</g>
<!-- l3_pol_a_prod -->
<g id="node30" class="node">
<title>l3_pol_a_prod</title>
<polygon fill="none" stroke="black" points="1728.47,-684 1585.47,-684 1585.47,-648 1728.47,-648 1728.47,-684"/>
<text text-anchor="middle" x="1656.97" y="-662.3" font-family="Times,serif" font-size="14.00">L3_pol_a products 1..1</text>
</g>
<!-- trans_pol_a_l2b_l3&#45;&gt;l3_pol_a_prod -->
<g id="edge29" class="edge">
<title>trans_pol_a_l2b_l3&#45;&gt;l3_pol_a_prod</title>
<path fill="none" stroke="black" stroke-dasharray="5,2" d="M1455.72,-662.11C1455.72,-662.11 1575.08,-662.11 1575.08,-662.11"/>
<polygon fill="black" stroke="black" points="1575.08,-665.61 1585.08,-662.11 1575.08,-658.61 1575.08,-665.61"/>
</g>
<!-- l3_pol_a_man -->
<g id="node32" class="node">
<title>l3_pol_a_man</title>
<ellipse fill="none" stroke="black" cx="1656.97" cy="-612" rx="122.68" ry="18"/>
<text text-anchor="middle" x="1656.97" y="-608.3" font-family="Times,serif" font-size="14.00">L3_pol_a product manifest 1..1</text>
</g>
<!-- trans_pol_a_l2b_l3&#45;&gt;l3_pol_a_man -->
<g id="edge30" class="edge">
<title>trans_pol_a_l2b_l3&#45;&gt;l3_pol_a_man</title>
<path fill="none" stroke="black" d="M1494.37,-612C1494.37,-612 1523.95,-612 1523.95,-612"/>
<polygon fill="black" stroke="black" points="1523.95,-615.5 1533.95,-612 1523.95,-608.5 1523.95,-615.5"/>
</g>
<!-- l3_pol_a_log -->
<g id="node35" class="node">
<title>l3_pol_a_log</title>
<ellipse fill="none" stroke="black" cx="1656.97" cy="-558" rx="74.19" ry="18"/>
<text text-anchor="middle" x="1656.97" y="-554.3" font-family="Times,serif" font-size="14.00">L3_pol_a log 1..1</text>
</g>
<!-- trans_pol_a_l2b_l3&#45;&gt;l3_pol_a_log -->
<g id="edge31" class="edge">
<title>trans_pol_a_l2b_l3&#45;&gt;l3_pol_a_log</title>
<path fill="none" stroke="black" stroke-dasharray="5,2" d="M1494.37,-558C1494.37,-558 1572.84,-558 1572.84,-558"/>
<polygon fill="black" stroke="black" points="1572.84,-561.5 1582.84,-558 1572.84,-554.5 1572.84,-561.5"/>
</g>
<!-- l3_pol_a_src -->
<g id="node48" class="node">
<title>l3_pol_a_src</title>
<ellipse fill="none" stroke="black" cx="1656.97" cy="-504" rx="118.88" ry="18"/>
<text text-anchor="middle" x="1656.97" y="-500.3" font-family="Times,serif" font-size="14.00">L3_pol_a source manifest 1..1</text>
</g>
<!-- trans_pol_a_l2b_l3&#45;&gt;l3_pol_a_src -->
<g id="edge50" class="edge">
<title>trans_pol_a_l2b_l3&#45;&gt;l3_pol_a_src</title>
<path fill="none" stroke="black" d="M1455.72,-507.89C1455.72,-507.89 1530.68,-507.89 1530.68,-507.89"/>
<polygon fill="black" stroke="black" points="1530.68,-511.39 1540.68,-507.89 1530.68,-504.39 1530.68,-511.39"/>
</g>
<!-- trans_pol_a_l3_l4 -->
<g id="node4" class="node">
<title>trans_pol_a_l3_l4</title>
<ellipse fill="none" stroke="black" cx="1907.03" cy="-720" rx="91.43" ry="91.43"/>
<text text-anchor="middle" x="1907.03" y="-723.8" font-family="Times,serif" font-size="14.00">pol_a Transmutation</text>
<text text-anchor="middle" x="1907.03" y="-708.8" font-family="Times,serif" font-size="14.00">L3 to L4</text>
</g>
<!-- l4_pol_a_prod -->
<g id="node36" class="node">
<title>l4_pol_a_prod</title>
<polygon fill="none" stroke="black" points="2255.24,-819 2112.24,-819 2112.24,-783 2255.24,-783 2255.24,-819"/>
<text text-anchor="middle" x="2183.74" y="-797.3" font-family="Times,serif" font-size="14.00">L4_pol_a products 1..1</text>
</g>
<!-- trans_pol_a_l3_l4&#45;&gt;l4_pol_a_prod -->
<g id="edge37" class="edge">
<title>trans_pol_a_l3_l4&#45;&gt;l4_pol_a_prod</title>
<path fill="none" stroke="black" stroke-dasharray="5,2" d="M1955.86,-797.11C1955.86,-797.11 2102.01,-797.11 2102.01,-797.11"/>
<polygon fill="black" stroke="black" points="2102.01,-800.61 2112.01,-797.11 2102.01,-793.61 2102.01,-800.61"/>
</g>
<!-- l4_pol_a_log -->
<g id="node37" class="node">
<title>l4_pol_a_log</title>
<ellipse fill="none" stroke="black" cx="2183.74" cy="-747" rx="74.19" ry="18"/>
<text text-anchor="middle" x="2183.74" y="-743.3" font-family="Times,serif" font-size="14.00">L4_pol_a log 1..1</text>
</g>
<!-- trans_pol_a_l3_l4&#45;&gt;l4_pol_a_log -->
<g id="edge38" class="edge">
<title>trans_pol_a_l3_l4&#45;&gt;l4_pol_a_log</title>
<path fill="none" stroke="black" stroke-dasharray="5,2" d="M1994.2,-747C1994.2,-747 2099.57,-747 2099.57,-747"/>
<polygon fill="black" stroke="black" points="2099.57,-750.5 2109.57,-747 2099.57,-743.5 2099.57,-750.5"/>
</g>
<!-- l4_pol_a_man -->
<g id="node38" class="node">
<title>l4_pol_a_man</title>
<ellipse fill="none" stroke="black" cx="2183.74" cy="-693" rx="122.68" ry="18"/>
<text text-anchor="middle" x="2183.74" y="-689.3" font-family="Times,serif" font-size="14.00">L4_pol_a product manifest 1..1</text>
</g>
<!-- trans_pol_a_l3_l4&#45;&gt;l4_pol_a_man -->
<g id="edge39" class="edge">
<title>trans_pol_a_l3_l4&#45;&gt;l4_pol_a_man</title>
<path fill="none" stroke="black" d="M1994.2,-693C1994.2,-693 2050.82,-693 2050.82,-693"/>
<polygon fill="black" stroke="black" points="2050.82,-696.5 2060.82,-693 2050.82,-689.5 2050.82,-696.5"/>
</g>
<!-- l4_pol_a_src -->
<g id="node49" class="node">
<title>l4_pol_a_src</title>
<ellipse fill="none" stroke="black" cx="2183.74" cy="-639" rx="116.18" ry="18"/>
<text text-anchor="middle" x="2183.74" y="-635.3" font-family="Times,serif" font-size="14.00">L4_pol_a sourcemanifest 1..1</text>
</g>
<!-- trans_pol_a_l3_l4&#45;&gt;l4_pol_a_src -->
<g id="edge51" class="edge">
<title>trans_pol_a_l3_l4&#45;&gt;l4_pol_a_src</title>
<path fill="none" stroke="black" d="M1955.86,-642.89C1955.86,-642.89 2059.93,-642.89 2059.93,-642.89"/>
<polygon fill="black" stroke="black" points="2059.93,-646.39 2069.93,-642.89 2059.93,-639.39 2059.93,-646.39"/>
</g>
<!-- trans_pol_a_l4_tda -->
<g id="node5" class="node">
<title>trans_pol_a_l4_tda</title>
<ellipse fill="none" stroke="black" cx="2460.46" cy="-882" rx="91.43" ry="91.43"/>
<text text-anchor="middle" x="2460.46" y="-885.8" font-family="Times,serif" font-size="14.00">pol_a Transmutation</text>
<text text-anchor="middle" x="2460.46" y="-870.8" font-family="Times,serif" font-size="14.00">L4 to TDA</text>
</g>
<!-- tda_pol_a_prod -->
<g id="node44" class="node">
<title>tda_pol_a_prod</title>
<ellipse fill="none" stroke="black" cx="2712.47" cy="-936" rx="65.79" ry="18"/>
<text text-anchor="middle" x="2712.47" y="-932.3" font-family="Times,serif" font-size="14.00">tda_pol_a_prod</text>
</g>
<!-- trans_pol_a_l4_tda&#45;&gt;tda_pol_a_prod -->
<g id="edge46" class="edge">
<title>trans_pol_a_l4_tda&#45;&gt;tda_pol_a_prod</title>
<path fill="none" stroke="black" stroke-dasharray="5,2" d="M2534.03,-936C2534.03,-936 2636.54,-936 2636.54,-936"/>
<polygon fill="black" stroke="black" points="2636.54,-939.5 2646.54,-936 2636.54,-932.5 2636.54,-939.5"/>
</g>
<!-- tda_pol_a_log -->
<g id="node45" class="node">
<title>tda_pol_a_log</title>
<ellipse fill="none" stroke="black" cx="2712.47" cy="-882" rx="61.19" ry="18"/>
<text text-anchor="middle" x="2712.47" y="-878.3" font-family="Times,serif" font-size="14.00">tda_pol_a_log</text>
</g>
<!-- trans_pol_a_l4_tda&#45;&gt;tda_pol_a_log -->
<g id="edge47" class="edge">
<title>trans_pol_a_l4_tda&#45;&gt;tda_pol_a_log</title>
<path fill="none" stroke="black" stroke-dasharray="5,2" d="M2551.8,-882C2551.8,-882 2641.34,-882 2641.34,-882"/>
<polygon fill="black" stroke="black" points="2641.34,-885.5 2651.34,-882 2641.34,-878.5 2641.34,-885.5"/>
</g>
<!-- tda_pol_a_src -->
<g id="node50" class="node">
<title>tda_pol_a_src</title>
<ellipse fill="none" stroke="black" cx="2712.47" cy="-828" rx="124.58" ry="18"/>
<text text-anchor="middle" x="2712.47" y="-824.3" font-family="Times,serif" font-size="14.00">TDA_pol_a sourcemanifest 1..1</text>
</g>
<!-- trans_pol_a_l4_tda&#45;&gt;tda_pol_a_src -->
<g id="edge52" class="edge">
<title>trans_pol_a_l4_tda&#45;&gt;tda_pol_a_src</title>
<path fill="none" stroke="black" d="M2534.03,-828C2534.03,-828 2577.6,-828 2577.6,-828"/>
<polygon fill="black" stroke="black" points="2577.6,-831.5 2587.6,-828 2577.6,-824.5 2577.6,-831.5"/>
</g>
<!-- l1_pol_a_prod -->
<g id="node6" class="node">
<title>l1_pol_a_prod</title>
<polygon fill="none" stroke="black" points="202.79,-252 59.79,-252 59.79,-216 202.79,-216 202.79,-252"/>
<text text-anchor="middle" x="131.29" y="-230.3" font-family="Times,serif" font-size="14.00">L1_pol_a products 1..b</text>
</g>
<!-- l1_pol_a_prod&#45;&gt;trans_pol_a_l1_l2a -->
<g id="edge1" class="edge">
<title>l1_pol_a_prod&#45;&gt;trans_pol_a_l1_l2a</title>
<path fill="none" stroke="black" stroke-dasharray="5,2" d="M132.26,-215.84C132.26,-210.96 132.26,-207 132.26,-207 132.26,-207 337.84,-207 337.84,-207"/>
<polygon fill="black" stroke="black" points="337.84,-210.5 347.84,-207 337.84,-203.5 337.84,-210.5"/>
</g>
<!-- l1_pol_a_man -->
<g id="node7" class="node">
<title>l1_pol_a_man</title>
<ellipse fill="none" stroke="black" cx="131.29" cy="-180" rx="122.68" ry="18"/>
<text text-anchor="middle" x="131.29" y="-176.3" font-family="Times,serif" font-size="14.00">L1_pol_a product manifest 1..1</text>
</g>
<!-- l1_pol_a_man&#45;&gt;trans_pol_a_l1_l2a -->
<g id="edge2" class="edge">
<title>l1_pol_a_man&#45;&gt;trans_pol_a_l1_l2a</title>
<path fill="none" stroke="black" d="M254.48,-180C254.48,-180 306.08,-180 306.08,-180"/>
<polygon fill="black" stroke="black" points="306.08,-183.5 316.08,-180 306.08,-176.5 306.08,-183.5"/>
</g>
<!-- l1_pol_a_odir -->
<g id="node8" class="node">
<title>l1_pol_a_odir</title>
<ellipse fill="none" stroke="black" cx="131.29" cy="-126" rx="102.88" ry="18"/>
<text text-anchor="middle" x="131.29" y="-122.3" font-family="Times,serif" font-size="14.00">L1_pol_a output path 1..1</text>
</g>
<!-- l1_pol_a_odir&#45;&gt;trans_pol_a_l1_l2a -->
<g id="edge3" class="edge">
<title>l1_pol_a_odir&#45;&gt;trans_pol_a_l1_l2a</title>
<path fill="none" stroke="black" d="M234.2,-126C234.2,-126 288.52,-126 288.52,-126"/>
<polygon fill="black" stroke="black" points="288.52,-129.5 298.52,-126 288.52,-122.5 288.52,-129.5"/>
</g>
<!-- l1_pol_a_rec -->
<g id="node9" class="node">
<title>l1_pol_a_rec</title>
<polygon fill="none" stroke="black" points="184.29,-84 66.29,-84 66.29,-60 184.29,-60 196.29,-72 184.29,-84"/>
<text text-anchor="middle" x="131.29" y="-68.3" font-family="Times,serif" font-size="14.00">L1_pol_a recipe 1..1</text>
</g>
<!-- l1_pol_a_rec&#45;&gt;trans_pol_a_l1_l2a -->
<g id="edge4" class="edge">
<title>l1_pol_a_rec&#45;&gt;trans_pol_a_l1_l2a</title>
<path fill="none" stroke="black" d="M196.52,-72C196.52,-72 305.9,-72 305.9,-72"/>
<polygon fill="black" stroke="black" points="305.9,-75.5 315.9,-72 305.9,-68.5 305.9,-75.5"/>
</g>
<!-- l1_pol_a_nllut -->
<g id="node10" class="node">
<title>l1_pol_a_nllut</title>
<polygon fill="none" stroke="black" points="210.29,-30 40.29,-30 40.29,-6 210.29,-6 222.29,-18 210.29,-30"/>
<text text-anchor="middle" x="131.29" y="-14.3" font-family="Times,serif" font-size="14.00">L1_pol_a non&#45;linear LUT 1..1</text>
</g>
<!-- l1_pol_a_nllut&#45;&gt;trans_pol_a_l1_l2a -->
<g id="edge5" class="edge">
<title>l1_pol_a_nllut&#45;&gt;trans_pol_a_l1_l2a</title>
<path fill="none" stroke="black" d="M210.26,-36.16C210.26,-41.04 210.26,-45 210.26,-45 210.26,-45 337.7,-45 337.7,-45"/>
<polygon fill="black" stroke="black" points="337.7,-48.5 347.7,-45 337.7,-41.5 337.7,-48.5"/>
</g>
<!-- l2a_pol_a_prod&#45;&gt;trans_pol_a_l2a_l2b -->
<g id="edge9" class="edge">
<title>l2a_pol_a_prod&#45;&gt;trans_pol_a_l2a_l2b</title>
<path fill="none" stroke="black" stroke-dasharray="5,2" d="M718.39,-207C793.49,-207 898.26,-207 898.26,-207 898.26,-207 898.26,-294.54 898.26,-294.54"/>
<polygon fill="black" stroke="black" points="894.76,-294.54 898.26,-304.54 901.76,-294.54 894.76,-294.54"/>
</g>
<!-- l2a_pol_a_man&#45;&gt;trans_pol_a_l2a_l2b -->
<g id="edge21" class="edge">
<title>l2a_pol_a_man&#45;&gt;trans_pol_a_l2a_l2b</title>
<path fill="none" stroke="black" d="M766.26,-157.93C766.26,-184.74 766.26,-311.84 766.26,-311.84 766.26,-311.84 852.48,-311.84 852.48,-311.84"/>
<polygon fill="black" stroke="black" points="852.48,-315.34 862.48,-311.84 852.48,-308.34 852.48,-315.34"/>
</g>
<!-- l2a_pol_a_odir -->
<g id="node13" class="node">
<title>l2a_pol_a_odir</title>
<ellipse fill="none" stroke="black" cx="643.75" cy="-641" rx="106.68" ry="18"/>
<text text-anchor="middle" x="643.75" y="-637.3" font-family="Times,serif" font-size="14.00">L2a_pol_a output path 1..1</text>
</g>
<!-- l2a_pol_a_odir&#45;&gt;trans_pol_a_l2a_l2b -->
<g id="edge10" class="edge">
<title>l2a_pol_a_odir&#45;&gt;trans_pol_a_l2a_l2b</title>
<path fill="none" stroke="black" d="M750.5,-640C831.23,-640 928.26,-640 928.26,-640 928.26,-640 928.26,-492.03 928.26,-492.03"/>
<polygon fill="black" stroke="black" points="931.76,-492.03 928.26,-482.03 924.76,-492.03 931.76,-492.03"/>
</g>
<!-- l2a_pol_a_rec -->
<g id="node14" class="node">
<title>l2a_pol_a_rec</title>
<polygon fill="none" stroke="black" points="699.75,-599 575.75,-599 575.75,-575 699.75,-575 711.75,-587 699.75,-599"/>
<text text-anchor="middle" x="643.75" y="-583.3" font-family="Times,serif" font-size="14.00">L2a_pol_a recipe 1..1</text>
</g>
<!-- l2a_pol_a_rec&#45;&gt;trans_pol_a_l2a_l2b -->
<g id="edge11" class="edge">
<title>l2a_pol_a_rec&#45;&gt;trans_pol_a_l2a_l2b</title>
<path fill="none" stroke="black" d="M712.02,-586C778.07,-586 868.26,-586 868.26,-586 868.26,-586 868.26,-492.38 868.26,-492.38"/>
<polygon fill="black" stroke="black" points="871.76,-492.38 868.26,-482.38 864.76,-492.38 871.76,-492.38"/>
</g>
<!-- l2a_pol_a_cti -->
<g id="node15" class="node">
<title>l2a_pol_a_cti</title>
<polygon fill="none" stroke="black" points="748.25,-545 527.25,-545 527.25,-521 748.25,-521 760.25,-533 748.25,-545"/>
<text text-anchor="middle" x="643.75" y="-529.3" font-family="Times,serif" font-size="14.00">L2a_pol_a charge xfer inefficiency 1..1</text>
</g>
<!-- l2a_pol_a_cti&#45;&gt;trans_pol_a_l2a_l2b -->
<g id="edge12" class="edge">
<title>l2a_pol_a_cti&#45;&gt;trans_pol_a_l2a_l2b</title>
<path fill="none" stroke="black" d="M750.26,-514.93C750.26,-498.83 750.26,-477.81 750.26,-477.81 750.26,-477.81 847.02,-477.81 847.02,-477.81"/>
<polygon fill="black" stroke="black" points="847.02,-481.31 857.02,-477.81 847.02,-474.31 847.02,-481.31"/>
</g>
<!-- l2a_pol_a_dnb -->
<g id="node16" class="node">
<title>l2a_pol_a_dnb</title>
<polygon fill="none" stroke="black" points="734.25,-491 541.25,-491 541.25,-465 734.25,-465 746.25,-478 734.25,-491"/>
<text text-anchor="middle" x="643.75" y="-481.8" font-family="Times,serif" font-size="14.00">L2a_pol_a CIC/Dark Current/FPN</text>
<text text-anchor="middle" x="643.75" y="-466.8" font-family="Times,serif" font-size="14.00"> or master dark 1..1</text>
</g>
<!-- l2a_pol_a_dnb&#45;&gt;trans_pol_a_l2a_l2b -->
<g id="edge13" class="edge">
<title>l2a_pol_a_dnb&#45;&gt;trans_pol_a_l2a_l2b</title>
<path fill="none" stroke="black" d="M746.31,-468.41C746.31,-468.41 832.19,-468.41 832.19,-468.41"/>
<polygon fill="black" stroke="black" points="832.19,-471.91 842.19,-468.41 832.19,-464.91 832.19,-471.91"/>
</g>
<!-- l2a_pol_a_mbpm -->
<g id="node17" class="node">
<title>l2a_pol_a_mbpm</title>
<polygon fill="none" stroke="black" points="742.25,-435 533.25,-435 533.25,-411 742.25,-411 754.25,-423 742.25,-435"/>
<text text-anchor="middle" x="643.75" y="-419.3" font-family="Times,serif" font-size="14.00">L2a_pol_a master bad pixel map 1..1</text>
</g>
<!-- l2a_pol_a_mbpm&#45;&gt;trans_pol_a_l2a_l2b -->
<g id="edge14" class="edge">
<title>l2a_pol_a_mbpm&#45;&gt;trans_pol_a_l2a_l2b</title>
<path fill="none" stroke="black" d="M754.4,-423C754.4,-423 800.32,-423 800.32,-423"/>
<polygon fill="black" stroke="black" points="800.32,-426.5 810.32,-423 800.32,-419.5 800.32,-426.5"/>
</g>
<!-- l2a_pol_a_emg -->
<g id="node18" class="node">
<title>l2a_pol_a_emg</title>
<polygon fill="none" stroke="black" points="707.25,-381 568.25,-381 568.25,-357 707.25,-357 719.25,-369 707.25,-381"/>
<text text-anchor="middle" x="643.75" y="-365.3" font-family="Times,serif" font-size="14.00">L2a_pol_a EM gain 1..1</text>
</g>
<!-- l2a_pol_a_emg&#45;&gt;trans_pol_a_l2a_l2b -->
<g id="edge15" class="edge">
<title>l2a_pol_a_emg&#45;&gt;trans_pol_a_l2a_l2b</title>
<path fill="none" stroke="black" d="M719.26,-369C719.26,-369 800.44,-369 800.44,-369"/>
<polygon fill="black" stroke="black" points="800.44,-372.5 810.44,-369 800.44,-365.5 800.44,-372.5"/>
</g>
<!-- l2a_pol_a_kgain -->
<g id="node19" class="node">
<title>l2a_pol_a_kgain</title>
<polygon fill="none" stroke="black" points="699.75,-327 575.75,-327 575.75,-303 699.75,-303 711.75,-315 699.75,-327"/>
<text text-anchor="middle" x="643.75" y="-311.3" font-family="Times,serif" font-size="14.00">L2a_pol_a Kgain 1..1</text>
</g>
<!-- l2a_pol_a_kgain&#45;&gt;trans_pol_a_l2a_l2b -->
<g id="edge16" class="edge">
<title>l2a_pol_a_kgain&#45;&gt;trans_pol_a_l2a_l2b</title>
<path fill="none" stroke="black" d="M711.8,-325.95C711.8,-325.95 828.96,-325.95 828.96,-325.95"/>
<polygon fill="black" stroke="black" points="828.96,-329.45 838.96,-325.95 828.96,-322.45 828.96,-329.45"/>
</g>
<!-- l2a_pol_a_polff -->
<g id="node20" class="node">
<title>l2a_pol_a_polff</title>
<polygon fill="none" stroke="black" points="744.25,-273 531.25,-273 531.25,-249 744.25,-249 756.25,-261 744.25,-273"/>
<text text-anchor="middle" x="643.75" y="-257.3" font-family="Times,serif" font-size="14.00">L2a_pol_a polarimetric flat fields 1..1</text>
</g>
<!-- l2a_pol_a_polff&#45;&gt;trans_pol_a_l2a_l2b -->
<g id="edge17" class="edge">
<title>l2a_pol_a_polff&#45;&gt;trans_pol_a_l2a_l2b</title>
<path fill="none" stroke="black" d="M737.26,-279.32C737.26,-296.28 737.26,-318.89 737.26,-318.89 737.26,-318.89 838.69,-318.89 838.69,-318.89"/>
<polygon fill="black" stroke="black" points="838.69,-322.39 848.69,-318.89 838.69,-315.39 838.69,-322.39"/>
</g>
<!-- l2b_pol_a_prod&#45;&gt;trans_pol_a_l2b_l3 -->
<g id="edge22" class="edge">
<title>l2b_pol_a_prod&#45;&gt;trans_pol_a_l2b_l3</title>
<path fill="none" stroke="black" stroke-dasharray="5,2" d="M1153.26,-495.19C1153.26,-501.8 1153.26,-507.67 1153.26,-507.67 1153.26,-507.67 1348.31,-507.67 1348.31,-507.67"/>
<polygon fill="black" stroke="black" points="1348.31,-511.17 1358.31,-507.67 1348.31,-504.17 1348.31,-511.17"/>
</g>
<!-- l2b_pol_a_man&#45;&gt;trans_pol_a_l2b_l3 -->
<g id="edge23" class="edge">
<title>l2b_pol_a_man&#45;&gt;trans_pol_a_l2b_l3</title>
<path fill="none" stroke="black" d="M1267.26,-430.9C1267.26,-450.96 1267.26,-502.33 1267.26,-502.33 1267.26,-502.33 1358.01,-502.33 1358.01,-502.33"/>
<polygon fill="black" stroke="black" points="1358.01,-505.83 1368.01,-502.33 1358.01,-498.83 1358.01,-505.83"/>
</g>
<!-- l2b_pol_a_odir -->
<g id="node24" class="node">
<title>l2b_pol_a_odir</title>
<ellipse fill="none" stroke="black" cx="1152.31" cy="-747" rx="107.48" ry="18"/>
<text text-anchor="middle" x="1152.31" y="-743.3" font-family="Times,serif" font-size="14.00">L2b_pol_a output path 1..1</text>
</g>
<!-- l2b_pol_a_odir&#45;&gt;trans_pol_a_l2b_l3 -->
<g id="edge24" class="edge">
<title>l2b_pol_a_odir&#45;&gt;trans_pol_a_l2b_l3</title>
<path fill="none" stroke="black" d="M1240.26,-736.57C1240.26,-715.46 1240.26,-669.67 1240.26,-669.67 1240.26,-669.67 1362.79,-669.67 1362.79,-669.67"/>
<polygon fill="black" stroke="black" points="1362.79,-673.17 1372.79,-669.67 1362.79,-666.17 1362.79,-673.17"/>
</g>
<!-- l2b_pol_a_rec -->
<g id="node25" class="node">
<title>l2b_pol_a_rec</title>
<polygon fill="none" stroke="black" points="1208.81,-705 1083.81,-705 1083.81,-681 1208.81,-681 1220.81,-693 1208.81,-705"/>
<text text-anchor="middle" x="1152.31" y="-689.3" font-family="Times,serif" font-size="14.00">L2b_pol_a recipe 1..1</text>
</g>
<!-- l2b_pol_a_rec&#45;&gt;trans_pol_a_l2b_l3 -->
<g id="edge25" class="edge">
<title>l2b_pol_a_rec&#45;&gt;trans_pol_a_l2b_l3</title>
<path fill="none" stroke="black" d="M1153.26,-674.68C1153.26,-669.06 1153.26,-664.33 1153.26,-664.33 1153.26,-664.33 1351.86,-664.33 1351.86,-664.33"/>
<polygon fill="black" stroke="black" points="1351.86,-667.83 1361.86,-664.33 1351.86,-660.83 1351.86,-667.83"/>
</g>
<!-- l2b_pol_a_excicrf -->
<g id="node26" class="node">
<title>l2b_pol_a_excicrf</title>
<polygon fill="none" stroke="black" points="1257.31,-651 1035.31,-651 1035.31,-627 1257.31,-627 1269.31,-639 1257.31,-651"/>
<text text-anchor="middle" x="1152.31" y="-635.3" font-family="Times,serif" font-size="14.00">L2b_pol_a EXCAM ICRF location 1..1</text>
</g>
<!-- l2b_pol_a_excicrf&#45;&gt;trans_pol_a_l2b_l3 -->
<g id="edge26" class="edge">
<title>l2b_pol_a_excicrf&#45;&gt;trans_pol_a_l2b_l3</title>
<path fill="none" stroke="black" d="M1269.55,-639C1269.55,-639 1323.19,-639 1323.19,-639"/>
<polygon fill="black" stroke="black" points="1323.19,-642.5 1333.19,-639 1323.19,-635.5 1323.19,-642.5"/>
</g>
<!-- l2b_pol_a_excfovps -->
<g id="node27" class="node">
<title>l2b_pol_a_excfovps</title>
<polygon fill="none" stroke="black" points="1262.81,-597 1029.81,-597 1029.81,-573 1262.81,-573 1274.81,-585 1262.81,-597"/>
<text text-anchor="middle" x="1152.31" y="-581.3" font-family="Times,serif" font-size="14.00">L2b_pol_a EXCAM FOV pixel scale 1..1</text>
</g>
<!-- l2b_pol_a_excfovps&#45;&gt;trans_pol_a_l2b_l3 -->
<g id="edge27" class="edge">
<title>l2b_pol_a_excfovps&#45;&gt;trans_pol_a_l2b_l3</title>
<path fill="none" stroke="black" d="M1275.14,-585C1275.14,-585 1305.54,-585 1305.54,-585"/>
<polygon fill="black" stroke="black" points="1305.54,-588.5 1315.54,-585 1305.54,-581.5 1305.54,-588.5"/>
</g>
<!-- l2b_pol_a_cfamfo -->
<g id="node28" class="node">
<title>l2b_pol_a_cfamfo</title>
<polygon fill="none" stroke="black" points="1246.31,-543 1046.31,-543 1046.31,-519 1246.31,-519 1258.31,-531 1246.31,-543"/>
<text text-anchor="middle" x="1152.31" y="-527.3" font-family="Times,serif" font-size="14.00">L2b_pol_a CFAM filter offsets 1..1</text>
</g>
<!-- l2b_pol_a_cfamfo&#45;&gt;trans_pol_a_l2b_l3 -->
<g id="edge28" class="edge">
<title>l2b_pol_a_cfamfo&#45;&gt;trans_pol_a_l2b_l3</title>
<path fill="none" stroke="black" d="M1258.44,-531C1258.44,-531 1323.1,-531 1323.1,-531"/>
<polygon fill="black" stroke="black" points="1323.1,-534.5 1333.1,-531 1323.1,-527.5 1323.1,-534.5"/>
</g>
<!-- l3_pol_a_prod&#45;&gt;trans_pol_a_l3_l4 -->
<g id="edge32" class="edge">
<title>l3_pol_a_prod&#45;&gt;trans_pol_a_l3_l4</title>
<path fill="none" stroke="black" stroke-dasharray="5,2" d="M1728.63,-666C1728.63,-666 1823.19,-666 1823.19,-666"/>
<polygon fill="black" stroke="black" points="1823.19,-669.5 1833.19,-666 1823.19,-662.5 1823.19,-669.5"/>
</g>
<!-- l3_pol_a_odir -->
<g id="node31" class="node">
<title>l3_pol_a_odir</title>
<ellipse fill="none" stroke="black" cx="1656.97" cy="-828" rx="102.88" ry="18"/>
<text text-anchor="middle" x="1656.97" y="-824.3" font-family="Times,serif" font-size="14.00">L3_pol_a output path 1..1</text>
</g>
<!-- l3_pol_a_odir&#45;&gt;trans_pol_a_l3_l4 -->
<g id="edge34" class="edge">
<title>l3_pol_a_odir&#45;&gt;trans_pol_a_l3_l4</title>
<path fill="none" stroke="black" d="M1753.26,-821.74C1753.26,-813.76 1753.26,-801 1753.26,-801 1753.26,-801 1855.01,-801 1855.01,-801"/>
<polygon fill="black" stroke="black" points="1855.01,-804.5 1865.01,-801 1855.01,-797.5 1855.01,-804.5"/>
</g>
<!-- l3_pol_a_man&#45;&gt;trans_pol_a_l3_l4 -->
<g id="edge33" class="edge">
<title>l3_pol_a_man&#45;&gt;trans_pol_a_l3_l4</title>
<path fill="none" stroke="black" d="M1770.26,-619.09C1770.26,-627.09 1770.26,-639 1770.26,-639 1770.26,-639 1854.88,-639 1854.88,-639"/>
<polygon fill="black" stroke="black" points="1854.88,-642.5 1864.88,-639 1854.88,-635.5 1854.88,-642.5"/>
</g>
<!-- l3_pol_a_rec -->
<g id="node33" class="node">
<title>l3_pol_a_rec</title>
<polygon fill="none" stroke="black" points="1709.97,-786 1591.97,-786 1591.97,-762 1709.97,-762 1721.97,-774 1709.97,-786"/>
<text text-anchor="middle" x="1656.97" y="-770.3" font-family="Times,serif" font-size="14.00">L3_pol_a recipe 1..1</text>
</g>
<!-- l3_pol_a_rec&#45;&gt;trans_pol_a_l3_l4 -->
<g id="edge35" class="edge">
<title>l3_pol_a_rec&#45;&gt;trans_pol_a_l3_l4</title>
<path fill="none" stroke="black" d="M1722.02,-774C1722.02,-774 1823.48,-774 1823.48,-774"/>
<polygon fill="black" stroke="black" points="1823.48,-777.5 1833.48,-774 1823.48,-770.5 1823.48,-777.5"/>
</g>
<!-- l3_pol_a_mueller -->
<g id="node34" class="node">
<title>l3_pol_a_mueller</title>
<polygon fill="none" stroke="black" points="1734.47,-732 1567.47,-732 1567.47,-708 1734.47,-708 1746.47,-720 1734.47,-732"/>
<text text-anchor="middle" x="1656.97" y="-716.3" font-family="Times,serif" font-size="14.00">L3_pol_a mueller matrix 1..1</text>
</g>
<!-- l3_pol_a_mueller&#45;&gt;trans_pol_a_l3_l4 -->
<g id="edge36" class="edge">
<title>l3_pol_a_mueller&#45;&gt;trans_pol_a_l3_l4</title>
<path fill="none" stroke="black" d="M1746.54,-720C1746.54,-720 1805.56,-720 1805.56,-720"/>
<polygon fill="black" stroke="black" points="1805.56,-723.5 1815.56,-720 1805.56,-716.5 1805.56,-723.5"/>
</g>
<!-- l4_pol_a_prod&#45;&gt;trans_pol_a_l4_tda -->
<g id="edge40" class="edge">
<title>l4_pol_a_prod&#45;&gt;trans_pol_a_l4_tda</title>
<path fill="none" stroke="black" stroke-dasharray="5,2" d="M2255.37,-809.59C2255.37,-809.59 2394.86,-809.59 2394.86,-809.59"/>
<polygon fill="black" stroke="black" points="2394.86,-813.09 2404.86,-809.59 2394.86,-806.09 2394.86,-813.09"/>
</g>
<!-- l4_pol_a_man&#45;&gt;trans_pol_a_l4_tda -->
<g id="edge41" class="edge">
<title>l4_pol_a_man&#45;&gt;trans_pol_a_l4_tda</title>
<path fill="none" stroke="black" d="M2282.26,-704.07C2282.26,-731.45 2282.26,-800.19 2282.26,-800.19 2282.26,-800.19 2410.02,-800.19 2410.02,-800.19"/>
<polygon fill="black" stroke="black" points="2410.02,-803.69 2420.02,-800.19 2410.02,-796.69 2410.02,-803.69"/>
</g>
<!-- l4_pol_a_odir -->
<g id="node39" class="node">
<title>l4_pol_a_odir</title>
<ellipse fill="none" stroke="black" cx="2183.74" cy="-1017" rx="102.88" ry="18"/>
<text text-anchor="middle" x="2183.74" y="-1013.3" font-family="Times,serif" font-size="14.00">L4_pol_a output path 1..1</text>
</g>
<!-- l4_pol_a_odir&#45;&gt;trans_pol_a_l4_tda -->
<g id="edge42" class="edge">
<title>l4_pol_a_odir&#45;&gt;trans_pol_a_l4_tda</title>
<path fill="none" stroke="black" d="M2268.26,-1006.74C2268.26,-991.29 2268.26,-963.81 2268.26,-963.81 2268.26,-963.81 2409.7,-963.81 2409.7,-963.81"/>
<polygon fill="black" stroke="black" points="2409.7,-967.31 2419.7,-963.81 2409.7,-960.31 2409.7,-967.31"/>
</g>
<!-- l4_pol_a_rec -->
<g id="node40" class="node">
<title>l4_pol_a_rec</title>
<polygon fill="none" stroke="black" points="2236.74,-975 2118.74,-975 2118.74,-951 2236.74,-951 2248.74,-963 2236.74,-975"/>
<text text-anchor="middle" x="2183.74" y="-959.3" font-family="Times,serif" font-size="14.00">L4_pol_a recipe 1..1</text>
</g>
<!-- l4_pol_a_rec&#45;&gt;trans_pol_a_l4_tda -->
<g id="edge43" class="edge">
<title>l4_pol_a_rec&#45;&gt;trans_pol_a_l4_tda</title>
<path fill="none" stroke="black" d="M2248.97,-954.41C2248.97,-954.41 2394.55,-954.41 2394.55,-954.41"/>
<polygon fill="black" stroke="black" points="2394.55,-957.91 2404.55,-954.41 2394.55,-950.91 2394.55,-957.91"/>
</g>
<!-- l4_pol_a_ctcal -->
<g id="node41" class="node">
<title>l4_pol_a_ctcal</title>
<polygon fill="none" stroke="black" points="2296.74,-921 2058.74,-921 2058.74,-897 2296.74,-897 2308.74,-909 2296.74,-921"/>
<text text-anchor="middle" x="2183.74" y="-905.3" font-family="Times,serif" font-size="14.00">L4_pol_a core throughput calibrations 1..1</text>
</g>
<!-- l4_pol_a_ctcal&#45;&gt;trans_pol_a_l4_tda -->
<g id="edge44" class="edge">
<title>l4_pol_a_ctcal&#45;&gt;trans_pol_a_l4_tda</title>
<path fill="none" stroke="black" d="M2308.74,-909C2308.74,-909 2363.21,-909 2363.21,-909"/>
<polygon fill="black" stroke="black" points="2363.21,-912.5 2373.21,-909 2363.21,-905.5 2363.21,-912.5"/>
</g>
<!-- l4_pol_a_afcal -->
<g id="node42" class="node">
<title>l4_pol_a_afcal</title>
<polygon fill="none" stroke="black" points="2321.24,-867 2034.24,-867 2034.24,-843 2321.24,-843 2333.24,-855 2321.24,-867"/>
<text text-anchor="middle" x="2183.74" y="-851.3" font-family="Times,serif" font-size="14.00">L4_pol_a polarimetric absolute flux calibration 1..1</text>
</g>
<!-- l4_pol_a_afcal&#45;&gt;trans_pol_a_l4_tda -->
<g id="edge45" class="edge">
<title>l4_pol_a_afcal&#45;&gt;trans_pol_a_l4_tda</title>
<path fill="none" stroke="black" d="M2333.44,-855C2333.44,-855 2362.98,-855 2362.98,-855"/>
<polygon fill="black" stroke="black" points="2362.98,-858.5 2372.98,-855 2362.98,-851.5 2362.98,-858.5"/>
</g>
<!-- tda_pol_a_man -->
<g id="node43" class="node">
<title>tda_pol_a_man</title>
<ellipse fill="none" stroke="black" cx="131.29" cy="-288" rx="131.08" ry="18"/>
<text text-anchor="middle" x="131.29" y="-284.3" font-family="Times,serif" font-size="14.00">TDA_pol_a product manifest 1..1</text>
</g>
</g>
</svg>
