<?xml version="1.0" encoding="UTF-8" standalone="no"?>
<!DOCTYPE svg PUBLIC "-//W3C//DTD SVG 1.1//EN"
 "http://www.w3.org/Graphics/SVG/1.1/DTD/svg11.dtd">
<!-- Generated by graphviz version 2.43.0 (0)
 -->
<!-- Title: PolarimetryAnalog Pages: 1 -->
<svg width="3157pt" height="935pt"
 viewBox="0.00 0.00 3157.22 935.00" xmlns="http://www.w3.org/2000/svg" xmlns:xlink="http://www.w3.org/1999/xlink">
<g id="graph0" class="graph" transform="scale(1 1) rotate(0) translate(4 931)">
<title>PolarimetryAnalog</title>
<polygon fill="white" stroke="transparent" points="-4,4 -4,-931 3153.22,-931 3153.22,4 -4,4"/>
<!-- trans_pol_a_l1_l2a -->
<g id="node1" class="node">
<title>trans_pol_a_l1_l2a</title>
<ellipse fill="none" stroke="black" cx="408.64" cy="-126" rx="115.02" ry="115.02"/>
<text text-anchor="middle" x="408.64" y="-129.8" font-family="Times,serif" font-size="14.00">pol_a Transmutation</text>
<text text-anchor="middle" x="408.64" y="-114.8" font-family="Times,serif" font-size="14.00">L1 to L2a</text>
</g>
<!-- l2a_pol_a_prod -->
<g id="node11" class="node">
<title>l2a_pol_a_prod</title>
<polygon fill="none" stroke="black" points="797.39,-198 612.39,-198 612.39,-162 797.39,-162 797.39,-198"/>
<text text-anchor="middle" x="704.89" y="-176.3" font-family="Times,serif" font-size="14.00">L2a_pol_a products 1..b</text>
</g>
<!-- trans_pol_a_l1_l2a&#45;&gt;l2a_pol_a_prod -->
<g id="edge6" class="edge">
<title>trans_pol_a_l1_l2a&#45;&gt;l2a_pol_a_prod</title>
<path fill="none" stroke="black" stroke-dasharray="5,2" d="M510.59,-180C510.59,-180 602.19,-180 602.19,-180"/>
<polygon fill="black" stroke="black" points="602.19,-183.5 612.19,-180 602.19,-176.5 602.19,-183.5"/>
</g>
<!-- l2a_pol_a_man -->
<g id="node12" class="node">
<title>l2a_pol_a_man</title>
<ellipse fill="none" stroke="black" cx="704.89" cy="-126" rx="120.48" ry="18"/>
<text text-anchor="middle" x="704.89" y="-122.3" font-family="Times,serif" font-size="14.00">L2a_pol_a manifest 1..1</text>
</g>
<!-- trans_pol_a_l1_l2a&#45;&gt;l2a_pol_a_man -->
<g id="edge7" class="edge">
<title>trans_pol_a_l1_l2a&#45;&gt;l2a_pol_a_man</title>
<path fill="none" stroke="black" d="M524.03,-126C524.03,-126 574.44,-126 574.44,-126"/>
<polygon fill="black" stroke="black" points="574.44,-129.5 584.44,-126 574.44,-122.5 574.44,-129.5"/>
</g>
<!-- l2a_pol_a_log -->
<g id="node21" class="node">
<title>l2a_pol_a_log</title>
<ellipse fill="none" stroke="black" cx="704.89" cy="-72" rx="93.68" ry="18"/>
<text text-anchor="middle" x="704.89" y="-68.3" font-family="Times,serif" font-size="14.00">L2a log_pol_a 1..1</text>
</g>
<!-- trans_pol_a_l1_l2a&#45;&gt;l2a_pol_a_log -->
<g id="edge8" class="edge">
<title>trans_pol_a_l1_l2a&#45;&gt;l2a_pol_a_log</title>
<path fill="none" stroke="black" stroke-dasharray="5,2" d="M510.59,-72C510.59,-72 601.21,-72 601.21,-72"/>
<polygon fill="black" stroke="black" points="601.21,-75.5 611.21,-72 601.21,-68.5 601.21,-75.5"/>
</g>
<!-- trans_pol_a_l2a_l2b -->
<g id="node2" class="node">
<title>trans_pol_a_l2a_l2b</title>
<ellipse fill="none" stroke="black" cx="1001.15" cy="-369" rx="115.02" ry="115.02"/>
<text text-anchor="middle" x="1001.15" y="-372.8" font-family="Times,serif" font-size="14.00">pol_a Transmutation</text>
<text text-anchor="middle" x="1001.15" y="-357.8" font-family="Times,serif" font-size="14.00">L2a to L2b</text>
</g>
<!-- l2b_pol_a_prod -->
<g id="node22" class="node">
<title>l2b_pol_a_prod</title>
<polygon fill="none" stroke="black" points="1391.91,-441 1205.91,-441 1205.91,-405 1391.91,-405 1391.91,-441"/>
<text text-anchor="middle" x="1298.91" y="-419.3" font-family="Times,serif" font-size="14.00">L2b_pol_a products 1..1</text>
</g>
<!-- trans_pol_a_l2a_l2b&#45;&gt;l2b_pol_a_prod -->
<g id="edge18" class="edge">
<title>trans_pol_a_l2a_l2b&#45;&gt;l2b_pol_a_prod</title>
<path fill="none" stroke="black" stroke-dasharray="5,2" d="M1103.21,-423C1103.21,-423 1195.49,-423 1195.49,-423"/>
<polygon fill="black" stroke="black" points="1195.49,-426.5 1205.49,-423 1195.49,-419.5 1195.49,-426.5"/>
</g>
<!-- l2b_pol_a_man -->
<g id="node23" class="node">
<title>l2b_pol_a_man</title>
<ellipse fill="none" stroke="black" cx="1298.91" cy="-369" rx="120.48" ry="18"/>
<text text-anchor="middle" x="1298.91" y="-365.3" font-family="Times,serif" font-size="14.00">L2b_pol_a manifest 1..1</text>
</g>
<!-- trans_pol_a_l2a_l2b&#45;&gt;l2b_pol_a_man -->
<g id="edge19" class="edge">
<title>trans_pol_a_l2a_l2b&#45;&gt;l2b_pol_a_man</title>
<path fill="none" stroke="black" d="M1116.7,-369C1116.7,-369 1168.51,-369 1168.51,-369"/>
<polygon fill="black" stroke="black" points="1168.51,-372.5 1178.51,-369 1168.51,-365.5 1168.51,-372.5"/>
</g>
<!-- l2b_pol_a_log -->
<g id="node29" class="node">
<title>l2b_pol_a_log</title>
<ellipse fill="none" stroke="black" cx="1298.91" cy="-315" rx="94.48" ry="18"/>
<text text-anchor="middle" x="1298.91" y="-311.3" font-family="Times,serif" font-size="14.00">L2b_pol_a log 1..1</text>
</g>
<!-- trans_pol_a_l2a_l2b&#45;&gt;l2b_pol_a_log -->
<g id="edge20" class="edge">
<title>trans_pol_a_l2a_l2b&#45;&gt;l2b_pol_a_log</title>
<path fill="none" stroke="black" stroke-dasharray="5,2" d="M1103.21,-315C1103.21,-315 1194.5,-315 1194.5,-315"/>
<polygon fill="black" stroke="black" points="1194.5,-318.5 1204.5,-315 1194.5,-311.5 1194.5,-318.5"/>
</g>
<!-- trans_pol_a_l2b_l3 -->
<g id="node3" class="node">
<title>trans_pol_a_l2b_l3</title>
<ellipse fill="none" stroke="black" cx="1596.67" cy="-531" rx="115.02" ry="115.02"/>
<text text-anchor="middle" x="1596.67" y="-534.8" font-family="Times,serif" font-size="14.00">pol_a Transmutation</text>
<text text-anchor="middle" x="1596.67" y="-519.8" font-family="Times,serif" font-size="14.00">L2b to L3</text>
</g>
<!-- l3_pol_a_prod -->
<g id="node30" class="node">
<title>l3_pol_a_prod</title>
<polygon fill="none" stroke="black" points="1965.12,-603 1788.12,-603 1788.12,-567 1965.12,-567 1965.12,-603"/>
<text text-anchor="middle" x="1876.62" y="-581.3" font-family="Times,serif" font-size="14.00">L3_pol_a products 1..1</text>
</g>
<!-- trans_pol_a_l2b_l3&#45;&gt;l3_pol_a_prod -->
<g id="edge29" class="edge">
<title>trans_pol_a_l2b_l3&#45;&gt;l3_pol_a_prod</title>
<path fill="none" stroke="black" stroke-dasharray="5,2" d="M1698.53,-585C1698.53,-585 1777.78,-585 1777.78,-585"/>
<polygon fill="black" stroke="black" points="1777.78,-588.5 1787.78,-585 1777.78,-581.5 1777.78,-588.5"/>
</g>
<!-- l3_pol_a_man -->
<g id="node32" class="node">
<title>l3_pol_a_man</title>
<ellipse fill="none" stroke="black" cx="1876.62" cy="-531" rx="114.28" ry="18"/>
<text text-anchor="middle" x="1876.62" y="-527.3" font-family="Times,serif" font-size="14.00">L3_pol_a manifest 1..1</text>
</g>
<!-- trans_pol_a_l2b_l3&#45;&gt;l3_pol_a_man -->
<g id="edge30" class="edge">
<title>trans_pol_a_l2b_l3&#45;&gt;l3_pol_a_man</title>
<path fill="none" stroke="black" d="M1712.15,-531C1712.15,-531 1751.85,-531 1751.85,-531"/>
<polygon fill="black" stroke="black" points="1751.85,-534.5 1761.85,-531 1751.85,-527.5 1751.85,-534.5"/>
</g>
<!-- l3_pol_a_log -->
<g id="node35" class="node">
<title>l3_pol_a_log</title>
<ellipse fill="none" stroke="black" cx="1876.62" cy="-477" rx="88.28" ry="18"/>
<text text-anchor="middle" x="1876.62" y="-473.3" font-family="Times,serif" font-size="14.00">L3_pol_a log 1..1</text>
</g>
<!-- trans_pol_a_l2b_l3&#45;&gt;l3_pol_a_log -->
<g id="edge31" class="edge">
<title>trans_pol_a_l2b_l3&#45;&gt;l3_pol_a_log</title>
<path fill="none" stroke="black" stroke-dasharray="5,2" d="M1698.53,-477C1698.53,-477 1777.78,-477 1777.78,-477"/>
<polygon fill="black" stroke="black" points="1777.78,-480.5 1787.78,-477 1777.78,-473.5 1777.78,-480.5"/>
</g>
<!-- trans_pol_a_l3_l4 -->
<g id="node4" class="node">
<title>trans_pol_a_l3_l4</title>
<ellipse fill="none" stroke="black" cx="2156.56" cy="-639" rx="115.02" ry="115.02"/>
<text text-anchor="middle" x="2156.56" y="-642.8" font-family="Times,serif" font-size="14.00">pol_a Transmutation</text>
<text text-anchor="middle" x="2156.56" y="-627.8" font-family="Times,serif" font-size="14.00">L3 to L4</text>
</g>
<!-- l4_pol_a_prod -->
<g id="node36" class="node">
<title>l4_pol_a_prod</title>
<polygon fill="none" stroke="black" points="2585.82,-711 2408.82,-711 2408.82,-675 2585.82,-675 2585.82,-711"/>
<text text-anchor="middle" x="2497.32" y="-689.3" font-family="Times,serif" font-size="14.00">L4_pol_a products 1..1</text>
</g>
<!-- trans_pol_a_l3_l4&#45;&gt;l4_pol_a_prod -->
<g id="edge37" class="edge">
<title>trans_pol_a_l3_l4&#45;&gt;l4_pol_a_prod</title>
<path fill="none" stroke="black" stroke-dasharray="5,2" d="M2258.8,-693C2258.8,-693 2398.72,-693 2398.72,-693"/>
<polygon fill="black" stroke="black" points="2398.72,-696.5 2408.72,-693 2398.72,-689.5 2398.72,-696.5"/>
</g>
<!-- l4_pol_a_log -->
<g id="node37" class="node">
<title>l4_pol_a_log</title>
<ellipse fill="none" stroke="black" cx="2497.32" cy="-639" rx="88.28" ry="18"/>
<text text-anchor="middle" x="2497.32" y="-635.3" font-family="Times,serif" font-size="14.00">L4_pol_a log 1..1</text>
</g>
<!-- trans_pol_a_l3_l4&#45;&gt;l4_pol_a_log -->
<g id="edge38" class="edge">
<title>trans_pol_a_l3_l4&#45;&gt;l4_pol_a_log</title>
<path fill="none" stroke="black" stroke-dasharray="5,2" d="M2271.93,-639C2271.93,-639 2398.74,-639 2398.74,-639"/>
<polygon fill="black" stroke="black" points="2398.74,-642.5 2408.74,-639 2398.74,-635.5 2398.74,-642.5"/>
</g>
<!-- l4_pol_a_man -->
<g id="node38" class="node">
<title>l4_pol_a_man</title>
<ellipse fill="none" stroke="black" cx="2497.32" cy="-585" rx="114.28" ry="18"/>
<text text-anchor="middle" x="2497.32" y="-581.3" font-family="Times,serif" font-size="14.00">L4_pol_a manifest 1..1</text>
</g>
<!-- trans_pol_a_l3_l4&#45;&gt;l4_pol_a_man -->
<g id="edge39" class="edge">
<title>trans_pol_a_l3_l4&#45;&gt;l4_pol_a_man</title>
<path fill="none" stroke="black" d="M2258.8,-585C2258.8,-585 2372.93,-585 2372.93,-585"/>
<polygon fill="black" stroke="black" points="2372.93,-588.5 2382.93,-585 2372.93,-581.5 2372.93,-588.5"/>
</g>
<!-- trans_pol_a_l4_tda -->
<g id="node5" class="node">
<title>trans_pol_a_l4_tda</title>
<ellipse fill="none" stroke="black" cx="2838.08" cy="-774" rx="115.02" ry="115.02"/>
<text text-anchor="middle" x="2838.08" y="-777.8" font-family="Times,serif" font-size="14.00">pol_a Transmutation</text>
<text text-anchor="middle" x="2838.08" y="-762.8" font-family="Times,serif" font-size="14.00">L4 to TDA</text>
</g>
<!-- tda_pol_a_prod -->
<g id="node44" class="node">
<title>tda_pol_a_prod</title>
<ellipse fill="none" stroke="black" cx="3069.28" cy="-801" rx="79.89" ry="18"/>
<text text-anchor="middle" x="3069.28" y="-797.3" font-family="Times,serif" font-size="14.00">tda_pol_a_prod</text>
</g>
<!-- trans_pol_a_l4_tda&#45;&gt;tda_pol_a_prod -->
<g id="edge46" class="edge">
<title>trans_pol_a_l4_tda&#45;&gt;tda_pol_a_prod</title>
<path fill="none" stroke="black" stroke-dasharray="5,2" d="M2950.29,-801C2950.29,-801 2979.14,-801 2979.14,-801"/>
<polygon fill="black" stroke="black" points="2979.14,-804.5 2989.14,-801 2979.14,-797.5 2979.14,-804.5"/>
</g>
<!-- tda_pol_a_log -->
<g id="node45" class="node">
<title>tda_pol_a_log</title>
<ellipse fill="none" stroke="black" cx="3069.28" cy="-747" rx="72.59" ry="18"/>
<text text-anchor="middle" x="3069.28" y="-743.3" font-family="Times,serif" font-size="14.00">tda_pol_a_log</text>
</g>
<!-- trans_pol_a_l4_tda&#45;&gt;tda_pol_a_log -->
<g id="edge47" class="edge">
<title>trans_pol_a_l4_tda&#45;&gt;tda_pol_a_log</title>
<path fill="none" stroke="black" stroke-dasharray="5,2" d="M2950.29,-747C2950.29,-747 2986.34,-747 2986.34,-747"/>
<polygon fill="black" stroke="black" points="2986.34,-750.5 2996.34,-747 2986.34,-743.5 2986.34,-750.5"/>
</g>
<!-- l1_pol_a_prod -->
<g id="node6" class="node">
<title>l1_pol_a_prod</title>
<polygon fill="none" stroke="black" points="217.19,-252 40.19,-252 40.19,-216 217.19,-216 217.19,-252"/>
<text text-anchor="middle" x="128.69" y="-230.3" font-family="Times,serif" font-size="14.00">L1_pol_a products 1..b</text>
</g>
<!-- l1_pol_a_prod&#45;&gt;trans_pol_a_l1_l2a -->
<g id="edge1" class="edge">
<title>l1_pol_a_prod&#45;&gt;trans_pol_a_l1_l2a</title>
<path fill="none" stroke="black" stroke-dasharray="5,2" d="M217.27,-228.63C217.27,-228.63 346.06,-228.63 346.06,-228.63"/>
<polygon fill="black" stroke="black" points="346.06,-232.13 356.06,-228.63 346.06,-225.13 346.06,-232.13"/>
</g>
<!-- l1_pol_a_man -->
<g id="node7" class="node">
<title>l1_pol_a_man</title>
<ellipse fill="none" stroke="black" cx="128.69" cy="-180" rx="114.28" ry="18"/>
<text text-anchor="middle" x="128.69" y="-176.3" font-family="Times,serif" font-size="14.00">L1_pol_a manifest 1..1</text>
</g>
<!-- l1_pol_a_man&#45;&gt;trans_pol_a_l1_l2a -->
<g id="edge2" class="edge">
<title>l1_pol_a_man&#45;&gt;trans_pol_a_l1_l2a</title>
<path fill="none" stroke="black" d="M243.36,-180C243.36,-180 296.71,-180 296.71,-180"/>
<polygon fill="black" stroke="black" points="296.71,-183.5 306.71,-180 296.71,-176.5 296.71,-183.5"/>
</g>
<!-- l1_pol_a_odir -->
<g id="node8" class="node">
<title>l1_pol_a_odir</title>
<ellipse fill="none" stroke="black" cx="128.69" cy="-126" rx="128.88" ry="18"/>
<text text-anchor="middle" x="128.69" y="-122.3" font-family="Times,serif" font-size="14.00">L1_pol_a output path 1..1</text>
</g>
<!-- l1_pol_a_odir&#45;&gt;trans_pol_a_l1_l2a -->
<g id="edge3" class="edge">
<title>l1_pol_a_odir&#45;&gt;trans_pol_a_l1_l2a</title>
<path fill="none" stroke="black" d="M257.6,-126C257.6,-126 283.31,-126 283.31,-126"/>
<polygon fill="black" stroke="black" points="283.31,-129.5 293.31,-126 283.31,-122.5 283.31,-129.5"/>
</g>
<!-- l1_pol_a_rec -->
<g id="node9" class="node">
<title>l1_pol_a_rec</title>
<polygon fill="none" stroke="black" points="195.69,-84 49.69,-84 49.69,-60 195.69,-60 207.69,-72 195.69,-84"/>
<text text-anchor="middle" x="128.69" y="-68.3" font-family="Times,serif" font-size="14.00">L1_pol_a recipe 1..1</text>
</g>
<!-- l1_pol_a_rec&#45;&gt;trans_pol_a_l1_l2a -->
<g id="edge4" class="edge">
<title>l1_pol_a_rec&#45;&gt;trans_pol_a_l1_l2a</title>
<path fill="none" stroke="black" d="M207.79,-72C207.79,-72 296.69,-72 296.69,-72"/>
<polygon fill="black" stroke="black" points="296.69,-75.5 306.69,-72 296.69,-68.5 296.69,-75.5"/>
</g>
<!-- l1_pol_a_nllut -->
<g id="node10" class="node">
<title>l1_pol_a_nllut</title>
<polygon fill="none" stroke="black" points="226.69,-30 18.69,-30 18.69,-6 226.69,-6 238.69,-18 226.69,-30"/>
<text text-anchor="middle" x="128.69" y="-14.3" font-family="Times,serif" font-size="14.00">L1_pol_a non&#45;linear LUT 1..1</text>
</g>
<!-- l1_pol_a_nllut&#45;&gt;trans_pol_a_l1_l2a -->
<g id="edge5" class="edge">
<title>l1_pol_a_nllut&#45;&gt;trans_pol_a_l1_l2a</title>
<path fill="none" stroke="black" d="M238.93,-23.37C238.93,-23.37 345.81,-23.37 345.81,-23.37"/>
<polygon fill="black" stroke="black" points="345.81,-26.87 355.81,-23.37 345.81,-19.87 345.81,-26.87"/>
</g>
<!-- l2a_pol_a_prod&#45;&gt;trans_pol_a_l2a_l2b -->
<g id="edge9" class="edge">
<title>l2a_pol_a_prod&#45;&gt;trans_pol_a_l2a_l2b</title>
<path fill="none" stroke="black" stroke-dasharray="5,2" d="M797.43,-180C871.55,-180 963.22,-180 963.22,-180 963.22,-180 963.22,-250.15 963.22,-250.15"/>
<polygon fill="black" stroke="black" points="959.72,-250.15 963.22,-260.15 966.72,-250.15 959.72,-250.15"/>
</g>
<!-- l2a_pol_a_man&#45;&gt;trans_pol_a_l2a_l2b -->
<g id="edge21" class="edge">
<title>l2a_pol_a_man&#45;&gt;trans_pol_a_l2a_l2b</title>
<path fill="none" stroke="black" d="M825.48,-126C921.62,-126 1040.22,-126 1040.22,-126 1040.22,-126 1040.22,-250.29 1040.22,-250.29"/>
<polygon fill="black" stroke="black" points="1036.72,-250.29 1040.22,-260.29 1043.72,-250.29 1036.72,-250.29"/>
</g>
<!-- l2a_pol_a_odir -->
<g id="node13" class="node">
<title>l2a_pol_a_odir</title>
<ellipse fill="none" stroke="black" cx="704.89" cy="-614" rx="133.78" ry="18"/>
<text text-anchor="middle" x="704.89" y="-610.3" font-family="Times,serif" font-size="14.00">L2a_pol_a output path 1..1</text>
</g>
<!-- l2a_pol_a_odir&#45;&gt;trans_pol_a_l2a_l2b -->
<g id="edge10" class="edge">
<title>l2a_pol_a_odir&#45;&gt;trans_pol_a_l2a_l2b</title>
<path fill="none" stroke="black" d="M784.36,-599.5C883.52,-599.5 1040.22,-599.5 1040.22,-599.5 1040.22,-599.5 1040.22,-487.5 1040.22,-487.5"/>
<polygon fill="black" stroke="black" points="1043.72,-487.5 1040.22,-477.5 1036.72,-487.5 1043.72,-487.5"/>
</g>
<!-- l2a_pol_a_rec -->
<g id="node14" class="node">
<title>l2a_pol_a_rec</title>
<polygon fill="none" stroke="black" points="776.39,-572 621.39,-572 621.39,-548 776.39,-548 788.39,-560 776.39,-572"/>
<text text-anchor="middle" x="704.89" y="-556.3" font-family="Times,serif" font-size="14.00">L2a_pol_a recipe 1..1</text>
</g>
<!-- l2a_pol_a_rec&#45;&gt;trans_pol_a_l2a_l2b -->
<g id="edge11" class="edge">
<title>l2a_pol_a_rec&#45;&gt;trans_pol_a_l2a_l2b</title>
<path fill="none" stroke="black" d="M788.41,-545.5C863.88,-545.5 963.22,-545.5 963.22,-545.5 963.22,-545.5 963.22,-488.02 963.22,-488.02"/>
<polygon fill="black" stroke="black" points="966.72,-488.02 963.22,-478.02 959.72,-488.02 966.72,-488.02"/>
</g>
<!-- l2a_pol_a_cti -->
<g id="node15" class="node">
<title>l2a_pol_a_cti</title>
<polygon fill="none" stroke="black" points="837.89,-518 559.89,-518 559.89,-494 837.89,-494 849.89,-506 837.89,-518"/>
<text text-anchor="middle" x="704.89" y="-502.3" font-family="Times,serif" font-size="14.00">L2a_pol_a charge xfer inefficiency 1..1</text>
</g>
<!-- l2a_pol_a_cti&#45;&gt;trans_pol_a_l2a_l2b -->
<g id="edge12" class="edge">
<title>l2a_pol_a_cti&#45;&gt;trans_pol_a_l2a_l2b</title>
<path fill="none" stroke="black" d="M838.22,-487.88C838.22,-482.08 838.22,-477.13 838.22,-477.13 838.22,-477.13 950.88,-477.13 950.88,-477.13"/>
<polygon fill="black" stroke="black" points="950.88,-480.63 960.88,-477.13 950.88,-473.63 950.88,-480.63"/>
</g>
<!-- l2a_pol_a_dnb -->
<g id="node16" class="node">
<title>l2a_pol_a_dnb</title>
<polygon fill="none" stroke="black" points="819.39,-464 578.39,-464 578.39,-438 819.39,-438 831.39,-451 819.39,-464"/>
<text text-anchor="middle" x="704.89" y="-454.8" font-family="Times,serif" font-size="14.00">L2a_pol_a CIC/Dark Current/FPN</text>
<text text-anchor="middle" x="704.89" y="-439.8" font-family="Times,serif" font-size="14.00"> or master dark 1..1</text>
</g>
<!-- l2a_pol_a_dnb&#45;&gt;trans_pol_a_l2a_l2b -->
<g id="edge13" class="edge">
<title>l2a_pol_a_dnb&#45;&gt;trans_pol_a_l2a_l2b</title>
<path fill="none" stroke="black" d="M831.82,-451C831.82,-451 909.88,-451 909.88,-451"/>
<polygon fill="black" stroke="black" points="909.88,-454.5 919.88,-451 909.88,-447.5 909.88,-454.5"/>
</g>
<!-- l2a_pol_a_mbpm -->
<g id="node17" class="node">
<title>l2a_pol_a_mbpm</title>
<polygon fill="none" stroke="black" points="831.89,-408 565.89,-408 565.89,-384 831.89,-384 843.89,-396 831.89,-408"/>
<text text-anchor="middle" x="704.89" y="-392.3" font-family="Times,serif" font-size="14.00">L2a_pol_a master bad pixel map 1..1</text>
</g>
<!-- l2a_pol_a_mbpm&#45;&gt;trans_pol_a_l2a_l2b -->
<g id="edge14" class="edge">
<title>l2a_pol_a_mbpm&#45;&gt;trans_pol_a_l2a_l2b</title>
<path fill="none" stroke="black" d="M843.91,-396C843.91,-396 878.77,-396 878.77,-396"/>
<polygon fill="black" stroke="black" points="878.77,-399.5 888.77,-396 878.77,-392.5 878.77,-399.5"/>
</g>
<!-- l2a_pol_a_emg -->
<g id="node18" class="node">
<title>l2a_pol_a_emg</title>
<polygon fill="none" stroke="black" points="783.89,-354 613.89,-354 613.89,-330 783.89,-330 795.89,-342 783.89,-354"/>
<text text-anchor="middle" x="704.89" y="-338.3" font-family="Times,serif" font-size="14.00">L2a_pol_a EM gain 1..1</text>
</g>
<!-- l2a_pol_a_emg&#45;&gt;trans_pol_a_l2a_l2b -->
<g id="edge15" class="edge">
<title>l2a_pol_a_emg&#45;&gt;trans_pol_a_l2a_l2b</title>
<path fill="none" stroke="black" d="M796.2,-342C796.2,-342 879,-342 879,-342"/>
<polygon fill="black" stroke="black" points="879,-345.5 889,-342 879,-338.5 879,-345.5"/>
</g>
<!-- l2a_pol_a_kgain -->
<g id="node19" class="node">
<title>l2a_pol_a_kgain</title>
<polygon fill="none" stroke="black" points="774.89,-300 622.89,-300 622.89,-276 774.89,-276 786.89,-288 774.89,-300"/>
<text text-anchor="middle" x="704.89" y="-284.3" font-family="Times,serif" font-size="14.00">L2a_pol_a Kgain 1..1</text>
</g>
<!-- l2a_pol_a_kgain&#45;&gt;trans_pol_a_l2a_l2b -->
<g id="edge16" class="edge">
<title>l2a_pol_a_kgain&#45;&gt;trans_pol_a_l2a_l2b</title>
<path fill="none" stroke="black" d="M787.03,-288C787.03,-288 909.12,-288 909.12,-288"/>
<polygon fill="black" stroke="black" points="909.12,-291.5 919.12,-288 909.12,-284.5 909.12,-291.5"/>
</g>
<!-- l2a_pol_a_polff -->
<g id="node20" class="node">
<title>l2a_pol_a_polff</title>
<polygon fill="none" stroke="black" points="833.39,-246 564.39,-246 564.39,-222 833.39,-222 845.39,-234 833.39,-246"/>
<text text-anchor="middle" x="704.89" y="-230.3" font-family="Times,serif" font-size="14.00">L2a_pol_a polarimetric flat fields 1..1</text>
</g>
<!-- l2a_pol_a_polff&#45;&gt;trans_pol_a_l2a_l2b -->
<g id="edge17" class="edge">
<title>l2a_pol_a_polff&#45;&gt;trans_pol_a_l2a_l2b</title>
<path fill="none" stroke="black" d="M820.22,-252.12C820.22,-257.45 820.22,-261.87 820.22,-261.87 820.22,-261.87 948.27,-261.87 948.27,-261.87"/>
<polygon fill="black" stroke="black" points="948.27,-265.37 958.27,-261.87 948.27,-258.37 948.27,-265.37"/>
</g>
<!-- l2b_pol_a_prod&#45;&gt;trans_pol_a_l2b_l3 -->
<g id="edge22" class="edge">
<title>l2b_pol_a_prod&#45;&gt;trans_pol_a_l2b_l3</title>
<path fill="none" stroke="black" stroke-dasharray="5,2" d="M1392.31,-432.58C1392.31,-432.58 1526.44,-432.58 1526.44,-432.58"/>
<polygon fill="black" stroke="black" points="1526.44,-436.08 1536.44,-432.58 1526.44,-429.08 1526.44,-436.08"/>
</g>
<!-- l2b_pol_a_man&#45;&gt;trans_pol_a_l2b_l3 -->
<g id="edge23" class="edge">
<title>l2b_pol_a_man&#45;&gt;trans_pol_a_l2b_l3</title>
<path fill="none" stroke="black" d="M1406.22,-377.14C1406.22,-392.48 1406.22,-424.16 1406.22,-424.16 1406.22,-424.16 1542.98,-424.16 1542.98,-424.16"/>
<polygon fill="black" stroke="black" points="1542.98,-427.66 1552.98,-424.16 1542.98,-420.66 1542.98,-427.66"/>
</g>
<!-- l2b_pol_a_odir -->
<g id="node24" class="node">
<title>l2b_pol_a_odir</title>
<ellipse fill="none" stroke="black" cx="1298.91" cy="-693" rx="134.58" ry="18"/>
<text text-anchor="middle" x="1298.91" y="-689.3" font-family="Times,serif" font-size="14.00">L2b_pol_a output path 1..1</text>
</g>
<!-- l2b_pol_a_odir&#45;&gt;trans_pol_a_l2b_l3 -->
<g id="edge24" class="edge">
<title>l2b_pol_a_odir&#45;&gt;trans_pol_a_l2b_l3</title>
<path fill="none" stroke="black" d="M1408.22,-682.36C1408.22,-666.34 1408.22,-637.84 1408.22,-637.84 1408.22,-637.84 1542.96,-637.84 1542.96,-637.84"/>
<polygon fill="black" stroke="black" points="1542.96,-641.34 1552.96,-637.84 1542.96,-634.34 1542.96,-641.34"/>
</g>
<!-- l2b_pol_a_rec -->
<g id="node25" class="node">
<title>l2b_pol_a_rec</title>
<polygon fill="none" stroke="black" points="1370.41,-651 1215.41,-651 1215.41,-627 1370.41,-627 1382.41,-639 1370.41,-651"/>
<text text-anchor="middle" x="1298.91" y="-635.3" font-family="Times,serif" font-size="14.00">L2b_pol_a recipe 1..1</text>
</g>
<!-- l2b_pol_a_rec&#45;&gt;trans_pol_a_l2b_l3 -->
<g id="edge25" class="edge">
<title>l2b_pol_a_rec&#45;&gt;trans_pol_a_l2b_l3</title>
<path fill="none" stroke="black" d="M1382.65,-629.42C1382.65,-629.42 1526.67,-629.42 1526.67,-629.42"/>
<polygon fill="black" stroke="black" points="1526.67,-632.92 1536.67,-629.42 1526.67,-625.92 1526.67,-632.92"/>
</g>
<!-- l2b_pol_a_excicrf -->
<g id="node26" class="node">
<title>l2b_pol_a_excicrf</title>
<polygon fill="none" stroke="black" points="1426.41,-597 1159.41,-597 1159.41,-573 1426.41,-573 1438.41,-585 1426.41,-597"/>
<text text-anchor="middle" x="1298.91" y="-581.3" font-family="Times,serif" font-size="14.00">L2b_pol_a EXCAM ICRF location 1..1</text>
</g>
<!-- l2b_pol_a_excicrf&#45;&gt;trans_pol_a_l2b_l3 -->
<g id="edge26" class="edge">
<title>l2b_pol_a_excicrf&#45;&gt;trans_pol_a_l2b_l3</title>
<path fill="none" stroke="black" d="M1438.64,-585C1438.64,-585 1484.67,-585 1484.67,-585"/>
<polygon fill="black" stroke="black" points="1484.67,-588.5 1494.67,-585 1484.67,-581.5 1484.67,-588.5"/>
</g>
<!-- l2b_pol_a_excfovps -->
<g id="node27" class="node">
<title>l2b_pol_a_excfovps</title>
<polygon fill="none" stroke="black" points="1433.41,-543 1152.41,-543 1152.41,-519 1433.41,-519 1445.41,-531 1433.41,-543"/>
<text text-anchor="middle" x="1298.91" y="-527.3" font-family="Times,serif" font-size="14.00">L2b_pol_a EXCAM FOV pixel scale 1..1</text>
</g>
<!-- l2b_pol_a_excfovps&#45;&gt;trans_pol_a_l2b_l3 -->
<g id="edge27" class="edge">
<title>l2b_pol_a_excfovps&#45;&gt;trans_pol_a_l2b_l3</title>
<path fill="none" stroke="black" d="M1445.61,-531C1445.61,-531 1471.03,-531 1471.03,-531"/>
<polygon fill="black" stroke="black" points="1471.03,-534.5 1481.03,-531 1471.03,-527.5 1471.03,-534.5"/>
</g>
<!-- l2b_pol_a_cfamfo -->
<g id="node28" class="node">
<title>l2b_pol_a_cfamfo</title>
<polygon fill="none" stroke="black" points="1415.41,-489 1170.41,-489 1170.41,-465 1415.41,-465 1427.41,-477 1415.41,-489"/>
<text text-anchor="middle" x="1298.91" y="-473.3" font-family="Times,serif" font-size="14.00">L2b_pol_a CFAM filter offsets 1..1</text>
</g>
<!-- l2b_pol_a_cfamfo&#45;&gt;trans_pol_a_l2b_l3 -->
<g id="edge28" class="edge">
<title>l2b_pol_a_cfamfo&#45;&gt;trans_pol_a_l2b_l3</title>
<path fill="none" stroke="black" d="M1427.78,-477C1427.78,-477 1484.51,-477 1484.51,-477"/>
<polygon fill="black" stroke="black" points="1484.51,-480.5 1494.51,-477 1484.51,-473.5 1484.51,-480.5"/>
</g>
<!-- l3_pol_a_prod&#45;&gt;trans_pol_a_l3_l4 -->
<g id="edge32" class="edge">
<title>l3_pol_a_prod&#45;&gt;trans_pol_a_l3_l4</title>
<path fill="none" stroke="black" stroke-dasharray="5,2" d="M1965.19,-585C1965.19,-585 2044.41,-585 2044.41,-585"/>
<polygon fill="black" stroke="black" points="2044.41,-588.5 2054.41,-585 2044.41,-581.5 2044.41,-588.5"/>
</g>
<!-- l3_pol_a_odir -->
<g id="node31" class="node">
<title>l3_pol_a_odir</title>
<ellipse fill="none" stroke="black" cx="1876.62" cy="-747" rx="128.88" ry="18"/>
<text text-anchor="middle" x="1876.62" y="-743.3" font-family="Times,serif" font-size="14.00">L3_pol_a output path 1..1</text>
</g>
<!-- l3_pol_a_odir&#45;&gt;trans_pol_a_l3_l4 -->
<g id="edge34" class="edge">
<title>l3_pol_a_odir&#45;&gt;trans_pol_a_l3_l4</title>
<path fill="none" stroke="black" d="M1999.81,-741.63C1999.81,-741.63 2093.89,-741.63 2093.89,-741.63"/>
<polygon fill="black" stroke="black" points="2093.89,-745.13 2103.89,-741.63 2093.89,-738.13 2093.89,-745.13"/>
</g>
<!-- l3_pol_a_man&#45;&gt;trans_pol_a_l3_l4 -->
<g id="edge33" class="edge">
<title>l3_pol_a_man&#45;&gt;trans_pol_a_l3_l4</title>
<path fill="none" stroke="black" d="M1986.05,-536.37C1986.05,-536.37 2093.8,-536.37 2093.8,-536.37"/>
<polygon fill="black" stroke="black" points="2093.8,-539.87 2103.8,-536.37 2093.8,-532.87 2093.8,-539.87"/>
</g>
<!-- l3_pol_a_rec -->
<g id="node33" class="node">
<title>l3_pol_a_rec</title>
<polygon fill="none" stroke="black" points="1943.62,-705 1797.62,-705 1797.62,-681 1943.62,-681 1955.62,-693 1943.62,-705"/>
<text text-anchor="middle" x="1876.62" y="-689.3" font-family="Times,serif" font-size="14.00">L3_pol_a recipe 1..1</text>
</g>
<!-- l3_pol_a_rec&#45;&gt;trans_pol_a_l3_l4 -->
<g id="edge35" class="edge">
<title>l3_pol_a_rec&#45;&gt;trans_pol_a_l3_l4</title>
<path fill="none" stroke="black" d="M1955.72,-693C1955.72,-693 2044.62,-693 2044.62,-693"/>
<polygon fill="black" stroke="black" points="2044.62,-696.5 2054.62,-693 2044.62,-689.5 2044.62,-696.5"/>
</g>
<!-- l3_pol_a_mueller -->
<g id="node34" class="node">
<title>l3_pol_a_mueller</title>
<polygon fill="none" stroke="black" points="1975.12,-651 1766.12,-651 1766.12,-627 1975.12,-627 1987.12,-639 1975.12,-651"/>
<text text-anchor="middle" x="1876.62" y="-635.3" font-family="Times,serif" font-size="14.00">L3_pol_a mueller matrix 1..1</text>
</g>
<!-- l3_pol_a_mueller&#45;&gt;trans_pol_a_l3_l4 -->
<g id="edge36" class="edge">
<title>l3_pol_a_mueller&#45;&gt;trans_pol_a_l3_l4</title>
<path fill="none" stroke="black" d="M1987.26,-639C1987.26,-639 2031.21,-639 2031.21,-639"/>
<polygon fill="black" stroke="black" points="2031.21,-642.5 2041.21,-639 2031.21,-635.5 2031.21,-642.5"/>
</g>
<!-- l4_pol_a_prod&#45;&gt;trans_pol_a_l4_tda -->
<g id="edge40" class="edge">
<title>l4_pol_a_prod&#45;&gt;trans_pol_a_l4_tda</title>
<path fill="none" stroke="black" stroke-dasharray="5,2" d="M2585.96,-693C2585.96,-693 2746.02,-693 2746.02,-693"/>
<polygon fill="black" stroke="black" points="2746.02,-696.5 2756.02,-693 2746.02,-689.5 2746.02,-696.5"/>
</g>
<!-- l4_pol_a_man&#45;&gt;trans_pol_a_l4_tda -->
<g id="edge41" class="edge">
<title>l4_pol_a_man&#45;&gt;trans_pol_a_l4_tda</title>
<path fill="none" stroke="black" d="M2599.22,-593.45C2599.22,-614.37 2599.22,-666.87 2599.22,-666.87 2599.22,-666.87 2785.38,-666.87 2785.38,-666.87"/>
<polygon fill="black" stroke="black" points="2785.38,-670.37 2795.38,-666.87 2785.38,-663.37 2785.38,-670.37"/>
</g>
<!-- l4_pol_a_odir -->
<g id="node39" class="node">
<title>l4_pol_a_odir</title>
<ellipse fill="none" stroke="black" cx="2497.32" cy="-909" rx="128.88" ry="18"/>
<text text-anchor="middle" x="2497.32" y="-905.3" font-family="Times,serif" font-size="14.00">L4_pol_a output path 1..1</text>
</g>
<!-- l4_pol_a_odir&#45;&gt;trans_pol_a_l4_tda -->
<g id="edge42" class="edge">
<title>l4_pol_a_odir&#45;&gt;trans_pol_a_l4_tda</title>
<path fill="none" stroke="black" d="M2601.22,-898.3C2601.22,-890.44 2601.22,-881.13 2601.22,-881.13 2601.22,-881.13 2785.46,-881.13 2785.46,-881.13"/>
<polygon fill="black" stroke="black" points="2785.46,-884.63 2795.46,-881.13 2785.46,-877.63 2785.46,-884.63"/>
</g>
<!-- l4_pol_a_rec -->
<g id="node40" class="node">
<title>l4_pol_a_rec</title>
<polygon fill="none" stroke="black" points="2564.32,-867 2418.32,-867 2418.32,-843 2564.32,-843 2576.32,-855 2564.32,-867"/>
<text text-anchor="middle" x="2497.32" y="-851.3" font-family="Times,serif" font-size="14.00">L4_pol_a recipe 1..1</text>
</g>
<!-- l4_pol_a_rec&#45;&gt;trans_pol_a_l4_tda -->
<g id="edge43" class="edge">
<title>l4_pol_a_rec&#45;&gt;trans_pol_a_l4_tda</title>
<path fill="none" stroke="black" d="M2576.35,-855C2576.35,-855 2745.92,-855 2745.92,-855"/>
<polygon fill="black" stroke="black" points="2745.92,-858.5 2755.92,-855 2745.92,-851.5 2745.92,-858.5"/>
</g>
<!-- l4_pol_a_ctcal -->
<g id="node41" class="node">
<title>l4_pol_a_ctcal</title>
<polygon fill="none" stroke="black" points="2644.82,-813 2337.82,-813 2337.82,-789 2644.82,-789 2656.82,-801 2644.82,-813"/>
<text text-anchor="middle" x="2497.32" y="-797.3" font-family="Times,serif" font-size="14.00">L4_pol_a core throughput calibrations 1..1</text>
</g>
<!-- l4_pol_a_ctcal&#45;&gt;trans_pol_a_l4_tda -->
<g id="edge44" class="edge">
<title>l4_pol_a_ctcal&#45;&gt;trans_pol_a_l4_tda</title>
<path fill="none" stroke="black" d="M2657.22,-801C2657.22,-801 2715.79,-801 2715.79,-801"/>
<polygon fill="black" stroke="black" points="2715.79,-804.5 2725.79,-801 2715.79,-797.5 2715.79,-804.5"/>
</g>
<!-- l4_pol_a_afcal -->
<g id="node42" class="node">
<title>l4_pol_a_afcal</title>
<polygon fill="none" stroke="black" points="2674.82,-759 2307.82,-759 2307.82,-735 2674.82,-735 2686.82,-747 2674.82,-759"/>
<text text-anchor="middle" x="2497.32" y="-743.3" font-family="Times,serif" font-size="14.00">L4_pol_a polarimetric absolute flux calibration 1..1</text>
</g>
<!-- l4_pol_a_afcal&#45;&gt;trans_pol_a_l4_tda -->
<g id="edge45" class="edge">
<title>l4_pol_a_afcal&#45;&gt;trans_pol_a_l4_tda</title>
<path fill="none" stroke="black" d="M2687.13,-747C2687.13,-747 2715.77,-747 2715.77,-747"/>
<polygon fill="black" stroke="black" points="2715.77,-750.5 2725.77,-747 2715.77,-743.5 2715.77,-750.5"/>
</g>
<!-- tda_pol_a_man -->
<g id="node43" class="node">
<title>tda_pol_a_man</title>
<ellipse fill="none" stroke="black" cx="128.69" cy="-288" rx="122.38" ry="18"/>
<text text-anchor="middle" x="128.69" y="-284.3" font-family="Times,serif" font-size="14.00">TDA_pol_a manifest 1..1</text>
</g>
</g>
</svg>
