<?xml version="1.0" encoding="UTF-8" standalone="no"?>
<!DOCTYPE svg PUBLIC "-//W3C//DTD SVG 1.1//EN"
 "http://www.w3.org/Graphics/SVG/1.1/DTD/svg11.dtd">
<!-- Generated by graphviz version 2.43.0 (0)
 -->
<!-- Title: AbstractDesign Pages: 1 -->
<svg width="3685pt" height="1164pt"
 viewBox="0.00 0.00 3685.35 1164.00" xmlns="http://www.w3.org/2000/svg" xmlns:xlink="http://www.w3.org/1999/xlink">
<g id="graph0" class="graph" transform="scale(1 1) rotate(0) translate(4 1160)">
<title>AbstractDesign</title>
<polygon fill="white" stroke="transparent" points="-4,4 -4,-1160 3681.35,-1160 3681.35,4 -4,4"/>
<!-- trans_spec_pc_l1_l2a -->
<g id="node1" class="node">
<title>trans_spec_pc_l1_l2a</title>
<ellipse fill="none" stroke="black" cx="360.7" cy="-126" rx="101.23" ry="101.23"/>
<text text-anchor="middle" x="360.7" y="-129.8" font-family="Times,serif" font-size="14.00">spec_pc Transmutation</text>
<text text-anchor="middle" x="360.7" y="-114.8" font-family="Times,serif" font-size="14.00">L1 to L2a</text>
</g>
<!-- l2a_spec_pc_prod -->
<g id="node13" class="node">
<title>l2a_spec_pc_prod</title>
<polygon fill="none" stroke="black" points="916.88,-248 753.88,-248 753.88,-212 916.88,-212 916.88,-248"/>
<text text-anchor="middle" x="835.38" y="-226.3" font-family="Times,serif" font-size="14.00">L2a_spec_pc products 1..b</text>
</g>
<!-- trans_spec_pc_l1_l2a&#45;&gt;l2a_spec_pc_prod -->
<g id="edge6" class="edge">
<title>trans_spec_pc_l1_l2a&#45;&gt;l2a_spec_pc_prod</title>
<path fill="none" stroke="black" d="M399.14,-219.56C399.14,-219.56 743.87,-219.56 743.87,-219.56"/>
<polygon fill="black" stroke="black" points="743.87,-223.06 753.87,-219.56 743.87,-216.06 743.87,-223.06"/>
</g>
<!-- l2a_spec_pc_man -->
<g id="node14" class="node">
<title>l2a_spec_pc_man</title>
<ellipse fill="none" stroke="black" cx="604.4" cy="-126" rx="106.68" ry="18"/>
<text text-anchor="middle" x="604.4" y="-122.3" font-family="Times,serif" font-size="14.00">L2a_spec_pc manifest 1..1</text>
</g>
<!-- trans_spec_pc_l1_l2a&#45;&gt;l2a_spec_pc_man -->
<g id="edge7" class="edge">
<title>trans_spec_pc_l1_l2a&#45;&gt;l2a_spec_pc_man</title>
<path fill="none" stroke="black" d="M461.93,-126C461.93,-126 487.58,-126 487.58,-126"/>
<polygon fill="black" stroke="black" points="487.58,-129.5 497.58,-126 487.58,-122.5 487.58,-129.5"/>
</g>
<!-- l2a_spec_pc_log -->
<g id="node21" class="node">
<title>l2a_spec_pc_log</title>
<ellipse fill="none" stroke="black" cx="604.4" cy="-72" rx="87.18" ry="18"/>
<text text-anchor="middle" x="604.4" y="-68.3" font-family="Times,serif" font-size="14.00">L2a log_spec_pc 1..1</text>
</g>
<!-- trans_spec_pc_l1_l2a&#45;&gt;l2a_spec_pc_log -->
<g id="edge8" class="edge">
<title>trans_spec_pc_l1_l2a&#45;&gt;l2a_spec_pc_log</title>
<path fill="none" stroke="black" d="M446.28,-72C446.28,-72 506.97,-72 506.97,-72"/>
<polygon fill="black" stroke="black" points="506.97,-75.5 516.97,-72 506.97,-68.5 506.97,-75.5"/>
</g>
<!-- l2a_spec_pc_demux -->
<g id="node2" class="node">
<title>l2a_spec_pc_demux</title>
<ellipse fill="none" stroke="black" cx="835.38" cy="-106" rx="88.28" ry="88.28"/>
<text text-anchor="middle" x="835.38" y="-109.8" font-family="Times,serif" font-size="14.00">spec_pc l2a Demux</text>
<text text-anchor="middle" x="835.38" y="-94.8" font-family="Times,serif" font-size="14.00">Exposure</text>
</g>
<!-- l2a_spec_pc_man_demux -->
<g id="node22" class="node">
<title>l2a_spec_pc_man_demux</title>
<ellipse fill="none" stroke="black" cx="1089.77" cy="-145" rx="117.78" ry="18"/>
<text text-anchor="middle" x="1089.77" y="-141.3" font-family="Times,serif" font-size="14.00">L2a_spec_pc(E) manifest 1..1</text>
</g>
<!-- l2a_spec_pc_demux&#45;&gt;l2a_spec_pc_man_demux -->
<g id="edge20" class="edge">
<title>l2a_spec_pc_demux&#45;&gt;l2a_spec_pc_man_demux</title>
<path fill="none" stroke="black" d="M914.83,-145C914.83,-145 961.78,-145 961.78,-145"/>
<polygon fill="black" stroke="black" points="961.78,-148.5 971.78,-145 961.78,-141.5 961.78,-148.5"/>
</g>
<!-- trans_spec_pc_l2a_l2b -->
<g id="node3" class="node">
<title>trans_spec_pc_l2a_l2b</title>
<ellipse fill="none" stroke="black" cx="1356.89" cy="-337" rx="101.23" ry="101.23"/>
<text text-anchor="middle" x="1356.89" y="-340.8" font-family="Times,serif" font-size="14.00">spec_pc Transmutation</text>
<text text-anchor="middle" x="1356.89" y="-325.8" font-family="Times,serif" font-size="14.00">L2a to L2b</text>
</g>
<!-- l2b_spec_pc_prod -->
<g id="node23" class="node">
<title>l2b_spec_pc_prod</title>
<polygon fill="none" stroke="black" points="1930.58,-452 1766.58,-452 1766.58,-416 1930.58,-416 1930.58,-452"/>
<text text-anchor="middle" x="1848.58" y="-430.3" font-family="Times,serif" font-size="14.00">L2b_spec_pc products 1..1</text>
</g>
<!-- trans_spec_pc_l2a_l2b&#45;&gt;l2b_spec_pc_prod -->
<g id="edge16" class="edge">
<title>trans_spec_pc_l2a_l2b&#45;&gt;l2b_spec_pc_prod</title>
<path fill="none" stroke="black" d="M1403.14,-427.06C1403.14,-427.06 1756.36,-427.06 1756.36,-427.06"/>
<polygon fill="black" stroke="black" points="1756.36,-430.56 1766.36,-427.06 1756.36,-423.56 1756.36,-430.56"/>
</g>
<!-- l2b_spec_pc_man_demux -->
<g id="node30" class="node">
<title>l2b_spec_pc_man_demux</title>
<ellipse fill="none" stroke="black" cx="1612.29" cy="-337" rx="118.08" ry="18"/>
<text text-anchor="middle" x="1612.29" y="-333.3" font-family="Times,serif" font-size="14.00">L2b_spec_pc(E) manifest 1..1</text>
</g>
<!-- trans_spec_pc_l2a_l2b&#45;&gt;l2b_spec_pc_man_demux -->
<g id="edge17" class="edge">
<title>trans_spec_pc_l2a_l2b&#45;&gt;l2b_spec_pc_man_demux</title>
<path fill="none" stroke="black" d="M1458.2,-337C1458.2,-337 1483.8,-337 1483.8,-337"/>
<polygon fill="black" stroke="black" points="1483.8,-340.5 1493.8,-337 1483.8,-333.5 1483.8,-340.5"/>
</g>
<!-- l2b_spec_pc_log -->
<g id="node31" class="node">
<title>l2b_spec_pc_log</title>
<ellipse fill="none" stroke="black" cx="1612.29" cy="-283" rx="87.18" ry="18"/>
<text text-anchor="middle" x="1612.29" y="-279.3" font-family="Times,serif" font-size="14.00">L2b_spec_pc log 1..1</text>
</g>
<!-- trans_spec_pc_l2a_l2b&#45;&gt;l2b_spec_pc_log -->
<g id="edge18" class="edge">
<title>trans_spec_pc_l2a_l2b&#45;&gt;l2b_spec_pc_log</title>
<path fill="none" stroke="black" d="M1442.64,-283C1442.64,-283 1515.02,-283 1515.02,-283"/>
<polygon fill="black" stroke="black" points="1515.02,-286.5 1525.02,-283 1515.02,-279.5 1515.02,-286.5"/>
</g>
<!-- l2b_spec_pc_mux -->
<g id="node4" class="node">
<title>l2b_spec_pc_mux</title>
<ellipse fill="none" stroke="black" cx="1848.58" cy="-320" rx="78.48" ry="78.48"/>
<text text-anchor="middle" x="1848.58" y="-323.8" font-family="Times,serif" font-size="14.00">spec_pc l2b Mux</text>
<text text-anchor="middle" x="1848.58" y="-308.8" font-family="Times,serif" font-size="14.00">Exposure</text>
</g>
<!-- l2b_spec_pc_man -->
<g id="node24" class="node">
<title>l2b_spec_pc_man</title>
<ellipse fill="none" stroke="black" cx="2095.58" cy="-354" rx="106.68" ry="18"/>
<text text-anchor="middle" x="2095.58" y="-350.3" font-family="Times,serif" font-size="14.00">L2b_spec_pc manifest 1..1</text>
</g>
<!-- l2b_spec_pc_mux&#45;&gt;l2b_spec_pc_man -->
<g id="edge23" class="edge">
<title>l2b_spec_pc_mux&#45;&gt;l2b_spec_pc_man</title>
<path fill="none" stroke="black" d="M1919.36,-354C1919.36,-354 1978.87,-354 1978.87,-354"/>
<polygon fill="black" stroke="black" points="1978.87,-357.5 1988.87,-354 1978.87,-350.5 1978.87,-357.5"/>
</g>
<!-- trans_spec_pc_l2b_l3 -->
<g id="node5" class="node">
<title>trans_spec_pc_l2b_l3</title>
<ellipse fill="none" stroke="black" cx="2361.7" cy="-517" rx="101.23" ry="101.23"/>
<text text-anchor="middle" x="2361.7" y="-520.8" font-family="Times,serif" font-size="14.00">spec_pc Transmutation</text>
<text text-anchor="middle" x="2361.7" y="-505.8" font-family="Times,serif" font-size="14.00">L2b to L3</text>
</g>
<!-- l3_spec_pc_prod -->
<g id="node32" class="node">
<title>l3_spec_pc_prod</title>
<polygon fill="none" stroke="black" points="2689.1,-589 2532.1,-589 2532.1,-553 2689.1,-553 2689.1,-589"/>
<text text-anchor="middle" x="2610.6" y="-567.3" font-family="Times,serif" font-size="14.00">L3_spec_pc products 1..1</text>
</g>
<!-- trans_spec_pc_l2b_l3&#45;&gt;l3_spec_pc_prod -->
<g id="edge31" class="edge">
<title>trans_spec_pc_l2b_l3&#45;&gt;l3_spec_pc_prod</title>
<path fill="none" stroke="black" d="M2447.36,-571C2447.36,-571 2521.89,-571 2521.89,-571"/>
<polygon fill="black" stroke="black" points="2521.89,-574.5 2531.89,-571 2521.89,-567.5 2521.89,-574.5"/>
</g>
<!-- l3_spec_pc_man -->
<g id="node34" class="node">
<title>l3_spec_pc_man</title>
<ellipse fill="none" stroke="black" cx="2610.6" cy="-517" rx="102.88" ry="18"/>
<text text-anchor="middle" x="2610.6" y="-513.3" font-family="Times,serif" font-size="14.00">L3_spec_pc manifest 1..1</text>
</g>
<!-- trans_spec_pc_l2b_l3&#45;&gt;l3_spec_pc_man -->
<g id="edge32" class="edge">
<title>trans_spec_pc_l2b_l3&#45;&gt;l3_spec_pc_man</title>
<path fill="none" stroke="black" d="M2462.94,-517C2462.94,-517 2497.84,-517 2497.84,-517"/>
<polygon fill="black" stroke="black" points="2497.84,-520.5 2507.84,-517 2497.84,-513.5 2497.84,-520.5"/>
</g>
<!-- l3_spec_pc_log -->
<g id="node38" class="node">
<title>l3_spec_pc_log</title>
<ellipse fill="none" stroke="black" cx="2610.6" cy="-463" rx="83.39" ry="18"/>
<text text-anchor="middle" x="2610.6" y="-459.3" font-family="Times,serif" font-size="14.00">L3_spec_pc log 1..1</text>
</g>
<!-- trans_spec_pc_l2b_l3&#45;&gt;l3_spec_pc_log -->
<g id="edge33" class="edge">
<title>trans_spec_pc_l2b_l3&#45;&gt;l3_spec_pc_log</title>
<path fill="none" stroke="black" d="M2447.36,-463C2447.36,-463 2517.31,-463 2517.31,-463"/>
<polygon fill="black" stroke="black" points="2517.31,-466.5 2527.31,-463 2517.31,-459.5 2517.31,-466.5"/>
</g>
<!-- trans_spec_pc_l3_l4 -->
<g id="node6" class="node">
<title>trans_spec_pc_l3_l4</title>
<ellipse fill="none" stroke="black" cx="2859.51" cy="-652" rx="101.23" ry="101.23"/>
<text text-anchor="middle" x="2859.51" y="-655.8" font-family="Times,serif" font-size="14.00">spec_pc Transmutation</text>
<text text-anchor="middle" x="2859.51" y="-640.8" font-family="Times,serif" font-size="14.00">L3 to L4</text>
</g>
<!-- l4_spec_pc_prod -->
<g id="node39" class="node">
<title>l4_spec_pc_prod</title>
<polygon fill="none" stroke="black" points="3203.63,-724 3046.63,-724 3046.63,-688 3203.63,-688 3203.63,-724"/>
<text text-anchor="middle" x="3125.13" y="-702.3" font-family="Times,serif" font-size="14.00">L4_spec_pc products 1..1</text>
</g>
<!-- trans_spec_pc_l3_l4&#45;&gt;l4_spec_pc_prod -->
<g id="edge40" class="edge">
<title>trans_spec_pc_l3_l4&#45;&gt;l4_spec_pc_prod</title>
<path fill="none" stroke="black" d="M2945.02,-706C2945.02,-706 3036.54,-706 3036.54,-706"/>
<polygon fill="black" stroke="black" points="3036.54,-709.5 3046.54,-706 3036.54,-702.5 3036.54,-709.5"/>
</g>
<!-- l4_spec_pc_log -->
<g id="node41" class="node">
<title>l4_spec_pc_log</title>
<ellipse fill="none" stroke="black" cx="3125.13" cy="-652" rx="83.39" ry="18"/>
<text text-anchor="middle" x="3125.13" y="-648.3" font-family="Times,serif" font-size="14.00">L4_spec_pc log 1..1</text>
</g>
<!-- trans_spec_pc_l3_l4&#45;&gt;l4_spec_pc_log -->
<g id="edge41" class="edge">
<title>trans_spec_pc_l3_l4&#45;&gt;l4_spec_pc_log</title>
<path fill="none" stroke="black" d="M2960.69,-652C2960.69,-652 3031.93,-652 3031.93,-652"/>
<polygon fill="black" stroke="black" points="3031.93,-655.5 3041.93,-652 3031.93,-648.5 3031.93,-655.5"/>
</g>
<!-- l4_spec_pc_man -->
<g id="node42" class="node">
<title>l4_spec_pc_man</title>
<ellipse fill="none" stroke="black" cx="3125.13" cy="-598" rx="102.88" ry="18"/>
<text text-anchor="middle" x="3125.13" y="-594.3" font-family="Times,serif" font-size="14.00">L4_spec_pc manifest 1..1</text>
</g>
<!-- trans_spec_pc_l3_l4&#45;&gt;l4_spec_pc_man -->
<g id="edge42" class="edge">
<title>trans_spec_pc_l3_l4&#45;&gt;l4_spec_pc_man</title>
<path fill="none" stroke="black" d="M2945.02,-598C2945.02,-598 3012.14,-598 3012.14,-598"/>
<polygon fill="black" stroke="black" points="3012.14,-601.5 3022.14,-598 3012.14,-594.5 3012.14,-601.5"/>
</g>
<!-- trans_spec_pc_l4_tda -->
<g id="node7" class="node">
<title>trans_spec_pc_l4_tda</title>
<ellipse fill="none" stroke="black" cx="3390.74" cy="-895" rx="101.23" ry="101.23"/>
<text text-anchor="middle" x="3390.74" y="-898.8" font-family="Times,serif" font-size="14.00">spec_pc Transmutation</text>
<text text-anchor="middle" x="3390.74" y="-883.8" font-family="Times,serif" font-size="14.00">L4 to TDA</text>
</g>
<!-- tda_spec_pc_prod -->
<g id="node50" class="node">
<title>tda_spec_pc_prod</title>
<ellipse fill="none" stroke="black" cx="3602.6" cy="-922" rx="74.99" ry="18"/>
<text text-anchor="middle" x="3602.6" y="-918.3" font-family="Times,serif" font-size="14.00">tda_spec_pc_prod</text>
</g>
<!-- trans_spec_pc_l4_tda&#45;&gt;tda_spec_pc_prod -->
<g id="edge53" class="edge">
<title>trans_spec_pc_l4_tda&#45;&gt;tda_spec_pc_prod</title>
<path fill="none" stroke="black" d="M3488.3,-922C3488.3,-922 3517.74,-922 3517.74,-922"/>
<polygon fill="black" stroke="black" points="3517.74,-925.5 3527.74,-922 3517.74,-918.5 3517.74,-925.5"/>
</g>
<!-- tda_spec_pc_log -->
<g id="node51" class="node">
<title>tda_spec_pc_log</title>
<ellipse fill="none" stroke="black" cx="3602.6" cy="-868" rx="69.59" ry="18"/>
<text text-anchor="middle" x="3602.6" y="-864.3" font-family="Times,serif" font-size="14.00">tda_spec_pc_log</text>
</g>
<!-- trans_spec_pc_l4_tda&#45;&gt;tda_spec_pc_log -->
<g id="edge54" class="edge">
<title>trans_spec_pc_l4_tda&#45;&gt;tda_spec_pc_log</title>
<path fill="none" stroke="black" d="M3488.3,-868C3488.3,-868 3523.04,-868 3523.04,-868"/>
<polygon fill="black" stroke="black" points="3523.04,-871.5 3533.04,-868 3523.04,-864.5 3523.04,-871.5"/>
</g>
<!-- l1_spec_pc_prod -->
<g id="node8" class="node">
<title>l1_spec_pc_prod</title>
<polygon fill="none" stroke="black" points="190.29,-252 33.29,-252 33.29,-216 190.29,-216 190.29,-252"/>
<text text-anchor="middle" x="111.79" y="-230.3" font-family="Times,serif" font-size="14.00">L1_spec_pc products 1..b</text>
</g>
<!-- l1_spec_pc_prod&#45;&gt;trans_spec_pc_l1_l2a -->
<g id="edge1" class="edge">
<title>l1_spec_pc_prod&#45;&gt;trans_spec_pc_l1_l2a</title>
<path fill="none" stroke="black" d="M190.55,-221.56C190.55,-221.56 317.39,-221.56 317.39,-221.56"/>
<polygon fill="black" stroke="black" points="317.39,-225.06 327.39,-221.56 317.39,-218.06 317.39,-225.06"/>
</g>
<!-- l1_spec_pc_man -->
<g id="node9" class="node">
<title>l1_spec_pc_man</title>
<ellipse fill="none" stroke="black" cx="111.79" cy="-180" rx="102.88" ry="18"/>
<text text-anchor="middle" x="111.79" y="-176.3" font-family="Times,serif" font-size="14.00">L1_spec_pc manifest 1..1</text>
</g>
<!-- l1_spec_pc_man&#45;&gt;trans_spec_pc_l1_l2a -->
<g id="edge2" class="edge">
<title>l1_spec_pc_man&#45;&gt;trans_spec_pc_l1_l2a</title>
<path fill="none" stroke="black" d="M214.83,-180C214.83,-180 265.14,-180 265.14,-180"/>
<polygon fill="black" stroke="black" points="265.14,-183.5 275.14,-180 265.14,-176.5 265.14,-183.5"/>
</g>
<!-- l1_spec_pc_odir -->
<g id="node10" class="node">
<title>l1_spec_pc_odir</title>
<ellipse fill="none" stroke="black" cx="111.79" cy="-126" rx="111.58" ry="18"/>
<text text-anchor="middle" x="111.79" y="-122.3" font-family="Times,serif" font-size="14.00">L1_spec_pc output path 1..1</text>
</g>
<!-- l1_spec_pc_odir&#45;&gt;trans_spec_pc_l1_l2a -->
<g id="edge3" class="edge">
<title>l1_spec_pc_odir&#45;&gt;trans_spec_pc_l1_l2a</title>
<path fill="none" stroke="black" d="M223.86,-126C223.86,-126 249.5,-126 249.5,-126"/>
<polygon fill="black" stroke="black" points="249.5,-129.5 259.5,-126 249.5,-122.5 249.5,-129.5"/>
</g>
<!-- l1_spec_pc_rec -->
<g id="node11" class="node">
<title>l1_spec_pc_rec</title>
<polygon fill="none" stroke="black" points="171.29,-84 40.29,-84 40.29,-60 171.29,-60 183.29,-72 171.29,-84"/>
<text text-anchor="middle" x="111.79" y="-68.3" font-family="Times,serif" font-size="14.00">L1_spec_pc recipe 1..1</text>
</g>
<!-- l1_spec_pc_rec&#45;&gt;trans_spec_pc_l1_l2a -->
<g id="edge4" class="edge">
<title>l1_spec_pc_rec&#45;&gt;trans_spec_pc_l1_l2a</title>
<path fill="none" stroke="black" d="M183.45,-72C183.45,-72 265.01,-72 265.01,-72"/>
<polygon fill="black" stroke="black" points="265.01,-75.5 275.01,-72 265.01,-68.5 265.01,-75.5"/>
</g>
<!-- l1_spec_pc_nln -->
<g id="node12" class="node">
<title>l1_spec_pc_nln</title>
<polygon fill="none" stroke="black" points="208.79,-30 2.79,-30 2.79,-6 208.79,-6 220.79,-18 208.79,-30"/>
<text text-anchor="middle" x="111.79" y="-14.3" font-family="Times,serif" font-size="14.00">L1_spec_pc non&#45;linear &amp; Kgain 1..1</text>
</g>
<!-- l1_spec_pc_nln&#45;&gt;trans_spec_pc_l1_l2a -->
<g id="edge5" class="edge">
<title>l1_spec_pc_nln&#45;&gt;trans_spec_pc_l1_l2a</title>
<path fill="none" stroke="black" d="M220.96,-30.44C220.96,-30.44 317.44,-30.44 317.44,-30.44"/>
<polygon fill="black" stroke="black" points="317.44,-33.94 327.44,-30.44 317.44,-26.94 317.44,-33.94"/>
</g>
<!-- l2a_spec_pc_prod&#45;&gt;trans_spec_pc_l2a_l2b -->
<g id="edge9" class="edge">
<title>l2a_spec_pc_prod&#45;&gt;trans_spec_pc_l2a_l2b</title>
<path fill="none" stroke="black" d="M916.94,-223.94C1063.74,-223.94 1357.35,-223.94 1357.35,-223.94 1357.35,-223.94 1357.35,-225.62 1357.35,-225.62"/>
<polygon fill="black" stroke="black" points="1353.85,-225.62 1357.35,-235.62 1360.85,-225.62 1353.85,-225.62"/>
</g>
<!-- l2a_spec_pc_man&#45;&gt;l2a_spec_pc_demux -->
<g id="edge19" class="edge">
<title>l2a_spec_pc_man&#45;&gt;l2a_spec_pc_demux</title>
<path fill="none" stroke="black" d="M711.1,-126C711.1,-126 739.2,-126 739.2,-126"/>
<polygon fill="black" stroke="black" points="739.2,-129.5 749.2,-126 739.2,-122.5 739.2,-129.5"/>
</g>
<!-- l2a_spec_pc_odir -->
<g id="node15" class="node">
<title>l2a_spec_pc_odir</title>
<ellipse fill="none" stroke="black" cx="1089.77" cy="-526" rx="115.88" ry="18"/>
<text text-anchor="middle" x="1089.77" y="-522.3" font-family="Times,serif" font-size="14.00">L2a_spec_pc output path 1..1</text>
</g>
<!-- l2a_spec_pc_odir&#45;&gt;trans_spec_pc_l2a_l2b -->
<g id="edge10" class="edge">
<title>l2a_spec_pc_odir&#45;&gt;trans_spec_pc_l2a_l2b</title>
<path fill="none" stroke="black" d="M1202.07,-521.5C1287.81,-521.5 1391.35,-521.5 1391.35,-521.5 1391.35,-521.5 1391.35,-442.22 1391.35,-442.22"/>
<polygon fill="black" stroke="black" points="1394.85,-442.22 1391.35,-432.22 1387.85,-442.22 1394.85,-442.22"/>
</g>
<!-- l2a_spec_pc_rec -->
<g id="node16" class="node">
<title>l2a_spec_pc_rec</title>
<polygon fill="none" stroke="black" points="1152.27,-484 1015.27,-484 1015.27,-460 1152.27,-460 1164.27,-472 1152.27,-484"/>
<text text-anchor="middle" x="1089.77" y="-468.3" font-family="Times,serif" font-size="14.00">L2a_spec_pc recipe 1..1</text>
</g>
<!-- l2a_spec_pc_rec&#45;&gt;trans_spec_pc_l2a_l2b -->
<g id="edge11" class="edge">
<title>l2a_spec_pc_rec&#45;&gt;trans_spec_pc_l2a_l2b</title>
<path fill="none" stroke="black" d="M1164.32,-467.5C1232.68,-467.5 1323.35,-467.5 1323.35,-467.5 1323.35,-467.5 1323.35,-442.53 1323.35,-442.53"/>
<polygon fill="black" stroke="black" points="1326.85,-442.53 1323.35,-432.53 1319.85,-442.53 1326.85,-442.53"/>
</g>
<!-- l2a_spec_pc_cti -->
<g id="node17" class="node">
<title>l2a_spec_pc_cti</title>
<polygon fill="none" stroke="black" points="1200.77,-430 966.77,-430 966.77,-406 1200.77,-406 1212.77,-418 1200.77,-430"/>
<text text-anchor="middle" x="1089.77" y="-414.3" font-family="Times,serif" font-size="14.00">L2a_spec_pc charge xfer inefficiency 1..1</text>
</g>
<!-- l2a_spec_pc_cti&#45;&gt;trans_spec_pc_l2a_l2b -->
<g id="edge12" class="edge">
<title>l2a_spec_pc_cti&#45;&gt;trans_spec_pc_l2a_l2b</title>
<path fill="none" stroke="black" d="M1212.77,-418C1212.77,-418 1286.33,-418 1286.33,-418"/>
<polygon fill="black" stroke="black" points="1286.33,-421.5 1296.33,-418 1286.33,-414.5 1286.33,-421.5"/>
</g>
<!-- l2a_spec_pc_dnb -->
<g id="node18" class="node">
<title>l2a_spec_pc_dnb</title>
<polygon fill="none" stroke="black" points="1207.77,-376 959.77,-376 959.77,-352 1207.77,-352 1219.77,-364 1207.77,-376"/>
<text text-anchor="middle" x="1089.77" y="-360.3" font-family="Times,serif" font-size="14.00">L2a_spec_pc detector noise background 1..1</text>
</g>
<!-- l2a_spec_pc_dnb&#45;&gt;trans_spec_pc_l2a_l2b -->
<g id="edge13" class="edge">
<title>l2a_spec_pc_dnb&#45;&gt;trans_spec_pc_l2a_l2b</title>
<path fill="none" stroke="black" d="M1219.81,-364C1219.81,-364 1249.23,-364 1249.23,-364"/>
<polygon fill="black" stroke="black" points="1249.23,-367.5 1259.23,-364 1249.23,-360.5 1249.23,-367.5"/>
</g>
<!-- l2a_spec_pc_mbpm -->
<g id="node19" class="node">
<title>l2a_spec_pc_mbpm</title>
<polygon fill="none" stroke="black" points="1195.27,-322 972.27,-322 972.27,-298 1195.27,-298 1207.27,-310 1195.27,-322"/>
<text text-anchor="middle" x="1089.77" y="-306.3" font-family="Times,serif" font-size="14.00">L2a_spec_pc master bad pixel map 1..1</text>
</g>
<!-- l2a_spec_pc_mbpm&#45;&gt;trans_spec_pc_l2a_l2b -->
<g id="edge14" class="edge">
<title>l2a_spec_pc_mbpm&#45;&gt;trans_spec_pc_l2a_l2b</title>
<path fill="none" stroke="black" d="M1207.32,-310C1207.32,-310 1249.29,-310 1249.29,-310"/>
<polygon fill="black" stroke="black" points="1249.29,-313.5 1259.29,-310 1249.29,-306.5 1249.29,-313.5"/>
</g>
<!-- l2a_spec_pc_emg -->
<g id="node20" class="node">
<title>l2a_spec_pc_emg</title>
<polygon fill="none" stroke="black" points="1159.77,-268 1007.77,-268 1007.77,-244 1159.77,-244 1171.77,-256 1159.77,-268"/>
<text text-anchor="middle" x="1089.77" y="-252.3" font-family="Times,serif" font-size="14.00">L2a_spec_pc EM gain 1..1</text>
</g>
<!-- l2a_spec_pc_emg&#45;&gt;trans_spec_pc_l2a_l2b -->
<g id="edge15" class="edge">
<title>l2a_spec_pc_emg&#45;&gt;trans_spec_pc_l2a_l2b</title>
<path fill="none" stroke="black" d="M1172.09,-262C1172.09,-262 1278.74,-262 1278.74,-262"/>
<polygon fill="black" stroke="black" points="1278.74,-265.5 1288.74,-262 1278.74,-258.5 1278.74,-265.5"/>
</g>
<!-- l2a_spec_pc_man_demux&#45;&gt;trans_spec_pc_l2a_l2b -->
<g id="edge21" class="edge">
<title>l2a_spec_pc_man_demux&#45;&gt;trans_spec_pc_l2a_l2b</title>
<path fill="none" stroke="black" d="M1190.35,-154.69C1190.35,-180.68 1190.35,-250 1190.35,-250 1190.35,-250 1295.11,-250 1295.11,-250"/>
<polygon fill="black" stroke="black" points="1295.11,-253.5 1305.11,-250 1295.11,-246.5 1295.11,-253.5"/>
</g>
<!-- l2b_spec_pc_prod&#45;&gt;trans_spec_pc_l2b_l3 -->
<g id="edge24" class="edge">
<title>l2b_spec_pc_prod&#45;&gt;trans_spec_pc_l2b_l3</title>
<path fill="none" stroke="black" d="M1930.74,-430.5C1930.74,-430.5 2299.16,-430.5 2299.16,-430.5"/>
<polygon fill="black" stroke="black" points="2299.16,-434 2309.16,-430.5 2299.16,-427 2299.16,-434"/>
</g>
<!-- l2b_spec_pc_man&#45;&gt;trans_spec_pc_l2b_l3 -->
<g id="edge25" class="edge">
<title>l2b_spec_pc_man&#45;&gt;trans_spec_pc_l2b_l3</title>
<path fill="none" stroke="black" d="M2202.55,-354C2276.76,-354 2362.35,-354 2362.35,-354 2362.35,-354 2362.35,-405.62 2362.35,-405.62"/>
<polygon fill="black" stroke="black" points="2358.85,-405.62 2362.35,-415.62 2365.85,-405.62 2358.85,-405.62"/>
</g>
<!-- l2b_spec_pc_odir -->
<g id="node25" class="node">
<title>l2b_spec_pc_odir</title>
<ellipse fill="none" stroke="black" cx="2095.58" cy="-679" rx="116.18" ry="18"/>
<text text-anchor="middle" x="2095.58" y="-675.3" font-family="Times,serif" font-size="14.00">L2b_spec_pc output path 1..1</text>
</g>
<!-- l2b_spec_pc_odir&#45;&gt;trans_spec_pc_l2b_l3 -->
<g id="edge26" class="edge">
<title>l2b_spec_pc_odir&#45;&gt;trans_spec_pc_l2b_l3</title>
<path fill="none" stroke="black" d="M2191.35,-668.62C2191.35,-650.36 2191.35,-614.41 2191.35,-614.41 2191.35,-614.41 2324.33,-614.41 2324.33,-614.41"/>
<polygon fill="black" stroke="black" points="2324.33,-617.91 2334.33,-614.41 2324.33,-610.91 2324.33,-617.91"/>
</g>
<!-- l2b_spec_pc_rec -->
<g id="node26" class="node">
<title>l2b_spec_pc_rec</title>
<polygon fill="none" stroke="black" points="2158.58,-637 2020.58,-637 2020.58,-613 2158.58,-613 2170.58,-625 2158.58,-637"/>
<text text-anchor="middle" x="2095.58" y="-621.3" font-family="Times,serif" font-size="14.00">L2b_spec_pc recipe 1..1</text>
</g>
<!-- l2b_spec_pc_rec&#45;&gt;trans_spec_pc_l2b_l3 -->
<g id="edge27" class="edge">
<title>l2b_spec_pc_rec&#45;&gt;trans_spec_pc_l2b_l3</title>
<path fill="none" stroke="black" d="M2170.77,-610.71C2170.77,-610.71 2313.52,-610.71 2313.52,-610.71"/>
<polygon fill="black" stroke="black" points="2313.52,-614.21 2323.52,-610.71 2313.52,-607.21 2313.52,-614.21"/>
</g>
<!-- l2b_spec_pc_excicrf -->
<g id="node27" class="node">
<title>l2b_spec_pc_excicrf</title>
<polygon fill="none" stroke="black" points="2207.58,-583 1971.58,-583 1971.58,-559 2207.58,-559 2219.58,-571 2207.58,-583"/>
<text text-anchor="middle" x="2095.58" y="-567.3" font-family="Times,serif" font-size="14.00">L2b_spec_pc EXCAM ICRF location 1..1</text>
</g>
<!-- l2b_spec_pc_excicrf&#45;&gt;trans_spec_pc_l2b_l3 -->
<g id="edge28" class="edge">
<title>l2b_spec_pc_excicrf&#45;&gt;trans_spec_pc_l2b_l3</title>
<path fill="none" stroke="black" d="M2219.68,-571C2219.68,-571 2266.16,-571 2266.16,-571"/>
<polygon fill="black" stroke="black" points="2266.16,-574.5 2276.16,-571 2266.16,-567.5 2266.16,-574.5"/>
</g>
<!-- l2b_spec_pc_excfovps -->
<g id="node28" class="node">
<title>l2b_spec_pc_excfovps</title>
<polygon fill="none" stroke="black" points="2212.58,-529 1966.58,-529 1966.58,-505 2212.58,-505 2224.58,-517 2212.58,-529"/>
<text text-anchor="middle" x="2095.58" y="-513.3" font-family="Times,serif" font-size="14.00">L2b_spec_pc EXCAM FOV pixel scale 1..1</text>
</g>
<!-- l2b_spec_pc_excfovps&#45;&gt;trans_spec_pc_l2b_l3 -->
<g id="edge29" class="edge">
<title>l2b_spec_pc_excfovps&#45;&gt;trans_spec_pc_l2b_l3</title>
<path fill="none" stroke="black" d="M2224.74,-517C2224.74,-517 2250.24,-517 2250.24,-517"/>
<polygon fill="black" stroke="black" points="2250.24,-520.5 2260.24,-517 2250.24,-513.5 2250.24,-520.5"/>
</g>
<!-- l2b_spec_pc_cfamfo -->
<g id="node29" class="node">
<title>l2b_spec_pc_cfamfo</title>
<polygon fill="none" stroke="black" points="2196.58,-475 1982.58,-475 1982.58,-451 2196.58,-451 2208.58,-463 2196.58,-475"/>
<text text-anchor="middle" x="2095.58" y="-459.3" font-family="Times,serif" font-size="14.00">L2b_spec_pc CFAM filter offsets 1..1</text>
</g>
<!-- l2b_spec_pc_cfamfo&#45;&gt;trans_spec_pc_l2b_l3 -->
<g id="edge30" class="edge">
<title>l2b_spec_pc_cfamfo&#45;&gt;trans_spec_pc_l2b_l3</title>
<path fill="none" stroke="black" d="M2208.83,-463C2208.83,-463 2265.97,-463 2265.97,-463"/>
<polygon fill="black" stroke="black" points="2265.97,-466.5 2275.97,-463 2265.97,-459.5 2265.97,-466.5"/>
</g>
<!-- l2b_spec_pc_man_demux&#45;&gt;l2b_spec_pc_mux -->
<g id="edge22" class="edge">
<title>l2b_spec_pc_man_demux&#45;&gt;l2b_spec_pc_mux</title>
<path fill="none" stroke="black" d="M1730.78,-337C1730.78,-337 1761.79,-337 1761.79,-337"/>
<polygon fill="black" stroke="black" points="1761.79,-340.5 1771.79,-337 1761.79,-333.5 1761.79,-340.5"/>
</g>
<!-- l3_spec_pc_prod&#45;&gt;trans_spec_pc_l3_l4 -->
<g id="edge34" class="edge">
<title>l3_spec_pc_prod&#45;&gt;trans_spec_pc_l3_l4</title>
<path fill="none" stroke="black" d="M2689.36,-577C2689.36,-577 2781.33,-577 2781.33,-577"/>
<polygon fill="black" stroke="black" points="2781.33,-580.5 2791.33,-577 2781.33,-573.5 2781.33,-580.5"/>
</g>
<!-- l3_spec_pc_odir -->
<g id="node33" class="node">
<title>l3_spec_pc_odir</title>
<ellipse fill="none" stroke="black" cx="2610.6" cy="-787" rx="111.58" ry="18"/>
<text text-anchor="middle" x="2610.6" y="-783.3" font-family="Times,serif" font-size="14.00">L3_spec_pc output path 1..1</text>
</g>
<!-- l3_spec_pc_odir&#45;&gt;trans_spec_pc_l3_l4 -->
<g id="edge36" class="edge">
<title>l3_spec_pc_odir&#45;&gt;trans_spec_pc_l3_l4</title>
<path fill="none" stroke="black" d="M2718.35,-781.86C2718.35,-769.48 2718.35,-739 2718.35,-739 2718.35,-739 2797.75,-739 2797.75,-739"/>
<polygon fill="black" stroke="black" points="2797.75,-742.5 2807.75,-739 2797.75,-735.5 2797.75,-742.5"/>
</g>
<!-- l3_spec_pc_man&#45;&gt;trans_spec_pc_l3_l4 -->
<g id="edge35" class="edge">
<title>l3_spec_pc_man&#45;&gt;trans_spec_pc_l3_l4</title>
<path fill="none" stroke="black" d="M2700.35,-525.8C2700.35,-539.66 2700.35,-565 2700.35,-565 2700.35,-565 2797.83,-565 2797.83,-565"/>
<polygon fill="black" stroke="black" points="2797.83,-568.5 2807.83,-565 2797.83,-561.5 2797.83,-568.5"/>
</g>
<!-- l3_spec_pc_rec -->
<g id="node35" class="node">
<title>l3_spec_pc_rec</title>
<polygon fill="none" stroke="black" points="2670.1,-745 2539.1,-745 2539.1,-721 2670.1,-721 2682.1,-733 2670.1,-745"/>
<text text-anchor="middle" x="2610.6" y="-729.3" font-family="Times,serif" font-size="14.00">L3_spec_pc recipe 1..1</text>
</g>
<!-- l3_spec_pc_rec&#45;&gt;trans_spec_pc_l3_l4 -->
<g id="edge37" class="edge">
<title>l3_spec_pc_rec&#45;&gt;trans_spec_pc_l3_l4</title>
<path fill="none" stroke="black" d="M2682.26,-727C2682.26,-727 2781.35,-727 2781.35,-727"/>
<polygon fill="black" stroke="black" points="2781.35,-730.5 2791.35,-727 2781.35,-723.5 2781.35,-730.5"/>
</g>
<!-- l3_spec_pc_dispm -->
<g id="node36" class="node">
<title>l3_spec_pc_dispm</title>
<polygon fill="none" stroke="black" points="2700.6,-691 2508.6,-691 2508.6,-667 2700.6,-667 2712.6,-679 2700.6,-691"/>
<text text-anchor="middle" x="2610.6" y="-675.3" font-family="Times,serif" font-size="14.00">L3_spec_pc dispersion model 1..1</text>
</g>
<!-- l3_spec_pc_dispm&#45;&gt;trans_spec_pc_l3_l4 -->
<g id="edge38" class="edge">
<title>l3_spec_pc_dispm&#45;&gt;trans_spec_pc_l3_l4</title>
<path fill="none" stroke="black" d="M2712.92,-679C2712.92,-679 2752,-679 2752,-679"/>
<polygon fill="black" stroke="black" points="2752,-682.5 2762,-679 2752,-675.5 2752,-682.5"/>
</g>
<!-- l3_spec_pc_wavem -->
<g id="node37" class="node">
<title>l3_spec_pc_wavem</title>
<polygon fill="none" stroke="black" points="2698.6,-637 2510.6,-637 2510.6,-613 2698.6,-613 2710.6,-625 2698.6,-637"/>
<text text-anchor="middle" x="2610.6" y="-621.3" font-family="Times,serif" font-size="14.00">L3_spec_pc wavelength map 1..1</text>
</g>
<!-- l3_spec_pc_wavem&#45;&gt;trans_spec_pc_l3_l4 -->
<g id="edge39" class="edge">
<title>l3_spec_pc_wavem&#45;&gt;trans_spec_pc_l3_l4</title>
<path fill="none" stroke="black" d="M2710.77,-625C2710.77,-625 2751.98,-625 2751.98,-625"/>
<polygon fill="black" stroke="black" points="2751.98,-628.5 2761.98,-625 2751.98,-621.5 2751.98,-628.5"/>
</g>
<!-- l4_spec_pc_prod&#45;&gt;trans_spec_pc_l4_tda -->
<g id="edge43" class="edge">
<title>l4_spec_pc_prod&#45;&gt;trans_spec_pc_l4_tda</title>
<path fill="none" stroke="black" d="M3203.92,-706C3282.42,-706 3391.35,-706 3391.35,-706 3391.35,-706 3391.35,-783.86 3391.35,-783.86"/>
<polygon fill="black" stroke="black" points="3387.85,-783.86 3391.35,-793.86 3394.85,-783.86 3387.85,-783.86"/>
</g>
<!-- l4_spec_pc_odir -->
<g id="node40" class="node">
<title>l4_spec_pc_odir</title>
<ellipse fill="none" stroke="black" cx="3125.13" cy="-1138" rx="111.58" ry="18"/>
<text text-anchor="middle" x="3125.13" y="-1134.3" font-family="Times,serif" font-size="14.00">L4_spec_pc output path 1..1</text>
</g>
<!-- l4_spec_pc_odir&#45;&gt;trans_spec_pc_l4_tda -->
<g id="edge45" class="edge">
<title>l4_spec_pc_odir&#45;&gt;trans_spec_pc_l4_tda</title>
<path fill="none" stroke="black" d="M3236.92,-1138C3322.27,-1138 3425.35,-1138 3425.35,-1138 3425.35,-1138 3425.35,-1000.34 3425.35,-1000.34"/>
<polygon fill="black" stroke="black" points="3428.85,-1000.34 3425.35,-990.34 3421.85,-1000.34 3428.85,-1000.34"/>
</g>
<!-- l4_spec_pc_man&#45;&gt;trans_spec_pc_l4_tda -->
<g id="edge44" class="edge">
<title>l4_spec_pc_man&#45;&gt;trans_spec_pc_l4_tda</title>
<path fill="none" stroke="black" d="M3228.23,-598C3320.51,-598 3441.35,-598 3441.35,-598 3441.35,-598 3441.35,-797.1 3441.35,-797.1"/>
<polygon fill="black" stroke="black" points="3437.85,-797.1 3441.35,-807.1 3444.85,-797.1 3437.85,-797.1"/>
</g>
<!-- l4_spec_pc_rec -->
<g id="node43" class="node">
<title>l4_spec_pc_rec</title>
<polygon fill="none" stroke="black" points="3184.63,-1096 3053.63,-1096 3053.63,-1072 3184.63,-1072 3196.63,-1084 3184.63,-1096"/>
<text text-anchor="middle" x="3125.13" y="-1080.3" font-family="Times,serif" font-size="14.00">L4_spec_pc recipe 1..1</text>
</g>
<!-- l4_spec_pc_rec&#45;&gt;trans_spec_pc_l4_tda -->
<g id="edge46" class="edge">
<title>l4_spec_pc_rec&#45;&gt;trans_spec_pc_l4_tda</title>
<path fill="none" stroke="black" d="M3196.7,-1084C3264.93,-1084 3357.35,-1084 3357.35,-1084 3357.35,-1084 3357.35,-1000.61 3357.35,-1000.61"/>
<polygon fill="black" stroke="black" points="3360.85,-1000.61 3357.35,-990.61 3353.85,-1000.61 3360.85,-1000.61"/>
</g>
<!-- l4_spec_pc_afcal -->
<g id="node44" class="node">
<title>l4_spec_pc_afcal</title>
<polygon fill="none" stroke="black" points="3237.13,-1042 3001.13,-1042 3001.13,-1018 3237.13,-1018 3249.13,-1030 3237.13,-1042"/>
<text text-anchor="middle" x="3125.13" y="-1026.3" font-family="Times,serif" font-size="14.00">L4_spec_pc absolute flux calibrations 1..1</text>
</g>
<!-- l4_spec_pc_afcal&#45;&gt;trans_spec_pc_l4_tda -->
<g id="edge47" class="edge">
<title>l4_spec_pc_afcal&#45;&gt;trans_spec_pc_l4_tda</title>
<path fill="none" stroke="black" d="M3222.35,-1011.85C3222.35,-998.26 3222.35,-982 3222.35,-982 3222.35,-982 3328.84,-982 3328.84,-982"/>
<polygon fill="black" stroke="black" points="3328.84,-985.5 3338.84,-982 3328.84,-978.5 3328.84,-985.5"/>
</g>
<!-- l4_spec_pc_ndfilt -->
<g id="node45" class="node">
<title>l4_spec_pc_ndfilt</title>
<polygon fill="none" stroke="black" points="3193.13,-988 3045.13,-988 3045.13,-964 3193.13,-964 3205.13,-976 3193.13,-988"/>
<text text-anchor="middle" x="3125.13" y="-972.3" font-family="Times,serif" font-size="14.00">L4_spec_pc ND filter 1..1</text>
</g>
<!-- l4_spec_pc_ndfilt&#45;&gt;trans_spec_pc_l4_tda -->
<g id="edge48" class="edge">
<title>l4_spec_pc_ndfilt&#45;&gt;trans_spec_pc_l4_tda</title>
<path fill="none" stroke="black" d="M3205.18,-970C3205.18,-970 3312.52,-970 3312.52,-970"/>
<polygon fill="black" stroke="black" points="3312.52,-973.5 3322.52,-970 3312.52,-966.5 3312.52,-973.5"/>
</g>
<!-- l4_spec_pc_stmap -->
<g id="node46" class="node">
<title>l4_spec_pc_stmap</title>
<polygon fill="none" stroke="black" points="3226.63,-934 3011.63,-934 3011.63,-910 3226.63,-910 3238.63,-922 3226.63,-934"/>
<text text-anchor="middle" x="3125.13" y="-918.3" font-family="Times,serif" font-size="14.00">L4_spec_pc slit transmission map 1..1</text>
</g>
<!-- l4_spec_pc_stmap&#45;&gt;trans_spec_pc_l4_tda -->
<g id="edge49" class="edge">
<title>l4_spec_pc_stmap&#45;&gt;trans_spec_pc_l4_tda</title>
<path fill="none" stroke="black" d="M3238.93,-922C3238.93,-922 3283.06,-922 3283.06,-922"/>
<polygon fill="black" stroke="black" points="3283.06,-925.5 3293.06,-922 3283.06,-918.5 3283.06,-925.5"/>
</g>
<!-- l4_spec_pc_tspi -->
<g id="node47" class="node">
<title>l4_spec_pc_tspi</title>
<polygon fill="none" stroke="black" points="3231.63,-880 3006.63,-880 3006.63,-856 3231.63,-856 3243.63,-868 3231.63,-880"/>
<text text-anchor="middle" x="3125.13" y="-864.3" font-family="Times,serif" font-size="14.00">L4_spec_pc target star prism image 1..1</text>
</g>
<!-- l4_spec_pc_tspi&#45;&gt;trans_spec_pc_l4_tda -->
<g id="edge50" class="edge">
<title>l4_spec_pc_tspi&#45;&gt;trans_spec_pc_l4_tda</title>
<path fill="none" stroke="black" d="M3243.95,-868C3243.95,-868 3283.11,-868 3283.11,-868"/>
<polygon fill="black" stroke="black" points="3283.11,-871.5 3293.11,-868 3283.11,-864.5 3283.11,-871.5"/>
</g>
<!-- l4_spec_pc_rspi -->
<g id="node48" class="node">
<title>l4_spec_pc_rspi</title>
<polygon fill="none" stroke="black" points="3241.63,-826 2996.63,-826 2996.63,-802 3241.63,-802 3253.63,-814 3241.63,-826"/>
<text text-anchor="middle" x="3125.13" y="-810.3" font-family="Times,serif" font-size="14.00">L4_spec_pc reference star prism image 1..1</text>
</g>
<!-- l4_spec_pc_rspi&#45;&gt;trans_spec_pc_l4_tda -->
<g id="edge51" class="edge">
<title>l4_spec_pc_rspi&#45;&gt;trans_spec_pc_l4_tda</title>
<path fill="none" stroke="black" d="M3253.66,-814C3253.66,-814 3319.91,-814 3319.91,-814"/>
<polygon fill="black" stroke="black" points="3319.91,-817.5 3329.91,-814 3319.91,-810.5 3319.91,-817.5"/>
</g>
<!-- l4_spec_pc_lsf -->
<g id="node49" class="node">
<title>l4_spec_pc_lsf</title>
<polygon fill="none" stroke="black" points="3222.13,-772 3016.13,-772 3016.13,-748 3222.13,-748 3234.13,-760 3222.13,-772"/>
<text text-anchor="middle" x="3125.13" y="-756.3" font-family="Times,serif" font-size="14.00">L4_spec_pc line spread function 1..1</text>
</g>
<!-- l4_spec_pc_lsf&#45;&gt;trans_spec_pc_l4_tda -->
<g id="edge52" class="edge">
<title>l4_spec_pc_lsf&#45;&gt;trans_spec_pc_l4_tda</title>
<path fill="none" stroke="black" d="M3234.31,-760C3287.59,-760 3340.35,-760 3340.35,-760 3340.35,-760 3340.35,-797.22 3340.35,-797.22"/>
<polygon fill="black" stroke="black" points="3336.85,-797.22 3340.35,-807.22 3343.85,-797.22 3336.85,-797.22"/>
</g>
</g>
</svg>
