<?xml version="1.0" encoding="UTF-8" standalone="no"?>
<!DOCTYPE svg PUBLIC "-//W3C//DTD SVG 1.1//EN"
 "http://www.w3.org/Graphics/SVG/1.1/DTD/svg11.dtd">
<!-- Generated by graphviz version 2.43.0 (0)
 -->
<!-- Title: SpectroscopyAnalog Pages: 1 -->
<svg width="4313pt" height="1205pt"
 viewBox="0.00 0.00 4313.44 1205.00" xmlns="http://www.w3.org/2000/svg" xmlns:xlink="http://www.w3.org/1999/xlink">
<g id="graph0" class="graph" transform="scale(1 1) rotate(0) translate(4 1201)">
<title>SpectroscopyAnalog</title>
<polygon fill="white" stroke="transparent" points="-4,4 -4,-1201 4309.44,-1201 4309.44,4 -4,4"/>
<!-- trans_spec_a_l1_l2a -->
<g id="node1" class="node">
<title>trans_spec_a_l1_l2a</title>
<ellipse fill="none" stroke="black" cx="430.01" cy="-126" rx="122.16" ry="122.16"/>
<text text-anchor="middle" x="430.01" y="-129.8" font-family="Times,serif" font-size="14.00">spec_a Transmutation</text>
<text text-anchor="middle" x="430.01" y="-114.8" font-family="Times,serif" font-size="14.00">L1 to L2a</text>
</g>
<!-- l2a_spec_a_prod -->
<g id="node13" class="node">
<title>l2a_spec_a_prod</title>
<polygon fill="none" stroke="black" points="1078.34,-260 882.34,-260 882.34,-224 1078.34,-224 1078.34,-260"/>
<text text-anchor="middle" x="980.34" y="-238.3" font-family="Times,serif" font-size="14.00">L2a_spec_a products 1..b</text>
</g>
<!-- trans_spec_a_l1_l2a&#45;&gt;l2a_spec_a_prod -->
<g id="edge6" class="edge">
<title>trans_spec_a_l1_l2a&#45;&gt;l2a_spec_a_prod</title>
<path fill="none" stroke="black" d="M483.27,-236.16C483.27,-236.16 872.34,-236.16 872.34,-236.16"/>
<polygon fill="black" stroke="black" points="872.34,-239.66 882.34,-236.16 872.34,-232.66 872.34,-239.66"/>
</g>
<!-- l2a_spec_a_man -->
<g id="node14" class="node">
<title>l2a_spec_a_man</title>
<ellipse fill="none" stroke="black" cx="715.07" cy="-126" rx="126.98" ry="18"/>
<text text-anchor="middle" x="715.07" y="-122.3" font-family="Times,serif" font-size="14.00">L2a_spec_a manifest 1..1</text>
</g>
<!-- trans_spec_a_l1_l2a&#45;&gt;l2a_spec_a_man -->
<g id="edge7" class="edge">
<title>trans_spec_a_l1_l2a&#45;&gt;l2a_spec_a_man</title>
<path fill="none" stroke="black" d="M552.55,-126C552.55,-126 578.09,-126 578.09,-126"/>
<polygon fill="black" stroke="black" points="578.09,-129.5 588.09,-126 578.09,-122.5 578.09,-129.5"/>
</g>
<!-- l2a_spec_a_log -->
<g id="node22" class="node">
<title>l2a_spec_a_log</title>
<ellipse fill="none" stroke="black" cx="715.07" cy="-72" rx="100.98" ry="18"/>
<text text-anchor="middle" x="715.07" y="-68.3" font-family="Times,serif" font-size="14.00">L2a log_spec_a 1..1</text>
</g>
<!-- trans_spec_a_l1_l2a&#45;&gt;l2a_spec_a_log -->
<g id="edge8" class="edge">
<title>trans_spec_a_l1_l2a&#45;&gt;l2a_spec_a_log</title>
<path fill="none" stroke="black" d="M539.81,-72C539.81,-72 604.2,-72 604.2,-72"/>
<polygon fill="black" stroke="black" points="604.2,-75.5 614.2,-72 604.2,-68.5 604.2,-75.5"/>
</g>
<!-- l2a_spec_a_demux -->
<g id="node2" class="node">
<title>l2a_spec_a_demux</title>
<ellipse fill="none" stroke="black" cx="980.34" cy="-103" rx="102.56" ry="102.56"/>
<text text-anchor="middle" x="980.34" y="-106.8" font-family="Times,serif" font-size="14.00">spec_a l2a Demux</text>
<text text-anchor="middle" x="980.34" y="-91.8" font-family="Times,serif" font-size="14.00">Exposure</text>
</g>
<!-- l2a_spec_a_man_demux -->
<g id="node23" class="node">
<title>l2a_spec_a_man_demux</title>
<ellipse fill="none" stroke="black" cx="1268.87" cy="-149" rx="140.28" ry="18"/>
<text text-anchor="middle" x="1268.87" y="-145.3" font-family="Times,serif" font-size="14.00">L2a_spec_a(E) manifest 1..1</text>
</g>
<!-- l2a_spec_a_demux&#45;&gt;l2a_spec_a_man_demux -->
<g id="edge21" class="edge">
<title>l2a_spec_a_demux&#45;&gt;l2a_spec_a_man_demux</title>
<path fill="none" stroke="black" d="M1072.03,-149C1072.03,-149 1118.43,-149 1118.43,-149"/>
<polygon fill="black" stroke="black" points="1118.43,-152.5 1128.43,-149 1118.43,-145.5 1118.43,-152.5"/>
</g>
<!-- trans_spec_a_l2a_l2b -->
<g id="node3" class="node">
<title>trans_spec_a_l2a_l2b</title>
<ellipse fill="none" stroke="black" cx="1577.2" cy="-372" rx="122.16" ry="122.16"/>
<text text-anchor="middle" x="1577.2" y="-375.8" font-family="Times,serif" font-size="14.00">spec_a Transmutation</text>
<text text-anchor="middle" x="1577.2" y="-360.8" font-family="Times,serif" font-size="14.00">L2a to L2b</text>
</g>
<!-- l2b_spec_a_prod -->
<g id="node24" class="node">
<title>l2b_spec_a_prod</title>
<polygon fill="none" stroke="black" points="2250.61,-496 2053.61,-496 2053.61,-460 2250.61,-460 2250.61,-496"/>
<text text-anchor="middle" x="2152.11" y="-474.3" font-family="Times,serif" font-size="14.00">L2b_spec_a products 1..1</text>
</g>
<!-- trans_spec_a_l2a_l2b&#45;&gt;l2b_spec_a_prod -->
<g id="edge17" class="edge">
<title>trans_spec_a_l2a_l2b&#45;&gt;l2b_spec_a_prod</title>
<path fill="none" stroke="black" d="M1639.82,-477.16C1639.82,-477.16 2043.36,-477.16 2043.36,-477.16"/>
<polygon fill="black" stroke="black" points="2043.36,-480.66 2053.36,-477.16 2043.36,-473.66 2043.36,-480.66"/>
</g>
<!-- l2b_spec_a_man_demux -->
<g id="node31" class="node">
<title>l2b_spec_a_man_demux</title>
<ellipse fill="none" stroke="black" cx="1876.57" cy="-372" rx="141.07" ry="18"/>
<text text-anchor="middle" x="1876.57" y="-368.3" font-family="Times,serif" font-size="14.00">L2b_spec_a(E) manifest 1..1</text>
</g>
<!-- trans_spec_a_l2a_l2b&#45;&gt;l2b_spec_a_man_demux -->
<g id="edge18" class="edge">
<title>trans_spec_a_l2a_l2b&#45;&gt;l2b_spec_a_man_demux</title>
<path fill="none" stroke="black" d="M1699.83,-372C1699.83,-372 1725.09,-372 1725.09,-372"/>
<polygon fill="black" stroke="black" points="1725.09,-375.5 1735.09,-372 1725.09,-368.5 1725.09,-375.5"/>
</g>
<!-- l2b_spec_a_log -->
<g id="node32" class="node">
<title>l2b_spec_a_log</title>
<ellipse fill="none" stroke="black" cx="1876.57" cy="-318" rx="100.98" ry="18"/>
<text text-anchor="middle" x="1876.57" y="-314.3" font-family="Times,serif" font-size="14.00">L2b_spec_a log 1..1</text>
</g>
<!-- trans_spec_a_l2a_l2b&#45;&gt;l2b_spec_a_log -->
<g id="edge19" class="edge">
<title>trans_spec_a_l2a_l2b&#45;&gt;l2b_spec_a_log</title>
<path fill="none" stroke="black" d="M1686.98,-318C1686.98,-318 1765.75,-318 1765.75,-318"/>
<polygon fill="black" stroke="black" points="1765.75,-321.5 1775.75,-318 1765.75,-314.5 1765.75,-321.5"/>
</g>
<!-- l2b_spec_a_mux -->
<g id="node4" class="node">
<title>l2b_spec_a_mux</title>
<ellipse fill="none" stroke="black" cx="2152.11" cy="-352" rx="89.61" ry="89.61"/>
<text text-anchor="middle" x="2152.11" y="-355.8" font-family="Times,serif" font-size="14.00">spec_a l2b Mux</text>
<text text-anchor="middle" x="2152.11" y="-340.8" font-family="Times,serif" font-size="14.00">Exposure</text>
</g>
<!-- l2b_spec_a_man -->
<g id="node25" class="node">
<title>l2b_spec_a_man</title>
<ellipse fill="none" stroke="black" cx="2438.11" cy="-392" rx="127.28" ry="18"/>
<text text-anchor="middle" x="2438.11" y="-388.3" font-family="Times,serif" font-size="14.00">L2b_spec_a manifest 1..1</text>
</g>
<!-- l2b_spec_a_mux&#45;&gt;l2b_spec_a_man -->
<g id="edge24" class="edge">
<title>l2b_spec_a_mux&#45;&gt;l2b_spec_a_man</title>
<path fill="none" stroke="black" d="M2232.54,-392C2232.54,-392 2300.67,-392 2300.67,-392"/>
<polygon fill="black" stroke="black" points="2300.67,-395.5 2310.67,-392 2300.67,-388.5 2300.67,-395.5"/>
</g>
<!-- trans_spec_a_l2b_l3 -->
<g id="node5" class="node">
<title>trans_spec_a_l2b_l3</title>
<ellipse fill="none" stroke="black" cx="2747.94" cy="-558" rx="122.16" ry="122.16"/>
<text text-anchor="middle" x="2747.94" y="-561.8" font-family="Times,serif" font-size="14.00">spec_a Transmutation</text>
<text text-anchor="middle" x="2747.94" y="-546.8" font-family="Times,serif" font-size="14.00">L2b to L3</text>
</g>
<!-- l3_spec_a_prod -->
<g id="node33" class="node">
<title>l3_spec_a_prod</title>
<polygon fill="none" stroke="black" points="3136.1,-630 2948.1,-630 2948.1,-594 3136.1,-594 3136.1,-630"/>
<text text-anchor="middle" x="3042.1" y="-608.3" font-family="Times,serif" font-size="14.00">L3_spec_a products 1..1</text>
</g>
<!-- trans_spec_a_l2b_l3&#45;&gt;l3_spec_a_prod -->
<g id="edge32" class="edge">
<title>trans_spec_a_l2b_l3&#45;&gt;l3_spec_a_prod</title>
<path fill="none" stroke="black" d="M2857.89,-612C2857.89,-612 2937.71,-612 2937.71,-612"/>
<polygon fill="black" stroke="black" points="2937.71,-615.5 2947.71,-612 2937.71,-608.5 2937.71,-615.5"/>
</g>
<!-- l3_spec_a_man -->
<g id="node35" class="node">
<title>l3_spec_a_man</title>
<ellipse fill="none" stroke="black" cx="3042.1" cy="-558" rx="121.58" ry="18"/>
<text text-anchor="middle" x="3042.1" y="-554.3" font-family="Times,serif" font-size="14.00">L3_spec_a manifest 1..1</text>
</g>
<!-- trans_spec_a_l2b_l3&#45;&gt;l3_spec_a_man -->
<g id="edge33" class="edge">
<title>trans_spec_a_l2b_l3&#45;&gt;l3_spec_a_man</title>
<path fill="none" stroke="black" d="M2870.56,-558C2870.56,-558 2910.15,-558 2910.15,-558"/>
<polygon fill="black" stroke="black" points="2910.15,-561.5 2920.15,-558 2910.15,-554.5 2910.15,-561.5"/>
</g>
<!-- l3_spec_a_log -->
<g id="node39" class="node">
<title>l3_spec_a_log</title>
<ellipse fill="none" stroke="black" cx="3042.1" cy="-504" rx="94.78" ry="18"/>
<text text-anchor="middle" x="3042.1" y="-500.3" font-family="Times,serif" font-size="14.00">L3_spec_a log 1..1</text>
</g>
<!-- trans_spec_a_l2b_l3&#45;&gt;l3_spec_a_log -->
<g id="edge34" class="edge">
<title>trans_spec_a_l2b_l3&#45;&gt;l3_spec_a_log</title>
<path fill="none" stroke="black" d="M2857.89,-504C2857.89,-504 2936.77,-504 2936.77,-504"/>
<polygon fill="black" stroke="black" points="2936.77,-507.5 2946.77,-504 2936.77,-500.5 2936.77,-507.5"/>
</g>
<!-- trans_spec_a_l3_l4 -->
<g id="node6" class="node">
<title>trans_spec_a_l3_l4</title>
<ellipse fill="none" stroke="black" cx="3336.27" cy="-693" rx="122.16" ry="122.16"/>
<text text-anchor="middle" x="3336.27" y="-696.8" font-family="Times,serif" font-size="14.00">spec_a Transmutation</text>
<text text-anchor="middle" x="3336.27" y="-681.8" font-family="Times,serif" font-size="14.00">L3 to L4</text>
</g>
<!-- l4_spec_a_prod -->
<g id="node40" class="node">
<title>l4_spec_a_prod</title>
<polygon fill="none" stroke="black" points="3748.6,-765 3560.6,-765 3560.6,-729 3748.6,-729 3748.6,-765"/>
<text text-anchor="middle" x="3654.6" y="-743.3" font-family="Times,serif" font-size="14.00">L4_spec_a products 1..1</text>
</g>
<!-- trans_spec_a_l3_l4&#45;&gt;l4_spec_a_prod -->
<g id="edge41" class="edge">
<title>trans_spec_a_l3_l4&#45;&gt;l4_spec_a_prod</title>
<path fill="none" stroke="black" d="M3446.27,-747C3446.27,-747 3550.5,-747 3550.5,-747"/>
<polygon fill="black" stroke="black" points="3550.5,-750.5 3560.5,-747 3550.5,-743.5 3550.5,-750.5"/>
</g>
<!-- l4_spec_a_log -->
<g id="node42" class="node">
<title>l4_spec_a_log</title>
<ellipse fill="none" stroke="black" cx="3654.6" cy="-693" rx="94.78" ry="18"/>
<text text-anchor="middle" x="3654.6" y="-689.3" font-family="Times,serif" font-size="14.00">L4_spec_a log 1..1</text>
</g>
<!-- trans_spec_a_l3_l4&#45;&gt;l4_spec_a_log -->
<g id="edge42" class="edge">
<title>trans_spec_a_l3_l4&#45;&gt;l4_spec_a_log</title>
<path fill="none" stroke="black" d="M3458.89,-693C3458.89,-693 3549.23,-693 3549.23,-693"/>
<polygon fill="black" stroke="black" points="3549.23,-696.5 3559.23,-693 3549.23,-689.5 3549.23,-696.5"/>
</g>
<!-- l4_spec_a_man -->
<g id="node43" class="node">
<title>l4_spec_a_man</title>
<ellipse fill="none" stroke="black" cx="3654.6" cy="-639" rx="121.58" ry="18"/>
<text text-anchor="middle" x="3654.6" y="-635.3" font-family="Times,serif" font-size="14.00">L4_spec_a manifest 1..1</text>
</g>
<!-- trans_spec_a_l3_l4&#45;&gt;l4_spec_a_man -->
<g id="edge43" class="edge">
<title>trans_spec_a_l3_l4&#45;&gt;l4_spec_a_man</title>
<path fill="none" stroke="black" d="M3446.27,-639C3446.27,-639 3522.89,-639 3522.89,-639"/>
<polygon fill="black" stroke="black" points="3522.89,-642.5 3532.89,-639 3522.89,-635.5 3522.89,-642.5"/>
</g>
<!-- trans_spec_a_l4_tda -->
<g id="node7" class="node">
<title>trans_spec_a_l4_tda</title>
<ellipse fill="none" stroke="black" cx="3972.93" cy="-936" rx="122.16" ry="122.16"/>
<text text-anchor="middle" x="3972.93" y="-939.8" font-family="Times,serif" font-size="14.00">spec_a Transmutation</text>
<text text-anchor="middle" x="3972.93" y="-924.8" font-family="Times,serif" font-size="14.00">L4 to TDA</text>
</g>
<!-- tda_spec_a_prod -->
<g id="node51" class="node">
<title>tda_spec_a_prod</title>
<ellipse fill="none" stroke="black" cx="4218.35" cy="-963" rx="87.18" ry="18"/>
<text text-anchor="middle" x="4218.35" y="-959.3" font-family="Times,serif" font-size="14.00">tda_spec_a_prod</text>
</g>
<!-- trans_spec_a_l4_tda&#45;&gt;tda_spec_a_prod -->
<g id="edge54" class="edge">
<title>trans_spec_a_l4_tda&#45;&gt;tda_spec_a_prod</title>
<path fill="none" stroke="black" d="M4092.41,-963C4092.41,-963 4121.09,-963 4121.09,-963"/>
<polygon fill="black" stroke="black" points="4121.09,-966.5 4131.09,-963 4121.09,-959.5 4121.09,-966.5"/>
</g>
<!-- tda_spec_a_log -->
<g id="node52" class="node">
<title>tda_spec_a_log</title>
<ellipse fill="none" stroke="black" cx="4218.35" cy="-909" rx="79.09" ry="18"/>
<text text-anchor="middle" x="4218.35" y="-905.3" font-family="Times,serif" font-size="14.00">tda_spec_a_log</text>
</g>
<!-- trans_spec_a_l4_tda&#45;&gt;tda_spec_a_log -->
<g id="edge55" class="edge">
<title>trans_spec_a_l4_tda&#45;&gt;tda_spec_a_log</title>
<path fill="none" stroke="black" d="M4092.41,-909C4092.41,-909 4128.76,-909 4128.76,-909"/>
<polygon fill="black" stroke="black" points="4128.76,-912.5 4138.76,-909 4128.76,-905.5 4128.76,-912.5"/>
</g>
<!-- l1_spec_a_prod -->
<g id="node8" class="node">
<title>l1_spec_a_prod</title>
<polygon fill="none" stroke="black" points="229.84,-252 41.84,-252 41.84,-216 229.84,-216 229.84,-252"/>
<text text-anchor="middle" x="135.84" y="-230.3" font-family="Times,serif" font-size="14.00">L1_spec_a products 1..b</text>
</g>
<!-- l1_spec_a_prod&#45;&gt;trans_spec_a_l1_l2a -->
<g id="edge1" class="edge">
<title>l1_spec_a_prod&#45;&gt;trans_spec_a_l1_l2a</title>
<path fill="none" stroke="black" d="M230.13,-232.16C230.13,-232.16 359.11,-232.16 359.11,-232.16"/>
<polygon fill="black" stroke="black" points="359.11,-235.66 369.11,-232.16 359.11,-228.66 359.11,-235.66"/>
</g>
<!-- l1_spec_a_man -->
<g id="node9" class="node">
<title>l1_spec_a_man</title>
<ellipse fill="none" stroke="black" cx="135.84" cy="-180" rx="121.58" ry="18"/>
<text text-anchor="middle" x="135.84" y="-176.3" font-family="Times,serif" font-size="14.00">L1_spec_a manifest 1..1</text>
</g>
<!-- l1_spec_a_man&#45;&gt;trans_spec_a_l1_l2a -->
<g id="edge2" class="edge">
<title>l1_spec_a_man&#45;&gt;trans_spec_a_l1_l2a</title>
<path fill="none" stroke="black" d="M257.61,-180C257.61,-180 310.09,-180 310.09,-180"/>
<polygon fill="black" stroke="black" points="310.09,-183.5 320.09,-180 310.09,-176.5 310.09,-183.5"/>
</g>
<!-- l1_spec_a_odir -->
<g id="node10" class="node">
<title>l1_spec_a_odir</title>
<ellipse fill="none" stroke="black" cx="135.84" cy="-126" rx="135.68" ry="18"/>
<text text-anchor="middle" x="135.84" y="-122.3" font-family="Times,serif" font-size="14.00">L1_spec_a output path 1..1</text>
</g>
<!-- l1_spec_a_odir&#45;&gt;trans_spec_a_l1_l2a -->
<g id="edge3" class="edge">
<title>l1_spec_a_odir&#45;&gt;trans_spec_a_l1_l2a</title>
<path fill="none" stroke="black" d="M271.73,-126C271.73,-126 297.39,-126 297.39,-126"/>
<polygon fill="black" stroke="black" points="297.39,-129.5 307.39,-126 297.39,-122.5 297.39,-129.5"/>
</g>
<!-- l1_spec_a_rec -->
<g id="node11" class="node">
<title>l1_spec_a_rec</title>
<polygon fill="none" stroke="black" points="208.34,-84 51.34,-84 51.34,-60 208.34,-60 220.34,-72 208.34,-84"/>
<text text-anchor="middle" x="135.84" y="-68.3" font-family="Times,serif" font-size="14.00">L1_spec_a recipe 1..1</text>
</g>
<!-- l1_spec_a_rec&#45;&gt;trans_spec_a_l1_l2a -->
<g id="edge4" class="edge">
<title>l1_spec_a_rec&#45;&gt;trans_spec_a_l1_l2a</title>
<path fill="none" stroke="black" d="M220.53,-72C220.53,-72 310.16,-72 310.16,-72"/>
<polygon fill="black" stroke="black" points="310.16,-75.5 320.16,-72 310.16,-68.5 310.16,-75.5"/>
</g>
<!-- l1_spec_a_nllut -->
<g id="node12" class="node">
<title>l1_spec_a_nllut</title>
<polygon fill="none" stroke="black" points="238.84,-30 20.84,-30 20.84,-6 238.84,-6 250.84,-18 238.84,-30"/>
<text text-anchor="middle" x="135.84" y="-14.3" font-family="Times,serif" font-size="14.00">L1_spec_a non&#45;linear LUT 1..1</text>
</g>
<!-- l1_spec_a_nllut&#45;&gt;trans_spec_a_l1_l2a -->
<g id="edge5" class="edge">
<title>l1_spec_a_nllut&#45;&gt;trans_spec_a_l1_l2a</title>
<path fill="none" stroke="black" d="M251.26,-19.84C251.26,-19.84 359.1,-19.84 359.1,-19.84"/>
<polygon fill="black" stroke="black" points="359.1,-23.34 369.1,-19.84 359.1,-16.34 359.1,-23.34"/>
</g>
<!-- l2a_spec_a_prod&#45;&gt;trans_spec_a_l2a_l2b -->
<g id="edge9" class="edge">
<title>l2a_spec_a_prod&#45;&gt;trans_spec_a_l2a_l2b</title>
<path fill="none" stroke="black" d="M980.44,-260.25C980.44,-274.18 980.44,-291 980.44,-291 980.44,-291 1475.27,-291 1475.27,-291"/>
<polygon fill="black" stroke="black" points="1475.27,-294.5 1485.27,-291 1475.27,-287.5 1475.27,-294.5"/>
</g>
<!-- l2a_spec_a_man&#45;&gt;l2a_spec_a_demux -->
<g id="edge20" class="edge">
<title>l2a_spec_a_man&#45;&gt;l2a_spec_a_demux</title>
<path fill="none" stroke="black" d="M841.88,-126C841.88,-126 870.37,-126 870.37,-126"/>
<polygon fill="black" stroke="black" points="870.37,-129.5 880.37,-126 870.37,-122.5 870.37,-129.5"/>
</g>
<!-- l2a_spec_a_odir -->
<g id="node15" class="node">
<title>l2a_spec_a_odir</title>
<ellipse fill="none" stroke="black" cx="1268.87" cy="-590" rx="141.07" ry="18"/>
<text text-anchor="middle" x="1268.87" y="-586.3" font-family="Times,serif" font-size="14.00">L2a_spec_a output path 1..1</text>
</g>
<!-- l2a_spec_a_odir&#45;&gt;trans_spec_a_l2a_l2b -->
<g id="edge10" class="edge">
<title>l2a_spec_a_odir&#45;&gt;trans_spec_a_l2a_l2b</title>
<path fill="none" stroke="black" d="M1404.53,-585C1502.79,-585 1618.44,-585 1618.44,-585 1618.44,-585 1618.44,-497.23 1618.44,-497.23"/>
<polygon fill="black" stroke="black" points="1621.94,-497.23 1618.44,-487.23 1614.94,-497.23 1621.94,-497.23"/>
</g>
<!-- l2a_spec_a_rec -->
<g id="node16" class="node">
<title>l2a_spec_a_rec</title>
<polygon fill="none" stroke="black" points="1345.37,-548 1180.37,-548 1180.37,-524 1345.37,-524 1357.37,-536 1345.37,-548"/>
<text text-anchor="middle" x="1268.87" y="-532.3" font-family="Times,serif" font-size="14.00">L2a_spec_a recipe 1..1</text>
</g>
<!-- l2a_spec_a_rec&#45;&gt;trans_spec_a_l2a_l2b -->
<g id="edge11" class="edge">
<title>l2a_spec_a_rec&#45;&gt;trans_spec_a_l2a_l2b</title>
<path fill="none" stroke="black" d="M1357.6,-531C1435.49,-531 1536.44,-531 1536.44,-531 1536.44,-531 1536.44,-497.55 1536.44,-497.55"/>
<polygon fill="black" stroke="black" points="1539.94,-497.55 1536.44,-487.55 1532.94,-497.55 1539.94,-497.55"/>
</g>
<!-- l2a_spec_a_cti -->
<g id="node17" class="node">
<title>l2a_spec_a_cti</title>
<polygon fill="none" stroke="black" points="1406.87,-494 1118.87,-494 1118.87,-470 1406.87,-470 1418.87,-482 1406.87,-494"/>
<text text-anchor="middle" x="1268.87" y="-478.3" font-family="Times,serif" font-size="14.00">L2a_spec_a charge xfer inefficiency 1..1</text>
</g>
<!-- l2a_spec_a_cti&#45;&gt;trans_spec_a_l2a_l2b -->
<g id="edge12" class="edge">
<title>l2a_spec_a_cti&#45;&gt;trans_spec_a_l2a_l2b</title>
<path fill="none" stroke="black" stroke-dasharray="5,2" d="M1418.97,-479.16C1418.97,-479.16 1508.13,-479.16 1508.13,-479.16"/>
<polygon fill="black" stroke="black" points="1508.13,-482.66 1518.13,-479.16 1508.13,-475.66 1508.13,-482.66"/>
</g>
<!-- l2a_spec_a_dnb -->
<g id="node18" class="node">
<title>l2a_spec_a_dnb</title>
<polygon fill="none" stroke="black" points="1388.37,-440 1137.37,-440 1137.37,-414 1388.37,-414 1400.37,-427 1388.37,-440"/>
<text text-anchor="middle" x="1268.87" y="-430.8" font-family="Times,serif" font-size="14.00">L2a_spec_a CIC/Dark Current/FPN</text>
<text text-anchor="middle" x="1268.87" y="-415.8" font-family="Times,serif" font-size="14.00"> or master dark 1..1</text>
</g>
<!-- l2a_spec_a_dnb&#45;&gt;trans_spec_a_l2a_l2b -->
<g id="edge13" class="edge">
<title>l2a_spec_a_dnb&#45;&gt;trans_spec_a_l2a_l2b</title>
<path fill="none" stroke="black" d="M1400.53,-427C1400.53,-427 1457.79,-427 1457.79,-427"/>
<polygon fill="black" stroke="black" points="1457.79,-430.5 1467.79,-427 1457.79,-423.5 1457.79,-430.5"/>
</g>
<!-- l2a_spec_a_mbpm -->
<g id="node19" class="node">
<title>l2a_spec_a_mbpm</title>
<polygon fill="none" stroke="black" points="1400.87,-384 1124.87,-384 1124.87,-360 1400.87,-360 1412.87,-372 1400.87,-384"/>
<text text-anchor="middle" x="1268.87" y="-368.3" font-family="Times,serif" font-size="14.00">L2a_spec_a master bad pixel map 1..1</text>
</g>
<!-- l2a_spec_a_mbpm&#45;&gt;trans_spec_a_l2a_l2b -->
<g id="edge14" class="edge">
<title>l2a_spec_a_mbpm&#45;&gt;trans_spec_a_l2a_l2b</title>
<path fill="none" stroke="black" d="M1413.11,-372C1413.11,-372 1444.82,-372 1444.82,-372"/>
<polygon fill="black" stroke="black" points="1444.82,-375.5 1454.82,-372 1444.82,-368.5 1444.82,-375.5"/>
</g>
<!-- l2a_spec_a_kgain -->
<g id="node20" class="node">
<title>l2a_spec_a_kgain</title>
<polygon fill="none" stroke="black" points="1343.87,-330 1181.87,-330 1181.87,-306 1343.87,-306 1355.87,-318 1343.87,-330"/>
<text text-anchor="middle" x="1268.87" y="-314.3" font-family="Times,serif" font-size="14.00">L2a_spec_a Kgain 1..1</text>
</g>
<!-- l2a_spec_a_kgain&#45;&gt;trans_spec_a_l2a_l2b -->
<g id="edge16" class="edge">
<title>l2a_spec_a_kgain&#45;&gt;trans_spec_a_l2a_l2b</title>
<path fill="none" stroke="black" d="M1355.99,-318C1355.99,-318 1457.18,-318 1457.18,-318"/>
<polygon fill="black" stroke="black" points="1457.18,-321.5 1467.18,-318 1457.18,-314.5 1457.18,-321.5"/>
</g>
<!-- l2a_spec_a_emg -->
<g id="node21" class="node">
<title>l2a_spec_a_emg</title>
<polygon fill="none" stroke="black" points="1353.37,-276 1172.37,-276 1172.37,-252 1353.37,-252 1365.37,-264 1353.37,-276"/>
<text text-anchor="middle" x="1268.87" y="-260.3" font-family="Times,serif" font-size="14.00">L2a_spec_a EM gain 1..1</text>
</g>
<!-- l2a_spec_a_emg&#45;&gt;trans_spec_a_l2a_l2b -->
<g id="edge15" class="edge">
<title>l2a_spec_a_emg&#45;&gt;trans_spec_a_l2a_l2b</title>
<path fill="none" stroke="black" d="M1365.58,-271.22C1365.58,-271.22 1497.73,-271.22 1497.73,-271.22"/>
<polygon fill="black" stroke="black" points="1497.73,-274.72 1507.73,-271.22 1497.73,-267.72 1497.73,-274.72"/>
</g>
<!-- l2a_spec_a_man_demux&#45;&gt;trans_spec_a_l2a_l2b -->
<g id="edge22" class="edge">
<title>l2a_spec_a_man_demux&#45;&gt;trans_spec_a_l2a_l2b</title>
<path fill="none" stroke="black" d="M1387.44,-158.89C1387.44,-186.17 1387.44,-260.45 1387.44,-260.45 1387.44,-260.45 1516.85,-260.45 1516.85,-260.45"/>
<polygon fill="black" stroke="black" points="1516.85,-263.95 1526.85,-260.45 1516.85,-256.95 1516.85,-263.95"/>
</g>
<!-- l2b_spec_a_prod&#45;&gt;trans_spec_a_l2b_l3 -->
<g id="edge25" class="edge">
<title>l2b_spec_a_prod&#45;&gt;trans_spec_a_l2b_l3</title>
<path fill="none" stroke="black" d="M2250.83,-473C2250.83,-473 2649.72,-473 2649.72,-473"/>
<polygon fill="black" stroke="black" points="2649.72,-476.5 2659.72,-473 2649.72,-469.5 2649.72,-476.5"/>
</g>
<!-- l2b_spec_a_man&#45;&gt;trans_spec_a_l2b_l3 -->
<g id="edge26" class="edge">
<title>l2b_spec_a_man&#45;&gt;trans_spec_a_l2b_l3</title>
<path fill="none" stroke="black" d="M2565.68,-392C2651.27,-392 2748.44,-392 2748.44,-392 2748.44,-392 2748.44,-425.61 2748.44,-425.61"/>
<polygon fill="black" stroke="black" points="2744.94,-425.61 2748.44,-435.61 2751.94,-425.61 2744.94,-425.61"/>
</g>
<!-- l2b_spec_a_odir -->
<g id="node26" class="node">
<title>l2b_spec_a_odir</title>
<ellipse fill="none" stroke="black" cx="2438.11" cy="-720" rx="141.88" ry="18"/>
<text text-anchor="middle" x="2438.11" y="-716.3" font-family="Times,serif" font-size="14.00">L2b_spec_a output path 1..1</text>
</g>
<!-- l2b_spec_a_odir&#45;&gt;trans_spec_a_l2b_l3 -->
<g id="edge27" class="edge">
<title>l2b_spec_a_odir&#45;&gt;trans_spec_a_l2b_l3</title>
<path fill="none" stroke="black" d="M2554.44,-709.3C2554.44,-694.49 2554.44,-669.55 2554.44,-669.55 2554.44,-669.55 2687.6,-669.55 2687.6,-669.55"/>
<polygon fill="black" stroke="black" points="2687.6,-673.05 2697.6,-669.55 2687.6,-666.05 2687.6,-673.05"/>
</g>
<!-- l2b_spec_a_rec -->
<g id="node27" class="node">
<title>l2b_spec_a_rec</title>
<polygon fill="none" stroke="black" points="2515.11,-678 2349.11,-678 2349.11,-654 2515.11,-654 2527.11,-666 2515.11,-678"/>
<text text-anchor="middle" x="2438.11" y="-662.3" font-family="Times,serif" font-size="14.00">L2b_spec_a recipe 1..1</text>
</g>
<!-- l2b_spec_a_rec&#45;&gt;trans_spec_a_l2b_l3 -->
<g id="edge28" class="edge">
<title>l2b_spec_a_rec&#45;&gt;trans_spec_a_l2b_l3</title>
<path fill="none" stroke="black" d="M2527.31,-658.78C2527.31,-658.78 2668.51,-658.78 2668.51,-658.78"/>
<polygon fill="black" stroke="black" points="2668.51,-662.28 2678.51,-658.78 2668.51,-655.28 2668.51,-662.28"/>
</g>
<!-- l2b_spec_a_excicrf -->
<g id="node28" class="node">
<title>l2b_spec_a_excicrf</title>
<polygon fill="none" stroke="black" points="2571.11,-624 2293.11,-624 2293.11,-600 2571.11,-600 2583.11,-612 2571.11,-624"/>
<text text-anchor="middle" x="2438.11" y="-608.3" font-family="Times,serif" font-size="14.00">L2b_spec_a EXCAM ICRF location 1..1</text>
</g>
<!-- l2b_spec_a_excicrf&#45;&gt;trans_spec_a_l2b_l3 -->
<g id="edge29" class="edge">
<title>l2b_spec_a_excicrf&#45;&gt;trans_spec_a_l2b_l3</title>
<path fill="none" stroke="black" d="M2583.5,-612C2583.5,-612 2627.72,-612 2627.72,-612"/>
<polygon fill="black" stroke="black" points="2627.72,-615.5 2637.72,-612 2627.72,-608.5 2627.72,-615.5"/>
</g>
<!-- l2b_spec_a_excfovps -->
<g id="node29" class="node">
<title>l2b_spec_a_excfovps</title>
<polygon fill="none" stroke="black" points="2577.61,-570 2286.61,-570 2286.61,-546 2577.61,-546 2589.61,-558 2577.61,-570"/>
<text text-anchor="middle" x="2438.11" y="-554.3" font-family="Times,serif" font-size="14.00">L2b_spec_a EXCAM FOV pixel scale 1..1</text>
</g>
<!-- l2b_spec_a_excfovps&#45;&gt;trans_spec_a_l2b_l3 -->
<g id="edge30" class="edge">
<title>l2b_spec_a_excfovps&#45;&gt;trans_spec_a_l2b_l3</title>
<path fill="none" stroke="black" d="M2589.85,-558C2589.85,-558 2615.51,-558 2615.51,-558"/>
<polygon fill="black" stroke="black" points="2615.51,-561.5 2625.51,-558 2615.51,-554.5 2615.51,-561.5"/>
</g>
<!-- l2b_spec_a_cfamfo -->
<g id="node30" class="node">
<title>l2b_spec_a_cfamfo</title>
<polygon fill="none" stroke="black" points="2559.61,-516 2304.61,-516 2304.61,-492 2559.61,-492 2571.61,-504 2559.61,-516"/>
<text text-anchor="middle" x="2438.11" y="-500.3" font-family="Times,serif" font-size="14.00">L2b_spec_a CFAM filter offsets 1..1</text>
</g>
<!-- l2b_spec_a_cfamfo&#45;&gt;trans_spec_a_l2b_l3 -->
<g id="edge31" class="edge">
<title>l2b_spec_a_cfamfo&#45;&gt;trans_spec_a_l2b_l3</title>
<path fill="none" stroke="black" d="M2571.75,-504C2571.75,-504 2628,-504 2628,-504"/>
<polygon fill="black" stroke="black" points="2628,-507.5 2638,-504 2628,-500.5 2628,-507.5"/>
</g>
<!-- l2b_spec_a_man_demux&#45;&gt;l2b_spec_a_mux -->
<g id="edge23" class="edge">
<title>l2b_spec_a_man_demux&#45;&gt;l2b_spec_a_mux</title>
<path fill="none" stroke="black" d="M2017.97,-372C2017.97,-372 2054.51,-372 2054.51,-372"/>
<polygon fill="black" stroke="black" points="2054.51,-375.5 2064.51,-372 2054.51,-368.5 2054.51,-375.5"/>
</g>
<!-- l3_spec_a_prod&#45;&gt;trans_spec_a_l3_l4 -->
<g id="edge35" class="edge">
<title>l3_spec_a_prod&#45;&gt;trans_spec_a_l3_l4</title>
<path fill="none" stroke="black" d="M3136.39,-612C3136.39,-612 3234.52,-612 3234.52,-612"/>
<polygon fill="black" stroke="black" points="3234.52,-615.5 3244.52,-612 3234.52,-608.5 3234.52,-615.5"/>
</g>
<!-- l3_spec_a_odir -->
<g id="node34" class="node">
<title>l3_spec_a_odir</title>
<ellipse fill="none" stroke="black" cx="3042.1" cy="-828" rx="135.68" ry="18"/>
<text text-anchor="middle" x="3042.1" y="-824.3" font-family="Times,serif" font-size="14.00">L3_spec_a output path 1..1</text>
</g>
<!-- l3_spec_a_odir&#45;&gt;trans_spec_a_l3_l4 -->
<g id="edge37" class="edge">
<title>l3_spec_a_odir&#45;&gt;trans_spec_a_l3_l4</title>
<path fill="none" stroke="black" d="M3172.44,-822.79C3172.44,-814.95 3172.44,-801 3172.44,-801 3172.44,-801 3268.51,-801 3268.51,-801"/>
<polygon fill="black" stroke="black" points="3268.51,-804.5 3278.51,-801 3268.51,-797.5 3268.51,-804.5"/>
</g>
<!-- l3_spec_a_man&#45;&gt;trans_spec_a_l3_l4 -->
<g id="edge36" class="edge">
<title>l3_spec_a_man&#45;&gt;trans_spec_a_l3_l4</title>
<path fill="none" stroke="black" d="M3150.44,-566.25C3150.44,-574.19 3150.44,-585 3150.44,-585 3150.44,-585 3268.75,-585 3268.75,-585"/>
<polygon fill="black" stroke="black" points="3268.75,-588.5 3278.75,-585 3268.75,-581.5 3268.75,-588.5"/>
</g>
<!-- l3_spec_a_rec -->
<g id="node36" class="node">
<title>l3_spec_a_rec</title>
<polygon fill="none" stroke="black" points="3114.6,-786 2957.6,-786 2957.6,-762 3114.6,-762 3126.6,-774 3114.6,-786"/>
<text text-anchor="middle" x="3042.1" y="-770.3" font-family="Times,serif" font-size="14.00">L3_spec_a recipe 1..1</text>
</g>
<!-- l3_spec_a_rec&#45;&gt;trans_spec_a_l3_l4 -->
<g id="edge38" class="edge">
<title>l3_spec_a_rec&#45;&gt;trans_spec_a_l3_l4</title>
<path fill="none" stroke="black" d="M3126.79,-774C3126.79,-774 3234.47,-774 3234.47,-774"/>
<polygon fill="black" stroke="black" points="3234.47,-777.5 3244.47,-774 3234.47,-770.5 3234.47,-777.5"/>
</g>
<!-- l3_spec_a_dispm -->
<g id="node37" class="node">
<title>l3_spec_a_dispm</title>
<polygon fill="none" stroke="black" points="3153.6,-732 2918.6,-732 2918.6,-708 3153.6,-708 3165.6,-720 3153.6,-732"/>
<text text-anchor="middle" x="3042.1" y="-716.3" font-family="Times,serif" font-size="14.00">L3_spec_a dispersion model 1..1</text>
</g>
<!-- l3_spec_a_dispm&#45;&gt;trans_spec_a_l3_l4 -->
<g id="edge39" class="edge">
<title>l3_spec_a_dispm&#45;&gt;trans_spec_a_l3_l4</title>
<path fill="none" stroke="black" d="M3166.01,-720C3166.01,-720 3206.74,-720 3206.74,-720"/>
<polygon fill="black" stroke="black" points="3206.74,-723.5 3216.74,-720 3206.74,-716.5 3206.74,-723.5"/>
</g>
<!-- l3_spec_a_wavem -->
<g id="node38" class="node">
<title>l3_spec_a_wavem</title>
<polygon fill="none" stroke="black" points="3151.1,-678 2921.1,-678 2921.1,-654 3151.1,-654 3163.1,-666 3151.1,-678"/>
<text text-anchor="middle" x="3042.1" y="-662.3" font-family="Times,serif" font-size="14.00">L3_spec_a wavelength map 1..1</text>
</g>
<!-- l3_spec_a_wavem&#45;&gt;trans_spec_a_l3_l4 -->
<g id="edge40" class="edge">
<title>l3_spec_a_wavem&#45;&gt;trans_spec_a_l3_l4</title>
<path fill="none" stroke="black" d="M3163.45,-666C3163.45,-666 3206.63,-666 3206.63,-666"/>
<polygon fill="black" stroke="black" points="3206.63,-669.5 3216.63,-666 3206.63,-662.5 3206.63,-669.5"/>
</g>
<!-- l4_spec_a_prod&#45;&gt;trans_spec_a_l4_tda -->
<g id="edge44" class="edge">
<title>l4_spec_a_prod&#45;&gt;trans_spec_a_l4_tda</title>
<path fill="none" stroke="black" d="M3748.78,-747C3822.44,-747 3912.44,-747 3912.44,-747 3912.44,-747 3912.44,-819.62 3912.44,-819.62"/>
<polygon fill="black" stroke="black" points="3908.94,-819.62 3912.44,-829.62 3915.94,-819.62 3908.94,-819.62"/>
</g>
<!-- l4_spec_a_odir -->
<g id="node41" class="node">
<title>l4_spec_a_odir</title>
<ellipse fill="none" stroke="black" cx="3654.6" cy="-1179" rx="135.68" ry="18"/>
<text text-anchor="middle" x="3654.6" y="-1175.3" font-family="Times,serif" font-size="14.00">L4_spec_a output path 1..1</text>
</g>
<!-- l4_spec_a_odir&#45;&gt;trans_spec_a_l4_tda -->
<g id="edge46" class="edge">
<title>l4_spec_a_odir&#45;&gt;trans_spec_a_l4_tda</title>
<path fill="none" stroke="black" d="M3790.64,-1179C3892.54,-1179 4014.44,-1179 4014.44,-1179 4014.44,-1179 4014.44,-1061.1 4014.44,-1061.1"/>
<polygon fill="black" stroke="black" points="4017.94,-1061.1 4014.44,-1051.1 4010.94,-1061.1 4017.94,-1061.1"/>
</g>
<!-- l4_spec_a_man&#45;&gt;trans_spec_a_l4_tda -->
<g id="edge45" class="edge">
<title>l4_spec_a_man&#45;&gt;trans_spec_a_l4_tda</title>
<path fill="none" stroke="black" d="M3776.51,-639C3866.52,-639 3973.44,-639 3973.44,-639 3973.44,-639 3973.44,-803.48 3973.44,-803.48"/>
<polygon fill="black" stroke="black" points="3969.94,-803.48 3973.44,-813.48 3976.94,-803.48 3969.94,-803.48"/>
</g>
<!-- l4_spec_a_rec -->
<g id="node44" class="node">
<title>l4_spec_a_rec</title>
<polygon fill="none" stroke="black" points="3727.1,-1137 3570.1,-1137 3570.1,-1113 3727.1,-1113 3739.1,-1125 3727.1,-1137"/>
<text text-anchor="middle" x="3654.6" y="-1121.3" font-family="Times,serif" font-size="14.00">L4_spec_a recipe 1..1</text>
</g>
<!-- l4_spec_a_rec&#45;&gt;trans_spec_a_l4_tda -->
<g id="edge47" class="edge">
<title>l4_spec_a_rec&#45;&gt;trans_spec_a_l4_tda</title>
<path fill="none" stroke="black" d="M3739.47,-1125C3821.18,-1125 3932.44,-1125 3932.44,-1125 3932.44,-1125 3932.44,-1061.66 3932.44,-1061.66"/>
<polygon fill="black" stroke="black" points="3935.94,-1061.66 3932.44,-1051.66 3928.94,-1061.66 3935.94,-1061.66"/>
</g>
<!-- l4_spec_a_afcal -->
<g id="node45" class="node">
<title>l4_spec_a_afcal</title>
<polygon fill="none" stroke="black" points="3795.1,-1083 3502.1,-1083 3502.1,-1059 3795.1,-1059 3807.1,-1071 3795.1,-1083"/>
<text text-anchor="middle" x="3654.6" y="-1067.3" font-family="Times,serif" font-size="14.00">L4_spec_a absolute flux calibrations 1..1</text>
</g>
<!-- l4_spec_a_afcal&#45;&gt;trans_spec_a_l4_tda -->
<g id="edge48" class="edge">
<title>l4_spec_a_afcal&#45;&gt;trans_spec_a_l4_tda</title>
<path fill="none" stroke="black" d="M3798.44,-1052.84C3798.44,-1047.96 3798.44,-1044 3798.44,-1044 3798.44,-1044 3905.31,-1044 3905.31,-1044"/>
<polygon fill="black" stroke="black" points="3905.31,-1047.5 3915.31,-1044 3905.31,-1040.5 3905.31,-1047.5"/>
</g>
<!-- l4_spec_a_ndfilt -->
<g id="node46" class="node">
<title>l4_spec_a_ndfilt</title>
<polygon fill="none" stroke="black" points="3736.1,-1029 3561.1,-1029 3561.1,-1005 3736.1,-1005 3748.1,-1017 3736.1,-1029"/>
<text text-anchor="middle" x="3654.6" y="-1013.3" font-family="Times,serif" font-size="14.00">L4_spec_a ND filter 1..1</text>
</g>
<!-- l4_spec_a_ndfilt&#45;&gt;trans_spec_a_l4_tda -->
<g id="edge49" class="edge">
<title>l4_spec_a_ndfilt&#45;&gt;trans_spec_a_l4_tda</title>
<path fill="none" stroke="black" d="M3748.39,-1017C3748.39,-1017 3871.18,-1017 3871.18,-1017"/>
<polygon fill="black" stroke="black" points="3871.18,-1020.5 3881.18,-1017 3871.18,-1013.5 3871.18,-1020.5"/>
</g>
<!-- l4_spec_a_stmap -->
<g id="node47" class="node">
<title>l4_spec_a_stmap</title>
<polygon fill="none" stroke="black" points="3782.1,-975 3515.1,-975 3515.1,-951 3782.1,-951 3794.1,-963 3782.1,-975"/>
<text text-anchor="middle" x="3654.6" y="-959.3" font-family="Times,serif" font-size="14.00">L4_spec_a slit transmission map 1..1</text>
</g>
<!-- l4_spec_a_stmap&#45;&gt;trans_spec_a_l4_tda -->
<g id="edge50" class="edge">
<title>l4_spec_a_stmap&#45;&gt;trans_spec_a_l4_tda</title>
<path fill="none" stroke="black" d="M3794.22,-963C3794.22,-963 3843.35,-963 3843.35,-963"/>
<polygon fill="black" stroke="black" points="3843.35,-966.5 3853.35,-963 3843.35,-959.5 3843.35,-966.5"/>
</g>
<!-- l4_spec_a_tspi -->
<g id="node48" class="node">
<title>l4_spec_a_tspi</title>
<polygon fill="none" stroke="black" points="3790.6,-921 3506.6,-921 3506.6,-897 3790.6,-897 3802.6,-909 3790.6,-921"/>
<text text-anchor="middle" x="3654.6" y="-905.3" font-family="Times,serif" font-size="14.00">L4_spec_a target star prism image 1..1</text>
</g>
<!-- l4_spec_a_tspi&#45;&gt;trans_spec_a_l4_tda -->
<g id="edge51" class="edge">
<title>l4_spec_a_tspi&#45;&gt;trans_spec_a_l4_tda</title>
<path fill="none" stroke="black" d="M3803.05,-909C3803.05,-909 3843.34,-909 3843.34,-909"/>
<polygon fill="black" stroke="black" points="3843.34,-912.5 3853.34,-909 3843.34,-905.5 3843.34,-912.5"/>
</g>
<!-- l4_spec_a_rspi -->
<g id="node49" class="node">
<title>l4_spec_a_rspi</title>
<polygon fill="none" stroke="black" points="3802.6,-867 3494.6,-867 3494.6,-843 3802.6,-843 3814.6,-855 3802.6,-867"/>
<text text-anchor="middle" x="3654.6" y="-851.3" font-family="Times,serif" font-size="14.00">L4_spec_a reference star prism image 1..1</text>
</g>
<!-- l4_spec_a_rspi&#45;&gt;trans_spec_a_l4_tda -->
<g id="edge52" class="edge">
<title>l4_spec_a_rspi&#45;&gt;trans_spec_a_l4_tda</title>
<path fill="none" stroke="black" d="M3814.7,-855C3814.7,-855 3871.04,-855 3871.04,-855"/>
<polygon fill="black" stroke="black" points="3871.04,-858.5 3881.04,-855 3871.04,-851.5 3871.04,-858.5"/>
</g>
<!-- l4_spec_a_lsf -->
<g id="node50" class="node">
<title>l4_spec_a_lsf</title>
<polygon fill="none" stroke="black" points="3776.1,-813 3521.1,-813 3521.1,-789 3776.1,-789 3788.1,-801 3776.1,-813"/>
<text text-anchor="middle" x="3654.6" y="-797.3" font-family="Times,serif" font-size="14.00">L4_spec_a line spread function 1..1</text>
</g>
<!-- l4_spec_a_lsf&#45;&gt;trans_spec_a_l4_tda -->
<g id="edge53" class="edge">
<title>l4_spec_a_lsf&#45;&gt;trans_spec_a_l4_tda</title>
<path fill="none" stroke="black" d="M3788.25,-798.34C3897.66,-798.34 4034.44,-798.34 4034.44,-798.34 4034.44,-798.34 4034.44,-819.92 4034.44,-819.92"/>
<polygon fill="black" stroke="black" points="4030.94,-819.92 4034.44,-829.92 4037.94,-819.92 4030.94,-819.92"/>
</g>
</g>
</svg>
