<?xml version="1.0" encoding="UTF-8" standalone="no"?>
<!DOCTYPE svg PUBLIC "-//W3C//DTD SVG 1.1//EN"
 "http://www.w3.org/Graphics/SVG/1.1/DTD/svg11.dtd">
<!-- Generated by graphviz version 2.43.0 (0)
 -->
<!-- Title: SpectroscopyNoCorono Pages: 1 -->
<svg width="3680pt" height="1316pt"
 viewBox="0.00 0.00 3680.15 1315.69" xmlns="http://www.w3.org/2000/svg" xmlns:xlink="http://www.w3.org/1999/xlink">
<g id="graph0" class="graph" transform="scale(1 1) rotate(0) translate(4 1311.69)">
<title>SpectroscopyNoCorono</title>
<polygon fill="white" stroke="transparent" points="-4,4 -4,-1311.69 3676.15,-1311.69 3676.15,4 -4,4"/>
<!-- trans_spec_nc_l1_l2a -->
<g id="node1" class="node">
<title>trans_spec_nc_l1_l2a</title>
<ellipse fill="none" stroke="black" cx="511.76" cy="-128.69" rx="128.89" ry="128.89"/>
<text text-anchor="middle" x="511.76" y="-132.49" font-family="Times,serif" font-size="14.00">spec_nc Transmutation</text>
<text text-anchor="middle" x="511.76" y="-117.49" font-family="Times,serif" font-size="14.00">L1 to L2a</text>
</g>
<!-- l2a_spec_nc_prod -->
<g id="node11" class="node">
<title>l2a_spec_nc_prod</title>
<polygon fill="none" stroke="black" points="949.39,-227.69 745.39,-227.69 745.39,-191.69 949.39,-191.69 949.39,-227.69"/>
<text text-anchor="middle" x="847.39" y="-205.99" font-family="Times,serif" font-size="14.00">L2a_spec_nc products 1..b</text>
</g>
<!-- trans_spec_nc_l1_l2a&#45;&gt;l2a_spec_nc_prod -->
<g id="edge6" class="edge">
<title>trans_spec_nc_l1_l2a&#45;&gt;l2a_spec_nc_prod</title>
<path fill="none" stroke="black" stroke-dasharray="5,2" d="M612.01,-209.69C612.01,-209.69 735.34,-209.69 735.34,-209.69"/>
<polygon fill="black" stroke="black" points="735.34,-213.19 745.34,-209.69 735.34,-206.19 735.34,-213.19"/>
</g>
<!-- l2a_spec_nc_man -->
<g id="node12" class="node">
<title>l2a_spec_nc_man</title>
<ellipse fill="none" stroke="black" cx="847.39" cy="-155.69" rx="170.87" ry="18"/>
<text text-anchor="middle" x="847.39" y="-151.99" font-family="Times,serif" font-size="14.00">L2a_spec_nc product manifest 1..1</text>
</g>
<!-- trans_spec_nc_l1_l2a&#45;&gt;l2a_spec_nc_man -->
<g id="edge7" class="edge">
<title>trans_spec_nc_l1_l2a&#45;&gt;l2a_spec_nc_man</title>
<path fill="none" stroke="black" d="M637.69,-155.69C637.69,-155.69 666.34,-155.69 666.34,-155.69"/>
<polygon fill="black" stroke="black" points="666.34,-159.19 676.34,-155.69 666.34,-152.19 666.34,-159.19"/>
</g>
<!-- l2a_spec_nc_log -->
<g id="node20" class="node">
<title>l2a_spec_nc_log</title>
<ellipse fill="none" stroke="black" cx="847.39" cy="-101.69" rx="105.88" ry="18"/>
<text text-anchor="middle" x="847.39" y="-97.99" font-family="Times,serif" font-size="14.00">L2a log_spec_nc 1..1</text>
</g>
<!-- trans_spec_nc_l1_l2a&#45;&gt;l2a_spec_nc_log -->
<g id="edge8" class="edge">
<title>trans_spec_nc_l1_l2a&#45;&gt;l2a_spec_nc_log</title>
<path fill="none" stroke="black" stroke-dasharray="5,2" d="M637.69,-101.69C637.69,-101.69 731.34,-101.69 731.34,-101.69"/>
<polygon fill="black" stroke="black" points="731.34,-105.19 741.34,-101.69 731.34,-98.19 731.34,-105.19"/>
</g>
<!-- l2a_spec_nc_src -->
<g id="node52" class="node">
<title>l2a_spec_nc_src</title>
<ellipse fill="none" stroke="black" cx="847.39" cy="-47.69" rx="165.97" ry="18"/>
<text text-anchor="middle" x="847.39" y="-43.99" font-family="Times,serif" font-size="14.00">L2a_spec_nc source manifest 1..1</text>
</g>
<!-- trans_spec_nc_l1_l2a&#45;&gt;l2a_spec_nc_src -->
<g id="edge54" class="edge">
<title>trans_spec_nc_l1_l2a&#45;&gt;l2a_spec_nc_src</title>
<path fill="none" stroke="black" d="M612.01,-47.69C612.01,-47.69 671.42,-47.69 671.42,-47.69"/>
<polygon fill="black" stroke="black" points="671.42,-51.19 681.42,-47.69 671.42,-44.19 671.42,-51.19"/>
</g>
<!-- trans_spec_nc_l2a_l2b -->
<g id="node2" class="node">
<title>trans_spec_nc_l2a_l2b</title>
<ellipse fill="none" stroke="black" cx="1183.02" cy="-371.69" rx="128.89" ry="128.89"/>
<text text-anchor="middle" x="1183.02" y="-375.49" font-family="Times,serif" font-size="14.00">spec_nc Transmutation</text>
<text text-anchor="middle" x="1183.02" y="-360.49" font-family="Times,serif" font-size="14.00">L2a to L2b</text>
</g>
<!-- l2b_spec_nc_prod -->
<g id="node21" class="node">
<title>l2b_spec_nc_prod</title>
<polygon fill="none" stroke="black" points="1621.8,-470.69 1416.8,-470.69 1416.8,-434.69 1621.8,-434.69 1621.8,-470.69"/>
<text text-anchor="middle" x="1519.3" y="-448.99" font-family="Times,serif" font-size="14.00">L2b_spec_nc products 1..1</text>
</g>
<!-- trans_spec_nc_l2a_l2b&#45;&gt;l2b_spec_nc_prod -->
<g id="edge17" class="edge">
<title>trans_spec_nc_l2a_l2b&#45;&gt;l2b_spec_nc_prod</title>
<path fill="none" stroke="black" stroke-dasharray="5,2" d="M1283.46,-452.69C1283.46,-452.69 1406.76,-452.69 1406.76,-452.69"/>
<polygon fill="black" stroke="black" points="1406.76,-456.19 1416.76,-452.69 1406.76,-449.19 1406.76,-456.19"/>
</g>
<!-- l2b_spec_nc_man -->
<g id="node22" class="node">
<title>l2b_spec_nc_man</title>
<ellipse fill="none" stroke="black" cx="1519.3" cy="-398.69" rx="171.67" ry="18"/>
<text text-anchor="middle" x="1519.3" y="-394.99" font-family="Times,serif" font-size="14.00">L2b_spec_nc product manifest 1..1</text>
</g>
<!-- trans_spec_nc_l2a_l2b&#45;&gt;l2b_spec_nc_man -->
<g id="edge18" class="edge">
<title>trans_spec_nc_l2a_l2b&#45;&gt;l2b_spec_nc_man</title>
<path fill="none" stroke="black" d="M1309.19,-398.69C1309.19,-398.69 1337.63,-398.69 1337.63,-398.69"/>
<polygon fill="black" stroke="black" points="1337.63,-402.19 1347.63,-398.69 1337.63,-395.19 1337.63,-402.19"/>
</g>
<!-- l2b_spec_nc_log -->
<g id="node28" class="node">
<title>l2b_spec_nc_log</title>
<ellipse fill="none" stroke="black" cx="1519.3" cy="-344.69" rx="106.68" ry="18"/>
<text text-anchor="middle" x="1519.3" y="-340.99" font-family="Times,serif" font-size="14.00">L2b_spec_nc log 1..1</text>
</g>
<!-- trans_spec_nc_l2a_l2b&#45;&gt;l2b_spec_nc_log -->
<g id="edge19" class="edge">
<title>trans_spec_nc_l2a_l2b&#45;&gt;l2b_spec_nc_log</title>
<path fill="none" stroke="black" stroke-dasharray="5,2" d="M1309.19,-344.69C1309.19,-344.69 1402.51,-344.69 1402.51,-344.69"/>
<polygon fill="black" stroke="black" points="1402.51,-348.19 1412.51,-344.69 1402.51,-341.19 1402.51,-348.19"/>
</g>
<!-- l2b_spec_nc_src -->
<g id="node53" class="node">
<title>l2b_spec_nc_src</title>
<ellipse fill="none" stroke="black" cx="1519.3" cy="-290.69" rx="166.27" ry="18"/>
<text text-anchor="middle" x="1519.3" y="-286.99" font-family="Times,serif" font-size="14.00">L2b_spec_nc source manifest 1..1</text>
</g>
<!-- trans_spec_nc_l2a_l2b&#45;&gt;l2b_spec_nc_src -->
<g id="edge55" class="edge">
<title>trans_spec_nc_l2a_l2b&#45;&gt;l2b_spec_nc_src</title>
<path fill="none" stroke="black" d="M1283.46,-290.69C1283.46,-290.69 1342.69,-290.69 1342.69,-290.69"/>
<polygon fill="black" stroke="black" points="1342.69,-294.19 1352.69,-290.69 1342.69,-287.19 1342.69,-294.19"/>
</g>
<!-- trans_spec_nc_l2b_l3 -->
<g id="node3" class="node">
<title>trans_spec_nc_l2b_l3</title>
<ellipse fill="none" stroke="black" cx="1855.58" cy="-560.69" rx="128.89" ry="128.89"/>
<text text-anchor="middle" x="1855.58" y="-564.49" font-family="Times,serif" font-size="14.00">spec_nc Transmutation</text>
<text text-anchor="middle" x="1855.58" y="-549.49" font-family="Times,serif" font-size="14.00">L2b to L3</text>
</g>
<!-- l3_spec_nc_prod -->
<g id="node29" class="node">
<title>l3_spec_nc_prod</title>
<polygon fill="none" stroke="black" points="2284,-659.69 2088,-659.69 2088,-623.69 2284,-623.69 2284,-659.69"/>
<text text-anchor="middle" x="2186" y="-637.99" font-family="Times,serif" font-size="14.00">L3_spec_nc products 1..1</text>
</g>
<!-- trans_spec_nc_l2b_l3&#45;&gt;l3_spec_nc_prod -->
<g id="edge28" class="edge">
<title>trans_spec_nc_l2b_l3&#45;&gt;l3_spec_nc_prod</title>
<path fill="none" stroke="black" stroke-dasharray="5,2" d="M1955.61,-641.69C1955.61,-641.69 2077.73,-641.69 2077.73,-641.69"/>
<polygon fill="black" stroke="black" points="2077.73,-645.19 2087.73,-641.69 2077.73,-638.19 2077.73,-645.19"/>
</g>
<!-- l3_spec_nc_man -->
<g id="node31" class="node">
<title>l3_spec_nc_man</title>
<ellipse fill="none" stroke="black" cx="2186" cy="-587.69" rx="165.97" ry="18"/>
<text text-anchor="middle" x="2186" y="-583.99" font-family="Times,serif" font-size="14.00">L3_spec_nc product manifest 1..1</text>
</g>
<!-- trans_spec_nc_l2b_l3&#45;&gt;l3_spec_nc_man -->
<g id="edge29" class="edge">
<title>trans_spec_nc_l2b_l3&#45;&gt;l3_spec_nc_man</title>
<path fill="none" stroke="black" d="M1981.44,-587.69C1981.44,-587.69 2010.13,-587.69 2010.13,-587.69"/>
<polygon fill="black" stroke="black" points="2010.13,-591.19 2020.13,-587.69 2010.13,-584.19 2010.13,-591.19"/>
</g>
<!-- l3_spec_nc_log -->
<g id="node37" class="node">
<title>l3_spec_nc_log</title>
<ellipse fill="none" stroke="black" cx="2186" cy="-533.69" rx="100.98" ry="18"/>
<text text-anchor="middle" x="2186" y="-529.99" font-family="Times,serif" font-size="14.00">L3_spec_nc log 1..1</text>
</g>
<!-- trans_spec_nc_l2b_l3&#45;&gt;l3_spec_nc_log -->
<g id="edge30" class="edge">
<title>trans_spec_nc_l2b_l3&#45;&gt;l3_spec_nc_log</title>
<path fill="none" stroke="black" stroke-dasharray="5,2" d="M1981.44,-533.69C1981.44,-533.69 2075.12,-533.69 2075.12,-533.69"/>
<polygon fill="black" stroke="black" points="2075.12,-537.19 2085.12,-533.69 2075.12,-530.19 2075.12,-537.19"/>
</g>
<!-- l3_spec_nc_src -->
<g id="node54" class="node">
<title>l3_spec_nc_src</title>
<ellipse fill="none" stroke="black" cx="2186" cy="-479.69" rx="160.57" ry="18"/>
<text text-anchor="middle" x="2186" y="-475.99" font-family="Times,serif" font-size="14.00">L3_spec_nc source manifest 1..1</text>
</g>
<!-- trans_spec_nc_l2b_l3&#45;&gt;l3_spec_nc_src -->
<g id="edge56" class="edge">
<title>trans_spec_nc_l2b_l3&#45;&gt;l3_spec_nc_src</title>
<path fill="none" stroke="black" d="M1955.61,-479.69C1955.61,-479.69 2015.27,-479.69 2015.27,-479.69"/>
<polygon fill="black" stroke="black" points="2015.27,-483.19 2025.27,-479.69 2015.27,-476.19 2015.27,-483.19"/>
</g>
<!-- trans_spec_nc_l3_l4 -->
<g id="node4" class="node">
<title>trans_spec_nc_l3_l4</title>
<ellipse fill="none" stroke="black" cx="2516.43" cy="-776.69" rx="128.89" ry="128.89"/>
<text text-anchor="middle" x="2516.43" y="-780.49" font-family="Times,serif" font-size="14.00">spec_nc Transmutation</text>
<text text-anchor="middle" x="2516.43" y="-765.49" font-family="Times,serif" font-size="14.00">L3 to L4</text>
</g>
<!-- l4_spec_nc_prod -->
<g id="node38" class="node">
<title>l4_spec_nc_prod</title>
<polygon fill="none" stroke="black" points="2944.86,-875.69 2748.86,-875.69 2748.86,-839.69 2944.86,-839.69 2944.86,-875.69"/>
<text text-anchor="middle" x="2846.86" y="-853.99" font-family="Times,serif" font-size="14.00">L4_spec_nc products 1..1</text>
</g>
<!-- trans_spec_nc_l3_l4&#45;&gt;l4_spec_nc_prod -->
<g id="edge39" class="edge">
<title>trans_spec_nc_l3_l4&#45;&gt;l4_spec_nc_prod</title>
<path fill="none" stroke="black" stroke-dasharray="5,2" d="M2616.47,-857.69C2616.47,-857.69 2738.59,-857.69 2738.59,-857.69"/>
<polygon fill="black" stroke="black" points="2738.59,-861.19 2748.59,-857.69 2738.59,-854.19 2738.59,-861.19"/>
</g>
<!-- l4_spec_nc_log -->
<g id="node40" class="node">
<title>l4_spec_nc_log</title>
<ellipse fill="none" stroke="black" cx="2846.86" cy="-803.69" rx="100.98" ry="18"/>
<text text-anchor="middle" x="2846.86" y="-799.99" font-family="Times,serif" font-size="14.00">L4_spec_nc log 1..1</text>
</g>
<!-- trans_spec_nc_l3_l4&#45;&gt;l4_spec_nc_log -->
<g id="edge40" class="edge">
<title>trans_spec_nc_l3_l4&#45;&gt;l4_spec_nc_log</title>
<path fill="none" stroke="black" stroke-dasharray="5,2" d="M2642.3,-803.69C2642.3,-803.69 2735.98,-803.69 2735.98,-803.69"/>
<polygon fill="black" stroke="black" points="2735.98,-807.19 2745.98,-803.69 2735.98,-800.19 2735.98,-807.19"/>
</g>
<!-- l4_spec_nc_man -->
<g id="node41" class="node">
<title>l4_spec_nc_man</title>
<ellipse fill="none" stroke="black" cx="2846.86" cy="-749.69" rx="165.97" ry="18"/>
<text text-anchor="middle" x="2846.86" y="-745.99" font-family="Times,serif" font-size="14.00">L4_spec_nc product manifest 1..1</text>
</g>
<!-- trans_spec_nc_l3_l4&#45;&gt;l4_spec_nc_man -->
<g id="edge41" class="edge">
<title>trans_spec_nc_l3_l4&#45;&gt;l4_spec_nc_man</title>
<path fill="none" stroke="black" d="M2642.3,-749.69C2642.3,-749.69 2670.98,-749.69 2670.98,-749.69"/>
<polygon fill="black" stroke="black" points="2670.98,-753.19 2680.98,-749.69 2670.98,-746.19 2670.98,-753.19"/>
</g>
<!-- l4_spec_nc_src -->
<g id="node55" class="node">
<title>l4_spec_nc_src</title>
<ellipse fill="none" stroke="black" cx="2846.86" cy="-695.69" rx="157.07" ry="18"/>
<text text-anchor="middle" x="2846.86" y="-691.99" font-family="Times,serif" font-size="14.00">L4_spec_nc sourcemanifest 1..1</text>
</g>
<!-- trans_spec_nc_l3_l4&#45;&gt;l4_spec_nc_src -->
<g id="edge57" class="edge">
<title>trans_spec_nc_l3_l4&#45;&gt;l4_spec_nc_src</title>
<path fill="none" stroke="black" d="M2616.47,-695.69C2616.47,-695.69 2679.51,-695.69 2679.51,-695.69"/>
<polygon fill="black" stroke="black" points="2679.51,-699.19 2689.51,-695.69 2679.51,-692.19 2679.51,-699.19"/>
</g>
<!-- trans_spec_nc_l4_tda -->
<g id="node5" class="node">
<title>trans_spec_nc_l4_tda</title>
<ellipse fill="none" stroke="black" cx="3177.29" cy="-1046.69" rx="128.89" ry="128.89"/>
<text text-anchor="middle" x="3177.29" y="-1050.49" font-family="Times,serif" font-size="14.00">spec_nc Transmutation</text>
<text text-anchor="middle" x="3177.29" y="-1035.49" font-family="Times,serif" font-size="14.00">L4 to TDA</text>
</g>
<!-- tda_spec_nc_prod -->
<g id="node50" class="node">
<title>tda_spec_nc_prod</title>
<ellipse fill="none" stroke="black" cx="3507.07" cy="-1100.69" rx="92.08" ry="18"/>
<text text-anchor="middle" x="3507.07" y="-1096.99" font-family="Times,serif" font-size="14.00">tda_spec_nc_prod</text>
</g>
<!-- trans_spec_nc_l4_tda&#45;&gt;tda_spec_nc_prod -->
<g id="edge52" class="edge">
<title>trans_spec_nc_l4_tda&#45;&gt;tda_spec_nc_prod</title>
<path fill="none" stroke="black" stroke-dasharray="5,2" d="M3294.49,-1100.69C3294.49,-1100.69 3404.59,-1100.69 3404.59,-1100.69"/>
<polygon fill="black" stroke="black" points="3404.59,-1104.19 3414.59,-1100.69 3404.59,-1097.19 3404.59,-1104.19"/>
</g>
<!-- tda_spec_nc_log -->
<g id="node51" class="node">
<title>tda_spec_nc_log</title>
<ellipse fill="none" stroke="black" cx="3507.07" cy="-1046.69" rx="85.29" ry="18"/>
<text text-anchor="middle" x="3507.07" y="-1042.99" font-family="Times,serif" font-size="14.00">tda_spec_nc_log</text>
</g>
<!-- trans_spec_nc_l4_tda&#45;&gt;tda_spec_nc_log -->
<g id="edge53" class="edge">
<title>trans_spec_nc_l4_tda&#45;&gt;tda_spec_nc_log</title>
<path fill="none" stroke="black" stroke-dasharray="5,2" d="M3306.21,-1046.69C3306.21,-1046.69 3411.93,-1046.69 3411.93,-1046.69"/>
<polygon fill="black" stroke="black" points="3411.93,-1050.19 3421.93,-1046.69 3411.93,-1043.19 3411.93,-1050.19"/>
</g>
<!-- tda_spec_nc_src -->
<g id="node56" class="node">
<title>tda_spec_nc_src</title>
<ellipse fill="none" stroke="black" cx="3507.07" cy="-992.69" rx="165.17" ry="18"/>
<text text-anchor="middle" x="3507.07" y="-988.99" font-family="Times,serif" font-size="14.00">TDA_spec_nc sourcemanifest 1..1</text>
</g>
<!-- trans_spec_nc_l4_tda&#45;&gt;tda_spec_nc_src -->
<g id="edge58" class="edge">
<title>trans_spec_nc_l4_tda&#45;&gt;tda_spec_nc_src</title>
<path fill="none" stroke="black" d="M3294.49,-992.69C3294.49,-992.69 3331.8,-992.69 3331.8,-992.69"/>
<polygon fill="black" stroke="black" points="3331.8,-996.19 3341.8,-992.69 3331.8,-989.19 3331.8,-996.19"/>
</g>
<!-- l1_spec_nc_prod -->
<g id="node6" class="node">
<title>l1_spec_nc_prod</title>
<polygon fill="none" stroke="black" points="271.53,-254.69 75.53,-254.69 75.53,-218.69 271.53,-218.69 271.53,-254.69"/>
<text text-anchor="middle" x="173.53" y="-232.99" font-family="Times,serif" font-size="14.00">L1_spec_nc products 1..b</text>
</g>
<!-- l1_spec_nc_prod&#45;&gt;trans_spec_nc_l1_l2a -->
<g id="edge1" class="edge">
<title>l1_spec_nc_prod&#45;&gt;trans_spec_nc_l1_l2a</title>
<path fill="none" stroke="black" stroke-dasharray="5,2" d="M271.82,-236.69C271.82,-236.69 431.72,-236.69 431.72,-236.69"/>
<polygon fill="black" stroke="black" points="431.72,-240.19 441.72,-236.69 431.72,-233.19 431.72,-240.19"/>
</g>
<!-- l1_spec_nc_man -->
<g id="node7" class="node">
<title>l1_spec_nc_man</title>
<ellipse fill="none" stroke="black" cx="173.53" cy="-182.69" rx="165.97" ry="18"/>
<text text-anchor="middle" x="173.53" y="-178.99" font-family="Times,serif" font-size="14.00">L1_spec_nc product manifest 1..1</text>
</g>
<!-- l1_spec_nc_man&#45;&gt;trans_spec_nc_l1_l2a -->
<g id="edge2" class="edge">
<title>l1_spec_nc_man&#45;&gt;trans_spec_nc_l1_l2a</title>
<path fill="none" stroke="black" d="M339.68,-182.69C339.68,-182.69 384.56,-182.69 384.56,-182.69"/>
<polygon fill="black" stroke="black" points="384.56,-186.19 394.56,-182.69 384.56,-179.19 384.56,-186.19"/>
</g>
<!-- l1_spec_nc_odir -->
<g id="node8" class="node">
<title>l1_spec_nc_odir</title>
<ellipse fill="none" stroke="black" cx="173.53" cy="-128.69" rx="141.07" ry="18"/>
<text text-anchor="middle" x="173.53" y="-124.99" font-family="Times,serif" font-size="14.00">L1_spec_nc output path 1..1</text>
</g>
<!-- l1_spec_nc_odir&#45;&gt;trans_spec_nc_l1_l2a -->
<g id="edge3" class="edge">
<title>l1_spec_nc_odir&#45;&gt;trans_spec_nc_l1_l2a</title>
<path fill="none" stroke="black" d="M315.01,-128.69C315.01,-128.69 372.98,-128.69 372.98,-128.69"/>
<polygon fill="black" stroke="black" points="372.98,-132.19 382.98,-128.69 372.98,-125.19 372.98,-132.19"/>
</g>
<!-- l1_spec_nc_rec -->
<g id="node9" class="node">
<title>l1_spec_nc_rec</title>
<polygon fill="none" stroke="black" points="250.03,-86.69 85.03,-86.69 85.03,-62.69 250.03,-62.69 262.03,-74.69 250.03,-86.69"/>
<text text-anchor="middle" x="173.53" y="-70.99" font-family="Times,serif" font-size="14.00">L1_spec_nc recipe 1..1</text>
</g>
<!-- l1_spec_nc_rec&#45;&gt;trans_spec_nc_l1_l2a -->
<g id="edge4" class="edge">
<title>l1_spec_nc_rec&#45;&gt;trans_spec_nc_l1_l2a</title>
<path fill="none" stroke="black" d="M262.4,-74.69C262.4,-74.69 384.85,-74.69 384.85,-74.69"/>
<polygon fill="black" stroke="black" points="384.85,-78.19 394.85,-74.69 384.85,-71.19 384.85,-78.19"/>
</g>
<!-- l1_spec_nc_nllut -->
<g id="node10" class="node">
<title>l1_spec_nc_nllut</title>
<polygon fill="none" stroke="black" points="281.03,-32.69 54.03,-32.69 54.03,-8.69 281.03,-8.69 293.03,-20.69 281.03,-32.69"/>
<text text-anchor="middle" x="173.53" y="-16.99" font-family="Times,serif" font-size="14.00">L1_spec_nc non&#45;linear LUT 1..1</text>
</g>
<!-- l1_spec_nc_nllut&#45;&gt;trans_spec_nc_l1_l2a -->
<g id="edge5" class="edge">
<title>l1_spec_nc_nllut&#45;&gt;trans_spec_nc_l1_l2a</title>
<path fill="none" stroke="black" d="M293.26,-20.69C293.26,-20.69 431.47,-20.69 431.47,-20.69"/>
<polygon fill="black" stroke="black" points="431.47,-24.19 441.47,-20.69 431.47,-17.19 431.47,-24.19"/>
</g>
<!-- l2a_spec_nc_prod&#45;&gt;trans_spec_nc_l2a_l2b -->
<g id="edge9" class="edge">
<title>l2a_spec_nc_prod&#45;&gt;trans_spec_nc_l2a_l2b</title>
<path fill="none" stroke="black" stroke-dasharray="5,2" d="M949.5,-209.69C1048.28,-209.69 1183.15,-209.69 1183.15,-209.69 1183.15,-209.69 1183.15,-232.87 1183.15,-232.87"/>
<polygon fill="black" stroke="black" points="1179.65,-232.87 1183.15,-242.87 1186.65,-232.87 1179.65,-232.87"/>
</g>
<!-- l2a_spec_nc_man&#45;&gt;trans_spec_nc_l2a_l2b -->
<g id="edge20" class="edge">
<title>l2a_spec_nc_man&#45;&gt;trans_spec_nc_l2a_l2b</title>
<path fill="none" stroke="black" d="M1010.15,-161.47C1010.15,-183.05 1010.15,-257.69 1010.15,-257.69 1010.15,-257.69 1113.04,-257.69 1113.04,-257.69"/>
<polygon fill="black" stroke="black" points="1113.04,-261.19 1123.04,-257.69 1113.04,-254.19 1113.04,-261.19"/>
</g>
<!-- l2a_spec_nc_odir -->
<g id="node13" class="node">
<title>l2a_spec_nc_odir</title>
<ellipse fill="none" stroke="black" cx="847.39" cy="-589.69" rx="146.47" ry="18"/>
<text text-anchor="middle" x="847.39" y="-585.99" font-family="Times,serif" font-size="14.00">L2a_spec_nc output path 1..1</text>
</g>
<!-- l2a_spec_nc_odir&#45;&gt;trans_spec_nc_l2a_l2b -->
<g id="edge10" class="edge">
<title>l2a_spec_nc_odir&#45;&gt;trans_spec_nc_l2a_l2b</title>
<path fill="none" stroke="black" d="M934.29,-575.19C1046.11,-575.19 1226.15,-575.19 1226.15,-575.19 1226.15,-575.19 1226.15,-503.01 1226.15,-503.01"/>
<polygon fill="black" stroke="black" points="1229.65,-503.01 1226.15,-493.01 1222.65,-503.01 1229.65,-503.01"/>
</g>
<!-- l2a_spec_nc_rec -->
<g id="node14" class="node">
<title>l2a_spec_nc_rec</title>
<polygon fill="none" stroke="black" points="927.89,-547.69 754.89,-547.69 754.89,-523.69 927.89,-523.69 939.89,-535.69 927.89,-547.69"/>
<text text-anchor="middle" x="847.39" y="-531.99" font-family="Times,serif" font-size="14.00">L2a_spec_nc recipe 1..1</text>
</g>
<!-- l2a_spec_nc_rec&#45;&gt;trans_spec_nc_l2a_l2b -->
<g id="edge11" class="edge">
<title>l2a_spec_nc_rec&#45;&gt;trans_spec_nc_l2a_l2b</title>
<path fill="none" stroke="black" d="M940.02,-521.19C1025.79,-521.19 1140.15,-521.19 1140.15,-521.19 1140.15,-521.19 1140.15,-503.07 1140.15,-503.07"/>
<polygon fill="black" stroke="black" points="1143.65,-503.07 1140.15,-493.07 1136.65,-503.07 1143.65,-503.07"/>
</g>
<!-- l2a_spec_nc_cti -->
<g id="node15" class="node">
<title>l2a_spec_nc_cti</title>
<polygon fill="none" stroke="black" points="989.39,-493.69 693.39,-493.69 693.39,-469.69 989.39,-469.69 1001.39,-481.69 989.39,-493.69"/>
<text text-anchor="middle" x="847.39" y="-477.99" font-family="Times,serif" font-size="14.00">L2a_spec_nc charge xfer inefficiency 1..1</text>
</g>
<!-- l2a_spec_nc_cti&#45;&gt;trans_spec_nc_l2a_l2b -->
<g id="edge12" class="edge">
<title>l2a_spec_nc_cti&#45;&gt;trans_spec_nc_l2a_l2b</title>
<path fill="none" stroke="black" d="M1001.45,-481.69C1001.45,-481.69 1105.8,-481.69 1105.8,-481.69"/>
<polygon fill="black" stroke="black" points="1105.8,-485.19 1115.8,-481.69 1105.8,-478.19 1105.8,-485.19"/>
</g>
<!-- l2a_spec_nc_dnb -->
<g id="node16" class="node">
<title>l2a_spec_nc_dnb</title>
<polygon fill="none" stroke="black" points="971.39,-439.69 711.39,-439.69 711.39,-413.69 971.39,-413.69 983.39,-426.69 971.39,-439.69"/>
<text text-anchor="middle" x="847.39" y="-430.49" font-family="Times,serif" font-size="14.00">L2a_spec_nc CIC/Dark Current/FPN</text>
<text text-anchor="middle" x="847.39" y="-415.49" font-family="Times,serif" font-size="14.00"> or master dark 1..1</text>
</g>
<!-- l2a_spec_nc_dnb&#45;&gt;trans_spec_nc_l2a_l2b -->
<g id="edge13" class="edge">
<title>l2a_spec_nc_dnb&#45;&gt;trans_spec_nc_l2a_l2b</title>
<path fill="none" stroke="black" d="M983.42,-426.69C983.42,-426.69 1056.45,-426.69 1056.45,-426.69"/>
<polygon fill="black" stroke="black" points="1056.45,-430.19 1066.45,-426.69 1056.45,-423.19 1056.45,-430.19"/>
</g>
<!-- l2a_spec_nc_mbpm -->
<g id="node17" class="node">
<title>l2a_spec_nc_mbpm</title>
<polygon fill="none" stroke="black" points="983.39,-383.69 699.39,-383.69 699.39,-359.69 983.39,-359.69 995.39,-371.69 983.39,-383.69"/>
<text text-anchor="middle" x="847.39" y="-367.99" font-family="Times,serif" font-size="14.00">L2a_spec_nc master bad pixel map 1..1</text>
</g>
<!-- l2a_spec_nc_mbpm&#45;&gt;trans_spec_nc_l2a_l2b -->
<g id="edge14" class="edge">
<title>l2a_spec_nc_mbpm&#45;&gt;trans_spec_nc_l2a_l2b</title>
<path fill="none" stroke="black" d="M995.58,-371.69C995.58,-371.69 1044.32,-371.69 1044.32,-371.69"/>
<polygon fill="black" stroke="black" points="1044.32,-375.19 1054.32,-371.69 1044.32,-368.19 1044.32,-375.19"/>
</g>
<!-- l2a_spec_nc_kgain -->
<g id="node18" class="node">
<title>l2a_spec_nc_kgain</title>
<polygon fill="none" stroke="black" points="926.39,-329.69 756.39,-329.69 756.39,-305.69 926.39,-305.69 938.39,-317.69 926.39,-329.69"/>
<text text-anchor="middle" x="847.39" y="-313.99" font-family="Times,serif" font-size="14.00">L2a_spec_nc Kgain 1..1</text>
</g>
<!-- l2a_spec_nc_kgain&#45;&gt;trans_spec_nc_l2a_l2b -->
<g id="edge16" class="edge">
<title>l2a_spec_nc_kgain&#45;&gt;trans_spec_nc_l2a_l2b</title>
<path fill="none" stroke="black" d="M938.66,-317.69C938.66,-317.69 1056.19,-317.69 1056.19,-317.69"/>
<polygon fill="black" stroke="black" points="1056.19,-321.19 1066.19,-317.69 1056.19,-314.19 1056.19,-321.19"/>
</g>
<!-- l2a_spec_nc_emg -->
<g id="node19" class="node">
<title>l2a_spec_nc_emg</title>
<polygon fill="none" stroke="black" points="935.89,-275.69 746.89,-275.69 746.89,-251.69 935.89,-251.69 947.89,-263.69 935.89,-275.69"/>
<text text-anchor="middle" x="847.39" y="-259.99" font-family="Times,serif" font-size="14.00">L2a_spec_nc EM gain 1..1</text>
</g>
<!-- l2a_spec_nc_emg&#45;&gt;trans_spec_nc_l2a_l2b -->
<g id="edge15" class="edge">
<title>l2a_spec_nc_emg&#45;&gt;trans_spec_nc_l2a_l2b</title>
<path fill="none" stroke="black" d="M948.09,-269.69C948.09,-269.69 1094.52,-269.69 1094.52,-269.69"/>
<polygon fill="black" stroke="black" points="1094.52,-273.19 1104.52,-269.69 1094.52,-266.19 1094.52,-273.19"/>
</g>
<!-- l2b_spec_nc_prod&#45;&gt;trans_spec_nc_l2b_l3 -->
<g id="edge21" class="edge">
<title>l2b_spec_nc_prod&#45;&gt;trans_spec_nc_l2b_l3</title>
<path fill="none" stroke="black" stroke-dasharray="5,2" d="M1622.02,-458.69C1622.02,-458.69 1766.96,-458.69 1766.96,-458.69"/>
<polygon fill="black" stroke="black" points="1766.96,-462.19 1776.96,-458.69 1766.96,-455.19 1766.96,-462.19"/>
</g>
<!-- l2b_spec_nc_man&#45;&gt;trans_spec_nc_l2b_l3 -->
<g id="edge22" class="edge">
<title>l2b_spec_nc_man&#45;&gt;trans_spec_nc_l2b_l3</title>
<path fill="none" stroke="black" d="M1683.15,-404.2C1683.15,-416.81 1683.15,-446.69 1683.15,-446.69 1683.15,-446.69 1785.76,-446.69 1785.76,-446.69"/>
<polygon fill="black" stroke="black" points="1785.76,-450.19 1795.76,-446.69 1785.75,-443.19 1785.76,-450.19"/>
</g>
<!-- l2b_spec_nc_odir -->
<g id="node23" class="node">
<title>l2b_spec_nc_odir</title>
<ellipse fill="none" stroke="black" cx="1519.3" cy="-722.69" rx="146.77" ry="18"/>
<text text-anchor="middle" x="1519.3" y="-718.99" font-family="Times,serif" font-size="14.00">L2b_spec_nc output path 1..1</text>
</g>
<!-- l2b_spec_nc_odir&#45;&gt;trans_spec_nc_l2b_l3 -->
<g id="edge23" class="edge">
<title>l2b_spec_nc_odir&#45;&gt;trans_spec_nc_l2b_l3</title>
<path fill="none" stroke="black" d="M1640.15,-712.04C1640.15,-697.9 1640.15,-674.69 1640.15,-674.69 1640.15,-674.69 1785.85,-674.69 1785.85,-674.69"/>
<polygon fill="black" stroke="black" points="1785.85,-678.19 1795.85,-674.69 1785.85,-671.19 1785.85,-678.19"/>
</g>
<!-- l2b_spec_nc_rec -->
<g id="node24" class="node">
<title>l2b_spec_nc_rec</title>
<polygon fill="none" stroke="black" points="1600.3,-680.69 1426.3,-680.69 1426.3,-656.69 1600.3,-656.69 1612.3,-668.69 1600.3,-680.69"/>
<text text-anchor="middle" x="1519.3" y="-664.99" font-family="Times,serif" font-size="14.00">L2b_spec_nc recipe 1..1</text>
</g>
<!-- l2b_spec_nc_rec&#45;&gt;trans_spec_nc_l2b_l3 -->
<g id="edge24" class="edge">
<title>l2b_spec_nc_rec&#45;&gt;trans_spec_nc_l2b_l3</title>
<path fill="none" stroke="black" d="M1612.52,-662.69C1612.52,-662.69 1766.97,-662.69 1766.97,-662.69"/>
<polygon fill="black" stroke="black" points="1766.97,-666.19 1776.97,-662.69 1766.97,-659.19 1766.97,-666.19"/>
</g>
<!-- l2b_spec_nc_excicrf -->
<g id="node25" class="node">
<title>l2b_spec_nc_excicrf</title>
<polygon fill="none" stroke="black" points="1656.3,-626.69 1370.3,-626.69 1370.3,-602.69 1656.3,-602.69 1668.3,-614.69 1656.3,-626.69"/>
<text text-anchor="middle" x="1519.3" y="-610.99" font-family="Times,serif" font-size="14.00">L2b_spec_nc EXCAM ICRF location 1..1</text>
</g>
<!-- l2b_spec_nc_excicrf&#45;&gt;trans_spec_nc_l2b_l3 -->
<g id="edge25" class="edge">
<title>l2b_spec_nc_excicrf&#45;&gt;trans_spec_nc_l2b_l3</title>
<path fill="none" stroke="black" d="M1668.75,-614.69C1668.75,-614.69 1728.63,-614.69 1728.63,-614.69"/>
<polygon fill="black" stroke="black" points="1728.63,-618.19 1738.63,-614.69 1728.63,-611.19 1728.63,-618.19"/>
</g>
<!-- l2b_spec_nc_excfovps -->
<g id="node26" class="node">
<title>l2b_spec_nc_excfovps</title>
<polygon fill="none" stroke="black" points="1662.8,-572.69 1363.8,-572.69 1363.8,-548.69 1662.8,-548.69 1674.8,-560.69 1662.8,-572.69"/>
<text text-anchor="middle" x="1519.3" y="-556.99" font-family="Times,serif" font-size="14.00">L2b_spec_nc EXCAM FOV pixel scale 1..1</text>
</g>
<!-- l2b_spec_nc_excfovps&#45;&gt;trans_spec_nc_l2b_l3 -->
<g id="edge26" class="edge">
<title>l2b_spec_nc_excfovps&#45;&gt;trans_spec_nc_l2b_l3</title>
<path fill="none" stroke="black" d="M1675.13,-560.69C1675.13,-560.69 1716.72,-560.69 1716.72,-560.69"/>
<polygon fill="black" stroke="black" points="1716.72,-564.19 1726.72,-560.69 1716.72,-557.19 1716.72,-564.19"/>
</g>
<!-- l2b_spec_nc_cfamfo -->
<g id="node27" class="node">
<title>l2b_spec_nc_cfamfo</title>
<polygon fill="none" stroke="black" points="1644.8,-518.69 1381.8,-518.69 1381.8,-494.69 1644.8,-494.69 1656.8,-506.69 1644.8,-518.69"/>
<text text-anchor="middle" x="1519.3" y="-502.99" font-family="Times,serif" font-size="14.00">L2b_spec_nc CFAM filter offsets 1..1</text>
</g>
<!-- l2b_spec_nc_cfamfo&#45;&gt;trans_spec_nc_l2b_l3 -->
<g id="edge27" class="edge">
<title>l2b_spec_nc_cfamfo&#45;&gt;trans_spec_nc_l2b_l3</title>
<path fill="none" stroke="black" d="M1657.04,-506.69C1657.04,-506.69 1728.72,-506.69 1728.72,-506.69"/>
<polygon fill="black" stroke="black" points="1728.72,-510.19 1738.72,-506.69 1728.72,-503.19 1728.72,-510.19"/>
</g>
<!-- l3_spec_nc_prod&#45;&gt;trans_spec_nc_l3_l4 -->
<g id="edge31" class="edge">
<title>l3_spec_nc_prod&#45;&gt;trans_spec_nc_l3_l4</title>
<path fill="none" stroke="black" stroke-dasharray="5,2" d="M2284.25,-655.8C2284.25,-655.8 2462.2,-655.8 2462.2,-655.8"/>
<polygon fill="black" stroke="black" points="2462.2,-659.3 2472.2,-655.8 2462.2,-652.3 2462.2,-659.3"/>
</g>
<!-- l3_spec_nc_odir -->
<g id="node30" class="node">
<title>l3_spec_nc_odir</title>
<ellipse fill="none" stroke="black" cx="2186" cy="-965.69" rx="141.07" ry="18"/>
<text text-anchor="middle" x="2186" y="-961.99" font-family="Times,serif" font-size="14.00">L3_spec_nc output path 1..1</text>
</g>
<!-- l3_spec_nc_odir&#45;&gt;trans_spec_nc_l3_l4 -->
<g id="edge33" class="edge">
<title>l3_spec_nc_odir&#45;&gt;trans_spec_nc_l3_l4</title>
<path fill="none" stroke="black" d="M2321.15,-960.22C2321.15,-944.69 2321.15,-901.49 2321.15,-901.49 2321.15,-901.49 2474.62,-901.49 2474.62,-901.49"/>
<polygon fill="black" stroke="black" points="2474.62,-904.99 2484.62,-901.49 2474.62,-897.99 2474.62,-904.99"/>
</g>
<!-- l3_spec_nc_man&#45;&gt;trans_spec_nc_l3_l4 -->
<g id="edge32" class="edge">
<title>l3_spec_nc_man&#45;&gt;trans_spec_nc_l3_l4</title>
<path fill="none" stroke="black" d="M2340.15,-594.56C2340.15,-611.13 2340.15,-651.9 2340.15,-651.9 2340.15,-651.9 2474.92,-651.9 2474.92,-651.9"/>
<polygon fill="black" stroke="black" points="2474.92,-655.4 2484.92,-651.9 2474.92,-648.4 2474.92,-655.4"/>
</g>
<!-- l3_spec_nc_rec -->
<g id="node32" class="node">
<title>l3_spec_nc_rec</title>
<polygon fill="none" stroke="black" points="2262.5,-923.69 2097.5,-923.69 2097.5,-899.69 2262.5,-899.69 2274.5,-911.69 2262.5,-923.69"/>
<text text-anchor="middle" x="2186" y="-907.99" font-family="Times,serif" font-size="14.00">L3_spec_nc recipe 1..1</text>
</g>
<!-- l3_spec_nc_rec&#45;&gt;trans_spec_nc_l3_l4 -->
<g id="edge34" class="edge">
<title>l3_spec_nc_rec&#45;&gt;trans_spec_nc_l3_l4</title>
<path fill="none" stroke="black" d="M2274.55,-897.59C2274.55,-897.59 2462.21,-897.59 2462.21,-897.59"/>
<polygon fill="black" stroke="black" points="2462.21,-901.09 2472.21,-897.59 2462.21,-894.09 2462.21,-901.09"/>
</g>
<!-- l3_spec_nc_ast -->
<g id="node33" class="node">
<title>l3_spec_nc_ast</title>
<polygon fill="none" stroke="black" points="2282,-869.69 2078,-869.69 2078,-845.69 2282,-845.69 2294,-857.69 2282,-869.69"/>
<text text-anchor="middle" x="2186" y="-853.99" font-family="Times,serif" font-size="14.00">L3_spec_nc astrometric 1..1</text>
</g>
<!-- l3_spec_nc_ast&#45;&gt;trans_spec_nc_l3_l4 -->
<g id="edge35" class="edge">
<title>l3_spec_nc_ast&#45;&gt;trans_spec_nc_l3_l4</title>
<path fill="none" stroke="black" d="M2294.2,-857.69C2294.2,-857.69 2406.39,-857.69 2406.39,-857.69"/>
<polygon fill="black" stroke="black" points="2406.39,-861.19 2416.39,-857.69 2406.39,-854.19 2406.39,-861.19"/>
</g>
<!-- l3_spec_nc_ndf -->
<g id="node34" class="node">
<title>l3_spec_nc_ndf</title>
<polygon fill="none" stroke="black" points="2274,-815.69 2086,-815.69 2086,-791.69 2274,-791.69 2286,-803.69 2274,-815.69"/>
<text text-anchor="middle" x="2186" y="-799.99" font-family="Times,serif" font-size="14.00">L3_spec_nc ND Filter 1..1</text>
</g>
<!-- l3_spec_nc_ndf&#45;&gt;trans_spec_nc_l3_l4 -->
<g id="edge36" class="edge">
<title>l3_spec_nc_ndf&#45;&gt;trans_spec_nc_l3_l4</title>
<path fill="none" stroke="black" d="M2286.04,-803.69C2286.04,-803.69 2380.39,-803.69 2380.39,-803.69"/>
<polygon fill="black" stroke="black" points="2380.39,-807.19 2390.39,-803.69 2380.39,-800.19 2380.39,-807.19"/>
</g>
<!-- l3_spec_nc_dispm -->
<g id="node35" class="node">
<title>l3_spec_nc_dispm</title>
<polygon fill="none" stroke="black" points="2301.5,-761.69 2058.5,-761.69 2058.5,-737.69 2301.5,-737.69 2313.5,-749.69 2301.5,-761.69"/>
<text text-anchor="middle" x="2186" y="-745.99" font-family="Times,serif" font-size="14.00">L3_spec_nc dispersion model 1..1</text>
</g>
<!-- l3_spec_nc_dispm&#45;&gt;trans_spec_nc_l3_l4 -->
<g id="edge37" class="edge">
<title>l3_spec_nc_dispm&#45;&gt;trans_spec_nc_l3_l4</title>
<path fill="none" stroke="black" d="M2313.76,-749.69C2313.76,-749.69 2380.38,-749.69 2380.38,-749.69"/>
<polygon fill="black" stroke="black" points="2380.38,-753.19 2390.38,-749.69 2380.38,-746.19 2380.38,-753.19"/>
</g>
<!-- l3_spec_nc_wavem -->
<g id="node36" class="node">
<title>l3_spec_nc_wavem</title>
<polygon fill="none" stroke="black" points="2299.5,-707.69 2060.5,-707.69 2060.5,-683.69 2299.5,-683.69 2311.5,-695.69 2299.5,-707.69"/>
<text text-anchor="middle" x="2186" y="-691.99" font-family="Times,serif" font-size="14.00">L3_spec_nc wavelength map 1..1</text>
</g>
<!-- l3_spec_nc_wavem&#45;&gt;trans_spec_nc_l3_l4 -->
<g id="edge38" class="edge">
<title>l3_spec_nc_wavem&#45;&gt;trans_spec_nc_l3_l4</title>
<path fill="none" stroke="black" d="M2311.87,-695.69C2311.87,-695.69 2406.33,-695.69 2406.33,-695.69"/>
<polygon fill="black" stroke="black" points="2406.33,-699.19 2416.33,-695.69 2406.33,-692.19 2406.33,-699.19"/>
</g>
<!-- l4_spec_nc_prod&#45;&gt;trans_spec_nc_l4_tda -->
<g id="edge42" class="edge">
<title>l4_spec_nc_prod&#45;&gt;trans_spec_nc_l4_tda</title>
<path fill="none" stroke="black" stroke-dasharray="5,2" d="M2944.92,-857.69C3042.61,-857.69 3178.15,-857.69 3178.15,-857.69 3178.15,-857.69 3178.15,-907.75 3178.15,-907.75"/>
<polygon fill="black" stroke="black" points="3174.65,-907.75 3178.15,-917.75 3181.65,-907.75 3174.65,-907.75"/>
</g>
<!-- l4_spec_nc_odir -->
<g id="node39" class="node">
<title>l4_spec_nc_odir</title>
<ellipse fill="none" stroke="black" cx="2846.86" cy="-1289.69" rx="141.07" ry="18"/>
<text text-anchor="middle" x="2846.86" y="-1285.99" font-family="Times,serif" font-size="14.00">L4_spec_nc output path 1..1</text>
</g>
<!-- l4_spec_nc_odir&#45;&gt;trans_spec_nc_l4_tda -->
<g id="edge44" class="edge">
<title>l4_spec_nc_odir&#45;&gt;trans_spec_nc_l4_tda</title>
<path fill="none" stroke="black" d="M2988.1,-1289.69C3094.15,-1289.69 3221.15,-1289.69 3221.15,-1289.69 3221.15,-1289.69 3221.15,-1177.84 3221.15,-1177.84"/>
<polygon fill="black" stroke="black" points="3224.65,-1177.84 3221.15,-1167.84 3217.65,-1177.84 3224.65,-1177.84"/>
</g>
<!-- l4_spec_nc_man&#45;&gt;trans_spec_nc_l4_tda -->
<g id="edge43" class="edge">
<title>l4_spec_nc_man&#45;&gt;trans_spec_nc_l4_tda</title>
<path fill="none" stroke="black" d="M2998.15,-757.09C2998.15,-790.05 2998.15,-921.9 2998.15,-921.9 2998.15,-921.9 3135.68,-921.9 3135.68,-921.9"/>
<polygon fill="black" stroke="black" points="3135.68,-925.4 3145.68,-921.9 3135.68,-918.4 3135.68,-925.4"/>
</g>
<!-- l4_spec_nc_rec -->
<g id="node42" class="node">
<title>l4_spec_nc_rec</title>
<polygon fill="none" stroke="black" points="2923.36,-1247.69 2758.36,-1247.69 2758.36,-1223.69 2923.36,-1223.69 2935.36,-1235.69 2923.36,-1247.69"/>
<text text-anchor="middle" x="2846.86" y="-1231.99" font-family="Times,serif" font-size="14.00">L4_spec_nc recipe 1..1</text>
</g>
<!-- l4_spec_nc_rec&#45;&gt;trans_spec_nc_l4_tda -->
<g id="edge45" class="edge">
<title>l4_spec_nc_rec&#45;&gt;trans_spec_nc_l4_tda</title>
<path fill="none" stroke="black" d="M2935.71,-1235.69C3020.42,-1235.69 3135.15,-1235.69 3135.15,-1235.69 3135.15,-1235.69 3135.15,-1178.53 3135.15,-1178.53"/>
<polygon fill="black" stroke="black" points="3138.65,-1178.53 3135.15,-1168.53 3131.65,-1178.53 3138.65,-1178.53"/>
</g>
<!-- l4_spec_nc_afcal -->
<g id="node43" class="node">
<title>l4_spec_nc_afcal</title>
<polygon fill="none" stroke="black" points="2991.36,-1193.69 2690.36,-1193.69 2690.36,-1169.69 2991.36,-1169.69 3003.36,-1181.69 2991.36,-1193.69"/>
<text text-anchor="middle" x="2846.86" y="-1177.99" font-family="Times,serif" font-size="14.00">L4_spec_nc absolute flux calibrations 1..1</text>
</g>
<!-- l4_spec_nc_afcal&#45;&gt;trans_spec_nc_l4_tda -->
<g id="edge46" class="edge">
<title>l4_spec_nc_afcal&#45;&gt;trans_spec_nc_l4_tda</title>
<path fill="none" stroke="black" d="M3003.37,-1169.54C3003.37,-1169.54 3128.94,-1169.54 3128.94,-1169.54"/>
<polygon fill="black" stroke="black" points="3128.94,-1173.04 3138.94,-1169.54 3128.94,-1166.04 3128.94,-1173.04"/>
</g>
<!-- l4_spec_nc_ndfilt -->
<g id="node44" class="node">
<title>l4_spec_nc_ndfilt</title>
<polygon fill="none" stroke="black" points="2932.36,-1139.69 2749.36,-1139.69 2749.36,-1115.69 2932.36,-1115.69 2944.36,-1127.69 2932.36,-1139.69"/>
<text text-anchor="middle" x="2846.86" y="-1123.99" font-family="Times,serif" font-size="14.00">L4_spec_nc ND filter 1..1</text>
</g>
<!-- l4_spec_nc_ndfilt&#45;&gt;trans_spec_nc_l4_tda -->
<g id="edge47" class="edge">
<title>l4_spec_nc_ndfilt&#45;&gt;trans_spec_nc_l4_tda</title>
<path fill="none" stroke="black" d="M2944.66,-1127.69C2944.66,-1127.69 3067.17,-1127.69 3067.17,-1127.69"/>
<polygon fill="black" stroke="black" points="3067.17,-1131.19 3077.17,-1127.69 3067.17,-1124.19 3067.17,-1131.19"/>
</g>
<!-- l4_spec_nc_stmap -->
<g id="node45" class="node">
<title>l4_spec_nc_stmap</title>
<polygon fill="none" stroke="black" points="2978.36,-1085.69 2703.36,-1085.69 2703.36,-1061.69 2978.36,-1061.69 2990.36,-1073.69 2978.36,-1085.69"/>
<text text-anchor="middle" x="2846.86" y="-1069.99" font-family="Times,serif" font-size="14.00">L4_spec_nc slit transmission map 1..1</text>
</g>
<!-- l4_spec_nc_stmap&#45;&gt;trans_spec_nc_l4_tda -->
<g id="edge48" class="edge">
<title>l4_spec_nc_stmap&#45;&gt;trans_spec_nc_l4_tda</title>
<path fill="none" stroke="black" d="M2990.83,-1073.69C2990.83,-1073.69 3041.41,-1073.69 3041.41,-1073.69"/>
<polygon fill="black" stroke="black" points="3041.41,-1077.19 3051.41,-1073.69 3041.41,-1070.19 3041.41,-1077.19"/>
</g>
<!-- l4_spec_nc_tspi -->
<g id="node46" class="node">
<title>l4_spec_nc_tspi</title>
<polygon fill="none" stroke="black" points="2986.86,-1031.69 2694.86,-1031.69 2694.86,-1007.69 2986.86,-1007.69 2998.86,-1019.69 2986.86,-1031.69"/>
<text text-anchor="middle" x="2846.86" y="-1015.99" font-family="Times,serif" font-size="14.00">L4_spec_nc target star prism image 1..1</text>
</g>
<!-- l4_spec_nc_tspi&#45;&gt;trans_spec_nc_l4_tda -->
<g id="edge49" class="edge">
<title>l4_spec_nc_tspi&#45;&gt;trans_spec_nc_l4_tda</title>
<path fill="none" stroke="black" d="M2999.02,-1019.69C2999.02,-1019.69 3041.16,-1019.69 3041.16,-1019.69"/>
<polygon fill="black" stroke="black" points="3041.16,-1023.19 3051.16,-1019.69 3041.16,-1016.19 3041.16,-1023.19"/>
</g>
<!-- l4_spec_nc_rspi -->
<g id="node47" class="node">
<title>l4_spec_nc_rspi</title>
<polygon fill="none" stroke="black" points="2998.86,-977.69 2682.86,-977.69 2682.86,-953.69 2998.86,-953.69 3010.86,-965.69 2998.86,-977.69"/>
<text text-anchor="middle" x="2846.86" y="-961.99" font-family="Times,serif" font-size="14.00">L4_spec_nc reference star prism image 1..1</text>
</g>
<!-- l4_spec_nc_rspi&#45;&gt;trans_spec_nc_l4_tda -->
<g id="edge50" class="edge">
<title>l4_spec_nc_rspi&#45;&gt;trans_spec_nc_l4_tda</title>
<path fill="none" stroke="black" d="M3011.11,-965.69C3011.11,-965.69 3067.05,-965.69 3067.05,-965.69"/>
<polygon fill="black" stroke="black" points="3067.05,-969.19 3077.05,-965.69 3067.05,-962.19 3067.05,-969.19"/>
</g>
<!-- l4_spec_nc_lsf -->
<g id="node48" class="node">
<title>l4_spec_nc_lsf</title>
<polygon fill="none" stroke="black" points="2972.36,-923.69 2709.36,-923.69 2709.36,-899.69 2972.36,-899.69 2984.36,-911.69 2972.36,-923.69"/>
<text text-anchor="middle" x="2846.86" y="-907.99" font-family="Times,serif" font-size="14.00">L4_spec_nc line spread function 1..1</text>
</g>
<!-- l4_spec_nc_lsf&#45;&gt;trans_spec_nc_l4_tda -->
<g id="edge51" class="edge">
<title>l4_spec_nc_lsf&#45;&gt;trans_spec_nc_l4_tda</title>
<path fill="none" stroke="black" d="M2984.6,-925.8C2984.6,-925.8 3122.86,-925.8 3122.86,-925.8"/>
<polygon fill="black" stroke="black" points="3122.86,-929.3 3132.86,-925.8 3122.86,-922.3 3122.86,-929.3"/>
</g>
<!-- tda_spec_nc_man -->
<g id="node49" class="node">
<title>tda_spec_nc_man</title>
<ellipse fill="none" stroke="black" cx="173.53" cy="-290.69" rx="173.57" ry="18"/>
<text text-anchor="middle" x="173.53" y="-286.99" font-family="Times,serif" font-size="14.00">TDA_spec_nc product manifest 1..1</text>
</g>
</g>
</svg>
