<?xml version="1.0" encoding="UTF-8" standalone="no"?>
<!DOCTYPE svg PUBLIC "-//W3C//DTD SVG 1.1//EN"
 "http://www.w3.org/Graphics/SVG/1.1/DTD/svg11.dtd">
<!-- Generated by graphviz version 2.43.0 (0)
 -->
<!-- Title: SpectroscopyAnalog Pages: 1 -->
<svg width="3554pt" height="1313pt"
 viewBox="0.00 0.00 3554.12 1313.00" xmlns="http://www.w3.org/2000/svg" xmlns:xlink="http://www.w3.org/1999/xlink">
<g id="graph0" class="graph" transform="scale(1 1) rotate(0) translate(4 1309)">
<title>SpectroscopyAnalog</title>
<polygon fill="white" stroke="transparent" points="-4,4 -4,-1309 3550.12,-1309 3550.12,4 -4,4"/>
<!-- trans_spec_a_l1_l2a -->
<g id="node1" class="node">
<title>trans_spec_a_l1_l2a</title>
<ellipse fill="none" stroke="black" cx="495" cy="-126" rx="122.16" ry="122.16"/>
<text text-anchor="middle" x="495" y="-129.8" font-family="Times,serif" font-size="14.00">spec_a Transmutation</text>
<text text-anchor="middle" x="495" y="-114.8" font-family="Times,serif" font-size="14.00">L1 to L2a</text>
</g>
<!-- l2a_spec_a_prod -->
<g id="node11" class="node">
<title>l2a_spec_a_prod</title>
<polygon fill="none" stroke="black" points="917.06,-225 721.06,-225 721.06,-189 917.06,-189 917.06,-225"/>
<text text-anchor="middle" x="819.06" y="-203.3" font-family="Times,serif" font-size="14.00">L2a_spec_a products 1..b</text>
</g>
<!-- trans_spec_a_l1_l2a&#45;&gt;l2a_spec_a_prod -->
<g id="edge6" class="edge">
<title>trans_spec_a_l1_l2a&#45;&gt;l2a_spec_a_prod</title>
<path fill="none" stroke="black" stroke-dasharray="5,2" d="M587,-207C587,-207 710.89,-207 710.89,-207"/>
<polygon fill="black" stroke="black" points="710.89,-210.5 720.89,-207 710.89,-203.5 710.89,-210.5"/>
</g>
<!-- l2a_spec_a_man -->
<g id="node12" class="node">
<title>l2a_spec_a_man</title>
<ellipse fill="none" stroke="black" cx="819.06" cy="-153" rx="165.97" ry="18"/>
<text text-anchor="middle" x="819.06" y="-149.3" font-family="Times,serif" font-size="14.00">L2a_spec_a product manifest 1..1</text>
</g>
<!-- trans_spec_a_l1_l2a&#45;&gt;l2a_spec_a_man -->
<g id="edge7" class="edge">
<title>trans_spec_a_l1_l2a&#45;&gt;l2a_spec_a_man</title>
<path fill="none" stroke="black" d="M614.75,-153C614.75,-153 643.1,-153 643.1,-153"/>
<polygon fill="black" stroke="black" points="643.1,-156.5 653.1,-153 643.1,-149.5 643.1,-156.5"/>
</g>
<!-- l2a_spec_a_log -->
<g id="node20" class="node">
<title>l2a_spec_a_log</title>
<ellipse fill="none" stroke="black" cx="819.06" cy="-99" rx="100.98" ry="18"/>
<text text-anchor="middle" x="819.06" y="-95.3" font-family="Times,serif" font-size="14.00">L2a log_spec_a 1..1</text>
</g>
<!-- trans_spec_a_l1_l2a&#45;&gt;l2a_spec_a_log -->
<g id="edge8" class="edge">
<title>trans_spec_a_l1_l2a&#45;&gt;l2a_spec_a_log</title>
<path fill="none" stroke="black" stroke-dasharray="5,2" d="M614.75,-99C614.75,-99 708.14,-99 708.14,-99"/>
<polygon fill="black" stroke="black" points="708.14,-102.5 718.14,-99 708.14,-95.5 708.14,-102.5"/>
</g>
<!-- l2a_spec_a_src -->
<g id="node52" class="node">
<title>l2a_spec_a_src</title>
<ellipse fill="none" stroke="black" cx="819.06" cy="-45" rx="160.57" ry="18"/>
<text text-anchor="middle" x="819.06" y="-41.3" font-family="Times,serif" font-size="14.00">L2a_spec_a source manifest 1..1</text>
</g>
<!-- trans_spec_a_l1_l2a&#45;&gt;l2a_spec_a_src -->
<g id="edge54" class="edge">
<title>trans_spec_a_l1_l2a&#45;&gt;l2a_spec_a_src</title>
<path fill="none" stroke="black" d="M587,-45C587,-45 648.44,-45 648.44,-45"/>
<polygon fill="black" stroke="black" points="648.44,-48.5 658.44,-45 648.44,-41.5 648.44,-48.5"/>
</g>
<!-- trans_spec_a_l2a_l2b -->
<g id="node2" class="node">
<title>trans_spec_a_l2a_l2b</title>
<ellipse fill="none" stroke="black" cx="1143.13" cy="-369" rx="122.16" ry="122.16"/>
<text text-anchor="middle" x="1143.13" y="-372.8" font-family="Times,serif" font-size="14.00">spec_a Transmutation</text>
<text text-anchor="middle" x="1143.13" y="-357.8" font-family="Times,serif" font-size="14.00">L2a to L2b</text>
</g>
<!-- l2b_spec_a_prod -->
<g id="node21" class="node">
<title>l2b_spec_a_prod</title>
<polygon fill="none" stroke="black" points="1566.34,-468 1369.34,-468 1369.34,-432 1566.34,-432 1566.34,-468"/>
<text text-anchor="middle" x="1467.84" y="-446.3" font-family="Times,serif" font-size="14.00">L2b_spec_a products 1..1</text>
</g>
<!-- trans_spec_a_l2a_l2b&#45;&gt;l2b_spec_a_prod -->
<g id="edge17" class="edge">
<title>trans_spec_a_l2a_l2b&#45;&gt;l2b_spec_a_prod</title>
<path fill="none" stroke="black" stroke-dasharray="5,2" d="M1234.88,-450C1234.88,-450 1359.22,-450 1359.22,-450"/>
<polygon fill="black" stroke="black" points="1359.22,-453.5 1369.22,-450 1359.22,-446.5 1359.22,-453.5"/>
</g>
<!-- l2b_spec_a_man -->
<g id="node22" class="node">
<title>l2b_spec_a_man</title>
<ellipse fill="none" stroke="black" cx="1467.84" cy="-396" rx="166.27" ry="18"/>
<text text-anchor="middle" x="1467.84" y="-392.3" font-family="Times,serif" font-size="14.00">L2b_spec_a product manifest 1..1</text>
</g>
<!-- trans_spec_a_l2a_l2b&#45;&gt;l2b_spec_a_man -->
<g id="edge18" class="edge">
<title>trans_spec_a_l2a_l2b&#45;&gt;l2b_spec_a_man</title>
<path fill="none" stroke="black" d="M1262.66,-396C1262.66,-396 1291.42,-396 1291.42,-396"/>
<polygon fill="black" stroke="black" points="1291.42,-399.5 1301.42,-396 1291.42,-392.5 1291.42,-399.5"/>
</g>
<!-- l2b_spec_a_log -->
<g id="node28" class="node">
<title>l2b_spec_a_log</title>
<ellipse fill="none" stroke="black" cx="1467.84" cy="-342" rx="100.98" ry="18"/>
<text text-anchor="middle" x="1467.84" y="-338.3" font-family="Times,serif" font-size="14.00">L2b_spec_a log 1..1</text>
</g>
<!-- trans_spec_a_l2a_l2b&#45;&gt;l2b_spec_a_log -->
<g id="edge19" class="edge">
<title>trans_spec_a_l2a_l2b&#45;&gt;l2b_spec_a_log</title>
<path fill="none" stroke="black" stroke-dasharray="5,2" d="M1262.66,-342C1262.66,-342 1356.96,-342 1356.96,-342"/>
<polygon fill="black" stroke="black" points="1356.96,-345.5 1366.96,-342 1356.96,-338.5 1356.96,-345.5"/>
</g>
<!-- l2b_spec_a_src -->
<g id="node53" class="node">
<title>l2b_spec_a_src</title>
<ellipse fill="none" stroke="black" cx="1467.84" cy="-288" rx="161.37" ry="18"/>
<text text-anchor="middle" x="1467.84" y="-284.3" font-family="Times,serif" font-size="14.00">L2b_spec_a source manifest 1..1</text>
</g>
<!-- trans_spec_a_l2a_l2b&#45;&gt;l2b_spec_a_src -->
<g id="edge55" class="edge">
<title>trans_spec_a_l2a_l2b&#45;&gt;l2b_spec_a_src</title>
<path fill="none" stroke="black" d="M1234.88,-288C1234.88,-288 1296.54,-288 1296.54,-288"/>
<polygon fill="black" stroke="black" points="1296.54,-291.5 1306.54,-288 1296.54,-284.5 1296.54,-291.5"/>
</g>
<!-- trans_spec_a_l2b_l3 -->
<g id="node3" class="node">
<title>trans_spec_a_l2b_l3</title>
<ellipse fill="none" stroke="black" cx="1792.56" cy="-558" rx="122.16" ry="122.16"/>
<text text-anchor="middle" x="1792.56" y="-561.8" font-family="Times,serif" font-size="14.00">spec_a Transmutation</text>
<text text-anchor="middle" x="1792.56" y="-546.8" font-family="Times,serif" font-size="14.00">L2b to L3</text>
</g>
<!-- l3_spec_a_prod -->
<g id="node29" class="node">
<title>l3_spec_a_prod</title>
<polygon fill="none" stroke="black" points="2205.42,-657 2017.42,-657 2017.42,-621 2205.42,-621 2205.42,-657"/>
<text text-anchor="middle" x="2111.42" y="-635.3" font-family="Times,serif" font-size="14.00">L3_spec_a products 1..1</text>
</g>
<!-- trans_spec_a_l2b_l3&#45;&gt;l3_spec_a_prod -->
<g id="edge28" class="edge">
<title>trans_spec_a_l2b_l3&#45;&gt;l3_spec_a_prod</title>
<path fill="none" stroke="black" stroke-dasharray="5,2" d="M1884.36,-639C1884.36,-639 2007.23,-639 2007.23,-639"/>
<polygon fill="black" stroke="black" points="2007.23,-642.5 2017.23,-639 2007.23,-635.5 2007.23,-642.5"/>
</g>
<!-- l3_spec_a_man -->
<g id="node31" class="node">
<title>l3_spec_a_man</title>
<ellipse fill="none" stroke="black" cx="2111.42" cy="-585" rx="160.57" ry="18"/>
<text text-anchor="middle" x="2111.42" y="-581.3" font-family="Times,serif" font-size="14.00">L3_spec_a product manifest 1..1</text>
</g>
<!-- trans_spec_a_l2b_l3&#45;&gt;l3_spec_a_man -->
<g id="edge29" class="edge">
<title>trans_spec_a_l2b_l3&#45;&gt;l3_spec_a_man</title>
<path fill="none" stroke="black" d="M1912.2,-585C1912.2,-585 1940.83,-585 1940.83,-585"/>
<polygon fill="black" stroke="black" points="1940.83,-588.5 1950.83,-585 1940.83,-581.5 1940.83,-588.5"/>
</g>
<!-- l3_spec_a_log -->
<g id="node37" class="node">
<title>l3_spec_a_log</title>
<ellipse fill="none" stroke="black" cx="2111.42" cy="-531" rx="94.78" ry="18"/>
<text text-anchor="middle" x="2111.42" y="-527.3" font-family="Times,serif" font-size="14.00">L3_spec_a log 1..1</text>
</g>
<!-- trans_spec_a_l2b_l3&#45;&gt;l3_spec_a_log -->
<g id="edge30" class="edge">
<title>trans_spec_a_l2b_l3&#45;&gt;l3_spec_a_log</title>
<path fill="none" stroke="black" stroke-dasharray="5,2" d="M1912.2,-531C1912.2,-531 2006.51,-531 2006.51,-531"/>
<polygon fill="black" stroke="black" points="2006.51,-534.5 2016.51,-531 2006.51,-527.5 2006.51,-534.5"/>
</g>
<!-- l3_spec_a_src -->
<g id="node54" class="node">
<title>l3_spec_a_src</title>
<ellipse fill="none" stroke="black" cx="2111.42" cy="-477" rx="155.17" ry="18"/>
<text text-anchor="middle" x="2111.42" y="-473.3" font-family="Times,serif" font-size="14.00">L3_spec_a source manifest 1..1</text>
</g>
<!-- trans_spec_a_l2b_l3&#45;&gt;l3_spec_a_src -->
<g id="edge56" class="edge">
<title>trans_spec_a_l2b_l3&#45;&gt;l3_spec_a_src</title>
<path fill="none" stroke="black" d="M1884.36,-477C1884.36,-477 1945.96,-477 1945.96,-477"/>
<polygon fill="black" stroke="black" points="1945.96,-480.5 1955.96,-477 1945.96,-473.5 1945.96,-480.5"/>
</g>
<!-- trans_spec_a_l3_l4 -->
<g id="node4" class="node">
<title>trans_spec_a_l3_l4</title>
<ellipse fill="none" stroke="black" cx="2430.29" cy="-774" rx="122.16" ry="122.16"/>
<text text-anchor="middle" x="2430.29" y="-777.8" font-family="Times,serif" font-size="14.00">spec_a Transmutation</text>
<text text-anchor="middle" x="2430.29" y="-762.8" font-family="Times,serif" font-size="14.00">L3 to L4</text>
</g>
<!-- l4_spec_a_prod -->
<g id="node38" class="node">
<title>l4_spec_a_prod</title>
<polygon fill="none" stroke="black" points="2843.15,-873 2655.15,-873 2655.15,-837 2843.15,-837 2843.15,-873"/>
<text text-anchor="middle" x="2749.15" y="-851.3" font-family="Times,serif" font-size="14.00">L4_spec_a products 1..1</text>
</g>
<!-- trans_spec_a_l3_l4&#45;&gt;l4_spec_a_prod -->
<g id="edge39" class="edge">
<title>trans_spec_a_l3_l4&#45;&gt;l4_spec_a_prod</title>
<path fill="none" stroke="black" stroke-dasharray="5,2" d="M2522.09,-855C2522.09,-855 2644.96,-855 2644.96,-855"/>
<polygon fill="black" stroke="black" points="2644.96,-858.5 2654.96,-855 2644.96,-851.5 2644.96,-858.5"/>
</g>
<!-- l4_spec_a_log -->
<g id="node40" class="node">
<title>l4_spec_a_log</title>
<ellipse fill="none" stroke="black" cx="2749.15" cy="-801" rx="94.78" ry="18"/>
<text text-anchor="middle" x="2749.15" y="-797.3" font-family="Times,serif" font-size="14.00">L4_spec_a log 1..1</text>
</g>
<!-- trans_spec_a_l3_l4&#45;&gt;l4_spec_a_log -->
<g id="edge40" class="edge">
<title>trans_spec_a_l3_l4&#45;&gt;l4_spec_a_log</title>
<path fill="none" stroke="black" stroke-dasharray="5,2" d="M2549.93,-801C2549.93,-801 2644.24,-801 2644.24,-801"/>
<polygon fill="black" stroke="black" points="2644.24,-804.5 2654.24,-801 2644.24,-797.5 2644.24,-804.5"/>
</g>
<!-- l4_spec_a_man -->
<g id="node41" class="node">
<title>l4_spec_a_man</title>
<ellipse fill="none" stroke="black" cx="2749.15" cy="-747" rx="160.57" ry="18"/>
<text text-anchor="middle" x="2749.15" y="-743.3" font-family="Times,serif" font-size="14.00">L4_spec_a product manifest 1..1</text>
</g>
<!-- trans_spec_a_l3_l4&#45;&gt;l4_spec_a_man -->
<g id="edge41" class="edge">
<title>trans_spec_a_l3_l4&#45;&gt;l4_spec_a_man</title>
<path fill="none" stroke="black" d="M2549.93,-747C2549.93,-747 2578.56,-747 2578.56,-747"/>
<polygon fill="black" stroke="black" points="2578.56,-750.5 2588.56,-747 2578.56,-743.5 2578.56,-750.5"/>
</g>
<!-- l4_spec_a_src -->
<g id="node55" class="node">
<title>l4_spec_a_src</title>
<ellipse fill="none" stroke="black" cx="2749.15" cy="-693" rx="152.17" ry="18"/>
<text text-anchor="middle" x="2749.15" y="-689.3" font-family="Times,serif" font-size="14.00">L4_spec_a sourcemanifest 1..1</text>
</g>
<!-- trans_spec_a_l3_l4&#45;&gt;l4_spec_a_src -->
<g id="edge57" class="edge">
<title>trans_spec_a_l3_l4&#45;&gt;l4_spec_a_src</title>
<path fill="none" stroke="black" d="M2522.09,-693C2522.09,-693 2587.01,-693 2587.01,-693"/>
<polygon fill="black" stroke="black" points="2587.01,-696.5 2597.01,-693 2587.01,-689.5 2587.01,-696.5"/>
</g>
<!-- trans_spec_a_l4_tda -->
<g id="node5" class="node">
<title>trans_spec_a_l4_tda</title>
<ellipse fill="none" stroke="black" cx="3068.02" cy="-1044" rx="122.16" ry="122.16"/>
<text text-anchor="middle" x="3068.02" y="-1047.8" font-family="Times,serif" font-size="14.00">spec_a Transmutation</text>
<text text-anchor="middle" x="3068.02" y="-1032.8" font-family="Times,serif" font-size="14.00">L4 to TDA</text>
</g>
<!-- tda_spec_a_prod -->
<g id="node50" class="node">
<title>tda_spec_a_prod</title>
<ellipse fill="none" stroke="black" cx="3386.23" cy="-1098" rx="87.18" ry="18"/>
<text text-anchor="middle" x="3386.23" y="-1094.3" font-family="Times,serif" font-size="14.00">tda_spec_a_prod</text>
</g>
<!-- trans_spec_a_l4_tda&#45;&gt;tda_spec_a_prod -->
<g id="edge52" class="edge">
<title>trans_spec_a_l4_tda&#45;&gt;tda_spec_a_prod</title>
<path fill="none" stroke="black" stroke-dasharray="5,2" d="M3177.98,-1098C3177.98,-1098 3289.1,-1098 3289.1,-1098"/>
<polygon fill="black" stroke="black" points="3289.1,-1101.5 3299.1,-1098 3289.1,-1094.5 3289.1,-1101.5"/>
</g>
<!-- tda_spec_a_log -->
<g id="node51" class="node">
<title>tda_spec_a_log</title>
<ellipse fill="none" stroke="black" cx="3386.23" cy="-1044" rx="79.09" ry="18"/>
<text text-anchor="middle" x="3386.23" y="-1040.3" font-family="Times,serif" font-size="14.00">tda_spec_a_log</text>
</g>
<!-- trans_spec_a_l4_tda&#45;&gt;tda_spec_a_log -->
<g id="edge53" class="edge">
<title>trans_spec_a_l4_tda&#45;&gt;tda_spec_a_log</title>
<path fill="none" stroke="black" stroke-dasharray="5,2" d="M3190.59,-1044C3190.59,-1044 3296.92,-1044 3296.92,-1044"/>
<polygon fill="black" stroke="black" points="3296.92,-1047.5 3306.92,-1044 3296.92,-1040.5 3296.92,-1047.5"/>
</g>
<!-- tda_spec_a_src -->
<g id="node56" class="node">
<title>tda_spec_a_src</title>
<ellipse fill="none" stroke="black" cx="3386.23" cy="-990" rx="159.77" ry="18"/>
<text text-anchor="middle" x="3386.23" y="-986.3" font-family="Times,serif" font-size="14.00">TDA_spec_a sourcemanifest 1..1</text>
</g>
<!-- trans_spec_a_l4_tda&#45;&gt;tda_spec_a_src -->
<g id="edge58" class="edge">
<title>trans_spec_a_l4_tda&#45;&gt;tda_spec_a_src</title>
<path fill="none" stroke="black" d="M3177.98,-990C3177.98,-990 3216.28,-990 3216.28,-990"/>
<polygon fill="black" stroke="black" points="3216.28,-993.5 3226.28,-990 3216.28,-986.5 3216.28,-993.5"/>
</g>
<!-- l1_spec_a_prod -->
<g id="node6" class="node">
<title>l1_spec_a_prod</title>
<polygon fill="none" stroke="black" points="262.34,-252 74.34,-252 74.34,-216 262.34,-216 262.34,-252"/>
<text text-anchor="middle" x="168.34" y="-230.3" font-family="Times,serif" font-size="14.00">L1_spec_a products 1..b</text>
</g>
<!-- l1_spec_a_prod&#45;&gt;trans_spec_a_l1_l2a -->
<g id="edge1" class="edge">
<title>l1_spec_a_prod&#45;&gt;trans_spec_a_l1_l2a</title>
<path fill="none" stroke="black" stroke-dasharray="5,2" d="M262.38,-232.16C262.38,-232.16 424.04,-232.16 424.04,-232.16"/>
<polygon fill="black" stroke="black" points="424.04,-235.66 434.04,-232.16 424.04,-228.66 424.04,-235.66"/>
</g>
<!-- l1_spec_a_man -->
<g id="node7" class="node">
<title>l1_spec_a_man</title>
<ellipse fill="none" stroke="black" cx="168.34" cy="-180" rx="160.57" ry="18"/>
<text text-anchor="middle" x="168.34" y="-176.3" font-family="Times,serif" font-size="14.00">L1_spec_a product manifest 1..1</text>
</g>
<!-- l1_spec_a_man&#45;&gt;trans_spec_a_l1_l2a -->
<g id="edge2" class="edge">
<title>l1_spec_a_man&#45;&gt;trans_spec_a_l1_l2a</title>
<path fill="none" stroke="black" d="M329.27,-180C329.27,-180 374.93,-180 374.93,-180"/>
<polygon fill="black" stroke="black" points="374.93,-183.5 384.93,-180 374.93,-176.5 374.93,-183.5"/>
</g>
<!-- l1_spec_a_odir -->
<g id="node8" class="node">
<title>l1_spec_a_odir</title>
<ellipse fill="none" stroke="black" cx="168.34" cy="-126" rx="135.68" ry="18"/>
<text text-anchor="middle" x="168.34" y="-122.3" font-family="Times,serif" font-size="14.00">L1_spec_a output path 1..1</text>
</g>
<!-- l1_spec_a_odir&#45;&gt;trans_spec_a_l1_l2a -->
<g id="edge3" class="edge">
<title>l1_spec_a_odir&#45;&gt;trans_spec_a_l1_l2a</title>
<path fill="none" stroke="black" d="M304.5,-126C304.5,-126 362.6,-126 362.6,-126"/>
<polygon fill="black" stroke="black" points="362.6,-129.5 372.6,-126 362.6,-122.5 362.6,-129.5"/>
</g>
<!-- l1_spec_a_rec -->
<g id="node9" class="node">
<title>l1_spec_a_rec</title>
<polygon fill="none" stroke="black" points="240.84,-84 83.84,-84 83.84,-60 240.84,-60 252.84,-72 240.84,-84"/>
<text text-anchor="middle" x="168.34" y="-68.3" font-family="Times,serif" font-size="14.00">L1_spec_a recipe 1..1</text>
</g>
<!-- l1_spec_a_rec&#45;&gt;trans_spec_a_l1_l2a -->
<g id="edge4" class="edge">
<title>l1_spec_a_rec&#45;&gt;trans_spec_a_l1_l2a</title>
<path fill="none" stroke="black" d="M252.88,-72C252.88,-72 375.23,-72 375.23,-72"/>
<polygon fill="black" stroke="black" points="375.23,-75.5 385.23,-72 375.23,-68.5 375.23,-75.5"/>
</g>
<!-- l1_spec_a_nllut -->
<g id="node10" class="node">
<title>l1_spec_a_nllut</title>
<polygon fill="none" stroke="black" points="271.34,-30 53.34,-30 53.34,-6 271.34,-6 283.34,-18 271.34,-30"/>
<text text-anchor="middle" x="168.34" y="-14.3" font-family="Times,serif" font-size="14.00">L1_spec_a non&#45;linear LUT 1..1</text>
</g>
<!-- l1_spec_a_nllut&#45;&gt;trans_spec_a_l1_l2a -->
<g id="edge5" class="edge">
<title>l1_spec_a_nllut&#45;&gt;trans_spec_a_l1_l2a</title>
<path fill="none" stroke="black" d="M283.5,-19.84C283.5,-19.84 423.93,-19.84 423.93,-19.84"/>
<polygon fill="black" stroke="black" points="423.93,-23.34 433.93,-19.84 423.93,-16.34 423.93,-23.34"/>
</g>
<!-- l2a_spec_a_prod&#45;&gt;trans_spec_a_l2a_l2b -->
<g id="edge9" class="edge">
<title>l2a_spec_a_prod&#45;&gt;trans_spec_a_l2a_l2b</title>
<path fill="none" stroke="black" stroke-dasharray="5,2" d="M917.47,-207C1013.15,-207 1144.12,-207 1144.12,-207 1144.12,-207 1144.12,-236.63 1144.12,-236.63"/>
<polygon fill="black" stroke="black" points="1140.62,-236.63 1144.12,-246.63 1147.62,-236.63 1140.62,-236.63"/>
</g>
<!-- l2a_spec_a_man&#45;&gt;trans_spec_a_l2a_l2b -->
<g id="edge20" class="edge">
<title>l2a_spec_a_man&#45;&gt;trans_spec_a_l2a_l2b</title>
<path fill="none" stroke="black" d="M977.12,-158.62C977.12,-180.31 977.12,-257.45 977.12,-257.45 977.12,-257.45 1082.87,-257.45 1082.87,-257.45"/>
<polygon fill="black" stroke="black" points="1082.87,-260.95 1092.87,-257.45 1082.87,-253.95 1082.87,-260.95"/>
</g>
<!-- l2a_spec_a_odir -->
<g id="node13" class="node">
<title>l2a_spec_a_odir</title>
<ellipse fill="none" stroke="black" cx="819.06" cy="-587" rx="141.07" ry="18"/>
<text text-anchor="middle" x="819.06" y="-583.3" font-family="Times,serif" font-size="14.00">L2a_spec_a output path 1..1</text>
</g>
<!-- l2a_spec_a_odir&#45;&gt;trans_spec_a_l2a_l2b -->
<g id="edge10" class="edge">
<title>l2a_spec_a_odir&#45;&gt;trans_spec_a_l2a_l2b</title>
<path fill="none" stroke="black" d="M902.82,-572.5C1010.59,-572.5 1184.12,-572.5 1184.12,-572.5 1184.12,-572.5 1184.12,-494.43 1184.12,-494.43"/>
<polygon fill="black" stroke="black" points="1187.62,-494.43 1184.12,-484.43 1180.62,-494.43 1187.62,-494.43"/>
</g>
<!-- l2a_spec_a_rec -->
<g id="node14" class="node">
<title>l2a_spec_a_rec</title>
<polygon fill="none" stroke="black" points="895.56,-545 730.56,-545 730.56,-521 895.56,-521 907.56,-533 895.56,-545"/>
<text text-anchor="middle" x="819.06" y="-529.3" font-family="Times,serif" font-size="14.00">L2a_spec_a recipe 1..1</text>
</g>
<!-- l2a_spec_a_rec&#45;&gt;trans_spec_a_l2a_l2b -->
<g id="edge11" class="edge">
<title>l2a_spec_a_rec&#45;&gt;trans_spec_a_l2a_l2b</title>
<path fill="none" stroke="black" d="M907.77,-518.5C991.12,-518.5 1103.12,-518.5 1103.12,-518.5 1103.12,-518.5 1103.12,-494.95 1103.12,-494.95"/>
<polygon fill="black" stroke="black" points="1106.62,-494.95 1103.12,-484.95 1099.62,-494.95 1106.62,-494.95"/>
</g>
<!-- l2a_spec_a_cti -->
<g id="node15" class="node">
<title>l2a_spec_a_cti</title>
<polygon fill="none" stroke="black" points="957.06,-491 669.06,-491 669.06,-467 957.06,-467 969.06,-479 957.06,-491"/>
<text text-anchor="middle" x="819.06" y="-475.3" font-family="Times,serif" font-size="14.00">L2a_spec_a charge xfer inefficiency 1..1</text>
</g>
<!-- l2a_spec_a_cti&#45;&gt;trans_spec_a_l2a_l2b -->
<g id="edge12" class="edge">
<title>l2a_spec_a_cti&#45;&gt;trans_spec_a_l2a_l2b</title>
<path fill="none" stroke="black" d="M969.24,-476.16C969.24,-476.16 1074.07,-476.16 1074.07,-476.16"/>
<polygon fill="black" stroke="black" points="1074.07,-479.66 1084.07,-476.16 1074.07,-472.66 1074.07,-479.66"/>
</g>
<!-- l2a_spec_a_dnb -->
<g id="node16" class="node">
<title>l2a_spec_a_dnb</title>
<polygon fill="none" stroke="black" points="938.56,-437 687.56,-437 687.56,-411 938.56,-411 950.56,-424 938.56,-437"/>
<text text-anchor="middle" x="819.06" y="-427.8" font-family="Times,serif" font-size="14.00">L2a_spec_a CIC/Dark Current/FPN</text>
<text text-anchor="middle" x="819.06" y="-412.8" font-family="Times,serif" font-size="14.00"> or master dark 1..1</text>
</g>
<!-- l2a_spec_a_dnb&#45;&gt;trans_spec_a_l2a_l2b -->
<g id="edge13" class="edge">
<title>l2a_spec_a_dnb&#45;&gt;trans_spec_a_l2a_l2b</title>
<path fill="none" stroke="black" d="M950.87,-424C950.87,-424 1023.7,-424 1023.7,-424"/>
<polygon fill="black" stroke="black" points="1023.7,-427.5 1033.7,-424 1023.7,-420.5 1023.7,-427.5"/>
</g>
<!-- l2a_spec_a_mbpm -->
<g id="node17" class="node">
<title>l2a_spec_a_mbpm</title>
<polygon fill="none" stroke="black" points="951.06,-381 675.06,-381 675.06,-357 951.06,-357 963.06,-369 951.06,-381"/>
<text text-anchor="middle" x="819.06" y="-365.3" font-family="Times,serif" font-size="14.00">L2a_spec_a master bad pixel map 1..1</text>
</g>
<!-- l2a_spec_a_mbpm&#45;&gt;trans_spec_a_l2a_l2b -->
<g id="edge14" class="edge">
<title>l2a_spec_a_mbpm&#45;&gt;trans_spec_a_l2a_l2b</title>
<path fill="none" stroke="black" d="M963.09,-369C963.09,-369 1010.33,-369 1010.33,-369"/>
<polygon fill="black" stroke="black" points="1010.33,-372.5 1020.33,-369 1010.33,-365.5 1010.33,-372.5"/>
</g>
<!-- l2a_spec_a_kgain -->
<g id="node18" class="node">
<title>l2a_spec_a_kgain</title>
<polygon fill="none" stroke="black" points="894.06,-327 732.06,-327 732.06,-303 894.06,-303 906.06,-315 894.06,-327"/>
<text text-anchor="middle" x="819.06" y="-311.3" font-family="Times,serif" font-size="14.00">L2a_spec_a Kgain 1..1</text>
</g>
<!-- l2a_spec_a_kgain&#45;&gt;trans_spec_a_l2a_l2b -->
<g id="edge16" class="edge">
<title>l2a_spec_a_kgain&#45;&gt;trans_spec_a_l2a_l2b</title>
<path fill="none" stroke="black" d="M906.33,-315C906.33,-315 1023.36,-315 1023.36,-315"/>
<polygon fill="black" stroke="black" points="1023.36,-318.5 1033.36,-315 1023.36,-311.5 1023.36,-318.5"/>
</g>
<!-- l2a_spec_a_emg -->
<g id="node19" class="node">
<title>l2a_spec_a_emg</title>
<polygon fill="none" stroke="black" points="903.56,-273 722.56,-273 722.56,-249 903.56,-249 915.56,-261 903.56,-273"/>
<text text-anchor="middle" x="819.06" y="-257.3" font-family="Times,serif" font-size="14.00">L2a_spec_a EM gain 1..1</text>
</g>
<!-- l2a_spec_a_emg&#45;&gt;trans_spec_a_l2a_l2b -->
<g id="edge15" class="edge">
<title>l2a_spec_a_emg&#45;&gt;trans_spec_a_l2a_l2b</title>
<path fill="none" stroke="black" d="M915.86,-268.22C915.86,-268.22 1063.57,-268.22 1063.57,-268.22"/>
<polygon fill="black" stroke="black" points="1063.57,-271.72 1073.57,-268.22 1063.57,-264.72 1063.57,-271.72"/>
</g>
<!-- l2b_spec_a_prod&#45;&gt;trans_spec_a_l2b_l3 -->
<g id="edge21" class="edge">
<title>l2b_spec_a_prod&#45;&gt;trans_spec_a_l2b_l3</title>
<path fill="none" stroke="black" stroke-dasharray="5,2" d="M1566.59,-457.22C1566.59,-457.22 1713.1,-457.22 1713.1,-457.22"/>
<polygon fill="black" stroke="black" points="1713.1,-460.72 1723.1,-457.22 1713.1,-453.72 1713.1,-460.72"/>
</g>
<!-- l2b_spec_a_man&#45;&gt;trans_spec_a_l2b_l3 -->
<g id="edge22" class="edge">
<title>l2b_spec_a_man&#45;&gt;trans_spec_a_l2b_l3</title>
<path fill="none" stroke="black" d="M1627.12,-401.4C1627.12,-414.41 1627.12,-446.45 1627.12,-446.45 1627.12,-446.45 1732.02,-446.45 1732.02,-446.45"/>
<polygon fill="black" stroke="black" points="1732.02,-449.95 1742.02,-446.45 1732.02,-442.95 1732.02,-449.95"/>
</g>
<!-- l2b_spec_a_odir -->
<g id="node23" class="node">
<title>l2b_spec_a_odir</title>
<ellipse fill="none" stroke="black" cx="1467.84" cy="-720" rx="141.88" ry="18"/>
<text text-anchor="middle" x="1467.84" y="-716.3" font-family="Times,serif" font-size="14.00">L2b_spec_a output path 1..1</text>
</g>
<!-- l2b_spec_a_odir&#45;&gt;trans_spec_a_l2b_l3 -->
<g id="edge23" class="edge">
<title>l2b_spec_a_odir&#45;&gt;trans_spec_a_l2b_l3</title>
<path fill="none" stroke="black" d="M1584.12,-709.3C1584.12,-694.49 1584.12,-669.55 1584.12,-669.55 1584.12,-669.55 1732.1,-669.55 1732.1,-669.55"/>
<polygon fill="black" stroke="black" points="1732.1,-673.05 1742.1,-669.55 1732.1,-666.05 1732.1,-673.05"/>
</g>
<!-- l2b_spec_a_rec -->
<g id="node24" class="node">
<title>l2b_spec_a_rec</title>
<polygon fill="none" stroke="black" points="1544.84,-678 1378.84,-678 1378.84,-654 1544.84,-654 1556.84,-666 1544.84,-678"/>
<text text-anchor="middle" x="1467.84" y="-662.3" font-family="Times,serif" font-size="14.00">L2b_spec_a recipe 1..1</text>
</g>
<!-- l2b_spec_a_rec&#45;&gt;trans_spec_a_l2b_l3 -->
<g id="edge24" class="edge">
<title>l2b_spec_a_rec&#45;&gt;trans_spec_a_l2b_l3</title>
<path fill="none" stroke="black" d="M1557,-658.78C1557,-658.78 1713.16,-658.78 1713.16,-658.78"/>
<polygon fill="black" stroke="black" points="1713.16,-662.28 1723.16,-658.78 1713.16,-655.28 1713.16,-662.28"/>
</g>
<!-- l2b_spec_a_excicrf -->
<g id="node25" class="node">
<title>l2b_spec_a_excicrf</title>
<polygon fill="none" stroke="black" points="1600.84,-624 1322.84,-624 1322.84,-600 1600.84,-600 1612.84,-612 1600.84,-624"/>
<text text-anchor="middle" x="1467.84" y="-608.3" font-family="Times,serif" font-size="14.00">L2b_spec_a EXCAM ICRF location 1..1</text>
</g>
<!-- l2b_spec_a_excicrf&#45;&gt;trans_spec_a_l2b_l3 -->
<g id="edge25" class="edge">
<title>l2b_spec_a_excicrf&#45;&gt;trans_spec_a_l2b_l3</title>
<path fill="none" stroke="black" d="M1613.11,-612C1613.11,-612 1672.49,-612 1672.49,-612"/>
<polygon fill="black" stroke="black" points="1672.49,-615.5 1682.49,-612 1672.49,-608.5 1672.49,-615.5"/>
</g>
<!-- l2b_spec_a_excfovps -->
<g id="node26" class="node">
<title>l2b_spec_a_excfovps</title>
<polygon fill="none" stroke="black" points="1607.34,-570 1316.34,-570 1316.34,-546 1607.34,-546 1619.34,-558 1607.34,-570"/>
<text text-anchor="middle" x="1467.84" y="-554.3" font-family="Times,serif" font-size="14.00">L2b_spec_a EXCAM FOV pixel scale 1..1</text>
</g>
<!-- l2b_spec_a_excfovps&#45;&gt;trans_spec_a_l2b_l3 -->
<g id="edge26" class="edge">
<title>l2b_spec_a_excfovps&#45;&gt;trans_spec_a_l2b_l3</title>
<path fill="none" stroke="black" d="M1619.74,-558C1619.74,-558 1659.98,-558 1659.98,-558"/>
<polygon fill="black" stroke="black" points="1659.98,-561.5 1669.98,-558 1659.97,-554.5 1659.98,-561.5"/>
</g>
<!-- l2b_spec_a_cfamfo -->
<g id="node27" class="node">
<title>l2b_spec_a_cfamfo</title>
<polygon fill="none" stroke="black" points="1589.34,-516 1334.34,-516 1334.34,-492 1589.34,-492 1601.34,-504 1589.34,-516"/>
<text text-anchor="middle" x="1467.84" y="-500.3" font-family="Times,serif" font-size="14.00">L2b_spec_a CFAM filter offsets 1..1</text>
</g>
<!-- l2b_spec_a_cfamfo&#45;&gt;trans_spec_a_l2b_l3 -->
<g id="edge27" class="edge">
<title>l2b_spec_a_cfamfo&#45;&gt;trans_spec_a_l2b_l3</title>
<path fill="none" stroke="black" d="M1601.79,-504C1601.79,-504 1672.65,-504 1672.65,-504"/>
<polygon fill="black" stroke="black" points="1672.65,-507.5 1682.65,-504 1672.65,-500.5 1672.65,-507.5"/>
</g>
<!-- l3_spec_a_prod&#45;&gt;trans_spec_a_l3_l4 -->
<g id="edge31" class="edge">
<title>l3_spec_a_prod&#45;&gt;trans_spec_a_l3_l4</title>
<path fill="none" stroke="black" stroke-dasharray="5,2" d="M2112.12,-657.14C2112.12,-663.46 2112.12,-669 2112.12,-669 2112.12,-669 2357.43,-669 2357.43,-669"/>
<polygon fill="black" stroke="black" points="2357.43,-672.5 2367.43,-669 2357.43,-665.5 2357.43,-672.5"/>
</g>
<!-- l3_spec_a_odir -->
<g id="node30" class="node">
<title>l3_spec_a_odir</title>
<ellipse fill="none" stroke="black" cx="2111.42" cy="-963" rx="135.68" ry="18"/>
<text text-anchor="middle" x="2111.42" y="-959.3" font-family="Times,serif" font-size="14.00">L3_spec_a output path 1..1</text>
</g>
<!-- l3_spec_a_odir&#45;&gt;trans_spec_a_l3_l4 -->
<g id="edge33" class="edge">
<title>l3_spec_a_odir&#45;&gt;trans_spec_a_l3_l4</title>
<path fill="none" stroke="black" d="M2241.12,-957.64C2241.12,-940.02 2241.12,-885 2241.12,-885 2241.12,-885 2368.6,-885 2368.6,-885"/>
<polygon fill="black" stroke="black" points="2368.6,-888.5 2378.6,-885 2368.6,-881.5 2368.6,-888.5"/>
</g>
<!-- l3_spec_a_man&#45;&gt;trans_spec_a_l3_l4 -->
<g id="edge32" class="edge">
<title>l3_spec_a_man&#45;&gt;trans_spec_a_l3_l4</title>
<path fill="none" stroke="black" d="M2260.12,-591.92C2260.12,-611.01 2260.12,-663 2260.12,-663 2260.12,-663 2368.77,-663 2368.77,-663"/>
<polygon fill="black" stroke="black" points="2368.77,-666.5 2378.77,-663 2368.77,-659.5 2368.77,-666.5"/>
</g>
<!-- l3_spec_a_rec -->
<g id="node32" class="node">
<title>l3_spec_a_rec</title>
<polygon fill="none" stroke="black" points="2183.92,-921 2026.92,-921 2026.92,-897 2183.92,-897 2195.92,-909 2183.92,-921"/>
<text text-anchor="middle" x="2111.42" y="-905.3" font-family="Times,serif" font-size="14.00">L3_spec_a recipe 1..1</text>
</g>
<!-- l3_spec_a_rec&#45;&gt;trans_spec_a_l3_l4 -->
<g id="edge34" class="edge">
<title>l3_spec_a_rec&#45;&gt;trans_spec_a_l3_l4</title>
<path fill="none" stroke="black" d="M2112.12,-890.86C2112.12,-884.54 2112.12,-879 2112.12,-879 2112.12,-879 2357.43,-879 2357.43,-879"/>
<polygon fill="black" stroke="black" points="2357.43,-882.5 2367.43,-879 2357.43,-875.5 2357.43,-882.5"/>
</g>
<!-- l3_spec_a_ast -->
<g id="node33" class="node">
<title>l3_spec_a_ast</title>
<polygon fill="none" stroke="black" points="2203.42,-867 2007.42,-867 2007.42,-843 2203.42,-843 2215.42,-855 2203.42,-867"/>
<text text-anchor="middle" x="2111.42" y="-851.3" font-family="Times,serif" font-size="14.00">L3_spec_a astrometric 1..1</text>
</g>
<!-- l3_spec_a_ast&#45;&gt;trans_spec_a_l3_l4 -->
<g id="edge35" class="edge">
<title>l3_spec_a_ast&#45;&gt;trans_spec_a_l3_l4</title>
<path fill="none" stroke="black" d="M2215.83,-855C2215.83,-855 2328.53,-855 2328.53,-855"/>
<polygon fill="black" stroke="black" points="2328.53,-858.5 2338.53,-855 2328.53,-851.5 2328.53,-858.5"/>
</g>
<!-- l3_spec_a_ndf -->
<g id="node34" class="node">
<title>l3_spec_a_ndf</title>
<polygon fill="none" stroke="black" points="2195.42,-813 2015.42,-813 2015.42,-789 2195.42,-789 2207.42,-801 2195.42,-813"/>
<text text-anchor="middle" x="2111.42" y="-797.3" font-family="Times,serif" font-size="14.00">L3_spec_a ND Filter 1..1</text>
</g>
<!-- l3_spec_a_ndf&#45;&gt;trans_spec_a_l3_l4 -->
<g id="edge36" class="edge">
<title>l3_spec_a_ndf&#45;&gt;trans_spec_a_l3_l4</title>
<path fill="none" stroke="black" d="M2207.53,-801C2207.53,-801 2300.96,-801 2300.96,-801"/>
<polygon fill="black" stroke="black" points="2300.96,-804.5 2310.96,-801 2300.96,-797.5 2300.96,-804.5"/>
</g>
<!-- l3_spec_a_dispm -->
<g id="node35" class="node">
<title>l3_spec_a_dispm</title>
<polygon fill="none" stroke="black" points="2222.92,-759 1987.92,-759 1987.92,-735 2222.92,-735 2234.92,-747 2222.92,-759"/>
<text text-anchor="middle" x="2111.42" y="-743.3" font-family="Times,serif" font-size="14.00">L3_spec_a dispersion model 1..1</text>
</g>
<!-- l3_spec_a_dispm&#45;&gt;trans_spec_a_l3_l4 -->
<g id="edge37" class="edge">
<title>l3_spec_a_dispm&#45;&gt;trans_spec_a_l3_l4</title>
<path fill="none" stroke="black" d="M2235.16,-747C2235.16,-747 2300.81,-747 2300.81,-747"/>
<polygon fill="black" stroke="black" points="2300.81,-750.5 2310.81,-747 2300.81,-743.5 2300.81,-750.5"/>
</g>
<!-- l3_spec_a_wavem -->
<g id="node36" class="node">
<title>l3_spec_a_wavem</title>
<polygon fill="none" stroke="black" points="2220.42,-705 1990.42,-705 1990.42,-681 2220.42,-681 2232.42,-693 2220.42,-705"/>
<text text-anchor="middle" x="2111.42" y="-689.3" font-family="Times,serif" font-size="14.00">L3_spec_a wavelength map 1..1</text>
</g>
<!-- l3_spec_a_wavem&#45;&gt;trans_spec_a_l3_l4 -->
<g id="edge38" class="edge">
<title>l3_spec_a_wavem&#45;&gt;trans_spec_a_l3_l4</title>
<path fill="none" stroke="black" d="M2232.43,-693C2232.43,-693 2328.17,-693 2328.17,-693"/>
<polygon fill="black" stroke="black" points="2328.17,-696.5 2338.17,-693 2328.17,-689.5 2328.17,-696.5"/>
</g>
<!-- l4_spec_a_prod&#45;&gt;trans_spec_a_l4_tda -->
<g id="edge42" class="edge">
<title>l4_spec_a_prod&#45;&gt;trans_spec_a_l4_tda</title>
<path fill="none" stroke="black" stroke-dasharray="5,2" d="M2843.21,-855C2924.2,-855 3028.12,-855 3028.12,-855 3028.12,-855 3028.12,-918.34 3028.12,-918.34"/>
<polygon fill="black" stroke="black" points="3024.62,-918.34 3028.12,-928.34 3031.62,-918.34 3024.62,-918.34"/>
</g>
<!-- l4_spec_a_odir -->
<g id="node39" class="node">
<title>l4_spec_a_odir</title>
<ellipse fill="none" stroke="black" cx="2749.15" cy="-1287" rx="135.68" ry="18"/>
<text text-anchor="middle" x="2749.15" y="-1283.3" font-family="Times,serif" font-size="14.00">L4_spec_a output path 1..1</text>
</g>
<!-- l4_spec_a_odir&#45;&gt;trans_spec_a_l4_tda -->
<g id="edge44" class="edge">
<title>l4_spec_a_odir&#45;&gt;trans_spec_a_l4_tda</title>
<path fill="none" stroke="black" d="M2885.24,-1287C2987.18,-1287 3109.12,-1287 3109.12,-1287 3109.12,-1287 3109.12,-1169.45 3109.12,-1169.45"/>
<polygon fill="black" stroke="black" points="3112.62,-1169.45 3109.12,-1159.45 3105.62,-1169.45 3112.62,-1169.45"/>
</g>
<!-- l4_spec_a_man&#45;&gt;trans_spec_a_l4_tda -->
<g id="edge43" class="edge">
<title>l4_spec_a_man&#45;&gt;trans_spec_a_l4_tda</title>
<path fill="none" stroke="black" d="M2896.12,-754.64C2896.12,-790 2896.12,-936 2896.12,-936 2896.12,-936 3000.3,-936 3000.3,-936"/>
<polygon fill="black" stroke="black" points="3000.3,-939.5 3010.3,-936 3000.3,-932.5 3000.3,-939.5"/>
</g>
<!-- l4_spec_a_rec -->
<g id="node42" class="node">
<title>l4_spec_a_rec</title>
<polygon fill="none" stroke="black" points="2821.65,-1245 2664.65,-1245 2664.65,-1221 2821.65,-1221 2833.65,-1233 2821.65,-1245"/>
<text text-anchor="middle" x="2749.15" y="-1229.3" font-family="Times,serif" font-size="14.00">L4_spec_a recipe 1..1</text>
</g>
<!-- l4_spec_a_rec&#45;&gt;trans_spec_a_l4_tda -->
<g id="edge45" class="edge">
<title>l4_spec_a_rec&#45;&gt;trans_spec_a_l4_tda</title>
<path fill="none" stroke="black" d="M2833.99,-1233C2916.06,-1233 3028.12,-1233 3028.12,-1233 3028.12,-1233 3028.12,-1169.66 3028.12,-1169.66"/>
<polygon fill="black" stroke="black" points="3031.62,-1169.66 3028.12,-1159.66 3024.62,-1169.66 3031.62,-1169.66"/>
</g>
<!-- l4_spec_a_afcal -->
<g id="node43" class="node">
<title>l4_spec_a_afcal</title>
<polygon fill="none" stroke="black" points="2889.65,-1191 2596.65,-1191 2596.65,-1167 2889.65,-1167 2901.65,-1179 2889.65,-1191"/>
<text text-anchor="middle" x="2749.15" y="-1175.3" font-family="Times,serif" font-size="14.00">L4_spec_a absolute flux calibrations 1..1</text>
</g>
<!-- l4_spec_a_afcal&#45;&gt;trans_spec_a_l4_tda -->
<g id="edge46" class="edge">
<title>l4_spec_a_afcal&#45;&gt;trans_spec_a_l4_tda</title>
<path fill="none" stroke="black" d="M2893.12,-1160.84C2893.12,-1155.96 2893.12,-1152 2893.12,-1152 2893.12,-1152 3000.27,-1152 3000.27,-1152"/>
<polygon fill="black" stroke="black" points="3000.27,-1155.5 3010.27,-1152 3000.27,-1148.5 3000.27,-1155.5"/>
</g>
<!-- l4_spec_a_ndfilt -->
<g id="node44" class="node">
<title>l4_spec_a_ndfilt</title>
<polygon fill="none" stroke="black" points="2830.65,-1137 2655.65,-1137 2655.65,-1113 2830.65,-1113 2842.65,-1125 2830.65,-1137"/>
<text text-anchor="middle" x="2749.15" y="-1121.3" font-family="Times,serif" font-size="14.00">L4_spec_a ND filter 1..1</text>
</g>
<!-- l4_spec_a_ndfilt&#45;&gt;trans_spec_a_l4_tda -->
<g id="edge47" class="edge">
<title>l4_spec_a_ndfilt&#45;&gt;trans_spec_a_l4_tda</title>
<path fill="none" stroke="black" d="M2842.67,-1125C2842.67,-1125 2966.16,-1125 2966.16,-1125"/>
<polygon fill="black" stroke="black" points="2966.16,-1128.5 2976.16,-1125 2966.16,-1121.5 2966.16,-1128.5"/>
</g>
<!-- l4_spec_a_stmap -->
<g id="node45" class="node">
<title>l4_spec_a_stmap</title>
<polygon fill="none" stroke="black" points="2876.65,-1083 2609.65,-1083 2609.65,-1059 2876.65,-1059 2888.65,-1071 2876.65,-1083"/>
<text text-anchor="middle" x="2749.15" y="-1067.3" font-family="Times,serif" font-size="14.00">L4_spec_a slit transmission map 1..1</text>
</g>
<!-- l4_spec_a_stmap&#45;&gt;trans_spec_a_l4_tda -->
<g id="edge48" class="edge">
<title>l4_spec_a_stmap&#45;&gt;trans_spec_a_l4_tda</title>
<path fill="none" stroke="black" d="M2889.01,-1071C2889.01,-1071 2938.23,-1071 2938.23,-1071"/>
<polygon fill="black" stroke="black" points="2938.23,-1074.5 2948.23,-1071 2938.23,-1067.5 2938.23,-1074.5"/>
</g>
<!-- l4_spec_a_tspi -->
<g id="node46" class="node">
<title>l4_spec_a_tspi</title>
<polygon fill="none" stroke="black" points="2885.15,-1029 2601.15,-1029 2601.15,-1005 2885.15,-1005 2897.15,-1017 2885.15,-1029"/>
<text text-anchor="middle" x="2749.15" y="-1013.3" font-family="Times,serif" font-size="14.00">L4_spec_a target star prism image 1..1</text>
</g>
<!-- l4_spec_a_tspi&#45;&gt;trans_spec_a_l4_tda -->
<g id="edge49" class="edge">
<title>l4_spec_a_tspi&#45;&gt;trans_spec_a_l4_tda</title>
<path fill="none" stroke="black" d="M2897.38,-1017C2897.38,-1017 2938.34,-1017 2938.34,-1017"/>
<polygon fill="black" stroke="black" points="2938.34,-1020.5 2948.34,-1017 2938.34,-1013.5 2938.34,-1020.5"/>
</g>
<!-- l4_spec_a_rspi -->
<g id="node47" class="node">
<title>l4_spec_a_rspi</title>
<polygon fill="none" stroke="black" points="2897.15,-975 2589.15,-975 2589.15,-951 2897.15,-951 2909.15,-963 2897.15,-975"/>
<text text-anchor="middle" x="2749.15" y="-959.3" font-family="Times,serif" font-size="14.00">L4_spec_a reference star prism image 1..1</text>
</g>
<!-- l4_spec_a_rspi&#45;&gt;trans_spec_a_l4_tda -->
<g id="edge50" class="edge">
<title>l4_spec_a_rspi&#45;&gt;trans_spec_a_l4_tda</title>
<path fill="none" stroke="black" d="M2909.52,-963C2909.52,-963 2965.97,-963 2965.97,-963"/>
<polygon fill="black" stroke="black" points="2965.97,-966.5 2975.97,-963 2965.97,-959.5 2965.97,-966.5"/>
</g>
<!-- l4_spec_a_lsf -->
<g id="node48" class="node">
<title>l4_spec_a_lsf</title>
<polygon fill="none" stroke="black" points="2870.65,-921 2615.65,-921 2615.65,-897 2870.65,-897 2882.65,-909 2870.65,-921"/>
<text text-anchor="middle" x="2749.15" y="-905.3" font-family="Times,serif" font-size="14.00">L4_spec_a line spread function 1..1</text>
</g>
<!-- l4_spec_a_lsf&#45;&gt;trans_spec_a_l4_tda -->
<g id="edge51" class="edge">
<title>l4_spec_a_lsf&#45;&gt;trans_spec_a_l4_tda</title>
<path fill="none" stroke="black" d="M2882.68,-906.34C2985.12,-906.34 3109.12,-906.34 3109.12,-906.34 3109.12,-906.34 3109.12,-918.76 3109.12,-918.76"/>
<polygon fill="black" stroke="black" points="3105.62,-918.76 3109.12,-928.76 3112.62,-918.76 3105.62,-918.76"/>
</g>
<!-- tda_spec_a_man -->
<g id="node49" class="node">
<title>tda_spec_a_man</title>
<ellipse fill="none" stroke="black" cx="168.34" cy="-288" rx="168.17" ry="18"/>
<text text-anchor="middle" x="168.34" y="-284.3" font-family="Times,serif" font-size="14.00">TDA_spec_a product manifest 1..1</text>
</g>
</g>
</svg>
