<?xml version="1.0" encoding="UTF-8" standalone="no"?>
<!DOCTYPE svg PUBLIC "-//W3C//DTD SVG 1.1//EN"
 "http://www.w3.org/Graphics/SVG/1.1/DTD/svg11.dtd">
<!-- Generated by graphviz version 2.43.0 (0)
 -->
<!-- Title: SpectroscopyPhotonCount Pages: 1 -->
<svg width="2998pt" height="1259pt"
 viewBox="0.00 0.00 2997.52 1259.00" xmlns="http://www.w3.org/2000/svg" xmlns:xlink="http://www.w3.org/1999/xlink">
<g id="graph0" class="graph" transform="scale(1 1) rotate(0) translate(4 1255)">
<title>SpectroscopyPhotonCount</title>
<polygon fill="white" stroke="transparent" points="-4,4 -4,-1255 2993.52,-1255 2993.52,4 -4,4"/>
<!-- trans_spec_pc_l1_l2a -->
<g id="node1" class="node">
<title>trans_spec_pc_l1_l2a</title>
<ellipse fill="none" stroke="black" cx="416.59" cy="-126" rx="101.23" ry="101.23"/>
<text text-anchor="middle" x="416.59" y="-129.8" font-family="Times,serif" font-size="14.00">spec_pc Transmutation</text>
<text text-anchor="middle" x="416.59" y="-114.8" font-family="Times,serif" font-size="14.00">L1 to L2a</text>
</g>
<!-- l2a_spec_pc_prod -->
<g id="node11" class="node">
<title>l2a_spec_pc_prod</title>
<polygon fill="none" stroke="black" points="771.05,-225 608.05,-225 608.05,-189 771.05,-189 771.05,-225"/>
<text text-anchor="middle" x="689.55" y="-203.3" font-family="Times,serif" font-size="14.00">L2a_spec_pc products 1..b</text>
</g>
<!-- trans_spec_pc_l1_l2a&#45;&gt;l2a_spec_pc_prod -->
<g id="edge6" class="edge">
<title>trans_spec_pc_l1_l2a&#45;&gt;l2a_spec_pc_prod</title>
<path fill="none" stroke="black" stroke-dasharray="5,2" d="M477.17,-207C477.17,-207 597.91,-207 597.91,-207"/>
<polygon fill="black" stroke="black" points="597.91,-210.5 607.91,-207 597.91,-203.5 597.91,-210.5"/>
</g>
<!-- l2a_spec_pc_man -->
<g id="node12" class="node">
<title>l2a_spec_pc_man</title>
<ellipse fill="none" stroke="black" cx="689.55" cy="-153" rx="135.68" ry="18"/>
<text text-anchor="middle" x="689.55" y="-149.3" font-family="Times,serif" font-size="14.00">L2a_spec_pc product manifest 1..1</text>
</g>
<!-- trans_spec_pc_l1_l2a&#45;&gt;l2a_spec_pc_man -->
<g id="edge7" class="edge">
<title>trans_spec_pc_l1_l2a&#45;&gt;l2a_spec_pc_man</title>
<path fill="none" stroke="black" d="M514.36,-153C514.36,-153 543.42,-153 543.42,-153"/>
<polygon fill="black" stroke="black" points="543.42,-156.5 553.42,-153 543.42,-149.5 543.42,-156.5"/>
</g>
<!-- l2a_spec_pc_log -->
<g id="node20" class="node">
<title>l2a_spec_pc_log</title>
<ellipse fill="none" stroke="black" cx="689.55" cy="-99" rx="87.18" ry="18"/>
<text text-anchor="middle" x="689.55" y="-95.3" font-family="Times,serif" font-size="14.00">L2a log_spec_pc 1..1</text>
</g>
<!-- trans_spec_pc_l1_l2a&#45;&gt;l2a_spec_pc_log -->
<g id="edge8" class="edge">
<title>trans_spec_pc_l1_l2a&#45;&gt;l2a_spec_pc_log</title>
<path fill="none" stroke="black" stroke-dasharray="5,2" d="M514.36,-99C514.36,-99 592.42,-99 592.42,-99"/>
<polygon fill="black" stroke="black" points="592.42,-102.5 602.42,-99 592.42,-95.5 592.42,-102.5"/>
</g>
<!-- l2a_spec_pc_src -->
<g id="node50" class="node">
<title>l2a_spec_pc_src</title>
<ellipse fill="none" stroke="black" cx="689.55" cy="-45" rx="131.88" ry="18"/>
<text text-anchor="middle" x="689.55" y="-41.3" font-family="Times,serif" font-size="14.00">L2a_spec_pc source manifest 1..1</text>
</g>
<!-- trans_spec_pc_l1_l2a&#45;&gt;l2a_spec_pc_src -->
<g id="edge52" class="edge">
<title>trans_spec_pc_l1_l2a&#45;&gt;l2a_spec_pc_src</title>
<path fill="none" stroke="black" d="M477.17,-45C477.17,-45 547.34,-45 547.34,-45"/>
<polygon fill="black" stroke="black" points="547.34,-48.5 557.34,-45 547.34,-41.5 547.34,-48.5"/>
</g>
<!-- trans_spec_pc_l2a_l2b -->
<g id="node2" class="node">
<title>trans_spec_pc_l2a_l2b</title>
<ellipse fill="none" stroke="black" cx="962.5" cy="-369" rx="101.23" ry="101.23"/>
<text text-anchor="middle" x="962.5" y="-372.8" font-family="Times,serif" font-size="14.00">spec_pc Transmutation</text>
<text text-anchor="middle" x="962.5" y="-357.8" font-family="Times,serif" font-size="14.00">L2a to L2b</text>
</g>
<!-- l2b_spec_pc_prod -->
<g id="node21" class="node">
<title>l2b_spec_pc_prod</title>
<polygon fill="none" stroke="black" points="1317.45,-468 1153.45,-468 1153.45,-432 1317.45,-432 1317.45,-468"/>
<text text-anchor="middle" x="1235.45" y="-446.3" font-family="Times,serif" font-size="14.00">L2b_spec_pc products 1..1</text>
</g>
<!-- trans_spec_pc_l2a_l2b&#45;&gt;l2b_spec_pc_prod -->
<g id="edge17" class="edge">
<title>trans_spec_pc_l2a_l2b&#45;&gt;l2b_spec_pc_prod</title>
<path fill="none" stroke="black" stroke-dasharray="5,2" d="M1023.08,-450C1023.08,-450 1143.3,-450 1143.3,-450"/>
<polygon fill="black" stroke="black" points="1143.3,-453.5 1153.3,-450 1143.3,-446.5 1143.3,-453.5"/>
</g>
<!-- l2b_spec_pc_man -->
<g id="node22" class="node">
<title>l2b_spec_pc_man</title>
<ellipse fill="none" stroke="black" cx="1235.45" cy="-396" rx="135.68" ry="18"/>
<text text-anchor="middle" x="1235.45" y="-392.3" font-family="Times,serif" font-size="14.00">L2b_spec_pc product manifest 1..1</text>
</g>
<!-- trans_spec_pc_l2a_l2b&#45;&gt;l2b_spec_pc_man -->
<g id="edge18" class="edge">
<title>trans_spec_pc_l2a_l2b&#45;&gt;l2b_spec_pc_man</title>
<path fill="none" stroke="black" d="M1060.27,-396C1060.27,-396 1089.33,-396 1089.33,-396"/>
<polygon fill="black" stroke="black" points="1089.33,-399.5 1099.33,-396 1089.33,-392.5 1089.33,-399.5"/>
</g>
<!-- l2b_spec_pc_log -->
<g id="node28" class="node">
<title>l2b_spec_pc_log</title>
<ellipse fill="none" stroke="black" cx="1235.45" cy="-342" rx="87.18" ry="18"/>
<text text-anchor="middle" x="1235.45" y="-338.3" font-family="Times,serif" font-size="14.00">L2b_spec_pc log 1..1</text>
</g>
<!-- trans_spec_pc_l2a_l2b&#45;&gt;l2b_spec_pc_log -->
<g id="edge19" class="edge">
<title>trans_spec_pc_l2a_l2b&#45;&gt;l2b_spec_pc_log</title>
<path fill="none" stroke="black" stroke-dasharray="5,2" d="M1060.27,-342C1060.27,-342 1138.33,-342 1138.33,-342"/>
<polygon fill="black" stroke="black" points="1138.33,-345.5 1148.33,-342 1138.33,-338.5 1138.33,-345.5"/>
</g>
<!-- l2b_spec_pc_src -->
<g id="node51" class="node">
<title>l2b_spec_pc_src</title>
<ellipse fill="none" stroke="black" cx="1235.45" cy="-288" rx="131.88" ry="18"/>
<text text-anchor="middle" x="1235.45" y="-284.3" font-family="Times,serif" font-size="14.00">L2b_spec_pc source manifest 1..1</text>
</g>
<!-- trans_spec_pc_l2a_l2b&#45;&gt;l2b_spec_pc_src -->
<g id="edge53" class="edge">
<title>trans_spec_pc_l2a_l2b&#45;&gt;l2b_spec_pc_src</title>
<path fill="none" stroke="black" d="M1023.08,-288C1023.08,-288 1093.25,-288 1093.25,-288"/>
<polygon fill="black" stroke="black" points="1093.25,-291.5 1103.25,-288 1093.25,-284.5 1093.25,-291.5"/>
</g>
<!-- trans_spec_pc_l2b_l3 -->
<g id="node3" class="node">
<title>trans_spec_pc_l2b_l3</title>
<ellipse fill="none" stroke="black" cx="1508.41" cy="-558" rx="101.23" ry="101.23"/>
<text text-anchor="middle" x="1508.41" y="-561.8" font-family="Times,serif" font-size="14.00">spec_pc Transmutation</text>
<text text-anchor="middle" x="1508.41" y="-546.8" font-family="Times,serif" font-size="14.00">L2b to L3</text>
</g>
<!-- l3_spec_pc_prod -->
<g id="node29" class="node">
<title>l3_spec_pc_prod</title>
<polygon fill="none" stroke="black" points="1855.96,-657 1698.96,-657 1698.96,-621 1855.96,-621 1855.96,-657"/>
<text text-anchor="middle" x="1777.46" y="-635.3" font-family="Times,serif" font-size="14.00">L3_spec_pc products 1..1</text>
</g>
<!-- trans_spec_pc_l2b_l3&#45;&gt;l3_spec_pc_prod -->
<g id="edge28" class="edge">
<title>trans_spec_pc_l2b_l3&#45;&gt;l3_spec_pc_prod</title>
<path fill="none" stroke="black" stroke-dasharray="5,2" d="M1569.12,-639C1569.12,-639 1688.82,-639 1688.82,-639"/>
<polygon fill="black" stroke="black" points="1688.82,-642.5 1698.82,-639 1688.82,-635.5 1688.82,-642.5"/>
</g>
<!-- l3_spec_pc_man -->
<g id="node31" class="node">
<title>l3_spec_pc_man</title>
<ellipse fill="none" stroke="black" cx="1777.46" cy="-585" rx="131.88" ry="18"/>
<text text-anchor="middle" x="1777.46" y="-581.3" font-family="Times,serif" font-size="14.00">L3_spec_pc product manifest 1..1</text>
</g>
<!-- trans_spec_pc_l2b_l3&#45;&gt;l3_spec_pc_man -->
<g id="edge29" class="edge">
<title>trans_spec_pc_l2b_l3&#45;&gt;l3_spec_pc_man</title>
<path fill="none" stroke="black" d="M1605.92,-585C1605.92,-585 1635.21,-585 1635.21,-585"/>
<polygon fill="black" stroke="black" points="1635.21,-588.5 1645.21,-585 1635.21,-581.5 1635.21,-588.5"/>
</g>
<!-- l3_spec_pc_log -->
<g id="node35" class="node">
<title>l3_spec_pc_log</title>
<ellipse fill="none" stroke="black" cx="1777.46" cy="-531" rx="83.39" ry="18"/>
<text text-anchor="middle" x="1777.46" y="-527.3" font-family="Times,serif" font-size="14.00">L3_spec_pc log 1..1</text>
</g>
<!-- trans_spec_pc_l2b_l3&#45;&gt;l3_spec_pc_log -->
<g id="edge30" class="edge">
<title>trans_spec_pc_l2b_l3&#45;&gt;l3_spec_pc_log</title>
<path fill="none" stroke="black" stroke-dasharray="5,2" d="M1605.92,-531C1605.92,-531 1684.04,-531 1684.04,-531"/>
<polygon fill="black" stroke="black" points="1684.04,-534.5 1694.04,-531 1684.04,-527.5 1684.04,-534.5"/>
</g>
<!-- l3_spec_pc_src -->
<g id="node52" class="node">
<title>l3_spec_pc_src</title>
<ellipse fill="none" stroke="black" cx="1777.46" cy="-477" rx="128.08" ry="18"/>
<text text-anchor="middle" x="1777.46" y="-473.3" font-family="Times,serif" font-size="14.00">L3_spec_pc source manifest 1..1</text>
</g>
<!-- trans_spec_pc_l2b_l3&#45;&gt;l3_spec_pc_src -->
<g id="edge54" class="edge">
<title>trans_spec_pc_l2b_l3&#45;&gt;l3_spec_pc_src</title>
<path fill="none" stroke="black" d="M1569.12,-477C1569.12,-477 1639.34,-477 1639.34,-477"/>
<polygon fill="black" stroke="black" points="1639.34,-480.5 1649.34,-477 1639.34,-473.5 1639.34,-480.5"/>
</g>
<!-- trans_spec_pc_l3_l4 -->
<g id="node4" class="node">
<title>trans_spec_pc_l3_l4</title>
<ellipse fill="none" stroke="black" cx="2046.52" cy="-720" rx="101.23" ry="101.23"/>
<text text-anchor="middle" x="2046.52" y="-723.8" font-family="Times,serif" font-size="14.00">spec_pc Transmutation</text>
<text text-anchor="middle" x="2046.52" y="-708.8" font-family="Times,serif" font-size="14.00">L3 to L4</text>
</g>
<!-- l4_spec_pc_prod -->
<g id="node36" class="node">
<title>l4_spec_pc_prod</title>
<polygon fill="none" stroke="black" points="2394.07,-819 2237.07,-819 2237.07,-783 2394.07,-783 2394.07,-819"/>
<text text-anchor="middle" x="2315.57" y="-797.3" font-family="Times,serif" font-size="14.00">L4_spec_pc products 1..1</text>
</g>
<!-- trans_spec_pc_l3_l4&#45;&gt;l4_spec_pc_prod -->
<g id="edge37" class="edge">
<title>trans_spec_pc_l3_l4&#45;&gt;l4_spec_pc_prod</title>
<path fill="none" stroke="black" stroke-dasharray="5,2" d="M2107.23,-801C2107.23,-801 2226.93,-801 2226.93,-801"/>
<polygon fill="black" stroke="black" points="2226.93,-804.5 2236.93,-801 2226.93,-797.5 2226.93,-804.5"/>
</g>
<!-- l4_spec_pc_log -->
<g id="node38" class="node">
<title>l4_spec_pc_log</title>
<ellipse fill="none" stroke="black" cx="2315.57" cy="-747" rx="83.39" ry="18"/>
<text text-anchor="middle" x="2315.57" y="-743.3" font-family="Times,serif" font-size="14.00">L4_spec_pc log 1..1</text>
</g>
<!-- trans_spec_pc_l3_l4&#45;&gt;l4_spec_pc_log -->
<g id="edge38" class="edge">
<title>trans_spec_pc_l3_l4&#45;&gt;l4_spec_pc_log</title>
<path fill="none" stroke="black" stroke-dasharray="5,2" d="M2144.03,-747C2144.03,-747 2222.15,-747 2222.15,-747"/>
<polygon fill="black" stroke="black" points="2222.15,-750.5 2232.15,-747 2222.15,-743.5 2222.15,-750.5"/>
</g>
<!-- l4_spec_pc_man -->
<g id="node39" class="node">
<title>l4_spec_pc_man</title>
<ellipse fill="none" stroke="black" cx="2315.57" cy="-693" rx="131.88" ry="18"/>
<text text-anchor="middle" x="2315.57" y="-689.3" font-family="Times,serif" font-size="14.00">L4_spec_pc product manifest 1..1</text>
</g>
<!-- trans_spec_pc_l3_l4&#45;&gt;l4_spec_pc_man -->
<g id="edge39" class="edge">
<title>trans_spec_pc_l3_l4&#45;&gt;l4_spec_pc_man</title>
<path fill="none" stroke="black" d="M2144.03,-693C2144.03,-693 2173.32,-693 2173.32,-693"/>
<polygon fill="black" stroke="black" points="2173.32,-696.5 2183.32,-693 2173.32,-689.5 2173.32,-696.5"/>
</g>
<!-- l4_spec_pc_src -->
<g id="node53" class="node">
<title>l4_spec_pc_src</title>
<ellipse fill="none" stroke="black" cx="2315.57" cy="-639" rx="125.38" ry="18"/>
<text text-anchor="middle" x="2315.57" y="-635.3" font-family="Times,serif" font-size="14.00">L4_spec_pc sourcemanifest 1..1</text>
</g>
<!-- trans_spec_pc_l3_l4&#45;&gt;l4_spec_pc_src -->
<g id="edge55" class="edge">
<title>trans_spec_pc_l3_l4&#45;&gt;l4_spec_pc_src</title>
<path fill="none" stroke="black" d="M2107.23,-639C2107.23,-639 2179.9,-639 2179.9,-639"/>
<polygon fill="black" stroke="black" points="2179.9,-642.5 2189.9,-639 2179.9,-635.5 2179.9,-642.5"/>
</g>
<!-- trans_spec_pc_l4_tda -->
<g id="node5" class="node">
<title>trans_spec_pc_l4_tda</title>
<ellipse fill="none" stroke="black" cx="2584.63" cy="-990" rx="101.23" ry="101.23"/>
<text text-anchor="middle" x="2584.63" y="-993.8" font-family="Times,serif" font-size="14.00">spec_pc Transmutation</text>
<text text-anchor="middle" x="2584.63" y="-978.8" font-family="Times,serif" font-size="14.00">L4 to TDA</text>
</g>
<!-- tda_spec_pc_prod -->
<g id="node48" class="node">
<title>tda_spec_pc_prod</title>
<ellipse fill="none" stroke="black" cx="2855.63" cy="-1044" rx="74.99" ry="18"/>
<text text-anchor="middle" x="2855.63" y="-1040.3" font-family="Times,serif" font-size="14.00">tda_spec_pc_prod</text>
</g>
<!-- trans_spec_pc_l4_tda&#45;&gt;tda_spec_pc_prod -->
<g id="edge50" class="edge">
<title>trans_spec_pc_l4_tda&#45;&gt;tda_spec_pc_prod</title>
<path fill="none" stroke="black" stroke-dasharray="5,2" d="M2670.37,-1044C2670.37,-1044 2770.5,-1044 2770.5,-1044"/>
<polygon fill="black" stroke="black" points="2770.5,-1047.5 2780.5,-1044 2770.5,-1040.5 2770.5,-1047.5"/>
</g>
<!-- tda_spec_pc_log -->
<g id="node49" class="node">
<title>tda_spec_pc_log</title>
<ellipse fill="none" stroke="black" cx="2855.63" cy="-990" rx="69.59" ry="18"/>
<text text-anchor="middle" x="2855.63" y="-986.3" font-family="Times,serif" font-size="14.00">tda_spec_pc_log</text>
</g>
<!-- trans_spec_pc_l4_tda&#45;&gt;tda_spec_pc_log -->
<g id="edge51" class="edge">
<title>trans_spec_pc_l4_tda&#45;&gt;tda_spec_pc_log</title>
<path fill="none" stroke="black" stroke-dasharray="5,2" d="M2685.92,-990C2685.92,-990 2775.68,-990 2775.68,-990"/>
<polygon fill="black" stroke="black" points="2775.68,-993.5 2785.68,-990 2775.68,-986.5 2775.68,-993.5"/>
</g>
<!-- tda_spec_pc_src -->
<g id="node54" class="node">
<title>tda_spec_pc_src</title>
<ellipse fill="none" stroke="black" cx="2855.63" cy="-936" rx="133.78" ry="18"/>
<text text-anchor="middle" x="2855.63" y="-932.3" font-family="Times,serif" font-size="14.00">TDA_spec_pc sourcemanifest 1..1</text>
</g>
<!-- trans_spec_pc_l4_tda&#45;&gt;tda_spec_pc_src -->
<g id="edge56" class="edge">
<title>trans_spec_pc_l4_tda&#45;&gt;tda_spec_pc_src</title>
<path fill="none" stroke="black" d="M2670.37,-936C2670.37,-936 2711.42,-936 2711.42,-936"/>
<polygon fill="black" stroke="black" points="2711.42,-939.5 2721.42,-936 2711.42,-932.5 2711.42,-939.5"/>
</g>
<!-- l1_spec_pc_prod -->
<g id="node6" class="node">
<title>l1_spec_pc_prod</title>
<polygon fill="none" stroke="black" points="218.24,-252 61.24,-252 61.24,-216 218.24,-216 218.24,-252"/>
<text text-anchor="middle" x="139.74" y="-230.3" font-family="Times,serif" font-size="14.00">L1_spec_pc products 1..b</text>
</g>
<!-- l1_spec_pc_prod&#45;&gt;trans_spec_pc_l1_l2a -->
<g id="edge1" class="edge">
<title>l1_spec_pc_prod&#45;&gt;trans_spec_pc_l1_l2a</title>
<path fill="none" stroke="black" stroke-dasharray="5,2" d="M218.33,-221.56C218.33,-221.56 373.26,-221.56 373.26,-221.56"/>
<polygon fill="black" stroke="black" points="373.26,-225.06 383.26,-221.56 373.26,-218.06 373.26,-225.06"/>
</g>
<!-- l1_spec_pc_man -->
<g id="node7" class="node">
<title>l1_spec_pc_man</title>
<ellipse fill="none" stroke="black" cx="139.74" cy="-180" rx="131.88" ry="18"/>
<text text-anchor="middle" x="139.74" y="-176.3" font-family="Times,serif" font-size="14.00">L1_spec_pc product manifest 1..1</text>
</g>
<!-- l1_spec_pc_man&#45;&gt;trans_spec_pc_l1_l2a -->
<g id="edge2" class="edge">
<title>l1_spec_pc_man&#45;&gt;trans_spec_pc_l1_l2a</title>
<path fill="none" stroke="black" d="M271.68,-180C271.68,-180 321.09,-180 321.09,-180"/>
<polygon fill="black" stroke="black" points="321.09,-183.5 331.09,-180 321.09,-176.5 321.09,-183.5"/>
</g>
<!-- l1_spec_pc_odir -->
<g id="node8" class="node">
<title>l1_spec_pc_odir</title>
<ellipse fill="none" stroke="black" cx="139.74" cy="-126" rx="111.58" ry="18"/>
<text text-anchor="middle" x="139.74" y="-122.3" font-family="Times,serif" font-size="14.00">L1_spec_pc output path 1..1</text>
</g>
<!-- l1_spec_pc_odir&#45;&gt;trans_spec_pc_l1_l2a -->
<g id="edge3" class="edge">
<title>l1_spec_pc_odir&#45;&gt;trans_spec_pc_l1_l2a</title>
<path fill="none" stroke="black" d="M251.55,-126C251.55,-126 305.09,-126 305.09,-126"/>
<polygon fill="black" stroke="black" points="305.09,-129.5 315.09,-126 305.09,-122.5 305.09,-129.5"/>
</g>
<!-- l1_spec_pc_rec -->
<g id="node9" class="node">
<title>l1_spec_pc_rec</title>
<polygon fill="none" stroke="black" points="199.24,-84 68.24,-84 68.24,-60 199.24,-60 211.24,-72 199.24,-84"/>
<text text-anchor="middle" x="139.74" y="-68.3" font-family="Times,serif" font-size="14.00">L1_spec_pc recipe 1..1</text>
</g>
<!-- l1_spec_pc_rec&#45;&gt;trans_spec_pc_l1_l2a -->
<g id="edge4" class="edge">
<title>l1_spec_pc_rec&#45;&gt;trans_spec_pc_l1_l2a</title>
<path fill="none" stroke="black" d="M211.39,-72C211.39,-72 320.95,-72 320.95,-72"/>
<polygon fill="black" stroke="black" points="320.95,-75.5 330.95,-72 320.95,-68.5 320.95,-75.5"/>
</g>
<!-- l1_spec_pc_nllut -->
<g id="node10" class="node">
<title>l1_spec_pc_nllut</title>
<polygon fill="none" stroke="black" points="225.24,-30 42.24,-30 42.24,-6 225.24,-6 237.24,-18 225.24,-30"/>
<text text-anchor="middle" x="139.74" y="-14.3" font-family="Times,serif" font-size="14.00">L1_spec_pc non&#45;linear LUT 1..1</text>
</g>
<!-- l1_spec_pc_nllut&#45;&gt;trans_spec_pc_l1_l2a -->
<g id="edge5" class="edge">
<title>l1_spec_pc_nllut&#45;&gt;trans_spec_pc_l1_l2a</title>
<path fill="none" stroke="black" d="M237.35,-30.44C237.35,-30.44 373.24,-30.44 373.24,-30.44"/>
<polygon fill="black" stroke="black" points="373.24,-33.94 383.24,-30.44 373.24,-26.94 373.24,-33.94"/>
</g>
<!-- l2a_spec_pc_prod&#45;&gt;trans_spec_pc_l2a_l2b -->
<g id="edge9" class="edge">
<title>l2a_spec_pc_prod&#45;&gt;trans_spec_pc_l2a_l2b</title>
<path fill="none" stroke="black" stroke-dasharray="5,2" d="M771.08,-207C851.51,-207 962.52,-207 962.52,-207 962.52,-207 962.52,-257.78 962.52,-257.78"/>
<polygon fill="black" stroke="black" points="959.02,-257.78 962.52,-267.78 966.02,-257.78 959.02,-257.78"/>
</g>
<!-- l2a_spec_pc_man&#45;&gt;trans_spec_pc_l2a_l2b -->
<g id="edge20" class="edge">
<title>l2a_spec_pc_man&#45;&gt;trans_spec_pc_l2a_l2b</title>
<path fill="none" stroke="black" d="M819.52,-158.4C819.52,-181.6 819.52,-271.59 819.52,-271.59 819.52,-271.59 925.27,-271.59 925.27,-271.59"/>
<polygon fill="black" stroke="black" points="925.27,-275.09 935.27,-271.59 925.27,-268.09 925.27,-275.09"/>
</g>
<!-- l2a_spec_pc_odir -->
<g id="node13" class="node">
<title>l2a_spec_pc_odir</title>
<ellipse fill="none" stroke="black" cx="689.55" cy="-587" rx="115.88" ry="18"/>
<text text-anchor="middle" x="689.55" y="-583.3" font-family="Times,serif" font-size="14.00">L2a_spec_pc output path 1..1</text>
</g>
<!-- l2a_spec_pc_odir&#45;&gt;trans_spec_pc_l2a_l2b -->
<g id="edge10" class="edge">
<title>l2a_spec_pc_odir&#45;&gt;trans_spec_pc_l2a_l2b</title>
<path fill="none" stroke="black" d="M758.44,-572.5C848.94,-572.5 996.52,-572.5 996.52,-572.5 996.52,-572.5 996.52,-474.49 996.52,-474.49"/>
<polygon fill="black" stroke="black" points="1000.02,-474.49 996.52,-464.49 993.02,-474.49 1000.02,-474.49"/>
</g>
<!-- l2a_spec_pc_rec -->
<g id="node14" class="node">
<title>l2a_spec_pc_rec</title>
<polygon fill="none" stroke="black" points="752.05,-545 615.05,-545 615.05,-521 752.05,-521 764.05,-533 752.05,-545"/>
<text text-anchor="middle" x="689.55" y="-529.3" font-family="Times,serif" font-size="14.00">L2a_spec_pc recipe 1..1</text>
</g>
<!-- l2a_spec_pc_rec&#45;&gt;trans_spec_pc_l2a_l2b -->
<g id="edge11" class="edge">
<title>l2a_spec_pc_rec&#45;&gt;trans_spec_pc_l2a_l2b</title>
<path fill="none" stroke="black" d="M764.16,-518.5C834.6,-518.5 929.52,-518.5 929.52,-518.5 929.52,-518.5 929.52,-474.95 929.52,-474.95"/>
<polygon fill="black" stroke="black" points="933.02,-474.95 929.52,-464.95 926.02,-474.95 933.02,-474.95"/>
</g>
<!-- l2a_spec_pc_cti -->
<g id="node15" class="node">
<title>l2a_spec_pc_cti</title>
<polygon fill="none" stroke="black" points="800.55,-491 566.55,-491 566.55,-467 800.55,-467 812.55,-479 800.55,-491"/>
<text text-anchor="middle" x="689.55" y="-475.3" font-family="Times,serif" font-size="14.00">L2a_spec_pc charge xfer inefficiency 1..1</text>
</g>
<!-- l2a_spec_pc_cti&#45;&gt;trans_spec_pc_l2a_l2b -->
<g id="edge12" class="edge">
<title>l2a_spec_pc_cti&#45;&gt;trans_spec_pc_l2a_l2b</title>
<path fill="none" stroke="black" d="M812.85,-465.56C812.85,-465.56 922.29,-465.56 922.29,-465.56"/>
<polygon fill="black" stroke="black" points="922.29,-469.06 932.29,-465.56 922.29,-462.06 922.29,-469.06"/>
</g>
<!-- l2a_spec_pc_dnb -->
<g id="node16" class="node">
<title>l2a_spec_pc_dnb</title>
<polygon fill="none" stroke="black" points="786.55,-437 580.55,-437 580.55,-411 786.55,-411 798.55,-424 786.55,-437"/>
<text text-anchor="middle" x="689.55" y="-427.8" font-family="Times,serif" font-size="14.00">L2a_spec_pc CIC/Dark Current/FPN</text>
<text text-anchor="middle" x="689.55" y="-412.8" font-family="Times,serif" font-size="14.00"> or master dark 1..1</text>
</g>
<!-- l2a_spec_pc_dnb&#45;&gt;trans_spec_pc_l2a_l2b -->
<g id="edge13" class="edge">
<title>l2a_spec_pc_dnb&#45;&gt;trans_spec_pc_l2a_l2b</title>
<path fill="none" stroke="black" d="M798.6,-424C798.6,-424 867.58,-424 867.58,-424"/>
<polygon fill="black" stroke="black" points="867.58,-427.5 877.58,-424 867.58,-420.5 867.58,-427.5"/>
</g>
<!-- l2a_spec_pc_mbpm -->
<g id="node17" class="node">
<title>l2a_spec_pc_mbpm</title>
<polygon fill="none" stroke="black" points="795.05,-381 572.05,-381 572.05,-357 795.05,-357 807.05,-369 795.05,-381"/>
<text text-anchor="middle" x="689.55" y="-365.3" font-family="Times,serif" font-size="14.00">L2a_spec_pc master bad pixel map 1..1</text>
</g>
<!-- l2a_spec_pc_mbpm&#45;&gt;trans_spec_pc_l2a_l2b -->
<g id="edge14" class="edge">
<title>l2a_spec_pc_mbpm&#45;&gt;trans_spec_pc_l2a_l2b</title>
<path fill="none" stroke="black" d="M807.28,-369C807.28,-369 851.01,-369 851.01,-369"/>
<polygon fill="black" stroke="black" points="851.01,-372.5 861.01,-369 851.01,-365.5 851.01,-372.5"/>
</g>
<!-- l2a_spec_pc_kgain -->
<g id="node18" class="node">
<title>l2a_spec_pc_kgain</title>
<polygon fill="none" stroke="black" points="752.05,-327 615.05,-327 615.05,-303 752.05,-303 764.05,-315 752.05,-327"/>
<text text-anchor="middle" x="689.55" y="-311.3" font-family="Times,serif" font-size="14.00">L2a_spec_pc Kgain 1..1</text>
</g>
<!-- l2a_spec_pc_kgain&#45;&gt;trans_spec_pc_l2a_l2b -->
<g id="edge16" class="edge">
<title>l2a_spec_pc_kgain&#45;&gt;trans_spec_pc_l2a_l2b</title>
<path fill="none" stroke="black" d="M764.13,-315C764.13,-315 866.91,-315 866.91,-315"/>
<polygon fill="black" stroke="black" points="866.91,-318.5 876.91,-315 866.91,-311.5 866.91,-318.5"/>
</g>
<!-- l2a_spec_pc_emg -->
<g id="node19" class="node">
<title>l2a_spec_pc_emg</title>
<polygon fill="none" stroke="black" points="759.55,-273 607.55,-273 607.55,-249 759.55,-249 771.55,-261 759.55,-273"/>
<text text-anchor="middle" x="689.55" y="-257.3" font-family="Times,serif" font-size="14.00">L2a_spec_pc EM gain 1..1</text>
</g>
<!-- l2a_spec_pc_emg&#45;&gt;trans_spec_pc_l2a_l2b -->
<g id="edge15" class="edge">
<title>l2a_spec_pc_emg&#45;&gt;trans_spec_pc_l2a_l2b</title>
<path fill="none" stroke="black" d="M771.81,-275.29C771.81,-275.29 914.46,-275.29 914.46,-275.29"/>
<polygon fill="black" stroke="black" points="914.46,-278.79 924.46,-275.29 914.46,-271.79 914.46,-278.79"/>
</g>
<!-- l2b_spec_pc_prod&#45;&gt;trans_spec_pc_l2b_l3 -->
<g id="edge21" class="edge">
<title>l2b_spec_pc_prod&#45;&gt;trans_spec_pc_l2b_l3</title>
<path fill="none" stroke="black" stroke-dasharray="5,2" d="M1317.72,-464.29C1317.72,-464.29 1460.37,-464.29 1460.37,-464.29"/>
<polygon fill="black" stroke="black" points="1460.37,-467.79 1470.37,-464.29 1460.37,-460.79 1460.37,-467.79"/>
</g>
<!-- l2b_spec_pc_man&#45;&gt;trans_spec_pc_l2b_l3 -->
<g id="edge22" class="edge">
<title>l2b_spec_pc_man&#45;&gt;trans_spec_pc_l2b_l3</title>
<path fill="none" stroke="black" d="M1356.52,-404.18C1356.52,-421.56 1356.52,-460.59 1356.52,-460.59 1356.52,-460.59 1471.25,-460.59 1471.25,-460.59"/>
<polygon fill="black" stroke="black" points="1471.25,-464.09 1481.25,-460.59 1471.25,-457.09 1471.25,-464.09"/>
</g>
<!-- l2b_spec_pc_odir -->
<g id="node23" class="node">
<title>l2b_spec_pc_odir</title>
<ellipse fill="none" stroke="black" cx="1235.45" cy="-720" rx="116.18" ry="18"/>
<text text-anchor="middle" x="1235.45" y="-716.3" font-family="Times,serif" font-size="14.00">L2b_spec_pc output path 1..1</text>
</g>
<!-- l2b_spec_pc_odir&#45;&gt;trans_spec_pc_l2b_l3 -->
<g id="edge23" class="edge">
<title>l2b_spec_pc_odir&#45;&gt;trans_spec_pc_l2b_l3</title>
<path fill="none" stroke="black" d="M1331.52,-709.62C1331.52,-691.36 1331.52,-655.41 1331.52,-655.41 1331.52,-655.41 1471.16,-655.41 1471.16,-655.41"/>
<polygon fill="black" stroke="black" points="1471.16,-658.91 1481.16,-655.41 1471.16,-651.91 1471.16,-658.91"/>
</g>
<!-- l2b_spec_pc_rec -->
<g id="node24" class="node">
<title>l2b_spec_pc_rec</title>
<polygon fill="none" stroke="black" points="1298.45,-678 1160.45,-678 1160.45,-654 1298.45,-654 1310.45,-666 1298.45,-678"/>
<text text-anchor="middle" x="1235.45" y="-662.3" font-family="Times,serif" font-size="14.00">L2b_spec_pc recipe 1..1</text>
</g>
<!-- l2b_spec_pc_rec&#45;&gt;trans_spec_pc_l2b_l3 -->
<g id="edge24" class="edge">
<title>l2b_spec_pc_rec&#45;&gt;trans_spec_pc_l2b_l3</title>
<path fill="none" stroke="black" d="M1310.76,-651.71C1310.76,-651.71 1460.23,-651.71 1460.23,-651.71"/>
<polygon fill="black" stroke="black" points="1460.23,-655.21 1470.23,-651.71 1460.23,-648.21 1460.23,-655.21"/>
</g>
<!-- l2b_spec_pc_excicrf -->
<g id="node25" class="node">
<title>l2b_spec_pc_excicrf</title>
<polygon fill="none" stroke="black" points="1347.45,-624 1111.45,-624 1111.45,-600 1347.45,-600 1359.45,-612 1347.45,-624"/>
<text text-anchor="middle" x="1235.45" y="-608.3" font-family="Times,serif" font-size="14.00">L2b_spec_pc EXCAM ICRF location 1..1</text>
</g>
<!-- l2b_spec_pc_excicrf&#45;&gt;trans_spec_pc_l2b_l3 -->
<g id="edge25" class="edge">
<title>l2b_spec_pc_excicrf&#45;&gt;trans_spec_pc_l2b_l3</title>
<path fill="none" stroke="black" d="M1359.55,-612C1359.55,-612 1412.87,-612 1412.87,-612"/>
<polygon fill="black" stroke="black" points="1412.87,-615.5 1422.87,-612 1412.87,-608.5 1412.87,-615.5"/>
</g>
<!-- l2b_spec_pc_excfovps -->
<g id="node26" class="node">
<title>l2b_spec_pc_excfovps</title>
<polygon fill="none" stroke="black" points="1352.45,-570 1106.45,-570 1106.45,-546 1352.45,-546 1364.45,-558 1352.45,-570"/>
<text text-anchor="middle" x="1235.45" y="-554.3" font-family="Times,serif" font-size="14.00">L2b_spec_pc EXCAM FOV pixel scale 1..1</text>
</g>
<!-- l2b_spec_pc_excfovps&#45;&gt;trans_spec_pc_l2b_l3 -->
<g id="edge26" class="edge">
<title>l2b_spec_pc_excfovps&#45;&gt;trans_spec_pc_l2b_l3</title>
<path fill="none" stroke="black" d="M1364.74,-558C1364.74,-558 1397.01,-558 1397.01,-558"/>
<polygon fill="black" stroke="black" points="1397.01,-561.5 1407.01,-558 1397.01,-554.5 1397.01,-561.5"/>
</g>
<!-- l2b_spec_pc_cfamfo -->
<g id="node27" class="node">
<title>l2b_spec_pc_cfamfo</title>
<polygon fill="none" stroke="black" points="1336.45,-516 1122.45,-516 1122.45,-492 1336.45,-492 1348.45,-504 1336.45,-516"/>
<text text-anchor="middle" x="1235.45" y="-500.3" font-family="Times,serif" font-size="14.00">L2b_spec_pc CFAM filter offsets 1..1</text>
</g>
<!-- l2b_spec_pc_cfamfo&#45;&gt;trans_spec_pc_l2b_l3 -->
<g id="edge27" class="edge">
<title>l2b_spec_pc_cfamfo&#45;&gt;trans_spec_pc_l2b_l3</title>
<path fill="none" stroke="black" d="M1348.84,-504C1348.84,-504 1412.85,-504 1412.85,-504"/>
<polygon fill="black" stroke="black" points="1412.85,-507.5 1422.85,-504 1412.85,-500.5 1412.85,-507.5"/>
</g>
<!-- l3_spec_pc_prod&#45;&gt;trans_spec_pc_l3_l4 -->
<g id="edge31" class="edge">
<title>l3_spec_pc_prod&#45;&gt;trans_spec_pc_l3_l4</title>
<path fill="none" stroke="black" stroke-dasharray="5,2" d="M1856.01,-645C1856.01,-645 1968.38,-645 1968.38,-645"/>
<polygon fill="black" stroke="black" points="1968.38,-648.5 1978.38,-645 1968.38,-641.5 1968.38,-648.5"/>
</g>
<!-- l3_spec_pc_odir -->
<g id="node30" class="node">
<title>l3_spec_pc_odir</title>
<ellipse fill="none" stroke="black" cx="1777.46" cy="-855" rx="111.58" ry="18"/>
<text text-anchor="middle" x="1777.46" y="-851.3" font-family="Times,serif" font-size="14.00">L3_spec_pc output path 1..1</text>
</g>
<!-- l3_spec_pc_odir&#45;&gt;trans_spec_pc_l3_l4 -->
<g id="edge33" class="edge">
<title>l3_spec_pc_odir&#45;&gt;trans_spec_pc_l3_l4</title>
<path fill="none" stroke="black" d="M1884.52,-849.49C1884.52,-836.89 1884.52,-807 1884.52,-807 1884.52,-807 1984.81,-807 1984.81,-807"/>
<polygon fill="black" stroke="black" points="1984.81,-810.5 1994.81,-807 1984.81,-803.5 1984.81,-810.5"/>
</g>
<!-- l3_spec_pc_man&#45;&gt;trans_spec_pc_l3_l4 -->
<g id="edge32" class="edge">
<title>l3_spec_pc_man&#45;&gt;trans_spec_pc_l3_l4</title>
<path fill="none" stroke="black" d="M1899.52,-592.08C1899.52,-605.43 1899.52,-633 1899.52,-633 1899.52,-633 1984.69,-633 1984.69,-633"/>
<polygon fill="black" stroke="black" points="1984.69,-636.5 1994.69,-633 1984.69,-629.5 1984.69,-636.5"/>
</g>
<!-- l3_spec_pc_rec -->
<g id="node32" class="node">
<title>l3_spec_pc_rec</title>
<polygon fill="none" stroke="black" points="1836.96,-813 1705.96,-813 1705.96,-789 1836.96,-789 1848.96,-801 1836.96,-813"/>
<text text-anchor="middle" x="1777.46" y="-797.3" font-family="Times,serif" font-size="14.00">L3_spec_pc recipe 1..1</text>
</g>
<!-- l3_spec_pc_rec&#45;&gt;trans_spec_pc_l3_l4 -->
<g id="edge34" class="edge">
<title>l3_spec_pc_rec&#45;&gt;trans_spec_pc_l3_l4</title>
<path fill="none" stroke="black" d="M1849.21,-795C1849.21,-795 1968.67,-795 1968.67,-795"/>
<polygon fill="black" stroke="black" points="1968.67,-798.5 1978.67,-795 1968.67,-791.5 1968.67,-798.5"/>
</g>
<!-- l3_spec_pc_dispm -->
<g id="node33" class="node">
<title>l3_spec_pc_dispm</title>
<polygon fill="none" stroke="black" points="1867.46,-759 1675.46,-759 1675.46,-735 1867.46,-735 1879.46,-747 1867.46,-759"/>
<text text-anchor="middle" x="1777.46" y="-743.3" font-family="Times,serif" font-size="14.00">L3_spec_pc dispersion model 1..1</text>
</g>
<!-- l3_spec_pc_dispm&#45;&gt;trans_spec_pc_l3_l4 -->
<g id="edge35" class="edge">
<title>l3_spec_pc_dispm&#45;&gt;trans_spec_pc_l3_l4</title>
<path fill="none" stroke="black" d="M1879.56,-747C1879.56,-747 1938.93,-747 1938.93,-747"/>
<polygon fill="black" stroke="black" points="1938.93,-750.5 1948.93,-747 1938.93,-743.5 1938.93,-750.5"/>
</g>
<!-- l3_spec_pc_wavem -->
<g id="node34" class="node">
<title>l3_spec_pc_wavem</title>
<polygon fill="none" stroke="black" points="1865.46,-705 1677.46,-705 1677.46,-681 1865.46,-681 1877.46,-693 1865.46,-705"/>
<text text-anchor="middle" x="1777.46" y="-689.3" font-family="Times,serif" font-size="14.00">L3_spec_pc wavelength map 1..1</text>
</g>
<!-- l3_spec_pc_wavem&#45;&gt;trans_spec_pc_l3_l4 -->
<g id="edge36" class="edge">
<title>l3_spec_pc_wavem&#45;&gt;trans_spec_pc_l3_l4</title>
<path fill="none" stroke="black" d="M1877.65,-693C1877.65,-693 1938.93,-693 1938.93,-693"/>
<polygon fill="black" stroke="black" points="1938.93,-696.5 1948.93,-693 1938.93,-689.5 1938.93,-696.5"/>
</g>
<!-- l4_spec_pc_prod&#45;&gt;trans_spec_pc_l4_tda -->
<g id="edge40" class="edge">
<title>l4_spec_pc_prod&#45;&gt;trans_spec_pc_l4_tda</title>
<path fill="none" stroke="black" stroke-dasharray="5,2" d="M2394.38,-801C2474.06,-801 2585.52,-801 2585.52,-801 2585.52,-801 2585.52,-878.86 2585.52,-878.86"/>
<polygon fill="black" stroke="black" points="2582.02,-878.86 2585.52,-888.86 2589.02,-878.86 2582.02,-878.86"/>
</g>
<!-- l4_spec_pc_odir -->
<g id="node37" class="node">
<title>l4_spec_pc_odir</title>
<ellipse fill="none" stroke="black" cx="2315.57" cy="-1233" rx="111.58" ry="18"/>
<text text-anchor="middle" x="2315.57" y="-1229.3" font-family="Times,serif" font-size="14.00">L4_spec_pc output path 1..1</text>
</g>
<!-- l4_spec_pc_odir&#45;&gt;trans_spec_pc_l4_tda -->
<g id="edge42" class="edge">
<title>l4_spec_pc_odir&#45;&gt;trans_spec_pc_l4_tda</title>
<path fill="none" stroke="black" d="M2427.52,-1233C2513.82,-1233 2618.52,-1233 2618.52,-1233 2618.52,-1233 2618.52,-1095.34 2618.52,-1095.34"/>
<polygon fill="black" stroke="black" points="2622.02,-1095.34 2618.52,-1085.34 2615.02,-1095.34 2622.02,-1095.34"/>
</g>
<!-- l4_spec_pc_man&#45;&gt;trans_spec_pc_l4_tda -->
<g id="edge41" class="edge">
<title>l4_spec_pc_man&#45;&gt;trans_spec_pc_l4_tda</title>
<path fill="none" stroke="black" d="M2447.55,-693C2535.69,-693 2635.52,-693 2635.52,-693 2635.52,-693 2635.52,-892.5 2635.52,-892.5"/>
<polygon fill="black" stroke="black" points="2632.02,-892.5 2635.52,-902.5 2639.02,-892.5 2632.02,-892.5"/>
</g>
<!-- l4_spec_pc_rec -->
<g id="node40" class="node">
<title>l4_spec_pc_rec</title>
<polygon fill="none" stroke="black" points="2375.07,-1191 2244.07,-1191 2244.07,-1167 2375.07,-1167 2387.07,-1179 2375.07,-1191"/>
<text text-anchor="middle" x="2315.57" y="-1175.3" font-family="Times,serif" font-size="14.00">L4_spec_pc recipe 1..1</text>
</g>
<!-- l4_spec_pc_rec&#45;&gt;trans_spec_pc_l4_tda -->
<g id="edge43" class="edge">
<title>l4_spec_pc_rec&#45;&gt;trans_spec_pc_l4_tda</title>
<path fill="none" stroke="black" d="M2387.32,-1179C2456.74,-1179 2551.52,-1179 2551.52,-1179 2551.52,-1179 2551.52,-1095.61 2551.52,-1095.61"/>
<polygon fill="black" stroke="black" points="2555.02,-1095.61 2551.52,-1085.61 2548.02,-1095.61 2555.02,-1095.61"/>
</g>
<!-- l4_spec_pc_afcal -->
<g id="node41" class="node">
<title>l4_spec_pc_afcal</title>
<polygon fill="none" stroke="black" points="2427.57,-1137 2191.57,-1137 2191.57,-1113 2427.57,-1113 2439.57,-1125 2427.57,-1137"/>
<text text-anchor="middle" x="2315.57" y="-1121.3" font-family="Times,serif" font-size="14.00">L4_spec_pc absolute flux calibrations 1..1</text>
</g>
<!-- l4_spec_pc_afcal&#45;&gt;trans_spec_pc_l4_tda -->
<g id="edge44" class="edge">
<title>l4_spec_pc_afcal&#45;&gt;trans_spec_pc_l4_tda</title>
<path fill="none" stroke="black" d="M2412.52,-1106.85C2412.52,-1093.26 2412.52,-1077 2412.52,-1077 2412.52,-1077 2522.99,-1077 2522.99,-1077"/>
<polygon fill="black" stroke="black" points="2522.99,-1080.5 2532.99,-1077 2522.99,-1073.5 2522.99,-1080.5"/>
</g>
<!-- l4_spec_pc_ndfilt -->
<g id="node42" class="node">
<title>l4_spec_pc_ndfilt</title>
<polygon fill="none" stroke="black" points="2383.57,-1083 2235.57,-1083 2235.57,-1059 2383.57,-1059 2395.57,-1071 2383.57,-1083"/>
<text text-anchor="middle" x="2315.57" y="-1067.3" font-family="Times,serif" font-size="14.00">L4_spec_pc ND filter 1..1</text>
</g>
<!-- l4_spec_pc_ndfilt&#45;&gt;trans_spec_pc_l4_tda -->
<g id="edge45" class="edge">
<title>l4_spec_pc_ndfilt&#45;&gt;trans_spec_pc_l4_tda</title>
<path fill="none" stroke="black" d="M2395.93,-1065C2395.93,-1065 2506.49,-1065 2506.49,-1065"/>
<polygon fill="black" stroke="black" points="2506.49,-1068.5 2516.49,-1065 2506.49,-1061.5 2506.49,-1068.5"/>
</g>
<!-- l4_spec_pc_stmap -->
<g id="node43" class="node">
<title>l4_spec_pc_stmap</title>
<polygon fill="none" stroke="black" points="2417.07,-1029 2202.07,-1029 2202.07,-1005 2417.07,-1005 2429.07,-1017 2417.07,-1029"/>
<text text-anchor="middle" x="2315.57" y="-1013.3" font-family="Times,serif" font-size="14.00">L4_spec_pc slit transmission map 1..1</text>
</g>
<!-- l4_spec_pc_stmap&#45;&gt;trans_spec_pc_l4_tda -->
<g id="edge46" class="edge">
<title>l4_spec_pc_stmap&#45;&gt;trans_spec_pc_l4_tda</title>
<path fill="none" stroke="black" d="M2429.29,-1017C2429.29,-1017 2477.06,-1017 2477.06,-1017"/>
<polygon fill="black" stroke="black" points="2477.06,-1020.5 2487.06,-1017 2477.06,-1013.5 2477.06,-1020.5"/>
</g>
<!-- l4_spec_pc_tspi -->
<g id="node44" class="node">
<title>l4_spec_pc_tspi</title>
<polygon fill="none" stroke="black" points="2422.07,-975 2197.07,-975 2197.07,-951 2422.07,-951 2434.07,-963 2422.07,-975"/>
<text text-anchor="middle" x="2315.57" y="-959.3" font-family="Times,serif" font-size="14.00">L4_spec_pc target star prism image 1..1</text>
</g>
<!-- l4_spec_pc_tspi&#45;&gt;trans_spec_pc_l4_tda -->
<g id="edge47" class="edge">
<title>l4_spec_pc_tspi&#45;&gt;trans_spec_pc_l4_tda</title>
<path fill="none" stroke="black" d="M2434.37,-963C2434.37,-963 2477.02,-963 2477.02,-963"/>
<polygon fill="black" stroke="black" points="2477.02,-966.5 2487.02,-963 2477.02,-959.5 2477.02,-966.5"/>
</g>
<!-- l4_spec_pc_rspi -->
<g id="node45" class="node">
<title>l4_spec_pc_rspi</title>
<polygon fill="none" stroke="black" points="2432.07,-921 2187.07,-921 2187.07,-897 2432.07,-897 2444.07,-909 2432.07,-921"/>
<text text-anchor="middle" x="2315.57" y="-905.3" font-family="Times,serif" font-size="14.00">L4_spec_pc reference star prism image 1..1</text>
</g>
<!-- l4_spec_pc_rspi&#45;&gt;trans_spec_pc_l4_tda -->
<g id="edge48" class="edge">
<title>l4_spec_pc_rspi&#45;&gt;trans_spec_pc_l4_tda</title>
<path fill="none" stroke="black" d="M2444.19,-909C2444.19,-909 2513.92,-909 2513.92,-909"/>
<polygon fill="black" stroke="black" points="2513.92,-912.5 2523.92,-909 2513.92,-905.5 2513.92,-912.5"/>
</g>
<!-- l4_spec_pc_lsf -->
<g id="node46" class="node">
<title>l4_spec_pc_lsf</title>
<polygon fill="none" stroke="black" points="2412.57,-867 2206.57,-867 2206.57,-843 2412.57,-843 2424.57,-855 2412.57,-867"/>
<text text-anchor="middle" x="2315.57" y="-851.3" font-family="Times,serif" font-size="14.00">L4_spec_pc line spread function 1..1</text>
</g>
<!-- l4_spec_pc_lsf&#45;&gt;trans_spec_pc_l4_tda -->
<g id="edge49" class="edge">
<title>l4_spec_pc_lsf&#45;&gt;trans_spec_pc_l4_tda</title>
<path fill="none" stroke="black" d="M2424.72,-855C2479.57,-855 2534.52,-855 2534.52,-855 2534.52,-855 2534.52,-891.84 2534.52,-891.84"/>
<polygon fill="black" stroke="black" points="2531.02,-891.84 2534.52,-901.84 2538.02,-891.84 2531.02,-891.84"/>
</g>
<!-- tda_spec_pc_man -->
<g id="node47" class="node">
<title>tda_spec_pc_man</title>
<ellipse fill="none" stroke="black" cx="139.74" cy="-288" rx="139.98" ry="18"/>
<text text-anchor="middle" x="139.74" y="-284.3" font-family="Times,serif" font-size="14.00">TDA_spec_pc product manifest 1..1</text>
</g>
</g>
</svg>
