<?xml version="1.0" encoding="UTF-8" standalone="no"?>
<!DOCTYPE svg PUBLIC "-//W3C//DTD SVG 1.1//EN"
 "http://www.w3.org/Graphics/SVG/1.1/DTD/svg11.dtd">
<!-- Generated by graphviz version 2.43.0 (0)
 -->
<!-- Title: SpectroscopyAnalog Pages: 1 -->
<svg width="2896pt" height="1259pt"
 viewBox="0.00 0.00 2896.03 1259.00" xmlns="http://www.w3.org/2000/svg" xmlns:xlink="http://www.w3.org/1999/xlink">
<g id="graph0" class="graph" transform="scale(1 1) rotate(0) translate(4 1255)">
<title>SpectroscopyAnalog</title>
<polygon fill="white" stroke="transparent" points="-4,4 -4,-1255 2892.03,-1255 2892.03,4 -4,4"/>
<!-- trans_spec_a_l1_l2a -->
<g id="node1" class="node">
<title>trans_spec_a_l1_l2a</title>
<ellipse fill="none" stroke="black" cx="403.84" cy="-126" rx="96.33" ry="96.33"/>
<text text-anchor="middle" x="403.84" y="-129.8" font-family="Times,serif" font-size="14.00">spec_a Transmutation</text>
<text text-anchor="middle" x="403.84" y="-114.8" font-family="Times,serif" font-size="14.00">L1 to L2a</text>
</g>
<!-- l2a_spec_a_prod -->
<g id="node11" class="node">
<title>l2a_spec_a_prod</title>
<polygon fill="none" stroke="black" points="745.3,-225 589.3,-225 589.3,-189 745.3,-189 745.3,-225"/>
<text text-anchor="middle" x="667.3" y="-203.3" font-family="Times,serif" font-size="14.00">L2a_spec_a products 1..b</text>
</g>
<!-- trans_spec_a_l1_l2a&#45;&gt;l2a_spec_a_prod -->
<g id="edge6" class="edge">
<title>trans_spec_a_l1_l2a&#45;&gt;l2a_spec_a_prod</title>
<path fill="none" stroke="black" stroke-dasharray="5,2" d="M458.11,-205.58C458.11,-205.58 579.11,-205.58 579.11,-205.58"/>
<polygon fill="black" stroke="black" points="579.12,-209.08 589.11,-205.58 579.11,-202.08 579.12,-209.08"/>
</g>
<!-- l2a_spec_a_man -->
<g id="node12" class="node">
<title>l2a_spec_a_man</title>
<ellipse fill="none" stroke="black" cx="667.3" cy="-153" rx="131.08" ry="18"/>
<text text-anchor="middle" x="667.3" y="-149.3" font-family="Times,serif" font-size="14.00">L2a_spec_a product manifest 1..1</text>
</g>
<!-- trans_spec_a_l1_l2a&#45;&gt;l2a_spec_a_man -->
<g id="edge7" class="edge">
<title>trans_spec_a_l1_l2a&#45;&gt;l2a_spec_a_man</title>
<path fill="none" stroke="black" d="M496.36,-153C496.36,-153 525.69,-153 525.69,-153"/>
<polygon fill="black" stroke="black" points="525.69,-156.5 535.69,-153 525.69,-149.5 525.69,-156.5"/>
</g>
<!-- l2a_spec_a_log -->
<g id="node20" class="node">
<title>l2a_spec_a_log</title>
<ellipse fill="none" stroke="black" cx="667.3" cy="-99" rx="82.59" ry="18"/>
<text text-anchor="middle" x="667.3" y="-95.3" font-family="Times,serif" font-size="14.00">L2a log_spec_a 1..1</text>
</g>
<!-- trans_spec_a_l1_l2a&#45;&gt;l2a_spec_a_log -->
<g id="edge8" class="edge">
<title>trans_spec_a_l1_l2a&#45;&gt;l2a_spec_a_log</title>
<path fill="none" stroke="black" stroke-dasharray="5,2" d="M496.36,-99C496.36,-99 574.67,-99 574.67,-99"/>
<polygon fill="black" stroke="black" points="574.67,-102.5 584.67,-99 574.67,-95.5 574.67,-102.5"/>
</g>
<!-- l2a_spec_a_src -->
<g id="node50" class="node">
<title>l2a_spec_a_src</title>
<ellipse fill="none" stroke="black" cx="667.3" cy="-45" rx="127.28" ry="18"/>
<text text-anchor="middle" x="667.3" y="-41.3" font-family="Times,serif" font-size="14.00">L2a_spec_a source manifest 1..1</text>
</g>
<!-- trans_spec_a_l1_l2a&#45;&gt;l2a_spec_a_src -->
<g id="edge52" class="edge">
<title>trans_spec_a_l1_l2a&#45;&gt;l2a_spec_a_src</title>
<path fill="none" stroke="black" d="M458.11,-46.42C458.11,-46.42 530.26,-46.42 530.26,-46.42"/>
<polygon fill="black" stroke="black" points="530.26,-49.92 540.26,-46.42 530.26,-42.92 530.26,-49.92"/>
</g>
<!-- trans_spec_a_l2a_l2b -->
<g id="node2" class="node">
<title>trans_spec_a_l2a_l2b</title>
<ellipse fill="none" stroke="black" cx="930.75" cy="-369" rx="96.33" ry="96.33"/>
<text text-anchor="middle" x="930.75" y="-372.8" font-family="Times,serif" font-size="14.00">spec_a Transmutation</text>
<text text-anchor="middle" x="930.75" y="-357.8" font-family="Times,serif" font-size="14.00">L2a to L2b</text>
</g>
<!-- l2b_spec_a_prod -->
<g id="node21" class="node">
<title>l2b_spec_a_prod</title>
<polygon fill="none" stroke="black" points="1273.36,-468 1116.36,-468 1116.36,-432 1273.36,-432 1273.36,-468"/>
<text text-anchor="middle" x="1194.86" y="-446.3" font-family="Times,serif" font-size="14.00">L2b_spec_a products 1..1</text>
</g>
<!-- trans_spec_a_l2a_l2b&#45;&gt;l2b_spec_a_prod -->
<g id="edge17" class="edge">
<title>trans_spec_a_l2a_l2b&#45;&gt;l2b_spec_a_prod</title>
<path fill="none" stroke="black" stroke-dasharray="5,2" d="M984.84,-448.58C984.84,-448.58 1106.3,-448.58 1106.3,-448.58"/>
<polygon fill="black" stroke="black" points="1106.3,-452.08 1116.3,-448.58 1106.3,-445.08 1106.3,-452.08"/>
</g>
<!-- l2b_spec_a_man -->
<g id="node22" class="node">
<title>l2b_spec_a_man</title>
<ellipse fill="none" stroke="black" cx="1194.86" cy="-396" rx="131.88" ry="18"/>
<text text-anchor="middle" x="1194.86" y="-392.3" font-family="Times,serif" font-size="14.00">L2b_spec_a product manifest 1..1</text>
</g>
<!-- trans_spec_a_l2a_l2b&#45;&gt;l2b_spec_a_man -->
<g id="edge18" class="edge">
<title>trans_spec_a_l2a_l2b&#45;&gt;l2b_spec_a_man</title>
<path fill="none" stroke="black" d="M1023.12,-396C1023.12,-396 1052.6,-396 1052.6,-396"/>
<polygon fill="black" stroke="black" points="1052.6,-399.5 1062.6,-396 1052.6,-392.5 1052.6,-399.5"/>
</g>
<!-- l2b_spec_a_log -->
<g id="node28" class="node">
<title>l2b_spec_a_log</title>
<ellipse fill="none" stroke="black" cx="1194.86" cy="-342" rx="83.39" ry="18"/>
<text text-anchor="middle" x="1194.86" y="-338.3" font-family="Times,serif" font-size="14.00">L2b_spec_a log 1..1</text>
</g>
<!-- trans_spec_a_l2a_l2b&#45;&gt;l2b_spec_a_log -->
<g id="edge19" class="edge">
<title>trans_spec_a_l2a_l2b&#45;&gt;l2b_spec_a_log</title>
<path fill="none" stroke="black" stroke-dasharray="5,2" d="M1023.12,-342C1023.12,-342 1101.37,-342 1101.37,-342"/>
<polygon fill="black" stroke="black" points="1101.37,-345.5 1111.37,-342 1101.37,-338.5 1101.37,-345.5"/>
</g>
<!-- l2b_spec_a_src -->
<g id="node51" class="node">
<title>l2b_spec_a_src</title>
<ellipse fill="none" stroke="black" cx="1194.86" cy="-288" rx="128.08" ry="18"/>
<text text-anchor="middle" x="1194.86" y="-284.3" font-family="Times,serif" font-size="14.00">L2b_spec_a source manifest 1..1</text>
</g>
<!-- trans_spec_a_l2a_l2b&#45;&gt;l2b_spec_a_src -->
<g id="edge53" class="edge">
<title>trans_spec_a_l2a_l2b&#45;&gt;l2b_spec_a_src</title>
<path fill="none" stroke="black" d="M984.84,-289.42C984.84,-289.42 1056.96,-289.42 1056.96,-289.42"/>
<polygon fill="black" stroke="black" points="1056.96,-292.92 1066.96,-289.42 1056.96,-285.92 1056.96,-292.92"/>
</g>
<!-- trans_spec_a_l2b_l3 -->
<g id="node3" class="node">
<title>trans_spec_a_l2b_l3</title>
<ellipse fill="none" stroke="black" cx="1458.96" cy="-558" rx="96.33" ry="96.33"/>
<text text-anchor="middle" x="1458.96" y="-561.8" font-family="Times,serif" font-size="14.00">spec_a Transmutation</text>
<text text-anchor="middle" x="1458.96" y="-546.8" font-family="Times,serif" font-size="14.00">L2b to L3</text>
</g>
<!-- l3_spec_a_prod -->
<g id="node29" class="node">
<title>l3_spec_a_prod</title>
<polygon fill="none" stroke="black" points="1793.52,-657 1643.52,-657 1643.52,-621 1793.52,-621 1793.52,-657"/>
<text text-anchor="middle" x="1718.52" y="-635.3" font-family="Times,serif" font-size="14.00">L3_spec_a products 1..1</text>
</g>
<!-- trans_spec_a_l2b_l3&#45;&gt;l3_spec_a_prod -->
<g id="edge28" class="edge">
<title>trans_spec_a_l2b_l3&#45;&gt;l3_spec_a_prod</title>
<path fill="none" stroke="black" stroke-dasharray="5,2" d="M1513.06,-637.58C1513.06,-637.58 1633.33,-637.58 1633.33,-637.58"/>
<polygon fill="black" stroke="black" points="1633.33,-641.08 1643.33,-637.58 1633.33,-634.08 1633.33,-641.08"/>
</g>
<!-- l3_spec_a_man -->
<g id="node31" class="node">
<title>l3_spec_a_man</title>
<ellipse fill="none" stroke="black" cx="1718.52" cy="-585" rx="127.28" ry="18"/>
<text text-anchor="middle" x="1718.52" y="-581.3" font-family="Times,serif" font-size="14.00">L3_spec_a product manifest 1..1</text>
</g>
<!-- trans_spec_a_l2b_l3&#45;&gt;l3_spec_a_man -->
<g id="edge29" class="edge">
<title>trans_spec_a_l2b_l3&#45;&gt;l3_spec_a_man</title>
<path fill="none" stroke="black" d="M1551.57,-585C1551.57,-585 1581.03,-585 1581.03,-585"/>
<polygon fill="black" stroke="black" points="1581.03,-588.5 1591.03,-585 1581.03,-581.5 1581.03,-588.5"/>
</g>
<!-- l3_spec_a_log -->
<g id="node35" class="node">
<title>l3_spec_a_log</title>
<ellipse fill="none" stroke="black" cx="1718.52" cy="-531" rx="78.79" ry="18"/>
<text text-anchor="middle" x="1718.52" y="-527.3" font-family="Times,serif" font-size="14.00">L3_spec_a log 1..1</text>
</g>
<!-- trans_spec_a_l2b_l3&#45;&gt;l3_spec_a_log -->
<g id="edge30" class="edge">
<title>trans_spec_a_l2b_l3&#45;&gt;l3_spec_a_log</title>
<path fill="none" stroke="black" stroke-dasharray="5,2" d="M1551.57,-531C1551.57,-531 1629.69,-531 1629.69,-531"/>
<polygon fill="black" stroke="black" points="1629.69,-534.5 1639.69,-531 1629.69,-527.5 1629.69,-534.5"/>
</g>
<!-- l3_spec_a_src -->
<g id="node52" class="node">
<title>l3_spec_a_src</title>
<ellipse fill="none" stroke="black" cx="1718.52" cy="-477" rx="123.48" ry="18"/>
<text text-anchor="middle" x="1718.52" y="-473.3" font-family="Times,serif" font-size="14.00">L3_spec_a source manifest 1..1</text>
</g>
<!-- trans_spec_a_l2b_l3&#45;&gt;l3_spec_a_src -->
<g id="edge54" class="edge">
<title>trans_spec_a_l2b_l3&#45;&gt;l3_spec_a_src</title>
<path fill="none" stroke="black" d="M1513.06,-478.42C1513.06,-478.42 1585.22,-478.42 1585.22,-478.42"/>
<polygon fill="black" stroke="black" points="1585.22,-481.92 1595.22,-478.42 1585.22,-474.92 1585.22,-481.92"/>
</g>
<!-- trans_spec_a_l3_l4 -->
<g id="node4" class="node">
<title>trans_spec_a_l3_l4</title>
<ellipse fill="none" stroke="black" cx="1978.07" cy="-720" rx="96.33" ry="96.33"/>
<text text-anchor="middle" x="1978.07" y="-723.8" font-family="Times,serif" font-size="14.00">spec_a Transmutation</text>
<text text-anchor="middle" x="1978.07" y="-708.8" font-family="Times,serif" font-size="14.00">L3 to L4</text>
</g>
<!-- l4_spec_a_prod -->
<g id="node36" class="node">
<title>l4_spec_a_prod</title>
<polygon fill="none" stroke="black" points="2312.63,-819 2162.63,-819 2162.63,-783 2312.63,-783 2312.63,-819"/>
<text text-anchor="middle" x="2237.63" y="-797.3" font-family="Times,serif" font-size="14.00">L4_spec_a products 1..1</text>
</g>
<!-- trans_spec_a_l3_l4&#45;&gt;l4_spec_a_prod -->
<g id="edge37" class="edge">
<title>trans_spec_a_l3_l4&#45;&gt;l4_spec_a_prod</title>
<path fill="none" stroke="black" stroke-dasharray="5,2" d="M2032.17,-799.58C2032.17,-799.58 2152.44,-799.58 2152.44,-799.58"/>
<polygon fill="black" stroke="black" points="2152.44,-803.08 2162.44,-799.58 2152.44,-796.08 2152.44,-803.08"/>
</g>
<!-- l4_spec_a_log -->
<g id="node38" class="node">
<title>l4_spec_a_log</title>
<ellipse fill="none" stroke="black" cx="2237.63" cy="-747" rx="78.79" ry="18"/>
<text text-anchor="middle" x="2237.63" y="-743.3" font-family="Times,serif" font-size="14.00">L4_spec_a log 1..1</text>
</g>
<!-- trans_spec_a_l3_l4&#45;&gt;l4_spec_a_log -->
<g id="edge38" class="edge">
<title>trans_spec_a_l3_l4&#45;&gt;l4_spec_a_log</title>
<path fill="none" stroke="black" stroke-dasharray="5,2" d="M2070.68,-747C2070.68,-747 2148.8,-747 2148.8,-747"/>
<polygon fill="black" stroke="black" points="2148.8,-750.5 2158.8,-747 2148.8,-743.5 2148.8,-750.5"/>
</g>
<!-- l4_spec_a_man -->
<g id="node39" class="node">
<title>l4_spec_a_man</title>
<ellipse fill="none" stroke="black" cx="2237.63" cy="-693" rx="127.28" ry="18"/>
<text text-anchor="middle" x="2237.63" y="-689.3" font-family="Times,serif" font-size="14.00">L4_spec_a product manifest 1..1</text>
</g>
<!-- trans_spec_a_l3_l4&#45;&gt;l4_spec_a_man -->
<g id="edge39" class="edge">
<title>trans_spec_a_l3_l4&#45;&gt;l4_spec_a_man</title>
<path fill="none" stroke="black" d="M2070.68,-693C2070.68,-693 2100.14,-693 2100.14,-693"/>
<polygon fill="black" stroke="black" points="2100.14,-696.5 2110.14,-693 2100.14,-689.5 2100.14,-696.5"/>
</g>
<!-- l4_spec_a_src -->
<g id="node53" class="node">
<title>l4_spec_a_src</title>
<ellipse fill="none" stroke="black" cx="2237.63" cy="-639" rx="120.78" ry="18"/>
<text text-anchor="middle" x="2237.63" y="-635.3" font-family="Times,serif" font-size="14.00">L4_spec_a sourcemanifest 1..1</text>
</g>
<!-- trans_spec_a_l3_l4&#45;&gt;l4_spec_a_src -->
<g id="edge55" class="edge">
<title>trans_spec_a_l3_l4&#45;&gt;l4_spec_a_src</title>
<path fill="none" stroke="black" d="M2032.17,-640.42C2032.17,-640.42 2107.01,-640.42 2107.01,-640.42"/>
<polygon fill="black" stroke="black" points="2107.01,-643.92 2117.01,-640.42 2107.01,-636.92 2107.01,-643.92"/>
</g>
<!-- trans_spec_a_l4_tda -->
<g id="node5" class="node">
<title>trans_spec_a_l4_tda</title>
<ellipse fill="none" stroke="black" cx="2497.18" cy="-990" rx="96.33" ry="96.33"/>
<text text-anchor="middle" x="2497.18" y="-993.8" font-family="Times,serif" font-size="14.00">spec_a Transmutation</text>
<text text-anchor="middle" x="2497.18" y="-978.8" font-family="Times,serif" font-size="14.00">L4 to TDA</text>
</g>
<!-- tda_spec_a_prod -->
<g id="node48" class="node">
<title>tda_spec_a_prod</title>
<ellipse fill="none" stroke="black" cx="2758.69" cy="-1044" rx="70.39" ry="18"/>
<text text-anchor="middle" x="2758.69" y="-1040.3" font-family="Times,serif" font-size="14.00">tda_spec_a_prod</text>
</g>
<!-- trans_spec_a_l4_tda&#45;&gt;tda_spec_a_prod -->
<g id="edge50" class="edge">
<title>trans_spec_a_l4_tda&#45;&gt;tda_spec_a_prod</title>
<path fill="none" stroke="black" stroke-dasharray="5,2" d="M2577.06,-1044C2577.06,-1044 2678.16,-1044 2678.16,-1044"/>
<polygon fill="black" stroke="black" points="2678.16,-1047.5 2688.16,-1044 2678.16,-1040.5 2678.16,-1047.5"/>
</g>
<!-- tda_spec_a_log -->
<g id="node49" class="node">
<title>tda_spec_a_log</title>
<ellipse fill="none" stroke="black" cx="2758.69" cy="-990" rx="65.79" ry="18"/>
<text text-anchor="middle" x="2758.69" y="-986.3" font-family="Times,serif" font-size="14.00">tda_spec_a_log</text>
</g>
<!-- trans_spec_a_l4_tda&#45;&gt;tda_spec_a_log -->
<g id="edge51" class="edge">
<title>trans_spec_a_l4_tda&#45;&gt;tda_spec_a_log</title>
<path fill="none" stroke="black" stroke-dasharray="5,2" d="M2593.44,-990C2593.44,-990 2682.82,-990 2682.82,-990"/>
<polygon fill="black" stroke="black" points="2682.82,-993.5 2692.82,-990 2682.82,-986.5 2682.82,-993.5"/>
</g>
<!-- tda_spec_a_src -->
<g id="node54" class="node">
<title>tda_spec_a_src</title>
<ellipse fill="none" stroke="black" cx="2758.69" cy="-936" rx="129.18" ry="18"/>
<text text-anchor="middle" x="2758.69" y="-932.3" font-family="Times,serif" font-size="14.00">TDA_spec_a sourcemanifest 1..1</text>
</g>
<!-- trans_spec_a_l4_tda&#45;&gt;tda_spec_a_src -->
<g id="edge56" class="edge">
<title>trans_spec_a_l4_tda&#45;&gt;tda_spec_a_src</title>
<path fill="none" stroke="black" d="M2577.06,-936C2577.06,-936 2619.17,-936 2619.17,-936"/>
<polygon fill="black" stroke="black" points="2619.17,-939.5 2629.17,-936 2619.17,-932.5 2619.17,-939.5"/>
</g>
<!-- l1_spec_a_prod -->
<g id="node6" class="node">
<title>l1_spec_a_prod</title>
<polygon fill="none" stroke="black" points="210.84,-252 60.84,-252 60.84,-216 210.84,-216 210.84,-252"/>
<text text-anchor="middle" x="135.84" y="-230.3" font-family="Times,serif" font-size="14.00">L1_spec_a products 1..b</text>
</g>
<!-- l1_spec_a_prod&#45;&gt;trans_spec_a_l1_l2a -->
<g id="edge1" class="edge">
<title>l1_spec_a_prod&#45;&gt;trans_spec_a_l1_l2a</title>
<path fill="none" stroke="black" stroke-dasharray="5,2" d="M136.03,-215.84C136.03,-210.96 136.03,-207 136.03,-207 136.03,-207 341.89,-207 341.89,-207"/>
<polygon fill="black" stroke="black" points="341.89,-210.5 351.89,-207 341.89,-203.5 341.89,-210.5"/>
</g>
<!-- l1_spec_a_man -->
<g id="node7" class="node">
<title>l1_spec_a_man</title>
<ellipse fill="none" stroke="black" cx="135.84" cy="-180" rx="127.28" ry="18"/>
<text text-anchor="middle" x="135.84" y="-176.3" font-family="Times,serif" font-size="14.00">L1_spec_a product manifest 1..1</text>
</g>
<!-- l1_spec_a_man&#45;&gt;trans_spec_a_l1_l2a -->
<g id="edge2" class="edge">
<title>l1_spec_a_man&#45;&gt;trans_spec_a_l1_l2a</title>
<path fill="none" stroke="black" d="M263.56,-180C263.56,-180 314.08,-180 314.08,-180"/>
<polygon fill="black" stroke="black" points="314.08,-183.5 324.08,-180 314.08,-176.5 314.08,-183.5"/>
</g>
<!-- l1_spec_a_odir -->
<g id="node8" class="node">
<title>l1_spec_a_odir</title>
<ellipse fill="none" stroke="black" cx="135.84" cy="-126" rx="107.48" ry="18"/>
<text text-anchor="middle" x="135.84" y="-122.3" font-family="Times,serif" font-size="14.00">L1_spec_a output path 1..1</text>
</g>
<!-- l1_spec_a_odir&#45;&gt;trans_spec_a_l1_l2a -->
<g id="edge3" class="edge">
<title>l1_spec_a_odir&#45;&gt;trans_spec_a_l1_l2a</title>
<path fill="none" stroke="black" d="M243.3,-126C243.3,-126 297.61,-126 297.61,-126"/>
<polygon fill="black" stroke="black" points="297.61,-129.5 307.61,-126 297.61,-122.5 297.61,-129.5"/>
</g>
<!-- l1_spec_a_rec -->
<g id="node9" class="node">
<title>l1_spec_a_rec</title>
<polygon fill="none" stroke="black" points="192.34,-84 67.34,-84 67.34,-60 192.34,-60 204.34,-72 192.34,-84"/>
<text text-anchor="middle" x="135.84" y="-68.3" font-family="Times,serif" font-size="14.00">L1_spec_a recipe 1..1</text>
</g>
<!-- l1_spec_a_rec&#45;&gt;trans_spec_a_l1_l2a -->
<g id="edge4" class="edge">
<title>l1_spec_a_rec&#45;&gt;trans_spec_a_l1_l2a</title>
<path fill="none" stroke="black" d="M204.51,-72C204.51,-72 313.94,-72 313.94,-72"/>
<polygon fill="black" stroke="black" points="313.94,-75.5 323.94,-72 313.94,-68.5 313.94,-75.5"/>
</g>
<!-- l1_spec_a_nllut -->
<g id="node10" class="node">
<title>l1_spec_a_nllut</title>
<polygon fill="none" stroke="black" points="217.84,-30 41.84,-30 41.84,-6 217.84,-6 229.84,-18 217.84,-30"/>
<text text-anchor="middle" x="135.84" y="-14.3" font-family="Times,serif" font-size="14.00">L1_spec_a non&#45;linear LUT 1..1</text>
</g>
<!-- l1_spec_a_nllut&#45;&gt;trans_spec_a_l1_l2a -->
<g id="edge5" class="edge">
<title>l1_spec_a_nllut&#45;&gt;trans_spec_a_l1_l2a</title>
<path fill="none" stroke="black" d="M218.03,-36.16C218.03,-41.04 218.03,-45 218.03,-45 218.03,-45 341.59,-45 341.59,-45"/>
<polygon fill="black" stroke="black" points="341.59,-48.5 351.59,-45 341.59,-41.5 341.59,-48.5"/>
</g>
<!-- l2a_spec_a_prod&#45;&gt;trans_spec_a_l2a_l2b -->
<g id="edge9" class="edge">
<title>l2a_spec_a_prod&#45;&gt;trans_spec_a_l2a_l2b</title>
<path fill="none" stroke="black" stroke-dasharray="5,2" d="M745.35,-207C823.12,-207 931.03,-207 931.03,-207 931.03,-207 931.03,-262.42 931.03,-262.42"/>
<polygon fill="black" stroke="black" points="927.53,-262.42 931.03,-272.42 934.53,-262.42 927.53,-262.42"/>
</g>
<!-- l2a_spec_a_man&#45;&gt;trans_spec_a_l2a_l2b -->
<g id="edge20" class="edge">
<title>l2a_spec_a_man&#45;&gt;trans_spec_a_l2a_l2b</title>
<path fill="none" stroke="black" d="M793.03,-158.34C793.03,-183.03 793.03,-285 793.03,-285 793.03,-285 873.74,-285 873.74,-285"/>
<polygon fill="black" stroke="black" points="873.74,-288.5 883.74,-285 873.74,-281.5 873.74,-288.5"/>
</g>
<!-- l2a_spec_a_odir -->
<g id="node13" class="node">
<title>l2a_spec_a_odir</title>
<ellipse fill="none" stroke="black" cx="667.3" cy="-587" rx="111.28" ry="18"/>
<text text-anchor="middle" x="667.3" y="-583.3" font-family="Times,serif" font-size="14.00">L2a_spec_a output path 1..1</text>
</g>
<!-- l2a_spec_a_odir&#45;&gt;trans_spec_a_l2a_l2b -->
<g id="edge10" class="edge">
<title>l2a_spec_a_odir&#45;&gt;trans_spec_a_l2a_l2b</title>
<path fill="none" stroke="black" d="M733.3,-572.5C820.45,-572.5 963.03,-572.5 963.03,-572.5 963.03,-572.5 963.03,-469.74 963.03,-469.74"/>
<polygon fill="black" stroke="black" points="966.53,-469.74 963.03,-459.74 959.53,-469.74 966.53,-469.74"/>
</g>
<!-- l2a_spec_a_rec -->
<g id="node14" class="node">
<title>l2a_spec_a_rec</title>
<polygon fill="none" stroke="black" points="726.8,-545 595.8,-545 595.8,-521 726.8,-521 738.8,-533 726.8,-545"/>
<text text-anchor="middle" x="667.3" y="-529.3" font-family="Times,serif" font-size="14.00">L2a_spec_a recipe 1..1</text>
</g>
<!-- l2a_spec_a_rec&#45;&gt;trans_spec_a_l2a_l2b -->
<g id="edge11" class="edge">
<title>l2a_spec_a_rec&#45;&gt;trans_spec_a_l2a_l2b</title>
<path fill="none" stroke="black" d="M739.03,-518.5C807.09,-518.5 899.03,-518.5 899.03,-518.5 899.03,-518.5 899.03,-469.84 899.03,-469.84"/>
<polygon fill="black" stroke="black" points="902.53,-469.84 899.03,-459.84 895.53,-469.84 902.53,-469.84"/>
</g>
<!-- l2a_spec_a_cti -->
<g id="node15" class="node">
<title>l2a_spec_a_cti</title>
<polygon fill="none" stroke="black" points="774.8,-491 547.8,-491 547.8,-467 774.8,-467 786.8,-479 774.8,-491"/>
<text text-anchor="middle" x="667.3" y="-475.3" font-family="Times,serif" font-size="14.00">L2a_spec_a charge xfer inefficiency 1..1</text>
</g>
<!-- l2a_spec_a_cti&#45;&gt;trans_spec_a_l2a_l2b -->
<g id="edge12" class="edge">
<title>l2a_spec_a_cti&#45;&gt;trans_spec_a_l2a_l2b</title>
<path fill="none" stroke="black" d="M778.03,-460.84C778.03,-455.96 778.03,-452 778.03,-452 778.03,-452 872.01,-452 872.01,-452"/>
<polygon fill="black" stroke="black" points="872.01,-455.5 882.01,-452 872.01,-448.5 872.01,-455.5"/>
</g>
<!-- l2a_spec_a_dnb -->
<g id="node16" class="node">
<title>l2a_spec_a_dnb</title>
<polygon fill="none" stroke="black" points="761.3,-437 561.3,-437 561.3,-411 761.3,-411 773.3,-424 761.3,-437"/>
<text text-anchor="middle" x="667.3" y="-427.8" font-family="Times,serif" font-size="14.00">L2a_spec_a CIC/Dark Current/FPN</text>
<text text-anchor="middle" x="667.3" y="-412.8" font-family="Times,serif" font-size="14.00"> or master dark 1..1</text>
</g>
<!-- l2a_spec_a_dnb&#45;&gt;trans_spec_a_l2a_l2b -->
<g id="edge13" class="edge">
<title>l2a_spec_a_dnb&#45;&gt;trans_spec_a_l2a_l2b</title>
<path fill="none" stroke="black" d="M773.32,-424C773.32,-424 841.69,-424 841.69,-424"/>
<polygon fill="black" stroke="black" points="841.69,-427.5 851.69,-424 841.69,-420.5 841.69,-427.5"/>
</g>
<!-- l2a_spec_a_mbpm -->
<g id="node17" class="node">
<title>l2a_spec_a_mbpm</title>
<polygon fill="none" stroke="black" points="769.3,-381 553.3,-381 553.3,-357 769.3,-357 781.3,-369 769.3,-381"/>
<text text-anchor="middle" x="667.3" y="-365.3" font-family="Times,serif" font-size="14.00">L2a_spec_a master bad pixel map 1..1</text>
</g>
<!-- l2a_spec_a_mbpm&#45;&gt;trans_spec_a_l2a_l2b -->
<g id="edge14" class="edge">
<title>l2a_spec_a_mbpm&#45;&gt;trans_spec_a_l2a_l2b</title>
<path fill="none" stroke="black" d="M781.32,-369C781.32,-369 824.3,-369 824.3,-369"/>
<polygon fill="black" stroke="black" points="824.3,-372.5 834.3,-369 824.3,-365.5 824.3,-372.5"/>
</g>
<!-- l2a_spec_a_kgain -->
<g id="node18" class="node">
<title>l2a_spec_a_kgain</title>
<polygon fill="none" stroke="black" points="726.8,-327 595.8,-327 595.8,-303 726.8,-303 738.8,-315 726.8,-327"/>
<text text-anchor="middle" x="667.3" y="-311.3" font-family="Times,serif" font-size="14.00">L2a_spec_a Kgain 1..1</text>
</g>
<!-- l2a_spec_a_kgain&#45;&gt;trans_spec_a_l2a_l2b -->
<g id="edge16" class="edge">
<title>l2a_spec_a_kgain&#45;&gt;trans_spec_a_l2a_l2b</title>
<path fill="none" stroke="black" d="M738.94,-315C738.94,-315 840.77,-315 840.77,-315"/>
<polygon fill="black" stroke="black" points="840.77,-318.5 850.77,-315 840.77,-311.5 840.77,-318.5"/>
</g>
<!-- l2a_spec_a_emg -->
<g id="node19" class="node">
<title>l2a_spec_a_emg</title>
<polygon fill="none" stroke="black" points="734.3,-273 588.3,-273 588.3,-249 734.3,-249 746.3,-261 734.3,-273"/>
<text text-anchor="middle" x="667.3" y="-257.3" font-family="Times,serif" font-size="14.00">L2a_spec_a EM gain 1..1</text>
</g>
<!-- l2a_spec_a_emg&#45;&gt;trans_spec_a_l2a_l2b -->
<g id="edge15" class="edge">
<title>l2a_spec_a_emg&#45;&gt;trans_spec_a_l2a_l2b</title>
<path fill="none" stroke="black" d="M743.03,-279.14C743.03,-285.46 743.03,-291 743.03,-291 743.03,-291 864.43,-291 864.43,-291"/>
<polygon fill="black" stroke="black" points="864.43,-294.5 874.43,-291 864.43,-287.5 864.43,-294.5"/>
</g>
<!-- l2b_spec_a_prod&#45;&gt;trans_spec_a_l2b_l3 -->
<g id="edge21" class="edge">
<title>l2b_spec_a_prod&#45;&gt;trans_spec_a_l2b_l3</title>
<path fill="none" stroke="black" stroke-dasharray="5,2" d="M1195.03,-468.14C1195.03,-474.46 1195.03,-480 1195.03,-480 1195.03,-480 1392.66,-480 1392.66,-480"/>
<polygon fill="black" stroke="black" points="1392.66,-483.5 1402.66,-480 1392.66,-476.5 1392.66,-483.5"/>
</g>
<!-- l2b_spec_a_man&#45;&gt;trans_spec_a_l2b_l3 -->
<g id="edge22" class="edge">
<title>l2b_spec_a_man&#45;&gt;trans_spec_a_l2b_l3</title>
<path fill="none" stroke="black" d="M1313.03,-404.05C1313.03,-423.98 1313.03,-474 1313.03,-474 1313.03,-474 1401.98,-474 1401.98,-474"/>
<polygon fill="black" stroke="black" points="1401.98,-477.5 1411.98,-474 1401.98,-470.5 1401.98,-477.5"/>
</g>
<!-- l2b_spec_a_odir -->
<g id="node23" class="node">
<title>l2b_spec_a_odir</title>
<ellipse fill="none" stroke="black" cx="1194.86" cy="-720" rx="111.58" ry="18"/>
<text text-anchor="middle" x="1194.86" y="-716.3" font-family="Times,serif" font-size="14.00">L2b_spec_a output path 1..1</text>
</g>
<!-- l2b_spec_a_odir&#45;&gt;trans_spec_a_l2b_l3 -->
<g id="edge23" class="edge">
<title>l2b_spec_a_odir&#45;&gt;trans_spec_a_l2b_l3</title>
<path fill="none" stroke="black" d="M1287.03,-709.8C1287.03,-688.66 1287.03,-642 1287.03,-642 1287.03,-642 1401.98,-642 1401.98,-642"/>
<polygon fill="black" stroke="black" points="1401.98,-645.5 1411.98,-642 1401.98,-638.5 1401.98,-645.5"/>
</g>
<!-- l2b_spec_a_rec -->
<g id="node24" class="node">
<title>l2b_spec_a_rec</title>
<polygon fill="none" stroke="black" points="1254.36,-678 1123.36,-678 1123.36,-654 1254.36,-654 1266.36,-666 1254.36,-678"/>
<text text-anchor="middle" x="1194.86" y="-662.3" font-family="Times,serif" font-size="14.00">L2b_spec_a recipe 1..1</text>
</g>
<!-- l2b_spec_a_rec&#45;&gt;trans_spec_a_l2b_l3 -->
<g id="edge24" class="edge">
<title>l2b_spec_a_rec&#45;&gt;trans_spec_a_l2b_l3</title>
<path fill="none" stroke="black" d="M1195.03,-647.86C1195.03,-641.54 1195.03,-636 1195.03,-636 1195.03,-636 1392.66,-636 1392.66,-636"/>
<polygon fill="black" stroke="black" points="1392.66,-639.5 1402.66,-636 1392.66,-632.5 1392.66,-639.5"/>
</g>
<!-- l2b_spec_a_excicrf -->
<g id="node25" class="node">
<title>l2b_spec_a_excicrf</title>
<polygon fill="none" stroke="black" points="1303.36,-624 1074.36,-624 1074.36,-600 1303.36,-600 1315.36,-612 1303.36,-624"/>
<text text-anchor="middle" x="1194.86" y="-608.3" font-family="Times,serif" font-size="14.00">L2b_spec_a EXCAM ICRF location 1..1</text>
</g>
<!-- l2b_spec_a_excicrf&#45;&gt;trans_spec_a_l2b_l3 -->
<g id="edge25" class="edge">
<title>l2b_spec_a_excicrf&#45;&gt;trans_spec_a_l2b_l3</title>
<path fill="none" stroke="black" d="M1315.7,-612C1315.7,-612 1369.37,-612 1369.37,-612"/>
<polygon fill="black" stroke="black" points="1369.37,-615.5 1379.37,-612 1369.37,-608.5 1369.37,-615.5"/>
</g>
<!-- l2b_spec_a_excfovps -->
<g id="node26" class="node">
<title>l2b_spec_a_excfovps</title>
<polygon fill="none" stroke="black" points="1308.36,-570 1069.36,-570 1069.36,-546 1308.36,-546 1320.36,-558 1308.36,-570"/>
<text text-anchor="middle" x="1194.86" y="-554.3" font-family="Times,serif" font-size="14.00">L2b_spec_a EXCAM FOV pixel scale 1..1</text>
</g>
<!-- l2b_spec_a_excfovps&#45;&gt;trans_spec_a_l2b_l3 -->
<g id="edge26" class="edge">
<title>l2b_spec_a_excfovps&#45;&gt;trans_spec_a_l2b_l3</title>
<path fill="none" stroke="black" d="M1320.72,-558C1320.72,-558 1352.61,-558 1352.61,-558"/>
<polygon fill="black" stroke="black" points="1352.61,-561.5 1362.61,-558 1352.61,-554.5 1352.61,-561.5"/>
</g>
<!-- l2b_spec_a_cfamfo -->
<g id="node27" class="node">
<title>l2b_spec_a_cfamfo</title>
<polygon fill="none" stroke="black" points="1292.36,-516 1085.36,-516 1085.36,-492 1292.36,-492 1304.36,-504 1292.36,-516"/>
<text text-anchor="middle" x="1194.86" y="-500.3" font-family="Times,serif" font-size="14.00">L2b_spec_a CFAM filter offsets 1..1</text>
</g>
<!-- l2b_spec_a_cfamfo&#45;&gt;trans_spec_a_l2b_l3 -->
<g id="edge27" class="edge">
<title>l2b_spec_a_cfamfo&#45;&gt;trans_spec_a_l2b_l3</title>
<path fill="none" stroke="black" d="M1304.57,-504C1304.57,-504 1369.38,-504 1369.38,-504"/>
<polygon fill="black" stroke="black" points="1369.38,-507.5 1379.38,-504 1369.38,-500.5 1369.38,-507.5"/>
</g>
<!-- l3_spec_a_prod&#45;&gt;trans_spec_a_l3_l4 -->
<g id="edge31" class="edge">
<title>l3_spec_a_prod&#45;&gt;trans_spec_a_l3_l4</title>
<path fill="none" stroke="black" stroke-dasharray="5,2" d="M1793.59,-645.94C1793.59,-645.94 1906.71,-645.94 1906.71,-645.94"/>
<polygon fill="black" stroke="black" points="1906.71,-649.44 1916.71,-645.94 1906.71,-642.44 1906.71,-649.44"/>
</g>
<!-- l3_spec_a_odir -->
<g id="node30" class="node">
<title>l3_spec_a_odir</title>
<ellipse fill="none" stroke="black" cx="1718.52" cy="-855" rx="107.48" ry="18"/>
<text text-anchor="middle" x="1718.52" y="-851.3" font-family="Times,serif" font-size="14.00">L3_spec_a output path 1..1</text>
</g>
<!-- l3_spec_a_odir&#45;&gt;trans_spec_a_l3_l4 -->
<g id="edge33" class="edge">
<title>l3_spec_a_odir&#45;&gt;trans_spec_a_l3_l4</title>
<path fill="none" stroke="black" d="M1822.03,-850.03C1822.03,-837.42 1822.03,-805.11 1822.03,-805.11 1822.03,-805.11 1922.94,-805.11 1922.94,-805.11"/>
<polygon fill="black" stroke="black" points="1922.94,-808.61 1932.94,-805.11 1922.94,-801.61 1922.94,-808.61"/>
</g>
<!-- l3_spec_a_man&#45;&gt;trans_spec_a_l3_l4 -->
<g id="edge32" class="edge">
<title>l3_spec_a_man&#45;&gt;trans_spec_a_l3_l4</title>
<path fill="none" stroke="black" d="M1836.03,-592.36C1836.03,-606.24 1836.03,-634.89 1836.03,-634.89 1836.03,-634.89 1923.13,-634.89 1923.13,-634.89"/>
<polygon fill="black" stroke="black" points="1923.13,-638.39 1933.13,-634.89 1923.13,-631.39 1923.13,-638.39"/>
</g>
<!-- l3_spec_a_rec -->
<g id="node32" class="node">
<title>l3_spec_a_rec</title>
<polygon fill="none" stroke="black" points="1775.02,-813 1650.02,-813 1650.02,-789 1775.02,-789 1787.02,-801 1775.02,-813"/>
<text text-anchor="middle" x="1718.52" y="-797.3" font-family="Times,serif" font-size="14.00">L3_spec_a recipe 1..1</text>
</g>
<!-- l3_spec_a_rec&#45;&gt;trans_spec_a_l3_l4 -->
<g id="edge34" class="edge">
<title>l3_spec_a_rec&#45;&gt;trans_spec_a_l3_l4</title>
<path fill="none" stroke="black" d="M1787.05,-794.06C1787.05,-794.06 1906.7,-794.06 1906.7,-794.06"/>
<polygon fill="black" stroke="black" points="1906.7,-797.56 1916.7,-794.06 1906.7,-790.56 1906.7,-797.56"/>
</g>
<!-- l3_spec_a_dispm -->
<g id="node33" class="node">
<title>l3_spec_a_dispm</title>
<polygon fill="none" stroke="black" points="1805.02,-759 1620.02,-759 1620.02,-735 1805.02,-735 1817.02,-747 1805.02,-759"/>
<text text-anchor="middle" x="1718.52" y="-743.3" font-family="Times,serif" font-size="14.00">L3_spec_a dispersion model 1..1</text>
</g>
<!-- l3_spec_a_dispm&#45;&gt;trans_spec_a_l3_l4 -->
<g id="edge35" class="edge">
<title>l3_spec_a_dispm&#45;&gt;trans_spec_a_l3_l4</title>
<path fill="none" stroke="black" d="M1817.38,-747C1817.38,-747 1875.46,-747 1875.46,-747"/>
<polygon fill="black" stroke="black" points="1875.46,-750.5 1885.46,-747 1875.46,-743.5 1875.46,-750.5"/>
</g>
<!-- l3_spec_a_wavem -->
<g id="node34" class="node">
<title>l3_spec_a_wavem</title>
<polygon fill="none" stroke="black" points="1803.52,-705 1621.52,-705 1621.52,-681 1803.52,-681 1815.52,-693 1803.52,-705"/>
<text text-anchor="middle" x="1718.52" y="-689.3" font-family="Times,serif" font-size="14.00">L3_spec_a wavelength map 1..1</text>
</g>
<!-- l3_spec_a_wavem&#45;&gt;trans_spec_a_l3_l4 -->
<g id="edge36" class="edge">
<title>l3_spec_a_wavem&#45;&gt;trans_spec_a_l3_l4</title>
<path fill="none" stroke="black" d="M1815.53,-693C1815.53,-693 1875.47,-693 1875.47,-693"/>
<polygon fill="black" stroke="black" points="1875.47,-696.5 1885.47,-693 1875.47,-689.5 1875.47,-696.5"/>
</g>
<!-- l4_spec_a_prod&#45;&gt;trans_spec_a_l4_tda -->
<g id="edge40" class="edge">
<title>l4_spec_a_prod&#45;&gt;trans_spec_a_l4_tda</title>
<path fill="none" stroke="black" stroke-dasharray="5,2" d="M2312.95,-801C2389.85,-801 2498.03,-801 2498.03,-801 2498.03,-801 2498.03,-883.56 2498.03,-883.56"/>
<polygon fill="black" stroke="black" points="2494.53,-883.56 2498.03,-893.56 2501.53,-883.56 2494.53,-883.56"/>
</g>
<!-- l4_spec_a_odir -->
<g id="node37" class="node">
<title>l4_spec_a_odir</title>
<ellipse fill="none" stroke="black" cx="2237.63" cy="-1233" rx="107.48" ry="18"/>
<text text-anchor="middle" x="2237.63" y="-1229.3" font-family="Times,serif" font-size="14.00">L4_spec_a output path 1..1</text>
</g>
<!-- l4_spec_a_odir&#45;&gt;trans_spec_a_l4_tda -->
<g id="edge42" class="edge">
<title>l4_spec_a_odir&#45;&gt;trans_spec_a_l4_tda</title>
<path fill="none" stroke="black" d="M2345.26,-1233C2428.63,-1233 2530.03,-1233 2530.03,-1233 2530.03,-1233 2530.03,-1090.48 2530.03,-1090.48"/>
<polygon fill="black" stroke="black" points="2533.53,-1090.48 2530.03,-1080.48 2526.53,-1090.48 2533.53,-1090.48"/>
</g>
<!-- l4_spec_a_man&#45;&gt;trans_spec_a_l4_tda -->
<g id="edge41" class="edge">
<title>l4_spec_a_man&#45;&gt;trans_spec_a_l4_tda</title>
<path fill="none" stroke="black" d="M2365.29,-693C2450.13,-693 2546.03,-693 2546.03,-693 2546.03,-693 2546.03,-896.87 2546.03,-896.87"/>
<polygon fill="black" stroke="black" points="2542.53,-896.87 2546.03,-906.87 2549.53,-896.87 2542.53,-896.87"/>
</g>
<!-- l4_spec_a_rec -->
<g id="node40" class="node">
<title>l4_spec_a_rec</title>
<polygon fill="none" stroke="black" points="2294.13,-1191 2169.13,-1191 2169.13,-1167 2294.13,-1167 2306.13,-1179 2294.13,-1191"/>
<text text-anchor="middle" x="2237.63" y="-1175.3" font-family="Times,serif" font-size="14.00">L4_spec_a recipe 1..1</text>
</g>
<!-- l4_spec_a_rec&#45;&gt;trans_spec_a_l4_tda -->
<g id="edge43" class="edge">
<title>l4_spec_a_rec&#45;&gt;trans_spec_a_l4_tda</title>
<path fill="none" stroke="black" d="M2306.15,-1179C2373.43,-1179 2466.03,-1179 2466.03,-1179 2466.03,-1179 2466.03,-1091.18 2466.03,-1091.18"/>
<polygon fill="black" stroke="black" points="2469.53,-1091.18 2466.03,-1081.18 2462.53,-1091.18 2469.53,-1091.18"/>
</g>
<!-- l4_spec_a_afcal -->
<g id="node41" class="node">
<title>l4_spec_a_afcal</title>
<polygon fill="none" stroke="black" points="2346.13,-1137 2117.13,-1137 2117.13,-1113 2346.13,-1113 2358.13,-1125 2346.13,-1137"/>
<text text-anchor="middle" x="2237.63" y="-1121.3" font-family="Times,serif" font-size="14.00">L4_spec_a absolute flux calibrations 1..1</text>
</g>
<!-- l4_spec_a_afcal&#45;&gt;trans_spec_a_l4_tda -->
<g id="edge44" class="edge">
<title>l4_spec_a_afcal&#45;&gt;trans_spec_a_l4_tda</title>
<path fill="none" stroke="black" d="M2332.03,-1106.99C2332.03,-1092.7 2332.03,-1075.11 2332.03,-1075.11 2332.03,-1075.11 2442.05,-1075.11 2442.05,-1075.11"/>
<polygon fill="black" stroke="black" points="2442.05,-1078.61 2452.05,-1075.11 2442.05,-1071.61 2442.05,-1078.61"/>
</g>
<!-- l4_spec_a_ndfilt -->
<g id="node42" class="node">
<title>l4_spec_a_ndfilt</title>
<polygon fill="none" stroke="black" points="2302.13,-1083 2161.13,-1083 2161.13,-1059 2302.13,-1059 2314.13,-1071 2302.13,-1083"/>
<text text-anchor="middle" x="2237.63" y="-1067.3" font-family="Times,serif" font-size="14.00">L4_spec_a ND filter 1..1</text>
</g>
<!-- l4_spec_a_ndfilt&#45;&gt;trans_spec_a_l4_tda -->
<g id="edge45" class="edge">
<title>l4_spec_a_ndfilt&#45;&gt;trans_spec_a_l4_tda</title>
<path fill="none" stroke="black" d="M2314.45,-1064.06C2314.45,-1064.06 2425.78,-1064.06 2425.78,-1064.06"/>
<polygon fill="black" stroke="black" points="2425.78,-1067.56 2435.78,-1064.06 2425.78,-1060.56 2425.78,-1067.56"/>
</g>
<!-- l4_spec_a_stmap -->
<g id="node43" class="node">
<title>l4_spec_a_stmap</title>
<polygon fill="none" stroke="black" points="2336.13,-1029 2127.13,-1029 2127.13,-1005 2336.13,-1005 2348.13,-1017 2336.13,-1029"/>
<text text-anchor="middle" x="2237.63" y="-1013.3" font-family="Times,serif" font-size="14.00">L4_spec_a slit transmission map 1..1</text>
</g>
<!-- l4_spec_a_stmap&#45;&gt;trans_spec_a_l4_tda -->
<g id="edge46" class="edge">
<title>l4_spec_a_stmap&#45;&gt;trans_spec_a_l4_tda</title>
<path fill="none" stroke="black" d="M2348.46,-1017C2348.46,-1017 2394.68,-1017 2394.68,-1017"/>
<polygon fill="black" stroke="black" points="2394.68,-1020.5 2404.68,-1017 2394.68,-1013.5 2394.68,-1020.5"/>
</g>
<!-- l4_spec_a_tspi -->
<g id="node44" class="node">
<title>l4_spec_a_tspi</title>
<polygon fill="none" stroke="black" points="2340.63,-975 2122.63,-975 2122.63,-951 2340.63,-951 2352.63,-963 2340.63,-975"/>
<text text-anchor="middle" x="2237.63" y="-959.3" font-family="Times,serif" font-size="14.00">L4_spec_a target star prism image 1..1</text>
</g>
<!-- l4_spec_a_tspi&#45;&gt;trans_spec_a_l4_tda -->
<g id="edge47" class="edge">
<title>l4_spec_a_tspi&#45;&gt;trans_spec_a_l4_tda</title>
<path fill="none" stroke="black" d="M2352.98,-963C2352.98,-963 2394.76,-963 2394.76,-963"/>
<polygon fill="black" stroke="black" points="2394.76,-966.5 2404.76,-963 2394.76,-959.5 2394.76,-966.5"/>
</g>
<!-- l4_spec_a_rspi -->
<g id="node45" class="node">
<title>l4_spec_a_rspi</title>
<polygon fill="none" stroke="black" points="2350.63,-921 2112.63,-921 2112.63,-897 2350.63,-897 2362.63,-909 2350.63,-921"/>
<text text-anchor="middle" x="2237.63" y="-905.3" font-family="Times,serif" font-size="14.00">L4_spec_a reference star prism image 1..1</text>
</g>
<!-- l4_spec_a_rspi&#45;&gt;trans_spec_a_l4_tda -->
<g id="edge48" class="edge">
<title>l4_spec_a_rspi&#45;&gt;trans_spec_a_l4_tda</title>
<path fill="none" stroke="black" d="M2362.84,-910.42C2362.84,-910.42 2433.12,-910.42 2433.12,-910.42"/>
<polygon fill="black" stroke="black" points="2433.12,-913.92 2443.12,-910.42 2433.12,-906.92 2433.12,-913.92"/>
</g>
<!-- l4_spec_a_lsf -->
<g id="node46" class="node">
<title>l4_spec_a_lsf</title>
<polygon fill="none" stroke="black" points="2331.63,-867 2131.63,-867 2131.63,-843 2331.63,-843 2343.63,-855 2331.63,-867"/>
<text text-anchor="middle" x="2237.63" y="-851.3" font-family="Times,serif" font-size="14.00">L4_spec_a line spread function 1..1</text>
</g>
<!-- l4_spec_a_lsf&#45;&gt;trans_spec_a_l4_tda -->
<g id="edge49" class="edge">
<title>l4_spec_a_lsf&#45;&gt;trans_spec_a_l4_tda</title>
<path fill="none" stroke="black" d="M2343.83,-855C2396.93,-855 2450.03,-855 2450.03,-855 2450.03,-855 2450.03,-896.04 2450.03,-896.04"/>
<polygon fill="black" stroke="black" points="2446.53,-896.04 2450.03,-906.04 2453.53,-896.04 2446.53,-896.04"/>
</g>
<!-- tda_spec_a_man -->
<g id="node47" class="node">
<title>tda_spec_a_man</title>
<ellipse fill="none" stroke="black" cx="135.84" cy="-288" rx="135.68" ry="18"/>
<text text-anchor="middle" x="135.84" y="-284.3" font-family="Times,serif" font-size="14.00">TDA_spec_a product manifest 1..1</text>
</g>
</g>
</svg>
