<?xml version="1.0" encoding="UTF-8" standalone="no"?>
<!DOCTYPE svg PUBLIC "-//W3C//DTD SVG 1.1//EN"
 "http://www.w3.org/Graphics/SVG/1.1/DTD/svg11.dtd">
<!-- Generated by graphviz version 2.43.0 (0)
 -->
<!-- Title: SpectroscopyAnalog Pages: 1 -->
<svg width="3232pt" height="1151pt"
 viewBox="0.00 0.00 3231.83 1151.00" xmlns="http://www.w3.org/2000/svg" xmlns:xlink="http://www.w3.org/1999/xlink">
<g id="graph0" class="graph" transform="scale(1 1) rotate(0) translate(4 1147)">
<title>SpectroscopyAnalog</title>
<polygon fill="white" stroke="transparent" points="-4,4 -4,-1147 3227.83,-1147 3227.83,4 -4,4"/>
<!-- trans_spec_a_l1_l2a -->
<g id="node1" class="node">
<title>trans_spec_a_l1_l2a</title>
<ellipse fill="none" stroke="black" cx="430.01" cy="-126" rx="122.16" ry="122.16"/>
<text text-anchor="middle" x="430.01" y="-129.8" font-family="Times,serif" font-size="14.00">spec_a Transmutation</text>
<text text-anchor="middle" x="430.01" y="-114.8" font-family="Times,serif" font-size="14.00">L1 to L2a</text>
</g>
<!-- l2a_spec_a_prod -->
<g id="node11" class="node">
<title>l2a_spec_a_prod</title>
<polygon fill="none" stroke="black" points="836.33,-198 640.33,-198 640.33,-162 836.33,-162 836.33,-198"/>
<text text-anchor="middle" x="738.33" y="-176.3" font-family="Times,serif" font-size="14.00">L2a_spec_a products 1..b</text>
</g>
<!-- trans_spec_a_l1_l2a&#45;&gt;l2a_spec_a_prod -->
<g id="edge6" class="edge">
<title>trans_spec_a_l1_l2a&#45;&gt;l2a_spec_a_prod</title>
<path fill="none" stroke="black" stroke-dasharray="5,2" d="M540.01,-180C540.01,-180 630.16,-180 630.16,-180"/>
<polygon fill="black" stroke="black" points="630.16,-183.5 640.16,-180 630.16,-176.5 630.16,-183.5"/>
</g>
<!-- l2a_spec_a_man -->
<g id="node12" class="node">
<title>l2a_spec_a_man</title>
<ellipse fill="none" stroke="black" cx="738.33" cy="-126" rx="126.98" ry="18"/>
<text text-anchor="middle" x="738.33" y="-122.3" font-family="Times,serif" font-size="14.00">L2a_spec_a manifest 1..1</text>
</g>
<!-- trans_spec_a_l1_l2a&#45;&gt;l2a_spec_a_man -->
<g id="edge7" class="edge">
<title>trans_spec_a_l1_l2a&#45;&gt;l2a_spec_a_man</title>
<path fill="none" stroke="black" d="M552.75,-126C552.75,-126 601.47,-126 601.47,-126"/>
<polygon fill="black" stroke="black" points="601.47,-129.5 611.47,-126 601.47,-122.5 601.47,-129.5"/>
</g>
<!-- l2a_spec_a_log -->
<g id="node20" class="node">
<title>l2a_spec_a_log</title>
<ellipse fill="none" stroke="black" cx="738.33" cy="-72" rx="100.98" ry="18"/>
<text text-anchor="middle" x="738.33" y="-68.3" font-family="Times,serif" font-size="14.00">L2a log_spec_a 1..1</text>
</g>
<!-- trans_spec_a_l1_l2a&#45;&gt;l2a_spec_a_log -->
<g id="edge8" class="edge">
<title>trans_spec_a_l1_l2a&#45;&gt;l2a_spec_a_log</title>
<path fill="none" stroke="black" stroke-dasharray="5,2" d="M540.01,-72C540.01,-72 627.37,-72 627.37,-72"/>
<polygon fill="black" stroke="black" points="627.37,-75.5 637.37,-72 627.37,-68.5 627.37,-75.5"/>
</g>
<!-- trans_spec_a_l2a_l2b -->
<g id="node2" class="node">
<title>trans_spec_a_l2a_l2b</title>
<ellipse fill="none" stroke="black" cx="1046.66" cy="-342" rx="122.16" ry="122.16"/>
<text text-anchor="middle" x="1046.66" y="-345.8" font-family="Times,serif" font-size="14.00">spec_a Transmutation</text>
<text text-anchor="middle" x="1046.66" y="-330.8" font-family="Times,serif" font-size="14.00">L2a to L2b</text>
</g>
<!-- l2b_spec_a_prod -->
<g id="node21" class="node">
<title>l2b_spec_a_prod</title>
<polygon fill="none" stroke="black" points="1454.99,-414 1257.99,-414 1257.99,-378 1454.99,-378 1454.99,-414"/>
<text text-anchor="middle" x="1356.49" y="-392.3" font-family="Times,serif" font-size="14.00">L2b_spec_a products 1..1</text>
</g>
<!-- trans_spec_a_l2a_l2b&#45;&gt;l2b_spec_a_prod -->
<g id="edge17" class="edge">
<title>trans_spec_a_l2a_l2b&#45;&gt;l2b_spec_a_prod</title>
<path fill="none" stroke="black" stroke-dasharray="5,2" d="M1156.77,-396C1156.77,-396 1247.83,-396 1247.83,-396"/>
<polygon fill="black" stroke="black" points="1247.83,-399.5 1257.83,-396 1247.83,-392.5 1247.83,-399.5"/>
</g>
<!-- l2b_spec_a_man -->
<g id="node22" class="node">
<title>l2b_spec_a_man</title>
<ellipse fill="none" stroke="black" cx="1356.49" cy="-342" rx="127.28" ry="18"/>
<text text-anchor="middle" x="1356.49" y="-338.3" font-family="Times,serif" font-size="14.00">L2b_spec_a manifest 1..1</text>
</g>
<!-- trans_spec_a_l2a_l2b&#45;&gt;l2b_spec_a_man -->
<g id="edge18" class="edge">
<title>trans_spec_a_l2a_l2b&#45;&gt;l2b_spec_a_man</title>
<path fill="none" stroke="black" d="M1169.12,-342C1169.12,-342 1219.08,-342 1219.08,-342"/>
<polygon fill="black" stroke="black" points="1219.08,-345.5 1229.08,-342 1219.08,-338.5 1219.08,-345.5"/>
</g>
<!-- l2b_spec_a_log -->
<g id="node28" class="node">
<title>l2b_spec_a_log</title>
<ellipse fill="none" stroke="black" cx="1356.49" cy="-288" rx="100.98" ry="18"/>
<text text-anchor="middle" x="1356.49" y="-284.3" font-family="Times,serif" font-size="14.00">L2b_spec_a log 1..1</text>
</g>
<!-- trans_spec_a_l2a_l2b&#45;&gt;l2b_spec_a_log -->
<g id="edge19" class="edge">
<title>trans_spec_a_l2a_l2b&#45;&gt;l2b_spec_a_log</title>
<path fill="none" stroke="black" stroke-dasharray="5,2" d="M1156.77,-288C1156.77,-288 1245.53,-288 1245.53,-288"/>
<polygon fill="black" stroke="black" points="1245.53,-291.5 1255.53,-288 1245.53,-284.5 1245.53,-291.5"/>
</g>
<!-- trans_spec_a_l2b_l3 -->
<g id="node3" class="node">
<title>trans_spec_a_l2b_l3</title>
<ellipse fill="none" stroke="black" cx="1666.32" cy="-504" rx="122.16" ry="122.16"/>
<text text-anchor="middle" x="1666.32" y="-507.8" font-family="Times,serif" font-size="14.00">spec_a Transmutation</text>
<text text-anchor="middle" x="1666.32" y="-492.8" font-family="Times,serif" font-size="14.00">L2b to L3</text>
</g>
<!-- l3_spec_a_prod -->
<g id="node29" class="node">
<title>l3_spec_a_prod</title>
<polygon fill="none" stroke="black" points="2054.49,-576 1866.49,-576 1866.49,-540 2054.49,-540 2054.49,-576"/>
<text text-anchor="middle" x="1960.49" y="-554.3" font-family="Times,serif" font-size="14.00">L3_spec_a products 1..1</text>
</g>
<!-- trans_spec_a_l2b_l3&#45;&gt;l3_spec_a_prod -->
<g id="edge28" class="edge">
<title>trans_spec_a_l2b_l3&#45;&gt;l3_spec_a_prod</title>
<path fill="none" stroke="black" stroke-dasharray="5,2" d="M1776.28,-558C1776.28,-558 1856.1,-558 1856.1,-558"/>
<polygon fill="black" stroke="black" points="1856.1,-561.5 1866.1,-558 1856.1,-554.5 1856.1,-561.5"/>
</g>
<!-- l3_spec_a_man -->
<g id="node31" class="node">
<title>l3_spec_a_man</title>
<ellipse fill="none" stroke="black" cx="1960.49" cy="-504" rx="121.58" ry="18"/>
<text text-anchor="middle" x="1960.49" y="-500.3" font-family="Times,serif" font-size="14.00">L3_spec_a manifest 1..1</text>
</g>
<!-- trans_spec_a_l2b_l3&#45;&gt;l3_spec_a_man -->
<g id="edge29" class="edge">
<title>trans_spec_a_l2b_l3&#45;&gt;l3_spec_a_man</title>
<path fill="none" stroke="black" d="M1788.95,-504C1788.95,-504 1828.54,-504 1828.54,-504"/>
<polygon fill="black" stroke="black" points="1828.54,-507.5 1838.54,-504 1828.54,-500.5 1828.54,-507.5"/>
</g>
<!-- l3_spec_a_log -->
<g id="node35" class="node">
<title>l3_spec_a_log</title>
<ellipse fill="none" stroke="black" cx="1960.49" cy="-450" rx="94.78" ry="18"/>
<text text-anchor="middle" x="1960.49" y="-446.3" font-family="Times,serif" font-size="14.00">L3_spec_a log 1..1</text>
</g>
<!-- trans_spec_a_l2b_l3&#45;&gt;l3_spec_a_log -->
<g id="edge30" class="edge">
<title>trans_spec_a_l2b_l3&#45;&gt;l3_spec_a_log</title>
<path fill="none" stroke="black" stroke-dasharray="5,2" d="M1776.28,-450C1776.28,-450 1855.15,-450 1855.15,-450"/>
<polygon fill="black" stroke="black" points="1855.15,-453.5 1865.15,-450 1855.15,-446.5 1855.15,-453.5"/>
</g>
<!-- trans_spec_a_l3_l4 -->
<g id="node4" class="node">
<title>trans_spec_a_l3_l4</title>
<ellipse fill="none" stroke="black" cx="2254.66" cy="-639" rx="122.16" ry="122.16"/>
<text text-anchor="middle" x="2254.66" y="-642.8" font-family="Times,serif" font-size="14.00">spec_a Transmutation</text>
<text text-anchor="middle" x="2254.66" y="-627.8" font-family="Times,serif" font-size="14.00">L3 to L4</text>
</g>
<!-- l4_spec_a_prod -->
<g id="node36" class="node">
<title>l4_spec_a_prod</title>
<polygon fill="none" stroke="black" points="2666.99,-711 2478.99,-711 2478.99,-675 2666.99,-675 2666.99,-711"/>
<text text-anchor="middle" x="2572.99" y="-689.3" font-family="Times,serif" font-size="14.00">L4_spec_a products 1..1</text>
</g>
<!-- trans_spec_a_l3_l4&#45;&gt;l4_spec_a_prod -->
<g id="edge37" class="edge">
<title>trans_spec_a_l3_l4&#45;&gt;l4_spec_a_prod</title>
<path fill="none" stroke="black" stroke-dasharray="5,2" d="M2364.65,-693C2364.65,-693 2468.88,-693 2468.88,-693"/>
<polygon fill="black" stroke="black" points="2468.88,-696.5 2478.88,-693 2468.88,-689.5 2468.88,-696.5"/>
</g>
<!-- l4_spec_a_log -->
<g id="node38" class="node">
<title>l4_spec_a_log</title>
<ellipse fill="none" stroke="black" cx="2572.99" cy="-639" rx="94.78" ry="18"/>
<text text-anchor="middle" x="2572.99" y="-635.3" font-family="Times,serif" font-size="14.00">L4_spec_a log 1..1</text>
</g>
<!-- trans_spec_a_l3_l4&#45;&gt;l4_spec_a_log -->
<g id="edge38" class="edge">
<title>trans_spec_a_l3_l4&#45;&gt;l4_spec_a_log</title>
<path fill="none" stroke="black" stroke-dasharray="5,2" d="M2377.28,-639C2377.28,-639 2467.61,-639 2467.61,-639"/>
<polygon fill="black" stroke="black" points="2467.61,-642.5 2477.61,-639 2467.61,-635.5 2467.61,-642.5"/>
</g>
<!-- l4_spec_a_man -->
<g id="node39" class="node">
<title>l4_spec_a_man</title>
<ellipse fill="none" stroke="black" cx="2572.99" cy="-585" rx="121.58" ry="18"/>
<text text-anchor="middle" x="2572.99" y="-581.3" font-family="Times,serif" font-size="14.00">L4_spec_a manifest 1..1</text>
</g>
<!-- trans_spec_a_l3_l4&#45;&gt;l4_spec_a_man -->
<g id="edge39" class="edge">
<title>trans_spec_a_l3_l4&#45;&gt;l4_spec_a_man</title>
<path fill="none" stroke="black" d="M2364.65,-585C2364.65,-585 2441.28,-585 2441.28,-585"/>
<polygon fill="black" stroke="black" points="2441.28,-588.5 2451.28,-585 2441.28,-581.5 2441.28,-588.5"/>
</g>
<!-- trans_spec_a_l4_tda -->
<g id="node5" class="node">
<title>trans_spec_a_l4_tda</title>
<ellipse fill="none" stroke="black" cx="2891.32" cy="-882" rx="122.16" ry="122.16"/>
<text text-anchor="middle" x="2891.32" y="-885.8" font-family="Times,serif" font-size="14.00">spec_a Transmutation</text>
<text text-anchor="middle" x="2891.32" y="-870.8" font-family="Times,serif" font-size="14.00">L4 to TDA</text>
</g>
<!-- tda_spec_a_prod -->
<g id="node48" class="node">
<title>tda_spec_a_prod</title>
<ellipse fill="none" stroke="black" cx="3136.74" cy="-909" rx="87.18" ry="18"/>
<text text-anchor="middle" x="3136.74" y="-905.3" font-family="Times,serif" font-size="14.00">tda_spec_a_prod</text>
</g>
<!-- trans_spec_a_l4_tda&#45;&gt;tda_spec_a_prod -->
<g id="edge50" class="edge">
<title>trans_spec_a_l4_tda&#45;&gt;tda_spec_a_prod</title>
<path fill="none" stroke="black" stroke-dasharray="5,2" d="M3010.79,-909C3010.79,-909 3039.48,-909 3039.48,-909"/>
<polygon fill="black" stroke="black" points="3039.48,-912.5 3049.48,-909 3039.48,-905.5 3039.48,-912.5"/>
</g>
<!-- tda_spec_a_log -->
<g id="node49" class="node">
<title>tda_spec_a_log</title>
<ellipse fill="none" stroke="black" cx="3136.74" cy="-855" rx="79.09" ry="18"/>
<text text-anchor="middle" x="3136.74" y="-851.3" font-family="Times,serif" font-size="14.00">tda_spec_a_log</text>
</g>
<!-- trans_spec_a_l4_tda&#45;&gt;tda_spec_a_log -->
<g id="edge51" class="edge">
<title>trans_spec_a_l4_tda&#45;&gt;tda_spec_a_log</title>
<path fill="none" stroke="black" stroke-dasharray="5,2" d="M3010.79,-855C3010.79,-855 3047.15,-855 3047.15,-855"/>
<polygon fill="black" stroke="black" points="3047.15,-858.5 3057.15,-855 3047.15,-851.5 3047.15,-858.5"/>
</g>
<!-- l1_spec_a_prod -->
<g id="node6" class="node">
<title>l1_spec_a_prod</title>
<polygon fill="none" stroke="black" points="229.84,-252 41.84,-252 41.84,-216 229.84,-216 229.84,-252"/>
<text text-anchor="middle" x="135.84" y="-230.3" font-family="Times,serif" font-size="14.00">L1_spec_a products 1..b</text>
</g>
<!-- l1_spec_a_prod&#45;&gt;trans_spec_a_l1_l2a -->
<g id="edge1" class="edge">
<title>l1_spec_a_prod&#45;&gt;trans_spec_a_l1_l2a</title>
<path fill="none" stroke="black" stroke-dasharray="5,2" d="M230.13,-232.16C230.13,-232.16 359.11,-232.16 359.11,-232.16"/>
<polygon fill="black" stroke="black" points="359.11,-235.66 369.11,-232.16 359.11,-228.66 359.11,-235.66"/>
</g>
<!-- l1_spec_a_man -->
<g id="node7" class="node">
<title>l1_spec_a_man</title>
<ellipse fill="none" stroke="black" cx="135.84" cy="-180" rx="121.58" ry="18"/>
<text text-anchor="middle" x="135.84" y="-176.3" font-family="Times,serif" font-size="14.00">L1_spec_a manifest 1..1</text>
</g>
<!-- l1_spec_a_man&#45;&gt;trans_spec_a_l1_l2a -->
<g id="edge2" class="edge">
<title>l1_spec_a_man&#45;&gt;trans_spec_a_l1_l2a</title>
<path fill="none" stroke="black" d="M257.61,-180C257.61,-180 310.09,-180 310.09,-180"/>
<polygon fill="black" stroke="black" points="310.09,-183.5 320.09,-180 310.09,-176.5 310.09,-183.5"/>
</g>
<!-- l1_spec_a_odir -->
<g id="node8" class="node">
<title>l1_spec_a_odir</title>
<ellipse fill="none" stroke="black" cx="135.84" cy="-126" rx="135.68" ry="18"/>
<text text-anchor="middle" x="135.84" y="-122.3" font-family="Times,serif" font-size="14.00">L1_spec_a output path 1..1</text>
</g>
<!-- l1_spec_a_odir&#45;&gt;trans_spec_a_l1_l2a -->
<g id="edge3" class="edge">
<title>l1_spec_a_odir&#45;&gt;trans_spec_a_l1_l2a</title>
<path fill="none" stroke="black" d="M271.73,-126C271.73,-126 297.39,-126 297.39,-126"/>
<polygon fill="black" stroke="black" points="297.39,-129.5 307.39,-126 297.39,-122.5 297.39,-129.5"/>
</g>
<!-- l1_spec_a_rec -->
<g id="node9" class="node">
<title>l1_spec_a_rec</title>
<polygon fill="none" stroke="black" points="208.34,-84 51.34,-84 51.34,-60 208.34,-60 220.34,-72 208.34,-84"/>
<text text-anchor="middle" x="135.84" y="-68.3" font-family="Times,serif" font-size="14.00">L1_spec_a recipe 1..1</text>
</g>
<!-- l1_spec_a_rec&#45;&gt;trans_spec_a_l1_l2a -->
<g id="edge4" class="edge">
<title>l1_spec_a_rec&#45;&gt;trans_spec_a_l1_l2a</title>
<path fill="none" stroke="black" d="M220.53,-72C220.53,-72 310.16,-72 310.16,-72"/>
<polygon fill="black" stroke="black" points="310.16,-75.5 320.16,-72 310.16,-68.5 310.16,-75.5"/>
</g>
<!-- l1_spec_a_nllut -->
<g id="node10" class="node">
<title>l1_spec_a_nllut</title>
<polygon fill="none" stroke="black" points="238.84,-30 20.84,-30 20.84,-6 238.84,-6 250.84,-18 238.84,-30"/>
<text text-anchor="middle" x="135.84" y="-14.3" font-family="Times,serif" font-size="14.00">L1_spec_a non&#45;linear LUT 1..1</text>
</g>
<!-- l1_spec_a_nllut&#45;&gt;trans_spec_a_l1_l2a -->
<g id="edge5" class="edge">
<title>l1_spec_a_nllut&#45;&gt;trans_spec_a_l1_l2a</title>
<path fill="none" stroke="black" d="M251.26,-19.84C251.26,-19.84 359.1,-19.84 359.1,-19.84"/>
<polygon fill="black" stroke="black" points="359.1,-23.34 369.1,-19.84 359.1,-16.34 359.1,-23.34"/>
</g>
<!-- l2a_spec_a_prod&#45;&gt;trans_spec_a_l2a_l2b -->
<g id="edge9" class="edge">
<title>l2a_spec_a_prod&#45;&gt;trans_spec_a_l2a_l2b</title>
<path fill="none" stroke="black" stroke-dasharray="5,2" d="M836.37,-180C926.7,-180 1046.83,-180 1046.83,-180 1046.83,-180 1046.83,-209.63 1046.83,-209.63"/>
<polygon fill="black" stroke="black" points="1043.33,-209.63 1046.83,-219.63 1050.33,-209.63 1043.33,-209.63"/>
</g>
<!-- l2a_spec_a_man&#45;&gt;trans_spec_a_l2a_l2b -->
<g id="edge20" class="edge">
<title>l2a_spec_a_man&#45;&gt;trans_spec_a_l2a_l2b</title>
<path fill="none" stroke="black" d="M850.83,-134.55C850.83,-159.49 850.83,-230.45 850.83,-230.45 850.83,-230.45 986.23,-230.45 986.23,-230.45"/>
<polygon fill="black" stroke="black" points="986.23,-233.95 996.23,-230.45 986.23,-226.95 986.23,-233.95"/>
</g>
<!-- l2a_spec_a_odir -->
<g id="node13" class="node">
<title>l2a_spec_a_odir</title>
<ellipse fill="none" stroke="black" cx="738.33" cy="-560" rx="141.07" ry="18"/>
<text text-anchor="middle" x="738.33" y="-556.3" font-family="Times,serif" font-size="14.00">L2a_spec_a output path 1..1</text>
</g>
<!-- l2a_spec_a_odir&#45;&gt;trans_spec_a_l2a_l2b -->
<g id="edge10" class="edge">
<title>l2a_spec_a_odir&#45;&gt;trans_spec_a_l2a_l2b</title>
<path fill="none" stroke="black" d="M879.23,-559C976.29,-559 1087.83,-559 1087.83,-559 1087.83,-559 1087.83,-467.49 1087.83,-467.49"/>
<polygon fill="black" stroke="black" points="1091.33,-467.49 1087.83,-457.49 1084.33,-467.49 1091.33,-467.49"/>
</g>
<!-- l2a_spec_a_rec -->
<g id="node14" class="node">
<title>l2a_spec_a_rec</title>
<polygon fill="none" stroke="black" points="814.83,-518 649.83,-518 649.83,-494 814.83,-494 826.83,-506 814.83,-518"/>
<text text-anchor="middle" x="738.33" y="-502.3" font-family="Times,serif" font-size="14.00">L2a_spec_a recipe 1..1</text>
</g>
<!-- l2a_spec_a_rec&#45;&gt;trans_spec_a_l2a_l2b -->
<g id="edge11" class="edge">
<title>l2a_spec_a_rec&#45;&gt;trans_spec_a_l2a_l2b</title>
<path fill="none" stroke="black" d="M826.99,-505C905.2,-505 1006.83,-505 1006.83,-505 1006.83,-505 1006.83,-467.85 1006.83,-467.85"/>
<polygon fill="black" stroke="black" points="1010.33,-467.85 1006.83,-457.85 1003.33,-467.85 1010.33,-467.85"/>
</g>
<!-- l2a_spec_a_cti -->
<g id="node15" class="node">
<title>l2a_spec_a_cti</title>
<polygon fill="none" stroke="black" points="876.33,-464 588.33,-464 588.33,-440 876.33,-440 888.33,-452 876.33,-464"/>
<text text-anchor="middle" x="738.33" y="-448.3" font-family="Times,serif" font-size="14.00">L2a_spec_a charge xfer inefficiency 1..1</text>
</g>
<!-- l2a_spec_a_cti&#45;&gt;trans_spec_a_l2a_l2b -->
<g id="edge12" class="edge">
<title>l2a_spec_a_cti&#45;&gt;trans_spec_a_l2a_l2b</title>
<path fill="none" stroke="black" d="M888.44,-449.16C888.44,-449.16 977.6,-449.16 977.6,-449.16"/>
<polygon fill="black" stroke="black" points="977.6,-452.66 987.6,-449.16 977.6,-445.66 977.6,-452.66"/>
</g>
<!-- l2a_spec_a_dnb -->
<g id="node16" class="node">
<title>l2a_spec_a_dnb</title>
<polygon fill="none" stroke="black" points="857.83,-410 606.83,-410 606.83,-384 857.83,-384 869.83,-397 857.83,-410"/>
<text text-anchor="middle" x="738.33" y="-400.8" font-family="Times,serif" font-size="14.00">L2a_spec_a CIC/Dark Current/FPN</text>
<text text-anchor="middle" x="738.33" y="-385.8" font-family="Times,serif" font-size="14.00"> or master dark 1..1</text>
</g>
<!-- l2a_spec_a_dnb&#45;&gt;trans_spec_a_l2a_l2b -->
<g id="edge13" class="edge">
<title>l2a_spec_a_dnb&#45;&gt;trans_spec_a_l2a_l2b</title>
<path fill="none" stroke="black" d="M869.99,-397C869.99,-397 927.26,-397 927.26,-397"/>
<polygon fill="black" stroke="black" points="927.26,-400.5 937.26,-397 927.26,-393.5 927.26,-400.5"/>
</g>
<!-- l2a_spec_a_mbpm -->
<g id="node17" class="node">
<title>l2a_spec_a_mbpm</title>
<polygon fill="none" stroke="black" points="870.33,-354 594.33,-354 594.33,-330 870.33,-330 882.33,-342 870.33,-354"/>
<text text-anchor="middle" x="738.33" y="-338.3" font-family="Times,serif" font-size="14.00">L2a_spec_a master bad pixel map 1..1</text>
</g>
<!-- l2a_spec_a_mbpm&#45;&gt;trans_spec_a_l2a_l2b -->
<g id="edge14" class="edge">
<title>l2a_spec_a_mbpm&#45;&gt;trans_spec_a_l2a_l2b</title>
<path fill="none" stroke="black" d="M882.57,-342C882.57,-342 914.28,-342 914.28,-342"/>
<polygon fill="black" stroke="black" points="914.28,-345.5 924.28,-342 914.28,-338.5 914.28,-345.5"/>
</g>
<!-- l2a_spec_a_kgain -->
<g id="node18" class="node">
<title>l2a_spec_a_kgain</title>
<polygon fill="none" stroke="black" points="813.33,-300 651.33,-300 651.33,-276 813.33,-276 825.33,-288 813.33,-300"/>
<text text-anchor="middle" x="738.33" y="-284.3" font-family="Times,serif" font-size="14.00">L2a_spec_a Kgain 1..1</text>
</g>
<!-- l2a_spec_a_kgain&#45;&gt;trans_spec_a_l2a_l2b -->
<g id="edge16" class="edge">
<title>l2a_spec_a_kgain&#45;&gt;trans_spec_a_l2a_l2b</title>
<path fill="none" stroke="black" d="M825.45,-288C825.45,-288 926.64,-288 926.64,-288"/>
<polygon fill="black" stroke="black" points="926.64,-291.5 936.64,-288 926.64,-284.5 926.64,-291.5"/>
</g>
<!-- l2a_spec_a_emg -->
<g id="node19" class="node">
<title>l2a_spec_a_emg</title>
<polygon fill="none" stroke="black" points="822.83,-246 641.83,-246 641.83,-222 822.83,-222 834.83,-234 822.83,-246"/>
<text text-anchor="middle" x="738.33" y="-230.3" font-family="Times,serif" font-size="14.00">L2a_spec_a EM gain 1..1</text>
</g>
<!-- l2a_spec_a_emg&#45;&gt;trans_spec_a_l2a_l2b -->
<g id="edge15" class="edge">
<title>l2a_spec_a_emg&#45;&gt;trans_spec_a_l2a_l2b</title>
<path fill="none" stroke="black" d="M835.05,-241.22C835.05,-241.22 967.19,-241.22 967.19,-241.22"/>
<polygon fill="black" stroke="black" points="967.19,-244.72 977.19,-241.22 967.19,-237.72 967.19,-244.72"/>
</g>
<!-- l2b_spec_a_prod&#45;&gt;trans_spec_a_l2b_l3 -->
<g id="edge21" class="edge">
<title>l2b_spec_a_prod&#45;&gt;trans_spec_a_l2b_l3</title>
<path fill="none" stroke="black" stroke-dasharray="5,2" d="M1455.38,-403.22C1455.38,-403.22 1586.79,-403.22 1586.79,-403.22"/>
<polygon fill="black" stroke="black" points="1586.79,-406.72 1596.79,-403.22 1586.79,-399.72 1586.79,-406.72"/>
</g>
<!-- l2b_spec_a_man&#45;&gt;trans_spec_a_l2b_l3 -->
<g id="edge22" class="edge">
<title>l2b_spec_a_man&#45;&gt;trans_spec_a_l2b_l3</title>
<path fill="none" stroke="black" d="M1469.83,-350.33C1469.83,-364.66 1469.83,-392.45 1469.83,-392.45 1469.83,-392.45 1605.98,-392.45 1605.98,-392.45"/>
<polygon fill="black" stroke="black" points="1605.98,-395.95 1615.98,-392.45 1605.98,-388.95 1605.98,-395.95"/>
</g>
<!-- l2b_spec_a_odir -->
<g id="node23" class="node">
<title>l2b_spec_a_odir</title>
<ellipse fill="none" stroke="black" cx="1356.49" cy="-666" rx="141.88" ry="18"/>
<text text-anchor="middle" x="1356.49" y="-662.3" font-family="Times,serif" font-size="14.00">L2b_spec_a output path 1..1</text>
</g>
<!-- l2b_spec_a_odir&#45;&gt;trans_spec_a_l2b_l3 -->
<g id="edge23" class="edge">
<title>l2b_spec_a_odir&#45;&gt;trans_spec_a_l2b_l3</title>
<path fill="none" stroke="black" d="M1472.83,-655.3C1472.83,-640.49 1472.83,-615.55 1472.83,-615.55 1472.83,-615.55 1605.99,-615.55 1605.99,-615.55"/>
<polygon fill="black" stroke="black" points="1605.99,-619.05 1615.99,-615.55 1605.99,-612.05 1605.99,-619.05"/>
</g>
<!-- l2b_spec_a_rec -->
<g id="node24" class="node">
<title>l2b_spec_a_rec</title>
<polygon fill="none" stroke="black" points="1433.49,-624 1267.49,-624 1267.49,-600 1433.49,-600 1445.49,-612 1433.49,-624"/>
<text text-anchor="middle" x="1356.49" y="-608.3" font-family="Times,serif" font-size="14.00">L2b_spec_a recipe 1..1</text>
</g>
<!-- l2b_spec_a_rec&#45;&gt;trans_spec_a_l2b_l3 -->
<g id="edge24" class="edge">
<title>l2b_spec_a_rec&#45;&gt;trans_spec_a_l2b_l3</title>
<path fill="none" stroke="black" d="M1445.69,-604.78C1445.69,-604.78 1586.9,-604.78 1586.9,-604.78"/>
<polygon fill="black" stroke="black" points="1586.9,-608.28 1596.9,-604.78 1586.9,-601.28 1586.9,-608.28"/>
</g>
<!-- l2b_spec_a_excicrf -->
<g id="node25" class="node">
<title>l2b_spec_a_excicrf</title>
<polygon fill="none" stroke="black" points="1489.49,-570 1211.49,-570 1211.49,-546 1489.49,-546 1501.49,-558 1489.49,-570"/>
<text text-anchor="middle" x="1356.49" y="-554.3" font-family="Times,serif" font-size="14.00">L2b_spec_a EXCAM ICRF location 1..1</text>
</g>
<!-- l2b_spec_a_excicrf&#45;&gt;trans_spec_a_l2b_l3 -->
<g id="edge25" class="edge">
<title>l2b_spec_a_excicrf&#45;&gt;trans_spec_a_l2b_l3</title>
<path fill="none" stroke="black" d="M1501.88,-558C1501.88,-558 1546.11,-558 1546.11,-558"/>
<polygon fill="black" stroke="black" points="1546.11,-561.5 1556.11,-558 1546.11,-554.5 1546.11,-561.5"/>
</g>
<!-- l2b_spec_a_excfovps -->
<g id="node26" class="node">
<title>l2b_spec_a_excfovps</title>
<polygon fill="none" stroke="black" points="1495.99,-516 1204.99,-516 1204.99,-492 1495.99,-492 1507.99,-504 1495.99,-516"/>
<text text-anchor="middle" x="1356.49" y="-500.3" font-family="Times,serif" font-size="14.00">L2b_spec_a EXCAM FOV pixel scale 1..1</text>
</g>
<!-- l2b_spec_a_excfovps&#45;&gt;trans_spec_a_l2b_l3 -->
<g id="edge26" class="edge">
<title>l2b_spec_a_excfovps&#45;&gt;trans_spec_a_l2b_l3</title>
<path fill="none" stroke="black" d="M1508.23,-504C1508.23,-504 1533.9,-504 1533.9,-504"/>
<polygon fill="black" stroke="black" points="1533.9,-507.5 1543.9,-504 1533.9,-500.5 1533.9,-507.5"/>
</g>
<!-- l2b_spec_a_cfamfo -->
<g id="node27" class="node">
<title>l2b_spec_a_cfamfo</title>
<polygon fill="none" stroke="black" points="1477.99,-462 1222.99,-462 1222.99,-438 1477.99,-438 1489.99,-450 1477.99,-462"/>
<text text-anchor="middle" x="1356.49" y="-446.3" font-family="Times,serif" font-size="14.00">L2b_spec_a CFAM filter offsets 1..1</text>
</g>
<!-- l2b_spec_a_cfamfo&#45;&gt;trans_spec_a_l2b_l3 -->
<g id="edge27" class="edge">
<title>l2b_spec_a_cfamfo&#45;&gt;trans_spec_a_l2b_l3</title>
<path fill="none" stroke="black" d="M1490.14,-450C1490.14,-450 1546.39,-450 1546.39,-450"/>
<polygon fill="black" stroke="black" points="1546.39,-453.5 1556.39,-450 1546.39,-446.5 1546.39,-453.5"/>
</g>
<!-- l3_spec_a_prod&#45;&gt;trans_spec_a_l3_l4 -->
<g id="edge31" class="edge">
<title>l3_spec_a_prod&#45;&gt;trans_spec_a_l3_l4</title>
<path fill="none" stroke="black" stroke-dasharray="5,2" d="M2054.78,-558C2054.78,-558 2152.91,-558 2152.91,-558"/>
<polygon fill="black" stroke="black" points="2152.91,-561.5 2162.91,-558 2152.91,-554.5 2152.91,-561.5"/>
</g>
<!-- l3_spec_a_odir -->
<g id="node30" class="node">
<title>l3_spec_a_odir</title>
<ellipse fill="none" stroke="black" cx="1960.49" cy="-774" rx="135.68" ry="18"/>
<text text-anchor="middle" x="1960.49" y="-770.3" font-family="Times,serif" font-size="14.00">L3_spec_a output path 1..1</text>
</g>
<!-- l3_spec_a_odir&#45;&gt;trans_spec_a_l3_l4 -->
<g id="edge33" class="edge">
<title>l3_spec_a_odir&#45;&gt;trans_spec_a_l3_l4</title>
<path fill="none" stroke="black" d="M2090.83,-768.79C2090.83,-760.95 2090.83,-747 2090.83,-747 2090.83,-747 2186.9,-747 2186.9,-747"/>
<polygon fill="black" stroke="black" points="2186.9,-750.5 2196.9,-747 2186.9,-743.5 2186.9,-750.5"/>
</g>
<!-- l3_spec_a_man&#45;&gt;trans_spec_a_l3_l4 -->
<g id="edge32" class="edge">
<title>l3_spec_a_man&#45;&gt;trans_spec_a_l3_l4</title>
<path fill="none" stroke="black" d="M2068.83,-512.25C2068.83,-520.19 2068.83,-531 2068.83,-531 2068.83,-531 2187.13,-531 2187.13,-531"/>
<polygon fill="black" stroke="black" points="2187.13,-534.5 2197.13,-531 2187.13,-527.5 2187.13,-534.5"/>
</g>
<!-- l3_spec_a_rec -->
<g id="node32" class="node">
<title>l3_spec_a_rec</title>
<polygon fill="none" stroke="black" points="2032.99,-732 1875.99,-732 1875.99,-708 2032.99,-708 2044.99,-720 2032.99,-732"/>
<text text-anchor="middle" x="1960.49" y="-716.3" font-family="Times,serif" font-size="14.00">L3_spec_a recipe 1..1</text>
</g>
<!-- l3_spec_a_rec&#45;&gt;trans_spec_a_l3_l4 -->
<g id="edge34" class="edge">
<title>l3_spec_a_rec&#45;&gt;trans_spec_a_l3_l4</title>
<path fill="none" stroke="black" d="M2045.18,-720C2045.18,-720 2152.85,-720 2152.85,-720"/>
<polygon fill="black" stroke="black" points="2152.85,-723.5 2162.85,-720 2152.85,-716.5 2152.85,-723.5"/>
</g>
<!-- l3_spec_a_dispm -->
<g id="node33" class="node">
<title>l3_spec_a_dispm</title>
<polygon fill="none" stroke="black" points="2071.99,-678 1836.99,-678 1836.99,-654 2071.99,-654 2083.99,-666 2071.99,-678"/>
<text text-anchor="middle" x="1960.49" y="-662.3" font-family="Times,serif" font-size="14.00">L3_spec_a dispersion model 1..1</text>
</g>
<!-- l3_spec_a_dispm&#45;&gt;trans_spec_a_l3_l4 -->
<g id="edge35" class="edge">
<title>l3_spec_a_dispm&#45;&gt;trans_spec_a_l3_l4</title>
<path fill="none" stroke="black" d="M2084.39,-666C2084.39,-666 2125.13,-666 2125.13,-666"/>
<polygon fill="black" stroke="black" points="2125.13,-669.5 2135.13,-666 2125.13,-662.5 2125.13,-669.5"/>
</g>
<!-- l3_spec_a_wavem -->
<g id="node34" class="node">
<title>l3_spec_a_wavem</title>
<polygon fill="none" stroke="black" points="2069.49,-624 1839.49,-624 1839.49,-600 2069.49,-600 2081.49,-612 2069.49,-624"/>
<text text-anchor="middle" x="1960.49" y="-608.3" font-family="Times,serif" font-size="14.00">L3_spec_a wavelength map 1..1</text>
</g>
<!-- l3_spec_a_wavem&#45;&gt;trans_spec_a_l3_l4 -->
<g id="edge36" class="edge">
<title>l3_spec_a_wavem&#45;&gt;trans_spec_a_l3_l4</title>
<path fill="none" stroke="black" d="M2081.84,-612C2081.84,-612 2125.01,-612 2125.01,-612"/>
<polygon fill="black" stroke="black" points="2125.01,-615.5 2135.01,-612 2125.01,-608.5 2125.01,-615.5"/>
</g>
<!-- l4_spec_a_prod&#45;&gt;trans_spec_a_l4_tda -->
<g id="edge40" class="edge">
<title>l4_spec_a_prod&#45;&gt;trans_spec_a_l4_tda</title>
<path fill="none" stroke="black" stroke-dasharray="5,2" d="M2667.17,-693C2740.83,-693 2830.83,-693 2830.83,-693 2830.83,-693 2830.83,-765.62 2830.83,-765.62"/>
<polygon fill="black" stroke="black" points="2827.33,-765.62 2830.83,-775.62 2834.33,-765.62 2827.33,-765.62"/>
</g>
<!-- l4_spec_a_odir -->
<g id="node37" class="node">
<title>l4_spec_a_odir</title>
<ellipse fill="none" stroke="black" cx="2572.99" cy="-1125" rx="135.68" ry="18"/>
<text text-anchor="middle" x="2572.99" y="-1121.3" font-family="Times,serif" font-size="14.00">L4_spec_a output path 1..1</text>
</g>
<!-- l4_spec_a_odir&#45;&gt;trans_spec_a_l4_tda -->
<g id="edge42" class="edge">
<title>l4_spec_a_odir&#45;&gt;trans_spec_a_l4_tda</title>
<path fill="none" stroke="black" d="M2709.03,-1125C2810.93,-1125 2932.83,-1125 2932.83,-1125 2932.83,-1125 2932.83,-1007.1 2932.83,-1007.1"/>
<polygon fill="black" stroke="black" points="2936.33,-1007.1 2932.83,-997.1 2929.33,-1007.1 2936.33,-1007.1"/>
</g>
<!-- l4_spec_a_man&#45;&gt;trans_spec_a_l4_tda -->
<g id="edge41" class="edge">
<title>l4_spec_a_man&#45;&gt;trans_spec_a_l4_tda</title>
<path fill="none" stroke="black" d="M2694.89,-585C2784.9,-585 2891.83,-585 2891.83,-585 2891.83,-585 2891.83,-749.48 2891.83,-749.48"/>
<polygon fill="black" stroke="black" points="2888.33,-749.48 2891.83,-759.48 2895.33,-749.48 2888.33,-749.48"/>
</g>
<!-- l4_spec_a_rec -->
<g id="node40" class="node">
<title>l4_spec_a_rec</title>
<polygon fill="none" stroke="black" points="2645.49,-1083 2488.49,-1083 2488.49,-1059 2645.49,-1059 2657.49,-1071 2645.49,-1083"/>
<text text-anchor="middle" x="2572.99" y="-1067.3" font-family="Times,serif" font-size="14.00">L4_spec_a recipe 1..1</text>
</g>
<!-- l4_spec_a_rec&#45;&gt;trans_spec_a_l4_tda -->
<g id="edge43" class="edge">
<title>l4_spec_a_rec&#45;&gt;trans_spec_a_l4_tda</title>
<path fill="none" stroke="black" d="M2657.86,-1071C2739.57,-1071 2850.83,-1071 2850.83,-1071 2850.83,-1071 2850.83,-1007.66 2850.83,-1007.66"/>
<polygon fill="black" stroke="black" points="2854.33,-1007.66 2850.83,-997.66 2847.33,-1007.66 2854.33,-1007.66"/>
</g>
<!-- l4_spec_a_afcal -->
<g id="node41" class="node">
<title>l4_spec_a_afcal</title>
<polygon fill="none" stroke="black" points="2713.49,-1029 2420.49,-1029 2420.49,-1005 2713.49,-1005 2725.49,-1017 2713.49,-1029"/>
<text text-anchor="middle" x="2572.99" y="-1013.3" font-family="Times,serif" font-size="14.00">L4_spec_a absolute flux calibrations 1..1</text>
</g>
<!-- l4_spec_a_afcal&#45;&gt;trans_spec_a_l4_tda -->
<g id="edge44" class="edge">
<title>l4_spec_a_afcal&#45;&gt;trans_spec_a_l4_tda</title>
<path fill="none" stroke="black" d="M2716.83,-998.84C2716.83,-993.96 2716.83,-990 2716.83,-990 2716.83,-990 2823.7,-990 2823.7,-990"/>
<polygon fill="black" stroke="black" points="2823.7,-993.5 2833.7,-990 2823.7,-986.5 2823.7,-993.5"/>
</g>
<!-- l4_spec_a_ndfilt -->
<g id="node42" class="node">
<title>l4_spec_a_ndfilt</title>
<polygon fill="none" stroke="black" points="2654.49,-975 2479.49,-975 2479.49,-951 2654.49,-951 2666.49,-963 2654.49,-975"/>
<text text-anchor="middle" x="2572.99" y="-959.3" font-family="Times,serif" font-size="14.00">L4_spec_a ND filter 1..1</text>
</g>
<!-- l4_spec_a_ndfilt&#45;&gt;trans_spec_a_l4_tda -->
<g id="edge45" class="edge">
<title>l4_spec_a_ndfilt&#45;&gt;trans_spec_a_l4_tda</title>
<path fill="none" stroke="black" d="M2666.78,-963C2666.78,-963 2789.57,-963 2789.57,-963"/>
<polygon fill="black" stroke="black" points="2789.57,-966.5 2799.57,-963 2789.57,-959.5 2789.57,-966.5"/>
</g>
<!-- l4_spec_a_stmap -->
<g id="node43" class="node">
<title>l4_spec_a_stmap</title>
<polygon fill="none" stroke="black" points="2700.49,-921 2433.49,-921 2433.49,-897 2700.49,-897 2712.49,-909 2700.49,-921"/>
<text text-anchor="middle" x="2572.99" y="-905.3" font-family="Times,serif" font-size="14.00">L4_spec_a slit transmission map 1..1</text>
</g>
<!-- l4_spec_a_stmap&#45;&gt;trans_spec_a_l4_tda -->
<g id="edge46" class="edge">
<title>l4_spec_a_stmap&#45;&gt;trans_spec_a_l4_tda</title>
<path fill="none" stroke="black" d="M2712.61,-909C2712.61,-909 2761.73,-909 2761.73,-909"/>
<polygon fill="black" stroke="black" points="2761.73,-912.5 2771.73,-909 2761.73,-905.5 2761.73,-912.5"/>
</g>
<!-- l4_spec_a_tspi -->
<g id="node44" class="node">
<title>l4_spec_a_tspi</title>
<polygon fill="none" stroke="black" points="2708.99,-867 2424.99,-867 2424.99,-843 2708.99,-843 2720.99,-855 2708.99,-867"/>
<text text-anchor="middle" x="2572.99" y="-851.3" font-family="Times,serif" font-size="14.00">L4_spec_a target star prism image 1..1</text>
</g>
<!-- l4_spec_a_tspi&#45;&gt;trans_spec_a_l4_tda -->
<g id="edge47" class="edge">
<title>l4_spec_a_tspi&#45;&gt;trans_spec_a_l4_tda</title>
<path fill="none" stroke="black" d="M2721.43,-855C2721.43,-855 2761.73,-855 2761.73,-855"/>
<polygon fill="black" stroke="black" points="2761.73,-858.5 2771.73,-855 2761.73,-851.5 2761.73,-858.5"/>
</g>
<!-- l4_spec_a_rspi -->
<g id="node45" class="node">
<title>l4_spec_a_rspi</title>
<polygon fill="none" stroke="black" points="2720.99,-813 2412.99,-813 2412.99,-789 2720.99,-789 2732.99,-801 2720.99,-813"/>
<text text-anchor="middle" x="2572.99" y="-797.3" font-family="Times,serif" font-size="14.00">L4_spec_a reference star prism image 1..1</text>
</g>
<!-- l4_spec_a_rspi&#45;&gt;trans_spec_a_l4_tda -->
<g id="edge48" class="edge">
<title>l4_spec_a_rspi&#45;&gt;trans_spec_a_l4_tda</title>
<path fill="none" stroke="black" d="M2733.08,-801C2733.08,-801 2789.42,-801 2789.42,-801"/>
<polygon fill="black" stroke="black" points="2789.42,-804.5 2799.42,-801 2789.42,-797.5 2789.42,-804.5"/>
</g>
<!-- l4_spec_a_lsf -->
<g id="node46" class="node">
<title>l4_spec_a_lsf</title>
<polygon fill="none" stroke="black" points="2694.49,-759 2439.49,-759 2439.49,-735 2694.49,-735 2706.49,-747 2694.49,-759"/>
<text text-anchor="middle" x="2572.99" y="-743.3" font-family="Times,serif" font-size="14.00">L4_spec_a line spread function 1..1</text>
</g>
<!-- l4_spec_a_lsf&#45;&gt;trans_spec_a_l4_tda -->
<g id="edge49" class="edge">
<title>l4_spec_a_lsf&#45;&gt;trans_spec_a_l4_tda</title>
<path fill="none" stroke="black" d="M2706.64,-744.34C2816.04,-744.34 2952.83,-744.34 2952.83,-744.34 2952.83,-744.34 2952.83,-765.92 2952.83,-765.92"/>
<polygon fill="black" stroke="black" points="2949.33,-765.92 2952.83,-775.92 2956.33,-765.92 2949.33,-765.92"/>
</g>
<!-- tda_spec_a_man -->
<g id="node47" class="node">
<title>tda_spec_a_man</title>
<ellipse fill="none" stroke="black" cx="135.84" cy="-288" rx="129.18" ry="18"/>
<text text-anchor="middle" x="135.84" y="-284.3" font-family="Times,serif" font-size="14.00">TDA_spec_a manifest 1..1</text>
</g>
</g>
</svg>
