<?xml version="1.0" encoding="UTF-8" standalone="no"?>
<!DOCTYPE svg PUBLIC "-//W3C//DTD SVG 1.1//EN"
 "http://www.w3.org/Graphics/SVG/1.1/DTD/svg11.dtd">
<!-- Generated by graphviz version 2.43.0 (0)
 -->
<!-- Title: SpectroscopyPhotonCount Pages: 1 -->
<svg width="3351pt" height="1154pt"
 viewBox="0.00 0.00 3350.67 1153.69" xmlns="http://www.w3.org/2000/svg" xmlns:xlink="http://www.w3.org/1999/xlink">
<g id="graph0" class="graph" transform="scale(1 1) rotate(0) translate(4 1149.69)">
<title>SpectroscopyPhotonCount</title>
<polygon fill="white" stroke="transparent" points="-4,4 -4,-1149.69 3346.67,-1149.69 3346.67,4 -4,4"/>
<!-- trans_spec_pc_l1_l2a -->
<g id="node1" class="node">
<title>trans_spec_pc_l1_l2a</title>
<ellipse fill="none" stroke="black" cx="446.77" cy="-128.69" rx="128.89" ry="128.89"/>
<text text-anchor="middle" x="446.77" y="-132.49" font-family="Times,serif" font-size="14.00">spec_pc Transmutation</text>
<text text-anchor="middle" x="446.77" y="-117.49" font-family="Times,serif" font-size="14.00">L1 to L2a</text>
</g>
<!-- l2a_spec_pc_prod -->
<g id="node11" class="node">
<title>l2a_spec_pc_prod</title>
<polygon fill="none" stroke="black" points="867.46,-200.69 663.46,-200.69 663.46,-164.69 867.46,-164.69 867.46,-200.69"/>
<text text-anchor="middle" x="765.46" y="-178.99" font-family="Times,serif" font-size="14.00">L2a_spec_pc products 1..b</text>
</g>
<!-- trans_spec_pc_l1_l2a&#45;&gt;l2a_spec_pc_prod -->
<g id="edge6" class="edge">
<title>trans_spec_pc_l1_l2a&#45;&gt;l2a_spec_pc_prod</title>
<path fill="none" stroke="black" stroke-dasharray="5,2" d="M563.63,-182.69C563.63,-182.69 653.34,-182.69 653.34,-182.69"/>
<polygon fill="black" stroke="black" points="653.34,-186.19 663.34,-182.69 653.34,-179.19 653.34,-186.19"/>
</g>
<!-- l2a_spec_pc_man -->
<g id="node12" class="node">
<title>l2a_spec_pc_man</title>
<ellipse fill="none" stroke="black" cx="765.46" cy="-128.69" rx="131.88" ry="18"/>
<text text-anchor="middle" x="765.46" y="-124.99" font-family="Times,serif" font-size="14.00">L2a_spec_pc manifest 1..1</text>
</g>
<!-- trans_spec_pc_l1_l2a&#45;&gt;l2a_spec_pc_man -->
<g id="edge7" class="edge">
<title>trans_spec_pc_l1_l2a&#45;&gt;l2a_spec_pc_man</title>
<path fill="none" stroke="black" d="M575.47,-128.69C575.47,-128.69 623.42,-128.69 623.42,-128.69"/>
<polygon fill="black" stroke="black" points="623.42,-132.19 633.42,-128.69 623.42,-125.19 623.42,-132.19"/>
</g>
<!-- l2a_spec_pc_log -->
<g id="node20" class="node">
<title>l2a_spec_pc_log</title>
<ellipse fill="none" stroke="black" cx="765.46" cy="-74.69" rx="105.88" ry="18"/>
<text text-anchor="middle" x="765.46" y="-70.99" font-family="Times,serif" font-size="14.00">L2a log_spec_pc 1..1</text>
</g>
<!-- trans_spec_pc_l1_l2a&#45;&gt;l2a_spec_pc_log -->
<g id="edge8" class="edge">
<title>trans_spec_pc_l1_l2a&#45;&gt;l2a_spec_pc_log</title>
<path fill="none" stroke="black" stroke-dasharray="5,2" d="M563.63,-74.69C563.63,-74.69 649.44,-74.69 649.44,-74.69"/>
<polygon fill="black" stroke="black" points="649.44,-78.19 659.44,-74.69 649.44,-71.19 649.44,-78.19"/>
</g>
<!-- trans_spec_pc_l2a_l2b -->
<g id="node2" class="node">
<title>trans_spec_pc_l2a_l2b</title>
<ellipse fill="none" stroke="black" cx="1084.16" cy="-344.69" rx="128.89" ry="128.89"/>
<text text-anchor="middle" x="1084.16" y="-348.49" font-family="Times,serif" font-size="14.00">spec_pc Transmutation</text>
<text text-anchor="middle" x="1084.16" y="-333.49" font-family="Times,serif" font-size="14.00">L2a to L2b</text>
</g>
<!-- l2b_spec_pc_prod -->
<g id="node21" class="node">
<title>l2b_spec_pc_prod</title>
<polygon fill="none" stroke="black" points="1506.85,-416.69 1301.85,-416.69 1301.85,-380.69 1506.85,-380.69 1506.85,-416.69"/>
<text text-anchor="middle" x="1404.35" y="-394.99" font-family="Times,serif" font-size="14.00">L2b_spec_pc products 1..1</text>
</g>
<!-- trans_spec_pc_l2a_l2b&#45;&gt;l2b_spec_pc_prod -->
<g id="edge17" class="edge">
<title>trans_spec_pc_l2a_l2b&#45;&gt;l2b_spec_pc_prod</title>
<path fill="none" stroke="black" stroke-dasharray="5,2" d="M1201.11,-398.69C1201.11,-398.69 1291.72,-398.69 1291.72,-398.69"/>
<polygon fill="black" stroke="black" points="1291.72,-402.19 1301.72,-398.69 1291.72,-395.19 1291.72,-402.19"/>
</g>
<!-- l2b_spec_pc_man -->
<g id="node22" class="node">
<title>l2b_spec_pc_man</title>
<ellipse fill="none" stroke="black" cx="1404.35" cy="-344.69" rx="132.68" ry="18"/>
<text text-anchor="middle" x="1404.35" y="-340.99" font-family="Times,serif" font-size="14.00">L2b_spec_pc manifest 1..1</text>
</g>
<!-- trans_spec_pc_l2a_l2b&#45;&gt;l2b_spec_pc_man -->
<g id="edge18" class="edge">
<title>trans_spec_pc_l2a_l2b&#45;&gt;l2b_spec_pc_man</title>
<path fill="none" stroke="black" d="M1213.01,-344.69C1213.01,-344.69 1261.58,-344.69 1261.58,-344.69"/>
<polygon fill="black" stroke="black" points="1261.58,-348.19 1271.58,-344.69 1261.58,-341.19 1261.58,-348.19"/>
</g>
<!-- l2b_spec_pc_log -->
<g id="node28" class="node">
<title>l2b_spec_pc_log</title>
<ellipse fill="none" stroke="black" cx="1404.35" cy="-290.69" rx="106.68" ry="18"/>
<text text-anchor="middle" x="1404.35" y="-286.99" font-family="Times,serif" font-size="14.00">L2b_spec_pc log 1..1</text>
</g>
<!-- trans_spec_pc_l2a_l2b&#45;&gt;l2b_spec_pc_log -->
<g id="edge19" class="edge">
<title>trans_spec_pc_l2a_l2b&#45;&gt;l2b_spec_pc_log</title>
<path fill="none" stroke="black" stroke-dasharray="5,2" d="M1201.11,-290.69C1201.11,-290.69 1287.53,-290.69 1287.53,-290.69"/>
<polygon fill="black" stroke="black" points="1287.53,-294.19 1297.53,-290.69 1287.53,-287.19 1287.53,-294.19"/>
</g>
<!-- trans_spec_pc_l2b_l3 -->
<g id="node3" class="node">
<title>trans_spec_pc_l2b_l3</title>
<ellipse fill="none" stroke="black" cx="1724.54" cy="-506.69" rx="128.89" ry="128.89"/>
<text text-anchor="middle" x="1724.54" y="-510.49" font-family="Times,serif" font-size="14.00">spec_pc Transmutation</text>
<text text-anchor="middle" x="1724.54" y="-495.49" font-family="Times,serif" font-size="14.00">L2b to L3</text>
</g>
<!-- l3_spec_pc_prod -->
<g id="node29" class="node">
<title>l3_spec_pc_prod</title>
<polygon fill="none" stroke="black" points="2128.27,-578.69 1932.27,-578.69 1932.27,-542.69 2128.27,-542.69 2128.27,-578.69"/>
<text text-anchor="middle" x="2030.27" y="-556.99" font-family="Times,serif" font-size="14.00">L3_spec_pc products 1..1</text>
</g>
<!-- trans_spec_pc_l2b_l3&#45;&gt;l3_spec_pc_prod -->
<g id="edge28" class="edge">
<title>trans_spec_pc_l2b_l3&#45;&gt;l3_spec_pc_prod</title>
<path fill="none" stroke="black" stroke-dasharray="5,2" d="M1841.43,-560.69C1841.43,-560.69 1921.86,-560.69 1921.86,-560.69"/>
<polygon fill="black" stroke="black" points="1921.86,-564.19 1931.86,-560.69 1921.86,-557.19 1921.86,-564.19"/>
</g>
<!-- l3_spec_pc_man -->
<g id="node31" class="node">
<title>l3_spec_pc_man</title>
<ellipse fill="none" stroke="black" cx="2030.27" cy="-506.69" rx="126.98" ry="18"/>
<text text-anchor="middle" x="2030.27" y="-502.99" font-family="Times,serif" font-size="14.00">L3_spec_pc manifest 1..1</text>
</g>
<!-- trans_spec_pc_l2b_l3&#45;&gt;l3_spec_pc_man -->
<g id="edge29" class="edge">
<title>trans_spec_pc_l2b_l3&#45;&gt;l3_spec_pc_man</title>
<path fill="none" stroke="black" d="M1853.31,-506.69C1853.31,-506.69 1893.12,-506.69 1893.12,-506.69"/>
<polygon fill="black" stroke="black" points="1893.12,-510.19 1903.12,-506.69 1893.12,-503.19 1893.12,-510.19"/>
</g>
<!-- l3_spec_pc_log -->
<g id="node35" class="node">
<title>l3_spec_pc_log</title>
<ellipse fill="none" stroke="black" cx="2030.27" cy="-452.69" rx="100.98" ry="18"/>
<text text-anchor="middle" x="2030.27" y="-448.99" font-family="Times,serif" font-size="14.00">L3_spec_pc log 1..1</text>
</g>
<!-- trans_spec_pc_l2b_l3&#45;&gt;l3_spec_pc_log -->
<g id="edge30" class="edge">
<title>trans_spec_pc_l2b_l3&#45;&gt;l3_spec_pc_log</title>
<path fill="none" stroke="black" stroke-dasharray="5,2" d="M1841.43,-452.69C1841.43,-452.69 1919.41,-452.69 1919.41,-452.69"/>
<polygon fill="black" stroke="black" points="1919.41,-456.19 1929.41,-452.69 1919.41,-449.19 1919.41,-456.19"/>
</g>
<!-- trans_spec_pc_l3_l4 -->
<g id="node4" class="node">
<title>trans_spec_pc_l3_l4</title>
<ellipse fill="none" stroke="black" cx="2336" cy="-641.69" rx="128.89" ry="128.89"/>
<text text-anchor="middle" x="2336" y="-645.49" font-family="Times,serif" font-size="14.00">spec_pc Transmutation</text>
<text text-anchor="middle" x="2336" y="-630.49" font-family="Times,serif" font-size="14.00">L3 to L4</text>
</g>
<!-- l4_spec_pc_prod -->
<g id="node36" class="node">
<title>l4_spec_pc_prod</title>
<polygon fill="none" stroke="black" points="2762.7,-713.69 2566.7,-713.69 2566.7,-677.69 2762.7,-677.69 2762.7,-713.69"/>
<text text-anchor="middle" x="2664.7" y="-691.99" font-family="Times,serif" font-size="14.00">L4_spec_pc products 1..1</text>
</g>
<!-- trans_spec_pc_l3_l4&#45;&gt;l4_spec_pc_prod -->
<g id="edge37" class="edge">
<title>trans_spec_pc_l3_l4&#45;&gt;l4_spec_pc_prod</title>
<path fill="none" stroke="black" stroke-dasharray="5,2" d="M2453.28,-695.69C2453.28,-695.69 2556.46,-695.69 2556.46,-695.69"/>
<polygon fill="black" stroke="black" points="2556.46,-699.19 2566.46,-695.69 2556.46,-692.19 2556.46,-699.19"/>
</g>
<!-- l4_spec_pc_log -->
<g id="node38" class="node">
<title>l4_spec_pc_log</title>
<ellipse fill="none" stroke="black" cx="2664.7" cy="-641.69" rx="100.98" ry="18"/>
<text text-anchor="middle" x="2664.7" y="-637.99" font-family="Times,serif" font-size="14.00">L4_spec_pc log 1..1</text>
</g>
<!-- trans_spec_pc_l3_l4&#45;&gt;l4_spec_pc_log -->
<g id="edge38" class="edge">
<title>trans_spec_pc_l3_l4&#45;&gt;l4_spec_pc_log</title>
<path fill="none" stroke="black" stroke-dasharray="5,2" d="M2464.97,-641.69C2464.97,-641.69 2553.79,-641.69 2553.79,-641.69"/>
<polygon fill="black" stroke="black" points="2553.79,-645.19 2563.79,-641.69 2553.79,-638.19 2553.79,-645.19"/>
</g>
<!-- l4_spec_pc_man -->
<g id="node39" class="node">
<title>l4_spec_pc_man</title>
<ellipse fill="none" stroke="black" cx="2664.7" cy="-587.69" rx="126.98" ry="18"/>
<text text-anchor="middle" x="2664.7" y="-583.99" font-family="Times,serif" font-size="14.00">L4_spec_pc manifest 1..1</text>
</g>
<!-- trans_spec_pc_l3_l4&#45;&gt;l4_spec_pc_man -->
<g id="edge39" class="edge">
<title>trans_spec_pc_l3_l4&#45;&gt;l4_spec_pc_man</title>
<path fill="none" stroke="black" d="M2453.28,-587.69C2453.28,-587.69 2527.72,-587.69 2527.72,-587.69"/>
<polygon fill="black" stroke="black" points="2527.72,-591.19 2537.72,-587.69 2527.72,-584.19 2527.72,-591.19"/>
</g>
<!-- trans_spec_pc_l4_tda -->
<g id="node5" class="node">
<title>trans_spec_pc_l4_tda</title>
<ellipse fill="none" stroke="black" cx="2993.39" cy="-884.69" rx="128.89" ry="128.89"/>
<text text-anchor="middle" x="2993.39" y="-888.49" font-family="Times,serif" font-size="14.00">spec_pc Transmutation</text>
<text text-anchor="middle" x="2993.39" y="-873.49" font-family="Times,serif" font-size="14.00">L4 to TDA</text>
</g>
<!-- tda_spec_pc_prod -->
<g id="node48" class="node">
<title>tda_spec_pc_prod</title>
<ellipse fill="none" stroke="black" cx="3250.38" cy="-911.69" rx="92.08" ry="18"/>
<text text-anchor="middle" x="3250.38" y="-907.99" font-family="Times,serif" font-size="14.00">tda_spec_pc_prod</text>
</g>
<!-- trans_spec_pc_l4_tda&#45;&gt;tda_spec_pc_prod -->
<g id="edge50" class="edge">
<title>trans_spec_pc_l4_tda&#45;&gt;tda_spec_pc_prod</title>
<path fill="none" stroke="black" stroke-dasharray="5,2" d="M3119.25,-911.69C3119.25,-911.69 3147.74,-911.69 3147.74,-911.69"/>
<polygon fill="black" stroke="black" points="3147.74,-915.19 3157.74,-911.69 3147.74,-908.19 3147.74,-915.19"/>
</g>
<!-- tda_spec_pc_log -->
<g id="node49" class="node">
<title>tda_spec_pc_log</title>
<ellipse fill="none" stroke="black" cx="3250.38" cy="-857.69" rx="85.29" ry="18"/>
<text text-anchor="middle" x="3250.38" y="-853.99" font-family="Times,serif" font-size="14.00">tda_spec_pc_log</text>
</g>
<!-- trans_spec_pc_l4_tda&#45;&gt;tda_spec_pc_log -->
<g id="edge51" class="edge">
<title>trans_spec_pc_l4_tda&#45;&gt;tda_spec_pc_log</title>
<path fill="none" stroke="black" stroke-dasharray="5,2" d="M3119.25,-857.69C3119.25,-857.69 3155.04,-857.69 3155.04,-857.69"/>
<polygon fill="black" stroke="black" points="3155.04,-861.19 3165.04,-857.69 3155.04,-854.19 3155.04,-861.19"/>
</g>
<!-- l1_spec_pc_prod -->
<g id="node6" class="node">
<title>l1_spec_pc_prod</title>
<polygon fill="none" stroke="black" points="239.04,-254.69 43.04,-254.69 43.04,-218.69 239.04,-218.69 239.04,-254.69"/>
<text text-anchor="middle" x="141.04" y="-232.99" font-family="Times,serif" font-size="14.00">L1_spec_pc products 1..b</text>
</g>
<!-- l1_spec_pc_prod&#45;&gt;trans_spec_pc_l1_l2a -->
<g id="edge1" class="edge">
<title>l1_spec_pc_prod&#45;&gt;trans_spec_pc_l1_l2a</title>
<path fill="none" stroke="black" stroke-dasharray="5,2" d="M239.46,-236.69C239.46,-236.69 366.63,-236.69 366.63,-236.69"/>
<polygon fill="black" stroke="black" points="366.63,-240.19 376.63,-236.69 366.63,-233.19 366.63,-240.19"/>
</g>
<!-- l1_spec_pc_man -->
<g id="node7" class="node">
<title>l1_spec_pc_man</title>
<ellipse fill="none" stroke="black" cx="141.04" cy="-182.69" rx="126.98" ry="18"/>
<text text-anchor="middle" x="141.04" y="-178.99" font-family="Times,serif" font-size="14.00">L1_spec_pc manifest 1..1</text>
</g>
<!-- l1_spec_pc_man&#45;&gt;trans_spec_pc_l1_l2a -->
<g id="edge2" class="edge">
<title>l1_spec_pc_man&#45;&gt;trans_spec_pc_l1_l2a</title>
<path fill="none" stroke="black" d="M268.04,-182.69C268.04,-182.69 319.95,-182.69 319.95,-182.69"/>
<polygon fill="black" stroke="black" points="319.95,-186.19 329.95,-182.69 319.95,-179.19 319.95,-186.19"/>
</g>
<!-- l1_spec_pc_odir -->
<g id="node8" class="node">
<title>l1_spec_pc_odir</title>
<ellipse fill="none" stroke="black" cx="141.04" cy="-128.69" rx="141.07" ry="18"/>
<text text-anchor="middle" x="141.04" y="-124.99" font-family="Times,serif" font-size="14.00">L1_spec_pc output path 1..1</text>
</g>
<!-- l1_spec_pc_odir&#45;&gt;trans_spec_pc_l1_l2a -->
<g id="edge3" class="edge">
<title>l1_spec_pc_odir&#45;&gt;trans_spec_pc_l1_l2a</title>
<path fill="none" stroke="black" d="M282.27,-128.69C282.27,-128.69 307.93,-128.69 307.93,-128.69"/>
<polygon fill="black" stroke="black" points="307.93,-132.19 317.93,-128.69 307.93,-125.19 307.93,-132.19"/>
</g>
<!-- l1_spec_pc_rec -->
<g id="node9" class="node">
<title>l1_spec_pc_rec</title>
<polygon fill="none" stroke="black" points="217.54,-86.69 52.54,-86.69 52.54,-62.69 217.54,-62.69 229.54,-74.69 217.54,-86.69"/>
<text text-anchor="middle" x="141.04" y="-70.99" font-family="Times,serif" font-size="14.00">L1_spec_pc recipe 1..1</text>
</g>
<!-- l1_spec_pc_rec&#45;&gt;trans_spec_pc_l1_l2a -->
<g id="edge4" class="edge">
<title>l1_spec_pc_rec&#45;&gt;trans_spec_pc_l1_l2a</title>
<path fill="none" stroke="black" d="M229.88,-74.69C229.88,-74.69 319.8,-74.69 319.8,-74.69"/>
<polygon fill="black" stroke="black" points="319.8,-78.19 329.8,-74.69 319.8,-71.19 319.8,-78.19"/>
</g>
<!-- l1_spec_pc_nllut -->
<g id="node10" class="node">
<title>l1_spec_pc_nllut</title>
<polygon fill="none" stroke="black" points="248.54,-32.69 21.54,-32.69 21.54,-8.69 248.54,-8.69 260.54,-20.69 248.54,-32.69"/>
<text text-anchor="middle" x="141.04" y="-16.99" font-family="Times,serif" font-size="14.00">L1_spec_pc non&#45;linear LUT 1..1</text>
</g>
<!-- l1_spec_pc_nllut&#45;&gt;trans_spec_pc_l1_l2a -->
<g id="edge5" class="edge">
<title>l1_spec_pc_nllut&#45;&gt;trans_spec_pc_l1_l2a</title>
<path fill="none" stroke="black" d="M260.55,-20.69C260.55,-20.69 366.35,-20.69 366.35,-20.69"/>
<polygon fill="black" stroke="black" points="366.35,-24.19 376.35,-20.69 366.35,-17.19 366.35,-24.19"/>
</g>
<!-- l2a_spec_pc_prod&#45;&gt;trans_spec_pc_l2a_l2b -->
<g id="edge9" class="edge">
<title>l2a_spec_pc_prod&#45;&gt;trans_spec_pc_l2a_l2b</title>
<path fill="none" stroke="black" stroke-dasharray="5,2" d="M867.78,-182.69C961.14,-182.69 1084.67,-182.69 1084.67,-182.69 1084.67,-182.69 1084.67,-205.87 1084.67,-205.87"/>
<polygon fill="black" stroke="black" points="1081.17,-205.87 1084.67,-215.87 1088.17,-205.87 1081.17,-205.87"/>
</g>
<!-- l2a_spec_pc_man&#45;&gt;trans_spec_pc_l2a_l2b -->
<g id="edge20" class="edge">
<title>l2a_spec_pc_man&#45;&gt;trans_spec_pc_l2a_l2b</title>
<path fill="none" stroke="black" d="M882.67,-137.04C882.67,-161.4 882.67,-230.69 882.67,-230.69 882.67,-230.69 1014.25,-230.69 1014.25,-230.69"/>
<polygon fill="black" stroke="black" points="1014.25,-234.19 1024.25,-230.69 1014.25,-227.19 1014.25,-234.19"/>
</g>
<!-- l2a_spec_pc_odir -->
<g id="node13" class="node">
<title>l2a_spec_pc_odir</title>
<ellipse fill="none" stroke="black" cx="765.46" cy="-562.69" rx="146.47" ry="18"/>
<text text-anchor="middle" x="765.46" y="-558.99" font-family="Times,serif" font-size="14.00">L2a_spec_pc output path 1..1</text>
</g>
<!-- l2a_spec_pc_odir&#45;&gt;trans_spec_pc_l2a_l2b -->
<g id="edge10" class="edge">
<title>l2a_spec_pc_odir&#45;&gt;trans_spec_pc_l2a_l2b</title>
<path fill="none" stroke="black" d="M911.48,-561.69C1012.07,-561.69 1127.67,-561.69 1127.67,-561.69 1127.67,-561.69 1127.67,-475.88 1127.67,-475.88"/>
<polygon fill="black" stroke="black" points="1131.17,-475.88 1127.67,-465.88 1124.17,-475.88 1131.17,-475.88"/>
</g>
<!-- l2a_spec_pc_rec -->
<g id="node14" class="node">
<title>l2a_spec_pc_rec</title>
<polygon fill="none" stroke="black" points="845.96,-520.69 672.96,-520.69 672.96,-496.69 845.96,-496.69 857.96,-508.69 845.96,-520.69"/>
<text text-anchor="middle" x="765.46" y="-504.99" font-family="Times,serif" font-size="14.00">L2a_spec_pc recipe 1..1</text>
</g>
<!-- l2a_spec_pc_rec&#45;&gt;trans_spec_pc_l2a_l2b -->
<g id="edge11" class="edge">
<title>l2a_spec_pc_rec&#45;&gt;trans_spec_pc_l2a_l2b</title>
<path fill="none" stroke="black" d="M858.2,-507.69C938.44,-507.69 1041.67,-507.69 1041.67,-507.69 1041.67,-507.69 1041.67,-476.56 1041.67,-476.56"/>
<polygon fill="black" stroke="black" points="1045.17,-476.56 1041.67,-466.56 1038.17,-476.56 1045.17,-476.56"/>
</g>
<!-- l2a_spec_pc_cti -->
<g id="node15" class="node">
<title>l2a_spec_pc_cti</title>
<polygon fill="none" stroke="black" points="907.46,-466.69 611.46,-466.69 611.46,-442.69 907.46,-442.69 919.46,-454.69 907.46,-466.69"/>
<text text-anchor="middle" x="765.46" y="-450.99" font-family="Times,serif" font-size="14.00">L2a_spec_pc charge xfer inefficiency 1..1</text>
</g>
<!-- l2a_spec_pc_cti&#45;&gt;trans_spec_pc_l2a_l2b -->
<g id="edge12" class="edge">
<title>l2a_spec_pc_cti&#45;&gt;trans_spec_pc_l2a_l2b</title>
<path fill="none" stroke="black" d="M919.67,-454.69C919.67,-454.69 1007.21,-454.69 1007.21,-454.69"/>
<polygon fill="black" stroke="black" points="1007.21,-458.19 1017.21,-454.69 1007.21,-451.19 1007.21,-458.19"/>
</g>
<!-- l2a_spec_pc_dnb -->
<g id="node16" class="node">
<title>l2a_spec_pc_dnb</title>
<polygon fill="none" stroke="black" points="889.46,-412.69 629.46,-412.69 629.46,-386.69 889.46,-386.69 901.46,-399.69 889.46,-412.69"/>
<text text-anchor="middle" x="765.46" y="-403.49" font-family="Times,serif" font-size="14.00">L2a_spec_pc CIC/Dark Current/FPN</text>
<text text-anchor="middle" x="765.46" y="-388.49" font-family="Times,serif" font-size="14.00"> or master dark 1..1</text>
</g>
<!-- l2a_spec_pc_dnb&#45;&gt;trans_spec_pc_l2a_l2b -->
<g id="edge13" class="edge">
<title>l2a_spec_pc_dnb&#45;&gt;trans_spec_pc_l2a_l2b</title>
<path fill="none" stroke="black" d="M901.54,-399.69C901.54,-399.69 957.61,-399.69 957.61,-399.69"/>
<polygon fill="black" stroke="black" points="957.61,-403.19 967.61,-399.69 957.61,-396.19 957.61,-403.19"/>
</g>
<!-- l2a_spec_pc_mbpm -->
<g id="node17" class="node">
<title>l2a_spec_pc_mbpm</title>
<polygon fill="none" stroke="black" points="901.46,-356.69 617.46,-356.69 617.46,-332.69 901.46,-332.69 913.46,-344.69 901.46,-356.69"/>
<text text-anchor="middle" x="765.46" y="-340.99" font-family="Times,serif" font-size="14.00">L2a_spec_pc master bad pixel map 1..1</text>
</g>
<!-- l2a_spec_pc_mbpm&#45;&gt;trans_spec_pc_l2a_l2b -->
<g id="edge14" class="edge">
<title>l2a_spec_pc_mbpm&#45;&gt;trans_spec_pc_l2a_l2b</title>
<path fill="none" stroke="black" d="M913.61,-344.69C913.61,-344.69 944.98,-344.69 944.98,-344.69"/>
<polygon fill="black" stroke="black" points="944.98,-348.19 954.98,-344.69 944.98,-341.19 944.98,-348.19"/>
</g>
<!-- l2a_spec_pc_kgain -->
<g id="node18" class="node">
<title>l2a_spec_pc_kgain</title>
<polygon fill="none" stroke="black" points="844.46,-302.69 674.46,-302.69 674.46,-278.69 844.46,-278.69 856.46,-290.69 844.46,-302.69"/>
<text text-anchor="middle" x="765.46" y="-286.99" font-family="Times,serif" font-size="14.00">L2a_spec_pc Kgain 1..1</text>
</g>
<!-- l2a_spec_pc_kgain&#45;&gt;trans_spec_pc_l2a_l2b -->
<g id="edge16" class="edge">
<title>l2a_spec_pc_kgain&#45;&gt;trans_spec_pc_l2a_l2b</title>
<path fill="none" stroke="black" d="M856.79,-290.69C856.79,-290.69 957.2,-290.69 957.2,-290.69"/>
<polygon fill="black" stroke="black" points="957.2,-294.19 967.2,-290.69 957.2,-287.19 957.2,-294.19"/>
</g>
<!-- l2a_spec_pc_emg -->
<g id="node19" class="node">
<title>l2a_spec_pc_emg</title>
<polygon fill="none" stroke="black" points="853.96,-248.69 664.96,-248.69 664.96,-224.69 853.96,-224.69 865.96,-236.69 853.96,-248.69"/>
<text text-anchor="middle" x="765.46" y="-232.99" font-family="Times,serif" font-size="14.00">L2a_spec_pc EM gain 1..1</text>
</g>
<!-- l2a_spec_pc_emg&#45;&gt;trans_spec_pc_l2a_l2b -->
<g id="edge15" class="edge">
<title>l2a_spec_pc_emg&#45;&gt;trans_spec_pc_l2a_l2b</title>
<path fill="none" stroke="black" d="M866.3,-242.69C866.3,-242.69 995.43,-242.69 995.43,-242.69"/>
<polygon fill="black" stroke="black" points="995.43,-246.19 1005.43,-242.69 995.43,-239.19 995.43,-246.19"/>
</g>
<!-- l2b_spec_pc_prod&#45;&gt;trans_spec_pc_l2b_l3 -->
<g id="edge21" class="edge">
<title>l2b_spec_pc_prod&#45;&gt;trans_spec_pc_l2b_l3</title>
<path fill="none" stroke="black" stroke-dasharray="5,2" d="M1506.98,-404.69C1506.98,-404.69 1635.83,-404.69 1635.83,-404.69"/>
<polygon fill="black" stroke="black" points="1635.83,-408.19 1645.83,-404.69 1635.83,-401.19 1635.83,-408.19"/>
</g>
<!-- l2b_spec_pc_man&#45;&gt;trans_spec_pc_l2b_l3 -->
<g id="edge22" class="edge">
<title>l2b_spec_pc_man&#45;&gt;trans_spec_pc_l2b_l3</title>
<path fill="none" stroke="black" d="M1522.67,-353.05C1522.67,-366.81 1522.67,-392.69 1522.67,-392.69 1522.67,-392.69 1654.79,-392.69 1654.79,-392.69"/>
<polygon fill="black" stroke="black" points="1654.79,-396.19 1664.79,-392.69 1654.79,-389.19 1654.79,-396.19"/>
</g>
<!-- l2b_spec_pc_odir -->
<g id="node23" class="node">
<title>l2b_spec_pc_odir</title>
<ellipse fill="none" stroke="black" cx="1404.35" cy="-668.69" rx="146.77" ry="18"/>
<text text-anchor="middle" x="1404.35" y="-664.99" font-family="Times,serif" font-size="14.00">L2b_spec_pc output path 1..1</text>
</g>
<!-- l2b_spec_pc_odir&#45;&gt;trans_spec_pc_l2b_l3 -->
<g id="edge23" class="edge">
<title>l2b_spec_pc_odir&#45;&gt;trans_spec_pc_l2b_l3</title>
<path fill="none" stroke="black" d="M1524.67,-658.04C1524.67,-643.9 1524.67,-620.69 1524.67,-620.69 1524.67,-620.69 1654.57,-620.69 1654.57,-620.69"/>
<polygon fill="black" stroke="black" points="1654.57,-624.19 1664.57,-620.69 1654.57,-617.19 1654.57,-624.19"/>
</g>
<!-- l2b_spec_pc_rec -->
<g id="node24" class="node">
<title>l2b_spec_pc_rec</title>
<polygon fill="none" stroke="black" points="1485.35,-626.69 1311.35,-626.69 1311.35,-602.69 1485.35,-602.69 1497.35,-614.69 1485.35,-626.69"/>
<text text-anchor="middle" x="1404.35" y="-610.99" font-family="Times,serif" font-size="14.00">L2b_spec_pc recipe 1..1</text>
</g>
<!-- l2b_spec_pc_rec&#45;&gt;trans_spec_pc_l2b_l3 -->
<g id="edge24" class="edge">
<title>l2b_spec_pc_rec&#45;&gt;trans_spec_pc_l2b_l3</title>
<path fill="none" stroke="black" d="M1497.39,-608.69C1497.39,-608.69 1635.89,-608.69 1635.89,-608.69"/>
<polygon fill="black" stroke="black" points="1635.89,-612.19 1645.89,-608.69 1635.89,-605.19 1635.89,-612.19"/>
</g>
<!-- l2b_spec_pc_excicrf -->
<g id="node25" class="node">
<title>l2b_spec_pc_excicrf</title>
<polygon fill="none" stroke="black" points="1541.35,-572.69 1255.35,-572.69 1255.35,-548.69 1541.35,-548.69 1553.35,-560.69 1541.35,-572.69"/>
<text text-anchor="middle" x="1404.35" y="-556.99" font-family="Times,serif" font-size="14.00">L2b_spec_pc EXCAM ICRF location 1..1</text>
</g>
<!-- l2b_spec_pc_excicrf&#45;&gt;trans_spec_pc_l2b_l3 -->
<g id="edge25" class="edge">
<title>l2b_spec_pc_excicrf&#45;&gt;trans_spec_pc_l2b_l3</title>
<path fill="none" stroke="black" d="M1553.66,-560.69C1553.66,-560.69 1597.58,-560.69 1597.58,-560.69"/>
<polygon fill="black" stroke="black" points="1597.58,-564.19 1607.58,-560.69 1597.58,-557.19 1597.58,-564.19"/>
</g>
<!-- l2b_spec_pc_excfovps -->
<g id="node26" class="node">
<title>l2b_spec_pc_excfovps</title>
<polygon fill="none" stroke="black" points="1547.85,-518.69 1248.85,-518.69 1248.85,-494.69 1547.85,-494.69 1559.85,-506.69 1547.85,-518.69"/>
<text text-anchor="middle" x="1404.35" y="-502.99" font-family="Times,serif" font-size="14.00">L2b_spec_pc EXCAM FOV pixel scale 1..1</text>
</g>
<!-- l2b_spec_pc_excfovps&#45;&gt;trans_spec_pc_l2b_l3 -->
<g id="edge26" class="edge">
<title>l2b_spec_pc_excfovps&#45;&gt;trans_spec_pc_l2b_l3</title>
<path fill="none" stroke="black" d="M1560.22,-506.69C1560.22,-506.69 1585.84,-506.69 1585.84,-506.69"/>
<polygon fill="black" stroke="black" points="1585.84,-510.19 1595.84,-506.69 1585.84,-503.19 1585.84,-510.19"/>
</g>
<!-- l2b_spec_pc_cfamfo -->
<g id="node27" class="node">
<title>l2b_spec_pc_cfamfo</title>
<polygon fill="none" stroke="black" points="1529.85,-464.69 1266.85,-464.69 1266.85,-440.69 1529.85,-440.69 1541.85,-452.69 1529.85,-464.69"/>
<text text-anchor="middle" x="1404.35" y="-448.99" font-family="Times,serif" font-size="14.00">L2b_spec_pc CFAM filter offsets 1..1</text>
</g>
<!-- l2b_spec_pc_cfamfo&#45;&gt;trans_spec_pc_l2b_l3 -->
<g id="edge27" class="edge">
<title>l2b_spec_pc_cfamfo&#45;&gt;trans_spec_pc_l2b_l3</title>
<path fill="none" stroke="black" d="M1542,-452.69C1542,-452.69 1597.63,-452.69 1597.63,-452.69"/>
<polygon fill="black" stroke="black" points="1597.63,-456.19 1607.63,-452.69 1597.63,-449.19 1597.63,-456.19"/>
</g>
<!-- l3_spec_pc_prod&#45;&gt;trans_spec_pc_l3_l4 -->
<g id="edge31" class="edge">
<title>l3_spec_pc_prod&#45;&gt;trans_spec_pc_l3_l4</title>
<path fill="none" stroke="black" stroke-dasharray="5,2" d="M2128.69,-560.69C2128.69,-560.69 2225.93,-560.69 2225.93,-560.69"/>
<polygon fill="black" stroke="black" points="2225.93,-564.19 2235.93,-560.69 2225.93,-557.19 2225.93,-564.19"/>
</g>
<!-- l3_spec_pc_odir -->
<g id="node30" class="node">
<title>l3_spec_pc_odir</title>
<ellipse fill="none" stroke="black" cx="2030.27" cy="-776.69" rx="141.07" ry="18"/>
<text text-anchor="middle" x="2030.27" y="-772.99" font-family="Times,serif" font-size="14.00">L3_spec_pc output path 1..1</text>
</g>
<!-- l3_spec_pc_odir&#45;&gt;trans_spec_pc_l3_l4 -->
<g id="edge33" class="edge">
<title>l3_spec_pc_odir&#45;&gt;trans_spec_pc_l3_l4</title>
<path fill="none" stroke="black" d="M2134.63,-764.54C2134.63,-764.54 2287.54,-764.54 2287.54,-764.54"/>
<polygon fill="black" stroke="black" points="2287.54,-768.04 2297.54,-764.54 2287.54,-761.04 2287.54,-768.04"/>
</g>
<!-- l3_spec_pc_man&#45;&gt;trans_spec_pc_l3_l4 -->
<g id="edge32" class="edge">
<title>l3_spec_pc_man&#45;&gt;trans_spec_pc_l3_l4</title>
<path fill="none" stroke="black" d="M2124.08,-518.85C2124.08,-518.85 2287.45,-518.85 2287.45,-518.85"/>
<polygon fill="black" stroke="black" points="2287.45,-522.35 2297.45,-518.85 2287.45,-515.35 2287.45,-522.35"/>
</g>
<!-- l3_spec_pc_rec -->
<g id="node32" class="node">
<title>l3_spec_pc_rec</title>
<polygon fill="none" stroke="black" points="2106.77,-734.69 1941.77,-734.69 1941.77,-710.69 2106.77,-710.69 2118.77,-722.69 2106.77,-734.69"/>
<text text-anchor="middle" x="2030.27" y="-718.99" font-family="Times,serif" font-size="14.00">L3_spec_pc recipe 1..1</text>
</g>
<!-- l3_spec_pc_rec&#45;&gt;trans_spec_pc_l3_l4 -->
<g id="edge34" class="edge">
<title>l3_spec_pc_rec&#45;&gt;trans_spec_pc_l3_l4</title>
<path fill="none" stroke="black" d="M2119.11,-722.69C2119.11,-722.69 2225.93,-722.69 2225.93,-722.69"/>
<polygon fill="black" stroke="black" points="2225.93,-726.19 2235.93,-722.69 2225.93,-719.19 2225.93,-726.19"/>
</g>
<!-- l3_spec_pc_dispm -->
<g id="node33" class="node">
<title>l3_spec_pc_dispm</title>
<polygon fill="none" stroke="black" points="2145.77,-680.69 1902.77,-680.69 1902.77,-656.69 2145.77,-656.69 2157.77,-668.69 2145.77,-680.69"/>
<text text-anchor="middle" x="2030.27" y="-664.99" font-family="Times,serif" font-size="14.00">L3_spec_pc dispersion model 1..1</text>
</g>
<!-- l3_spec_pc_dispm&#45;&gt;trans_spec_pc_l3_l4 -->
<g id="edge35" class="edge">
<title>l3_spec_pc_dispm&#45;&gt;trans_spec_pc_l3_l4</title>
<path fill="none" stroke="black" d="M2158.16,-668.69C2158.16,-668.69 2200.1,-668.69 2200.1,-668.69"/>
<polygon fill="black" stroke="black" points="2200.1,-672.19 2210.1,-668.69 2200.1,-665.19 2200.1,-672.19"/>
</g>
<!-- l3_spec_pc_wavem -->
<g id="node34" class="node">
<title>l3_spec_pc_wavem</title>
<polygon fill="none" stroke="black" points="2143.77,-626.69 1904.77,-626.69 1904.77,-602.69 2143.77,-602.69 2155.77,-614.69 2143.77,-626.69"/>
<text text-anchor="middle" x="2030.27" y="-610.99" font-family="Times,serif" font-size="14.00">L3_spec_pc wavelength map 1..1</text>
</g>
<!-- l3_spec_pc_wavem&#45;&gt;trans_spec_pc_l3_l4 -->
<g id="edge36" class="edge">
<title>l3_spec_pc_wavem&#45;&gt;trans_spec_pc_l3_l4</title>
<path fill="none" stroke="black" d="M2155.95,-614.69C2155.95,-614.69 2199.83,-614.69 2199.83,-614.69"/>
<polygon fill="black" stroke="black" points="2199.83,-618.19 2209.83,-614.69 2199.83,-611.19 2199.83,-618.19"/>
</g>
<!-- l4_spec_pc_prod&#45;&gt;trans_spec_pc_l4_tda -->
<g id="edge40" class="edge">
<title>l4_spec_pc_prod&#45;&gt;trans_spec_pc_l4_tda</title>
<path fill="none" stroke="black" stroke-dasharray="5,2" d="M2762.71,-695.69C2845.49,-695.69 2950.67,-695.69 2950.67,-695.69 2950.67,-695.69 2950.67,-753.13 2950.67,-753.13"/>
<polygon fill="black" stroke="black" points="2947.17,-753.13 2950.67,-763.13 2954.17,-753.13 2947.17,-753.13"/>
</g>
<!-- l4_spec_pc_odir -->
<g id="node37" class="node">
<title>l4_spec_pc_odir</title>
<ellipse fill="none" stroke="black" cx="2664.7" cy="-1127.69" rx="141.07" ry="18"/>
<text text-anchor="middle" x="2664.7" y="-1123.99" font-family="Times,serif" font-size="14.00">L4_spec_pc output path 1..1</text>
</g>
<!-- l4_spec_pc_odir&#45;&gt;trans_spec_pc_l4_tda -->
<g id="edge42" class="edge">
<title>l4_spec_pc_odir&#45;&gt;trans_spec_pc_l4_tda</title>
<path fill="none" stroke="black" d="M2805.85,-1127.69C2911.08,-1127.69 3036.67,-1127.69 3036.67,-1127.69 3036.67,-1127.69 3036.67,-1016.19 3036.67,-1016.19"/>
<polygon fill="black" stroke="black" points="3040.17,-1016.19 3036.67,-1006.19 3033.17,-1016.19 3040.17,-1016.19"/>
</g>
<!-- l4_spec_pc_man&#45;&gt;trans_spec_pc_l4_tda -->
<g id="edge41" class="edge">
<title>l4_spec_pc_man&#45;&gt;trans_spec_pc_l4_tda</title>
<path fill="none" stroke="black" d="M2791.67,-587.69C2899.43,-587.69 3036.67,-587.69 3036.67,-587.69 3036.67,-587.69 3036.67,-753.46 3036.67,-753.46"/>
<polygon fill="black" stroke="black" points="3033.17,-753.46 3036.67,-763.46 3040.17,-753.46 3033.17,-753.46"/>
</g>
<!-- l4_spec_pc_rec -->
<g id="node40" class="node">
<title>l4_spec_pc_rec</title>
<polygon fill="none" stroke="black" points="2741.2,-1085.69 2576.2,-1085.69 2576.2,-1061.69 2741.2,-1061.69 2753.2,-1073.69 2741.2,-1085.69"/>
<text text-anchor="middle" x="2664.7" y="-1069.99" font-family="Times,serif" font-size="14.00">L4_spec_pc recipe 1..1</text>
</g>
<!-- l4_spec_pc_rec&#45;&gt;trans_spec_pc_l4_tda -->
<g id="edge43" class="edge">
<title>l4_spec_pc_rec&#45;&gt;trans_spec_pc_l4_tda</title>
<path fill="none" stroke="black" d="M2753.22,-1073.69C2837.21,-1073.69 2950.67,-1073.69 2950.67,-1073.69 2950.67,-1073.69 2950.67,-1016.26 2950.67,-1016.26"/>
<polygon fill="black" stroke="black" points="2954.17,-1016.26 2950.67,-1006.26 2947.17,-1016.26 2954.17,-1016.26"/>
</g>
<!-- l4_spec_pc_afcal -->
<g id="node41" class="node">
<title>l4_spec_pc_afcal</title>
<polygon fill="none" stroke="black" points="2809.2,-1031.69 2508.2,-1031.69 2508.2,-1007.69 2809.2,-1007.69 2821.2,-1019.69 2809.2,-1031.69"/>
<text text-anchor="middle" x="2664.7" y="-1015.99" font-family="Times,serif" font-size="14.00">L4_spec_pc absolute flux calibrations 1..1</text>
</g>
<!-- l4_spec_pc_afcal&#45;&gt;trans_spec_pc_l4_tda -->
<g id="edge44" class="edge">
<title>l4_spec_pc_afcal&#45;&gt;trans_spec_pc_l4_tda</title>
<path fill="none" stroke="black" d="M2821.34,-1007.54C2821.34,-1007.54 2944.84,-1007.54 2944.84,-1007.54"/>
<polygon fill="black" stroke="black" points="2944.84,-1011.04 2954.84,-1007.54 2944.84,-1004.04 2944.84,-1011.04"/>
</g>
<!-- l4_spec_pc_ndfilt -->
<g id="node42" class="node">
<title>l4_spec_pc_ndfilt</title>
<polygon fill="none" stroke="black" points="2750.2,-977.69 2567.2,-977.69 2567.2,-953.69 2750.2,-953.69 2762.2,-965.69 2750.2,-977.69"/>
<text text-anchor="middle" x="2664.7" y="-961.99" font-family="Times,serif" font-size="14.00">L4_spec_pc ND filter 1..1</text>
</g>
<!-- l4_spec_pc_ndfilt&#45;&gt;trans_spec_pc_l4_tda -->
<g id="edge45" class="edge">
<title>l4_spec_pc_ndfilt&#45;&gt;trans_spec_pc_l4_tda</title>
<path fill="none" stroke="black" d="M2762.43,-965.69C2762.43,-965.69 2883.19,-965.69 2883.19,-965.69"/>
<polygon fill="black" stroke="black" points="2883.19,-969.19 2893.19,-965.69 2883.19,-962.19 2883.19,-969.19"/>
</g>
<!-- l4_spec_pc_stmap -->
<g id="node43" class="node">
<title>l4_spec_pc_stmap</title>
<polygon fill="none" stroke="black" points="2796.2,-923.69 2521.2,-923.69 2521.2,-899.69 2796.2,-899.69 2808.2,-911.69 2796.2,-923.69"/>
<text text-anchor="middle" x="2664.7" y="-907.99" font-family="Times,serif" font-size="14.00">L4_spec_pc slit transmission map 1..1</text>
</g>
<!-- l4_spec_pc_stmap&#45;&gt;trans_spec_pc_l4_tda -->
<g id="edge46" class="edge">
<title>l4_spec_pc_stmap&#45;&gt;trans_spec_pc_l4_tda</title>
<path fill="none" stroke="black" d="M2808.39,-911.69C2808.39,-911.69 2857.52,-911.69 2857.52,-911.69"/>
<polygon fill="black" stroke="black" points="2857.52,-915.19 2867.52,-911.69 2857.52,-908.19 2857.52,-915.19"/>
</g>
<!-- l4_spec_pc_tspi -->
<g id="node44" class="node">
<title>l4_spec_pc_tspi</title>
<polygon fill="none" stroke="black" points="2804.7,-869.69 2512.7,-869.69 2512.7,-845.69 2804.7,-845.69 2816.7,-857.69 2804.7,-869.69"/>
<text text-anchor="middle" x="2664.7" y="-853.99" font-family="Times,serif" font-size="14.00">L4_spec_pc target star prism image 1..1</text>
</g>
<!-- l4_spec_pc_tspi&#45;&gt;trans_spec_pc_l4_tda -->
<g id="edge47" class="edge">
<title>l4_spec_pc_tspi&#45;&gt;trans_spec_pc_l4_tda</title>
<path fill="none" stroke="black" d="M2817.02,-857.69C2817.02,-857.69 2857.19,-857.69 2857.19,-857.69"/>
<polygon fill="black" stroke="black" points="2857.19,-861.19 2867.19,-857.69 2857.19,-854.19 2857.19,-861.19"/>
</g>
<!-- l4_spec_pc_rspi -->
<g id="node45" class="node">
<title>l4_spec_pc_rspi</title>
<polygon fill="none" stroke="black" points="2816.7,-815.69 2500.7,-815.69 2500.7,-791.69 2816.7,-791.69 2828.7,-803.69 2816.7,-815.69"/>
<text text-anchor="middle" x="2664.7" y="-799.99" font-family="Times,serif" font-size="14.00">L4_spec_pc reference star prism image 1..1</text>
</g>
<!-- l4_spec_pc_rspi&#45;&gt;trans_spec_pc_l4_tda -->
<g id="edge48" class="edge">
<title>l4_spec_pc_rspi&#45;&gt;trans_spec_pc_l4_tda</title>
<path fill="none" stroke="black" d="M2829.04,-803.69C2829.04,-803.69 2882.99,-803.69 2882.99,-803.69"/>
<polygon fill="black" stroke="black" points="2882.99,-807.19 2892.99,-803.69 2882.99,-800.19 2882.99,-807.19"/>
</g>
<!-- l4_spec_pc_lsf -->
<g id="node46" class="node">
<title>l4_spec_pc_lsf</title>
<polygon fill="none" stroke="black" points="2790.2,-761.69 2527.2,-761.69 2527.2,-737.69 2790.2,-737.69 2802.2,-749.69 2790.2,-761.69"/>
<text text-anchor="middle" x="2664.7" y="-745.99" font-family="Times,serif" font-size="14.00">L4_spec_pc line spread function 1..1</text>
</g>
<!-- l4_spec_pc_lsf&#45;&gt;trans_spec_pc_l4_tda -->
<g id="edge49" class="edge">
<title>l4_spec_pc_lsf&#45;&gt;trans_spec_pc_l4_tda</title>
<path fill="none" stroke="black" d="M2802.66,-761.85C2802.66,-761.85 2944.99,-761.85 2944.99,-761.85"/>
<polygon fill="black" stroke="black" points="2944.99,-765.35 2954.99,-761.85 2944.99,-758.35 2944.99,-765.35"/>
</g>
<!-- tda_spec_pc_man -->
<g id="node47" class="node">
<title>tda_spec_pc_man</title>
<ellipse fill="none" stroke="black" cx="141.04" cy="-290.69" rx="134.58" ry="18"/>
<text text-anchor="middle" x="141.04" y="-286.99" font-family="Times,serif" font-size="14.00">TDA_spec_pc manifest 1..1</text>
</g>
</g>
</svg>
