<?xml version="1.0" encoding="UTF-8" standalone="no"?>
<!DOCTYPE svg PUBLIC "-//W3C//DTD SVG 1.1//EN"
 "http://www.w3.org/Graphics/SVG/1.1/DTD/svg11.dtd">
<!-- Generated by graphviz version 2.43.0 (0)
 -->
<!-- Title: WideFieldOfViewAnalog Pages: 1 -->
<svg width="3579pt" height="1097pt"
 viewBox="0.00 0.00 3579.49 1097.00" xmlns="http://www.w3.org/2000/svg" xmlns:xlink="http://www.w3.org/1999/xlink">
<g id="graph0" class="graph" transform="scale(1 1) rotate(0) translate(4 1093)">
<title>WideFieldOfViewAnalog</title>
<polygon fill="white" stroke="transparent" points="-4,4 -4,-1093 3575.49,-1093 3575.49,4 -4,4"/>
<!-- trans_wfov_a_l1_l2a -->
<g id="node1" class="node">
<title>trans_wfov_a_l1_l2a</title>
<ellipse fill="none" stroke="black" cx="489.91" cy="-126" rx="123.99" ry="123.99"/>
<text text-anchor="middle" x="489.91" y="-129.8" font-family="Times,serif" font-size="14.00">wfov_a Transmutation</text>
<text text-anchor="middle" x="489.91" y="-114.8" font-family="Times,serif" font-size="14.00">L1 to L2a</text>
</g>
<!-- l2a_wfov_a_prod -->
<g id="node11" class="node">
<title>l2a_wfov_a_prod</title>
<polygon fill="none" stroke="black" points="915.19,-225 718.19,-225 718.19,-189 915.19,-189 915.19,-225"/>
<text text-anchor="middle" x="816.69" y="-203.3" font-family="Times,serif" font-size="14.00">L2a_wfov_a products 1..b</text>
</g>
<!-- trans_wfov_a_l1_l2a&#45;&gt;l2a_wfov_a_prod -->
<g id="edge6" class="edge">
<title>trans_wfov_a_l1_l2a&#45;&gt;l2a_wfov_a_prod</title>
<path fill="none" stroke="black" stroke-dasharray="5,2" d="M583.56,-207C583.56,-207 707.91,-207 707.91,-207"/>
<polygon fill="black" stroke="black" points="707.91,-210.5 717.91,-207 707.91,-203.5 707.91,-210.5"/>
</g>
<!-- l2a_wfov_a_man -->
<g id="node12" class="node">
<title>l2a_wfov_a_man</title>
<ellipse fill="none" stroke="black" cx="816.69" cy="-153" rx="167.07" ry="18"/>
<text text-anchor="middle" x="816.69" y="-149.3" font-family="Times,serif" font-size="14.00">L2a_wfov_a product manifest 1..1</text>
</g>
<!-- trans_wfov_a_l1_l2a&#45;&gt;l2a_wfov_a_man -->
<g id="edge7" class="edge">
<title>trans_wfov_a_l1_l2a&#45;&gt;l2a_wfov_a_man</title>
<path fill="none" stroke="black" d="M611.13,-153C611.13,-153 639.47,-153 639.47,-153"/>
<polygon fill="black" stroke="black" points="639.47,-156.5 649.47,-153 639.47,-149.5 639.47,-156.5"/>
</g>
<!-- l2a_wfov_a_log -->
<g id="node21" class="node">
<title>l2a_wfov_a_log</title>
<ellipse fill="none" stroke="black" cx="816.69" cy="-99" rx="101.28" ry="18"/>
<text text-anchor="middle" x="816.69" y="-95.3" font-family="Times,serif" font-size="14.00">L2a log_wfov_a 1..1</text>
</g>
<!-- trans_wfov_a_l1_l2a&#45;&gt;l2a_wfov_a_log -->
<g id="edge8" class="edge">
<title>trans_wfov_a_l1_l2a&#45;&gt;l2a_wfov_a_log</title>
<path fill="none" stroke="black" stroke-dasharray="5,2" d="M611.13,-99C611.13,-99 705.21,-99 705.21,-99"/>
<polygon fill="black" stroke="black" points="705.21,-102.5 715.21,-99 705.21,-95.5 705.21,-102.5"/>
</g>
<!-- l2a_wfov_a_src -->
<g id="node47" class="node">
<title>l2a_wfov_a_src</title>
<ellipse fill="none" stroke="black" cx="816.69" cy="-45" rx="161.37" ry="18"/>
<text text-anchor="middle" x="816.69" y="-41.3" font-family="Times,serif" font-size="14.00">L2a_wfov_a source manifest 1..1</text>
</g>
<!-- trans_wfov_a_l1_l2a&#45;&gt;l2a_wfov_a_src -->
<g id="edge49" class="edge">
<title>trans_wfov_a_l1_l2a&#45;&gt;l2a_wfov_a_src</title>
<path fill="none" stroke="black" d="M583.56,-45C583.56,-45 645.46,-45 645.46,-45"/>
<polygon fill="black" stroke="black" points="645.46,-48.5 655.46,-45 645.46,-41.5 645.46,-48.5"/>
</g>
<!-- trans_wfov_a_l2a_l2b -->
<g id="node2" class="node">
<title>trans_wfov_a_l2a_l2b</title>
<ellipse fill="none" stroke="black" cx="1143.47" cy="-396" rx="123.99" ry="123.99"/>
<text text-anchor="middle" x="1143.47" y="-399.8" font-family="Times,serif" font-size="14.00">wfov_a Transmutation</text>
<text text-anchor="middle" x="1143.47" y="-384.8" font-family="Times,serif" font-size="14.00">L2a to L2b</text>
</g>
<!-- l2b_wfov_a_prod -->
<g id="node22" class="node">
<title>l2b_wfov_a_prod</title>
<polygon fill="none" stroke="black" points="1569.25,-495 1371.25,-495 1371.25,-459 1569.25,-459 1569.25,-495"/>
<text text-anchor="middle" x="1470.25" y="-473.3" font-family="Times,serif" font-size="14.00">L2b_wfov_a products 1..1</text>
</g>
<!-- trans_wfov_a_l2a_l2b&#45;&gt;l2b_wfov_a_prod -->
<g id="edge18" class="edge">
<title>trans_wfov_a_l2a_l2b&#45;&gt;l2b_wfov_a_prod</title>
<path fill="none" stroke="black" stroke-dasharray="5,2" d="M1237.11,-477C1237.11,-477 1361.18,-477 1361.18,-477"/>
<polygon fill="black" stroke="black" points="1361.18,-480.5 1371.18,-477 1361.18,-473.5 1361.18,-480.5"/>
</g>
<!-- l2b_wfov_a_man -->
<g id="node23" class="node">
<title>l2b_wfov_a_man</title>
<ellipse fill="none" stroke="black" cx="1470.25" cy="-423" rx="167.07" ry="18"/>
<text text-anchor="middle" x="1470.25" y="-419.3" font-family="Times,serif" font-size="14.00">L2b_wfov_a product manifest 1..1</text>
</g>
<!-- trans_wfov_a_l2a_l2b&#45;&gt;l2b_wfov_a_man -->
<g id="edge19" class="edge">
<title>trans_wfov_a_l2a_l2b&#45;&gt;l2b_wfov_a_man</title>
<path fill="none" stroke="black" d="M1264.69,-423C1264.69,-423 1293.03,-423 1293.03,-423"/>
<polygon fill="black" stroke="black" points="1293.03,-426.5 1303.03,-423 1293.03,-419.5 1293.03,-426.5"/>
</g>
<!-- l2b_wfov_a_log -->
<g id="node29" class="node">
<title>l2b_wfov_a_log</title>
<ellipse fill="none" stroke="black" cx="1470.25" cy="-369" rx="102.08" ry="18"/>
<text text-anchor="middle" x="1470.25" y="-365.3" font-family="Times,serif" font-size="14.00">L2b_wfov_a log 1..1</text>
</g>
<!-- trans_wfov_a_l2a_l2b&#45;&gt;l2b_wfov_a_log -->
<g id="edge20" class="edge">
<title>trans_wfov_a_l2a_l2b&#45;&gt;l2b_wfov_a_log</title>
<path fill="none" stroke="black" stroke-dasharray="5,2" d="M1264.69,-369C1264.69,-369 1357.98,-369 1357.98,-369"/>
<polygon fill="black" stroke="black" points="1357.98,-372.5 1367.98,-369 1357.98,-365.5 1357.98,-372.5"/>
</g>
<!-- l2b_wfov_a_src -->
<g id="node48" class="node">
<title>l2b_wfov_a_src</title>
<ellipse fill="none" stroke="black" cx="1470.25" cy="-315" rx="161.67" ry="18"/>
<text text-anchor="middle" x="1470.25" y="-311.3" font-family="Times,serif" font-size="14.00">L2b_wfov_a source manifest 1..1</text>
</g>
<!-- trans_wfov_a_l2a_l2b&#45;&gt;l2b_wfov_a_src -->
<g id="edge50" class="edge">
<title>trans_wfov_a_l2a_l2b&#45;&gt;l2b_wfov_a_src</title>
<path fill="none" stroke="black" d="M1237.11,-315C1237.11,-315 1298.4,-315 1298.4,-315"/>
<polygon fill="black" stroke="black" points="1298.4,-318.5 1308.4,-315 1298.4,-311.5 1298.4,-318.5"/>
</g>
<!-- trans_wfov_a_l2b_l3 -->
<g id="node3" class="node">
<title>trans_wfov_a_l2b_l3</title>
<ellipse fill="none" stroke="black" cx="1797.03" cy="-585" rx="123.99" ry="123.99"/>
<text text-anchor="middle" x="1797.03" y="-588.8" font-family="Times,serif" font-size="14.00">wfov_a Transmutation</text>
<text text-anchor="middle" x="1797.03" y="-573.8" font-family="Times,serif" font-size="14.00">L2b to L3</text>
</g>
<!-- l3_wfov_a_prod -->
<g id="node30" class="node">
<title>l3_wfov_a_prod</title>
<polygon fill="none" stroke="black" points="2212.46,-684 2023.46,-684 2023.46,-648 2212.46,-648 2212.46,-684"/>
<text text-anchor="middle" x="2117.96" y="-662.3" font-family="Times,serif" font-size="14.00">L3_wfov_a products 1..1</text>
</g>
<!-- trans_wfov_a_l2b_l3&#45;&gt;l3_wfov_a_prod -->
<g id="edge29" class="edge">
<title>trans_wfov_a_l2b_l3&#45;&gt;l3_wfov_a_prod</title>
<path fill="none" stroke="black" stroke-dasharray="5,2" d="M1890.72,-666C1890.72,-666 2013.32,-666 2013.32,-666"/>
<polygon fill="black" stroke="black" points="2013.32,-669.5 2023.32,-666 2013.32,-662.5 2013.32,-669.5"/>
</g>
<!-- l3_wfov_a_man -->
<g id="node32" class="node">
<title>l3_wfov_a_man</title>
<ellipse fill="none" stroke="black" cx="2117.96" cy="-612" rx="161.37" ry="18"/>
<text text-anchor="middle" x="2117.96" y="-608.3" font-family="Times,serif" font-size="14.00">L3_wfov_a product manifest 1..1</text>
</g>
<!-- trans_wfov_a_l2b_l3&#45;&gt;l3_wfov_a_man -->
<g id="edge30" class="edge">
<title>trans_wfov_a_l2b_l3&#45;&gt;l3_wfov_a_man</title>
<path fill="none" stroke="black" d="M1917.9,-612C1917.9,-612 1946.73,-612 1946.73,-612"/>
<polygon fill="black" stroke="black" points="1946.73,-615.5 1956.73,-612 1946.73,-608.5 1946.73,-615.5"/>
</g>
<!-- l3_wfov_a_log -->
<g id="node35" class="node">
<title>l3_wfov_a_log</title>
<ellipse fill="none" stroke="black" cx="2117.96" cy="-558" rx="96.38" ry="18"/>
<text text-anchor="middle" x="2117.96" y="-554.3" font-family="Times,serif" font-size="14.00">L3_wfov_a log 1..1</text>
</g>
<!-- trans_wfov_a_l2b_l3&#45;&gt;l3_wfov_a_log -->
<g id="edge31" class="edge">
<title>trans_wfov_a_l2b_l3&#45;&gt;l3_wfov_a_log</title>
<path fill="none" stroke="black" stroke-dasharray="5,2" d="M1917.9,-558C1917.9,-558 2011.69,-558 2011.69,-558"/>
<polygon fill="black" stroke="black" points="2011.69,-561.5 2021.69,-558 2011.69,-554.5 2011.69,-561.5"/>
</g>
<!-- l3_wfov_a_src -->
<g id="node49" class="node">
<title>l3_wfov_a_src</title>
<ellipse fill="none" stroke="black" cx="2117.96" cy="-504" rx="155.97" ry="18"/>
<text text-anchor="middle" x="2117.96" y="-500.3" font-family="Times,serif" font-size="14.00">L3_wfov_a source manifest 1..1</text>
</g>
<!-- trans_wfov_a_l2b_l3&#45;&gt;l3_wfov_a_src -->
<g id="edge51" class="edge">
<title>trans_wfov_a_l2b_l3&#45;&gt;l3_wfov_a_src</title>
<path fill="none" stroke="black" d="M1890.72,-504C1890.72,-504 1951.96,-504 1951.96,-504"/>
<polygon fill="black" stroke="black" points="1951.96,-507.5 1961.96,-504 1951.96,-500.5 1951.96,-507.5"/>
</g>
<!-- trans_wfov_a_l3_l4 -->
<g id="node4" class="node">
<title>trans_wfov_a_l3_l4</title>
<ellipse fill="none" stroke="black" cx="2438.89" cy="-720" rx="123.99" ry="123.99"/>
<text text-anchor="middle" x="2438.89" y="-723.8" font-family="Times,serif" font-size="14.00">wfov_a Transmutation</text>
<text text-anchor="middle" x="2438.89" y="-708.8" font-family="Times,serif" font-size="14.00">L3 to L4</text>
</g>
<!-- l4_wfov_a_prod -->
<g id="node36" class="node">
<title>l4_wfov_a_prod</title>
<polygon fill="none" stroke="black" points="2858.63,-819 2669.63,-819 2669.63,-783 2858.63,-783 2858.63,-819"/>
<text text-anchor="middle" x="2764.13" y="-797.3" font-family="Times,serif" font-size="14.00">L4_wfov_a products 1..1</text>
</g>
<!-- trans_wfov_a_l3_l4&#45;&gt;l4_wfov_a_prod -->
<g id="edge37" class="edge">
<title>trans_wfov_a_l3_l4&#45;&gt;l4_wfov_a_prod</title>
<path fill="none" stroke="black" stroke-dasharray="5,2" d="M2532.53,-801C2532.53,-801 2659.47,-801 2659.47,-801"/>
<polygon fill="black" stroke="black" points="2659.47,-804.5 2669.47,-801 2659.47,-797.5 2659.47,-804.5"/>
</g>
<!-- l4_wfov_a_log -->
<g id="node38" class="node">
<title>l4_wfov_a_log</title>
<ellipse fill="none" stroke="black" cx="2764.13" cy="-747" rx="96.38" ry="18"/>
<text text-anchor="middle" x="2764.13" y="-743.3" font-family="Times,serif" font-size="14.00">L4_wfov_a log 1..1</text>
</g>
<!-- trans_wfov_a_l3_l4&#45;&gt;l4_wfov_a_log -->
<g id="edge38" class="edge">
<title>trans_wfov_a_l3_l4&#45;&gt;l4_wfov_a_log</title>
<path fill="none" stroke="black" stroke-dasharray="5,2" d="M2560,-747C2560,-747 2657.81,-747 2657.81,-747"/>
<polygon fill="black" stroke="black" points="2657.81,-750.5 2667.81,-747 2657.81,-743.5 2657.81,-750.5"/>
</g>
<!-- l4_wfov_a_man -->
<g id="node39" class="node">
<title>l4_wfov_a_man</title>
<ellipse fill="none" stroke="black" cx="2764.13" cy="-693" rx="161.37" ry="18"/>
<text text-anchor="middle" x="2764.13" y="-689.3" font-family="Times,serif" font-size="14.00">L4_wfov_a product manifest 1..1</text>
</g>
<!-- trans_wfov_a_l3_l4&#45;&gt;l4_wfov_a_man -->
<g id="edge39" class="edge">
<title>trans_wfov_a_l3_l4&#45;&gt;l4_wfov_a_man</title>
<path fill="none" stroke="black" d="M2560,-693C2560,-693 2592.85,-693 2592.85,-693"/>
<polygon fill="black" stroke="black" points="2592.85,-696.5 2602.85,-693 2592.85,-689.5 2592.85,-696.5"/>
</g>
<!-- l4_wfov_a_src -->
<g id="node50" class="node">
<title>l4_wfov_a_src</title>
<ellipse fill="none" stroke="black" cx="2764.13" cy="-639" rx="153.27" ry="18"/>
<text text-anchor="middle" x="2764.13" y="-635.3" font-family="Times,serif" font-size="14.00">L4_wfov_a sourcemanifest 1..1</text>
</g>
<!-- trans_wfov_a_l3_l4&#45;&gt;l4_wfov_a_src -->
<g id="edge52" class="edge">
<title>trans_wfov_a_l3_l4&#45;&gt;l4_wfov_a_src</title>
<path fill="none" stroke="black" d="M2532.53,-639C2532.53,-639 2600.48,-639 2600.48,-639"/>
<polygon fill="black" stroke="black" points="2600.48,-642.5 2610.48,-639 2600.48,-635.5 2600.48,-642.5"/>
</g>
<!-- trans_wfov_a_l4_tda -->
<g id="node5" class="node">
<title>trans_wfov_a_l4_tda</title>
<ellipse fill="none" stroke="black" cx="3089.38" cy="-909" rx="123.99" ry="123.99"/>
<text text-anchor="middle" x="3089.38" y="-912.8" font-family="Times,serif" font-size="14.00">wfov_a Transmutation</text>
<text text-anchor="middle" x="3089.38" y="-897.8" font-family="Times,serif" font-size="14.00">L4 to TDA</text>
</g>
<!-- tda_wfov_a_prod -->
<g id="node45" class="node">
<title>tda_wfov_a_prod</title>
<ellipse fill="none" stroke="black" cx="3410.31" cy="-963" rx="87.99" ry="18"/>
<text text-anchor="middle" x="3410.31" y="-959.3" font-family="Times,serif" font-size="14.00">tda_wfov_a_prod</text>
</g>
<!-- trans_wfov_a_l4_tda&#45;&gt;tda_wfov_a_prod -->
<g id="edge47" class="edge">
<title>trans_wfov_a_l4_tda&#45;&gt;tda_wfov_a_prod</title>
<path fill="none" stroke="black" stroke-dasharray="5,2" d="M3200.72,-963C3200.72,-963 3312.42,-963 3312.42,-963"/>
<polygon fill="black" stroke="black" points="3312.42,-966.5 3322.42,-963 3312.42,-959.5 3312.42,-966.5"/>
</g>
<!-- tda_wfov_a_log -->
<g id="node46" class="node">
<title>tda_wfov_a_log</title>
<ellipse fill="none" stroke="black" cx="3410.31" cy="-909" rx="80.69" ry="18"/>
<text text-anchor="middle" x="3410.31" y="-905.3" font-family="Times,serif" font-size="14.00">tda_wfov_a_log</text>
</g>
<!-- trans_wfov_a_l4_tda&#45;&gt;tda_wfov_a_log -->
<g id="edge48" class="edge">
<title>trans_wfov_a_l4_tda&#45;&gt;tda_wfov_a_log</title>
<path fill="none" stroke="black" stroke-dasharray="5,2" d="M3213.46,-909C3213.46,-909 3319.6,-909 3319.6,-909"/>
<polygon fill="black" stroke="black" points="3319.6,-912.5 3329.6,-909 3319.6,-905.5 3319.6,-912.5"/>
</g>
<!-- tda_wfov_a_src -->
<g id="node51" class="node">
<title>tda_wfov_a_src</title>
<ellipse fill="none" stroke="black" cx="3410.31" cy="-855" rx="161.37" ry="18"/>
<text text-anchor="middle" x="3410.31" y="-851.3" font-family="Times,serif" font-size="14.00">TDA_wfov_a sourcemanifest 1..1</text>
</g>
<!-- trans_wfov_a_l4_tda&#45;&gt;tda_wfov_a_src -->
<g id="edge53" class="edge">
<title>trans_wfov_a_l4_tda&#45;&gt;tda_wfov_a_src</title>
<path fill="none" stroke="black" d="M3200.72,-855C3200.72,-855 3239.09,-855 3239.09,-855"/>
<polygon fill="black" stroke="black" points="3239.09,-858.5 3249.09,-855 3239.09,-851.5 3239.09,-858.5"/>
</g>
<!-- l1_wfov_a_prod -->
<g id="node6" class="node">
<title>l1_wfov_a_prod</title>
<polygon fill="none" stroke="black" points="259.59,-252 70.59,-252 70.59,-216 259.59,-216 259.59,-252"/>
<text text-anchor="middle" x="165.09" y="-230.3" font-family="Times,serif" font-size="14.00">L1_wfov_a products 1..b</text>
</g>
<!-- l1_wfov_a_prod&#45;&gt;trans_wfov_a_l1_l2a -->
<g id="edge1" class="edge">
<title>l1_wfov_a_prod&#45;&gt;trans_wfov_a_l1_l2a</title>
<path fill="none" stroke="black" stroke-dasharray="5,2" d="M259.91,-232.87C259.91,-232.87 417.33,-232.87 417.33,-232.87"/>
<polygon fill="black" stroke="black" points="417.33,-236.37 427.33,-232.87 417.33,-229.37 417.33,-236.37"/>
</g>
<!-- l1_wfov_a_man -->
<g id="node7" class="node">
<title>l1_wfov_a_man</title>
<ellipse fill="none" stroke="black" cx="165.09" cy="-180" rx="161.37" ry="18"/>
<text text-anchor="middle" x="165.09" y="-176.3" font-family="Times,serif" font-size="14.00">L1_wfov_a product manifest 1..1</text>
</g>
<!-- l1_wfov_a_man&#45;&gt;trans_wfov_a_l1_l2a -->
<g id="edge2" class="edge">
<title>l1_wfov_a_man&#45;&gt;trans_wfov_a_l1_l2a</title>
<path fill="none" stroke="black" d="M326.55,-180C326.55,-180 368.32,-180 368.32,-180"/>
<polygon fill="black" stroke="black" points="368.32,-183.5 378.32,-180 368.32,-176.5 368.32,-183.5"/>
</g>
<!-- l1_wfov_a_odir -->
<g id="node8" class="node">
<title>l1_wfov_a_odir</title>
<ellipse fill="none" stroke="black" cx="165.09" cy="-126" rx="136.48" ry="18"/>
<text text-anchor="middle" x="165.09" y="-122.3" font-family="Times,serif" font-size="14.00">L1_wfov_a output path 1..1</text>
</g>
<!-- l1_wfov_a_odir&#45;&gt;trans_wfov_a_l1_l2a -->
<g id="edge3" class="edge">
<title>l1_wfov_a_odir&#45;&gt;trans_wfov_a_l1_l2a</title>
<path fill="none" stroke="black" d="M301.9,-126C301.9,-126 355.91,-126 355.91,-126"/>
<polygon fill="black" stroke="black" points="355.91,-129.5 365.91,-126 355.91,-122.5 355.91,-129.5"/>
</g>
<!-- l1_wfov_a_rec -->
<g id="node9" class="node">
<title>l1_wfov_a_rec</title>
<polygon fill="none" stroke="black" points="238.09,-84 80.09,-84 80.09,-60 238.09,-60 250.09,-72 238.09,-84"/>
<text text-anchor="middle" x="165.09" y="-68.3" font-family="Times,serif" font-size="14.00">L1_wfov_a recipe 1..1</text>
</g>
<!-- l1_wfov_a_rec&#45;&gt;trans_wfov_a_l1_l2a -->
<g id="edge4" class="edge">
<title>l1_wfov_a_rec&#45;&gt;trans_wfov_a_l1_l2a</title>
<path fill="none" stroke="black" d="M250.43,-72C250.43,-72 368.54,-72 368.54,-72"/>
<polygon fill="black" stroke="black" points="368.54,-75.5 378.54,-72 368.54,-68.5 368.54,-75.5"/>
</g>
<!-- l1_wfov_a_nllut -->
<g id="node10" class="node">
<title>l1_wfov_a_nllut</title>
<polygon fill="none" stroke="black" points="269.09,-30 49.09,-30 49.09,-6 269.09,-6 281.09,-18 269.09,-30"/>
<text text-anchor="middle" x="165.09" y="-14.3" font-family="Times,serif" font-size="14.00">L1_wfov_a non&#45;linear LUT 1..1</text>
</g>
<!-- l1_wfov_a_nllut&#45;&gt;trans_wfov_a_l1_l2a -->
<g id="edge5" class="edge">
<title>l1_wfov_a_nllut&#45;&gt;trans_wfov_a_l1_l2a</title>
<path fill="none" stroke="black" d="M281.44,-19.13C281.44,-19.13 417.16,-19.13 417.16,-19.13"/>
<polygon fill="black" stroke="black" points="417.16,-22.63 427.16,-19.13 417.16,-15.63 417.16,-22.63"/>
</g>
<!-- l2a_wfov_a_prod&#45;&gt;trans_wfov_a_l2a_l2b -->
<g id="edge9" class="edge">
<title>l2a_wfov_a_prod&#45;&gt;trans_wfov_a_l2a_l2b</title>
<path fill="none" stroke="black" stroke-dasharray="5,2" d="M909.49,-225.38C909.49,-249.28 909.49,-288 909.49,-288 909.49,-288 1072.91,-288 1072.91,-288"/>
<polygon fill="black" stroke="black" points="1072.91,-291.5 1082.91,-288 1072.91,-284.5 1072.91,-291.5"/>
</g>
<!-- l2a_wfov_a_man&#45;&gt;trans_wfov_a_l2a_l2b -->
<g id="edge21" class="edge">
<title>l2a_wfov_a_man&#45;&gt;trans_wfov_a_l2a_l2b</title>
<path fill="none" stroke="black" d="M976.49,-158.28C976.49,-182.69 976.49,-283.5 976.49,-283.5 976.49,-283.5 1081.55,-283.5 1081.55,-283.5"/>
<polygon fill="black" stroke="black" points="1081.55,-287 1091.55,-283.5 1081.55,-280 1081.55,-287"/>
</g>
<!-- l2a_wfov_a_odir -->
<g id="node13" class="node">
<title>l2a_wfov_a_odir</title>
<ellipse fill="none" stroke="black" cx="816.69" cy="-641" rx="141.88" ry="18"/>
<text text-anchor="middle" x="816.69" y="-637.3" font-family="Times,serif" font-size="14.00">L2a_wfov_a output path 1..1</text>
</g>
<!-- l2a_wfov_a_odir&#45;&gt;trans_wfov_a_l2a_l2b -->
<g id="edge10" class="edge">
<title>l2a_wfov_a_odir&#45;&gt;trans_wfov_a_l2a_l2b</title>
<path fill="none" stroke="black" d="M958.23,-640C1062.23,-640 1185.49,-640 1185.49,-640 1185.49,-640 1185.49,-522.64 1185.49,-522.64"/>
<polygon fill="black" stroke="black" points="1188.99,-522.64 1185.49,-512.64 1181.99,-522.64 1188.99,-522.64"/>
</g>
<!-- l2a_wfov_a_rec -->
<g id="node14" class="node">
<title>l2a_wfov_a_rec</title>
<polygon fill="none" stroke="black" points="894.19,-599 727.19,-599 727.19,-575 894.19,-575 906.19,-587 894.19,-599"/>
<text text-anchor="middle" x="816.69" y="-583.3" font-family="Times,serif" font-size="14.00">L2a_wfov_a recipe 1..1</text>
</g>
<!-- l2a_wfov_a_rec&#45;&gt;trans_wfov_a_l2a_l2b -->
<g id="edge11" class="edge">
<title>l2a_wfov_a_rec&#45;&gt;trans_wfov_a_l2a_l2b</title>
<path fill="none" stroke="black" d="M906.34,-586C990.15,-586 1102.49,-586 1102.49,-586 1102.49,-586 1102.49,-522.81 1102.49,-522.81"/>
<polygon fill="black" stroke="black" points="1105.99,-522.81 1102.49,-512.81 1098.99,-522.81 1105.99,-522.81"/>
</g>
<!-- l2a_wfov_a_cti -->
<g id="node15" class="node">
<title>l2a_wfov_a_cti</title>
<polygon fill="none" stroke="black" points="955.69,-545 665.69,-545 665.69,-521 955.69,-521 967.69,-533 955.69,-545"/>
<text text-anchor="middle" x="816.69" y="-529.3" font-family="Times,serif" font-size="14.00">L2a_wfov_a charge xfer inefficiency 1..1</text>
</g>
<!-- l2a_wfov_a_cti&#45;&gt;trans_wfov_a_l2a_l2b -->
<g id="edge12" class="edge">
<title>l2a_wfov_a_cti&#45;&gt;trans_wfov_a_l2a_l2b</title>
<path fill="none" stroke="black" d="M955.49,-514.84C955.49,-509.96 955.49,-506 955.49,-506 955.49,-506 1076.56,-506 1076.56,-506"/>
<polygon fill="black" stroke="black" points="1076.56,-509.5 1086.56,-506 1076.56,-502.5 1076.56,-509.5"/>
</g>
<!-- l2a_wfov_a_dnb -->
<g id="node16" class="node">
<title>l2a_wfov_a_dnb</title>
<polygon fill="none" stroke="black" points="937.19,-491 684.19,-491 684.19,-465 937.19,-465 949.19,-478 937.19,-491"/>
<text text-anchor="middle" x="816.69" y="-481.8" font-family="Times,serif" font-size="14.00">L2a_wfov_a CIC/Dark Current/FPN</text>
<text text-anchor="middle" x="816.69" y="-466.8" font-family="Times,serif" font-size="14.00"> or master dark 1..1</text>
</g>
<!-- l2a_wfov_a_dnb&#45;&gt;trans_wfov_a_l2a_l2b -->
<g id="edge13" class="edge">
<title>l2a_wfov_a_dnb&#45;&gt;trans_wfov_a_l2a_l2b</title>
<path fill="none" stroke="black" d="M949.61,-478C949.61,-478 1040.7,-478 1040.7,-478"/>
<polygon fill="black" stroke="black" points="1040.7,-481.5 1050.7,-478 1040.7,-474.5 1040.7,-481.5"/>
</g>
<!-- l2a_wfov_a_mbpm -->
<g id="node17" class="node">
<title>l2a_wfov_a_mbpm</title>
<polygon fill="none" stroke="black" points="949.69,-435 671.69,-435 671.69,-411 949.69,-411 961.69,-423 949.69,-435"/>
<text text-anchor="middle" x="816.69" y="-419.3" font-family="Times,serif" font-size="14.00">L2a_wfov_a master bad pixel map 1..1</text>
</g>
<!-- l2a_wfov_a_mbpm&#45;&gt;trans_wfov_a_l2a_l2b -->
<g id="edge14" class="edge">
<title>l2a_wfov_a_mbpm&#45;&gt;trans_wfov_a_l2a_l2b</title>
<path fill="none" stroke="black" d="M961.93,-423C961.93,-423 1012.64,-423 1012.64,-423"/>
<polygon fill="black" stroke="black" points="1012.64,-426.5 1022.64,-423 1012.64,-419.5 1012.64,-426.5"/>
</g>
<!-- l2a_wfov_a_ff -->
<g id="node18" class="node">
<title>l2a_wfov_a_ff</title>
<polygon fill="none" stroke="black" points="904.69,-381 716.69,-381 716.69,-357 904.69,-357 916.69,-369 904.69,-381"/>
<text text-anchor="middle" x="816.69" y="-365.3" font-family="Times,serif" font-size="14.00">L2a_wfov_a flat fields 1..1</text>
</g>
<!-- l2a_wfov_a_ff&#45;&gt;trans_wfov_a_l2a_l2b -->
<g id="edge15" class="edge">
<title>l2a_wfov_a_ff&#45;&gt;trans_wfov_a_l2a_l2b</title>
<path fill="none" stroke="black" d="M916.96,-369C916.96,-369 1012.69,-369 1012.69,-369"/>
<polygon fill="black" stroke="black" points="1012.69,-372.5 1022.69,-369 1012.69,-365.5 1012.69,-372.5"/>
</g>
<!-- l2a_wfov_a_emg -->
<g id="node19" class="node">
<title>l2a_wfov_a_emg</title>
<polygon fill="none" stroke="black" points="901.69,-327 719.69,-327 719.69,-303 901.69,-303 913.69,-315 901.69,-327"/>
<text text-anchor="middle" x="816.69" y="-311.3" font-family="Times,serif" font-size="14.00">L2a_wfov_a EM gain 1..1</text>
</g>
<!-- l2a_wfov_a_emg&#45;&gt;trans_wfov_a_l2a_l2b -->
<g id="edge16" class="edge">
<title>l2a_wfov_a_emg&#45;&gt;trans_wfov_a_l2a_l2b</title>
<path fill="none" stroke="black" d="M913.85,-315C913.85,-315 1039.77,-315 1039.77,-315"/>
<polygon fill="black" stroke="black" points="1039.77,-318.5 1049.77,-315 1039.77,-311.5 1039.77,-318.5"/>
</g>
<!-- l2a_wfov_a_kgain -->
<g id="node20" class="node">
<title>l2a_wfov_a_kgain</title>
<polygon fill="none" stroke="black" points="892.69,-273 728.69,-273 728.69,-249 892.69,-249 904.69,-261 892.69,-273"/>
<text text-anchor="middle" x="816.69" y="-257.3" font-family="Times,serif" font-size="14.00">L2a_wfov_a Kgain 1..1</text>
</g>
<!-- l2a_wfov_a_kgain&#45;&gt;trans_wfov_a_l2a_l2b -->
<g id="edge17" class="edge">
<title>l2a_wfov_a_kgain&#45;&gt;trans_wfov_a_l2a_l2b</title>
<path fill="none" stroke="black" d="M817.49,-279.32C817.49,-286.25 817.49,-292.5 817.49,-292.5 817.49,-292.5 1065.53,-292.5 1065.53,-292.5"/>
<polygon fill="black" stroke="black" points="1065.53,-296 1075.53,-292.5 1065.53,-289 1065.53,-296"/>
</g>
<!-- l2b_wfov_a_prod&#45;&gt;trans_wfov_a_l2b_l3 -->
<g id="edge22" class="edge">
<title>l2b_wfov_a_prod&#45;&gt;trans_wfov_a_l2b_l3</title>
<path fill="none" stroke="black" stroke-dasharray="5,2" d="M1569.63,-483.75C1569.63,-483.75 1715.86,-483.75 1715.86,-483.75"/>
<polygon fill="black" stroke="black" points="1715.86,-487.25 1725.86,-483.75 1715.86,-480.25 1715.86,-487.25"/>
</g>
<!-- l2b_wfov_a_man&#45;&gt;trans_wfov_a_l2b_l3 -->
<g id="edge23" class="edge">
<title>l2b_wfov_a_man&#45;&gt;trans_wfov_a_l2b_l3</title>
<path fill="none" stroke="black" d="M1630.49,-428.3C1630.49,-441.07 1630.49,-472.5 1630.49,-472.5 1630.49,-472.5 1735.25,-472.5 1735.25,-472.5"/>
<polygon fill="black" stroke="black" points="1735.25,-476 1745.25,-472.5 1735.25,-469 1735.25,-476"/>
</g>
<!-- l2b_wfov_a_odir -->
<g id="node24" class="node">
<title>l2b_wfov_a_odir</title>
<ellipse fill="none" stroke="black" cx="1470.25" cy="-747" rx="142.17" ry="18"/>
<text text-anchor="middle" x="1470.25" y="-743.3" font-family="Times,serif" font-size="14.00">L2b_wfov_a output path 1..1</text>
</g>
<!-- l2b_wfov_a_odir&#45;&gt;trans_wfov_a_l2b_l3 -->
<g id="edge24" class="edge">
<title>l2b_wfov_a_odir&#45;&gt;trans_wfov_a_l2b_l3</title>
<path fill="none" stroke="black" d="M1586.49,-736.5C1586.49,-721.97 1586.49,-697.5 1586.49,-697.5 1586.49,-697.5 1735.26,-697.5 1735.26,-697.5"/>
<polygon fill="black" stroke="black" points="1735.26,-701 1745.26,-697.5 1735.26,-694 1735.26,-701"/>
</g>
<!-- l2b_wfov_a_rec -->
<g id="node25" class="node">
<title>l2b_wfov_a_rec</title>
<polygon fill="none" stroke="black" points="1547.75,-705 1380.75,-705 1380.75,-681 1547.75,-681 1559.75,-693 1547.75,-705"/>
<text text-anchor="middle" x="1470.25" y="-689.3" font-family="Times,serif" font-size="14.00">L2b_wfov_a recipe 1..1</text>
</g>
<!-- l2b_wfov_a_rec&#45;&gt;trans_wfov_a_l2b_l3 -->
<g id="edge25" class="edge">
<title>l2b_wfov_a_rec&#45;&gt;trans_wfov_a_l2b_l3</title>
<path fill="none" stroke="black" d="M1559.98,-686.25C1559.98,-686.25 1715.87,-686.25 1715.87,-686.25"/>
<polygon fill="black" stroke="black" points="1715.87,-689.75 1725.87,-686.25 1715.87,-682.75 1715.87,-689.75"/>
</g>
<!-- l2b_wfov_a_excicrf -->
<g id="node26" class="node">
<title>l2b_wfov_a_excicrf</title>
<polygon fill="none" stroke="black" points="1603.75,-651 1324.75,-651 1324.75,-627 1603.75,-627 1615.75,-639 1603.75,-651"/>
<text text-anchor="middle" x="1470.25" y="-635.3" font-family="Times,serif" font-size="14.00">L2b_wfov_a EXCAM ICRF location 1..1</text>
</g>
<!-- l2b_wfov_a_excicrf&#45;&gt;trans_wfov_a_l2b_l3 -->
<g id="edge26" class="edge">
<title>l2b_wfov_a_excicrf&#45;&gt;trans_wfov_a_l2b_l3</title>
<path fill="none" stroke="black" d="M1615.96,-639C1615.96,-639 1675.44,-639 1675.44,-639"/>
<polygon fill="black" stroke="black" points="1675.44,-642.5 1685.44,-639 1675.44,-635.5 1675.44,-642.5"/>
</g>
<!-- l2b_wfov_a_excfovps -->
<g id="node27" class="node">
<title>l2b_wfov_a_excfovps</title>
<polygon fill="none" stroke="black" points="1610.75,-597 1317.75,-597 1317.75,-573 1610.75,-573 1622.75,-585 1610.75,-597"/>
<text text-anchor="middle" x="1470.25" y="-581.3" font-family="Times,serif" font-size="14.00">L2b_wfov_a EXCAM FOV pixel scale 1..1</text>
</g>
<!-- l2b_wfov_a_excfovps&#45;&gt;trans_wfov_a_l2b_l3 -->
<g id="edge27" class="edge">
<title>l2b_wfov_a_excfovps&#45;&gt;trans_wfov_a_l2b_l3</title>
<path fill="none" stroke="black" d="M1623.12,-585C1623.12,-585 1663.18,-585 1663.18,-585"/>
<polygon fill="black" stroke="black" points="1663.18,-588.5 1673.18,-585 1663.18,-581.5 1663.18,-588.5"/>
</g>
<!-- l2b_wfov_a_distm -->
<g id="node28" class="node">
<title>l2b_wfov_a_distm</title>
<polygon fill="none" stroke="black" points="1578.25,-543 1350.25,-543 1350.25,-519 1578.25,-519 1590.25,-531 1578.25,-543"/>
<text text-anchor="middle" x="1470.25" y="-527.3" font-family="Times,serif" font-size="14.00">L2b_wfov_a distortion map 1..1</text>
</g>
<!-- l2b_wfov_a_distm&#45;&gt;trans_wfov_a_l2b_l3 -->
<g id="edge28" class="edge">
<title>l2b_wfov_a_distm&#45;&gt;trans_wfov_a_l2b_l3</title>
<path fill="none" stroke="black" d="M1590.54,-531C1590.54,-531 1675.66,-531 1675.66,-531"/>
<polygon fill="black" stroke="black" points="1675.66,-534.5 1685.66,-531 1675.66,-527.5 1675.66,-534.5"/>
</g>
<!-- l3_wfov_a_prod&#45;&gt;trans_wfov_a_l3_l4 -->
<g id="edge32" class="edge">
<title>l3_wfov_a_prod&#45;&gt;trans_wfov_a_l3_l4</title>
<path fill="none" stroke="black" stroke-dasharray="5,2" d="M2212.51,-666C2212.51,-666 2317.47,-666 2317.47,-666"/>
<polygon fill="black" stroke="black" points="2317.47,-669.5 2327.47,-666 2317.47,-662.5 2317.47,-669.5"/>
</g>
<!-- l3_wfov_a_odir -->
<g id="node31" class="node">
<title>l3_wfov_a_odir</title>
<ellipse fill="none" stroke="black" cx="2117.96" cy="-828" rx="136.48" ry="18"/>
<text text-anchor="middle" x="2117.96" y="-824.3" font-family="Times,serif" font-size="14.00">L3_wfov_a output path 1..1</text>
</g>
<!-- l3_wfov_a_odir&#45;&gt;trans_wfov_a_l3_l4 -->
<g id="edge34" class="edge">
<title>l3_wfov_a_odir&#45;&gt;trans_wfov_a_l3_l4</title>
<path fill="none" stroke="black" d="M2254.53,-826.87C2254.53,-826.87 2366.13,-826.87 2366.13,-826.87"/>
<polygon fill="black" stroke="black" points="2366.14,-830.37 2376.13,-826.87 2366.13,-823.37 2366.14,-830.37"/>
</g>
<!-- l3_wfov_a_man&#45;&gt;trans_wfov_a_l3_l4 -->
<g id="edge33" class="edge">
<title>l3_wfov_a_man&#45;&gt;trans_wfov_a_l3_l4</title>
<path fill="none" stroke="black" d="M2278.89,-613.13C2278.89,-613.13 2366.46,-613.13 2366.46,-613.13"/>
<polygon fill="black" stroke="black" points="2366.46,-616.63 2376.46,-613.13 2366.46,-609.63 2366.46,-616.63"/>
</g>
<!-- l3_wfov_a_rec -->
<g id="node33" class="node">
<title>l3_wfov_a_rec</title>
<polygon fill="none" stroke="black" points="2190.96,-786 2032.96,-786 2032.96,-762 2190.96,-762 2202.96,-774 2190.96,-786"/>
<text text-anchor="middle" x="2117.96" y="-770.3" font-family="Times,serif" font-size="14.00">L3_wfov_a recipe 1..1</text>
</g>
<!-- l3_wfov_a_rec&#45;&gt;trans_wfov_a_l3_l4 -->
<g id="edge35" class="edge">
<title>l3_wfov_a_rec&#45;&gt;trans_wfov_a_l3_l4</title>
<path fill="none" stroke="black" d="M2203.12,-774C2203.12,-774 2317.3,-774 2317.3,-774"/>
<polygon fill="black" stroke="black" points="2317.3,-777.5 2327.3,-774 2317.3,-770.5 2317.3,-777.5"/>
</g>
<!-- l3_wfov_a_cal -->
<g id="node34" class="node">
<title>l3_wfov_a_cal</title>
<polygon fill="none" stroke="black" points="2207.46,-732 2016.46,-732 2016.46,-708 2207.46,-708 2219.46,-720 2207.46,-732"/>
<text text-anchor="middle" x="2117.96" y="-716.3" font-family="Times,serif" font-size="14.00">L3_wfov_a calibration 1..1</text>
</g>
<!-- l3_wfov_a_cal&#45;&gt;trans_wfov_a_l3_l4 -->
<g id="edge36" class="edge">
<title>l3_wfov_a_cal&#45;&gt;trans_wfov_a_l3_l4</title>
<path fill="none" stroke="black" d="M2219.5,-720C2219.5,-720 2304.92,-720 2304.92,-720"/>
<polygon fill="black" stroke="black" points="2304.92,-723.5 2314.92,-720 2304.92,-716.5 2304.92,-723.5"/>
</g>
<!-- l4_wfov_a_prod&#45;&gt;trans_wfov_a_l4_tda -->
<g id="edge40" class="edge">
<title>l4_wfov_a_prod&#45;&gt;trans_wfov_a_l4_tda</title>
<path fill="none" stroke="black" stroke-dasharray="5,2" d="M2858.64,-807.75C2858.64,-807.75 3008.18,-807.75 3008.18,-807.75"/>
<polygon fill="black" stroke="black" points="3008.18,-811.25 3018.18,-807.75 3008.18,-804.25 3008.18,-811.25"/>
</g>
<!-- l4_wfov_a_odir -->
<g id="node37" class="node">
<title>l4_wfov_a_odir</title>
<ellipse fill="none" stroke="black" cx="2764.13" cy="-1071" rx="136.48" ry="18"/>
<text text-anchor="middle" x="2764.13" y="-1067.3" font-family="Times,serif" font-size="14.00">L4_wfov_a output path 1..1</text>
</g>
<!-- l4_wfov_a_odir&#45;&gt;trans_wfov_a_l4_tda -->
<g id="edge42" class="edge">
<title>l4_wfov_a_odir&#45;&gt;trans_wfov_a_l4_tda</title>
<path fill="none" stroke="black" d="M2875.49,-1060.5C2875.49,-1045.97 2875.49,-1021.5 2875.49,-1021.5 2875.49,-1021.5 3027.6,-1021.5 3027.6,-1021.5"/>
<polygon fill="black" stroke="black" points="3027.6,-1025 3037.6,-1021.5 3027.6,-1018 3027.6,-1025"/>
</g>
<!-- l4_wfov_a_man&#45;&gt;trans_wfov_a_l4_tda -->
<g id="edge41" class="edge">
<title>l4_wfov_a_man&#45;&gt;trans_wfov_a_l4_tda</title>
<path fill="none" stroke="black" d="M2893.49,-704.08C2893.49,-730.78 2893.49,-796.5 2893.49,-796.5 2893.49,-796.5 3027.65,-796.5 3027.65,-796.5"/>
<polygon fill="black" stroke="black" points="3027.65,-800 3037.65,-796.5 3027.65,-793 3027.65,-800"/>
</g>
<!-- l4_wfov_a_rec -->
<g id="node40" class="node">
<title>l4_wfov_a_rec</title>
<polygon fill="none" stroke="black" points="2837.13,-1029 2679.13,-1029 2679.13,-1005 2837.13,-1005 2849.13,-1017 2837.13,-1029"/>
<text text-anchor="middle" x="2764.13" y="-1013.3" font-family="Times,serif" font-size="14.00">L4_wfov_a recipe 1..1</text>
</g>
<!-- l4_wfov_a_rec&#45;&gt;trans_wfov_a_l4_tda -->
<g id="edge43" class="edge">
<title>l4_wfov_a_rec&#45;&gt;trans_wfov_a_l4_tda</title>
<path fill="none" stroke="black" d="M2849.16,-1010.25C2849.16,-1010.25 3008.04,-1010.25 3008.04,-1010.25"/>
<polygon fill="black" stroke="black" points="3008.04,-1013.75 3018.04,-1010.25 3008.04,-1006.75 3008.04,-1013.75"/>
</g>
<!-- l4_wfov_a_afcal -->
<g id="node41" class="node">
<title>l4_wfov_a_afcal</title>
<polygon fill="none" stroke="black" points="2905.13,-975 2611.13,-975 2611.13,-951 2905.13,-951 2917.13,-963 2905.13,-975"/>
<text text-anchor="middle" x="2764.13" y="-959.3" font-family="Times,serif" font-size="14.00">L4_wfov_a absolute flux calibrations 1..1</text>
</g>
<!-- l4_wfov_a_afcal&#45;&gt;trans_wfov_a_l4_tda -->
<g id="edge44" class="edge">
<title>l4_wfov_a_afcal&#45;&gt;trans_wfov_a_l4_tda</title>
<path fill="none" stroke="black" d="M2917.23,-963C2917.23,-963 2967.83,-963 2967.83,-963"/>
<polygon fill="black" stroke="black" points="2967.83,-966.5 2977.83,-963 2967.83,-959.5 2967.83,-966.5"/>
</g>
<!-- l4_wfov_a_ctcal -->
<g id="node42" class="node">
<title>l4_wfov_a_ctcal</title>
<polygon fill="none" stroke="black" points="2917.63,-921 2598.63,-921 2598.63,-897 2917.63,-897 2929.63,-909 2917.63,-921"/>
<text text-anchor="middle" x="2764.13" y="-905.3" font-family="Times,serif" font-size="14.00">L4_wfov_a core throughput calibrations 1..1</text>
</g>
<!-- l4_wfov_a_ctcal&#45;&gt;trans_wfov_a_l4_tda -->
<g id="edge45" class="edge">
<title>l4_wfov_a_ctcal&#45;&gt;trans_wfov_a_l4_tda</title>
<path fill="none" stroke="black" d="M2930.09,-909C2930.09,-909 2955.47,-909 2955.47,-909"/>
<polygon fill="black" stroke="black" points="2955.47,-912.5 2965.47,-909 2955.47,-905.5 2955.47,-912.5"/>
</g>
<!-- l4_wfov_a_ndfilt -->
<g id="node43" class="node">
<title>l4_wfov_a_ndfilt</title>
<polygon fill="none" stroke="black" points="2846.13,-867 2670.13,-867 2670.13,-843 2846.13,-843 2858.13,-855 2846.13,-867"/>
<text text-anchor="middle" x="2764.13" y="-851.3" font-family="Times,serif" font-size="14.00">L4_wfov_a ND filter 1..1</text>
</g>
<!-- l4_wfov_a_ndfilt&#45;&gt;trans_wfov_a_l4_tda -->
<g id="edge46" class="edge">
<title>l4_wfov_a_ndfilt&#45;&gt;trans_wfov_a_l4_tda</title>
<path fill="none" stroke="black" d="M2858.21,-855C2858.21,-855 2967.98,-855 2967.98,-855"/>
<polygon fill="black" stroke="black" points="2967.98,-858.5 2977.98,-855 2967.98,-851.5 2967.98,-858.5"/>
</g>
<!-- tda_wfov_a_man -->
<g id="node44" class="node">
<title>tda_wfov_a_man</title>
<ellipse fill="none" stroke="black" cx="165.09" cy="-288" rx="165.17" ry="18"/>
<text text-anchor="middle" x="165.09" y="-284.3" font-family="Times,serif" font-size="14.00">tda_wfov_a product manifest 1..1</text>
</g>
</g>
</svg>
