<?xml version="1.0" encoding="UTF-8" standalone="no"?>
<!DOCTYPE svg PUBLIC "-//W3C//DTD SVG 1.1//EN"
 "http://www.w3.org/Graphics/SVG/1.1/DTD/svg11.dtd">
<!-- Generated by graphviz version 2.43.0 (0)
 -->
<!-- Title: WideFieldOfViewAnalog Pages: 1 -->
<svg width="2939pt" height="1097pt"
 viewBox="0.00 0.00 2938.63 1097.00" xmlns="http://www.w3.org/2000/svg" xmlns:xlink="http://www.w3.org/1999/xlink">
<g id="graph0" class="graph" transform="scale(1 1) rotate(0) translate(4 1093)">
<title>WideFieldOfViewAnalog</title>
<polygon fill="white" stroke="transparent" points="-4,4 -4,-1093 2934.63,-1093 2934.63,4 -4,4"/>
<!-- trans_wfov_a_l1_l2a -->
<g id="node1" class="node">
<title>trans_wfov_a_l1_l2a</title>
<ellipse fill="none" stroke="black" cx="396.27" cy="-126" rx="98.99" ry="98.99"/>
<text text-anchor="middle" x="396.27" y="-129.8" font-family="Times,serif" font-size="14.00">wfov_a Transmutation</text>
<text text-anchor="middle" x="396.27" y="-114.8" font-family="Times,serif" font-size="14.00">L1 to L2a</text>
</g>
<!-- l2a_wfov_a_prod -->
<g id="node11" class="node">
<title>l2a_wfov_a_prod</title>
<polygon fill="none" stroke="black" points="745.15,-225 585.15,-225 585.15,-189 745.15,-189 745.15,-225"/>
<text text-anchor="middle" x="665.15" y="-203.3" font-family="Times,serif" font-size="14.00">L2a_wfov_a products 1..b</text>
</g>
<!-- trans_wfov_a_l1_l2a&#45;&gt;l2a_wfov_a_prod -->
<g id="edge6" class="edge">
<title>trans_wfov_a_l1_l2a&#45;&gt;l2a_wfov_a_prod</title>
<path fill="none" stroke="black" stroke-dasharray="5,2" d="M453.29,-207C453.29,-207 575.01,-207 575.01,-207"/>
<polygon fill="black" stroke="black" points="575.01,-210.5 585.01,-207 575.01,-203.5 575.01,-210.5"/>
</g>
<!-- l2a_wfov_a_man -->
<g id="node12" class="node">
<title>l2a_wfov_a_man</title>
<ellipse fill="none" stroke="black" cx="665.15" cy="-153" rx="133.78" ry="18"/>
<text text-anchor="middle" x="665.15" y="-149.3" font-family="Times,serif" font-size="14.00">L2a_wfov_a product manifest 1..1</text>
</g>
<!-- trans_wfov_a_l1_l2a&#45;&gt;l2a_wfov_a_man -->
<g id="edge7" class="edge">
<title>trans_wfov_a_l1_l2a&#45;&gt;l2a_wfov_a_man</title>
<path fill="none" stroke="black" d="M491.83,-153C491.83,-153 520.87,-153 520.87,-153"/>
<polygon fill="black" stroke="black" points="520.87,-156.5 530.87,-153 520.87,-149.5 520.87,-156.5"/>
</g>
<!-- l2a_wfov_a_log -->
<g id="node21" class="node">
<title>l2a_wfov_a_log</title>
<ellipse fill="none" stroke="black" cx="665.15" cy="-99" rx="85.29" ry="18"/>
<text text-anchor="middle" x="665.15" y="-95.3" font-family="Times,serif" font-size="14.00">L2a log_wfov_a 1..1</text>
</g>
<!-- trans_wfov_a_l1_l2a&#45;&gt;l2a_wfov_a_log -->
<g id="edge8" class="edge">
<title>trans_wfov_a_l1_l2a&#45;&gt;l2a_wfov_a_log</title>
<path fill="none" stroke="black" stroke-dasharray="5,2" d="M491.83,-99C491.83,-99 569.75,-99 569.75,-99"/>
<polygon fill="black" stroke="black" points="569.75,-102.5 579.75,-99 569.75,-95.5 569.75,-102.5"/>
</g>
<!-- l2a_wfov_a_src -->
<g id="node47" class="node">
<title>l2a_wfov_a_src</title>
<ellipse fill="none" stroke="black" cx="665.15" cy="-45" rx="129.98" ry="18"/>
<text text-anchor="middle" x="665.15" y="-41.3" font-family="Times,serif" font-size="14.00">L2a_wfov_a source manifest 1..1</text>
</g>
<!-- trans_wfov_a_l1_l2a&#45;&gt;l2a_wfov_a_src -->
<g id="edge49" class="edge">
<title>trans_wfov_a_l1_l2a&#45;&gt;l2a_wfov_a_src</title>
<path fill="none" stroke="black" d="M453.29,-45C453.29,-45 524.92,-45 524.92,-45"/>
<polygon fill="black" stroke="black" points="524.92,-48.5 534.92,-45 524.92,-41.5 524.92,-48.5"/>
</g>
<!-- trans_wfov_a_l2a_l2b -->
<g id="node2" class="node">
<title>trans_wfov_a_l2a_l2b</title>
<ellipse fill="none" stroke="black" cx="934.04" cy="-396" rx="98.99" ry="98.99"/>
<text text-anchor="middle" x="934.04" y="-399.8" font-family="Times,serif" font-size="14.00">wfov_a Transmutation</text>
<text text-anchor="middle" x="934.04" y="-384.8" font-family="Times,serif" font-size="14.00">L2a to L2b</text>
</g>
<!-- l2b_wfov_a_prod -->
<g id="node22" class="node">
<title>l2b_wfov_a_prod</title>
<polygon fill="none" stroke="black" points="1283.42,-495 1122.42,-495 1122.42,-459 1283.42,-459 1283.42,-495"/>
<text text-anchor="middle" x="1202.92" y="-473.3" font-family="Times,serif" font-size="14.00">L2b_wfov_a products 1..1</text>
</g>
<!-- trans_wfov_a_l2a_l2b&#45;&gt;l2b_wfov_a_prod -->
<g id="edge18" class="edge">
<title>trans_wfov_a_l2a_l2b&#45;&gt;l2b_wfov_a_prod</title>
<path fill="none" stroke="black" stroke-dasharray="5,2" d="M991.06,-477C991.06,-477 1112.26,-477 1112.26,-477"/>
<polygon fill="black" stroke="black" points="1112.26,-480.5 1122.26,-477 1112.26,-473.5 1112.26,-480.5"/>
</g>
<!-- l2b_wfov_a_man -->
<g id="node23" class="node">
<title>l2b_wfov_a_man</title>
<ellipse fill="none" stroke="black" cx="1202.92" cy="-423" rx="133.78" ry="18"/>
<text text-anchor="middle" x="1202.92" y="-419.3" font-family="Times,serif" font-size="14.00">L2b_wfov_a product manifest 1..1</text>
</g>
<!-- trans_wfov_a_l2a_l2b&#45;&gt;l2b_wfov_a_man -->
<g id="edge19" class="edge">
<title>trans_wfov_a_l2a_l2b&#45;&gt;l2b_wfov_a_man</title>
<path fill="none" stroke="black" d="M1029.59,-423C1029.59,-423 1058.64,-423 1058.64,-423"/>
<polygon fill="black" stroke="black" points="1058.64,-426.5 1068.64,-423 1058.64,-419.5 1058.64,-426.5"/>
</g>
<!-- l2b_wfov_a_log -->
<g id="node29" class="node">
<title>l2b_wfov_a_log</title>
<ellipse fill="none" stroke="black" cx="1202.92" cy="-369" rx="85.29" ry="18"/>
<text text-anchor="middle" x="1202.92" y="-365.3" font-family="Times,serif" font-size="14.00">L2b_wfov_a log 1..1</text>
</g>
<!-- trans_wfov_a_l2a_l2b&#45;&gt;l2b_wfov_a_log -->
<g id="edge20" class="edge">
<title>trans_wfov_a_l2a_l2b&#45;&gt;l2b_wfov_a_log</title>
<path fill="none" stroke="black" stroke-dasharray="5,2" d="M1029.59,-369C1029.59,-369 1107.52,-369 1107.52,-369"/>
<polygon fill="black" stroke="black" points="1107.52,-372.5 1117.52,-369 1107.52,-365.5 1107.52,-372.5"/>
</g>
<!-- l2b_wfov_a_src -->
<g id="node48" class="node">
<title>l2b_wfov_a_src</title>
<ellipse fill="none" stroke="black" cx="1202.92" cy="-315" rx="129.98" ry="18"/>
<text text-anchor="middle" x="1202.92" y="-311.3" font-family="Times,serif" font-size="14.00">L2b_wfov_a source manifest 1..1</text>
</g>
<!-- trans_wfov_a_l2a_l2b&#45;&gt;l2b_wfov_a_src -->
<g id="edge50" class="edge">
<title>trans_wfov_a_l2a_l2b&#45;&gt;l2b_wfov_a_src</title>
<path fill="none" stroke="black" d="M991.06,-315C991.06,-315 1062.68,-315 1062.68,-315"/>
<polygon fill="black" stroke="black" points="1062.68,-318.5 1072.68,-315 1062.68,-311.5 1062.68,-318.5"/>
</g>
<!-- trans_wfov_a_l2b_l3 -->
<g id="node3" class="node">
<title>trans_wfov_a_l2b_l3</title>
<ellipse fill="none" stroke="black" cx="1471.8" cy="-585" rx="98.99" ry="98.99"/>
<text text-anchor="middle" x="1471.8" y="-588.8" font-family="Times,serif" font-size="14.00">wfov_a Transmutation</text>
<text text-anchor="middle" x="1471.8" y="-573.8" font-family="Times,serif" font-size="14.00">L2b to L3</text>
</g>
<!-- l3_wfov_a_prod -->
<g id="node30" class="node">
<title>l3_wfov_a_prod</title>
<polygon fill="none" stroke="black" points="1813.79,-684 1659.79,-684 1659.79,-648 1813.79,-648 1813.79,-684"/>
<text text-anchor="middle" x="1736.79" y="-662.3" font-family="Times,serif" font-size="14.00">L3_wfov_a products 1..1</text>
</g>
<!-- trans_wfov_a_l2b_l3&#45;&gt;l3_wfov_a_prod -->
<g id="edge29" class="edge">
<title>trans_wfov_a_l2b_l3&#45;&gt;l3_wfov_a_prod</title>
<path fill="none" stroke="black" stroke-dasharray="5,2" d="M1528.98,-666C1528.98,-666 1649.61,-666 1649.61,-666"/>
<polygon fill="black" stroke="black" points="1649.61,-669.5 1659.61,-666 1649.61,-662.5 1649.61,-669.5"/>
</g>
<!-- l3_wfov_a_man -->
<g id="node32" class="node">
<title>l3_wfov_a_man</title>
<ellipse fill="none" stroke="black" cx="1736.79" cy="-612" rx="129.98" ry="18"/>
<text text-anchor="middle" x="1736.79" y="-608.3" font-family="Times,serif" font-size="14.00">L3_wfov_a product manifest 1..1</text>
</g>
<!-- trans_wfov_a_l2b_l3&#45;&gt;l3_wfov_a_man -->
<g id="edge30" class="edge">
<title>trans_wfov_a_l2b_l3&#45;&gt;l3_wfov_a_man</title>
<path fill="none" stroke="black" d="M1567.09,-612C1567.09,-612 1596.35,-612 1596.35,-612"/>
<polygon fill="black" stroke="black" points="1596.35,-615.5 1606.35,-612 1596.35,-608.5 1596.35,-615.5"/>
</g>
<!-- l3_wfov_a_log -->
<g id="node35" class="node">
<title>l3_wfov_a_log</title>
<ellipse fill="none" stroke="black" cx="1736.79" cy="-558" rx="81.49" ry="18"/>
<text text-anchor="middle" x="1736.79" y="-554.3" font-family="Times,serif" font-size="14.00">L3_wfov_a log 1..1</text>
</g>
<!-- trans_wfov_a_l2b_l3&#45;&gt;l3_wfov_a_log -->
<g id="edge31" class="edge">
<title>trans_wfov_a_l2b_l3&#45;&gt;l3_wfov_a_log</title>
<path fill="none" stroke="black" stroke-dasharray="5,2" d="M1567.09,-558C1567.09,-558 1645.46,-558 1645.46,-558"/>
<polygon fill="black" stroke="black" points="1645.46,-561.5 1655.46,-558 1645.46,-554.5 1645.46,-561.5"/>
</g>
<!-- l3_wfov_a_src -->
<g id="node49" class="node">
<title>l3_wfov_a_src</title>
<ellipse fill="none" stroke="black" cx="1736.79" cy="-504" rx="126.18" ry="18"/>
<text text-anchor="middle" x="1736.79" y="-500.3" font-family="Times,serif" font-size="14.00">L3_wfov_a source manifest 1..1</text>
</g>
<!-- trans_wfov_a_l2b_l3&#45;&gt;l3_wfov_a_src -->
<g id="edge51" class="edge">
<title>trans_wfov_a_l2b_l3&#45;&gt;l3_wfov_a_src</title>
<path fill="none" stroke="black" d="M1528.98,-504C1528.98,-504 1600.61,-504 1600.61,-504"/>
<polygon fill="black" stroke="black" points="1600.61,-507.5 1610.61,-504 1600.61,-500.5 1600.61,-507.5"/>
</g>
<!-- trans_wfov_a_l3_l4 -->
<g id="node4" class="node">
<title>trans_wfov_a_l3_l4</title>
<ellipse fill="none" stroke="black" cx="2001.77" cy="-720" rx="98.99" ry="98.99"/>
<text text-anchor="middle" x="2001.77" y="-723.8" font-family="Times,serif" font-size="14.00">wfov_a Transmutation</text>
<text text-anchor="middle" x="2001.77" y="-708.8" font-family="Times,serif" font-size="14.00">L3 to L4</text>
</g>
<!-- l4_wfov_a_prod -->
<g id="node36" class="node">
<title>l4_wfov_a_prod</title>
<polygon fill="none" stroke="black" points="2343.77,-819 2189.77,-819 2189.77,-783 2343.77,-783 2343.77,-819"/>
<text text-anchor="middle" x="2266.77" y="-797.3" font-family="Times,serif" font-size="14.00">L4_wfov_a products 1..1</text>
</g>
<!-- trans_wfov_a_l3_l4&#45;&gt;l4_wfov_a_prod -->
<g id="edge37" class="edge">
<title>trans_wfov_a_l3_l4&#45;&gt;l4_wfov_a_prod</title>
<path fill="none" stroke="black" stroke-dasharray="5,2" d="M2058.94,-801C2058.94,-801 2179.58,-801 2179.58,-801"/>
<polygon fill="black" stroke="black" points="2179.58,-804.5 2189.58,-801 2179.58,-797.5 2179.58,-804.5"/>
</g>
<!-- l4_wfov_a_log -->
<g id="node38" class="node">
<title>l4_wfov_a_log</title>
<ellipse fill="none" stroke="black" cx="2266.77" cy="-747" rx="81.49" ry="18"/>
<text text-anchor="middle" x="2266.77" y="-743.3" font-family="Times,serif" font-size="14.00">L4_wfov_a log 1..1</text>
</g>
<!-- trans_wfov_a_l3_l4&#45;&gt;l4_wfov_a_log -->
<g id="edge38" class="edge">
<title>trans_wfov_a_l3_l4&#45;&gt;l4_wfov_a_log</title>
<path fill="none" stroke="black" stroke-dasharray="5,2" d="M2097.07,-747C2097.07,-747 2175.44,-747 2175.44,-747"/>
<polygon fill="black" stroke="black" points="2175.44,-750.5 2185.44,-747 2175.44,-743.5 2175.44,-750.5"/>
</g>
<!-- l4_wfov_a_man -->
<g id="node39" class="node">
<title>l4_wfov_a_man</title>
<ellipse fill="none" stroke="black" cx="2266.77" cy="-693" rx="129.98" ry="18"/>
<text text-anchor="middle" x="2266.77" y="-689.3" font-family="Times,serif" font-size="14.00">L4_wfov_a product manifest 1..1</text>
</g>
<!-- trans_wfov_a_l3_l4&#45;&gt;l4_wfov_a_man -->
<g id="edge39" class="edge">
<title>trans_wfov_a_l3_l4&#45;&gt;l4_wfov_a_man</title>
<path fill="none" stroke="black" d="M2097.07,-693C2097.07,-693 2126.32,-693 2126.32,-693"/>
<polygon fill="black" stroke="black" points="2126.32,-696.5 2136.32,-693 2126.32,-689.5 2126.32,-696.5"/>
</g>
<!-- l4_wfov_a_src -->
<g id="node50" class="node">
<title>l4_wfov_a_src</title>
<ellipse fill="none" stroke="black" cx="2266.77" cy="-639" rx="123.48" ry="18"/>
<text text-anchor="middle" x="2266.77" y="-635.3" font-family="Times,serif" font-size="14.00">L4_wfov_a sourcemanifest 1..1</text>
</g>
<!-- trans_wfov_a_l3_l4&#45;&gt;l4_wfov_a_src -->
<g id="edge52" class="edge">
<title>trans_wfov_a_l3_l4&#45;&gt;l4_wfov_a_src</title>
<path fill="none" stroke="black" d="M2058.94,-639C2058.94,-639 2133.02,-639 2133.02,-639"/>
<polygon fill="black" stroke="black" points="2133.02,-642.5 2143.02,-639 2133.02,-635.5 2133.02,-642.5"/>
</g>
<!-- trans_wfov_a_l4_tda -->
<g id="node5" class="node">
<title>trans_wfov_a_l4_tda</title>
<ellipse fill="none" stroke="black" cx="2531.76" cy="-909" rx="98.99" ry="98.99"/>
<text text-anchor="middle" x="2531.76" y="-912.8" font-family="Times,serif" font-size="14.00">wfov_a Transmutation</text>
<text text-anchor="middle" x="2531.76" y="-897.8" font-family="Times,serif" font-size="14.00">L4 to TDA</text>
</g>
<!-- tda_wfov_a_prod -->
<g id="node45" class="node">
<title>tda_wfov_a_prod</title>
<ellipse fill="none" stroke="black" cx="2798.69" cy="-963" rx="72.59" ry="18"/>
<text text-anchor="middle" x="2798.69" y="-959.3" font-family="Times,serif" font-size="14.00">tda_wfov_a_prod</text>
</g>
<!-- trans_wfov_a_l4_tda&#45;&gt;tda_wfov_a_prod -->
<g id="edge47" class="edge">
<title>trans_wfov_a_l4_tda&#45;&gt;tda_wfov_a_prod</title>
<path fill="none" stroke="black" stroke-dasharray="5,2" d="M2614.76,-963C2614.76,-963 2715.69,-963 2715.69,-963"/>
<polygon fill="black" stroke="black" points="2715.69,-966.5 2725.69,-963 2715.69,-959.5 2715.69,-966.5"/>
</g>
<!-- tda_wfov_a_log -->
<g id="node46" class="node">
<title>tda_wfov_a_log</title>
<ellipse fill="none" stroke="black" cx="2798.69" cy="-909" rx="67.69" ry="18"/>
<text text-anchor="middle" x="2798.69" y="-905.3" font-family="Times,serif" font-size="14.00">tda_wfov_a_log</text>
</g>
<!-- trans_wfov_a_l4_tda&#45;&gt;tda_wfov_a_log -->
<g id="edge48" class="edge">
<title>trans_wfov_a_l4_tda&#45;&gt;tda_wfov_a_log</title>
<path fill="none" stroke="black" stroke-dasharray="5,2" d="M2630.78,-909C2630.78,-909 2721.03,-909 2721.03,-909"/>
<polygon fill="black" stroke="black" points="2721.03,-912.5 2731.03,-909 2721.03,-905.5 2721.03,-912.5"/>
</g>
<!-- tda_wfov_a_src -->
<g id="node51" class="node">
<title>tda_wfov_a_src</title>
<ellipse fill="none" stroke="black" cx="2798.69" cy="-855" rx="131.88" ry="18"/>
<text text-anchor="middle" x="2798.69" y="-851.3" font-family="Times,serif" font-size="14.00">TDA_wfov_a sourcemanifest 1..1</text>
</g>
<!-- trans_wfov_a_l4_tda&#45;&gt;tda_wfov_a_src -->
<g id="edge53" class="edge">
<title>trans_wfov_a_l4_tda&#45;&gt;tda_wfov_a_src</title>
<path fill="none" stroke="black" d="M2614.76,-855C2614.76,-855 2656.73,-855 2656.73,-855"/>
<polygon fill="black" stroke="black" points="2656.73,-858.5 2666.73,-855 2656.73,-851.5 2656.73,-858.5"/>
</g>
<!-- l1_wfov_a_prod -->
<g id="node6" class="node">
<title>l1_wfov_a_prod</title>
<polygon fill="none" stroke="black" points="207.64,-252 53.64,-252 53.64,-216 207.64,-216 207.64,-252"/>
<text text-anchor="middle" x="130.64" y="-230.3" font-family="Times,serif" font-size="14.00">L1_wfov_a products 1..b</text>
</g>
<!-- l1_wfov_a_prod&#45;&gt;trans_wfov_a_l1_l2a -->
<g id="edge1" class="edge">
<title>l1_wfov_a_prod&#45;&gt;trans_wfov_a_l1_l2a</title>
<path fill="none" stroke="black" stroke-dasharray="5,2" d="M207.83,-220.5C207.83,-220.5 356.73,-220.5 356.73,-220.5"/>
<polygon fill="black" stroke="black" points="356.73,-224 366.73,-220.5 356.73,-217 356.73,-224"/>
</g>
<!-- l1_wfov_a_man -->
<g id="node7" class="node">
<title>l1_wfov_a_man</title>
<ellipse fill="none" stroke="black" cx="130.64" cy="-180" rx="129.98" ry="18"/>
<text text-anchor="middle" x="130.64" y="-176.3" font-family="Times,serif" font-size="14.00">L1_wfov_a product manifest 1..1</text>
</g>
<!-- l1_wfov_a_man&#45;&gt;trans_wfov_a_l1_l2a -->
<g id="edge2" class="edge">
<title>l1_wfov_a_man&#45;&gt;trans_wfov_a_l1_l2a</title>
<path fill="none" stroke="black" d="M260.73,-180C260.73,-180 303.27,-180 303.27,-180"/>
<polygon fill="black" stroke="black" points="303.27,-183.5 313.27,-180 303.27,-176.5 303.27,-183.5"/>
</g>
<!-- l1_wfov_a_odir -->
<g id="node8" class="node">
<title>l1_wfov_a_odir</title>
<ellipse fill="none" stroke="black" cx="130.64" cy="-126" rx="109.68" ry="18"/>
<text text-anchor="middle" x="130.64" y="-122.3" font-family="Times,serif" font-size="14.00">L1_wfov_a output path 1..1</text>
</g>
<!-- l1_wfov_a_odir&#45;&gt;trans_wfov_a_l1_l2a -->
<g id="edge3" class="edge">
<title>l1_wfov_a_odir&#45;&gt;trans_wfov_a_l1_l2a</title>
<path fill="none" stroke="black" d="M240.6,-126C240.6,-126 287.02,-126 287.02,-126"/>
<polygon fill="black" stroke="black" points="287.02,-129.5 297.02,-126 287.02,-122.5 287.02,-129.5"/>
</g>
<!-- l1_wfov_a_rec -->
<g id="node9" class="node">
<title>l1_wfov_a_rec</title>
<polygon fill="none" stroke="black" points="188.64,-84 60.64,-84 60.64,-60 188.64,-60 200.64,-72 188.64,-84"/>
<text text-anchor="middle" x="130.64" y="-68.3" font-family="Times,serif" font-size="14.00">L1_wfov_a recipe 1..1</text>
</g>
<!-- l1_wfov_a_rec&#45;&gt;trans_wfov_a_l1_l2a -->
<g id="edge4" class="edge">
<title>l1_wfov_a_rec&#45;&gt;trans_wfov_a_l1_l2a</title>
<path fill="none" stroke="black" d="M200.78,-72C200.78,-72 302.98,-72 302.98,-72"/>
<polygon fill="black" stroke="black" points="302.98,-75.5 312.98,-72 302.98,-68.5 302.98,-75.5"/>
</g>
<!-- l1_wfov_a_nllut -->
<g id="node10" class="node">
<title>l1_wfov_a_nllut</title>
<polygon fill="none" stroke="black" points="214.64,-30 34.64,-30 34.64,-6 214.64,-6 226.64,-18 214.64,-30"/>
<text text-anchor="middle" x="130.64" y="-14.3" font-family="Times,serif" font-size="14.00">L1_wfov_a non&#45;linear LUT 1..1</text>
</g>
<!-- l1_wfov_a_nllut&#45;&gt;trans_wfov_a_l1_l2a -->
<g id="edge5" class="edge">
<title>l1_wfov_a_nllut&#45;&gt;trans_wfov_a_l1_l2a</title>
<path fill="none" stroke="black" d="M226.91,-31.5C226.91,-31.5 356.47,-31.5 356.47,-31.5"/>
<polygon fill="black" stroke="black" points="356.47,-35 366.47,-31.5 356.47,-28 356.47,-35"/>
</g>
<!-- l2a_wfov_a_prod&#45;&gt;trans_wfov_a_l2a_l2b -->
<g id="edge9" class="edge">
<title>l2a_wfov_a_prod&#45;&gt;trans_wfov_a_l2a_l2b</title>
<path fill="none" stroke="black" stroke-dasharray="5,2" d="M745.42,-207C835.03,-207 967.63,-207 967.63,-207 967.63,-207 967.63,-292.61 967.63,-292.61"/>
<polygon fill="black" stroke="black" points="964.13,-292.61 967.63,-302.61 971.13,-292.61 964.13,-292.61"/>
</g>
<!-- l2a_wfov_a_man&#45;&gt;trans_wfov_a_l2a_l2b -->
<g id="edge21" class="edge">
<title>l2a_wfov_a_man&#45;&gt;trans_wfov_a_l2a_l2b</title>
<path fill="none" stroke="black" d="M793.63,-158.19C793.63,-185.26 793.63,-309 793.63,-309 793.63,-309 876.5,-309 876.5,-309"/>
<polygon fill="black" stroke="black" points="876.5,-312.5 886.5,-309 876.5,-305.5 876.5,-312.5"/>
</g>
<!-- l2a_wfov_a_odir -->
<g id="node13" class="node">
<title>l2a_wfov_a_odir</title>
<ellipse fill="none" stroke="black" cx="665.15" cy="-641" rx="113.98" ry="18"/>
<text text-anchor="middle" x="665.15" y="-637.3" font-family="Times,serif" font-size="14.00">L2a_wfov_a output path 1..1</text>
</g>
<!-- l2a_wfov_a_odir&#45;&gt;trans_wfov_a_l2a_l2b -->
<g id="edge10" class="edge">
<title>l2a_wfov_a_odir&#45;&gt;trans_wfov_a_l2a_l2b</title>
<path fill="none" stroke="black" d="M779.08,-640C864.82,-640 967.63,-640 967.63,-640 967.63,-640 967.63,-499.29 967.63,-499.29"/>
<polygon fill="black" stroke="black" points="971.13,-499.29 967.63,-489.29 964.13,-499.29 971.13,-499.29"/>
</g>
<!-- l2a_wfov_a_rec -->
<g id="node14" class="node">
<title>l2a_wfov_a_rec</title>
<polygon fill="none" stroke="black" points="726.15,-599 592.15,-599 592.15,-575 726.15,-575 738.15,-587 726.15,-599"/>
<text text-anchor="middle" x="665.15" y="-583.3" font-family="Times,serif" font-size="14.00">L2a_wfov_a recipe 1..1</text>
</g>
<!-- l2a_wfov_a_rec&#45;&gt;trans_wfov_a_l2a_l2b -->
<g id="edge11" class="edge">
<title>l2a_wfov_a_rec&#45;&gt;trans_wfov_a_l2a_l2b</title>
<path fill="none" stroke="black" d="M738.36,-586C807.81,-586 901.63,-586 901.63,-586 901.63,-586 901.63,-499.61 901.63,-499.61"/>
<polygon fill="black" stroke="black" points="905.13,-499.61 901.63,-489.61 898.13,-499.61 905.13,-499.61"/>
</g>
<!-- l2a_wfov_a_cti -->
<g id="node15" class="node">
<title>l2a_wfov_a_cti</title>
<polygon fill="none" stroke="black" points="774.65,-545 543.65,-545 543.65,-521 774.65,-521 786.65,-533 774.65,-545"/>
<text text-anchor="middle" x="665.15" y="-529.3" font-family="Times,serif" font-size="14.00">L2a_wfov_a charge xfer inefficiency 1..1</text>
</g>
<!-- l2a_wfov_a_cti&#45;&gt;trans_wfov_a_l2a_l2b -->
<g id="edge12" class="edge">
<title>l2a_wfov_a_cti&#45;&gt;trans_wfov_a_l2a_l2b</title>
<path fill="none" stroke="black" d="M777.63,-514.95C777.63,-500.62 777.63,-483 777.63,-483 777.63,-483 876.69,-483 876.69,-483"/>
<polygon fill="black" stroke="black" points="876.69,-486.5 886.69,-483 876.69,-479.5 876.69,-486.5"/>
</g>
<!-- l2a_wfov_a_dnb -->
<g id="node16" class="node">
<title>l2a_wfov_a_dnb</title>
<polygon fill="none" stroke="black" points="760.65,-491 557.65,-491 557.65,-465 760.65,-465 772.65,-478 760.65,-491"/>
<text text-anchor="middle" x="665.15" y="-481.8" font-family="Times,serif" font-size="14.00">L2a_wfov_a CIC/Dark Current/FPN</text>
<text text-anchor="middle" x="665.15" y="-466.8" font-family="Times,serif" font-size="14.00"> or master dark 1..1</text>
</g>
<!-- l2a_wfov_a_dnb&#45;&gt;trans_wfov_a_l2a_l2b -->
<g id="edge13" class="edge">
<title>l2a_wfov_a_dnb&#45;&gt;trans_wfov_a_l2a_l2b</title>
<path fill="none" stroke="black" d="M772.97,-471C772.97,-471 859.16,-471 859.16,-471"/>
<polygon fill="black" stroke="black" points="859.16,-474.5 869.16,-471 859.16,-467.5 859.16,-474.5"/>
</g>
<!-- l2a_wfov_a_mbpm -->
<g id="node17" class="node">
<title>l2a_wfov_a_mbpm</title>
<polygon fill="none" stroke="black" points="769.15,-435 549.15,-435 549.15,-411 769.15,-411 781.15,-423 769.15,-435"/>
<text text-anchor="middle" x="665.15" y="-419.3" font-family="Times,serif" font-size="14.00">L2a_wfov_a master bad pixel map 1..1</text>
</g>
<!-- l2a_wfov_a_mbpm&#45;&gt;trans_wfov_a_l2a_l2b -->
<g id="edge14" class="edge">
<title>l2a_wfov_a_mbpm&#45;&gt;trans_wfov_a_l2a_l2b</title>
<path fill="none" stroke="black" d="M781.53,-423C781.53,-423 828.5,-423 828.5,-423"/>
<polygon fill="black" stroke="black" points="828.5,-426.5 838.5,-423 828.5,-419.5 828.5,-426.5"/>
</g>
<!-- l2a_wfov_a_ff -->
<g id="node18" class="node">
<title>l2a_wfov_a_ff</title>
<polygon fill="none" stroke="black" points="735.65,-381 582.65,-381 582.65,-357 735.65,-357 747.65,-369 735.65,-381"/>
<text text-anchor="middle" x="665.15" y="-365.3" font-family="Times,serif" font-size="14.00">L2a_wfov_a flat fields 1..1</text>
</g>
<!-- l2a_wfov_a_ff&#45;&gt;trans_wfov_a_l2a_l2b -->
<g id="edge15" class="edge">
<title>l2a_wfov_a_ff&#45;&gt;trans_wfov_a_l2a_l2b</title>
<path fill="none" stroke="black" d="M747.66,-369C747.66,-369 828.5,-369 828.5,-369"/>
<polygon fill="black" stroke="black" points="828.5,-372.5 838.5,-369 828.5,-365.5 828.5,-372.5"/>
</g>
<!-- l2a_wfov_a_emg -->
<g id="node19" class="node">
<title>l2a_wfov_a_emg</title>
<polygon fill="none" stroke="black" points="733.65,-327 584.65,-327 584.65,-303 733.65,-303 745.65,-315 733.65,-327"/>
<text text-anchor="middle" x="665.15" y="-311.3" font-family="Times,serif" font-size="14.00">L2a_wfov_a EM gain 1..1</text>
</g>
<!-- l2a_wfov_a_emg&#45;&gt;trans_wfov_a_l2a_l2b -->
<g id="edge16" class="edge">
<title>l2a_wfov_a_emg&#45;&gt;trans_wfov_a_l2a_l2b</title>
<path fill="none" stroke="black" d="M745.83,-321C745.83,-321 859.2,-321 859.2,-321"/>
<polygon fill="black" stroke="black" points="859.2,-324.5 869.2,-321 859.2,-317.5 859.2,-324.5"/>
</g>
<!-- l2a_wfov_a_kgain -->
<g id="node20" class="node">
<title>l2a_wfov_a_kgain</title>
<polygon fill="none" stroke="black" points="726.15,-273 592.15,-273 592.15,-249 726.15,-249 738.15,-261 726.15,-273"/>
<text text-anchor="middle" x="665.15" y="-257.3" font-family="Times,serif" font-size="14.00">L2a_wfov_a Kgain 1..1</text>
</g>
<!-- l2a_wfov_a_kgain&#45;&gt;trans_wfov_a_l2a_l2b -->
<g id="edge17" class="edge">
<title>l2a_wfov_a_kgain&#45;&gt;trans_wfov_a_l2a_l2b</title>
<path fill="none" stroke="black" d="M738.36,-261C807.81,-261 901.63,-261 901.63,-261 901.63,-261 901.63,-292.24 901.63,-292.24"/>
<polygon fill="black" stroke="black" points="898.13,-292.24 901.63,-302.24 905.13,-292.24 898.13,-292.24"/>
</g>
<!-- l2b_wfov_a_prod&#45;&gt;trans_wfov_a_l2b_l3 -->
<g id="edge22" class="edge">
<title>l2b_wfov_a_prod&#45;&gt;trans_wfov_a_l2b_l3</title>
<path fill="none" stroke="black" stroke-dasharray="5,2" d="M1283.59,-492C1283.59,-492 1427.76,-492 1427.76,-492"/>
<polygon fill="black" stroke="black" points="1427.76,-495.5 1437.76,-492 1427.76,-488.5 1427.76,-495.5"/>
</g>
<!-- l2b_wfov_a_man&#45;&gt;trans_wfov_a_l2b_l3 -->
<g id="edge23" class="edge">
<title>l2b_wfov_a_man&#45;&gt;trans_wfov_a_l2b_l3</title>
<path fill="none" stroke="black" d="M1315.63,-432.74C1315.63,-451.1 1315.63,-489 1315.63,-489 1315.63,-489 1437.4,-489 1437.4,-489"/>
<polygon fill="black" stroke="black" points="1437.4,-492.5 1447.4,-489 1437.4,-485.5 1437.4,-492.5"/>
</g>
<!-- l2b_wfov_a_odir -->
<g id="node24" class="node">
<title>l2b_wfov_a_odir</title>
<ellipse fill="none" stroke="black" cx="1202.92" cy="-747" rx="114.28" ry="18"/>
<text text-anchor="middle" x="1202.92" y="-743.3" font-family="Times,serif" font-size="14.00">L2b_wfov_a output path 1..1</text>
</g>
<!-- l2b_wfov_a_odir&#45;&gt;trans_wfov_a_l2b_l3 -->
<g id="edge24" class="edge">
<title>l2b_wfov_a_odir&#45;&gt;trans_wfov_a_l2b_l3</title>
<path fill="none" stroke="black" d="M1297.63,-736.69C1297.63,-718.12 1297.63,-681 1297.63,-681 1297.63,-681 1437.59,-681 1437.59,-681"/>
<polygon fill="black" stroke="black" points="1437.59,-684.5 1447.59,-681 1437.59,-677.5 1437.59,-684.5"/>
</g>
<!-- l2b_wfov_a_rec -->
<g id="node25" class="node">
<title>l2b_wfov_a_rec</title>
<polygon fill="none" stroke="black" points="1264.42,-705 1129.42,-705 1129.42,-681 1264.42,-681 1276.42,-693 1264.42,-705"/>
<text text-anchor="middle" x="1202.92" y="-689.3" font-family="Times,serif" font-size="14.00">L2b_wfov_a recipe 1..1</text>
</g>
<!-- l2b_wfov_a_rec&#45;&gt;trans_wfov_a_l2b_l3 -->
<g id="edge25" class="edge">
<title>l2b_wfov_a_rec&#45;&gt;trans_wfov_a_l2b_l3</title>
<path fill="none" stroke="black" d="M1276.75,-678C1276.75,-678 1427.74,-678 1427.74,-678"/>
<polygon fill="black" stroke="black" points="1427.74,-681.5 1437.74,-678 1427.74,-674.5 1427.74,-681.5"/>
</g>
<!-- l2b_wfov_a_excicrf -->
<g id="node26" class="node">
<title>l2b_wfov_a_excicrf</title>
<polygon fill="none" stroke="black" points="1313.42,-651 1080.42,-651 1080.42,-627 1313.42,-627 1325.42,-639 1313.42,-651"/>
<text text-anchor="middle" x="1202.92" y="-635.3" font-family="Times,serif" font-size="14.00">L2b_wfov_a EXCAM ICRF location 1..1</text>
</g>
<!-- l2b_wfov_a_excicrf&#45;&gt;trans_wfov_a_l2b_l3 -->
<g id="edge26" class="edge">
<title>l2b_wfov_a_excicrf&#45;&gt;trans_wfov_a_l2b_l3</title>
<path fill="none" stroke="black" d="M1325.56,-639C1325.56,-639 1378.58,-639 1378.58,-639"/>
<polygon fill="black" stroke="black" points="1378.58,-642.5 1388.58,-639 1378.58,-635.5 1378.58,-642.5"/>
</g>
<!-- l2b_wfov_a_excfovps -->
<g id="node27" class="node">
<title>l2b_wfov_a_excfovps</title>
<polygon fill="none" stroke="black" points="1318.42,-597 1075.42,-597 1075.42,-573 1318.42,-573 1330.42,-585 1318.42,-597"/>
<text text-anchor="middle" x="1202.92" y="-581.3" font-family="Times,serif" font-size="14.00">L2b_wfov_a EXCAM FOV pixel scale 1..1</text>
</g>
<!-- l2b_wfov_a_excfovps&#45;&gt;trans_wfov_a_l2b_l3 -->
<g id="edge27" class="edge">
<title>l2b_wfov_a_excfovps&#45;&gt;trans_wfov_a_l2b_l3</title>
<path fill="none" stroke="black" d="M1330.67,-585C1330.67,-585 1362.62,-585 1362.62,-585"/>
<polygon fill="black" stroke="black" points="1362.62,-588.5 1372.62,-585 1362.62,-581.5 1362.62,-588.5"/>
</g>
<!-- l2b_wfov_a_distm -->
<g id="node28" class="node">
<title>l2b_wfov_a_distm</title>
<polygon fill="none" stroke="black" points="1287.92,-543 1105.92,-543 1105.92,-519 1287.92,-519 1299.92,-531 1287.92,-543"/>
<text text-anchor="middle" x="1202.92" y="-527.3" font-family="Times,serif" font-size="14.00">L2b_wfov_a distortion map 1..1</text>
</g>
<!-- l2b_wfov_a_distm&#45;&gt;trans_wfov_a_l2b_l3 -->
<g id="edge28" class="edge">
<title>l2b_wfov_a_distm&#45;&gt;trans_wfov_a_l2b_l3</title>
<path fill="none" stroke="black" d="M1299.99,-531C1299.99,-531 1378.64,-531 1378.64,-531"/>
<polygon fill="black" stroke="black" points="1378.64,-534.5 1388.64,-531 1378.64,-527.5 1378.64,-534.5"/>
</g>
<!-- l3_wfov_a_prod&#45;&gt;trans_wfov_a_l3_l4 -->
<g id="edge32" class="edge">
<title>l3_wfov_a_prod&#45;&gt;trans_wfov_a_l3_l4</title>
<path fill="none" stroke="black" stroke-dasharray="5,2" d="M1813.79,-666C1813.79,-666 1908.56,-666 1908.56,-666"/>
<polygon fill="black" stroke="black" points="1908.56,-669.5 1918.56,-666 1908.56,-662.5 1908.56,-669.5"/>
</g>
<!-- l3_wfov_a_odir -->
<g id="node31" class="node">
<title>l3_wfov_a_odir</title>
<ellipse fill="none" stroke="black" cx="1736.79" cy="-828" rx="109.68" ry="18"/>
<text text-anchor="middle" x="1736.79" y="-824.3" font-family="Times,serif" font-size="14.00">L3_wfov_a output path 1..1</text>
</g>
<!-- l3_wfov_a_odir&#45;&gt;trans_wfov_a_l3_l4 -->
<g id="edge34" class="edge">
<title>l3_wfov_a_odir&#45;&gt;trans_wfov_a_l3_l4</title>
<path fill="none" stroke="black" d="M1809.55,-814.5C1809.55,-814.5 1961.99,-814.5 1961.99,-814.5"/>
<polygon fill="black" stroke="black" points="1961.99,-818 1971.99,-814.5 1961.99,-811 1961.99,-818"/>
</g>
<!-- l3_wfov_a_man&#45;&gt;trans_wfov_a_l3_l4 -->
<g id="edge33" class="edge">
<title>l3_wfov_a_man&#45;&gt;trans_wfov_a_l3_l4</title>
<path fill="none" stroke="black" d="M1822.82,-625.5C1822.82,-625.5 1962.15,-625.5 1962.15,-625.5"/>
<polygon fill="black" stroke="black" points="1962.15,-629 1972.15,-625.5 1962.15,-622 1962.15,-629"/>
</g>
<!-- l3_wfov_a_rec -->
<g id="node33" class="node">
<title>l3_wfov_a_rec</title>
<polygon fill="none" stroke="black" points="1794.79,-786 1666.79,-786 1666.79,-762 1794.79,-762 1806.79,-774 1794.79,-786"/>
<text text-anchor="middle" x="1736.79" y="-770.3" font-family="Times,serif" font-size="14.00">L3_wfov_a recipe 1..1</text>
</g>
<!-- l3_wfov_a_rec&#45;&gt;trans_wfov_a_l3_l4 -->
<g id="edge35" class="edge">
<title>l3_wfov_a_rec&#45;&gt;trans_wfov_a_l3_l4</title>
<path fill="none" stroke="black" d="M1807.1,-774C1807.1,-774 1908.4,-774 1908.4,-774"/>
<polygon fill="black" stroke="black" points="1908.4,-777.5 1918.4,-774 1908.4,-770.5 1908.4,-777.5"/>
</g>
<!-- l3_wfov_a_cal -->
<g id="node34" class="node">
<title>l3_wfov_a_cal</title>
<polygon fill="none" stroke="black" points="1807.29,-732 1654.29,-732 1654.29,-708 1807.29,-708 1819.29,-720 1807.29,-732"/>
<text text-anchor="middle" x="1736.79" y="-716.3" font-family="Times,serif" font-size="14.00">L3_wfov_a calibration 1..1</text>
</g>
<!-- l3_wfov_a_cal&#45;&gt;trans_wfov_a_l3_l4 -->
<g id="edge36" class="edge">
<title>l3_wfov_a_cal&#45;&gt;trans_wfov_a_l3_l4</title>
<path fill="none" stroke="black" d="M1819.54,-720C1819.54,-720 1892.45,-720 1892.45,-720"/>
<polygon fill="black" stroke="black" points="1892.45,-723.5 1902.45,-720 1892.45,-716.5 1892.45,-723.5"/>
</g>
<!-- l4_wfov_a_prod&#45;&gt;trans_wfov_a_l4_tda -->
<g id="edge40" class="edge">
<title>l4_wfov_a_prod&#45;&gt;trans_wfov_a_l4_tda</title>
<path fill="none" stroke="black" stroke-dasharray="5,2" d="M2343.77,-816C2343.77,-816 2487.55,-816 2487.55,-816"/>
<polygon fill="black" stroke="black" points="2487.55,-819.5 2497.55,-816 2487.55,-812.5 2487.55,-819.5"/>
</g>
<!-- l4_wfov_a_odir -->
<g id="node37" class="node">
<title>l4_wfov_a_odir</title>
<ellipse fill="none" stroke="black" cx="2266.77" cy="-1071" rx="109.68" ry="18"/>
<text text-anchor="middle" x="2266.77" y="-1067.3" font-family="Times,serif" font-size="14.00">L4_wfov_a output path 1..1</text>
</g>
<!-- l4_wfov_a_odir&#45;&gt;trans_wfov_a_l4_tda -->
<g id="edge42" class="edge">
<title>l4_wfov_a_odir&#45;&gt;trans_wfov_a_l4_tda</title>
<path fill="none" stroke="black" d="M2357.63,-1060.69C2357.63,-1042.12 2357.63,-1005 2357.63,-1005 2357.63,-1005 2497.55,-1005 2497.55,-1005"/>
<polygon fill="black" stroke="black" points="2497.55,-1008.5 2507.55,-1005 2497.55,-1001.5 2497.55,-1008.5"/>
</g>
<!-- l4_wfov_a_man&#45;&gt;trans_wfov_a_l4_tda -->
<g id="edge41" class="edge">
<title>l4_wfov_a_man&#45;&gt;trans_wfov_a_l4_tda</title>
<path fill="none" stroke="black" d="M2372.63,-703.65C2372.63,-733.02 2372.63,-813 2372.63,-813 2372.63,-813 2497.25,-813 2497.25,-813"/>
<polygon fill="black" stroke="black" points="2497.25,-816.5 2507.25,-813 2497.25,-809.5 2497.25,-816.5"/>
</g>
<!-- l4_wfov_a_rec -->
<g id="node40" class="node">
<title>l4_wfov_a_rec</title>
<polygon fill="none" stroke="black" points="2324.77,-1029 2196.77,-1029 2196.77,-1005 2324.77,-1005 2336.77,-1017 2324.77,-1029"/>
<text text-anchor="middle" x="2266.77" y="-1013.3" font-family="Times,serif" font-size="14.00">L4_wfov_a recipe 1..1</text>
</g>
<!-- l4_wfov_a_rec&#45;&gt;trans_wfov_a_l4_tda -->
<g id="edge43" class="edge">
<title>l4_wfov_a_rec&#45;&gt;trans_wfov_a_l4_tda</title>
<path fill="none" stroke="black" d="M2337.08,-1002C2337.08,-1002 2487.55,-1002 2487.55,-1002"/>
<polygon fill="black" stroke="black" points="2487.55,-1005.5 2497.55,-1002 2487.55,-998.5 2487.55,-1005.5"/>
</g>
<!-- l4_wfov_a_afcal -->
<g id="node41" class="node">
<title>l4_wfov_a_afcal</title>
<polygon fill="none" stroke="black" points="2377.27,-975 2144.27,-975 2144.27,-951 2377.27,-951 2389.27,-963 2377.27,-975"/>
<text text-anchor="middle" x="2266.77" y="-959.3" font-family="Times,serif" font-size="14.00">L4_wfov_a absolute flux calibrations 1..1</text>
</g>
<!-- l4_wfov_a_afcal&#45;&gt;trans_wfov_a_l4_tda -->
<g id="edge44" class="edge">
<title>l4_wfov_a_afcal&#45;&gt;trans_wfov_a_l4_tda</title>
<path fill="none" stroke="black" d="M2389.57,-963C2389.57,-963 2438.72,-963 2438.72,-963"/>
<polygon fill="black" stroke="black" points="2438.72,-966.5 2448.72,-963 2438.72,-959.5 2438.72,-966.5"/>
</g>
<!-- l4_wfov_a_ctcal -->
<g id="node42" class="node">
<title>l4_wfov_a_ctcal</title>
<polygon fill="none" stroke="black" points="2384.77,-921 2136.77,-921 2136.77,-897 2384.77,-897 2396.77,-909 2384.77,-921"/>
<text text-anchor="middle" x="2266.77" y="-905.3" font-family="Times,serif" font-size="14.00">L4_wfov_a core throughput calibrations 1..1</text>
</g>
<!-- l4_wfov_a_ctcal&#45;&gt;trans_wfov_a_l4_tda -->
<g id="edge45" class="edge">
<title>l4_wfov_a_ctcal&#45;&gt;trans_wfov_a_l4_tda</title>
<path fill="none" stroke="black" d="M2396.93,-909C2396.93,-909 2422.74,-909 2422.74,-909"/>
<polygon fill="black" stroke="black" points="2422.74,-912.5 2432.74,-909 2422.74,-905.5 2422.74,-912.5"/>
</g>
<!-- l4_wfov_a_ndfilt -->
<g id="node43" class="node">
<title>l4_wfov_a_ndfilt</title>
<polygon fill="none" stroke="black" points="2333.27,-867 2188.27,-867 2188.27,-843 2333.27,-843 2345.27,-855 2333.27,-867"/>
<text text-anchor="middle" x="2266.77" y="-851.3" font-family="Times,serif" font-size="14.00">L4_wfov_a ND filter 1..1</text>
</g>
<!-- l4_wfov_a_ndfilt&#45;&gt;trans_wfov_a_l4_tda -->
<g id="edge46" class="edge">
<title>l4_wfov_a_ndfilt&#45;&gt;trans_wfov_a_l4_tda</title>
<path fill="none" stroke="black" d="M2345.56,-855C2345.56,-855 2438.67,-855 2438.67,-855"/>
<polygon fill="black" stroke="black" points="2438.67,-858.5 2448.67,-855 2438.67,-851.5 2438.67,-858.5"/>
</g>
<!-- tda_wfov_a_man -->
<g id="node44" class="node">
<title>tda_wfov_a_man</title>
<ellipse fill="none" stroke="black" cx="130.64" cy="-288" rx="130.78" ry="18"/>
<text text-anchor="middle" x="130.64" y="-284.3" font-family="Times,serif" font-size="14.00">tda_wfov_a product manifest 1..1</text>
</g>
</g>
</svg>
