<?xml version="1.0" encoding="UTF-8" standalone="no"?>
<!DOCTYPE svg PUBLIC "-//W3C//DTD SVG 1.1//EN"
 "http://www.w3.org/Graphics/SVG/1.1/DTD/svg11.dtd">
<!-- Generated by graphviz version 2.43.0 (0)
 -->
<!-- Title: WideFieldOfViewNoCorono Pages: 1 -->
<svg width="3708pt" height="1100pt"
 viewBox="0.00 0.00 3707.75 1100.40" xmlns="http://www.w3.org/2000/svg" xmlns:xlink="http://www.w3.org/1999/xlink">
<g id="graph0" class="graph" transform="scale(1 1) rotate(0) translate(4 1096.4)">
<title>WideFieldOfViewNoCorono</title>
<polygon fill="white" stroke="transparent" points="-4,4 -4,-1096.4 3703.75,-1096.4 3703.75,4 -4,4"/>
<!-- trans_wfov_nc_l1_l2a -->
<g id="node1" class="node">
<title>trans_wfov_nc_l1_l2a</title>
<ellipse fill="none" stroke="black" cx="515.07" cy="-129.4" rx="129.3" ry="129.3"/>
<text text-anchor="middle" x="515.07" y="-133.2" font-family="Times,serif" font-size="14.00">wfov_nc Transmutation</text>
<text text-anchor="middle" x="515.07" y="-118.2" font-family="Times,serif" font-size="14.00">L1 to L2a</text>
</g>
<!-- l2a_wfov_nc_prod -->
<g id="node11" class="node">
<title>l2a_wfov_nc_prod</title>
<polygon fill="none" stroke="black" points="955.7,-228.4 749.7,-228.4 749.7,-192.4 955.7,-192.4 955.7,-228.4"/>
<text text-anchor="middle" x="852.7" y="-206.7" font-family="Times,serif" font-size="14.00">L2a_wfov_nc products 1..b</text>
</g>
<!-- trans_wfov_nc_l1_l2a&#45;&gt;l2a_wfov_nc_prod -->
<g id="edge6" class="edge">
<title>trans_wfov_nc_l1_l2a&#45;&gt;l2a_wfov_nc_prod</title>
<path fill="none" stroke="black" stroke-dasharray="5,2" d="M616.37,-210.4C616.37,-210.4 739.43,-210.4 739.43,-210.4"/>
<polygon fill="black" stroke="black" points="739.43,-213.9 749.43,-210.4 739.43,-206.9 739.43,-213.9"/>
</g>
<!-- l2a_wfov_nc_man -->
<g id="node12" class="node">
<title>l2a_wfov_nc_man</title>
<ellipse fill="none" stroke="black" cx="852.7" cy="-156.4" rx="172.47" ry="18"/>
<text text-anchor="middle" x="852.7" y="-152.7" font-family="Times,serif" font-size="14.00">L2a_wfov_nc product manifest 1..1</text>
</g>
<!-- trans_wfov_nc_l1_l2a&#45;&gt;l2a_wfov_nc_man -->
<g id="edge7" class="edge">
<title>trans_wfov_nc_l1_l2a&#45;&gt;l2a_wfov_nc_man</title>
<path fill="none" stroke="black" d="M641.75,-156.4C641.75,-156.4 670.35,-156.4 670.35,-156.4"/>
<polygon fill="black" stroke="black" points="670.35,-159.9 680.35,-156.4 670.35,-152.9 670.35,-159.9"/>
</g>
<!-- l2a_wfov_nc_log -->
<g id="node21" class="node">
<title>l2a_wfov_nc_log</title>
<ellipse fill="none" stroke="black" cx="852.7" cy="-102.4" rx="106.68" ry="18"/>
<text text-anchor="middle" x="852.7" y="-98.7" font-family="Times,serif" font-size="14.00">L2a log_wfov_nc 1..1</text>
</g>
<!-- trans_wfov_nc_l1_l2a&#45;&gt;l2a_wfov_nc_log -->
<g id="edge8" class="edge">
<title>trans_wfov_nc_l1_l2a&#45;&gt;l2a_wfov_nc_log</title>
<path fill="none" stroke="black" stroke-dasharray="5,2" d="M641.75,-102.4C641.75,-102.4 736.02,-102.4 736.02,-102.4"/>
<polygon fill="black" stroke="black" points="736.02,-105.9 746.02,-102.4 736.02,-98.9 736.02,-105.9"/>
</g>
<!-- l2a_wfov_nc_src -->
<g id="node47" class="node">
<title>l2a_wfov_nc_src</title>
<ellipse fill="none" stroke="black" cx="852.7" cy="-48.4" rx="167.07" ry="18"/>
<text text-anchor="middle" x="852.7" y="-44.7" font-family="Times,serif" font-size="14.00">L2a_wfov_nc source manifest 1..1</text>
</g>
<!-- trans_wfov_nc_l1_l2a&#45;&gt;l2a_wfov_nc_src -->
<g id="edge49" class="edge">
<title>trans_wfov_nc_l1_l2a&#45;&gt;l2a_wfov_nc_src</title>
<path fill="none" stroke="black" d="M616.37,-48.4C616.37,-48.4 675.5,-48.4 675.5,-48.4"/>
<polygon fill="black" stroke="black" points="675.5,-51.9 685.5,-48.4 675.5,-44.9 675.5,-51.9"/>
</g>
<!-- trans_wfov_nc_l2a_l2b -->
<g id="node2" class="node">
<title>trans_wfov_nc_l2a_l2b</title>
<ellipse fill="none" stroke="black" cx="1190.34" cy="-399.4" rx="129.3" ry="129.3"/>
<text text-anchor="middle" x="1190.34" y="-403.2" font-family="Times,serif" font-size="14.00">wfov_nc Transmutation</text>
<text text-anchor="middle" x="1190.34" y="-388.2" font-family="Times,serif" font-size="14.00">L2a to L2b</text>
</g>
<!-- l2b_wfov_nc_prod -->
<g id="node22" class="node">
<title>l2b_wfov_nc_prod</title>
<polygon fill="none" stroke="black" points="1631.63,-498.4 1425.63,-498.4 1425.63,-462.4 1631.63,-462.4 1631.63,-498.4"/>
<text text-anchor="middle" x="1528.63" y="-476.7" font-family="Times,serif" font-size="14.00">L2b_wfov_nc products 1..1</text>
</g>
<!-- trans_wfov_nc_l2a_l2b&#45;&gt;l2b_wfov_nc_prod -->
<g id="edge18" class="edge">
<title>trans_wfov_nc_l2a_l2b&#45;&gt;l2b_wfov_nc_prod</title>
<path fill="none" stroke="black" stroke-dasharray="5,2" d="M1291.38,-480.4C1291.38,-480.4 1415.47,-480.4 1415.47,-480.4"/>
<polygon fill="black" stroke="black" points="1415.47,-483.9 1425.47,-480.4 1415.47,-476.9 1415.47,-483.9"/>
</g>
<!-- l2b_wfov_nc_man -->
<g id="node23" class="node">
<title>l2b_wfov_nc_man</title>
<ellipse fill="none" stroke="black" cx="1528.63" cy="-426.4" rx="172.77" ry="18"/>
<text text-anchor="middle" x="1528.63" y="-422.7" font-family="Times,serif" font-size="14.00">L2b_wfov_nc product manifest 1..1</text>
</g>
<!-- trans_wfov_nc_l2a_l2b&#45;&gt;l2b_wfov_nc_man -->
<g id="edge19" class="edge">
<title>trans_wfov_nc_l2a_l2b&#45;&gt;l2b_wfov_nc_man</title>
<path fill="none" stroke="black" d="M1317.27,-426.4C1317.27,-426.4 1345.64,-426.4 1345.64,-426.4"/>
<polygon fill="black" stroke="black" points="1345.64,-429.9 1355.64,-426.4 1345.64,-422.9 1345.64,-429.9"/>
</g>
<!-- l2b_wfov_nc_log -->
<g id="node29" class="node">
<title>l2b_wfov_nc_log</title>
<ellipse fill="none" stroke="black" cx="1528.63" cy="-372.4" rx="107.48" ry="18"/>
<text text-anchor="middle" x="1528.63" y="-368.7" font-family="Times,serif" font-size="14.00">L2b_wfov_nc log 1..1</text>
</g>
<!-- trans_wfov_nc_l2a_l2b&#45;&gt;l2b_wfov_nc_log -->
<g id="edge20" class="edge">
<title>trans_wfov_nc_l2a_l2b&#45;&gt;l2b_wfov_nc_log</title>
<path fill="none" stroke="black" stroke-dasharray="5,2" d="M1317.27,-372.4C1317.27,-372.4 1411.2,-372.4 1411.2,-372.4"/>
<polygon fill="black" stroke="black" points="1411.2,-375.9 1421.2,-372.4 1411.2,-368.9 1411.2,-375.9"/>
</g>
<!-- l2b_wfov_nc_src -->
<g id="node48" class="node">
<title>l2b_wfov_nc_src</title>
<ellipse fill="none" stroke="black" cx="1528.63" cy="-318.4" rx="167.07" ry="18"/>
<text text-anchor="middle" x="1528.63" y="-314.7" font-family="Times,serif" font-size="14.00">L2b_wfov_nc source manifest 1..1</text>
</g>
<!-- trans_wfov_nc_l2a_l2b&#45;&gt;l2b_wfov_nc_src -->
<g id="edge50" class="edge">
<title>trans_wfov_nc_l2a_l2b&#45;&gt;l2b_wfov_nc_src</title>
<path fill="none" stroke="black" d="M1291.38,-318.4C1291.38,-318.4 1351.34,-318.4 1351.34,-318.4"/>
<polygon fill="black" stroke="black" points="1351.34,-321.9 1361.34,-318.4 1351.34,-314.9 1351.34,-321.9"/>
</g>
<!-- trans_wfov_nc_l2b_l3 -->
<g id="node3" class="node">
<title>trans_wfov_nc_l2b_l3</title>
<ellipse fill="none" stroke="black" cx="1866.91" cy="-588.4" rx="129.3" ry="129.3"/>
<text text-anchor="middle" x="1866.91" y="-592.2" font-family="Times,serif" font-size="14.00">wfov_nc Transmutation</text>
<text text-anchor="middle" x="1866.91" y="-577.2" font-family="Times,serif" font-size="14.00">L2b to L3</text>
</g>
<!-- l3_wfov_nc_prod -->
<g id="node30" class="node">
<title>l3_wfov_nc_prod</title>
<polygon fill="none" stroke="black" points="2297.85,-687.4 2100.85,-687.4 2100.85,-651.4 2297.85,-651.4 2297.85,-687.4"/>
<text text-anchor="middle" x="2199.35" y="-665.7" font-family="Times,serif" font-size="14.00">L3_wfov_nc products 1..1</text>
</g>
<!-- trans_wfov_nc_l2b_l3&#45;&gt;l3_wfov_nc_prod -->
<g id="edge29" class="edge">
<title>trans_wfov_nc_l2b_l3&#45;&gt;l3_wfov_nc_prod</title>
<path fill="none" stroke="black" stroke-dasharray="5,2" d="M1968.01,-669.4C1968.01,-669.4 2090.73,-669.4 2090.73,-669.4"/>
<polygon fill="black" stroke="black" points="2090.73,-672.9 2100.73,-669.4 2090.73,-665.9 2090.73,-672.9"/>
</g>
<!-- l3_wfov_nc_man -->
<g id="node32" class="node">
<title>l3_wfov_nc_man</title>
<ellipse fill="none" stroke="black" cx="2199.35" cy="-615.4" rx="167.07" ry="18"/>
<text text-anchor="middle" x="2199.35" y="-611.7" font-family="Times,serif" font-size="14.00">L3_wfov_nc product manifest 1..1</text>
</g>
<!-- trans_wfov_nc_l2b_l3&#45;&gt;l3_wfov_nc_man -->
<g id="edge30" class="edge">
<title>trans_wfov_nc_l2b_l3&#45;&gt;l3_wfov_nc_man</title>
<path fill="none" stroke="black" d="M1993.54,-615.4C1993.54,-615.4 2022.18,-615.4 2022.18,-615.4"/>
<polygon fill="black" stroke="black" points="2022.18,-618.9 2032.18,-615.4 2022.18,-611.9 2022.18,-618.9"/>
</g>
<!-- l3_wfov_nc_log -->
<g id="node35" class="node">
<title>l3_wfov_nc_log</title>
<ellipse fill="none" stroke="black" cx="2199.35" cy="-561.4" rx="101.28" ry="18"/>
<text text-anchor="middle" x="2199.35" y="-557.7" font-family="Times,serif" font-size="14.00">L3_wfov_nc log 1..1</text>
</g>
<!-- trans_wfov_nc_l2b_l3&#45;&gt;l3_wfov_nc_log -->
<g id="edge31" class="edge">
<title>trans_wfov_nc_l2b_l3&#45;&gt;l3_wfov_nc_log</title>
<path fill="none" stroke="black" stroke-dasharray="5,2" d="M1993.54,-561.4C1993.54,-561.4 2087.85,-561.4 2087.85,-561.4"/>
<polygon fill="black" stroke="black" points="2087.85,-564.9 2097.85,-561.4 2087.85,-557.9 2087.85,-564.9"/>
</g>
<!-- l3_wfov_nc_src -->
<g id="node49" class="node">
<title>l3_wfov_nc_src</title>
<ellipse fill="none" stroke="black" cx="2199.35" cy="-507.4" rx="161.37" ry="18"/>
<text text-anchor="middle" x="2199.35" y="-503.7" font-family="Times,serif" font-size="14.00">L3_wfov_nc source manifest 1..1</text>
</g>
<!-- trans_wfov_nc_l2b_l3&#45;&gt;l3_wfov_nc_src -->
<g id="edge51" class="edge">
<title>trans_wfov_nc_l2b_l3&#45;&gt;l3_wfov_nc_src</title>
<path fill="none" stroke="black" d="M1968.01,-507.4C1968.01,-507.4 2028.02,-507.4 2028.02,-507.4"/>
<polygon fill="black" stroke="black" points="2028.02,-510.9 2038.02,-507.4 2028.02,-503.9 2028.02,-510.9"/>
</g>
<!-- trans_wfov_nc_l3_l4 -->
<g id="node4" class="node">
<title>trans_wfov_nc_l3_l4</title>
<ellipse fill="none" stroke="black" cx="2531.78" cy="-723.4" rx="129.3" ry="129.3"/>
<text text-anchor="middle" x="2531.78" y="-727.2" font-family="Times,serif" font-size="14.00">wfov_nc Transmutation</text>
<text text-anchor="middle" x="2531.78" y="-712.2" font-family="Times,serif" font-size="14.00">L3 to L4</text>
</g>
<!-- l4_wfov_nc_prod -->
<g id="node36" class="node">
<title>l4_wfov_nc_prod</title>
<polygon fill="none" stroke="black" points="2965.18,-822.4 2768.18,-822.4 2768.18,-786.4 2965.18,-786.4 2965.18,-822.4"/>
<text text-anchor="middle" x="2866.68" y="-800.7" font-family="Times,serif" font-size="14.00">L4_wfov_nc products 1..1</text>
</g>
<!-- trans_wfov_nc_l3_l4&#45;&gt;l4_wfov_nc_prod -->
<g id="edge37" class="edge">
<title>trans_wfov_nc_l3_l4&#45;&gt;l4_wfov_nc_prod</title>
<path fill="none" stroke="black" stroke-dasharray="5,2" d="M2632.72,-804.4C2632.72,-804.4 2757.97,-804.4 2757.97,-804.4"/>
<polygon fill="black" stroke="black" points="2757.97,-807.9 2767.97,-804.4 2757.97,-800.9 2757.97,-807.9"/>
</g>
<!-- l4_wfov_nc_log -->
<g id="node38" class="node">
<title>l4_wfov_nc_log</title>
<ellipse fill="none" stroke="black" cx="2866.68" cy="-750.4" rx="101.28" ry="18"/>
<text text-anchor="middle" x="2866.68" y="-746.7" font-family="Times,serif" font-size="14.00">L4_wfov_nc log 1..1</text>
</g>
<!-- trans_wfov_nc_l3_l4&#45;&gt;l4_wfov_nc_log -->
<g id="edge38" class="edge">
<title>trans_wfov_nc_l3_l4&#45;&gt;l4_wfov_nc_log</title>
<path fill="none" stroke="black" stroke-dasharray="5,2" d="M2658.39,-750.4C2658.39,-750.4 2755.18,-750.4 2755.18,-750.4"/>
<polygon fill="black" stroke="black" points="2755.18,-753.9 2765.18,-750.4 2755.18,-746.9 2755.18,-753.9"/>
</g>
<!-- l4_wfov_nc_man -->
<g id="node39" class="node">
<title>l4_wfov_nc_man</title>
<ellipse fill="none" stroke="black" cx="2866.68" cy="-696.4" rx="167.07" ry="18"/>
<text text-anchor="middle" x="2866.68" y="-692.7" font-family="Times,serif" font-size="14.00">L4_wfov_nc product manifest 1..1</text>
</g>
<!-- trans_wfov_nc_l3_l4&#45;&gt;l4_wfov_nc_man -->
<g id="edge39" class="edge">
<title>trans_wfov_nc_l3_l4&#45;&gt;l4_wfov_nc_man</title>
<path fill="none" stroke="black" d="M2658.39,-696.4C2658.39,-696.4 2689.43,-696.4 2689.43,-696.4"/>
<polygon fill="black" stroke="black" points="2689.43,-699.9 2699.43,-696.4 2689.43,-692.9 2689.43,-699.9"/>
</g>
<!-- l4_wfov_nc_src -->
<g id="node50" class="node">
<title>l4_wfov_nc_src</title>
<ellipse fill="none" stroke="black" cx="2866.68" cy="-642.4" rx="158.67" ry="18"/>
<text text-anchor="middle" x="2866.68" y="-638.7" font-family="Times,serif" font-size="14.00">L4_wfov_nc sourcemanifest 1..1</text>
</g>
<!-- trans_wfov_nc_l3_l4&#45;&gt;l4_wfov_nc_src -->
<g id="edge52" class="edge">
<title>trans_wfov_nc_l3_l4&#45;&gt;l4_wfov_nc_src</title>
<path fill="none" stroke="black" d="M2632.72,-642.4C2632.72,-642.4 2698.07,-642.4 2698.07,-642.4"/>
<polygon fill="black" stroke="black" points="2698.07,-645.9 2708.07,-642.4 2698.07,-638.9 2698.07,-645.9"/>
</g>
<!-- trans_wfov_nc_l4_tda -->
<g id="node5" class="node">
<title>trans_wfov_nc_l4_tda</title>
<ellipse fill="none" stroke="black" cx="3201.58" cy="-912.4" rx="129.3" ry="129.3"/>
<text text-anchor="middle" x="3201.58" y="-916.2" font-family="Times,serif" font-size="14.00">wfov_nc Transmutation</text>
<text text-anchor="middle" x="3201.58" y="-901.2" font-family="Times,serif" font-size="14.00">L4 to TDA</text>
</g>
<!-- tda_wfov_nc_prod -->
<g id="node45" class="node">
<title>tda_wfov_nc_prod</title>
<ellipse fill="none" stroke="black" cx="3533.37" cy="-966.4" rx="92.88" ry="18"/>
<text text-anchor="middle" x="3533.37" y="-962.7" font-family="Times,serif" font-size="14.00">tda_wfov_nc_prod</text>
</g>
<!-- trans_wfov_nc_l4_tda&#45;&gt;tda_wfov_nc_prod -->
<g id="edge47" class="edge">
<title>trans_wfov_nc_l4_tda&#45;&gt;tda_wfov_nc_prod</title>
<path fill="none" stroke="black" stroke-dasharray="5,2" d="M3319.49,-966.4C3319.49,-966.4 3430.33,-966.4 3430.33,-966.4"/>
<polygon fill="black" stroke="black" points="3430.33,-969.9 3440.33,-966.4 3430.33,-962.9 3430.33,-969.9"/>
</g>
<!-- tda_wfov_nc_log -->
<g id="node46" class="node">
<title>tda_wfov_nc_log</title>
<ellipse fill="none" stroke="black" cx="3533.37" cy="-912.4" rx="85.59" ry="18"/>
<text text-anchor="middle" x="3533.37" y="-908.7" font-family="Times,serif" font-size="14.00">tda_wfov_nc_log</text>
</g>
<!-- trans_wfov_nc_l4_tda&#45;&gt;tda_wfov_nc_log -->
<g id="edge48" class="edge">
<title>trans_wfov_nc_l4_tda&#45;&gt;tda_wfov_nc_log</title>
<path fill="none" stroke="black" stroke-dasharray="5,2" d="M3331.29,-912.4C3331.29,-912.4 3437.21,-912.4 3437.21,-912.4"/>
<polygon fill="black" stroke="black" points="3437.21,-915.9 3447.21,-912.4 3437.21,-908.9 3437.21,-915.9"/>
</g>
<!-- tda_wfov_nc_src -->
<g id="node51" class="node">
<title>tda_wfov_nc_src</title>
<ellipse fill="none" stroke="black" cx="3533.37" cy="-858.4" rx="166.27" ry="18"/>
<text text-anchor="middle" x="3533.37" y="-854.7" font-family="Times,serif" font-size="14.00">TDA_wfov_nc sourcemanifest 1..1</text>
</g>
<!-- trans_wfov_nc_l4_tda&#45;&gt;tda_wfov_nc_src -->
<g id="edge53" class="edge">
<title>trans_wfov_nc_l4_tda&#45;&gt;tda_wfov_nc_src</title>
<path fill="none" stroke="black" d="M3319.49,-858.4C3319.49,-858.4 3356.8,-858.4 3356.8,-858.4"/>
<polygon fill="black" stroke="black" points="3356.8,-861.9 3366.8,-858.4 3356.8,-854.9 3356.8,-861.9"/>
</g>
<!-- l1_wfov_nc_prod -->
<g id="node6" class="node">
<title>l1_wfov_nc_prod</title>
<polygon fill="none" stroke="black" points="273.33,-255.4 76.33,-255.4 76.33,-219.4 273.33,-219.4 273.33,-255.4"/>
<text text-anchor="middle" x="174.83" y="-233.7" font-family="Times,serif" font-size="14.00">L1_wfov_nc products 1..b</text>
</g>
<!-- l1_wfov_nc_prod&#45;&gt;trans_wfov_nc_l1_l2a -->
<g id="edge1" class="edge">
<title>l1_wfov_nc_prod&#45;&gt;trans_wfov_nc_l1_l2a</title>
<path fill="none" stroke="black" stroke-dasharray="5,2" d="M273.7,-237.4C273.7,-237.4 433.55,-237.4 433.55,-237.4"/>
<polygon fill="black" stroke="black" points="433.55,-240.9 443.55,-237.4 433.55,-233.9 433.55,-240.9"/>
</g>
<!-- l1_wfov_nc_man -->
<g id="node7" class="node">
<title>l1_wfov_nc_man</title>
<ellipse fill="none" stroke="black" cx="174.83" cy="-183.4" rx="167.07" ry="18"/>
<text text-anchor="middle" x="174.83" y="-179.7" font-family="Times,serif" font-size="14.00">L1_wfov_nc product manifest 1..1</text>
</g>
<!-- l1_wfov_nc_man&#45;&gt;trans_wfov_nc_l1_l2a -->
<g id="edge2" class="edge">
<title>l1_wfov_nc_man&#45;&gt;trans_wfov_nc_l1_l2a</title>
<path fill="none" stroke="black" d="M341.96,-183.4C341.96,-183.4 387.17,-183.4 387.17,-183.4"/>
<polygon fill="black" stroke="black" points="387.17,-186.9 397.17,-183.4 387.17,-179.9 387.17,-186.9"/>
</g>
<!-- l1_wfov_nc_odir -->
<g id="node8" class="node">
<title>l1_wfov_nc_odir</title>
<ellipse fill="none" stroke="black" cx="174.83" cy="-129.4" rx="141.88" ry="18"/>
<text text-anchor="middle" x="174.83" y="-125.7" font-family="Times,serif" font-size="14.00">L1_wfov_nc output path 1..1</text>
</g>
<!-- l1_wfov_nc_odir&#45;&gt;trans_wfov_nc_l1_l2a -->
<g id="edge3" class="edge">
<title>l1_wfov_nc_odir&#45;&gt;trans_wfov_nc_l1_l2a</title>
<path fill="none" stroke="black" d="M316.66,-129.4C316.66,-129.4 375.43,-129.4 375.43,-129.4"/>
<polygon fill="black" stroke="black" points="375.43,-132.9 385.43,-129.4 375.43,-125.9 375.43,-132.9"/>
</g>
<!-- l1_wfov_nc_rec -->
<g id="node9" class="node">
<title>l1_wfov_nc_rec</title>
<polygon fill="none" stroke="black" points="252.33,-87.4 85.33,-87.4 85.33,-63.4 252.33,-63.4 264.33,-75.4 252.33,-87.4"/>
<text text-anchor="middle" x="174.83" y="-71.7" font-family="Times,serif" font-size="14.00">L1_wfov_nc recipe 1..1</text>
</g>
<!-- l1_wfov_nc_rec&#45;&gt;trans_wfov_nc_l1_l2a -->
<g id="edge4" class="edge">
<title>l1_wfov_nc_rec&#45;&gt;trans_wfov_nc_l1_l2a</title>
<path fill="none" stroke="black" d="M264.67,-75.4C264.67,-75.4 387.43,-75.4 387.43,-75.4"/>
<polygon fill="black" stroke="black" points="387.43,-78.9 397.43,-75.4 387.43,-71.9 387.43,-78.9"/>
</g>
<!-- l1_wfov_nc_nllut -->
<g id="node10" class="node">
<title>l1_wfov_nc_nllut</title>
<polygon fill="none" stroke="black" points="282.83,-33.4 54.83,-33.4 54.83,-9.4 282.83,-9.4 294.83,-21.4 282.83,-33.4"/>
<text text-anchor="middle" x="174.83" y="-17.7" font-family="Times,serif" font-size="14.00">L1_wfov_nc non&#45;linear LUT 1..1</text>
</g>
<!-- l1_wfov_nc_nllut&#45;&gt;trans_wfov_nc_l1_l2a -->
<g id="edge5" class="edge">
<title>l1_wfov_nc_nllut&#45;&gt;trans_wfov_nc_l1_l2a</title>
<path fill="none" stroke="black" d="M295.27,-21.4C295.27,-21.4 433.37,-21.4 433.37,-21.4"/>
<polygon fill="black" stroke="black" points="433.37,-24.9 443.37,-21.4 433.37,-17.9 433.37,-24.9"/>
</g>
<!-- l2a_wfov_nc_prod&#45;&gt;trans_wfov_nc_l2a_l2b -->
<g id="edge9" class="edge">
<title>l2a_wfov_nc_prod&#45;&gt;trans_wfov_nc_l2a_l2b</title>
<path fill="none" stroke="black" stroke-dasharray="5,2" d="M949.75,-228.73C949.75,-248.2 949.75,-276.2 949.75,-276.2 949.75,-276.2 1140.61,-276.2 1140.61,-276.2"/>
<polygon fill="black" stroke="black" points="1140.61,-279.7 1150.61,-276.2 1140.61,-272.7 1140.61,-279.7"/>
</g>
<!-- l2a_wfov_nc_man&#45;&gt;trans_wfov_nc_l2a_l2b -->
<g id="edge21" class="edge">
<title>l2a_wfov_nc_man&#45;&gt;trans_wfov_nc_l2a_l2b</title>
<path fill="none" stroke="black" d="M1016.75,-162.03C1016.75,-185.34 1016.75,-273.1 1016.75,-273.1 1016.75,-273.1 1152.06,-273.1 1152.06,-273.1"/>
<polygon fill="black" stroke="black" points="1152.06,-276.6 1162.06,-273.1 1152.06,-269.6 1152.06,-276.6"/>
</g>
<!-- l2a_wfov_nc_odir -->
<g id="node13" class="node">
<title>l2a_wfov_nc_odir</title>
<ellipse fill="none" stroke="black" cx="852.7" cy="-644.4" rx="147.57" ry="18"/>
<text text-anchor="middle" x="852.7" y="-640.7" font-family="Times,serif" font-size="14.00">L2a_wfov_nc output path 1..1</text>
</g>
<!-- l2a_wfov_nc_odir&#45;&gt;trans_wfov_nc_l2a_l2b -->
<g id="edge10" class="edge">
<title>l2a_wfov_nc_odir&#45;&gt;trans_wfov_nc_l2a_l2b</title>
<path fill="none" stroke="black" d="M1000.03,-643.4C1107.26,-643.4 1233.75,-643.4 1233.75,-643.4 1233.75,-643.4 1233.75,-531.4 1233.75,-531.4"/>
<polygon fill="black" stroke="black" points="1237.25,-531.4 1233.75,-521.4 1230.25,-531.4 1237.25,-531.4"/>
</g>
<!-- l2a_wfov_nc_rec -->
<g id="node14" class="node">
<title>l2a_wfov_nc_rec</title>
<polygon fill="none" stroke="black" points="934.2,-602.4 759.2,-602.4 759.2,-578.4 934.2,-578.4 946.2,-590.4 934.2,-602.4"/>
<text text-anchor="middle" x="852.7" y="-586.7" font-family="Times,serif" font-size="14.00">L2a_wfov_nc recipe 1..1</text>
</g>
<!-- l2a_wfov_nc_rec&#45;&gt;trans_wfov_nc_l2a_l2b -->
<g id="edge11" class="edge">
<title>l2a_wfov_nc_rec&#45;&gt;trans_wfov_nc_l2a_l2b</title>
<path fill="none" stroke="black" d="M946.47,-589.4C1032.86,-589.4 1147.75,-589.4 1147.75,-589.4 1147.75,-589.4 1147.75,-531.61 1147.75,-531.61"/>
<polygon fill="black" stroke="black" points="1151.25,-531.61 1147.75,-521.61 1144.25,-531.61 1151.25,-531.61"/>
</g>
<!-- l2a_wfov_nc_cti -->
<g id="node15" class="node">
<title>l2a_wfov_nc_cti</title>
<polygon fill="none" stroke="black" points="995.7,-548.4 697.7,-548.4 697.7,-524.4 995.7,-524.4 1007.7,-536.4 995.7,-548.4"/>
<text text-anchor="middle" x="852.7" y="-532.7" font-family="Times,serif" font-size="14.00">L2a_wfov_nc charge xfer inefficiency 1..1</text>
</g>
<!-- l2a_wfov_nc_cti&#45;&gt;trans_wfov_nc_l2a_l2b -->
<g id="edge12" class="edge">
<title>l2a_wfov_nc_cti&#45;&gt;trans_wfov_nc_l2a_l2b</title>
<path fill="none" stroke="black" d="M1008.18,-523.6C1008.18,-523.6 1143.73,-523.6 1143.73,-523.6"/>
<polygon fill="black" stroke="black" points="1143.73,-527.1 1153.73,-523.6 1143.73,-520.1 1143.73,-527.1"/>
</g>
<!-- l2a_wfov_nc_dnb -->
<g id="node16" class="node">
<title>l2a_wfov_nc_dnb</title>
<polygon fill="none" stroke="black" points="977.2,-494.4 716.2,-494.4 716.2,-468.4 977.2,-468.4 989.2,-481.4 977.2,-494.4"/>
<text text-anchor="middle" x="852.7" y="-485.2" font-family="Times,serif" font-size="14.00">L2a_wfov_nc CIC/Dark Current/FPN</text>
<text text-anchor="middle" x="852.7" y="-470.2" font-family="Times,serif" font-size="14.00"> or master dark 1..1</text>
</g>
<!-- l2a_wfov_nc_dnb&#45;&gt;trans_wfov_nc_l2a_l2b -->
<g id="edge13" class="edge">
<title>l2a_wfov_nc_dnb&#45;&gt;trans_wfov_nc_l2a_l2b</title>
<path fill="none" stroke="black" d="M989.55,-481.4C989.55,-481.4 1080.12,-481.4 1080.12,-481.4"/>
<polygon fill="black" stroke="black" points="1080.12,-484.9 1090.12,-481.4 1080.12,-477.9 1080.12,-484.9"/>
</g>
<!-- l2a_wfov_nc_mbpm -->
<g id="node17" class="node">
<title>l2a_wfov_nc_mbpm</title>
<polygon fill="none" stroke="black" points="989.7,-438.4 703.7,-438.4 703.7,-414.4 989.7,-414.4 1001.7,-426.4 989.7,-438.4"/>
<text text-anchor="middle" x="852.7" y="-422.7" font-family="Times,serif" font-size="14.00">L2a_wfov_nc master bad pixel map 1..1</text>
</g>
<!-- l2a_wfov_nc_mbpm&#45;&gt;trans_wfov_nc_l2a_l2b -->
<g id="edge14" class="edge">
<title>l2a_wfov_nc_mbpm&#45;&gt;trans_wfov_nc_l2a_l2b</title>
<path fill="none" stroke="black" d="M1001.78,-426.4C1001.78,-426.4 1053.72,-426.4 1053.72,-426.4"/>
<polygon fill="black" stroke="black" points="1053.72,-429.9 1063.72,-426.4 1053.72,-422.9 1053.72,-429.9"/>
</g>
<!-- l2a_wfov_nc_ff -->
<g id="node18" class="node">
<title>l2a_wfov_nc_ff</title>
<polygon fill="none" stroke="black" points="945.2,-384.4 748.2,-384.4 748.2,-360.4 945.2,-360.4 957.2,-372.4 945.2,-384.4"/>
<text text-anchor="middle" x="852.7" y="-368.7" font-family="Times,serif" font-size="14.00">L2a_wfov_nc flat fields 1..1</text>
</g>
<!-- l2a_wfov_nc_ff&#45;&gt;trans_wfov_nc_l2a_l2b -->
<g id="edge15" class="edge">
<title>l2a_wfov_nc_ff&#45;&gt;trans_wfov_nc_l2a_l2b</title>
<path fill="none" stroke="black" d="M957.22,-372.4C957.22,-372.4 1053.75,-372.4 1053.75,-372.4"/>
<polygon fill="black" stroke="black" points="1053.75,-375.9 1063.75,-372.4 1053.75,-368.9 1053.75,-375.9"/>
</g>
<!-- l2a_wfov_nc_emg -->
<g id="node19" class="node">
<title>l2a_wfov_nc_emg</title>
<polygon fill="none" stroke="black" points="942.2,-330.4 751.2,-330.4 751.2,-306.4 942.2,-306.4 954.2,-318.4 942.2,-330.4"/>
<text text-anchor="middle" x="852.7" y="-314.7" font-family="Times,serif" font-size="14.00">L2a_wfov_nc EM gain 1..1</text>
</g>
<!-- l2a_wfov_nc_emg&#45;&gt;trans_wfov_nc_l2a_l2b -->
<g id="edge16" class="edge">
<title>l2a_wfov_nc_emg&#45;&gt;trans_wfov_nc_l2a_l2b</title>
<path fill="none" stroke="black" d="M954.46,-318.4C954.46,-318.4 1079.37,-318.4 1079.37,-318.4"/>
<polygon fill="black" stroke="black" points="1079.37,-321.9 1089.37,-318.4 1079.37,-314.9 1079.37,-321.9"/>
</g>
<!-- l2a_wfov_nc_kgain -->
<g id="node20" class="node">
<title>l2a_wfov_nc_kgain</title>
<polygon fill="none" stroke="black" points="932.7,-276.4 760.7,-276.4 760.7,-252.4 932.7,-252.4 944.7,-264.4 932.7,-276.4"/>
<text text-anchor="middle" x="852.7" y="-260.7" font-family="Times,serif" font-size="14.00">L2a_wfov_nc Kgain 1..1</text>
</g>
<!-- l2a_wfov_nc_kgain&#45;&gt;trans_wfov_nc_l2a_l2b -->
<g id="edge17" class="edge">
<title>l2a_wfov_nc_kgain&#45;&gt;trans_wfov_nc_l2a_l2b</title>
<path fill="none" stroke="black" d="M944.97,-279.3C944.97,-279.3 1131.92,-279.3 1131.92,-279.3"/>
<polygon fill="black" stroke="black" points="1131.92,-282.8 1141.92,-279.3 1131.92,-275.8 1131.92,-282.8"/>
</g>
<!-- l2b_wfov_nc_prod&#45;&gt;trans_wfov_nc_l2b_l3 -->
<g id="edge22" class="edge">
<title>l2b_wfov_nc_prod&#45;&gt;trans_wfov_nc_l2b_l3</title>
<path fill="none" stroke="black" stroke-dasharray="5,2" d="M1631.96,-486.4C1631.96,-486.4 1777.01,-486.4 1777.01,-486.4"/>
<polygon fill="black" stroke="black" points="1777.01,-489.9 1787.01,-486.4 1777.01,-482.9 1777.01,-489.9"/>
</g>
<!-- l2b_wfov_nc_man&#45;&gt;trans_wfov_nc_l2b_l3 -->
<g id="edge23" class="edge">
<title>l2b_wfov_nc_man&#45;&gt;trans_wfov_nc_l2b_l3</title>
<path fill="none" stroke="black" d="M1693.75,-431.91C1693.75,-444.51 1693.75,-474.4 1693.75,-474.4 1693.75,-474.4 1795.37,-474.4 1795.37,-474.4"/>
<polygon fill="black" stroke="black" points="1795.37,-477.9 1805.37,-474.4 1795.37,-470.9 1795.37,-477.9"/>
</g>
<!-- l2b_wfov_nc_odir -->
<g id="node24" class="node">
<title>l2b_wfov_nc_odir</title>
<ellipse fill="none" stroke="black" cx="1528.63" cy="-750.4" rx="147.57" ry="18"/>
<text text-anchor="middle" x="1528.63" y="-746.7" font-family="Times,serif" font-size="14.00">L2b_wfov_nc output path 1..1</text>
</g>
<!-- l2b_wfov_nc_odir&#45;&gt;trans_wfov_nc_l2b_l3 -->
<g id="edge24" class="edge">
<title>l2b_wfov_nc_odir&#45;&gt;trans_wfov_nc_l2b_l3</title>
<path fill="none" stroke="black" d="M1649.75,-739.75C1649.75,-725.61 1649.75,-702.4 1649.75,-702.4 1649.75,-702.4 1795.55,-702.4 1795.55,-702.4"/>
<polygon fill="black" stroke="black" points="1795.55,-705.9 1805.55,-702.4 1795.55,-698.9 1795.55,-705.9"/>
</g>
<!-- l2b_wfov_nc_rec -->
<g id="node25" class="node">
<title>l2b_wfov_nc_rec</title>
<polygon fill="none" stroke="black" points="1610.63,-708.4 1434.63,-708.4 1434.63,-684.4 1610.63,-684.4 1622.63,-696.4 1610.63,-708.4"/>
<text text-anchor="middle" x="1528.63" y="-692.7" font-family="Times,serif" font-size="14.00">L2b_wfov_nc recipe 1..1</text>
</g>
<!-- l2b_wfov_nc_rec&#45;&gt;trans_wfov_nc_l2b_l3 -->
<g id="edge25" class="edge">
<title>l2b_wfov_nc_rec&#45;&gt;trans_wfov_nc_l2b_l3</title>
<path fill="none" stroke="black" d="M1622.86,-690.4C1622.86,-690.4 1777.21,-690.4 1777.21,-690.4"/>
<polygon fill="black" stroke="black" points="1777.21,-693.9 1787.21,-690.4 1777.21,-686.9 1777.21,-693.9"/>
</g>
<!-- l2b_wfov_nc_excicrf -->
<g id="node26" class="node">
<title>l2b_wfov_nc_excicrf</title>
<polygon fill="none" stroke="black" points="1666.13,-654.4 1379.13,-654.4 1379.13,-630.4 1666.13,-630.4 1678.13,-642.4 1666.13,-654.4"/>
<text text-anchor="middle" x="1528.63" y="-638.7" font-family="Times,serif" font-size="14.00">L2b_wfov_nc EXCAM ICRF location 1..1</text>
</g>
<!-- l2b_wfov_nc_excicrf&#45;&gt;trans_wfov_nc_l2b_l3 -->
<g id="edge26" class="edge">
<title>l2b_wfov_nc_excicrf&#45;&gt;trans_wfov_nc_l2b_l3</title>
<path fill="none" stroke="black" d="M1678.48,-642.4C1678.48,-642.4 1739.17,-642.4 1739.17,-642.4"/>
<polygon fill="black" stroke="black" points="1739.17,-645.9 1749.17,-642.4 1739.17,-638.9 1739.17,-645.9"/>
</g>
<!-- l2b_wfov_nc_excfovps -->
<g id="node27" class="node">
<title>l2b_wfov_nc_excfovps</title>
<polygon fill="none" stroke="black" points="1673.13,-600.4 1372.13,-600.4 1372.13,-576.4 1673.13,-576.4 1685.13,-588.4 1673.13,-600.4"/>
<text text-anchor="middle" x="1528.63" y="-584.7" font-family="Times,serif" font-size="14.00">L2b_wfov_nc EXCAM FOV pixel scale 1..1</text>
</g>
<!-- l2b_wfov_nc_excfovps&#45;&gt;trans_wfov_nc_l2b_l3 -->
<g id="edge27" class="edge">
<title>l2b_wfov_nc_excfovps&#45;&gt;trans_wfov_nc_l2b_l3</title>
<path fill="none" stroke="black" d="M1685.39,-588.4C1685.39,-588.4 1727.28,-588.4 1727.28,-588.4"/>
<polygon fill="black" stroke="black" points="1727.28,-591.9 1737.28,-588.4 1727.28,-584.9 1727.28,-591.9"/>
</g>
<!-- l2b_wfov_nc_distm -->
<g id="node28" class="node">
<title>l2b_wfov_nc_distm</title>
<polygon fill="none" stroke="black" points="1640.63,-546.4 1404.63,-546.4 1404.63,-522.4 1640.63,-522.4 1652.63,-534.4 1640.63,-546.4"/>
<text text-anchor="middle" x="1528.63" y="-530.7" font-family="Times,serif" font-size="14.00">L2b_wfov_nc distortion map 1..1</text>
</g>
<!-- l2b_wfov_nc_distm&#45;&gt;trans_wfov_nc_l2b_l3 -->
<g id="edge28" class="edge">
<title>l2b_wfov_nc_distm&#45;&gt;trans_wfov_nc_l2b_l3</title>
<path fill="none" stroke="black" d="M1652.67,-534.4C1652.67,-534.4 1739.07,-534.4 1739.07,-534.4"/>
<polygon fill="black" stroke="black" points="1739.07,-537.9 1749.07,-534.4 1739.07,-530.9 1739.07,-537.9"/>
</g>
<!-- l3_wfov_nc_prod&#45;&gt;trans_wfov_nc_l3_l4 -->
<g id="edge32" class="edge">
<title>l3_wfov_nc_prod&#45;&gt;trans_wfov_nc_l3_l4</title>
<path fill="none" stroke="black" stroke-dasharray="5,2" d="M2298.19,-669.4C2298.19,-669.4 2403.97,-669.4 2403.97,-669.4"/>
<polygon fill="black" stroke="black" points="2403.97,-672.9 2413.97,-669.4 2403.97,-665.9 2403.97,-672.9"/>
</g>
<!-- l3_wfov_nc_odir -->
<g id="node31" class="node">
<title>l3_wfov_nc_odir</title>
<ellipse fill="none" stroke="black" cx="2199.35" cy="-831.4" rx="141.88" ry="18"/>
<text text-anchor="middle" x="2199.35" y="-827.7" font-family="Times,serif" font-size="14.00">L3_wfov_nc output path 1..1</text>
</g>
<!-- l3_wfov_nc_odir&#45;&gt;trans_wfov_nc_l3_l4 -->
<g id="edge34" class="edge">
<title>l3_wfov_nc_odir&#45;&gt;trans_wfov_nc_l3_l4</title>
<path fill="none" stroke="black" d="M2341.29,-831.4C2341.29,-831.4 2450.37,-831.4 2450.37,-831.4"/>
<polygon fill="black" stroke="black" points="2450.37,-834.9 2460.37,-831.4 2450.37,-827.9 2450.37,-834.9"/>
</g>
<!-- l3_wfov_nc_man&#45;&gt;trans_wfov_nc_l3_l4 -->
<g id="edge33" class="edge">
<title>l3_wfov_nc_man&#45;&gt;trans_wfov_nc_l3_l4</title>
<path fill="none" stroke="black" d="M2366.54,-615.4C2366.54,-615.4 2450.14,-615.4 2450.14,-615.4"/>
<polygon fill="black" stroke="black" points="2450.14,-618.9 2460.14,-615.4 2450.14,-611.9 2450.14,-618.9"/>
</g>
<!-- l3_wfov_nc_rec -->
<g id="node33" class="node">
<title>l3_wfov_nc_rec</title>
<polygon fill="none" stroke="black" points="2276.85,-789.4 2109.85,-789.4 2109.85,-765.4 2276.85,-765.4 2288.85,-777.4 2276.85,-789.4"/>
<text text-anchor="middle" x="2199.35" y="-773.7" font-family="Times,serif" font-size="14.00">L3_wfov_nc recipe 1..1</text>
</g>
<!-- l3_wfov_nc_rec&#45;&gt;trans_wfov_nc_l3_l4 -->
<g id="edge35" class="edge">
<title>l3_wfov_nc_rec&#45;&gt;trans_wfov_nc_l3_l4</title>
<path fill="none" stroke="black" d="M2288.87,-777.4C2288.87,-777.4 2403.96,-777.4 2403.96,-777.4"/>
<polygon fill="black" stroke="black" points="2403.96,-780.9 2413.96,-777.4 2403.96,-773.9 2403.96,-780.9"/>
</g>
<!-- l3_wfov_nc_cal -->
<g id="node34" class="node">
<title>l3_wfov_nc_cal</title>
<polygon fill="none" stroke="black" points="2292.85,-735.4 2093.85,-735.4 2093.85,-711.4 2292.85,-711.4 2304.85,-723.4 2292.85,-735.4"/>
<text text-anchor="middle" x="2199.35" y="-719.7" font-family="Times,serif" font-size="14.00">L3_wfov_nc calibration 1..1</text>
</g>
<!-- l3_wfov_nc_cal&#45;&gt;trans_wfov_nc_l3_l4 -->
<g id="edge36" class="edge">
<title>l3_wfov_nc_cal&#45;&gt;trans_wfov_nc_l3_l4</title>
<path fill="none" stroke="black" d="M2304.99,-723.4C2304.99,-723.4 2392.21,-723.4 2392.21,-723.4"/>
<polygon fill="black" stroke="black" points="2392.21,-726.9 2402.21,-723.4 2392.21,-719.9 2392.21,-726.9"/>
</g>
<!-- l4_wfov_nc_prod&#45;&gt;trans_wfov_nc_l4_tda -->
<g id="edge40" class="edge">
<title>l4_wfov_nc_prod&#45;&gt;trans_wfov_nc_l4_tda</title>
<path fill="none" stroke="black" stroke-dasharray="5,2" d="M2965.35,-810.4C2965.35,-810.4 3111.88,-810.4 3111.88,-810.4"/>
<polygon fill="black" stroke="black" points="3111.88,-813.9 3121.88,-810.4 3111.88,-806.9 3111.88,-813.9"/>
</g>
<!-- l4_wfov_nc_odir -->
<g id="node37" class="node">
<title>l4_wfov_nc_odir</title>
<ellipse fill="none" stroke="black" cx="2866.68" cy="-1074.4" rx="141.88" ry="18"/>
<text text-anchor="middle" x="2866.68" y="-1070.7" font-family="Times,serif" font-size="14.00">L4_wfov_nc output path 1..1</text>
</g>
<!-- l4_wfov_nc_odir&#45;&gt;trans_wfov_nc_l4_tda -->
<g id="edge42" class="edge">
<title>l4_wfov_nc_odir&#45;&gt;trans_wfov_nc_l4_tda</title>
<path fill="none" stroke="black" d="M2982.75,-1063.75C2982.75,-1049.61 2982.75,-1026.4 2982.75,-1026.4 2982.75,-1026.4 3130.34,-1026.4 3130.34,-1026.4"/>
<polygon fill="black" stroke="black" points="3130.34,-1029.9 3140.34,-1026.4 3130.34,-1022.9 3130.34,-1029.9"/>
</g>
<!-- l4_wfov_nc_man&#45;&gt;trans_wfov_nc_l4_tda -->
<g id="edge41" class="edge">
<title>l4_wfov_nc_man&#45;&gt;trans_wfov_nc_l4_tda</title>
<path fill="none" stroke="black" d="M3001.75,-707.32C3001.75,-733.63 3001.75,-798.4 3001.75,-798.4 3001.75,-798.4 3130.27,-798.4 3130.27,-798.4"/>
<polygon fill="black" stroke="black" points="3130.27,-801.9 3140.27,-798.4 3130.27,-794.9 3130.27,-801.9"/>
</g>
<!-- l4_wfov_nc_rec -->
<g id="node40" class="node">
<title>l4_wfov_nc_rec</title>
<polygon fill="none" stroke="black" points="2944.18,-1032.4 2777.18,-1032.4 2777.18,-1008.4 2944.18,-1008.4 2956.18,-1020.4 2944.18,-1032.4"/>
<text text-anchor="middle" x="2866.68" y="-1016.7" font-family="Times,serif" font-size="14.00">L4_wfov_nc recipe 1..1</text>
</g>
<!-- l4_wfov_nc_rec&#45;&gt;trans_wfov_nc_l4_tda -->
<g id="edge43" class="edge">
<title>l4_wfov_nc_rec&#45;&gt;trans_wfov_nc_l4_tda</title>
<path fill="none" stroke="black" d="M2956.43,-1014.4C2956.43,-1014.4 3111.88,-1014.4 3111.88,-1014.4"/>
<polygon fill="black" stroke="black" points="3111.88,-1017.9 3121.88,-1014.4 3111.88,-1010.9 3111.88,-1017.9"/>
</g>
<!-- l4_wfov_nc_afcal -->
<g id="node41" class="node">
<title>l4_wfov_nc_afcal</title>
<polygon fill="none" stroke="black" points="3011.68,-978.4 2709.68,-978.4 2709.68,-954.4 3011.68,-954.4 3023.68,-966.4 3011.68,-978.4"/>
<text text-anchor="middle" x="2866.68" y="-962.7" font-family="Times,serif" font-size="14.00">L4_wfov_nc absolute flux calibrations 1..1</text>
</g>
<!-- l4_wfov_nc_afcal&#45;&gt;trans_wfov_nc_l4_tda -->
<g id="edge44" class="edge">
<title>l4_wfov_nc_afcal&#45;&gt;trans_wfov_nc_l4_tda</title>
<path fill="none" stroke="black" d="M3023.84,-966.4C3023.84,-966.4 3073.92,-966.4 3073.92,-966.4"/>
<polygon fill="black" stroke="black" points="3073.92,-969.9 3083.92,-966.4 3073.92,-962.9 3073.92,-969.9"/>
</g>
<!-- l4_wfov_nc_ctcal -->
<g id="node42" class="node">
<title>l4_wfov_nc_ctcal</title>
<polygon fill="none" stroke="black" points="3024.18,-924.4 2697.18,-924.4 2697.18,-900.4 3024.18,-900.4 3036.18,-912.4 3024.18,-924.4"/>
<text text-anchor="middle" x="2866.68" y="-908.7" font-family="Times,serif" font-size="14.00">L4_wfov_nc core throughput calibrations 1..1</text>
</g>
<!-- l4_wfov_nc_ctcal&#45;&gt;trans_wfov_nc_l4_tda -->
<g id="edge45" class="edge">
<title>l4_wfov_nc_ctcal&#45;&gt;trans_wfov_nc_l4_tda</title>
<path fill="none" stroke="black" d="M3036.59,-912.4C3036.59,-912.4 3061.76,-912.4 3061.76,-912.4"/>
<polygon fill="black" stroke="black" points="3061.76,-915.9 3071.76,-912.4 3061.76,-908.9 3061.76,-915.9"/>
</g>
<!-- l4_wfov_nc_ndfilt -->
<g id="node43" class="node">
<title>l4_wfov_nc_ndfilt</title>
<polygon fill="none" stroke="black" points="2953.18,-870.4 2768.18,-870.4 2768.18,-846.4 2953.18,-846.4 2965.18,-858.4 2953.18,-870.4"/>
<text text-anchor="middle" x="2866.68" y="-854.7" font-family="Times,serif" font-size="14.00">L4_wfov_nc ND filter 1..1</text>
</g>
<!-- l4_wfov_nc_ndfilt&#45;&gt;trans_wfov_nc_l4_tda -->
<g id="edge46" class="edge">
<title>l4_wfov_nc_ndfilt&#45;&gt;trans_wfov_nc_l4_tda</title>
<path fill="none" stroke="black" d="M2965.35,-858.4C2965.35,-858.4 3073.81,-858.4 3073.81,-858.4"/>
<polygon fill="black" stroke="black" points="3073.81,-861.9 3083.81,-858.4 3073.81,-854.9 3073.81,-861.9"/>
</g>
<!-- tda_wfov_nc_man -->
<g id="node44" class="node">
<title>tda_wfov_nc_man</title>
<ellipse fill="none" stroke="black" cx="174.83" cy="-291.4" rx="174.67" ry="18"/>
<text text-anchor="middle" x="174.83" y="-287.7" font-family="Times,serif" font-size="14.00">TDA_wfov_nc product manifest 1..1</text>
</g>
</g>
</svg>
