<?xml version="1.0" encoding="UTF-8" standalone="no"?>
<!DOCTYPE svg PUBLIC "-//W3C//DTD SVG 1.1//EN"
 "http://www.w3.org/Graphics/SVG/1.1/DTD/svg11.dtd">
<!-- Generated by graphviz version 2.43.0 (0)
 -->
<!-- Title: WideFieldOfViewPhotonCount Pages: 1 -->
<svg width="3045pt" height="1097pt"
 viewBox="0.00 0.00 3044.73 1097.00" xmlns="http://www.w3.org/2000/svg" xmlns:xlink="http://www.w3.org/1999/xlink">
<g id="graph0" class="graph" transform="scale(1 1) rotate(0) translate(4 1093)">
<title>WideFieldOfViewPhotonCount</title>
<polygon fill="white" stroke="transparent" points="-4,4 -4,-1093 3040.73,-1093 3040.73,4 -4,4"/>
<!-- trans_wfov_pc_l1_l2a -->
<g id="node1" class="node">
<title>trans_wfov_pc_l1_l2a</title>
<ellipse fill="none" stroke="black" cx="423.91" cy="-126" rx="103.48" ry="103.48"/>
<text text-anchor="middle" x="423.91" y="-129.8" font-family="Times,serif" font-size="14.00">wfov_pc Transmutation</text>
<text text-anchor="middle" x="423.91" y="-114.8" font-family="Times,serif" font-size="14.00">L1 to L2a</text>
</g>
<!-- l2a_wfov_pc_prod -->
<g id="node11" class="node">
<title>l2a_wfov_pc_prod</title>
<polygon fill="none" stroke="black" points="784.44,-225 617.44,-225 617.44,-189 784.44,-189 784.44,-225"/>
<text text-anchor="middle" x="700.94" y="-203.3" font-family="Times,serif" font-size="14.00">L2a_wfov_pc products 1..b</text>
</g>
<!-- trans_wfov_pc_l1_l2a&#45;&gt;l2a_wfov_pc_prod -->
<g id="edge6" class="edge">
<title>trans_wfov_pc_l1_l2a&#45;&gt;l2a_wfov_pc_prod</title>
<path fill="none" stroke="black" stroke-dasharray="5,2" d="M488.16,-207C488.16,-207 607.33,-207 607.33,-207"/>
<polygon fill="black" stroke="black" points="607.33,-210.5 617.33,-207 607.33,-203.5 607.33,-210.5"/>
</g>
<!-- l2a_wfov_pc_man -->
<g id="node12" class="node">
<title>l2a_wfov_pc_man</title>
<ellipse fill="none" stroke="black" cx="700.94" cy="-153" rx="137.58" ry="18"/>
<text text-anchor="middle" x="700.94" y="-149.3" font-family="Times,serif" font-size="14.00">L2a_wfov_pc product manifest 1..1</text>
</g>
<!-- trans_wfov_pc_l1_l2a&#45;&gt;l2a_wfov_pc_man -->
<g id="edge7" class="edge">
<title>trans_wfov_pc_l1_l2a&#45;&gt;l2a_wfov_pc_man</title>
<path fill="none" stroke="black" d="M523.92,-153C523.92,-153 552.98,-153 552.98,-153"/>
<polygon fill="black" stroke="black" points="552.98,-156.5 562.98,-153 552.98,-149.5 552.98,-156.5"/>
</g>
<!-- l2a_wfov_pc_log -->
<g id="node21" class="node">
<title>l2a_wfov_pc_log</title>
<ellipse fill="none" stroke="black" cx="700.94" cy="-99" rx="89.08" ry="18"/>
<text text-anchor="middle" x="700.94" y="-95.3" font-family="Times,serif" font-size="14.00">L2a log_wfov_pc 1..1</text>
</g>
<!-- trans_wfov_pc_l1_l2a&#45;&gt;l2a_wfov_pc_log -->
<g id="edge8" class="edge">
<title>trans_wfov_pc_l1_l2a&#45;&gt;l2a_wfov_pc_log</title>
<path fill="none" stroke="black" stroke-dasharray="5,2" d="M523.92,-99C523.92,-99 601.64,-99 601.64,-99"/>
<polygon fill="black" stroke="black" points="601.64,-102.5 611.64,-99 601.64,-95.5 601.64,-102.5"/>
</g>
<!-- l2a_wfov_pc_src -->
<g id="node47" class="node">
<title>l2a_wfov_pc_src</title>
<ellipse fill="none" stroke="black" cx="700.94" cy="-45" rx="133.78" ry="18"/>
<text text-anchor="middle" x="700.94" y="-41.3" font-family="Times,serif" font-size="14.00">L2a_wfov_pc source manifest 1..1</text>
</g>
<!-- trans_wfov_pc_l1_l2a&#45;&gt;l2a_wfov_pc_src -->
<g id="edge49" class="edge">
<title>trans_wfov_pc_l1_l2a&#45;&gt;l2a_wfov_pc_src</title>
<path fill="none" stroke="black" d="M488.16,-45C488.16,-45 556.81,-45 556.81,-45"/>
<polygon fill="black" stroke="black" points="556.81,-48.5 566.81,-45 556.81,-41.5 556.81,-48.5"/>
</g>
<!-- trans_wfov_pc_l2a_l2b -->
<g id="node2" class="node">
<title>trans_wfov_pc_l2a_l2b</title>
<ellipse fill="none" stroke="black" cx="977.96" cy="-396" rx="103.48" ry="103.48"/>
<text text-anchor="middle" x="977.96" y="-399.8" font-family="Times,serif" font-size="14.00">wfov_pc Transmutation</text>
<text text-anchor="middle" x="977.96" y="-384.8" font-family="Times,serif" font-size="14.00">L2a to L2b</text>
</g>
<!-- l2b_wfov_pc_prod -->
<g id="node22" class="node">
<title>l2b_wfov_pc_prod</title>
<polygon fill="none" stroke="black" points="1339.14,-495 1172.14,-495 1172.14,-459 1339.14,-459 1339.14,-495"/>
<text text-anchor="middle" x="1255.64" y="-473.3" font-family="Times,serif" font-size="14.00">L2b_wfov_pc products 1..1</text>
</g>
<!-- trans_wfov_pc_l2a_l2b&#45;&gt;l2b_wfov_pc_prod -->
<g id="edge18" class="edge">
<title>trans_wfov_pc_l2a_l2b&#45;&gt;l2b_wfov_pc_prod</title>
<path fill="none" stroke="black" stroke-dasharray="5,2" d="M1042.02,-477C1042.02,-477 1161.89,-477 1161.89,-477"/>
<polygon fill="black" stroke="black" points="1161.89,-480.5 1171.89,-477 1161.89,-473.5 1161.89,-480.5"/>
</g>
<!-- l2b_wfov_pc_man -->
<g id="node23" class="node">
<title>l2b_wfov_pc_man</title>
<ellipse fill="none" stroke="black" cx="1255.64" cy="-423" rx="138.38" ry="18"/>
<text text-anchor="middle" x="1255.64" y="-419.3" font-family="Times,serif" font-size="14.00">L2b_wfov_pc product manifest 1..1</text>
</g>
<!-- trans_wfov_pc_l2a_l2b&#45;&gt;l2b_wfov_pc_man -->
<g id="edge19" class="edge">
<title>trans_wfov_pc_l2a_l2b&#45;&gt;l2b_wfov_pc_man</title>
<path fill="none" stroke="black" d="M1077.82,-423C1077.82,-423 1107.02,-423 1107.02,-423"/>
<polygon fill="black" stroke="black" points="1107.02,-426.5 1117.02,-423 1107.02,-419.5 1107.02,-426.5"/>
</g>
<!-- l2b_wfov_pc_log -->
<g id="node29" class="node">
<title>l2b_wfov_pc_log</title>
<ellipse fill="none" stroke="black" cx="1255.64" cy="-369" rx="89.88" ry="18"/>
<text text-anchor="middle" x="1255.64" y="-365.3" font-family="Times,serif" font-size="14.00">L2b_wfov_pc log 1..1</text>
</g>
<!-- trans_wfov_pc_l2a_l2b&#45;&gt;l2b_wfov_pc_log -->
<g id="edge20" class="edge">
<title>trans_wfov_pc_l2a_l2b&#45;&gt;l2b_wfov_pc_log</title>
<path fill="none" stroke="black" stroke-dasharray="5,2" d="M1077.82,-369C1077.82,-369 1155.89,-369 1155.89,-369"/>
<polygon fill="black" stroke="black" points="1155.89,-372.5 1165.89,-369 1155.89,-365.5 1155.89,-372.5"/>
</g>
<!-- l2b_wfov_pc_src -->
<g id="node48" class="node">
<title>l2b_wfov_pc_src</title>
<ellipse fill="none" stroke="black" cx="1255.64" cy="-315" rx="134.58" ry="18"/>
<text text-anchor="middle" x="1255.64" y="-311.3" font-family="Times,serif" font-size="14.00">L2b_wfov_pc source manifest 1..1</text>
</g>
<!-- trans_wfov_pc_l2a_l2b&#45;&gt;l2b_wfov_pc_src -->
<g id="edge50" class="edge">
<title>trans_wfov_pc_l2a_l2b&#45;&gt;l2b_wfov_pc_src</title>
<path fill="none" stroke="black" d="M1042.02,-315C1042.02,-315 1110.91,-315 1110.91,-315"/>
<polygon fill="black" stroke="black" points="1110.91,-318.5 1120.91,-315 1110.91,-311.5 1110.91,-318.5"/>
</g>
<!-- trans_wfov_pc_l2b_l3 -->
<g id="node3" class="node">
<title>trans_wfov_pc_l2b_l3</title>
<ellipse fill="none" stroke="black" cx="1533.31" cy="-585" rx="103.48" ry="103.48"/>
<text text-anchor="middle" x="1533.31" y="-588.8" font-family="Times,serif" font-size="14.00">wfov_pc Transmutation</text>
<text text-anchor="middle" x="1533.31" y="-573.8" font-family="Times,serif" font-size="14.00">L2b to L3</text>
</g>
<!-- l3_wfov_pc_prod -->
<g id="node30" class="node">
<title>l3_wfov_pc_prod</title>
<polygon fill="none" stroke="black" points="1886.94,-684 1725.94,-684 1725.94,-648 1886.94,-648 1886.94,-684"/>
<text text-anchor="middle" x="1806.44" y="-662.3" font-family="Times,serif" font-size="14.00">L3_wfov_pc products 1..1</text>
</g>
<!-- trans_wfov_pc_l2b_l3&#45;&gt;l3_wfov_pc_prod -->
<g id="edge29" class="edge">
<title>trans_wfov_pc_l2b_l3&#45;&gt;l3_wfov_pc_prod</title>
<path fill="none" stroke="black" stroke-dasharray="5,2" d="M1597.35,-666C1597.35,-666 1715.92,-666 1715.92,-666"/>
<polygon fill="black" stroke="black" points="1715.92,-669.5 1725.92,-666 1715.92,-662.5 1715.92,-669.5"/>
</g>
<!-- l3_wfov_pc_man -->
<g id="node32" class="node">
<title>l3_wfov_pc_man</title>
<ellipse fill="none" stroke="black" cx="1806.44" cy="-612" rx="133.78" ry="18"/>
<text text-anchor="middle" x="1806.44" y="-608.3" font-family="Times,serif" font-size="14.00">L3_wfov_pc product manifest 1..1</text>
</g>
<!-- trans_wfov_pc_l2b_l3&#45;&gt;l3_wfov_pc_man -->
<g id="edge30" class="edge">
<title>trans_wfov_pc_l2b_l3&#45;&gt;l3_wfov_pc_man</title>
<path fill="none" stroke="black" d="M1633.08,-612C1633.08,-612 1662.38,-612 1662.38,-612"/>
<polygon fill="black" stroke="black" points="1662.38,-615.5 1672.38,-612 1662.38,-608.5 1662.38,-615.5"/>
</g>
<!-- l3_wfov_pc_log -->
<g id="node35" class="node">
<title>l3_wfov_pc_log</title>
<ellipse fill="none" stroke="black" cx="1806.44" cy="-558" rx="85.29" ry="18"/>
<text text-anchor="middle" x="1806.44" y="-554.3" font-family="Times,serif" font-size="14.00">L3_wfov_pc log 1..1</text>
</g>
<!-- trans_wfov_pc_l2b_l3&#45;&gt;l3_wfov_pc_log -->
<g id="edge31" class="edge">
<title>trans_wfov_pc_l2b_l3&#45;&gt;l3_wfov_pc_log</title>
<path fill="none" stroke="black" stroke-dasharray="5,2" d="M1633.08,-558C1633.08,-558 1710.89,-558 1710.89,-558"/>
<polygon fill="black" stroke="black" points="1710.89,-561.5 1720.89,-558 1710.89,-554.5 1710.89,-561.5"/>
</g>
<!-- l3_wfov_pc_src -->
<g id="node49" class="node">
<title>l3_wfov_pc_src</title>
<ellipse fill="none" stroke="black" cx="1806.44" cy="-504" rx="129.98" ry="18"/>
<text text-anchor="middle" x="1806.44" y="-500.3" font-family="Times,serif" font-size="14.00">L3_wfov_pc source manifest 1..1</text>
</g>
<!-- trans_wfov_pc_l2b_l3&#45;&gt;l3_wfov_pc_src -->
<g id="edge51" class="edge">
<title>trans_wfov_pc_l2b_l3&#45;&gt;l3_wfov_pc_src</title>
<path fill="none" stroke="black" d="M1597.35,-504C1597.35,-504 1666.42,-504 1666.42,-504"/>
<polygon fill="black" stroke="black" points="1666.42,-507.5 1676.42,-504 1666.42,-500.5 1666.42,-507.5"/>
</g>
<!-- trans_wfov_pc_l3_l4 -->
<g id="node4" class="node">
<title>trans_wfov_pc_l3_l4</title>
<ellipse fill="none" stroke="black" cx="2079.57" cy="-720" rx="103.48" ry="103.48"/>
<text text-anchor="middle" x="2079.57" y="-723.8" font-family="Times,serif" font-size="14.00">wfov_pc Transmutation</text>
<text text-anchor="middle" x="2079.57" y="-708.8" font-family="Times,serif" font-size="14.00">L3 to L4</text>
</g>
<!-- l4_wfov_pc_prod -->
<g id="node36" class="node">
<title>l4_wfov_pc_prod</title>
<polygon fill="none" stroke="black" points="2433.19,-819 2272.19,-819 2272.19,-783 2433.19,-783 2433.19,-819"/>
<text text-anchor="middle" x="2352.69" y="-797.3" font-family="Times,serif" font-size="14.00">L4_wfov_pc products 1..1</text>
</g>
<!-- trans_wfov_pc_l3_l4&#45;&gt;l4_wfov_pc_prod -->
<g id="edge37" class="edge">
<title>trans_wfov_pc_l3_l4&#45;&gt;l4_wfov_pc_prod</title>
<path fill="none" stroke="black" stroke-dasharray="5,2" d="M2143.6,-801C2143.6,-801 2262.17,-801 2262.17,-801"/>
<polygon fill="black" stroke="black" points="2262.17,-804.5 2272.17,-801 2262.17,-797.5 2262.17,-804.5"/>
</g>
<!-- l4_wfov_pc_log -->
<g id="node38" class="node">
<title>l4_wfov_pc_log</title>
<ellipse fill="none" stroke="black" cx="2352.69" cy="-747" rx="85.29" ry="18"/>
<text text-anchor="middle" x="2352.69" y="-743.3" font-family="Times,serif" font-size="14.00">L4_wfov_pc log 1..1</text>
</g>
<!-- trans_wfov_pc_l3_l4&#45;&gt;l4_wfov_pc_log -->
<g id="edge38" class="edge">
<title>trans_wfov_pc_l3_l4&#45;&gt;l4_wfov_pc_log</title>
<path fill="none" stroke="black" stroke-dasharray="5,2" d="M2179.33,-747C2179.33,-747 2257.15,-747 2257.15,-747"/>
<polygon fill="black" stroke="black" points="2257.15,-750.5 2267.15,-747 2257.14,-743.5 2257.15,-750.5"/>
</g>
<!-- l4_wfov_pc_man -->
<g id="node39" class="node">
<title>l4_wfov_pc_man</title>
<ellipse fill="none" stroke="black" cx="2352.69" cy="-693" rx="133.78" ry="18"/>
<text text-anchor="middle" x="2352.69" y="-689.3" font-family="Times,serif" font-size="14.00">L4_wfov_pc product manifest 1..1</text>
</g>
<!-- trans_wfov_pc_l3_l4&#45;&gt;l4_wfov_pc_man -->
<g id="edge39" class="edge">
<title>trans_wfov_pc_l3_l4&#45;&gt;l4_wfov_pc_man</title>
<path fill="none" stroke="black" d="M2179.33,-693C2179.33,-693 2208.63,-693 2208.63,-693"/>
<polygon fill="black" stroke="black" points="2208.63,-696.5 2218.63,-693 2208.63,-689.5 2208.63,-696.5"/>
</g>
<!-- l4_wfov_pc_src -->
<g id="node50" class="node">
<title>l4_wfov_pc_src</title>
<ellipse fill="none" stroke="black" cx="2352.69" cy="-639" rx="128.08" ry="18"/>
<text text-anchor="middle" x="2352.69" y="-635.3" font-family="Times,serif" font-size="14.00">L4_wfov_pc sourcemanifest 1..1</text>
</g>
<!-- trans_wfov_pc_l3_l4&#45;&gt;l4_wfov_pc_src -->
<g id="edge52" class="edge">
<title>trans_wfov_pc_l3_l4&#45;&gt;l4_wfov_pc_src</title>
<path fill="none" stroke="black" d="M2143.6,-639C2143.6,-639 2214.58,-639 2214.58,-639"/>
<polygon fill="black" stroke="black" points="2214.58,-642.5 2224.58,-639 2214.58,-635.5 2214.58,-642.5"/>
</g>
<!-- trans_wfov_pc_l4_tda -->
<g id="node5" class="node">
<title>trans_wfov_pc_l4_tda</title>
<ellipse fill="none" stroke="black" cx="2625.82" cy="-909" rx="103.48" ry="103.48"/>
<text text-anchor="middle" x="2625.82" y="-912.8" font-family="Times,serif" font-size="14.00">wfov_pc Transmutation</text>
<text text-anchor="middle" x="2625.82" y="-897.8" font-family="Times,serif" font-size="14.00">L4 to TDA</text>
</g>
<!-- tda_wfov_pc_prod -->
<g id="node45" class="node">
<title>tda_wfov_pc_prod</title>
<ellipse fill="none" stroke="black" cx="2900.89" cy="-963" rx="77.19" ry="18"/>
<text text-anchor="middle" x="2900.89" y="-959.3" font-family="Times,serif" font-size="14.00">tda_wfov_pc_prod</text>
</g>
<!-- trans_wfov_pc_l4_tda&#45;&gt;tda_wfov_pc_prod -->
<g id="edge47" class="edge">
<title>trans_wfov_pc_l4_tda&#45;&gt;tda_wfov_pc_prod</title>
<path fill="none" stroke="black" stroke-dasharray="5,2" d="M2713.99,-963C2713.99,-963 2813.42,-963 2813.42,-963"/>
<polygon fill="black" stroke="black" points="2813.42,-966.5 2823.42,-963 2813.42,-959.5 2813.42,-966.5"/>
</g>
<!-- tda_wfov_pc_log -->
<g id="node46" class="node">
<title>tda_wfov_pc_log</title>
<ellipse fill="none" stroke="black" cx="2900.89" cy="-909" rx="72.29" ry="18"/>
<text text-anchor="middle" x="2900.89" y="-905.3" font-family="Times,serif" font-size="14.00">tda_wfov_pc_log</text>
</g>
<!-- trans_wfov_pc_l4_tda&#45;&gt;tda_wfov_pc_log -->
<g id="edge48" class="edge">
<title>trans_wfov_pc_l4_tda&#45;&gt;tda_wfov_pc_log</title>
<path fill="none" stroke="black" stroke-dasharray="5,2" d="M2729.42,-909C2729.42,-909 2818.63,-909 2818.63,-909"/>
<polygon fill="black" stroke="black" points="2818.63,-912.5 2828.63,-909 2818.63,-905.5 2818.63,-912.5"/>
</g>
<!-- tda_wfov_pc_src -->
<g id="node51" class="node">
<title>tda_wfov_pc_src</title>
<ellipse fill="none" stroke="black" cx="2900.89" cy="-855" rx="135.68" ry="18"/>
<text text-anchor="middle" x="2900.89" y="-851.3" font-family="Times,serif" font-size="14.00">TDA_wfov_pc sourcemanifest 1..1</text>
</g>
<!-- trans_wfov_pc_l4_tda&#45;&gt;tda_wfov_pc_src -->
<g id="edge53" class="edge">
<title>trans_wfov_pc_l4_tda&#45;&gt;tda_wfov_pc_src</title>
<path fill="none" stroke="black" d="M2713.99,-855C2713.99,-855 2754.87,-855 2754.87,-855"/>
<polygon fill="black" stroke="black" points="2754.87,-858.5 2764.87,-855 2754.87,-851.5 2754.87,-858.5"/>
</g>
<!-- l1_wfov_pc_prod -->
<g id="node6" class="node">
<title>l1_wfov_pc_prod</title>
<polygon fill="none" stroke="black" points="222.84,-252 61.84,-252 61.84,-216 222.84,-216 222.84,-252"/>
<text text-anchor="middle" x="142.34" y="-230.3" font-family="Times,serif" font-size="14.00">L1_wfov_pc products 1..b</text>
</g>
<!-- l1_wfov_pc_prod&#45;&gt;trans_wfov_pc_l1_l2a -->
<g id="edge1" class="edge">
<title>l1_wfov_pc_prod&#45;&gt;trans_wfov_pc_l1_l2a</title>
<path fill="none" stroke="black" stroke-dasharray="5,2" d="M223.03,-222.62C223.03,-222.62 377.26,-222.62 377.26,-222.62"/>
<polygon fill="black" stroke="black" points="377.26,-226.12 387.26,-222.62 377.26,-219.12 377.26,-226.12"/>
</g>
<!-- l1_wfov_pc_man -->
<g id="node7" class="node">
<title>l1_wfov_pc_man</title>
<ellipse fill="none" stroke="black" cx="142.34" cy="-180" rx="133.78" ry="18"/>
<text text-anchor="middle" x="142.34" y="-176.3" font-family="Times,serif" font-size="14.00">L1_wfov_pc product manifest 1..1</text>
</g>
<!-- l1_wfov_pc_man&#45;&gt;trans_wfov_pc_l1_l2a -->
<g id="edge2" class="edge">
<title>l1_wfov_pc_man&#45;&gt;trans_wfov_pc_l1_l2a</title>
<path fill="none" stroke="black" d="M276.53,-180C276.53,-180 325.76,-180 325.76,-180"/>
<polygon fill="black" stroke="black" points="325.76,-183.5 335.76,-180 325.76,-176.5 325.76,-183.5"/>
</g>
<!-- l1_wfov_pc_odir -->
<g id="node8" class="node">
<title>l1_wfov_pc_odir</title>
<ellipse fill="none" stroke="black" cx="142.34" cy="-126" rx="114.28" ry="18"/>
<text text-anchor="middle" x="142.34" y="-122.3" font-family="Times,serif" font-size="14.00">L1_wfov_pc output path 1..1</text>
</g>
<!-- l1_wfov_pc_odir&#45;&gt;trans_wfov_pc_l1_l2a -->
<g id="edge3" class="edge">
<title>l1_wfov_pc_odir&#45;&gt;trans_wfov_pc_l1_l2a</title>
<path fill="none" stroke="black" d="M256.86,-126C256.86,-126 310.36,-126 310.36,-126"/>
<polygon fill="black" stroke="black" points="310.36,-129.5 320.36,-126 310.36,-122.5 310.36,-129.5"/>
</g>
<!-- l1_wfov_pc_rec -->
<g id="node9" class="node">
<title>l1_wfov_pc_rec</title>
<polygon fill="none" stroke="black" points="203.84,-84 68.84,-84 68.84,-60 203.84,-60 215.84,-72 203.84,-84"/>
<text text-anchor="middle" x="142.34" y="-68.3" font-family="Times,serif" font-size="14.00">L1_wfov_pc recipe 1..1</text>
</g>
<!-- l1_wfov_pc_rec&#45;&gt;trans_wfov_pc_l1_l2a -->
<g id="edge4" class="edge">
<title>l1_wfov_pc_rec&#45;&gt;trans_wfov_pc_l1_l2a</title>
<path fill="none" stroke="black" d="M215.95,-72C215.95,-72 325.7,-72 325.7,-72"/>
<polygon fill="black" stroke="black" points="325.7,-75.5 335.7,-72 325.7,-68.5 325.7,-75.5"/>
</g>
<!-- l1_wfov_pc_nllut -->
<g id="node10" class="node">
<title>l1_wfov_pc_nllut</title>
<polygon fill="none" stroke="black" points="229.84,-30 42.84,-30 42.84,-6 229.84,-6 241.84,-18 229.84,-30"/>
<text text-anchor="middle" x="142.34" y="-14.3" font-family="Times,serif" font-size="14.00">L1_wfov_pc non&#45;linear LUT 1..1</text>
</g>
<!-- l1_wfov_pc_nllut&#45;&gt;trans_wfov_pc_l1_l2a -->
<g id="edge5" class="edge">
<title>l1_wfov_pc_nllut&#45;&gt;trans_wfov_pc_l1_l2a</title>
<path fill="none" stroke="black" d="M242.01,-29.38C242.01,-29.38 377.37,-29.38 377.37,-29.38"/>
<polygon fill="black" stroke="black" points="377.37,-32.88 387.37,-29.38 377.37,-25.88 377.37,-32.88"/>
</g>
<!-- l2a_wfov_pc_prod&#45;&gt;trans_wfov_pc_l2a_l2b -->
<g id="edge9" class="edge">
<title>l2a_wfov_pc_prod&#45;&gt;trans_wfov_pc_l2a_l2b</title>
<path fill="none" stroke="black" stroke-dasharray="5,2" d="M784.49,-207C876.85,-207 1012.73,-207 1012.73,-207 1012.73,-207 1012.73,-288.73 1012.73,-288.73"/>
<polygon fill="black" stroke="black" points="1009.23,-288.73 1012.73,-298.73 1016.23,-288.73 1009.23,-288.73"/>
</g>
<!-- l2a_wfov_pc_man&#45;&gt;trans_wfov_pc_l2a_l2b -->
<g id="edge21" class="edge">
<title>l2a_wfov_pc_man&#45;&gt;trans_wfov_pc_l2a_l2b</title>
<path fill="none" stroke="black" d="M832.73,-158.55C832.73,-186.34 832.73,-309 832.73,-309 832.73,-309 912.23,-309 912.23,-309"/>
<polygon fill="black" stroke="black" points="912.23,-312.5 922.23,-309 912.23,-305.5 912.23,-312.5"/>
</g>
<!-- l2a_wfov_pc_odir -->
<g id="node13" class="node">
<title>l2a_wfov_pc_odir</title>
<ellipse fill="none" stroke="black" cx="700.94" cy="-641" rx="118.08" ry="18"/>
<text text-anchor="middle" x="700.94" y="-637.3" font-family="Times,serif" font-size="14.00">L2a_wfov_pc output path 1..1</text>
</g>
<!-- l2a_wfov_pc_odir&#45;&gt;trans_wfov_pc_l2a_l2b -->
<g id="edge10" class="edge">
<title>l2a_wfov_pc_odir&#45;&gt;trans_wfov_pc_l2a_l2b</title>
<path fill="none" stroke="black" d="M819.26,-640C907.46,-640 1012.73,-640 1012.73,-640 1012.73,-640 1012.73,-503.49 1012.73,-503.49"/>
<polygon fill="black" stroke="black" points="1016.23,-503.49 1012.73,-493.49 1009.23,-503.49 1016.23,-503.49"/>
</g>
<!-- l2a_wfov_pc_rec -->
<g id="node14" class="node">
<title>l2a_wfov_pc_rec</title>
<polygon fill="none" stroke="black" points="765.44,-599 624.44,-599 624.44,-575 765.44,-575 777.44,-587 765.44,-599"/>
<text text-anchor="middle" x="700.94" y="-583.3" font-family="Times,serif" font-size="14.00">L2a_wfov_pc recipe 1..1</text>
</g>
<!-- l2a_wfov_pc_rec&#45;&gt;trans_wfov_pc_l2a_l2b -->
<g id="edge11" class="edge">
<title>l2a_wfov_pc_rec&#45;&gt;trans_wfov_pc_l2a_l2b</title>
<path fill="none" stroke="black" d="M777.76,-586C848.89,-586 943.73,-586 943.73,-586 943.73,-586 943.73,-503.5 943.73,-503.5"/>
<polygon fill="black" stroke="black" points="947.23,-503.5 943.73,-493.5 940.23,-503.5 947.23,-503.5"/>
</g>
<!-- l2a_wfov_pc_cti -->
<g id="node15" class="node">
<title>l2a_wfov_pc_cti</title>
<polygon fill="none" stroke="black" points="813.94,-545 575.94,-545 575.94,-521 813.94,-521 825.94,-533 813.94,-545"/>
<text text-anchor="middle" x="700.94" y="-529.3" font-family="Times,serif" font-size="14.00">L2a_wfov_pc charge xfer inefficiency 1..1</text>
</g>
<!-- l2a_wfov_pc_cti&#45;&gt;trans_wfov_pc_l2a_l2b -->
<g id="edge12" class="edge">
<title>l2a_wfov_pc_cti&#45;&gt;trans_wfov_pc_l2a_l2b</title>
<path fill="none" stroke="black" d="M816.73,-514.88C816.73,-501.04 816.73,-484.33 816.73,-484.33 816.73,-484.33 914.27,-484.33 914.27,-484.33"/>
<polygon fill="black" stroke="black" points="914.27,-487.83 924.27,-484.33 914.27,-480.83 914.27,-487.83"/>
</g>
<!-- l2a_wfov_pc_dnb -->
<g id="node16" class="node">
<title>l2a_wfov_pc_dnb</title>
<polygon fill="none" stroke="black" points="799.94,-491 589.94,-491 589.94,-465 799.94,-465 811.94,-478 799.94,-491"/>
<text text-anchor="middle" x="700.94" y="-481.8" font-family="Times,serif" font-size="14.00">L2a_wfov_pc CIC/Dark Current/FPN</text>
<text text-anchor="middle" x="700.94" y="-466.8" font-family="Times,serif" font-size="14.00"> or master dark 1..1</text>
</g>
<!-- l2a_wfov_pc_dnb&#45;&gt;trans_wfov_pc_l2a_l2b -->
<g id="edge13" class="edge">
<title>l2a_wfov_pc_dnb&#45;&gt;trans_wfov_pc_l2a_l2b</title>
<path fill="none" stroke="black" d="M812.02,-471.67C812.02,-471.67 897.49,-471.67 897.49,-471.67"/>
<polygon fill="black" stroke="black" points="897.49,-475.17 907.49,-471.67 897.49,-468.17 897.49,-475.17"/>
</g>
<!-- l2a_wfov_pc_mbpm -->
<g id="node17" class="node">
<title>l2a_wfov_pc_mbpm</title>
<polygon fill="none" stroke="black" points="808.44,-435 581.44,-435 581.44,-411 808.44,-411 820.44,-423 808.44,-435"/>
<text text-anchor="middle" x="700.94" y="-419.3" font-family="Times,serif" font-size="14.00">L2a_wfov_pc master bad pixel map 1..1</text>
</g>
<!-- l2a_wfov_pc_mbpm&#45;&gt;trans_wfov_pc_l2a_l2b -->
<g id="edge14" class="edge">
<title>l2a_wfov_pc_mbpm&#45;&gt;trans_wfov_pc_l2a_l2b</title>
<path fill="none" stroke="black" d="M820.83,-423C820.83,-423 868.25,-423 868.25,-423"/>
<polygon fill="black" stroke="black" points="868.25,-426.5 878.25,-423 868.25,-419.5 868.25,-426.5"/>
</g>
<!-- l2a_wfov_pc_ff -->
<g id="node18" class="node">
<title>l2a_wfov_pc_ff</title>
<polygon fill="none" stroke="black" points="774.94,-381 614.94,-381 614.94,-357 774.94,-357 786.94,-369 774.94,-381"/>
<text text-anchor="middle" x="700.94" y="-365.3" font-family="Times,serif" font-size="14.00">L2a_wfov_pc flat fields 1..1</text>
</g>
<!-- l2a_wfov_pc_ff&#45;&gt;trans_wfov_pc_l2a_l2b -->
<g id="edge15" class="edge">
<title>l2a_wfov_pc_ff&#45;&gt;trans_wfov_pc_l2a_l2b</title>
<path fill="none" stroke="black" d="M787.07,-369C787.07,-369 868.31,-369 868.31,-369"/>
<polygon fill="black" stroke="black" points="868.31,-372.5 878.31,-369 868.31,-365.5 868.31,-372.5"/>
</g>
<!-- l2a_wfov_pc_emg -->
<g id="node19" class="node">
<title>l2a_wfov_pc_emg</title>
<polygon fill="none" stroke="black" points="772.94,-327 616.94,-327 616.94,-303 772.94,-303 784.94,-315 772.94,-327"/>
<text text-anchor="middle" x="700.94" y="-311.3" font-family="Times,serif" font-size="14.00">L2a_wfov_pc EM gain 1..1</text>
</g>
<!-- l2a_wfov_pc_emg&#45;&gt;trans_wfov_pc_l2a_l2b -->
<g id="edge16" class="edge">
<title>l2a_wfov_pc_emg&#45;&gt;trans_wfov_pc_l2a_l2b</title>
<path fill="none" stroke="black" d="M785.18,-321C785.18,-321 896.73,-321 896.73,-321"/>
<polygon fill="black" stroke="black" points="896.73,-324.5 906.73,-321 896.73,-317.5 896.73,-324.5"/>
</g>
<!-- l2a_wfov_pc_kgain -->
<g id="node20" class="node">
<title>l2a_wfov_pc_kgain</title>
<polygon fill="none" stroke="black" points="765.44,-273 624.44,-273 624.44,-249 765.44,-249 777.44,-261 765.44,-273"/>
<text text-anchor="middle" x="700.94" y="-257.3" font-family="Times,serif" font-size="14.00">L2a_wfov_pc Kgain 1..1</text>
</g>
<!-- l2a_wfov_pc_kgain&#45;&gt;trans_wfov_pc_l2a_l2b -->
<g id="edge17" class="edge">
<title>l2a_wfov_pc_kgain&#45;&gt;trans_wfov_pc_l2a_l2b</title>
<path fill="none" stroke="black" d="M777.76,-261C848.89,-261 943.73,-261 943.73,-261 943.73,-261 943.73,-288.25 943.73,-288.25"/>
<polygon fill="black" stroke="black" points="940.23,-288.25 943.73,-298.25 947.23,-288.25 940.23,-288.25"/>
</g>
<!-- l2b_wfov_pc_prod&#45;&gt;trans_wfov_pc_l2b_l3 -->
<g id="edge22" class="edge">
<title>l2b_wfov_pc_prod&#45;&gt;trans_wfov_pc_l2b_l3</title>
<path fill="none" stroke="black" stroke-dasharray="5,2" d="M1339.33,-490.59C1339.33,-490.59 1481.22,-490.59 1481.22,-490.59"/>
<polygon fill="black" stroke="black" points="1481.22,-494.09 1491.22,-490.59 1481.21,-487.09 1481.22,-494.09"/>
</g>
<!-- l2b_wfov_pc_man&#45;&gt;trans_wfov_pc_l2b_l3 -->
<g id="edge23" class="edge">
<title>l2b_wfov_pc_man&#45;&gt;trans_wfov_pc_l2b_l3</title>
<path fill="none" stroke="black" d="M1390.73,-427.15C1390.73,-441.2 1390.73,-486.17 1390.73,-486.17 1390.73,-486.17 1493.42,-486.17 1493.42,-486.17"/>
<polygon fill="black" stroke="black" points="1493.42,-489.68 1503.42,-486.17 1493.42,-482.68 1493.42,-489.68"/>
</g>
<!-- l2b_wfov_pc_odir -->
<g id="node24" class="node">
<title>l2b_wfov_pc_odir</title>
<ellipse fill="none" stroke="black" cx="1255.64" cy="-747" rx="118.08" ry="18"/>
<text text-anchor="middle" x="1255.64" y="-743.3" font-family="Times,serif" font-size="14.00">L2b_wfov_pc output path 1..1</text>
</g>
<!-- l2b_wfov_pc_odir&#45;&gt;trans_wfov_pc_l2b_l3 -->
<g id="edge24" class="edge">
<title>l2b_wfov_pc_odir&#45;&gt;trans_wfov_pc_l2b_l3</title>
<path fill="none" stroke="black" d="M1353.73,-736.85C1353.73,-718.99 1353.73,-683.83 1353.73,-683.83 1353.73,-683.83 1493.26,-683.83 1493.26,-683.83"/>
<polygon fill="black" stroke="black" points="1493.26,-687.33 1503.26,-683.83 1493.26,-680.33 1493.26,-687.33"/>
</g>
<!-- l2b_wfov_pc_rec -->
<g id="node25" class="node">
<title>l2b_wfov_pc_rec</title>
<polygon fill="none" stroke="black" points="1320.64,-705 1178.64,-705 1178.64,-681 1320.64,-681 1332.64,-693 1320.64,-705"/>
<text text-anchor="middle" x="1255.64" y="-689.3" font-family="Times,serif" font-size="14.00">L2b_wfov_pc recipe 1..1</text>
</g>
<!-- l2b_wfov_pc_rec&#45;&gt;trans_wfov_pc_l2b_l3 -->
<g id="edge25" class="edge">
<title>l2b_wfov_pc_rec&#45;&gt;trans_wfov_pc_l2b_l3</title>
<path fill="none" stroke="black" d="M1332.99,-679.41C1332.99,-679.41 1481.2,-679.41 1481.2,-679.41"/>
<polygon fill="black" stroke="black" points="1481.2,-682.91 1491.2,-679.41 1481.2,-675.91 1481.2,-682.91"/>
</g>
<!-- l2b_wfov_pc_excicrf -->
<g id="node26" class="node">
<title>l2b_wfov_pc_excicrf</title>
<polygon fill="none" stroke="black" points="1369.14,-651 1130.14,-651 1130.14,-627 1369.14,-627 1381.14,-639 1369.14,-651"/>
<text text-anchor="middle" x="1255.64" y="-635.3" font-family="Times,serif" font-size="14.00">L2b_wfov_pc EXCAM ICRF location 1..1</text>
</g>
<!-- l2b_wfov_pc_excicrf&#45;&gt;trans_wfov_pc_l2b_l3 -->
<g id="edge26" class="edge">
<title>l2b_wfov_pc_excicrf&#45;&gt;trans_wfov_pc_l2b_l3</title>
<path fill="none" stroke="black" d="M1381.48,-639C1381.48,-639 1435.22,-639 1435.22,-639"/>
<polygon fill="black" stroke="black" points="1435.22,-642.5 1445.22,-639 1435.22,-635.5 1435.22,-642.5"/>
</g>
<!-- l2b_wfov_pc_excfovps -->
<g id="node27" class="node">
<title>l2b_wfov_pc_excfovps</title>
<polygon fill="none" stroke="black" points="1374.64,-597 1124.64,-597 1124.64,-573 1374.64,-573 1386.64,-585 1374.64,-597"/>
<text text-anchor="middle" x="1255.64" y="-581.3" font-family="Times,serif" font-size="14.00">L2b_wfov_pc EXCAM FOV pixel scale 1..1</text>
</g>
<!-- l2b_wfov_pc_excfovps&#45;&gt;trans_wfov_pc_l2b_l3 -->
<g id="edge27" class="edge">
<title>l2b_wfov_pc_excfovps&#45;&gt;trans_wfov_pc_l2b_l3</title>
<path fill="none" stroke="black" d="M1386.75,-585C1386.75,-585 1419.85,-585 1419.85,-585"/>
<polygon fill="black" stroke="black" points="1419.85,-588.5 1429.85,-585 1419.85,-581.5 1419.85,-588.5"/>
</g>
<!-- l2b_wfov_pc_distm -->
<g id="node28" class="node">
<title>l2b_wfov_pc_distm</title>
<polygon fill="none" stroke="black" points="1343.64,-543 1155.64,-543 1155.64,-519 1343.64,-519 1355.64,-531 1343.64,-543"/>
<text text-anchor="middle" x="1255.64" y="-527.3" font-family="Times,serif" font-size="14.00">L2b_wfov_pc distortion map 1..1</text>
</g>
<!-- l2b_wfov_pc_distm&#45;&gt;trans_wfov_pc_l2b_l3 -->
<g id="edge28" class="edge">
<title>l2b_wfov_pc_distm&#45;&gt;trans_wfov_pc_l2b_l3</title>
<path fill="none" stroke="black" d="M1355.89,-531C1355.89,-531 1435.17,-531 1435.17,-531"/>
<polygon fill="black" stroke="black" points="1435.17,-534.5 1445.17,-531 1435.17,-527.5 1435.17,-534.5"/>
</g>
<!-- l3_wfov_pc_prod&#45;&gt;trans_wfov_pc_l3_l4 -->
<g id="edge32" class="edge">
<title>l3_wfov_pc_prod&#45;&gt;trans_wfov_pc_l3_l4</title>
<path fill="none" stroke="black" stroke-dasharray="5,2" d="M1887.28,-666C1887.28,-666 1981.3,-666 1981.3,-666"/>
<polygon fill="black" stroke="black" points="1981.3,-669.5 1991.3,-666 1981.3,-662.5 1981.3,-669.5"/>
</g>
<!-- l3_wfov_pc_odir -->
<g id="node31" class="node">
<title>l3_wfov_pc_odir</title>
<ellipse fill="none" stroke="black" cx="1806.44" cy="-828" rx="114.28" ry="18"/>
<text text-anchor="middle" x="1806.44" y="-824.3" font-family="Times,serif" font-size="14.00">L3_wfov_pc output path 1..1</text>
</g>
<!-- l3_wfov_pc_odir&#45;&gt;trans_wfov_pc_l3_l4 -->
<g id="edge34" class="edge">
<title>l3_wfov_pc_odir&#45;&gt;trans_wfov_pc_l3_l4</title>
<path fill="none" stroke="black" d="M1895.12,-816.62C1895.12,-816.62 2032.94,-816.62 2032.94,-816.62"/>
<polygon fill="black" stroke="black" points="2032.94,-820.12 2042.94,-816.62 2032.94,-813.12 2032.94,-820.12"/>
</g>
<!-- l3_wfov_pc_man&#45;&gt;trans_wfov_pc_l3_l4 -->
<g id="edge33" class="edge">
<title>l3_wfov_pc_man&#45;&gt;trans_wfov_pc_l3_l4</title>
<path fill="none" stroke="black" d="M1910.48,-623.38C1910.48,-623.38 2032.87,-623.38 2032.87,-623.38"/>
<polygon fill="black" stroke="black" points="2032.87,-626.88 2042.87,-623.38 2032.87,-619.88 2032.87,-626.88"/>
</g>
<!-- l3_wfov_pc_rec -->
<g id="node33" class="node">
<title>l3_wfov_pc_rec</title>
<polygon fill="none" stroke="black" points="1867.94,-786 1732.94,-786 1732.94,-762 1867.94,-762 1879.94,-774 1867.94,-786"/>
<text text-anchor="middle" x="1806.44" y="-770.3" font-family="Times,serif" font-size="14.00">L3_wfov_pc recipe 1..1</text>
</g>
<!-- l3_wfov_pc_rec&#45;&gt;trans_wfov_pc_l3_l4 -->
<g id="edge35" class="edge">
<title>l3_wfov_pc_rec&#45;&gt;trans_wfov_pc_l3_l4</title>
<path fill="none" stroke="black" d="M1879.99,-774C1879.99,-774 1981.3,-774 1981.3,-774"/>
<polygon fill="black" stroke="black" points="1981.3,-777.5 1991.3,-774 1981.3,-770.5 1981.3,-777.5"/>
</g>
<!-- l3_wfov_pc_cal -->
<g id="node34" class="node">
<title>l3_wfov_pc_cal</title>
<polygon fill="none" stroke="black" points="1880.44,-732 1720.44,-732 1720.44,-708 1880.44,-708 1892.44,-720 1880.44,-732"/>
<text text-anchor="middle" x="1806.44" y="-716.3" font-family="Times,serif" font-size="14.00">L3_wfov_pc calibration 1..1</text>
</g>
<!-- l3_wfov_pc_cal&#45;&gt;trans_wfov_pc_l3_l4 -->
<g id="edge36" class="edge">
<title>l3_wfov_pc_cal&#45;&gt;trans_wfov_pc_l3_l4</title>
<path fill="none" stroke="black" d="M1892.48,-720C1892.48,-720 1966.24,-720 1966.24,-720"/>
<polygon fill="black" stroke="black" points="1966.24,-723.5 1976.24,-720 1966.24,-716.5 1966.24,-723.5"/>
</g>
<!-- l4_wfov_pc_prod&#45;&gt;trans_wfov_pc_l4_tda -->
<g id="edge40" class="edge">
<title>l4_wfov_pc_prod&#45;&gt;trans_wfov_pc_l4_tda</title>
<path fill="none" stroke="black" stroke-dasharray="5,2" d="M2433.53,-814.59C2433.53,-814.59 2573.95,-814.59 2573.95,-814.59"/>
<polygon fill="black" stroke="black" points="2573.95,-818.09 2583.95,-814.59 2573.95,-811.09 2573.95,-818.09"/>
</g>
<!-- l4_wfov_pc_odir -->
<g id="node37" class="node">
<title>l4_wfov_pc_odir</title>
<ellipse fill="none" stroke="black" cx="2352.69" cy="-1071" rx="114.28" ry="18"/>
<text text-anchor="middle" x="2352.69" y="-1067.3" font-family="Times,serif" font-size="14.00">L4_wfov_pc output path 1..1</text>
</g>
<!-- l4_wfov_pc_odir&#45;&gt;trans_wfov_pc_l4_tda -->
<g id="edge42" class="edge">
<title>l4_wfov_pc_odir&#45;&gt;trans_wfov_pc_l4_tda</title>
<path fill="none" stroke="black" d="M2446.73,-1060.57C2446.73,-1042.62 2446.73,-1007.83 2446.73,-1007.83 2446.73,-1007.83 2585.84,-1007.83 2585.84,-1007.83"/>
<polygon fill="black" stroke="black" points="2585.84,-1011.33 2595.84,-1007.83 2585.84,-1004.33 2585.84,-1011.33"/>
</g>
<!-- l4_wfov_pc_man&#45;&gt;trans_wfov_pc_l4_tda -->
<g id="edge41" class="edge">
<title>l4_wfov_pc_man&#45;&gt;trans_wfov_pc_l4_tda</title>
<path fill="none" stroke="black" d="M2462.73,-703.4C2462.73,-732.08 2462.73,-810.17 2462.73,-810.17 2462.73,-810.17 2585.9,-810.17 2585.9,-810.17"/>
<polygon fill="black" stroke="black" points="2585.9,-813.68 2595.9,-810.17 2585.9,-806.68 2585.9,-813.68"/>
</g>
<!-- l4_wfov_pc_rec -->
<g id="node40" class="node">
<title>l4_wfov_pc_rec</title>
<polygon fill="none" stroke="black" points="2414.19,-1029 2279.19,-1029 2279.19,-1005 2414.19,-1005 2426.19,-1017 2414.19,-1029"/>
<text text-anchor="middle" x="2352.69" y="-1013.3" font-family="Times,serif" font-size="14.00">L4_wfov_pc recipe 1..1</text>
</g>
<!-- l4_wfov_pc_rec&#45;&gt;trans_wfov_pc_l4_tda -->
<g id="edge43" class="edge">
<title>l4_wfov_pc_rec&#45;&gt;trans_wfov_pc_l4_tda</title>
<path fill="none" stroke="black" d="M2426.24,-1003.41C2426.24,-1003.41 2574,-1003.41 2574,-1003.41"/>
<polygon fill="black" stroke="black" points="2574,-1006.91 2584,-1003.41 2574,-999.91 2574,-1006.91"/>
</g>
<!-- l4_wfov_pc_afcal -->
<g id="node41" class="node">
<title>l4_wfov_pc_afcal</title>
<polygon fill="none" stroke="black" points="2466.19,-975 2227.19,-975 2227.19,-951 2466.19,-951 2478.19,-963 2466.19,-975"/>
<text text-anchor="middle" x="2352.69" y="-959.3" font-family="Times,serif" font-size="14.00">L4_wfov_pc absolute flux calibrations 1..1</text>
</g>
<!-- l4_wfov_pc_afcal&#45;&gt;trans_wfov_pc_l4_tda -->
<g id="edge44" class="edge">
<title>l4_wfov_pc_afcal&#45;&gt;trans_wfov_pc_l4_tda</title>
<path fill="none" stroke="black" d="M2478.46,-963C2478.46,-963 2527.72,-963 2527.72,-963"/>
<polygon fill="black" stroke="black" points="2527.72,-966.5 2537.72,-963 2527.72,-959.5 2527.72,-966.5"/>
</g>
<!-- l4_wfov_pc_ctcal -->
<g id="node42" class="node">
<title>l4_wfov_pc_ctcal</title>
<polygon fill="none" stroke="black" points="2474.19,-921 2219.19,-921 2219.19,-897 2474.19,-897 2486.19,-909 2474.19,-921"/>
<text text-anchor="middle" x="2352.69" y="-905.3" font-family="Times,serif" font-size="14.00">L4_wfov_pc core throughput calibrations 1..1</text>
</g>
<!-- l4_wfov_pc_ctcal&#45;&gt;trans_wfov_pc_l4_tda -->
<g id="edge45" class="edge">
<title>l4_wfov_pc_ctcal&#45;&gt;trans_wfov_pc_l4_tda</title>
<path fill="none" stroke="black" d="M2486.45,-909C2486.45,-909 2512.25,-909 2512.25,-909"/>
<polygon fill="black" stroke="black" points="2512.25,-912.5 2522.25,-909 2512.25,-905.5 2512.25,-912.5"/>
</g>
<!-- l4_wfov_pc_ndfilt -->
<g id="node43" class="node">
<title>l4_wfov_pc_ndfilt</title>
<polygon fill="none" stroke="black" points="2422.69,-867 2270.69,-867 2270.69,-843 2422.69,-843 2434.69,-855 2422.69,-867"/>
<text text-anchor="middle" x="2352.69" y="-851.3" font-family="Times,serif" font-size="14.00">L4_wfov_pc ND filter 1..1</text>
</g>
<!-- l4_wfov_pc_ndfilt&#45;&gt;trans_wfov_pc_l4_tda -->
<g id="edge46" class="edge">
<title>l4_wfov_pc_ndfilt&#45;&gt;trans_wfov_pc_l4_tda</title>
<path fill="none" stroke="black" d="M2435.01,-855C2435.01,-855 2527.49,-855 2527.49,-855"/>
<polygon fill="black" stroke="black" points="2527.49,-858.5 2537.49,-855 2527.49,-851.5 2527.49,-858.5"/>
</g>
<!-- tda_wfov_pc_man -->
<g id="node44" class="node">
<title>tda_wfov_pc_man</title>
<ellipse fill="none" stroke="black" cx="142.34" cy="-288" rx="142.17" ry="18"/>
<text text-anchor="middle" x="142.34" y="-284.3" font-family="Times,serif" font-size="14.00">TDA_wfov_pc product manifest 1..1</text>
</g>
</g>
</svg>
