<?xml version="1.0" encoding="UTF-8" standalone="no"?>
<!DOCTYPE svg PUBLIC "-//W3C//DTD SVG 1.1//EN"
 "http://www.w3.org/Graphics/SVG/1.1/DTD/svg11.dtd">
<!-- Generated by graphviz version 2.43.0 (0)
 -->
<!-- Title: AbstractDesign Pages: 1 -->
<svg width="3634pt" height="1000pt"
 viewBox="0.00 0.00 3634.39 1000.00" xmlns="http://www.w3.org/2000/svg" xmlns:xlink="http://www.w3.org/1999/xlink">
<g id="graph0" class="graph" transform="scale(1 1) rotate(0) translate(4 996)">
<title>AbstractDesign</title>
<polygon fill="white" stroke="transparent" points="-4,4 -4,-996 3630.39,-996 3630.39,4 -4,4"/>
<!-- trans_wfov_a_l1_l2a -->
<g id="node1" class="node">
<title>trans_wfov_a_l1_l2a</title>
<ellipse fill="none" stroke="black" cx="354.68" cy="-126" rx="98.99" ry="98.99"/>
<text text-anchor="middle" x="354.68" y="-129.8" font-family="Times,serif" font-size="14.00">wfov_a Transmutation</text>
<text text-anchor="middle" x="354.68" y="-114.8" font-family="Times,serif" font-size="14.00">L1 to L2a</text>
</g>
<!-- l2a_wfov_a_prod -->
<g id="node13" class="node">
<title>l2a_wfov_a_prod</title>
<polygon fill="none" stroke="black" points="901.22,-247 741.22,-247 741.22,-211 901.22,-211 901.22,-247"/>
<text text-anchor="middle" x="821.22" y="-225.3" font-family="Times,serif" font-size="14.00">L2a_wfov_a products 1..b</text>
</g>
<!-- trans_wfov_a_l1_l2a&#45;&gt;l2a_wfov_a_prod -->
<g id="edge6" class="edge">
<title>trans_wfov_a_l1_l2a&#45;&gt;l2a_wfov_a_prod</title>
<path fill="none" stroke="black" d="M391.28,-218C391.28,-218 731.03,-218 731.03,-218"/>
<polygon fill="black" stroke="black" points="731.03,-221.5 741.03,-218 731.03,-214.5 731.03,-221.5"/>
</g>
<!-- l2a_wfov_a_man -->
<g id="node14" class="node">
<title>l2a_wfov_a_man</title>
<ellipse fill="none" stroke="black" cx="594.31" cy="-126" rx="104.78" ry="18"/>
<text text-anchor="middle" x="594.31" y="-122.3" font-family="Times,serif" font-size="14.00">L2a_wfov_a manifest 1..1</text>
</g>
<!-- trans_wfov_a_l1_l2a&#45;&gt;l2a_wfov_a_man -->
<g id="edge7" class="edge">
<title>trans_wfov_a_l1_l2a&#45;&gt;l2a_wfov_a_man</title>
<path fill="none" stroke="black" d="M453.87,-126C453.87,-126 479.37,-126 479.37,-126"/>
<polygon fill="black" stroke="black" points="479.37,-129.5 489.37,-126 479.37,-122.5 479.37,-129.5"/>
</g>
<!-- l2a_wfov_a_log -->
<g id="node22" class="node">
<title>l2a_wfov_a_log</title>
<ellipse fill="none" stroke="black" cx="594.31" cy="-72" rx="85.29" ry="18"/>
<text text-anchor="middle" x="594.31" y="-68.3" font-family="Times,serif" font-size="14.00">L2a log_wfov_a 1..1</text>
</g>
<!-- trans_wfov_a_l1_l2a&#45;&gt;l2a_wfov_a_log -->
<g id="edge8" class="edge">
<title>trans_wfov_a_l1_l2a&#45;&gt;l2a_wfov_a_log</title>
<path fill="none" stroke="black" d="M437.82,-72C437.82,-72 498.88,-72 498.88,-72"/>
<polygon fill="black" stroke="black" points="498.88,-75.5 508.88,-72 498.88,-68.5 498.88,-75.5"/>
</g>
<!-- l2a_wfov_a_demux -->
<g id="node2" class="node">
<title>l2a_wfov_a_demux</title>
<ellipse fill="none" stroke="black" cx="821.22" cy="-107" rx="86.03" ry="86.03"/>
<text text-anchor="middle" x="821.22" y="-110.8" font-family="Times,serif" font-size="14.00">wfov_a l2a Demux</text>
<text text-anchor="middle" x="821.22" y="-95.8" font-family="Times,serif" font-size="14.00">Exposure</text>
</g>
<!-- l2a_wfov_a_man_demux -->
<g id="node23" class="node">
<title>l2a_wfov_a_man_demux</title>
<ellipse fill="none" stroke="black" cx="1071.99" cy="-145" rx="115.88" ry="18"/>
<text text-anchor="middle" x="1071.99" y="-141.3" font-family="Times,serif" font-size="14.00">L2a_wfov_a(E) manifest 1..1</text>
</g>
<!-- l2a_wfov_a_demux&#45;&gt;l2a_wfov_a_man_demux -->
<g id="edge21" class="edge">
<title>l2a_wfov_a_demux&#45;&gt;l2a_wfov_a_man_demux</title>
<path fill="none" stroke="black" d="M898.85,-145C898.85,-145 946.05,-145 946.05,-145"/>
<polygon fill="black" stroke="black" points="946.05,-148.5 956.05,-145 946.05,-141.5 946.05,-148.5"/>
</g>
<!-- trans_wfov_a_l2a_l2b -->
<g id="node3" class="node">
<title>trans_wfov_a_l2a_l2b</title>
<ellipse fill="none" stroke="black" cx="1335.48" cy="-364" rx="98.99" ry="98.99"/>
<text text-anchor="middle" x="1335.48" y="-367.8" font-family="Times,serif" font-size="14.00">wfov_a Transmutation</text>
<text text-anchor="middle" x="1335.48" y="-352.8" font-family="Times,serif" font-size="14.00">L2a to L2b</text>
</g>
<!-- l2b_wfov_a_prod -->
<g id="node24" class="node">
<title>l2b_wfov_a_prod</title>
<polygon fill="none" stroke="black" points="1900.16,-477 1739.16,-477 1739.16,-441 1900.16,-441 1900.16,-477"/>
<text text-anchor="middle" x="1819.66" y="-455.3" font-family="Times,serif" font-size="14.00">L2b_wfov_a products 1..1</text>
</g>
<!-- trans_wfov_a_l2a_l2b&#45;&gt;l2b_wfov_a_prod -->
<g id="edge17" class="edge">
<title>trans_wfov_a_l2a_l2b&#45;&gt;l2b_wfov_a_prod</title>
<path fill="none" stroke="black" d="M1381.03,-452C1381.03,-452 1729.13,-452 1729.13,-452"/>
<polygon fill="black" stroke="black" points="1729.13,-455.5 1739.13,-452 1729.13,-448.5 1729.13,-455.5"/>
</g>
<!-- l2b_wfov_a_man_demux -->
<g id="node31" class="node">
<title>l2b_wfov_a_man_demux</title>
<ellipse fill="none" stroke="black" cx="1586.82" cy="-364" rx="116.18" ry="18"/>
<text text-anchor="middle" x="1586.82" y="-360.3" font-family="Times,serif" font-size="14.00">L2b_wfov_a(E) manifest 1..1</text>
</g>
<!-- trans_wfov_a_l2a_l2b&#45;&gt;l2b_wfov_a_man_demux -->
<g id="edge18" class="edge">
<title>trans_wfov_a_l2a_l2b&#45;&gt;l2b_wfov_a_man_demux</title>
<path fill="none" stroke="black" d="M1434.81,-364C1434.81,-364 1460.33,-364 1460.33,-364"/>
<polygon fill="black" stroke="black" points="1460.33,-367.5 1470.33,-364 1460.33,-360.5 1460.33,-367.5"/>
</g>
<!-- l2b_wfov_a_log -->
<g id="node32" class="node">
<title>l2b_wfov_a_log</title>
<ellipse fill="none" stroke="black" cx="1586.82" cy="-310" rx="85.29" ry="18"/>
<text text-anchor="middle" x="1586.82" y="-306.3" font-family="Times,serif" font-size="14.00">L2b_wfov_a log 1..1</text>
</g>
<!-- trans_wfov_a_l2a_l2b&#45;&gt;l2b_wfov_a_log -->
<g id="edge19" class="edge">
<title>trans_wfov_a_l2a_l2b&#45;&gt;l2b_wfov_a_log</title>
<path fill="none" stroke="black" d="M1418.47,-310C1418.47,-310 1491.33,-310 1491.33,-310"/>
<polygon fill="black" stroke="black" points="1491.33,-313.5 1501.33,-310 1491.33,-306.5 1491.33,-313.5"/>
</g>
<!-- l2b_wfov_a_mux -->
<g id="node4" class="node">
<title>l2b_wfov_a_mux</title>
<ellipse fill="none" stroke="black" cx="1819.66" cy="-347" rx="76.24" ry="76.24"/>
<text text-anchor="middle" x="1819.66" y="-350.8" font-family="Times,serif" font-size="14.00">wfov_a l2b Mux</text>
<text text-anchor="middle" x="1819.66" y="-335.8" font-family="Times,serif" font-size="14.00">Exposure</text>
</g>
<!-- l2b_wfov_a_man -->
<g id="node25" class="node">
<title>l2b_wfov_a_man</title>
<ellipse fill="none" stroke="black" cx="2063.66" cy="-380" rx="104.78" ry="18"/>
<text text-anchor="middle" x="2063.66" y="-376.3" font-family="Times,serif" font-size="14.00">L2b_wfov_a manifest 1..1</text>
</g>
<!-- l2b_wfov_a_mux&#45;&gt;l2b_wfov_a_man -->
<g id="edge24" class="edge">
<title>l2b_wfov_a_mux&#45;&gt;l2b_wfov_a_man</title>
<path fill="none" stroke="black" d="M1888.6,-380C1888.6,-380 1948.87,-380 1948.87,-380"/>
<polygon fill="black" stroke="black" points="1948.87,-383.5 1958.87,-380 1948.87,-376.5 1948.87,-383.5"/>
</g>
<!-- trans_wfov_a_l2b_l3 -->
<g id="node5" class="node">
<title>trans_wfov_a_l2b_l3</title>
<ellipse fill="none" stroke="black" cx="2326.15" cy="-542" rx="98.99" ry="98.99"/>
<text text-anchor="middle" x="2326.15" y="-545.8" font-family="Times,serif" font-size="14.00">wfov_a Transmutation</text>
<text text-anchor="middle" x="2326.15" y="-530.8" font-family="Times,serif" font-size="14.00">L2b to L3</text>
</g>
<!-- l3_wfov_a_prod -->
<g id="node33" class="node">
<title>l3_wfov_a_prod</title>
<polygon fill="none" stroke="black" points="2647.99,-614 2493.99,-614 2493.99,-578 2647.99,-578 2647.99,-614"/>
<text text-anchor="middle" x="2570.99" y="-592.3" font-family="Times,serif" font-size="14.00">L3_wfov_a products 1..1</text>
</g>
<!-- trans_wfov_a_l2b_l3&#45;&gt;l3_wfov_a_prod -->
<g id="edge32" class="edge">
<title>trans_wfov_a_l2b_l3&#45;&gt;l3_wfov_a_prod</title>
<path fill="none" stroke="black" d="M2409.38,-596C2409.38,-596 2483.76,-596 2483.76,-596"/>
<polygon fill="black" stroke="black" points="2483.76,-599.5 2493.76,-596 2483.76,-592.5 2483.76,-599.5"/>
</g>
<!-- l3_wfov_a_man -->
<g id="node35" class="node">
<title>l3_wfov_a_man</title>
<ellipse fill="none" stroke="black" cx="2570.99" cy="-542" rx="100.98" ry="18"/>
<text text-anchor="middle" x="2570.99" y="-538.3" font-family="Times,serif" font-size="14.00">L3_wfov_a manifest 1..1</text>
</g>
<!-- trans_wfov_a_l2b_l3&#45;&gt;l3_wfov_a_man -->
<g id="edge33" class="edge">
<title>trans_wfov_a_l2b_l3&#45;&gt;l3_wfov_a_man</title>
<path fill="none" stroke="black" d="M2425.38,-542C2425.38,-542 2460.02,-542 2460.02,-542"/>
<polygon fill="black" stroke="black" points="2460.02,-545.5 2470.02,-542 2460.02,-538.5 2460.02,-545.5"/>
</g>
<!-- l3_wfov_a_log -->
<g id="node38" class="node">
<title>l3_wfov_a_log</title>
<ellipse fill="none" stroke="black" cx="2570.99" cy="-488" rx="81.49" ry="18"/>
<text text-anchor="middle" x="2570.99" y="-484.3" font-family="Times,serif" font-size="14.00">L3_wfov_a log 1..1</text>
</g>
<!-- trans_wfov_a_l2b_l3&#45;&gt;l3_wfov_a_log -->
<g id="edge34" class="edge">
<title>trans_wfov_a_l2b_l3&#45;&gt;l3_wfov_a_log</title>
<path fill="none" stroke="black" d="M2409.38,-488C2409.38,-488 2479.64,-488 2479.64,-488"/>
<polygon fill="black" stroke="black" points="2479.64,-491.5 2489.64,-488 2479.64,-484.5 2479.64,-491.5"/>
</g>
<!-- trans_wfov_a_l3_l4 -->
<g id="node6" class="node">
<title>trans_wfov_a_l3_l4</title>
<ellipse fill="none" stroke="black" cx="2815.82" cy="-650" rx="98.99" ry="98.99"/>
<text text-anchor="middle" x="2815.82" y="-653.8" font-family="Times,serif" font-size="14.00">wfov_a Transmutation</text>
<text text-anchor="middle" x="2815.82" y="-638.8" font-family="Times,serif" font-size="14.00">L3 to L4</text>
</g>
<!-- l4_wfov_a_prod -->
<g id="node39" class="node">
<title>l4_wfov_a_prod</title>
<polygon fill="none" stroke="black" points="3157.82,-722 3003.82,-722 3003.82,-686 3157.82,-686 3157.82,-722"/>
<text text-anchor="middle" x="3080.82" y="-700.3" font-family="Times,serif" font-size="14.00">L4_wfov_a products 1..1</text>
</g>
<!-- trans_wfov_a_l3_l4&#45;&gt;l4_wfov_a_prod -->
<g id="edge40" class="edge">
<title>trans_wfov_a_l3_l4&#45;&gt;l4_wfov_a_prod</title>
<path fill="none" stroke="black" d="M2898.94,-704C2898.94,-704 2993.41,-704 2993.41,-704"/>
<polygon fill="black" stroke="black" points="2993.41,-707.5 3003.41,-704 2993.41,-700.5 2993.41,-707.5"/>
</g>
<!-- l4_wfov_a_log -->
<g id="node41" class="node">
<title>l4_wfov_a_log</title>
<ellipse fill="none" stroke="black" cx="3080.82" cy="-650" rx="81.49" ry="18"/>
<text text-anchor="middle" x="3080.82" y="-646.3" font-family="Times,serif" font-size="14.00">L4_wfov_a log 1..1</text>
</g>
<!-- trans_wfov_a_l3_l4&#45;&gt;l4_wfov_a_log -->
<g id="edge41" class="edge">
<title>trans_wfov_a_l3_l4&#45;&gt;l4_wfov_a_log</title>
<path fill="none" stroke="black" d="M2914.87,-650C2914.87,-650 2989.19,-650 2989.19,-650"/>
<polygon fill="black" stroke="black" points="2989.19,-653.5 2999.19,-650 2989.19,-646.5 2989.19,-653.5"/>
</g>
<!-- l4_wfov_a_man -->
<g id="node42" class="node">
<title>l4_wfov_a_man</title>
<ellipse fill="none" stroke="black" cx="3080.82" cy="-596" rx="100.98" ry="18"/>
<text text-anchor="middle" x="3080.82" y="-592.3" font-family="Times,serif" font-size="14.00">L4_wfov_a manifest 1..1</text>
</g>
<!-- trans_wfov_a_l3_l4&#45;&gt;l4_wfov_a_man -->
<g id="edge42" class="edge">
<title>trans_wfov_a_l3_l4&#45;&gt;l4_wfov_a_man</title>
<path fill="none" stroke="black" d="M2898.94,-596C2898.94,-596 2969.84,-596 2969.84,-596"/>
<polygon fill="black" stroke="black" points="2969.84,-599.5 2979.84,-596 2969.84,-592.5 2969.84,-599.5"/>
</g>
<!-- trans_wfov_a_l4_tda -->
<g id="node7" class="node">
<title>trans_wfov_a_l4_tda</title>
<ellipse fill="none" stroke="black" cx="3345.81" cy="-812" rx="98.99" ry="98.99"/>
<text text-anchor="middle" x="3345.81" y="-815.8" font-family="Times,serif" font-size="14.00">wfov_a Transmutation</text>
<text text-anchor="middle" x="3345.81" y="-800.8" font-family="Times,serif" font-size="14.00">L4 to TDA</text>
</g>
<!-- tda_wfov_a_prod -->
<g id="node47" class="node">
<title>tda_wfov_a_prod</title>
<ellipse fill="none" stroke="black" cx="3553.6" cy="-839" rx="72.59" ry="18"/>
<text text-anchor="middle" x="3553.6" y="-835.3" font-family="Times,serif" font-size="14.00">tda_wfov_a_prod</text>
</g>
<!-- trans_wfov_a_l4_tda&#45;&gt;tda_wfov_a_prod -->
<g id="edge50" class="edge">
<title>trans_wfov_a_l4_tda&#45;&gt;tda_wfov_a_prod</title>
<path fill="none" stroke="black" d="M3441.19,-839C3441.19,-839 3470.57,-839 3470.57,-839"/>
<polygon fill="black" stroke="black" points="3470.57,-842.5 3480.57,-839 3470.57,-835.5 3470.57,-842.5"/>
</g>
<!-- tda_wfov_a_log -->
<g id="node48" class="node">
<title>tda_wfov_a_log</title>
<ellipse fill="none" stroke="black" cx="3553.6" cy="-785" rx="67.69" ry="18"/>
<text text-anchor="middle" x="3553.6" y="-781.3" font-family="Times,serif" font-size="14.00">tda_wfov_a_log</text>
</g>
<!-- trans_wfov_a_l4_tda&#45;&gt;tda_wfov_a_log -->
<g id="edge51" class="edge">
<title>trans_wfov_a_l4_tda&#45;&gt;tda_wfov_a_log</title>
<path fill="none" stroke="black" d="M3441.19,-785C3441.19,-785 3475.77,-785 3475.77,-785"/>
<polygon fill="black" stroke="black" points="3475.77,-788.5 3485.77,-785 3475.77,-781.5 3475.77,-788.5"/>
</g>
<!-- l1_wfov_a_prod -->
<g id="node8" class="node">
<title>l1_wfov_a_prod</title>
<polygon fill="none" stroke="black" points="186.84,-252 32.84,-252 32.84,-216 186.84,-216 186.84,-252"/>
<text text-anchor="middle" x="109.84" y="-230.3" font-family="Times,serif" font-size="14.00">L1_wfov_a products 1..b</text>
</g>
<!-- l1_wfov_a_prod&#45;&gt;trans_wfov_a_l1_l2a -->
<g id="edge1" class="edge">
<title>l1_wfov_a_prod&#45;&gt;trans_wfov_a_l1_l2a</title>
<path fill="none" stroke="black" d="M186.97,-220.5C186.97,-220.5 314.94,-220.5 314.94,-220.5"/>
<polygon fill="black" stroke="black" points="314.94,-224 324.94,-220.5 314.94,-217 314.94,-224"/>
</g>
<!-- l1_wfov_a_man -->
<g id="node9" class="node">
<title>l1_wfov_a_man</title>
<ellipse fill="none" stroke="black" cx="109.84" cy="-180" rx="100.98" ry="18"/>
<text text-anchor="middle" x="109.84" y="-176.3" font-family="Times,serif" font-size="14.00">L1_wfov_a manifest 1..1</text>
</g>
<!-- l1_wfov_a_man&#45;&gt;trans_wfov_a_l1_l2a -->
<g id="edge2" class="edge">
<title>l1_wfov_a_man&#45;&gt;trans_wfov_a_l1_l2a</title>
<path fill="none" stroke="black" d="M210.84,-180C210.84,-180 261.42,-180 261.42,-180"/>
<polygon fill="black" stroke="black" points="261.42,-183.5 271.42,-180 261.42,-176.5 261.42,-183.5"/>
</g>
<!-- l1_wfov_a_odir -->
<g id="node10" class="node">
<title>l1_wfov_a_odir</title>
<ellipse fill="none" stroke="black" cx="109.84" cy="-126" rx="109.68" ry="18"/>
<text text-anchor="middle" x="109.84" y="-122.3" font-family="Times,serif" font-size="14.00">L1_wfov_a output path 1..1</text>
</g>
<!-- l1_wfov_a_odir&#45;&gt;trans_wfov_a_l1_l2a -->
<g id="edge3" class="edge">
<title>l1_wfov_a_odir&#45;&gt;trans_wfov_a_l1_l2a</title>
<path fill="none" stroke="black" d="M219.72,-126C219.72,-126 245.59,-126 245.59,-126"/>
<polygon fill="black" stroke="black" points="245.59,-129.5 255.59,-126 245.59,-122.5 245.59,-129.5"/>
</g>
<!-- l1_wfov_a_rec -->
<g id="node11" class="node">
<title>l1_wfov_a_rec</title>
<polygon fill="none" stroke="black" points="167.84,-84 39.84,-84 39.84,-60 167.84,-60 179.84,-72 167.84,-84"/>
<text text-anchor="middle" x="109.84" y="-68.3" font-family="Times,serif" font-size="14.00">L1_wfov_a recipe 1..1</text>
</g>
<!-- l1_wfov_a_rec&#45;&gt;trans_wfov_a_l1_l2a -->
<g id="edge4" class="edge">
<title>l1_wfov_a_rec&#45;&gt;trans_wfov_a_l1_l2a</title>
<path fill="none" stroke="black" d="M180,-72C180,-72 261.51,-72 261.51,-72"/>
<polygon fill="black" stroke="black" points="261.51,-75.5 271.51,-72 261.51,-68.5 261.51,-75.5"/>
</g>
<!-- l1_wfov_a_nln -->
<g id="node12" class="node">
<title>l1_wfov_a_nln</title>
<polygon fill="none" stroke="black" points="205.34,-30 2.34,-30 2.34,-6 205.34,-6 217.34,-18 205.34,-30"/>
<text text-anchor="middle" x="109.84" y="-14.3" font-family="Times,serif" font-size="14.00">L1_wfov_a non&#45;linear &amp; Kgain 1..1</text>
</g>
<!-- l1_wfov_a_nln&#45;&gt;trans_wfov_a_l1_l2a -->
<g id="edge5" class="edge">
<title>l1_wfov_a_nln&#45;&gt;trans_wfov_a_l1_l2a</title>
<path fill="none" stroke="black" d="M217.58,-31.5C217.58,-31.5 315.02,-31.5 315.02,-31.5"/>
<polygon fill="black" stroke="black" points="315.02,-35 325.02,-31.5 315.02,-28 315.02,-35"/>
</g>
<!-- l2a_wfov_a_prod&#45;&gt;trans_wfov_a_l2a_l2b -->
<g id="edge9" class="edge">
<title>l2a_wfov_a_prod&#45;&gt;trans_wfov_a_l2a_l2b</title>
<path fill="none" stroke="black" d="M821.39,-247.28C821.39,-262.95 821.39,-283 821.39,-283 821.39,-283 1268.5,-283 1268.5,-283"/>
<polygon fill="black" stroke="black" points="1268.5,-286.5 1278.5,-283 1268.5,-279.5 1268.5,-286.5"/>
</g>
<!-- l2a_wfov_a_man&#45;&gt;l2a_wfov_a_demux -->
<g id="edge20" class="edge">
<title>l2a_wfov_a_man&#45;&gt;l2a_wfov_a_demux</title>
<path fill="none" stroke="black" d="M699.13,-126C699.13,-126 726.9,-126 726.9,-126"/>
<polygon fill="black" stroke="black" points="726.9,-129.5 736.9,-126 726.9,-122.5 726.9,-129.5"/>
</g>
<!-- l2a_wfov_a_odir -->
<g id="node15" class="node">
<title>l2a_wfov_a_odir</title>
<ellipse fill="none" stroke="black" cx="1071.99" cy="-580" rx="113.98" ry="18"/>
<text text-anchor="middle" x="1071.99" y="-576.3" font-family="Times,serif" font-size="14.00">L2a_wfov_a output path 1..1</text>
</g>
<!-- l2a_wfov_a_odir&#45;&gt;trans_wfov_a_l2a_l2b -->
<g id="edge10" class="edge">
<title>l2a_wfov_a_odir&#45;&gt;trans_wfov_a_l2a_l2b</title>
<path fill="none" stroke="black" d="M1166.9,-570C1253.94,-570 1369.39,-570 1369.39,-570 1369.39,-570 1369.39,-467.06 1369.39,-467.06"/>
<polygon fill="black" stroke="black" points="1372.89,-467.06 1369.39,-457.06 1365.89,-467.06 1372.89,-467.06"/>
</g>
<!-- l2a_wfov_a_rec -->
<g id="node16" class="node">
<title>l2a_wfov_a_rec</title>
<polygon fill="none" stroke="black" points="1132.99,-538 998.99,-538 998.99,-514 1132.99,-514 1144.99,-526 1132.99,-538"/>
<text text-anchor="middle" x="1071.99" y="-522.3" font-family="Times,serif" font-size="14.00">L2a_wfov_a recipe 1..1</text>
</g>
<!-- l2a_wfov_a_rec&#45;&gt;trans_wfov_a_l2a_l2b -->
<g id="edge11" class="edge">
<title>l2a_wfov_a_rec&#45;&gt;trans_wfov_a_l2a_l2b</title>
<path fill="none" stroke="black" d="M1145.2,-516C1213,-516 1303.39,-516 1303.39,-516 1303.39,-516 1303.39,-467.67 1303.39,-467.67"/>
<polygon fill="black" stroke="black" points="1306.89,-467.67 1303.39,-457.67 1299.89,-467.67 1306.89,-467.67"/>
</g>
<!-- l2a_wfov_a_cti -->
<g id="node17" class="node">
<title>l2a_wfov_a_cti</title>
<polygon fill="none" stroke="black" points="1181.49,-484 950.49,-484 950.49,-460 1181.49,-460 1193.49,-472 1181.49,-484"/>
<text text-anchor="middle" x="1071.99" y="-468.3" font-family="Times,serif" font-size="14.00">L2a_wfov_a charge xfer inefficiency 1..1</text>
</g>
<!-- l2a_wfov_a_cti&#45;&gt;trans_wfov_a_l2a_l2b -->
<g id="edge12" class="edge">
<title>l2a_wfov_a_cti&#45;&gt;trans_wfov_a_l2a_l2b</title>
<path fill="none" stroke="black" d="M1193.71,-458.5C1193.71,-458.5 1295.94,-458.5 1295.94,-458.5"/>
<polygon fill="black" stroke="black" points="1295.94,-462 1305.94,-458.5 1295.94,-455 1295.94,-462"/>
</g>
<!-- l2a_wfov_a_dnb -->
<g id="node18" class="node">
<title>l2a_wfov_a_dnb</title>
<polygon fill="none" stroke="black" points="1188.49,-430 943.49,-430 943.49,-406 1188.49,-406 1200.49,-418 1188.49,-430"/>
<text text-anchor="middle" x="1071.99" y="-414.3" font-family="Times,serif" font-size="14.00">L2a_wfov_a detector noise background 1..1</text>
</g>
<!-- l2a_wfov_a_dnb&#45;&gt;trans_wfov_a_l2a_l2b -->
<g id="edge13" class="edge">
<title>l2a_wfov_a_dnb&#45;&gt;trans_wfov_a_l2a_l2b</title>
<path fill="none" stroke="black" d="M1200.65,-418C1200.65,-418 1242.51,-418 1242.51,-418"/>
<polygon fill="black" stroke="black" points="1242.51,-421.5 1252.51,-418 1242.51,-414.5 1242.51,-421.5"/>
</g>
<!-- l2a_wfov_a_mbpm -->
<g id="node19" class="node">
<title>l2a_wfov_a_mbpm</title>
<polygon fill="none" stroke="black" points="1175.99,-376 955.99,-376 955.99,-352 1175.99,-352 1187.99,-364 1175.99,-376"/>
<text text-anchor="middle" x="1071.99" y="-360.3" font-family="Times,serif" font-size="14.00">L2a_wfov_a master bad pixel map 1..1</text>
</g>
<!-- l2a_wfov_a_mbpm&#45;&gt;trans_wfov_a_l2a_l2b -->
<g id="edge14" class="edge">
<title>l2a_wfov_a_mbpm&#45;&gt;trans_wfov_a_l2a_l2b</title>
<path fill="none" stroke="black" d="M1188.33,-364C1188.33,-364 1226.26,-364 1226.26,-364"/>
<polygon fill="black" stroke="black" points="1226.26,-367.5 1236.26,-364 1226.26,-360.5 1226.26,-367.5"/>
</g>
<!-- l2a_wfov_a_ff -->
<g id="node20" class="node">
<title>l2a_wfov_a_ff</title>
<polygon fill="none" stroke="black" points="1142.49,-322 989.49,-322 989.49,-298 1142.49,-298 1154.49,-310 1142.49,-322"/>
<text text-anchor="middle" x="1071.99" y="-306.3" font-family="Times,serif" font-size="14.00">L2a_wfov_a flat fields 1..1</text>
</g>
<!-- l2a_wfov_a_ff&#45;&gt;trans_wfov_a_l2a_l2b -->
<g id="edge15" class="edge">
<title>l2a_wfov_a_ff&#45;&gt;trans_wfov_a_l2a_l2b</title>
<path fill="none" stroke="black" d="M1154.63,-310C1154.63,-310 1242.22,-310 1242.22,-310"/>
<polygon fill="black" stroke="black" points="1242.22,-313.5 1252.22,-310 1242.22,-306.5 1242.22,-313.5"/>
</g>
<!-- l2a_wfov_a_emg -->
<g id="node21" class="node">
<title>l2a_wfov_a_emg</title>
<polygon fill="none" stroke="black" points="1140.49,-268 991.49,-268 991.49,-244 1140.49,-244 1152.49,-256 1140.49,-268"/>
<text text-anchor="middle" x="1071.99" y="-252.3" font-family="Times,serif" font-size="14.00">L2a_wfov_a EM gain 1..1</text>
</g>
<!-- l2a_wfov_a_emg&#45;&gt;trans_wfov_a_l2a_l2b -->
<g id="edge16" class="edge">
<title>l2a_wfov_a_emg&#45;&gt;trans_wfov_a_l2a_l2b</title>
<path fill="none" stroke="black" d="M1152.83,-271C1152.83,-271 1291.24,-271 1291.24,-271"/>
<polygon fill="black" stroke="black" points="1291.24,-274.5 1301.24,-271 1291.24,-267.5 1291.24,-274.5"/>
</g>
<!-- l2a_wfov_a_man_demux&#45;&gt;trans_wfov_a_l2a_l2b -->
<g id="edge22" class="edge">
<title>l2a_wfov_a_man_demux&#45;&gt;trans_wfov_a_l2a_l2b</title>
<path fill="none" stroke="black" d="M1171.39,-154.25C1171.39,-182.85 1171.39,-268 1171.39,-268 1171.39,-268 1301.27,-268 1301.27,-268"/>
<polygon fill="black" stroke="black" points="1301.27,-271.5 1311.27,-268 1301.27,-264.5 1301.27,-271.5"/>
</g>
<!-- l2b_wfov_a_prod&#45;&gt;trans_wfov_a_l2b_l3 -->
<g id="edge25" class="edge">
<title>l2b_wfov_a_prod&#45;&gt;trans_wfov_a_l2b_l3</title>
<path fill="none" stroke="black" d="M1900.19,-461C1900.19,-461 2259.13,-461 2259.13,-461"/>
<polygon fill="black" stroke="black" points="2259.13,-464.5 2269.13,-461 2259.13,-457.5 2259.13,-464.5"/>
</g>
<!-- l2b_wfov_a_man&#45;&gt;trans_wfov_a_l2b_l3 -->
<g id="edge26" class="edge">
<title>l2b_wfov_a_man&#45;&gt;trans_wfov_a_l2b_l3</title>
<path fill="none" stroke="black" d="M2165.39,-384.29C2165.39,-399.79 2165.39,-452 2165.39,-452 2165.39,-452 2274.75,-452 2274.75,-452"/>
<polygon fill="black" stroke="black" points="2274.75,-455.5 2284.75,-452 2274.75,-448.5 2274.75,-455.5"/>
</g>
<!-- l2b_wfov_a_odir -->
<g id="node26" class="node">
<title>l2b_wfov_a_odir</title>
<ellipse fill="none" stroke="black" cx="2063.66" cy="-704" rx="114.28" ry="18"/>
<text text-anchor="middle" x="2063.66" y="-700.3" font-family="Times,serif" font-size="14.00">L2b_wfov_a output path 1..1</text>
</g>
<!-- l2b_wfov_a_odir&#45;&gt;trans_wfov_a_l2b_l3 -->
<g id="edge27" class="edge">
<title>l2b_wfov_a_odir&#45;&gt;trans_wfov_a_l2b_l3</title>
<path fill="none" stroke="black" d="M2158.39,-693.69C2158.39,-675.12 2158.39,-638 2158.39,-638 2158.39,-638 2291.76,-638 2291.76,-638"/>
<polygon fill="black" stroke="black" points="2291.76,-641.5 2301.76,-638 2291.76,-634.5 2291.76,-641.5"/>
</g>
<!-- l2b_wfov_a_rec -->
<g id="node27" class="node">
<title>l2b_wfov_a_rec</title>
<polygon fill="none" stroke="black" points="2125.16,-662 1990.16,-662 1990.16,-638 2125.16,-638 2137.16,-650 2125.16,-662"/>
<text text-anchor="middle" x="2063.66" y="-646.3" font-family="Times,serif" font-size="14.00">L2b_wfov_a recipe 1..1</text>
</g>
<!-- l2b_wfov_a_rec&#45;&gt;trans_wfov_a_l2b_l3 -->
<g id="edge28" class="edge">
<title>l2b_wfov_a_rec&#45;&gt;trans_wfov_a_l2b_l3</title>
<path fill="none" stroke="black" d="M2137.47,-635C2137.47,-635 2281.96,-635 2281.96,-635"/>
<polygon fill="black" stroke="black" points="2281.96,-638.5 2291.96,-635 2281.96,-631.5 2281.96,-638.5"/>
</g>
<!-- l2b_wfov_a_excicrf -->
<g id="node28" class="node">
<title>l2b_wfov_a_excicrf</title>
<polygon fill="none" stroke="black" points="2174.16,-608 1941.16,-608 1941.16,-584 2174.16,-584 2186.16,-596 2174.16,-608"/>
<text text-anchor="middle" x="2063.66" y="-592.3" font-family="Times,serif" font-size="14.00">L2b_wfov_a EXCAM ICRF location 1..1</text>
</g>
<!-- l2b_wfov_a_excicrf&#45;&gt;trans_wfov_a_l2b_l3 -->
<g id="edge29" class="edge">
<title>l2b_wfov_a_excicrf&#45;&gt;trans_wfov_a_l2b_l3</title>
<path fill="none" stroke="black" d="M2186.45,-596C2186.45,-596 2233.16,-596 2233.16,-596"/>
<polygon fill="black" stroke="black" points="2233.16,-599.5 2243.16,-596 2233.16,-592.5 2233.16,-599.5"/>
</g>
<!-- l2b_wfov_a_excfovps -->
<g id="node29" class="node">
<title>l2b_wfov_a_excfovps</title>
<polygon fill="none" stroke="black" points="2179.16,-554 1936.16,-554 1936.16,-530 2179.16,-530 2191.16,-542 2179.16,-554"/>
<text text-anchor="middle" x="2063.66" y="-538.3" font-family="Times,serif" font-size="14.00">L2b_wfov_a EXCAM FOV pixel scale 1..1</text>
</g>
<!-- l2b_wfov_a_excfovps&#45;&gt;trans_wfov_a_l2b_l3 -->
<g id="edge30" class="edge">
<title>l2b_wfov_a_excfovps&#45;&gt;trans_wfov_a_l2b_l3</title>
<path fill="none" stroke="black" d="M2191.44,-542C2191.44,-542 2217.14,-542 2217.14,-542"/>
<polygon fill="black" stroke="black" points="2217.14,-545.5 2227.14,-542 2217.14,-538.5 2217.14,-545.5"/>
</g>
<!-- l2b_wfov_a_distm -->
<g id="node30" class="node">
<title>l2b_wfov_a_distm</title>
<polygon fill="none" stroke="black" points="2148.66,-500 1966.66,-500 1966.66,-476 2148.66,-476 2160.66,-488 2148.66,-500"/>
<text text-anchor="middle" x="2063.66" y="-484.3" font-family="Times,serif" font-size="14.00">L2b_wfov_a distortion map 1..1</text>
</g>
<!-- l2b_wfov_a_distm&#45;&gt;trans_wfov_a_l2b_l3 -->
<g id="edge31" class="edge">
<title>l2b_wfov_a_distm&#45;&gt;trans_wfov_a_l2b_l3</title>
<path fill="none" stroke="black" d="M2161.03,-488C2161.03,-488 2233.15,-488 2233.15,-488"/>
<polygon fill="black" stroke="black" points="2233.15,-491.5 2243.15,-488 2233.15,-484.5 2233.15,-491.5"/>
</g>
<!-- l2b_wfov_a_man_demux&#45;&gt;l2b_wfov_a_mux -->
<g id="edge23" class="edge">
<title>l2b_wfov_a_man_demux&#45;&gt;l2b_wfov_a_mux</title>
<path fill="none" stroke="black" d="M1703.24,-364C1703.24,-364 1735.02,-364 1735.02,-364"/>
<polygon fill="black" stroke="black" points="1735.02,-367.5 1745.02,-364 1735.02,-360.5 1735.02,-367.5"/>
</g>
<!-- l3_wfov_a_prod&#45;&gt;trans_wfov_a_l3_l4 -->
<g id="edge35" class="edge">
<title>l3_wfov_a_prod&#45;&gt;trans_wfov_a_l3_l4</title>
<path fill="none" stroke="black" d="M2648.12,-596C2648.12,-596 2722.72,-596 2722.72,-596"/>
<polygon fill="black" stroke="black" points="2722.72,-599.5 2732.72,-596 2722.72,-592.5 2722.72,-599.5"/>
</g>
<!-- l3_wfov_a_odir -->
<g id="node34" class="node">
<title>l3_wfov_a_odir</title>
<ellipse fill="none" stroke="black" cx="2570.99" cy="-758" rx="109.68" ry="18"/>
<text text-anchor="middle" x="2570.99" y="-754.3" font-family="Times,serif" font-size="14.00">L3_wfov_a output path 1..1</text>
</g>
<!-- l3_wfov_a_odir&#45;&gt;trans_wfov_a_l3_l4 -->
<g id="edge37" class="edge">
<title>l3_wfov_a_odir&#45;&gt;trans_wfov_a_l3_l4</title>
<path fill="none" stroke="black" d="M2643.78,-744.5C2643.78,-744.5 2776.22,-744.5 2776.22,-744.5"/>
<polygon fill="black" stroke="black" points="2776.22,-748 2786.22,-744.5 2776.22,-741 2776.22,-748"/>
</g>
<!-- l3_wfov_a_man&#45;&gt;trans_wfov_a_l3_l4 -->
<g id="edge36" class="edge">
<title>l3_wfov_a_man&#45;&gt;trans_wfov_a_l3_l4</title>
<path fill="none" stroke="black" d="M2637.89,-555.5C2637.89,-555.5 2776.01,-555.5 2776.01,-555.5"/>
<polygon fill="black" stroke="black" points="2776.01,-559 2786.01,-555.5 2776.01,-552 2776.01,-559"/>
</g>
<!-- l3_wfov_a_rec -->
<g id="node36" class="node">
<title>l3_wfov_a_rec</title>
<polygon fill="none" stroke="black" points="2628.99,-716 2500.99,-716 2500.99,-692 2628.99,-692 2640.99,-704 2628.99,-716"/>
<text text-anchor="middle" x="2570.99" y="-700.3" font-family="Times,serif" font-size="14.00">L3_wfov_a recipe 1..1</text>
</g>
<!-- l3_wfov_a_rec&#45;&gt;trans_wfov_a_l3_l4 -->
<g id="edge38" class="edge">
<title>l3_wfov_a_rec&#45;&gt;trans_wfov_a_l3_l4</title>
<path fill="none" stroke="black" d="M2641.15,-704C2641.15,-704 2722.65,-704 2722.65,-704"/>
<polygon fill="black" stroke="black" points="2722.65,-707.5 2732.65,-704 2722.65,-700.5 2722.65,-707.5"/>
</g>
<!-- l3_wfov_a_cal -->
<g id="node37" class="node">
<title>l3_wfov_a_cal</title>
<polygon fill="none" stroke="black" points="2641.49,-662 2488.49,-662 2488.49,-638 2641.49,-638 2653.49,-650 2641.49,-662"/>
<text text-anchor="middle" x="2570.99" y="-646.3" font-family="Times,serif" font-size="14.00">L3_wfov_a calibration 1..1</text>
</g>
<!-- l3_wfov_a_cal&#45;&gt;trans_wfov_a_l3_l4 -->
<g id="edge39" class="edge">
<title>l3_wfov_a_cal&#45;&gt;trans_wfov_a_l3_l4</title>
<path fill="none" stroke="black" d="M2653.53,-650C2653.53,-650 2706.67,-650 2706.67,-650"/>
<polygon fill="black" stroke="black" points="2706.67,-653.5 2716.67,-650 2706.67,-646.5 2706.67,-653.5"/>
</g>
<!-- l4_wfov_a_prod&#45;&gt;trans_wfov_a_l4_tda -->
<g id="edge43" class="edge">
<title>l4_wfov_a_prod&#45;&gt;trans_wfov_a_l4_tda</title>
<path fill="none" stroke="black" d="M3157.82,-719C3157.82,-719 3301.6,-719 3301.6,-719"/>
<polygon fill="black" stroke="black" points="3301.6,-722.5 3311.6,-719 3301.6,-715.5 3301.6,-722.5"/>
</g>
<!-- l4_wfov_a_odir -->
<g id="node40" class="node">
<title>l4_wfov_a_odir</title>
<ellipse fill="none" stroke="black" cx="3080.82" cy="-974" rx="109.68" ry="18"/>
<text text-anchor="middle" x="3080.82" y="-970.3" font-family="Times,serif" font-size="14.00">L4_wfov_a output path 1..1</text>
</g>
<!-- l4_wfov_a_odir&#45;&gt;trans_wfov_a_l4_tda -->
<g id="edge45" class="edge">
<title>l4_wfov_a_odir&#45;&gt;trans_wfov_a_l4_tda</title>
<path fill="none" stroke="black" d="M3171.39,-963.69C3171.39,-945.12 3171.39,-908 3171.39,-908 3171.39,-908 3311.56,-908 3311.56,-908"/>
<polygon fill="black" stroke="black" points="3311.56,-911.5 3321.56,-908 3311.56,-904.5 3311.56,-911.5"/>
</g>
<!-- l4_wfov_a_man&#45;&gt;trans_wfov_a_l4_tda -->
<g id="edge44" class="edge">
<title>l4_wfov_a_man&#45;&gt;trans_wfov_a_l4_tda</title>
<path fill="none" stroke="black" d="M3172.39,-603.51C3172.39,-629.78 3172.39,-716 3172.39,-716 3172.39,-716 3311.33,-716 3311.33,-716"/>
<polygon fill="black" stroke="black" points="3311.33,-719.5 3321.33,-716 3311.33,-712.5 3311.33,-719.5"/>
</g>
<!-- l4_wfov_a_rec -->
<g id="node43" class="node">
<title>l4_wfov_a_rec</title>
<polygon fill="none" stroke="black" points="3138.82,-932 3010.82,-932 3010.82,-908 3138.82,-908 3150.82,-920 3138.82,-932"/>
<text text-anchor="middle" x="3080.82" y="-916.3" font-family="Times,serif" font-size="14.00">L4_wfov_a recipe 1..1</text>
</g>
<!-- l4_wfov_a_rec&#45;&gt;trans_wfov_a_l4_tda -->
<g id="edge46" class="edge">
<title>l4_wfov_a_rec&#45;&gt;trans_wfov_a_l4_tda</title>
<path fill="none" stroke="black" d="M3151.13,-905C3151.13,-905 3301.6,-905 3301.6,-905"/>
<polygon fill="black" stroke="black" points="3301.6,-908.5 3311.6,-905 3301.6,-901.5 3301.6,-908.5"/>
</g>
<!-- l4_wfov_a_afcal -->
<g id="node44" class="node">
<title>l4_wfov_a_afcal</title>
<polygon fill="none" stroke="black" points="3191.32,-878 2958.32,-878 2958.32,-854 3191.32,-854 3203.32,-866 3191.32,-878"/>
<text text-anchor="middle" x="3080.82" y="-862.3" font-family="Times,serif" font-size="14.00">L4_wfov_a absolute flux calibrations 1..1</text>
</g>
<!-- l4_wfov_a_afcal&#45;&gt;trans_wfov_a_l4_tda -->
<g id="edge47" class="edge">
<title>l4_wfov_a_afcal&#45;&gt;trans_wfov_a_l4_tda</title>
<path fill="none" stroke="black" d="M3203.62,-866C3203.62,-866 3252.77,-866 3252.77,-866"/>
<polygon fill="black" stroke="black" points="3252.77,-869.5 3262.77,-866 3252.77,-862.5 3252.77,-869.5"/>
</g>
<!-- l4_wfov_a_ctcal -->
<g id="node45" class="node">
<title>l4_wfov_a_ctcal</title>
<polygon fill="none" stroke="black" points="3198.82,-824 2950.82,-824 2950.82,-800 3198.82,-800 3210.82,-812 3198.82,-824"/>
<text text-anchor="middle" x="3080.82" y="-808.3" font-family="Times,serif" font-size="14.00">L4_wfov_a core throughput calibrations 1..1</text>
</g>
<!-- l4_wfov_a_ctcal&#45;&gt;trans_wfov_a_l4_tda -->
<g id="edge48" class="edge">
<title>l4_wfov_a_ctcal&#45;&gt;trans_wfov_a_l4_tda</title>
<path fill="none" stroke="black" d="M3210.98,-812C3210.98,-812 3236.79,-812 3236.79,-812"/>
<polygon fill="black" stroke="black" points="3236.79,-815.5 3246.79,-812 3236.79,-808.5 3236.79,-815.5"/>
</g>
<!-- l4_wfov_a_ndfilt -->
<g id="node46" class="node">
<title>l4_wfov_a_ndfilt</title>
<polygon fill="none" stroke="black" points="3147.32,-770 3002.32,-770 3002.32,-746 3147.32,-746 3159.32,-758 3147.32,-770"/>
<text text-anchor="middle" x="3080.82" y="-754.3" font-family="Times,serif" font-size="14.00">L4_wfov_a ND filter 1..1</text>
</g>
<!-- l4_wfov_a_ndfilt&#45;&gt;trans_wfov_a_l4_tda -->
<g id="edge49" class="edge">
<title>l4_wfov_a_ndfilt&#45;&gt;trans_wfov_a_l4_tda</title>
<path fill="none" stroke="black" d="M3159.61,-758C3159.61,-758 3252.72,-758 3252.72,-758"/>
<polygon fill="black" stroke="black" points="3252.72,-761.5 3262.72,-758 3252.72,-754.5 3252.72,-761.5"/>
</g>
</g>
</svg>
