<?xml version="1.0" encoding="UTF-8" standalone="no"?>
<!DOCTYPE svg PUBLIC "-//W3C//DTD SVG 1.1//EN"
 "http://www.w3.org/Graphics/SVG/1.1/DTD/svg11.dtd">
<!-- Generated by graphviz version 2.43.0 (0)
 -->
<!-- Title: WideFieldOfViewPhotonCount Pages: 1 -->
<svg width="3377pt" height="992pt"
 viewBox="0.00 0.00 3376.64 992.40" xmlns="http://www.w3.org/2000/svg" xmlns:xlink="http://www.w3.org/1999/xlink">
<g id="graph0" class="graph" transform="scale(1 1) rotate(0) translate(4 988.4)">
<title>WideFieldOfViewPhotonCount</title>
<polygon fill="white" stroke="transparent" points="-4,4 -4,-988.4 3372.64,-988.4 3372.64,4 -4,4"/>
<!-- trans_wfov_pc_l1_l2a -->
<g id="node1" class="node">
<title>trans_wfov_pc_l1_l2a</title>
<ellipse fill="none" stroke="black" cx="448.78" cy="-129.4" rx="129.3" ry="129.3"/>
<text text-anchor="middle" x="448.78" y="-133.2" font-family="Times,serif" font-size="14.00">wfov_pc Transmutation</text>
<text text-anchor="middle" x="448.78" y="-118.2" font-family="Times,serif" font-size="14.00">L1 to L2a</text>
</g>
<!-- l2a_wfov_pc_prod -->
<g id="node11" class="node">
<title>l2a_wfov_pc_prod</title>
<polygon fill="none" stroke="black" points="872.18,-201.4 666.18,-201.4 666.18,-165.4 872.18,-165.4 872.18,-201.4"/>
<text text-anchor="middle" x="769.18" y="-179.7" font-family="Times,serif" font-size="14.00">L2a_wfov_pc products 1..b</text>
</g>
<!-- trans_wfov_pc_l1_l2a&#45;&gt;l2a_wfov_pc_prod -->
<g id="edge6" class="edge">
<title>trans_wfov_pc_l1_l2a&#45;&gt;l2a_wfov_pc_prod</title>
<path fill="none" stroke="black" stroke-dasharray="5,2" d="M566.72,-183.4C566.72,-183.4 656.01,-183.4 656.01,-183.4"/>
<polygon fill="black" stroke="black" points="656.01,-186.9 666.01,-183.4 656.01,-179.9 656.01,-186.9"/>
</g>
<!-- l2a_wfov_pc_man -->
<g id="node12" class="node">
<title>l2a_wfov_pc_man</title>
<ellipse fill="none" stroke="black" cx="769.18" cy="-129.4" rx="133.48" ry="18"/>
<text text-anchor="middle" x="769.18" y="-125.7" font-family="Times,serif" font-size="14.00">L2a_wfov_pc manifest 1..1</text>
</g>
<!-- trans_wfov_pc_l1_l2a&#45;&gt;l2a_wfov_pc_man -->
<g id="edge7" class="edge">
<title>trans_wfov_pc_l1_l2a&#45;&gt;l2a_wfov_pc_man</title>
<path fill="none" stroke="black" d="M578.63,-129.4C578.63,-129.4 625.74,-129.4 625.74,-129.4"/>
<polygon fill="black" stroke="black" points="625.74,-132.9 635.74,-129.4 625.74,-125.9 625.74,-132.9"/>
</g>
<!-- l2a_wfov_pc_log -->
<g id="node21" class="node">
<title>l2a_wfov_pc_log</title>
<ellipse fill="none" stroke="black" cx="769.18" cy="-75.4" rx="106.68" ry="18"/>
<text text-anchor="middle" x="769.18" y="-71.7" font-family="Times,serif" font-size="14.00">L2a log_wfov_pc 1..1</text>
</g>
<!-- trans_wfov_pc_l1_l2a&#45;&gt;l2a_wfov_pc_log -->
<g id="edge8" class="edge">
<title>trans_wfov_pc_l1_l2a&#45;&gt;l2a_wfov_pc_log</title>
<path fill="none" stroke="black" stroke-dasharray="5,2" d="M566.72,-75.4C566.72,-75.4 652.35,-75.4 652.35,-75.4"/>
<polygon fill="black" stroke="black" points="652.35,-78.9 662.35,-75.4 652.35,-71.9 652.35,-78.9"/>
</g>
<!-- trans_wfov_pc_l2a_l2b -->
<g id="node2" class="node">
<title>trans_wfov_pc_l2a_l2b</title>
<ellipse fill="none" stroke="black" cx="1089.58" cy="-372.4" rx="129.3" ry="129.3"/>
<text text-anchor="middle" x="1089.58" y="-376.2" font-family="Times,serif" font-size="14.00">wfov_pc Transmutation</text>
<text text-anchor="middle" x="1089.58" y="-361.2" font-family="Times,serif" font-size="14.00">L2a to L2b</text>
</g>
<!-- l2b_wfov_pc_prod -->
<g id="node22" class="node">
<title>l2b_wfov_pc_prod</title>
<polygon fill="none" stroke="black" points="1514.48,-444.4 1308.48,-444.4 1308.48,-408.4 1514.48,-408.4 1514.48,-444.4"/>
<text text-anchor="middle" x="1411.48" y="-422.7" font-family="Times,serif" font-size="14.00">L2b_wfov_pc products 1..1</text>
</g>
<!-- trans_wfov_pc_l2a_l2b&#45;&gt;l2b_wfov_pc_prod -->
<g id="edge18" class="edge">
<title>trans_wfov_pc_l2a_l2b&#45;&gt;l2b_wfov_pc_prod</title>
<path fill="none" stroke="black" stroke-dasharray="5,2" d="M1207.61,-426.4C1207.61,-426.4 1298.33,-426.4 1298.33,-426.4"/>
<polygon fill="black" stroke="black" points="1298.33,-429.9 1308.33,-426.4 1298.33,-422.9 1298.33,-429.9"/>
</g>
<!-- l2b_wfov_pc_man -->
<g id="node23" class="node">
<title>l2b_wfov_pc_man</title>
<ellipse fill="none" stroke="black" cx="1411.48" cy="-372.4" rx="133.78" ry="18"/>
<text text-anchor="middle" x="1411.48" y="-368.7" font-family="Times,serif" font-size="14.00">L2b_wfov_pc manifest 1..1</text>
</g>
<!-- trans_wfov_pc_l2a_l2b&#45;&gt;l2b_wfov_pc_man -->
<g id="edge19" class="edge">
<title>trans_wfov_pc_l2a_l2b&#45;&gt;l2b_wfov_pc_man</title>
<path fill="none" stroke="black" d="M1219.11,-372.4C1219.11,-372.4 1267.48,-372.4 1267.48,-372.4"/>
<polygon fill="black" stroke="black" points="1267.48,-375.9 1277.48,-372.4 1267.48,-368.9 1267.48,-375.9"/>
</g>
<!-- l2b_wfov_pc_log -->
<g id="node29" class="node">
<title>l2b_wfov_pc_log</title>
<ellipse fill="none" stroke="black" cx="1411.48" cy="-318.4" rx="107.48" ry="18"/>
<text text-anchor="middle" x="1411.48" y="-314.7" font-family="Times,serif" font-size="14.00">L2b_wfov_pc log 1..1</text>
</g>
<!-- trans_wfov_pc_l2a_l2b&#45;&gt;l2b_wfov_pc_log -->
<g id="edge20" class="edge">
<title>trans_wfov_pc_l2a_l2b&#45;&gt;l2b_wfov_pc_log</title>
<path fill="none" stroke="black" stroke-dasharray="5,2" d="M1207.61,-318.4C1207.61,-318.4 1294.12,-318.4 1294.12,-318.4"/>
<polygon fill="black" stroke="black" points="1294.12,-321.9 1304.12,-318.4 1294.12,-314.9 1294.12,-321.9"/>
</g>
<!-- trans_wfov_pc_l2b_l3 -->
<g id="node3" class="node">
<title>trans_wfov_pc_l2b_l3</title>
<ellipse fill="none" stroke="black" cx="1733.38" cy="-534.4" rx="129.3" ry="129.3"/>
<text text-anchor="middle" x="1733.38" y="-538.2" font-family="Times,serif" font-size="14.00">wfov_pc Transmutation</text>
<text text-anchor="middle" x="1733.38" y="-523.2" font-family="Times,serif" font-size="14.00">L2b to L3</text>
</g>
<!-- l3_wfov_pc_prod -->
<g id="node30" class="node">
<title>l3_wfov_pc_prod</title>
<polygon fill="none" stroke="black" points="2138.97,-606.4 1941.97,-606.4 1941.97,-570.4 2138.97,-570.4 2138.97,-606.4"/>
<text text-anchor="middle" x="2040.47" y="-584.7" font-family="Times,serif" font-size="14.00">L3_wfov_pc products 1..1</text>
</g>
<!-- trans_wfov_pc_l2b_l3&#45;&gt;l3_wfov_pc_prod -->
<g id="edge29" class="edge">
<title>trans_wfov_pc_l2b_l3&#45;&gt;l3_wfov_pc_prod</title>
<path fill="none" stroke="black" stroke-dasharray="5,2" d="M1851.23,-588.4C1851.23,-588.4 1931.89,-588.4 1931.89,-588.4"/>
<polygon fill="black" stroke="black" points="1931.89,-591.9 1941.89,-588.4 1931.89,-584.9 1931.89,-591.9"/>
</g>
<!-- l3_wfov_pc_man -->
<g id="node32" class="node">
<title>l3_wfov_pc_man</title>
<ellipse fill="none" stroke="black" cx="2040.47" cy="-534.4" rx="128.08" ry="18"/>
<text text-anchor="middle" x="2040.47" y="-530.7" font-family="Times,serif" font-size="14.00">L3_wfov_pc manifest 1..1</text>
</g>
<!-- trans_wfov_pc_l2b_l3&#45;&gt;l3_wfov_pc_man -->
<g id="edge30" class="edge">
<title>trans_wfov_pc_l2b_l3&#45;&gt;l3_wfov_pc_man</title>
<path fill="none" stroke="black" d="M1863.17,-534.4C1863.17,-534.4 1902.12,-534.4 1902.12,-534.4"/>
<polygon fill="black" stroke="black" points="1902.12,-537.9 1912.12,-534.4 1902.12,-530.9 1902.12,-537.9"/>
</g>
<!-- l3_wfov_pc_log -->
<g id="node35" class="node">
<title>l3_wfov_pc_log</title>
<ellipse fill="none" stroke="black" cx="2040.47" cy="-480.4" rx="101.28" ry="18"/>
<text text-anchor="middle" x="2040.47" y="-476.7" font-family="Times,serif" font-size="14.00">L3_wfov_pc log 1..1</text>
</g>
<!-- trans_wfov_pc_l2b_l3&#45;&gt;l3_wfov_pc_log -->
<g id="edge31" class="edge">
<title>trans_wfov_pc_l2b_l3&#45;&gt;l3_wfov_pc_log</title>
<path fill="none" stroke="black" stroke-dasharray="5,2" d="M1851.23,-480.4C1851.23,-480.4 1928.94,-480.4 1928.94,-480.4"/>
<polygon fill="black" stroke="black" points="1928.94,-483.9 1938.94,-480.4 1928.94,-476.9 1928.94,-483.9"/>
</g>
<!-- trans_wfov_pc_l3_l4 -->
<g id="node4" class="node">
<title>trans_wfov_pc_l3_l4</title>
<ellipse fill="none" stroke="black" cx="2347.55" cy="-642.4" rx="129.3" ry="129.3"/>
<text text-anchor="middle" x="2347.55" y="-646.2" font-family="Times,serif" font-size="14.00">wfov_pc Transmutation</text>
<text text-anchor="middle" x="2347.55" y="-631.2" font-family="Times,serif" font-size="14.00">L3 to L4</text>
</g>
<!-- l4_wfov_pc_prod -->
<g id="node36" class="node">
<title>l4_wfov_pc_prod</title>
<polygon fill="none" stroke="black" points="2780.95,-714.4 2583.95,-714.4 2583.95,-678.4 2780.95,-678.4 2780.95,-714.4"/>
<text text-anchor="middle" x="2682.45" y="-692.7" font-family="Times,serif" font-size="14.00">L4_wfov_pc products 1..1</text>
</g>
<!-- trans_wfov_pc_l3_l4&#45;&gt;l4_wfov_pc_prod -->
<g id="edge37" class="edge">
<title>trans_wfov_pc_l3_l4&#45;&gt;l4_wfov_pc_prod</title>
<path fill="none" stroke="black" stroke-dasharray="5,2" d="M2465.16,-696.4C2465.16,-696.4 2573.71,-696.4 2573.71,-696.4"/>
<polygon fill="black" stroke="black" points="2573.71,-699.9 2583.71,-696.4 2573.71,-692.9 2573.71,-699.9"/>
</g>
<!-- l4_wfov_pc_log -->
<g id="node38" class="node">
<title>l4_wfov_pc_log</title>
<ellipse fill="none" stroke="black" cx="2682.45" cy="-642.4" rx="101.28" ry="18"/>
<text text-anchor="middle" x="2682.45" y="-638.7" font-family="Times,serif" font-size="14.00">L4_wfov_pc log 1..1</text>
</g>
<!-- trans_wfov_pc_l3_l4&#45;&gt;l4_wfov_pc_log -->
<g id="edge38" class="edge">
<title>trans_wfov_pc_l3_l4&#45;&gt;l4_wfov_pc_log</title>
<path fill="none" stroke="black" stroke-dasharray="5,2" d="M2477.03,-642.4C2477.03,-642.4 2570.83,-642.4 2570.83,-642.4"/>
<polygon fill="black" stroke="black" points="2570.83,-645.9 2580.83,-642.4 2570.83,-638.9 2570.83,-645.9"/>
</g>
<!-- l4_wfov_pc_man -->
<g id="node39" class="node">
<title>l4_wfov_pc_man</title>
<ellipse fill="none" stroke="black" cx="2682.45" cy="-588.4" rx="128.08" ry="18"/>
<text text-anchor="middle" x="2682.45" y="-584.7" font-family="Times,serif" font-size="14.00">L4_wfov_pc manifest 1..1</text>
</g>
<!-- trans_wfov_pc_l3_l4&#45;&gt;l4_wfov_pc_man -->
<g id="edge39" class="edge">
<title>trans_wfov_pc_l3_l4&#45;&gt;l4_wfov_pc_man</title>
<path fill="none" stroke="black" d="M2465.16,-588.4C2465.16,-588.4 2544.3,-588.4 2544.3,-588.4"/>
<polygon fill="black" stroke="black" points="2544.3,-591.9 2554.3,-588.4 2544.3,-584.9 2544.3,-591.9"/>
</g>
<!-- trans_wfov_pc_l4_tda -->
<g id="node5" class="node">
<title>trans_wfov_pc_l4_tda</title>
<ellipse fill="none" stroke="black" cx="3017.35" cy="-804.4" rx="129.3" ry="129.3"/>
<text text-anchor="middle" x="3017.35" y="-808.2" font-family="Times,serif" font-size="14.00">wfov_pc Transmutation</text>
<text text-anchor="middle" x="3017.35" y="-793.2" font-family="Times,serif" font-size="14.00">L4 to TDA</text>
</g>
<!-- tda_wfov_pc_prod -->
<g id="node45" class="node">
<title>tda_wfov_pc_prod</title>
<ellipse fill="none" stroke="black" cx="3275.7" cy="-831.4" rx="92.88" ry="18"/>
<text text-anchor="middle" x="3275.7" y="-827.7" font-family="Times,serif" font-size="14.00">tda_wfov_pc_prod</text>
</g>
<!-- trans_wfov_pc_l4_tda&#45;&gt;tda_wfov_pc_prod -->
<g id="edge47" class="edge">
<title>trans_wfov_pc_l4_tda&#45;&gt;tda_wfov_pc_prod</title>
<path fill="none" stroke="black" stroke-dasharray="5,2" d="M3144.26,-831.4C3144.26,-831.4 3172.5,-831.4 3172.5,-831.4"/>
<polygon fill="black" stroke="black" points="3172.5,-834.9 3182.5,-831.4 3172.5,-827.9 3172.5,-834.9"/>
</g>
<!-- tda_wfov_pc_log -->
<g id="node46" class="node">
<title>tda_wfov_pc_log</title>
<ellipse fill="none" stroke="black" cx="3275.7" cy="-777.4" rx="85.59" ry="18"/>
<text text-anchor="middle" x="3275.7" y="-773.7" font-family="Times,serif" font-size="14.00">tda_wfov_pc_log</text>
</g>
<!-- trans_wfov_pc_l4_tda&#45;&gt;tda_wfov_pc_log -->
<g id="edge48" class="edge">
<title>trans_wfov_pc_l4_tda&#45;&gt;tda_wfov_pc_log</title>
<path fill="none" stroke="black" stroke-dasharray="5,2" d="M3144.26,-777.4C3144.26,-777.4 3179.82,-777.4 3179.82,-777.4"/>
<polygon fill="black" stroke="black" points="3179.82,-780.9 3189.82,-777.4 3179.82,-773.9 3179.82,-780.9"/>
</g>
<!-- l1_wfov_pc_prod -->
<g id="node6" class="node">
<title>l1_wfov_pc_prod</title>
<polygon fill="none" stroke="black" points="240.19,-255.4 43.19,-255.4 43.19,-219.4 240.19,-219.4 240.19,-255.4"/>
<text text-anchor="middle" x="141.69" y="-233.7" font-family="Times,serif" font-size="14.00">L1_wfov_pc products 1..b</text>
</g>
<!-- l1_wfov_pc_prod&#45;&gt;trans_wfov_pc_l1_l2a -->
<g id="edge1" class="edge">
<title>l1_wfov_pc_prod&#45;&gt;trans_wfov_pc_l1_l2a</title>
<path fill="none" stroke="black" stroke-dasharray="5,2" d="M240.54,-237.4C240.54,-237.4 367.36,-237.4 367.36,-237.4"/>
<polygon fill="black" stroke="black" points="367.36,-240.9 377.36,-237.4 367.36,-233.9 367.36,-240.9"/>
</g>
<!-- l1_wfov_pc_man -->
<g id="node7" class="node">
<title>l1_wfov_pc_man</title>
<ellipse fill="none" stroke="black" cx="141.69" cy="-183.4" rx="128.08" ry="18"/>
<text text-anchor="middle" x="141.69" y="-179.7" font-family="Times,serif" font-size="14.00">L1_wfov_pc manifest 1..1</text>
</g>
<!-- l1_wfov_pc_man&#45;&gt;trans_wfov_pc_l1_l2a -->
<g id="edge2" class="edge">
<title>l1_wfov_pc_man&#45;&gt;trans_wfov_pc_l1_l2a</title>
<path fill="none" stroke="black" d="M270.14,-183.4C270.14,-183.4 321.12,-183.4 321.12,-183.4"/>
<polygon fill="black" stroke="black" points="321.12,-186.9 331.12,-183.4 321.12,-179.9 321.12,-186.9"/>
</g>
<!-- l1_wfov_pc_odir -->
<g id="node8" class="node">
<title>l1_wfov_pc_odir</title>
<ellipse fill="none" stroke="black" cx="141.69" cy="-129.4" rx="141.88" ry="18"/>
<text text-anchor="middle" x="141.69" y="-125.7" font-family="Times,serif" font-size="14.00">L1_wfov_pc output path 1..1</text>
</g>
<!-- l1_wfov_pc_odir&#45;&gt;trans_wfov_pc_l1_l2a -->
<g id="edge3" class="edge">
<title>l1_wfov_pc_odir&#45;&gt;trans_wfov_pc_l1_l2a</title>
<path fill="none" stroke="black" d="M283.55,-129.4C283.55,-129.4 309.37,-129.4 309.37,-129.4"/>
<polygon fill="black" stroke="black" points="309.37,-132.9 319.37,-129.4 309.37,-125.9 309.37,-132.9"/>
</g>
<!-- l1_wfov_pc_rec -->
<g id="node9" class="node">
<title>l1_wfov_pc_rec</title>
<polygon fill="none" stroke="black" points="219.19,-87.4 52.19,-87.4 52.19,-63.4 219.19,-63.4 231.19,-75.4 219.19,-87.4"/>
<text text-anchor="middle" x="141.69" y="-71.7" font-family="Times,serif" font-size="14.00">L1_wfov_pc recipe 1..1</text>
</g>
<!-- l1_wfov_pc_rec&#45;&gt;trans_wfov_pc_l1_l2a -->
<g id="edge4" class="edge">
<title>l1_wfov_pc_rec&#45;&gt;trans_wfov_pc_l1_l2a</title>
<path fill="none" stroke="black" d="M231.34,-75.4C231.34,-75.4 321.01,-75.4 321.01,-75.4"/>
<polygon fill="black" stroke="black" points="321.01,-78.9 331.01,-75.4 321.01,-71.9 321.01,-78.9"/>
</g>
<!-- l1_wfov_pc_nllut -->
<g id="node10" class="node">
<title>l1_wfov_pc_nllut</title>
<polygon fill="none" stroke="black" points="249.69,-33.4 21.69,-33.4 21.69,-9.4 249.69,-9.4 261.69,-21.4 249.69,-33.4"/>
<text text-anchor="middle" x="141.69" y="-17.7" font-family="Times,serif" font-size="14.00">L1_wfov_pc non&#45;linear LUT 1..1</text>
</g>
<!-- l1_wfov_pc_nllut&#45;&gt;trans_wfov_pc_l1_l2a -->
<g id="edge5" class="edge">
<title>l1_wfov_pc_nllut&#45;&gt;trans_wfov_pc_l1_l2a</title>
<path fill="none" stroke="black" d="M261.74,-21.4C261.74,-21.4 367.16,-21.4 367.16,-21.4"/>
<polygon fill="black" stroke="black" points="367.16,-24.9 377.16,-21.4 367.16,-17.9 367.16,-24.9"/>
</g>
<!-- l2a_wfov_pc_prod&#45;&gt;trans_wfov_pc_l2a_l2b -->
<g id="edge9" class="edge">
<title>l2a_wfov_pc_prod&#45;&gt;trans_wfov_pc_l2a_l2b</title>
<path fill="none" stroke="black" stroke-dasharray="5,2" d="M866.64,-201.73C866.64,-221.2 866.64,-249.2 866.64,-249.2 866.64,-249.2 1039.98,-249.2 1039.98,-249.2"/>
<polygon fill="black" stroke="black" points="1039.98,-252.7 1049.98,-249.2 1039.98,-245.7 1039.98,-252.7"/>
</g>
<!-- l2a_wfov_pc_man&#45;&gt;trans_wfov_pc_l2a_l2b -->
<g id="edge21" class="edge">
<title>l2a_wfov_pc_man&#45;&gt;trans_wfov_pc_l2a_l2b</title>
<path fill="none" stroke="black" d="M888.64,-137.42C888.64,-163.79 888.64,-246.1 888.64,-246.1 888.64,-246.1 1051.21,-246.1 1051.21,-246.1"/>
<polygon fill="black" stroke="black" points="1051.21,-249.6 1061.21,-246.1 1051.21,-242.6 1051.21,-249.6"/>
</g>
<!-- l2a_wfov_pc_odir -->
<g id="node13" class="node">
<title>l2a_wfov_pc_odir</title>
<ellipse fill="none" stroke="black" cx="769.18" cy="-617.4" rx="147.57" ry="18"/>
<text text-anchor="middle" x="769.18" y="-613.7" font-family="Times,serif" font-size="14.00">L2a_wfov_pc output path 1..1</text>
</g>
<!-- l2a_wfov_pc_odir&#45;&gt;trans_wfov_pc_l2a_l2b -->
<g id="edge10" class="edge">
<title>l2a_wfov_pc_odir&#45;&gt;trans_wfov_pc_l2a_l2b</title>
<path fill="none" stroke="black" d="M856.94,-602.9C964.78,-602.9 1133.64,-602.9 1133.64,-602.9 1133.64,-602.9 1133.64,-504.4 1133.64,-504.4"/>
<polygon fill="black" stroke="black" points="1137.14,-504.4 1133.64,-494.4 1130.14,-504.4 1137.14,-504.4"/>
</g>
<!-- l2a_wfov_pc_rec -->
<g id="node14" class="node">
<title>l2a_wfov_pc_rec</title>
<polygon fill="none" stroke="black" points="850.68,-575.4 675.68,-575.4 675.68,-551.4 850.68,-551.4 862.68,-563.4 850.68,-575.4"/>
<text text-anchor="middle" x="769.18" y="-559.7" font-family="Times,serif" font-size="14.00">L2a_wfov_pc recipe 1..1</text>
</g>
<!-- l2a_wfov_pc_rec&#45;&gt;trans_wfov_pc_l2a_l2b -->
<g id="edge11" class="edge">
<title>l2a_wfov_pc_rec&#45;&gt;trans_wfov_pc_l2a_l2b</title>
<path fill="none" stroke="black" d="M862.73,-548.9C943.28,-548.9 1046.64,-548.9 1046.64,-548.9 1046.64,-548.9 1046.64,-504.5 1046.64,-504.5"/>
<polygon fill="black" stroke="black" points="1050.14,-504.5 1046.64,-494.5 1043.14,-504.5 1050.14,-504.5"/>
</g>
<!-- l2a_wfov_pc_cti -->
<g id="node15" class="node">
<title>l2a_wfov_pc_cti</title>
<polygon fill="none" stroke="black" points="912.18,-521.4 614.18,-521.4 614.18,-497.4 912.18,-497.4 924.18,-509.4 912.18,-521.4"/>
<text text-anchor="middle" x="769.18" y="-505.7" font-family="Times,serif" font-size="14.00">L2a_wfov_pc charge xfer inefficiency 1..1</text>
</g>
<!-- l2a_wfov_pc_cti&#45;&gt;trans_wfov_pc_l2a_l2b -->
<g id="edge12" class="edge">
<title>l2a_wfov_pc_cti&#45;&gt;trans_wfov_pc_l2a_l2b</title>
<path fill="none" stroke="black" d="M924.21,-496.6C924.21,-496.6 1042.97,-496.6 1042.97,-496.6"/>
<polygon fill="black" stroke="black" points="1042.97,-500.1 1052.97,-496.6 1042.97,-493.1 1042.97,-500.1"/>
</g>
<!-- l2a_wfov_pc_dnb -->
<g id="node16" class="node">
<title>l2a_wfov_pc_dnb</title>
<polygon fill="none" stroke="black" points="893.68,-467.4 632.68,-467.4 632.68,-441.4 893.68,-441.4 905.68,-454.4 893.68,-467.4"/>
<text text-anchor="middle" x="769.18" y="-458.2" font-family="Times,serif" font-size="14.00">L2a_wfov_pc CIC/Dark Current/FPN</text>
<text text-anchor="middle" x="769.18" y="-443.2" font-family="Times,serif" font-size="14.00"> or master dark 1..1</text>
</g>
<!-- l2a_wfov_pc_dnb&#45;&gt;trans_wfov_pc_l2a_l2b -->
<g id="edge13" class="edge">
<title>l2a_wfov_pc_dnb&#45;&gt;trans_wfov_pc_l2a_l2b</title>
<path fill="none" stroke="black" d="M905.98,-454.4C905.98,-454.4 979.09,-454.4 979.09,-454.4"/>
<polygon fill="black" stroke="black" points="979.09,-457.9 989.09,-454.4 979.09,-450.9 979.09,-457.9"/>
</g>
<!-- l2a_wfov_pc_mbpm -->
<g id="node17" class="node">
<title>l2a_wfov_pc_mbpm</title>
<polygon fill="none" stroke="black" points="906.18,-411.4 620.18,-411.4 620.18,-387.4 906.18,-387.4 918.18,-399.4 906.18,-411.4"/>
<text text-anchor="middle" x="769.18" y="-395.7" font-family="Times,serif" font-size="14.00">L2a_wfov_pc master bad pixel map 1..1</text>
</g>
<!-- l2a_wfov_pc_mbpm&#45;&gt;trans_wfov_pc_l2a_l2b -->
<g id="edge14" class="edge">
<title>l2a_wfov_pc_mbpm&#45;&gt;trans_wfov_pc_l2a_l2b</title>
<path fill="none" stroke="black" d="M918.59,-399.4C918.59,-399.4 952.99,-399.4 952.99,-399.4"/>
<polygon fill="black" stroke="black" points="952.99,-402.9 962.99,-399.4 952.99,-395.9 952.99,-402.9"/>
</g>
<!-- l2a_wfov_pc_ff -->
<g id="node18" class="node">
<title>l2a_wfov_pc_ff</title>
<polygon fill="none" stroke="black" points="861.68,-357.4 664.68,-357.4 664.68,-333.4 861.68,-333.4 873.68,-345.4 861.68,-357.4"/>
<text text-anchor="middle" x="769.18" y="-341.7" font-family="Times,serif" font-size="14.00">L2a_wfov_pc flat fields 1..1</text>
</g>
<!-- l2a_wfov_pc_ff&#45;&gt;trans_wfov_pc_l2a_l2b -->
<g id="edge15" class="edge">
<title>l2a_wfov_pc_ff&#45;&gt;trans_wfov_pc_l2a_l2b</title>
<path fill="none" stroke="black" d="M874.09,-345.4C874.09,-345.4 952.92,-345.4 952.92,-345.4"/>
<polygon fill="black" stroke="black" points="952.92,-348.9 962.92,-345.4 952.92,-341.9 952.92,-348.9"/>
</g>
<!-- l2a_wfov_pc_emg -->
<g id="node19" class="node">
<title>l2a_wfov_pc_emg</title>
<polygon fill="none" stroke="black" points="858.68,-303.4 667.68,-303.4 667.68,-279.4 858.68,-279.4 870.68,-291.4 858.68,-303.4"/>
<text text-anchor="middle" x="769.18" y="-287.7" font-family="Times,serif" font-size="14.00">L2a_wfov_pc EM gain 1..1</text>
</g>
<!-- l2a_wfov_pc_emg&#45;&gt;trans_wfov_pc_l2a_l2b -->
<g id="edge16" class="edge">
<title>l2a_wfov_pc_emg&#45;&gt;trans_wfov_pc_l2a_l2b</title>
<path fill="none" stroke="black" d="M870.99,-291.4C870.99,-291.4 978.57,-291.4 978.57,-291.4"/>
<polygon fill="black" stroke="black" points="978.57,-294.9 988.57,-291.4 978.57,-287.9 978.57,-294.9"/>
</g>
<!-- l2a_wfov_pc_kgain -->
<g id="node20" class="node">
<title>l2a_wfov_pc_kgain</title>
<polygon fill="none" stroke="black" points="849.18,-249.4 677.18,-249.4 677.18,-225.4 849.18,-225.4 861.18,-237.4 849.18,-249.4"/>
<text text-anchor="middle" x="769.18" y="-233.7" font-family="Times,serif" font-size="14.00">L2a_wfov_pc Kgain 1..1</text>
</g>
<!-- l2a_wfov_pc_kgain&#45;&gt;trans_wfov_pc_l2a_l2b -->
<g id="edge17" class="edge">
<title>l2a_wfov_pc_kgain&#45;&gt;trans_wfov_pc_l2a_l2b</title>
<path fill="none" stroke="black" d="M861.42,-252.3C861.42,-252.3 1031,-252.3 1031,-252.3"/>
<polygon fill="black" stroke="black" points="1031,-255.8 1041,-252.3 1031,-248.8 1031,-255.8"/>
</g>
<!-- l2b_wfov_pc_prod&#45;&gt;trans_wfov_pc_l2b_l3 -->
<g id="edge22" class="edge">
<title>l2b_wfov_pc_prod&#45;&gt;trans_wfov_pc_l2b_l3</title>
<path fill="none" stroke="black" stroke-dasharray="5,2" d="M1514.66,-432.4C1514.66,-432.4 1643.73,-432.4 1643.73,-432.4"/>
<polygon fill="black" stroke="black" points="1643.73,-435.9 1653.73,-432.4 1643.73,-428.9 1643.73,-435.9"/>
</g>
<!-- l2b_wfov_pc_man&#45;&gt;trans_wfov_pc_l2b_l3 -->
<g id="edge23" class="edge">
<title>l2b_wfov_pc_man&#45;&gt;trans_wfov_pc_l2b_l3</title>
<path fill="none" stroke="black" d="M1540.64,-377.18C1540.64,-389.32 1540.64,-420.4 1540.64,-420.4 1540.64,-420.4 1662.13,-420.4 1662.13,-420.4"/>
<polygon fill="black" stroke="black" points="1662.13,-423.9 1672.13,-420.4 1662.13,-416.9 1662.13,-423.9"/>
</g>
<!-- l2b_wfov_pc_odir -->
<g id="node24" class="node">
<title>l2b_wfov_pc_odir</title>
<ellipse fill="none" stroke="black" cx="1411.48" cy="-696.4" rx="147.57" ry="18"/>
<text text-anchor="middle" x="1411.48" y="-692.7" font-family="Times,serif" font-size="14.00">L2b_wfov_pc output path 1..1</text>
</g>
<!-- l2b_wfov_pc_odir&#45;&gt;trans_wfov_pc_l2b_l3 -->
<g id="edge24" class="edge">
<title>l2b_wfov_pc_odir&#45;&gt;trans_wfov_pc_l2b_l3</title>
<path fill="none" stroke="black" d="M1532.64,-685.75C1532.64,-671.61 1532.64,-648.4 1532.64,-648.4 1532.64,-648.4 1662.06,-648.4 1662.06,-648.4"/>
<polygon fill="black" stroke="black" points="1662.06,-651.9 1672.06,-648.4 1662.06,-644.9 1662.06,-651.9"/>
</g>
<!-- l2b_wfov_pc_rec -->
<g id="node25" class="node">
<title>l2b_wfov_pc_rec</title>
<polygon fill="none" stroke="black" points="1493.48,-654.4 1317.48,-654.4 1317.48,-630.4 1493.48,-630.4 1505.48,-642.4 1493.48,-654.4"/>
<text text-anchor="middle" x="1411.48" y="-638.7" font-family="Times,serif" font-size="14.00">L2b_wfov_pc recipe 1..1</text>
</g>
<!-- l2b_wfov_pc_rec&#45;&gt;trans_wfov_pc_l2b_l3 -->
<g id="edge25" class="edge">
<title>l2b_wfov_pc_rec&#45;&gt;trans_wfov_pc_l2b_l3</title>
<path fill="none" stroke="black" d="M1505.88,-636.4C1505.88,-636.4 1643.66,-636.4 1643.66,-636.4"/>
<polygon fill="black" stroke="black" points="1643.66,-639.9 1653.66,-636.4 1643.66,-632.9 1643.66,-639.9"/>
</g>
<!-- l2b_wfov_pc_excicrf -->
<g id="node26" class="node">
<title>l2b_wfov_pc_excicrf</title>
<polygon fill="none" stroke="black" points="1548.98,-600.4 1261.98,-600.4 1261.98,-576.4 1548.98,-576.4 1560.98,-588.4 1548.98,-600.4"/>
<text text-anchor="middle" x="1411.48" y="-584.7" font-family="Times,serif" font-size="14.00">L2b_wfov_pc EXCAM ICRF location 1..1</text>
</g>
<!-- l2b_wfov_pc_excicrf&#45;&gt;trans_wfov_pc_l2b_l3 -->
<g id="edge26" class="edge">
<title>l2b_wfov_pc_excicrf&#45;&gt;trans_wfov_pc_l2b_l3</title>
<path fill="none" stroke="black" d="M1561.12,-588.4C1561.12,-588.4 1605.43,-588.4 1605.43,-588.4"/>
<polygon fill="black" stroke="black" points="1605.43,-591.9 1615.43,-588.4 1605.43,-584.9 1605.43,-591.9"/>
</g>
<!-- l2b_wfov_pc_excfovps -->
<g id="node27" class="node">
<title>l2b_wfov_pc_excfovps</title>
<polygon fill="none" stroke="black" points="1555.98,-546.4 1254.98,-546.4 1254.98,-522.4 1555.98,-522.4 1567.98,-534.4 1555.98,-546.4"/>
<text text-anchor="middle" x="1411.48" y="-530.7" font-family="Times,serif" font-size="14.00">L2b_wfov_pc EXCAM FOV pixel scale 1..1</text>
</g>
<!-- l2b_wfov_pc_excfovps&#45;&gt;trans_wfov_pc_l2b_l3 -->
<g id="edge27" class="edge">
<title>l2b_wfov_pc_excfovps&#45;&gt;trans_wfov_pc_l2b_l3</title>
<path fill="none" stroke="black" d="M1568.18,-534.4C1568.18,-534.4 1593.52,-534.4 1593.52,-534.4"/>
<polygon fill="black" stroke="black" points="1593.52,-537.9 1603.52,-534.4 1593.52,-530.9 1593.52,-537.9"/>
</g>
<!-- l2b_wfov_pc_distm -->
<g id="node28" class="node">
<title>l2b_wfov_pc_distm</title>
<polygon fill="none" stroke="black" points="1523.48,-492.4 1287.48,-492.4 1287.48,-468.4 1523.48,-468.4 1535.48,-480.4 1523.48,-492.4"/>
<text text-anchor="middle" x="1411.48" y="-476.7" font-family="Times,serif" font-size="14.00">L2b_wfov_pc distortion map 1..1</text>
</g>
<!-- l2b_wfov_pc_distm&#45;&gt;trans_wfov_pc_l2b_l3 -->
<g id="edge28" class="edge">
<title>l2b_wfov_pc_distm&#45;&gt;trans_wfov_pc_l2b_l3</title>
<path fill="none" stroke="black" d="M1535.93,-480.4C1535.93,-480.4 1605.59,-480.4 1605.59,-480.4"/>
<polygon fill="black" stroke="black" points="1605.59,-483.9 1615.59,-480.4 1605.59,-476.9 1605.59,-483.9"/>
</g>
<!-- l3_wfov_pc_prod&#45;&gt;trans_wfov_pc_l3_l4 -->
<g id="edge32" class="edge">
<title>l3_wfov_pc_prod&#45;&gt;trans_wfov_pc_l3_l4</title>
<path fill="none" stroke="black" stroke-dasharray="5,2" d="M2139.32,-588.4C2139.32,-588.4 2219.85,-588.4 2219.85,-588.4"/>
<polygon fill="black" stroke="black" points="2219.85,-591.9 2229.85,-588.4 2219.85,-584.9 2219.85,-591.9"/>
</g>
<!-- l3_wfov_pc_odir -->
<g id="node31" class="node">
<title>l3_wfov_pc_odir</title>
<ellipse fill="none" stroke="black" cx="2040.47" cy="-750.4" rx="141.88" ry="18"/>
<text text-anchor="middle" x="2040.47" y="-746.7" font-family="Times,serif" font-size="14.00">L3_wfov_pc output path 1..1</text>
</g>
<!-- l3_wfov_pc_odir&#45;&gt;trans_wfov_pc_l3_l4 -->
<g id="edge34" class="edge">
<title>l3_wfov_pc_odir&#45;&gt;trans_wfov_pc_l3_l4</title>
<path fill="none" stroke="black" d="M2182.32,-750.4C2182.32,-750.4 2266.14,-750.4 2266.14,-750.4"/>
<polygon fill="black" stroke="black" points="2266.14,-753.9 2276.14,-750.4 2266.14,-746.9 2266.14,-753.9"/>
</g>
<!-- l3_wfov_pc_man&#45;&gt;trans_wfov_pc_l3_l4 -->
<g id="edge33" class="edge">
<title>l3_wfov_pc_man&#45;&gt;trans_wfov_pc_l3_l4</title>
<path fill="none" stroke="black" d="M2168.92,-534.4C2168.92,-534.4 2266.09,-534.4 2266.09,-534.4"/>
<polygon fill="black" stroke="black" points="2266.09,-537.9 2276.09,-534.4 2266.09,-530.9 2266.09,-537.9"/>
</g>
<!-- l3_wfov_pc_rec -->
<g id="node33" class="node">
<title>l3_wfov_pc_rec</title>
<polygon fill="none" stroke="black" points="2117.97,-708.4 1950.97,-708.4 1950.97,-684.4 2117.97,-684.4 2129.97,-696.4 2117.97,-708.4"/>
<text text-anchor="middle" x="2040.47" y="-692.7" font-family="Times,serif" font-size="14.00">L3_wfov_pc recipe 1..1</text>
</g>
<!-- l3_wfov_pc_rec&#45;&gt;trans_wfov_pc_l3_l4 -->
<g id="edge35" class="edge">
<title>l3_wfov_pc_rec&#45;&gt;trans_wfov_pc_l3_l4</title>
<path fill="none" stroke="black" d="M2130.11,-696.4C2130.11,-696.4 2219.79,-696.4 2219.79,-696.4"/>
<polygon fill="black" stroke="black" points="2219.79,-699.9 2229.79,-696.4 2219.79,-692.9 2219.79,-699.9"/>
</g>
<!-- l3_wfov_pc_cal -->
<g id="node34" class="node">
<title>l3_wfov_pc_cal</title>
<polygon fill="none" stroke="black" points="2133.97,-654.4 1934.97,-654.4 1934.97,-630.4 2133.97,-630.4 2145.97,-642.4 2133.97,-654.4"/>
<text text-anchor="middle" x="2040.47" y="-638.7" font-family="Times,serif" font-size="14.00">L3_wfov_pc calibration 1..1</text>
</g>
<!-- l3_wfov_pc_cal&#45;&gt;trans_wfov_pc_l3_l4 -->
<g id="edge36" class="edge">
<title>l3_wfov_pc_cal&#45;&gt;trans_wfov_pc_l3_l4</title>
<path fill="none" stroke="black" d="M2146.15,-642.4C2146.15,-642.4 2208.06,-642.4 2208.06,-642.4"/>
<polygon fill="black" stroke="black" points="2208.06,-645.9 2218.06,-642.4 2208.06,-638.9 2208.06,-645.9"/>
</g>
<!-- l4_wfov_pc_prod&#45;&gt;trans_wfov_pc_l4_tda -->
<g id="edge40" class="edge">
<title>l4_wfov_pc_prod&#45;&gt;trans_wfov_pc_l4_tda</title>
<path fill="none" stroke="black" stroke-dasharray="5,2" d="M2781.12,-702.4C2781.12,-702.4 2927.65,-702.4 2927.65,-702.4"/>
<polygon fill="black" stroke="black" points="2927.65,-705.9 2937.65,-702.4 2927.65,-698.9 2927.65,-705.9"/>
</g>
<!-- l4_wfov_pc_odir -->
<g id="node37" class="node">
<title>l4_wfov_pc_odir</title>
<ellipse fill="none" stroke="black" cx="2682.45" cy="-966.4" rx="141.88" ry="18"/>
<text text-anchor="middle" x="2682.45" y="-962.7" font-family="Times,serif" font-size="14.00">L4_wfov_pc output path 1..1</text>
</g>
<!-- l4_wfov_pc_odir&#45;&gt;trans_wfov_pc_l4_tda -->
<g id="edge42" class="edge">
<title>l4_wfov_pc_odir&#45;&gt;trans_wfov_pc_l4_tda</title>
<path fill="none" stroke="black" d="M2798.64,-955.75C2798.64,-941.61 2798.64,-918.4 2798.64,-918.4 2798.64,-918.4 2945.85,-918.4 2945.85,-918.4"/>
<polygon fill="black" stroke="black" points="2945.85,-921.9 2955.85,-918.4 2945.85,-914.9 2945.85,-921.9"/>
</g>
<!-- l4_wfov_pc_man&#45;&gt;trans_wfov_pc_l4_tda -->
<g id="edge41" class="edge">
<title>l4_wfov_pc_man&#45;&gt;trans_wfov_pc_l4_tda</title>
<path fill="none" stroke="black" d="M2797.64,-596.4C2797.64,-620.45 2797.64,-690.4 2797.64,-690.4 2797.64,-690.4 2945.86,-690.4 2945.86,-690.4"/>
<polygon fill="black" stroke="black" points="2945.86,-693.9 2955.86,-690.4 2945.86,-686.9 2945.86,-693.9"/>
</g>
<!-- l4_wfov_pc_rec -->
<g id="node40" class="node">
<title>l4_wfov_pc_rec</title>
<polygon fill="none" stroke="black" points="2759.95,-924.4 2592.95,-924.4 2592.95,-900.4 2759.95,-900.4 2771.95,-912.4 2759.95,-924.4"/>
<text text-anchor="middle" x="2682.45" y="-908.7" font-family="Times,serif" font-size="14.00">L4_wfov_pc recipe 1..1</text>
</g>
<!-- l4_wfov_pc_rec&#45;&gt;trans_wfov_pc_l4_tda -->
<g id="edge43" class="edge">
<title>l4_wfov_pc_rec&#45;&gt;trans_wfov_pc_l4_tda</title>
<path fill="none" stroke="black" d="M2772.2,-906.4C2772.2,-906.4 2927.65,-906.4 2927.65,-906.4"/>
<polygon fill="black" stroke="black" points="2927.65,-909.9 2937.65,-906.4 2927.65,-902.9 2927.65,-909.9"/>
</g>
<!-- l4_wfov_pc_afcal -->
<g id="node41" class="node">
<title>l4_wfov_pc_afcal</title>
<polygon fill="none" stroke="black" points="2827.45,-870.4 2525.45,-870.4 2525.45,-846.4 2827.45,-846.4 2839.45,-858.4 2827.45,-870.4"/>
<text text-anchor="middle" x="2682.45" y="-854.7" font-family="Times,serif" font-size="14.00">L4_wfov_pc absolute flux calibrations 1..1</text>
</g>
<!-- l4_wfov_pc_afcal&#45;&gt;trans_wfov_pc_l4_tda -->
<g id="edge44" class="edge">
<title>l4_wfov_pc_afcal&#45;&gt;trans_wfov_pc_l4_tda</title>
<path fill="none" stroke="black" d="M2839.61,-858.4C2839.61,-858.4 2889.7,-858.4 2889.7,-858.4"/>
<polygon fill="black" stroke="black" points="2889.7,-861.9 2899.7,-858.4 2889.7,-854.9 2889.7,-861.9"/>
</g>
<!-- l4_wfov_pc_ctcal -->
<g id="node42" class="node">
<title>l4_wfov_pc_ctcal</title>
<polygon fill="none" stroke="black" points="2839.95,-816.4 2512.95,-816.4 2512.95,-792.4 2839.95,-792.4 2851.95,-804.4 2839.95,-816.4"/>
<text text-anchor="middle" x="2682.45" y="-800.7" font-family="Times,serif" font-size="14.00">L4_wfov_pc core throughput calibrations 1..1</text>
</g>
<!-- l4_wfov_pc_ctcal&#45;&gt;trans_wfov_pc_l4_tda -->
<g id="edge45" class="edge">
<title>l4_wfov_pc_ctcal&#45;&gt;trans_wfov_pc_l4_tda</title>
<path fill="none" stroke="black" d="M2852.36,-804.4C2852.36,-804.4 2877.53,-804.4 2877.53,-804.4"/>
<polygon fill="black" stroke="black" points="2877.53,-807.9 2887.53,-804.4 2877.53,-800.9 2877.53,-807.9"/>
</g>
<!-- l4_wfov_pc_ndfilt -->
<g id="node43" class="node">
<title>l4_wfov_pc_ndfilt</title>
<polygon fill="none" stroke="black" points="2768.95,-762.4 2583.95,-762.4 2583.95,-738.4 2768.95,-738.4 2780.95,-750.4 2768.95,-762.4"/>
<text text-anchor="middle" x="2682.45" y="-746.7" font-family="Times,serif" font-size="14.00">L4_wfov_pc ND filter 1..1</text>
</g>
<!-- l4_wfov_pc_ndfilt&#45;&gt;trans_wfov_pc_l4_tda -->
<g id="edge46" class="edge">
<title>l4_wfov_pc_ndfilt&#45;&gt;trans_wfov_pc_l4_tda</title>
<path fill="none" stroke="black" d="M2781.12,-750.4C2781.12,-750.4 2889.58,-750.4 2889.58,-750.4"/>
<polygon fill="black" stroke="black" points="2889.58,-753.9 2899.58,-750.4 2889.58,-746.9 2889.58,-753.9"/>
</g>
<!-- tda_wfov_pc_man -->
<g id="node44" class="node">
<title>tda_wfov_pc_man</title>
<ellipse fill="none" stroke="black" cx="141.69" cy="-291.4" rx="135.68" ry="18"/>
<text text-anchor="middle" x="141.69" y="-287.7" font-family="Times,serif" font-size="14.00">TDA_wfov_pc manifest 1..1</text>
</g>
</g>
</svg>
