<?xml version="1.0" encoding="UTF-8" standalone="no"?>
<!DOCTYPE svg PUBLIC "-//W3C//DTD SVG 1.1//EN"
 "http://www.w3.org/Graphics/SVG/1.1/DTD/svg11.dtd">
<!-- Generated by graphviz version 2.43.0 (0)
 -->
<!-- Title: WideFieldOfViewAnalog Pages: 1 -->
<svg width="3265pt" height="989pt"
 viewBox="0.00 0.00 3264.87 989.00" xmlns="http://www.w3.org/2000/svg" xmlns:xlink="http://www.w3.org/1999/xlink">
<g id="graph0" class="graph" transform="scale(1 1) rotate(0) translate(4 985)">
<title>WideFieldOfViewAnalog</title>
<polygon fill="white" stroke="transparent" points="-4,4 -4,-985 3260.87,-985 3260.87,4 -4,4"/>
<!-- trans_wfov_a_l1_l2a -->
<g id="node1" class="node">
<title>trans_wfov_a_l1_l2a</title>
<ellipse fill="none" stroke="black" cx="432.72" cy="-126" rx="123.99" ry="123.99"/>
<text text-anchor="middle" x="432.72" y="-129.8" font-family="Times,serif" font-size="14.00">wfov_a Transmutation</text>
<text text-anchor="middle" x="432.72" y="-114.8" font-family="Times,serif" font-size="14.00">L1 to L2a</text>
</g>
<!-- l2a_wfov_a_prod -->
<g id="node11" class="node">
<title>l2a_wfov_a_prod</title>
<polygon fill="none" stroke="black" points="841.96,-198 644.96,-198 644.96,-162 841.96,-162 841.96,-198"/>
<text text-anchor="middle" x="743.46" y="-176.3" font-family="Times,serif" font-size="14.00">L2a_wfov_a products 1..b</text>
</g>
<!-- trans_wfov_a_l1_l2a&#45;&gt;l2a_wfov_a_prod -->
<g id="edge6" class="edge">
<title>trans_wfov_a_l1_l2a&#45;&gt;l2a_wfov_a_prod</title>
<path fill="none" stroke="black" stroke-dasharray="5,2" d="M544.47,-180C544.47,-180 634.81,-180 634.81,-180"/>
<polygon fill="black" stroke="black" points="634.81,-183.5 644.81,-180 634.81,-176.5 634.81,-183.5"/>
</g>
<!-- l2a_wfov_a_man -->
<g id="node12" class="node">
<title>l2a_wfov_a_man</title>
<ellipse fill="none" stroke="black" cx="743.46" cy="-126" rx="128.08" ry="18"/>
<text text-anchor="middle" x="743.46" y="-122.3" font-family="Times,serif" font-size="14.00">L2a_wfov_a manifest 1..1</text>
</g>
<!-- trans_wfov_a_l1_l2a&#45;&gt;l2a_wfov_a_man -->
<g id="edge7" class="edge">
<title>trans_wfov_a_l1_l2a&#45;&gt;l2a_wfov_a_man</title>
<path fill="none" stroke="black" d="M556.87,-126C556.87,-126 605.19,-126 605.19,-126"/>
<polygon fill="black" stroke="black" points="605.19,-129.5 615.19,-126 605.19,-122.5 605.19,-129.5"/>
</g>
<!-- l2a_wfov_a_log -->
<g id="node21" class="node">
<title>l2a_wfov_a_log</title>
<ellipse fill="none" stroke="black" cx="743.46" cy="-72" rx="101.28" ry="18"/>
<text text-anchor="middle" x="743.46" y="-68.3" font-family="Times,serif" font-size="14.00">L2a log_wfov_a 1..1</text>
</g>
<!-- trans_wfov_a_l1_l2a&#45;&gt;l2a_wfov_a_log -->
<g id="edge8" class="edge">
<title>trans_wfov_a_l1_l2a&#45;&gt;l2a_wfov_a_log</title>
<path fill="none" stroke="black" stroke-dasharray="5,2" d="M544.47,-72C544.47,-72 632,-72 632,-72"/>
<polygon fill="black" stroke="black" points="632,-75.5 642,-72 632,-68.5 632,-75.5"/>
</g>
<!-- trans_wfov_a_l2a_l2b -->
<g id="node2" class="node">
<title>trans_wfov_a_l2a_l2b</title>
<ellipse fill="none" stroke="black" cx="1054.21" cy="-369" rx="123.99" ry="123.99"/>
<text text-anchor="middle" x="1054.21" y="-372.8" font-family="Times,serif" font-size="14.00">wfov_a Transmutation</text>
<text text-anchor="middle" x="1054.21" y="-357.8" font-family="Times,serif" font-size="14.00">L2a to L2b</text>
</g>
<!-- l2b_wfov_a_prod -->
<g id="node22" class="node">
<title>l2b_wfov_a_prod</title>
<polygon fill="none" stroke="black" points="1465.45,-441 1267.45,-441 1267.45,-405 1465.45,-405 1465.45,-441"/>
<text text-anchor="middle" x="1366.45" y="-419.3" font-family="Times,serif" font-size="14.00">L2b_wfov_a products 1..1</text>
</g>
<!-- trans_wfov_a_l2a_l2b&#45;&gt;l2b_wfov_a_prod -->
<g id="edge18" class="edge">
<title>trans_wfov_a_l2a_l2b&#45;&gt;l2b_wfov_a_prod</title>
<path fill="none" stroke="black" stroke-dasharray="5,2" d="M1165.61,-423C1165.61,-423 1257.29,-423 1257.29,-423"/>
<polygon fill="black" stroke="black" points="1257.29,-426.5 1267.29,-423 1257.29,-419.5 1257.29,-426.5"/>
</g>
<!-- l2b_wfov_a_man -->
<g id="node23" class="node">
<title>l2b_wfov_a_man</title>
<ellipse fill="none" stroke="black" cx="1366.45" cy="-369" rx="128.08" ry="18"/>
<text text-anchor="middle" x="1366.45" y="-365.3" font-family="Times,serif" font-size="14.00">L2b_wfov_a manifest 1..1</text>
</g>
<!-- trans_wfov_a_l2a_l2b&#45;&gt;l2b_wfov_a_man -->
<g id="edge19" class="edge">
<title>trans_wfov_a_l2a_l2b&#45;&gt;l2b_wfov_a_man</title>
<path fill="none" stroke="black" d="M1178.06,-369C1178.06,-369 1228.39,-369 1228.39,-369"/>
<polygon fill="black" stroke="black" points="1228.39,-372.5 1238.39,-369 1228.39,-365.5 1228.39,-372.5"/>
</g>
<!-- l2b_wfov_a_log -->
<g id="node29" class="node">
<title>l2b_wfov_a_log</title>
<ellipse fill="none" stroke="black" cx="1366.45" cy="-315" rx="102.08" ry="18"/>
<text text-anchor="middle" x="1366.45" y="-311.3" font-family="Times,serif" font-size="14.00">L2b_wfov_a log 1..1</text>
</g>
<!-- trans_wfov_a_l2a_l2b&#45;&gt;l2b_wfov_a_log -->
<g id="edge20" class="edge">
<title>trans_wfov_a_l2a_l2b&#45;&gt;l2b_wfov_a_log</title>
<path fill="none" stroke="black" stroke-dasharray="5,2" d="M1165.61,-315C1165.61,-315 1254.2,-315 1254.2,-315"/>
<polygon fill="black" stroke="black" points="1254.2,-318.5 1264.2,-315 1254.2,-311.5 1254.2,-318.5"/>
</g>
<!-- trans_wfov_a_l2b_l3 -->
<g id="node3" class="node">
<title>trans_wfov_a_l2b_l3</title>
<ellipse fill="none" stroke="black" cx="1678.69" cy="-531" rx="123.99" ry="123.99"/>
<text text-anchor="middle" x="1678.69" y="-534.8" font-family="Times,serif" font-size="14.00">wfov_a Transmutation</text>
<text text-anchor="middle" x="1678.69" y="-519.8" font-family="Times,serif" font-size="14.00">L2b to L3</text>
</g>
<!-- l3_wfov_a_prod -->
<g id="node30" class="node">
<title>l3_wfov_a_prod</title>
<polygon fill="none" stroke="black" points="2069.43,-603 1880.43,-603 1880.43,-567 2069.43,-567 2069.43,-603"/>
<text text-anchor="middle" x="1974.93" y="-581.3" font-family="Times,serif" font-size="14.00">L3_wfov_a products 1..1</text>
</g>
<!-- trans_wfov_a_l2b_l3&#45;&gt;l3_wfov_a_prod -->
<g id="edge29" class="edge">
<title>trans_wfov_a_l2b_l3&#45;&gt;l3_wfov_a_prod</title>
<path fill="none" stroke="black" stroke-dasharray="5,2" d="M1790.26,-585C1790.26,-585 1870.4,-585 1870.4,-585"/>
<polygon fill="black" stroke="black" points="1870.4,-588.5 1880.4,-585 1870.4,-581.5 1870.4,-588.5"/>
</g>
<!-- l3_wfov_a_man -->
<g id="node32" class="node">
<title>l3_wfov_a_man</title>
<ellipse fill="none" stroke="black" cx="1974.93" cy="-531" rx="122.38" ry="18"/>
<text text-anchor="middle" x="1974.93" y="-527.3" font-family="Times,serif" font-size="14.00">L3_wfov_a manifest 1..1</text>
</g>
<!-- trans_wfov_a_l2b_l3&#45;&gt;l3_wfov_a_man -->
<g id="edge30" class="edge">
<title>trans_wfov_a_l2b_l3&#45;&gt;l3_wfov_a_man</title>
<path fill="none" stroke="black" d="M1802.61,-531C1802.61,-531 1842.46,-531 1842.46,-531"/>
<polygon fill="black" stroke="black" points="1842.46,-534.5 1852.46,-531 1842.46,-527.5 1842.46,-534.5"/>
</g>
<!-- l3_wfov_a_log -->
<g id="node35" class="node">
<title>l3_wfov_a_log</title>
<ellipse fill="none" stroke="black" cx="1974.93" cy="-477" rx="96.38" ry="18"/>
<text text-anchor="middle" x="1974.93" y="-473.3" font-family="Times,serif" font-size="14.00">L3_wfov_a log 1..1</text>
</g>
<!-- trans_wfov_a_l2b_l3&#45;&gt;l3_wfov_a_log -->
<g id="edge31" class="edge">
<title>trans_wfov_a_l2b_l3&#45;&gt;l3_wfov_a_log</title>
<path fill="none" stroke="black" stroke-dasharray="5,2" d="M1790.26,-477C1790.26,-477 1868.5,-477 1868.5,-477"/>
<polygon fill="black" stroke="black" points="1868.5,-480.5 1878.5,-477 1868.5,-473.5 1868.5,-480.5"/>
</g>
<!-- trans_wfov_a_l3_l4 -->
<g id="node4" class="node">
<title>trans_wfov_a_l3_l4</title>
<ellipse fill="none" stroke="black" cx="2271.16" cy="-639" rx="123.99" ry="123.99"/>
<text text-anchor="middle" x="2271.16" y="-642.8" font-family="Times,serif" font-size="14.00">wfov_a Transmutation</text>
<text text-anchor="middle" x="2271.16" y="-627.8" font-family="Times,serif" font-size="14.00">L3 to L4</text>
</g>
<!-- l4_wfov_a_prod -->
<g id="node36" class="node">
<title>l4_wfov_a_prod</title>
<polygon fill="none" stroke="black" points="2690.9,-711 2501.9,-711 2501.9,-675 2690.9,-675 2690.9,-711"/>
<text text-anchor="middle" x="2596.4" y="-689.3" font-family="Times,serif" font-size="14.00">L4_wfov_a products 1..1</text>
</g>
<!-- trans_wfov_a_l3_l4&#45;&gt;l4_wfov_a_prod -->
<g id="edge37" class="edge">
<title>trans_wfov_a_l3_l4&#45;&gt;l4_wfov_a_prod</title>
<path fill="none" stroke="black" stroke-dasharray="5,2" d="M2382.63,-693C2382.63,-693 2491.86,-693 2491.86,-693"/>
<polygon fill="black" stroke="black" points="2491.86,-696.5 2501.86,-693 2491.86,-689.5 2491.86,-696.5"/>
</g>
<!-- l4_wfov_a_log -->
<g id="node38" class="node">
<title>l4_wfov_a_log</title>
<ellipse fill="none" stroke="black" cx="2596.4" cy="-639" rx="96.38" ry="18"/>
<text text-anchor="middle" x="2596.4" y="-635.3" font-family="Times,serif" font-size="14.00">L4_wfov_a log 1..1</text>
</g>
<!-- trans_wfov_a_l3_l4&#45;&gt;l4_wfov_a_log -->
<g id="edge38" class="edge">
<title>trans_wfov_a_l3_l4&#45;&gt;l4_wfov_a_log</title>
<path fill="none" stroke="black" stroke-dasharray="5,2" d="M2395.05,-639C2395.05,-639 2490.17,-639 2490.17,-639"/>
<polygon fill="black" stroke="black" points="2490.17,-642.5 2500.17,-639 2490.17,-635.5 2490.17,-642.5"/>
</g>
<!-- l4_wfov_a_man -->
<g id="node39" class="node">
<title>l4_wfov_a_man</title>
<ellipse fill="none" stroke="black" cx="2596.4" cy="-585" rx="122.38" ry="18"/>
<text text-anchor="middle" x="2596.4" y="-581.3" font-family="Times,serif" font-size="14.00">L4_wfov_a manifest 1..1</text>
</g>
<!-- trans_wfov_a_l3_l4&#45;&gt;l4_wfov_a_man -->
<g id="edge39" class="edge">
<title>trans_wfov_a_l3_l4&#45;&gt;l4_wfov_a_man</title>
<path fill="none" stroke="black" d="M2382.63,-585C2382.63,-585 2463.93,-585 2463.93,-585"/>
<polygon fill="black" stroke="black" points="2463.93,-588.5 2473.93,-585 2463.93,-581.5 2463.93,-588.5"/>
</g>
<!-- trans_wfov_a_l4_tda -->
<g id="node5" class="node">
<title>trans_wfov_a_l4_tda</title>
<ellipse fill="none" stroke="black" cx="2921.64" cy="-801" rx="123.99" ry="123.99"/>
<text text-anchor="middle" x="2921.64" y="-804.8" font-family="Times,serif" font-size="14.00">wfov_a Transmutation</text>
<text text-anchor="middle" x="2921.64" y="-789.8" font-family="Times,serif" font-size="14.00">L4 to TDA</text>
</g>
<!-- tda_wfov_a_prod -->
<g id="node45" class="node">
<title>tda_wfov_a_prod</title>
<ellipse fill="none" stroke="black" cx="3169.13" cy="-828" rx="87.99" ry="18"/>
<text text-anchor="middle" x="3169.13" y="-824.3" font-family="Times,serif" font-size="14.00">tda_wfov_a_prod</text>
</g>
<!-- trans_wfov_a_l4_tda&#45;&gt;tda_wfov_a_prod -->
<g id="edge47" class="edge">
<title>trans_wfov_a_l4_tda&#45;&gt;tda_wfov_a_prod</title>
<path fill="none" stroke="black" stroke-dasharray="5,2" d="M3042.49,-828C3042.49,-828 3071.06,-828 3071.06,-828"/>
<polygon fill="black" stroke="black" points="3071.06,-831.5 3081.06,-828 3071.06,-824.5 3071.06,-831.5"/>
</g>
<!-- tda_wfov_a_log -->
<g id="node46" class="node">
<title>tda_wfov_a_log</title>
<ellipse fill="none" stroke="black" cx="3169.13" cy="-774" rx="80.69" ry="18"/>
<text text-anchor="middle" x="3169.13" y="-770.3" font-family="Times,serif" font-size="14.00">tda_wfov_a_log</text>
</g>
<!-- trans_wfov_a_l4_tda&#45;&gt;tda_wfov_a_log -->
<g id="edge48" class="edge">
<title>trans_wfov_a_l4_tda&#45;&gt;tda_wfov_a_log</title>
<path fill="none" stroke="black" stroke-dasharray="5,2" d="M3042.49,-774C3042.49,-774 3078.43,-774 3078.43,-774"/>
<polygon fill="black" stroke="black" points="3078.43,-777.5 3088.43,-774 3078.43,-770.5 3078.43,-777.5"/>
</g>
<!-- l1_wfov_a_prod -->
<g id="node6" class="node">
<title>l1_wfov_a_prod</title>
<polygon fill="none" stroke="black" points="230.99,-252 41.99,-252 41.99,-216 230.99,-216 230.99,-252"/>
<text text-anchor="middle" x="136.49" y="-230.3" font-family="Times,serif" font-size="14.00">L1_wfov_a products 1..b</text>
</g>
<!-- l1_wfov_a_prod&#45;&gt;trans_wfov_a_l1_l2a -->
<g id="edge1" class="edge">
<title>l1_wfov_a_prod&#45;&gt;trans_wfov_a_l1_l2a</title>
<path fill="none" stroke="black" stroke-dasharray="5,2" d="M231.03,-232.87C231.03,-232.87 360.33,-232.87 360.33,-232.87"/>
<polygon fill="black" stroke="black" points="360.33,-236.37 370.33,-232.87 360.33,-229.37 360.33,-236.37"/>
</g>
<!-- l1_wfov_a_man -->
<g id="node7" class="node">
<title>l1_wfov_a_man</title>
<ellipse fill="none" stroke="black" cx="136.49" cy="-180" rx="122.38" ry="18"/>
<text text-anchor="middle" x="136.49" y="-176.3" font-family="Times,serif" font-size="14.00">L1_wfov_a manifest 1..1</text>
</g>
<!-- l1_wfov_a_man&#45;&gt;trans_wfov_a_l1_l2a -->
<g id="edge2" class="edge">
<title>l1_wfov_a_man&#45;&gt;trans_wfov_a_l1_l2a</title>
<path fill="none" stroke="black" d="M258.69,-180C258.69,-180 311.25,-180 311.25,-180"/>
<polygon fill="black" stroke="black" points="311.25,-183.5 321.25,-180 311.25,-176.5 311.25,-183.5"/>
</g>
<!-- l1_wfov_a_odir -->
<g id="node8" class="node">
<title>l1_wfov_a_odir</title>
<ellipse fill="none" stroke="black" cx="136.49" cy="-126" rx="136.48" ry="18"/>
<text text-anchor="middle" x="136.49" y="-122.3" font-family="Times,serif" font-size="14.00">L1_wfov_a output path 1..1</text>
</g>
<!-- l1_wfov_a_odir&#45;&gt;trans_wfov_a_l1_l2a -->
<g id="edge3" class="edge">
<title>l1_wfov_a_odir&#45;&gt;trans_wfov_a_l1_l2a</title>
<path fill="none" stroke="black" d="M273.33,-126C273.33,-126 298.79,-126 298.79,-126"/>
<polygon fill="black" stroke="black" points="298.79,-129.5 308.79,-126 298.79,-122.5 298.79,-129.5"/>
</g>
<!-- l1_wfov_a_rec -->
<g id="node9" class="node">
<title>l1_wfov_a_rec</title>
<polygon fill="none" stroke="black" points="209.49,-84 51.49,-84 51.49,-60 209.49,-60 221.49,-72 209.49,-84"/>
<text text-anchor="middle" x="136.49" y="-68.3" font-family="Times,serif" font-size="14.00">L1_wfov_a recipe 1..1</text>
</g>
<!-- l1_wfov_a_rec&#45;&gt;trans_wfov_a_l1_l2a -->
<g id="edge4" class="edge">
<title>l1_wfov_a_rec&#45;&gt;trans_wfov_a_l1_l2a</title>
<path fill="none" stroke="black" d="M221.77,-72C221.77,-72 311.28,-72 311.28,-72"/>
<polygon fill="black" stroke="black" points="311.28,-75.5 321.28,-72 311.28,-68.5 311.28,-75.5"/>
</g>
<!-- l1_wfov_a_nllut -->
<g id="node10" class="node">
<title>l1_wfov_a_nllut</title>
<polygon fill="none" stroke="black" points="240.49,-30 20.49,-30 20.49,-6 240.49,-6 252.49,-18 240.49,-30"/>
<text text-anchor="middle" x="136.49" y="-14.3" font-family="Times,serif" font-size="14.00">L1_wfov_a non&#45;linear LUT 1..1</text>
</g>
<!-- l1_wfov_a_nllut&#45;&gt;trans_wfov_a_l1_l2a -->
<g id="edge5" class="edge">
<title>l1_wfov_a_nllut&#45;&gt;trans_wfov_a_l1_l2a</title>
<path fill="none" stroke="black" d="M252.72,-19.13C252.72,-19.13 360.15,-19.13 360.15,-19.13"/>
<polygon fill="black" stroke="black" points="360.15,-22.63 370.15,-19.13 360.15,-15.63 360.15,-22.63"/>
</g>
<!-- l2a_wfov_a_prod&#45;&gt;trans_wfov_a_l2a_l2b -->
<g id="edge9" class="edge">
<title>l2a_wfov_a_prod&#45;&gt;trans_wfov_a_l2a_l2b</title>
<path fill="none" stroke="black" stroke-dasharray="5,2" d="M836.87,-198.38C836.87,-222.28 836.87,-261 836.87,-261 836.87,-261 983.67,-261 983.67,-261"/>
<polygon fill="black" stroke="black" points="983.67,-264.5 993.67,-261 983.67,-257.5 983.67,-264.5"/>
</g>
<!-- l2a_wfov_a_man&#45;&gt;trans_wfov_a_l2a_l2b -->
<g id="edge21" class="edge">
<title>l2a_wfov_a_man&#45;&gt;trans_wfov_a_l2a_l2b</title>
<path fill="none" stroke="black" d="M857.87,-134.16C857.87,-162.73 857.87,-256.5 857.87,-256.5 857.87,-256.5 992.62,-256.5 992.62,-256.5"/>
<polygon fill="black" stroke="black" points="992.62,-260 1002.62,-256.5 992.62,-253 992.62,-260"/>
</g>
<!-- l2a_wfov_a_odir -->
<g id="node13" class="node">
<title>l2a_wfov_a_odir</title>
<ellipse fill="none" stroke="black" cx="743.46" cy="-614" rx="141.88" ry="18"/>
<text text-anchor="middle" x="743.46" y="-610.3" font-family="Times,serif" font-size="14.00">L2a_wfov_a output path 1..1</text>
</g>
<!-- l2a_wfov_a_odir&#45;&gt;trans_wfov_a_l2a_l2b -->
<g id="edge10" class="edge">
<title>l2a_wfov_a_odir&#45;&gt;trans_wfov_a_l2a_l2b</title>
<path fill="none" stroke="black" d="M827.43,-599.5C931.66,-599.5 1095.87,-599.5 1095.87,-599.5 1095.87,-599.5 1095.87,-495.6 1095.87,-495.6"/>
<polygon fill="black" stroke="black" points="1099.37,-495.6 1095.87,-485.6 1092.37,-495.6 1099.37,-495.6"/>
</g>
<!-- l2a_wfov_a_rec -->
<g id="node14" class="node">
<title>l2a_wfov_a_rec</title>
<polygon fill="none" stroke="black" points="820.96,-572 653.96,-572 653.96,-548 820.96,-548 832.96,-560 820.96,-572"/>
<text text-anchor="middle" x="743.46" y="-556.3" font-family="Times,serif" font-size="14.00">L2a_wfov_a recipe 1..1</text>
</g>
<!-- l2a_wfov_a_rec&#45;&gt;trans_wfov_a_l2a_l2b -->
<g id="edge11" class="edge">
<title>l2a_wfov_a_rec&#45;&gt;trans_wfov_a_l2a_l2b</title>
<path fill="none" stroke="black" d="M833.13,-545.5C911.84,-545.5 1013.87,-545.5 1013.87,-545.5 1013.87,-545.5 1013.87,-496.24 1013.87,-496.24"/>
<polygon fill="black" stroke="black" points="1017.37,-496.24 1013.87,-486.24 1010.37,-496.24 1017.37,-496.24"/>
</g>
<!-- l2a_wfov_a_cti -->
<g id="node15" class="node">
<title>l2a_wfov_a_cti</title>
<polygon fill="none" stroke="black" points="882.46,-518 592.46,-518 592.46,-494 882.46,-494 894.46,-506 882.46,-518"/>
<text text-anchor="middle" x="743.46" y="-502.3" font-family="Times,serif" font-size="14.00">L2a_wfov_a charge xfer inefficiency 1..1</text>
</g>
<!-- l2a_wfov_a_cti&#45;&gt;trans_wfov_a_l2a_l2b -->
<g id="edge12" class="edge">
<title>l2a_wfov_a_cti&#45;&gt;trans_wfov_a_l2a_l2b</title>
<path fill="none" stroke="black" d="M882.87,-487.84C882.87,-482.96 882.87,-479 882.87,-479 882.87,-479 987.16,-479 987.16,-479"/>
<polygon fill="black" stroke="black" points="987.16,-482.5 997.16,-479 987.16,-475.5 987.16,-482.5"/>
</g>
<!-- l2a_wfov_a_dnb -->
<g id="node16" class="node">
<title>l2a_wfov_a_dnb</title>
<polygon fill="none" stroke="black" points="863.96,-464 610.96,-464 610.96,-438 863.96,-438 875.96,-451 863.96,-464"/>
<text text-anchor="middle" x="743.46" y="-454.8" font-family="Times,serif" font-size="14.00">L2a_wfov_a CIC/Dark Current/FPN</text>
<text text-anchor="middle" x="743.46" y="-439.8" font-family="Times,serif" font-size="14.00"> or master dark 1..1</text>
</g>
<!-- l2a_wfov_a_dnb&#45;&gt;trans_wfov_a_l2a_l2b -->
<g id="edge13" class="edge">
<title>l2a_wfov_a_dnb&#45;&gt;trans_wfov_a_l2a_l2b</title>
<path fill="none" stroke="black" d="M876.15,-451C876.15,-451 951.39,-451 951.39,-451"/>
<polygon fill="black" stroke="black" points="951.39,-454.5 961.39,-451 951.39,-447.5 951.39,-454.5"/>
</g>
<!-- l2a_wfov_a_mbpm -->
<g id="node17" class="node">
<title>l2a_wfov_a_mbpm</title>
<polygon fill="none" stroke="black" points="876.46,-408 598.46,-408 598.46,-384 876.46,-384 888.46,-396 876.46,-408"/>
<text text-anchor="middle" x="743.46" y="-392.3" font-family="Times,serif" font-size="14.00">L2a_wfov_a master bad pixel map 1..1</text>
</g>
<!-- l2a_wfov_a_mbpm&#45;&gt;trans_wfov_a_l2a_l2b -->
<g id="edge14" class="edge">
<title>l2a_wfov_a_mbpm&#45;&gt;trans_wfov_a_l2a_l2b</title>
<path fill="none" stroke="black" d="M888.83,-396C888.83,-396 923.19,-396 923.19,-396"/>
<polygon fill="black" stroke="black" points="923.19,-399.5 933.19,-396 923.19,-392.5 923.19,-399.5"/>
</g>
<!-- l2a_wfov_a_ff -->
<g id="node18" class="node">
<title>l2a_wfov_a_ff</title>
<polygon fill="none" stroke="black" points="831.46,-354 643.46,-354 643.46,-330 831.46,-330 843.46,-342 831.46,-354"/>
<text text-anchor="middle" x="743.46" y="-338.3" font-family="Times,serif" font-size="14.00">L2a_wfov_a flat fields 1..1</text>
</g>
<!-- l2a_wfov_a_ff&#45;&gt;trans_wfov_a_l2a_l2b -->
<g id="edge15" class="edge">
<title>l2a_wfov_a_ff&#45;&gt;trans_wfov_a_l2a_l2b</title>
<path fill="none" stroke="black" d="M843.49,-342C843.49,-342 923.17,-342 923.17,-342"/>
<polygon fill="black" stroke="black" points="923.17,-345.5 933.17,-342 923.17,-338.5 923.17,-345.5"/>
</g>
<!-- l2a_wfov_a_emg -->
<g id="node19" class="node">
<title>l2a_wfov_a_emg</title>
<polygon fill="none" stroke="black" points="828.46,-300 646.46,-300 646.46,-276 828.46,-276 840.46,-288 828.46,-300"/>
<text text-anchor="middle" x="743.46" y="-284.3" font-family="Times,serif" font-size="14.00">L2a_wfov_a EM gain 1..1</text>
</g>
<!-- l2a_wfov_a_emg&#45;&gt;trans_wfov_a_l2a_l2b -->
<g id="edge16" class="edge">
<title>l2a_wfov_a_emg&#45;&gt;trans_wfov_a_l2a_l2b</title>
<path fill="none" stroke="black" d="M840.51,-288C840.51,-288 950.56,-288 950.56,-288"/>
<polygon fill="black" stroke="black" points="950.56,-291.5 960.56,-288 950.56,-284.5 950.56,-291.5"/>
</g>
<!-- l2a_wfov_a_kgain -->
<g id="node20" class="node">
<title>l2a_wfov_a_kgain</title>
<polygon fill="none" stroke="black" points="819.46,-246 655.46,-246 655.46,-222 819.46,-222 831.46,-234 819.46,-246"/>
<text text-anchor="middle" x="743.46" y="-230.3" font-family="Times,serif" font-size="14.00">L2a_wfov_a Kgain 1..1</text>
</g>
<!-- l2a_wfov_a_kgain&#45;&gt;trans_wfov_a_l2a_l2b -->
<g id="edge17" class="edge">
<title>l2a_wfov_a_kgain&#45;&gt;trans_wfov_a_l2a_l2b</title>
<path fill="none" stroke="black" d="M743.87,-252.32C743.87,-259.25 743.87,-265.5 743.87,-265.5 743.87,-265.5 976.1,-265.5 976.1,-265.5"/>
<polygon fill="black" stroke="black" points="976.1,-269 986.1,-265.5 976.1,-262 976.1,-269"/>
</g>
<!-- l2b_wfov_a_prod&#45;&gt;trans_wfov_a_l2b_l3 -->
<g id="edge22" class="edge">
<title>l2b_wfov_a_prod&#45;&gt;trans_wfov_a_l2b_l3</title>
<path fill="none" stroke="black" stroke-dasharray="5,2" d="M1465.68,-429.75C1465.68,-429.75 1597.45,-429.75 1597.45,-429.75"/>
<polygon fill="black" stroke="black" points="1597.45,-433.25 1607.45,-429.75 1597.45,-426.25 1597.45,-433.25"/>
</g>
<!-- l2b_wfov_a_man&#45;&gt;trans_wfov_a_l2b_l3 -->
<g id="edge23" class="edge">
<title>l2b_wfov_a_man&#45;&gt;trans_wfov_a_l2b_l3</title>
<path fill="none" stroke="black" d="M1490.87,-373.57C1490.87,-385.82 1490.87,-418.5 1490.87,-418.5 1490.87,-418.5 1616.87,-418.5 1616.87,-418.5"/>
<polygon fill="black" stroke="black" points="1616.87,-422 1626.87,-418.5 1616.87,-415 1616.87,-422"/>
</g>
<!-- l2b_wfov_a_odir -->
<g id="node24" class="node">
<title>l2b_wfov_a_odir</title>
<ellipse fill="none" stroke="black" cx="1366.45" cy="-693" rx="142.17" ry="18"/>
<text text-anchor="middle" x="1366.45" y="-689.3" font-family="Times,serif" font-size="14.00">L2b_wfov_a output path 1..1</text>
</g>
<!-- l2b_wfov_a_odir&#45;&gt;trans_wfov_a_l2b_l3 -->
<g id="edge24" class="edge">
<title>l2b_wfov_a_odir&#45;&gt;trans_wfov_a_l2b_l3</title>
<path fill="none" stroke="black" d="M1482.87,-682.5C1482.87,-667.97 1482.87,-643.5 1482.87,-643.5 1482.87,-643.5 1616.99,-643.5 1616.99,-643.5"/>
<polygon fill="black" stroke="black" points="1616.99,-647 1626.99,-643.5 1616.99,-640 1616.99,-647"/>
</g>
<!-- l2b_wfov_a_rec -->
<g id="node25" class="node">
<title>l2b_wfov_a_rec</title>
<polygon fill="none" stroke="black" points="1443.95,-651 1276.95,-651 1276.95,-627 1443.95,-627 1455.95,-639 1443.95,-651"/>
<text text-anchor="middle" x="1366.45" y="-635.3" font-family="Times,serif" font-size="14.00">L2b_wfov_a recipe 1..1</text>
</g>
<!-- l2b_wfov_a_rec&#45;&gt;trans_wfov_a_l2b_l3 -->
<g id="edge25" class="edge">
<title>l2b_wfov_a_rec&#45;&gt;trans_wfov_a_l2b_l3</title>
<path fill="none" stroke="black" d="M1456.35,-632.25C1456.35,-632.25 1597.47,-632.25 1597.47,-632.25"/>
<polygon fill="black" stroke="black" points="1597.47,-635.75 1607.47,-632.25 1597.47,-628.75 1597.47,-635.75"/>
</g>
<!-- l2b_wfov_a_excicrf -->
<g id="node26" class="node">
<title>l2b_wfov_a_excicrf</title>
<polygon fill="none" stroke="black" points="1499.95,-597 1220.95,-597 1220.95,-573 1499.95,-573 1511.95,-585 1499.95,-597"/>
<text text-anchor="middle" x="1366.45" y="-581.3" font-family="Times,serif" font-size="14.00">L2b_wfov_a EXCAM ICRF location 1..1</text>
</g>
<!-- l2b_wfov_a_excicrf&#45;&gt;trans_wfov_a_l2b_l3 -->
<g id="edge26" class="edge">
<title>l2b_wfov_a_excicrf&#45;&gt;trans_wfov_a_l2b_l3</title>
<path fill="none" stroke="black" d="M1512.06,-585C1512.06,-585 1556.94,-585 1556.94,-585"/>
<polygon fill="black" stroke="black" points="1556.94,-588.5 1566.94,-585 1556.94,-581.5 1556.94,-588.5"/>
</g>
<!-- l2b_wfov_a_excfovps -->
<g id="node27" class="node">
<title>l2b_wfov_a_excfovps</title>
<polygon fill="none" stroke="black" points="1506.95,-543 1213.95,-543 1213.95,-519 1506.95,-519 1518.95,-531 1506.95,-543"/>
<text text-anchor="middle" x="1366.45" y="-527.3" font-family="Times,serif" font-size="14.00">L2b_wfov_a EXCAM FOV pixel scale 1..1</text>
</g>
<!-- l2b_wfov_a_excfovps&#45;&gt;trans_wfov_a_l2b_l3 -->
<g id="edge27" class="edge">
<title>l2b_wfov_a_excfovps&#45;&gt;trans_wfov_a_l2b_l3</title>
<path fill="none" stroke="black" d="M1519.37,-531C1519.37,-531 1544.86,-531 1544.86,-531"/>
<polygon fill="black" stroke="black" points="1544.86,-534.5 1554.86,-531 1544.86,-527.5 1544.86,-534.5"/>
</g>
<!-- l2b_wfov_a_distm -->
<g id="node28" class="node">
<title>l2b_wfov_a_distm</title>
<polygon fill="none" stroke="black" points="1474.45,-489 1246.45,-489 1246.45,-465 1474.45,-465 1486.45,-477 1474.45,-489"/>
<text text-anchor="middle" x="1366.45" y="-473.3" font-family="Times,serif" font-size="14.00">L2b_wfov_a distortion map 1..1</text>
</g>
<!-- l2b_wfov_a_distm&#45;&gt;trans_wfov_a_l2b_l3 -->
<g id="edge28" class="edge">
<title>l2b_wfov_a_distm&#45;&gt;trans_wfov_a_l2b_l3</title>
<path fill="none" stroke="black" d="M1486.73,-477C1486.73,-477 1557.18,-477 1557.18,-477"/>
<polygon fill="black" stroke="black" points="1557.18,-480.5 1567.18,-477 1557.18,-473.5 1557.18,-480.5"/>
</g>
<!-- l3_wfov_a_prod&#45;&gt;trans_wfov_a_l3_l4 -->
<g id="edge32" class="edge">
<title>l3_wfov_a_prod&#45;&gt;trans_wfov_a_l3_l4</title>
<path fill="none" stroke="black" stroke-dasharray="5,2" d="M2069.47,-585C2069.47,-585 2149.68,-585 2149.68,-585"/>
<polygon fill="black" stroke="black" points="2149.68,-588.5 2159.68,-585 2149.68,-581.5 2149.68,-588.5"/>
</g>
<!-- l3_wfov_a_odir -->
<g id="node31" class="node">
<title>l3_wfov_a_odir</title>
<ellipse fill="none" stroke="black" cx="1974.93" cy="-747" rx="136.48" ry="18"/>
<text text-anchor="middle" x="1974.93" y="-743.3" font-family="Times,serif" font-size="14.00">L3_wfov_a output path 1..1</text>
</g>
<!-- l3_wfov_a_odir&#45;&gt;trans_wfov_a_l3_l4 -->
<g id="edge34" class="edge">
<title>l3_wfov_a_odir&#45;&gt;trans_wfov_a_l3_l4</title>
<path fill="none" stroke="black" d="M2111.34,-745.87C2111.34,-745.87 2198.63,-745.87 2198.63,-745.87"/>
<polygon fill="black" stroke="black" points="2198.63,-749.37 2208.63,-745.87 2198.63,-742.37 2198.63,-749.37"/>
</g>
<!-- l3_wfov_a_man&#45;&gt;trans_wfov_a_l3_l4 -->
<g id="edge33" class="edge">
<title>l3_wfov_a_man&#45;&gt;trans_wfov_a_l3_l4</title>
<path fill="none" stroke="black" d="M2097.12,-532.13C2097.12,-532.13 2198.38,-532.13 2198.38,-532.13"/>
<polygon fill="black" stroke="black" points="2198.38,-535.63 2208.38,-532.13 2198.38,-528.63 2198.38,-535.63"/>
</g>
<!-- l3_wfov_a_rec -->
<g id="node33" class="node">
<title>l3_wfov_a_rec</title>
<polygon fill="none" stroke="black" points="2047.93,-705 1889.93,-705 1889.93,-681 2047.93,-681 2059.93,-693 2047.93,-705"/>
<text text-anchor="middle" x="1974.93" y="-689.3" font-family="Times,serif" font-size="14.00">L3_wfov_a recipe 1..1</text>
</g>
<!-- l3_wfov_a_rec&#45;&gt;trans_wfov_a_l3_l4 -->
<g id="edge35" class="edge">
<title>l3_wfov_a_rec&#45;&gt;trans_wfov_a_l3_l4</title>
<path fill="none" stroke="black" d="M2060.21,-693C2060.21,-693 2149.72,-693 2149.72,-693"/>
<polygon fill="black" stroke="black" points="2149.72,-696.5 2159.72,-693 2149.72,-689.5 2149.72,-696.5"/>
</g>
<!-- l3_wfov_a_cal -->
<g id="node34" class="node">
<title>l3_wfov_a_cal</title>
<polygon fill="none" stroke="black" points="2064.43,-651 1873.43,-651 1873.43,-627 2064.43,-627 2076.43,-639 2064.43,-651"/>
<text text-anchor="middle" x="1974.93" y="-635.3" font-family="Times,serif" font-size="14.00">L3_wfov_a calibration 1..1</text>
</g>
<!-- l3_wfov_a_cal&#45;&gt;trans_wfov_a_l3_l4 -->
<g id="edge36" class="edge">
<title>l3_wfov_a_cal&#45;&gt;trans_wfov_a_l3_l4</title>
<path fill="none" stroke="black" d="M2076.46,-639C2076.46,-639 2137.22,-639 2137.22,-639"/>
<polygon fill="black" stroke="black" points="2137.22,-642.5 2147.22,-639 2137.22,-635.5 2137.22,-642.5"/>
</g>
<!-- l4_wfov_a_prod&#45;&gt;trans_wfov_a_l4_tda -->
<g id="edge40" class="edge">
<title>l4_wfov_a_prod&#45;&gt;trans_wfov_a_l4_tda</title>
<path fill="none" stroke="black" stroke-dasharray="5,2" d="M2690.91,-699.75C2690.91,-699.75 2840.45,-699.75 2840.45,-699.75"/>
<polygon fill="black" stroke="black" points="2840.45,-703.25 2850.45,-699.75 2840.45,-696.25 2840.45,-703.25"/>
</g>
<!-- l4_wfov_a_odir -->
<g id="node37" class="node">
<title>l4_wfov_a_odir</title>
<ellipse fill="none" stroke="black" cx="2596.4" cy="-963" rx="136.48" ry="18"/>
<text text-anchor="middle" x="2596.4" y="-959.3" font-family="Times,serif" font-size="14.00">L4_wfov_a output path 1..1</text>
</g>
<!-- l4_wfov_a_odir&#45;&gt;trans_wfov_a_l4_tda -->
<g id="edge42" class="edge">
<title>l4_wfov_a_odir&#45;&gt;trans_wfov_a_l4_tda</title>
<path fill="none" stroke="black" d="M2707.87,-952.5C2707.87,-937.97 2707.87,-913.5 2707.87,-913.5 2707.87,-913.5 2859.9,-913.5 2859.9,-913.5"/>
<polygon fill="black" stroke="black" points="2859.9,-917 2869.9,-913.5 2859.9,-910 2859.9,-917"/>
</g>
<!-- l4_wfov_a_man&#45;&gt;trans_wfov_a_l4_tda -->
<g id="edge41" class="edge">
<title>l4_wfov_a_man&#45;&gt;trans_wfov_a_l4_tda</title>
<path fill="none" stroke="black" d="M2705.87,-593.12C2705.87,-617.52 2705.87,-688.5 2705.87,-688.5 2705.87,-688.5 2859.96,-688.5 2859.96,-688.5"/>
<polygon fill="black" stroke="black" points="2859.96,-692 2869.96,-688.5 2859.96,-685 2859.96,-692"/>
</g>
<!-- l4_wfov_a_rec -->
<g id="node40" class="node">
<title>l4_wfov_a_rec</title>
<polygon fill="none" stroke="black" points="2669.4,-921 2511.4,-921 2511.4,-897 2669.4,-897 2681.4,-909 2669.4,-921"/>
<text text-anchor="middle" x="2596.4" y="-905.3" font-family="Times,serif" font-size="14.00">L4_wfov_a recipe 1..1</text>
</g>
<!-- l4_wfov_a_rec&#45;&gt;trans_wfov_a_l4_tda -->
<g id="edge43" class="edge">
<title>l4_wfov_a_rec&#45;&gt;trans_wfov_a_l4_tda</title>
<path fill="none" stroke="black" d="M2681.43,-902.25C2681.43,-902.25 2840.31,-902.25 2840.31,-902.25"/>
<polygon fill="black" stroke="black" points="2840.31,-905.75 2850.31,-902.25 2840.31,-898.75 2840.31,-905.75"/>
</g>
<!-- l4_wfov_a_afcal -->
<g id="node41" class="node">
<title>l4_wfov_a_afcal</title>
<polygon fill="none" stroke="black" points="2737.4,-867 2443.4,-867 2443.4,-843 2737.4,-843 2749.4,-855 2737.4,-867"/>
<text text-anchor="middle" x="2596.4" y="-851.3" font-family="Times,serif" font-size="14.00">L4_wfov_a absolute flux calibrations 1..1</text>
</g>
<!-- l4_wfov_a_afcal&#45;&gt;trans_wfov_a_l4_tda -->
<g id="edge44" class="edge">
<title>l4_wfov_a_afcal&#45;&gt;trans_wfov_a_l4_tda</title>
<path fill="none" stroke="black" d="M2749.5,-855C2749.5,-855 2800.1,-855 2800.1,-855"/>
<polygon fill="black" stroke="black" points="2800.1,-858.5 2810.1,-855 2800.1,-851.5 2800.1,-858.5"/>
</g>
<!-- l4_wfov_a_ctcal -->
<g id="node42" class="node">
<title>l4_wfov_a_ctcal</title>
<polygon fill="none" stroke="black" points="2749.9,-813 2430.9,-813 2430.9,-789 2749.9,-789 2761.9,-801 2749.9,-813"/>
<text text-anchor="middle" x="2596.4" y="-797.3" font-family="Times,serif" font-size="14.00">L4_wfov_a core throughput calibrations 1..1</text>
</g>
<!-- l4_wfov_a_ctcal&#45;&gt;trans_wfov_a_l4_tda -->
<g id="edge45" class="edge">
<title>l4_wfov_a_ctcal&#45;&gt;trans_wfov_a_l4_tda</title>
<path fill="none" stroke="black" d="M2762.36,-801C2762.36,-801 2787.74,-801 2787.74,-801"/>
<polygon fill="black" stroke="black" points="2787.74,-804.5 2797.74,-801 2787.74,-797.5 2787.74,-804.5"/>
</g>
<!-- l4_wfov_a_ndfilt -->
<g id="node43" class="node">
<title>l4_wfov_a_ndfilt</title>
<polygon fill="none" stroke="black" points="2678.4,-759 2502.4,-759 2502.4,-735 2678.4,-735 2690.4,-747 2678.4,-759"/>
<text text-anchor="middle" x="2596.4" y="-743.3" font-family="Times,serif" font-size="14.00">L4_wfov_a ND filter 1..1</text>
</g>
<!-- l4_wfov_a_ndfilt&#45;&gt;trans_wfov_a_l4_tda -->
<g id="edge46" class="edge">
<title>l4_wfov_a_ndfilt&#45;&gt;trans_wfov_a_l4_tda</title>
<path fill="none" stroke="black" d="M2690.48,-747C2690.48,-747 2800.25,-747 2800.25,-747"/>
<polygon fill="black" stroke="black" points="2800.25,-750.5 2810.25,-747 2800.25,-743.5 2800.25,-750.5"/>
</g>
<!-- tda_wfov_a_man -->
<g id="node44" class="node">
<title>tda_wfov_a_man</title>
<ellipse fill="none" stroke="black" cx="136.49" cy="-288" rx="126.18" ry="18"/>
<text text-anchor="middle" x="136.49" y="-284.3" font-family="Times,serif" font-size="14.00">tda_wfov_a manifest 1..1</text>
</g>
</g>
</svg>
