<?xml version="1.0" encoding="UTF-8" standalone="no"?>
<!DOCTYPE svg PUBLIC "-//W3C//DTD SVG 1.1//EN"
 "http://www.w3.org/Graphics/SVG/1.1/DTD/svg11.dtd">
<!-- Generated by graphviz version 2.43.0 (0)
 -->
<!-- Title: AbsFluxClerks Pages: 1 -->
<svg width="896pt" height="588pt"
 viewBox="0.00 0.00 895.97 588.09" xmlns="http://www.w3.org/2000/svg" xmlns:xlink="http://www.w3.org/1999/xlink">
<g id="graph0" class="graph" transform="scale(1 1) rotate(0) translate(4 584.09)">
<title>AbsFluxClerks</title>
<polygon fill="white" stroke="transparent" points="-4,4 -4,-584.09 891.97,-584.09 891.97,4 -4,4"/>
<!-- alarm_cal -->
<g id="node1" class="node">
<title>alarm_cal</title>
<text text-anchor="middle" x="91" y="-203.3" font-family="Times,serif" font-size="14.00">User requested update</text>
</g>
<!-- calib -->
<g id="node4" class="node">
<title>calib</title>
<ellipse fill="none" stroke="black" cx="367.49" cy="-180" rx="62.29" ry="62.29"/>
<text text-anchor="middle" x="367.49" y="-176.3" font-family="Times,serif" font-size="14.00">Calibration</text>
</g>
<!-- alarm_cal&#45;&gt;calib -->
<g id="edge1" class="edge">
<title>alarm_cal&#45;&gt;calib</title>
<path fill="none" stroke="black" stroke-dasharray="5,2" d="M182.3,-207C182.3,-207 300.94,-207 300.94,-207"/>
<polygon fill="black" stroke="black" points="300.94,-210.5 310.94,-207 300.94,-203.5 300.94,-210.5"/>
</g>
<!-- alarm_cnf -->
<g id="node2" class="node">
<title>alarm_cnf</title>
<text text-anchor="middle" x="91" y="-149.3" font-family="Times,serif" font-size="14.00">User requested update</text>
</g>
<!-- alarm_cnf&#45;&gt;calib -->
<g id="edge2" class="edge">
<title>alarm_cnf&#45;&gt;calib</title>
<path fill="none" stroke="black" stroke-dasharray="5,2" d="M182.3,-153C182.3,-153 300.94,-153 300.94,-153"/>
<polygon fill="black" stroke="black" points="300.94,-156.5 310.94,-153 300.94,-149.5 300.94,-156.5"/>
</g>
<!-- alarm_rec -->
<g id="node3" class="node">
<title>alarm_rec</title>
<text text-anchor="middle" x="91" y="-392.3" font-family="Times,serif" font-size="14.00">User requested update</text>
</g>
<!-- recipe -->
<g id="node6" class="node">
<title>recipe</title>
<ellipse fill="none" stroke="black" cx="367.49" cy="-396" rx="42.49" ry="42.49"/>
<text text-anchor="middle" x="367.49" y="-392.3" font-family="Times,serif" font-size="14.00">Recipe</text>
</g>
<!-- alarm_rec&#45;&gt;recipe -->
<g id="edge3" class="edge">
<title>alarm_rec&#45;&gt;recipe</title>
<path fill="none" stroke="black" stroke-dasharray="5,2" d="M182.3,-396C182.3,-396 315.05,-396 315.05,-396"/>
<polygon fill="black" stroke="black" points="315.05,-399.5 325.05,-396 315.05,-392.5 315.05,-399.5"/>
</g>
<!-- l1_cal_absflux_nllut -->
<g id="node9" class="node">
<title>l1_cal_absflux_nllut</title>
<polygon fill="none" stroke="black" points="808.97,-354 619.97,-354 619.97,-330 808.97,-330 820.97,-342 808.97,-354"/>
<text text-anchor="middle" x="720.47" y="-338.3" font-family="Times,serif" font-size="14.00">non linear calibration 1..1</text>
</g>
<!-- calib&#45;&gt;l1_cal_absflux_nllut -->
<g id="edge4" class="edge">
<title>calib&#45;&gt;l1_cal_absflux_nllut</title>
<path fill="none" stroke="black" d="M416.97,-218.05C416.97,-265.06 416.97,-338.88 416.97,-338.88 416.97,-338.88 609.83,-338.88 609.83,-338.88"/>
<polygon fill="black" stroke="black" points="609.83,-342.38 619.83,-338.88 609.83,-335.38 609.83,-342.38"/>
</g>
<!-- l2a_cal_absflux_mbpm -->
<g id="node10" class="node">
<title>l2a_cal_absflux_mbpm</title>
<polygon fill="none" stroke="black" points="823.97,-300 604.97,-300 604.97,-276 823.97,-276 835.97,-288 823.97,-300"/>
<text text-anchor="middle" x="720.47" y="-284.3" font-family="Times,serif" font-size="14.00">cal_absflux bad pixel map 1..1</text>
</g>
<!-- calib&#45;&gt;l2a_cal_absflux_mbpm -->
<g id="edge5" class="edge">
<title>calib&#45;&gt;l2a_cal_absflux_mbpm</title>
<path fill="none" stroke="black" d="M423.97,-206.7C423.97,-238.68 423.97,-288 423.97,-288 423.97,-288 594.56,-288 594.56,-288"/>
<polygon fill="black" stroke="black" points="594.56,-291.5 604.56,-288 594.56,-284.5 594.56,-291.5"/>
</g>
<!-- l2a_cal_absflux_dnb -->
<g id="node11" class="node">
<title>l2a_cal_absflux_dnb</title>
<polygon fill="none" stroke="black" points="875.97,-246 552.97,-246 552.97,-222 875.97,-222 887.97,-234 875.97,-246"/>
<text text-anchor="middle" x="720.47" y="-230.3" font-family="Times,serif" font-size="14.00">cal_absflux dark (CIC/FPN/dark current) 1..1</text>
</g>
<!-- calib&#45;&gt;l2a_cal_absflux_dnb -->
<g id="edge6" class="edge">
<title>calib&#45;&gt;l2a_cal_absflux_dnb</title>
<path fill="none" stroke="black" d="M405.93,-229.2C405.93,-229.2 542.65,-229.2 542.65,-229.2"/>
<polygon fill="black" stroke="black" points="542.65,-232.7 552.65,-229.2 542.64,-225.7 542.65,-232.7"/>
</g>
<!-- l2a_cal_absflux_cti -->
<g id="node12" class="node">
<title>l2a_cal_absflux_cti</title>
<polygon fill="none" stroke="black" points="865.47,-192 563.47,-192 563.47,-168 865.47,-168 877.47,-180 865.47,-192"/>
<text text-anchor="middle" x="720.47" y="-176.3" font-family="Times,serif" font-size="14.00">cal_absflux charge transfer efficiency 1..1</text>
</g>
<!-- calib&#45;&gt;l2a_cal_absflux_cti -->
<g id="edge7" class="edge">
<title>calib&#45;&gt;l2a_cal_absflux_cti</title>
<path fill="none" stroke="black" d="M430.19,-180C430.19,-180 553.23,-180 553.23,-180"/>
<polygon fill="black" stroke="black" points="553.23,-183.5 563.23,-180 553.23,-176.5 553.23,-183.5"/>
</g>
<!-- l2a_cal_absflux_ff -->
<g id="node13" class="node">
<title>l2a_cal_absflux_ff</title>
<polygon fill="none" stroke="black" points="802.97,-138 625.97,-138 625.97,-114 802.97,-114 814.97,-126 802.97,-138"/>
<text text-anchor="middle" x="720.47" y="-122.3" font-family="Times,serif" font-size="14.00">cal_absflux flat field 1..1</text>
</g>
<!-- calib&#45;&gt;l2a_cal_absflux_ff -->
<g id="edge8" class="edge">
<title>calib&#45;&gt;l2a_cal_absflux_ff</title>
<path fill="none" stroke="black" d="M405.93,-130.8C405.93,-130.8 615.8,-130.8 615.8,-130.8"/>
<polygon fill="black" stroke="black" points="615.8,-134.3 625.8,-130.8 615.8,-127.3 615.8,-134.3"/>
</g>
<!-- l2a_cal_absflux_kgain -->
<g id="node14" class="node">
<title>l2a_cal_absflux_kgain</title>
<polygon fill="none" stroke="black" points="795.47,-84 633.47,-84 633.47,-60 795.47,-60 807.47,-72 795.47,-84"/>
<text text-anchor="middle" x="720.47" y="-68.3" font-family="Times,serif" font-size="14.00">cal_absflux k&#45;gain 1..1</text>
</g>
<!-- calib&#45;&gt;l2a_cal_absflux_kgain -->
<g id="edge9" class="edge">
<title>calib&#45;&gt;l2a_cal_absflux_kgain</title>
<path fill="none" stroke="black" d="M388.97,-121.26C388.97,-95.93 388.97,-72 388.97,-72 388.97,-72 623.38,-72 623.38,-72"/>
<polygon fill="black" stroke="black" points="623.38,-75.5 633.38,-72 623.38,-68.5 623.38,-75.5"/>
</g>
<!-- l2a_cal_absflux_emg -->
<g id="node15" class="node">
<title>l2a_cal_absflux_emg</title>
<polygon fill="none" stroke="black" points="803.97,-30 624.97,-30 624.97,-6 803.97,-6 815.97,-18 803.97,-30"/>
<text text-anchor="middle" x="720.47" y="-14.3" font-family="Times,serif" font-size="14.00">cal_absflux EM gain 1..1</text>
</g>
<!-- calib&#45;&gt;l2a_cal_absflux_emg -->
<g id="edge10" class="edge">
<title>calib&#45;&gt;l2a_cal_absflux_emg</title>
<path fill="none" stroke="black" d="M346.97,-121.06C346.97,-74.74 346.97,-18 346.97,-18 346.97,-18 614.77,-18 614.77,-18"/>
<polygon fill="black" stroke="black" points="614.77,-21.5 624.77,-18 614.77,-14.5 614.77,-21.5"/>
</g>
<!-- config -->
<g id="node5" class="node">
<title>config</title>
<ellipse fill="none" stroke="black" cx="91" cy="-506" rx="74.19" ry="74.19"/>
<text text-anchor="middle" x="91" y="-502.3" font-family="Times,serif" font-size="14.00">Configuration</text>
</g>
<!-- l1_cal_absflux_odir -->
<g id="node7" class="node">
<title>l1_cal_absflux_odir</title>
<ellipse fill="none" stroke="black" cx="367.49" cy="-506" rx="149.47" ry="18"/>
<text text-anchor="middle" x="367.49" y="-502.3" font-family="Times,serif" font-size="14.00">Output path for L1_eng_a 1..1</text>
</g>
<!-- config&#45;&gt;l1_cal_absflux_odir -->
<g id="edge11" class="edge">
<title>config&#45;&gt;l1_cal_absflux_odir</title>
<path fill="none" stroke="black" d="M165.46,-506C165.46,-506 207.97,-506 207.97,-506"/>
<polygon fill="black" stroke="black" points="207.97,-509.5 217.97,-506 207.97,-502.5 207.97,-509.5"/>
</g>
<!-- l1_cal_absflux_rec -->
<g id="node8" class="node">
<title>l1_cal_absflux_rec</title>
<polygon fill="none" stroke="black" points="789.97,-408 638.97,-408 638.97,-384 789.97,-384 801.97,-396 789.97,-408"/>
<text text-anchor="middle" x="720.47" y="-392.3" font-family="Times,serif" font-size="14.00">recipe L1_eng_a 1..1</text>
</g>
<!-- recipe&#45;&gt;l1_cal_absflux_rec -->
<g id="edge12" class="edge">
<title>recipe&#45;&gt;l1_cal_absflux_rec</title>
<path fill="none" stroke="black" d="M410.07,-396C410.07,-396 628.81,-396 628.81,-396"/>
<polygon fill="black" stroke="black" points="628.81,-399.5 638.81,-396 628.81,-392.5 628.81,-399.5"/>
</g>
</g>
</svg>
