<?xml version="1.0" encoding="UTF-8" standalone="no"?>
<!DOCTYPE svg PUBLIC "-//W3C//DTD SVG 1.1//EN"
 "http://www.w3.org/Graphics/SVG/1.1/DTD/svg11.dtd">
<!-- Generated by graphviz version 2.43.0 (0)
 -->
<!-- Title: AbsFluxClerks Pages: 1 -->
<svg width="745pt" height="580pt"
 viewBox="0.00 0.00 745.19 580.25" xmlns="http://www.w3.org/2000/svg" xmlns:xlink="http://www.w3.org/1999/xlink">
<g id="graph0" class="graph" transform="scale(1 1) rotate(0) translate(4 576.25)">
<title>AbsFluxClerks</title>
<polygon fill="white" stroke="transparent" points="-4,4 -4,-576.25 741.19,-576.25 741.19,4 -4,4"/>
<!-- alarm_cal -->
<g id="node1" class="node">
<title>alarm_cal</title>
<text text-anchor="middle" x="91" y="-176.3" font-family="Times,serif" font-size="14.00">User requested update</text>
</g>
<!-- calib -->
<g id="node4" class="node">
<title>calib</title>
<ellipse fill="none" stroke="black" cx="292.09" cy="-180" rx="62.29" ry="62.29"/>
<text text-anchor="middle" x="292.09" y="-176.3" font-family="Times,serif" font-size="14.00">Calibration</text>
</g>
<!-- alarm_cal&#45;&gt;calib -->
<g id="edge1" class="edge">
<title>alarm_cal&#45;&gt;calib</title>
<path fill="none" stroke="black" stroke-dasharray="5,2" d="M182.13,-180C182.13,-180 219.47,-180 219.47,-180"/>
<polygon fill="black" stroke="black" points="219.47,-183.5 229.47,-180 219.47,-176.5 219.47,-183.5"/>
</g>
<!-- alarm_cnf -->
<g id="node2" class="node">
<title>alarm_cnf</title>
<text text-anchor="middle" x="91" y="-392.3" font-family="Times,serif" font-size="14.00">User requested update</text>
</g>
<!-- config -->
<g id="node5" class="node">
<title>config</title>
<ellipse fill="none" stroke="black" cx="292.09" cy="-396" rx="74.19" ry="74.19"/>
<text text-anchor="middle" x="292.09" y="-392.3" font-family="Times,serif" font-size="14.00">Configuration</text>
</g>
<!-- alarm_cnf&#45;&gt;config -->
<g id="edge2" class="edge">
<title>alarm_cnf&#45;&gt;config</title>
<path fill="none" stroke="black" stroke-dasharray="5,2" d="M182.13,-396C182.13,-396 207.84,-396 207.84,-396"/>
<polygon fill="black" stroke="black" points="207.84,-399.5 217.84,-396 207.84,-392.5 207.84,-399.5"/>
</g>
<!-- alarm_rec -->
<g id="node3" class="node">
<title>alarm_rec</title>
<text text-anchor="middle" x="91" y="-526.3" font-family="Times,serif" font-size="14.00">User requested update</text>
</g>
<!-- recipe -->
<g id="node6" class="node">
<title>recipe</title>
<ellipse fill="none" stroke="black" cx="292.09" cy="-530" rx="42.49" ry="42.49"/>
<text text-anchor="middle" x="292.09" y="-526.3" font-family="Times,serif" font-size="14.00">Recipe</text>
</g>
<!-- alarm_rec&#45;&gt;recipe -->
<g id="edge3" class="edge">
<title>alarm_rec&#45;&gt;recipe</title>
<path fill="none" stroke="black" stroke-dasharray="5,2" d="M182.13,-530C182.13,-530 239.74,-530 239.74,-530"/>
<polygon fill="black" stroke="black" points="239.74,-533.5 249.74,-530 239.74,-526.5 239.74,-533.5"/>
</g>
<!-- l1_cal_absflux_nllut -->
<g id="node9" class="node">
<title>l1_cal_absflux_nllut</title>
<polygon fill="none" stroke="black" points="658.19,-354 469.19,-354 469.19,-330 658.19,-330 670.19,-342 658.19,-354"/>
<text text-anchor="middle" x="569.69" y="-338.3" font-family="Times,serif" font-size="14.00">non linear calibration 1..1</text>
</g>
<!-- calib&#45;&gt;l1_cal_absflux_nllut -->
<g id="edge4" class="edge">
<title>calib&#45;&gt;l1_cal_absflux_nllut</title>
<path fill="none" stroke="black" d="M324.04,-233.6C350.64,-233.6 384.19,-233.6 384.19,-233.6 384.19,-233.6 384.19,-342 384.19,-342 384.19,-342 459.07,-342 459.07,-342"/>
<polygon fill="black" stroke="black" points="459.07,-345.5 469.07,-342 459.07,-338.5 459.07,-345.5"/>
</g>
<!-- l2a_cal_absflux_mbpm -->
<g id="node10" class="node">
<title>l2a_cal_absflux_mbpm</title>
<polygon fill="none" stroke="black" points="673.19,-300 454.19,-300 454.19,-276 673.19,-276 685.19,-288 673.19,-300"/>
<text text-anchor="middle" x="569.69" y="-284.3" font-family="Times,serif" font-size="14.00">cal_absflux bad pixel map 1..1</text>
</g>
<!-- calib&#45;&gt;l2a_cal_absflux_mbpm -->
<g id="edge5" class="edge">
<title>calib&#45;&gt;l2a_cal_absflux_mbpm</title>
<path fill="none" stroke="black" d="M292.19,-242.51C292.19,-266.39 292.19,-288 292.19,-288 292.19,-288 444.01,-288 444.01,-288"/>
<polygon fill="black" stroke="black" points="444.01,-291.5 454.01,-288 444.01,-284.5 444.01,-291.5"/>
</g>
<!-- l2a_cal_absflux_dnb -->
<g id="node11" class="node">
<title>l2a_cal_absflux_dnb</title>
<polygon fill="none" stroke="black" points="725.19,-246 402.19,-246 402.19,-222 725.19,-222 737.19,-234 725.19,-246"/>
<text text-anchor="middle" x="569.69" y="-230.3" font-family="Times,serif" font-size="14.00">cal_absflux dark (CIC/FPN/dark current) 1..1</text>
</g>
<!-- calib&#45;&gt;l2a_cal_absflux_dnb -->
<g id="edge6" class="edge">
<title>calib&#45;&gt;l2a_cal_absflux_dnb</title>
<path fill="none" stroke="black" d="M335.77,-224.8C335.77,-224.8 392.01,-224.8 392.01,-224.8"/>
<polygon fill="black" stroke="black" points="392.01,-228.3 402.01,-224.8 392.01,-221.3 392.01,-228.3"/>
</g>
<!-- l2a_cal_absflux_cti -->
<g id="node12" class="node">
<title>l2a_cal_absflux_cti</title>
<polygon fill="none" stroke="black" points="714.69,-192 412.69,-192 412.69,-168 714.69,-168 726.69,-180 714.69,-192"/>
<text text-anchor="middle" x="569.69" y="-176.3" font-family="Times,serif" font-size="14.00">cal_absflux charge transfer efficiency 1..1</text>
</g>
<!-- calib&#45;&gt;l2a_cal_absflux_cti -->
<g id="edge7" class="edge">
<title>calib&#45;&gt;l2a_cal_absflux_cti</title>
<path fill="none" stroke="black" d="M354.74,-180C354.74,-180 402.49,-180 402.49,-180"/>
<polygon fill="black" stroke="black" points="402.49,-183.5 412.49,-180 402.49,-176.5 402.49,-183.5"/>
</g>
<!-- l2a_cal_absflux_ff -->
<g id="node13" class="node">
<title>l2a_cal_absflux_ff</title>
<polygon fill="none" stroke="black" points="652.19,-138 475.19,-138 475.19,-114 652.19,-114 664.19,-126 652.19,-138"/>
<text text-anchor="middle" x="569.69" y="-122.3" font-family="Times,serif" font-size="14.00">cal_absflux flat field 1..1</text>
</g>
<!-- calib&#45;&gt;l2a_cal_absflux_ff -->
<g id="edge8" class="edge">
<title>calib&#45;&gt;l2a_cal_absflux_ff</title>
<path fill="none" stroke="black" d="M330.69,-130.8C330.69,-130.8 464.95,-130.8 464.95,-130.8"/>
<polygon fill="black" stroke="black" points="464.95,-134.3 474.95,-130.8 464.95,-127.3 464.95,-134.3"/>
</g>
<!-- l2a_cal_absflux_kgain -->
<g id="node14" class="node">
<title>l2a_cal_absflux_kgain</title>
<polygon fill="none" stroke="black" points="644.69,-84 482.69,-84 482.69,-60 644.69,-60 656.69,-72 644.69,-84"/>
<text text-anchor="middle" x="569.69" y="-68.3" font-family="Times,serif" font-size="14.00">cal_absflux k&#45;gain 1..1</text>
</g>
<!-- calib&#45;&gt;l2a_cal_absflux_kgain -->
<g id="edge9" class="edge">
<title>calib&#45;&gt;l2a_cal_absflux_kgain</title>
<path fill="none" stroke="black" d="M313.19,-121.26C313.19,-95.93 313.19,-72 313.19,-72 313.19,-72 472.49,-72 472.49,-72"/>
<polygon fill="black" stroke="black" points="472.49,-75.5 482.49,-72 472.49,-68.5 472.49,-75.5"/>
</g>
<!-- l2a_cal_absflux_emg -->
<g id="node15" class="node">
<title>l2a_cal_absflux_emg</title>
<polygon fill="none" stroke="black" points="653.19,-30 474.19,-30 474.19,-6 653.19,-6 665.19,-18 653.19,-30"/>
<text text-anchor="middle" x="569.69" y="-14.3" font-family="Times,serif" font-size="14.00">cal_absflux EM gain 1..1</text>
</g>
<!-- calib&#45;&gt;l2a_cal_absflux_emg -->
<g id="edge10" class="edge">
<title>calib&#45;&gt;l2a_cal_absflux_emg</title>
<path fill="none" stroke="black" d="M272.19,-120.6C272.19,-74.36 272.19,-18 272.19,-18 272.19,-18 463.92,-18 463.92,-18"/>
<polygon fill="black" stroke="black" points="463.92,-21.5 473.92,-18 463.92,-14.5 463.92,-21.5"/>
</g>
<!-- l1_cal_absflux_odir -->
<g id="node7" class="node">
<title>l1_cal_absflux_odir</title>
<ellipse fill="none" stroke="black" cx="569.69" cy="-396" rx="149.47" ry="18"/>
<text text-anchor="middle" x="569.69" y="-392.3" font-family="Times,serif" font-size="14.00">Output path for L1_eng_a 1..1</text>
</g>
<!-- config&#45;&gt;l1_cal_absflux_odir -->
<g id="edge11" class="edge">
<title>config&#45;&gt;l1_cal_absflux_odir</title>
<path fill="none" stroke="black" d="M366.48,-396C366.48,-396 410.05,-396 410.05,-396"/>
<polygon fill="black" stroke="black" points="410.05,-399.5 420.05,-396 410.05,-392.5 410.05,-399.5"/>
</g>
<!-- l1_cal_absflux_rec -->
<g id="node8" class="node">
<title>l1_cal_absflux_rec</title>
<polygon fill="none" stroke="black" points="639.19,-542 488.19,-542 488.19,-518 639.19,-518 651.19,-530 639.19,-542"/>
<text text-anchor="middle" x="569.69" y="-526.3" font-family="Times,serif" font-size="14.00">recipe L1_eng_a 1..1</text>
</g>
<!-- recipe&#45;&gt;l1_cal_absflux_rec -->
<g id="edge12" class="edge">
<title>recipe&#45;&gt;l1_cal_absflux_rec</title>
<path fill="none" stroke="black" d="M334.56,-530C334.56,-530 478.11,-530 478.11,-530"/>
<polygon fill="black" stroke="black" points="478.11,-533.5 488.11,-530 478.11,-526.5 478.11,-533.5"/>
</g>
</g>
</svg>
