<?xml version="1.0" encoding="UTF-8" standalone="no"?>
<!DOCTYPE svg PUBLIC "-//W3C//DTD SVG 1.1//EN"
 "http://www.w3.org/Graphics/SVG/1.1/DTD/svg11.dtd">
<!-- Generated by graphviz version 2.43.0 (0)
 -->
<!-- Title: BoresightClerks Pages: 1 -->
<svg width="779pt" height="580pt"
 viewBox="0.00 0.00 779.35 580.25" xmlns="http://www.w3.org/2000/svg" xmlns:xlink="http://www.w3.org/1999/xlink">
<g id="graph0" class="graph" transform="scale(1 1) rotate(0) translate(4 576.25)">
<title>BoresightClerks</title>
<polygon fill="white" stroke="transparent" points="-4,4 -4,-576.25 775.35,-576.25 775.35,4 -4,4"/>
<!-- alarm_cal -->
<g id="node1" class="node">
<title>alarm_cal</title>
<text text-anchor="middle" x="91" y="-176.3" font-family="Times,serif" font-size="14.00">User requested update</text>
</g>
<!-- calib -->
<g id="node4" class="node">
<title>calib</title>
<ellipse fill="none" stroke="black" cx="292.09" cy="-180" rx="62.29" ry="62.29"/>
<text text-anchor="middle" x="292.09" y="-176.3" font-family="Times,serif" font-size="14.00">Calibration</text>
</g>
<!-- alarm_cal&#45;&gt;calib -->
<g id="edge1" class="edge">
<title>alarm_cal&#45;&gt;calib</title>
<path fill="none" stroke="black" stroke-dasharray="5,2" d="M182.13,-180C182.13,-180 219.47,-180 219.47,-180"/>
<polygon fill="black" stroke="black" points="219.47,-183.5 229.47,-180 219.47,-176.5 219.47,-183.5"/>
</g>
<!-- alarm_cnf -->
<g id="node2" class="node">
<title>alarm_cnf</title>
<text text-anchor="middle" x="91" y="-392.3" font-family="Times,serif" font-size="14.00">User requested update</text>
</g>
<!-- config -->
<g id="node5" class="node">
<title>config</title>
<ellipse fill="none" stroke="black" cx="292.09" cy="-396" rx="74.19" ry="74.19"/>
<text text-anchor="middle" x="292.09" y="-392.3" font-family="Times,serif" font-size="14.00">Configuration</text>
</g>
<!-- alarm_cnf&#45;&gt;config -->
<g id="edge2" class="edge">
<title>alarm_cnf&#45;&gt;config</title>
<path fill="none" stroke="black" stroke-dasharray="5,2" d="M182.13,-396C182.13,-396 207.84,-396 207.84,-396"/>
<polygon fill="black" stroke="black" points="207.84,-399.5 217.84,-396 207.84,-392.5 207.84,-399.5"/>
</g>
<!-- alarm_rec -->
<g id="node3" class="node">
<title>alarm_rec</title>
<text text-anchor="middle" x="91" y="-526.3" font-family="Times,serif" font-size="14.00">User requested update</text>
</g>
<!-- recipe -->
<g id="node6" class="node">
<title>recipe</title>
<ellipse fill="none" stroke="black" cx="292.09" cy="-530" rx="42.49" ry="42.49"/>
<text text-anchor="middle" x="292.09" y="-526.3" font-family="Times,serif" font-size="14.00">Recipe</text>
</g>
<!-- alarm_rec&#45;&gt;recipe -->
<g id="edge3" class="edge">
<title>alarm_rec&#45;&gt;recipe</title>
<path fill="none" stroke="black" stroke-dasharray="5,2" d="M182.13,-530C182.13,-530 239.74,-530 239.74,-530"/>
<polygon fill="black" stroke="black" points="239.74,-533.5 249.74,-530 239.74,-526.5 239.74,-533.5"/>
</g>
<!-- l1_cal_boresight_nllut -->
<g id="node9" class="node">
<title>l1_cal_boresight_nllut</title>
<polygon fill="none" stroke="black" points="675.27,-354 486.27,-354 486.27,-330 675.27,-330 687.27,-342 675.27,-354"/>
<text text-anchor="middle" x="586.77" y="-338.3" font-family="Times,serif" font-size="14.00">non linear calibration 1..1</text>
</g>
<!-- calib&#45;&gt;l1_cal_boresight_nllut -->
<g id="edge4" class="edge">
<title>calib&#45;&gt;l1_cal_boresight_nllut</title>
<path fill="none" stroke="black" d="M324.1,-233.6C350.75,-233.6 384.35,-233.6 384.35,-233.6 384.35,-233.6 384.35,-342 384.35,-342 384.35,-342 476.16,-342 476.16,-342"/>
<polygon fill="black" stroke="black" points="476.16,-345.5 486.16,-342 476.16,-338.5 476.16,-345.5"/>
</g>
<!-- l2a_cal_boresight_mbpm -->
<g id="node10" class="node">
<title>l2a_cal_boresight_mbpm</title>
<polygon fill="none" stroke="black" points="698.77,-300 462.77,-300 462.77,-276 698.77,-276 710.77,-288 698.77,-300"/>
<text text-anchor="middle" x="586.77" y="-284.3" font-family="Times,serif" font-size="14.00">cal_boresight bad pixel map 1..1</text>
</g>
<!-- calib&#45;&gt;l2a_cal_boresight_mbpm -->
<g id="edge5" class="edge">
<title>calib&#45;&gt;l2a_cal_boresight_mbpm</title>
<path fill="none" stroke="black" d="M292.35,-242.51C292.35,-266.39 292.35,-288 292.35,-288 292.35,-288 452.76,-288 452.76,-288"/>
<polygon fill="black" stroke="black" points="452.76,-291.5 462.76,-288 452.76,-284.5 452.76,-291.5"/>
</g>
<!-- l2a_cal_boresight_dnb -->
<g id="node11" class="node">
<title>l2a_cal_boresight_dnb</title>
<polygon fill="none" stroke="black" points="750.77,-246 410.77,-246 410.77,-222 750.77,-222 762.77,-234 750.77,-246"/>
<text text-anchor="middle" x="586.77" y="-230.3" font-family="Times,serif" font-size="14.00">cal_boresight dark (CIC/FPN/dark current) 1..1</text>
</g>
<!-- calib&#45;&gt;l2a_cal_boresight_dnb -->
<g id="edge6" class="edge">
<title>calib&#45;&gt;l2a_cal_boresight_dnb</title>
<path fill="none" stroke="black" d="M335.57,-224.8C335.57,-224.8 400.69,-224.8 400.69,-224.8"/>
<polygon fill="black" stroke="black" points="400.69,-228.3 410.69,-224.8 400.69,-221.3 400.69,-228.3"/>
</g>
<!-- l2a_cal_boresight_cti -->
<g id="node12" class="node">
<title>l2a_cal_boresight_cti</title>
<polygon fill="none" stroke="black" points="740.27,-192 421.27,-192 421.27,-168 740.27,-168 752.27,-180 740.27,-192"/>
<text text-anchor="middle" x="586.77" y="-176.3" font-family="Times,serif" font-size="14.00">cal_boresight charge transfer efficiency 1..1</text>
</g>
<!-- calib&#45;&gt;l2a_cal_boresight_cti -->
<g id="edge7" class="edge">
<title>calib&#45;&gt;l2a_cal_boresight_cti</title>
<path fill="none" stroke="black" d="M354.59,-180C354.59,-180 411.01,-180 411.01,-180"/>
<polygon fill="black" stroke="black" points="411.01,-183.5 421.01,-180 411.01,-176.5 411.01,-183.5"/>
</g>
<!-- l2a_cal_boresight_ff -->
<g id="node13" class="node">
<title>l2a_cal_boresight_ff</title>
<polygon fill="none" stroke="black" points="677.77,-138 483.77,-138 483.77,-114 677.77,-114 689.77,-126 677.77,-138"/>
<text text-anchor="middle" x="586.77" y="-122.3" font-family="Times,serif" font-size="14.00">cal_boresight flat field 1..1</text>
</g>
<!-- calib&#45;&gt;l2a_cal_boresight_ff -->
<g id="edge8" class="edge">
<title>calib&#45;&gt;l2a_cal_boresight_ff</title>
<path fill="none" stroke="black" d="M330.62,-130.8C330.62,-130.8 473.55,-130.8 473.55,-130.8"/>
<polygon fill="black" stroke="black" points="473.55,-134.3 483.55,-130.8 473.55,-127.3 473.55,-134.3"/>
</g>
<!-- l2a_cal_boresight_kgain -->
<g id="node14" class="node">
<title>l2a_cal_boresight_kgain</title>
<polygon fill="none" stroke="black" points="670.27,-84 491.27,-84 491.27,-60 670.27,-60 682.27,-72 670.27,-84"/>
<text text-anchor="middle" x="586.77" y="-68.3" font-family="Times,serif" font-size="14.00">cal_boresight k&#45;gain 1..1</text>
</g>
<!-- calib&#45;&gt;l2a_cal_boresight_kgain -->
<g id="edge9" class="edge">
<title>calib&#45;&gt;l2a_cal_boresight_kgain</title>
<path fill="none" stroke="black" d="M313.35,-121.26C313.35,-95.93 313.35,-72 313.35,-72 313.35,-72 481.14,-72 481.14,-72"/>
<polygon fill="black" stroke="black" points="481.14,-75.5 491.14,-72 481.14,-68.5 481.14,-75.5"/>
</g>
<!-- l2a_cal_boresight_emg -->
<g id="node15" class="node">
<title>l2a_cal_boresight_emg</title>
<polygon fill="none" stroke="black" points="678.77,-30 482.77,-30 482.77,-6 678.77,-6 690.77,-18 678.77,-30"/>
<text text-anchor="middle" x="586.77" y="-14.3" font-family="Times,serif" font-size="14.00">cal_boresight EM gain 1..1</text>
</g>
<!-- calib&#45;&gt;l2a_cal_boresight_emg -->
<g id="edge10" class="edge">
<title>calib&#45;&gt;l2a_cal_boresight_emg</title>
<path fill="none" stroke="black" d="M271.35,-121.06C271.35,-74.74 271.35,-18 271.35,-18 271.35,-18 472.62,-18 472.62,-18"/>
<polygon fill="black" stroke="black" points="472.62,-21.5 482.62,-18 472.62,-14.5 472.62,-21.5"/>
</g>
<!-- l1_cal_boresight_odir -->
<g id="node7" class="node">
<title>l1_cal_boresight_odir</title>
<ellipse fill="none" stroke="black" cx="586.77" cy="-396" rx="184.67" ry="18"/>
<text text-anchor="middle" x="586.77" y="-392.3" font-family="Times,serif" font-size="14.00">Output path for L1_cal_boresight 1..1</text>
</g>
<!-- config&#45;&gt;l1_cal_boresight_odir -->
<g id="edge11" class="edge">
<title>config&#45;&gt;l1_cal_boresight_odir</title>
<path fill="none" stroke="black" d="M366.45,-396C366.45,-396 392.11,-396 392.11,-396"/>
<polygon fill="black" stroke="black" points="392.11,-399.5 402.11,-396 392.11,-392.5 392.11,-399.5"/>
</g>
<!-- l1_cal_boresight_rec -->
<g id="node8" class="node">
<title>l1_cal_boresight_rec</title>
<polygon fill="none" stroke="black" points="656.27,-542 505.27,-542 505.27,-518 656.27,-518 668.27,-530 656.27,-542"/>
<text text-anchor="middle" x="586.77" y="-526.3" font-family="Times,serif" font-size="14.00">recipe L1_eng_a 1..1</text>
</g>
<!-- recipe&#45;&gt;l1_cal_boresight_rec -->
<g id="edge12" class="edge">
<title>recipe&#45;&gt;l1_cal_boresight_rec</title>
<path fill="none" stroke="black" d="M334.63,-530C334.63,-530 494.97,-530 494.97,-530"/>
<polygon fill="black" stroke="black" points="494.97,-533.5 504.97,-530 494.97,-526.5 494.97,-533.5"/>
</g>
</g>
</svg>
