<?xml version="1.0" encoding="UTF-8" standalone="no"?>
<!DOCTYPE svg PUBLIC "-//W3C//DTD SVG 1.1//EN"
 "http://www.w3.org/Graphics/SVG/1.1/DTD/svg11.dtd">
<!-- Generated by graphviz version 2.43.0 (0)
 -->
<!-- Title: BoresightClerks Pages: 1 -->
<svg width="983pt" height="588pt"
 viewBox="0.00 0.00 983.17 588.09" xmlns="http://www.w3.org/2000/svg" xmlns:xlink="http://www.w3.org/1999/xlink">
<g id="graph0" class="graph" transform="scale(1 1) rotate(0) translate(4 584.09)">
<title>BoresightClerks</title>
<polygon fill="white" stroke="transparent" points="-4,4 -4,-584.09 979.17,-584.09 979.17,4 -4,4"/>
<!-- alarm_cal -->
<g id="node1" class="node">
<title>alarm_cal</title>
<text text-anchor="middle" x="91" y="-203.3" font-family="Times,serif" font-size="14.00">User requested update</text>
</g>
<!-- calib -->
<g id="node4" class="node">
<title>calib</title>
<ellipse fill="none" stroke="black" cx="402.58" cy="-180" rx="62.29" ry="62.29"/>
<text text-anchor="middle" x="402.58" y="-176.3" font-family="Times,serif" font-size="14.00">Calibration</text>
</g>
<!-- alarm_cal&#45;&gt;calib -->
<g id="edge1" class="edge">
<title>alarm_cal&#45;&gt;calib</title>
<path fill="none" stroke="black" stroke-dasharray="5,2" d="M182.38,-207C182.38,-207 335.99,-207 335.99,-207"/>
<polygon fill="black" stroke="black" points="335.99,-210.5 345.99,-207 335.99,-203.5 335.99,-210.5"/>
</g>
<!-- alarm_cnf -->
<g id="node2" class="node">
<title>alarm_cnf</title>
<text text-anchor="middle" x="91" y="-149.3" font-family="Times,serif" font-size="14.00">User requested update</text>
</g>
<!-- alarm_cnf&#45;&gt;calib -->
<g id="edge2" class="edge">
<title>alarm_cnf&#45;&gt;calib</title>
<path fill="none" stroke="black" stroke-dasharray="5,2" d="M182.38,-153C182.38,-153 335.99,-153 335.99,-153"/>
<polygon fill="black" stroke="black" points="335.99,-156.5 345.99,-153 335.99,-149.5 335.99,-156.5"/>
</g>
<!-- alarm_rec -->
<g id="node3" class="node">
<title>alarm_rec</title>
<text text-anchor="middle" x="91" y="-392.3" font-family="Times,serif" font-size="14.00">User requested update</text>
</g>
<!-- recipe -->
<g id="node6" class="node">
<title>recipe</title>
<ellipse fill="none" stroke="black" cx="402.58" cy="-396" rx="42.49" ry="42.49"/>
<text text-anchor="middle" x="402.58" y="-392.3" font-family="Times,serif" font-size="14.00">Recipe</text>
</g>
<!-- alarm_rec&#45;&gt;recipe -->
<g id="edge3" class="edge">
<title>alarm_rec&#45;&gt;recipe</title>
<path fill="none" stroke="black" stroke-dasharray="5,2" d="M182.38,-396C182.38,-396 350.11,-396 350.11,-396"/>
<polygon fill="black" stroke="black" points="350.11,-399.5 360.11,-396 350.11,-392.5 350.11,-399.5"/>
</g>
<!-- l1_cal_boresight_nllut -->
<g id="node9" class="node">
<title>l1_cal_boresight_nllut</title>
<polygon fill="none" stroke="black" points="887.67,-354 698.67,-354 698.67,-330 887.67,-330 899.67,-342 887.67,-354"/>
<text text-anchor="middle" x="799.17" y="-338.3" font-family="Times,serif" font-size="14.00">non linear calibration 1..1</text>
</g>
<!-- calib&#45;&gt;l1_cal_boresight_nllut -->
<g id="edge4" class="edge">
<title>calib&#45;&gt;l1_cal_boresight_nllut</title>
<path fill="none" stroke="black" d="M452.17,-218.05C452.17,-265.06 452.17,-338.88 452.17,-338.88 452.17,-338.88 688.33,-338.88 688.33,-338.88"/>
<polygon fill="black" stroke="black" points="688.33,-342.38 698.33,-338.88 688.33,-335.38 688.33,-342.38"/>
</g>
<!-- l2a_cal_boresight_mbpm -->
<g id="node10" class="node">
<title>l2a_cal_boresight_mbpm</title>
<polygon fill="none" stroke="black" points="911.17,-300 675.17,-300 675.17,-276 911.17,-276 923.17,-288 911.17,-300"/>
<text text-anchor="middle" x="799.17" y="-284.3" font-family="Times,serif" font-size="14.00">cal_boresight bad pixel map 1..1</text>
</g>
<!-- calib&#45;&gt;l2a_cal_boresight_mbpm -->
<g id="edge5" class="edge">
<title>calib&#45;&gt;l2a_cal_boresight_mbpm</title>
<path fill="none" stroke="black" d="M459.17,-206.42C459.17,-238.39 459.17,-288 459.17,-288 459.17,-288 664.98,-288 664.98,-288"/>
<polygon fill="black" stroke="black" points="664.98,-291.5 674.98,-288 664.98,-284.5 664.98,-291.5"/>
</g>
<!-- l2a_cal_boresight_dnb -->
<g id="node11" class="node">
<title>l2a_cal_boresight_dnb</title>
<polygon fill="none" stroke="black" points="963.17,-246 623.17,-246 623.17,-222 963.17,-222 975.17,-234 963.17,-246"/>
<text text-anchor="middle" x="799.17" y="-230.3" font-family="Times,serif" font-size="14.00">cal_boresight dark (CIC/FPN/dark current) 1..1</text>
</g>
<!-- calib&#45;&gt;l2a_cal_boresight_dnb -->
<g id="edge6" class="edge">
<title>calib&#45;&gt;l2a_cal_boresight_dnb</title>
<path fill="none" stroke="black" d="M440.97,-229.2C440.97,-229.2 612.87,-229.2 612.87,-229.2"/>
<polygon fill="black" stroke="black" points="612.87,-232.7 622.87,-229.2 612.87,-225.7 612.87,-232.7"/>
</g>
<!-- l2a_cal_boresight_cti -->
<g id="node12" class="node">
<title>l2a_cal_boresight_cti</title>
<polygon fill="none" stroke="black" points="952.67,-192 633.67,-192 633.67,-168 952.67,-168 964.67,-180 952.67,-192"/>
<text text-anchor="middle" x="799.17" y="-176.3" font-family="Times,serif" font-size="14.00">cal_boresight charge transfer efficiency 1..1</text>
</g>
<!-- calib&#45;&gt;l2a_cal_boresight_cti -->
<g id="edge7" class="edge">
<title>calib&#45;&gt;l2a_cal_boresight_cti</title>
<path fill="none" stroke="black" d="M464.99,-180C464.99,-180 623.62,-180 623.62,-180"/>
<polygon fill="black" stroke="black" points="623.62,-183.5 633.62,-180 623.62,-176.5 623.62,-183.5"/>
</g>
<!-- l2a_cal_boresight_ff -->
<g id="node13" class="node">
<title>l2a_cal_boresight_ff</title>
<polygon fill="none" stroke="black" points="890.17,-138 696.17,-138 696.17,-114 890.17,-114 902.17,-126 890.17,-138"/>
<text text-anchor="middle" x="799.17" y="-122.3" font-family="Times,serif" font-size="14.00">cal_boresight flat field 1..1</text>
</g>
<!-- calib&#45;&gt;l2a_cal_boresight_ff -->
<g id="edge8" class="edge">
<title>calib&#45;&gt;l2a_cal_boresight_ff</title>
<path fill="none" stroke="black" d="M440.97,-130.8C440.97,-130.8 685.78,-130.8 685.78,-130.8"/>
<polygon fill="black" stroke="black" points="685.78,-134.3 695.78,-130.8 685.78,-127.3 685.78,-134.3"/>
</g>
<!-- l2a_cal_boresight_kgain -->
<g id="node14" class="node">
<title>l2a_cal_boresight_kgain</title>
<polygon fill="none" stroke="black" points="882.67,-84 703.67,-84 703.67,-60 882.67,-60 894.67,-72 882.67,-84"/>
<text text-anchor="middle" x="799.17" y="-68.3" font-family="Times,serif" font-size="14.00">cal_boresight k&#45;gain 1..1</text>
</g>
<!-- calib&#45;&gt;l2a_cal_boresight_kgain -->
<g id="edge9" class="edge">
<title>calib&#45;&gt;l2a_cal_boresight_kgain</title>
<path fill="none" stroke="black" d="M424.17,-121.26C424.17,-95.93 424.17,-72 424.17,-72 424.17,-72 693.57,-72 693.57,-72"/>
<polygon fill="black" stroke="black" points="693.57,-75.5 703.57,-72 693.57,-68.5 693.57,-75.5"/>
</g>
<!-- l2a_cal_boresight_emg -->
<g id="node15" class="node">
<title>l2a_cal_boresight_emg</title>
<polygon fill="none" stroke="black" points="891.17,-30 695.17,-30 695.17,-6 891.17,-6 903.17,-18 891.17,-30"/>
<text text-anchor="middle" x="799.17" y="-14.3" font-family="Times,serif" font-size="14.00">cal_boresight EM gain 1..1</text>
</g>
<!-- calib&#45;&gt;l2a_cal_boresight_emg -->
<g id="edge10" class="edge">
<title>calib&#45;&gt;l2a_cal_boresight_emg</title>
<path fill="none" stroke="black" d="M382.17,-120.6C382.17,-74.36 382.17,-18 382.17,-18 382.17,-18 685.02,-18 685.02,-18"/>
<polygon fill="black" stroke="black" points="685.02,-21.5 695.02,-18 685.02,-14.5 685.02,-21.5"/>
</g>
<!-- config -->
<g id="node5" class="node">
<title>config</title>
<ellipse fill="none" stroke="black" cx="91" cy="-506" rx="74.19" ry="74.19"/>
<text text-anchor="middle" x="91" y="-502.3" font-family="Times,serif" font-size="14.00">Configuration</text>
</g>
<!-- l1_cal_boresight_odir -->
<g id="node7" class="node">
<title>l1_cal_boresight_odir</title>
<ellipse fill="none" stroke="black" cx="402.58" cy="-506" rx="184.67" ry="18"/>
<text text-anchor="middle" x="402.58" y="-502.3" font-family="Times,serif" font-size="14.00">Output path for L1_cal_boresight 1..1</text>
</g>
<!-- config&#45;&gt;l1_cal_boresight_odir -->
<g id="edge11" class="edge">
<title>config&#45;&gt;l1_cal_boresight_odir</title>
<path fill="none" stroke="black" d="M165.24,-506C165.24,-506 207.98,-506 207.98,-506"/>
<polygon fill="black" stroke="black" points="207.98,-509.5 217.98,-506 207.98,-502.5 207.98,-509.5"/>
</g>
<!-- l1_cal_boresight_rec -->
<g id="node8" class="node">
<title>l1_cal_boresight_rec</title>
<polygon fill="none" stroke="black" points="868.67,-408 717.67,-408 717.67,-384 868.67,-384 880.67,-396 868.67,-408"/>
<text text-anchor="middle" x="799.17" y="-392.3" font-family="Times,serif" font-size="14.00">recipe L1_eng_a 1..1</text>
</g>
<!-- recipe&#45;&gt;l1_cal_boresight_rec -->
<g id="edge12" class="edge">
<title>recipe&#45;&gt;l1_cal_boresight_rec</title>
<path fill="none" stroke="black" d="M445.03,-396C445.03,-396 707.56,-396 707.56,-396"/>
<polygon fill="black" stroke="black" points="707.56,-399.5 717.56,-396 707.56,-392.5 707.56,-399.5"/>
</g>
</g>
</svg>
