<?xml version="1.0" encoding="UTF-8" standalone="no"?>
<!DOCTYPE svg PUBLIC "-//W3C//DTD SVG 1.1//EN"
 "http://www.w3.org/Graphics/SVG/1.1/DTD/svg11.dtd">
<!-- Generated by graphviz version 2.43.0 (0)
 -->
<!-- Title: CoreThPtClerks Pages: 1 -->
<svg width="754pt" height="580pt"
 viewBox="0.00 0.00 754.19 580.25" xmlns="http://www.w3.org/2000/svg" xmlns:xlink="http://www.w3.org/1999/xlink">
<g id="graph0" class="graph" transform="scale(1 1) rotate(0) translate(4 576.25)">
<title>CoreThPtClerks</title>
<polygon fill="white" stroke="transparent" points="-4,4 -4,-576.25 750.19,-576.25 750.19,4 -4,4"/>
<!-- alarm_cal -->
<g id="node1" class="node">
<title>alarm_cal</title>
<text text-anchor="middle" x="91" y="-176.3" font-family="Times,serif" font-size="14.00">User requested update</text>
</g>
<!-- calib -->
<g id="node4" class="node">
<title>calib</title>
<ellipse fill="none" stroke="black" cx="292.09" cy="-180" rx="62.29" ry="62.29"/>
<text text-anchor="middle" x="292.09" y="-176.3" font-family="Times,serif" font-size="14.00">Calibration</text>
</g>
<!-- alarm_cal&#45;&gt;calib -->
<g id="edge1" class="edge">
<title>alarm_cal&#45;&gt;calib</title>
<path fill="none" stroke="black" stroke-dasharray="5,2" d="M182.13,-180C182.13,-180 219.47,-180 219.47,-180"/>
<polygon fill="black" stroke="black" points="219.47,-183.5 229.47,-180 219.47,-176.5 219.47,-183.5"/>
</g>
<!-- alarm_cnf -->
<g id="node2" class="node">
<title>alarm_cnf</title>
<text text-anchor="middle" x="91" y="-392.3" font-family="Times,serif" font-size="14.00">User requested update</text>
</g>
<!-- config -->
<g id="node5" class="node">
<title>config</title>
<ellipse fill="none" stroke="black" cx="292.09" cy="-396" rx="74.19" ry="74.19"/>
<text text-anchor="middle" x="292.09" y="-392.3" font-family="Times,serif" font-size="14.00">Configuration</text>
</g>
<!-- alarm_cnf&#45;&gt;config -->
<g id="edge2" class="edge">
<title>alarm_cnf&#45;&gt;config</title>
<path fill="none" stroke="black" stroke-dasharray="5,2" d="M182.13,-396C182.13,-396 207.84,-396 207.84,-396"/>
<polygon fill="black" stroke="black" points="207.84,-399.5 217.84,-396 207.84,-392.5 207.84,-399.5"/>
</g>
<!-- alarm_rec -->
<g id="node3" class="node">
<title>alarm_rec</title>
<text text-anchor="middle" x="91" y="-526.3" font-family="Times,serif" font-size="14.00">User requested update</text>
</g>
<!-- recipe -->
<g id="node6" class="node">
<title>recipe</title>
<ellipse fill="none" stroke="black" cx="292.09" cy="-530" rx="42.49" ry="42.49"/>
<text text-anchor="middle" x="292.09" y="-526.3" font-family="Times,serif" font-size="14.00">Recipe</text>
</g>
<!-- alarm_rec&#45;&gt;recipe -->
<g id="edge3" class="edge">
<title>alarm_rec&#45;&gt;recipe</title>
<path fill="none" stroke="black" stroke-dasharray="5,2" d="M182.13,-530C182.13,-530 239.74,-530 239.74,-530"/>
<polygon fill="black" stroke="black" points="239.74,-533.5 249.74,-530 239.74,-526.5 239.74,-533.5"/>
</g>
<!-- l1_cal_corethpt_nllut -->
<g id="node9" class="node">
<title>l1_cal_corethpt_nllut</title>
<polygon fill="none" stroke="black" points="662.69,-354 473.69,-354 473.69,-330 662.69,-330 674.69,-342 662.69,-354"/>
<text text-anchor="middle" x="574.19" y="-338.3" font-family="Times,serif" font-size="14.00">non linear calibration 1..1</text>
</g>
<!-- calib&#45;&gt;l1_cal_corethpt_nllut -->
<g id="edge4" class="edge">
<title>calib&#45;&gt;l1_cal_corethpt_nllut</title>
<path fill="none" stroke="black" d="M324.04,-233.6C350.64,-233.6 384.19,-233.6 384.19,-233.6 384.19,-233.6 384.19,-342 384.19,-342 384.19,-342 463.62,-342 463.62,-342"/>
<polygon fill="black" stroke="black" points="463.62,-345.5 473.62,-342 463.62,-338.5 463.62,-345.5"/>
</g>
<!-- l2a_cal_corethpt_mbpm -->
<g id="node10" class="node">
<title>l2a_cal_corethpt_mbpm</title>
<polygon fill="none" stroke="black" points="682.69,-300 453.69,-300 453.69,-276 682.69,-276 694.69,-288 682.69,-300"/>
<text text-anchor="middle" x="574.19" y="-284.3" font-family="Times,serif" font-size="14.00">cal_corethpt bad pixel map 1..1</text>
</g>
<!-- calib&#45;&gt;l2a_cal_corethpt_mbpm -->
<g id="edge5" class="edge">
<title>calib&#45;&gt;l2a_cal_corethpt_mbpm</title>
<path fill="none" stroke="black" d="M292.19,-242.51C292.19,-266.39 292.19,-288 292.19,-288 292.19,-288 443.37,-288 443.37,-288"/>
<polygon fill="black" stroke="black" points="443.37,-291.5 453.37,-288 443.37,-284.5 443.37,-291.5"/>
</g>
<!-- l2a_cal_corethpt_dnb -->
<g id="node11" class="node">
<title>l2a_cal_corethpt_dnb</title>
<polygon fill="none" stroke="black" points="734.19,-246 402.19,-246 402.19,-222 734.19,-222 746.19,-234 734.19,-246"/>
<text text-anchor="middle" x="574.19" y="-230.3" font-family="Times,serif" font-size="14.00">cal_corethpt dark (CIC/FPN/dark current) 1..1</text>
</g>
<!-- calib&#45;&gt;l2a_cal_corethpt_dnb -->
<g id="edge6" class="edge">
<title>calib&#45;&gt;l2a_cal_corethpt_dnb</title>
<path fill="none" stroke="black" d="M335.55,-224.8C335.55,-224.8 391.95,-224.8 391.95,-224.8"/>
<polygon fill="black" stroke="black" points="391.95,-228.3 401.95,-224.8 391.95,-221.3 391.95,-228.3"/>
</g>
<!-- l2a_cal_corethpt_cti -->
<g id="node12" class="node">
<title>l2a_cal_corethpt_cti</title>
<polygon fill="none" stroke="black" points="723.69,-192 412.69,-192 412.69,-168 723.69,-168 735.69,-180 723.69,-192"/>
<text text-anchor="middle" x="574.19" y="-176.3" font-family="Times,serif" font-size="14.00">cal_corethpt charge transfer efficiency 1..1</text>
</g>
<!-- calib&#45;&gt;l2a_cal_corethpt_cti -->
<g id="edge7" class="edge">
<title>calib&#45;&gt;l2a_cal_corethpt_cti</title>
<path fill="none" stroke="black" d="M354.7,-180C354.7,-180 402.62,-180 402.62,-180"/>
<polygon fill="black" stroke="black" points="402.62,-183.5 412.62,-180 402.62,-176.5 402.62,-183.5"/>
</g>
<!-- l2a_cal_corethpt_ff -->
<g id="node13" class="node">
<title>l2a_cal_corethpt_ff</title>
<polygon fill="none" stroke="black" points="661.69,-138 474.69,-138 474.69,-114 661.69,-114 673.69,-126 661.69,-138"/>
<text text-anchor="middle" x="574.19" y="-122.3" font-family="Times,serif" font-size="14.00">cal_corethpt flat field 1..1</text>
</g>
<!-- calib&#45;&gt;l2a_cal_corethpt_ff -->
<g id="edge8" class="edge">
<title>calib&#45;&gt;l2a_cal_corethpt_ff</title>
<path fill="none" stroke="black" d="M330.73,-130.8C330.73,-130.8 464.47,-130.8 464.47,-130.8"/>
<polygon fill="black" stroke="black" points="464.47,-134.3 474.47,-130.8 464.47,-127.3 464.47,-134.3"/>
</g>
<!-- l2a_cal_corethpt_kgain -->
<g id="node14" class="node">
<title>l2a_cal_corethpt_kgain</title>
<polygon fill="none" stroke="black" points="654.19,-84 482.19,-84 482.19,-60 654.19,-60 666.19,-72 654.19,-84"/>
<text text-anchor="middle" x="574.19" y="-68.3" font-family="Times,serif" font-size="14.00">cal_corethpt k&#45;gain 1..1</text>
</g>
<!-- calib&#45;&gt;l2a_cal_corethpt_kgain -->
<g id="edge9" class="edge">
<title>calib&#45;&gt;l2a_cal_corethpt_kgain</title>
<path fill="none" stroke="black" d="M313.19,-121.26C313.19,-95.93 313.19,-72 313.19,-72 313.19,-72 472.17,-72 472.17,-72"/>
<polygon fill="black" stroke="black" points="472.17,-75.5 482.17,-72 472.17,-68.5 472.17,-75.5"/>
</g>
<!-- l2a_cal_corethpt_emg -->
<g id="node15" class="node">
<title>l2a_cal_corethpt_emg</title>
<polygon fill="none" stroke="black" points="662.19,-30 474.19,-30 474.19,-6 662.19,-6 674.19,-18 662.19,-30"/>
<text text-anchor="middle" x="574.19" y="-14.3" font-family="Times,serif" font-size="14.00">cal_corethpt EM gain 1..1</text>
</g>
<!-- calib&#45;&gt;l2a_cal_corethpt_emg -->
<g id="edge10" class="edge">
<title>calib&#45;&gt;l2a_cal_corethpt_emg</title>
<path fill="none" stroke="black" d="M272.19,-120.6C272.19,-74.36 272.19,-18 272.19,-18 272.19,-18 464.04,-18 464.04,-18"/>
<polygon fill="black" stroke="black" points="464.04,-21.5 474.04,-18 464.04,-14.5 464.04,-21.5"/>
</g>
<!-- l1_cal_corethpt_odir -->
<g id="node7" class="node">
<title>l1_cal_corethpt_odir</title>
<ellipse fill="none" stroke="black" cx="574.19" cy="-396" rx="149.47" ry="18"/>
<text text-anchor="middle" x="574.19" y="-392.3" font-family="Times,serif" font-size="14.00">Output path for L1_eng_a 1..1</text>
</g>
<!-- config&#45;&gt;l1_cal_corethpt_odir -->
<g id="edge11" class="edge">
<title>config&#45;&gt;l1_cal_corethpt_odir</title>
<path fill="none" stroke="black" d="M366.21,-396C366.21,-396 414.64,-396 414.64,-396"/>
<polygon fill="black" stroke="black" points="414.64,-399.5 424.64,-396 414.64,-392.5 414.64,-399.5"/>
</g>
<!-- l1_cal_corethpt_rec -->
<g id="node8" class="node">
<title>l1_cal_corethpt_rec</title>
<polygon fill="none" stroke="black" points="643.69,-542 492.69,-542 492.69,-518 643.69,-518 655.69,-530 643.69,-542"/>
<text text-anchor="middle" x="574.19" y="-526.3" font-family="Times,serif" font-size="14.00">recipe L1_eng_a 1..1</text>
</g>
<!-- recipe&#45;&gt;l1_cal_corethpt_rec -->
<g id="edge12" class="edge">
<title>recipe&#45;&gt;l1_cal_corethpt_rec</title>
<path fill="none" stroke="black" d="M334.63,-530C334.63,-530 482.65,-530 482.65,-530"/>
<polygon fill="black" stroke="black" points="482.65,-533.5 492.65,-530 482.65,-526.5 482.65,-533.5"/>
</g>
</g>
</svg>
