<?xml version="1.0" encoding="UTF-8" standalone="no"?>
<!DOCTYPE svg PUBLIC "-//W3C//DTD SVG 1.1//EN"
 "http://www.w3.org/Graphics/SVG/1.1/DTD/svg11.dtd">
<!-- Generated by graphviz version 2.43.0 (0)
 -->
<!-- Title: CoreThPtClerks Pages: 1 -->
<svg width="905pt" height="588pt"
 viewBox="0.00 0.00 904.97 588.09" xmlns="http://www.w3.org/2000/svg" xmlns:xlink="http://www.w3.org/1999/xlink">
<g id="graph0" class="graph" transform="scale(1 1) rotate(0) translate(4 584.09)">
<title>CoreThPtClerks</title>
<polygon fill="white" stroke="transparent" points="-4,4 -4,-584.09 900.97,-584.09 900.97,4 -4,4"/>
<!-- alarm_cal -->
<g id="node1" class="node">
<title>alarm_cal</title>
<text text-anchor="middle" x="91" y="-203.3" font-family="Times,serif" font-size="14.00">User requested update</text>
</g>
<!-- calib -->
<g id="node4" class="node">
<title>calib</title>
<ellipse fill="none" stroke="black" cx="367.49" cy="-180" rx="62.29" ry="62.29"/>
<text text-anchor="middle" x="367.49" y="-176.3" font-family="Times,serif" font-size="14.00">Calibration</text>
</g>
<!-- alarm_cal&#45;&gt;calib -->
<g id="edge1" class="edge">
<title>alarm_cal&#45;&gt;calib</title>
<path fill="none" stroke="black" stroke-dasharray="5,2" d="M182.3,-207C182.3,-207 300.94,-207 300.94,-207"/>
<polygon fill="black" stroke="black" points="300.94,-210.5 310.94,-207 300.94,-203.5 300.94,-210.5"/>
</g>
<!-- alarm_cnf -->
<g id="node2" class="node">
<title>alarm_cnf</title>
<text text-anchor="middle" x="91" y="-149.3" font-family="Times,serif" font-size="14.00">User requested update</text>
</g>
<!-- alarm_cnf&#45;&gt;calib -->
<g id="edge2" class="edge">
<title>alarm_cnf&#45;&gt;calib</title>
<path fill="none" stroke="black" stroke-dasharray="5,2" d="M182.3,-153C182.3,-153 300.94,-153 300.94,-153"/>
<polygon fill="black" stroke="black" points="300.94,-156.5 310.94,-153 300.94,-149.5 300.94,-156.5"/>
</g>
<!-- alarm_rec -->
<g id="node3" class="node">
<title>alarm_rec</title>
<text text-anchor="middle" x="91" y="-392.3" font-family="Times,serif" font-size="14.00">User requested update</text>
</g>
<!-- recipe -->
<g id="node6" class="node">
<title>recipe</title>
<ellipse fill="none" stroke="black" cx="367.49" cy="-396" rx="42.49" ry="42.49"/>
<text text-anchor="middle" x="367.49" y="-392.3" font-family="Times,serif" font-size="14.00">Recipe</text>
</g>
<!-- alarm_rec&#45;&gt;recipe -->
<g id="edge3" class="edge">
<title>alarm_rec&#45;&gt;recipe</title>
<path fill="none" stroke="black" stroke-dasharray="5,2" d="M182.3,-396C182.3,-396 315.05,-396 315.05,-396"/>
<polygon fill="black" stroke="black" points="315.05,-399.5 325.05,-396 315.05,-392.5 315.05,-399.5"/>
</g>
<!-- l1_cal_corethpt_nllut -->
<g id="node9" class="node">
<title>l1_cal_corethpt_nllut</title>
<polygon fill="none" stroke="black" points="813.47,-354 624.47,-354 624.47,-330 813.47,-330 825.47,-342 813.47,-354"/>
<text text-anchor="middle" x="724.97" y="-338.3" font-family="Times,serif" font-size="14.00">non linear calibration 1..1</text>
</g>
<!-- calib&#45;&gt;l1_cal_corethpt_nllut -->
<g id="edge4" class="edge">
<title>calib&#45;&gt;l1_cal_corethpt_nllut</title>
<path fill="none" stroke="black" d="M416.97,-218.05C416.97,-265.06 416.97,-338.88 416.97,-338.88 416.97,-338.88 614.12,-338.88 614.12,-338.88"/>
<polygon fill="black" stroke="black" points="614.12,-342.38 624.12,-338.88 614.12,-335.38 614.12,-342.38"/>
</g>
<!-- l2a_cal_corethpt_mbpm -->
<g id="node10" class="node">
<title>l2a_cal_corethpt_mbpm</title>
<polygon fill="none" stroke="black" points="833.47,-300 604.47,-300 604.47,-276 833.47,-276 845.47,-288 833.47,-300"/>
<text text-anchor="middle" x="724.97" y="-284.3" font-family="Times,serif" font-size="14.00">cal_corethpt bad pixel map 1..1</text>
</g>
<!-- calib&#45;&gt;l2a_cal_corethpt_mbpm -->
<g id="edge5" class="edge">
<title>calib&#45;&gt;l2a_cal_corethpt_mbpm</title>
<path fill="none" stroke="black" d="M423.97,-206.7C423.97,-238.68 423.97,-288 423.97,-288 423.97,-288 594.28,-288 594.28,-288"/>
<polygon fill="black" stroke="black" points="594.28,-291.5 604.28,-288 594.28,-284.5 594.28,-291.5"/>
</g>
<!-- l2a_cal_corethpt_dnb -->
<g id="node11" class="node">
<title>l2a_cal_corethpt_dnb</title>
<polygon fill="none" stroke="black" points="884.97,-246 552.97,-246 552.97,-222 884.97,-222 896.97,-234 884.97,-246"/>
<text text-anchor="middle" x="724.97" y="-230.3" font-family="Times,serif" font-size="14.00">cal_corethpt dark (CIC/FPN/dark current) 1..1</text>
</g>
<!-- calib&#45;&gt;l2a_cal_corethpt_dnb -->
<g id="edge6" class="edge">
<title>calib&#45;&gt;l2a_cal_corethpt_dnb</title>
<path fill="none" stroke="black" d="M406.08,-229.2C406.08,-229.2 542.6,-229.2 542.6,-229.2"/>
<polygon fill="black" stroke="black" points="542.6,-232.7 552.6,-229.2 542.6,-225.7 542.6,-232.7"/>
</g>
<!-- l2a_cal_corethpt_cti -->
<g id="node12" class="node">
<title>l2a_cal_corethpt_cti</title>
<polygon fill="none" stroke="black" points="874.47,-192 563.47,-192 563.47,-168 874.47,-168 886.47,-180 874.47,-192"/>
<text text-anchor="middle" x="724.97" y="-176.3" font-family="Times,serif" font-size="14.00">cal_corethpt charge transfer efficiency 1..1</text>
</g>
<!-- calib&#45;&gt;l2a_cal_corethpt_cti -->
<g id="edge7" class="edge">
<title>calib&#45;&gt;l2a_cal_corethpt_cti</title>
<path fill="none" stroke="black" d="M430.17,-180C430.17,-180 553.15,-180 553.15,-180"/>
<polygon fill="black" stroke="black" points="553.15,-183.5 563.15,-180 553.15,-176.5 553.15,-183.5"/>
</g>
<!-- l2a_cal_corethpt_ff -->
<g id="node13" class="node">
<title>l2a_cal_corethpt_ff</title>
<polygon fill="none" stroke="black" points="812.47,-138 625.47,-138 625.47,-114 812.47,-114 824.47,-126 812.47,-138"/>
<text text-anchor="middle" x="724.97" y="-122.3" font-family="Times,serif" font-size="14.00">cal_corethpt flat field 1..1</text>
</g>
<!-- calib&#45;&gt;l2a_cal_corethpt_ff -->
<g id="edge8" class="edge">
<title>calib&#45;&gt;l2a_cal_corethpt_ff</title>
<path fill="none" stroke="black" d="M406.08,-130.8C406.08,-130.8 615.13,-130.8 615.13,-130.8"/>
<polygon fill="black" stroke="black" points="615.13,-134.3 625.13,-130.8 615.13,-127.3 615.13,-134.3"/>
</g>
<!-- l2a_cal_corethpt_kgain -->
<g id="node14" class="node">
<title>l2a_cal_corethpt_kgain</title>
<polygon fill="none" stroke="black" points="804.97,-84 632.97,-84 632.97,-60 804.97,-60 816.97,-72 804.97,-84"/>
<text text-anchor="middle" x="724.97" y="-68.3" font-family="Times,serif" font-size="14.00">cal_corethpt k&#45;gain 1..1</text>
</g>
<!-- calib&#45;&gt;l2a_cal_corethpt_kgain -->
<g id="edge9" class="edge">
<title>calib&#45;&gt;l2a_cal_corethpt_kgain</title>
<path fill="none" stroke="black" d="M388.97,-121.26C388.97,-95.93 388.97,-72 388.97,-72 388.97,-72 622.72,-72 622.72,-72"/>
<polygon fill="black" stroke="black" points="622.72,-75.5 632.72,-72 622.72,-68.5 622.72,-75.5"/>
</g>
<!-- l2a_cal_corethpt_emg -->
<g id="node15" class="node">
<title>l2a_cal_corethpt_emg</title>
<polygon fill="none" stroke="black" points="812.97,-30 624.97,-30 624.97,-6 812.97,-6 824.97,-18 812.97,-30"/>
<text text-anchor="middle" x="724.97" y="-14.3" font-family="Times,serif" font-size="14.00">cal_corethpt EM gain 1..1</text>
</g>
<!-- calib&#45;&gt;l2a_cal_corethpt_emg -->
<g id="edge10" class="edge">
<title>calib&#45;&gt;l2a_cal_corethpt_emg</title>
<path fill="none" stroke="black" d="M346.97,-121.06C346.97,-74.74 346.97,-18 346.97,-18 346.97,-18 614.67,-18 614.67,-18"/>
<polygon fill="black" stroke="black" points="614.67,-21.5 624.67,-18 614.67,-14.5 614.67,-21.5"/>
</g>
<!-- config -->
<g id="node5" class="node">
<title>config</title>
<ellipse fill="none" stroke="black" cx="91" cy="-506" rx="74.19" ry="74.19"/>
<text text-anchor="middle" x="91" y="-502.3" font-family="Times,serif" font-size="14.00">Configuration</text>
</g>
<!-- l1_cal_corethpt_odir -->
<g id="node7" class="node">
<title>l1_cal_corethpt_odir</title>
<ellipse fill="none" stroke="black" cx="367.49" cy="-506" rx="149.47" ry="18"/>
<text text-anchor="middle" x="367.49" y="-502.3" font-family="Times,serif" font-size="14.00">Output path for L1_eng_a 1..1</text>
</g>
<!-- config&#45;&gt;l1_cal_corethpt_odir -->
<g id="edge11" class="edge">
<title>config&#45;&gt;l1_cal_corethpt_odir</title>
<path fill="none" stroke="black" d="M165.46,-506C165.46,-506 207.97,-506 207.97,-506"/>
<polygon fill="black" stroke="black" points="207.97,-509.5 217.97,-506 207.97,-502.5 207.97,-509.5"/>
</g>
<!-- l1_cal_corethpt_rec -->
<g id="node8" class="node">
<title>l1_cal_corethpt_rec</title>
<polygon fill="none" stroke="black" points="794.47,-408 643.47,-408 643.47,-384 794.47,-384 806.47,-396 794.47,-408"/>
<text text-anchor="middle" x="724.97" y="-392.3" font-family="Times,serif" font-size="14.00">recipe L1_eng_a 1..1</text>
</g>
<!-- recipe&#45;&gt;l1_cal_corethpt_rec -->
<g id="edge12" class="edge">
<title>recipe&#45;&gt;l1_cal_corethpt_rec</title>
<path fill="none" stroke="black" d="M409.9,-396C409.9,-396 633.32,-396 633.32,-396"/>
<polygon fill="black" stroke="black" points="633.32,-399.5 643.32,-396 633.32,-392.5 633.32,-399.5"/>
</g>
</g>
</svg>
