<?xml version="1.0" encoding="UTF-8" standalone="no"?>
<!DOCTYPE svg PUBLIC "-//W3C//DTD SVG 1.1//EN"
 "http://www.w3.org/Graphics/SVG/1.1/DTD/svg11.dtd">
<!-- Generated by graphviz version 2.43.0 (0)
 -->
<!-- Title: DarkPhotonCountClerks Pages: 1 -->
<svg width="697pt" height="342pt"
 viewBox="0.00 0.00 697.45 342.09" xmlns="http://www.w3.org/2000/svg" xmlns:xlink="http://www.w3.org/1999/xlink">
<g id="graph0" class="graph" transform="scale(1 1) rotate(0) translate(4 338.09)">
<title>DarkPhotonCountClerks</title>
<polygon fill="white" stroke="transparent" points="-4,4 -4,-338.09 693.45,-338.09 693.45,4 -4,4"/>
<!-- alarm_cnf -->
<g id="node1" class="node">
<title>alarm_cnf</title>
<text text-anchor="middle" x="149.49" y="-70.39" font-family="Times,serif" font-size="14.00">User requested update</text>
</g>
<!-- config -->
<g id="node3" class="node">
<title>config</title>
<ellipse fill="none" stroke="black" cx="409.07" cy="-74.09" rx="74.19" ry="74.19"/>
<text text-anchor="middle" x="409.07" y="-70.39" font-family="Times,serif" font-size="14.00">Configuration</text>
</g>
<!-- alarm_cnf&#45;&gt;config -->
<g id="edge1" class="edge">
<title>alarm_cnf&#45;&gt;config</title>
<path fill="none" stroke="black" stroke-dasharray="5,2" d="M240.64,-74.09C240.64,-74.09 324.84,-74.09 324.84,-74.09"/>
<polygon fill="black" stroke="black" points="324.84,-77.59 334.84,-74.09 324.84,-70.59 324.84,-77.59"/>
</g>
<!-- alarm_rec -->
<g id="node2" class="node">
<title>alarm_rec</title>
<text text-anchor="middle" x="149.49" y="-204.39" font-family="Times,serif" font-size="14.00">User requested update</text>
</g>
<!-- recipe -->
<g id="node4" class="node">
<title>recipe</title>
<ellipse fill="none" stroke="black" cx="409.07" cy="-208.09" rx="42.49" ry="42.49"/>
<text text-anchor="middle" x="409.07" y="-204.39" font-family="Times,serif" font-size="14.00">Recipe</text>
</g>
<!-- alarm_rec&#45;&gt;recipe -->
<g id="edge2" class="edge">
<title>alarm_rec&#45;&gt;recipe</title>
<path fill="none" stroke="black" stroke-dasharray="5,2" d="M240.64,-208.09C240.64,-208.09 356.48,-208.09 356.48,-208.09"/>
<polygon fill="black" stroke="black" points="356.48,-211.59 366.48,-208.09 356.48,-204.59 356.48,-211.59"/>
</g>
<!-- l1_cal_bpm_odir -->
<g id="node7" class="node">
<title>l1_cal_bpm_odir</title>
<ellipse fill="none" stroke="black" cx="604.3" cy="-74.09" rx="85.29" ry="18"/>
<text text-anchor="middle" x="604.3" y="-70.39" font-family="Times,serif" font-size="14.00">l1_cal_bpm_odir</text>
</g>
<!-- config&#45;&gt;l1_cal_bpm_odir -->
<g id="edge3" class="edge">
<title>config&#45;&gt;l1_cal_bpm_odir</title>
<path fill="none" stroke="black" d="M483.43,-74.09C483.43,-74.09 509.04,-74.09 509.04,-74.09"/>
<polygon fill="black" stroke="black" points="509.04,-77.59 519.04,-74.09 509.04,-70.59 509.04,-77.59"/>
</g>
<!-- l1_cal_bpm_rec -->
<g id="node8" class="node">
<title>l1_cal_bpm_rec</title>
<ellipse fill="none" stroke="black" cx="604.3" cy="-208.09" rx="81.49" ry="18"/>
<text text-anchor="middle" x="604.3" y="-204.39" font-family="Times,serif" font-size="14.00">l1_cal_bpm_rec</text>
</g>
<!-- recipe&#45;&gt;l1_cal_bpm_rec -->
<g id="edge4" class="edge">
<title>recipe&#45;&gt;l1_cal_bpm_rec</title>
<path fill="none" stroke="black" d="M451.43,-208.09C451.43,-208.09 512.67,-208.09 512.67,-208.09"/>
<polygon fill="black" stroke="black" points="512.67,-211.59 522.67,-208.09 512.67,-204.59 512.67,-211.59"/>
</g>
<!-- l1_cal_drkpc_odir -->
<g id="node5" class="node">
<title>l1_cal_drkpc_odir</title>
<ellipse fill="none" stroke="black" cx="149.49" cy="-262.09" rx="149.47" ry="18"/>
<text text-anchor="middle" x="149.49" y="-258.39" font-family="Times,serif" font-size="14.00">Output path for L1_eng_a 1..1</text>
</g>
<!-- l1_cal_drkpc_rec -->
<g id="node6" class="node">
<title>l1_cal_drkpc_rec</title>
<polygon fill="none" stroke="black" points="218.99,-328.09 67.99,-328.09 67.99,-304.09 218.99,-304.09 230.99,-316.09 218.99,-328.09"/>
<text text-anchor="middle" x="149.49" y="-312.39" font-family="Times,serif" font-size="14.00">recipe L1_eng_a 1..1</text>
</g>
</g>
</svg>
