<?xml version="1.0" encoding="UTF-8" standalone="no"?>
<!DOCTYPE svg PUBLIC "-//W3C//DTD SVG 1.1//EN"
 "http://www.w3.org/Graphics/SVG/1.1/DTD/svg11.dtd">
<!-- Generated by graphviz version 2.43.0 (0)
 -->
<!-- Title: EngAClerks Pages: 1 -->
<svg width="721pt" height="665pt"
 viewBox="0.00 0.00 720.86 665.25" xmlns="http://www.w3.org/2000/svg" xmlns:xlink="http://www.w3.org/1999/xlink">
<g id="graph0" class="graph" transform="scale(1 1) rotate(0) translate(4 661.25)">
<title>EngAClerks</title>
<polygon fill="white" stroke="transparent" points="-4,4 -4,-661.25 716.86,-661.25 716.86,4 -4,4"/>
<!-- alarm_cal -->
<g id="node1" class="node">
<title>alarm_cal</title>
<text text-anchor="middle" x="91" y="-203.3" font-family="Times,serif" font-size="14.00">User requested update</text>
</g>
<!-- calib -->
<g id="node4" class="node">
<title>calib</title>
<ellipse fill="none" stroke="black" cx="292.09" cy="-207" rx="62.29" ry="62.29"/>
<text text-anchor="middle" x="292.09" y="-203.3" font-family="Times,serif" font-size="14.00">Calibration</text>
</g>
<!-- alarm_cal&#45;&gt;calib -->
<g id="edge1" class="edge">
<title>alarm_cal&#45;&gt;calib</title>
<path fill="none" stroke="black" stroke-dasharray="5,2" d="M182.13,-207C182.13,-207 219.47,-207 219.47,-207"/>
<polygon fill="black" stroke="black" points="219.47,-210.5 229.47,-207 219.47,-203.5 219.47,-210.5"/>
</g>
<!-- alarm_cnf -->
<g id="node2" class="node">
<title>alarm_cnf</title>
<text text-anchor="middle" x="91" y="-463.3" font-family="Times,serif" font-size="14.00">User requested update</text>
</g>
<!-- config -->
<g id="node5" class="node">
<title>config</title>
<ellipse fill="none" stroke="black" cx="292.09" cy="-467" rx="74.19" ry="74.19"/>
<text text-anchor="middle" x="292.09" y="-463.3" font-family="Times,serif" font-size="14.00">Configuration</text>
</g>
<!-- alarm_cnf&#45;&gt;config -->
<g id="edge2" class="edge">
<title>alarm_cnf&#45;&gt;config</title>
<path fill="none" stroke="black" stroke-dasharray="5,2" d="M182.13,-467C182.13,-467 207.84,-467 207.84,-467"/>
<polygon fill="black" stroke="black" points="207.84,-470.5 217.84,-467 207.84,-463.5 207.84,-470.5"/>
</g>
<!-- alarm_rec -->
<g id="node3" class="node">
<title>alarm_rec</title>
<text text-anchor="middle" x="91" y="-611.3" font-family="Times,serif" font-size="14.00">User requested update</text>
</g>
<!-- recipe -->
<g id="node6" class="node">
<title>recipe</title>
<ellipse fill="none" stroke="black" cx="292.09" cy="-615" rx="42.49" ry="42.49"/>
<text text-anchor="middle" x="292.09" y="-611.3" font-family="Times,serif" font-size="14.00">Recipe</text>
</g>
<!-- alarm_rec&#45;&gt;recipe -->
<g id="edge3" class="edge">
<title>alarm_rec&#45;&gt;recipe</title>
<path fill="none" stroke="black" stroke-dasharray="5,2" d="M182.13,-615C182.13,-615 239.74,-615 239.74,-615"/>
<polygon fill="black" stroke="black" points="239.74,-618.5 249.74,-615 239.74,-611.5 239.74,-618.5"/>
</g>
<!-- eng_a_cpgs -->
<g id="node7" class="node">
<title>eng_a_cpgs</title>
<polygon fill="none" stroke="black" points="613.02,-408 490.02,-408 490.02,-384 613.02,-384 625.02,-396 613.02,-408"/>
<text text-anchor="middle" x="557.52" y="-392.3" font-family="Times,serif" font-size="14.00">CPGS eng_a 1..1</text>
</g>
<!-- calib&#45;&gt;eng_a_cpgs -->
<g id="edge4" class="edge">
<title>calib&#45;&gt;eng_a_cpgs</title>
<path fill="none" stroke="black" d="M271.86,-266.42C271.86,-318.33 271.86,-385.45 271.86,-385.45 271.86,-385.45 479.82,-385.45 479.82,-385.45"/>
<polygon fill="black" stroke="black" points="479.82,-388.95 489.82,-385.45 479.82,-381.95 479.82,-388.95"/>
</g>
<!-- l1_eng_a_nln -->
<g id="node10" class="node">
<title>l1_eng_a_nln</title>
<polygon fill="none" stroke="black" points="646.02,-354 457.02,-354 457.02,-330 646.02,-330 658.02,-342 646.02,-354"/>
<text text-anchor="middle" x="557.52" y="-338.3" font-family="Times,serif" font-size="14.00">non linear calibration 1..1</text>
</g>
<!-- calib&#45;&gt;l1_eng_a_nln -->
<g id="edge5" class="edge">
<title>calib&#45;&gt;l1_eng_a_nln</title>
<path fill="none" stroke="black" d="M324.05,-260.7C375.47,-260.7 470.86,-260.7 470.86,-260.7 470.86,-260.7 470.86,-313.96 470.86,-313.96"/>
<polygon fill="black" stroke="black" points="467.36,-313.96 470.86,-323.96 474.36,-313.96 467.36,-313.96"/>
</g>
<!-- l2a_eng_a_mbpm -->
<g id="node13" class="node">
<title>l2a_eng_a_mbpm</title>
<polygon fill="none" stroke="black" points="620.02,-300 483.02,-300 483.02,-276 620.02,-276 632.02,-288 620.02,-300"/>
<text text-anchor="middle" x="557.52" y="-284.3" font-family="Times,serif" font-size="14.00">bad pixel map 1..1</text>
</g>
<!-- calib&#45;&gt;l2a_eng_a_mbpm -->
<g id="edge6" class="edge">
<title>calib&#45;&gt;l2a_eng_a_mbpm</title>
<path fill="none" stroke="black" d="M313.86,-265.87C313.86,-278.43 313.86,-288 313.86,-288 313.86,-288 472.76,-288 472.76,-288"/>
<polygon fill="black" stroke="black" points="472.76,-291.5 482.76,-288 472.76,-284.5 472.76,-291.5"/>
</g>
<!-- l2a_eng_a_dnb -->
<g id="node14" class="node">
<title>l2a_eng_a_dnb</title>
<polygon fill="none" stroke="black" points="671.52,-246 431.52,-246 431.52,-222 671.52,-222 683.52,-234 671.52,-246"/>
<text text-anchor="middle" x="557.52" y="-230.3" font-family="Times,serif" font-size="14.00">dark (CIC/FPN/dark current) 1..1</text>
</g>
<!-- calib&#45;&gt;l2a_eng_a_dnb -->
<g id="edge7" class="edge">
<title>calib&#45;&gt;l2a_eng_a_dnb</title>
<path fill="none" stroke="black" d="M348.38,-234C348.38,-234 421.42,-234 421.42,-234"/>
<polygon fill="black" stroke="black" points="421.42,-237.5 431.42,-234 421.42,-230.5 421.42,-237.5"/>
</g>
<!-- l2a_eng_a_nm -->
<g id="node15" class="node">
<title>l2a_eng_a_nm</title>
<polygon fill="none" stroke="black" points="609.52,-192 493.52,-192 493.52,-168 609.52,-168 621.52,-180 609.52,-192"/>
<text text-anchor="middle" x="557.52" y="-176.3" font-family="Times,serif" font-size="14.00">noise maps 1..1</text>
</g>
<!-- calib&#45;&gt;l2a_eng_a_nm -->
<g id="edge8" class="edge">
<title>calib&#45;&gt;l2a_eng_a_nm</title>
<path fill="none" stroke="black" d="M348.38,-180C348.38,-180 483.39,-180 483.39,-180"/>
<polygon fill="black" stroke="black" points="483.39,-183.5 493.39,-180 483.39,-176.5 483.39,-183.5"/>
</g>
<!-- l2a_eng_a_ff -->
<g id="node16" class="node">
<title>l2a_eng_a_ff</title>
<polygon fill="none" stroke="black" points="599.02,-138 504.02,-138 504.02,-114 599.02,-114 611.02,-126 599.02,-138"/>
<text text-anchor="middle" x="557.52" y="-122.3" font-family="Times,serif" font-size="14.00">flat field 1..1</text>
</g>
<!-- calib&#45;&gt;l2a_eng_a_ff -->
<g id="edge9" class="edge">
<title>calib&#45;&gt;l2a_eng_a_ff</title>
<path fill="none" stroke="black" d="M323.89,-153.3C394.43,-153.3 557.86,-153.3 557.86,-153.3 557.86,-153.3 557.86,-152.38 557.86,-152.38"/>
<polygon fill="black" stroke="black" points="561.36,-154.06 557.86,-144.06 554.36,-154.06 561.36,-154.06"/>
</g>
<!-- l2a_eng_a_kgain -->
<g id="node17" class="node">
<title>l2a_eng_a_kgain</title>
<polygon fill="none" stroke="black" points="591.52,-84 511.52,-84 511.52,-60 591.52,-60 603.52,-72 591.52,-84"/>
<text text-anchor="middle" x="557.52" y="-68.3" font-family="Times,serif" font-size="14.00">k&#45;gain 1..1</text>
</g>
<!-- calib&#45;&gt;l2a_eng_a_kgain -->
<g id="edge10" class="edge">
<title>calib&#45;&gt;l2a_eng_a_kgain</title>
<path fill="none" stroke="black" d="M313.86,-148.18C313.86,-111.8 313.86,-72 313.86,-72 313.86,-72 501.41,-72 501.41,-72"/>
<polygon fill="black" stroke="black" points="501.41,-75.5 511.41,-72 501.41,-68.5 501.41,-75.5"/>
</g>
<!-- l2a_eng_a_emg -->
<g id="node18" class="node">
<title>l2a_eng_a_emg</title>
<polygon fill="none" stroke="black" points="599.52,-30 503.52,-30 503.52,-6 599.52,-6 611.52,-18 599.52,-30"/>
<text text-anchor="middle" x="557.52" y="-14.3" font-family="Times,serif" font-size="14.00">EM gain 1..1</text>
</g>
<!-- calib&#45;&gt;l2a_eng_a_emg -->
<g id="edge11" class="edge">
<title>calib&#45;&gt;l2a_eng_a_emg</title>
<path fill="none" stroke="black" d="M271.86,-147.98C271.86,-92.52 271.86,-18 271.86,-18 271.86,-18 493.46,-18 493.46,-18"/>
<polygon fill="black" stroke="black" points="493.46,-21.5 503.46,-18 493.46,-14.5 493.46,-21.5"/>
</g>
<!-- l1_eng_a_odir -->
<g id="node8" class="node">
<title>l1_eng_a_odir</title>
<ellipse fill="none" stroke="black" cx="557.52" cy="-504" rx="149.47" ry="18"/>
<text text-anchor="middle" x="557.52" y="-500.3" font-family="Times,serif" font-size="14.00">Output path for L1_eng_a 1..1</text>
</g>
<!-- config&#45;&gt;l1_eng_a_odir -->
<g id="edge12" class="edge">
<title>config&#45;&gt;l1_eng_a_odir</title>
<path fill="none" stroke="black" d="M356.35,-504C356.35,-504 398.01,-504 398.01,-504"/>
<polygon fill="black" stroke="black" points="398.01,-507.5 408.01,-504 398.01,-500.5 398.01,-507.5"/>
</g>
<!-- l2a_eng_a_odir -->
<g id="node11" class="node">
<title>l2a_eng_a_odir</title>
<ellipse fill="none" stroke="black" cx="557.52" cy="-450" rx="155.17" ry="18"/>
<text text-anchor="middle" x="557.52" y="-446.3" font-family="Times,serif" font-size="14.00">Output path for L2a_eng_a 1..1</text>
</g>
<!-- config&#45;&gt;l2a_eng_a_odir -->
<g id="edge13" class="edge">
<title>config&#45;&gt;l2a_eng_a_odir</title>
<path fill="none" stroke="black" d="M364.27,-450C364.27,-450 392.17,-450 392.17,-450"/>
<polygon fill="black" stroke="black" points="392.17,-453.5 402.17,-450 392.17,-446.5 392.17,-453.5"/>
</g>
<!-- l1_eng_a_rec -->
<g id="node9" class="node">
<title>l1_eng_a_rec</title>
<polygon fill="none" stroke="black" points="627.02,-644 476.02,-644 476.02,-620 627.02,-620 639.02,-632 627.02,-644"/>
<text text-anchor="middle" x="557.52" y="-628.3" font-family="Times,serif" font-size="14.00">recipe L1_eng_a 1..1</text>
</g>
<!-- recipe&#45;&gt;l1_eng_a_rec -->
<g id="edge14" class="edge">
<title>recipe&#45;&gt;l1_eng_a_rec</title>
<path fill="none" stroke="black" d="M330.97,-632C330.97,-632 465.76,-632 465.76,-632"/>
<polygon fill="black" stroke="black" points="465.76,-635.5 475.76,-632 465.76,-628.5 465.76,-635.5"/>
</g>
<!-- l2a_eng_a_rec -->
<g id="node12" class="node">
<title>l2a_eng_a_rec</title>
<polygon fill="none" stroke="black" points="630.52,-590 472.52,-590 472.52,-566 630.52,-566 642.52,-578 630.52,-590"/>
<text text-anchor="middle" x="557.52" y="-574.3" font-family="Times,serif" font-size="14.00">recipe L2s_eng_a 1..1</text>
</g>
<!-- recipe&#45;&gt;l2a_eng_a_rec -->
<g id="edge15" class="edge">
<title>recipe&#45;&gt;l2a_eng_a_rec</title>
<path fill="none" stroke="black" d="M321.26,-584.38C321.26,-584.38 462.28,-584.38 462.28,-584.38"/>
<polygon fill="black" stroke="black" points="462.28,-587.88 472.28,-584.38 462.28,-580.88 462.28,-587.88"/>
</g>
</g>
</svg>
