<?xml version="1.0" encoding="UTF-8" standalone="no"?>
<!DOCTYPE svg PUBLIC "-//W3C//DTD SVG 1.1//EN"
 "http://www.w3.org/Graphics/SVG/1.1/DTD/svg11.dtd">
<!-- Generated by graphviz version 2.43.0 (0)
 -->
<!-- Title: EngAClerks Pages: 1 -->
<svg width="825pt" height="680pt"
 viewBox="0.00 0.00 824.67 680.09" xmlns="http://www.w3.org/2000/svg" xmlns:xlink="http://www.w3.org/1999/xlink">
<g id="graph0" class="graph" transform="scale(1 1) rotate(0) translate(4 676.09)">
<title>EngAClerks</title>
<polygon fill="white" stroke="transparent" points="-4,4 -4,-676.09 820.67,-676.09 820.67,4 -4,4"/>
<!-- alarm_cal -->
<g id="node1" class="node">
<title>alarm_cal</title>
<text text-anchor="middle" x="91" y="-230.3" font-family="Times,serif" font-size="14.00">User requested update</text>
</g>
<!-- calib -->
<g id="node4" class="node">
<title>calib</title>
<ellipse fill="none" stroke="black" cx="373.34" cy="-207" rx="62.29" ry="62.29"/>
<text text-anchor="middle" x="373.34" y="-203.3" font-family="Times,serif" font-size="14.00">Calibration</text>
</g>
<!-- alarm_cal&#45;&gt;calib -->
<g id="edge1" class="edge">
<title>alarm_cal&#45;&gt;calib</title>
<path fill="none" stroke="black" stroke-dasharray="5,2" d="M182.28,-234C182.28,-234 306.9,-234 306.9,-234"/>
<polygon fill="black" stroke="black" points="306.9,-237.5 316.9,-234 306.9,-230.5 306.9,-237.5"/>
</g>
<!-- alarm_cnf -->
<g id="node2" class="node">
<title>alarm_cnf</title>
<text text-anchor="middle" x="91" y="-176.3" font-family="Times,serif" font-size="14.00">User requested update</text>
</g>
<!-- alarm_cnf&#45;&gt;calib -->
<g id="edge2" class="edge">
<title>alarm_cnf&#45;&gt;calib</title>
<path fill="none" stroke="black" stroke-dasharray="5,2" d="M182.28,-180C182.28,-180 306.9,-180 306.9,-180"/>
<polygon fill="black" stroke="black" points="306.9,-183.5 316.9,-180 306.9,-176.5 306.9,-183.5"/>
</g>
<!-- alarm_rec -->
<g id="node3" class="node">
<title>alarm_rec</title>
<text text-anchor="middle" x="91" y="-473.3" font-family="Times,serif" font-size="14.00">User requested update</text>
</g>
<!-- recipe -->
<g id="node6" class="node">
<title>recipe</title>
<ellipse fill="none" stroke="black" cx="373.34" cy="-477" rx="42.49" ry="42.49"/>
<text text-anchor="middle" x="373.34" y="-473.3" font-family="Times,serif" font-size="14.00">Recipe</text>
</g>
<!-- alarm_rec&#45;&gt;recipe -->
<g id="edge3" class="edge">
<title>alarm_rec&#45;&gt;recipe</title>
<path fill="none" stroke="black" stroke-dasharray="5,2" d="M182.28,-477C182.28,-477 320.91,-477 320.91,-477"/>
<polygon fill="black" stroke="black" points="320.91,-480.5 330.91,-477 320.91,-473.5 320.91,-480.5"/>
</g>
<!-- eng_a_cpgs -->
<g id="node7" class="node">
<title>eng_a_cpgs</title>
<polygon fill="none" stroke="black" points="746.17,-408 623.17,-408 623.17,-384 746.17,-384 758.17,-396 746.17,-408"/>
<text text-anchor="middle" x="690.67" y="-392.3" font-family="Times,serif" font-size="14.00">CPGS eng_a 1..1</text>
</g>
<!-- calib&#45;&gt;eng_a_cpgs -->
<g id="edge4" class="edge">
<title>calib&#45;&gt;eng_a_cpgs</title>
<path fill="none" stroke="black" d="M422.67,-245.25C422.67,-300.47 422.67,-396 422.67,-396 422.67,-396 613.04,-396 613.04,-396"/>
<polygon fill="black" stroke="black" points="613.04,-399.5 623.04,-396 613.04,-392.5 613.04,-399.5"/>
</g>
<!-- l1_eng_a_nln -->
<g id="node10" class="node">
<title>l1_eng_a_nln</title>
<polygon fill="none" stroke="black" points="779.17,-354 590.17,-354 590.17,-330 779.17,-330 791.17,-342 779.17,-354"/>
<text text-anchor="middle" x="690.67" y="-338.3" font-family="Times,serif" font-size="14.00">non linear calibration 1..1</text>
</g>
<!-- calib&#45;&gt;l1_eng_a_nln -->
<g id="edge5" class="edge">
<title>calib&#45;&gt;l1_eng_a_nln</title>
<path fill="none" stroke="black" d="M405.36,-260.7C468.65,-260.7 603.67,-260.7 603.67,-260.7 603.67,-260.7 603.67,-313.96 603.67,-313.96"/>
<polygon fill="black" stroke="black" points="600.17,-313.96 603.67,-323.96 607.17,-313.96 600.17,-313.96"/>
</g>
<!-- l2a_eng_a_mbpm -->
<g id="node13" class="node">
<title>l2a_eng_a_mbpm</title>
<polygon fill="none" stroke="black" points="753.17,-300 616.17,-300 616.17,-276 753.17,-276 765.17,-288 753.17,-300"/>
<text text-anchor="middle" x="690.67" y="-284.3" font-family="Times,serif" font-size="14.00">bad pixel map 1..1</text>
</g>
<!-- calib&#45;&gt;l2a_eng_a_mbpm -->
<g id="edge6" class="edge">
<title>calib&#45;&gt;l2a_eng_a_mbpm</title>
<path fill="none" stroke="black" d="M429.67,-233.97C429.67,-257.53 429.67,-288 429.67,-288 429.67,-288 605.88,-288 605.88,-288"/>
<polygon fill="black" stroke="black" points="605.88,-291.5 615.88,-288 605.88,-284.5 605.88,-291.5"/>
</g>
<!-- l2a_eng_a_dnb -->
<g id="node14" class="node">
<title>l2a_eng_a_dnb</title>
<polygon fill="none" stroke="black" points="804.67,-246 564.67,-246 564.67,-222 804.67,-222 816.67,-234 804.67,-246"/>
<text text-anchor="middle" x="690.67" y="-230.3" font-family="Times,serif" font-size="14.00">dark (CIC/FPN/dark current) 1..1</text>
</g>
<!-- calib&#45;&gt;l2a_eng_a_dnb -->
<g id="edge7" class="edge">
<title>calib&#45;&gt;l2a_eng_a_dnb</title>
<path fill="none" stroke="black" d="M429.7,-234C429.7,-234 554.44,-234 554.44,-234"/>
<polygon fill="black" stroke="black" points="554.44,-237.5 564.44,-234 554.44,-230.5 554.44,-237.5"/>
</g>
<!-- l2a_eng_a_nm -->
<g id="node15" class="node">
<title>l2a_eng_a_nm</title>
<polygon fill="none" stroke="black" points="742.67,-192 626.67,-192 626.67,-168 742.67,-168 754.67,-180 742.67,-192"/>
<text text-anchor="middle" x="690.67" y="-176.3" font-family="Times,serif" font-size="14.00">noise maps 1..1</text>
</g>
<!-- calib&#45;&gt;l2a_eng_a_nm -->
<g id="edge8" class="edge">
<title>calib&#45;&gt;l2a_eng_a_nm</title>
<path fill="none" stroke="black" d="M429.7,-180C429.7,-180 616.64,-180 616.64,-180"/>
<polygon fill="black" stroke="black" points="616.64,-183.5 626.64,-180 616.64,-176.5 616.64,-183.5"/>
</g>
<!-- l2a_eng_a_ff -->
<g id="node16" class="node">
<title>l2a_eng_a_ff</title>
<polygon fill="none" stroke="black" points="732.17,-138 637.17,-138 637.17,-114 732.17,-114 744.17,-126 732.17,-138"/>
<text text-anchor="middle" x="690.67" y="-122.3" font-family="Times,serif" font-size="14.00">flat field 1..1</text>
</g>
<!-- calib&#45;&gt;l2a_eng_a_ff -->
<g id="edge9" class="edge">
<title>calib&#45;&gt;l2a_eng_a_ff</title>
<path fill="none" stroke="black" d="M405.22,-153.3C485.69,-153.3 690.67,-153.3 690.67,-153.3 690.67,-153.3 690.67,-152.38 690.67,-152.38"/>
<polygon fill="black" stroke="black" points="694.17,-154.06 690.67,-144.06 687.17,-154.06 694.17,-154.06"/>
</g>
<!-- l2a_eng_a_kgain -->
<g id="node17" class="node">
<title>l2a_eng_a_kgain</title>
<polygon fill="none" stroke="black" points="724.67,-84 644.67,-84 644.67,-60 724.67,-60 736.67,-72 724.67,-84"/>
<text text-anchor="middle" x="690.67" y="-68.3" font-family="Times,serif" font-size="14.00">k&#45;gain 1..1</text>
</g>
<!-- calib&#45;&gt;l2a_eng_a_kgain -->
<g id="edge10" class="edge">
<title>calib&#45;&gt;l2a_eng_a_kgain</title>
<path fill="none" stroke="black" d="M394.67,-148.18C394.67,-111.8 394.67,-72 394.67,-72 394.67,-72 634.42,-72 634.42,-72"/>
<polygon fill="black" stroke="black" points="634.42,-75.5 644.42,-72 634.42,-68.5 634.42,-75.5"/>
</g>
<!-- l2a_eng_a_emg -->
<g id="node18" class="node">
<title>l2a_eng_a_emg</title>
<polygon fill="none" stroke="black" points="732.67,-30 636.67,-30 636.67,-6 732.67,-6 744.67,-18 732.67,-30"/>
<text text-anchor="middle" x="690.67" y="-14.3" font-family="Times,serif" font-size="14.00">EM gain 1..1</text>
</g>
<!-- calib&#45;&gt;l2a_eng_a_emg -->
<g id="edge11" class="edge">
<title>calib&#45;&gt;l2a_eng_a_emg</title>
<path fill="none" stroke="black" d="M352.67,-147.98C352.67,-92.52 352.67,-18 352.67,-18 352.67,-18 626.37,-18 626.37,-18"/>
<polygon fill="black" stroke="black" points="626.37,-21.5 636.37,-18 626.37,-14.5 626.37,-21.5"/>
</g>
<!-- config -->
<g id="node5" class="node">
<title>config</title>
<ellipse fill="none" stroke="black" cx="91" cy="-598" rx="74.19" ry="74.19"/>
<text text-anchor="middle" x="91" y="-594.3" font-family="Times,serif" font-size="14.00">Configuration</text>
</g>
<!-- l1_eng_a_odir -->
<g id="node8" class="node">
<title>l1_eng_a_odir</title>
<ellipse fill="none" stroke="black" cx="373.34" cy="-630" rx="149.47" ry="18"/>
<text text-anchor="middle" x="373.34" y="-626.3" font-family="Times,serif" font-size="14.00">Output path for L1_eng_a 1..1</text>
</g>
<!-- config&#45;&gt;l1_eng_a_odir -->
<g id="edge12" class="edge">
<title>config&#45;&gt;l1_eng_a_odir</title>
<path fill="none" stroke="black" d="M157.91,-630C157.91,-630 213.69,-630 213.69,-630"/>
<polygon fill="black" stroke="black" points="213.69,-633.5 223.69,-630 213.69,-626.5 213.69,-633.5"/>
</g>
<!-- l2a_eng_a_odir -->
<g id="node11" class="node">
<title>l2a_eng_a_odir</title>
<ellipse fill="none" stroke="black" cx="373.34" cy="-576" rx="155.17" ry="18"/>
<text text-anchor="middle" x="373.34" y="-572.3" font-family="Times,serif" font-size="14.00">Output path for L2a_eng_a 1..1</text>
</g>
<!-- config&#45;&gt;l2a_eng_a_odir -->
<g id="edge13" class="edge">
<title>config&#45;&gt;l2a_eng_a_odir</title>
<path fill="none" stroke="black" d="M161.88,-576C161.88,-576 207.98,-576 207.98,-576"/>
<polygon fill="black" stroke="black" points="207.98,-579.5 217.98,-576 207.98,-572.5 207.98,-579.5"/>
</g>
<!-- l1_eng_a_rec -->
<g id="node9" class="node">
<title>l1_eng_a_rec</title>
<polygon fill="none" stroke="black" points="760.17,-516 609.17,-516 609.17,-492 760.17,-492 772.17,-504 760.17,-516"/>
<text text-anchor="middle" x="690.67" y="-500.3" font-family="Times,serif" font-size="14.00">recipe L1_eng_a 1..1</text>
</g>
<!-- recipe&#45;&gt;l1_eng_a_rec -->
<g id="edge14" class="edge">
<title>recipe&#45;&gt;l1_eng_a_rec</title>
<path fill="none" stroke="black" d="M407,-502.62C407,-502.62 599,-502.62 599,-502.62"/>
<polygon fill="black" stroke="black" points="599,-506.12 609,-502.62 599,-499.12 599,-506.12"/>
</g>
<!-- l2a_eng_a_rec -->
<g id="node12" class="node">
<title>l2a_eng_a_rec</title>
<polygon fill="none" stroke="black" points="763.67,-462 605.67,-462 605.67,-438 763.67,-438 775.67,-450 763.67,-462"/>
<text text-anchor="middle" x="690.67" y="-446.3" font-family="Times,serif" font-size="14.00">recipe L2s_eng_a 1..1</text>
</g>
<!-- recipe&#45;&gt;l2a_eng_a_rec -->
<g id="edge15" class="edge">
<title>recipe&#45;&gt;l2a_eng_a_rec</title>
<path fill="none" stroke="black" d="M407,-451.38C407,-451.38 595.36,-451.38 595.36,-451.38"/>
<polygon fill="black" stroke="black" points="595.36,-454.88 605.36,-451.38 595.36,-447.88 595.36,-454.88"/>
</g>
</g>
</svg>
