<?xml version="1.0" encoding="UTF-8" standalone="no"?>
<!DOCTYPE svg PUBLIC "-//W3C//DTD SVG 1.1//EN"
 "http://www.w3.org/Graphics/SVG/1.1/DTD/svg11.dtd">
<!-- Generated by graphviz version 2.43.0 (0)
 -->
<!-- Title: CategorizationDesign Pages: 1 -->
<svg width="1319pt" height="1430pt"
 viewBox="0.00 0.00 1318.51 1429.74" xmlns="http://www.w3.org/2000/svg" xmlns:xlink="http://www.w3.org/1999/xlink">
<g id="graph0" class="graph" transform="scale(1 1) rotate(0) translate(4 1425.74)">
<title>CategorizationDesign</title>
<polygon fill="white" stroke="transparent" points="-4,4 -4,-1425.74 1314.51,-1425.74 1314.51,4 -4,4"/>
<!-- alarm -->
<g id="node1" class="node">
<title>alarm</title>
<text text-anchor="middle" x="67.5" y="-734.17" font-family="Times,serif" font-size="14.00">Periodic Wakeup</text>
</g>
<!-- scan -->
<g id="node2" class="node">
<title>scan</title>
<ellipse fill="none" stroke="black" cx="236.76" cy="-737.87" rx="65.52" ry="65.52"/>
<text text-anchor="middle" x="236.76" y="-741.67" font-family="Times,serif" font-size="14.00">Scan for</text>
<text text-anchor="middle" x="236.76" y="-726.67" font-family="Times,serif" font-size="14.00">Signal File</text>
</g>
<!-- alarm&#45;&gt;scan -->
<g id="edge1" class="edge">
<title>alarm&#45;&gt;scan</title>
<path fill="none" stroke="black" stroke-dasharray="5,2" d="M135.37,-737.87C135.37,-737.87 160.8,-737.87 160.8,-737.87"/>
<polygon fill="black" stroke="black" points="160.8,-741.37 170.8,-737.87 160.8,-734.37 160.8,-741.37"/>
</g>
<!-- l1_man -->
<g id="node5" class="node">
<title>l1_man</title>
<ellipse fill="none" stroke="black" cx="424.96" cy="-737.87" rx="86.38" ry="18"/>
<text text-anchor="middle" x="424.96" y="-734.17" font-family="Times,serif" font-size="14.00">L1 manifest 1..1</text>
</g>
<!-- scan&#45;&gt;l1_man -->
<g id="edge2" class="edge">
<title>scan&#45;&gt;l1_man</title>
<path fill="none" stroke="black" d="M302.59,-737.87C302.59,-737.87 328.34,-737.87 328.34,-737.87"/>
<polygon fill="black" stroke="black" points="328.34,-741.37 338.34,-737.87 328.34,-734.37 328.34,-741.37"/>
</g>
<!-- sort -->
<g id="node3" class="node">
<title>sort</title>
<ellipse fill="none" stroke="black" cx="626.7" cy="-710.87" rx="79.09" ry="79.09"/>
<text text-anchor="middle" x="626.7" y="-707.17" font-family="Times,serif" font-size="14.00">Categorization</text>
</g>
<!-- l1_cal_a_man -->
<g id="node6" class="node">
<title>l1_cal_a_man</title>
<ellipse fill="none" stroke="black" cx="1026.25" cy="-1394.87" rx="123.99" ry="26.74"/>
<text text-anchor="middle" x="1026.25" y="-1398.67" font-family="Times,serif" font-size="14.00">L1_cal_a manifest 1..1</text>
<text text-anchor="middle" x="1026.25" y="-1383.67" font-family="Times,serif" font-size="14.00">of 0..a files</text>
</g>
<!-- sort&#45;&gt;l1_cal_a_man -->
<g id="edge5" class="edge">
<title>sort&#45;&gt;l1_cal_a_man</title>
<path fill="none" stroke="black" d="M565.51,-761.44C565.51,-919.68 565.51,-1394.87 565.51,-1394.87 565.51,-1394.87 892.48,-1394.87 892.48,-1394.87"/>
<polygon fill="black" stroke="black" points="892.48,-1398.37 902.48,-1394.87 892.48,-1391.37 892.48,-1398.37"/>
</g>
<!-- l1_cal_absflux_man -->
<g id="node7" class="node">
<title>l1_cal_absflux_man</title>
<ellipse fill="none" stroke="black" cx="1026.25" cy="-1322.87" rx="154.3" ry="26.74"/>
<text text-anchor="middle" x="1026.25" y="-1326.67" font-family="Times,serif" font-size="14.00">L1_cal_absflux manifest 1..1</text>
<text text-anchor="middle" x="1026.25" y="-1311.67" font-family="Times,serif" font-size="14.00">of 0..a files</text>
</g>
<!-- sort&#45;&gt;l1_cal_absflux_man -->
<g id="edge6" class="edge">
<title>sort&#45;&gt;l1_cal_absflux_man</title>
<path fill="none" stroke="black" d="M583.51,-777.53C583.51,-936.15 583.51,-1322.87 583.51,-1322.87 583.51,-1322.87 862.02,-1322.87 862.02,-1322.87"/>
<polygon fill="black" stroke="black" points="862.02,-1326.37 872.02,-1322.87 862.02,-1319.37 862.02,-1326.37"/>
</g>
<!-- l1_cal_boresight_man -->
<g id="node8" class="node">
<title>l1_cal_boresight_man</title>
<ellipse fill="none" stroke="black" cx="1026.25" cy="-1250.87" rx="166.34" ry="26.74"/>
<text text-anchor="middle" x="1026.25" y="-1254.67" font-family="Times,serif" font-size="14.00">L1_cal_boresight manifest 1..1</text>
<text text-anchor="middle" x="1026.25" y="-1239.67" font-family="Times,serif" font-size="14.00">of 0..a files</text>
</g>
<!-- sort&#45;&gt;l1_cal_boresight_man -->
<g id="edge7" class="edge">
<title>sort&#45;&gt;l1_cal_boresight_man</title>
<path fill="none" stroke="black" d="M600.51,-785.95C600.51,-934.33 600.51,-1250.87 600.51,-1250.87 600.51,-1250.87 849.82,-1250.87 849.82,-1250.87"/>
<polygon fill="black" stroke="black" points="849.82,-1254.37 859.82,-1250.87 849.82,-1247.37 849.82,-1254.37"/>
</g>
<!-- l1_cal_corethpt_man -->
<g id="node9" class="node">
<title>l1_cal_corethpt_man</title>
<ellipse fill="none" stroke="black" cx="1026.25" cy="-1178.87" rx="160.53" ry="26.74"/>
<text text-anchor="middle" x="1026.25" y="-1182.67" font-family="Times,serif" font-size="14.00">L1_cal_corethpt manifest 1..1</text>
<text text-anchor="middle" x="1026.25" y="-1167.67" font-family="Times,serif" font-size="14.00">of 0..a files</text>
</g>
<!-- sort&#45;&gt;l1_cal_corethpt_man -->
<g id="edge8" class="edge">
<title>sort&#45;&gt;l1_cal_corethpt_man</title>
<path fill="none" stroke="black" d="M618.51,-790C618.51,-923.44 618.51,-1178.87 618.51,-1178.87 618.51,-1178.87 855.68,-1178.87 855.68,-1178.87"/>
<polygon fill="black" stroke="black" points="855.68,-1182.37 865.68,-1178.87 855.68,-1175.37 855.68,-1182.37"/>
</g>
<!-- l1_cal_ndfiltimg_man -->
<g id="node10" class="node">
<title>l1_cal_ndfiltimg_man</title>
<ellipse fill="none" stroke="black" cx="1026.25" cy="-1106.87" rx="163.18" ry="26.74"/>
<text text-anchor="middle" x="1026.25" y="-1110.67" font-family="Times,serif" font-size="14.00">L1_cal_ndfiltimg manifest 1..1</text>
<text text-anchor="middle" x="1026.25" y="-1095.67" font-family="Times,serif" font-size="14.00">of 0..a files</text>
</g>
<!-- sort&#45;&gt;l1_cal_ndfiltimg_man -->
<g id="edge9" class="edge">
<title>sort&#45;&gt;l1_cal_ndfiltimg_man</title>
<path fill="none" stroke="black" d="M636.51,-789.58C636.51,-905.07 636.51,-1106.87 636.51,-1106.87 636.51,-1106.87 852.66,-1106.87 852.66,-1106.87"/>
<polygon fill="black" stroke="black" points="852.66,-1110.37 862.66,-1106.87 852.66,-1103.37 852.66,-1110.37"/>
</g>
<!-- l1_cal_ndfiltspec_man -->
<g id="node11" class="node">
<title>l1_cal_ndfiltspec_man</title>
<ellipse fill="none" stroke="black" cx="1026.25" cy="-1034.87" rx="166.75" ry="26.74"/>
<text text-anchor="middle" x="1026.25" y="-1038.67" font-family="Times,serif" font-size="14.00">L1_cal_ndfiltspec manifest 1..1</text>
<text text-anchor="middle" x="1026.25" y="-1023.67" font-family="Times,serif" font-size="14.00">of 0..a files</text>
</g>
<!-- sort&#45;&gt;l1_cal_ndfiltspec_man -->
<g id="edge10" class="edge">
<title>sort&#45;&gt;l1_cal_ndfiltspec_man</title>
<path fill="none" stroke="black" d="M653.51,-785.61C653.51,-881.29 653.51,-1034.87 653.51,-1034.87 653.51,-1034.87 849.23,-1034.87 849.23,-1034.87"/>
<polygon fill="black" stroke="black" points="849.23,-1038.37 859.23,-1034.87 849.23,-1031.37 849.23,-1038.37"/>
</g>
<!-- l1_cal_pupil_man -->
<g id="node12" class="node">
<title>l1_cal_pupil_man</title>
<ellipse fill="none" stroke="black" cx="1026.25" cy="-962.87" rx="284.01" ry="26.74"/>
<text text-anchor="middle" x="1026.25" y="-966.67" font-family="Times,serif" font-size="14.00">L1_cal_pupil (nonlinear, k&#45;gain, em&#45;gain) manifest 1..1</text>
<text text-anchor="middle" x="1026.25" y="-951.67" font-family="Times,serif" font-size="14.00">of 0..a files</text>
</g>
<!-- sort&#45;&gt;l1_cal_pupil_man -->
<g id="edge11" class="edge">
<title>sort&#45;&gt;l1_cal_pupil_man</title>
<path fill="none" stroke="black" d="M662.02,-781.95C716.43,-781.95 814.51,-781.95 814.51,-781.95 814.51,-781.95 814.51,-934.86 814.51,-934.86"/>
<polygon fill="black" stroke="black" points="811.01,-934.86 814.51,-944.86 818.01,-934.86 811.01,-934.86"/>
</g>
<!-- l1_eng_a_man -->
<g id="node13" class="node">
<title>l1_eng_a_man</title>
<ellipse fill="none" stroke="black" cx="1026.25" cy="-890.87" rx="127.97" ry="26.74"/>
<text text-anchor="middle" x="1026.25" y="-894.67" font-family="Times,serif" font-size="14.00">L1_eng_a manifest 1..1</text>
<text text-anchor="middle" x="1026.25" y="-879.67" font-family="Times,serif" font-size="14.00">of 0..b files</text>
</g>
<!-- sort&#45;&gt;l1_eng_a_man -->
<g id="edge12" class="edge">
<title>sort&#45;&gt;l1_eng_a_man</title>
<path fill="none" stroke="black" d="M671.51,-776.36C671.51,-827.83 671.51,-890.87 671.51,-890.87 671.51,-890.87 888.18,-890.87 888.18,-890.87"/>
<polygon fill="black" stroke="black" points="888.18,-894.37 898.18,-890.87 888.18,-887.37 888.18,-894.37"/>
</g>
<!-- l1_nfov_a_man -->
<g id="node14" class="node">
<title>l1_nfov_a_man</title>
<ellipse fill="none" stroke="black" cx="1026.25" cy="-818.87" rx="130.63" ry="26.74"/>
<text text-anchor="middle" x="1026.25" y="-822.67" font-family="Times,serif" font-size="14.00">L1_nfov_a manifest 1..1</text>
<text text-anchor="middle" x="1026.25" y="-807.67" font-family="Times,serif" font-size="14.00">of 0..c files</text>
</g>
<!-- sort&#45;&gt;l1_nfov_a_man -->
<g id="edge13" class="edge">
<title>sort&#45;&gt;l1_nfov_a_man</title>
<path fill="none" stroke="black" d="M688.51,-760.69C688.51,-780.12 688.51,-797.82 688.51,-797.82 688.51,-797.82 934.92,-797.82 934.92,-797.82"/>
<polygon fill="black" stroke="black" points="934.92,-801.32 944.92,-797.82 934.92,-794.32 934.92,-801.32"/>
</g>
<!-- l1_nfov_nc_man -->
<g id="node15" class="node">
<title>l1_nfov_nc_man</title>
<ellipse fill="none" stroke="black" cx="1026.25" cy="-746.87" rx="137.36" ry="26.74"/>
<text text-anchor="middle" x="1026.25" y="-750.67" font-family="Times,serif" font-size="14.00">L1_nfov_nc manifest 1..1</text>
<text text-anchor="middle" x="1026.25" y="-735.67" font-family="Times,serif" font-size="14.00">of 0..d files</text>
</g>
<!-- sort&#45;&gt;l1_nfov_nc_man -->
<g id="edge14" class="edge">
<title>sort&#45;&gt;l1_nfov_nc_man</title>
<path fill="none" stroke="black" d="M697.67,-746.87C697.67,-746.87 878.88,-746.87 878.88,-746.87"/>
<polygon fill="black" stroke="black" points="878.88,-750.37 888.88,-746.87 878.88,-743.37 878.88,-750.37"/>
</g>
<!-- l1_nfov_pc_man -->
<g id="node16" class="node">
<title>l1_nfov_pc_man</title>
<ellipse fill="none" stroke="black" cx="1026.25" cy="-674.87" rx="137.36" ry="26.74"/>
<text text-anchor="middle" x="1026.25" y="-678.67" font-family="Times,serif" font-size="14.00">L1_nfov_pc manifest 1..1</text>
<text text-anchor="middle" x="1026.25" y="-663.67" font-family="Times,serif" font-size="14.00">of 0..d files</text>
</g>
<!-- sort&#45;&gt;l1_nfov_pc_man -->
<g id="edge15" class="edge">
<title>sort&#45;&gt;l1_nfov_pc_man</title>
<path fill="none" stroke="black" d="M697.67,-674.87C697.67,-674.87 878.88,-674.87 878.88,-674.87"/>
<polygon fill="black" stroke="black" points="878.88,-678.37 888.88,-674.87 878.88,-671.37 878.88,-678.37"/>
</g>
<!-- l1_pol_a_man -->
<g id="node17" class="node">
<title>l1_pol_a_man</title>
<ellipse fill="none" stroke="black" cx="1026.25" cy="-602.87" rx="124.4" ry="26.74"/>
<text text-anchor="middle" x="1026.25" y="-606.67" font-family="Times,serif" font-size="14.00">L1_pol_a manifest 1..1</text>
<text text-anchor="middle" x="1026.25" y="-591.67" font-family="Times,serif" font-size="14.00">of 0..e files</text>
</g>
<!-- sort&#45;&gt;l1_pol_a_man -->
<g id="edge16" class="edge">
<title>sort&#45;&gt;l1_pol_a_man</title>
<path fill="none" stroke="black" d="M690.51,-663.5C690.51,-634.48 690.51,-602.87 690.51,-602.87 690.51,-602.87 891.71,-602.87 891.71,-602.87"/>
<polygon fill="black" stroke="black" points="891.71,-606.37 901.71,-602.87 891.71,-599.37 891.71,-606.37"/>
</g>
<!-- l1_pol_pc_man -->
<g id="node18" class="node">
<title>l1_pol_pc_man</title>
<ellipse fill="none" stroke="black" cx="1026.25" cy="-530.87" rx="130.63" ry="26.74"/>
<text text-anchor="middle" x="1026.25" y="-534.67" font-family="Times,serif" font-size="14.00">L1_pol_pc manifest 1..1</text>
<text text-anchor="middle" x="1026.25" y="-519.67" font-family="Times,serif" font-size="14.00">of 0..f files</text>
</g>
<!-- sort&#45;&gt;l1_pol_pc_man -->
<g id="edge17" class="edge">
<title>sort&#45;&gt;l1_pol_pc_man</title>
<path fill="none" stroke="black" d="M674.51,-647.41C674.51,-595.59 674.51,-530.87 674.51,-530.87 674.51,-530.87 885.27,-530.87 885.27,-530.87"/>
<polygon fill="black" stroke="black" points="885.27,-534.37 895.27,-530.87 885.27,-527.37 885.27,-534.37"/>
</g>
<!-- l1_spec_a_man -->
<g id="node19" class="node">
<title>l1_spec_a_man</title>
<ellipse fill="none" stroke="black" cx="1026.25" cy="-458.87" rx="132.46" ry="26.74"/>
<text text-anchor="middle" x="1026.25" y="-462.67" font-family="Times,serif" font-size="14.00">L1_spec_a manifest 1..1</text>
<text text-anchor="middle" x="1026.25" y="-447.67" font-family="Times,serif" font-size="14.00">of 0..g files</text>
</g>
<!-- sort&#45;&gt;l1_spec_a_man -->
<g id="edge18" class="edge">
<title>sort&#45;&gt;l1_spec_a_man</title>
<path fill="none" stroke="black" d="M658.51,-637.98C658.51,-563.56 658.51,-458.87 658.51,-458.87 658.51,-458.87 884.01,-458.87 884.01,-458.87"/>
<polygon fill="black" stroke="black" points="884.01,-462.37 894.01,-458.87 884.01,-455.37 884.01,-462.37"/>
</g>
<!-- l1_spec_nc_man -->
<g id="node20" class="node">
<title>l1_spec_nc_man</title>
<ellipse fill="none" stroke="black" cx="1026.25" cy="-386.87" rx="137.77" ry="26.74"/>
<text text-anchor="middle" x="1026.25" y="-390.67" font-family="Times,serif" font-size="14.00">L1_spec_nc manifest 1..1</text>
<text text-anchor="middle" x="1026.25" y="-375.67" font-family="Times,serif" font-size="14.00">of 0..h files</text>
</g>
<!-- sort&#45;&gt;l1_spec_nc_man -->
<g id="edge19" class="edge">
<title>sort&#45;&gt;l1_spec_nc_man</title>
<path fill="none" stroke="black" d="M643.51,-633.26C643.51,-537.41 643.51,-386.87 643.51,-386.87 643.51,-386.87 878.34,-386.87 878.34,-386.87"/>
<polygon fill="black" stroke="black" points="878.34,-390.37 888.34,-386.87 878.34,-383.37 878.34,-390.37"/>
</g>
<!-- l1_spec_pc_man -->
<g id="node21" class="node">
<title>l1_spec_pc_man</title>
<ellipse fill="none" stroke="black" cx="1026.25" cy="-314.87" rx="137.77" ry="26.74"/>
<text text-anchor="middle" x="1026.25" y="-318.67" font-family="Times,serif" font-size="14.00">L1_spec_pc manifest 1..1</text>
<text text-anchor="middle" x="1026.25" y="-303.67" font-family="Times,serif" font-size="14.00">of 0..h files</text>
</g>
<!-- sort&#45;&gt;l1_spec_pc_man -->
<g id="edge20" class="edge">
<title>sort&#45;&gt;l1_spec_pc_man</title>
<path fill="none" stroke="black" d="M627.51,-631.21C627.51,-515.57 627.51,-314.87 627.51,-314.87 627.51,-314.87 878.19,-314.87 878.19,-314.87"/>
<polygon fill="black" stroke="black" points="878.19,-318.37 888.19,-314.87 878.19,-311.37 878.19,-318.37"/>
</g>
<!-- l1_wfov_a_man -->
<g id="node22" class="node">
<title>l1_wfov_a_man</title>
<ellipse fill="none" stroke="black" cx="1026.25" cy="-242.87" rx="132.87" ry="26.74"/>
<text text-anchor="middle" x="1026.25" y="-246.67" font-family="Times,serif" font-size="14.00">L1_wfov_a manifest 1..1</text>
<text text-anchor="middle" x="1026.25" y="-231.67" font-family="Times,serif" font-size="14.00">of 0..i files</text>
</g>
<!-- sort&#45;&gt;l1_wfov_a_man -->
<g id="edge21" class="edge">
<title>sort&#45;&gt;l1_wfov_a_man</title>
<path fill="none" stroke="black" d="M611.51,-632.8C611.51,-499.65 611.51,-242.87 611.51,-242.87 611.51,-242.87 883.31,-242.87 883.31,-242.87"/>
<polygon fill="black" stroke="black" points="883.31,-246.37 893.31,-242.87 883.31,-239.37 883.31,-246.37"/>
</g>
<!-- l1_wfov_nc_man -->
<g id="node23" class="node">
<title>l1_wfov_nc_man</title>
<ellipse fill="none" stroke="black" cx="1026.25" cy="-170.87" rx="139.1" ry="26.74"/>
<text text-anchor="middle" x="1026.25" y="-174.67" font-family="Times,serif" font-size="14.00">L1_wfov_nc manifest 1..1</text>
<text text-anchor="middle" x="1026.25" y="-159.67" font-family="Times,serif" font-size="14.00">of 0..j files</text>
</g>
<!-- sort&#45;&gt;l1_wfov_nc_man -->
<g id="edge22" class="edge">
<title>sort&#45;&gt;l1_wfov_nc_man</title>
<path fill="none" stroke="black" d="M595.51,-637.76C595.51,-490.24 595.51,-170.87 595.51,-170.87 595.51,-170.87 876.7,-170.87 876.7,-170.87"/>
<polygon fill="black" stroke="black" points="876.7,-174.37 886.7,-170.87 876.7,-167.37 876.7,-174.37"/>
</g>
<!-- l1_wfov_pc_man -->
<g id="node24" class="node">
<title>l1_wfov_pc_man</title>
<ellipse fill="none" stroke="black" cx="1026.25" cy="-98.87" rx="139.1" ry="26.74"/>
<text text-anchor="middle" x="1026.25" y="-102.67" font-family="Times,serif" font-size="14.00">L1_wfov_pc manifest 1..1</text>
<text text-anchor="middle" x="1026.25" y="-87.67" font-family="Times,serif" font-size="14.00">of 0..j files</text>
</g>
<!-- sort&#45;&gt;l1_wfov_pc_man -->
<g id="edge23" class="edge">
<title>sort&#45;&gt;l1_wfov_pc_man</title>
<path fill="none" stroke="black" d="M579.51,-647.11C579.51,-490.36 579.51,-98.87 579.51,-98.87 579.51,-98.87 876.73,-98.87 876.73,-98.87"/>
<polygon fill="black" stroke="black" points="876.73,-102.37 886.73,-98.87 876.73,-95.37 876.73,-102.37"/>
</g>
<!-- l1_unk_man -->
<g id="node25" class="node">
<title>l1_unk_man</title>
<ellipse fill="none" stroke="black" cx="1026.25" cy="-26.87" rx="117.26" ry="26.74"/>
<text text-anchor="middle" x="1026.25" y="-30.67" font-family="Times,serif" font-size="14.00">L1_unk manifest 1..1</text>
<text text-anchor="middle" x="1026.25" y="-15.67" font-family="Times,serif" font-size="14.00">of 0..k files</text>
</g>
<!-- sort&#45;&gt;l1_unk_man -->
<g id="edge24" class="edge">
<title>sort&#45;&gt;l1_unk_man</title>
<path fill="none" stroke="black" d="M563.51,-662.77C563.51,-507.08 563.51,-26.87 563.51,-26.87 563.51,-26.87 898.58,-26.87 898.58,-26.87"/>
<polygon fill="black" stroke="black" points="898.58,-30.37 908.58,-26.87 898.58,-23.37 898.58,-30.37"/>
</g>
<!-- l1_data -->
<g id="node4" class="node">
<title>l1_data</title>
<polygon fill="none" stroke="black" points="493.46,-701.87 356.46,-701.87 356.46,-665.87 493.46,-665.87 493.46,-701.87"/>
<text text-anchor="middle" x="424.96" y="-680.17" font-family="Times,serif" font-size="14.00">L1 products 1..N</text>
</g>
<!-- l1_data&#45;&gt;sort -->
<g id="edge3" class="edge">
<title>l1_data&#45;&gt;sort</title>
<path fill="none" stroke="black" stroke-dasharray="5,2" d="M493.54,-683.87C493.54,-683.87 542.09,-683.87 542.09,-683.87"/>
<polygon fill="black" stroke="black" points="542.09,-687.37 552.09,-683.87 542.09,-680.37 542.09,-687.37"/>
</g>
<!-- l1_man&#45;&gt;sort -->
<g id="edge4" class="edge">
<title>l1_man&#45;&gt;sort</title>
<path fill="none" stroke="black" d="M511.69,-737.87C511.69,-737.87 542.1,-737.87 542.1,-737.87"/>
<polygon fill="black" stroke="black" points="542.1,-741.37 552.1,-737.87 542.1,-734.37 542.1,-741.37"/>
</g>
</g>
</svg>
