<?xml version="1.0" encoding="UTF-8" standalone="no"?>
<!DOCTYPE svg PUBLIC "-//W3C//DTD SVG 1.1//EN"
 "http://www.w3.org/Graphics/SVG/1.1/DTD/svg11.dtd">
<!-- Generated by graphviz version 2.43.0 (0)
 -->
<!-- Title: CategorizationDesign Pages: 1 -->
<svg width="1319pt" height="1214pt"
 viewBox="0.00 0.00 1318.51 1213.74" xmlns="http://www.w3.org/2000/svg" xmlns:xlink="http://www.w3.org/1999/xlink">
<g id="graph0" class="graph" transform="scale(1 1) rotate(0) translate(4 1209.74)">
<title>CategorizationDesign</title>
<polygon fill="white" stroke="transparent" points="-4,4 -4,-1209.74 1314.51,-1209.74 1314.51,4 -4,4"/>
<!-- alarm -->
<g id="node1" class="node">
<title>alarm</title>
<text text-anchor="middle" x="67.5" y="-626.17" font-family="Times,serif" font-size="14.00">Periodic Wakeup</text>
</g>
<!-- scan -->
<g id="node2" class="node">
<title>scan</title>
<ellipse fill="none" stroke="black" cx="236.76" cy="-629.87" rx="65.52" ry="65.52"/>
<text text-anchor="middle" x="236.76" y="-633.67" font-family="Times,serif" font-size="14.00">Scan for</text>
<text text-anchor="middle" x="236.76" y="-618.67" font-family="Times,serif" font-size="14.00">Signal File</text>
</g>
<!-- alarm&#45;&gt;scan -->
<g id="edge1" class="edge">
<title>alarm&#45;&gt;scan</title>
<path fill="none" stroke="black" stroke-dasharray="5,2" d="M135.37,-629.87C135.37,-629.87 160.8,-629.87 160.8,-629.87"/>
<polygon fill="black" stroke="black" points="160.8,-633.37 170.8,-629.87 160.8,-626.37 160.8,-633.37"/>
</g>
<!-- l1_man -->
<g id="node5" class="node">
<title>l1_man</title>
<ellipse fill="none" stroke="black" cx="424.96" cy="-629.87" rx="86.38" ry="18"/>
<text text-anchor="middle" x="424.96" y="-626.17" font-family="Times,serif" font-size="14.00">L1 manifest 1..1</text>
</g>
<!-- scan&#45;&gt;l1_man -->
<g id="edge2" class="edge">
<title>scan&#45;&gt;l1_man</title>
<path fill="none" stroke="black" d="M302.59,-629.87C302.59,-629.87 328.34,-629.87 328.34,-629.87"/>
<polygon fill="black" stroke="black" points="328.34,-633.37 338.34,-629.87 328.34,-626.37 328.34,-633.37"/>
</g>
<!-- sort -->
<g id="node3" class="node">
<title>sort</title>
<ellipse fill="none" stroke="black" cx="626.7" cy="-602.87" rx="79.09" ry="79.09"/>
<text text-anchor="middle" x="626.7" y="-599.17" font-family="Times,serif" font-size="14.00">Categorization</text>
</g>
<!-- l1_cal_a_man -->
<g id="node6" class="node">
<title>l1_cal_a_man</title>
<ellipse fill="none" stroke="black" cx="1026.25" cy="-1178.87" rx="123.99" ry="26.74"/>
<text text-anchor="middle" x="1026.25" y="-1182.67" font-family="Times,serif" font-size="14.00">L1_cal_a manifest 1..1</text>
<text text-anchor="middle" x="1026.25" y="-1167.67" font-family="Times,serif" font-size="14.00">of 0..a files</text>
</g>
<!-- sort&#45;&gt;l1_cal_a_man -->
<g id="edge5" class="edge">
<title>sort&#45;&gt;l1_cal_a_man</title>
<path fill="none" stroke="black" d="M570.51,-658.89C570.51,-803.63 570.51,-1178.87 570.51,-1178.87 570.51,-1178.87 892.32,-1178.87 892.32,-1178.87"/>
<polygon fill="black" stroke="black" points="892.32,-1182.37 902.32,-1178.87 892.32,-1175.37 892.32,-1182.37"/>
</g>
<!-- l1_cal_absflux_man -->
<g id="node7" class="node">
<title>l1_cal_absflux_man</title>
<ellipse fill="none" stroke="black" cx="1026.25" cy="-1106.87" rx="154.3" ry="26.74"/>
<text text-anchor="middle" x="1026.25" y="-1110.67" font-family="Times,serif" font-size="14.00">L1_cal_absflux manifest 1..1</text>
<text text-anchor="middle" x="1026.25" y="-1095.67" font-family="Times,serif" font-size="14.00">of 0..a files</text>
</g>
<!-- sort&#45;&gt;l1_cal_absflux_man -->
<g id="edge6" class="edge">
<title>sort&#45;&gt;l1_cal_absflux_man</title>
<path fill="none" stroke="black" d="M593.51,-675.08C593.51,-814.44 593.51,-1106.87 593.51,-1106.87 593.51,-1106.87 861.85,-1106.87 861.85,-1106.87"/>
<polygon fill="black" stroke="black" points="861.85,-1110.37 871.85,-1106.87 861.85,-1103.37 861.85,-1110.37"/>
</g>
<!-- l1_cal_boresight_man -->
<g id="node8" class="node">
<title>l1_cal_boresight_man</title>
<ellipse fill="none" stroke="black" cx="1026.25" cy="-1034.87" rx="166.34" ry="26.74"/>
<text text-anchor="middle" x="1026.25" y="-1038.67" font-family="Times,serif" font-size="14.00">L1_cal_boresight manifest 1..1</text>
<text text-anchor="middle" x="1026.25" y="-1023.67" font-family="Times,serif" font-size="14.00">of 0..a files</text>
</g>
<!-- sort&#45;&gt;l1_cal_boresight_man -->
<g id="edge7" class="edge">
<title>sort&#45;&gt;l1_cal_boresight_man</title>
<path fill="none" stroke="black" d="M615.51,-681.6C615.51,-806.21 615.51,-1034.87 615.51,-1034.87 615.51,-1034.87 850.07,-1034.87 850.07,-1034.87"/>
<polygon fill="black" stroke="black" points="850.07,-1038.37 860.07,-1034.87 850.07,-1031.37 850.07,-1038.37"/>
</g>
<!-- l1_cal_corethpt_man -->
<g id="node9" class="node">
<title>l1_cal_corethpt_man</title>
<ellipse fill="none" stroke="black" cx="1026.25" cy="-962.87" rx="160.53" ry="26.74"/>
<text text-anchor="middle" x="1026.25" y="-966.67" font-family="Times,serif" font-size="14.00">L1_cal_corethpt manifest 1..1</text>
<text text-anchor="middle" x="1026.25" y="-951.67" font-family="Times,serif" font-size="14.00">of 0..a files</text>
</g>
<!-- sort&#45;&gt;l1_cal_corethpt_man -->
<g id="edge8" class="edge">
<title>sort&#45;&gt;l1_cal_corethpt_man</title>
<path fill="none" stroke="black" d="M638.51,-681.43C638.51,-787.35 638.51,-962.87 638.51,-962.87 638.51,-962.87 855.46,-962.87 855.46,-962.87"/>
<polygon fill="black" stroke="black" points="855.46,-966.37 865.46,-962.87 855.46,-959.37 855.46,-966.37"/>
</g>
<!-- l1_cal_ndfiltimg_man -->
<g id="node10" class="node">
<title>l1_cal_ndfiltimg_man</title>
<ellipse fill="none" stroke="black" cx="1026.25" cy="-890.87" rx="163.18" ry="26.74"/>
<text text-anchor="middle" x="1026.25" y="-894.67" font-family="Times,serif" font-size="14.00">L1_cal_ndfiltimg manifest 1..1</text>
<text text-anchor="middle" x="1026.25" y="-879.67" font-family="Times,serif" font-size="14.00">of 0..a files</text>
</g>
<!-- sort&#45;&gt;l1_cal_ndfiltimg_man -->
<g id="edge9" class="edge">
<title>sort&#45;&gt;l1_cal_ndfiltimg_man</title>
<path fill="none" stroke="black" d="M661.51,-674.43C661.51,-759.73 661.51,-890.87 661.51,-890.87 661.51,-890.87 852.81,-890.87 852.81,-890.87"/>
<polygon fill="black" stroke="black" points="852.81,-894.37 862.81,-890.87 852.81,-887.37 852.81,-894.37"/>
</g>
<!-- l1_cal_ndfiltspec_man -->
<g id="node11" class="node">
<title>l1_cal_ndfiltspec_man</title>
<ellipse fill="none" stroke="black" cx="1026.25" cy="-818.87" rx="166.75" ry="26.74"/>
<text text-anchor="middle" x="1026.25" y="-822.67" font-family="Times,serif" font-size="14.00">L1_cal_ndfiltspec manifest 1..1</text>
<text text-anchor="middle" x="1026.25" y="-807.67" font-family="Times,serif" font-size="14.00">of 0..a files</text>
</g>
<!-- sort&#45;&gt;l1_cal_ndfiltspec_man -->
<g id="edge10" class="edge">
<title>sort&#45;&gt;l1_cal_ndfiltspec_man</title>
<path fill="none" stroke="black" d="M683.51,-658.21C683.51,-722.21 683.51,-818.87 683.51,-818.87 683.51,-818.87 849.14,-818.87 849.14,-818.87"/>
<polygon fill="black" stroke="black" points="849.15,-822.37 859.14,-818.87 849.14,-815.37 849.15,-822.37"/>
</g>
<!-- l1_cal_pupil_man -->
<g id="node12" class="node">
<title>l1_cal_pupil_man</title>
<ellipse fill="none" stroke="black" cx="1026.25" cy="-746.87" rx="284.01" ry="26.74"/>
<text text-anchor="middle" x="1026.25" y="-750.67" font-family="Times,serif" font-size="14.00">L1_cal_pupil (nonlinear, k&#45;gain, em&#45;gain) manifest 1..1</text>
<text text-anchor="middle" x="1026.25" y="-735.67" font-family="Times,serif" font-size="14.00">of 0..a files</text>
</g>
<!-- sort&#45;&gt;l1_cal_pupil_man -->
<g id="edge11" class="edge">
<title>sort&#45;&gt;l1_cal_pupil_man</title>
<path fill="none" stroke="black" d="M667.91,-670.78C723.2,-670.78 814.51,-670.78 814.51,-670.78 814.51,-670.78 814.51,-718.84 814.51,-718.84"/>
<polygon fill="black" stroke="black" points="811.01,-718.84 814.51,-728.84 818.01,-718.84 811.01,-718.84"/>
</g>
<!-- l1_eng_a_man -->
<g id="node13" class="node">
<title>l1_eng_a_man</title>
<ellipse fill="none" stroke="black" cx="1026.25" cy="-674.87" rx="127.97" ry="26.74"/>
<text text-anchor="middle" x="1026.25" y="-678.67" font-family="Times,serif" font-size="14.00">L1_eng_a manifest 1..1</text>
<text text-anchor="middle" x="1026.25" y="-663.67" font-family="Times,serif" font-size="14.00">of 0..b files</text>
</g>
<!-- sort&#45;&gt;l1_eng_a_man -->
<g id="edge12" class="edge">
<title>sort&#45;&gt;l1_eng_a_man</title>
<path fill="none" stroke="black" d="M682.68,-659.39C682.68,-659.39 911.62,-659.39 911.62,-659.39"/>
<polygon fill="black" stroke="black" points="911.62,-662.89 921.62,-659.39 911.62,-655.89 911.62,-662.89"/>
</g>
<!-- l1_nfov_a_man -->
<g id="node14" class="node">
<title>l1_nfov_a_man</title>
<ellipse fill="none" stroke="black" cx="1026.25" cy="-602.87" rx="130.63" ry="26.74"/>
<text text-anchor="middle" x="1026.25" y="-606.67" font-family="Times,serif" font-size="14.00">L1_nfov_a manifest 1..1</text>
<text text-anchor="middle" x="1026.25" y="-591.67" font-family="Times,serif" font-size="14.00">of 0..c files</text>
</g>
<!-- sort&#45;&gt;l1_nfov_a_man -->
<g id="edge13" class="edge">
<title>sort&#45;&gt;l1_nfov_a_man</title>
<path fill="none" stroke="black" d="M706.12,-602.87C706.12,-602.87 885.07,-602.87 885.07,-602.87"/>
<polygon fill="black" stroke="black" points="885.07,-606.37 895.07,-602.87 885.07,-599.37 885.07,-606.37"/>
</g>
<!-- l1_nfov_pc_man -->
<g id="node15" class="node">
<title>l1_nfov_pc_man</title>
<ellipse fill="none" stroke="black" cx="1026.25" cy="-530.87" rx="137.36" ry="26.74"/>
<text text-anchor="middle" x="1026.25" y="-534.67" font-family="Times,serif" font-size="14.00">L1_nfov_pc manifest 1..1</text>
<text text-anchor="middle" x="1026.25" y="-519.67" font-family="Times,serif" font-size="14.00">of 0..d files</text>
</g>
<!-- sort&#45;&gt;l1_nfov_pc_man -->
<g id="edge14" class="edge">
<title>sort&#45;&gt;l1_nfov_pc_man</title>
<path fill="none" stroke="black" d="M676.09,-540.66C676.09,-540.66 888.17,-540.66 888.17,-540.66"/>
<polygon fill="black" stroke="black" points="888.17,-544.16 898.17,-540.66 888.17,-537.16 888.17,-544.16"/>
</g>
<!-- l1_pol_a_man -->
<g id="node16" class="node">
<title>l1_pol_a_man</title>
<ellipse fill="none" stroke="black" cx="1026.25" cy="-458.87" rx="124.4" ry="26.74"/>
<text text-anchor="middle" x="1026.25" y="-462.67" font-family="Times,serif" font-size="14.00">L1_pol_a manifest 1..1</text>
<text text-anchor="middle" x="1026.25" y="-447.67" font-family="Times,serif" font-size="14.00">of 0..e files</text>
</g>
<!-- sort&#45;&gt;l1_pol_a_man -->
<g id="edge15" class="edge">
<title>sort&#45;&gt;l1_pol_a_man</title>
<path fill="none" stroke="black" d="M686.51,-550.48C686.51,-509.3 686.51,-458.87 686.51,-458.87 686.51,-458.87 891.67,-458.87 891.67,-458.87"/>
<polygon fill="black" stroke="black" points="891.67,-462.37 901.67,-458.87 891.67,-455.37 891.67,-462.37"/>
</g>
<!-- l1_pol_pc_man -->
<g id="node17" class="node">
<title>l1_pol_pc_man</title>
<ellipse fill="none" stroke="black" cx="1026.25" cy="-386.87" rx="130.63" ry="26.74"/>
<text text-anchor="middle" x="1026.25" y="-390.67" font-family="Times,serif" font-size="14.00">L1_pol_pc manifest 1..1</text>
<text text-anchor="middle" x="1026.25" y="-375.67" font-family="Times,serif" font-size="14.00">of 0..f files</text>
</g>
<!-- sort&#45;&gt;l1_pol_pc_man -->
<g id="edge16" class="edge">
<title>sort&#45;&gt;l1_pol_pc_man</title>
<path fill="none" stroke="black" d="M666.51,-534.23C666.51,-470.98 666.51,-386.87 666.51,-386.87 666.51,-386.87 885.36,-386.87 885.36,-386.87"/>
<polygon fill="black" stroke="black" points="885.36,-390.37 895.36,-386.87 885.36,-383.37 885.36,-390.37"/>
</g>
<!-- l1_spec_a_man -->
<g id="node18" class="node">
<title>l1_spec_a_man</title>
<ellipse fill="none" stroke="black" cx="1026.25" cy="-314.87" rx="132.46" ry="26.74"/>
<text text-anchor="middle" x="1026.25" y="-318.67" font-family="Times,serif" font-size="14.00">L1_spec_a manifest 1..1</text>
<text text-anchor="middle" x="1026.25" y="-303.67" font-family="Times,serif" font-size="14.00">of 0..g files</text>
</g>
<!-- sort&#45;&gt;l1_spec_a_man -->
<g id="edge17" class="edge">
<title>sort&#45;&gt;l1_spec_a_man</title>
<path fill="none" stroke="black" d="M647.51,-526.07C647.51,-440.75 647.51,-314.87 647.51,-314.87 647.51,-314.87 883.78,-314.87 883.78,-314.87"/>
<polygon fill="black" stroke="black" points="883.78,-318.37 893.78,-314.87 883.78,-311.37 883.78,-318.37"/>
</g>
<!-- l1_spec_pc_man -->
<g id="node19" class="node">
<title>l1_spec_pc_man</title>
<ellipse fill="none" stroke="black" cx="1026.25" cy="-242.87" rx="137.77" ry="26.74"/>
<text text-anchor="middle" x="1026.25" y="-246.67" font-family="Times,serif" font-size="14.00">L1_spec_pc manifest 1..1</text>
<text text-anchor="middle" x="1026.25" y="-231.67" font-family="Times,serif" font-size="14.00">of 0..h files</text>
</g>
<!-- sort&#45;&gt;l1_spec_pc_man -->
<g id="edge18" class="edge">
<title>sort&#45;&gt;l1_spec_pc_man</title>
<path fill="none" stroke="black" d="M627.51,-523.42C627.51,-417.4 627.51,-242.87 627.51,-242.87 627.51,-242.87 878.19,-242.87 878.19,-242.87"/>
<polygon fill="black" stroke="black" points="878.19,-246.37 888.19,-242.87 878.19,-239.37 878.19,-246.37"/>
</g>
<!-- l1_wfov_a_man -->
<g id="node20" class="node">
<title>l1_wfov_a_man</title>
<ellipse fill="none" stroke="black" cx="1026.25" cy="-170.87" rx="132.87" ry="26.74"/>
<text text-anchor="middle" x="1026.25" y="-174.67" font-family="Times,serif" font-size="14.00">L1_wfov_a manifest 1..1</text>
<text text-anchor="middle" x="1026.25" y="-159.67" font-family="Times,serif" font-size="14.00">of 0..i files</text>
</g>
<!-- sort&#45;&gt;l1_wfov_a_man -->
<g id="edge19" class="edge">
<title>sort&#45;&gt;l1_wfov_a_man</title>
<path fill="none" stroke="black" d="M607.51,-525.64C607.51,-401.38 607.51,-170.87 607.51,-170.87 607.51,-170.87 883.18,-170.87 883.18,-170.87"/>
<polygon fill="black" stroke="black" points="883.18,-174.37 893.18,-170.87 883.18,-167.37 883.18,-174.37"/>
</g>
<!-- l1_wfov_pc_man -->
<g id="node21" class="node">
<title>l1_wfov_pc_man</title>
<ellipse fill="none" stroke="black" cx="1026.25" cy="-98.87" rx="139.1" ry="26.74"/>
<text text-anchor="middle" x="1026.25" y="-102.67" font-family="Times,serif" font-size="14.00">L1_wfov_pc manifest 1..1</text>
<text text-anchor="middle" x="1026.25" y="-87.67" font-family="Times,serif" font-size="14.00">of 0..j files</text>
</g>
<!-- sort&#45;&gt;l1_wfov_pc_man -->
<g id="edge20" class="edge">
<title>sort&#45;&gt;l1_wfov_pc_man</title>
<path fill="none" stroke="black" d="M587.51,-533.85C587.51,-395.81 587.51,-98.87 587.51,-98.87 587.51,-98.87 876.83,-98.87 876.83,-98.87"/>
<polygon fill="black" stroke="black" points="876.83,-102.37 886.83,-98.87 876.83,-95.37 876.83,-102.37"/>
</g>
<!-- l1_unk_man -->
<g id="node22" class="node">
<title>l1_unk_man</title>
<ellipse fill="none" stroke="black" cx="1026.25" cy="-26.87" rx="117.26" ry="26.74"/>
<text text-anchor="middle" x="1026.25" y="-30.67" font-family="Times,serif" font-size="14.00">L1_unk manifest 1..1</text>
<text text-anchor="middle" x="1026.25" y="-15.67" font-family="Times,serif" font-size="14.00">of 0..k files</text>
</g>
<!-- sort&#45;&gt;l1_unk_man -->
<g id="edge21" class="edge">
<title>sort&#45;&gt;l1_unk_man</title>
<path fill="none" stroke="black" d="M567.51,-549.97C567.51,-407.58 567.51,-26.87 567.51,-26.87 567.51,-26.87 898.71,-26.87 898.71,-26.87"/>
<polygon fill="black" stroke="black" points="898.71,-30.37 908.71,-26.87 898.71,-23.37 898.71,-30.37"/>
</g>
<!-- l1_data -->
<g id="node4" class="node">
<title>l1_data</title>
<polygon fill="none" stroke="black" points="493.46,-593.87 356.46,-593.87 356.46,-557.87 493.46,-557.87 493.46,-593.87"/>
<text text-anchor="middle" x="424.96" y="-572.17" font-family="Times,serif" font-size="14.00">L1 products 1..N</text>
</g>
<!-- l1_data&#45;&gt;sort -->
<g id="edge3" class="edge">
<title>l1_data&#45;&gt;sort</title>
<path fill="none" stroke="black" stroke-dasharray="5,2" d="M493.54,-575.87C493.54,-575.87 542.09,-575.87 542.09,-575.87"/>
<polygon fill="black" stroke="black" points="542.09,-579.37 552.09,-575.87 542.09,-572.37 542.09,-579.37"/>
</g>
<!-- l1_man&#45;&gt;sort -->
<g id="edge4" class="edge">
<title>l1_man&#45;&gt;sort</title>
<path fill="none" stroke="black" d="M511.69,-629.87C511.69,-629.87 542.1,-629.87 542.1,-629.87"/>
<polygon fill="black" stroke="black" points="542.1,-633.37 552.1,-629.87 542.1,-626.37 542.1,-633.37"/>
</g>
</g>
</svg>
