<?xml version="1.0" encoding="UTF-8" standalone="no"?>
<!DOCTYPE svg PUBLIC "-//W3C//DTD SVG 1.1//EN"
 "http://www.w3.org/Graphics/SVG/1.1/DTD/svg11.dtd">
<!-- Generated by graphviz version 2.43.0 (0)
 -->
<!-- Title: LineSpreadFunctionClerks Pages: 1 -->
<svg width="709pt" height="258pt"
 viewBox="0.00 0.00 709.16 258.34" xmlns="http://www.w3.org/2000/svg" xmlns:xlink="http://www.w3.org/1999/xlink">
<g id="graph0" class="graph" transform="scale(1 1) rotate(0) translate(4 254.34)">
<title>LineSpreadFunctionClerks</title>
<polygon fill="white" stroke="transparent" points="-4,4 -4,-254.34 705.16,-254.34 705.16,4 -4,4"/>
<!-- alarm_cnf -->
<g id="node1" class="node">
<title>alarm_cnf</title>
<text text-anchor="middle" x="91" y="-70.39" font-family="Times,serif" font-size="14.00">User requested update</text>
</g>
<!-- config -->
<g id="node3" class="node">
<title>config</title>
<ellipse fill="none" stroke="black" cx="292.09" cy="-74.09" rx="74.19" ry="74.19"/>
<text text-anchor="middle" x="292.09" y="-70.39" font-family="Times,serif" font-size="14.00">Configuration</text>
</g>
<!-- alarm_cnf&#45;&gt;config -->
<g id="edge1" class="edge">
<title>alarm_cnf&#45;&gt;config</title>
<path fill="none" stroke="black" stroke-dasharray="5,2" d="M182.13,-74.09C182.13,-74.09 207.84,-74.09 207.84,-74.09"/>
<polygon fill="black" stroke="black" points="207.84,-77.59 217.84,-74.09 207.84,-70.59 207.84,-77.59"/>
</g>
<!-- alarm_rec -->
<g id="node2" class="node">
<title>alarm_rec</title>
<text text-anchor="middle" x="91" y="-204.39" font-family="Times,serif" font-size="14.00">User requested update</text>
</g>
<!-- recipe -->
<g id="node4" class="node">
<title>recipe</title>
<ellipse fill="none" stroke="black" cx="292.09" cy="-208.09" rx="42.49" ry="42.49"/>
<text text-anchor="middle" x="292.09" y="-204.39" font-family="Times,serif" font-size="14.00">Recipe</text>
</g>
<!-- alarm_rec&#45;&gt;recipe -->
<g id="edge2" class="edge">
<title>alarm_rec&#45;&gt;recipe</title>
<path fill="none" stroke="black" stroke-dasharray="5,2" d="M182.13,-208.09C182.13,-208.09 239.74,-208.09 239.74,-208.09"/>
<polygon fill="black" stroke="black" points="239.74,-211.59 249.74,-208.09 239.74,-204.59 239.74,-211.59"/>
</g>
<!-- l1_cal_lsf_odir -->
<g id="node5" class="node">
<title>l1_cal_lsf_odir</title>
<ellipse fill="none" stroke="black" cx="551.67" cy="-74.09" rx="149.47" ry="18"/>
<text text-anchor="middle" x="551.67" y="-70.39" font-family="Times,serif" font-size="14.00">Output path for L1_eng_a 1..1</text>
</g>
<!-- config&#45;&gt;l1_cal_lsf_odir -->
<g id="edge3" class="edge">
<title>config&#45;&gt;l1_cal_lsf_odir</title>
<path fill="none" stroke="black" d="M366.48,-74.09C366.48,-74.09 391.79,-74.09 391.79,-74.09"/>
<polygon fill="black" stroke="black" points="391.79,-77.59 401.79,-74.09 391.79,-70.59 391.79,-77.59"/>
</g>
<!-- l1_cal_lsf_rec -->
<g id="node6" class="node">
<title>l1_cal_lsf_rec</title>
<polygon fill="none" stroke="black" points="621.17,-220.09 470.17,-220.09 470.17,-196.09 621.17,-196.09 633.17,-208.09 621.17,-220.09"/>
<text text-anchor="middle" x="551.67" y="-204.39" font-family="Times,serif" font-size="14.00">recipe L1_eng_a 1..1</text>
</g>
<!-- recipe&#45;&gt;l1_cal_lsf_rec -->
<g id="edge4" class="edge">
<title>recipe&#45;&gt;l1_cal_lsf_rec</title>
<path fill="none" stroke="black" d="M334.38,-208.09C334.38,-208.09 460.08,-208.09 460.08,-208.09"/>
<polygon fill="black" stroke="black" points="460.08,-211.59 470.08,-208.09 460.08,-204.59 460.08,-211.59"/>
</g>
</g>
</svg>
