<?xml version="1.0" encoding="UTF-8" standalone="no"?>
<!DOCTYPE svg PUBLIC "-//W3C//DTD SVG 1.1//EN"
 "http://www.w3.org/Graphics/SVG/1.1/DTD/svg11.dtd">
<!-- Generated by graphviz version 2.43.0 (0)
 -->
<!-- Title: CategorizationDesign Pages: 1 -->
<svg width="1509pt" height="1502pt"
 viewBox="0.00 0.00 1508.78 1501.74" xmlns="http://www.w3.org/2000/svg" xmlns:xlink="http://www.w3.org/1999/xlink">
<g id="graph0" class="graph" transform="scale(1 1) rotate(0) translate(4 1497.74)">
<title>CategorizationDesign</title>
<polygon fill="white" stroke="transparent" points="-4,4 -4,-1497.74 1504.78,-1497.74 1504.78,4 -4,4"/>
<!-- alarm -->
<g id="node1" class="node">
<title>alarm</title>
<text text-anchor="middle" x="162.63" y="-770.17" font-family="Times,serif" font-size="14.00">Periodic Wakeup</text>
</g>
<!-- scan -->
<g id="node2" class="node">
<title>scan</title>
<ellipse fill="none" stroke="black" cx="427.03" cy="-773.87" rx="65.52" ry="65.52"/>
<text text-anchor="middle" x="427.03" y="-777.67" font-family="Times,serif" font-size="14.00">Scan for</text>
<text text-anchor="middle" x="427.03" y="-762.67" font-family="Times,serif" font-size="14.00">Signal File</text>
</g>
<!-- alarm&#45;&gt;scan -->
<g id="edge1" class="edge">
<title>alarm&#45;&gt;scan</title>
<path fill="none" stroke="black" stroke-dasharray="5,2" d="M230.38,-773.87C230.38,-773.87 350.83,-773.87 350.83,-773.87"/>
<polygon fill="black" stroke="black" points="350.83,-777.37 360.83,-773.87 350.83,-770.37 350.83,-777.37"/>
</g>
<!-- l1_man -->
<g id="node5" class="node">
<title>l1_man</title>
<ellipse fill="none" stroke="black" cx="615.23" cy="-773.87" rx="86.38" ry="18"/>
<text text-anchor="middle" x="615.23" y="-770.17" font-family="Times,serif" font-size="14.00">L1 manifest 1..1</text>
</g>
<!-- scan&#45;&gt;l1_man -->
<g id="edge2" class="edge">
<title>scan&#45;&gt;l1_man</title>
<path fill="none" stroke="black" d="M492.85,-773.87C492.85,-773.87 518.61,-773.87 518.61,-773.87"/>
<polygon fill="black" stroke="black" points="518.61,-777.37 528.61,-773.87 518.61,-770.37 518.61,-777.37"/>
</g>
<!-- sort -->
<g id="node3" class="node">
<title>sort</title>
<ellipse fill="none" stroke="black" cx="816.97" cy="-746.87" rx="79.09" ry="79.09"/>
<text text-anchor="middle" x="816.97" y="-743.17" font-family="Times,serif" font-size="14.00">Categorization</text>
</g>
<!-- l1_cal_a_man -->
<g id="node6" class="node">
<title>l1_cal_a_man</title>
<ellipse fill="none" stroke="black" cx="1216.52" cy="-1466.87" rx="123.99" ry="26.74"/>
<text text-anchor="middle" x="1216.52" y="-1470.67" font-family="Times,serif" font-size="14.00">L1_cal_a manifest 1..1</text>
<text text-anchor="middle" x="1216.52" y="-1455.67" font-family="Times,serif" font-size="14.00">of 0..a files</text>
</g>
<!-- sort&#45;&gt;l1_cal_a_man -->
<g id="edge5" class="edge">
<title>sort&#45;&gt;l1_cal_a_man</title>
<path fill="none" stroke="black" d="M753.78,-794.95C753.78,-956.07 753.78,-1466.87 753.78,-1466.87 753.78,-1466.87 1082.51,-1466.87 1082.51,-1466.87"/>
<polygon fill="black" stroke="black" points="1082.51,-1470.37 1092.51,-1466.87 1082.51,-1463.37 1082.51,-1470.37"/>
</g>
<!-- l1_cal_absflux_man -->
<g id="node7" class="node">
<title>l1_cal_absflux_man</title>
<ellipse fill="none" stroke="black" cx="1216.52" cy="-1394.87" rx="154.3" ry="26.74"/>
<text text-anchor="middle" x="1216.52" y="-1398.67" font-family="Times,serif" font-size="14.00">L1_cal_absflux manifest 1..1</text>
<text text-anchor="middle" x="1216.52" y="-1383.67" font-family="Times,serif" font-size="14.00">of 0..a files</text>
</g>
<!-- sort&#45;&gt;l1_cal_absflux_man -->
<g id="edge6" class="edge">
<title>sort&#45;&gt;l1_cal_absflux_man</title>
<path fill="none" stroke="black" d="M769.78,-810.78C769.78,-974.26 769.78,-1394.87 769.78,-1394.87 769.78,-1394.87 1052.15,-1394.87 1052.15,-1394.87"/>
<polygon fill="black" stroke="black" points="1052.15,-1398.37 1062.15,-1394.87 1052.15,-1391.37 1052.15,-1398.37"/>
</g>
<!-- l1_cal_boresight_man -->
<g id="node8" class="node">
<title>l1_cal_boresight_man</title>
<ellipse fill="none" stroke="black" cx="1216.52" cy="-1322.87" rx="166.34" ry="26.74"/>
<text text-anchor="middle" x="1216.52" y="-1326.67" font-family="Times,serif" font-size="14.00">L1_cal_boresight manifest 1..1</text>
<text text-anchor="middle" x="1216.52" y="-1311.67" font-family="Times,serif" font-size="14.00">of 0..a files</text>
</g>
<!-- sort&#45;&gt;l1_cal_boresight_man -->
<g id="edge7" class="edge">
<title>sort&#45;&gt;l1_cal_boresight_man</title>
<path fill="none" stroke="black" d="M785.78,-819.82C785.78,-974.81 785.78,-1322.87 785.78,-1322.87 785.78,-1322.87 1040.29,-1322.87 1040.29,-1322.87"/>
<polygon fill="black" stroke="black" points="1040.29,-1326.37 1050.29,-1322.87 1040.29,-1319.37 1040.29,-1326.37"/>
</g>
<!-- l1_cal_bpm_man -->
<g id="node9" class="node">
<title>l1_cal_bpm_man</title>
<ellipse fill="none" stroke="black" cx="1216.52" cy="-1250.87" rx="140.01" ry="26.74"/>
<text text-anchor="middle" x="1216.52" y="-1254.67" font-family="Times,serif" font-size="14.00">L1_cal_bpm manifest 1..1</text>
<text text-anchor="middle" x="1216.52" y="-1239.67" font-family="Times,serif" font-size="14.00">of 0..a files</text>
</g>
<!-- sort&#45;&gt;l1_cal_bpm_man -->
<g id="edge8" class="edge">
<title>sort&#45;&gt;l1_cal_bpm_man</title>
<path fill="none" stroke="black" d="M801.78,-824.79C801.78,-966.26 801.78,-1250.87 801.78,-1250.87 801.78,-1250.87 1066.39,-1250.87 1066.39,-1250.87"/>
<polygon fill="black" stroke="black" points="1066.39,-1254.37 1076.39,-1250.87 1066.39,-1247.37 1066.39,-1254.37"/>
</g>
<!-- l1_cal_corethpt_man -->
<g id="node10" class="node">
<title>l1_cal_corethpt_man</title>
<ellipse fill="none" stroke="black" cx="1216.52" cy="-1178.87" rx="160.53" ry="26.74"/>
<text text-anchor="middle" x="1216.52" y="-1182.67" font-family="Times,serif" font-size="14.00">L1_cal_corethpt manifest 1..1</text>
<text text-anchor="middle" x="1216.52" y="-1167.67" font-family="Times,serif" font-size="14.00">of 0..a files</text>
</g>
<!-- sort&#45;&gt;l1_cal_corethpt_man -->
<g id="edge9" class="edge">
<title>sort&#45;&gt;l1_cal_corethpt_man</title>
<path fill="none" stroke="black" d="M817.78,-826.36C817.78,-951.13 817.78,-1178.87 817.78,-1178.87 817.78,-1178.87 1045.77,-1178.87 1045.77,-1178.87"/>
<polygon fill="black" stroke="black" points="1045.77,-1182.37 1055.77,-1178.87 1045.77,-1175.37 1045.77,-1182.37"/>
</g>
<!-- l1_cal_ndfiltimg_man -->
<g id="node14" class="node">
<title>l1_cal_ndfiltimg_man</title>
<ellipse fill="none" stroke="black" cx="1216.52" cy="-1106.87" rx="163.18" ry="26.74"/>
<text text-anchor="middle" x="1216.52" y="-1110.67" font-family="Times,serif" font-size="14.00">L1_cal_ndfiltimg manifest 1..1</text>
<text text-anchor="middle" x="1216.52" y="-1095.67" font-family="Times,serif" font-size="14.00">of 0..a files</text>
</g>
<!-- sort&#45;&gt;l1_cal_ndfiltimg_man -->
<g id="edge10" class="edge">
<title>sort&#45;&gt;l1_cal_ndfiltimg_man</title>
<path fill="none" stroke="black" d="M833.78,-824.54C833.78,-930.37 833.78,-1106.87 833.78,-1106.87 833.78,-1106.87 1043.09,-1106.87 1043.09,-1106.87"/>
<polygon fill="black" stroke="black" points="1043.09,-1110.37 1053.09,-1106.87 1043.09,-1103.37 1043.09,-1110.37"/>
</g>
<!-- l1_cal_ndfiltspec_man -->
<g id="node15" class="node">
<title>l1_cal_ndfiltspec_man</title>
<ellipse fill="none" stroke="black" cx="1216.52" cy="-1034.87" rx="166.75" ry="26.74"/>
<text text-anchor="middle" x="1216.52" y="-1038.67" font-family="Times,serif" font-size="14.00">L1_cal_ndfiltspec manifest 1..1</text>
<text text-anchor="middle" x="1216.52" y="-1023.67" font-family="Times,serif" font-size="14.00">of 0..a files</text>
</g>
<!-- sort&#45;&gt;l1_cal_ndfiltspec_man -->
<g id="edge11" class="edge">
<title>sort&#45;&gt;l1_cal_ndfiltspec_man</title>
<path fill="none" stroke="black" d="M848.78,-819.54C848.78,-904.86 848.78,-1034.87 848.78,-1034.87 848.78,-1034.87 1039.59,-1034.87 1039.59,-1034.87"/>
<polygon fill="black" stroke="black" points="1039.59,-1038.37 1049.59,-1034.87 1039.59,-1031.37 1039.59,-1038.37"/>
</g>
<!-- l1_cal_pupil_man -->
<g id="node16" class="node">
<title>l1_cal_pupil_man</title>
<ellipse fill="none" stroke="black" cx="1216.52" cy="-962.87" rx="284.01" ry="26.74"/>
<text text-anchor="middle" x="1216.52" y="-966.67" font-family="Times,serif" font-size="14.00">L1_cal_pupil (nonlinear, k&#45;gain, em&#45;gain) manifest 1..1</text>
<text text-anchor="middle" x="1216.52" y="-951.67" font-family="Times,serif" font-size="14.00">of 0..a files</text>
</g>
<!-- sort&#45;&gt;l1_cal_pupil_man -->
<g id="edge12" class="edge">
<title>sort&#45;&gt;l1_cal_pupil_man</title>
<path fill="none" stroke="black" d="M864.78,-810.38C864.78,-868.33 864.78,-945 864.78,-945 864.78,-945 994.05,-945 994.05,-945"/>
<polygon fill="black" stroke="black" points="994.05,-948.5 1004.05,-945 994.05,-941.5 994.05,-948.5"/>
</g>
<!-- l1_eng_a_man -->
<g id="node17" class="node">
<title>l1_eng_a_man</title>
<ellipse fill="none" stroke="black" cx="1216.52" cy="-890.87" rx="127.97" ry="26.74"/>
<text text-anchor="middle" x="1216.52" y="-894.67" font-family="Times,serif" font-size="14.00">L1_eng_a manifest 1..1</text>
<text text-anchor="middle" x="1216.52" y="-879.67" font-family="Times,serif" font-size="14.00">of 0..b files</text>
</g>
<!-- sort&#45;&gt;l1_eng_a_man -->
<g id="edge13" class="edge">
<title>sort&#45;&gt;l1_eng_a_man</title>
<path fill="none" stroke="black" d="M880.78,-794.2C880.78,-829.98 880.78,-873 880.78,-873 880.78,-873 1110.76,-873 1110.76,-873"/>
<polygon fill="black" stroke="black" points="1110.76,-876.5 1120.76,-873 1110.76,-869.5 1110.76,-876.5"/>
</g>
<!-- l1_nfov_a_man -->
<g id="node18" class="node">
<title>l1_nfov_a_man</title>
<ellipse fill="none" stroke="black" cx="1216.52" cy="-818.87" rx="130.63" ry="26.74"/>
<text text-anchor="middle" x="1216.52" y="-822.67" font-family="Times,serif" font-size="14.00">L1_nfov_a manifest 1..1</text>
<text text-anchor="middle" x="1216.52" y="-807.67" font-family="Times,serif" font-size="14.00">of 0..c files</text>
</g>
<!-- sort&#45;&gt;l1_nfov_a_man -->
<g id="edge14" class="edge">
<title>sort&#45;&gt;l1_nfov_a_man</title>
<path fill="none" stroke="black" d="M866.36,-809.08C866.36,-809.08 1084.42,-809.08 1084.42,-809.08"/>
<polygon fill="black" stroke="black" points="1084.42,-812.58 1094.42,-809.08 1084.42,-805.58 1084.42,-812.58"/>
</g>
<!-- l1_nfov_nc_man -->
<g id="node19" class="node">
<title>l1_nfov_nc_man</title>
<ellipse fill="none" stroke="black" cx="1216.52" cy="-746.87" rx="137.36" ry="26.74"/>
<text text-anchor="middle" x="1216.52" y="-750.67" font-family="Times,serif" font-size="14.00">L1_nfov_nc manifest 1..1</text>
<text text-anchor="middle" x="1216.52" y="-735.67" font-family="Times,serif" font-size="14.00">of 0..d files</text>
</g>
<!-- sort&#45;&gt;l1_nfov_nc_man -->
<g id="edge15" class="edge">
<title>sort&#45;&gt;l1_nfov_nc_man</title>
<path fill="none" stroke="black" d="M896.38,-746.87C896.38,-746.87 1068.99,-746.87 1068.99,-746.87"/>
<polygon fill="black" stroke="black" points="1068.99,-750.37 1078.99,-746.87 1068.99,-743.37 1068.99,-750.37"/>
</g>
<!-- l1_nfov_pc_man -->
<g id="node20" class="node">
<title>l1_nfov_pc_man</title>
<ellipse fill="none" stroke="black" cx="1216.52" cy="-674.87" rx="137.36" ry="26.74"/>
<text text-anchor="middle" x="1216.52" y="-678.67" font-family="Times,serif" font-size="14.00">L1_nfov_pc manifest 1..1</text>
<text text-anchor="middle" x="1216.52" y="-663.67" font-family="Times,serif" font-size="14.00">of 0..d files</text>
</g>
<!-- sort&#45;&gt;l1_nfov_pc_man -->
<g id="edge16" class="edge">
<title>sort&#45;&gt;l1_nfov_pc_man</title>
<path fill="none" stroke="black" d="M866.36,-684.66C866.36,-684.66 1078.44,-684.66 1078.44,-684.66"/>
<polygon fill="black" stroke="black" points="1078.44,-688.16 1088.44,-684.66 1078.44,-681.16 1078.44,-688.16"/>
</g>
<!-- l1_pol_a_man -->
<g id="node21" class="node">
<title>l1_pol_a_man</title>
<ellipse fill="none" stroke="black" cx="1216.52" cy="-602.87" rx="124.4" ry="26.74"/>
<text text-anchor="middle" x="1216.52" y="-606.67" font-family="Times,serif" font-size="14.00">L1_pol_a manifest 1..1</text>
<text text-anchor="middle" x="1216.52" y="-591.67" font-family="Times,serif" font-size="14.00">of 0..e files</text>
</g>
<!-- sort&#45;&gt;l1_pol_a_man -->
<g id="edge17" class="edge">
<title>sort&#45;&gt;l1_pol_a_man</title>
<path fill="none" stroke="black" d="M880.78,-699.72C880.78,-657.72 880.78,-602.87 880.78,-602.87 880.78,-602.87 1081.98,-602.87 1081.98,-602.87"/>
<polygon fill="black" stroke="black" points="1081.98,-606.37 1091.98,-602.87 1081.98,-599.37 1081.98,-606.37"/>
</g>
<!-- l1_pol_pc_man -->
<g id="node22" class="node">
<title>l1_pol_pc_man</title>
<ellipse fill="none" stroke="black" cx="1216.52" cy="-530.87" rx="130.63" ry="26.74"/>
<text text-anchor="middle" x="1216.52" y="-534.67" font-family="Times,serif" font-size="14.00">L1_pol_pc manifest 1..1</text>
<text text-anchor="middle" x="1216.52" y="-519.67" font-family="Times,serif" font-size="14.00">of 0..f files</text>
</g>
<!-- sort&#45;&gt;l1_pol_pc_man -->
<g id="edge18" class="edge">
<title>sort&#45;&gt;l1_pol_pc_man</title>
<path fill="none" stroke="black" d="M864.78,-683.52C864.78,-619.79 864.78,-530.87 864.78,-530.87 864.78,-530.87 1075.54,-530.87 1075.54,-530.87"/>
<polygon fill="black" stroke="black" points="1075.54,-534.37 1085.54,-530.87 1075.54,-527.37 1075.54,-534.37"/>
</g>
<!-- l1_spec_a_man -->
<g id="node23" class="node">
<title>l1_spec_a_man</title>
<ellipse fill="none" stroke="black" cx="1216.52" cy="-458.87" rx="132.46" ry="26.74"/>
<text text-anchor="middle" x="1216.52" y="-462.67" font-family="Times,serif" font-size="14.00">L1_spec_a manifest 1..1</text>
<text text-anchor="middle" x="1216.52" y="-447.67" font-family="Times,serif" font-size="14.00">of 0..g files</text>
</g>
<!-- sort&#45;&gt;l1_spec_a_man -->
<g id="edge19" class="edge">
<title>sort&#45;&gt;l1_spec_a_man</title>
<path fill="none" stroke="black" d="M848.78,-674.2C848.78,-588.88 848.78,-458.87 848.78,-458.87 848.78,-458.87 1074.27,-458.87 1074.27,-458.87"/>
<polygon fill="black" stroke="black" points="1074.27,-462.37 1084.27,-458.87 1074.27,-455.37 1074.27,-462.37"/>
</g>
<!-- l1_spec_nc_man -->
<g id="node24" class="node">
<title>l1_spec_nc_man</title>
<ellipse fill="none" stroke="black" cx="1216.52" cy="-386.87" rx="137.77" ry="26.74"/>
<text text-anchor="middle" x="1216.52" y="-390.67" font-family="Times,serif" font-size="14.00">L1_spec_nc manifest 1..1</text>
<text text-anchor="middle" x="1216.52" y="-375.67" font-family="Times,serif" font-size="14.00">of 0..h files</text>
</g>
<!-- sort&#45;&gt;l1_spec_nc_man -->
<g id="edge20" class="edge">
<title>sort&#45;&gt;l1_spec_nc_man</title>
<path fill="none" stroke="black" d="M833.78,-669.2C833.78,-563.37 833.78,-386.87 833.78,-386.87 833.78,-386.87 1068.61,-386.87 1068.61,-386.87"/>
<polygon fill="black" stroke="black" points="1068.61,-390.37 1078.61,-386.87 1068.61,-383.37 1068.61,-390.37"/>
</g>
<!-- l1_spec_pc_man -->
<g id="node25" class="node">
<title>l1_spec_pc_man</title>
<ellipse fill="none" stroke="black" cx="1216.52" cy="-314.87" rx="137.77" ry="26.74"/>
<text text-anchor="middle" x="1216.52" y="-318.67" font-family="Times,serif" font-size="14.00">L1_spec_pc manifest 1..1</text>
<text text-anchor="middle" x="1216.52" y="-303.67" font-family="Times,serif" font-size="14.00">of 0..h files</text>
</g>
<!-- sort&#45;&gt;l1_spec_pc_man -->
<g id="edge21" class="edge">
<title>sort&#45;&gt;l1_spec_pc_man</title>
<path fill="none" stroke="black" d="M817.78,-667.38C817.78,-542.61 817.78,-314.87 817.78,-314.87 817.78,-314.87 1068.46,-314.87 1068.46,-314.87"/>
<polygon fill="black" stroke="black" points="1068.46,-318.37 1078.46,-314.87 1068.46,-311.37 1068.46,-318.37"/>
</g>
<!-- l1_wfov_a_man -->
<g id="node26" class="node">
<title>l1_wfov_a_man</title>
<ellipse fill="none" stroke="black" cx="1216.52" cy="-242.87" rx="132.87" ry="26.74"/>
<text text-anchor="middle" x="1216.52" y="-246.67" font-family="Times,serif" font-size="14.00">L1_wfov_a manifest 1..1</text>
<text text-anchor="middle" x="1216.52" y="-231.67" font-family="Times,serif" font-size="14.00">of 0..i files</text>
</g>
<!-- sort&#45;&gt;l1_wfov_a_man -->
<g id="edge22" class="edge">
<title>sort&#45;&gt;l1_wfov_a_man</title>
<path fill="none" stroke="black" d="M801.78,-668.95C801.78,-527.48 801.78,-242.87 801.78,-242.87 801.78,-242.87 1073.58,-242.87 1073.58,-242.87"/>
<polygon fill="black" stroke="black" points="1073.58,-246.37 1083.58,-242.87 1073.58,-239.37 1073.58,-246.37"/>
</g>
<!-- l1_wfov_nc_man -->
<g id="node27" class="node">
<title>l1_wfov_nc_man</title>
<ellipse fill="none" stroke="black" cx="1216.52" cy="-170.87" rx="139.1" ry="26.74"/>
<text text-anchor="middle" x="1216.52" y="-174.67" font-family="Times,serif" font-size="14.00">L1_wfov_nc manifest 1..1</text>
<text text-anchor="middle" x="1216.52" y="-159.67" font-family="Times,serif" font-size="14.00">of 0..j files</text>
</g>
<!-- sort&#45;&gt;l1_wfov_nc_man -->
<g id="edge23" class="edge">
<title>sort&#45;&gt;l1_wfov_nc_man</title>
<path fill="none" stroke="black" d="M785.78,-673.92C785.78,-518.93 785.78,-170.87 785.78,-170.87 785.78,-170.87 1066.97,-170.87 1066.97,-170.87"/>
<polygon fill="black" stroke="black" points="1066.97,-174.37 1076.97,-170.87 1066.97,-167.37 1066.97,-174.37"/>
</g>
<!-- l1_wfov_pc_man -->
<g id="node28" class="node">
<title>l1_wfov_pc_man</title>
<ellipse fill="none" stroke="black" cx="1216.52" cy="-98.87" rx="139.1" ry="26.74"/>
<text text-anchor="middle" x="1216.52" y="-102.67" font-family="Times,serif" font-size="14.00">L1_wfov_pc manifest 1..1</text>
<text text-anchor="middle" x="1216.52" y="-87.67" font-family="Times,serif" font-size="14.00">of 0..j files</text>
</g>
<!-- sort&#45;&gt;l1_wfov_pc_man -->
<g id="edge24" class="edge">
<title>sort&#45;&gt;l1_wfov_pc_man</title>
<path fill="none" stroke="black" d="M769.78,-682.96C769.78,-519.48 769.78,-98.87 769.78,-98.87 769.78,-98.87 1067,-98.87 1067,-98.87"/>
<polygon fill="black" stroke="black" points="1067,-102.37 1077,-98.87 1067,-95.37 1067,-102.37"/>
</g>
<!-- l1_unk_man -->
<g id="node29" class="node">
<title>l1_unk_man</title>
<ellipse fill="none" stroke="black" cx="1216.52" cy="-26.87" rx="117.26" ry="26.74"/>
<text text-anchor="middle" x="1216.52" y="-30.67" font-family="Times,serif" font-size="14.00">L1_unk manifest 1..1</text>
<text text-anchor="middle" x="1216.52" y="-15.67" font-family="Times,serif" font-size="14.00">of 0..k files</text>
</g>
<!-- sort&#45;&gt;l1_unk_man -->
<g id="edge25" class="edge">
<title>sort&#45;&gt;l1_unk_man</title>
<path fill="none" stroke="black" d="M753.78,-698.79C753.78,-537.67 753.78,-26.87 753.78,-26.87 753.78,-26.87 1088.85,-26.87 1088.85,-26.87"/>
<polygon fill="black" stroke="black" points="1088.85,-30.37 1098.85,-26.87 1088.85,-23.37 1088.85,-30.37"/>
</g>
<!-- l1_data -->
<g id="node4" class="node">
<title>l1_data</title>
<polygon fill="none" stroke="black" points="683.73,-737.87 546.73,-737.87 546.73,-701.87 683.73,-701.87 683.73,-737.87"/>
<text text-anchor="middle" x="615.23" y="-716.17" font-family="Times,serif" font-size="14.00">L1 products 1..N</text>
</g>
<!-- l1_data&#45;&gt;sort -->
<g id="edge3" class="edge">
<title>l1_data&#45;&gt;sort</title>
<path fill="none" stroke="black" stroke-dasharray="5,2" d="M683.81,-719.87C683.81,-719.87 732.36,-719.87 732.36,-719.87"/>
<polygon fill="black" stroke="black" points="732.36,-723.37 742.36,-719.87 732.36,-716.37 732.36,-723.37"/>
</g>
<!-- l1_man&#45;&gt;sort -->
<g id="edge4" class="edge">
<title>l1_man&#45;&gt;sort</title>
<path fill="none" stroke="black" d="M701.96,-773.87C701.96,-773.87 732.37,-773.87 732.37,-773.87"/>
<polygon fill="black" stroke="black" points="732.37,-777.37 742.37,-773.87 732.37,-770.37 732.37,-777.37"/>
</g>
<!-- l1_cal_drkpc_man -->
<g id="node11" class="node">
<title>l1_cal_drkpc_man</title>
<ellipse fill="none" stroke="black" cx="162.63" cy="-836.87" rx="146.24" ry="26.74"/>
<text text-anchor="middle" x="162.63" y="-840.67" font-family="Times,serif" font-size="14.00">L1_cal_drkpc manifest 1..1</text>
<text text-anchor="middle" x="162.63" y="-825.67" font-family="Times,serif" font-size="14.00">of 0..a files</text>
</g>
<!-- l1_cal_drksynth_man -->
<g id="node12" class="node">
<title>l1_cal_drksynth_man</title>
<ellipse fill="none" stroke="black" cx="162.63" cy="-908.87" rx="162.77" ry="26.74"/>
<text text-anchor="middle" x="162.63" y="-912.67" font-family="Times,serif" font-size="14.00">L1_cal_drksynth manifest 1..1</text>
<text text-anchor="middle" x="162.63" y="-897.67" font-family="Times,serif" font-size="14.00">of 0..a files</text>
</g>
<!-- l1_cal_drktrad_man -->
<g id="node13" class="node">
<title>l1_cal_drktrad_man</title>
<ellipse fill="none" stroke="black" cx="162.63" cy="-980.87" rx="156.04" ry="26.74"/>
<text text-anchor="middle" x="162.63" y="-984.67" font-family="Times,serif" font-size="14.00">L1_cal_drktrad manifest 1..1</text>
<text text-anchor="middle" x="162.63" y="-969.67" font-family="Times,serif" font-size="14.00">of 0..a files</text>
</g>
</g>
</svg>
