<?xml version="1.0" encoding="UTF-8" standalone="no"?>
<!DOCTYPE svg PUBLIC "-//W3C//DTD SVG 1.1//EN"
 "http://www.w3.org/Graphics/SVG/1.1/DTD/svg11.dtd">
<!-- Generated by graphviz version 2.43.0 (0)
 -->
<!-- Title: CategorizationDesign Pages: 1 -->
<svg width="1517pt" height="998pt"
 viewBox="0.00 0.00 1517.26 997.74" xmlns="http://www.w3.org/2000/svg" xmlns:xlink="http://www.w3.org/1999/xlink">
<g id="graph0" class="graph" transform="scale(1 1) rotate(0) translate(4 993.74)">
<title>CategorizationDesign</title>
<polygon fill="white" stroke="transparent" points="-4,4 -4,-993.74 1513.26,-993.74 1513.26,4 -4,4"/>
<!-- alarm -->
<g id="node1" class="node">
<title>alarm</title>
<text text-anchor="middle" x="166.88" y="-518.17" font-family="Times,serif" font-size="14.00">Periodic Wakeup</text>
</g>
<!-- scan -->
<g id="node2" class="node">
<title>scan</title>
<ellipse fill="none" stroke="black" cx="435.52" cy="-521.87" rx="65.52" ry="65.52"/>
<text text-anchor="middle" x="435.52" y="-525.67" font-family="Times,serif" font-size="14.00">Scan for</text>
<text text-anchor="middle" x="435.52" y="-510.67" font-family="Times,serif" font-size="14.00">Signal File</text>
</g>
<!-- alarm&#45;&gt;scan -->
<g id="edge1" class="edge">
<title>alarm&#45;&gt;scan</title>
<path fill="none" stroke="black" stroke-dasharray="5,2" d="M234.67,-521.87C234.67,-521.87 359.61,-521.87 359.61,-521.87"/>
<polygon fill="black" stroke="black" points="359.61,-525.37 369.61,-521.87 359.61,-518.37 359.61,-525.37"/>
</g>
<!-- l1_man -->
<g id="node5" class="node">
<title>l1_man</title>
<ellipse fill="none" stroke="black" cx="623.72" cy="-521.87" rx="86.38" ry="18"/>
<text text-anchor="middle" x="623.72" y="-518.17" font-family="Times,serif" font-size="14.00">L1 manifest 1..1</text>
</g>
<!-- scan&#45;&gt;l1_man -->
<g id="edge2" class="edge">
<title>scan&#45;&gt;l1_man</title>
<path fill="none" stroke="black" d="M501.34,-521.87C501.34,-521.87 527.09,-521.87 527.09,-521.87"/>
<polygon fill="black" stroke="black" points="527.09,-525.37 537.09,-521.87 527.09,-518.37 527.09,-525.37"/>
</g>
<!-- sort -->
<g id="node3" class="node">
<title>sort</title>
<ellipse fill="none" stroke="black" cx="825.45" cy="-494.87" rx="79.09" ry="79.09"/>
<text text-anchor="middle" x="825.45" y="-491.17" font-family="Times,serif" font-size="14.00">Categorization</text>
</g>
<!-- l1_cal_a_man -->
<g id="node6" class="node">
<title>l1_cal_a_man</title>
<ellipse fill="none" stroke="black" cx="1225" cy="-962.87" rx="123.99" ry="26.74"/>
<text text-anchor="middle" x="1225" y="-966.67" font-family="Times,serif" font-size="14.00">L1_cal_a manifest 1..1</text>
<text text-anchor="middle" x="1225" y="-951.67" font-family="Times,serif" font-size="14.00">of 0..a files</text>
</g>
<!-- sort&#45;&gt;l1_cal_a_man -->
<g id="edge5" class="edge">
<title>sort&#45;&gt;l1_cal_a_man</title>
<path fill="none" stroke="black" d="M773.26,-554.62C773.26,-680.78 773.26,-962.87 773.26,-962.87 773.26,-962.87 1090.97,-962.87 1090.97,-962.87"/>
<polygon fill="black" stroke="black" points="1090.97,-966.37 1100.97,-962.87 1090.97,-959.37 1090.97,-966.37"/>
</g>
<!-- l1_cal_boresight_man -->
<g id="node8" class="node">
<title>l1_cal_boresight_man</title>
<ellipse fill="none" stroke="black" cx="1225" cy="-890.87" rx="166.34" ry="26.74"/>
<text text-anchor="middle" x="1225" y="-894.67" font-family="Times,serif" font-size="14.00">L1_cal_boresight manifest 1..1</text>
<text text-anchor="middle" x="1225" y="-879.67" font-family="Times,serif" font-size="14.00">of 0..a files</text>
</g>
<!-- sort&#45;&gt;l1_cal_boresight_man -->
<g id="edge6" class="edge">
<title>sort&#45;&gt;l1_cal_boresight_man</title>
<path fill="none" stroke="black" d="M799.26,-569.82C799.26,-684.62 799.26,-890.87 799.26,-890.87 799.26,-890.87 1048.57,-890.87 1048.57,-890.87"/>
<polygon fill="black" stroke="black" points="1048.57,-894.37 1058.57,-890.87 1048.57,-887.37 1048.57,-894.37"/>
</g>
<!-- l1_cal_corethpt_man -->
<g id="node9" class="node">
<title>l1_cal_corethpt_man</title>
<ellipse fill="none" stroke="black" cx="1225" cy="-818.87" rx="160.53" ry="26.74"/>
<text text-anchor="middle" x="1225" y="-822.67" font-family="Times,serif" font-size="14.00">L1_cal_corethpt manifest 1..1</text>
<text text-anchor="middle" x="1225" y="-807.67" font-family="Times,serif" font-size="14.00">of 0..a files</text>
</g>
<!-- sort&#45;&gt;l1_cal_corethpt_man -->
<g id="edge7" class="edge">
<title>sort&#45;&gt;l1_cal_corethpt_man</title>
<path fill="none" stroke="black" d="M826.26,-574.54C826.26,-670.48 826.26,-818.87 826.26,-818.87 826.26,-818.87 1054.26,-818.87 1054.26,-818.87"/>
<polygon fill="black" stroke="black" points="1054.26,-822.37 1064.26,-818.87 1054.26,-815.37 1054.26,-822.37"/>
</g>
<!-- l1_cal_pupil_man -->
<g id="node12" class="node">
<title>l1_cal_pupil_man</title>
<ellipse fill="none" stroke="black" cx="1225" cy="-746.87" rx="284.01" ry="26.74"/>
<text text-anchor="middle" x="1225" y="-750.67" font-family="Times,serif" font-size="14.00">L1_cal_pupil (nonlinear, k&#45;gain, em&#45;gain) manifest 1..1</text>
<text text-anchor="middle" x="1225" y="-735.67" font-family="Times,serif" font-size="14.00">of 0..a files</text>
</g>
<!-- sort&#45;&gt;l1_cal_pupil_man -->
<g id="edge8" class="edge">
<title>sort&#45;&gt;l1_cal_pupil_man</title>
<path fill="none" stroke="black" d="M860.78,-565.95C915.18,-565.95 1013.26,-565.95 1013.26,-565.95 1013.26,-565.95 1013.26,-718.86 1013.26,-718.86"/>
<polygon fill="black" stroke="black" points="1009.76,-718.86 1013.26,-728.86 1016.76,-718.86 1009.76,-718.86"/>
</g>
<!-- l1_eng_a_man -->
<g id="node13" class="node">
<title>l1_eng_a_man</title>
<ellipse fill="none" stroke="black" cx="1225" cy="-674.87" rx="127.97" ry="26.74"/>
<text text-anchor="middle" x="1225" y="-678.67" font-family="Times,serif" font-size="14.00">L1_eng_a manifest 1..1</text>
<text text-anchor="middle" x="1225" y="-663.67" font-family="Times,serif" font-size="14.00">of 0..b files</text>
</g>
<!-- sort&#45;&gt;l1_eng_a_man -->
<g id="edge9" class="edge">
<title>sort&#45;&gt;l1_eng_a_man</title>
<path fill="none" stroke="black" d="M852.26,-569.87C852.26,-615.82 852.26,-665.87 852.26,-665.87 852.26,-665.87 1094.24,-665.87 1094.24,-665.87"/>
<polygon fill="black" stroke="black" points="1094.24,-669.37 1104.24,-665.87 1094.24,-662.37 1094.24,-669.37"/>
</g>
<!-- l1_nfov_a_man -->
<g id="node14" class="node">
<title>l1_nfov_a_man</title>
<ellipse fill="none" stroke="black" cx="1225" cy="-602.87" rx="130.63" ry="26.74"/>
<text text-anchor="middle" x="1225" y="-606.67" font-family="Times,serif" font-size="14.00">L1_nfov_a manifest 1..1</text>
<text text-anchor="middle" x="1225" y="-591.67" font-family="Times,serif" font-size="14.00">of 0..c files</text>
</g>
<!-- sort&#45;&gt;l1_nfov_a_man -->
<g id="edge10" class="edge">
<title>sort&#45;&gt;l1_nfov_a_man</title>
<path fill="none" stroke="black" d="M879.26,-553.35C879.26,-569.07 879.26,-581.82 879.26,-581.82 879.26,-581.82 1133.51,-581.82 1133.51,-581.82"/>
<polygon fill="black" stroke="black" points="1133.51,-585.32 1143.51,-581.82 1133.51,-578.32 1133.51,-585.32"/>
</g>
<!-- l1_nfov_pc_man -->
<g id="node15" class="node">
<title>l1_nfov_pc_man</title>
<ellipse fill="none" stroke="black" cx="1225" cy="-530.87" rx="137.36" ry="26.74"/>
<text text-anchor="middle" x="1225" y="-534.67" font-family="Times,serif" font-size="14.00">L1_nfov_pc manifest 1..1</text>
<text text-anchor="middle" x="1225" y="-519.67" font-family="Times,serif" font-size="14.00">of 0..d files</text>
</g>
<!-- sort&#45;&gt;l1_nfov_pc_man -->
<g id="edge11" class="edge">
<title>sort&#45;&gt;l1_nfov_pc_man</title>
<path fill="none" stroke="black" d="M896.42,-530.87C896.42,-530.87 1077.64,-530.87 1077.64,-530.87"/>
<polygon fill="black" stroke="black" points="1077.64,-534.37 1087.64,-530.87 1077.64,-527.37 1077.64,-534.37"/>
</g>
<!-- l1_pol_a_man -->
<g id="node16" class="node">
<title>l1_pol_a_man</title>
<ellipse fill="none" stroke="black" cx="1225" cy="-458.87" rx="124.4" ry="26.74"/>
<text text-anchor="middle" x="1225" y="-462.67" font-family="Times,serif" font-size="14.00">L1_pol_a manifest 1..1</text>
<text text-anchor="middle" x="1225" y="-447.67" font-family="Times,serif" font-size="14.00">of 0..e files</text>
</g>
<!-- sort&#45;&gt;l1_pol_a_man -->
<g id="edge12" class="edge">
<title>sort&#45;&gt;l1_pol_a_man</title>
<path fill="none" stroke="black" d="M896.42,-458.87C896.42,-458.87 1090.18,-458.87 1090.18,-458.87"/>
<polygon fill="black" stroke="black" points="1090.18,-462.37 1100.18,-458.87 1090.18,-455.37 1090.18,-462.37"/>
</g>
<!-- l1_pol_pc_man -->
<g id="node17" class="node">
<title>l1_pol_pc_man</title>
<ellipse fill="none" stroke="black" cx="1225" cy="-386.87" rx="130.63" ry="26.74"/>
<text text-anchor="middle" x="1225" y="-390.67" font-family="Times,serif" font-size="14.00">L1_pol_pc manifest 1..1</text>
<text text-anchor="middle" x="1225" y="-375.67" font-family="Times,serif" font-size="14.00">of 0..f files</text>
</g>
<!-- sort&#45;&gt;l1_pol_pc_man -->
<g id="edge13" class="edge">
<title>sort&#45;&gt;l1_pol_pc_man</title>
<path fill="none" stroke="black" d="M882.26,-439.29C882.26,-412.83 882.26,-386.87 882.26,-386.87 882.26,-386.87 1083.96,-386.87 1083.96,-386.87"/>
<polygon fill="black" stroke="black" points="1083.96,-390.37 1093.96,-386.87 1083.96,-383.37 1083.96,-390.37"/>
</g>
<!-- l1_spec_a_man -->
<g id="node18" class="node">
<title>l1_spec_a_man</title>
<ellipse fill="none" stroke="black" cx="1225" cy="-314.87" rx="132.46" ry="26.74"/>
<text text-anchor="middle" x="1225" y="-318.67" font-family="Times,serif" font-size="14.00">L1_spec_a manifest 1..1</text>
<text text-anchor="middle" x="1225" y="-303.67" font-family="Times,serif" font-size="14.00">of 0..g files</text>
</g>
<!-- sort&#45;&gt;l1_spec_a_man -->
<g id="edge14" class="edge">
<title>sort&#45;&gt;l1_spec_a_man</title>
<path fill="none" stroke="black" d="M860.26,-423.47C860.26,-373.22 860.26,-314.87 860.26,-314.87 860.26,-314.87 1082.55,-314.87 1082.55,-314.87"/>
<polygon fill="black" stroke="black" points="1082.55,-318.37 1092.55,-314.87 1082.55,-311.37 1082.55,-318.37"/>
</g>
<!-- l1_spec_pc_man -->
<g id="node19" class="node">
<title>l1_spec_pc_man</title>
<ellipse fill="none" stroke="black" cx="1225" cy="-242.87" rx="137.77" ry="26.74"/>
<text text-anchor="middle" x="1225" y="-246.67" font-family="Times,serif" font-size="14.00">L1_spec_pc manifest 1..1</text>
<text text-anchor="middle" x="1225" y="-231.67" font-family="Times,serif" font-size="14.00">of 0..h files</text>
</g>
<!-- sort&#45;&gt;l1_spec_pc_man -->
<g id="edge15" class="edge">
<title>sort&#45;&gt;l1_spec_pc_man</title>
<path fill="none" stroke="black" d="M837.26,-416.17C837.26,-342.23 837.26,-242.87 837.26,-242.87 837.26,-242.87 1076.94,-242.87 1076.94,-242.87"/>
<polygon fill="black" stroke="black" points="1076.94,-246.37 1086.94,-242.87 1076.94,-239.37 1076.94,-246.37"/>
</g>
<!-- l1_wfov_a_man -->
<g id="node20" class="node">
<title>l1_wfov_a_man</title>
<ellipse fill="none" stroke="black" cx="1225" cy="-170.87" rx="132.87" ry="26.74"/>
<text text-anchor="middle" x="1225" y="-174.67" font-family="Times,serif" font-size="14.00">L1_wfov_a manifest 1..1</text>
<text text-anchor="middle" x="1225" y="-159.67" font-family="Times,serif" font-size="14.00">of 0..i files</text>
</g>
<!-- sort&#45;&gt;l1_wfov_a_man -->
<g id="edge16" class="edge">
<title>sort&#45;&gt;l1_wfov_a_man</title>
<path fill="none" stroke="black" d="M814.26,-416.03C814.26,-320.12 814.26,-170.87 814.26,-170.87 814.26,-170.87 1081.93,-170.87 1081.93,-170.87"/>
<polygon fill="black" stroke="black" points="1081.93,-174.37 1091.93,-170.87 1081.93,-167.37 1081.93,-174.37"/>
</g>
<!-- l1_wfov_pc_man -->
<g id="node21" class="node">
<title>l1_wfov_pc_man</title>
<ellipse fill="none" stroke="black" cx="1225" cy="-98.87" rx="139.1" ry="26.74"/>
<text text-anchor="middle" x="1225" y="-102.67" font-family="Times,serif" font-size="14.00">L1_wfov_pc manifest 1..1</text>
<text text-anchor="middle" x="1225" y="-87.67" font-family="Times,serif" font-size="14.00">of 0..j files</text>
</g>
<!-- sort&#45;&gt;l1_wfov_pc_man -->
<g id="edge17" class="edge">
<title>sort&#45;&gt;l1_wfov_pc_man</title>
<path fill="none" stroke="black" d="M792.26,-422.7C792.26,-308.48 792.26,-98.87 792.26,-98.87 792.26,-98.87 1075.7,-98.87 1075.7,-98.87"/>
<polygon fill="black" stroke="black" points="1075.7,-102.37 1085.7,-98.87 1075.7,-95.37 1075.7,-102.37"/>
</g>
<!-- l1_unk_man -->
<g id="node22" class="node">
<title>l1_unk_man</title>
<ellipse fill="none" stroke="black" cx="1225" cy="-26.87" rx="117.26" ry="26.74"/>
<text text-anchor="middle" x="1225" y="-30.67" font-family="Times,serif" font-size="14.00">L1_unk manifest 1..1</text>
<text text-anchor="middle" x="1225" y="-15.67" font-family="Times,serif" font-size="14.00">of 0..k files</text>
</g>
<!-- sort&#45;&gt;l1_unk_man -->
<g id="edge18" class="edge">
<title>sort&#45;&gt;l1_unk_man</title>
<path fill="none" stroke="black" d="M769.26,-438.88C769.26,-314.66 769.26,-26.87 769.26,-26.87 769.26,-26.87 1097.34,-26.87 1097.34,-26.87"/>
<polygon fill="black" stroke="black" points="1097.34,-30.37 1107.34,-26.87 1097.34,-23.37 1097.34,-30.37"/>
</g>
<!-- l1_data -->
<g id="node4" class="node">
<title>l1_data</title>
<polygon fill="none" stroke="black" points="692.22,-485.87 555.22,-485.87 555.22,-449.87 692.22,-449.87 692.22,-485.87"/>
<text text-anchor="middle" x="623.72" y="-464.17" font-family="Times,serif" font-size="14.00">L1 products 1..N</text>
</g>
<!-- l1_data&#45;&gt;sort -->
<g id="edge3" class="edge">
<title>l1_data&#45;&gt;sort</title>
<path fill="none" stroke="black" stroke-dasharray="5,2" d="M692.3,-467.87C692.3,-467.87 740.84,-467.87 740.84,-467.87"/>
<polygon fill="black" stroke="black" points="740.84,-471.37 750.84,-467.87 740.84,-464.37 740.84,-471.37"/>
</g>
<!-- l1_man&#45;&gt;sort -->
<g id="edge4" class="edge">
<title>l1_man&#45;&gt;sort</title>
<path fill="none" stroke="black" d="M710.44,-521.87C710.44,-521.87 740.85,-521.87 740.85,-521.87"/>
<polygon fill="black" stroke="black" points="740.85,-525.37 750.85,-521.87 740.85,-518.37 740.85,-525.37"/>
</g>
<!-- l1_cal_absflux_man -->
<g id="node7" class="node">
<title>l1_cal_absflux_man</title>
<ellipse fill="none" stroke="black" cx="166.88" cy="-584.87" rx="154.3" ry="26.74"/>
<text text-anchor="middle" x="166.88" y="-588.67" font-family="Times,serif" font-size="14.00">L1_cal_absflux manifest 1..1</text>
<text text-anchor="middle" x="166.88" y="-573.67" font-family="Times,serif" font-size="14.00">of 0..a files</text>
</g>
<!-- l1_cal_ndfiltimg_man -->
<g id="node10" class="node">
<title>l1_cal_ndfiltimg_man</title>
<ellipse fill="none" stroke="black" cx="166.88" cy="-656.87" rx="163.18" ry="26.74"/>
<text text-anchor="middle" x="166.88" y="-660.67" font-family="Times,serif" font-size="14.00">L1_cal_ndfiltimg manifest 1..1</text>
<text text-anchor="middle" x="166.88" y="-645.67" font-family="Times,serif" font-size="14.00">of 0..a files</text>
</g>
<!-- l1_cal_ndfiltspec_man -->
<g id="node11" class="node">
<title>l1_cal_ndfiltspec_man</title>
<ellipse fill="none" stroke="black" cx="166.88" cy="-728.87" rx="166.75" ry="26.74"/>
<text text-anchor="middle" x="166.88" y="-732.67" font-family="Times,serif" font-size="14.00">L1_cal_ndfiltspec manifest 1..1</text>
<text text-anchor="middle" x="166.88" y="-717.67" font-family="Times,serif" font-size="14.00">of 0..a files</text>
</g>
</g>
</svg>
