<?xml version="1.0" encoding="UTF-8" standalone="no"?>
<!DOCTYPE svg PUBLIC "-//W3C//DTD SVG 1.1//EN"
 "http://www.w3.org/Graphics/SVG/1.1/DTD/svg11.dtd">
<!-- Generated by graphviz version 2.43.0 (0)
 -->
<!-- Title: CategorizationDesign Pages: 1 -->
<svg width="1462pt" height="1214pt"
 viewBox="0.00 0.00 1462.11 1213.74" xmlns="http://www.w3.org/2000/svg" xmlns:xlink="http://www.w3.org/1999/xlink">
<g id="graph0" class="graph" transform="scale(1 1) rotate(0) translate(4 1209.74)">
<title>CategorizationDesign</title>
<polygon fill="white" stroke="transparent" points="-4,4 -4,-1209.74 1458.11,-1209.74 1458.11,4 -4,4"/>
<!-- alarm -->
<g id="node1" class="node">
<title>alarm</title>
<text text-anchor="middle" x="139.3" y="-626.17" font-family="Times,serif" font-size="14.00">Periodic Wakeup</text>
</g>
<!-- scan -->
<g id="node2" class="node">
<title>scan</title>
<ellipse fill="none" stroke="black" cx="380.36" cy="-629.87" rx="65.52" ry="65.52"/>
<text text-anchor="middle" x="380.36" y="-633.67" font-family="Times,serif" font-size="14.00">Scan for</text>
<text text-anchor="middle" x="380.36" y="-618.67" font-family="Times,serif" font-size="14.00">Signal File</text>
</g>
<!-- alarm&#45;&gt;scan -->
<g id="edge1" class="edge">
<title>alarm&#45;&gt;scan</title>
<path fill="none" stroke="black" stroke-dasharray="5,2" d="M207.09,-629.87C207.09,-629.87 304.33,-629.87 304.33,-629.87"/>
<polygon fill="black" stroke="black" points="304.33,-633.37 314.33,-629.87 304.33,-626.37 304.33,-633.37"/>
</g>
<!-- l1_man -->
<g id="node5" class="node">
<title>l1_man</title>
<ellipse fill="none" stroke="black" cx="568.56" cy="-629.87" rx="86.38" ry="18"/>
<text text-anchor="middle" x="568.56" y="-626.17" font-family="Times,serif" font-size="14.00">L1 manifest 1..1</text>
</g>
<!-- scan&#45;&gt;l1_man -->
<g id="edge2" class="edge">
<title>scan&#45;&gt;l1_man</title>
<path fill="none" stroke="black" d="M446.19,-629.87C446.19,-629.87 471.94,-629.87 471.94,-629.87"/>
<polygon fill="black" stroke="black" points="471.94,-633.37 481.94,-629.87 471.94,-626.37 471.94,-633.37"/>
</g>
<!-- sort -->
<g id="node3" class="node">
<title>sort</title>
<ellipse fill="none" stroke="black" cx="770.3" cy="-602.87" rx="79.09" ry="79.09"/>
<text text-anchor="middle" x="770.3" y="-599.17" font-family="Times,serif" font-size="14.00">Categorization</text>
</g>
<!-- l1_cal_a_man -->
<g id="node6" class="node">
<title>l1_cal_a_man</title>
<ellipse fill="none" stroke="black" cx="1169.85" cy="-1178.87" rx="123.99" ry="26.74"/>
<text text-anchor="middle" x="1169.85" y="-1182.67" font-family="Times,serif" font-size="14.00">L1_cal_a manifest 1..1</text>
<text text-anchor="middle" x="1169.85" y="-1167.67" font-family="Times,serif" font-size="14.00">of 0..a files</text>
</g>
<!-- sort&#45;&gt;l1_cal_a_man -->
<g id="edge5" class="edge">
<title>sort&#45;&gt;l1_cal_a_man</title>
<path fill="none" stroke="black" d="M711.11,-655.77C711.11,-798.16 711.11,-1178.87 711.11,-1178.87 711.11,-1178.87 1036.01,-1178.87 1036.01,-1178.87"/>
<polygon fill="black" stroke="black" points="1036.01,-1182.37 1046.01,-1178.87 1036.01,-1175.37 1036.01,-1182.37"/>
</g>
<!-- l1_cal_absflux_man -->
<g id="node7" class="node">
<title>l1_cal_absflux_man</title>
<ellipse fill="none" stroke="black" cx="1169.85" cy="-1106.87" rx="154.3" ry="26.74"/>
<text text-anchor="middle" x="1169.85" y="-1110.67" font-family="Times,serif" font-size="14.00">L1_cal_absflux manifest 1..1</text>
<text text-anchor="middle" x="1169.85" y="-1095.67" font-family="Times,serif" font-size="14.00">of 0..a files</text>
</g>
<!-- sort&#45;&gt;l1_cal_absflux_man -->
<g id="edge6" class="edge">
<title>sort&#45;&gt;l1_cal_absflux_man</title>
<path fill="none" stroke="black" d="M731.11,-671.89C731.11,-809.93 731.11,-1106.87 731.11,-1106.87 731.11,-1106.87 1005.47,-1106.87 1005.47,-1106.87"/>
<polygon fill="black" stroke="black" points="1005.47,-1110.37 1015.47,-1106.87 1005.47,-1103.37 1005.47,-1110.37"/>
</g>
<!-- l1_cal_boresight_man -->
<g id="node8" class="node">
<title>l1_cal_boresight_man</title>
<ellipse fill="none" stroke="black" cx="1169.85" cy="-1034.87" rx="166.34" ry="26.74"/>
<text text-anchor="middle" x="1169.85" y="-1038.67" font-family="Times,serif" font-size="14.00">L1_cal_boresight manifest 1..1</text>
<text text-anchor="middle" x="1169.85" y="-1023.67" font-family="Times,serif" font-size="14.00">of 0..a files</text>
</g>
<!-- sort&#45;&gt;l1_cal_boresight_man -->
<g id="edge7" class="edge">
<title>sort&#45;&gt;l1_cal_boresight_man</title>
<path fill="none" stroke="black" d="M751.11,-680.1C751.11,-804.36 751.11,-1034.87 751.11,-1034.87 751.11,-1034.87 993.45,-1034.87 993.45,-1034.87"/>
<polygon fill="black" stroke="black" points="993.45,-1038.37 1003.45,-1034.87 993.45,-1031.37 993.45,-1038.37"/>
</g>
<!-- l1_cal_corethpt_man -->
<g id="node9" class="node">
<title>l1_cal_corethpt_man</title>
<ellipse fill="none" stroke="black" cx="1169.85" cy="-962.87" rx="160.53" ry="26.74"/>
<text text-anchor="middle" x="1169.85" y="-966.67" font-family="Times,serif" font-size="14.00">L1_cal_corethpt manifest 1..1</text>
<text text-anchor="middle" x="1169.85" y="-951.67" font-family="Times,serif" font-size="14.00">of 0..a files</text>
</g>
<!-- sort&#45;&gt;l1_cal_corethpt_man -->
<g id="edge8" class="edge">
<title>sort&#45;&gt;l1_cal_corethpt_man</title>
<path fill="none" stroke="black" d="M771.11,-682.32C771.11,-788.34 771.11,-962.87 771.11,-962.87 771.11,-962.87 999.1,-962.87 999.1,-962.87"/>
<polygon fill="black" stroke="black" points="999.1,-966.37 1009.1,-962.87 999.1,-959.37 999.1,-966.37"/>
</g>
<!-- l1_cal_ndfiltimg_man -->
<g id="node10" class="node">
<title>l1_cal_ndfiltimg_man</title>
<ellipse fill="none" stroke="black" cx="1169.85" cy="-890.87" rx="163.18" ry="26.74"/>
<text text-anchor="middle" x="1169.85" y="-894.67" font-family="Times,serif" font-size="14.00">L1_cal_ndfiltimg manifest 1..1</text>
<text text-anchor="middle" x="1169.85" y="-879.67" font-family="Times,serif" font-size="14.00">of 0..a files</text>
</g>
<!-- sort&#45;&gt;l1_cal_ndfiltimg_man -->
<g id="edge9" class="edge">
<title>sort&#45;&gt;l1_cal_ndfiltimg_man</title>
<path fill="none" stroke="black" d="M791.11,-679.67C791.11,-764.99 791.11,-890.87 791.11,-890.87 791.11,-890.87 996.48,-890.87 996.48,-890.87"/>
<polygon fill="black" stroke="black" points="996.48,-894.37 1006.48,-890.87 996.48,-887.37 996.48,-894.37"/>
</g>
<!-- l1_cal_ndfiltspec_man -->
<g id="node11" class="node">
<title>l1_cal_ndfiltspec_man</title>
<ellipse fill="none" stroke="black" cx="1169.85" cy="-818.87" rx="166.75" ry="26.74"/>
<text text-anchor="middle" x="1169.85" y="-822.67" font-family="Times,serif" font-size="14.00">L1_cal_ndfiltspec manifest 1..1</text>
<text text-anchor="middle" x="1169.85" y="-807.67" font-family="Times,serif" font-size="14.00">of 0..a files</text>
</g>
<!-- sort&#45;&gt;l1_cal_ndfiltspec_man -->
<g id="edge10" class="edge">
<title>sort&#45;&gt;l1_cal_ndfiltspec_man</title>
<path fill="none" stroke="black" d="M810.11,-671.61C810.11,-728.83 810.11,-801 810.11,-801 810.11,-801 1035.04,-801 1035.04,-801"/>
<polygon fill="black" stroke="black" points="1035.04,-804.5 1045.04,-801 1035.04,-797.5 1035.04,-804.5"/>
</g>
<!-- l1_cal_pupil_man -->
<g id="node12" class="node">
<title>l1_cal_pupil_man</title>
<ellipse fill="none" stroke="black" cx="1169.85" cy="-746.87" rx="284.01" ry="26.74"/>
<text text-anchor="middle" x="1169.85" y="-750.67" font-family="Times,serif" font-size="14.00">L1_cal_pupil (nonlinear, k&#45;gain, em&#45;gain) manifest 1..1</text>
<text text-anchor="middle" x="1169.85" y="-735.67" font-family="Times,serif" font-size="14.00">of 0..a files</text>
</g>
<!-- sort&#45;&gt;l1_cal_pupil_man -->
<g id="edge11" class="edge">
<title>sort&#45;&gt;l1_cal_pupil_man</title>
<path fill="none" stroke="black" d="M830.11,-655.26C830.11,-689.92 830.11,-729 830.11,-729 830.11,-729 947.1,-729 947.1,-729"/>
<polygon fill="black" stroke="black" points="947.1,-732.5 957.1,-729 947.1,-725.5 947.1,-732.5"/>
</g>
<!-- l1_eng_a_man -->
<g id="node13" class="node">
<title>l1_eng_a_man</title>
<ellipse fill="none" stroke="black" cx="1169.85" cy="-674.87" rx="127.97" ry="26.74"/>
<text text-anchor="middle" x="1169.85" y="-678.67" font-family="Times,serif" font-size="14.00">L1_eng_a manifest 1..1</text>
<text text-anchor="middle" x="1169.85" y="-663.67" font-family="Times,serif" font-size="14.00">of 0..b files</text>
</g>
<!-- sort&#45;&gt;l1_eng_a_man -->
<g id="edge12" class="edge">
<title>sort&#45;&gt;l1_eng_a_man</title>
<path fill="none" stroke="black" d="M819.69,-665.08C819.69,-665.08 1040.29,-665.08 1040.29,-665.08"/>
<polygon fill="black" stroke="black" points="1040.29,-668.58 1050.29,-665.08 1040.29,-661.58 1040.29,-668.58"/>
</g>
<!-- l1_nfov_a_man -->
<g id="node14" class="node">
<title>l1_nfov_a_man</title>
<ellipse fill="none" stroke="black" cx="1169.85" cy="-602.87" rx="130.63" ry="26.74"/>
<text text-anchor="middle" x="1169.85" y="-606.67" font-family="Times,serif" font-size="14.00">L1_nfov_a manifest 1..1</text>
<text text-anchor="middle" x="1169.85" y="-591.67" font-family="Times,serif" font-size="14.00">of 0..c files</text>
</g>
<!-- sort&#45;&gt;l1_nfov_a_man -->
<g id="edge13" class="edge">
<title>sort&#45;&gt;l1_nfov_a_man</title>
<path fill="none" stroke="black" d="M849.72,-602.87C849.72,-602.87 1028.67,-602.87 1028.67,-602.87"/>
<polygon fill="black" stroke="black" points="1028.68,-606.37 1038.67,-602.87 1028.67,-599.37 1028.68,-606.37"/>
</g>
<!-- l1_nfov_pc_man -->
<g id="node16" class="node">
<title>l1_nfov_pc_man</title>
<ellipse fill="none" stroke="black" cx="1169.85" cy="-530.87" rx="137.36" ry="26.74"/>
<text text-anchor="middle" x="1169.85" y="-534.67" font-family="Times,serif" font-size="14.00">L1_nfov_pc manifest 1..1</text>
<text text-anchor="middle" x="1169.85" y="-519.67" font-family="Times,serif" font-size="14.00">of 0..d files</text>
</g>
<!-- sort&#45;&gt;l1_nfov_pc_man -->
<g id="edge14" class="edge">
<title>sort&#45;&gt;l1_nfov_pc_man</title>
<path fill="none" stroke="black" d="M819.69,-540.66C819.69,-540.66 1031.77,-540.66 1031.77,-540.66"/>
<polygon fill="black" stroke="black" points="1031.77,-544.16 1041.77,-540.66 1031.77,-537.16 1031.77,-544.16"/>
</g>
<!-- l1_pol_a_man -->
<g id="node17" class="node">
<title>l1_pol_a_man</title>
<ellipse fill="none" stroke="black" cx="1169.85" cy="-458.87" rx="124.4" ry="26.74"/>
<text text-anchor="middle" x="1169.85" y="-462.67" font-family="Times,serif" font-size="14.00">L1_pol_a manifest 1..1</text>
<text text-anchor="middle" x="1169.85" y="-447.67" font-family="Times,serif" font-size="14.00">of 0..e files</text>
</g>
<!-- sort&#45;&gt;l1_pol_a_man -->
<g id="edge15" class="edge">
<title>sort&#45;&gt;l1_pol_a_man</title>
<path fill="none" stroke="black" d="M830.11,-550.48C830.11,-509.3 830.11,-458.87 830.11,-458.87 830.11,-458.87 1035.27,-458.87 1035.27,-458.87"/>
<polygon fill="black" stroke="black" points="1035.27,-462.37 1045.27,-458.87 1035.27,-455.37 1035.27,-462.37"/>
</g>
<!-- l1_pol_pc_man -->
<g id="node18" class="node">
<title>l1_pol_pc_man</title>
<ellipse fill="none" stroke="black" cx="1169.85" cy="-386.87" rx="130.63" ry="26.74"/>
<text text-anchor="middle" x="1169.85" y="-390.67" font-family="Times,serif" font-size="14.00">L1_pol_pc manifest 1..1</text>
<text text-anchor="middle" x="1169.85" y="-375.67" font-family="Times,serif" font-size="14.00">of 0..f files</text>
</g>
<!-- sort&#45;&gt;l1_pol_pc_man -->
<g id="edge16" class="edge">
<title>sort&#45;&gt;l1_pol_pc_man</title>
<path fill="none" stroke="black" d="M810.11,-534.23C810.11,-470.98 810.11,-386.87 810.11,-386.87 810.11,-386.87 1028.96,-386.87 1028.96,-386.87"/>
<polygon fill="black" stroke="black" points="1028.96,-390.37 1038.96,-386.87 1028.96,-383.37 1028.96,-390.37"/>
</g>
<!-- l1_spec_a_man -->
<g id="node19" class="node">
<title>l1_spec_a_man</title>
<ellipse fill="none" stroke="black" cx="1169.85" cy="-314.87" rx="132.46" ry="26.74"/>
<text text-anchor="middle" x="1169.85" y="-318.67" font-family="Times,serif" font-size="14.00">L1_spec_a manifest 1..1</text>
<text text-anchor="middle" x="1169.85" y="-303.67" font-family="Times,serif" font-size="14.00">of 0..g files</text>
</g>
<!-- sort&#45;&gt;l1_spec_a_man -->
<g id="edge17" class="edge">
<title>sort&#45;&gt;l1_spec_a_man</title>
<path fill="none" stroke="black" d="M791.11,-526.07C791.11,-440.75 791.11,-314.87 791.11,-314.87 791.11,-314.87 1027.38,-314.87 1027.38,-314.87"/>
<polygon fill="black" stroke="black" points="1027.38,-318.37 1037.38,-314.87 1027.38,-311.37 1027.38,-318.37"/>
</g>
<!-- l1_spec_pc_man -->
<g id="node21" class="node">
<title>l1_spec_pc_man</title>
<ellipse fill="none" stroke="black" cx="1169.85" cy="-242.87" rx="137.77" ry="26.74"/>
<text text-anchor="middle" x="1169.85" y="-246.67" font-family="Times,serif" font-size="14.00">L1_spec_pc manifest 1..1</text>
<text text-anchor="middle" x="1169.85" y="-231.67" font-family="Times,serif" font-size="14.00">of 0..h files</text>
</g>
<!-- sort&#45;&gt;l1_spec_pc_man -->
<g id="edge18" class="edge">
<title>sort&#45;&gt;l1_spec_pc_man</title>
<path fill="none" stroke="black" d="M771.11,-523.42C771.11,-417.4 771.11,-242.87 771.11,-242.87 771.11,-242.87 1021.79,-242.87 1021.79,-242.87"/>
<polygon fill="black" stroke="black" points="1021.79,-246.37 1031.79,-242.87 1021.79,-239.37 1021.79,-246.37"/>
</g>
<!-- l1_wfov_a_man -->
<g id="node22" class="node">
<title>l1_wfov_a_man</title>
<ellipse fill="none" stroke="black" cx="1169.85" cy="-170.87" rx="132.87" ry="26.74"/>
<text text-anchor="middle" x="1169.85" y="-174.67" font-family="Times,serif" font-size="14.00">L1_wfov_a manifest 1..1</text>
<text text-anchor="middle" x="1169.85" y="-159.67" font-family="Times,serif" font-size="14.00">of 0..i files</text>
</g>
<!-- sort&#45;&gt;l1_wfov_a_man -->
<g id="edge19" class="edge">
<title>sort&#45;&gt;l1_wfov_a_man</title>
<path fill="none" stroke="black" d="M751.11,-525.64C751.11,-401.38 751.11,-170.87 751.11,-170.87 751.11,-170.87 1026.78,-170.87 1026.78,-170.87"/>
<polygon fill="black" stroke="black" points="1026.78,-174.37 1036.78,-170.87 1026.78,-167.37 1026.78,-174.37"/>
</g>
<!-- l1_wfov_pc_man -->
<g id="node24" class="node">
<title>l1_wfov_pc_man</title>
<ellipse fill="none" stroke="black" cx="1169.85" cy="-98.87" rx="139.1" ry="26.74"/>
<text text-anchor="middle" x="1169.85" y="-102.67" font-family="Times,serif" font-size="14.00">L1_wfov_pc manifest 1..1</text>
<text text-anchor="middle" x="1169.85" y="-87.67" font-family="Times,serif" font-size="14.00">of 0..j files</text>
</g>
<!-- sort&#45;&gt;l1_wfov_pc_man -->
<g id="edge20" class="edge">
<title>sort&#45;&gt;l1_wfov_pc_man</title>
<path fill="none" stroke="black" d="M731.11,-533.85C731.11,-395.81 731.11,-98.87 731.11,-98.87 731.11,-98.87 1020.43,-98.87 1020.43,-98.87"/>
<polygon fill="black" stroke="black" points="1020.43,-102.37 1030.43,-98.87 1020.43,-95.37 1020.43,-102.37"/>
</g>
<!-- l1_unk_man -->
<g id="node25" class="node">
<title>l1_unk_man</title>
<ellipse fill="none" stroke="black" cx="1169.85" cy="-26.87" rx="117.26" ry="26.74"/>
<text text-anchor="middle" x="1169.85" y="-30.67" font-family="Times,serif" font-size="14.00">L1_unk manifest 1..1</text>
<text text-anchor="middle" x="1169.85" y="-15.67" font-family="Times,serif" font-size="14.00">of 0..k files</text>
</g>
<!-- sort&#45;&gt;l1_unk_man -->
<g id="edge21" class="edge">
<title>sort&#45;&gt;l1_unk_man</title>
<path fill="none" stroke="black" d="M711.11,-549.97C711.11,-407.58 711.11,-26.87 711.11,-26.87 711.11,-26.87 1042.31,-26.87 1042.31,-26.87"/>
<polygon fill="black" stroke="black" points="1042.31,-30.37 1052.31,-26.87 1042.31,-23.37 1042.31,-30.37"/>
</g>
<!-- l1_data -->
<g id="node4" class="node">
<title>l1_data</title>
<polygon fill="none" stroke="black" points="637.06,-593.87 500.06,-593.87 500.06,-557.87 637.06,-557.87 637.06,-593.87"/>
<text text-anchor="middle" x="568.56" y="-572.17" font-family="Times,serif" font-size="14.00">L1 products 1..N</text>
</g>
<!-- l1_data&#45;&gt;sort -->
<g id="edge3" class="edge">
<title>l1_data&#45;&gt;sort</title>
<path fill="none" stroke="black" stroke-dasharray="5,2" d="M637.14,-575.87C637.14,-575.87 685.69,-575.87 685.69,-575.87"/>
<polygon fill="black" stroke="black" points="685.69,-579.37 695.69,-575.87 685.69,-572.37 685.69,-579.37"/>
</g>
<!-- l1_man&#45;&gt;sort -->
<g id="edge4" class="edge">
<title>l1_man&#45;&gt;sort</title>
<path fill="none" stroke="black" d="M655.29,-629.87C655.29,-629.87 685.7,-629.87 685.7,-629.87"/>
<polygon fill="black" stroke="black" points="685.7,-633.37 695.7,-629.87 685.7,-626.37 685.7,-633.37"/>
</g>
<!-- l1_nfov_nc_man -->
<g id="node15" class="node">
<title>l1_nfov_nc_man</title>
<ellipse fill="none" stroke="black" cx="139.3" cy="-692.87" rx="137.36" ry="26.74"/>
<text text-anchor="middle" x="139.3" y="-696.67" font-family="Times,serif" font-size="14.00">L1_nfov_nc manifest 1..1</text>
<text text-anchor="middle" x="139.3" y="-681.67" font-family="Times,serif" font-size="14.00">of 0..d files</text>
</g>
<!-- l1_spec_nc_man -->
<g id="node20" class="node">
<title>l1_spec_nc_man</title>
<ellipse fill="none" stroke="black" cx="139.3" cy="-764.87" rx="137.77" ry="26.74"/>
<text text-anchor="middle" x="139.3" y="-768.67" font-family="Times,serif" font-size="14.00">L1_spec_nc manifest 1..1</text>
<text text-anchor="middle" x="139.3" y="-753.67" font-family="Times,serif" font-size="14.00">of 0..h files</text>
</g>
<!-- l1_wfov_nc_man -->
<g id="node23" class="node">
<title>l1_wfov_nc_man</title>
<ellipse fill="none" stroke="black" cx="139.3" cy="-836.87" rx="139.1" ry="26.74"/>
<text text-anchor="middle" x="139.3" y="-840.67" font-family="Times,serif" font-size="14.00">L1_wfov_nc manifest 1..1</text>
<text text-anchor="middle" x="139.3" y="-825.67" font-family="Times,serif" font-size="14.00">of 0..j files</text>
</g>
</g>
</svg>
