<?xml version="1.0" encoding="UTF-8" standalone="no"?>
<!DOCTYPE svg PUBLIC "-//W3C//DTD SVG 1.1//EN"
 "http://www.w3.org/Graphics/SVG/1.1/DTD/svg11.dtd">
<!-- Generated by graphviz version 2.43.0 (0)
 -->
<!-- Title: NFOVAClerks Pages: 1 -->
<svg width="881pt" height="1202pt"
 viewBox="0.00 0.00 881.17 1202.00" xmlns="http://www.w3.org/2000/svg" xmlns:xlink="http://www.w3.org/1999/xlink">
<g id="graph0" class="graph" transform="scale(1 1) rotate(0) translate(4 1198)">
<title>NFOVAClerks</title>
<polygon fill="white" stroke="transparent" points="-4,4 -4,-1198 877.17,-1198 877.17,4 -4,4"/>
<!-- alarm_cal -->
<g id="node1" class="node">
<title>alarm_cal</title>
<text text-anchor="middle" x="91" y="-392.3" font-family="Times,serif" font-size="14.00">User requested update</text>
</g>
<!-- calib -->
<g id="node4" class="node">
<title>calib</title>
<ellipse fill="none" stroke="black" cx="376.59" cy="-369" rx="62.29" ry="62.29"/>
<text text-anchor="middle" x="376.59" y="-365.3" font-family="Times,serif" font-size="14.00">Calibration</text>
</g>
<!-- alarm_cal&#45;&gt;calib -->
<g id="edge1" class="edge">
<title>alarm_cal&#45;&gt;calib</title>
<path fill="none" stroke="black" stroke-dasharray="5,2" d="M182.15,-396C182.15,-396 310.3,-396 310.3,-396"/>
<polygon fill="black" stroke="black" points="310.3,-399.5 320.3,-396 310.3,-392.5 310.3,-399.5"/>
</g>
<!-- alarm_cnf -->
<g id="node2" class="node">
<title>alarm_cnf</title>
<text text-anchor="middle" x="91" y="-338.3" font-family="Times,serif" font-size="14.00">User requested update</text>
</g>
<!-- alarm_cnf&#45;&gt;calib -->
<g id="edge2" class="edge">
<title>alarm_cnf&#45;&gt;calib</title>
<path fill="none" stroke="black" stroke-dasharray="5,2" d="M182.15,-342C182.15,-342 310.3,-342 310.3,-342"/>
<polygon fill="black" stroke="black" points="310.3,-345.5 320.3,-342 310.3,-338.5 310.3,-345.5"/>
</g>
<!-- alarm_rec -->
<g id="node3" class="node">
<title>alarm_rec</title>
<text text-anchor="middle" x="91" y="-878.3" font-family="Times,serif" font-size="14.00">User requested update</text>
</g>
<!-- recipe -->
<g id="node6" class="node">
<title>recipe</title>
<ellipse fill="none" stroke="black" cx="376.59" cy="-882" rx="42.49" ry="42.49"/>
<text text-anchor="middle" x="376.59" y="-878.3" font-family="Times,serif" font-size="14.00">Recipe</text>
</g>
<!-- alarm_rec&#45;&gt;recipe -->
<g id="edge3" class="edge">
<title>alarm_rec&#45;&gt;recipe</title>
<path fill="none" stroke="black" stroke-dasharray="5,2" d="M182.15,-882C182.15,-882 324.07,-882 324.07,-882"/>
<polygon fill="black" stroke="black" points="324.07,-885.5 334.07,-882 324.07,-878.5 324.07,-885.5"/>
</g>
<!-- l1_nfov_a_nllut -->
<g id="node9" class="node">
<title>l1_nfov_a_nllut</title>
<polygon fill="none" stroke="black" points="810.67,-732 621.67,-732 621.67,-708 810.67,-708 822.67,-720 810.67,-732"/>
<text text-anchor="middle" x="722.17" y="-716.3" font-family="Times,serif" font-size="14.00">non linear calibration 1..1</text>
</g>
<!-- calib&#45;&gt;l1_nfov_a_nllut -->
<g id="edge4" class="edge">
<title>calib&#45;&gt;l1_nfov_a_nllut</title>
<path fill="none" stroke="black" d="M424.17,-409.61C424.17,-502 424.17,-720 424.17,-720 424.17,-720 611.28,-720 611.28,-720"/>
<polygon fill="black" stroke="black" points="611.28,-723.5 621.28,-720 611.28,-716.5 611.28,-723.5"/>
</g>
<!-- l2a_nfov_a_mbpm -->
<g id="node12" class="node">
<title>l2a_nfov_a_mbpm</title>
<polygon fill="none" stroke="black" points="809.67,-678 622.67,-678 622.67,-654 809.67,-654 821.67,-666 809.67,-678"/>
<text text-anchor="middle" x="722.17" y="-662.3" font-family="Times,serif" font-size="14.00">nfov_a bad pixel map 1..1</text>
</g>
<!-- calib&#45;&gt;l2a_nfov_a_mbpm -->
<g id="edge5" class="edge">
<title>calib&#45;&gt;l2a_nfov_a_mbpm</title>
<path fill="none" stroke="black" d="M429.17,-402.78C429.17,-480.62 429.17,-666 429.17,-666 429.17,-666 612.57,-666 612.57,-666"/>
<polygon fill="black" stroke="black" points="612.57,-669.5 622.57,-666 612.57,-662.5 612.57,-669.5"/>
</g>
<!-- l2a_nfov_a_dnb -->
<g id="node13" class="node">
<title>l2a_nfov_a_dnb</title>
<polygon fill="none" stroke="black" points="861.17,-624 571.17,-624 571.17,-600 861.17,-600 873.17,-612 861.17,-624"/>
<text text-anchor="middle" x="722.17" y="-608.3" font-family="Times,serif" font-size="14.00">nfov_a dark (CIC/FPN/dark current) 1..1</text>
</g>
<!-- calib&#45;&gt;l2a_nfov_a_dnb -->
<g id="edge6" class="edge">
<title>calib&#45;&gt;l2a_nfov_a_dnb</title>
<path fill="none" stroke="black" d="M399.6,-427.05C452.28,-427.05 577.17,-427.05 577.17,-427.05 577.17,-427.05 577.17,-583.93 577.17,-583.93"/>
<polygon fill="black" stroke="black" points="573.67,-583.93 577.17,-593.93 580.67,-583.93 573.67,-583.93"/>
</g>
<!-- l2a_nfov_a_cti -->
<g id="node14" class="node">
<title>l2a_nfov_a_cti</title>
<polygon fill="none" stroke="black" points="850.67,-570 581.67,-570 581.67,-546 850.67,-546 862.67,-558 850.67,-570"/>
<text text-anchor="middle" x="722.17" y="-554.3" font-family="Times,serif" font-size="14.00">nfov_a charge transfer efficiency 1..1</text>
</g>
<!-- calib&#45;&gt;l2a_nfov_a_cti -->
<g id="edge7" class="edge">
<title>calib&#45;&gt;l2a_nfov_a_cti</title>
<path fill="none" stroke="black" d="M408.72,-422.7C467.91,-422.7 588.17,-422.7 588.17,-422.7 588.17,-422.7 588.17,-529.75 588.17,-529.75"/>
<polygon fill="black" stroke="black" points="584.67,-529.75 588.17,-539.75 591.67,-529.75 584.67,-529.75"/>
</g>
<!-- l2a_nfov_a_ff -->
<g id="node15" class="node">
<title>l2a_nfov_a_ff</title>
<polygon fill="none" stroke="black" points="788.67,-516 643.67,-516 643.67,-492 788.67,-492 800.67,-504 788.67,-516"/>
<text text-anchor="middle" x="722.17" y="-500.3" font-family="Times,serif" font-size="14.00">nfov_a flat field 1..1</text>
</g>
<!-- calib&#45;&gt;l2a_nfov_a_ff -->
<g id="edge8" class="edge">
<title>calib&#45;&gt;l2a_nfov_a_ff</title>
<path fill="none" stroke="black" d="M414.92,-418.35C489.78,-418.35 648.17,-418.35 648.17,-418.35 648.17,-418.35 648.17,-475.84 648.17,-475.84"/>
<polygon fill="black" stroke="black" points="644.67,-475.84 648.17,-485.84 651.67,-475.84 644.67,-475.84"/>
</g>
<!-- l2a_nfov_a_kgain -->
<g id="node16" class="node">
<title>l2a_nfov_a_kgain</title>
<polygon fill="none" stroke="black" points="781.17,-462 651.17,-462 651.17,-438 781.17,-438 793.17,-450 781.17,-462"/>
<text text-anchor="middle" x="722.17" y="-446.3" font-family="Times,serif" font-size="14.00">nfov_a k&#45;gain 1..1</text>
</g>
<!-- calib&#45;&gt;l2a_nfov_a_kgain -->
<g id="edge9" class="edge">
<title>calib&#45;&gt;l2a_nfov_a_kgain</title>
<path fill="none" stroke="black" d="M434.17,-393.3C434.17,-417.16 434.17,-450 434.17,-450 434.17,-450 640.98,-450 640.98,-450"/>
<polygon fill="black" stroke="black" points="640.98,-453.5 650.98,-450 640.98,-446.5 640.98,-453.5"/>
</g>
<!-- l2a_nfov_a_emg -->
<g id="node17" class="node">
<title>l2a_nfov_a_emg</title>
<polygon fill="none" stroke="black" points="789.17,-408 643.17,-408 643.17,-384 789.17,-384 801.17,-396 789.17,-408"/>
<text text-anchor="middle" x="722.17" y="-392.3" font-family="Times,serif" font-size="14.00">nfov_a EM gain 1..1</text>
</g>
<!-- calib&#45;&gt;l2a_nfov_a_emg -->
<g id="edge10" class="edge">
<title>calib&#45;&gt;l2a_nfov_a_emg</title>
<path fill="none" stroke="black" d="M432.88,-396C432.88,-396 633,-396 633,-396"/>
<polygon fill="black" stroke="black" points="633,-399.5 643,-396 633,-392.5 633,-399.5"/>
</g>
<!-- l2b_nfov_a_distm -->
<g id="node20" class="node">
<title>l2b_nfov_a_distm</title>
<polygon fill="none" stroke="black" points="811.67,-354 620.67,-354 620.67,-330 811.67,-330 823.67,-342 811.67,-354"/>
<text text-anchor="middle" x="722.17" y="-338.3" font-family="Times,serif" font-size="14.00">nfov_a distortion map 1..1</text>
</g>
<!-- calib&#45;&gt;l2b_nfov_a_distm -->
<g id="edge11" class="edge">
<title>calib&#45;&gt;l2b_nfov_a_distm</title>
<path fill="none" stroke="black" d="M432.88,-342C432.88,-342 610.54,-342 610.54,-342"/>
<polygon fill="black" stroke="black" points="610.54,-345.5 620.54,-342 610.54,-338.5 610.54,-345.5"/>
</g>
<!-- l2b_nfov_a_excicrf -->
<g id="node21" class="node">
<title>l2b_nfov_a_excicrf</title>
<polygon fill="none" stroke="black" points="837.17,-300 595.17,-300 595.17,-276 837.17,-276 849.17,-288 837.17,-300"/>
<text text-anchor="middle" x="722.17" y="-284.3" font-family="Times,serif" font-size="14.00">nfov_a EXCAM ICRF location 1..1</text>
</g>
<!-- calib&#45;&gt;l2b_nfov_a_excicrf -->
<g id="edge12" class="edge">
<title>calib&#45;&gt;l2b_nfov_a_excicrf</title>
<path fill="none" stroke="black" d="M408.79,-315.3C472.42,-315.3 608.17,-315.3 608.17,-315.3 608.17,-315.3 608.17,-314.38 608.17,-314.38"/>
<polygon fill="black" stroke="black" points="611.67,-316.06 608.17,-306.06 604.67,-316.06 611.67,-316.06"/>
</g>
<!-- l2b_nfov_a_excfovps -->
<g id="node22" class="node">
<title>l2b_nfov_a_excfovps</title>
<polygon fill="none" stroke="black" points="839.17,-246 593.17,-246 593.17,-222 839.17,-222 851.17,-234 839.17,-246"/>
<text text-anchor="middle" x="722.17" y="-230.3" font-family="Times,serif" font-size="14.00">nfov_a ECAM FOV pixel scale 1..1</text>
</g>
<!-- calib&#45;&gt;l2b_nfov_a_excfovps -->
<g id="edge13" class="edge">
<title>calib&#45;&gt;l2b_nfov_a_excfovps</title>
<path fill="none" stroke="black" d="M419.17,-323.3C419.17,-284.13 419.17,-234 419.17,-234 419.17,-234 582.79,-234 582.79,-234"/>
<polygon fill="black" stroke="black" points="582.79,-237.5 592.79,-234 582.79,-230.5 582.79,-237.5"/>
</g>
<!-- l3_nfov_a_cal -->
<g id="node25" class="node">
<title>l3_nfov_a_cal</title>
<polygon fill="none" stroke="black" points="797.67,-192 634.67,-192 634.67,-168 797.67,-168 809.67,-180 797.67,-192"/>
<text text-anchor="middle" x="722.17" y="-176.3" font-family="Times,serif" font-size="14.00">nfov_a calibration 1..1</text>
</g>
<!-- calib&#45;&gt;l3_nfov_a_cal -->
<g id="edge14" class="edge">
<title>calib&#45;&gt;l3_nfov_a_cal</title>
<path fill="none" stroke="black" d="M398.17,-310.24C398.17,-254.75 398.17,-180 398.17,-180 398.17,-180 624.49,-180 624.49,-180"/>
<polygon fill="black" stroke="black" points="624.49,-183.5 634.49,-180 624.49,-176.5 624.49,-183.5"/>
</g>
<!-- l4_nfov_a_afcal -->
<g id="node28" class="node">
<title>l4_nfov_a_afcal</title>
<polygon fill="none" stroke="black" points="805.17,-138 627.17,-138 627.17,-114 805.17,-114 817.17,-126 805.17,-138"/>
<text text-anchor="middle" x="722.17" y="-122.3" font-family="Times,serif" font-size="14.00">nfov_a absolute flux 1..1</text>
</g>
<!-- calib&#45;&gt;l4_nfov_a_afcal -->
<g id="edge15" class="edge">
<title>calib&#45;&gt;l4_nfov_a_afcal</title>
<path fill="none" stroke="black" d="M377.17,-306.42C377.17,-234.42 377.17,-126 377.17,-126 377.17,-126 616.99,-126 616.99,-126"/>
<polygon fill="black" stroke="black" points="616.99,-129.5 626.99,-126 616.99,-122.5 616.99,-129.5"/>
</g>
<!-- l4_nfov_a_ctcal -->
<g id="node29" class="node">
<title>l4_nfov_a_ctcal</title>
<polygon fill="none" stroke="black" points="817.67,-84 614.67,-84 614.67,-60 817.67,-60 829.67,-72 817.67,-84"/>
<text text-anchor="middle" x="722.17" y="-68.3" font-family="Times,serif" font-size="14.00">nfov_a core throughput 1..1</text>
</g>
<!-- calib&#45;&gt;l4_nfov_a_ctcal -->
<g id="edge16" class="edge">
<title>calib&#45;&gt;l4_nfov_a_ctcal</title>
<path fill="none" stroke="black" d="M356.17,-309.97C356.17,-223.35 356.17,-72 356.17,-72 356.17,-72 604.34,-72 604.34,-72"/>
<polygon fill="black" stroke="black" points="604.34,-75.5 614.34,-72 604.34,-68.5 604.34,-75.5"/>
</g>
<!-- l4_nfov_a_ndfilt -->
<g id="node30" class="node">
<title>l4_nfov_a_ndfilt</title>
<polygon fill="none" stroke="black" points="790.67,-30 641.67,-30 641.67,-6 790.67,-6 802.67,-18 790.67,-30"/>
<text text-anchor="middle" x="722.17" y="-14.3" font-family="Times,serif" font-size="14.00">nfov_a ND filter 1..1</text>
</g>
<!-- calib&#45;&gt;l4_nfov_a_ndfilt -->
<g id="edge17" class="edge">
<title>calib&#45;&gt;l4_nfov_a_ndfilt</title>
<path fill="none" stroke="black" d="M335.17,-322.03C335.17,-226.38 335.17,-18 335.17,-18 335.17,-18 631.52,-18 631.52,-18"/>
<polygon fill="black" stroke="black" points="631.52,-21.5 641.52,-18 631.52,-14.5 631.52,-21.5"/>
</g>
<!-- config -->
<g id="node5" class="node">
<title>config</title>
<ellipse fill="none" stroke="black" cx="91" cy="-1068" rx="74.19" ry="74.19"/>
<text text-anchor="middle" x="91" y="-1064.3" font-family="Times,serif" font-size="14.00">Configuration</text>
</g>
<!-- l1_nfov_a_odir -->
<g id="node7" class="node">
<title>l1_nfov_a_odir</title>
<ellipse fill="none" stroke="black" cx="376.59" cy="-1176" rx="152.97" ry="18"/>
<text text-anchor="middle" x="376.59" y="-1172.3" font-family="Times,serif" font-size="14.00">Output path for L1_nfov_a 1..1</text>
</g>
<!-- config&#45;&gt;l1_nfov_a_odir -->
<g id="edge18" class="edge">
<title>config&#45;&gt;l1_nfov_a_odir</title>
<path fill="none" stroke="black" d="M91.17,-1142.12C91.17,-1160.97 91.17,-1176 91.17,-1176 91.17,-1176 213.44,-1176 213.44,-1176"/>
<polygon fill="black" stroke="black" points="213.44,-1179.5 223.44,-1176 213.43,-1172.5 213.44,-1179.5"/>
</g>
<!-- l2a_nfov_a_odir -->
<g id="node10" class="node">
<title>l2a_nfov_a_odir</title>
<ellipse fill="none" stroke="black" cx="376.59" cy="-1122" rx="157.87" ry="18"/>
<text text-anchor="middle" x="376.59" y="-1118.3" font-family="Times,serif" font-size="14.00">Output path for L2a_nfov_a 1..1</text>
</g>
<!-- config&#45;&gt;l2a_nfov_a_odir -->
<g id="edge19" class="edge">
<title>config&#45;&gt;l2a_nfov_a_odir</title>
<path fill="none" stroke="black" d="M142.06,-1122C142.06,-1122 208.52,-1122 208.52,-1122"/>
<polygon fill="black" stroke="black" points="208.52,-1125.5 218.52,-1122 208.52,-1118.5 208.52,-1125.5"/>
</g>
<!-- l2b_nfov_a_odir -->
<g id="node18" class="node">
<title>l2b_nfov_a_odir</title>
<ellipse fill="none" stroke="black" cx="376.59" cy="-1068" rx="158.67" ry="18"/>
<text text-anchor="middle" x="376.59" y="-1064.3" font-family="Times,serif" font-size="14.00">Output path for L2b_nfov_a 1..1</text>
</g>
<!-- config&#45;&gt;l2b_nfov_a_odir -->
<g id="edge20" class="edge">
<title>config&#45;&gt;l2b_nfov_a_odir</title>
<path fill="none" stroke="black" d="M165.29,-1068C165.29,-1068 207.87,-1068 207.87,-1068"/>
<polygon fill="black" stroke="black" points="207.87,-1071.5 217.87,-1068 207.87,-1064.5 207.87,-1071.5"/>
</g>
<!-- l3_nfov_a_odir -->
<g id="node23" class="node">
<title>l3_nfov_a_odir</title>
<ellipse fill="none" stroke="black" cx="376.59" cy="-1014" rx="152.97" ry="18"/>
<text text-anchor="middle" x="376.59" y="-1010.3" font-family="Times,serif" font-size="14.00">Output path for L3_nfov_a 1..1</text>
</g>
<!-- config&#45;&gt;l3_nfov_a_odir -->
<g id="edge21" class="edge">
<title>config&#45;&gt;l3_nfov_a_odir</title>
<path fill="none" stroke="black" d="M142.06,-1014C142.06,-1014 213.69,-1014 213.69,-1014"/>
<polygon fill="black" stroke="black" points="213.69,-1017.5 223.69,-1014 213.69,-1010.5 213.69,-1017.5"/>
</g>
<!-- l4_nfov_a_odir -->
<g id="node26" class="node">
<title>l4_nfov_a_odir</title>
<ellipse fill="none" stroke="black" cx="376.59" cy="-960" rx="152.97" ry="18"/>
<text text-anchor="middle" x="376.59" y="-956.3" font-family="Times,serif" font-size="14.00">Output path for L4_nfov_a 1..1</text>
</g>
<!-- config&#45;&gt;l4_nfov_a_odir -->
<g id="edge22" class="edge">
<title>config&#45;&gt;l4_nfov_a_odir</title>
<path fill="none" stroke="black" d="M91.17,-993.88C91.17,-975.03 91.17,-960 91.17,-960 91.17,-960 213.44,-960 213.44,-960"/>
<polygon fill="black" stroke="black" points="213.44,-963.5 223.44,-960 213.43,-956.5 213.44,-963.5"/>
</g>
<!-- l1_nfov_a_rec -->
<g id="node8" class="node">
<title>l1_nfov_a_rec</title>
<polygon fill="none" stroke="black" points="793.67,-1002 638.67,-1002 638.67,-978 793.67,-978 805.67,-990 793.67,-1002"/>
<text text-anchor="middle" x="722.17" y="-986.3" font-family="Times,serif" font-size="14.00">recipe L1_nfov_a 1..1</text>
</g>
<!-- recipe&#45;&gt;l1_nfov_a_rec -->
<g id="edge23" class="edge">
<title>recipe&#45;&gt;l1_nfov_a_rec</title>
<path fill="none" stroke="black" d="M409.39,-909C460.45,-909 553.17,-909 553.17,-909 553.17,-909 553.17,-985.95 553.17,-985.95 553.17,-985.95 628.66,-985.95 628.66,-985.95"/>
<polygon fill="black" stroke="black" points="628.66,-989.45 638.66,-985.95 628.66,-982.45 628.66,-989.45"/>
</g>
<!-- l2a_nfov_a_rec -->
<g id="node11" class="node">
<title>l2a_nfov_a_rec</title>
<polygon fill="none" stroke="black" points="798.17,-948 634.17,-948 634.17,-924 798.17,-924 810.17,-936 798.17,-948"/>
<text text-anchor="middle" x="722.17" y="-932.3" font-family="Times,serif" font-size="14.00">recipe L2a_nfov_a 1..1</text>
</g>
<!-- recipe&#45;&gt;l2a_nfov_a_rec -->
<g id="edge24" class="edge">
<title>recipe&#45;&gt;l2a_nfov_a_rec</title>
<path fill="none" stroke="black" d="M377.17,-924.68C377.17,-929.73 377.17,-933.12 377.17,-933.12 377.17,-933.12 623.77,-933.12 623.77,-933.12"/>
<polygon fill="black" stroke="black" points="623.77,-936.62 633.77,-933.12 623.77,-929.62 623.77,-936.62"/>
</g>
<!-- l2b_nfov_a_rec -->
<g id="node19" class="node">
<title>l2b_nfov_a_rec</title>
<polygon fill="none" stroke="black" points="798.17,-894 634.17,-894 634.17,-870 798.17,-870 810.17,-882 798.17,-894"/>
<text text-anchor="middle" x="722.17" y="-878.3" font-family="Times,serif" font-size="14.00">recipe L2b_nfov_a 1..1</text>
</g>
<!-- recipe&#45;&gt;l2b_nfov_a_rec -->
<g id="edge25" class="edge">
<title>recipe&#45;&gt;l2b_nfov_a_rec</title>
<path fill="none" stroke="black" d="M418.96,-882C418.96,-882 623.95,-882 623.95,-882"/>
<polygon fill="black" stroke="black" points="623.95,-885.5 633.95,-882 623.95,-878.5 623.95,-885.5"/>
</g>
<!-- l3_nfov_a_rec -->
<g id="node24" class="node">
<title>l3_nfov_a_rec</title>
<polygon fill="none" stroke="black" points="793.67,-840 638.67,-840 638.67,-816 793.67,-816 805.67,-828 793.67,-840"/>
<text text-anchor="middle" x="722.17" y="-824.3" font-family="Times,serif" font-size="14.00">recipe L3_nfov_a 1..1</text>
</g>
<!-- recipe&#45;&gt;l3_nfov_a_rec -->
<g id="edge26" class="edge">
<title>recipe&#45;&gt;l3_nfov_a_rec</title>
<path fill="none" stroke="black" d="M391.17,-842.33C391.17,-832.58 391.17,-824.88 391.17,-824.88 391.17,-824.88 628.65,-824.88 628.65,-824.88"/>
<polygon fill="black" stroke="black" points="628.65,-828.38 638.65,-824.88 628.65,-821.38 628.65,-828.38"/>
</g>
<!-- l4_nfov_a_rec -->
<g id="node27" class="node">
<title>l4_nfov_a_rec</title>
<polygon fill="none" stroke="black" points="793.67,-786 638.67,-786 638.67,-762 793.67,-762 805.67,-774 793.67,-786"/>
<text text-anchor="middle" x="722.17" y="-770.3" font-family="Times,serif" font-size="14.00">recipe L4_nfov_a 1..1</text>
</g>
<!-- recipe&#45;&gt;l4_nfov_a_rec -->
<g id="edge27" class="edge">
<title>recipe&#45;&gt;l4_nfov_a_rec</title>
<path fill="none" stroke="black" d="M363.17,-841.78C363.17,-811.08 363.17,-774 363.17,-774 363.17,-774 628.46,-774 628.46,-774"/>
<polygon fill="black" stroke="black" points="628.46,-777.5 638.46,-774 628.46,-770.5 628.46,-777.5"/>
</g>
</g>
</svg>
