<?xml version="1.0" encoding="UTF-8" standalone="no"?>
<!DOCTYPE svg PUBLIC "-//W3C//DTD SVG 1.1//EN"
 "http://www.w3.org/Graphics/SVG/1.1/DTD/svg11.dtd">
<!-- Generated by graphviz version 2.43.0 (0)
 -->
<!-- Title: NFOVAClerks Pages: 1 -->
<svg width="727pt" height="1340pt"
 viewBox="0.00 0.00 727.36 1340.00" xmlns="http://www.w3.org/2000/svg" xmlns:xlink="http://www.w3.org/1999/xlink">
<g id="graph0" class="graph" transform="scale(1 1) rotate(0) translate(4 1336)">
<title>NFOVAClerks</title>
<polygon fill="white" stroke="transparent" points="-4,4 -4,-1336 723.36,-1336 723.36,4 -4,4"/>
<!-- alarm_cal -->
<g id="node1" class="node">
<title>alarm_cal</title>
<text text-anchor="middle" x="91" y="-392.3" font-family="Times,serif" font-size="14.00">User requested update</text>
</g>
<!-- calib -->
<g id="node4" class="node">
<title>calib</title>
<ellipse fill="none" stroke="black" cx="292.09" cy="-396" rx="62.29" ry="62.29"/>
<text text-anchor="middle" x="292.09" y="-392.3" font-family="Times,serif" font-size="14.00">Calibration</text>
</g>
<!-- alarm_cal&#45;&gt;calib -->
<g id="edge1" class="edge">
<title>alarm_cal&#45;&gt;calib</title>
<path fill="none" stroke="black" stroke-dasharray="5,2" d="M182.13,-396C182.13,-396 219.47,-396 219.47,-396"/>
<polygon fill="black" stroke="black" points="219.47,-399.5 229.47,-396 219.47,-392.5 219.47,-399.5"/>
</g>
<!-- alarm_cnf -->
<g id="node2" class="node">
<title>alarm_cnf</title>
<text text-anchor="middle" x="91" y="-932.3" font-family="Times,serif" font-size="14.00">User requested update</text>
</g>
<!-- config -->
<g id="node5" class="node">
<title>config</title>
<ellipse fill="none" stroke="black" cx="292.09" cy="-936" rx="74.19" ry="74.19"/>
<text text-anchor="middle" x="292.09" y="-932.3" font-family="Times,serif" font-size="14.00">Configuration</text>
</g>
<!-- alarm_cnf&#45;&gt;config -->
<g id="edge2" class="edge">
<title>alarm_cnf&#45;&gt;config</title>
<path fill="none" stroke="black" stroke-dasharray="5,2" d="M182.13,-936C182.13,-936 207.84,-936 207.84,-936"/>
<polygon fill="black" stroke="black" points="207.84,-939.5 217.84,-936 207.84,-932.5 207.84,-939.5"/>
</g>
<!-- alarm_rec -->
<g id="node3" class="node">
<title>alarm_rec</title>
<text text-anchor="middle" x="91" y="-1202.3" font-family="Times,serif" font-size="14.00">User requested update</text>
</g>
<!-- recipe -->
<g id="node6" class="node">
<title>recipe</title>
<ellipse fill="none" stroke="black" cx="292.09" cy="-1206" rx="42.49" ry="42.49"/>
<text text-anchor="middle" x="292.09" y="-1202.3" font-family="Times,serif" font-size="14.00">Recipe</text>
</g>
<!-- alarm_rec&#45;&gt;recipe -->
<g id="edge3" class="edge">
<title>alarm_rec&#45;&gt;recipe</title>
<path fill="none" stroke="black" stroke-dasharray="5,2" d="M182.13,-1206C182.13,-1206 239.74,-1206 239.74,-1206"/>
<polygon fill="black" stroke="black" points="239.74,-1209.5 249.74,-1206 239.74,-1202.5 239.74,-1209.5"/>
</g>
<!-- l1_nfov_a_nllut -->
<g id="node9" class="node">
<title>l1_nfov_a_nllut</title>
<polygon fill="none" stroke="black" points="649.27,-786 460.27,-786 460.27,-762 649.27,-762 661.27,-774 649.27,-786"/>
<text text-anchor="middle" x="560.77" y="-770.3" font-family="Times,serif" font-size="14.00">non linear calibration 1..1</text>
</g>
<!-- calib&#45;&gt;l1_nfov_a_nllut -->
<g id="edge4" class="edge">
<title>calib&#45;&gt;l1_nfov_a_nllut</title>
<path fill="none" stroke="black" d="M255.36,-446.59C255.36,-549.59 255.36,-774 255.36,-774 255.36,-774 449.92,-774 449.92,-774"/>
<polygon fill="black" stroke="black" points="449.92,-777.5 459.92,-774 449.92,-770.5 449.92,-777.5"/>
</g>
<!-- l2a_nfov_a_mbpm -->
<g id="node12" class="node">
<title>l2a_nfov_a_mbpm</title>
<polygon fill="none" stroke="black" points="648.27,-732 461.27,-732 461.27,-708 648.27,-708 660.27,-720 648.27,-732"/>
<text text-anchor="middle" x="560.77" y="-716.3" font-family="Times,serif" font-size="14.00">nfov_a bad pixel map 1..1</text>
</g>
<!-- calib&#45;&gt;l2a_nfov_a_mbpm -->
<g id="edge5" class="edge">
<title>calib&#45;&gt;l2a_nfov_a_mbpm</title>
<path fill="none" stroke="black" d="M280.36,-457.32C280.36,-551.25 280.36,-720 280.36,-720 280.36,-720 451.12,-720 451.12,-720"/>
<polygon fill="black" stroke="black" points="451.12,-723.5 461.12,-720 451.12,-716.5 451.12,-723.5"/>
</g>
<!-- l2a_nfov_a_dnb -->
<g id="node13" class="node">
<title>l2a_nfov_a_dnb</title>
<polygon fill="none" stroke="black" points="699.77,-678 409.77,-678 409.77,-654 699.77,-654 711.77,-666 699.77,-678"/>
<text text-anchor="middle" x="560.77" y="-662.3" font-family="Times,serif" font-size="14.00">nfov_a dark (CIC/FPN/dark current) 1..1</text>
</g>
<!-- calib&#45;&gt;l2a_nfov_a_dnb -->
<g id="edge6" class="edge">
<title>calib&#45;&gt;l2a_nfov_a_dnb</title>
<path fill="none" stroke="black" d="M320.06,-451.8C356.43,-451.8 415.36,-451.8 415.36,-451.8 415.36,-451.8 415.36,-637.74 415.36,-637.74"/>
<polygon fill="black" stroke="black" points="411.86,-637.74 415.36,-647.74 418.86,-637.74 411.86,-637.74"/>
</g>
<!-- l2a_nfov_a_cti -->
<g id="node14" class="node">
<title>l2a_nfov_a_cti</title>
<polygon fill="none" stroke="black" points="689.27,-624 420.27,-624 420.27,-600 689.27,-600 701.27,-612 689.27,-624"/>
<text text-anchor="middle" x="560.77" y="-608.3" font-family="Times,serif" font-size="14.00">nfov_a charge transfer efficiency 1..1</text>
</g>
<!-- calib&#45;&gt;l2a_nfov_a_cti -->
<g id="edge7" class="edge">
<title>calib&#45;&gt;l2a_nfov_a_cti</title>
<path fill="none" stroke="black" d="M330.57,-445.2C370.24,-445.2 426.36,-445.2 426.36,-445.2 426.36,-445.2 426.36,-583.83 426.36,-583.83"/>
<polygon fill="black" stroke="black" points="422.86,-583.83 426.36,-593.83 429.86,-583.83 422.86,-583.83"/>
</g>
<!-- l2a_nfov_a_ff -->
<g id="node15" class="node">
<title>l2a_nfov_a_ff</title>
<polygon fill="none" stroke="black" points="627.27,-570 482.27,-570 482.27,-546 627.27,-546 639.27,-558 627.27,-570"/>
<text text-anchor="middle" x="560.77" y="-554.3" font-family="Times,serif" font-size="14.00">nfov_a flat field 1..1</text>
</g>
<!-- calib&#45;&gt;l2a_nfov_a_ff -->
<g id="edge8" class="edge">
<title>calib&#45;&gt;l2a_nfov_a_ff</title>
<path fill="none" stroke="black" d="M305.36,-457.25C305.36,-503.12 305.36,-558 305.36,-558 305.36,-558 472.06,-558 472.06,-558"/>
<polygon fill="black" stroke="black" points="472.06,-561.5 482.06,-558 472.06,-554.5 472.06,-561.5"/>
</g>
<!-- l2a_nfov_a_kgain -->
<g id="node16" class="node">
<title>l2a_nfov_a_kgain</title>
<polygon fill="none" stroke="black" points="619.77,-516 489.77,-516 489.77,-492 619.77,-492 631.77,-504 619.77,-516"/>
<text text-anchor="middle" x="560.77" y="-500.3" font-family="Times,serif" font-size="14.00">nfov_a k&#45;gain 1..1</text>
</g>
<!-- calib&#45;&gt;l2a_nfov_a_kgain -->
<g id="edge9" class="edge">
<title>calib&#45;&gt;l2a_nfov_a_kgain</title>
<path fill="none" stroke="black" d="M330.36,-445.57C330.36,-473.97 330.36,-504 330.36,-504 330.36,-504 479.76,-504 479.76,-504"/>
<polygon fill="black" stroke="black" points="479.76,-507.5 489.76,-504 479.76,-500.5 479.76,-507.5"/>
</g>
<!-- l2a_nfov_a_emg -->
<g id="node17" class="node">
<title>l2a_nfov_a_emg</title>
<polygon fill="none" stroke="black" points="627.77,-462 481.77,-462 481.77,-438 627.77,-438 639.77,-450 627.77,-462"/>
<text text-anchor="middle" x="560.77" y="-446.3" font-family="Times,serif" font-size="14.00">nfov_a EM gain 1..1</text>
</g>
<!-- calib&#45;&gt;l2a_nfov_a_emg -->
<g id="edge10" class="edge">
<title>calib&#45;&gt;l2a_nfov_a_emg</title>
<path fill="none" stroke="black" d="M337.98,-438.6C337.98,-438.6 471.64,-438.6 471.64,-438.6"/>
<polygon fill="black" stroke="black" points="471.64,-442.1 481.64,-438.6 471.64,-435.1 471.64,-442.1"/>
</g>
<!-- l2b_nfov_a_distm -->
<g id="node20" class="node">
<title>l2b_nfov_a_distm</title>
<polygon fill="none" stroke="black" points="650.27,-408 459.27,-408 459.27,-384 650.27,-384 662.27,-396 650.27,-408"/>
<text text-anchor="middle" x="560.77" y="-392.3" font-family="Times,serif" font-size="14.00">nfov_a distortion map 1..1</text>
</g>
<!-- calib&#45;&gt;l2b_nfov_a_distm -->
<g id="edge11" class="edge">
<title>calib&#45;&gt;l2b_nfov_a_distm</title>
<path fill="none" stroke="black" d="M354.75,-396C354.75,-396 449.05,-396 449.05,-396"/>
<polygon fill="black" stroke="black" points="449.05,-399.5 459.05,-396 449.05,-392.5 449.05,-399.5"/>
</g>
<!-- l2b_nfov_a_excicrf -->
<g id="node21" class="node">
<title>l2b_nfov_a_excicrf</title>
<polygon fill="none" stroke="black" points="675.77,-354 433.77,-354 433.77,-330 675.77,-330 687.77,-342 675.77,-354"/>
<text text-anchor="middle" x="560.77" y="-338.3" font-family="Times,serif" font-size="14.00">nfov_a EXCAM ICRF location 1..1</text>
</g>
<!-- calib&#45;&gt;l2b_nfov_a_excicrf -->
<g id="edge12" class="edge">
<title>calib&#45;&gt;l2b_nfov_a_excicrf</title>
<path fill="none" stroke="black" d="M330.59,-346.8C330.59,-346.8 423.67,-346.8 423.67,-346.8"/>
<polygon fill="black" stroke="black" points="423.67,-350.3 433.67,-346.8 423.67,-343.3 423.67,-350.3"/>
</g>
<!-- l2b_nfov_a_excfovps -->
<g id="node22" class="node">
<title>l2b_nfov_a_excfovps</title>
<polygon fill="none" stroke="black" points="677.77,-300 431.77,-300 431.77,-276 677.77,-276 689.77,-288 677.77,-300"/>
<text text-anchor="middle" x="560.77" y="-284.3" font-family="Times,serif" font-size="14.00">nfov_a ECAM FOV pixel scale 1..1</text>
</g>
<!-- calib&#45;&gt;l2b_nfov_a_excfovps -->
<g id="edge13" class="edge">
<title>calib&#45;&gt;l2b_nfov_a_excfovps</title>
<path fill="none" stroke="black" d="M337.36,-353.01C337.36,-322.89 337.36,-288 337.36,-288 337.36,-288 421.46,-288 421.46,-288"/>
<polygon fill="black" stroke="black" points="421.46,-291.5 431.46,-288 421.46,-284.5 421.46,-291.5"/>
</g>
<!-- l3_nfov_a_ast -->
<g id="node25" class="node">
<title>l3_nfov_a_ast</title>
<polygon fill="none" stroke="black" points="637.77,-246 471.77,-246 471.77,-222 637.77,-222 649.77,-234 637.77,-246"/>
<text text-anchor="middle" x="560.77" y="-230.3" font-family="Times,serif" font-size="14.00">nfov_a astrometry 1..1</text>
</g>
<!-- calib&#45;&gt;l3_nfov_a_ast -->
<g id="edge14" class="edge">
<title>calib&#45;&gt;l3_nfov_a_ast</title>
<path fill="none" stroke="black" d="M319.36,-339.79C319.36,-293.01 319.36,-234 319.36,-234 319.36,-234 461.56,-234 461.56,-234"/>
<polygon fill="black" stroke="black" points="461.57,-237.5 471.56,-234 461.56,-230.5 461.57,-237.5"/>
</g>
<!-- l3_nfov_a_ndf -->
<g id="node26" class="node">
<title>l3_nfov_a_ndf</title>
<polygon fill="none" stroke="black" points="637.77,-192 471.77,-192 471.77,-168 637.77,-168 649.77,-180 637.77,-192"/>
<text text-anchor="middle" x="560.77" y="-176.3" font-family="Times,serif" font-size="14.00">nfov_a astrometry 1..1</text>
</g>
<!-- calib&#45;&gt;l3_nfov_a_ndf -->
<g id="edge15" class="edge">
<title>calib&#45;&gt;l3_nfov_a_ndf</title>
<path fill="none" stroke="black" d="M301.36,-334.1C301.36,-270.28 301.36,-180 301.36,-180 301.36,-180 461.5,-180 461.5,-180"/>
<polygon fill="black" stroke="black" points="461.5,-183.5 471.5,-180 461.5,-176.5 461.5,-183.5"/>
</g>
<!-- l4_nfov_a_afcal -->
<g id="node29" class="node">
<title>l4_nfov_a_afcal</title>
<polygon fill="none" stroke="black" points="643.77,-138 465.77,-138 465.77,-114 643.77,-114 655.77,-126 643.77,-138"/>
<text text-anchor="middle" x="560.77" y="-122.3" font-family="Times,serif" font-size="14.00">nfov_a absolute flux 1..1</text>
</g>
<!-- calib&#45;&gt;l4_nfov_a_afcal -->
<g id="edge16" class="edge">
<title>calib&#45;&gt;l4_nfov_a_afcal</title>
<path fill="none" stroke="black" d="M283.36,-334.06C283.36,-254.34 283.36,-126 283.36,-126 283.36,-126 455.69,-126 455.69,-126"/>
<polygon fill="black" stroke="black" points="455.69,-129.5 465.69,-126 455.69,-122.5 455.69,-129.5"/>
</g>
<!-- l4_nfov_a_ctcal -->
<g id="node30" class="node">
<title>l4_nfov_a_ctcal</title>
<polygon fill="none" stroke="black" points="656.27,-84 453.27,-84 453.27,-60 656.27,-60 668.27,-72 656.27,-84"/>
<text text-anchor="middle" x="560.77" y="-68.3" font-family="Times,serif" font-size="14.00">nfov_a core throughput 1..1</text>
</g>
<!-- calib&#45;&gt;l4_nfov_a_ctcal -->
<g id="edge17" class="edge">
<title>calib&#45;&gt;l4_nfov_a_ctcal</title>
<path fill="none" stroke="black" d="M265.36,-339.56C265.36,-246.74 265.36,-72 265.36,-72 265.36,-72 442.87,-72 442.87,-72"/>
<polygon fill="black" stroke="black" points="442.87,-75.5 452.87,-72 442.87,-68.5 442.87,-75.5"/>
</g>
<!-- l4_nfov_a_ndfilt -->
<g id="node31" class="node">
<title>l4_nfov_a_ndfilt</title>
<polygon fill="none" stroke="black" points="629.27,-30 480.27,-30 480.27,-6 629.27,-6 641.27,-18 629.27,-30"/>
<text text-anchor="middle" x="560.77" y="-14.3" font-family="Times,serif" font-size="14.00">nfov_a ND filter 1..1</text>
</g>
<!-- calib&#45;&gt;l4_nfov_a_ndfilt -->
<g id="edge18" class="edge">
<title>calib&#45;&gt;l4_nfov_a_ndfilt</title>
<path fill="none" stroke="black" d="M248.36,-351.15C248.36,-251.03 248.36,-18 248.36,-18 248.36,-18 469.91,-18 469.91,-18"/>
<polygon fill="black" stroke="black" points="469.91,-21.5 479.91,-18 469.91,-14.5 469.91,-21.5"/>
</g>
<!-- l1_nfov_a_odir -->
<g id="node7" class="node">
<title>l1_nfov_a_odir</title>
<ellipse fill="none" stroke="black" cx="560.77" cy="-1044" rx="152.97" ry="18"/>
<text text-anchor="middle" x="560.77" y="-1040.3" font-family="Times,serif" font-size="14.00">Output path for L1_nfov_a 1..1</text>
</g>
<!-- config&#45;&gt;l1_nfov_a_odir -->
<g id="edge19" class="edge">
<title>config&#45;&gt;l1_nfov_a_odir</title>
<path fill="none" stroke="black" d="M350.36,-981.8C350.36,-1011.24 350.36,-1044 350.36,-1044 350.36,-1044 397.86,-1044 397.86,-1044"/>
<polygon fill="black" stroke="black" points="397.86,-1047.5 407.86,-1044 397.86,-1040.5 397.86,-1047.5"/>
</g>
<!-- l2a_nfov_a_odir -->
<g id="node10" class="node">
<title>l2a_nfov_a_odir</title>
<ellipse fill="none" stroke="black" cx="560.77" cy="-990" rx="157.87" ry="18"/>
<text text-anchor="middle" x="560.77" y="-986.3" font-family="Times,serif" font-size="14.00">Output path for L2a_nfov_a 1..1</text>
</g>
<!-- config&#45;&gt;l2a_nfov_a_odir -->
<g id="edge20" class="edge">
<title>config&#45;&gt;l2a_nfov_a_odir</title>
<path fill="none" stroke="black" d="M342.95,-990C342.95,-990 392.81,-990 392.81,-990"/>
<polygon fill="black" stroke="black" points="392.81,-993.5 402.81,-990 392.81,-986.5 392.81,-993.5"/>
</g>
<!-- l2b_nfov_a_odir -->
<g id="node18" class="node">
<title>l2b_nfov_a_odir</title>
<ellipse fill="none" stroke="black" cx="560.77" cy="-936" rx="158.67" ry="18"/>
<text text-anchor="middle" x="560.77" y="-932.3" font-family="Times,serif" font-size="14.00">Output path for L2b_nfov_a 1..1</text>
</g>
<!-- config&#45;&gt;l2b_nfov_a_odir -->
<g id="edge21" class="edge">
<title>config&#45;&gt;l2b_nfov_a_odir</title>
<path fill="none" stroke="black" d="M366.22,-936C366.22,-936 391.97,-936 391.97,-936"/>
<polygon fill="black" stroke="black" points="391.97,-939.5 401.97,-936 391.97,-932.5 391.97,-939.5"/>
</g>
<!-- l3_nfov_a_odir -->
<g id="node23" class="node">
<title>l3_nfov_a_odir</title>
<ellipse fill="none" stroke="black" cx="560.77" cy="-882" rx="152.97" ry="18"/>
<text text-anchor="middle" x="560.77" y="-878.3" font-family="Times,serif" font-size="14.00">Output path for L3_nfov_a 1..1</text>
</g>
<!-- config&#45;&gt;l3_nfov_a_odir -->
<g id="edge22" class="edge">
<title>config&#45;&gt;l3_nfov_a_odir</title>
<path fill="none" stroke="black" d="M342.95,-882C342.95,-882 397.87,-882 397.87,-882"/>
<polygon fill="black" stroke="black" points="397.87,-885.5 407.87,-882 397.87,-878.5 397.87,-885.5"/>
</g>
<!-- l4_nfov_a_odir -->
<g id="node27" class="node">
<title>l4_nfov_a_odir</title>
<ellipse fill="none" stroke="black" cx="560.77" cy="-828" rx="152.97" ry="18"/>
<text text-anchor="middle" x="560.77" y="-824.3" font-family="Times,serif" font-size="14.00">Output path for L4_nfov_a 1..1</text>
</g>
<!-- config&#45;&gt;l4_nfov_a_odir -->
<g id="edge23" class="edge">
<title>config&#45;&gt;l4_nfov_a_odir</title>
<path fill="none" stroke="black" d="M360.36,-907.06C360.36,-875.07 360.36,-828 360.36,-828 360.36,-828 397.85,-828 397.85,-828"/>
<polygon fill="black" stroke="black" points="397.85,-831.5 407.85,-828 397.85,-824.5 397.85,-831.5"/>
</g>
<!-- l1_nfov_a_rec -->
<g id="node8" class="node">
<title>l1_nfov_a_rec</title>
<polygon fill="none" stroke="black" points="632.27,-1326 477.27,-1326 477.27,-1302 632.27,-1302 644.27,-1314 632.27,-1326"/>
<text text-anchor="middle" x="560.77" y="-1310.3" font-family="Times,serif" font-size="14.00">recipe L1_nfov_a 1..1</text>
</g>
<!-- recipe&#45;&gt;l1_nfov_a_rec -->
<g id="edge24" class="edge">
<title>recipe&#45;&gt;l1_nfov_a_rec</title>
<path fill="none" stroke="black" d="M278.36,-1246.22C278.36,-1276.92 278.36,-1314 278.36,-1314 278.36,-1314 467.19,-1314 467.19,-1314"/>
<polygon fill="black" stroke="black" points="467.19,-1317.5 477.19,-1314 467.19,-1310.5 467.19,-1317.5"/>
</g>
<!-- l2a_nfov_a_rec -->
<g id="node11" class="node">
<title>l2a_nfov_a_rec</title>
<polygon fill="none" stroke="black" points="636.77,-1272 472.77,-1272 472.77,-1248 636.77,-1248 648.77,-1260 636.77,-1272"/>
<text text-anchor="middle" x="560.77" y="-1256.3" font-family="Times,serif" font-size="14.00">recipe L2a_nfov_a 1..1</text>
</g>
<!-- recipe&#45;&gt;l2a_nfov_a_rec -->
<g id="edge25" class="edge">
<title>recipe&#45;&gt;l2a_nfov_a_rec</title>
<path fill="none" stroke="black" d="M306.36,-1245.98C306.36,-1255.58 306.36,-1263.12 306.36,-1263.12 306.36,-1263.12 462.51,-1263.12 462.51,-1263.12"/>
<polygon fill="black" stroke="black" points="462.51,-1266.62 472.51,-1263.12 462.51,-1259.62 462.51,-1266.62"/>
</g>
<!-- l2b_nfov_a_rec -->
<g id="node19" class="node">
<title>l2b_nfov_a_rec</title>
<polygon fill="none" stroke="black" points="636.77,-1218 472.77,-1218 472.77,-1194 636.77,-1194 648.77,-1206 636.77,-1218"/>
<text text-anchor="middle" x="560.77" y="-1202.3" font-family="Times,serif" font-size="14.00">recipe L2b_nfov_a 1..1</text>
</g>
<!-- recipe&#45;&gt;l2b_nfov_a_rec -->
<g id="edge26" class="edge">
<title>recipe&#45;&gt;l2b_nfov_a_rec</title>
<path fill="none" stroke="black" d="M334.37,-1206C334.37,-1206 462.62,-1206 462.62,-1206"/>
<polygon fill="black" stroke="black" points="462.62,-1209.5 472.62,-1206 462.62,-1202.5 462.62,-1209.5"/>
</g>
<!-- l3_nfov_a_rec -->
<g id="node24" class="node">
<title>l3_nfov_a_rec</title>
<polygon fill="none" stroke="black" points="632.27,-1164 477.27,-1164 477.27,-1140 632.27,-1140 644.27,-1152 632.27,-1164"/>
<text text-anchor="middle" x="560.77" y="-1148.3" font-family="Times,serif" font-size="14.00">recipe L3_nfov_a 1..1</text>
</g>
<!-- recipe&#45;&gt;l3_nfov_a_rec -->
<g id="edge27" class="edge">
<title>recipe&#45;&gt;l3_nfov_a_rec</title>
<path fill="none" stroke="black" d="M306.36,-1166.02C306.36,-1156.42 306.36,-1148.88 306.36,-1148.88 306.36,-1148.88 467.12,-1148.88 467.12,-1148.88"/>
<polygon fill="black" stroke="black" points="467.12,-1152.38 477.12,-1148.88 467.12,-1145.38 467.12,-1152.38"/>
</g>
<!-- l4_nfov_a_rec -->
<g id="node28" class="node">
<title>l4_nfov_a_rec</title>
<polygon fill="none" stroke="black" points="632.27,-1110 477.27,-1110 477.27,-1086 632.27,-1086 644.27,-1098 632.27,-1110"/>
<text text-anchor="middle" x="560.77" y="-1094.3" font-family="Times,serif" font-size="14.00">recipe L4_nfov_a 1..1</text>
</g>
<!-- recipe&#45;&gt;l4_nfov_a_rec -->
<g id="edge28" class="edge">
<title>recipe&#45;&gt;l4_nfov_a_rec</title>
<path fill="none" stroke="black" d="M278.36,-1165.78C278.36,-1135.08 278.36,-1098 278.36,-1098 278.36,-1098 467.19,-1098 467.19,-1098"/>
<polygon fill="black" stroke="black" points="467.19,-1101.5 477.19,-1098 467.19,-1094.5 467.19,-1101.5"/>
</g>
</g>
</svg>
