<?xml version="1.0" encoding="UTF-8" standalone="no"?>
<!DOCTYPE svg PUBLIC "-//W3C//DTD SVG 1.1//EN"
 "http://www.w3.org/Graphics/SVG/1.1/DTD/svg11.dtd">
<!-- Generated by graphviz version 2.43.0 (0)
 -->
<!-- Title: NFOVPCClerks Pages: 1 -->
<svg width="901pt" height="1202pt"
 viewBox="0.00 0.00 900.57 1202.00" xmlns="http://www.w3.org/2000/svg" xmlns:xlink="http://www.w3.org/1999/xlink">
<g id="graph0" class="graph" transform="scale(1 1) rotate(0) translate(4 1198)">
<title>NFOVPCClerks</title>
<polygon fill="white" stroke="transparent" points="-4,4 -4,-1198 896.57,-1198 896.57,4 -4,4"/>
<!-- alarm_cal -->
<g id="node1" class="node">
<title>alarm_cal</title>
<text text-anchor="middle" x="91" y="-392.3" font-family="Times,serif" font-size="14.00">User requested update</text>
</g>
<!-- calib -->
<g id="node4" class="node">
<title>calib</title>
<ellipse fill="none" stroke="black" cx="381.79" cy="-369" rx="62.29" ry="62.29"/>
<text text-anchor="middle" x="381.79" y="-365.3" font-family="Times,serif" font-size="14.00">Calibration</text>
</g>
<!-- alarm_cal&#45;&gt;calib -->
<g id="edge1" class="edge">
<title>alarm_cal&#45;&gt;calib</title>
<path fill="none" stroke="black" stroke-dasharray="5,2" d="M182.21,-396C182.21,-396 315.15,-396 315.15,-396"/>
<polygon fill="black" stroke="black" points="315.15,-399.5 325.15,-396 315.15,-392.5 315.15,-399.5"/>
</g>
<!-- alarm_cnf -->
<g id="node2" class="node">
<title>alarm_cnf</title>
<text text-anchor="middle" x="91" y="-338.3" font-family="Times,serif" font-size="14.00">User requested update</text>
</g>
<!-- alarm_cnf&#45;&gt;calib -->
<g id="edge2" class="edge">
<title>alarm_cnf&#45;&gt;calib</title>
<path fill="none" stroke="black" stroke-dasharray="5,2" d="M182.21,-342C182.21,-342 315.15,-342 315.15,-342"/>
<polygon fill="black" stroke="black" points="315.15,-345.5 325.15,-342 315.15,-338.5 315.15,-345.5"/>
</g>
<!-- alarm_rec -->
<g id="node3" class="node">
<title>alarm_rec</title>
<text text-anchor="middle" x="91" y="-878.3" font-family="Times,serif" font-size="14.00">User requested update</text>
</g>
<!-- recipe -->
<g id="node6" class="node">
<title>recipe</title>
<ellipse fill="none" stroke="black" cx="381.79" cy="-882" rx="42.49" ry="42.49"/>
<text text-anchor="middle" x="381.79" y="-878.3" font-family="Times,serif" font-size="14.00">Recipe</text>
</g>
<!-- alarm_rec&#45;&gt;recipe -->
<g id="edge3" class="edge">
<title>alarm_rec&#45;&gt;recipe</title>
<path fill="none" stroke="black" stroke-dasharray="5,2" d="M182.21,-882C182.21,-882 329.19,-882 329.19,-882"/>
<polygon fill="black" stroke="black" points="329.19,-885.5 339.19,-882 329.19,-878.5 329.19,-885.5"/>
</g>
<!-- l1_nfov_pc_nllut -->
<g id="node9" class="node">
<title>l1_nfov_pc_nllut</title>
<polygon fill="none" stroke="black" points="825.57,-732 636.57,-732 636.57,-708 825.57,-708 837.57,-720 825.57,-732"/>
<text text-anchor="middle" x="737.07" y="-716.3" font-family="Times,serif" font-size="14.00">non linear calibration 1..1</text>
</g>
<!-- calib&#45;&gt;l1_nfov_pc_nllut -->
<g id="edge4" class="edge">
<title>calib&#45;&gt;l1_nfov_pc_nllut</title>
<path fill="none" stroke="black" d="M429.57,-409.26C429.57,-501.46 429.57,-720 429.57,-720 429.57,-720 626.38,-720 626.38,-720"/>
<polygon fill="black" stroke="black" points="626.38,-723.5 636.38,-720 626.38,-716.5 626.38,-723.5"/>
</g>
<!-- l2a_nfov_pc_mbpm -->
<g id="node12" class="node">
<title>l2a_nfov_pc_mbpm</title>
<polygon fill="none" stroke="black" points="828.57,-678 633.57,-678 633.57,-654 828.57,-654 840.57,-666 828.57,-678"/>
<text text-anchor="middle" x="737.07" y="-662.3" font-family="Times,serif" font-size="14.00">nfov_pc bad pixel map 1..1</text>
</g>
<!-- calib&#45;&gt;l2a_nfov_pc_mbpm -->
<g id="edge5" class="edge">
<title>calib&#45;&gt;l2a_nfov_pc_mbpm</title>
<path fill="none" stroke="black" d="M434.57,-402.49C434.57,-480.17 434.57,-666 434.57,-666 434.57,-666 623.39,-666 623.39,-666"/>
<polygon fill="black" stroke="black" points="623.39,-669.5 633.39,-666 623.39,-662.5 623.39,-669.5"/>
</g>
<!-- l2a_nfov_pc_dnb -->
<g id="node13" class="node">
<title>l2a_nfov_pc_dnb</title>
<polygon fill="none" stroke="black" points="880.57,-624 581.57,-624 581.57,-600 880.57,-600 892.57,-612 880.57,-624"/>
<text text-anchor="middle" x="737.07" y="-608.3" font-family="Times,serif" font-size="14.00">nfov_pc dark (CIC/FPN/dark current) 1..1</text>
</g>
<!-- calib&#45;&gt;l2a_nfov_pc_dnb -->
<g id="edge6" class="edge">
<title>calib&#45;&gt;l2a_nfov_pc_dnb</title>
<path fill="none" stroke="black" d="M404.99,-427.05C458.81,-427.05 587.57,-427.05 587.57,-427.05 587.57,-427.05 587.57,-583.93 587.57,-583.93"/>
<polygon fill="black" stroke="black" points="584.07,-583.93 587.57,-593.93 591.07,-583.93 584.07,-583.93"/>
</g>
<!-- l2a_nfov_pc_cti -->
<g id="node14" class="node">
<title>l2a_nfov_pc_cti</title>
<polygon fill="none" stroke="black" points="870.07,-570 592.07,-570 592.07,-546 870.07,-546 882.07,-558 870.07,-570"/>
<text text-anchor="middle" x="737.07" y="-554.3" font-family="Times,serif" font-size="14.00">nfov_pc charge transfer efficiency 1..1</text>
</g>
<!-- calib&#45;&gt;l2a_nfov_pc_cti -->
<g id="edge7" class="edge">
<title>calib&#45;&gt;l2a_nfov_pc_cti</title>
<path fill="none" stroke="black" d="M413.77,-422.7C474.08,-422.7 598.57,-422.7 598.57,-422.7 598.57,-422.7 598.57,-529.75 598.57,-529.75"/>
<polygon fill="black" stroke="black" points="595.07,-529.75 598.57,-539.75 602.07,-529.75 595.07,-529.75"/>
</g>
<!-- l2a_nfov_pc_ff -->
<g id="node15" class="node">
<title>l2a_nfov_pc_ff</title>
<polygon fill="none" stroke="black" points="807.57,-516 654.57,-516 654.57,-492 807.57,-492 819.57,-504 807.57,-516"/>
<text text-anchor="middle" x="737.07" y="-500.3" font-family="Times,serif" font-size="14.00">nfov_pc flat field 1..1</text>
</g>
<!-- calib&#45;&gt;l2a_nfov_pc_ff -->
<g id="edge8" class="edge">
<title>calib&#45;&gt;l2a_nfov_pc_ff</title>
<path fill="none" stroke="black" d="M419.98,-418.35C495.91,-418.35 658.57,-418.35 658.57,-418.35 658.57,-418.35 658.57,-475.84 658.57,-475.84"/>
<polygon fill="black" stroke="black" points="655.07,-475.84 658.57,-485.84 662.07,-475.84 655.07,-475.84"/>
</g>
<!-- l2a_nfov_pc_kgain -->
<g id="node16" class="node">
<title>l2a_nfov_pc_kgain</title>
<polygon fill="none" stroke="black" points="800.07,-462 662.07,-462 662.07,-438 800.07,-438 812.07,-450 800.07,-462"/>
<text text-anchor="middle" x="737.07" y="-446.3" font-family="Times,serif" font-size="14.00">nfov_pc k&#45;gain 1..1</text>
</g>
<!-- calib&#45;&gt;l2a_nfov_pc_kgain -->
<g id="edge9" class="edge">
<title>calib&#45;&gt;l2a_nfov_pc_kgain</title>
<path fill="none" stroke="black" d="M439.57,-392.86C439.57,-416.76 439.57,-450 439.57,-450 439.57,-450 652,-450 652,-450"/>
<polygon fill="black" stroke="black" points="652,-453.5 662,-450 652,-446.5 652,-453.5"/>
</g>
<!-- l2a_nfov_pc_emg -->
<g id="node17" class="node">
<title>l2a_nfov_pc_emg</title>
<polygon fill="none" stroke="black" points="808.57,-408 653.57,-408 653.57,-384 808.57,-384 820.57,-396 808.57,-408"/>
<text text-anchor="middle" x="737.07" y="-392.3" font-family="Times,serif" font-size="14.00">nfov_pc EM gain 1..1</text>
</g>
<!-- calib&#45;&gt;l2a_nfov_pc_emg -->
<g id="edge10" class="edge">
<title>calib&#45;&gt;l2a_nfov_pc_emg</title>
<path fill="none" stroke="black" d="M438.08,-396C438.08,-396 643.25,-396 643.25,-396"/>
<polygon fill="black" stroke="black" points="643.25,-399.5 653.25,-396 643.25,-392.5 643.25,-399.5"/>
</g>
<!-- l2b_nfov_pc_distm -->
<g id="node20" class="node">
<title>l2b_nfov_pc_distm</title>
<polygon fill="none" stroke="black" points="831.07,-354 631.07,-354 631.07,-330 831.07,-330 843.07,-342 831.07,-354"/>
<text text-anchor="middle" x="737.07" y="-338.3" font-family="Times,serif" font-size="14.00">nfov_pc distortion map 1..1</text>
</g>
<!-- calib&#45;&gt;l2b_nfov_pc_distm -->
<g id="edge11" class="edge">
<title>calib&#45;&gt;l2b_nfov_pc_distm</title>
<path fill="none" stroke="black" d="M438.08,-342C438.08,-342 620.94,-342 620.94,-342"/>
<polygon fill="black" stroke="black" points="620.94,-345.5 630.94,-342 620.94,-338.5 620.94,-345.5"/>
</g>
<!-- l2b_nfov_pc_excicrf -->
<g id="node21" class="node">
<title>l2b_nfov_pc_excicrf</title>
<polygon fill="none" stroke="black" points="856.57,-300 605.57,-300 605.57,-276 856.57,-276 868.57,-288 856.57,-300"/>
<text text-anchor="middle" x="737.07" y="-284.3" font-family="Times,serif" font-size="14.00">nfov_pc EXCAM ICRF location 1..1</text>
</g>
<!-- calib&#45;&gt;l2b_nfov_pc_excicrf -->
<g id="edge12" class="edge">
<title>calib&#45;&gt;l2b_nfov_pc_excicrf</title>
<path fill="none" stroke="black" d="M413.72,-315.3C478.35,-315.3 618.57,-315.3 618.57,-315.3 618.57,-315.3 618.57,-314.38 618.57,-314.38"/>
<polygon fill="black" stroke="black" points="622.07,-316.06 618.57,-306.06 615.07,-316.06 622.07,-316.06"/>
</g>
<!-- l2b_nfov_pc_excfovps -->
<g id="node22" class="node">
<title>l2b_nfov_pc_excfovps</title>
<polygon fill="none" stroke="black" points="858.07,-246 604.07,-246 604.07,-222 858.07,-222 870.07,-234 858.07,-246"/>
<text text-anchor="middle" x="737.07" y="-230.3" font-family="Times,serif" font-size="14.00">nfov_pc ECAM FOV pixel scale 1..1</text>
</g>
<!-- calib&#45;&gt;l2b_nfov_pc_excfovps -->
<g id="edge13" class="edge">
<title>calib&#45;&gt;l2b_nfov_pc_excfovps</title>
<path fill="none" stroke="black" d="M423.57,-322.54C423.57,-283.49 423.57,-234 423.57,-234 423.57,-234 593.66,-234 593.66,-234"/>
<polygon fill="black" stroke="black" points="593.66,-237.5 603.66,-234 593.66,-230.5 593.66,-237.5"/>
</g>
<!-- l3_nfov_pc_cal -->
<g id="node25" class="node">
<title>l3_nfov_pc_cal</title>
<polygon fill="none" stroke="black" points="816.57,-192 645.57,-192 645.57,-168 816.57,-168 828.57,-180 816.57,-192"/>
<text text-anchor="middle" x="737.07" y="-176.3" font-family="Times,serif" font-size="14.00">nfov_pc calibration 1..1</text>
</g>
<!-- calib&#45;&gt;l3_nfov_pc_cal -->
<g id="edge14" class="edge">
<title>calib&#45;&gt;l3_nfov_pc_cal</title>
<path fill="none" stroke="black" d="M403.57,-310.49C403.57,-254.99 403.57,-180 403.57,-180 403.57,-180 635.5,-180 635.5,-180"/>
<polygon fill="black" stroke="black" points="635.5,-183.5 645.5,-180 635.5,-176.5 635.5,-183.5"/>
</g>
<!-- l4_nfov_pc_afcal -->
<g id="node28" class="node">
<title>l4_nfov_pc_afcal</title>
<polygon fill="none" stroke="black" points="824.07,-138 638.07,-138 638.07,-114 824.07,-114 836.07,-126 824.07,-138"/>
<text text-anchor="middle" x="737.07" y="-122.3" font-family="Times,serif" font-size="14.00">nfov_pc absolute flux 1..1</text>
</g>
<!-- calib&#45;&gt;l4_nfov_pc_afcal -->
<g id="edge15" class="edge">
<title>calib&#45;&gt;l4_nfov_pc_afcal</title>
<path fill="none" stroke="black" d="M382.57,-306.42C382.57,-234.42 382.57,-126 382.57,-126 382.57,-126 627.85,-126 627.85,-126"/>
<polygon fill="black" stroke="black" points="627.85,-129.5 637.85,-126 627.85,-122.5 627.85,-129.5"/>
</g>
<!-- l4_nfov_pc_ctcal -->
<g id="node29" class="node">
<title>l4_nfov_pc_ctcal</title>
<polygon fill="none" stroke="black" points="836.57,-84 625.57,-84 625.57,-60 836.57,-60 848.57,-72 836.57,-84"/>
<text text-anchor="middle" x="737.07" y="-68.3" font-family="Times,serif" font-size="14.00">nfov_pc core throughput 1..1</text>
</g>
<!-- calib&#45;&gt;l4_nfov_pc_ctcal -->
<g id="edge16" class="edge">
<title>calib&#45;&gt;l4_nfov_pc_ctcal</title>
<path fill="none" stroke="black" d="M361.57,-309.97C361.57,-223.35 361.57,-72 361.57,-72 361.57,-72 615.43,-72 615.43,-72"/>
<polygon fill="black" stroke="black" points="615.43,-75.5 625.43,-72 615.43,-68.5 615.43,-75.5"/>
</g>
<!-- l4_nfov_pc_ndfilt -->
<g id="node30" class="node">
<title>l4_nfov_pc_ndfilt</title>
<polygon fill="none" stroke="black" points="809.57,-30 652.57,-30 652.57,-6 809.57,-6 821.57,-18 809.57,-30"/>
<text text-anchor="middle" x="737.07" y="-14.3" font-family="Times,serif" font-size="14.00">nfov_pc ND filter 1..1</text>
</g>
<!-- calib&#45;&gt;l4_nfov_pc_ndfilt -->
<g id="edge17" class="edge">
<title>calib&#45;&gt;l4_nfov_pc_ndfilt</title>
<path fill="none" stroke="black" d="M340.57,-322.03C340.57,-226.38 340.57,-18 340.57,-18 340.57,-18 642.5,-18 642.5,-18"/>
<polygon fill="black" stroke="black" points="642.5,-21.5 652.5,-18 642.5,-14.5 642.5,-21.5"/>
</g>
<!-- config -->
<g id="node5" class="node">
<title>config</title>
<ellipse fill="none" stroke="black" cx="91" cy="-1068" rx="74.19" ry="74.19"/>
<text text-anchor="middle" x="91" y="-1064.3" font-family="Times,serif" font-size="14.00">Configuration</text>
</g>
<!-- l1_nfov_pc_odir -->
<g id="node7" class="node">
<title>l1_nfov_pc_odir</title>
<ellipse fill="none" stroke="black" cx="381.79" cy="-1176" rx="157.87" ry="18"/>
<text text-anchor="middle" x="381.79" y="-1172.3" font-family="Times,serif" font-size="14.00">Output path for L1_nfov_pc 1..1</text>
</g>
<!-- config&#45;&gt;l1_nfov_pc_odir -->
<g id="edge18" class="edge">
<title>config&#45;&gt;l1_nfov_pc_odir</title>
<path fill="none" stroke="black" d="M91.57,-1142.12C91.57,-1160.97 91.57,-1176 91.57,-1176 91.57,-1176 213.52,-1176 213.52,-1176"/>
<polygon fill="black" stroke="black" points="213.52,-1179.5 223.52,-1176 213.52,-1172.5 213.52,-1179.5"/>
</g>
<!-- l2a_nfov_pc_odir -->
<g id="node10" class="node">
<title>l2a_nfov_pc_odir</title>
<ellipse fill="none" stroke="black" cx="381.79" cy="-1122" rx="163.27" ry="18"/>
<text text-anchor="middle" x="381.79" y="-1118.3" font-family="Times,serif" font-size="14.00">Output path for L2a_nfov_pc 1..1</text>
</g>
<!-- config&#45;&gt;l2a_nfov_pc_odir -->
<g id="edge19" class="edge">
<title>config&#45;&gt;l2a_nfov_pc_odir</title>
<path fill="none" stroke="black" d="M141.98,-1122C141.98,-1122 208.35,-1122 208.35,-1122"/>
<polygon fill="black" stroke="black" points="208.35,-1125.5 218.35,-1122 208.35,-1118.5 208.35,-1125.5"/>
</g>
<!-- l2b_nfov_pc_odir -->
<g id="node18" class="node">
<title>l2b_nfov_pc_odir</title>
<ellipse fill="none" stroke="black" cx="381.79" cy="-1068" rx="163.57" ry="18"/>
<text text-anchor="middle" x="381.79" y="-1064.3" font-family="Times,serif" font-size="14.00">Output path for L2b_nfov_pc 1..1</text>
</g>
<!-- config&#45;&gt;l2b_nfov_pc_odir -->
<g id="edge20" class="edge">
<title>config&#45;&gt;l2b_nfov_pc_odir</title>
<path fill="none" stroke="black" d="M165.13,-1068C165.13,-1068 207.97,-1068 207.97,-1068"/>
<polygon fill="black" stroke="black" points="207.97,-1071.5 217.97,-1068 207.97,-1064.5 207.97,-1071.5"/>
</g>
<!-- l3_nfov_pc_odir -->
<g id="node23" class="node">
<title>l3_nfov_pc_odir</title>
<ellipse fill="none" stroke="black" cx="381.79" cy="-1014" rx="157.87" ry="18"/>
<text text-anchor="middle" x="381.79" y="-1010.3" font-family="Times,serif" font-size="14.00">Output path for L3_nfov_pc 1..1</text>
</g>
<!-- config&#45;&gt;l3_nfov_pc_odir -->
<g id="edge21" class="edge">
<title>config&#45;&gt;l3_nfov_pc_odir</title>
<path fill="none" stroke="black" d="M141.98,-1014C141.98,-1014 213.64,-1014 213.64,-1014"/>
<polygon fill="black" stroke="black" points="213.64,-1017.5 223.64,-1014 213.64,-1010.5 213.64,-1017.5"/>
</g>
<!-- l4_nfov_pc_odir -->
<g id="node26" class="node">
<title>l4_nfov_pc_odir</title>
<ellipse fill="none" stroke="black" cx="381.79" cy="-960" rx="157.87" ry="18"/>
<text text-anchor="middle" x="381.79" y="-956.3" font-family="Times,serif" font-size="14.00">Output path for L4_nfov_pc 1..1</text>
</g>
<!-- config&#45;&gt;l4_nfov_pc_odir -->
<g id="edge22" class="edge">
<title>config&#45;&gt;l4_nfov_pc_odir</title>
<path fill="none" stroke="black" d="M91.57,-993.88C91.57,-975.03 91.57,-960 91.57,-960 91.57,-960 213.52,-960 213.52,-960"/>
<polygon fill="black" stroke="black" points="213.52,-963.5 223.52,-960 213.52,-956.5 213.52,-963.5"/>
</g>
<!-- l1_nfov_pc_rec -->
<g id="node8" class="node">
<title>l1_nfov_pc_rec</title>
<polygon fill="none" stroke="black" points="813.07,-1002 649.07,-1002 649.07,-978 813.07,-978 825.07,-990 813.07,-1002"/>
<text text-anchor="middle" x="737.07" y="-986.3" font-family="Times,serif" font-size="14.00">recipe L1_nfov_pc 1..1</text>
</g>
<!-- recipe&#45;&gt;l1_nfov_pc_rec -->
<g id="edge23" class="edge">
<title>recipe&#45;&gt;l1_nfov_pc_rec</title>
<path fill="none" stroke="black" d="M414.29,-909C466.57,-909 563.57,-909 563.57,-909 563.57,-909 563.57,-985.95 563.57,-985.95 563.57,-985.95 639.05,-985.95 639.05,-985.95"/>
<polygon fill="black" stroke="black" points="639.05,-989.45 649.05,-985.95 639.05,-982.45 639.05,-989.45"/>
</g>
<!-- l2a_nfov_pc_rec -->
<g id="node11" class="node">
<title>l2a_nfov_pc_rec</title>
<polygon fill="none" stroke="black" points="817.07,-948 645.07,-948 645.07,-924 817.07,-924 829.07,-936 817.07,-948"/>
<text text-anchor="middle" x="737.07" y="-932.3" font-family="Times,serif" font-size="14.00">recipe L2a_nfov_pc 1..1</text>
</g>
<!-- recipe&#45;&gt;l2a_nfov_pc_rec -->
<g id="edge24" class="edge">
<title>recipe&#45;&gt;l2a_nfov_pc_rec</title>
<path fill="none" stroke="black" d="M382.57,-924.68C382.57,-929.73 382.57,-933.12 382.57,-933.12 382.57,-933.12 634.86,-933.12 634.86,-933.12"/>
<polygon fill="black" stroke="black" points="634.86,-936.62 644.86,-933.12 634.86,-929.62 634.86,-936.62"/>
</g>
<!-- l2b_nfov_pc_rec -->
<g id="node19" class="node">
<title>l2b_nfov_pc_rec</title>
<polygon fill="none" stroke="black" points="817.57,-894 644.57,-894 644.57,-870 817.57,-870 829.57,-882 817.57,-894"/>
<text text-anchor="middle" x="737.07" y="-878.3" font-family="Times,serif" font-size="14.00">recipe L2b_nfov_pc 1..1</text>
</g>
<!-- recipe&#45;&gt;l2b_nfov_pc_rec -->
<g id="edge25" class="edge">
<title>recipe&#45;&gt;l2b_nfov_pc_rec</title>
<path fill="none" stroke="black" d="M424.29,-882C424.29,-882 634.33,-882 634.33,-882"/>
<polygon fill="black" stroke="black" points="634.33,-885.5 644.33,-882 634.33,-878.5 634.33,-885.5"/>
</g>
<!-- l3_nfov_pc_rec -->
<g id="node24" class="node">
<title>l3_nfov_pc_rec</title>
<polygon fill="none" stroke="black" points="813.07,-840 649.07,-840 649.07,-816 813.07,-816 825.07,-828 813.07,-840"/>
<text text-anchor="middle" x="737.07" y="-824.3" font-family="Times,serif" font-size="14.00">recipe L3_nfov_pc 1..1</text>
</g>
<!-- recipe&#45;&gt;l3_nfov_pc_rec -->
<g id="edge26" class="edge">
<title>recipe&#45;&gt;l3_nfov_pc_rec</title>
<path fill="none" stroke="black" d="M396.57,-842.33C396.57,-832.58 396.57,-824.88 396.57,-824.88 396.57,-824.88 638.94,-824.88 638.94,-824.88"/>
<polygon fill="black" stroke="black" points="638.94,-828.38 648.94,-824.88 638.94,-821.38 638.94,-828.38"/>
</g>
<!-- l4_nfov_pc_rec -->
<g id="node27" class="node">
<title>l4_nfov_pc_rec</title>
<polygon fill="none" stroke="black" points="813.07,-786 649.07,-786 649.07,-762 813.07,-762 825.07,-774 813.07,-786"/>
<text text-anchor="middle" x="737.07" y="-770.3" font-family="Times,serif" font-size="14.00">recipe L4_nfov_pc 1..1</text>
</g>
<!-- recipe&#45;&gt;l4_nfov_pc_rec -->
<g id="edge27" class="edge">
<title>recipe&#45;&gt;l4_nfov_pc_rec</title>
<path fill="none" stroke="black" d="M368.57,-841.78C368.57,-811.08 368.57,-774 368.57,-774 368.57,-774 638.81,-774 638.81,-774"/>
<polygon fill="black" stroke="black" points="638.81,-777.5 648.81,-774 638.81,-770.5 638.81,-777.5"/>
</g>
</g>
</svg>
