<?xml version="1.0" encoding="UTF-8" standalone="no"?>
<!DOCTYPE svg PUBLIC "-//W3C//DTD SVG 1.1//EN"
 "http://www.w3.org/Graphics/SVG/1.1/DTD/svg11.dtd">
<!-- Generated by graphviz version 2.43.0 (0)
 -->
<!-- Title: NFOVNCClerks Pages: 1 -->
<svg width="738pt" height="1286pt"
 viewBox="0.00 0.00 737.76 1286.00" xmlns="http://www.w3.org/2000/svg" xmlns:xlink="http://www.w3.org/1999/xlink">
<g id="graph0" class="graph" transform="scale(1 1) rotate(0) translate(4 1282)">
<title>NFOVNCClerks</title>
<polygon fill="white" stroke="transparent" points="-4,4 -4,-1282 733.76,-1282 733.76,4 -4,4"/>
<!-- alarm_cal -->
<g id="node1" class="node">
<title>alarm_cal</title>
<text text-anchor="middle" x="91" y="-365.3" font-family="Times,serif" font-size="14.00">User requested update</text>
</g>
<!-- calib -->
<g id="node4" class="node">
<title>calib</title>
<ellipse fill="none" stroke="black" cx="292.09" cy="-369" rx="62.29" ry="62.29"/>
<text text-anchor="middle" x="292.09" y="-365.3" font-family="Times,serif" font-size="14.00">Calibration</text>
</g>
<!-- alarm_cal&#45;&gt;calib -->
<g id="edge1" class="edge">
<title>alarm_cal&#45;&gt;calib</title>
<path fill="none" stroke="black" stroke-dasharray="5,2" d="M182.13,-369C182.13,-369 219.47,-369 219.47,-369"/>
<polygon fill="black" stroke="black" points="219.47,-372.5 229.47,-369 219.47,-365.5 219.47,-372.5"/>
</g>
<!-- alarm_cnf -->
<g id="node2" class="node">
<title>alarm_cnf</title>
<text text-anchor="middle" x="91" y="-878.3" font-family="Times,serif" font-size="14.00">User requested update</text>
</g>
<!-- config -->
<g id="node5" class="node">
<title>config</title>
<ellipse fill="none" stroke="black" cx="292.09" cy="-882" rx="74.19" ry="74.19"/>
<text text-anchor="middle" x="292.09" y="-878.3" font-family="Times,serif" font-size="14.00">Configuration</text>
</g>
<!-- alarm_cnf&#45;&gt;config -->
<g id="edge2" class="edge">
<title>alarm_cnf&#45;&gt;config</title>
<path fill="none" stroke="black" stroke-dasharray="5,2" d="M182.13,-882C182.13,-882 207.84,-882 207.84,-882"/>
<polygon fill="black" stroke="black" points="207.84,-885.5 217.84,-882 207.84,-878.5 207.84,-885.5"/>
</g>
<!-- alarm_rec -->
<g id="node3" class="node">
<title>alarm_rec</title>
<text text-anchor="middle" x="91" y="-1148.3" font-family="Times,serif" font-size="14.00">User requested update</text>
</g>
<!-- recipe -->
<g id="node6" class="node">
<title>recipe</title>
<ellipse fill="none" stroke="black" cx="292.09" cy="-1152" rx="42.49" ry="42.49"/>
<text text-anchor="middle" x="292.09" y="-1148.3" font-family="Times,serif" font-size="14.00">Recipe</text>
</g>
<!-- alarm_rec&#45;&gt;recipe -->
<g id="edge3" class="edge">
<title>alarm_rec&#45;&gt;recipe</title>
<path fill="none" stroke="black" stroke-dasharray="5,2" d="M182.13,-1152C182.13,-1152 239.74,-1152 239.74,-1152"/>
<polygon fill="black" stroke="black" points="239.74,-1155.5 249.74,-1152 239.74,-1148.5 239.74,-1155.5"/>
</g>
<!-- l1_nfov_nc_nllut -->
<g id="node9" class="node">
<title>l1_nfov_nc_nllut</title>
<polygon fill="none" stroke="black" points="654.47,-732 465.47,-732 465.47,-708 654.47,-708 666.47,-720 654.47,-732"/>
<text text-anchor="middle" x="565.97" y="-716.3" font-family="Times,serif" font-size="14.00">non linear calibration 1..1</text>
</g>
<!-- calib&#45;&gt;l1_nfov_nc_nllut -->
<g id="edge4" class="edge">
<title>calib&#45;&gt;l1_nfov_nc_nllut</title>
<path fill="none" stroke="black" d="M261.76,-423.84C261.76,-522.56 261.76,-720 261.76,-720 261.76,-720 455.1,-720 455.1,-720"/>
<polygon fill="black" stroke="black" points="455.1,-723.5 465.1,-720 455.1,-716.5 455.1,-723.5"/>
</g>
<!-- l2a_nfov_nc_mbpm -->
<g id="node12" class="node">
<title>l2a_nfov_nc_mbpm</title>
<polygon fill="none" stroke="black" points="657.47,-678 462.47,-678 462.47,-654 657.47,-654 669.47,-666 657.47,-678"/>
<text text-anchor="middle" x="565.97" y="-662.3" font-family="Times,serif" font-size="14.00">nfov_nc bad pixel map 1..1</text>
</g>
<!-- calib&#45;&gt;l2a_nfov_nc_mbpm -->
<g id="edge5" class="edge">
<title>calib&#45;&gt;l2a_nfov_nc_mbpm</title>
<path fill="none" stroke="black" d="M292.76,-431.62C292.76,-518.76 292.76,-666 292.76,-666 292.76,-666 452.29,-666 452.29,-666"/>
<polygon fill="black" stroke="black" points="452.29,-669.5 462.29,-666 452.29,-662.5 452.29,-669.5"/>
</g>
<!-- l2a_nfov_nc_dnb -->
<g id="node13" class="node">
<title>l2a_nfov_nc_dnb</title>
<polygon fill="none" stroke="black" points="709.47,-624 410.47,-624 410.47,-600 709.47,-600 721.47,-612 709.47,-624"/>
<text text-anchor="middle" x="565.97" y="-608.3" font-family="Times,serif" font-size="14.00">nfov_nc dark (CIC/FPN/dark current) 1..1</text>
</g>
<!-- calib&#45;&gt;l2a_nfov_nc_dnb -->
<g id="edge6" class="edge">
<title>calib&#45;&gt;l2a_nfov_nc_dnb</title>
<path fill="none" stroke="black" d="M315.06,-427.05C350.83,-427.05 415.76,-427.05 415.76,-427.05 415.76,-427.05 415.76,-583.93 415.76,-583.93"/>
<polygon fill="black" stroke="black" points="412.26,-583.93 415.76,-593.93 419.26,-583.93 412.26,-583.93"/>
</g>
<!-- l2a_nfov_nc_cti -->
<g id="node14" class="node">
<title>l2a_nfov_nc_cti</title>
<polygon fill="none" stroke="black" points="698.97,-570 420.97,-570 420.97,-546 698.97,-546 710.97,-558 698.97,-570"/>
<text text-anchor="middle" x="565.97" y="-554.3" font-family="Times,serif" font-size="14.00">nfov_nc charge transfer efficiency 1..1</text>
</g>
<!-- calib&#45;&gt;l2a_nfov_nc_cti -->
<g id="edge7" class="edge">
<title>calib&#45;&gt;l2a_nfov_nc_cti</title>
<path fill="none" stroke="black" d="M323.9,-422.7C364,-422.7 427.76,-422.7 427.76,-422.7 427.76,-422.7 427.76,-529.75 427.76,-529.75"/>
<polygon fill="black" stroke="black" points="424.26,-529.75 427.76,-539.75 431.26,-529.75 424.26,-529.75"/>
</g>
<!-- l2a_nfov_nc_ff -->
<g id="node15" class="node">
<title>l2a_nfov_nc_ff</title>
<polygon fill="none" stroke="black" points="636.47,-516 483.47,-516 483.47,-492 636.47,-492 648.47,-504 636.47,-516"/>
<text text-anchor="middle" x="565.97" y="-500.3" font-family="Times,serif" font-size="14.00">nfov_nc flat field 1..1</text>
</g>
<!-- calib&#45;&gt;l2a_nfov_nc_ff -->
<g id="edge8" class="edge">
<title>calib&#45;&gt;l2a_nfov_nc_ff</title>
<path fill="none" stroke="black" d="M330.28,-418.35C387.23,-418.35 487.76,-418.35 487.76,-418.35 487.76,-418.35 487.76,-475.84 487.76,-475.84"/>
<polygon fill="black" stroke="black" points="484.26,-475.84 487.76,-485.84 491.26,-475.84 484.26,-475.84"/>
</g>
<!-- l2a_nfov_nc_kgain -->
<g id="node16" class="node">
<title>l2a_nfov_nc_kgain</title>
<polygon fill="none" stroke="black" points="628.97,-462 490.97,-462 490.97,-438 628.97,-438 640.97,-450 628.97,-462"/>
<text text-anchor="middle" x="565.97" y="-446.3" font-family="Times,serif" font-size="14.00">nfov_nc k&#45;gain 1..1</text>
</g>
<!-- calib&#45;&gt;l2a_nfov_nc_kgain -->
<g id="edge9" class="edge">
<title>calib&#45;&gt;l2a_nfov_nc_kgain</title>
<path fill="none" stroke="black" d="M323.76,-423.03C323.76,-437.89 323.76,-450 323.76,-450 323.76,-450 480.66,-450 480.66,-450"/>
<polygon fill="black" stroke="black" points="480.66,-453.5 490.66,-450 480.66,-446.5 480.66,-453.5"/>
</g>
<!-- l2a_nfov_nc_emg -->
<g id="node17" class="node">
<title>l2a_nfov_nc_emg</title>
<polygon fill="none" stroke="black" points="637.47,-408 482.47,-408 482.47,-384 637.47,-384 649.47,-396 637.47,-408"/>
<text text-anchor="middle" x="565.97" y="-392.3" font-family="Times,serif" font-size="14.00">nfov_nc EM gain 1..1</text>
</g>
<!-- calib&#45;&gt;l2a_nfov_nc_emg -->
<g id="edge10" class="edge">
<title>calib&#45;&gt;l2a_nfov_nc_emg</title>
<path fill="none" stroke="black" d="M348.51,-396C348.51,-396 472.33,-396 472.33,-396"/>
<polygon fill="black" stroke="black" points="472.33,-399.5 482.33,-396 472.33,-392.5 472.33,-399.5"/>
</g>
<!-- l2b_nfov_nc_distm -->
<g id="node20" class="node">
<title>l2b_nfov_nc_distm</title>
<polygon fill="none" stroke="black" points="659.97,-354 459.97,-354 459.97,-330 659.97,-330 671.97,-342 659.97,-354"/>
<text text-anchor="middle" x="565.97" y="-338.3" font-family="Times,serif" font-size="14.00">nfov_nc distortion map 1..1</text>
</g>
<!-- calib&#45;&gt;l2b_nfov_nc_distm -->
<g id="edge11" class="edge">
<title>calib&#45;&gt;l2b_nfov_nc_distm</title>
<path fill="none" stroke="black" d="M348.51,-342C348.51,-342 449.8,-342 449.8,-342"/>
<polygon fill="black" stroke="black" points="449.8,-345.5 459.8,-342 449.8,-338.5 449.8,-345.5"/>
</g>
<!-- l2b_nfov_nc_excicrf -->
<g id="node21" class="node">
<title>l2b_nfov_nc_excicrf</title>
<polygon fill="none" stroke="black" points="685.47,-300 434.47,-300 434.47,-276 685.47,-276 697.47,-288 685.47,-300"/>
<text text-anchor="middle" x="565.97" y="-284.3" font-family="Times,serif" font-size="14.00">nfov_nc EXCAM ICRF location 1..1</text>
</g>
<!-- calib&#45;&gt;l2b_nfov_nc_excicrf -->
<g id="edge12" class="edge">
<title>calib&#45;&gt;l2b_nfov_nc_excicrf</title>
<path fill="none" stroke="black" d="M323.97,-315.3C369.51,-315.3 447.76,-315.3 447.76,-315.3 447.76,-315.3 447.76,-314.38 447.76,-314.38"/>
<polygon fill="black" stroke="black" points="451.26,-316.06 447.76,-306.06 444.26,-316.06 451.26,-316.06"/>
</g>
<!-- l2b_nfov_nc_excfovps -->
<g id="node22" class="node">
<title>l2b_nfov_nc_excfovps</title>
<polygon fill="none" stroke="black" points="686.97,-246 432.97,-246 432.97,-222 686.97,-222 698.97,-234 686.97,-246"/>
<text text-anchor="middle" x="565.97" y="-230.3" font-family="Times,serif" font-size="14.00">nfov_nc ECAM FOV pixel scale 1..1</text>
</g>
<!-- calib&#45;&gt;l2b_nfov_nc_excfovps -->
<g id="edge13" class="edge">
<title>calib&#45;&gt;l2b_nfov_nc_excfovps</title>
<path fill="none" stroke="black" d="M333.76,-322.54C333.76,-283.49 333.76,-234 333.76,-234 333.76,-234 422.91,-234 422.91,-234"/>
<polygon fill="black" stroke="black" points="422.91,-237.5 432.91,-234 422.91,-230.5 422.91,-237.5"/>
</g>
<!-- l3_nfov_nc_cal -->
<g id="node25" class="node">
<title>l3_nfov_nc_cal</title>
<polygon fill="none" stroke="black" points="645.47,-192 474.47,-192 474.47,-168 645.47,-168 657.47,-180 645.47,-192"/>
<text text-anchor="middle" x="565.97" y="-176.3" font-family="Times,serif" font-size="14.00">nfov_nc calibration 1..1</text>
</g>
<!-- calib&#45;&gt;l3_nfov_nc_cal -->
<g id="edge14" class="edge">
<title>calib&#45;&gt;l3_nfov_nc_cal</title>
<path fill="none" stroke="black" d="M313.76,-310.24C313.76,-254.75 313.76,-180 313.76,-180 313.76,-180 464.2,-180 464.2,-180"/>
<polygon fill="black" stroke="black" points="464.2,-183.5 474.2,-180 464.2,-176.5 464.2,-183.5"/>
</g>
<!-- l4_nfov_nc_afcal -->
<g id="node28" class="node">
<title>l4_nfov_nc_afcal</title>
<polygon fill="none" stroke="black" points="652.97,-138 466.97,-138 466.97,-114 652.97,-114 664.97,-126 652.97,-138"/>
<text text-anchor="middle" x="565.97" y="-122.3" font-family="Times,serif" font-size="14.00">nfov_nc absolute flux 1..1</text>
</g>
<!-- calib&#45;&gt;l4_nfov_nc_afcal -->
<g id="edge15" class="edge">
<title>calib&#45;&gt;l4_nfov_nc_afcal</title>
<path fill="none" stroke="black" d="M292.76,-306.42C292.76,-234.42 292.76,-126 292.76,-126 292.76,-126 456.95,-126 456.95,-126"/>
<polygon fill="black" stroke="black" points="456.95,-129.5 466.95,-126 456.95,-122.5 456.95,-129.5"/>
</g>
<!-- l4_nfov_nc_ctcal -->
<g id="node29" class="node">
<title>l4_nfov_nc_ctcal</title>
<polygon fill="none" stroke="black" points="665.47,-84 454.47,-84 454.47,-60 665.47,-60 677.47,-72 665.47,-84"/>
<text text-anchor="middle" x="565.97" y="-68.3" font-family="Times,serif" font-size="14.00">nfov_nc core throughput 1..1</text>
</g>
<!-- calib&#45;&gt;l4_nfov_nc_ctcal -->
<g id="edge16" class="edge">
<title>calib&#45;&gt;l4_nfov_nc_ctcal</title>
<path fill="none" stroke="black" d="M271.76,-309.97C271.76,-223.35 271.76,-72 271.76,-72 271.76,-72 444.32,-72 444.32,-72"/>
<polygon fill="black" stroke="black" points="444.32,-75.5 454.32,-72 444.32,-68.5 444.32,-75.5"/>
</g>
<!-- l4_nfov_nc_ndfilt -->
<g id="node30" class="node">
<title>l4_nfov_nc_ndfilt</title>
<polygon fill="none" stroke="black" points="638.47,-30 481.47,-30 481.47,-6 638.47,-6 650.47,-18 638.47,-30"/>
<text text-anchor="middle" x="565.97" y="-14.3" font-family="Times,serif" font-size="14.00">nfov_nc ND filter 1..1</text>
</g>
<!-- calib&#45;&gt;l4_nfov_nc_ndfilt -->
<g id="edge17" class="edge">
<title>calib&#45;&gt;l4_nfov_nc_ndfilt</title>
<path fill="none" stroke="black" d="M250.76,-322.03C250.76,-226.38 250.76,-18 250.76,-18 250.76,-18 471.09,-18 471.09,-18"/>
<polygon fill="black" stroke="black" points="471.09,-21.5 481.09,-18 471.09,-14.5 471.09,-21.5"/>
</g>
<!-- l1_nfov_nc_odir -->
<g id="node7" class="node">
<title>l1_nfov_nc_odir</title>
<ellipse fill="none" stroke="black" cx="565.97" cy="-990" rx="157.87" ry="18"/>
<text text-anchor="middle" x="565.97" y="-986.3" font-family="Times,serif" font-size="14.00">Output path for L1_nfov_nc 1..1</text>
</g>
<!-- config&#45;&gt;l1_nfov_nc_odir -->
<g id="edge18" class="edge">
<title>config&#45;&gt;l1_nfov_nc_odir</title>
<path fill="none" stroke="black" d="M350.76,-927.49C350.76,-957 350.76,-990 350.76,-990 350.76,-990 397.87,-990 397.87,-990"/>
<polygon fill="black" stroke="black" points="397.87,-993.5 407.87,-990 397.87,-986.5 397.87,-993.5"/>
</g>
<!-- l2a_nfov_nc_odir -->
<g id="node10" class="node">
<title>l2a_nfov_nc_odir</title>
<ellipse fill="none" stroke="black" cx="565.97" cy="-936" rx="163.27" ry="18"/>
<text text-anchor="middle" x="565.97" y="-932.3" font-family="Times,serif" font-size="14.00">Output path for L2a_nfov_nc 1..1</text>
</g>
<!-- config&#45;&gt;l2a_nfov_nc_odir -->
<g id="edge19" class="edge">
<title>config&#45;&gt;l2a_nfov_nc_odir</title>
<path fill="none" stroke="black" d="M342.97,-936C342.97,-936 392.61,-936 392.61,-936"/>
<polygon fill="black" stroke="black" points="392.61,-939.5 402.61,-936 392.61,-932.5 392.61,-939.5"/>
</g>
<!-- l2b_nfov_nc_odir -->
<g id="node18" class="node">
<title>l2b_nfov_nc_odir</title>
<ellipse fill="none" stroke="black" cx="565.97" cy="-882" rx="163.57" ry="18"/>
<text text-anchor="middle" x="565.97" y="-878.3" font-family="Times,serif" font-size="14.00">Output path for L2b_nfov_nc 1..1</text>
</g>
<!-- config&#45;&gt;l2b_nfov_nc_odir -->
<g id="edge20" class="edge">
<title>config&#45;&gt;l2b_nfov_nc_odir</title>
<path fill="none" stroke="black" d="M366.21,-882C366.21,-882 391.96,-882 391.96,-882"/>
<polygon fill="black" stroke="black" points="391.96,-885.5 401.96,-882 391.96,-878.5 391.96,-885.5"/>
</g>
<!-- l3_nfov_nc_odir -->
<g id="node23" class="node">
<title>l3_nfov_nc_odir</title>
<ellipse fill="none" stroke="black" cx="565.97" cy="-828" rx="157.87" ry="18"/>
<text text-anchor="middle" x="565.97" y="-824.3" font-family="Times,serif" font-size="14.00">Output path for L3_nfov_nc 1..1</text>
</g>
<!-- config&#45;&gt;l3_nfov_nc_odir -->
<g id="edge21" class="edge">
<title>config&#45;&gt;l3_nfov_nc_odir</title>
<path fill="none" stroke="black" d="M342.97,-828C342.97,-828 397.77,-828 397.77,-828"/>
<polygon fill="black" stroke="black" points="397.77,-831.5 407.77,-828 397.77,-824.5 397.77,-831.5"/>
</g>
<!-- l4_nfov_nc_odir -->
<g id="node26" class="node">
<title>l4_nfov_nc_odir</title>
<ellipse fill="none" stroke="black" cx="565.97" cy="-774" rx="157.87" ry="18"/>
<text text-anchor="middle" x="565.97" y="-770.3" font-family="Times,serif" font-size="14.00">Output path for L4_nfov_nc 1..1</text>
</g>
<!-- config&#45;&gt;l4_nfov_nc_odir -->
<g id="edge22" class="edge">
<title>config&#45;&gt;l4_nfov_nc_odir</title>
<path fill="none" stroke="black" d="M360.76,-853.91C360.76,-821.91 360.76,-774 360.76,-774 360.76,-774 397.84,-774 397.84,-774"/>
<polygon fill="black" stroke="black" points="397.84,-777.5 407.84,-774 397.84,-770.5 397.84,-777.5"/>
</g>
<!-- l1_nfov_nc_rec -->
<g id="node8" class="node">
<title>l1_nfov_nc_rec</title>
<polygon fill="none" stroke="black" points="641.97,-1272 477.97,-1272 477.97,-1248 641.97,-1248 653.97,-1260 641.97,-1272"/>
<text text-anchor="middle" x="565.97" y="-1256.3" font-family="Times,serif" font-size="14.00">recipe L1_nfov_nc 1..1</text>
</g>
<!-- recipe&#45;&gt;l1_nfov_nc_rec -->
<g id="edge23" class="edge">
<title>recipe&#45;&gt;l1_nfov_nc_rec</title>
<path fill="none" stroke="black" d="M278.76,-1192.22C278.76,-1222.92 278.76,-1260 278.76,-1260 278.76,-1260 467.85,-1260 467.85,-1260"/>
<polygon fill="black" stroke="black" points="467.85,-1263.5 477.85,-1260 467.85,-1256.5 467.85,-1263.5"/>
</g>
<!-- l2a_nfov_nc_rec -->
<g id="node11" class="node">
<title>l2a_nfov_nc_rec</title>
<polygon fill="none" stroke="black" points="645.97,-1218 473.97,-1218 473.97,-1194 645.97,-1194 657.97,-1206 645.97,-1218"/>
<text text-anchor="middle" x="565.97" y="-1202.3" font-family="Times,serif" font-size="14.00">recipe L2a_nfov_nc 1..1</text>
</g>
<!-- recipe&#45;&gt;l2a_nfov_nc_rec -->
<g id="edge24" class="edge">
<title>recipe&#45;&gt;l2a_nfov_nc_rec</title>
<path fill="none" stroke="black" d="M306.76,-1191.67C306.76,-1201.42 306.76,-1209.12 306.76,-1209.12 306.76,-1209.12 463.85,-1209.12 463.85,-1209.12"/>
<polygon fill="black" stroke="black" points="463.85,-1212.62 473.85,-1209.12 463.85,-1205.62 463.85,-1212.62"/>
</g>
<!-- l2b_nfov_nc_rec -->
<g id="node19" class="node">
<title>l2b_nfov_nc_rec</title>
<polygon fill="none" stroke="black" points="646.47,-1164 473.47,-1164 473.47,-1140 646.47,-1140 658.47,-1152 646.47,-1164"/>
<text text-anchor="middle" x="565.97" y="-1148.3" font-family="Times,serif" font-size="14.00">recipe L2b_nfov_nc 1..1</text>
</g>
<!-- recipe&#45;&gt;l2b_nfov_nc_rec -->
<g id="edge25" class="edge">
<title>recipe&#45;&gt;l2b_nfov_nc_rec</title>
<path fill="none" stroke="black" d="M334.59,-1152C334.59,-1152 463.43,-1152 463.43,-1152"/>
<polygon fill="black" stroke="black" points="463.43,-1155.5 473.43,-1152 463.43,-1148.5 463.43,-1155.5"/>
</g>
<!-- l3_nfov_nc_rec -->
<g id="node24" class="node">
<title>l3_nfov_nc_rec</title>
<polygon fill="none" stroke="black" points="641.97,-1110 477.97,-1110 477.97,-1086 641.97,-1086 653.97,-1098 641.97,-1110"/>
<text text-anchor="middle" x="565.97" y="-1094.3" font-family="Times,serif" font-size="14.00">recipe L3_nfov_nc 1..1</text>
</g>
<!-- recipe&#45;&gt;l3_nfov_nc_rec -->
<g id="edge26" class="edge">
<title>recipe&#45;&gt;l3_nfov_nc_rec</title>
<path fill="none" stroke="black" d="M306.76,-1112.33C306.76,-1102.58 306.76,-1094.88 306.76,-1094.88 306.76,-1094.88 467.85,-1094.88 467.85,-1094.88"/>
<polygon fill="black" stroke="black" points="467.85,-1098.38 477.85,-1094.88 467.85,-1091.38 467.85,-1098.38"/>
</g>
<!-- l4_nfov_nc_rec -->
<g id="node27" class="node">
<title>l4_nfov_nc_rec</title>
<polygon fill="none" stroke="black" points="641.97,-1056 477.97,-1056 477.97,-1032 641.97,-1032 653.97,-1044 641.97,-1056"/>
<text text-anchor="middle" x="565.97" y="-1040.3" font-family="Times,serif" font-size="14.00">recipe L4_nfov_nc 1..1</text>
</g>
<!-- recipe&#45;&gt;l4_nfov_nc_rec -->
<g id="edge27" class="edge">
<title>recipe&#45;&gt;l4_nfov_nc_rec</title>
<path fill="none" stroke="black" d="M278.76,-1111.78C278.76,-1081.08 278.76,-1044 278.76,-1044 278.76,-1044 467.85,-1044 467.85,-1044"/>
<polygon fill="black" stroke="black" points="467.85,-1047.5 477.85,-1044 467.85,-1040.5 467.85,-1047.5"/>
</g>
</g>
</svg>
