<?xml version="1.0" encoding="UTF-8" standalone="no"?>
<!DOCTYPE svg PUBLIC "-//W3C//DTD SVG 1.1//EN"
 "http://www.w3.org/Graphics/SVG/1.1/DTD/svg11.dtd">
<!-- Generated by graphviz version 2.43.0 (0)
 -->
<!-- Title: NDFiltImgClerks Pages: 1 -->
<svg width="909pt" height="588pt"
 viewBox="0.00 0.00 908.97 588.09" xmlns="http://www.w3.org/2000/svg" xmlns:xlink="http://www.w3.org/1999/xlink">
<g id="graph0" class="graph" transform="scale(1 1) rotate(0) translate(4 584.09)">
<title>NDFiltImgClerks</title>
<polygon fill="white" stroke="transparent" points="-4,4 -4,-584.09 904.97,-584.09 904.97,4 -4,4"/>
<!-- alarm_cal -->
<g id="node1" class="node">
<title>alarm_cal</title>
<text text-anchor="middle" x="91" y="-203.3" font-family="Times,serif" font-size="14.00">User requested update</text>
</g>
<!-- calib -->
<g id="node4" class="node">
<title>calib</title>
<ellipse fill="none" stroke="black" cx="367.49" cy="-180" rx="62.29" ry="62.29"/>
<text text-anchor="middle" x="367.49" y="-176.3" font-family="Times,serif" font-size="14.00">Calibration</text>
</g>
<!-- alarm_cal&#45;&gt;calib -->
<g id="edge1" class="edge">
<title>alarm_cal&#45;&gt;calib</title>
<path fill="none" stroke="black" stroke-dasharray="5,2" d="M182.3,-207C182.3,-207 300.94,-207 300.94,-207"/>
<polygon fill="black" stroke="black" points="300.94,-210.5 310.94,-207 300.94,-203.5 300.94,-210.5"/>
</g>
<!-- alarm_cnf -->
<g id="node2" class="node">
<title>alarm_cnf</title>
<text text-anchor="middle" x="91" y="-149.3" font-family="Times,serif" font-size="14.00">User requested update</text>
</g>
<!-- alarm_cnf&#45;&gt;calib -->
<g id="edge2" class="edge">
<title>alarm_cnf&#45;&gt;calib</title>
<path fill="none" stroke="black" stroke-dasharray="5,2" d="M182.3,-153C182.3,-153 300.94,-153 300.94,-153"/>
<polygon fill="black" stroke="black" points="300.94,-156.5 310.94,-153 300.94,-149.5 300.94,-156.5"/>
</g>
<!-- alarm_rec -->
<g id="node3" class="node">
<title>alarm_rec</title>
<text text-anchor="middle" x="91" y="-392.3" font-family="Times,serif" font-size="14.00">User requested update</text>
</g>
<!-- recipe -->
<g id="node6" class="node">
<title>recipe</title>
<ellipse fill="none" stroke="black" cx="367.49" cy="-396" rx="42.49" ry="42.49"/>
<text text-anchor="middle" x="367.49" y="-392.3" font-family="Times,serif" font-size="14.00">Recipe</text>
</g>
<!-- alarm_rec&#45;&gt;recipe -->
<g id="edge3" class="edge">
<title>alarm_rec&#45;&gt;recipe</title>
<path fill="none" stroke="black" stroke-dasharray="5,2" d="M182.3,-396C182.3,-396 315.05,-396 315.05,-396"/>
<polygon fill="black" stroke="black" points="315.05,-399.5 325.05,-396 315.05,-392.5 315.05,-399.5"/>
</g>
<!-- l1_cal_ndfiltimg_nllut -->
<g id="node9" class="node">
<title>l1_cal_ndfiltimg_nllut</title>
<polygon fill="none" stroke="black" points="815.47,-354 626.47,-354 626.47,-330 815.47,-330 827.47,-342 815.47,-354"/>
<text text-anchor="middle" x="726.97" y="-338.3" font-family="Times,serif" font-size="14.00">non linear calibration 1..1</text>
</g>
<!-- calib&#45;&gt;l1_cal_ndfiltimg_nllut -->
<g id="edge4" class="edge">
<title>calib&#45;&gt;l1_cal_ndfiltimg_nllut</title>
<path fill="none" stroke="black" d="M416.97,-218.05C416.97,-265.06 416.97,-338.88 416.97,-338.88 416.97,-338.88 616.33,-338.88 616.33,-338.88"/>
<polygon fill="black" stroke="black" points="616.33,-342.38 626.33,-338.88 616.33,-335.38 616.33,-342.38"/>
</g>
<!-- l2a_cal_ndfiltimg_mbpm -->
<g id="node10" class="node">
<title>l2a_cal_ndfiltimg_mbpm</title>
<polygon fill="none" stroke="black" points="837.47,-300 604.47,-300 604.47,-276 837.47,-276 849.47,-288 837.47,-300"/>
<text text-anchor="middle" x="726.97" y="-284.3" font-family="Times,serif" font-size="14.00">cal_ndfiltimg bad pixel map 1..1</text>
</g>
<!-- calib&#45;&gt;l2a_cal_ndfiltimg_mbpm -->
<g id="edge5" class="edge">
<title>calib&#45;&gt;l2a_cal_ndfiltimg_mbpm</title>
<path fill="none" stroke="black" d="M423.97,-206.7C423.97,-238.68 423.97,-288 423.97,-288 423.97,-288 594.17,-288 594.17,-288"/>
<polygon fill="black" stroke="black" points="594.17,-291.5 604.17,-288 594.17,-284.5 594.17,-291.5"/>
</g>
<!-- l2a_cal_ndfiltimg_dnb -->
<g id="node11" class="node">
<title>l2a_cal_ndfiltimg_dnb</title>
<polygon fill="none" stroke="black" points="888.97,-246 552.97,-246 552.97,-222 888.97,-222 900.97,-234 888.97,-246"/>
<text text-anchor="middle" x="726.97" y="-230.3" font-family="Times,serif" font-size="14.00">cal_ndfiltimg dark (CIC/FPN/dark current) 1..1</text>
</g>
<!-- calib&#45;&gt;l2a_cal_ndfiltimg_dnb -->
<g id="edge6" class="edge">
<title>calib&#45;&gt;l2a_cal_ndfiltimg_dnb</title>
<path fill="none" stroke="black" d="M405.96,-229.2C405.96,-229.2 542.9,-229.2 542.9,-229.2"/>
<polygon fill="black" stroke="black" points="542.9,-232.7 552.9,-229.2 542.9,-225.7 542.9,-232.7"/>
</g>
<!-- l2a_cal_ndfiltimg_cti -->
<g id="node12" class="node">
<title>l2a_cal_ndfiltimg_cti</title>
<polygon fill="none" stroke="black" points="878.47,-192 563.47,-192 563.47,-168 878.47,-168 890.47,-180 878.47,-192"/>
<text text-anchor="middle" x="726.97" y="-176.3" font-family="Times,serif" font-size="14.00">cal_ndfiltimg charge transfer efficiency 1..1</text>
</g>
<!-- calib&#45;&gt;l2a_cal_ndfiltimg_cti -->
<g id="edge7" class="edge">
<title>calib&#45;&gt;l2a_cal_ndfiltimg_cti</title>
<path fill="none" stroke="black" d="M430.1,-180C430.1,-180 553.14,-180 553.14,-180"/>
<polygon fill="black" stroke="black" points="553.14,-183.5 563.14,-180 553.14,-176.5 553.14,-183.5"/>
</g>
<!-- l2a_cal_ndfiltimg_ff -->
<g id="node13" class="node">
<title>l2a_cal_ndfiltimg_ff</title>
<polygon fill="none" stroke="black" points="816.47,-138 625.47,-138 625.47,-114 816.47,-114 828.47,-126 816.47,-138"/>
<text text-anchor="middle" x="726.97" y="-122.3" font-family="Times,serif" font-size="14.00">cal_ndfiltimg flat field 1..1</text>
</g>
<!-- calib&#45;&gt;l2a_cal_ndfiltimg_ff -->
<g id="edge8" class="edge">
<title>calib&#45;&gt;l2a_cal_ndfiltimg_ff</title>
<path fill="none" stroke="black" d="M405.96,-130.8C405.96,-130.8 615.21,-130.8 615.21,-130.8"/>
<polygon fill="black" stroke="black" points="615.21,-134.3 625.21,-130.8 615.21,-127.3 615.21,-134.3"/>
</g>
<!-- l2a_cal_ndfiltimg_kgain -->
<g id="node14" class="node">
<title>l2a_cal_ndfiltimg_kgain</title>
<polygon fill="none" stroke="black" points="808.97,-84 632.97,-84 632.97,-60 808.97,-60 820.97,-72 808.97,-84"/>
<text text-anchor="middle" x="726.97" y="-68.3" font-family="Times,serif" font-size="14.00">cal_ndfiltimg k&#45;gain 1..1</text>
</g>
<!-- calib&#45;&gt;l2a_cal_ndfiltimg_kgain -->
<g id="edge9" class="edge">
<title>calib&#45;&gt;l2a_cal_ndfiltimg_kgain</title>
<path fill="none" stroke="black" d="M388.97,-121.26C388.97,-95.93 388.97,-72 388.97,-72 388.97,-72 622.82,-72 622.82,-72"/>
<polygon fill="black" stroke="black" points="622.82,-75.5 632.82,-72 622.82,-68.5 622.82,-75.5"/>
</g>
<!-- l2a_cal_ndfiltimg_emg -->
<g id="node15" class="node">
<title>l2a_cal_ndfiltimg_emg</title>
<polygon fill="none" stroke="black" points="816.97,-30 624.97,-30 624.97,-6 816.97,-6 828.97,-18 816.97,-30"/>
<text text-anchor="middle" x="726.97" y="-14.3" font-family="Times,serif" font-size="14.00">cal_ndfiltimg EM gain 1..1</text>
</g>
<!-- calib&#45;&gt;l2a_cal_ndfiltimg_emg -->
<g id="edge10" class="edge">
<title>calib&#45;&gt;l2a_cal_ndfiltimg_emg</title>
<path fill="none" stroke="black" d="M346.97,-121.06C346.97,-74.74 346.97,-18 346.97,-18 346.97,-18 614.89,-18 614.89,-18"/>
<polygon fill="black" stroke="black" points="614.89,-21.5 624.89,-18 614.89,-14.5 614.89,-21.5"/>
</g>
<!-- config -->
<g id="node5" class="node">
<title>config</title>
<ellipse fill="none" stroke="black" cx="91" cy="-506" rx="74.19" ry="74.19"/>
<text text-anchor="middle" x="91" y="-502.3" font-family="Times,serif" font-size="14.00">Configuration</text>
</g>
<!-- l1_cal_ndfiltimg_odir -->
<g id="node7" class="node">
<title>l1_cal_ndfiltimg_odir</title>
<ellipse fill="none" stroke="black" cx="367.49" cy="-506" rx="149.47" ry="18"/>
<text text-anchor="middle" x="367.49" y="-502.3" font-family="Times,serif" font-size="14.00">Output path for L1_eng_a 1..1</text>
</g>
<!-- config&#45;&gt;l1_cal_ndfiltimg_odir -->
<g id="edge11" class="edge">
<title>config&#45;&gt;l1_cal_ndfiltimg_odir</title>
<path fill="none" stroke="black" d="M165.46,-506C165.46,-506 207.97,-506 207.97,-506"/>
<polygon fill="black" stroke="black" points="207.97,-509.5 217.97,-506 207.97,-502.5 207.97,-509.5"/>
</g>
<!-- l1_cal_ndfiltimg_rec -->
<g id="node8" class="node">
<title>l1_cal_ndfiltimg_rec</title>
<polygon fill="none" stroke="black" points="796.47,-408 645.47,-408 645.47,-384 796.47,-384 808.47,-396 796.47,-408"/>
<text text-anchor="middle" x="726.97" y="-392.3" font-family="Times,serif" font-size="14.00">recipe L1_eng_a 1..1</text>
</g>
<!-- recipe&#45;&gt;l1_cal_ndfiltimg_rec -->
<g id="edge12" class="edge">
<title>recipe&#45;&gt;l1_cal_ndfiltimg_rec</title>
<path fill="none" stroke="black" d="M409.78,-396C409.78,-396 635.39,-396 635.39,-396"/>
<polygon fill="black" stroke="black" points="635.39,-399.5 645.39,-396 635.39,-392.5 635.39,-399.5"/>
</g>
</g>
</svg>
