<?xml version="1.0" encoding="UTF-8" standalone="no"?>
<!DOCTYPE svg PUBLIC "-//W3C//DTD SVG 1.1//EN"
 "http://www.w3.org/Graphics/SVG/1.1/DTD/svg11.dtd">
<!-- Generated by graphviz version 2.43.0 (0)
 -->
<!-- Title: NDFiltImgClerks Pages: 1 -->
<svg width="758pt" height="580pt"
 viewBox="0.00 0.00 758.19 580.25" xmlns="http://www.w3.org/2000/svg" xmlns:xlink="http://www.w3.org/1999/xlink">
<g id="graph0" class="graph" transform="scale(1 1) rotate(0) translate(4 576.25)">
<title>NDFiltImgClerks</title>
<polygon fill="white" stroke="transparent" points="-4,4 -4,-576.25 754.19,-576.25 754.19,4 -4,4"/>
<!-- alarm_cal -->
<g id="node1" class="node">
<title>alarm_cal</title>
<text text-anchor="middle" x="91" y="-176.3" font-family="Times,serif" font-size="14.00">User requested update</text>
</g>
<!-- calib -->
<g id="node4" class="node">
<title>calib</title>
<ellipse fill="none" stroke="black" cx="292.09" cy="-180" rx="62.29" ry="62.29"/>
<text text-anchor="middle" x="292.09" y="-176.3" font-family="Times,serif" font-size="14.00">Calibration</text>
</g>
<!-- alarm_cal&#45;&gt;calib -->
<g id="edge1" class="edge">
<title>alarm_cal&#45;&gt;calib</title>
<path fill="none" stroke="black" stroke-dasharray="5,2" d="M182.13,-180C182.13,-180 219.47,-180 219.47,-180"/>
<polygon fill="black" stroke="black" points="219.47,-183.5 229.47,-180 219.47,-176.5 219.47,-183.5"/>
</g>
<!-- alarm_cnf -->
<g id="node2" class="node">
<title>alarm_cnf</title>
<text text-anchor="middle" x="91" y="-392.3" font-family="Times,serif" font-size="14.00">User requested update</text>
</g>
<!-- config -->
<g id="node5" class="node">
<title>config</title>
<ellipse fill="none" stroke="black" cx="292.09" cy="-396" rx="74.19" ry="74.19"/>
<text text-anchor="middle" x="292.09" y="-392.3" font-family="Times,serif" font-size="14.00">Configuration</text>
</g>
<!-- alarm_cnf&#45;&gt;config -->
<g id="edge2" class="edge">
<title>alarm_cnf&#45;&gt;config</title>
<path fill="none" stroke="black" stroke-dasharray="5,2" d="M182.13,-396C182.13,-396 207.84,-396 207.84,-396"/>
<polygon fill="black" stroke="black" points="207.84,-399.5 217.84,-396 207.84,-392.5 207.84,-399.5"/>
</g>
<!-- alarm_rec -->
<g id="node3" class="node">
<title>alarm_rec</title>
<text text-anchor="middle" x="91" y="-526.3" font-family="Times,serif" font-size="14.00">User requested update</text>
</g>
<!-- recipe -->
<g id="node6" class="node">
<title>recipe</title>
<ellipse fill="none" stroke="black" cx="292.09" cy="-530" rx="42.49" ry="42.49"/>
<text text-anchor="middle" x="292.09" y="-526.3" font-family="Times,serif" font-size="14.00">Recipe</text>
</g>
<!-- alarm_rec&#45;&gt;recipe -->
<g id="edge3" class="edge">
<title>alarm_rec&#45;&gt;recipe</title>
<path fill="none" stroke="black" stroke-dasharray="5,2" d="M182.13,-530C182.13,-530 239.74,-530 239.74,-530"/>
<polygon fill="black" stroke="black" points="239.74,-533.5 249.74,-530 239.74,-526.5 239.74,-533.5"/>
</g>
<!-- l1_cal_ndfiltimg_nllut -->
<g id="node9" class="node">
<title>l1_cal_ndfiltimg_nllut</title>
<polygon fill="none" stroke="black" points="664.69,-354 475.69,-354 475.69,-330 664.69,-330 676.69,-342 664.69,-354"/>
<text text-anchor="middle" x="576.19" y="-338.3" font-family="Times,serif" font-size="14.00">non linear calibration 1..1</text>
</g>
<!-- calib&#45;&gt;l1_cal_ndfiltimg_nllut -->
<g id="edge4" class="edge">
<title>calib&#45;&gt;l1_cal_ndfiltimg_nllut</title>
<path fill="none" stroke="black" d="M324.04,-233.6C350.64,-233.6 384.19,-233.6 384.19,-233.6 384.19,-233.6 384.19,-342 384.19,-342 384.19,-342 465.41,-342 465.41,-342"/>
<polygon fill="black" stroke="black" points="465.41,-345.5 475.41,-342 465.41,-338.5 465.41,-345.5"/>
</g>
<!-- l2a_cal_ndfiltimg_mbpm -->
<g id="node10" class="node">
<title>l2a_cal_ndfiltimg_mbpm</title>
<polygon fill="none" stroke="black" points="686.69,-300 453.69,-300 453.69,-276 686.69,-276 698.69,-288 686.69,-300"/>
<text text-anchor="middle" x="576.19" y="-284.3" font-family="Times,serif" font-size="14.00">cal_ndfiltimg bad pixel map 1..1</text>
</g>
<!-- calib&#45;&gt;l2a_cal_ndfiltimg_mbpm -->
<g id="edge5" class="edge">
<title>calib&#45;&gt;l2a_cal_ndfiltimg_mbpm</title>
<path fill="none" stroke="black" d="M292.19,-242.51C292.19,-266.39 292.19,-288 292.19,-288 292.19,-288 443.68,-288 443.68,-288"/>
<polygon fill="black" stroke="black" points="443.68,-291.5 453.68,-288 443.68,-284.5 443.68,-291.5"/>
</g>
<!-- l2a_cal_ndfiltimg_dnb -->
<g id="node11" class="node">
<title>l2a_cal_ndfiltimg_dnb</title>
<polygon fill="none" stroke="black" points="738.19,-246 402.19,-246 402.19,-222 738.19,-222 750.19,-234 738.19,-246"/>
<text text-anchor="middle" x="576.19" y="-230.3" font-family="Times,serif" font-size="14.00">cal_ndfiltimg dark (CIC/FPN/dark current) 1..1</text>
</g>
<!-- calib&#45;&gt;l2a_cal_ndfiltimg_dnb -->
<g id="edge6" class="edge">
<title>calib&#45;&gt;l2a_cal_ndfiltimg_dnb</title>
<path fill="none" stroke="black" d="M335.55,-224.8C335.55,-224.8 392.12,-224.8 392.12,-224.8"/>
<polygon fill="black" stroke="black" points="392.12,-228.3 402.12,-224.8 392.12,-221.3 392.12,-228.3"/>
</g>
<!-- l2a_cal_ndfiltimg_cti -->
<g id="node12" class="node">
<title>l2a_cal_ndfiltimg_cti</title>
<polygon fill="none" stroke="black" points="727.69,-192 412.69,-192 412.69,-168 727.69,-168 739.69,-180 727.69,-192"/>
<text text-anchor="middle" x="576.19" y="-176.3" font-family="Times,serif" font-size="14.00">cal_ndfiltimg charge transfer efficiency 1..1</text>
</g>
<!-- calib&#45;&gt;l2a_cal_ndfiltimg_cti -->
<g id="edge7" class="edge">
<title>calib&#45;&gt;l2a_cal_ndfiltimg_cti</title>
<path fill="none" stroke="black" d="M354.79,-180C354.79,-180 402.58,-180 402.58,-180"/>
<polygon fill="black" stroke="black" points="402.58,-183.5 412.58,-180 402.58,-176.5 402.58,-183.5"/>
</g>
<!-- l2a_cal_ndfiltimg_ff -->
<g id="node13" class="node">
<title>l2a_cal_ndfiltimg_ff</title>
<polygon fill="none" stroke="black" points="665.69,-138 474.69,-138 474.69,-114 665.69,-114 677.69,-126 665.69,-138"/>
<text text-anchor="middle" x="576.19" y="-122.3" font-family="Times,serif" font-size="14.00">cal_ndfiltimg flat field 1..1</text>
</g>
<!-- calib&#45;&gt;l2a_cal_ndfiltimg_ff -->
<g id="edge8" class="edge">
<title>calib&#45;&gt;l2a_cal_ndfiltimg_ff</title>
<path fill="none" stroke="black" d="M330.7,-130.8C330.7,-130.8 464.63,-130.8 464.63,-130.8"/>
<polygon fill="black" stroke="black" points="464.63,-134.3 474.63,-130.8 464.63,-127.3 464.63,-134.3"/>
</g>
<!-- l2a_cal_ndfiltimg_kgain -->
<g id="node14" class="node">
<title>l2a_cal_ndfiltimg_kgain</title>
<polygon fill="none" stroke="black" points="658.19,-84 482.19,-84 482.19,-60 658.19,-60 670.19,-72 658.19,-84"/>
<text text-anchor="middle" x="576.19" y="-68.3" font-family="Times,serif" font-size="14.00">cal_ndfiltimg k&#45;gain 1..1</text>
</g>
<!-- calib&#45;&gt;l2a_cal_ndfiltimg_kgain -->
<g id="edge9" class="edge">
<title>calib&#45;&gt;l2a_cal_ndfiltimg_kgain</title>
<path fill="none" stroke="black" d="M313.19,-121.26C313.19,-95.93 313.19,-72 313.19,-72 313.19,-72 471.98,-72 471.98,-72"/>
<polygon fill="black" stroke="black" points="471.98,-75.5 481.98,-72 471.98,-68.5 471.98,-75.5"/>
</g>
<!-- l2a_cal_ndfiltimg_emg -->
<g id="node15" class="node">
<title>l2a_cal_ndfiltimg_emg</title>
<polygon fill="none" stroke="black" points="666.19,-30 474.19,-30 474.19,-6 666.19,-6 678.19,-18 666.19,-30"/>
<text text-anchor="middle" x="576.19" y="-14.3" font-family="Times,serif" font-size="14.00">cal_ndfiltimg EM gain 1..1</text>
</g>
<!-- calib&#45;&gt;l2a_cal_ndfiltimg_emg -->
<g id="edge10" class="edge">
<title>calib&#45;&gt;l2a_cal_ndfiltimg_emg</title>
<path fill="none" stroke="black" d="M272.19,-120.6C272.19,-74.36 272.19,-18 272.19,-18 272.19,-18 464.11,-18 464.11,-18"/>
<polygon fill="black" stroke="black" points="464.11,-21.5 474.11,-18 464.11,-14.5 464.11,-21.5"/>
</g>
<!-- l1_cal_ndfiltimg_odir -->
<g id="node7" class="node">
<title>l1_cal_ndfiltimg_odir</title>
<ellipse fill="none" stroke="black" cx="576.19" cy="-396" rx="149.47" ry="18"/>
<text text-anchor="middle" x="576.19" y="-392.3" font-family="Times,serif" font-size="14.00">Output path for L1_eng_a 1..1</text>
</g>
<!-- config&#45;&gt;l1_cal_ndfiltimg_odir -->
<g id="edge11" class="edge">
<title>config&#45;&gt;l1_cal_ndfiltimg_odir</title>
<path fill="none" stroke="black" d="M366.36,-396C366.36,-396 416.64,-396 416.64,-396"/>
<polygon fill="black" stroke="black" points="416.64,-399.5 426.64,-396 416.64,-392.5 416.64,-399.5"/>
</g>
<!-- l1_cal_ndfiltimg_rec -->
<g id="node8" class="node">
<title>l1_cal_ndfiltimg_rec</title>
<polygon fill="none" stroke="black" points="645.69,-542 494.69,-542 494.69,-518 645.69,-518 657.69,-530 645.69,-542"/>
<text text-anchor="middle" x="576.19" y="-526.3" font-family="Times,serif" font-size="14.00">recipe L1_eng_a 1..1</text>
</g>
<!-- recipe&#45;&gt;l1_cal_ndfiltimg_rec -->
<g id="edge12" class="edge">
<title>recipe&#45;&gt;l1_cal_ndfiltimg_rec</title>
<path fill="none" stroke="black" d="M334.63,-530C334.63,-530 484.47,-530 484.47,-530"/>
<polygon fill="black" stroke="black" points="484.47,-533.5 494.47,-530 484.47,-526.5 484.47,-533.5"/>
</g>
</g>
</svg>
