<?xml version="1.0" encoding="UTF-8" standalone="no"?>
<!DOCTYPE svg PUBLIC "-//W3C//DTD SVG 1.1//EN"
 "http://www.w3.org/Graphics/SVG/1.1/DTD/svg11.dtd">
<!-- Generated by graphviz version 2.43.0 (0)
 -->
<!-- Title: NFOVNCClerks Pages: 1 -->
<svg width="738pt" height="1340pt"
 viewBox="0.00 0.00 737.76 1340.00" xmlns="http://www.w3.org/2000/svg" xmlns:xlink="http://www.w3.org/1999/xlink">
<g id="graph0" class="graph" transform="scale(1 1) rotate(0) translate(4 1336)">
<title>NFOVNCClerks</title>
<polygon fill="white" stroke="transparent" points="-4,4 -4,-1336 733.76,-1336 733.76,4 -4,4"/>
<!-- alarm_cal -->
<g id="node1" class="node">
<title>alarm_cal</title>
<text text-anchor="middle" x="91" y="-392.3" font-family="Times,serif" font-size="14.00">User requested update</text>
</g>
<!-- calib -->
<g id="node4" class="node">
<title>calib</title>
<ellipse fill="none" stroke="black" cx="292.09" cy="-396" rx="62.29" ry="62.29"/>
<text text-anchor="middle" x="292.09" y="-392.3" font-family="Times,serif" font-size="14.00">Calibration</text>
</g>
<!-- alarm_cal&#45;&gt;calib -->
<g id="edge1" class="edge">
<title>alarm_cal&#45;&gt;calib</title>
<path fill="none" stroke="black" stroke-dasharray="5,2" d="M182.13,-396C182.13,-396 219.47,-396 219.47,-396"/>
<polygon fill="black" stroke="black" points="219.47,-399.5 229.47,-396 219.47,-392.5 219.47,-399.5"/>
</g>
<!-- alarm_cnf -->
<g id="node2" class="node">
<title>alarm_cnf</title>
<text text-anchor="middle" x="91" y="-932.3" font-family="Times,serif" font-size="14.00">User requested update</text>
</g>
<!-- config -->
<g id="node5" class="node">
<title>config</title>
<ellipse fill="none" stroke="black" cx="292.09" cy="-936" rx="74.19" ry="74.19"/>
<text text-anchor="middle" x="292.09" y="-932.3" font-family="Times,serif" font-size="14.00">Configuration</text>
</g>
<!-- alarm_cnf&#45;&gt;config -->
<g id="edge2" class="edge">
<title>alarm_cnf&#45;&gt;config</title>
<path fill="none" stroke="black" stroke-dasharray="5,2" d="M182.13,-936C182.13,-936 207.84,-936 207.84,-936"/>
<polygon fill="black" stroke="black" points="207.84,-939.5 217.84,-936 207.84,-932.5 207.84,-939.5"/>
</g>
<!-- alarm_rec -->
<g id="node3" class="node">
<title>alarm_rec</title>
<text text-anchor="middle" x="91" y="-1202.3" font-family="Times,serif" font-size="14.00">User requested update</text>
</g>
<!-- recipe -->
<g id="node6" class="node">
<title>recipe</title>
<ellipse fill="none" stroke="black" cx="292.09" cy="-1206" rx="42.49" ry="42.49"/>
<text text-anchor="middle" x="292.09" y="-1202.3" font-family="Times,serif" font-size="14.00">Recipe</text>
</g>
<!-- alarm_rec&#45;&gt;recipe -->
<g id="edge3" class="edge">
<title>alarm_rec&#45;&gt;recipe</title>
<path fill="none" stroke="black" stroke-dasharray="5,2" d="M182.13,-1206C182.13,-1206 239.74,-1206 239.74,-1206"/>
<polygon fill="black" stroke="black" points="239.74,-1209.5 249.74,-1206 239.74,-1202.5 239.74,-1209.5"/>
</g>
<!-- l1_nfov_nc_nllut -->
<g id="node9" class="node">
<title>l1_nfov_nc_nllut</title>
<polygon fill="none" stroke="black" points="654.47,-786 465.47,-786 465.47,-762 654.47,-762 666.47,-774 654.47,-786"/>
<text text-anchor="middle" x="565.97" y="-770.3" font-family="Times,serif" font-size="14.00">non linear calibration 1..1</text>
</g>
<!-- calib&#45;&gt;l1_nfov_nc_nllut -->
<g id="edge4" class="edge">
<title>calib&#45;&gt;l1_nfov_nc_nllut</title>
<path fill="none" stroke="black" d="M254.76,-446.2C254.76,-549.02 254.76,-774 254.76,-774 254.76,-774 455.36,-774 455.36,-774"/>
<polygon fill="black" stroke="black" points="455.36,-777.5 465.36,-774 455.36,-770.5 455.36,-777.5"/>
</g>
<!-- l2a_nfov_nc_mbpm -->
<g id="node12" class="node">
<title>l2a_nfov_nc_mbpm</title>
<polygon fill="none" stroke="black" points="657.47,-732 462.47,-732 462.47,-708 657.47,-708 669.47,-720 657.47,-732"/>
<text text-anchor="middle" x="565.97" y="-716.3" font-family="Times,serif" font-size="14.00">nfov_nc bad pixel map 1..1</text>
</g>
<!-- calib&#45;&gt;l2a_nfov_nc_mbpm -->
<g id="edge5" class="edge">
<title>calib&#45;&gt;l2a_nfov_nc_mbpm</title>
<path fill="none" stroke="black" d="M279.76,-457.32C279.76,-551.25 279.76,-720 279.76,-720 279.76,-720 452.24,-720 452.24,-720"/>
<polygon fill="black" stroke="black" points="452.24,-723.5 462.24,-720 452.24,-716.5 452.24,-723.5"/>
</g>
<!-- l2a_nfov_nc_dnb -->
<g id="node13" class="node">
<title>l2a_nfov_nc_dnb</title>
<polygon fill="none" stroke="black" points="709.47,-678 410.47,-678 410.47,-654 709.47,-654 721.47,-666 709.47,-678"/>
<text text-anchor="middle" x="565.97" y="-662.3" font-family="Times,serif" font-size="14.00">nfov_nc dark (CIC/FPN/dark current) 1..1</text>
</g>
<!-- calib&#45;&gt;l2a_nfov_nc_dnb -->
<g id="edge6" class="edge">
<title>calib&#45;&gt;l2a_nfov_nc_dnb</title>
<path fill="none" stroke="black" d="M320.15,-451.8C356.64,-451.8 415.76,-451.8 415.76,-451.8 415.76,-451.8 415.76,-637.74 415.76,-637.74"/>
<polygon fill="black" stroke="black" points="412.26,-637.74 415.76,-647.74 419.26,-637.74 412.26,-637.74"/>
</g>
<!-- l2a_nfov_nc_cti -->
<g id="node14" class="node">
<title>l2a_nfov_nc_cti</title>
<polygon fill="none" stroke="black" points="698.97,-624 420.97,-624 420.97,-600 698.97,-600 710.97,-612 698.97,-624"/>
<text text-anchor="middle" x="565.97" y="-608.3" font-family="Times,serif" font-size="14.00">nfov_nc charge transfer efficiency 1..1</text>
</g>
<!-- calib&#45;&gt;l2a_nfov_nc_cti -->
<g id="edge7" class="edge">
<title>calib&#45;&gt;l2a_nfov_nc_cti</title>
<path fill="none" stroke="black" d="M330.61,-445.2C370.71,-445.2 427.76,-445.2 427.76,-445.2 427.76,-445.2 427.76,-583.83 427.76,-583.83"/>
<polygon fill="black" stroke="black" points="424.26,-583.83 427.76,-593.83 431.26,-583.83 424.26,-583.83"/>
</g>
<!-- l2a_nfov_nc_ff -->
<g id="node15" class="node">
<title>l2a_nfov_nc_ff</title>
<polygon fill="none" stroke="black" points="636.47,-570 483.47,-570 483.47,-546 636.47,-546 648.47,-558 636.47,-570"/>
<text text-anchor="middle" x="565.97" y="-554.3" font-family="Times,serif" font-size="14.00">nfov_nc flat field 1..1</text>
</g>
<!-- calib&#45;&gt;l2a_nfov_nc_ff -->
<g id="edge8" class="edge">
<title>calib&#45;&gt;l2a_nfov_nc_ff</title>
<path fill="none" stroke="black" d="M304.76,-457.25C304.76,-503.12 304.76,-558 304.76,-558 304.76,-558 473.32,-558 473.32,-558"/>
<polygon fill="black" stroke="black" points="473.32,-561.5 483.32,-558 473.32,-554.5 473.32,-561.5"/>
</g>
<!-- l2a_nfov_nc_kgain -->
<g id="node16" class="node">
<title>l2a_nfov_nc_kgain</title>
<polygon fill="none" stroke="black" points="628.97,-516 490.97,-516 490.97,-492 628.97,-492 640.97,-504 628.97,-516"/>
<text text-anchor="middle" x="565.97" y="-500.3" font-family="Times,serif" font-size="14.00">nfov_nc k&#45;gain 1..1</text>
</g>
<!-- calib&#45;&gt;l2a_nfov_nc_kgain -->
<g id="edge9" class="edge">
<title>calib&#45;&gt;l2a_nfov_nc_kgain</title>
<path fill="none" stroke="black" d="M329.76,-445.89C329.76,-474.19 329.76,-504 329.76,-504 329.76,-504 480.91,-504 480.91,-504"/>
<polygon fill="black" stroke="black" points="480.91,-507.5 490.91,-504 480.91,-500.5 480.91,-507.5"/>
</g>
<!-- l2a_nfov_nc_emg -->
<g id="node17" class="node">
<title>l2a_nfov_nc_emg</title>
<polygon fill="none" stroke="black" points="637.47,-462 482.47,-462 482.47,-438 637.47,-438 649.47,-450 637.47,-462"/>
<text text-anchor="middle" x="565.97" y="-446.3" font-family="Times,serif" font-size="14.00">nfov_nc EM gain 1..1</text>
</g>
<!-- calib&#45;&gt;l2a_nfov_nc_emg -->
<g id="edge10" class="edge">
<title>calib&#45;&gt;l2a_nfov_nc_emg</title>
<path fill="none" stroke="black" d="M337.93,-438.6C337.93,-438.6 472.3,-438.6 472.3,-438.6"/>
<polygon fill="black" stroke="black" points="472.3,-442.1 482.3,-438.6 472.3,-435.1 472.3,-442.1"/>
</g>
<!-- l2b_nfov_nc_distm -->
<g id="node20" class="node">
<title>l2b_nfov_nc_distm</title>
<polygon fill="none" stroke="black" points="659.97,-408 459.97,-408 459.97,-384 659.97,-384 671.97,-396 659.97,-408"/>
<text text-anchor="middle" x="565.97" y="-392.3" font-family="Times,serif" font-size="14.00">nfov_nc distortion map 1..1</text>
</g>
<!-- calib&#45;&gt;l2b_nfov_nc_distm -->
<g id="edge11" class="edge">
<title>calib&#45;&gt;l2b_nfov_nc_distm</title>
<path fill="none" stroke="black" d="M354.58,-396C354.58,-396 449.7,-396 449.7,-396"/>
<polygon fill="black" stroke="black" points="449.7,-399.5 459.7,-396 449.7,-392.5 449.7,-399.5"/>
</g>
<!-- l2b_nfov_nc_excicrf -->
<g id="node21" class="node">
<title>l2b_nfov_nc_excicrf</title>
<polygon fill="none" stroke="black" points="685.47,-354 434.47,-354 434.47,-330 685.47,-330 697.47,-342 685.47,-354"/>
<text text-anchor="middle" x="565.97" y="-338.3" font-family="Times,serif" font-size="14.00">nfov_nc EXCAM ICRF location 1..1</text>
</g>
<!-- calib&#45;&gt;l2b_nfov_nc_excicrf -->
<g id="edge12" class="edge">
<title>calib&#45;&gt;l2b_nfov_nc_excicrf</title>
<path fill="none" stroke="black" d="M330.75,-346.8C330.75,-346.8 424.38,-346.8 424.38,-346.8"/>
<polygon fill="black" stroke="black" points="424.38,-350.3 434.38,-346.8 424.38,-343.3 424.38,-350.3"/>
</g>
<!-- l2b_nfov_nc_excfovps -->
<g id="node22" class="node">
<title>l2b_nfov_nc_excfovps</title>
<polygon fill="none" stroke="black" points="686.97,-300 432.97,-300 432.97,-276 686.97,-276 698.97,-288 686.97,-300"/>
<text text-anchor="middle" x="565.97" y="-284.3" font-family="Times,serif" font-size="14.00">nfov_nc ECAM FOV pixel scale 1..1</text>
</g>
<!-- calib&#45;&gt;l2b_nfov_nc_excfovps -->
<g id="edge13" class="edge">
<title>calib&#45;&gt;l2b_nfov_nc_excfovps</title>
<path fill="none" stroke="black" d="M336.76,-352.38C336.76,-322.41 336.76,-288 336.76,-288 336.76,-288 422.97,-288 422.97,-288"/>
<polygon fill="black" stroke="black" points="422.97,-291.5 432.97,-288 422.97,-284.5 422.97,-291.5"/>
</g>
<!-- l3_nfov_nc_ast -->
<g id="node25" class="node">
<title>l3_nfov_nc_ast</title>
<polygon fill="none" stroke="black" points="646.97,-246 472.97,-246 472.97,-222 646.97,-222 658.97,-234 646.97,-246"/>
<text text-anchor="middle" x="565.97" y="-230.3" font-family="Times,serif" font-size="14.00">nfov_nc astrometry 1..1</text>
</g>
<!-- calib&#45;&gt;l3_nfov_nc_ast -->
<g id="edge14" class="edge">
<title>calib&#45;&gt;l3_nfov_nc_ast</title>
<path fill="none" stroke="black" d="M319.76,-339.79C319.76,-293.01 319.76,-234 319.76,-234 319.76,-234 462.89,-234 462.89,-234"/>
<polygon fill="black" stroke="black" points="462.89,-237.5 472.89,-234 462.89,-230.5 462.89,-237.5"/>
</g>
<!-- l3_nfov_nc_ndf -->
<g id="node26" class="node">
<title>l3_nfov_nc_ndf</title>
<polygon fill="none" stroke="black" points="646.97,-192 472.97,-192 472.97,-168 646.97,-168 658.97,-180 646.97,-192"/>
<text text-anchor="middle" x="565.97" y="-176.3" font-family="Times,serif" font-size="14.00">nfov_nc astrometry 1..1</text>
</g>
<!-- calib&#45;&gt;l3_nfov_nc_ndf -->
<g id="edge15" class="edge">
<title>calib&#45;&gt;l3_nfov_nc_ndf</title>
<path fill="none" stroke="black" d="M301.76,-334.1C301.76,-270.28 301.76,-180 301.76,-180 301.76,-180 462.82,-180 462.82,-180"/>
<polygon fill="black" stroke="black" points="462.82,-183.5 472.82,-180 462.82,-176.5 462.82,-183.5"/>
</g>
<!-- l4_nfov_nc_afcal -->
<g id="node29" class="node">
<title>l4_nfov_nc_afcal</title>
<polygon fill="none" stroke="black" points="652.97,-138 466.97,-138 466.97,-114 652.97,-114 664.97,-126 652.97,-138"/>
<text text-anchor="middle" x="565.97" y="-122.3" font-family="Times,serif" font-size="14.00">nfov_nc absolute flux 1..1</text>
</g>
<!-- calib&#45;&gt;l4_nfov_nc_afcal -->
<g id="edge16" class="edge">
<title>calib&#45;&gt;l4_nfov_nc_afcal</title>
<path fill="none" stroke="black" d="M283.76,-334.06C283.76,-254.34 283.76,-126 283.76,-126 283.76,-126 456.87,-126 456.87,-126"/>
<polygon fill="black" stroke="black" points="456.87,-129.5 466.87,-126 456.87,-122.5 456.87,-129.5"/>
</g>
<!-- l4_nfov_nc_ctcal -->
<g id="node30" class="node">
<title>l4_nfov_nc_ctcal</title>
<polygon fill="none" stroke="black" points="665.47,-84 454.47,-84 454.47,-60 665.47,-60 677.47,-72 665.47,-84"/>
<text text-anchor="middle" x="565.97" y="-68.3" font-family="Times,serif" font-size="14.00">nfov_nc core throughput 1..1</text>
</g>
<!-- calib&#45;&gt;l4_nfov_nc_ctcal -->
<g id="edge17" class="edge">
<title>calib&#45;&gt;l4_nfov_nc_ctcal</title>
<path fill="none" stroke="black" d="M265.76,-339.19C265.76,-246.27 265.76,-72 265.76,-72 265.76,-72 444.18,-72 444.18,-72"/>
<polygon fill="black" stroke="black" points="444.18,-75.5 454.18,-72 444.18,-68.5 444.18,-75.5"/>
</g>
<!-- l4_nfov_nc_ndfilt -->
<g id="node31" class="node">
<title>l4_nfov_nc_ndfilt</title>
<polygon fill="none" stroke="black" points="638.47,-30 481.47,-30 481.47,-6 638.47,-6 650.47,-18 638.47,-30"/>
<text text-anchor="middle" x="565.97" y="-14.3" font-family="Times,serif" font-size="14.00">nfov_nc ND filter 1..1</text>
</g>
<!-- calib&#45;&gt;l4_nfov_nc_ndfilt -->
<g id="edge18" class="edge">
<title>calib&#45;&gt;l4_nfov_nc_ndfilt</title>
<path fill="none" stroke="black" d="M247.76,-351.9C247.76,-252.19 247.76,-18 247.76,-18 247.76,-18 471.11,-18 471.11,-18"/>
<polygon fill="black" stroke="black" points="471.11,-21.5 481.11,-18 471.11,-14.5 471.11,-21.5"/>
</g>
<!-- l1_nfov_nc_odir -->
<g id="node7" class="node">
<title>l1_nfov_nc_odir</title>
<ellipse fill="none" stroke="black" cx="565.97" cy="-1044" rx="157.87" ry="18"/>
<text text-anchor="middle" x="565.97" y="-1040.3" font-family="Times,serif" font-size="14.00">Output path for L1_nfov_nc 1..1</text>
</g>
<!-- config&#45;&gt;l1_nfov_nc_odir -->
<g id="edge19" class="edge">
<title>config&#45;&gt;l1_nfov_nc_odir</title>
<path fill="none" stroke="black" d="M350.76,-981.49C350.76,-1011 350.76,-1044 350.76,-1044 350.76,-1044 397.87,-1044 397.87,-1044"/>
<polygon fill="black" stroke="black" points="397.87,-1047.5 407.87,-1044 397.87,-1040.5 397.87,-1047.5"/>
</g>
<!-- l2a_nfov_nc_odir -->
<g id="node10" class="node">
<title>l2a_nfov_nc_odir</title>
<ellipse fill="none" stroke="black" cx="565.97" cy="-990" rx="163.27" ry="18"/>
<text text-anchor="middle" x="565.97" y="-986.3" font-family="Times,serif" font-size="14.00">Output path for L2a_nfov_nc 1..1</text>
</g>
<!-- config&#45;&gt;l2a_nfov_nc_odir -->
<g id="edge20" class="edge">
<title>config&#45;&gt;l2a_nfov_nc_odir</title>
<path fill="none" stroke="black" d="M342.97,-990C342.97,-990 392.61,-990 392.61,-990"/>
<polygon fill="black" stroke="black" points="392.61,-993.5 402.61,-990 392.61,-986.5 392.61,-993.5"/>
</g>
<!-- l2b_nfov_nc_odir -->
<g id="node18" class="node">
<title>l2b_nfov_nc_odir</title>
<ellipse fill="none" stroke="black" cx="565.97" cy="-936" rx="163.57" ry="18"/>
<text text-anchor="middle" x="565.97" y="-932.3" font-family="Times,serif" font-size="14.00">Output path for L2b_nfov_nc 1..1</text>
</g>
<!-- config&#45;&gt;l2b_nfov_nc_odir -->
<g id="edge21" class="edge">
<title>config&#45;&gt;l2b_nfov_nc_odir</title>
<path fill="none" stroke="black" d="M366.21,-936C366.21,-936 391.96,-936 391.96,-936"/>
<polygon fill="black" stroke="black" points="391.96,-939.5 401.96,-936 391.96,-932.5 391.96,-939.5"/>
</g>
<!-- l3_nfov_nc_odir -->
<g id="node23" class="node">
<title>l3_nfov_nc_odir</title>
<ellipse fill="none" stroke="black" cx="565.97" cy="-882" rx="157.87" ry="18"/>
<text text-anchor="middle" x="565.97" y="-878.3" font-family="Times,serif" font-size="14.00">Output path for L3_nfov_nc 1..1</text>
</g>
<!-- config&#45;&gt;l3_nfov_nc_odir -->
<g id="edge22" class="edge">
<title>config&#45;&gt;l3_nfov_nc_odir</title>
<path fill="none" stroke="black" d="M342.97,-882C342.97,-882 397.77,-882 397.77,-882"/>
<polygon fill="black" stroke="black" points="397.77,-885.5 407.77,-882 397.77,-878.5 397.77,-885.5"/>
</g>
<!-- l4_nfov_nc_odir -->
<g id="node27" class="node">
<title>l4_nfov_nc_odir</title>
<ellipse fill="none" stroke="black" cx="565.97" cy="-828" rx="157.87" ry="18"/>
<text text-anchor="middle" x="565.97" y="-824.3" font-family="Times,serif" font-size="14.00">Output path for L4_nfov_nc 1..1</text>
</g>
<!-- config&#45;&gt;l4_nfov_nc_odir -->
<g id="edge23" class="edge">
<title>config&#45;&gt;l4_nfov_nc_odir</title>
<path fill="none" stroke="black" d="M360.76,-907.91C360.76,-875.91 360.76,-828 360.76,-828 360.76,-828 397.84,-828 397.84,-828"/>
<polygon fill="black" stroke="black" points="397.84,-831.5 407.84,-828 397.84,-824.5 397.84,-831.5"/>
</g>
<!-- l1_nfov_nc_rec -->
<g id="node8" class="node">
<title>l1_nfov_nc_rec</title>
<polygon fill="none" stroke="black" points="641.97,-1326 477.97,-1326 477.97,-1302 641.97,-1302 653.97,-1314 641.97,-1326"/>
<text text-anchor="middle" x="565.97" y="-1310.3" font-family="Times,serif" font-size="14.00">recipe L1_nfov_nc 1..1</text>
</g>
<!-- recipe&#45;&gt;l1_nfov_nc_rec -->
<g id="edge24" class="edge">
<title>recipe&#45;&gt;l1_nfov_nc_rec</title>
<path fill="none" stroke="black" d="M278.76,-1246.22C278.76,-1276.92 278.76,-1314 278.76,-1314 278.76,-1314 467.85,-1314 467.85,-1314"/>
<polygon fill="black" stroke="black" points="467.85,-1317.5 477.85,-1314 467.85,-1310.5 467.85,-1317.5"/>
</g>
<!-- l2a_nfov_nc_rec -->
<g id="node11" class="node">
<title>l2a_nfov_nc_rec</title>
<polygon fill="none" stroke="black" points="645.97,-1272 473.97,-1272 473.97,-1248 645.97,-1248 657.97,-1260 645.97,-1272"/>
<text text-anchor="middle" x="565.97" y="-1256.3" font-family="Times,serif" font-size="14.00">recipe L2a_nfov_nc 1..1</text>
</g>
<!-- recipe&#45;&gt;l2a_nfov_nc_rec -->
<g id="edge25" class="edge">
<title>recipe&#45;&gt;l2a_nfov_nc_rec</title>
<path fill="none" stroke="black" d="M306.76,-1245.67C306.76,-1255.42 306.76,-1263.12 306.76,-1263.12 306.76,-1263.12 463.85,-1263.12 463.85,-1263.12"/>
<polygon fill="black" stroke="black" points="463.85,-1266.62 473.85,-1263.12 463.85,-1259.62 463.85,-1266.62"/>
</g>
<!-- l2b_nfov_nc_rec -->
<g id="node19" class="node">
<title>l2b_nfov_nc_rec</title>
<polygon fill="none" stroke="black" points="646.47,-1218 473.47,-1218 473.47,-1194 646.47,-1194 658.47,-1206 646.47,-1218"/>
<text text-anchor="middle" x="565.97" y="-1202.3" font-family="Times,serif" font-size="14.00">recipe L2b_nfov_nc 1..1</text>
</g>
<!-- recipe&#45;&gt;l2b_nfov_nc_rec -->
<g id="edge26" class="edge">
<title>recipe&#45;&gt;l2b_nfov_nc_rec</title>
<path fill="none" stroke="black" d="M334.59,-1206C334.59,-1206 463.43,-1206 463.43,-1206"/>
<polygon fill="black" stroke="black" points="463.43,-1209.5 473.43,-1206 463.43,-1202.5 463.43,-1209.5"/>
</g>
<!-- l3_nfov_nc_rec -->
<g id="node24" class="node">
<title>l3_nfov_nc_rec</title>
<polygon fill="none" stroke="black" points="641.97,-1164 477.97,-1164 477.97,-1140 641.97,-1140 653.97,-1152 641.97,-1164"/>
<text text-anchor="middle" x="565.97" y="-1148.3" font-family="Times,serif" font-size="14.00">recipe L3_nfov_nc 1..1</text>
</g>
<!-- recipe&#45;&gt;l3_nfov_nc_rec -->
<g id="edge27" class="edge">
<title>recipe&#45;&gt;l3_nfov_nc_rec</title>
<path fill="none" stroke="black" d="M306.76,-1166.33C306.76,-1156.58 306.76,-1148.88 306.76,-1148.88 306.76,-1148.88 467.85,-1148.88 467.85,-1148.88"/>
<polygon fill="black" stroke="black" points="467.85,-1152.38 477.85,-1148.88 467.85,-1145.38 467.85,-1152.38"/>
</g>
<!-- l4_nfov_nc_rec -->
<g id="node28" class="node">
<title>l4_nfov_nc_rec</title>
<polygon fill="none" stroke="black" points="641.97,-1110 477.97,-1110 477.97,-1086 641.97,-1086 653.97,-1098 641.97,-1110"/>
<text text-anchor="middle" x="565.97" y="-1094.3" font-family="Times,serif" font-size="14.00">recipe L4_nfov_nc 1..1</text>
</g>
<!-- recipe&#45;&gt;l4_nfov_nc_rec -->
<g id="edge28" class="edge">
<title>recipe&#45;&gt;l4_nfov_nc_rec</title>
<path fill="none" stroke="black" d="M278.76,-1165.78C278.76,-1135.08 278.76,-1098 278.76,-1098 278.76,-1098 467.85,-1098 467.85,-1098"/>
<polygon fill="black" stroke="black" points="467.85,-1101.5 477.85,-1098 467.85,-1094.5 467.85,-1101.5"/>
</g>
</g>
</svg>
