<?xml version="1.0" encoding="UTF-8" standalone="no"?>
<!DOCTYPE svg PUBLIC "-//W3C//DTD SVG 1.1//EN"
 "http://www.w3.org/Graphics/SVG/1.1/DTD/svg11.dtd">
<!-- Generated by graphviz version 2.43.0 (0)
 -->
<!-- Title: NDFiltSpecClerks Pages: 1 -->
<svg width="763pt" height="580pt"
 viewBox="0.00 0.00 763.19 580.25" xmlns="http://www.w3.org/2000/svg" xmlns:xlink="http://www.w3.org/1999/xlink">
<g id="graph0" class="graph" transform="scale(1 1) rotate(0) translate(4 576.25)">
<title>NDFiltSpecClerks</title>
<polygon fill="white" stroke="transparent" points="-4,4 -4,-576.25 759.19,-576.25 759.19,4 -4,4"/>
<!-- alarm_cal -->
<g id="node1" class="node">
<title>alarm_cal</title>
<text text-anchor="middle" x="91" y="-176.3" font-family="Times,serif" font-size="14.00">User requested update</text>
</g>
<!-- calib -->
<g id="node4" class="node">
<title>calib</title>
<ellipse fill="none" stroke="black" cx="292.09" cy="-180" rx="62.29" ry="62.29"/>
<text text-anchor="middle" x="292.09" y="-176.3" font-family="Times,serif" font-size="14.00">Calibration</text>
</g>
<!-- alarm_cal&#45;&gt;calib -->
<g id="edge1" class="edge">
<title>alarm_cal&#45;&gt;calib</title>
<path fill="none" stroke="black" stroke-dasharray="5,2" d="M182.13,-180C182.13,-180 219.47,-180 219.47,-180"/>
<polygon fill="black" stroke="black" points="219.47,-183.5 229.47,-180 219.47,-176.5 219.47,-183.5"/>
</g>
<!-- alarm_cnf -->
<g id="node2" class="node">
<title>alarm_cnf</title>
<text text-anchor="middle" x="91" y="-392.3" font-family="Times,serif" font-size="14.00">User requested update</text>
</g>
<!-- config -->
<g id="node5" class="node">
<title>config</title>
<ellipse fill="none" stroke="black" cx="292.09" cy="-396" rx="74.19" ry="74.19"/>
<text text-anchor="middle" x="292.09" y="-392.3" font-family="Times,serif" font-size="14.00">Configuration</text>
</g>
<!-- alarm_cnf&#45;&gt;config -->
<g id="edge2" class="edge">
<title>alarm_cnf&#45;&gt;config</title>
<path fill="none" stroke="black" stroke-dasharray="5,2" d="M182.13,-396C182.13,-396 207.84,-396 207.84,-396"/>
<polygon fill="black" stroke="black" points="207.84,-399.5 217.84,-396 207.84,-392.5 207.84,-399.5"/>
</g>
<!-- alarm_rec -->
<g id="node3" class="node">
<title>alarm_rec</title>
<text text-anchor="middle" x="91" y="-526.3" font-family="Times,serif" font-size="14.00">User requested update</text>
</g>
<!-- recipe -->
<g id="node6" class="node">
<title>recipe</title>
<ellipse fill="none" stroke="black" cx="292.09" cy="-530" rx="42.49" ry="42.49"/>
<text text-anchor="middle" x="292.09" y="-526.3" font-family="Times,serif" font-size="14.00">Recipe</text>
</g>
<!-- alarm_rec&#45;&gt;recipe -->
<g id="edge3" class="edge">
<title>alarm_rec&#45;&gt;recipe</title>
<path fill="none" stroke="black" stroke-dasharray="5,2" d="M182.13,-530C182.13,-530 239.74,-530 239.74,-530"/>
<polygon fill="black" stroke="black" points="239.74,-533.5 249.74,-530 239.74,-526.5 239.74,-533.5"/>
</g>
<!-- l1_cal_ndfiltspec_nllut -->
<g id="node9" class="node">
<title>l1_cal_ndfiltspec_nllut</title>
<polygon fill="none" stroke="black" points="667.19,-354 478.19,-354 478.19,-330 667.19,-330 679.19,-342 667.19,-354"/>
<text text-anchor="middle" x="578.69" y="-338.3" font-family="Times,serif" font-size="14.00">non linear calibration 1..1</text>
</g>
<!-- calib&#45;&gt;l1_cal_ndfiltspec_nllut -->
<g id="edge4" class="edge">
<title>calib&#45;&gt;l1_cal_ndfiltspec_nllut</title>
<path fill="none" stroke="black" d="M324.04,-233.6C350.64,-233.6 384.19,-233.6 384.19,-233.6 384.19,-233.6 384.19,-342 384.19,-342 384.19,-342 468.02,-342 468.02,-342"/>
<polygon fill="black" stroke="black" points="468.02,-345.5 478.02,-342 468.02,-338.5 468.02,-345.5"/>
</g>
<!-- l2a_cal_ndfiltspec_mbpm -->
<g id="node10" class="node">
<title>l2a_cal_ndfiltspec_mbpm</title>
<polygon fill="none" stroke="black" points="691.69,-300 453.69,-300 453.69,-276 691.69,-276 703.69,-288 691.69,-300"/>
<text text-anchor="middle" x="578.69" y="-284.3" font-family="Times,serif" font-size="14.00">cal_ndfiltspec bad pixel map 1..1</text>
</g>
<!-- calib&#45;&gt;l2a_cal_ndfiltspec_mbpm -->
<g id="edge5" class="edge">
<title>calib&#45;&gt;l2a_cal_ndfiltspec_mbpm</title>
<path fill="none" stroke="black" d="M292.19,-242.51C292.19,-266.39 292.19,-288 292.19,-288 292.19,-288 443.44,-288 443.44,-288"/>
<polygon fill="black" stroke="black" points="443.44,-291.5 453.44,-288 443.44,-284.5 443.44,-291.5"/>
</g>
<!-- l2a_cal_ndfiltspec_dnb -->
<g id="node11" class="node">
<title>l2a_cal_ndfiltspec_dnb</title>
<polygon fill="none" stroke="black" points="743.19,-246 402.19,-246 402.19,-222 743.19,-222 755.19,-234 743.19,-246"/>
<text text-anchor="middle" x="578.69" y="-230.3" font-family="Times,serif" font-size="14.00">cal_ndfiltspec dark (CIC/FPN/dark current) 1..1</text>
</g>
<!-- calib&#45;&gt;l2a_cal_ndfiltspec_dnb -->
<g id="edge6" class="edge">
<title>calib&#45;&gt;l2a_cal_ndfiltspec_dnb</title>
<path fill="none" stroke="black" d="M335.62,-224.8C335.62,-224.8 392.15,-224.8 392.15,-224.8"/>
<polygon fill="black" stroke="black" points="392.15,-228.3 402.15,-224.8 392.15,-221.3 392.15,-228.3"/>
</g>
<!-- l2a_cal_ndfiltspec_cti -->
<g id="node12" class="node">
<title>l2a_cal_ndfiltspec_cti</title>
<polygon fill="none" stroke="black" points="732.69,-192 412.69,-192 412.69,-168 732.69,-168 744.69,-180 732.69,-192"/>
<text text-anchor="middle" x="578.69" y="-176.3" font-family="Times,serif" font-size="14.00">cal_ndfiltspec charge transfer efficiency 1..1</text>
</g>
<!-- calib&#45;&gt;l2a_cal_ndfiltspec_cti -->
<g id="edge7" class="edge">
<title>calib&#45;&gt;l2a_cal_ndfiltspec_cti</title>
<path fill="none" stroke="black" d="M354.63,-180C354.63,-180 402.4,-180 402.4,-180"/>
<polygon fill="black" stroke="black" points="402.4,-183.5 412.4,-180 402.4,-176.5 402.4,-183.5"/>
</g>
<!-- l2a_cal_ndfiltspec_ff -->
<g id="node13" class="node">
<title>l2a_cal_ndfiltspec_ff</title>
<polygon fill="none" stroke="black" points="670.69,-138 474.69,-138 474.69,-114 670.69,-114 682.69,-126 670.69,-138"/>
<text text-anchor="middle" x="578.69" y="-122.3" font-family="Times,serif" font-size="14.00">cal_ndfiltspec flat field 1..1</text>
</g>
<!-- calib&#45;&gt;l2a_cal_ndfiltspec_ff -->
<g id="edge8" class="edge">
<title>calib&#45;&gt;l2a_cal_ndfiltspec_ff</title>
<path fill="none" stroke="black" d="M330.74,-130.8C330.74,-130.8 464.47,-130.8 464.47,-130.8"/>
<polygon fill="black" stroke="black" points="464.47,-134.3 474.47,-130.8 464.47,-127.3 464.47,-134.3"/>
</g>
<!-- l2a_cal_ndfiltspec_kgain -->
<g id="node14" class="node">
<title>l2a_cal_ndfiltspec_kgain</title>
<polygon fill="none" stroke="black" points="663.19,-84 482.19,-84 482.19,-60 663.19,-60 675.19,-72 663.19,-84"/>
<text text-anchor="middle" x="578.69" y="-68.3" font-family="Times,serif" font-size="14.00">cal_ndfiltspec k&#45;gain 1..1</text>
</g>
<!-- calib&#45;&gt;l2a_cal_ndfiltspec_kgain -->
<g id="edge9" class="edge">
<title>calib&#45;&gt;l2a_cal_ndfiltspec_kgain</title>
<path fill="none" stroke="black" d="M313.19,-121.26C313.19,-95.93 313.19,-72 313.19,-72 313.19,-72 472.08,-72 472.08,-72"/>
<polygon fill="black" stroke="black" points="472.08,-75.5 482.08,-72 472.08,-68.5 472.08,-75.5"/>
</g>
<!-- l2a_cal_ndfiltspec_emg -->
<g id="node15" class="node">
<title>l2a_cal_ndfiltspec_emg</title>
<polygon fill="none" stroke="black" points="671.19,-30 474.19,-30 474.19,-6 671.19,-6 683.19,-18 671.19,-30"/>
<text text-anchor="middle" x="578.69" y="-14.3" font-family="Times,serif" font-size="14.00">cal_ndfiltspec EM gain 1..1</text>
</g>
<!-- calib&#45;&gt;l2a_cal_ndfiltspec_emg -->
<g id="edge10" class="edge">
<title>calib&#45;&gt;l2a_cal_ndfiltspec_emg</title>
<path fill="none" stroke="black" d="M272.19,-120.6C272.19,-74.36 272.19,-18 272.19,-18 272.19,-18 464.06,-18 464.06,-18"/>
<polygon fill="black" stroke="black" points="464.06,-21.5 474.06,-18 464.06,-14.5 464.06,-21.5"/>
</g>
<!-- l1_cal_ndfiltspec_odir -->
<g id="node7" class="node">
<title>l1_cal_ndfiltspec_odir</title>
<ellipse fill="none" stroke="black" cx="578.69" cy="-396" rx="149.47" ry="18"/>
<text text-anchor="middle" x="578.69" y="-392.3" font-family="Times,serif" font-size="14.00">Output path for L1_eng_a 1..1</text>
</g>
<!-- config&#45;&gt;l1_cal_ndfiltspec_odir -->
<g id="edge11" class="edge">
<title>config&#45;&gt;l1_cal_ndfiltspec_odir</title>
<path fill="none" stroke="black" d="M366.27,-396C366.27,-396 419.13,-396 419.13,-396"/>
<polygon fill="black" stroke="black" points="419.13,-399.5 429.13,-396 419.13,-392.5 419.13,-399.5"/>
</g>
<!-- l1_cal_ndfiltspec_rec -->
<g id="node8" class="node">
<title>l1_cal_ndfiltspec_rec</title>
<polygon fill="none" stroke="black" points="648.19,-542 497.19,-542 497.19,-518 648.19,-518 660.19,-530 648.19,-542"/>
<text text-anchor="middle" x="578.69" y="-526.3" font-family="Times,serif" font-size="14.00">recipe L1_eng_a 1..1</text>
</g>
<!-- recipe&#45;&gt;l1_cal_ndfiltspec_rec -->
<g id="edge12" class="edge">
<title>recipe&#45;&gt;l1_cal_ndfiltspec_rec</title>
<path fill="none" stroke="black" d="M334.38,-530C334.38,-530 487.05,-530 487.05,-530"/>
<polygon fill="black" stroke="black" points="487.05,-533.5 497.05,-530 487.05,-526.5 487.05,-533.5"/>
</g>
</g>
</svg>
