<?xml version="1.0" encoding="UTF-8" standalone="no"?>
<!DOCTYPE svg PUBLIC "-//W3C//DTD SVG 1.1//EN"
 "http://www.w3.org/Graphics/SVG/1.1/DTD/svg11.dtd">
<!-- Generated by graphviz version 2.43.0 (0)
 -->
<!-- Title: NFOVAClerks Pages: 1 -->
<svg width="727pt" height="1286pt"
 viewBox="0.00 0.00 727.36 1286.00" xmlns="http://www.w3.org/2000/svg" xmlns:xlink="http://www.w3.org/1999/xlink">
<g id="graph0" class="graph" transform="scale(1 1) rotate(0) translate(4 1282)">
<title>NFOVAClerks</title>
<polygon fill="white" stroke="transparent" points="-4,4 -4,-1282 723.36,-1282 723.36,4 -4,4"/>
<!-- alarm_cal -->
<g id="node1" class="node">
<title>alarm_cal</title>
<text text-anchor="middle" x="91" y="-365.3" font-family="Times,serif" font-size="14.00">User requested update</text>
</g>
<!-- calib -->
<g id="node4" class="node">
<title>calib</title>
<ellipse fill="none" stroke="black" cx="292.09" cy="-369" rx="62.29" ry="62.29"/>
<text text-anchor="middle" x="292.09" y="-365.3" font-family="Times,serif" font-size="14.00">Calibration</text>
</g>
<!-- alarm_cal&#45;&gt;calib -->
<g id="edge1" class="edge">
<title>alarm_cal&#45;&gt;calib</title>
<path fill="none" stroke="black" stroke-dasharray="5,2" d="M182.13,-369C182.13,-369 219.47,-369 219.47,-369"/>
<polygon fill="black" stroke="black" points="219.47,-372.5 229.47,-369 219.47,-365.5 219.47,-372.5"/>
</g>
<!-- alarm_cnf -->
<g id="node2" class="node">
<title>alarm_cnf</title>
<text text-anchor="middle" x="91" y="-878.3" font-family="Times,serif" font-size="14.00">User requested update</text>
</g>
<!-- config -->
<g id="node5" class="node">
<title>config</title>
<ellipse fill="none" stroke="black" cx="292.09" cy="-882" rx="74.19" ry="74.19"/>
<text text-anchor="middle" x="292.09" y="-878.3" font-family="Times,serif" font-size="14.00">Configuration</text>
</g>
<!-- alarm_cnf&#45;&gt;config -->
<g id="edge2" class="edge">
<title>alarm_cnf&#45;&gt;config</title>
<path fill="none" stroke="black" stroke-dasharray="5,2" d="M182.13,-882C182.13,-882 207.84,-882 207.84,-882"/>
<polygon fill="black" stroke="black" points="207.84,-885.5 217.84,-882 207.84,-878.5 207.84,-885.5"/>
</g>
<!-- alarm_rec -->
<g id="node3" class="node">
<title>alarm_rec</title>
<text text-anchor="middle" x="91" y="-1148.3" font-family="Times,serif" font-size="14.00">User requested update</text>
</g>
<!-- recipe -->
<g id="node6" class="node">
<title>recipe</title>
<ellipse fill="none" stroke="black" cx="292.09" cy="-1152" rx="42.49" ry="42.49"/>
<text text-anchor="middle" x="292.09" y="-1148.3" font-family="Times,serif" font-size="14.00">Recipe</text>
</g>
<!-- alarm_rec&#45;&gt;recipe -->
<g id="edge3" class="edge">
<title>alarm_rec&#45;&gt;recipe</title>
<path fill="none" stroke="black" stroke-dasharray="5,2" d="M182.13,-1152C182.13,-1152 239.74,-1152 239.74,-1152"/>
<polygon fill="black" stroke="black" points="239.74,-1155.5 249.74,-1152 239.74,-1148.5 239.74,-1155.5"/>
</g>
<!-- l1_nfov_a_nllut -->
<g id="node9" class="node">
<title>l1_nfov_a_nllut</title>
<polygon fill="none" stroke="black" points="649.27,-732 460.27,-732 460.27,-708 649.27,-708 661.27,-720 649.27,-732"/>
<text text-anchor="middle" x="560.77" y="-716.3" font-family="Times,serif" font-size="14.00">non linear calibration 1..1</text>
</g>
<!-- calib&#45;&gt;l1_nfov_a_nllut -->
<g id="edge4" class="edge">
<title>calib&#45;&gt;l1_nfov_a_nllut</title>
<path fill="none" stroke="black" d="M271.36,-428.15C271.36,-528.18 271.36,-720 271.36,-720 271.36,-720 449.96,-720 449.96,-720"/>
<polygon fill="black" stroke="black" points="449.96,-723.5 459.96,-720 449.96,-716.5 449.96,-723.5"/>
</g>
<!-- l2a_nfov_a_mbpm -->
<g id="node12" class="node">
<title>l2a_nfov_a_mbpm</title>
<polygon fill="none" stroke="black" points="648.27,-678 461.27,-678 461.27,-654 648.27,-654 660.27,-666 648.27,-678"/>
<text text-anchor="middle" x="560.77" y="-662.3" font-family="Times,serif" font-size="14.00">nfov_a bad pixel map 1..1</text>
</g>
<!-- calib&#45;&gt;l2a_nfov_a_mbpm -->
<g id="edge5" class="edge">
<title>calib&#45;&gt;l2a_nfov_a_mbpm</title>
<path fill="none" stroke="black" d="M313.36,-427.68C313.36,-514.23 313.36,-666 313.36,-666 313.36,-666 451.21,-666 451.21,-666"/>
<polygon fill="black" stroke="black" points="451.21,-669.5 461.21,-666 451.21,-662.5 451.21,-669.5"/>
</g>
<!-- l2a_nfov_a_dnb -->
<g id="node13" class="node">
<title>l2a_nfov_a_dnb</title>
<polygon fill="none" stroke="black" points="699.77,-624 409.77,-624 409.77,-600 699.77,-600 711.77,-612 699.77,-624"/>
<text text-anchor="middle" x="560.77" y="-608.3" font-family="Times,serif" font-size="14.00">nfov_a dark (CIC/FPN/dark current) 1..1</text>
</g>
<!-- calib&#45;&gt;l2a_nfov_a_dnb -->
<g id="edge6" class="edge">
<title>calib&#45;&gt;l2a_nfov_a_dnb</title>
<path fill="none" stroke="black" d="M312.73,-427.92C347.82,-427.92 415.36,-427.92 415.36,-427.92 415.36,-427.92 415.36,-583.68 415.36,-583.68"/>
<polygon fill="black" stroke="black" points="411.86,-583.68 415.36,-593.68 418.86,-583.68 411.86,-583.68"/>
</g>
<!-- l2a_nfov_a_cti -->
<g id="node14" class="node">
<title>l2a_nfov_a_cti</title>
<polygon fill="none" stroke="black" points="689.27,-570 420.27,-570 420.27,-546 689.27,-546 701.27,-558 689.27,-570"/>
<text text-anchor="middle" x="560.77" y="-554.3" font-family="Times,serif" font-size="14.00">nfov_a charge transfer efficiency 1..1</text>
</g>
<!-- calib&#45;&gt;l2a_nfov_a_cti -->
<g id="edge7" class="edge">
<title>calib&#45;&gt;l2a_nfov_a_cti</title>
<path fill="none" stroke="black" d="M320.9,-424.44C360.35,-424.44 426.36,-424.44 426.36,-424.44 426.36,-424.44 426.36,-529.99 426.36,-529.99"/>
<polygon fill="black" stroke="black" points="422.86,-529.99 426.36,-539.99 429.86,-529.99 422.86,-529.99"/>
</g>
<!-- l2a_nfov_a_ff -->
<g id="node15" class="node">
<title>l2a_nfov_a_ff</title>
<polygon fill="none" stroke="black" points="627.27,-516 482.27,-516 482.27,-492 627.27,-492 639.27,-504 627.27,-516"/>
<text text-anchor="middle" x="560.77" y="-500.3" font-family="Times,serif" font-size="14.00">nfov_a flat field 1..1</text>
</g>
<!-- calib&#45;&gt;l2a_nfov_a_ff -->
<g id="edge8" class="edge">
<title>calib&#45;&gt;l2a_nfov_a_ff</title>
<path fill="none" stroke="black" d="M326.82,-420.96C382.7,-420.96 486.36,-420.96 486.36,-420.96 486.36,-420.96 486.36,-475.98 486.36,-475.98"/>
<polygon fill="black" stroke="black" points="482.86,-475.98 486.36,-485.98 489.86,-475.98 482.86,-475.98"/>
</g>
<!-- l2a_nfov_a_kgain -->
<g id="node16" class="node">
<title>l2a_nfov_a_kgain</title>
<polygon fill="none" stroke="black" points="619.77,-462 489.77,-462 489.77,-438 619.77,-438 631.77,-450 619.77,-462"/>
<text text-anchor="middle" x="560.77" y="-446.3" font-family="Times,serif" font-size="14.00">nfov_a k&#45;gain 1..1</text>
</g>
<!-- calib&#45;&gt;l2a_nfov_a_kgain -->
<g id="edge9" class="edge">
<title>calib&#45;&gt;l2a_nfov_a_kgain</title>
<path fill="none" stroke="black" d="M331.54,-417.48C406.33,-417.48 561.36,-417.48 561.36,-417.48 561.36,-417.48 561.36,-421.84 561.36,-421.84"/>
<polygon fill="black" stroke="black" points="557.86,-421.84 561.36,-431.84 564.86,-421.84 557.86,-421.84"/>
</g>
<!-- l2a_nfov_a_emg -->
<g id="node17" class="node">
<title>l2a_nfov_a_emg</title>
<polygon fill="none" stroke="black" points="627.77,-408 481.77,-408 481.77,-384 627.77,-384 639.77,-396 627.77,-408"/>
<text text-anchor="middle" x="560.77" y="-392.3" font-family="Times,serif" font-size="14.00">nfov_a EM gain 1..1</text>
</g>
<!-- calib&#45;&gt;l2a_nfov_a_emg -->
<g id="edge10" class="edge">
<title>calib&#45;&gt;l2a_nfov_a_emg</title>
<path fill="none" stroke="black" d="M348.42,-396C348.42,-396 471.59,-396 471.59,-396"/>
<polygon fill="black" stroke="black" points="471.59,-399.5 481.59,-396 471.59,-392.5 471.59,-399.5"/>
</g>
<!-- l2b_nfov_a_distm -->
<g id="node20" class="node">
<title>l2b_nfov_a_distm</title>
<polygon fill="none" stroke="black" points="650.27,-354 459.27,-354 459.27,-330 650.27,-330 662.27,-342 650.27,-354"/>
<text text-anchor="middle" x="560.77" y="-338.3" font-family="Times,serif" font-size="14.00">nfov_a distortion map 1..1</text>
</g>
<!-- calib&#45;&gt;l2b_nfov_a_distm -->
<g id="edge11" class="edge">
<title>calib&#45;&gt;l2b_nfov_a_distm</title>
<path fill="none" stroke="black" d="M348.42,-342C348.42,-342 449.2,-342 449.2,-342"/>
<polygon fill="black" stroke="black" points="449.2,-345.5 459.2,-342 449.2,-338.5 449.2,-345.5"/>
</g>
<!-- l2b_nfov_a_excicrf -->
<g id="node21" class="node">
<title>l2b_nfov_a_excicrf</title>
<polygon fill="none" stroke="black" points="675.77,-300 433.77,-300 433.77,-276 675.77,-276 687.77,-288 675.77,-300"/>
<text text-anchor="middle" x="560.77" y="-284.3" font-family="Times,serif" font-size="14.00">nfov_a EXCAM ICRF location 1..1</text>
</g>
<!-- calib&#45;&gt;l2b_nfov_a_excicrf -->
<g id="edge12" class="edge">
<title>calib&#45;&gt;l2b_nfov_a_excicrf</title>
<path fill="none" stroke="black" d="M323.89,-315.3C369.31,-315.3 447.36,-315.3 447.36,-315.3 447.36,-315.3 447.36,-314.38 447.36,-314.38"/>
<polygon fill="black" stroke="black" points="450.86,-316.06 447.36,-306.06 443.86,-316.06 450.86,-316.06"/>
</g>
<!-- l2b_nfov_a_excfovps -->
<g id="node22" class="node">
<title>l2b_nfov_a_excfovps</title>
<polygon fill="none" stroke="black" points="677.77,-246 431.77,-246 431.77,-222 677.77,-222 689.77,-234 677.77,-246"/>
<text text-anchor="middle" x="560.77" y="-230.3" font-family="Times,serif" font-size="14.00">nfov_a ECAM FOV pixel scale 1..1</text>
</g>
<!-- calib&#45;&gt;l2b_nfov_a_excfovps -->
<g id="edge13" class="edge">
<title>calib&#45;&gt;l2b_nfov_a_excfovps</title>
<path fill="none" stroke="black" d="M334.36,-322.92C334.36,-283.81 334.36,-234 334.36,-234 334.36,-234 421.69,-234 421.69,-234"/>
<polygon fill="black" stroke="black" points="421.69,-237.5 431.69,-234 421.69,-230.5 421.69,-237.5"/>
</g>
<!-- l3_nfov_a_cal -->
<g id="node25" class="node">
<title>l3_nfov_a_cal</title>
<polygon fill="none" stroke="black" points="636.27,-192 473.27,-192 473.27,-168 636.27,-168 648.27,-180 636.27,-192"/>
<text text-anchor="middle" x="560.77" y="-176.3" font-family="Times,serif" font-size="14.00">nfov_a calibration 1..1</text>
</g>
<!-- calib&#45;&gt;l3_nfov_a_cal -->
<g id="edge14" class="edge">
<title>calib&#45;&gt;l3_nfov_a_cal</title>
<path fill="none" stroke="black" d="M313.36,-310.24C313.36,-254.75 313.36,-180 313.36,-180 313.36,-180 463.2,-180 463.2,-180"/>
<polygon fill="black" stroke="black" points="463.2,-183.5 473.2,-180 463.2,-176.5 463.2,-183.5"/>
</g>
<!-- l4_nfov_a_afcal -->
<g id="node28" class="node">
<title>l4_nfov_a_afcal</title>
<polygon fill="none" stroke="black" points="643.77,-138 465.77,-138 465.77,-114 643.77,-114 655.77,-126 643.77,-138"/>
<text text-anchor="middle" x="560.77" y="-122.3" font-family="Times,serif" font-size="14.00">nfov_a absolute flux 1..1</text>
</g>
<!-- calib&#45;&gt;l4_nfov_a_afcal -->
<g id="edge15" class="edge">
<title>calib&#45;&gt;l4_nfov_a_afcal</title>
<path fill="none" stroke="black" d="M292.36,-306.42C292.36,-234.42 292.36,-126 292.36,-126 292.36,-126 455.76,-126 455.76,-126"/>
<polygon fill="black" stroke="black" points="455.76,-129.5 465.76,-126 455.76,-122.5 455.76,-129.5"/>
</g>
<!-- l4_nfov_a_ctcal -->
<g id="node29" class="node">
<title>l4_nfov_a_ctcal</title>
<polygon fill="none" stroke="black" points="656.27,-84 453.27,-84 453.27,-60 656.27,-60 668.27,-72 656.27,-84"/>
<text text-anchor="middle" x="560.77" y="-68.3" font-family="Times,serif" font-size="14.00">nfov_a core throughput 1..1</text>
</g>
<!-- calib&#45;&gt;l4_nfov_a_ctcal -->
<g id="edge16" class="edge">
<title>calib&#45;&gt;l4_nfov_a_ctcal</title>
<path fill="none" stroke="black" d="M271.36,-309.97C271.36,-223.35 271.36,-72 271.36,-72 271.36,-72 443.01,-72 443.01,-72"/>
<polygon fill="black" stroke="black" points="443.01,-75.5 453.01,-72 443.01,-68.5 443.01,-75.5"/>
</g>
<!-- l4_nfov_a_ndfilt -->
<g id="node30" class="node">
<title>l4_nfov_a_ndfilt</title>
<polygon fill="none" stroke="black" points="629.27,-30 480.27,-30 480.27,-6 629.27,-6 641.27,-18 629.27,-30"/>
<text text-anchor="middle" x="560.77" y="-14.3" font-family="Times,serif" font-size="14.00">nfov_a ND filter 1..1</text>
</g>
<!-- calib&#45;&gt;l4_nfov_a_ndfilt -->
<g id="edge17" class="edge">
<title>calib&#45;&gt;l4_nfov_a_ndfilt</title>
<path fill="none" stroke="black" d="M251.36,-321.66C251.36,-225.85 251.36,-18 251.36,-18 251.36,-18 469.88,-18 469.88,-18"/>
<polygon fill="black" stroke="black" points="469.88,-21.5 479.88,-18 469.88,-14.5 469.88,-21.5"/>
</g>
<!-- l1_nfov_a_odir -->
<g id="node7" class="node">
<title>l1_nfov_a_odir</title>
<ellipse fill="none" stroke="black" cx="560.77" cy="-990" rx="152.97" ry="18"/>
<text text-anchor="middle" x="560.77" y="-986.3" font-family="Times,serif" font-size="14.00">Output path for L1_nfov_a 1..1</text>
</g>
<!-- config&#45;&gt;l1_nfov_a_odir -->
<g id="edge18" class="edge">
<title>config&#45;&gt;l1_nfov_a_odir</title>
<path fill="none" stroke="black" d="M350.36,-927.8C350.36,-957.24 350.36,-990 350.36,-990 350.36,-990 397.86,-990 397.86,-990"/>
<polygon fill="black" stroke="black" points="397.86,-993.5 407.86,-990 397.86,-986.5 397.86,-993.5"/>
</g>
<!-- l2a_nfov_a_odir -->
<g id="node10" class="node">
<title>l2a_nfov_a_odir</title>
<ellipse fill="none" stroke="black" cx="560.77" cy="-936" rx="157.87" ry="18"/>
<text text-anchor="middle" x="560.77" y="-932.3" font-family="Times,serif" font-size="14.00">Output path for L2a_nfov_a 1..1</text>
</g>
<!-- config&#45;&gt;l2a_nfov_a_odir -->
<g id="edge19" class="edge">
<title>config&#45;&gt;l2a_nfov_a_odir</title>
<path fill="none" stroke="black" d="M342.95,-936C342.95,-936 392.81,-936 392.81,-936"/>
<polygon fill="black" stroke="black" points="392.81,-939.5 402.81,-936 392.81,-932.5 392.81,-939.5"/>
</g>
<!-- l2b_nfov_a_odir -->
<g id="node18" class="node">
<title>l2b_nfov_a_odir</title>
<ellipse fill="none" stroke="black" cx="560.77" cy="-882" rx="158.67" ry="18"/>
<text text-anchor="middle" x="560.77" y="-878.3" font-family="Times,serif" font-size="14.00">Output path for L2b_nfov_a 1..1</text>
</g>
<!-- config&#45;&gt;l2b_nfov_a_odir -->
<g id="edge20" class="edge">
<title>config&#45;&gt;l2b_nfov_a_odir</title>
<path fill="none" stroke="black" d="M366.22,-882C366.22,-882 391.97,-882 391.97,-882"/>
<polygon fill="black" stroke="black" points="391.97,-885.5 401.97,-882 391.97,-878.5 391.97,-885.5"/>
</g>
<!-- l3_nfov_a_odir -->
<g id="node23" class="node">
<title>l3_nfov_a_odir</title>
<ellipse fill="none" stroke="black" cx="560.77" cy="-828" rx="152.97" ry="18"/>
<text text-anchor="middle" x="560.77" y="-824.3" font-family="Times,serif" font-size="14.00">Output path for L3_nfov_a 1..1</text>
</g>
<!-- config&#45;&gt;l3_nfov_a_odir -->
<g id="edge21" class="edge">
<title>config&#45;&gt;l3_nfov_a_odir</title>
<path fill="none" stroke="black" d="M342.95,-828C342.95,-828 397.87,-828 397.87,-828"/>
<polygon fill="black" stroke="black" points="397.87,-831.5 407.87,-828 397.87,-824.5 397.87,-831.5"/>
</g>
<!-- l4_nfov_a_odir -->
<g id="node26" class="node">
<title>l4_nfov_a_odir</title>
<ellipse fill="none" stroke="black" cx="560.77" cy="-774" rx="152.97" ry="18"/>
<text text-anchor="middle" x="560.77" y="-770.3" font-family="Times,serif" font-size="14.00">Output path for L4_nfov_a 1..1</text>
</g>
<!-- config&#45;&gt;l4_nfov_a_odir -->
<g id="edge22" class="edge">
<title>config&#45;&gt;l4_nfov_a_odir</title>
<path fill="none" stroke="black" d="M360.36,-853.06C360.36,-821.07 360.36,-774 360.36,-774 360.36,-774 397.85,-774 397.85,-774"/>
<polygon fill="black" stroke="black" points="397.85,-777.5 407.85,-774 397.85,-770.5 397.85,-777.5"/>
</g>
<!-- l1_nfov_a_rec -->
<g id="node8" class="node">
<title>l1_nfov_a_rec</title>
<polygon fill="none" stroke="black" points="632.27,-1272 477.27,-1272 477.27,-1248 632.27,-1248 644.27,-1260 632.27,-1272"/>
<text text-anchor="middle" x="560.77" y="-1256.3" font-family="Times,serif" font-size="14.00">recipe L1_nfov_a 1..1</text>
</g>
<!-- recipe&#45;&gt;l1_nfov_a_rec -->
<g id="edge23" class="edge">
<title>recipe&#45;&gt;l1_nfov_a_rec</title>
<path fill="none" stroke="black" d="M278.36,-1192.22C278.36,-1222.92 278.36,-1260 278.36,-1260 278.36,-1260 467.19,-1260 467.19,-1260"/>
<polygon fill="black" stroke="black" points="467.19,-1263.5 477.19,-1260 467.19,-1256.5 467.19,-1263.5"/>
</g>
<!-- l2a_nfov_a_rec -->
<g id="node11" class="node">
<title>l2a_nfov_a_rec</title>
<polygon fill="none" stroke="black" points="636.77,-1218 472.77,-1218 472.77,-1194 636.77,-1194 648.77,-1206 636.77,-1218"/>
<text text-anchor="middle" x="560.77" y="-1202.3" font-family="Times,serif" font-size="14.00">recipe L2a_nfov_a 1..1</text>
</g>
<!-- recipe&#45;&gt;l2a_nfov_a_rec -->
<g id="edge24" class="edge">
<title>recipe&#45;&gt;l2a_nfov_a_rec</title>
<path fill="none" stroke="black" d="M306.36,-1191.98C306.36,-1201.58 306.36,-1209.12 306.36,-1209.12 306.36,-1209.12 462.51,-1209.12 462.51,-1209.12"/>
<polygon fill="black" stroke="black" points="462.51,-1212.62 472.51,-1209.12 462.51,-1205.62 462.51,-1212.62"/>
</g>
<!-- l2b_nfov_a_rec -->
<g id="node19" class="node">
<title>l2b_nfov_a_rec</title>
<polygon fill="none" stroke="black" points="636.77,-1164 472.77,-1164 472.77,-1140 636.77,-1140 648.77,-1152 636.77,-1164"/>
<text text-anchor="middle" x="560.77" y="-1148.3" font-family="Times,serif" font-size="14.00">recipe L2b_nfov_a 1..1</text>
</g>
<!-- recipe&#45;&gt;l2b_nfov_a_rec -->
<g id="edge25" class="edge">
<title>recipe&#45;&gt;l2b_nfov_a_rec</title>
<path fill="none" stroke="black" d="M334.37,-1152C334.37,-1152 462.62,-1152 462.62,-1152"/>
<polygon fill="black" stroke="black" points="462.62,-1155.5 472.62,-1152 462.62,-1148.5 462.62,-1155.5"/>
</g>
<!-- l3_nfov_a_rec -->
<g id="node24" class="node">
<title>l3_nfov_a_rec</title>
<polygon fill="none" stroke="black" points="632.27,-1110 477.27,-1110 477.27,-1086 632.27,-1086 644.27,-1098 632.27,-1110"/>
<text text-anchor="middle" x="560.77" y="-1094.3" font-family="Times,serif" font-size="14.00">recipe L3_nfov_a 1..1</text>
</g>
<!-- recipe&#45;&gt;l3_nfov_a_rec -->
<g id="edge26" class="edge">
<title>recipe&#45;&gt;l3_nfov_a_rec</title>
<path fill="none" stroke="black" d="M306.36,-1112.02C306.36,-1102.42 306.36,-1094.88 306.36,-1094.88 306.36,-1094.88 467.12,-1094.88 467.12,-1094.88"/>
<polygon fill="black" stroke="black" points="467.12,-1098.38 477.12,-1094.88 467.12,-1091.38 467.12,-1098.38"/>
</g>
<!-- l4_nfov_a_rec -->
<g id="node27" class="node">
<title>l4_nfov_a_rec</title>
<polygon fill="none" stroke="black" points="632.27,-1056 477.27,-1056 477.27,-1032 632.27,-1032 644.27,-1044 632.27,-1056"/>
<text text-anchor="middle" x="560.77" y="-1040.3" font-family="Times,serif" font-size="14.00">recipe L4_nfov_a 1..1</text>
</g>
<!-- recipe&#45;&gt;l4_nfov_a_rec -->
<g id="edge27" class="edge">
<title>recipe&#45;&gt;l4_nfov_a_rec</title>
<path fill="none" stroke="black" d="M278.36,-1111.78C278.36,-1081.08 278.36,-1044 278.36,-1044 278.36,-1044 467.19,-1044 467.19,-1044"/>
<polygon fill="black" stroke="black" points="467.19,-1047.5 477.19,-1044 467.19,-1040.5 467.19,-1047.5"/>
</g>
</g>
</svg>
