<?xml version="1.0" encoding="UTF-8" standalone="no"?>
<!DOCTYPE svg PUBLIC "-//W3C//DTD SVG 1.1//EN"
 "http://www.w3.org/Graphics/SVG/1.1/DTD/svg11.dtd">
<!-- Generated by graphviz version 2.43.0 (0)
 -->
<!-- Title: PolPCClerks Pages: 1 -->
<svg width="726pt" height="1340pt"
 viewBox="0.00 0.00 726.06 1340.00" xmlns="http://www.w3.org/2000/svg" xmlns:xlink="http://www.w3.org/1999/xlink">
<g id="graph0" class="graph" transform="scale(1 1) rotate(0) translate(4 1336)">
<title>PolPCClerks</title>
<polygon fill="white" stroke="transparent" points="-4,4 -4,-1336 722.06,-1336 722.06,4 -4,4"/>
<!-- alarm_cal -->
<g id="node1" class="node">
<title>alarm_cal</title>
<text text-anchor="middle" x="91" y="-392.3" font-family="Times,serif" font-size="14.00">User requested update</text>
</g>
<!-- calib -->
<g id="node4" class="node">
<title>calib</title>
<ellipse fill="none" stroke="black" cx="292.09" cy="-396" rx="62.29" ry="62.29"/>
<text text-anchor="middle" x="292.09" y="-392.3" font-family="Times,serif" font-size="14.00">Calibration</text>
</g>
<!-- alarm_cal&#45;&gt;calib -->
<g id="edge1" class="edge">
<title>alarm_cal&#45;&gt;calib</title>
<path fill="none" stroke="black" stroke-dasharray="5,2" d="M182.13,-396C182.13,-396 219.47,-396 219.47,-396"/>
<polygon fill="black" stroke="black" points="219.47,-399.5 229.47,-396 219.47,-392.5 219.47,-399.5"/>
</g>
<!-- alarm_cnf -->
<g id="node2" class="node">
<title>alarm_cnf</title>
<text text-anchor="middle" x="91" y="-932.3" font-family="Times,serif" font-size="14.00">User requested update</text>
</g>
<!-- config -->
<g id="node5" class="node">
<title>config</title>
<ellipse fill="none" stroke="black" cx="292.09" cy="-936" rx="74.19" ry="74.19"/>
<text text-anchor="middle" x="292.09" y="-932.3" font-family="Times,serif" font-size="14.00">Configuration</text>
</g>
<!-- alarm_cnf&#45;&gt;config -->
<g id="edge2" class="edge">
<title>alarm_cnf&#45;&gt;config</title>
<path fill="none" stroke="black" stroke-dasharray="5,2" d="M182.13,-936C182.13,-936 207.84,-936 207.84,-936"/>
<polygon fill="black" stroke="black" points="207.84,-939.5 217.84,-936 207.84,-932.5 207.84,-939.5"/>
</g>
<!-- alarm_rec -->
<g id="node3" class="node">
<title>alarm_rec</title>
<text text-anchor="middle" x="91" y="-1202.3" font-family="Times,serif" font-size="14.00">User requested update</text>
</g>
<!-- recipe -->
<g id="node6" class="node">
<title>recipe</title>
<ellipse fill="none" stroke="black" cx="292.09" cy="-1206" rx="42.49" ry="42.49"/>
<text text-anchor="middle" x="292.09" y="-1202.3" font-family="Times,serif" font-size="14.00">Recipe</text>
</g>
<!-- alarm_rec&#45;&gt;recipe -->
<g id="edge3" class="edge">
<title>alarm_rec&#45;&gt;recipe</title>
<path fill="none" stroke="black" stroke-dasharray="5,2" d="M182.13,-1206C182.13,-1206 239.74,-1206 239.74,-1206"/>
<polygon fill="black" stroke="black" points="239.74,-1209.5 249.74,-1206 239.74,-1202.5 239.74,-1209.5"/>
</g>
<!-- l1_pol_pc_nllut -->
<g id="node9" class="node">
<title>l1_pol_pc_nllut</title>
<polygon fill="none" stroke="black" points="648.62,-786 459.62,-786 459.62,-762 648.62,-762 660.62,-774 648.62,-786"/>
<text text-anchor="middle" x="560.12" y="-770.3" font-family="Times,serif" font-size="14.00">non linear calibration 1..1</text>
</g>
<!-- calib&#45;&gt;l1_pol_pc_nllut -->
<g id="edge4" class="edge">
<title>calib&#45;&gt;l1_pol_pc_nllut</title>
<path fill="none" stroke="black" d="M255.06,-446.59C255.06,-549.59 255.06,-774 255.06,-774 255.06,-774 449.39,-774 449.39,-774"/>
<polygon fill="black" stroke="black" points="449.39,-777.5 459.39,-774 449.39,-770.5 449.39,-777.5"/>
</g>
<!-- l2a_pol_pc_mbpm -->
<g id="node12" class="node">
<title>l2a_pol_pc_mbpm</title>
<polygon fill="none" stroke="black" points="647.12,-732 461.12,-732 461.12,-708 647.12,-708 659.12,-720 647.12,-732"/>
<text text-anchor="middle" x="560.12" y="-716.3" font-family="Times,serif" font-size="14.00">pol_pc bad pixel map 1..1</text>
</g>
<!-- calib&#45;&gt;l2a_pol_pc_mbpm -->
<g id="edge5" class="edge">
<title>calib&#45;&gt;l2a_pol_pc_mbpm</title>
<path fill="none" stroke="black" d="M280.06,-457.32C280.06,-551.25 280.06,-720 280.06,-720 280.06,-720 450.99,-720 450.99,-720"/>
<polygon fill="black" stroke="black" points="450.99,-723.5 460.99,-720 450.99,-716.5 450.99,-723.5"/>
</g>
<!-- l2a_pol_pc_dnb -->
<g id="node13" class="node">
<title>l2a_pol_pc_dnb</title>
<polygon fill="none" stroke="black" points="699.12,-678 409.12,-678 409.12,-654 699.12,-654 711.12,-666 699.12,-678"/>
<text text-anchor="middle" x="560.12" y="-662.3" font-family="Times,serif" font-size="14.00">pol_pc dark (CIC/FPN/dark current) 1..1</text>
</g>
<!-- calib&#45;&gt;l2a_pol_pc_dnb -->
<g id="edge6" class="edge">
<title>calib&#45;&gt;l2a_pol_pc_dnb</title>
<path fill="none" stroke="black" d="M320.3,-451.8C356.61,-451.8 415.06,-451.8 415.06,-451.8 415.06,-451.8 415.06,-637.74 415.06,-637.74"/>
<polygon fill="black" stroke="black" points="411.56,-637.74 415.06,-647.74 418.56,-637.74 411.56,-637.74"/>
</g>
<!-- l2a_pol_pc_cti -->
<g id="node14" class="node">
<title>l2a_pol_pc_cti</title>
<polygon fill="none" stroke="black" points="688.62,-624 419.62,-624 419.62,-600 688.62,-600 700.62,-612 688.62,-624"/>
<text text-anchor="middle" x="560.12" y="-608.3" font-family="Times,serif" font-size="14.00">pol_pc charge transfer efficiency 1..1</text>
</g>
<!-- calib&#45;&gt;l2a_pol_pc_cti -->
<g id="edge7" class="edge">
<title>calib&#45;&gt;l2a_pol_pc_cti</title>
<path fill="none" stroke="black" d="M330.48,-445.2C370.07,-445.2 426.06,-445.2 426.06,-445.2 426.06,-445.2 426.06,-583.83 426.06,-583.83"/>
<polygon fill="black" stroke="black" points="422.56,-583.83 426.06,-593.83 429.56,-583.83 422.56,-583.83"/>
</g>
<!-- l2a_pol_pc_polff -->
<g id="node15" class="node">
<title>l2a_pol_pc_polff</title>
<polygon fill="none" stroke="black" points="626.12,-570 482.12,-570 482.12,-546 626.12,-546 638.12,-558 626.12,-570"/>
<text text-anchor="middle" x="560.12" y="-554.3" font-family="Times,serif" font-size="14.00">pol_pc flat field 1..1</text>
</g>
<!-- calib&#45;&gt;l2a_pol_pc_polff -->
<g id="edge8" class="edge">
<title>calib&#45;&gt;l2a_pol_pc_polff</title>
<path fill="none" stroke="black" d="M305.06,-457.25C305.06,-503.12 305.06,-558 305.06,-558 305.06,-558 471.86,-558 471.86,-558"/>
<polygon fill="black" stroke="black" points="471.86,-561.5 481.86,-558 471.86,-554.5 471.86,-561.5"/>
</g>
<!-- l2a_pol_pc_kgain -->
<g id="node16" class="node">
<title>l2a_pol_pc_kgain</title>
<polygon fill="none" stroke="black" points="618.62,-516 489.62,-516 489.62,-492 618.62,-492 630.62,-504 618.62,-516"/>
<text text-anchor="middle" x="560.12" y="-500.3" font-family="Times,serif" font-size="14.00">pol_pc k&#45;gain 1..1</text>
</g>
<!-- calib&#45;&gt;l2a_pol_pc_kgain -->
<g id="edge9" class="edge">
<title>calib&#45;&gt;l2a_pol_pc_kgain</title>
<path fill="none" stroke="black" d="M330.06,-445.57C330.06,-473.97 330.06,-504 330.06,-504 330.06,-504 479.53,-504 479.53,-504"/>
<polygon fill="black" stroke="black" points="479.53,-507.5 489.53,-504 479.53,-500.5 479.53,-507.5"/>
</g>
<!-- l2a_pol_pc_emg -->
<g id="node17" class="node">
<title>l2a_pol_pc_emg</title>
<polygon fill="none" stroke="black" points="627.12,-462 481.12,-462 481.12,-438 627.12,-438 639.12,-450 627.12,-462"/>
<text text-anchor="middle" x="560.12" y="-446.3" font-family="Times,serif" font-size="14.00">pol_pc EM gain 1..1</text>
</g>
<!-- calib&#45;&gt;l2a_pol_pc_emg -->
<g id="edge10" class="edge">
<title>calib&#45;&gt;l2a_pol_pc_emg</title>
<path fill="none" stroke="black" d="M337.86,-438.6C337.86,-438.6 470.92,-438.6 470.92,-438.6"/>
<polygon fill="black" stroke="black" points="470.92,-442.1 480.92,-438.6 470.92,-435.1 470.92,-442.1"/>
</g>
<!-- l2b_pol_pc_distm -->
<g id="node20" class="node">
<title>l2b_pol_pc_distm</title>
<polygon fill="none" stroke="black" points="649.62,-408 458.62,-408 458.62,-384 649.62,-384 661.62,-396 649.62,-408"/>
<text text-anchor="middle" x="560.12" y="-392.3" font-family="Times,serif" font-size="14.00">pol_pc distortion map 1..1</text>
</g>
<!-- calib&#45;&gt;l2b_pol_pc_distm -->
<g id="edge11" class="edge">
<title>calib&#45;&gt;l2b_pol_pc_distm</title>
<path fill="none" stroke="black" d="M354.6,-396C354.6,-396 448.38,-396 448.38,-396"/>
<polygon fill="black" stroke="black" points="448.38,-399.5 458.38,-396 448.38,-392.5 448.38,-399.5"/>
</g>
<!-- l2b_pol_pc_excicrf -->
<g id="node21" class="node">
<title>l2b_pol_pc_excicrf</title>
<polygon fill="none" stroke="black" points="675.12,-354 433.12,-354 433.12,-330 675.12,-330 687.12,-342 675.12,-354"/>
<text text-anchor="middle" x="560.12" y="-338.3" font-family="Times,serif" font-size="14.00">pol_pc EXCAM ICRF location 1..1</text>
</g>
<!-- calib&#45;&gt;l2b_pol_pc_excicrf -->
<g id="edge12" class="edge">
<title>calib&#45;&gt;l2b_pol_pc_excicrf</title>
<path fill="none" stroke="black" d="M330.5,-346.8C330.5,-346.8 423.03,-346.8 423.03,-346.8"/>
<polygon fill="black" stroke="black" points="423.03,-350.3 433.03,-346.8 423.03,-343.3 423.03,-350.3"/>
</g>
<!-- l2b_pol_pc_excfovps -->
<g id="node22" class="node">
<title>l2b_pol_pc_excfovps</title>
<polygon fill="none" stroke="black" points="676.62,-300 431.62,-300 431.62,-276 676.62,-276 688.62,-288 676.62,-300"/>
<text text-anchor="middle" x="560.12" y="-284.3" font-family="Times,serif" font-size="14.00">pol_pc ECAM FOV pixel scale 1..1</text>
</g>
<!-- calib&#45;&gt;l2b_pol_pc_excfovps -->
<g id="edge13" class="edge">
<title>calib&#45;&gt;l2b_pol_pc_excfovps</title>
<path fill="none" stroke="black" d="M337.06,-352.69C337.06,-322.65 337.06,-288 337.06,-288 337.06,-288 421.33,-288 421.33,-288"/>
<polygon fill="black" stroke="black" points="421.33,-291.5 431.33,-288 421.33,-284.5 421.33,-291.5"/>
</g>
<!-- l2b_pol_pc_cfamfo -->
<g id="node23" class="node">
<title>l2b_pol_pc_cfamfo</title>
<polygon fill="none" stroke="black" points="661.12,-246 447.12,-246 447.12,-222 661.12,-222 673.12,-234 661.12,-246"/>
<text text-anchor="middle" x="560.12" y="-230.3" font-family="Times,serif" font-size="14.00">spec_a CFAM filter offset 1..1</text>
</g>
<!-- calib&#45;&gt;l2b_pol_pc_cfamfo -->
<g id="edge14" class="edge">
<title>calib&#45;&gt;l2b_pol_pc_cfamfo</title>
<path fill="none" stroke="black" d="M319.06,-339.34C319.06,-292.62 319.06,-234 319.06,-234 319.06,-234 437,-234 437,-234"/>
<polygon fill="black" stroke="black" points="437,-237.5 447,-234 437,-230.5 437,-237.5"/>
</g>
<!-- l3_pol_pc_mueller -->
<g id="node26" class="node">
<title>l3_pol_pc_mueller</title>
<polygon fill="none" stroke="black" points="624.12,-192 484.12,-192 484.12,-168 624.12,-168 636.12,-180 624.12,-192"/>
<text text-anchor="middle" x="560.12" y="-176.3" font-family="Times,serif" font-size="14.00">pol_pc mueller 1..1</text>
</g>
<!-- calib&#45;&gt;l3_pol_pc_mueller -->
<g id="edge15" class="edge">
<title>calib&#45;&gt;l3_pol_pc_mueller</title>
<path fill="none" stroke="black" d="M301.06,-334.1C301.06,-270.28 301.06,-180 301.06,-180 301.06,-180 473.8,-180 473.8,-180"/>
<polygon fill="black" stroke="black" points="473.8,-183.5 483.8,-180 473.8,-176.5 473.8,-183.5"/>
</g>
<!-- l4_pol_pc_afcal -->
<g id="node29" class="node">
<title>l4_pol_pc_afcal</title>
<polygon fill="none" stroke="black" points="642.62,-138 465.62,-138 465.62,-114 642.62,-114 654.62,-126 642.62,-138"/>
<text text-anchor="middle" x="560.12" y="-122.3" font-family="Times,serif" font-size="14.00">pol_pc absolute flux 1..1</text>
</g>
<!-- calib&#45;&gt;l4_pol_pc_afcal -->
<g id="edge16" class="edge">
<title>calib&#45;&gt;l4_pol_pc_afcal</title>
<path fill="none" stroke="black" d="M284.06,-334.06C284.06,-254.34 284.06,-126 284.06,-126 284.06,-126 455.5,-126 455.5,-126"/>
<polygon fill="black" stroke="black" points="455.5,-129.5 465.5,-126 455.5,-122.5 455.5,-129.5"/>
</g>
<!-- l4_pol_pc_ctcal -->
<g id="node30" class="node">
<title>l4_pol_pc_ctcal</title>
<polygon fill="none" stroke="black" points="655.12,-84 453.12,-84 453.12,-60 655.12,-60 667.12,-72 655.12,-84"/>
<text text-anchor="middle" x="560.12" y="-68.3" font-family="Times,serif" font-size="14.00">pol_pc core throughput 1..1</text>
</g>
<!-- calib&#45;&gt;l4_pol_pc_ctcal -->
<g id="edge17" class="edge">
<title>calib&#45;&gt;l4_pol_pc_ctcal</title>
<path fill="none" stroke="black" d="M266.06,-339.19C266.06,-246.27 266.06,-72 266.06,-72 266.06,-72 442.71,-72 442.71,-72"/>
<polygon fill="black" stroke="black" points="442.71,-75.5 452.71,-72 442.71,-68.5 442.71,-75.5"/>
</g>
<!-- l4_pol_pc_ndfilt -->
<g id="node31" class="node">
<title>l4_pol_pc_ndfilt</title>
<polygon fill="none" stroke="black" points="628.12,-30 480.12,-30 480.12,-6 628.12,-6 640.12,-18 628.12,-30"/>
<text text-anchor="middle" x="560.12" y="-14.3" font-family="Times,serif" font-size="14.00">pol_pc ND filter 1..1</text>
</g>
<!-- calib&#45;&gt;l4_pol_pc_ndfilt -->
<g id="edge18" class="edge">
<title>calib&#45;&gt;l4_pol_pc_ndfilt</title>
<path fill="none" stroke="black" d="M248.06,-351.53C248.06,-251.61 248.06,-18 248.06,-18 248.06,-18 469.76,-18 469.76,-18"/>
<polygon fill="black" stroke="black" points="469.76,-21.5 479.76,-18 469.76,-14.5 469.76,-21.5"/>
</g>
<!-- l1_pol_pc_odir -->
<g id="node7" class="node">
<title>l1_pol_pc_odir</title>
<ellipse fill="none" stroke="black" cx="560.12" cy="-1044" rx="152.17" ry="18"/>
<text text-anchor="middle" x="560.12" y="-1040.3" font-family="Times,serif" font-size="14.00">Output path for L1_pol_pc 1..1</text>
</g>
<!-- config&#45;&gt;l1_pol_pc_odir -->
<g id="edge19" class="edge">
<title>config&#45;&gt;l1_pol_pc_odir</title>
<path fill="none" stroke="black" d="M351.06,-981.18C351.06,-1010.77 351.06,-1044 351.06,-1044 351.06,-1044 397.91,-1044 397.91,-1044"/>
<polygon fill="black" stroke="black" points="397.91,-1047.5 407.91,-1044 397.91,-1040.5 397.91,-1047.5"/>
</g>
<!-- l2a_pol_pc_odir -->
<g id="node10" class="node">
<title>l2a_pol_pc_odir</title>
<ellipse fill="none" stroke="black" cx="560.12" cy="-990" rx="157.07" ry="18"/>
<text text-anchor="middle" x="560.12" y="-986.3" font-family="Times,serif" font-size="14.00">Output path for L2a_pol_pc 1..1</text>
</g>
<!-- config&#45;&gt;l2a_pol_pc_odir -->
<g id="edge20" class="edge">
<title>config&#45;&gt;l2a_pol_pc_odir</title>
<path fill="none" stroke="black" d="M343.14,-990C343.14,-990 392.57,-990 392.57,-990"/>
<polygon fill="black" stroke="black" points="392.57,-993.5 402.57,-990 392.57,-986.5 392.57,-993.5"/>
</g>
<!-- l2b_pol_pc_odir -->
<g id="node18" class="node">
<title>l2b_pol_pc_odir</title>
<ellipse fill="none" stroke="black" cx="560.12" cy="-936" rx="157.87" ry="18"/>
<text text-anchor="middle" x="560.12" y="-932.3" font-family="Times,serif" font-size="14.00">Output path for L2b_pol_pc 1..1</text>
</g>
<!-- config&#45;&gt;l2b_pol_pc_odir -->
<g id="edge21" class="edge">
<title>config&#45;&gt;l2b_pol_pc_odir</title>
<path fill="none" stroke="black" d="M366.4,-936C366.4,-936 392.03,-936 392.03,-936"/>
<polygon fill="black" stroke="black" points="392.03,-939.5 402.03,-936 392.03,-932.5 392.03,-939.5"/>
</g>
<!-- l3_pol_pc_odir -->
<g id="node24" class="node">
<title>l3_pol_pc_odir</title>
<ellipse fill="none" stroke="black" cx="560.12" cy="-882" rx="152.17" ry="18"/>
<text text-anchor="middle" x="560.12" y="-878.3" font-family="Times,serif" font-size="14.00">Output path for L3_pol_pc 1..1</text>
</g>
<!-- config&#45;&gt;l3_pol_pc_odir -->
<g id="edge22" class="edge">
<title>config&#45;&gt;l3_pol_pc_odir</title>
<path fill="none" stroke="black" d="M343.14,-882C343.14,-882 397.88,-882 397.88,-882"/>
<polygon fill="black" stroke="black" points="397.88,-885.5 407.88,-882 397.88,-878.5 397.88,-885.5"/>
</g>
<!-- l4_pol_pc_odir -->
<g id="node27" class="node">
<title>l4_pol_pc_odir</title>
<ellipse fill="none" stroke="black" cx="560.12" cy="-828" rx="152.17" ry="18"/>
<text text-anchor="middle" x="560.12" y="-824.3" font-family="Times,serif" font-size="14.00">Output path for L4_pol_pc 1..1</text>
</g>
<!-- config&#45;&gt;l4_pol_pc_odir -->
<g id="edge23" class="edge">
<title>config&#45;&gt;l4_pol_pc_odir</title>
<path fill="none" stroke="black" d="M361.06,-908.75C361.06,-876.75 361.06,-828 361.06,-828 361.06,-828 397.98,-828 397.98,-828"/>
<polygon fill="black" stroke="black" points="397.98,-831.5 407.98,-828 397.98,-824.5 397.98,-831.5"/>
</g>
<!-- l1_pol_pc_rec -->
<g id="node8" class="node">
<title>l1_pol_pc_rec</title>
<polygon fill="none" stroke="black" points="631.62,-1326 476.62,-1326 476.62,-1302 631.62,-1302 643.62,-1314 631.62,-1326"/>
<text text-anchor="middle" x="560.12" y="-1310.3" font-family="Times,serif" font-size="14.00">recipe L1_pol_pc 1..1</text>
</g>
<!-- recipe&#45;&gt;l1_pol_pc_rec -->
<g id="edge24" class="edge">
<title>recipe&#45;&gt;l1_pol_pc_rec</title>
<path fill="none" stroke="black" d="M278.06,-1245.91C278.06,-1276.67 278.06,-1314 278.06,-1314 278.06,-1314 466.26,-1314 466.26,-1314"/>
<polygon fill="black" stroke="black" points="466.26,-1317.5 476.26,-1314 466.26,-1310.5 466.26,-1317.5"/>
</g>
<!-- l2a_pol_pc_rec -->
<g id="node11" class="node">
<title>l2a_pol_pc_rec</title>
<polygon fill="none" stroke="black" points="635.62,-1272 472.62,-1272 472.62,-1248 635.62,-1248 647.62,-1260 635.62,-1272"/>
<text text-anchor="middle" x="560.12" y="-1256.3" font-family="Times,serif" font-size="14.00">recipe L2a_pol_pc 1..1</text>
</g>
<!-- recipe&#45;&gt;l2a_pol_pc_rec -->
<g id="edge25" class="edge">
<title>recipe&#45;&gt;l2a_pol_pc_rec</title>
<path fill="none" stroke="black" d="M307.06,-1245.67C307.06,-1255.42 307.06,-1263.12 307.06,-1263.12 307.06,-1263.12 462.32,-1263.12 462.32,-1263.12"/>
<polygon fill="black" stroke="black" points="462.32,-1266.62 472.32,-1263.12 462.32,-1259.62 462.32,-1266.62"/>
</g>
<!-- l2b_pol_pc_rec -->
<g id="node19" class="node">
<title>l2b_pol_pc_rec</title>
<polygon fill="none" stroke="black" points="636.12,-1218 472.12,-1218 472.12,-1194 636.12,-1194 648.12,-1206 636.12,-1218"/>
<text text-anchor="middle" x="560.12" y="-1202.3" font-family="Times,serif" font-size="14.00">recipe L2b_pol_pc 1..1</text>
</g>
<!-- recipe&#45;&gt;l2b_pol_pc_rec -->
<g id="edge26" class="edge">
<title>recipe&#45;&gt;l2b_pol_pc_rec</title>
<path fill="none" stroke="black" d="M334.56,-1206C334.56,-1206 462.09,-1206 462.09,-1206"/>
<polygon fill="black" stroke="black" points="462.09,-1209.5 472.09,-1206 462.09,-1202.5 462.09,-1209.5"/>
</g>
<!-- l3_pol_pc_rec -->
<g id="node25" class="node">
<title>l3_pol_pc_rec</title>
<polygon fill="none" stroke="black" points="631.62,-1164 476.62,-1164 476.62,-1140 631.62,-1140 643.62,-1152 631.62,-1164"/>
<text text-anchor="middle" x="560.12" y="-1148.3" font-family="Times,serif" font-size="14.00">recipe L3_pol_pc 1..1</text>
</g>
<!-- recipe&#45;&gt;l3_pol_pc_rec -->
<g id="edge27" class="edge">
<title>recipe&#45;&gt;l3_pol_pc_rec</title>
<path fill="none" stroke="black" d="M307.06,-1166.33C307.06,-1156.58 307.06,-1148.88 307.06,-1148.88 307.06,-1148.88 466.56,-1148.88 466.56,-1148.88"/>
<polygon fill="black" stroke="black" points="466.56,-1152.38 476.56,-1148.88 466.56,-1145.38 466.56,-1152.38"/>
</g>
<!-- l4_pol_pc_rec -->
<g id="node28" class="node">
<title>l4_pol_pc_rec</title>
<polygon fill="none" stroke="black" points="631.62,-1110 476.62,-1110 476.62,-1086 631.62,-1086 643.62,-1098 631.62,-1110"/>
<text text-anchor="middle" x="560.12" y="-1094.3" font-family="Times,serif" font-size="14.00">recipe L4_pol_pc 1..1</text>
</g>
<!-- recipe&#45;&gt;l4_pol_pc_rec -->
<g id="edge28" class="edge">
<title>recipe&#45;&gt;l4_pol_pc_rec</title>
<path fill="none" stroke="black" d="M278.06,-1166.09C278.06,-1135.33 278.06,-1098 278.06,-1098 278.06,-1098 466.26,-1098 466.26,-1098"/>
<polygon fill="black" stroke="black" points="466.26,-1101.5 476.26,-1098 466.26,-1094.5 466.26,-1101.5"/>
</g>
</g>
</svg>
