<?xml version="1.0" encoding="UTF-8" standalone="no"?>
<!DOCTYPE svg PUBLIC "-//W3C//DTD SVG 1.1//EN"
 "http://www.w3.org/Graphics/SVG/1.1/DTD/svg11.dtd">
<!-- Generated by graphviz version 2.43.0 (0)
 -->
<!-- Title: PolAClerks Pages: 1 -->
<svg width="860pt" height="1256pt"
 viewBox="0.00 0.00 860.47 1256.00" xmlns="http://www.w3.org/2000/svg" xmlns:xlink="http://www.w3.org/1999/xlink">
<g id="graph0" class="graph" transform="scale(1 1) rotate(0) translate(4 1252)">
<title>PolAClerks</title>
<polygon fill="white" stroke="transparent" points="-4,4 -4,-1252 856.47,-1252 856.47,4 -4,4"/>
<!-- alarm_cal -->
<g id="node1" class="node">
<title>alarm_cal</title>
<text text-anchor="middle" x="91" y="-419.3" font-family="Times,serif" font-size="14.00">User requested update</text>
</g>
<!-- calib -->
<g id="node4" class="node">
<title>calib</title>
<ellipse fill="none" stroke="black" cx="370.74" cy="-396" rx="62.29" ry="62.29"/>
<text text-anchor="middle" x="370.74" y="-392.3" font-family="Times,serif" font-size="14.00">Calibration</text>
</g>
<!-- alarm_cal&#45;&gt;calib -->
<g id="edge1" class="edge">
<title>alarm_cal&#45;&gt;calib</title>
<path fill="none" stroke="black" stroke-dasharray="5,2" d="M182.21,-423C182.21,-423 304.3,-423 304.3,-423"/>
<polygon fill="black" stroke="black" points="304.3,-426.5 314.3,-423 304.3,-419.5 304.3,-426.5"/>
</g>
<!-- alarm_cnf -->
<g id="node2" class="node">
<title>alarm_cnf</title>
<text text-anchor="middle" x="91" y="-365.3" font-family="Times,serif" font-size="14.00">User requested update</text>
</g>
<!-- alarm_cnf&#45;&gt;calib -->
<g id="edge2" class="edge">
<title>alarm_cnf&#45;&gt;calib</title>
<path fill="none" stroke="black" stroke-dasharray="5,2" d="M182.21,-369C182.21,-369 304.3,-369 304.3,-369"/>
<polygon fill="black" stroke="black" points="304.3,-372.5 314.3,-369 304.3,-365.5 304.3,-372.5"/>
</g>
<!-- alarm_rec -->
<g id="node3" class="node">
<title>alarm_rec</title>
<text text-anchor="middle" x="91" y="-932.3" font-family="Times,serif" font-size="14.00">User requested update</text>
</g>
<!-- recipe -->
<g id="node6" class="node">
<title>recipe</title>
<ellipse fill="none" stroke="black" cx="370.74" cy="-936" rx="42.49" ry="42.49"/>
<text text-anchor="middle" x="370.74" y="-932.3" font-family="Times,serif" font-size="14.00">Recipe</text>
</g>
<!-- alarm_rec&#45;&gt;recipe -->
<g id="edge3" class="edge">
<title>alarm_rec&#45;&gt;recipe</title>
<path fill="none" stroke="black" stroke-dasharray="5,2" d="M182.21,-936C182.21,-936 318.19,-936 318.19,-936"/>
<polygon fill="black" stroke="black" points="318.19,-939.5 328.19,-936 318.19,-932.5 318.19,-939.5"/>
</g>
<!-- l1_pol_a_nllut -->
<g id="node9" class="node">
<title>l1_pol_a_nllut</title>
<polygon fill="none" stroke="black" points="794.47,-786 605.47,-786 605.47,-762 794.47,-762 806.47,-774 794.47,-786"/>
<text text-anchor="middle" x="705.97" y="-770.3" font-family="Times,serif" font-size="14.00">non linear calibration 1..1</text>
</g>
<!-- calib&#45;&gt;l1_pol_a_nllut -->
<g id="edge4" class="edge">
<title>calib&#45;&gt;l1_pol_a_nllut</title>
<path fill="none" stroke="black" d="M417.47,-437.53C417.47,-535.73 417.47,-774 417.47,-774 417.47,-774 595.07,-774 595.07,-774"/>
<polygon fill="black" stroke="black" points="595.07,-777.5 605.07,-774 595.07,-770.5 595.07,-777.5"/>
</g>
<!-- l2a_pol_a_mbpm -->
<g id="node12" class="node">
<title>l2a_pol_a_mbpm</title>
<polygon fill="none" stroke="black" points="788.97,-732 610.97,-732 610.97,-708 788.97,-708 800.97,-720 788.97,-732"/>
<text text-anchor="middle" x="705.97" y="-716.3" font-family="Times,serif" font-size="14.00">pol_a bad pixel map 1..1</text>
</g>
<!-- calib&#45;&gt;l2a_pol_a_mbpm -->
<g id="edge5" class="edge">
<title>calib&#45;&gt;l2a_pol_a_mbpm</title>
<path fill="none" stroke="black" d="M421.47,-432.54C421.47,-517.27 421.47,-720 421.47,-720 421.47,-720 600.84,-720 600.84,-720"/>
<polygon fill="black" stroke="black" points="600.84,-723.5 610.84,-720 600.84,-716.5 600.84,-723.5"/>
</g>
<!-- l2a_pol_a_dnb -->
<g id="node13" class="node">
<title>l2a_pol_a_dnb</title>
<polygon fill="none" stroke="black" points="840.47,-678 559.47,-678 559.47,-654 840.47,-654 852.47,-666 840.47,-678"/>
<text text-anchor="middle" x="705.97" y="-662.3" font-family="Times,serif" font-size="14.00">pol_a dark (CIC/FPN/dark current) 1..1</text>
</g>
<!-- calib&#45;&gt;l2a_pol_a_dnb -->
<g id="edge6" class="edge">
<title>calib&#45;&gt;l2a_pol_a_dnb</title>
<path fill="none" stroke="black" d="M399.05,-451.8C453.06,-451.8 565.47,-451.8 565.47,-451.8 565.47,-451.8 565.47,-637.74 565.47,-637.74"/>
<polygon fill="black" stroke="black" points="561.97,-637.74 565.47,-647.74 568.97,-637.74 561.97,-637.74"/>
</g>
<!-- l2a_pol_a_cti -->
<g id="node14" class="node">
<title>l2a_pol_a_cti</title>
<polygon fill="none" stroke="black" points="829.97,-624 569.97,-624 569.97,-600 829.97,-600 841.97,-612 829.97,-624"/>
<text text-anchor="middle" x="705.97" y="-608.3" font-family="Times,serif" font-size="14.00">pol_a charge transfer efficiency 1..1</text>
</g>
<!-- calib&#45;&gt;l2a_pol_a_cti -->
<g id="edge7" class="edge">
<title>calib&#45;&gt;l2a_pol_a_cti</title>
<path fill="none" stroke="black" d="M409.43,-445.2C469.03,-445.2 576.47,-445.2 576.47,-445.2 576.47,-445.2 576.47,-583.83 576.47,-583.83"/>
<polygon fill="black" stroke="black" points="572.97,-583.83 576.47,-593.83 579.97,-583.83 572.97,-583.83"/>
</g>
<!-- l2a_pol_a_polff -->
<g id="node15" class="node">
<title>l2a_pol_a_polff</title>
<polygon fill="none" stroke="black" points="767.97,-570 631.97,-570 631.97,-546 767.97,-546 779.97,-558 767.97,-570"/>
<text text-anchor="middle" x="705.97" y="-554.3" font-family="Times,serif" font-size="14.00">pol_a flat field 1..1</text>
</g>
<!-- calib&#45;&gt;l2a_pol_a_polff -->
<g id="edge8" class="edge">
<title>calib&#45;&gt;l2a_pol_a_polff</title>
<path fill="none" stroke="black" d="M425.47,-426.09C425.47,-472.94 425.47,-558 425.47,-558 425.47,-558 621.91,-558 621.91,-558"/>
<polygon fill="black" stroke="black" points="621.91,-561.5 631.91,-558 621.91,-554.5 621.91,-561.5"/>
</g>
<!-- l2a_pol_a_kgain -->
<g id="node16" class="node">
<title>l2a_pol_a_kgain</title>
<polygon fill="none" stroke="black" points="760.47,-516 639.47,-516 639.47,-492 760.47,-492 772.47,-504 760.47,-516"/>
<text text-anchor="middle" x="705.97" y="-500.3" font-family="Times,serif" font-size="14.00">pol_a k&#45;gain 1..1</text>
</g>
<!-- calib&#45;&gt;l2a_pol_a_kgain -->
<g id="edge9" class="edge">
<title>calib&#45;&gt;l2a_pol_a_kgain</title>
<path fill="none" stroke="black" d="M429.47,-417.08C429.47,-448.51 429.47,-504 429.47,-504 429.47,-504 629.39,-504 629.39,-504"/>
<polygon fill="black" stroke="black" points="629.39,-507.5 639.39,-504 629.39,-500.5 629.39,-507.5"/>
</g>
<!-- l2a_pol_a_emg -->
<g id="node17" class="node">
<title>l2a_pol_a_emg</title>
<polygon fill="none" stroke="black" points="768.47,-462 631.47,-462 631.47,-438 768.47,-438 780.47,-450 768.47,-462"/>
<text text-anchor="middle" x="705.97" y="-446.3" font-family="Times,serif" font-size="14.00">pol_a EM gain 1..1</text>
</g>
<!-- calib&#45;&gt;l2a_pol_a_emg -->
<g id="edge10" class="edge">
<title>calib&#45;&gt;l2a_pol_a_emg</title>
<path fill="none" stroke="black" d="M416.65,-438.6C416.65,-438.6 621.4,-438.6 621.4,-438.6"/>
<polygon fill="black" stroke="black" points="621.4,-442.1 631.4,-438.6 621.4,-435.1 621.4,-442.1"/>
</g>
<!-- l2b_pol_a_distm -->
<g id="node20" class="node">
<title>l2b_pol_a_distm</title>
<polygon fill="none" stroke="black" points="790.97,-408 608.97,-408 608.97,-384 790.97,-384 802.97,-396 790.97,-408"/>
<text text-anchor="middle" x="705.97" y="-392.3" font-family="Times,serif" font-size="14.00">pol_a distortion map 1..1</text>
</g>
<!-- calib&#45;&gt;l2b_pol_a_distm -->
<g id="edge11" class="edge">
<title>calib&#45;&gt;l2b_pol_a_distm</title>
<path fill="none" stroke="black" d="M433.4,-396C433.4,-396 598.69,-396 598.69,-396"/>
<polygon fill="black" stroke="black" points="598.69,-399.5 608.69,-396 598.69,-392.5 598.69,-399.5"/>
</g>
<!-- l2b_pol_a_excicrf -->
<g id="node21" class="node">
<title>l2b_pol_a_excicrf</title>
<polygon fill="none" stroke="black" points="816.47,-354 583.47,-354 583.47,-330 816.47,-330 828.47,-342 816.47,-354"/>
<text text-anchor="middle" x="705.97" y="-338.3" font-family="Times,serif" font-size="14.00">pol_a EXCAM ICRF location 1..1</text>
</g>
<!-- calib&#45;&gt;l2b_pol_a_excicrf -->
<g id="edge12" class="edge">
<title>calib&#45;&gt;l2b_pol_a_excicrf</title>
<path fill="none" stroke="black" d="M409.19,-346.8C409.19,-346.8 573.15,-346.8 573.15,-346.8"/>
<polygon fill="black" stroke="black" points="573.15,-350.3 583.15,-346.8 573.15,-343.3 573.15,-350.3"/>
</g>
<!-- l2b_pol_a_excfovps -->
<g id="node22" class="node">
<title>l2b_pol_a_excfovps</title>
<polygon fill="none" stroke="black" points="818.47,-300 581.47,-300 581.47,-276 818.47,-276 830.47,-288 818.47,-300"/>
<text text-anchor="middle" x="705.97" y="-284.3" font-family="Times,serif" font-size="14.00">pol_a ECAM FOV pixel scale 1..1</text>
</g>
<!-- calib&#45;&gt;l2b_pol_a_excfovps -->
<g id="edge13" class="edge">
<title>calib&#45;&gt;l2b_pol_a_excfovps</title>
<path fill="none" stroke="black" d="M415.47,-352.38C415.47,-322.41 415.47,-288 415.47,-288 415.47,-288 571.09,-288 571.09,-288"/>
<polygon fill="black" stroke="black" points="571.09,-291.5 581.09,-288 571.09,-284.5 571.09,-291.5"/>
</g>
<!-- l2b_pol_a_cfamfo -->
<g id="node23" class="node">
<title>l2b_pol_a_cfamfo</title>
<polygon fill="none" stroke="black" points="806.97,-246 592.97,-246 592.97,-222 806.97,-222 818.97,-234 806.97,-246"/>
<text text-anchor="middle" x="705.97" y="-230.3" font-family="Times,serif" font-size="14.00">spec_a CFAM filter offset 1..1</text>
</g>
<!-- calib&#45;&gt;l2b_pol_a_cfamfo -->
<g id="edge14" class="edge">
<title>calib&#45;&gt;l2b_pol_a_cfamfo</title>
<path fill="none" stroke="black" d="M398.47,-339.79C398.47,-293.01 398.47,-234 398.47,-234 398.47,-234 582.78,-234 582.78,-234"/>
<polygon fill="black" stroke="black" points="582.78,-237.5 592.78,-234 582.78,-230.5 582.78,-237.5"/>
</g>
<!-- l3_pol_a_mueller -->
<g id="node26" class="node">
<title>l3_pol_a_mueller</title>
<polygon fill="none" stroke="black" points="791.97,-192 607.97,-192 607.97,-168 791.97,-168 803.97,-180 791.97,-192"/>
<text text-anchor="middle" x="705.97" y="-176.3" font-family="Times,serif" font-size="14.00">pol_a mueller matrix 1..1</text>
</g>
<!-- calib&#45;&gt;l3_pol_a_mueller -->
<g id="edge15" class="edge">
<title>calib&#45;&gt;l3_pol_a_mueller</title>
<path fill="none" stroke="black" d="M380.47,-334.1C380.47,-270.28 380.47,-180 380.47,-180 380.47,-180 597.87,-180 597.87,-180"/>
<polygon fill="black" stroke="black" points="597.87,-183.5 607.87,-180 597.87,-176.5 597.87,-183.5"/>
</g>
<!-- l4_pol_a_afcal -->
<g id="node29" class="node">
<title>l4_pol_a_afcal</title>
<polygon fill="none" stroke="black" points="784.47,-138 615.47,-138 615.47,-114 784.47,-114 796.47,-126 784.47,-138"/>
<text text-anchor="middle" x="705.97" y="-122.3" font-family="Times,serif" font-size="14.00">pol_a absolute flux 1..1</text>
</g>
<!-- calib&#45;&gt;l4_pol_a_afcal -->
<g id="edge16" class="edge">
<title>calib&#45;&gt;l4_pol_a_afcal</title>
<path fill="none" stroke="black" d="M362.47,-334.06C362.47,-254.34 362.47,-126 362.47,-126 362.47,-126 605.27,-126 605.27,-126"/>
<polygon fill="black" stroke="black" points="605.27,-129.5 615.27,-126 605.27,-122.5 605.27,-129.5"/>
</g>
<!-- l4_pol_a_ctcal -->
<g id="node30" class="node">
<title>l4_pol_a_ctcal</title>
<polygon fill="none" stroke="black" points="796.97,-84 602.97,-84 602.97,-60 796.97,-60 808.97,-72 796.97,-84"/>
<text text-anchor="middle" x="705.97" y="-68.3" font-family="Times,serif" font-size="14.00">pol_a core throughput 1..1</text>
</g>
<!-- calib&#45;&gt;l4_pol_a_ctcal -->
<g id="edge17" class="edge">
<title>calib&#45;&gt;l4_pol_a_ctcal</title>
<path fill="none" stroke="black" d="M344.47,-339.19C344.47,-246.27 344.47,-72 344.47,-72 344.47,-72 592.87,-72 592.87,-72"/>
<polygon fill="black" stroke="black" points="592.87,-75.5 602.87,-72 592.87,-68.5 592.87,-75.5"/>
</g>
<!-- l4_pol_a_ndfilt -->
<g id="node31" class="node">
<title>l4_pol_a_ndfilt</title>
<polygon fill="none" stroke="black" points="769.97,-30 629.97,-30 629.97,-6 769.97,-6 781.97,-18 769.97,-30"/>
<text text-anchor="middle" x="705.97" y="-14.3" font-family="Times,serif" font-size="14.00">pol_a ND filter 1..1</text>
</g>
<!-- calib&#45;&gt;l4_pol_a_ndfilt -->
<g id="edge18" class="edge">
<title>calib&#45;&gt;l4_pol_a_ndfilt</title>
<path fill="none" stroke="black" d="M326.47,-351.9C326.47,-252.19 326.47,-18 326.47,-18 326.47,-18 619.63,-18 619.63,-18"/>
<polygon fill="black" stroke="black" points="619.63,-21.5 629.63,-18 619.63,-14.5 619.63,-21.5"/>
</g>
<!-- config -->
<g id="node5" class="node">
<title>config</title>
<ellipse fill="none" stroke="black" cx="91" cy="-1122" rx="74.19" ry="74.19"/>
<text text-anchor="middle" x="91" y="-1118.3" font-family="Times,serif" font-size="14.00">Configuration</text>
</g>
<!-- l1_pol_a_odir -->
<g id="node7" class="node">
<title>l1_pol_a_odir</title>
<ellipse fill="none" stroke="black" cx="370.74" cy="-1230" rx="146.77" ry="18"/>
<text text-anchor="middle" x="370.74" y="-1226.3" font-family="Times,serif" font-size="14.00">Output path for L1_pol_a 1..1</text>
</g>
<!-- config&#45;&gt;l1_pol_a_odir -->
<g id="edge19" class="edge">
<title>config&#45;&gt;l1_pol_a_odir</title>
<path fill="none" stroke="black" d="M91.47,-1196.12C91.47,-1214.97 91.47,-1230 91.47,-1230 91.47,-1230 213.74,-1230 213.74,-1230"/>
<polygon fill="black" stroke="black" points="213.74,-1233.5 223.74,-1230 213.74,-1226.5 213.74,-1233.5"/>
</g>
<!-- l2a_pol_a_odir -->
<g id="node10" class="node">
<title>l2a_pol_a_odir</title>
<ellipse fill="none" stroke="black" cx="370.74" cy="-1176" rx="152.17" ry="18"/>
<text text-anchor="middle" x="370.74" y="-1172.3" font-family="Times,serif" font-size="14.00">Output path for L2a_pol_a 1..1</text>
</g>
<!-- config&#45;&gt;l2a_pol_a_odir -->
<g id="edge20" class="edge">
<title>config&#45;&gt;l2a_pol_a_odir</title>
<path fill="none" stroke="black" d="M141.98,-1176C141.98,-1176 208.58,-1176 208.58,-1176"/>
<polygon fill="black" stroke="black" points="208.58,-1179.5 218.58,-1176 208.58,-1172.5 208.58,-1179.5"/>
</g>
<!-- l2b_pol_a_odir -->
<g id="node18" class="node">
<title>l2b_pol_a_odir</title>
<ellipse fill="none" stroke="black" cx="370.74" cy="-1122" rx="152.97" ry="18"/>
<text text-anchor="middle" x="370.74" y="-1118.3" font-family="Times,serif" font-size="14.00">Output path for L2b_pol_a 1..1</text>
</g>
<!-- config&#45;&gt;l2b_pol_a_odir -->
<g id="edge21" class="edge">
<title>config&#45;&gt;l2b_pol_a_odir</title>
<path fill="none" stroke="black" d="M165.23,-1122C165.23,-1122 207.94,-1122 207.94,-1122"/>
<polygon fill="black" stroke="black" points="207.94,-1125.5 217.94,-1122 207.94,-1118.5 207.94,-1125.5"/>
</g>
<!-- l3_pol_a_odir -->
<g id="node24" class="node">
<title>l3_pol_a_odir</title>
<ellipse fill="none" stroke="black" cx="370.74" cy="-1068" rx="146.77" ry="18"/>
<text text-anchor="middle" x="370.74" y="-1064.3" font-family="Times,serif" font-size="14.00">Output path for L3_pol_a 1..1</text>
</g>
<!-- config&#45;&gt;l3_pol_a_odir -->
<g id="edge22" class="edge">
<title>config&#45;&gt;l3_pol_a_odir</title>
<path fill="none" stroke="black" d="M141.98,-1068C141.98,-1068 213.64,-1068 213.64,-1068"/>
<polygon fill="black" stroke="black" points="213.64,-1071.5 223.64,-1068 213.64,-1064.5 213.64,-1071.5"/>
</g>
<!-- l4_pol_a_odir -->
<g id="node27" class="node">
<title>l4_pol_a_odir</title>
<ellipse fill="none" stroke="black" cx="370.74" cy="-1014" rx="146.77" ry="18"/>
<text text-anchor="middle" x="370.74" y="-1010.3" font-family="Times,serif" font-size="14.00">Output path for L4_pol_a 1..1</text>
</g>
<!-- config&#45;&gt;l4_pol_a_odir -->
<g id="edge23" class="edge">
<title>config&#45;&gt;l4_pol_a_odir</title>
<path fill="none" stroke="black" d="M91.47,-1047.88C91.47,-1029.03 91.47,-1014 91.47,-1014 91.47,-1014 213.74,-1014 213.74,-1014"/>
<polygon fill="black" stroke="black" points="213.74,-1017.5 223.74,-1014 213.74,-1010.5 213.74,-1017.5"/>
</g>
<!-- l1_pol_a_rec -->
<g id="node8" class="node">
<title>l1_pol_a_rec</title>
<polygon fill="none" stroke="black" points="772.97,-1056 626.97,-1056 626.97,-1032 772.97,-1032 784.97,-1044 772.97,-1056"/>
<text text-anchor="middle" x="705.97" y="-1040.3" font-family="Times,serif" font-size="14.00">recipe L1_pol_a 1..1</text>
</g>
<!-- recipe&#45;&gt;l1_pol_a_rec -->
<g id="edge24" class="edge">
<title>recipe&#45;&gt;l1_pol_a_rec</title>
<path fill="none" stroke="black" d="M403.25,-963C452.79,-963 541.47,-963 541.47,-963 541.47,-963 541.47,-1039.95 541.47,-1039.95 541.47,-1039.95 616.61,-1039.95 616.61,-1039.95"/>
<polygon fill="black" stroke="black" points="616.61,-1043.45 626.61,-1039.95 616.61,-1036.45 616.61,-1043.45"/>
</g>
<!-- l2a_pol_a_rec -->
<g id="node11" class="node">
<title>l2a_pol_a_rec</title>
<polygon fill="none" stroke="black" points="777.47,-1002 622.47,-1002 622.47,-978 777.47,-978 789.47,-990 777.47,-1002"/>
<text text-anchor="middle" x="705.97" y="-986.3" font-family="Times,serif" font-size="14.00">recipe L2a_pol_a 1..1</text>
</g>
<!-- recipe&#45;&gt;l2a_pol_a_rec -->
<g id="edge25" class="edge">
<title>recipe&#45;&gt;l2a_pol_a_rec</title>
<path fill="none" stroke="black" d="M371.47,-978.68C371.47,-983.73 371.47,-987.12 371.47,-987.12 371.47,-987.12 612.43,-987.12 612.43,-987.12"/>
<polygon fill="black" stroke="black" points="612.43,-990.62 622.43,-987.12 612.43,-983.62 612.43,-990.62"/>
</g>
<!-- l2b_pol_a_rec -->
<g id="node19" class="node">
<title>l2b_pol_a_rec</title>
<polygon fill="none" stroke="black" points="777.47,-948 622.47,-948 622.47,-924 777.47,-924 789.47,-936 777.47,-948"/>
<text text-anchor="middle" x="705.97" y="-932.3" font-family="Times,serif" font-size="14.00">recipe L2b_pol_a 1..1</text>
</g>
<!-- recipe&#45;&gt;l2b_pol_a_rec -->
<g id="edge26" class="edge">
<title>recipe&#45;&gt;l2b_pol_a_rec</title>
<path fill="none" stroke="black" d="M413.19,-936C413.19,-936 612.47,-936 612.47,-936"/>
<polygon fill="black" stroke="black" points="612.47,-939.5 622.47,-936 612.47,-932.5 612.47,-939.5"/>
</g>
<!-- l3_pol_a_rec -->
<g id="node25" class="node">
<title>l3_pol_a_rec</title>
<polygon fill="none" stroke="black" points="772.97,-894 626.97,-894 626.97,-870 772.97,-870 784.97,-882 772.97,-894"/>
<text text-anchor="middle" x="705.97" y="-878.3" font-family="Times,serif" font-size="14.00">recipe L3_pol_a 1..1</text>
</g>
<!-- recipe&#45;&gt;l3_pol_a_rec -->
<g id="edge27" class="edge">
<title>recipe&#45;&gt;l3_pol_a_rec</title>
<path fill="none" stroke="black" d="M385.47,-896.33C385.47,-886.58 385.47,-878.88 385.47,-878.88 385.47,-878.88 616.75,-878.88 616.75,-878.88"/>
<polygon fill="black" stroke="black" points="616.75,-882.38 626.75,-878.88 616.75,-875.38 616.75,-882.38"/>
</g>
<!-- l4_pol_a_rec -->
<g id="node28" class="node">
<title>l4_pol_a_rec</title>
<polygon fill="none" stroke="black" points="772.97,-840 626.97,-840 626.97,-816 772.97,-816 784.97,-828 772.97,-840"/>
<text text-anchor="middle" x="705.97" y="-824.3" font-family="Times,serif" font-size="14.00">recipe L4_pol_a 1..1</text>
</g>
<!-- recipe&#45;&gt;l4_pol_a_rec -->
<g id="edge28" class="edge">
<title>recipe&#45;&gt;l4_pol_a_rec</title>
<path fill="none" stroke="black" d="M357.47,-895.78C357.47,-865.08 357.47,-828 357.47,-828 357.47,-828 616.89,-828 616.89,-828"/>
<polygon fill="black" stroke="black" points="616.89,-831.5 626.89,-828 616.89,-824.5 616.89,-831.5"/>
</g>
</g>
</svg>
