<?xml version="1.0" encoding="UTF-8" standalone="no"?>
<!DOCTYPE svg PUBLIC "-//W3C//DTD SVG 1.1//EN"
 "http://www.w3.org/Graphics/SVG/1.1/DTD/svg11.dtd">
<!-- Generated by graphviz version 2.43.0 (0)
 -->
<!-- Title: PolPCClerks Pages: 1 -->
<svg width="726pt" height="1448pt"
 viewBox="0.00 0.00 726.06 1448.00" xmlns="http://www.w3.org/2000/svg" xmlns:xlink="http://www.w3.org/1999/xlink">
<g id="graph0" class="graph" transform="scale(1 1) rotate(0) translate(4 1444)">
<title>PolPCClerks</title>
<polygon fill="white" stroke="transparent" points="-4,4 -4,-1444 722.06,-1444 722.06,4 -4,4"/>
<!-- alarm_cal -->
<g id="node1" class="node">
<title>alarm_cal</title>
<text text-anchor="middle" x="91" y="-446.3" font-family="Times,serif" font-size="14.00">User requested update</text>
</g>
<!-- calib -->
<g id="node4" class="node">
<title>calib</title>
<ellipse fill="none" stroke="black" cx="292.09" cy="-450" rx="62.29" ry="62.29"/>
<text text-anchor="middle" x="292.09" y="-446.3" font-family="Times,serif" font-size="14.00">Calibration</text>
</g>
<!-- alarm_cal&#45;&gt;calib -->
<g id="edge1" class="edge">
<title>alarm_cal&#45;&gt;calib</title>
<path fill="none" stroke="black" stroke-dasharray="5,2" d="M182.13,-450C182.13,-450 219.47,-450 219.47,-450"/>
<polygon fill="black" stroke="black" points="219.47,-453.5 229.47,-450 219.47,-446.5 219.47,-453.5"/>
</g>
<!-- alarm_cnf -->
<g id="node2" class="node">
<title>alarm_cnf</title>
<text text-anchor="middle" x="91" y="-1040.3" font-family="Times,serif" font-size="14.00">User requested update</text>
</g>
<!-- config -->
<g id="node5" class="node">
<title>config</title>
<ellipse fill="none" stroke="black" cx="292.09" cy="-1044" rx="74.19" ry="74.19"/>
<text text-anchor="middle" x="292.09" y="-1040.3" font-family="Times,serif" font-size="14.00">Configuration</text>
</g>
<!-- alarm_cnf&#45;&gt;config -->
<g id="edge2" class="edge">
<title>alarm_cnf&#45;&gt;config</title>
<path fill="none" stroke="black" stroke-dasharray="5,2" d="M182.13,-1044C182.13,-1044 207.84,-1044 207.84,-1044"/>
<polygon fill="black" stroke="black" points="207.84,-1047.5 217.84,-1044 207.84,-1040.5 207.84,-1047.5"/>
</g>
<!-- alarm_rec -->
<g id="node3" class="node">
<title>alarm_rec</title>
<text text-anchor="middle" x="91" y="-1310.3" font-family="Times,serif" font-size="14.00">User requested update</text>
</g>
<!-- recipe -->
<g id="node6" class="node">
<title>recipe</title>
<ellipse fill="none" stroke="black" cx="292.09" cy="-1314" rx="42.49" ry="42.49"/>
<text text-anchor="middle" x="292.09" y="-1310.3" font-family="Times,serif" font-size="14.00">Recipe</text>
</g>
<!-- alarm_rec&#45;&gt;recipe -->
<g id="edge3" class="edge">
<title>alarm_rec&#45;&gt;recipe</title>
<path fill="none" stroke="black" stroke-dasharray="5,2" d="M182.13,-1314C182.13,-1314 239.74,-1314 239.74,-1314"/>
<polygon fill="black" stroke="black" points="239.74,-1317.5 249.74,-1314 239.74,-1310.5 239.74,-1317.5"/>
</g>
<!-- l1_pol_pc_nllut -->
<g id="node9" class="node">
<title>l1_pol_pc_nllut</title>
<polygon fill="none" stroke="black" points="648.62,-894 459.62,-894 459.62,-870 648.62,-870 660.62,-882 648.62,-894"/>
<text text-anchor="middle" x="560.12" y="-878.3" font-family="Times,serif" font-size="14.00">non linear calibration 1..1</text>
</g>
<!-- calib&#45;&gt;l1_pol_pc_nllut -->
<g id="edge4" class="edge">
<title>calib&#45;&gt;l1_pol_pc_nllut</title>
<path fill="none" stroke="black" d="M251.06,-497.05C251.06,-609.02 251.06,-882 251.06,-882 251.06,-882 449.35,-882 449.35,-882"/>
<polygon fill="black" stroke="black" points="449.35,-885.5 459.35,-882 449.35,-878.5 449.35,-885.5"/>
</g>
<!-- l2a_pol_pc_mbpm -->
<g id="node12" class="node">
<title>l2a_pol_pc_mbpm</title>
<polygon fill="none" stroke="black" points="647.12,-840 461.12,-840 461.12,-816 647.12,-816 659.12,-828 647.12,-840"/>
<text text-anchor="middle" x="560.12" y="-824.3" font-family="Times,serif" font-size="14.00">pol_pc bad pixel map 1..1</text>
</g>
<!-- calib&#45;&gt;l2a_pol_pc_mbpm -->
<g id="edge5" class="edge">
<title>calib&#45;&gt;l2a_pol_pc_mbpm</title>
<path fill="none" stroke="black" d="M272.06,-509.48C272.06,-615.93 272.06,-828 272.06,-828 272.06,-828 450.99,-828 450.99,-828"/>
<polygon fill="black" stroke="black" points="450.99,-831.5 460.99,-828 450.99,-824.5 450.99,-831.5"/>
</g>
<!-- l2a_pol_pc_dnb -->
<g id="node13" class="node">
<title>l2a_pol_pc_dnb</title>
<polygon fill="none" stroke="black" points="699.12,-786 409.12,-786 409.12,-762 699.12,-762 711.12,-774 699.12,-786"/>
<text text-anchor="middle" x="560.12" y="-770.3" font-family="Times,serif" font-size="14.00">pol_pc dark (CIC/FPN/dark current) 1..1</text>
</g>
<!-- calib&#45;&gt;l2a_pol_pc_dnb -->
<g id="edge6" class="edge">
<title>calib&#45;&gt;l2a_pol_pc_dnb</title>
<path fill="none" stroke="black" d="M320.3,-505.8C356.61,-505.8 415.06,-505.8 415.06,-505.8 415.06,-505.8 415.06,-745.99 415.06,-745.99"/>
<polygon fill="black" stroke="black" points="411.56,-745.99 415.06,-755.99 418.56,-745.99 411.56,-745.99"/>
</g>
<!-- l2a_pol_pc_cti -->
<g id="node14" class="node">
<title>l2a_pol_pc_cti</title>
<polygon fill="none" stroke="black" points="688.62,-732 419.62,-732 419.62,-708 688.62,-708 700.62,-720 688.62,-732"/>
<text text-anchor="middle" x="560.12" y="-716.3" font-family="Times,serif" font-size="14.00">pol_pc charge transfer efficiency 1..1</text>
</g>
<!-- calib&#45;&gt;l2a_pol_pc_cti -->
<g id="edge7" class="edge">
<title>calib&#45;&gt;l2a_pol_pc_cti</title>
<path fill="none" stroke="black" d="M330.48,-499.2C370.07,-499.2 426.06,-499.2 426.06,-499.2 426.06,-499.2 426.06,-691.93 426.06,-691.93"/>
<polygon fill="black" stroke="black" points="422.56,-691.93 426.06,-701.93 429.56,-691.93 422.56,-691.93"/>
</g>
<!-- l2a_pol_pc_polff -->
<g id="node15" class="node">
<title>l2a_pol_pc_polff</title>
<polygon fill="none" stroke="black" points="626.12,-678 482.12,-678 482.12,-654 626.12,-654 638.12,-666 626.12,-678"/>
<text text-anchor="middle" x="560.12" y="-662.3" font-family="Times,serif" font-size="14.00">pol_pc flat field 1..1</text>
</g>
<!-- calib&#45;&gt;l2a_pol_pc_polff -->
<g id="edge8" class="edge">
<title>calib&#45;&gt;l2a_pol_pc_polff</title>
<path fill="none" stroke="black" d="M293.06,-512.48C293.06,-576.27 293.06,-666 293.06,-666 293.06,-666 471.8,-666 471.8,-666"/>
<polygon fill="black" stroke="black" points="471.8,-669.5 481.8,-666 471.8,-662.5 471.8,-669.5"/>
</g>
<!-- l2a_pol_pc_kgain -->
<g id="node16" class="node">
<title>l2a_pol_pc_kgain</title>
<polygon fill="none" stroke="black" points="618.62,-624 489.62,-624 489.62,-600 618.62,-600 630.62,-612 618.62,-624"/>
<text text-anchor="middle" x="560.12" y="-608.3" font-family="Times,serif" font-size="14.00">pol_pc k&#45;gain 1..1</text>
</g>
<!-- calib&#45;&gt;l2a_pol_pc_kgain -->
<g id="edge9" class="edge">
<title>calib&#45;&gt;l2a_pol_pc_kgain</title>
<path fill="none" stroke="black" d="M313.06,-508.94C313.06,-555.26 313.06,-612 313.06,-612 313.06,-612 479.32,-612 479.32,-612"/>
<polygon fill="black" stroke="black" points="479.32,-615.5 489.32,-612 479.32,-608.5 479.32,-615.5"/>
</g>
<!-- l2a_pol_pc_emg -->
<g id="node17" class="node">
<title>l2a_pol_pc_emg</title>
<polygon fill="none" stroke="black" points="627.12,-570 481.12,-570 481.12,-546 627.12,-546 639.12,-558 627.12,-570"/>
<text text-anchor="middle" x="560.12" y="-554.3" font-family="Times,serif" font-size="14.00">pol_pc EM gain 1..1</text>
</g>
<!-- calib&#45;&gt;l2a_pol_pc_emg -->
<g id="edge10" class="edge">
<title>calib&#45;&gt;l2a_pol_pc_emg</title>
<path fill="none" stroke="black" d="M334.06,-496.43C334.06,-525.7 334.06,-558 334.06,-558 334.06,-558 471.06,-558 471.06,-558"/>
<polygon fill="black" stroke="black" points="471.06,-561.5 481.06,-558 471.06,-554.5 471.06,-561.5"/>
</g>
<!-- l2b_pol_pc_distm -->
<g id="node20" class="node">
<title>l2b_pol_pc_distm</title>
<polygon fill="none" stroke="black" points="649.62,-516 458.62,-516 458.62,-492 649.62,-492 661.62,-504 649.62,-516"/>
<text text-anchor="middle" x="560.12" y="-500.3" font-family="Times,serif" font-size="14.00">pol_pc distortion map 1..1</text>
</g>
<!-- calib&#45;&gt;l2b_pol_pc_distm -->
<g id="edge11" class="edge">
<title>calib&#45;&gt;l2b_pol_pc_distm</title>
<path fill="none" stroke="black" d="M337.86,-492.6C337.86,-492.6 448.37,-492.6 448.37,-492.6"/>
<polygon fill="black" stroke="black" points="448.37,-496.1 458.37,-492.6 448.37,-489.1 448.37,-496.1"/>
</g>
<!-- l2b_pol_pc_excicrf -->
<g id="node21" class="node">
<title>l2b_pol_pc_excicrf</title>
<polygon fill="none" stroke="black" points="675.12,-462 433.12,-462 433.12,-438 675.12,-438 687.12,-450 675.12,-462"/>
<text text-anchor="middle" x="560.12" y="-446.3" font-family="Times,serif" font-size="14.00">pol_pc EXCAM ICRF location 1..1</text>
</g>
<!-- calib&#45;&gt;l2b_pol_pc_excicrf -->
<g id="edge12" class="edge">
<title>calib&#45;&gt;l2b_pol_pc_excicrf</title>
<path fill="none" stroke="black" d="M354.6,-450C354.6,-450 423.06,-450 423.06,-450"/>
<polygon fill="black" stroke="black" points="423.06,-453.5 433.06,-450 423.06,-446.5 423.06,-453.5"/>
</g>
<!-- l2b_pol_pc_excfovps -->
<g id="node22" class="node">
<title>l2b_pol_pc_excfovps</title>
<polygon fill="none" stroke="black" points="676.62,-408 431.62,-408 431.62,-384 676.62,-384 688.62,-396 676.62,-408"/>
<text text-anchor="middle" x="560.12" y="-392.3" font-family="Times,serif" font-size="14.00">pol_pc ECAM FOV pixel scale 1..1</text>
</g>
<!-- calib&#45;&gt;l2b_pol_pc_excfovps -->
<g id="edge13" class="edge">
<title>calib&#45;&gt;l2b_pol_pc_excfovps</title>
<path fill="none" stroke="black" d="M330.5,-400.8C330.5,-400.8 421.54,-400.8 421.54,-400.8"/>
<polygon fill="black" stroke="black" points="421.54,-404.3 431.54,-400.8 421.54,-397.3 421.54,-404.3"/>
</g>
<!-- l2b_pol_pc_cfamfo -->
<g id="node23" class="node">
<title>l2b_pol_pc_cfamfo</title>
<polygon fill="none" stroke="black" points="661.12,-354 447.12,-354 447.12,-330 661.12,-330 673.12,-342 661.12,-354"/>
<text text-anchor="middle" x="560.12" y="-338.3" font-family="Times,serif" font-size="14.00">spec_a CFAM filter offset 1..1</text>
</g>
<!-- calib&#45;&gt;l2b_pol_pc_cfamfo -->
<g id="edge14" class="edge">
<title>calib&#45;&gt;l2b_pol_pc_cfamfo</title>
<path fill="none" stroke="black" d="M339.06,-408.86C339.06,-378.34 339.06,-342 339.06,-342 339.06,-342 437,-342 437,-342"/>
<polygon fill="black" stroke="black" points="437,-345.5 447,-342 437,-338.5 437,-345.5"/>
</g>
<!-- l3_pol_pc_ast -->
<g id="node26" class="node">
<title>l3_pol_pc_ast</title>
<polygon fill="none" stroke="black" points="636.62,-300 471.62,-300 471.62,-276 636.62,-276 648.62,-288 636.62,-300"/>
<text text-anchor="middle" x="560.12" y="-284.3" font-family="Times,serif" font-size="14.00">pol_pc astrometry 1..1</text>
</g>
<!-- calib&#45;&gt;l3_pol_pc_ast -->
<g id="edge15" class="edge">
<title>calib&#45;&gt;l3_pol_pc_ast</title>
<path fill="none" stroke="black" d="M324.06,-396.06C324.06,-348.93 324.06,-288 324.06,-288 324.06,-288 461.55,-288 461.55,-288"/>
<polygon fill="black" stroke="black" points="461.55,-291.5 471.55,-288 461.55,-284.5 461.55,-291.5"/>
</g>
<!-- l3_pol_pc_ndf -->
<g id="node27" class="node">
<title>l3_pol_pc_ndf</title>
<polygon fill="none" stroke="black" points="636.62,-246 471.62,-246 471.62,-222 636.62,-222 648.62,-234 636.62,-246"/>
<text text-anchor="middle" x="560.12" y="-230.3" font-family="Times,serif" font-size="14.00">pol_pc astrometry 1..1</text>
</g>
<!-- calib&#45;&gt;l3_pol_pc_ndf -->
<g id="edge17" class="edge">
<title>calib&#45;&gt;l3_pol_pc_ndf</title>
<path fill="none" stroke="black" d="M308.06,-389.54C308.06,-325.64 308.06,-234 308.06,-234 308.06,-234 461.61,-234 461.61,-234"/>
<polygon fill="black" stroke="black" points="461.61,-237.5 471.61,-234 461.61,-230.5 461.61,-237.5"/>
</g>
<!-- l3_pol_pc_mueller -->
<g id="node28" class="node">
<title>l3_pol_pc_mueller</title>
<polygon fill="none" stroke="black" points="624.12,-192 484.12,-192 484.12,-168 624.12,-168 636.12,-180 624.12,-192"/>
<text text-anchor="middle" x="560.12" y="-176.3" font-family="Times,serif" font-size="14.00">pol_pc mueller 1..1</text>
</g>
<!-- calib&#45;&gt;l3_pol_pc_mueller -->
<g id="edge16" class="edge">
<title>calib&#45;&gt;l3_pol_pc_mueller</title>
<path fill="none" stroke="black" d="M293.06,-387.38C293.06,-307.62 293.06,-180 293.06,-180 293.06,-180 473.95,-180 473.95,-180"/>
<polygon fill="black" stroke="black" points="473.95,-183.5 483.95,-180 473.95,-176.5 473.95,-183.5"/>
</g>
<!-- l4_pol_pc_afcal -->
<g id="node31" class="node">
<title>l4_pol_pc_afcal</title>
<polygon fill="none" stroke="black" points="642.62,-138 465.62,-138 465.62,-114 642.62,-114 654.62,-126 642.62,-138"/>
<text text-anchor="middle" x="560.12" y="-122.3" font-family="Times,serif" font-size="14.00">pol_pc absolute flux 1..1</text>
</g>
<!-- calib&#45;&gt;l4_pol_pc_afcal -->
<g id="edge18" class="edge">
<title>calib&#45;&gt;l4_pol_pc_afcal</title>
<path fill="none" stroke="black" d="M277.06,-389.44C277.06,-295.66 277.06,-126 277.06,-126 277.06,-126 455.47,-126 455.47,-126"/>
<polygon fill="black" stroke="black" points="455.47,-129.5 465.47,-126 455.47,-122.5 455.47,-129.5"/>
</g>
<!-- l4_pol_pc_ctcal -->
<g id="node32" class="node">
<title>l4_pol_pc_ctcal</title>
<polygon fill="none" stroke="black" points="655.12,-84 453.12,-84 453.12,-60 655.12,-60 667.12,-72 655.12,-84"/>
<text text-anchor="middle" x="560.12" y="-68.3" font-family="Times,serif" font-size="14.00">pol_pc core throughput 1..1</text>
</g>
<!-- calib&#45;&gt;l4_pol_pc_ctcal -->
<g id="edge19" class="edge">
<title>calib&#45;&gt;l4_pol_pc_ctcal</title>
<path fill="none" stroke="black" d="M261.06,-395.84C261.06,-291.32 261.06,-72 261.06,-72 261.06,-72 443,-72 443,-72"/>
<polygon fill="black" stroke="black" points="443,-75.5 453,-72 443,-68.5 443,-75.5"/>
</g>
<!-- l4_pol_pc_ndfilt -->
<g id="node33" class="node">
<title>l4_pol_pc_ndfilt</title>
<polygon fill="none" stroke="black" points="628.12,-30 480.12,-30 480.12,-6 628.12,-6 640.12,-18 628.12,-30"/>
<text text-anchor="middle" x="560.12" y="-14.3" font-family="Times,serif" font-size="14.00">pol_pc ND filter 1..1</text>
</g>
<!-- calib&#45;&gt;l4_pol_pc_ndfilt -->
<g id="edge20" class="edge">
<title>calib&#45;&gt;l4_pol_pc_ndfilt</title>
<path fill="none" stroke="black" d="M246.06,-407.79C246.06,-299.09 246.06,-18 246.06,-18 246.06,-18 470.06,-18 470.06,-18"/>
<polygon fill="black" stroke="black" points="470.06,-21.5 480.06,-18 470.06,-14.5 470.06,-21.5"/>
</g>
<!-- l1_pol_pc_odir -->
<g id="node7" class="node">
<title>l1_pol_pc_odir</title>
<ellipse fill="none" stroke="black" cx="560.12" cy="-1152" rx="152.17" ry="18"/>
<text text-anchor="middle" x="560.12" y="-1148.3" font-family="Times,serif" font-size="14.00">Output path for L1_pol_pc 1..1</text>
</g>
<!-- config&#45;&gt;l1_pol_pc_odir -->
<g id="edge21" class="edge">
<title>config&#45;&gt;l1_pol_pc_odir</title>
<path fill="none" stroke="black" d="M351.06,-1089.18C351.06,-1118.77 351.06,-1152 351.06,-1152 351.06,-1152 397.91,-1152 397.91,-1152"/>
<polygon fill="black" stroke="black" points="397.91,-1155.5 407.91,-1152 397.91,-1148.5 397.91,-1155.5"/>
</g>
<!-- l2a_pol_pc_odir -->
<g id="node10" class="node">
<title>l2a_pol_pc_odir</title>
<ellipse fill="none" stroke="black" cx="560.12" cy="-1098" rx="157.07" ry="18"/>
<text text-anchor="middle" x="560.12" y="-1094.3" font-family="Times,serif" font-size="14.00">Output path for L2a_pol_pc 1..1</text>
</g>
<!-- config&#45;&gt;l2a_pol_pc_odir -->
<g id="edge22" class="edge">
<title>config&#45;&gt;l2a_pol_pc_odir</title>
<path fill="none" stroke="black" d="M343.14,-1098C343.14,-1098 392.57,-1098 392.57,-1098"/>
<polygon fill="black" stroke="black" points="392.57,-1101.5 402.57,-1098 392.57,-1094.5 392.57,-1101.5"/>
</g>
<!-- l2b_pol_pc_odir -->
<g id="node18" class="node">
<title>l2b_pol_pc_odir</title>
<ellipse fill="none" stroke="black" cx="560.12" cy="-1044" rx="157.87" ry="18"/>
<text text-anchor="middle" x="560.12" y="-1040.3" font-family="Times,serif" font-size="14.00">Output path for L2b_pol_pc 1..1</text>
</g>
<!-- config&#45;&gt;l2b_pol_pc_odir -->
<g id="edge23" class="edge">
<title>config&#45;&gt;l2b_pol_pc_odir</title>
<path fill="none" stroke="black" d="M366.4,-1044C366.4,-1044 392.03,-1044 392.03,-1044"/>
<polygon fill="black" stroke="black" points="392.03,-1047.5 402.03,-1044 392.03,-1040.5 392.03,-1047.5"/>
</g>
<!-- l3_pol_pc_odir -->
<g id="node24" class="node">
<title>l3_pol_pc_odir</title>
<ellipse fill="none" stroke="black" cx="560.12" cy="-990" rx="152.17" ry="18"/>
<text text-anchor="middle" x="560.12" y="-986.3" font-family="Times,serif" font-size="14.00">Output path for L3_pol_pc 1..1</text>
</g>
<!-- config&#45;&gt;l3_pol_pc_odir -->
<g id="edge24" class="edge">
<title>config&#45;&gt;l3_pol_pc_odir</title>
<path fill="none" stroke="black" d="M343.14,-990C343.14,-990 397.88,-990 397.88,-990"/>
<polygon fill="black" stroke="black" points="397.88,-993.5 407.88,-990 397.88,-986.5 397.88,-993.5"/>
</g>
<!-- l4_pol_pc_odir -->
<g id="node29" class="node">
<title>l4_pol_pc_odir</title>
<ellipse fill="none" stroke="black" cx="560.12" cy="-936" rx="152.17" ry="18"/>
<text text-anchor="middle" x="560.12" y="-932.3" font-family="Times,serif" font-size="14.00">Output path for L4_pol_pc 1..1</text>
</g>
<!-- config&#45;&gt;l4_pol_pc_odir -->
<g id="edge25" class="edge">
<title>config&#45;&gt;l4_pol_pc_odir</title>
<path fill="none" stroke="black" d="M361.06,-1016.75C361.06,-984.75 361.06,-936 361.06,-936 361.06,-936 397.98,-936 397.98,-936"/>
<polygon fill="black" stroke="black" points="397.98,-939.5 407.98,-936 397.98,-932.5 397.98,-939.5"/>
</g>
<!-- l1_pol_pc_rec -->
<g id="node8" class="node">
<title>l1_pol_pc_rec</title>
<polygon fill="none" stroke="black" points="631.62,-1434 476.62,-1434 476.62,-1410 631.62,-1410 643.62,-1422 631.62,-1434"/>
<text text-anchor="middle" x="560.12" y="-1418.3" font-family="Times,serif" font-size="14.00">recipe L1_pol_pc 1..1</text>
</g>
<!-- recipe&#45;&gt;l1_pol_pc_rec -->
<g id="edge26" class="edge">
<title>recipe&#45;&gt;l1_pol_pc_rec</title>
<path fill="none" stroke="black" d="M278.06,-1353.91C278.06,-1384.67 278.06,-1422 278.06,-1422 278.06,-1422 466.26,-1422 466.26,-1422"/>
<polygon fill="black" stroke="black" points="466.26,-1425.5 476.26,-1422 466.26,-1418.5 466.26,-1425.5"/>
</g>
<!-- l2a_pol_pc_rec -->
<g id="node11" class="node">
<title>l2a_pol_pc_rec</title>
<polygon fill="none" stroke="black" points="635.62,-1380 472.62,-1380 472.62,-1356 635.62,-1356 647.62,-1368 635.62,-1380"/>
<text text-anchor="middle" x="560.12" y="-1364.3" font-family="Times,serif" font-size="14.00">recipe L2a_pol_pc 1..1</text>
</g>
<!-- recipe&#45;&gt;l2a_pol_pc_rec -->
<g id="edge27" class="edge">
<title>recipe&#45;&gt;l2a_pol_pc_rec</title>
<path fill="none" stroke="black" d="M307.06,-1353.67C307.06,-1363.42 307.06,-1371.12 307.06,-1371.12 307.06,-1371.12 462.32,-1371.12 462.32,-1371.12"/>
<polygon fill="black" stroke="black" points="462.32,-1374.62 472.32,-1371.12 462.32,-1367.62 462.32,-1374.62"/>
</g>
<!-- l2b_pol_pc_rec -->
<g id="node19" class="node">
<title>l2b_pol_pc_rec</title>
<polygon fill="none" stroke="black" points="636.12,-1326 472.12,-1326 472.12,-1302 636.12,-1302 648.12,-1314 636.12,-1326"/>
<text text-anchor="middle" x="560.12" y="-1310.3" font-family="Times,serif" font-size="14.00">recipe L2b_pol_pc 1..1</text>
</g>
<!-- recipe&#45;&gt;l2b_pol_pc_rec -->
<g id="edge28" class="edge">
<title>recipe&#45;&gt;l2b_pol_pc_rec</title>
<path fill="none" stroke="black" d="M334.56,-1314C334.56,-1314 462.09,-1314 462.09,-1314"/>
<polygon fill="black" stroke="black" points="462.09,-1317.5 472.09,-1314 462.09,-1310.5 462.09,-1317.5"/>
</g>
<!-- l3_pol_pc_rec -->
<g id="node25" class="node">
<title>l3_pol_pc_rec</title>
<polygon fill="none" stroke="black" points="631.62,-1272 476.62,-1272 476.62,-1248 631.62,-1248 643.62,-1260 631.62,-1272"/>
<text text-anchor="middle" x="560.12" y="-1256.3" font-family="Times,serif" font-size="14.00">recipe L3_pol_pc 1..1</text>
</g>
<!-- recipe&#45;&gt;l3_pol_pc_rec -->
<g id="edge29" class="edge">
<title>recipe&#45;&gt;l3_pol_pc_rec</title>
<path fill="none" stroke="black" d="M307.06,-1274.33C307.06,-1264.58 307.06,-1256.88 307.06,-1256.88 307.06,-1256.88 466.56,-1256.88 466.56,-1256.88"/>
<polygon fill="black" stroke="black" points="466.56,-1260.38 476.56,-1256.88 466.56,-1253.38 466.56,-1260.38"/>
</g>
<!-- l4_pol_pc_rec -->
<g id="node30" class="node">
<title>l4_pol_pc_rec</title>
<polygon fill="none" stroke="black" points="631.62,-1218 476.62,-1218 476.62,-1194 631.62,-1194 643.62,-1206 631.62,-1218"/>
<text text-anchor="middle" x="560.12" y="-1202.3" font-family="Times,serif" font-size="14.00">recipe L4_pol_pc 1..1</text>
</g>
<!-- recipe&#45;&gt;l4_pol_pc_rec -->
<g id="edge30" class="edge">
<title>recipe&#45;&gt;l4_pol_pc_rec</title>
<path fill="none" stroke="black" d="M278.06,-1274.09C278.06,-1243.33 278.06,-1206 278.06,-1206 278.06,-1206 466.26,-1206 466.26,-1206"/>
<polygon fill="black" stroke="black" points="466.26,-1209.5 476.26,-1206 466.26,-1202.5 466.26,-1209.5"/>
</g>
</g>
</svg>
