<?xml version="1.0" encoding="UTF-8" standalone="no"?>
<!DOCTYPE svg PUBLIC "-//W3C//DTD SVG 1.1//EN"
 "http://www.w3.org/Graphics/SVG/1.1/DTD/svg11.dtd">
<!-- Generated by graphviz version 2.43.0 (0)
 -->
<!-- Title: PolAClerks Pages: 1 -->
<svg width="716pt" height="1340pt"
 viewBox="0.00 0.00 715.66 1340.00" xmlns="http://www.w3.org/2000/svg" xmlns:xlink="http://www.w3.org/1999/xlink">
<g id="graph0" class="graph" transform="scale(1 1) rotate(0) translate(4 1336)">
<title>PolAClerks</title>
<polygon fill="white" stroke="transparent" points="-4,4 -4,-1336 711.66,-1336 711.66,4 -4,4"/>
<!-- alarm_cal -->
<g id="node1" class="node">
<title>alarm_cal</title>
<text text-anchor="middle" x="91" y="-392.3" font-family="Times,serif" font-size="14.00">User requested update</text>
</g>
<!-- calib -->
<g id="node4" class="node">
<title>calib</title>
<ellipse fill="none" stroke="black" cx="292.09" cy="-396" rx="62.29" ry="62.29"/>
<text text-anchor="middle" x="292.09" y="-392.3" font-family="Times,serif" font-size="14.00">Calibration</text>
</g>
<!-- alarm_cal&#45;&gt;calib -->
<g id="edge1" class="edge">
<title>alarm_cal&#45;&gt;calib</title>
<path fill="none" stroke="black" stroke-dasharray="5,2" d="M182.13,-396C182.13,-396 219.47,-396 219.47,-396"/>
<polygon fill="black" stroke="black" points="219.47,-399.5 229.47,-396 219.47,-392.5 219.47,-399.5"/>
</g>
<!-- alarm_cnf -->
<g id="node2" class="node">
<title>alarm_cnf</title>
<text text-anchor="middle" x="91" y="-932.3" font-family="Times,serif" font-size="14.00">User requested update</text>
</g>
<!-- config -->
<g id="node5" class="node">
<title>config</title>
<ellipse fill="none" stroke="black" cx="292.09" cy="-936" rx="74.19" ry="74.19"/>
<text text-anchor="middle" x="292.09" y="-932.3" font-family="Times,serif" font-size="14.00">Configuration</text>
</g>
<!-- alarm_cnf&#45;&gt;config -->
<g id="edge2" class="edge">
<title>alarm_cnf&#45;&gt;config</title>
<path fill="none" stroke="black" stroke-dasharray="5,2" d="M182.13,-936C182.13,-936 207.84,-936 207.84,-936"/>
<polygon fill="black" stroke="black" points="207.84,-939.5 217.84,-936 207.84,-932.5 207.84,-939.5"/>
</g>
<!-- alarm_rec -->
<g id="node3" class="node">
<title>alarm_rec</title>
<text text-anchor="middle" x="91" y="-1202.3" font-family="Times,serif" font-size="14.00">User requested update</text>
</g>
<!-- recipe -->
<g id="node6" class="node">
<title>recipe</title>
<ellipse fill="none" stroke="black" cx="292.09" cy="-1206" rx="42.49" ry="42.49"/>
<text text-anchor="middle" x="292.09" y="-1202.3" font-family="Times,serif" font-size="14.00">Recipe</text>
</g>
<!-- alarm_rec&#45;&gt;recipe -->
<g id="edge3" class="edge">
<title>alarm_rec&#45;&gt;recipe</title>
<path fill="none" stroke="black" stroke-dasharray="5,2" d="M182.13,-1206C182.13,-1206 239.74,-1206 239.74,-1206"/>
<polygon fill="black" stroke="black" points="239.74,-1209.5 249.74,-1206 239.74,-1202.5 239.74,-1209.5"/>
</g>
<!-- l1_pol_a_nllut -->
<g id="node9" class="node">
<title>l1_pol_a_nllut</title>
<polygon fill="none" stroke="black" points="643.42,-786 454.42,-786 454.42,-762 643.42,-762 655.42,-774 643.42,-786"/>
<text text-anchor="middle" x="554.92" y="-770.3" font-family="Times,serif" font-size="14.00">non linear calibration 1..1</text>
</g>
<!-- calib&#45;&gt;l1_pol_a_nllut -->
<g id="edge4" class="edge">
<title>calib&#45;&gt;l1_pol_a_nllut</title>
<path fill="none" stroke="black" d="M254.66,-446.2C254.66,-549.02 254.66,-774 254.66,-774 254.66,-774 444.1,-774 444.1,-774"/>
<polygon fill="black" stroke="black" points="444.1,-777.5 454.1,-774 444.1,-770.5 444.1,-777.5"/>
</g>
<!-- l2a_pol_a_mbpm -->
<g id="node12" class="node">
<title>l2a_pol_a_mbpm</title>
<polygon fill="none" stroke="black" points="637.92,-732 459.92,-732 459.92,-708 637.92,-708 649.92,-720 637.92,-732"/>
<text text-anchor="middle" x="554.92" y="-716.3" font-family="Times,serif" font-size="14.00">pol_a bad pixel map 1..1</text>
</g>
<!-- calib&#45;&gt;l2a_pol_a_mbpm -->
<g id="edge5" class="edge">
<title>calib&#45;&gt;l2a_pol_a_mbpm</title>
<path fill="none" stroke="black" d="M279.66,-457.32C279.66,-551.25 279.66,-720 279.66,-720 279.66,-720 449.81,-720 449.81,-720"/>
<polygon fill="black" stroke="black" points="449.81,-723.5 459.81,-720 449.81,-716.5 449.81,-723.5"/>
</g>
<!-- l2a_pol_a_dnb -->
<g id="node13" class="node">
<title>l2a_pol_a_dnb</title>
<polygon fill="none" stroke="black" points="689.42,-678 408.42,-678 408.42,-654 689.42,-654 701.42,-666 689.42,-678"/>
<text text-anchor="middle" x="554.92" y="-662.3" font-family="Times,serif" font-size="14.00">pol_a dark (CIC/FPN/dark current) 1..1</text>
</g>
<!-- calib&#45;&gt;l2a_pol_a_dnb -->
<g id="edge6" class="edge">
<title>calib&#45;&gt;l2a_pol_a_dnb</title>
<path fill="none" stroke="black" d="M320.21,-451.8C356.4,-451.8 414.66,-451.8 414.66,-451.8 414.66,-451.8 414.66,-637.74 414.66,-637.74"/>
<polygon fill="black" stroke="black" points="411.16,-637.74 414.66,-647.74 418.16,-637.74 411.16,-637.74"/>
</g>
<!-- l2a_pol_a_cti -->
<g id="node14" class="node">
<title>l2a_pol_a_cti</title>
<polygon fill="none" stroke="black" points="678.92,-624 418.92,-624 418.92,-600 678.92,-600 690.92,-612 678.92,-624"/>
<text text-anchor="middle" x="554.92" y="-608.3" font-family="Times,serif" font-size="14.00">pol_a charge transfer efficiency 1..1</text>
</g>
<!-- calib&#45;&gt;l2a_pol_a_cti -->
<g id="edge7" class="edge">
<title>calib&#45;&gt;l2a_pol_a_cti</title>
<path fill="none" stroke="black" d="M330.73,-445.2C370.17,-445.2 425.66,-445.2 425.66,-445.2 425.66,-445.2 425.66,-583.83 425.66,-583.83"/>
<polygon fill="black" stroke="black" points="422.16,-583.83 425.66,-593.83 429.16,-583.83 422.16,-583.83"/>
</g>
<!-- l2a_pol_a_polff -->
<g id="node15" class="node">
<title>l2a_pol_a_polff</title>
<polygon fill="none" stroke="black" points="616.92,-570 480.92,-570 480.92,-546 616.92,-546 628.92,-558 616.92,-570"/>
<text text-anchor="middle" x="554.92" y="-554.3" font-family="Times,serif" font-size="14.00">pol_a flat field 1..1</text>
</g>
<!-- calib&#45;&gt;l2a_pol_a_polff -->
<g id="edge8" class="edge">
<title>calib&#45;&gt;l2a_pol_a_polff</title>
<path fill="none" stroke="black" d="M304.66,-457.25C304.66,-503.12 304.66,-558 304.66,-558 304.66,-558 470.85,-558 470.85,-558"/>
<polygon fill="black" stroke="black" points="470.85,-561.5 480.85,-558 470.85,-554.5 470.85,-561.5"/>
</g>
<!-- l2a_pol_a_kgain -->
<g id="node16" class="node">
<title>l2a_pol_a_kgain</title>
<polygon fill="none" stroke="black" points="609.42,-516 488.42,-516 488.42,-492 609.42,-492 621.42,-504 609.42,-516"/>
<text text-anchor="middle" x="554.92" y="-500.3" font-family="Times,serif" font-size="14.00">pol_a k&#45;gain 1..1</text>
</g>
<!-- calib&#45;&gt;l2a_pol_a_kgain -->
<g id="edge9" class="edge">
<title>calib&#45;&gt;l2a_pol_a_kgain</title>
<path fill="none" stroke="black" d="M329.66,-445.89C329.66,-474.19 329.66,-504 329.66,-504 329.66,-504 478.25,-504 478.25,-504"/>
<polygon fill="black" stroke="black" points="478.25,-507.5 488.25,-504 478.25,-500.5 478.25,-507.5"/>
</g>
<!-- l2a_pol_a_emg -->
<g id="node17" class="node">
<title>l2a_pol_a_emg</title>
<polygon fill="none" stroke="black" points="617.42,-462 480.42,-462 480.42,-438 617.42,-438 629.42,-450 617.42,-462"/>
<text text-anchor="middle" x="554.92" y="-446.3" font-family="Times,serif" font-size="14.00">pol_a EM gain 1..1</text>
</g>
<!-- calib&#45;&gt;l2a_pol_a_emg -->
<g id="edge10" class="edge">
<title>calib&#45;&gt;l2a_pol_a_emg</title>
<path fill="none" stroke="black" d="M337.87,-438.6C337.87,-438.6 470.36,-438.6 470.36,-438.6"/>
<polygon fill="black" stroke="black" points="470.36,-442.1 480.36,-438.6 470.36,-435.1 470.36,-442.1"/>
</g>
<!-- l2b_pol_a_distm -->
<g id="node20" class="node">
<title>l2b_pol_a_distm</title>
<polygon fill="none" stroke="black" points="639.92,-408 457.92,-408 457.92,-384 639.92,-384 651.92,-396 639.92,-408"/>
<text text-anchor="middle" x="554.92" y="-392.3" font-family="Times,serif" font-size="14.00">pol_a distortion map 1..1</text>
</g>
<!-- calib&#45;&gt;l2b_pol_a_distm -->
<g id="edge11" class="edge">
<title>calib&#45;&gt;l2b_pol_a_distm</title>
<path fill="none" stroke="black" d="M354.71,-396C354.71,-396 447.86,-396 447.86,-396"/>
<polygon fill="black" stroke="black" points="447.86,-399.5 457.86,-396 447.86,-392.5 447.86,-399.5"/>
</g>
<!-- l2b_pol_a_excicrf -->
<g id="node21" class="node">
<title>l2b_pol_a_excicrf</title>
<polygon fill="none" stroke="black" points="665.42,-354 432.42,-354 432.42,-330 665.42,-330 677.42,-342 665.42,-354"/>
<text text-anchor="middle" x="554.92" y="-338.3" font-family="Times,serif" font-size="14.00">pol_a EXCAM ICRF location 1..1</text>
</g>
<!-- calib&#45;&gt;l2b_pol_a_excicrf -->
<g id="edge12" class="edge">
<title>calib&#45;&gt;l2b_pol_a_excicrf</title>
<path fill="none" stroke="black" d="M330.59,-346.8C330.59,-346.8 422.2,-346.8 422.2,-346.8"/>
<polygon fill="black" stroke="black" points="422.2,-350.3 432.2,-346.8 422.2,-343.3 422.2,-350.3"/>
</g>
<!-- l2b_pol_a_excfovps -->
<g id="node22" class="node">
<title>l2b_pol_a_excfovps</title>
<polygon fill="none" stroke="black" points="667.42,-300 430.42,-300 430.42,-276 667.42,-276 679.42,-288 667.42,-300"/>
<text text-anchor="middle" x="554.92" y="-284.3" font-family="Times,serif" font-size="14.00">pol_a ECAM FOV pixel scale 1..1</text>
</g>
<!-- calib&#45;&gt;l2b_pol_a_excfovps -->
<g id="edge13" class="edge">
<title>calib&#45;&gt;l2b_pol_a_excfovps</title>
<path fill="none" stroke="black" d="M337.66,-353.32C337.66,-323.13 337.66,-288 337.66,-288 337.66,-288 420.11,-288 420.11,-288"/>
<polygon fill="black" stroke="black" points="420.11,-291.5 430.11,-288 420.11,-284.5 420.11,-291.5"/>
</g>
<!-- l2b_pol_a_cfamfo -->
<g id="node23" class="node">
<title>l2b_pol_a_cfamfo</title>
<polygon fill="none" stroke="black" points="655.92,-246 441.92,-246 441.92,-222 655.92,-222 667.92,-234 655.92,-246"/>
<text text-anchor="middle" x="554.92" y="-230.3" font-family="Times,serif" font-size="14.00">spec_a CFAM filter offset 1..1</text>
</g>
<!-- calib&#45;&gt;l2b_pol_a_cfamfo -->
<g id="edge14" class="edge">
<title>calib&#45;&gt;l2b_pol_a_cfamfo</title>
<path fill="none" stroke="black" d="M319.66,-339.79C319.66,-293.01 319.66,-234 319.66,-234 319.66,-234 431.77,-234 431.77,-234"/>
<polygon fill="black" stroke="black" points="431.77,-237.5 441.77,-234 431.77,-230.5 431.77,-237.5"/>
</g>
<!-- l3_pol_a_mueller -->
<g id="node26" class="node">
<title>l3_pol_a_mueller</title>
<polygon fill="none" stroke="black" points="640.92,-192 456.92,-192 456.92,-168 640.92,-168 652.92,-180 640.92,-192"/>
<text text-anchor="middle" x="554.92" y="-176.3" font-family="Times,serif" font-size="14.00">pol_a mueller matrix 1..1</text>
</g>
<!-- calib&#45;&gt;l3_pol_a_mueller -->
<g id="edge15" class="edge">
<title>calib&#45;&gt;l3_pol_a_mueller</title>
<path fill="none" stroke="black" d="M301.66,-334.1C301.66,-270.28 301.66,-180 301.66,-180 301.66,-180 446.64,-180 446.64,-180"/>
<polygon fill="black" stroke="black" points="446.64,-183.5 456.64,-180 446.64,-176.5 446.64,-183.5"/>
</g>
<!-- l4_pol_a_afcal -->
<g id="node29" class="node">
<title>l4_pol_a_afcal</title>
<polygon fill="none" stroke="black" points="633.42,-138 464.42,-138 464.42,-114 633.42,-114 645.42,-126 633.42,-138"/>
<text text-anchor="middle" x="554.92" y="-122.3" font-family="Times,serif" font-size="14.00">pol_a absolute flux 1..1</text>
</g>
<!-- calib&#45;&gt;l4_pol_a_afcal -->
<g id="edge16" class="edge">
<title>calib&#45;&gt;l4_pol_a_afcal</title>
<path fill="none" stroke="black" d="M283.66,-334.06C283.66,-254.34 283.66,-126 283.66,-126 283.66,-126 454.22,-126 454.22,-126"/>
<polygon fill="black" stroke="black" points="454.22,-129.5 464.22,-126 454.22,-122.5 454.22,-129.5"/>
</g>
<!-- l4_pol_a_ctcal -->
<g id="node30" class="node">
<title>l4_pol_a_ctcal</title>
<polygon fill="none" stroke="black" points="645.92,-84 451.92,-84 451.92,-60 645.92,-60 657.92,-72 645.92,-84"/>
<text text-anchor="middle" x="554.92" y="-68.3" font-family="Times,serif" font-size="14.00">pol_a core throughput 1..1</text>
</g>
<!-- calib&#45;&gt;l4_pol_a_ctcal -->
<g id="edge17" class="edge">
<title>calib&#45;&gt;l4_pol_a_ctcal</title>
<path fill="none" stroke="black" d="M265.66,-339.19C265.66,-246.27 265.66,-72 265.66,-72 265.66,-72 441.72,-72 441.72,-72"/>
<polygon fill="black" stroke="black" points="441.72,-75.5 451.72,-72 441.72,-68.5 441.72,-75.5"/>
</g>
<!-- l4_pol_a_ndfilt -->
<g id="node31" class="node">
<title>l4_pol_a_ndfilt</title>
<polygon fill="none" stroke="black" points="618.92,-30 478.92,-30 478.92,-6 618.92,-6 630.92,-18 618.92,-30"/>
<text text-anchor="middle" x="554.92" y="-14.3" font-family="Times,serif" font-size="14.00">pol_a ND filter 1..1</text>
</g>
<!-- calib&#45;&gt;l4_pol_a_ndfilt -->
<g id="edge18" class="edge">
<title>calib&#45;&gt;l4_pol_a_ndfilt</title>
<path fill="none" stroke="black" d="M247.66,-351.9C247.66,-252.19 247.66,-18 247.66,-18 247.66,-18 468.58,-18 468.58,-18"/>
<polygon fill="black" stroke="black" points="468.58,-21.5 478.58,-18 468.58,-14.5 468.58,-21.5"/>
</g>
<!-- l1_pol_a_odir -->
<g id="node7" class="node">
<title>l1_pol_a_odir</title>
<ellipse fill="none" stroke="black" cx="554.92" cy="-1044" rx="146.77" ry="18"/>
<text text-anchor="middle" x="554.92" y="-1040.3" font-family="Times,serif" font-size="14.00">Output path for L1_pol_a 1..1</text>
</g>
<!-- config&#45;&gt;l1_pol_a_odir -->
<g id="edge19" class="edge">
<title>config&#45;&gt;l1_pol_a_odir</title>
<path fill="none" stroke="black" d="M350.66,-981.49C350.66,-1011 350.66,-1044 350.66,-1044 350.66,-1044 397.83,-1044 397.83,-1044"/>
<polygon fill="black" stroke="black" points="397.83,-1047.5 407.83,-1044 397.83,-1040.5 397.83,-1047.5"/>
</g>
<!-- l2a_pol_a_odir -->
<g id="node10" class="node">
<title>l2a_pol_a_odir</title>
<ellipse fill="none" stroke="black" cx="554.92" cy="-990" rx="152.17" ry="18"/>
<text text-anchor="middle" x="554.92" y="-986.3" font-family="Times,serif" font-size="14.00">Output path for L2a_pol_a 1..1</text>
</g>
<!-- config&#45;&gt;l2a_pol_a_odir -->
<g id="edge20" class="edge">
<title>config&#45;&gt;l2a_pol_a_odir</title>
<path fill="none" stroke="black" d="M343.08,-990C343.08,-990 392.67,-990 392.67,-990"/>
<polygon fill="black" stroke="black" points="392.67,-993.5 402.67,-990 392.67,-986.5 392.67,-993.5"/>
</g>
<!-- l2b_pol_a_odir -->
<g id="node18" class="node">
<title>l2b_pol_a_odir</title>
<ellipse fill="none" stroke="black" cx="554.92" cy="-936" rx="152.97" ry="18"/>
<text text-anchor="middle" x="554.92" y="-932.3" font-family="Times,serif" font-size="14.00">Output path for L2b_pol_a 1..1</text>
</g>
<!-- config&#45;&gt;l2b_pol_a_odir -->
<g id="edge21" class="edge">
<title>config&#45;&gt;l2b_pol_a_odir</title>
<path fill="none" stroke="black" d="M366.36,-936C366.36,-936 391.7,-936 391.7,-936"/>
<polygon fill="black" stroke="black" points="391.7,-939.5 401.7,-936 391.7,-932.5 391.7,-939.5"/>
</g>
<!-- l3_pol_a_odir -->
<g id="node24" class="node">
<title>l3_pol_a_odir</title>
<ellipse fill="none" stroke="black" cx="554.92" cy="-882" rx="146.77" ry="18"/>
<text text-anchor="middle" x="554.92" y="-878.3" font-family="Times,serif" font-size="14.00">Output path for L3_pol_a 1..1</text>
</g>
<!-- config&#45;&gt;l3_pol_a_odir -->
<g id="edge22" class="edge">
<title>config&#45;&gt;l3_pol_a_odir</title>
<path fill="none" stroke="black" d="M343.08,-882C343.08,-882 397.88,-882 397.88,-882"/>
<polygon fill="black" stroke="black" points="397.88,-885.5 407.88,-882 397.88,-878.5 397.88,-885.5"/>
</g>
<!-- l4_pol_a_odir -->
<g id="node27" class="node">
<title>l4_pol_a_odir</title>
<ellipse fill="none" stroke="black" cx="554.92" cy="-828" rx="146.77" ry="18"/>
<text text-anchor="middle" x="554.92" y="-824.3" font-family="Times,serif" font-size="14.00">Output path for L4_pol_a 1..1</text>
</g>
<!-- config&#45;&gt;l4_pol_a_odir -->
<g id="edge23" class="edge">
<title>config&#45;&gt;l4_pol_a_odir</title>
<path fill="none" stroke="black" d="M360.66,-907.91C360.66,-875.91 360.66,-828 360.66,-828 360.66,-828 397.69,-828 397.69,-828"/>
<polygon fill="black" stroke="black" points="397.69,-831.5 407.69,-828 397.69,-824.5 397.69,-831.5"/>
</g>
<!-- l1_pol_a_rec -->
<g id="node8" class="node">
<title>l1_pol_a_rec</title>
<polygon fill="none" stroke="black" points="621.92,-1326 475.92,-1326 475.92,-1302 621.92,-1302 633.92,-1314 621.92,-1326"/>
<text text-anchor="middle" x="554.92" y="-1310.3" font-family="Times,serif" font-size="14.00">recipe L1_pol_a 1..1</text>
</g>
<!-- recipe&#45;&gt;l1_pol_a_rec -->
<g id="edge24" class="edge">
<title>recipe&#45;&gt;l1_pol_a_rec</title>
<path fill="none" stroke="black" d="M278.66,-1246.22C278.66,-1276.92 278.66,-1314 278.66,-1314 278.66,-1314 465.76,-1314 465.76,-1314"/>
<polygon fill="black" stroke="black" points="465.76,-1317.5 475.76,-1314 465.76,-1310.5 465.76,-1317.5"/>
</g>
<!-- l2a_pol_a_rec -->
<g id="node11" class="node">
<title>l2a_pol_a_rec</title>
<polygon fill="none" stroke="black" points="626.42,-1272 471.42,-1272 471.42,-1248 626.42,-1248 638.42,-1260 626.42,-1272"/>
<text text-anchor="middle" x="554.92" y="-1256.3" font-family="Times,serif" font-size="14.00">recipe L2a_pol_a 1..1</text>
</g>
<!-- recipe&#45;&gt;l2a_pol_a_rec -->
<g id="edge25" class="edge">
<title>recipe&#45;&gt;l2a_pol_a_rec</title>
<path fill="none" stroke="black" d="M306.66,-1245.67C306.66,-1255.42 306.66,-1263.12 306.66,-1263.12 306.66,-1263.12 461.22,-1263.12 461.22,-1263.12"/>
<polygon fill="black" stroke="black" points="461.22,-1266.62 471.22,-1263.12 461.22,-1259.62 461.22,-1266.62"/>
</g>
<!-- l2b_pol_a_rec -->
<g id="node19" class="node">
<title>l2b_pol_a_rec</title>
<polygon fill="none" stroke="black" points="626.42,-1218 471.42,-1218 471.42,-1194 626.42,-1194 638.42,-1206 626.42,-1218"/>
<text text-anchor="middle" x="554.92" y="-1202.3" font-family="Times,serif" font-size="14.00">recipe L2b_pol_a 1..1</text>
</g>
<!-- recipe&#45;&gt;l2b_pol_a_rec -->
<g id="edge26" class="edge">
<title>recipe&#45;&gt;l2b_pol_a_rec</title>
<path fill="none" stroke="black" d="M334.61,-1206C334.61,-1206 461.32,-1206 461.32,-1206"/>
<polygon fill="black" stroke="black" points="461.32,-1209.5 471.32,-1206 461.32,-1202.5 461.32,-1209.5"/>
</g>
<!-- l3_pol_a_rec -->
<g id="node25" class="node">
<title>l3_pol_a_rec</title>
<polygon fill="none" stroke="black" points="621.92,-1164 475.92,-1164 475.92,-1140 621.92,-1140 633.92,-1152 621.92,-1164"/>
<text text-anchor="middle" x="554.92" y="-1148.3" font-family="Times,serif" font-size="14.00">recipe L3_pol_a 1..1</text>
</g>
<!-- recipe&#45;&gt;l3_pol_a_rec -->
<g id="edge27" class="edge">
<title>recipe&#45;&gt;l3_pol_a_rec</title>
<path fill="none" stroke="black" d="M306.66,-1166.33C306.66,-1156.58 306.66,-1148.88 306.66,-1148.88 306.66,-1148.88 465.69,-1148.88 465.69,-1148.88"/>
<polygon fill="black" stroke="black" points="465.69,-1152.38 475.69,-1148.88 465.69,-1145.38 465.69,-1152.38"/>
</g>
<!-- l4_pol_a_rec -->
<g id="node28" class="node">
<title>l4_pol_a_rec</title>
<polygon fill="none" stroke="black" points="621.92,-1110 475.92,-1110 475.92,-1086 621.92,-1086 633.92,-1098 621.92,-1110"/>
<text text-anchor="middle" x="554.92" y="-1094.3" font-family="Times,serif" font-size="14.00">recipe L4_pol_a 1..1</text>
</g>
<!-- recipe&#45;&gt;l4_pol_a_rec -->
<g id="edge28" class="edge">
<title>recipe&#45;&gt;l4_pol_a_rec</title>
<path fill="none" stroke="black" d="M278.66,-1165.78C278.66,-1135.08 278.66,-1098 278.66,-1098 278.66,-1098 465.76,-1098 465.76,-1098"/>
<polygon fill="black" stroke="black" points="465.76,-1101.5 475.76,-1098 465.76,-1094.5 465.76,-1101.5"/>
</g>
</g>
</svg>
