<?xml version="1.0" encoding="UTF-8" standalone="no"?>
<!DOCTYPE svg PUBLIC "-//W3C//DTD SVG 1.1//EN"
 "http://www.w3.org/Graphics/SVG/1.1/DTD/svg11.dtd">
<!-- Generated by graphviz version 2.43.0 (0)
 -->
<!-- Title: PolPCClerks Pages: 1 -->
<svg width="880pt" height="1256pt"
 viewBox="0.00 0.00 879.87 1256.00" xmlns="http://www.w3.org/2000/svg" xmlns:xlink="http://www.w3.org/1999/xlink">
<g id="graph0" class="graph" transform="scale(1 1) rotate(0) translate(4 1252)">
<title>PolPCClerks</title>
<polygon fill="white" stroke="transparent" points="-4,4 -4,-1252 875.87,-1252 875.87,4 -4,4"/>
<!-- alarm_cal -->
<g id="node1" class="node">
<title>alarm_cal</title>
<text text-anchor="middle" x="91" y="-419.3" font-family="Times,serif" font-size="14.00">User requested update</text>
</g>
<!-- calib -->
<g id="node4" class="node">
<title>calib</title>
<ellipse fill="none" stroke="black" cx="375.94" cy="-396" rx="62.29" ry="62.29"/>
<text text-anchor="middle" x="375.94" y="-392.3" font-family="Times,serif" font-size="14.00">Calibration</text>
</g>
<!-- alarm_cal&#45;&gt;calib -->
<g id="edge1" class="edge">
<title>alarm_cal&#45;&gt;calib</title>
<path fill="none" stroke="black" stroke-dasharray="5,2" d="M182.33,-423C182.33,-423 309.51,-423 309.51,-423"/>
<polygon fill="black" stroke="black" points="309.51,-426.5 319.51,-423 309.51,-419.5 309.51,-426.5"/>
</g>
<!-- alarm_cnf -->
<g id="node2" class="node">
<title>alarm_cnf</title>
<text text-anchor="middle" x="91" y="-365.3" font-family="Times,serif" font-size="14.00">User requested update</text>
</g>
<!-- alarm_cnf&#45;&gt;calib -->
<g id="edge2" class="edge">
<title>alarm_cnf&#45;&gt;calib</title>
<path fill="none" stroke="black" stroke-dasharray="5,2" d="M182.33,-369C182.33,-369 309.51,-369 309.51,-369"/>
<polygon fill="black" stroke="black" points="309.51,-372.5 319.51,-369 309.51,-365.5 309.51,-372.5"/>
</g>
<!-- alarm_rec -->
<g id="node3" class="node">
<title>alarm_rec</title>
<text text-anchor="middle" x="91" y="-932.3" font-family="Times,serif" font-size="14.00">User requested update</text>
</g>
<!-- recipe -->
<g id="node6" class="node">
<title>recipe</title>
<ellipse fill="none" stroke="black" cx="375.94" cy="-936" rx="42.49" ry="42.49"/>
<text text-anchor="middle" x="375.94" y="-932.3" font-family="Times,serif" font-size="14.00">Recipe</text>
</g>
<!-- alarm_rec&#45;&gt;recipe -->
<g id="edge3" class="edge">
<title>alarm_rec&#45;&gt;recipe</title>
<path fill="none" stroke="black" stroke-dasharray="5,2" d="M182.33,-936C182.33,-936 323.64,-936 323.64,-936"/>
<polygon fill="black" stroke="black" points="323.64,-939.5 333.64,-936 323.64,-932.5 323.64,-939.5"/>
</g>
<!-- l1_pol_pc_nllut -->
<g id="node9" class="node">
<title>l1_pol_pc_nllut</title>
<polygon fill="none" stroke="black" points="809.37,-786 620.37,-786 620.37,-762 809.37,-762 821.37,-774 809.37,-786"/>
<text text-anchor="middle" x="720.87" y="-770.3" font-family="Times,serif" font-size="14.00">non linear calibration 1..1</text>
</g>
<!-- calib&#45;&gt;l1_pol_pc_nllut -->
<g id="edge4" class="edge">
<title>calib&#45;&gt;l1_pol_pc_nllut</title>
<path fill="none" stroke="black" d="M422.87,-437.17C422.87,-535.14 422.87,-774 422.87,-774 422.87,-774 609.98,-774 609.98,-774"/>
<polygon fill="black" stroke="black" points="609.98,-777.5 619.98,-774 609.98,-770.5 609.98,-777.5"/>
</g>
<!-- l2a_pol_pc_mbpm -->
<g id="node12" class="node">
<title>l2a_pol_pc_mbpm</title>
<polygon fill="none" stroke="black" points="807.87,-732 621.87,-732 621.87,-708 807.87,-708 819.87,-720 807.87,-732"/>
<text text-anchor="middle" x="720.87" y="-716.3" font-family="Times,serif" font-size="14.00">pol_pc bad pixel map 1..1</text>
</g>
<!-- calib&#45;&gt;l2a_pol_pc_mbpm -->
<g id="edge5" class="edge">
<title>calib&#45;&gt;l2a_pol_pc_mbpm</title>
<path fill="none" stroke="black" d="M426.87,-432.22C426.87,-516.77 426.87,-720 426.87,-720 426.87,-720 611.75,-720 611.75,-720"/>
<polygon fill="black" stroke="black" points="611.75,-723.5 621.75,-720 611.75,-716.5 611.75,-723.5"/>
</g>
<!-- l2a_pol_pc_dnb -->
<g id="node13" class="node">
<title>l2a_pol_pc_dnb</title>
<polygon fill="none" stroke="black" points="859.87,-678 569.87,-678 569.87,-654 859.87,-654 871.87,-666 859.87,-678"/>
<text text-anchor="middle" x="720.87" y="-662.3" font-family="Times,serif" font-size="14.00">pol_pc dark (CIC/FPN/dark current) 1..1</text>
</g>
<!-- calib&#45;&gt;l2a_pol_pc_dnb -->
<g id="edge6" class="edge">
<title>calib&#45;&gt;l2a_pol_pc_dnb</title>
<path fill="none" stroke="black" d="M404.16,-451.8C459.27,-451.8 575.87,-451.8 575.87,-451.8 575.87,-451.8 575.87,-637.74 575.87,-637.74"/>
<polygon fill="black" stroke="black" points="572.37,-637.74 575.87,-647.74 579.37,-637.74 572.37,-637.74"/>
</g>
<!-- l2a_pol_pc_cti -->
<g id="node14" class="node">
<title>l2a_pol_pc_cti</title>
<polygon fill="none" stroke="black" points="849.37,-624 580.37,-624 580.37,-600 849.37,-600 861.37,-612 849.37,-624"/>
<text text-anchor="middle" x="720.87" y="-608.3" font-family="Times,serif" font-size="14.00">pol_pc charge transfer efficiency 1..1</text>
</g>
<!-- calib&#45;&gt;l2a_pol_pc_cti -->
<g id="edge7" class="edge">
<title>calib&#45;&gt;l2a_pol_pc_cti</title>
<path fill="none" stroke="black" d="M414.62,-445.2C475.52,-445.2 586.87,-445.2 586.87,-445.2 586.87,-445.2 586.87,-583.83 586.87,-583.83"/>
<polygon fill="black" stroke="black" points="583.37,-583.83 586.87,-593.83 590.37,-583.83 583.37,-583.83"/>
</g>
<!-- l2a_pol_pc_polff -->
<g id="node15" class="node">
<title>l2a_pol_pc_polff</title>
<polygon fill="none" stroke="black" points="786.87,-570 642.87,-570 642.87,-546 786.87,-546 798.87,-558 786.87,-570"/>
<text text-anchor="middle" x="720.87" y="-554.3" font-family="Times,serif" font-size="14.00">pol_pc flat field 1..1</text>
</g>
<!-- calib&#45;&gt;l2a_pol_pc_polff -->
<g id="edge8" class="edge">
<title>calib&#45;&gt;l2a_pol_pc_polff</title>
<path fill="none" stroke="black" d="M430.87,-425.71C430.87,-472.48 430.87,-558 430.87,-558 430.87,-558 632.78,-558 632.78,-558"/>
<polygon fill="black" stroke="black" points="632.78,-561.5 642.78,-558 632.78,-554.5 632.78,-561.5"/>
</g>
<!-- l2a_pol_pc_kgain -->
<g id="node16" class="node">
<title>l2a_pol_pc_kgain</title>
<polygon fill="none" stroke="black" points="779.37,-516 650.37,-516 650.37,-492 779.37,-492 791.37,-504 779.37,-516"/>
<text text-anchor="middle" x="720.87" y="-500.3" font-family="Times,serif" font-size="14.00">pol_pc k&#45;gain 1..1</text>
</g>
<!-- calib&#45;&gt;l2a_pol_pc_kgain -->
<g id="edge9" class="edge">
<title>calib&#45;&gt;l2a_pol_pc_kgain</title>
<path fill="none" stroke="black" d="M434.87,-416.57C434.87,-447.9 434.87,-504 434.87,-504 434.87,-504 640.18,-504 640.18,-504"/>
<polygon fill="black" stroke="black" points="640.18,-507.5 650.18,-504 640.18,-500.5 640.18,-507.5"/>
</g>
<!-- l2a_pol_pc_emg -->
<g id="node17" class="node">
<title>l2a_pol_pc_emg</title>
<polygon fill="none" stroke="black" points="787.87,-462 641.87,-462 641.87,-438 787.87,-438 799.87,-450 787.87,-462"/>
<text text-anchor="middle" x="720.87" y="-446.3" font-family="Times,serif" font-size="14.00">pol_pc EM gain 1..1</text>
</g>
<!-- calib&#45;&gt;l2a_pol_pc_emg -->
<g id="edge10" class="edge">
<title>calib&#45;&gt;l2a_pol_pc_emg</title>
<path fill="none" stroke="black" d="M421.74,-438.6C421.74,-438.6 631.8,-438.6 631.8,-438.6"/>
<polygon fill="black" stroke="black" points="631.8,-442.1 641.8,-438.6 631.8,-435.1 631.8,-442.1"/>
</g>
<!-- l2b_pol_pc_distm -->
<g id="node20" class="node">
<title>l2b_pol_pc_distm</title>
<polygon fill="none" stroke="black" points="810.37,-408 619.37,-408 619.37,-384 810.37,-384 822.37,-396 810.37,-408"/>
<text text-anchor="middle" x="720.87" y="-392.3" font-family="Times,serif" font-size="14.00">pol_pc distortion map 1..1</text>
</g>
<!-- calib&#45;&gt;l2b_pol_pc_distm -->
<g id="edge11" class="edge">
<title>calib&#45;&gt;l2b_pol_pc_distm</title>
<path fill="none" stroke="black" d="M438.4,-396C438.4,-396 609.29,-396 609.29,-396"/>
<polygon fill="black" stroke="black" points="609.29,-399.5 619.29,-396 609.29,-392.5 609.29,-399.5"/>
</g>
<!-- l2b_pol_pc_excicrf -->
<g id="node21" class="node">
<title>l2b_pol_pc_excicrf</title>
<polygon fill="none" stroke="black" points="835.87,-354 593.87,-354 593.87,-330 835.87,-330 847.87,-342 835.87,-354"/>
<text text-anchor="middle" x="720.87" y="-338.3" font-family="Times,serif" font-size="14.00">pol_pc EXCAM ICRF location 1..1</text>
</g>
<!-- calib&#45;&gt;l2b_pol_pc_excicrf -->
<g id="edge12" class="edge">
<title>calib&#45;&gt;l2b_pol_pc_excicrf</title>
<path fill="none" stroke="black" d="M414.5,-346.8C414.5,-346.8 583.73,-346.8 583.73,-346.8"/>
<polygon fill="black" stroke="black" points="583.73,-350.3 593.73,-346.8 583.73,-343.3 583.73,-350.3"/>
</g>
<!-- l2b_pol_pc_excfovps -->
<g id="node22" class="node">
<title>l2b_pol_pc_excfovps</title>
<polygon fill="none" stroke="black" points="837.37,-300 592.37,-300 592.37,-276 837.37,-276 849.37,-288 837.37,-300"/>
<text text-anchor="middle" x="720.87" y="-284.3" font-family="Times,serif" font-size="14.00">pol_pc ECAM FOV pixel scale 1..1</text>
</g>
<!-- calib&#45;&gt;l2b_pol_pc_excfovps -->
<g id="edge13" class="edge">
<title>calib&#45;&gt;l2b_pol_pc_excfovps</title>
<path fill="none" stroke="black" d="M420.87,-352.69C420.87,-322.65 420.87,-288 420.87,-288 420.87,-288 582.34,-288 582.34,-288"/>
<polygon fill="black" stroke="black" points="582.34,-291.5 592.34,-288 582.34,-284.5 582.34,-291.5"/>
</g>
<!-- l2b_pol_pc_cfamfo -->
<g id="node23" class="node">
<title>l2b_pol_pc_cfamfo</title>
<polygon fill="none" stroke="black" points="821.87,-246 607.87,-246 607.87,-222 821.87,-222 833.87,-234 821.87,-246"/>
<text text-anchor="middle" x="720.87" y="-230.3" font-family="Times,serif" font-size="14.00">spec_a CFAM filter offset 1..1</text>
</g>
<!-- calib&#45;&gt;l2b_pol_pc_cfamfo -->
<g id="edge14" class="edge">
<title>calib&#45;&gt;l2b_pol_pc_cfamfo</title>
<path fill="none" stroke="black" d="M402.87,-339.34C402.87,-292.62 402.87,-234 402.87,-234 402.87,-234 597.86,-234 597.86,-234"/>
<polygon fill="black" stroke="black" points="597.86,-237.5 607.86,-234 597.86,-230.5 597.86,-237.5"/>
</g>
<!-- l3_pol_pc_mueller -->
<g id="node26" class="node">
<title>l3_pol_pc_mueller</title>
<polygon fill="none" stroke="black" points="784.87,-192 644.87,-192 644.87,-168 784.87,-168 796.87,-180 784.87,-192"/>
<text text-anchor="middle" x="720.87" y="-176.3" font-family="Times,serif" font-size="14.00">pol_pc mueller 1..1</text>
</g>
<!-- calib&#45;&gt;l3_pol_pc_mueller -->
<g id="edge15" class="edge">
<title>calib&#45;&gt;l3_pol_pc_mueller</title>
<path fill="none" stroke="black" d="M384.87,-334.1C384.87,-270.28 384.87,-180 384.87,-180 384.87,-180 634.63,-180 634.63,-180"/>
<polygon fill="black" stroke="black" points="634.63,-183.5 644.63,-180 634.63,-176.5 634.63,-183.5"/>
</g>
<!-- l4_pol_pc_afcal -->
<g id="node29" class="node">
<title>l4_pol_pc_afcal</title>
<polygon fill="none" stroke="black" points="803.37,-138 626.37,-138 626.37,-114 803.37,-114 815.37,-126 803.37,-138"/>
<text text-anchor="middle" x="720.87" y="-122.3" font-family="Times,serif" font-size="14.00">pol_pc absolute flux 1..1</text>
</g>
<!-- calib&#45;&gt;l4_pol_pc_afcal -->
<g id="edge16" class="edge">
<title>calib&#45;&gt;l4_pol_pc_afcal</title>
<path fill="none" stroke="black" d="M367.87,-334.06C367.87,-254.34 367.87,-126 367.87,-126 367.87,-126 616.27,-126 616.27,-126"/>
<polygon fill="black" stroke="black" points="616.27,-129.5 626.27,-126 616.27,-122.5 616.27,-129.5"/>
</g>
<!-- l4_pol_pc_ctcal -->
<g id="node30" class="node">
<title>l4_pol_pc_ctcal</title>
<polygon fill="none" stroke="black" points="815.87,-84 613.87,-84 613.87,-60 815.87,-60 827.87,-72 815.87,-84"/>
<text text-anchor="middle" x="720.87" y="-68.3" font-family="Times,serif" font-size="14.00">pol_pc core throughput 1..1</text>
</g>
<!-- calib&#45;&gt;l4_pol_pc_ctcal -->
<g id="edge17" class="edge">
<title>calib&#45;&gt;l4_pol_pc_ctcal</title>
<path fill="none" stroke="black" d="M349.87,-339.19C349.87,-246.27 349.87,-72 349.87,-72 349.87,-72 603.56,-72 603.56,-72"/>
<polygon fill="black" stroke="black" points="603.56,-75.5 613.56,-72 603.56,-68.5 603.56,-75.5"/>
</g>
<!-- l4_pol_pc_ndfilt -->
<g id="node31" class="node">
<title>l4_pol_pc_ndfilt</title>
<polygon fill="none" stroke="black" points="788.87,-30 640.87,-30 640.87,-6 788.87,-6 800.87,-18 788.87,-30"/>
<text text-anchor="middle" x="720.87" y="-14.3" font-family="Times,serif" font-size="14.00">pol_pc ND filter 1..1</text>
</g>
<!-- calib&#45;&gt;l4_pol_pc_ndfilt -->
<g id="edge18" class="edge">
<title>calib&#45;&gt;l4_pol_pc_ndfilt</title>
<path fill="none" stroke="black" d="M331.87,-351.53C331.87,-251.61 331.87,-18 331.87,-18 331.87,-18 630.74,-18 630.74,-18"/>
<polygon fill="black" stroke="black" points="630.74,-21.5 640.74,-18 630.74,-14.5 630.74,-21.5"/>
</g>
<!-- config -->
<g id="node5" class="node">
<title>config</title>
<ellipse fill="none" stroke="black" cx="91" cy="-1122" rx="74.19" ry="74.19"/>
<text text-anchor="middle" x="91" y="-1118.3" font-family="Times,serif" font-size="14.00">Configuration</text>
</g>
<!-- l1_pol_pc_odir -->
<g id="node7" class="node">
<title>l1_pol_pc_odir</title>
<ellipse fill="none" stroke="black" cx="375.94" cy="-1230" rx="152.17" ry="18"/>
<text text-anchor="middle" x="375.94" y="-1226.3" font-family="Times,serif" font-size="14.00">Output path for L1_pol_pc 1..1</text>
</g>
<!-- config&#45;&gt;l1_pol_pc_odir -->
<g id="edge19" class="edge">
<title>config&#45;&gt;l1_pol_pc_odir</title>
<path fill="none" stroke="black" d="M91.87,-1196.12C91.87,-1214.97 91.87,-1230 91.87,-1230 91.87,-1230 213.51,-1230 213.51,-1230"/>
<polygon fill="black" stroke="black" points="213.51,-1233.5 223.51,-1230 213.51,-1226.5 213.51,-1233.5"/>
</g>
<!-- l2a_pol_pc_odir -->
<g id="node10" class="node">
<title>l2a_pol_pc_odir</title>
<ellipse fill="none" stroke="black" cx="375.94" cy="-1176" rx="157.07" ry="18"/>
<text text-anchor="middle" x="375.94" y="-1172.3" font-family="Times,serif" font-size="14.00">Output path for L2a_pol_pc 1..1</text>
</g>
<!-- config&#45;&gt;l2a_pol_pc_odir -->
<g id="edge20" class="edge">
<title>config&#45;&gt;l2a_pol_pc_odir</title>
<path fill="none" stroke="black" d="M141.94,-1176C141.94,-1176 208.53,-1176 208.53,-1176"/>
<polygon fill="black" stroke="black" points="208.53,-1179.5 218.53,-1176 208.53,-1172.5 208.53,-1179.5"/>
</g>
<!-- l2b_pol_pc_odir -->
<g id="node18" class="node">
<title>l2b_pol_pc_odir</title>
<ellipse fill="none" stroke="black" cx="375.94" cy="-1122" rx="157.87" ry="18"/>
<text text-anchor="middle" x="375.94" y="-1118.3" font-family="Times,serif" font-size="14.00">Output path for L2b_pol_pc 1..1</text>
</g>
<!-- config&#45;&gt;l2b_pol_pc_odir -->
<g id="edge21" class="edge">
<title>config&#45;&gt;l2b_pol_pc_odir</title>
<path fill="none" stroke="black" d="M165.12,-1122C165.12,-1122 207.86,-1122 207.86,-1122"/>
<polygon fill="black" stroke="black" points="207.86,-1125.5 217.86,-1122 207.86,-1118.5 207.86,-1125.5"/>
</g>
<!-- l3_pol_pc_odir -->
<g id="node24" class="node">
<title>l3_pol_pc_odir</title>
<ellipse fill="none" stroke="black" cx="375.94" cy="-1068" rx="152.17" ry="18"/>
<text text-anchor="middle" x="375.94" y="-1064.3" font-family="Times,serif" font-size="14.00">Output path for L3_pol_pc 1..1</text>
</g>
<!-- config&#45;&gt;l3_pol_pc_odir -->
<g id="edge22" class="edge">
<title>config&#45;&gt;l3_pol_pc_odir</title>
<path fill="none" stroke="black" d="M141.94,-1068C141.94,-1068 213.69,-1068 213.69,-1068"/>
<polygon fill="black" stroke="black" points="213.69,-1071.5 223.69,-1068 213.69,-1064.5 213.69,-1071.5"/>
</g>
<!-- l4_pol_pc_odir -->
<g id="node27" class="node">
<title>l4_pol_pc_odir</title>
<ellipse fill="none" stroke="black" cx="375.94" cy="-1014" rx="152.17" ry="18"/>
<text text-anchor="middle" x="375.94" y="-1010.3" font-family="Times,serif" font-size="14.00">Output path for L4_pol_pc 1..1</text>
</g>
<!-- config&#45;&gt;l4_pol_pc_odir -->
<g id="edge23" class="edge">
<title>config&#45;&gt;l4_pol_pc_odir</title>
<path fill="none" stroke="black" d="M91.87,-1047.88C91.87,-1029.03 91.87,-1014 91.87,-1014 91.87,-1014 213.51,-1014 213.51,-1014"/>
<polygon fill="black" stroke="black" points="213.51,-1017.5 223.51,-1014 213.51,-1010.5 213.51,-1017.5"/>
</g>
<!-- l1_pol_pc_rec -->
<g id="node8" class="node">
<title>l1_pol_pc_rec</title>
<polygon fill="none" stroke="black" points="792.37,-1056 637.37,-1056 637.37,-1032 792.37,-1032 804.37,-1044 792.37,-1056"/>
<text text-anchor="middle" x="720.87" y="-1040.3" font-family="Times,serif" font-size="14.00">recipe L1_pol_pc 1..1</text>
</g>
<!-- recipe&#45;&gt;l1_pol_pc_rec -->
<g id="edge24" class="edge">
<title>recipe&#45;&gt;l1_pol_pc_rec</title>
<path fill="none" stroke="black" d="M408.62,-963C459.5,-963 551.87,-963 551.87,-963 551.87,-963 551.87,-1039.95 551.87,-1039.95 551.87,-1039.95 627.36,-1039.95 627.36,-1039.95"/>
<polygon fill="black" stroke="black" points="627.36,-1043.45 637.36,-1039.95 627.36,-1036.45 627.36,-1043.45"/>
</g>
<!-- l2a_pol_pc_rec -->
<g id="node11" class="node">
<title>l2a_pol_pc_rec</title>
<polygon fill="none" stroke="black" points="796.37,-1002 633.37,-1002 633.37,-978 796.37,-978 808.37,-990 796.37,-1002"/>
<text text-anchor="middle" x="720.87" y="-986.3" font-family="Times,serif" font-size="14.00">recipe L2a_pol_pc 1..1</text>
</g>
<!-- recipe&#45;&gt;l2a_pol_pc_rec -->
<g id="edge25" class="edge">
<title>recipe&#45;&gt;l2a_pol_pc_rec</title>
<path fill="none" stroke="black" d="M376.87,-978.68C376.87,-983.73 376.87,-987.12 376.87,-987.12 376.87,-987.12 623.18,-987.12 623.18,-987.12"/>
<polygon fill="black" stroke="black" points="623.18,-990.62 633.18,-987.12 623.18,-983.62 623.18,-990.62"/>
</g>
<!-- l2b_pol_pc_rec -->
<g id="node19" class="node">
<title>l2b_pol_pc_rec</title>
<polygon fill="none" stroke="black" points="796.87,-948 632.87,-948 632.87,-924 796.87,-924 808.87,-936 796.87,-948"/>
<text text-anchor="middle" x="720.87" y="-932.3" font-family="Times,serif" font-size="14.00">recipe L2b_pol_pc 1..1</text>
</g>
<!-- recipe&#45;&gt;l2b_pol_pc_rec -->
<g id="edge26" class="edge">
<title>recipe&#45;&gt;l2b_pol_pc_rec</title>
<path fill="none" stroke="black" d="M418.23,-936C418.23,-936 622.81,-936 622.81,-936"/>
<polygon fill="black" stroke="black" points="622.81,-939.5 632.81,-936 622.81,-932.5 622.81,-939.5"/>
</g>
<!-- l3_pol_pc_rec -->
<g id="node25" class="node">
<title>l3_pol_pc_rec</title>
<polygon fill="none" stroke="black" points="792.37,-894 637.37,-894 637.37,-870 792.37,-870 804.37,-882 792.37,-894"/>
<text text-anchor="middle" x="720.87" y="-878.3" font-family="Times,serif" font-size="14.00">recipe L3_pol_pc 1..1</text>
</g>
<!-- recipe&#45;&gt;l3_pol_pc_rec -->
<g id="edge27" class="edge">
<title>recipe&#45;&gt;l3_pol_pc_rec</title>
<path fill="none" stroke="black" d="M390.87,-896.33C390.87,-886.58 390.87,-878.88 390.87,-878.88 390.87,-878.88 627.17,-878.88 627.17,-878.88"/>
<polygon fill="black" stroke="black" points="627.17,-882.38 637.17,-878.88 627.17,-875.38 627.17,-882.38"/>
</g>
<!-- l4_pol_pc_rec -->
<g id="node28" class="node">
<title>l4_pol_pc_rec</title>
<polygon fill="none" stroke="black" points="792.37,-840 637.37,-840 637.37,-816 792.37,-816 804.37,-828 792.37,-840"/>
<text text-anchor="middle" x="720.87" y="-824.3" font-family="Times,serif" font-size="14.00">recipe L4_pol_pc 1..1</text>
</g>
<!-- recipe&#45;&gt;l4_pol_pc_rec -->
<g id="edge28" class="edge">
<title>recipe&#45;&gt;l4_pol_pc_rec</title>
<path fill="none" stroke="black" d="M361.87,-896.09C361.87,-865.33 361.87,-828 361.87,-828 361.87,-828 627.16,-828 627.16,-828"/>
<polygon fill="black" stroke="black" points="627.16,-831.5 637.16,-828 627.16,-824.5 627.16,-831.5"/>
</g>
</g>
</svg>
