<?xml version="1.0" encoding="UTF-8" standalone="no"?>
<!DOCTYPE svg PUBLIC "-//W3C//DTD SVG 1.1//EN"
 "http://www.w3.org/Graphics/SVG/1.1/DTD/svg11.dtd">
<!-- Generated by graphviz version 2.43.0 (0)
 -->
<!-- Title: PolAClerks Pages: 1 -->
<svg width="716pt" height="1448pt"
 viewBox="0.00 0.00 715.66 1448.00" xmlns="http://www.w3.org/2000/svg" xmlns:xlink="http://www.w3.org/1999/xlink">
<g id="graph0" class="graph" transform="scale(1 1) rotate(0) translate(4 1444)">
<title>PolAClerks</title>
<polygon fill="white" stroke="transparent" points="-4,4 -4,-1444 711.66,-1444 711.66,4 -4,4"/>
<!-- alarm_cal -->
<g id="node1" class="node">
<title>alarm_cal</title>
<text text-anchor="middle" x="91" y="-446.3" font-family="Times,serif" font-size="14.00">User requested update</text>
</g>
<!-- calib -->
<g id="node4" class="node">
<title>calib</title>
<ellipse fill="none" stroke="black" cx="292.09" cy="-450" rx="62.29" ry="62.29"/>
<text text-anchor="middle" x="292.09" y="-446.3" font-family="Times,serif" font-size="14.00">Calibration</text>
</g>
<!-- alarm_cal&#45;&gt;calib -->
<g id="edge1" class="edge">
<title>alarm_cal&#45;&gt;calib</title>
<path fill="none" stroke="black" stroke-dasharray="5,2" d="M182.13,-450C182.13,-450 219.47,-450 219.47,-450"/>
<polygon fill="black" stroke="black" points="219.47,-453.5 229.47,-450 219.47,-446.5 219.47,-453.5"/>
</g>
<!-- alarm_cnf -->
<g id="node2" class="node">
<title>alarm_cnf</title>
<text text-anchor="middle" x="91" y="-1040.3" font-family="Times,serif" font-size="14.00">User requested update</text>
</g>
<!-- config -->
<g id="node5" class="node">
<title>config</title>
<ellipse fill="none" stroke="black" cx="292.09" cy="-1044" rx="74.19" ry="74.19"/>
<text text-anchor="middle" x="292.09" y="-1040.3" font-family="Times,serif" font-size="14.00">Configuration</text>
</g>
<!-- alarm_cnf&#45;&gt;config -->
<g id="edge2" class="edge">
<title>alarm_cnf&#45;&gt;config</title>
<path fill="none" stroke="black" stroke-dasharray="5,2" d="M182.13,-1044C182.13,-1044 207.84,-1044 207.84,-1044"/>
<polygon fill="black" stroke="black" points="207.84,-1047.5 217.84,-1044 207.84,-1040.5 207.84,-1047.5"/>
</g>
<!-- alarm_rec -->
<g id="node3" class="node">
<title>alarm_rec</title>
<text text-anchor="middle" x="91" y="-1310.3" font-family="Times,serif" font-size="14.00">User requested update</text>
</g>
<!-- recipe -->
<g id="node6" class="node">
<title>recipe</title>
<ellipse fill="none" stroke="black" cx="292.09" cy="-1314" rx="42.49" ry="42.49"/>
<text text-anchor="middle" x="292.09" y="-1310.3" font-family="Times,serif" font-size="14.00">Recipe</text>
</g>
<!-- alarm_rec&#45;&gt;recipe -->
<g id="edge3" class="edge">
<title>alarm_rec&#45;&gt;recipe</title>
<path fill="none" stroke="black" stroke-dasharray="5,2" d="M182.13,-1314C182.13,-1314 239.74,-1314 239.74,-1314"/>
<polygon fill="black" stroke="black" points="239.74,-1317.5 249.74,-1314 239.74,-1310.5 239.74,-1317.5"/>
</g>
<!-- l1_pol_a_nllut -->
<g id="node9" class="node">
<title>l1_pol_a_nllut</title>
<polygon fill="none" stroke="black" points="643.42,-894 454.42,-894 454.42,-870 643.42,-870 655.42,-882 643.42,-894"/>
<text text-anchor="middle" x="554.92" y="-878.3" font-family="Times,serif" font-size="14.00">non linear calibration 1..1</text>
</g>
<!-- calib&#45;&gt;l1_pol_a_nllut -->
<g id="edge4" class="edge">
<title>calib&#45;&gt;l1_pol_a_nllut</title>
<path fill="none" stroke="black" d="M250.66,-497.05C250.66,-609.02 250.66,-882 250.66,-882 250.66,-882 444.03,-882 444.03,-882"/>
<polygon fill="black" stroke="black" points="444.03,-885.5 454.03,-882 444.03,-878.5 444.03,-885.5"/>
</g>
<!-- l2a_pol_a_mbpm -->
<g id="node12" class="node">
<title>l2a_pol_a_mbpm</title>
<polygon fill="none" stroke="black" points="637.92,-840 459.92,-840 459.92,-816 637.92,-816 649.92,-828 637.92,-840"/>
<text text-anchor="middle" x="554.92" y="-824.3" font-family="Times,serif" font-size="14.00">pol_a bad pixel map 1..1</text>
</g>
<!-- calib&#45;&gt;l2a_pol_a_mbpm -->
<g id="edge5" class="edge">
<title>calib&#45;&gt;l2a_pol_a_mbpm</title>
<path fill="none" stroke="black" d="M271.66,-509.06C271.66,-615.38 271.66,-828 271.66,-828 271.66,-828 449.81,-828 449.81,-828"/>
<polygon fill="black" stroke="black" points="449.81,-831.5 459.81,-828 449.81,-824.5 449.81,-831.5"/>
</g>
<!-- l2a_pol_a_dnb -->
<g id="node13" class="node">
<title>l2a_pol_a_dnb</title>
<polygon fill="none" stroke="black" points="689.42,-786 408.42,-786 408.42,-762 689.42,-762 701.42,-774 689.42,-786"/>
<text text-anchor="middle" x="554.92" y="-770.3" font-family="Times,serif" font-size="14.00">pol_a dark (CIC/FPN/dark current) 1..1</text>
</g>
<!-- calib&#45;&gt;l2a_pol_a_dnb -->
<g id="edge6" class="edge">
<title>calib&#45;&gt;l2a_pol_a_dnb</title>
<path fill="none" stroke="black" d="M320.21,-505.8C356.4,-505.8 414.66,-505.8 414.66,-505.8 414.66,-505.8 414.66,-745.99 414.66,-745.99"/>
<polygon fill="black" stroke="black" points="411.16,-745.99 414.66,-755.99 418.16,-745.99 411.16,-745.99"/>
</g>
<!-- l2a_pol_a_cti -->
<g id="node14" class="node">
<title>l2a_pol_a_cti</title>
<polygon fill="none" stroke="black" points="678.92,-732 418.92,-732 418.92,-708 678.92,-708 690.92,-720 678.92,-732"/>
<text text-anchor="middle" x="554.92" y="-716.3" font-family="Times,serif" font-size="14.00">pol_a charge transfer efficiency 1..1</text>
</g>
<!-- calib&#45;&gt;l2a_pol_a_cti -->
<g id="edge7" class="edge">
<title>calib&#45;&gt;l2a_pol_a_cti</title>
<path fill="none" stroke="black" d="M330.73,-499.2C370.17,-499.2 425.66,-499.2 425.66,-499.2 425.66,-499.2 425.66,-691.93 425.66,-691.93"/>
<polygon fill="black" stroke="black" points="422.16,-691.93 425.66,-701.93 429.16,-691.93 422.16,-691.93"/>
</g>
<!-- l2a_pol_a_polff -->
<g id="node15" class="node">
<title>l2a_pol_a_polff</title>
<polygon fill="none" stroke="black" points="616.92,-678 480.92,-678 480.92,-654 616.92,-654 628.92,-666 616.92,-678"/>
<text text-anchor="middle" x="554.92" y="-662.3" font-family="Times,serif" font-size="14.00">pol_a flat field 1..1</text>
</g>
<!-- calib&#45;&gt;l2a_pol_a_polff -->
<g id="edge8" class="edge">
<title>calib&#45;&gt;l2a_pol_a_polff</title>
<path fill="none" stroke="black" d="M292.66,-512.48C292.66,-576.27 292.66,-666 292.66,-666 292.66,-666 470.82,-666 470.82,-666"/>
<polygon fill="black" stroke="black" points="470.82,-669.5 480.82,-666 470.82,-662.5 470.82,-669.5"/>
</g>
<!-- l2a_pol_a_kgain -->
<g id="node16" class="node">
<title>l2a_pol_a_kgain</title>
<polygon fill="none" stroke="black" points="609.42,-624 488.42,-624 488.42,-600 609.42,-600 621.42,-612 609.42,-624"/>
<text text-anchor="middle" x="554.92" y="-608.3" font-family="Times,serif" font-size="14.00">pol_a k&#45;gain 1..1</text>
</g>
<!-- calib&#45;&gt;l2a_pol_a_kgain -->
<g id="edge9" class="edge">
<title>calib&#45;&gt;l2a_pol_a_kgain</title>
<path fill="none" stroke="black" d="M313.66,-508.94C313.66,-555.26 313.66,-612 313.66,-612 313.66,-612 478.36,-612 478.36,-612"/>
<polygon fill="black" stroke="black" points="478.36,-615.5 488.36,-612 478.36,-608.5 478.36,-615.5"/>
</g>
<!-- l2a_pol_a_emg -->
<g id="node17" class="node">
<title>l2a_pol_a_emg</title>
<polygon fill="none" stroke="black" points="617.42,-570 480.42,-570 480.42,-546 617.42,-546 629.42,-558 617.42,-570"/>
<text text-anchor="middle" x="554.92" y="-554.3" font-family="Times,serif" font-size="14.00">pol_a EM gain 1..1</text>
</g>
<!-- calib&#45;&gt;l2a_pol_a_emg -->
<g id="edge10" class="edge">
<title>calib&#45;&gt;l2a_pol_a_emg</title>
<path fill="none" stroke="black" d="M334.66,-495.8C334.66,-525.24 334.66,-558 334.66,-558 334.66,-558 470.35,-558 470.35,-558"/>
<polygon fill="black" stroke="black" points="470.35,-561.5 480.35,-558 470.35,-554.5 470.35,-561.5"/>
</g>
<!-- l2b_pol_a_distm -->
<g id="node20" class="node">
<title>l2b_pol_a_distm</title>
<polygon fill="none" stroke="black" points="639.92,-516 457.92,-516 457.92,-492 639.92,-492 651.92,-504 639.92,-516"/>
<text text-anchor="middle" x="554.92" y="-500.3" font-family="Times,serif" font-size="14.00">pol_a distortion map 1..1</text>
</g>
<!-- calib&#45;&gt;l2b_pol_a_distm -->
<g id="edge11" class="edge">
<title>calib&#45;&gt;l2b_pol_a_distm</title>
<path fill="none" stroke="black" d="M337.87,-492.6C337.87,-492.6 447.7,-492.6 447.7,-492.6"/>
<polygon fill="black" stroke="black" points="447.7,-496.1 457.7,-492.6 447.7,-489.1 447.7,-496.1"/>
</g>
<!-- l2b_pol_a_excicrf -->
<g id="node21" class="node">
<title>l2b_pol_a_excicrf</title>
<polygon fill="none" stroke="black" points="665.42,-462 432.42,-462 432.42,-438 665.42,-438 677.42,-450 665.42,-462"/>
<text text-anchor="middle" x="554.92" y="-446.3" font-family="Times,serif" font-size="14.00">pol_a EXCAM ICRF location 1..1</text>
</g>
<!-- calib&#45;&gt;l2b_pol_a_excicrf -->
<g id="edge12" class="edge">
<title>calib&#45;&gt;l2b_pol_a_excicrf</title>
<path fill="none" stroke="black" d="M354.71,-450C354.71,-450 422.19,-450 422.19,-450"/>
<polygon fill="black" stroke="black" points="422.19,-453.5 432.19,-450 422.19,-446.5 422.19,-453.5"/>
</g>
<!-- l2b_pol_a_excfovps -->
<g id="node22" class="node">
<title>l2b_pol_a_excfovps</title>
<polygon fill="none" stroke="black" points="667.42,-408 430.42,-408 430.42,-384 667.42,-384 679.42,-396 667.42,-408"/>
<text text-anchor="middle" x="554.92" y="-392.3" font-family="Times,serif" font-size="14.00">pol_a ECAM FOV pixel scale 1..1</text>
</g>
<!-- calib&#45;&gt;l2b_pol_a_excfovps -->
<g id="edge13" class="edge">
<title>calib&#45;&gt;l2b_pol_a_excfovps</title>
<path fill="none" stroke="black" d="M330.59,-400.8C330.59,-400.8 420.15,-400.8 420.15,-400.8"/>
<polygon fill="black" stroke="black" points="420.15,-404.3 430.15,-400.8 420.15,-397.3 420.15,-404.3"/>
</g>
<!-- l2b_pol_a_cfamfo -->
<g id="node23" class="node">
<title>l2b_pol_a_cfamfo</title>
<polygon fill="none" stroke="black" points="655.92,-354 441.92,-354 441.92,-330 655.92,-330 667.92,-342 655.92,-354"/>
<text text-anchor="middle" x="554.92" y="-338.3" font-family="Times,serif" font-size="14.00">spec_a CFAM filter offset 1..1</text>
</g>
<!-- calib&#45;&gt;l2b_pol_a_cfamfo -->
<g id="edge14" class="edge">
<title>calib&#45;&gt;l2b_pol_a_cfamfo</title>
<path fill="none" stroke="black" d="M339.66,-409.48C339.66,-378.83 339.66,-342 339.66,-342 339.66,-342 431.62,-342 431.62,-342"/>
<polygon fill="black" stroke="black" points="431.62,-345.5 441.62,-342 431.62,-338.5 431.62,-345.5"/>
</g>
<!-- l3_pol_a_ast -->
<g id="node26" class="node">
<title>l3_pol_a_ast</title>
<polygon fill="none" stroke="black" points="627.42,-300 470.42,-300 470.42,-276 627.42,-276 639.42,-288 627.42,-300"/>
<text text-anchor="middle" x="554.92" y="-284.3" font-family="Times,serif" font-size="14.00">pol_a astrometry 1..1</text>
</g>
<!-- calib&#45;&gt;l3_pol_a_ast -->
<g id="edge15" class="edge">
<title>calib&#45;&gt;l3_pol_a_ast</title>
<path fill="none" stroke="black" d="M323.66,-396.06C323.66,-348.93 323.66,-288 323.66,-288 323.66,-288 460.12,-288 460.12,-288"/>
<polygon fill="black" stroke="black" points="460.12,-291.5 470.12,-288 460.12,-284.5 460.12,-291.5"/>
</g>
<!-- l3_pol_a_ndf -->
<g id="node27" class="node">
<title>l3_pol_a_ndf</title>
<polygon fill="none" stroke="black" points="627.42,-246 470.42,-246 470.42,-222 627.42,-222 639.42,-234 627.42,-246"/>
<text text-anchor="middle" x="554.92" y="-230.3" font-family="Times,serif" font-size="14.00">pol_a astrometry 1..1</text>
</g>
<!-- calib&#45;&gt;l3_pol_a_ndf -->
<g id="edge17" class="edge">
<title>calib&#45;&gt;l3_pol_a_ndf</title>
<path fill="none" stroke="black" d="M308.66,-389.83C308.66,-325.92 308.66,-234 308.66,-234 308.66,-234 460.17,-234 460.17,-234"/>
<polygon fill="black" stroke="black" points="460.17,-237.5 470.17,-234 460.17,-230.5 460.17,-237.5"/>
</g>
<!-- l3_pol_a_mueller -->
<g id="node28" class="node">
<title>l3_pol_a_mueller</title>
<polygon fill="none" stroke="black" points="640.92,-192 456.92,-192 456.92,-168 640.92,-168 652.92,-180 640.92,-192"/>
<text text-anchor="middle" x="554.92" y="-176.3" font-family="Times,serif" font-size="14.00">pol_a mueller matrix 1..1</text>
</g>
<!-- calib&#45;&gt;l3_pol_a_mueller -->
<g id="edge16" class="edge">
<title>calib&#45;&gt;l3_pol_a_mueller</title>
<path fill="none" stroke="black" d="M292.66,-387.38C292.66,-307.62 292.66,-180 292.66,-180 292.66,-180 446.89,-180 446.89,-180"/>
<polygon fill="black" stroke="black" points="446.89,-183.5 456.89,-180 446.89,-176.5 446.89,-183.5"/>
</g>
<!-- l4_pol_a_afcal -->
<g id="node31" class="node">
<title>l4_pol_a_afcal</title>
<polygon fill="none" stroke="black" points="633.42,-138 464.42,-138 464.42,-114 633.42,-114 645.42,-126 633.42,-138"/>
<text text-anchor="middle" x="554.92" y="-122.3" font-family="Times,serif" font-size="14.00">pol_a absolute flux 1..1</text>
</g>
<!-- calib&#45;&gt;l4_pol_a_afcal -->
<g id="edge18" class="edge">
<title>calib&#45;&gt;l4_pol_a_afcal</title>
<path fill="none" stroke="black" d="M276.66,-389.44C276.66,-295.66 276.66,-126 276.66,-126 276.66,-126 454.19,-126 454.19,-126"/>
<polygon fill="black" stroke="black" points="454.19,-129.5 464.19,-126 454.19,-122.5 454.19,-129.5"/>
</g>
<!-- l4_pol_a_ctcal -->
<g id="node32" class="node">
<title>l4_pol_a_ctcal</title>
<polygon fill="none" stroke="black" points="645.92,-84 451.92,-84 451.92,-60 645.92,-60 657.92,-72 645.92,-84"/>
<text text-anchor="middle" x="554.92" y="-68.3" font-family="Times,serif" font-size="14.00">pol_a core throughput 1..1</text>
</g>
<!-- calib&#45;&gt;l4_pol_a_ctcal -->
<g id="edge19" class="edge">
<title>calib&#45;&gt;l4_pol_a_ctcal</title>
<path fill="none" stroke="black" d="M261.66,-395.44C261.66,-290.76 261.66,-72 261.66,-72 261.66,-72 441.53,-72 441.53,-72"/>
<polygon fill="black" stroke="black" points="441.53,-75.5 451.53,-72 441.53,-68.5 441.53,-75.5"/>
</g>
<!-- l4_pol_a_ndfilt -->
<g id="node33" class="node">
<title>l4_pol_a_ndfilt</title>
<polygon fill="none" stroke="black" points="618.92,-30 478.92,-30 478.92,-6 618.92,-6 630.92,-18 618.92,-30"/>
<text text-anchor="middle" x="554.92" y="-14.3" font-family="Times,serif" font-size="14.00">pol_a ND filter 1..1</text>
</g>
<!-- calib&#45;&gt;l4_pol_a_ndfilt -->
<g id="edge20" class="edge">
<title>calib&#45;&gt;l4_pol_a_ndfilt</title>
<path fill="none" stroke="black" d="M245.66,-408.19C245.66,-299.77 245.66,-18 245.66,-18 245.66,-18 468.87,-18 468.87,-18"/>
<polygon fill="black" stroke="black" points="468.87,-21.5 478.87,-18 468.87,-14.5 468.87,-21.5"/>
</g>
<!-- l1_pol_a_odir -->
<g id="node7" class="node">
<title>l1_pol_a_odir</title>
<ellipse fill="none" stroke="black" cx="554.92" cy="-1152" rx="146.77" ry="18"/>
<text text-anchor="middle" x="554.92" y="-1148.3" font-family="Times,serif" font-size="14.00">Output path for L1_pol_a 1..1</text>
</g>
<!-- config&#45;&gt;l1_pol_a_odir -->
<g id="edge21" class="edge">
<title>config&#45;&gt;l1_pol_a_odir</title>
<path fill="none" stroke="black" d="M350.66,-1089.49C350.66,-1119 350.66,-1152 350.66,-1152 350.66,-1152 397.83,-1152 397.83,-1152"/>
<polygon fill="black" stroke="black" points="397.83,-1155.5 407.83,-1152 397.83,-1148.5 397.83,-1155.5"/>
</g>
<!-- l2a_pol_a_odir -->
<g id="node10" class="node">
<title>l2a_pol_a_odir</title>
<ellipse fill="none" stroke="black" cx="554.92" cy="-1098" rx="152.17" ry="18"/>
<text text-anchor="middle" x="554.92" y="-1094.3" font-family="Times,serif" font-size="14.00">Output path for L2a_pol_a 1..1</text>
</g>
<!-- config&#45;&gt;l2a_pol_a_odir -->
<g id="edge22" class="edge">
<title>config&#45;&gt;l2a_pol_a_odir</title>
<path fill="none" stroke="black" d="M343.08,-1098C343.08,-1098 392.67,-1098 392.67,-1098"/>
<polygon fill="black" stroke="black" points="392.67,-1101.5 402.67,-1098 392.67,-1094.5 392.67,-1101.5"/>
</g>
<!-- l2b_pol_a_odir -->
<g id="node18" class="node">
<title>l2b_pol_a_odir</title>
<ellipse fill="none" stroke="black" cx="554.92" cy="-1044" rx="152.97" ry="18"/>
<text text-anchor="middle" x="554.92" y="-1040.3" font-family="Times,serif" font-size="14.00">Output path for L2b_pol_a 1..1</text>
</g>
<!-- config&#45;&gt;l2b_pol_a_odir -->
<g id="edge23" class="edge">
<title>config&#45;&gt;l2b_pol_a_odir</title>
<path fill="none" stroke="black" d="M366.36,-1044C366.36,-1044 391.7,-1044 391.7,-1044"/>
<polygon fill="black" stroke="black" points="391.7,-1047.5 401.7,-1044 391.7,-1040.5 391.7,-1047.5"/>
</g>
<!-- l3_pol_a_odir -->
<g id="node24" class="node">
<title>l3_pol_a_odir</title>
<ellipse fill="none" stroke="black" cx="554.92" cy="-990" rx="146.77" ry="18"/>
<text text-anchor="middle" x="554.92" y="-986.3" font-family="Times,serif" font-size="14.00">Output path for L3_pol_a 1..1</text>
</g>
<!-- config&#45;&gt;l3_pol_a_odir -->
<g id="edge24" class="edge">
<title>config&#45;&gt;l3_pol_a_odir</title>
<path fill="none" stroke="black" d="M343.08,-990C343.08,-990 397.88,-990 397.88,-990"/>
<polygon fill="black" stroke="black" points="397.88,-993.5 407.88,-990 397.88,-986.5 397.88,-993.5"/>
</g>
<!-- l4_pol_a_odir -->
<g id="node29" class="node">
<title>l4_pol_a_odir</title>
<ellipse fill="none" stroke="black" cx="554.92" cy="-936" rx="146.77" ry="18"/>
<text text-anchor="middle" x="554.92" y="-932.3" font-family="Times,serif" font-size="14.00">Output path for L4_pol_a 1..1</text>
</g>
<!-- config&#45;&gt;l4_pol_a_odir -->
<g id="edge25" class="edge">
<title>config&#45;&gt;l4_pol_a_odir</title>
<path fill="none" stroke="black" d="M360.66,-1015.91C360.66,-983.91 360.66,-936 360.66,-936 360.66,-936 397.69,-936 397.69,-936"/>
<polygon fill="black" stroke="black" points="397.69,-939.5 407.69,-936 397.69,-932.5 397.69,-939.5"/>
</g>
<!-- l1_pol_a_rec -->
<g id="node8" class="node">
<title>l1_pol_a_rec</title>
<polygon fill="none" stroke="black" points="621.92,-1434 475.92,-1434 475.92,-1410 621.92,-1410 633.92,-1422 621.92,-1434"/>
<text text-anchor="middle" x="554.92" y="-1418.3" font-family="Times,serif" font-size="14.00">recipe L1_pol_a 1..1</text>
</g>
<!-- recipe&#45;&gt;l1_pol_a_rec -->
<g id="edge26" class="edge">
<title>recipe&#45;&gt;l1_pol_a_rec</title>
<path fill="none" stroke="black" d="M278.66,-1354.22C278.66,-1384.92 278.66,-1422 278.66,-1422 278.66,-1422 465.76,-1422 465.76,-1422"/>
<polygon fill="black" stroke="black" points="465.76,-1425.5 475.76,-1422 465.76,-1418.5 465.76,-1425.5"/>
</g>
<!-- l2a_pol_a_rec -->
<g id="node11" class="node">
<title>l2a_pol_a_rec</title>
<polygon fill="none" stroke="black" points="626.42,-1380 471.42,-1380 471.42,-1356 626.42,-1356 638.42,-1368 626.42,-1380"/>
<text text-anchor="middle" x="554.92" y="-1364.3" font-family="Times,serif" font-size="14.00">recipe L2a_pol_a 1..1</text>
</g>
<!-- recipe&#45;&gt;l2a_pol_a_rec -->
<g id="edge27" class="edge">
<title>recipe&#45;&gt;l2a_pol_a_rec</title>
<path fill="none" stroke="black" d="M306.66,-1353.67C306.66,-1363.42 306.66,-1371.12 306.66,-1371.12 306.66,-1371.12 461.22,-1371.12 461.22,-1371.12"/>
<polygon fill="black" stroke="black" points="461.22,-1374.62 471.22,-1371.12 461.22,-1367.62 461.22,-1374.62"/>
</g>
<!-- l2b_pol_a_rec -->
<g id="node19" class="node">
<title>l2b_pol_a_rec</title>
<polygon fill="none" stroke="black" points="626.42,-1326 471.42,-1326 471.42,-1302 626.42,-1302 638.42,-1314 626.42,-1326"/>
<text text-anchor="middle" x="554.92" y="-1310.3" font-family="Times,serif" font-size="14.00">recipe L2b_pol_a 1..1</text>
</g>
<!-- recipe&#45;&gt;l2b_pol_a_rec -->
<g id="edge28" class="edge">
<title>recipe&#45;&gt;l2b_pol_a_rec</title>
<path fill="none" stroke="black" d="M334.61,-1314C334.61,-1314 461.32,-1314 461.32,-1314"/>
<polygon fill="black" stroke="black" points="461.32,-1317.5 471.32,-1314 461.32,-1310.5 461.32,-1317.5"/>
</g>
<!-- l3_pol_a_rec -->
<g id="node25" class="node">
<title>l3_pol_a_rec</title>
<polygon fill="none" stroke="black" points="621.92,-1272 475.92,-1272 475.92,-1248 621.92,-1248 633.92,-1260 621.92,-1272"/>
<text text-anchor="middle" x="554.92" y="-1256.3" font-family="Times,serif" font-size="14.00">recipe L3_pol_a 1..1</text>
</g>
<!-- recipe&#45;&gt;l3_pol_a_rec -->
<g id="edge29" class="edge">
<title>recipe&#45;&gt;l3_pol_a_rec</title>
<path fill="none" stroke="black" d="M306.66,-1274.33C306.66,-1264.58 306.66,-1256.88 306.66,-1256.88 306.66,-1256.88 465.69,-1256.88 465.69,-1256.88"/>
<polygon fill="black" stroke="black" points="465.69,-1260.38 475.69,-1256.88 465.69,-1253.38 465.69,-1260.38"/>
</g>
<!-- l4_pol_a_rec -->
<g id="node30" class="node">
<title>l4_pol_a_rec</title>
<polygon fill="none" stroke="black" points="621.92,-1218 475.92,-1218 475.92,-1194 621.92,-1194 633.92,-1206 621.92,-1218"/>
<text text-anchor="middle" x="554.92" y="-1202.3" font-family="Times,serif" font-size="14.00">recipe L4_pol_a 1..1</text>
</g>
<!-- recipe&#45;&gt;l4_pol_a_rec -->
<g id="edge30" class="edge">
<title>recipe&#45;&gt;l4_pol_a_rec</title>
<path fill="none" stroke="black" d="M278.66,-1273.78C278.66,-1243.08 278.66,-1206 278.66,-1206 278.66,-1206 465.76,-1206 465.76,-1206"/>
<polygon fill="black" stroke="black" points="465.76,-1209.5 475.76,-1206 465.76,-1202.5 465.76,-1209.5"/>
</g>
</g>
</svg>
