<?xml version="1.0" encoding="UTF-8" standalone="no"?>
<!DOCTYPE svg PUBLIC "-//W3C//DTD SVG 1.1//EN"
 "http://www.w3.org/Graphics/SVG/1.1/DTD/svg11.dtd">
<!-- Generated by graphviz version 2.43.0 (0)
 -->
<!-- Title: PupilClerks Pages: 1 -->
<svg width="709pt" height="401pt"
 viewBox="0.00 0.00 709.16 400.64" xmlns="http://www.w3.org/2000/svg" xmlns:xlink="http://www.w3.org/1999/xlink">
<g id="graph0" class="graph" transform="scale(1 1) rotate(0) translate(4 396.64)">
<title>PupilClerks</title>
<polygon fill="white" stroke="transparent" points="-4,4 -4,-396.64 705.16,-396.64 705.16,4 -4,4"/>
<!-- alarm_cal -->
<g id="node1" class="node">
<title>alarm_cal</title>
<text text-anchor="middle" x="91" y="-58.69" font-family="Times,serif" font-size="14.00">User requested update</text>
</g>
<!-- calib -->
<g id="node4" class="node">
<title>calib</title>
<ellipse fill="none" stroke="black" cx="292.09" cy="-62.39" rx="62.29" ry="62.29"/>
<text text-anchor="middle" x="292.09" y="-58.69" font-family="Times,serif" font-size="14.00">Calibration</text>
</g>
<!-- alarm_cal&#45;&gt;calib -->
<g id="edge1" class="edge">
<title>alarm_cal&#45;&gt;calib</title>
<path fill="none" stroke="black" stroke-dasharray="5,2" d="M182.13,-62.39C182.13,-62.39 219.47,-62.39 219.47,-62.39"/>
<polygon fill="black" stroke="black" points="219.47,-65.89 229.47,-62.39 219.47,-58.89 219.47,-65.89"/>
</g>
<!-- alarm_cnf -->
<g id="node2" class="node">
<title>alarm_cnf</title>
<text text-anchor="middle" x="91" y="-212.69" font-family="Times,serif" font-size="14.00">User requested update</text>
</g>
<!-- config -->
<g id="node5" class="node">
<title>config</title>
<ellipse fill="none" stroke="black" cx="292.09" cy="-216.39" rx="74.19" ry="74.19"/>
<text text-anchor="middle" x="292.09" y="-212.69" font-family="Times,serif" font-size="14.00">Configuration</text>
</g>
<!-- alarm_cnf&#45;&gt;config -->
<g id="edge2" class="edge">
<title>alarm_cnf&#45;&gt;config</title>
<path fill="none" stroke="black" stroke-dasharray="5,2" d="M182.13,-216.39C182.13,-216.39 207.84,-216.39 207.84,-216.39"/>
<polygon fill="black" stroke="black" points="207.84,-219.89 217.84,-216.39 207.84,-212.89 207.84,-219.89"/>
</g>
<!-- alarm_rec -->
<g id="node3" class="node">
<title>alarm_rec</title>
<text text-anchor="middle" x="91" y="-346.69" font-family="Times,serif" font-size="14.00">User requested update</text>
</g>
<!-- recipe -->
<g id="node6" class="node">
<title>recipe</title>
<ellipse fill="none" stroke="black" cx="292.09" cy="-350.39" rx="42.49" ry="42.49"/>
<text text-anchor="middle" x="292.09" y="-346.69" font-family="Times,serif" font-size="14.00">Recipe</text>
</g>
<!-- alarm_rec&#45;&gt;recipe -->
<g id="edge3" class="edge">
<title>alarm_rec&#45;&gt;recipe</title>
<path fill="none" stroke="black" stroke-dasharray="5,2" d="M182.13,-350.39C182.13,-350.39 239.74,-350.39 239.74,-350.39"/>
<polygon fill="black" stroke="black" points="239.74,-353.89 249.74,-350.39 239.74,-346.89 239.74,-353.89"/>
</g>
<!-- l1_cal_pupil_odir -->
<g id="node7" class="node">
<title>l1_cal_pupil_odir</title>
<ellipse fill="none" stroke="black" cx="551.67" cy="-216.39" rx="149.47" ry="18"/>
<text text-anchor="middle" x="551.67" y="-212.69" font-family="Times,serif" font-size="14.00">Output path for L1_eng_a 1..1</text>
</g>
<!-- config&#45;&gt;l1_cal_pupil_odir -->
<g id="edge4" class="edge">
<title>config&#45;&gt;l1_cal_pupil_odir</title>
<path fill="none" stroke="black" d="M366.48,-216.39C366.48,-216.39 391.79,-216.39 391.79,-216.39"/>
<polygon fill="black" stroke="black" points="391.79,-219.89 401.79,-216.39 391.79,-212.89 391.79,-219.89"/>
</g>
<!-- l1_cal_pupil_rec -->
<g id="node8" class="node">
<title>l1_cal_pupil_rec</title>
<polygon fill="none" stroke="black" points="621.17,-362.39 470.17,-362.39 470.17,-338.39 621.17,-338.39 633.17,-350.39 621.17,-362.39"/>
<text text-anchor="middle" x="551.67" y="-346.69" font-family="Times,serif" font-size="14.00">recipe L1_eng_a 1..1</text>
</g>
<!-- recipe&#45;&gt;l1_cal_pupil_rec -->
<g id="edge5" class="edge">
<title>recipe&#45;&gt;l1_cal_pupil_rec</title>
<path fill="none" stroke="black" d="M334.38,-350.39C334.38,-350.39 460.08,-350.39 460.08,-350.39"/>
<polygon fill="black" stroke="black" points="460.08,-353.89 470.08,-350.39 460.08,-346.89 460.08,-353.89"/>
</g>
</g>
</svg>
