<?xml version="1.0" encoding="UTF-8" standalone="no"?>
<!DOCTYPE svg PUBLIC "-//W3C//DTD SVG 1.1//EN"
 "http://www.w3.org/Graphics/SVG/1.1/DTD/svg11.dtd">
<!-- Generated by graphviz version 2.43.0 (0)
 -->
<!-- Title: PupilClerks Pages: 1 -->
<svg width="724pt" height="377pt"
 viewBox="0.00 0.00 723.97 377.49" xmlns="http://www.w3.org/2000/svg" xmlns:xlink="http://www.w3.org/1999/xlink">
<g id="graph0" class="graph" transform="scale(1 1) rotate(0) translate(4 373.49)">
<title>PupilClerks</title>
<polygon fill="white" stroke="transparent" points="-4,4 -4,-373.49 719.97,-373.49 719.97,4 -4,4"/>
<!-- alarm_cal -->
<g id="node1" class="node">
<title>alarm_cal</title>
<text text-anchor="middle" x="91" y="-85.69" font-family="Times,serif" font-size="14.00">User requested update</text>
</g>
<!-- calib -->
<g id="node4" class="node">
<title>calib</title>
<ellipse fill="none" stroke="black" cx="367.49" cy="-62.39" rx="62.29" ry="62.29"/>
<text text-anchor="middle" x="367.49" y="-58.69" font-family="Times,serif" font-size="14.00">Calibration</text>
</g>
<!-- alarm_cal&#45;&gt;calib -->
<g id="edge1" class="edge">
<title>alarm_cal&#45;&gt;calib</title>
<path fill="none" stroke="black" stroke-dasharray="5,2" d="M182.3,-89.39C182.3,-89.39 300.94,-89.39 300.94,-89.39"/>
<polygon fill="black" stroke="black" points="300.94,-92.89 310.94,-89.39 300.94,-85.89 300.94,-92.89"/>
</g>
<!-- alarm_cnf -->
<g id="node2" class="node">
<title>alarm_cnf</title>
<text text-anchor="middle" x="91" y="-31.69" font-family="Times,serif" font-size="14.00">User requested update</text>
</g>
<!-- alarm_cnf&#45;&gt;calib -->
<g id="edge2" class="edge">
<title>alarm_cnf&#45;&gt;calib</title>
<path fill="none" stroke="black" stroke-dasharray="5,2" d="M182.3,-35.39C182.3,-35.39 300.94,-35.39 300.94,-35.39"/>
<polygon fill="black" stroke="black" points="300.94,-38.89 310.94,-35.39 300.94,-31.89 300.94,-38.89"/>
</g>
<!-- alarm_rec -->
<g id="node3" class="node">
<title>alarm_rec</title>
<text text-anchor="middle" x="91" y="-181.69" font-family="Times,serif" font-size="14.00">User requested update</text>
</g>
<!-- recipe -->
<g id="node6" class="node">
<title>recipe</title>
<ellipse fill="none" stroke="black" cx="367.49" cy="-185.39" rx="42.49" ry="42.49"/>
<text text-anchor="middle" x="367.49" y="-181.69" font-family="Times,serif" font-size="14.00">Recipe</text>
</g>
<!-- alarm_rec&#45;&gt;recipe -->
<g id="edge3" class="edge">
<title>alarm_rec&#45;&gt;recipe</title>
<path fill="none" stroke="black" stroke-dasharray="5,2" d="M182.3,-185.39C182.3,-185.39 315.05,-185.39 315.05,-185.39"/>
<polygon fill="black" stroke="black" points="315.05,-188.89 325.05,-185.39 315.05,-181.89 315.05,-188.89"/>
</g>
<!-- config -->
<g id="node5" class="node">
<title>config</title>
<ellipse fill="none" stroke="black" cx="91" cy="-295.39" rx="74.19" ry="74.19"/>
<text text-anchor="middle" x="91" y="-291.69" font-family="Times,serif" font-size="14.00">Configuration</text>
</g>
<!-- l1_cal_pupil_odir -->
<g id="node7" class="node">
<title>l1_cal_pupil_odir</title>
<ellipse fill="none" stroke="black" cx="367.49" cy="-295.39" rx="149.47" ry="18"/>
<text text-anchor="middle" x="367.49" y="-291.69" font-family="Times,serif" font-size="14.00">Output path for L1_eng_a 1..1</text>
</g>
<!-- config&#45;&gt;l1_cal_pupil_odir -->
<g id="edge4" class="edge">
<title>config&#45;&gt;l1_cal_pupil_odir</title>
<path fill="none" stroke="black" d="M165.46,-295.39C165.46,-295.39 207.97,-295.39 207.97,-295.39"/>
<polygon fill="black" stroke="black" points="207.97,-298.89 217.97,-295.39 207.97,-291.89 207.97,-298.89"/>
</g>
<!-- l1_cal_pupil_rec -->
<g id="node8" class="node">
<title>l1_cal_pupil_rec</title>
<polygon fill="none" stroke="black" points="703.97,-197.39 552.97,-197.39 552.97,-173.39 703.97,-173.39 715.97,-185.39 703.97,-197.39"/>
<text text-anchor="middle" x="634.47" y="-181.69" font-family="Times,serif" font-size="14.00">recipe L1_eng_a 1..1</text>
</g>
<!-- recipe&#45;&gt;l1_cal_pupil_rec -->
<g id="edge5" class="edge">
<title>recipe&#45;&gt;l1_cal_pupil_rec</title>
<path fill="none" stroke="black" d="M409.79,-185.39C409.79,-185.39 542.82,-185.39 542.82,-185.39"/>
<polygon fill="black" stroke="black" points="542.82,-188.89 552.82,-185.39 542.82,-181.89 542.82,-188.89"/>
</g>
</g>
</svg>
