<?xml version="1.0" encoding="UTF-8" standalone="no"?>
<!DOCTYPE svg PUBLIC "-//W3C//DTD SVG 1.1//EN"
 "http://www.w3.org/Graphics/SVG/1.1/DTD/svg11.dtd">
<!-- Generated by graphviz version 2.43.0 (0)
 -->
<!-- Title: Clerks Pages: 1 -->
<svg width="787pt" height="3094pt"
 viewBox="0.00 0.00 787.14 3094.00" xmlns="http://www.w3.org/2000/svg" xmlns:xlink="http://www.w3.org/1999/xlink">
<g id="graph0" class="graph" transform="scale(1 1) rotate(0) translate(4 3090)">
<title>Clerks</title>
<polygon fill="white" stroke="transparent" points="-4,4 -4,-3090 783.14,-3090 783.14,4 -4,4"/>
<!-- alarm_cal -->
<g id="node1" class="node">
<title>alarm_cal</title>
<text text-anchor="middle" x="165.09" y="-554.3" font-family="Times,serif" font-size="14.00">User requested update</text>
</g>
<!-- calib -->
<g id="node4" class="node">
<title>calib</title>
<ellipse fill="none" stroke="black" cx="449.36" cy="-531" rx="62.29" ry="62.29"/>
<text text-anchor="middle" x="449.36" y="-527.3" font-family="Times,serif" font-size="14.00">Calibration</text>
</g>
<!-- alarm_cal&#45;&gt;calib -->
<g id="edge1" class="edge">
<title>alarm_cal&#45;&gt;calib</title>
<path fill="none" stroke="black" stroke-dasharray="5,2" d="M256.21,-558C256.21,-558 383.07,-558 383.07,-558"/>
<polygon fill="black" stroke="black" points="383.07,-561.5 393.07,-558 383.07,-554.5 383.07,-561.5"/>
</g>
<!-- alarm_cnf -->
<g id="node2" class="node">
<title>alarm_cnf</title>
<text text-anchor="middle" x="165.09" y="-500.3" font-family="Times,serif" font-size="14.00">User requested update</text>
</g>
<!-- alarm_cnf&#45;&gt;calib -->
<g id="edge2" class="edge">
<title>alarm_cnf&#45;&gt;calib</title>
<path fill="none" stroke="black" stroke-dasharray="5,2" d="M256.21,-504C256.21,-504 383.07,-504 383.07,-504"/>
<polygon fill="black" stroke="black" points="383.07,-507.5 393.07,-504 383.07,-500.5 383.07,-507.5"/>
</g>
<!-- alarm_rec -->
<g id="node3" class="node">
<title>alarm_rec</title>
<text text-anchor="middle" x="165.09" y="-1202.3" font-family="Times,serif" font-size="14.00">User requested update</text>
</g>
<!-- recipe -->
<g id="node6" class="node">
<title>recipe</title>
<ellipse fill="none" stroke="black" cx="449.36" cy="-1206" rx="42.49" ry="42.49"/>
<text text-anchor="middle" x="449.36" y="-1202.3" font-family="Times,serif" font-size="14.00">Recipe</text>
</g>
<!-- alarm_rec&#45;&gt;recipe -->
<g id="edge3" class="edge">
<title>alarm_rec&#45;&gt;recipe</title>
<path fill="none" stroke="black" stroke-dasharray="5,2" d="M256.21,-1206C256.21,-1206 396.78,-1206 396.78,-1206"/>
<polygon fill="black" stroke="black" points="396.78,-1209.5 406.78,-1206 396.78,-1202.5 396.78,-1209.5"/>
</g>
<!-- l1_spec_a_nllut -->
<g id="node37" class="node">
<title>l1_spec_a_nllut</title>
<ellipse fill="none" stroke="black" cx="673.85" cy="-1044" rx="80.69" ry="18"/>
<text text-anchor="middle" x="673.85" y="-1040.3" font-family="Times,serif" font-size="14.00">l1_spec_a_nllut</text>
</g>
<!-- calib&#45;&gt;l1_spec_a_nllut -->
<g id="edge4" class="edge">
<title>calib&#45;&gt;l1_spec_a_nllut</title>
<path fill="none" stroke="black" d="M494.14,-574.74C494.14,-698.8 494.14,-1044 494.14,-1044 494.14,-1044 583.19,-1044 583.19,-1044"/>
<polygon fill="black" stroke="black" points="583.19,-1047.5 593.19,-1044 583.19,-1040.5 583.19,-1047.5"/>
</g>
<!-- l2a_spec_a_mbpm -->
<g id="node38" class="node">
<title>l2a_spec_a_mbpm</title>
<ellipse fill="none" stroke="black" cx="673.85" cy="-990" rx="93.68" ry="18"/>
<text text-anchor="middle" x="673.85" y="-986.3" font-family="Times,serif" font-size="14.00">l2a_spec_a_mbpm</text>
</g>
<!-- calib&#45;&gt;l2a_spec_a_mbpm -->
<g id="edge5" class="edge">
<title>calib&#45;&gt;l2a_spec_a_mbpm</title>
<path fill="none" stroke="black" d="M496.14,-572.54C496.14,-685.53 496.14,-990 496.14,-990 496.14,-990 570.05,-990 570.05,-990"/>
<polygon fill="black" stroke="black" points="570.05,-993.5 580.05,-990 570.05,-986.5 570.05,-993.5"/>
</g>
<!-- l2a_spec_a_dnb -->
<g id="node39" class="node">
<title>l2a_spec_a_dnb</title>
<ellipse fill="none" stroke="black" cx="673.85" cy="-936" rx="81.79" ry="18"/>
<text text-anchor="middle" x="673.85" y="-932.3" font-family="Times,serif" font-size="14.00">l2a_spec_a_dnb</text>
</g>
<!-- calib&#45;&gt;l2a_spec_a_dnb -->
<g id="edge6" class="edge">
<title>calib&#45;&gt;l2a_spec_a_dnb</title>
<path fill="none" stroke="black" d="M498.14,-570.2C498.14,-671.84 498.14,-936 498.14,-936 498.14,-936 581.91,-936 581.91,-936"/>
<polygon fill="black" stroke="black" points="581.91,-939.5 591.91,-936 581.91,-932.5 581.91,-939.5"/>
</g>
<!-- l2a_spec_a_cti -->
<g id="node40" class="node">
<title>l2a_spec_a_cti</title>
<ellipse fill="none" stroke="black" cx="673.85" cy="-882" rx="76.09" ry="18"/>
<text text-anchor="middle" x="673.85" y="-878.3" font-family="Times,serif" font-size="14.00">l2a_spec_a_cti</text>
</g>
<!-- calib&#45;&gt;l2a_spec_a_cti -->
<g id="edge7" class="edge">
<title>calib&#45;&gt;l2a_spec_a_cti</title>
<path fill="none" stroke="black" d="M500.14,-567.57C500.14,-657.47 500.14,-882 500.14,-882 500.14,-882 587.66,-882 587.66,-882"/>
<polygon fill="black" stroke="black" points="587.66,-885.5 597.66,-882 587.66,-878.5 587.66,-885.5"/>
</g>
<!-- l2a_spec_a_ff -->
<g id="node41" class="node">
<title>l2a_spec_a_ff</title>
<ellipse fill="none" stroke="black" cx="673.85" cy="-828" rx="70.69" ry="18"/>
<text text-anchor="middle" x="673.85" y="-824.3" font-family="Times,serif" font-size="14.00">l2a_spec_a_ff</text>
</g>
<!-- calib&#45;&gt;l2a_spec_a_ff -->
<g id="edge8" class="edge">
<title>calib&#45;&gt;l2a_spec_a_ff</title>
<path fill="none" stroke="black" d="M502.14,-564.49C502.14,-642.17 502.14,-828 502.14,-828 502.14,-828 592.52,-828 592.52,-828"/>
<polygon fill="black" stroke="black" points="592.52,-831.5 602.52,-828 592.52,-824.5 592.52,-831.5"/>
</g>
<!-- l2a_spec_a_kgain -->
<g id="node42" class="node">
<title>l2a_spec_a_kgain</title>
<ellipse fill="none" stroke="black" cx="673.85" cy="-774" rx="89.88" ry="18"/>
<text text-anchor="middle" x="673.85" y="-770.3" font-family="Times,serif" font-size="14.00">l2a_spec_a_kgain</text>
</g>
<!-- calib&#45;&gt;l2a_spec_a_kgain -->
<g id="edge9" class="edge">
<title>calib&#45;&gt;l2a_spec_a_kgain</title>
<path fill="none" stroke="black" d="M504.14,-561.28C504.14,-626.43 504.14,-774 504.14,-774 504.14,-774 574.02,-774 574.02,-774"/>
<polygon fill="black" stroke="black" points="574.02,-777.5 584.02,-774 574.02,-770.5 574.02,-777.5"/>
</g>
<!-- l2a_spec_a_emg -->
<g id="node43" class="node">
<title>l2a_spec_a_emg</title>
<ellipse fill="none" stroke="black" cx="673.85" cy="-720" rx="84.49" ry="18"/>
<text text-anchor="middle" x="673.85" y="-716.3" font-family="Times,serif" font-size="14.00">l2a_spec_a_emg</text>
</g>
<!-- calib&#45;&gt;l2a_spec_a_emg -->
<g id="edge10" class="edge">
<title>calib&#45;&gt;l2a_spec_a_emg</title>
<path fill="none" stroke="black" d="M506.14,-556.88C506.14,-608.65 506.14,-720 506.14,-720 506.14,-720 579.01,-720 579.01,-720"/>
<polygon fill="black" stroke="black" points="579.01,-723.5 589.01,-720 579.01,-716.5 579.01,-723.5"/>
</g>
<!-- l2b_spec_a_distm -->
<g id="node44" class="node">
<title>l2b_spec_a_distm</title>
<ellipse fill="none" stroke="black" cx="673.85" cy="-666" rx="90.98" ry="18"/>
<text text-anchor="middle" x="673.85" y="-662.3" font-family="Times,serif" font-size="14.00">l2b_spec_a_distm</text>
</g>
<!-- calib&#45;&gt;l2b_spec_a_distm -->
<g id="edge11" class="edge">
<title>calib&#45;&gt;l2b_spec_a_distm</title>
<path fill="none" stroke="black" d="M508.14,-552.09C508.14,-590.06 508.14,-666 508.14,-666 508.14,-666 572.75,-666 572.75,-666"/>
<polygon fill="black" stroke="black" points="572.75,-669.5 582.75,-666 572.75,-662.5 572.75,-669.5"/>
</g>
<!-- l2b_spec_a_excicrf -->
<g id="node45" class="node">
<title>l2b_spec_a_excicrf</title>
<ellipse fill="none" stroke="black" cx="673.85" cy="-612" rx="96.38" ry="18"/>
<text text-anchor="middle" x="673.85" y="-608.3" font-family="Times,serif" font-size="14.00">l2b_spec_a_excicrf</text>
</g>
<!-- calib&#45;&gt;l2b_spec_a_excicrf -->
<g id="edge12" class="edge">
<title>calib&#45;&gt;l2b_spec_a_excicrf</title>
<path fill="none" stroke="black" d="M510.14,-545.48C510.14,-568.78 510.14,-612 510.14,-612 510.14,-612 567.2,-612 567.2,-612"/>
<polygon fill="black" stroke="black" points="567.2,-615.5 577.2,-612 567.2,-608.5 567.2,-615.5"/>
</g>
<!-- l2b_spec_a_excfovps -->
<g id="node46" class="node">
<title>l2b_spec_a_excfovps</title>
<ellipse fill="none" stroke="black" cx="673.85" cy="-558" rx="105.08" ry="18"/>
<text text-anchor="middle" x="673.85" y="-554.3" font-family="Times,serif" font-size="14.00">l2b_spec_a_excfovps</text>
</g>
<!-- calib&#45;&gt;l2b_spec_a_excfovps -->
<g id="edge13" class="edge">
<title>calib&#45;&gt;l2b_spec_a_excfovps</title>
<path fill="none" stroke="black" d="M505.72,-558C505.72,-558 558.45,-558 558.45,-558"/>
<polygon fill="black" stroke="black" points="558.45,-561.5 568.45,-558 558.45,-554.5 558.45,-561.5"/>
</g>
<!-- l2b_spec_a_cfamfo -->
<g id="node47" class="node">
<title>l2b_spec_a_cfamfo</title>
<ellipse fill="none" stroke="black" cx="673.85" cy="-504" rx="96.38" ry="18"/>
<text text-anchor="middle" x="673.85" y="-500.3" font-family="Times,serif" font-size="14.00">l2b_spec_a_cfamfo</text>
</g>
<!-- calib&#45;&gt;l2b_spec_a_cfamfo -->
<g id="edge14" class="edge">
<title>calib&#45;&gt;l2b_spec_a_cfamfo</title>
<path fill="none" stroke="black" d="M505.72,-504C505.72,-504 567.26,-504 567.26,-504"/>
<polygon fill="black" stroke="black" points="567.26,-507.5 577.26,-504 567.26,-500.5 567.26,-507.5"/>
</g>
<!-- l3_spec_a_dispm -->
<g id="node48" class="node">
<title>l3_spec_a_dispm</title>
<ellipse fill="none" stroke="black" cx="673.85" cy="-450" rx="87.18" ry="18"/>
<text text-anchor="middle" x="673.85" y="-446.3" font-family="Times,serif" font-size="14.00">l3_spec_a_dispm</text>
</g>
<!-- calib&#45;&gt;l3_spec_a_dispm -->
<g id="edge15" class="edge">
<title>calib&#45;&gt;l3_spec_a_dispm</title>
<path fill="none" stroke="black" d="M500.14,-494.29C500.14,-472.86 500.14,-450 500.14,-450 500.14,-450 576.74,-450 576.74,-450"/>
<polygon fill="black" stroke="black" points="576.74,-453.5 586.74,-450 576.74,-446.5 576.74,-453.5"/>
</g>
<!-- l3_spec_a_wavem -->
<g id="node49" class="node">
<title>l3_spec_a_wavem</title>
<ellipse fill="none" stroke="black" cx="673.85" cy="-396" rx="91.78" ry="18"/>
<text text-anchor="middle" x="673.85" y="-392.3" font-family="Times,serif" font-size="14.00">l3_spec_a_wavem</text>
</g>
<!-- calib&#45;&gt;l3_spec_a_wavem -->
<g id="edge16" class="edge">
<title>calib&#45;&gt;l3_spec_a_wavem</title>
<path fill="none" stroke="black" d="M487.14,-481.11C487.14,-442.66 487.14,-396 487.14,-396 487.14,-396 572.13,-396 572.13,-396"/>
<polygon fill="black" stroke="black" points="572.13,-399.5 582.13,-396 572.13,-392.5 572.13,-399.5"/>
</g>
<!-- l4_spec_a_afcal -->
<g id="node50" class="node">
<title>l4_spec_a_afcal</title>
<ellipse fill="none" stroke="black" cx="673.85" cy="-342" rx="81.49" ry="18"/>
<text text-anchor="middle" x="673.85" y="-338.3" font-family="Times,serif" font-size="14.00">l4_spec_a_afcal</text>
</g>
<!-- calib&#45;&gt;l4_spec_a_afcal -->
<g id="edge17" class="edge">
<title>calib&#45;&gt;l4_spec_a_afcal</title>
<path fill="none" stroke="black" d="M475.14,-474.04C475.14,-418.39 475.14,-342 475.14,-342 475.14,-342 582.45,-342 582.45,-342"/>
<polygon fill="black" stroke="black" points="582.45,-345.5 592.45,-342 582.45,-338.5 582.45,-345.5"/>
</g>
<!-- l4_spec_a_ctcal -->
<g id="node51" class="node">
<title>l4_spec_a_ctcal</title>
<ellipse fill="none" stroke="black" cx="673.85" cy="-288" rx="81.49" ry="18"/>
<text text-anchor="middle" x="673.85" y="-284.3" font-family="Times,serif" font-size="14.00">l4_spec_a_ctcal</text>
</g>
<!-- calib&#45;&gt;l4_spec_a_ctcal -->
<g id="edge18" class="edge">
<title>calib&#45;&gt;l4_spec_a_ctcal</title>
<path fill="none" stroke="black" d="M462.14,-469.68C462.14,-397.69 462.14,-288 462.14,-288 462.14,-288 582.6,-288 582.6,-288"/>
<polygon fill="black" stroke="black" points="582.6,-291.5 592.6,-288 582.6,-284.5 582.6,-291.5"/>
</g>
<!-- l4_spec_a_ndfilt -->
<g id="node52" class="node">
<title>l4_spec_a_ndfilt</title>
<ellipse fill="none" stroke="black" cx="673.85" cy="-234" rx="83.39" ry="18"/>
<text text-anchor="middle" x="673.85" y="-230.3" font-family="Times,serif" font-size="14.00">l4_spec_a_ndfilt</text>
</g>
<!-- calib&#45;&gt;l4_spec_a_ndfilt -->
<g id="edge19" class="edge">
<title>calib&#45;&gt;l4_spec_a_ndfilt</title>
<path fill="none" stroke="black" d="M450.14,-468.38C450.14,-381.24 450.14,-234 450.14,-234 450.14,-234 580.55,-234 580.55,-234"/>
<polygon fill="black" stroke="black" points="580.55,-237.5 590.55,-234 580.55,-230.5 580.55,-237.5"/>
</g>
<!-- l4_spec_a_stmap -->
<g id="node53" class="node">
<title>l4_spec_a_stmap</title>
<ellipse fill="none" stroke="black" cx="673.85" cy="-180" rx="87.99" ry="18"/>
<text text-anchor="middle" x="673.85" y="-176.3" font-family="Times,serif" font-size="14.00">l4_spec_a_stmap</text>
</g>
<!-- calib&#45;&gt;l4_spec_a_stmap -->
<g id="edge20" class="edge">
<title>calib&#45;&gt;l4_spec_a_stmap</title>
<path fill="none" stroke="black" d="M437.14,-469.46C437.14,-368.79 437.14,-180 437.14,-180 437.14,-180 576.04,-180 576.04,-180"/>
<polygon fill="black" stroke="black" points="576.04,-183.5 586.04,-180 576.04,-176.5 576.04,-183.5"/>
</g>
<!-- l4_spec_a_tspi -->
<g id="node54" class="node">
<title>l4_spec_a_tspi</title>
<ellipse fill="none" stroke="black" cx="673.85" cy="-126" rx="76.89" ry="18"/>
<text text-anchor="middle" x="673.85" y="-122.3" font-family="Times,serif" font-size="14.00">l4_spec_a_tspi</text>
</g>
<!-- calib&#45;&gt;l4_spec_a_tspi -->
<g id="edge21" class="edge">
<title>calib&#45;&gt;l4_spec_a_tspi</title>
<path fill="none" stroke="black" d="M425.14,-473.4C425.14,-361.59 425.14,-126 425.14,-126 425.14,-126 586.86,-126 586.86,-126"/>
<polygon fill="black" stroke="black" points="586.86,-129.5 596.86,-126 586.86,-122.5 586.86,-129.5"/>
</g>
<!-- l4_spec_a_rspi -->
<g id="node55" class="node">
<title>l4_spec_a_rspi</title>
<ellipse fill="none" stroke="black" cx="673.85" cy="-72" rx="77.19" ry="18"/>
<text text-anchor="middle" x="673.85" y="-68.3" font-family="Times,serif" font-size="14.00">l4_spec_a_rspi</text>
</g>
<!-- calib&#45;&gt;l4_spec_a_rspi -->
<g id="edge22" class="edge">
<title>calib&#45;&gt;l4_spec_a_rspi</title>
<path fill="none" stroke="black" d="M412.14,-480.57C412.14,-361.33 412.14,-72 412.14,-72 412.14,-72 586.39,-72 586.39,-72"/>
<polygon fill="black" stroke="black" points="586.39,-75.5 596.39,-72 586.39,-68.5 586.39,-75.5"/>
</g>
<!-- l4_spec_a_lsf -->
<g id="node56" class="node">
<title>l4_spec_a_lsf</title>
<ellipse fill="none" stroke="black" cx="673.85" cy="-18" rx="70.39" ry="18"/>
<text text-anchor="middle" x="673.85" y="-14.3" font-family="Times,serif" font-size="14.00">l4_spec_a_lsf</text>
</g>
<!-- calib&#45;&gt;l4_spec_a_lsf -->
<g id="edge23" class="edge">
<title>calib&#45;&gt;l4_spec_a_lsf</title>
<path fill="none" stroke="black" d="M400.14,-492.44C400.14,-373.14 400.14,-18 400.14,-18 400.14,-18 593.36,-18 593.36,-18"/>
<polygon fill="black" stroke="black" points="593.36,-21.5 603.36,-18 593.36,-14.5 593.36,-21.5"/>
</g>
<!-- config -->
<g id="node5" class="node">
<title>config</title>
<ellipse fill="none" stroke="black" cx="165.09" cy="-1392" rx="74.19" ry="74.19"/>
<text text-anchor="middle" x="165.09" y="-1388.3" font-family="Times,serif" font-size="14.00">Configuration</text>
</g>
<!-- l1_spec_a_odir -->
<g id="node57" class="node">
<title>l1_spec_a_odir</title>
<ellipse fill="none" stroke="black" cx="449.36" cy="-1500" rx="77.19" ry="18"/>
<text text-anchor="middle" x="449.36" y="-1496.3" font-family="Times,serif" font-size="14.00">l1_spec_a_odir</text>
</g>
<!-- config&#45;&gt;l1_spec_a_odir -->
<g id="edge24" class="edge">
<title>config&#45;&gt;l1_spec_a_odir</title>
<path fill="none" stroke="black" d="M208.7,-1452C263.13,-1452 349.14,-1452 349.14,-1452 349.14,-1452 349.14,-1501 349.14,-1501 349.14,-1501 361.88,-1501 361.88,-1501"/>
<polygon fill="black" stroke="black" points="361.88,-1504.5 371.88,-1501 361.88,-1497.5 361.88,-1504.5"/>
</g>
<!-- l2a_spec_a_odir -->
<g id="node58" class="node">
<title>l2a_spec_a_odir</title>
<ellipse fill="none" stroke="black" cx="449.36" cy="-1446" rx="83.39" ry="18"/>
<text text-anchor="middle" x="449.36" y="-1442.3" font-family="Times,serif" font-size="14.00">l2a_spec_a_odir</text>
</g>
<!-- config&#45;&gt;l2a_spec_a_odir -->
<g id="edge25" class="edge">
<title>config&#45;&gt;l2a_spec_a_odir</title>
<path fill="none" stroke="black" d="M221.59,-1440C221.59,-1440 360.9,-1440 360.9,-1440"/>
<polygon fill="black" stroke="black" points="360.9,-1443.5 370.9,-1440 360.9,-1436.5 360.9,-1443.5"/>
</g>
<!-- l2b_spec_a_odir -->
<g id="node59" class="node">
<title>l2b_spec_a_odir</title>
<ellipse fill="none" stroke="black" cx="449.36" cy="-1392" rx="83.39" ry="18"/>
<text text-anchor="middle" x="449.36" y="-1388.3" font-family="Times,serif" font-size="14.00">l2b_spec_a_odir</text>
</g>
<!-- config&#45;&gt;l2b_spec_a_odir -->
<g id="edge26" class="edge">
<title>config&#45;&gt;l2b_spec_a_odir</title>
<path fill="none" stroke="black" d="M239.4,-1392C239.4,-1392 355.95,-1392 355.95,-1392"/>
<polygon fill="black" stroke="black" points="355.95,-1395.5 365.95,-1392 355.95,-1388.5 355.95,-1395.5"/>
</g>
<!-- l3_spec_a_odir -->
<g id="node60" class="node">
<title>l3_spec_a_odir</title>
<ellipse fill="none" stroke="black" cx="449.36" cy="-1338" rx="77.19" ry="18"/>
<text text-anchor="middle" x="449.36" y="-1334.3" font-family="Times,serif" font-size="14.00">l3_spec_a_odir</text>
</g>
<!-- config&#45;&gt;l3_spec_a_odir -->
<g id="edge27" class="edge">
<title>config&#45;&gt;l3_spec_a_odir</title>
<path fill="none" stroke="black" d="M215.91,-1338C215.91,-1338 361.93,-1338 361.93,-1338"/>
<polygon fill="black" stroke="black" points="361.93,-1341.5 371.93,-1338 361.93,-1334.5 361.93,-1341.5"/>
</g>
<!-- l4_spec_a_odir -->
<g id="node61" class="node">
<title>l4_spec_a_odir</title>
<ellipse fill="none" stroke="black" cx="449.36" cy="-1284" rx="77.19" ry="18"/>
<text text-anchor="middle" x="449.36" y="-1280.3" font-family="Times,serif" font-size="14.00">l4_spec_a_odir</text>
</g>
<!-- config&#45;&gt;l4_spec_a_odir -->
<g id="edge28" class="edge">
<title>config&#45;&gt;l4_spec_a_odir</title>
<path fill="none" stroke="black" d="M165.14,-1317.88C165.14,-1299.03 165.14,-1284 165.14,-1284 165.14,-1284 361.7,-1284 361.7,-1284"/>
<polygon fill="black" stroke="black" points="361.7,-1287.5 371.7,-1284 361.7,-1280.5 361.7,-1287.5"/>
</g>
<!-- l1_spec_a_rec -->
<g id="node62" class="node">
<title>l1_spec_a_rec</title>
<ellipse fill="none" stroke="black" cx="673.85" cy="-1314" rx="73.39" ry="18"/>
<text text-anchor="middle" x="673.85" y="-1310.3" font-family="Times,serif" font-size="14.00">l1_spec_a_rec</text>
</g>
<!-- recipe&#45;&gt;l1_spec_a_rec -->
<g id="edge29" class="edge">
<title>recipe&#45;&gt;l1_spec_a_rec</title>
<path fill="none" stroke="black" d="M482.13,-1233C511.88,-1233 551.14,-1233 551.14,-1233 551.14,-1233 551.14,-1309.95 551.14,-1309.95 551.14,-1309.95 592.11,-1309.95 592.11,-1309.95"/>
<polygon fill="black" stroke="black" points="592.11,-1313.45 602.11,-1309.95 592.11,-1306.45 592.11,-1313.45"/>
</g>
<!-- l2a_spec_a_rec -->
<g id="node63" class="node">
<title>l2a_spec_a_rec</title>
<ellipse fill="none" stroke="black" cx="673.85" cy="-1260" rx="79.09" ry="18"/>
<text text-anchor="middle" x="673.85" y="-1256.3" font-family="Times,serif" font-size="14.00">l2a_spec_a_rec</text>
</g>
<!-- recipe&#45;&gt;l2a_spec_a_rec -->
<g id="edge30" class="edge">
<title>recipe&#45;&gt;l2a_spec_a_rec</title>
<path fill="none" stroke="black" d="M450.14,-1248.68C450.14,-1253.73 450.14,-1257.12 450.14,-1257.12 450.14,-1257.12 585.29,-1257.12 585.29,-1257.12"/>
<polygon fill="black" stroke="black" points="585.29,-1260.62 595.29,-1257.12 585.29,-1253.62 585.29,-1260.62"/>
</g>
<!-- l2b_spec_a_rec -->
<g id="node64" class="node">
<title>l2b_spec_a_rec</title>
<ellipse fill="none" stroke="black" cx="673.85" cy="-1206" rx="79.09" ry="18"/>
<text text-anchor="middle" x="673.85" y="-1202.3" font-family="Times,serif" font-size="14.00">l2b_spec_a_rec</text>
</g>
<!-- recipe&#45;&gt;l2b_spec_a_rec -->
<g id="edge31" class="edge">
<title>recipe&#45;&gt;l2b_spec_a_rec</title>
<path fill="none" stroke="black" d="M491.85,-1206C491.85,-1206 584.27,-1206 584.27,-1206"/>
<polygon fill="black" stroke="black" points="584.27,-1209.5 594.27,-1206 584.27,-1202.5 584.27,-1209.5"/>
</g>
<!-- l3_spec_a_rec -->
<g id="node65" class="node">
<title>l3_spec_a_rec</title>
<ellipse fill="none" stroke="black" cx="673.85" cy="-1152" rx="73.39" ry="18"/>
<text text-anchor="middle" x="673.85" y="-1148.3" font-family="Times,serif" font-size="14.00">l3_spec_a_rec</text>
</g>
<!-- recipe&#45;&gt;l3_spec_a_rec -->
<g id="edge32" class="edge">
<title>recipe&#45;&gt;l3_spec_a_rec</title>
<path fill="none" stroke="black" d="M464.14,-1166.33C464.14,-1156.58 464.14,-1148.88 464.14,-1148.88 464.14,-1148.88 591.38,-1148.88 591.38,-1148.88"/>
<polygon fill="black" stroke="black" points="591.38,-1152.38 601.38,-1148.88 591.38,-1145.38 591.38,-1152.38"/>
</g>
<!-- l4_spec_a_rec -->
<g id="node66" class="node">
<title>l4_spec_a_rec</title>
<ellipse fill="none" stroke="black" cx="673.85" cy="-1098" rx="73.39" ry="18"/>
<text text-anchor="middle" x="673.85" y="-1094.3" font-family="Times,serif" font-size="14.00">l4_spec_a_rec</text>
</g>
<!-- recipe&#45;&gt;l4_spec_a_rec -->
<g id="edge33" class="edge">
<title>recipe&#45;&gt;l4_spec_a_rec</title>
<path fill="none" stroke="black" d="M436.14,-1165.78C436.14,-1135.08 436.14,-1098 436.14,-1098 436.14,-1098 590.26,-1098 590.26,-1098"/>
<polygon fill="black" stroke="black" points="590.26,-1101.5 600.26,-1098 590.26,-1094.5 590.26,-1101.5"/>
</g>
<!-- l1_spec_pc_odir -->
<g id="node7" class="node">
<title>l1_spec_pc_odir</title>
<ellipse fill="none" stroke="black" cx="165.09" cy="-1502" rx="159.47" ry="18"/>
<text text-anchor="middle" x="165.09" y="-1498.3" font-family="Times,serif" font-size="14.00">Output path for L1_spec_pc 1..1</text>
</g>
<!-- l1_spec_pc_rec -->
<g id="node8" class="node">
<title>l1_spec_pc_rec</title>
<polygon fill="none" stroke="black" points="241.59,-1568 76.59,-1568 76.59,-1544 241.59,-1544 253.59,-1556 241.59,-1568"/>
<text text-anchor="middle" x="165.09" y="-1552.3" font-family="Times,serif" font-size="14.00">recipe L1_spec_pc 1..1</text>
</g>
<!-- l1_spec_pc_nllut -->
<g id="node9" class="node">
<title>l1_spec_pc_nllut</title>
<polygon fill="none" stroke="black" points="253.59,-1622 64.59,-1622 64.59,-1598 253.59,-1598 265.59,-1610 253.59,-1622"/>
<text text-anchor="middle" x="165.09" y="-1606.3" font-family="Times,serif" font-size="14.00">non linear calibration 1..1</text>
</g>
<!-- l2a_spec_pc_odir -->
<g id="node10" class="node">
<title>l2a_spec_pc_odir</title>
<ellipse fill="none" stroke="black" cx="165.09" cy="-1664" rx="164.37" ry="18"/>
<text text-anchor="middle" x="165.09" y="-1660.3" font-family="Times,serif" font-size="14.00">Output path for L2a_spec_pc 1..1</text>
</g>
<!-- l2a_spec_pc_rec -->
<g id="node11" class="node">
<title>l2a_spec_pc_rec</title>
<polygon fill="none" stroke="black" points="245.59,-1730 72.59,-1730 72.59,-1706 245.59,-1706 257.59,-1718 245.59,-1730"/>
<text text-anchor="middle" x="165.09" y="-1714.3" font-family="Times,serif" font-size="14.00">recipe L2a_spec_pc 1..1</text>
</g>
<!-- l2a_spec_pc_mbpm -->
<g id="node12" class="node">
<title>l2a_spec_pc_mbpm</title>
<polygon fill="none" stroke="black" points="257.59,-1784 60.59,-1784 60.59,-1760 257.59,-1760 269.59,-1772 257.59,-1784"/>
<text text-anchor="middle" x="165.09" y="-1768.3" font-family="Times,serif" font-size="14.00">spec_pc bad pixel map 1..1</text>
</g>
<!-- l2a_spec_pc_dnb -->
<g id="node13" class="node">
<title>l2a_spec_pc_dnb</title>
<polygon fill="none" stroke="black" points="309.09,-1838 9.09,-1838 9.09,-1814 309.09,-1814 321.09,-1826 309.09,-1838"/>
<text text-anchor="middle" x="165.09" y="-1822.3" font-family="Times,serif" font-size="14.00">spec_pc dark (CIC/FPN/dark current) 1..1</text>
</g>
<!-- l2a_spec_pc_cti -->
<g id="node14" class="node">
<title>l2a_spec_pc_cti</title>
<polygon fill="none" stroke="black" points="298.59,-1892 19.59,-1892 19.59,-1868 298.59,-1868 310.59,-1880 298.59,-1892"/>
<text text-anchor="middle" x="165.09" y="-1876.3" font-family="Times,serif" font-size="14.00">spec_pc charge transfer efficiency 1..1</text>
</g>
<!-- l2a_spec_pc_ff -->
<g id="node15" class="node">
<title>l2a_spec_pc_ff</title>
<polygon fill="none" stroke="black" points="236.59,-1946 81.59,-1946 81.59,-1922 236.59,-1922 248.59,-1934 236.59,-1946"/>
<text text-anchor="middle" x="165.09" y="-1930.3" font-family="Times,serif" font-size="14.00">spec_pc flat field 1..1</text>
</g>
<!-- l2a_spec_pc_kgain -->
<g id="node16" class="node">
<title>l2a_spec_pc_kgain</title>
<polygon fill="none" stroke="black" points="229.09,-2000 89.09,-2000 89.09,-1976 229.09,-1976 241.09,-1988 229.09,-2000"/>
<text text-anchor="middle" x="165.09" y="-1984.3" font-family="Times,serif" font-size="14.00">spec_pc k&#45;gain 1..1</text>
</g>
<!-- l2a_spec_pc_emg -->
<g id="node17" class="node">
<title>l2a_spec_pc_emg</title>
<polygon fill="none" stroke="black" points="237.09,-2054 81.09,-2054 81.09,-2030 237.09,-2030 249.09,-2042 237.09,-2054"/>
<text text-anchor="middle" x="165.09" y="-2038.3" font-family="Times,serif" font-size="14.00">spec_pc EM gain 1..1</text>
</g>
<!-- l2b_spec_pc_odir -->
<g id="node18" class="node">
<title>l2b_spec_pc_odir</title>
<ellipse fill="none" stroke="black" cx="165.09" cy="-2096" rx="165.17" ry="18"/>
<text text-anchor="middle" x="165.09" y="-2092.3" font-family="Times,serif" font-size="14.00">Output path for L2b_spec_pc 1..1</text>
</g>
<!-- l2b_spec_pc_rec -->
<g id="node19" class="node">
<title>l2b_spec_pc_rec</title>
<polygon fill="none" stroke="black" points="246.09,-2162 72.09,-2162 72.09,-2138 246.09,-2138 258.09,-2150 246.09,-2162"/>
<text text-anchor="middle" x="165.09" y="-2146.3" font-family="Times,serif" font-size="14.00">recipe L2b_spec_pc 1..1</text>
</g>
<!-- l2b_spec_pc_distm -->
<g id="node20" class="node">
<title>l2b_spec_pc_distm</title>
<polygon fill="none" stroke="black" points="259.59,-2216 58.59,-2216 58.59,-2192 259.59,-2192 271.59,-2204 259.59,-2216"/>
<text text-anchor="middle" x="165.09" y="-2200.3" font-family="Times,serif" font-size="14.00">spec_pc distortion map 1..1</text>
</g>
<!-- l2b_spec_pc_excicrf -->
<g id="node21" class="node">
<title>l2b_spec_pc_excicrf</title>
<polygon fill="none" stroke="black" points="285.09,-2270 33.09,-2270 33.09,-2246 285.09,-2246 297.09,-2258 285.09,-2270"/>
<text text-anchor="middle" x="165.09" y="-2254.3" font-family="Times,serif" font-size="14.00">spec_pc EXCAM ICRF location 1..1</text>
</g>
<!-- l2b_spec_pc_excfovps -->
<g id="node22" class="node">
<title>l2b_spec_pc_excfovps</title>
<polygon fill="none" stroke="black" points="287.09,-2324 31.09,-2324 31.09,-2300 287.09,-2300 299.09,-2312 287.09,-2324"/>
<text text-anchor="middle" x="165.09" y="-2308.3" font-family="Times,serif" font-size="14.00">spec_pc ECAM FOV pixel scale 1..1</text>
</g>
<!-- l2b_spec_pc_cfamfo -->
<g id="node23" class="node">
<title>l2b_spec_pc_cfamfo</title>
<polygon fill="none" stroke="black" points="266.09,-2378 52.09,-2378 52.09,-2354 266.09,-2354 278.09,-2366 266.09,-2378"/>
<text text-anchor="middle" x="165.09" y="-2362.3" font-family="Times,serif" font-size="14.00">spec_a CFAM filter offset 1..1</text>
</g>
<!-- l3_spec_pc_odir -->
<g id="node24" class="node">
<title>l3_spec_pc_odir</title>
<ellipse fill="none" stroke="black" cx="165.09" cy="-2420" rx="159.47" ry="18"/>
<text text-anchor="middle" x="165.09" y="-2416.3" font-family="Times,serif" font-size="14.00">Output path for L3_spec_pc 1..1</text>
</g>
<!-- l3_spec_pc_rec -->
<g id="node25" class="node">
<title>l3_spec_pc_rec</title>
<polygon fill="none" stroke="black" points="241.59,-2486 76.59,-2486 76.59,-2462 241.59,-2462 253.59,-2474 241.59,-2486"/>
<text text-anchor="middle" x="165.09" y="-2470.3" font-family="Times,serif" font-size="14.00">recipe L3_spec_pc 1..1</text>
</g>
<!-- l3_spec_pc_dispm -->
<g id="node26" class="node">
<title>l3_spec_pc_dispm</title>
<polygon fill="none" stroke="black" points="264.09,-2540 54.09,-2540 54.09,-2516 264.09,-2516 276.09,-2528 264.09,-2540"/>
<text text-anchor="middle" x="165.09" y="-2524.3" font-family="Times,serif" font-size="14.00">spec_a dispersion model 1..1</text>
</g>
<!-- l3_spec_pc_wavem -->
<g id="node27" class="node">
<title>l3_spec_pc_wavem</title>
<polygon fill="none" stroke="black" points="264.09,-2594 54.09,-2594 54.09,-2570 264.09,-2570 276.09,-2582 264.09,-2594"/>
<text text-anchor="middle" x="165.09" y="-2578.3" font-family="Times,serif" font-size="14.00">spec_a dispersion model 1..1</text>
</g>
<!-- l4_spec_pc_odir -->
<g id="node28" class="node">
<title>l4_spec_pc_odir</title>
<ellipse fill="none" stroke="black" cx="165.09" cy="-2636" rx="159.47" ry="18"/>
<text text-anchor="middle" x="165.09" y="-2632.3" font-family="Times,serif" font-size="14.00">Output path for L4_spec_pc 1..1</text>
</g>
<!-- l4_spec_pc_rec -->
<g id="node29" class="node">
<title>l4_spec_pc_rec</title>
<polygon fill="none" stroke="black" points="241.59,-2702 76.59,-2702 76.59,-2678 241.59,-2678 253.59,-2690 241.59,-2702"/>
<text text-anchor="middle" x="165.09" y="-2686.3" font-family="Times,serif" font-size="14.00">recipe L4_spec_pc 1..1</text>
</g>
<!-- l4_spec_pc_afcal -->
<g id="node30" class="node">
<title>l4_spec_pc_afcal</title>
<polygon fill="none" stroke="black" points="253.09,-2756 65.09,-2756 65.09,-2732 253.09,-2732 265.09,-2744 253.09,-2756"/>
<text text-anchor="middle" x="165.09" y="-2740.3" font-family="Times,serif" font-size="14.00">spec_pc absolute flux 1..1</text>
</g>
<!-- l4_spec_pc_ctcal -->
<g id="node31" class="node">
<title>l4_spec_pc_ctcal</title>
<polygon fill="none" stroke="black" points="265.09,-2810 53.09,-2810 53.09,-2786 265.09,-2786 277.09,-2798 265.09,-2810"/>
<text text-anchor="middle" x="165.09" y="-2794.3" font-family="Times,serif" font-size="14.00">spec_pc core throughput 1..1</text>
</g>
<!-- l4_spec_pc_ndfilt -->
<g id="node32" class="node">
<title>l4_spec_pc_ndfilt</title>
<polygon fill="none" stroke="black" points="238.09,-2864 80.09,-2864 80.09,-2840 238.09,-2840 250.09,-2852 238.09,-2864"/>
<text text-anchor="middle" x="165.09" y="-2848.3" font-family="Times,serif" font-size="14.00">spec_pc ND filter 1..1</text>
</g>
<!-- l4_spec_pc_stmap -->
<g id="node33" class="node">
<title>l4_spec_pc_stmap</title>
<polygon fill="none" stroke="black" points="284.59,-2918 33.59,-2918 33.59,-2894 284.59,-2894 296.59,-2906 284.59,-2918"/>
<text text-anchor="middle" x="165.09" y="-2902.3" font-family="Times,serif" font-size="14.00">spec_pc slit transmission map 1..1</text>
</g>
<!-- l4_spec_pc_tspi -->
<g id="node34" class="node">
<title>l4_spec_pc_tspi</title>
<polygon fill="none" stroke="black" points="292.59,-2972 25.59,-2972 25.59,-2948 292.59,-2948 304.59,-2960 292.59,-2972"/>
<text text-anchor="middle" x="165.09" y="-2956.3" font-family="Times,serif" font-size="14.00">spec_pc target star prism image 1..1</text>
</g>
<!-- l4_spec_pc_rspi -->
<g id="node35" class="node">
<title>l4_spec_pc_rspi</title>
<polygon fill="none" stroke="black" points="304.59,-3026 13.59,-3026 13.59,-3002 304.59,-3002 316.59,-3014 304.59,-3026"/>
<text text-anchor="middle" x="165.09" y="-3010.3" font-family="Times,serif" font-size="14.00">spec_pc reference star prism image 1..1</text>
</g>
<!-- l4_spec_pc_lsf -->
<g id="node36" class="node">
<title>l4_spec_pc_lsf</title>
<polygon fill="none" stroke="black" points="296.09,-3080 22.09,-3080 22.09,-3056 296.09,-3056 308.09,-3068 296.09,-3080"/>
<text text-anchor="middle" x="165.09" y="-3064.3" font-family="Times,serif" font-size="14.00">spec_pc ND filter line spread function</text>
</g>
</g>
</svg>
