<?xml version="1.0" encoding="UTF-8" standalone="no"?>
<!DOCTYPE svg PUBLIC "-//W3C//DTD SVG 1.1//EN"
 "http://www.w3.org/Graphics/SVG/1.1/DTD/svg11.dtd">
<!-- Generated by graphviz version 2.43.0 (0)
 -->
<!-- Title: SpecAClerks Pages: 1 -->
<svg width="729pt" height="1718pt"
 viewBox="0.00 0.00 728.66 1718.00" xmlns="http://www.w3.org/2000/svg" xmlns:xlink="http://www.w3.org/1999/xlink">
<g id="graph0" class="graph" transform="scale(1 1) rotate(0) translate(4 1714)">
<title>SpecAClerks</title>
<polygon fill="white" stroke="transparent" points="-4,4 -4,-1714 724.66,-1714 724.66,4 -4,4"/>
<!-- alarm_cal -->
<g id="node1" class="node">
<title>alarm_cal</title>
<text text-anchor="middle" x="91" y="-581.3" font-family="Times,serif" font-size="14.00">User requested update</text>
</g>
<!-- calib -->
<g id="node4" class="node">
<title>calib</title>
<ellipse fill="none" stroke="black" cx="292.09" cy="-585" rx="62.29" ry="62.29"/>
<text text-anchor="middle" x="292.09" y="-581.3" font-family="Times,serif" font-size="14.00">Calibration</text>
</g>
<!-- alarm_cal&#45;&gt;calib -->
<g id="edge1" class="edge">
<title>alarm_cal&#45;&gt;calib</title>
<path fill="none" stroke="black" stroke-dasharray="5,2" d="M182.13,-585C182.13,-585 219.47,-585 219.47,-585"/>
<polygon fill="black" stroke="black" points="219.47,-588.5 229.47,-585 219.47,-581.5 219.47,-588.5"/>
</g>
<!-- alarm_cnf -->
<g id="node2" class="node">
<title>alarm_cnf</title>
<text text-anchor="middle" x="91" y="-1310.3" font-family="Times,serif" font-size="14.00">User requested update</text>
</g>
<!-- config -->
<g id="node5" class="node">
<title>config</title>
<ellipse fill="none" stroke="black" cx="292.09" cy="-1314" rx="74.19" ry="74.19"/>
<text text-anchor="middle" x="292.09" y="-1310.3" font-family="Times,serif" font-size="14.00">Configuration</text>
</g>
<!-- alarm_cnf&#45;&gt;config -->
<g id="edge2" class="edge">
<title>alarm_cnf&#45;&gt;config</title>
<path fill="none" stroke="black" stroke-dasharray="5,2" d="M182.13,-1314C182.13,-1314 207.84,-1314 207.84,-1314"/>
<polygon fill="black" stroke="black" points="207.84,-1317.5 217.84,-1314 207.84,-1310.5 207.84,-1317.5"/>
</g>
<!-- alarm_rec -->
<g id="node3" class="node">
<title>alarm_rec</title>
<text text-anchor="middle" x="91" y="-1580.3" font-family="Times,serif" font-size="14.00">User requested update</text>
</g>
<!-- recipe -->
<g id="node6" class="node">
<title>recipe</title>
<ellipse fill="none" stroke="black" cx="292.09" cy="-1584" rx="42.49" ry="42.49"/>
<text text-anchor="middle" x="292.09" y="-1580.3" font-family="Times,serif" font-size="14.00">Recipe</text>
</g>
<!-- alarm_rec&#45;&gt;recipe -->
<g id="edge3" class="edge">
<title>alarm_rec&#45;&gt;recipe</title>
<path fill="none" stroke="black" stroke-dasharray="5,2" d="M182.13,-1584C182.13,-1584 239.74,-1584 239.74,-1584"/>
<polygon fill="black" stroke="black" points="239.74,-1587.5 249.74,-1584 239.74,-1580.5 239.74,-1587.5"/>
</g>
<!-- l1_spec_a_nllut -->
<g id="node9" class="node">
<title>l1_spec_a_nllut</title>
<polygon fill="none" stroke="black" points="649.92,-1164 460.92,-1164 460.92,-1140 649.92,-1140 661.92,-1152 649.92,-1164"/>
<text text-anchor="middle" x="561.42" y="-1148.3" font-family="Times,serif" font-size="14.00">non linear calibration 1..1</text>
</g>
<!-- calib&#45;&gt;l1_spec_a_nllut -->
<g id="edge4" class="edge">
<title>calib&#45;&gt;l1_spec_a_nllut</title>
<path fill="none" stroke="black" d="M242.66,-623.08C242.66,-750.21 242.66,-1152 242.66,-1152 242.66,-1152 450.56,-1152 450.56,-1152"/>
<polygon fill="black" stroke="black" points="450.56,-1155.5 460.56,-1152 450.56,-1148.5 450.56,-1155.5"/>
</g>
<!-- l2a_spec_a_mbpm -->
<g id="node12" class="node">
<title>l2a_spec_a_mbpm</title>
<polygon fill="none" stroke="black" points="649.42,-1110 461.42,-1110 461.42,-1086 649.42,-1086 661.42,-1098 649.42,-1110"/>
<text text-anchor="middle" x="561.42" y="-1094.3" font-family="Times,serif" font-size="14.00">spec_a bad pixel map 1..1</text>
</g>
<!-- calib&#45;&gt;l2a_spec_a_mbpm -->
<g id="edge5" class="edge">
<title>calib&#45;&gt;l2a_spec_a_mbpm</title>
<path fill="none" stroke="black" d="M254.66,-635.12C254.66,-764.21 254.66,-1098 254.66,-1098 254.66,-1098 451.4,-1098 451.4,-1098"/>
<polygon fill="black" stroke="black" points="451.4,-1101.5 461.4,-1098 451.4,-1094.5 451.4,-1101.5"/>
</g>
<!-- l2a_spec_a_dnb -->
<g id="node13" class="node">
<title>l2a_spec_a_dnb</title>
<polygon fill="none" stroke="black" points="701.42,-1056 409.42,-1056 409.42,-1032 701.42,-1032 713.42,-1044 701.42,-1056"/>
<text text-anchor="middle" x="561.42" y="-1040.3" font-family="Times,serif" font-size="14.00">spec_a dark (CIC/FPN/dark current) 1..1</text>
</g>
<!-- calib&#45;&gt;l2a_spec_a_dnb -->
<g id="edge6" class="edge">
<title>calib&#45;&gt;l2a_spec_a_dnb</title>
<path fill="none" stroke="black" d="M267.66,-642.67C267.66,-765.95 267.66,-1044 267.66,-1044 267.66,-1044 399.38,-1044 399.38,-1044"/>
<polygon fill="black" stroke="black" points="399.38,-1047.5 409.38,-1044 399.38,-1040.5 399.38,-1047.5"/>
</g>
<!-- l2a_spec_a_cti -->
<g id="node14" class="node">
<title>l2a_spec_a_cti</title>
<polygon fill="none" stroke="black" points="690.92,-1002 419.92,-1002 419.92,-978 690.92,-978 702.92,-990 690.92,-1002"/>
<text text-anchor="middle" x="561.42" y="-986.3" font-family="Times,serif" font-size="14.00">spec_a charge transfer efficiency 1..1</text>
</g>
<!-- calib&#45;&gt;l2a_spec_a_cti -->
<g id="edge7" class="edge">
<title>calib&#45;&gt;l2a_spec_a_cti</title>
<path fill="none" stroke="black" d="M279.66,-646.51C279.66,-759.81 279.66,-990 279.66,-990 279.66,-990 409.72,-990 409.72,-990"/>
<polygon fill="black" stroke="black" points="409.72,-993.5 419.72,-990 409.72,-986.5 409.72,-993.5"/>
</g>
<!-- l2a_spec_a_ff -->
<g id="node15" class="node">
<title>l2a_spec_a_ff</title>
<polygon fill="none" stroke="black" points="628.42,-948 482.42,-948 482.42,-924 628.42,-924 640.42,-936 628.42,-948"/>
<text text-anchor="middle" x="561.42" y="-932.3" font-family="Times,serif" font-size="14.00">spec_a flat field 1..1</text>
</g>
<!-- calib&#45;&gt;l2a_spec_a_ff -->
<g id="edge8" class="edge">
<title>calib&#45;&gt;l2a_spec_a_ff</title>
<path fill="none" stroke="black" d="M292.66,-647.75C292.66,-748.71 292.66,-936 292.66,-936 292.66,-936 472.24,-936 472.24,-936"/>
<polygon fill="black" stroke="black" points="472.24,-939.5 482.24,-936 472.24,-932.5 472.24,-939.5"/>
</g>
<!-- l2a_spec_a_kgain -->
<g id="node16" class="node">
<title>l2a_spec_a_kgain</title>
<polygon fill="none" stroke="black" points="620.92,-894 489.92,-894 489.92,-870 620.92,-870 632.92,-882 620.92,-894"/>
<text text-anchor="middle" x="561.42" y="-878.3" font-family="Times,serif" font-size="14.00">spec_a k&#45;gain 1..1</text>
</g>
<!-- calib&#45;&gt;l2a_spec_a_kgain -->
<g id="edge9" class="edge">
<title>calib&#45;&gt;l2a_spec_a_kgain</title>
<path fill="none" stroke="black" d="M304.66,-646.18C304.66,-733.12 304.66,-882 304.66,-882 304.66,-882 479.9,-882 479.9,-882"/>
<polygon fill="black" stroke="black" points="479.9,-885.5 489.9,-882 479.9,-878.5 479.9,-885.5"/>
</g>
<!-- l2a_spec_a_emg -->
<g id="node17" class="node">
<title>l2a_spec_a_emg</title>
<polygon fill="none" stroke="black" points="629.42,-840 481.42,-840 481.42,-816 629.42,-816 641.42,-828 629.42,-840"/>
<text text-anchor="middle" x="561.42" y="-824.3" font-family="Times,serif" font-size="14.00">spec_a EM gain 1..1</text>
</g>
<!-- calib&#45;&gt;l2a_spec_a_emg -->
<g id="edge10" class="edge">
<title>calib&#45;&gt;l2a_spec_a_emg</title>
<path fill="none" stroke="black" d="M317.66,-641.97C317.66,-713.8 317.66,-828 317.66,-828 317.66,-828 471.27,-828 471.27,-828"/>
<polygon fill="black" stroke="black" points="471.27,-831.5 481.27,-828 471.27,-824.5 471.27,-831.5"/>
</g>
<!-- l2b_spec_a_distm -->
<g id="node20" class="node">
<title>l2b_spec_a_distm</title>
<polygon fill="none" stroke="black" points="651.92,-786 458.92,-786 458.92,-762 651.92,-762 663.92,-774 651.92,-786"/>
<text text-anchor="middle" x="561.42" y="-770.3" font-family="Times,serif" font-size="14.00">spec_a distortion map 1..1</text>
</g>
<!-- calib&#45;&gt;l2b_spec_a_distm -->
<g id="edge11" class="edge">
<title>calib&#45;&gt;l2b_spec_a_distm</title>
<path fill="none" stroke="black" d="M329.66,-635.15C329.66,-691.14 329.66,-774 329.66,-774 329.66,-774 448.76,-774 448.76,-774"/>
<polygon fill="black" stroke="black" points="448.76,-777.5 458.76,-774 448.76,-770.5 448.76,-777.5"/>
</g>
<!-- l2b_spec_a_excicrf -->
<g id="node21" class="node">
<title>l2b_spec_a_excicrf</title>
<polygon fill="none" stroke="black" points="677.42,-732 433.42,-732 433.42,-708 677.42,-708 689.42,-720 677.42,-732"/>
<text text-anchor="middle" x="561.42" y="-716.3" font-family="Times,serif" font-size="14.00">spec_a EXCAM ICRF location 1..1</text>
</g>
<!-- calib&#45;&gt;l2b_spec_a_excicrf -->
<g id="edge12" class="edge">
<title>calib&#45;&gt;l2b_spec_a_excicrf</title>
<path fill="none" stroke="black" d="M342.66,-621.89C342.66,-661.86 342.66,-720 342.66,-720 342.66,-720 423.22,-720 423.22,-720"/>
<polygon fill="black" stroke="black" points="423.22,-723.5 433.22,-720 423.22,-716.5 423.22,-723.5"/>
</g>
<!-- l2b_spec_a_excfovps -->
<g id="node22" class="node">
<title>l2b_spec_a_excfovps</title>
<polygon fill="none" stroke="black" points="679.42,-678 431.42,-678 431.42,-654 679.42,-654 691.42,-666 679.42,-678"/>
<text text-anchor="middle" x="561.42" y="-662.3" font-family="Times,serif" font-size="14.00">spec_a ECAM FOV pixel scale 1..1</text>
</g>
<!-- calib&#45;&gt;l2b_spec_a_excfovps -->
<g id="edge13" class="edge">
<title>calib&#45;&gt;l2b_spec_a_excfovps</title>
<path fill="none" stroke="black" d="M324.08,-638.7C368.81,-638.7 444.66,-638.7 444.66,-638.7 444.66,-638.7 444.66,-639.62 444.66,-639.62"/>
<polygon fill="black" stroke="black" points="441.16,-637.94 444.66,-647.94 448.16,-637.94 441.16,-637.94"/>
</g>
<!-- l2b_spec_a_cfamfo -->
<g id="node23" class="node">
<title>l2b_spec_a_cfamfo</title>
<polygon fill="none" stroke="black" points="662.42,-624 448.42,-624 448.42,-600 662.42,-600 674.42,-612 662.42,-624"/>
<text text-anchor="middle" x="561.42" y="-608.3" font-family="Times,serif" font-size="14.00">spec_a CFAM filter offset 1..1</text>
</g>
<!-- calib&#45;&gt;l2b_spec_a_cfamfo -->
<g id="edge14" class="edge">
<title>calib&#45;&gt;l2b_spec_a_cfamfo</title>
<path fill="none" stroke="black" d="M348.55,-612C348.55,-612 438.42,-612 438.42,-612"/>
<polygon fill="black" stroke="black" points="438.42,-615.5 448.42,-612 438.42,-608.5 438.42,-615.5"/>
</g>
<!-- l3_spec_a_ast -->
<g id="node26" class="node">
<title>l3_spec_a_ast</title>
<polygon fill="none" stroke="black" points="638.92,-570 471.92,-570 471.92,-546 638.92,-546 650.92,-558 638.92,-570"/>
<text text-anchor="middle" x="561.42" y="-554.3" font-family="Times,serif" font-size="14.00">spec_a astrometry 1..1</text>
</g>
<!-- calib&#45;&gt;l3_spec_a_ast -->
<g id="edge15" class="edge">
<title>calib&#45;&gt;l3_spec_a_ast</title>
<path fill="none" stroke="black" d="M348.55,-558C348.55,-558 461.91,-558 461.91,-558"/>
<polygon fill="black" stroke="black" points="461.91,-561.5 471.91,-558 461.91,-554.5 461.91,-561.5"/>
</g>
<!-- l3_spec_a_ndf -->
<g id="node27" class="node">
<title>l3_spec_a_ndf</title>
<polygon fill="none" stroke="black" points="638.92,-516 471.92,-516 471.92,-492 638.92,-492 650.92,-504 638.92,-516"/>
<text text-anchor="middle" x="561.42" y="-500.3" font-family="Times,serif" font-size="14.00">spec_a astrometry 1..1</text>
</g>
<!-- calib&#45;&gt;l3_spec_a_ndf -->
<g id="edge16" class="edge">
<title>calib&#45;&gt;l3_spec_a_ndf</title>
<path fill="none" stroke="black" d="M340.66,-545.45C340.66,-524.89 340.66,-504 340.66,-504 340.66,-504 461.63,-504 461.63,-504"/>
<polygon fill="black" stroke="black" points="461.63,-507.5 471.63,-504 461.63,-500.5 461.63,-507.5"/>
</g>
<!-- l3_spec_a_dispm -->
<g id="node28" class="node">
<title>l3_spec_a_dispm</title>
<polygon fill="none" stroke="black" points="660.42,-462 450.42,-462 450.42,-438 660.42,-438 672.42,-450 660.42,-462"/>
<text text-anchor="middle" x="561.42" y="-446.3" font-family="Times,serif" font-size="14.00">spec_a dispersion model 1..1</text>
</g>
<!-- calib&#45;&gt;l3_spec_a_dispm -->
<g id="edge17" class="edge">
<title>calib&#45;&gt;l3_spec_a_dispm</title>
<path fill="none" stroke="black" d="M328.47,-534.2C378.29,-534.2 461.66,-534.2 461.66,-534.2 461.66,-534.2 461.66,-478.27 461.66,-478.27"/>
<polygon fill="black" stroke="black" points="465.16,-478.27 461.66,-468.27 458.16,-478.27 465.16,-478.27"/>
</g>
<!-- l3_spec_a_wavem -->
<g id="node29" class="node">
<title>l3_spec_a_wavem</title>
<polygon fill="none" stroke="black" points="660.42,-408 450.42,-408 450.42,-384 660.42,-384 672.42,-396 660.42,-408"/>
<text text-anchor="middle" x="561.42" y="-392.3" font-family="Times,serif" font-size="14.00">spec_a dispersion model 1..1</text>
</g>
<!-- calib&#45;&gt;l3_spec_a_wavem -->
<g id="edge18" class="edge">
<title>calib&#45;&gt;l3_spec_a_wavem</title>
<path fill="none" stroke="black" d="M327.66,-533.35C327.66,-477.4 327.66,-396 327.66,-396 327.66,-396 440.36,-396 440.36,-396"/>
<polygon fill="black" stroke="black" points="440.36,-399.5 450.36,-396 440.36,-392.5 440.36,-399.5"/>
</g>
<!-- l4_spec_a_afcal -->
<g id="node32" class="node">
<title>l4_spec_a_afcal</title>
<polygon fill="none" stroke="black" points="644.92,-354 465.92,-354 465.92,-330 644.92,-330 656.92,-342 644.92,-354"/>
<text text-anchor="middle" x="561.42" y="-338.3" font-family="Times,serif" font-size="14.00">spec_a absolute flux 1..1</text>
</g>
<!-- calib&#45;&gt;l4_spec_a_afcal -->
<g id="edge19" class="edge">
<title>calib&#45;&gt;l4_spec_a_afcal</title>
<path fill="none" stroke="black" d="M313.66,-526.18C313.66,-454.26 313.66,-342 313.66,-342 313.66,-342 455.63,-342 455.63,-342"/>
<polygon fill="black" stroke="black" points="455.63,-345.5 465.63,-342 455.63,-338.5 455.63,-345.5"/>
</g>
<!-- l4_spec_a_ctcal -->
<g id="node33" class="node">
<title>l4_spec_a_ctcal</title>
<polygon fill="none" stroke="black" points="657.42,-300 453.42,-300 453.42,-276 657.42,-276 669.42,-288 657.42,-300"/>
<text text-anchor="middle" x="561.42" y="-284.3" font-family="Times,serif" font-size="14.00">spec_a core throughput 1..1</text>
</g>
<!-- calib&#45;&gt;l4_spec_a_ctcal -->
<g id="edge20" class="edge">
<title>calib&#45;&gt;l4_spec_a_ctcal</title>
<path fill="none" stroke="black" d="M299.66,-522.74C299.66,-435.65 299.66,-288 299.66,-288 299.66,-288 443.06,-288 443.06,-288"/>
<polygon fill="black" stroke="black" points="443.06,-291.5 453.06,-288 443.06,-284.5 443.06,-291.5"/>
</g>
<!-- l4_spec_a_ndfilt -->
<g id="node34" class="node">
<title>l4_spec_a_ndfilt</title>
<polygon fill="none" stroke="black" points="630.42,-246 480.42,-246 480.42,-222 630.42,-222 642.42,-234 630.42,-246"/>
<text text-anchor="middle" x="561.42" y="-230.3" font-family="Times,serif" font-size="14.00">spec_a ND filter 1..1</text>
</g>
<!-- calib&#45;&gt;l4_spec_a_ndfilt -->
<g id="edge21" class="edge">
<title>calib&#45;&gt;l4_spec_a_ndfilt</title>
<path fill="none" stroke="black" d="M285.66,-522.65C285.66,-421.79 285.66,-234 285.66,-234 285.66,-234 470.18,-234 470.18,-234"/>
<polygon fill="black" stroke="black" points="470.18,-237.5 480.18,-234 470.18,-230.5 470.18,-237.5"/>
</g>
<!-- l4_spec_a_stmap -->
<g id="node35" class="node">
<title>l4_spec_a_stmap</title>
<polygon fill="none" stroke="black" points="676.42,-192 434.42,-192 434.42,-168 676.42,-168 688.42,-180 676.42,-192"/>
<text text-anchor="middle" x="561.42" y="-176.3" font-family="Times,serif" font-size="14.00">spec_a slit transmission map 1..1</text>
</g>
<!-- calib&#45;&gt;l4_spec_a_stmap -->
<g id="edge22" class="edge">
<title>calib&#45;&gt;l4_spec_a_stmap</title>
<path fill="none" stroke="black" d="M318.48,-528.4C360.92,-528.4 439.66,-528.4 439.66,-528.4 439.66,-528.4 439.66,-208.24 439.66,-208.24"/>
<polygon fill="black" stroke="black" points="443.16,-208.24 439.66,-198.24 436.16,-208.24 443.16,-208.24"/>
</g>
<!-- l4_spec_a_tspi -->
<g id="node36" class="node">
<title>l4_spec_a_tspi</title>
<polygon fill="none" stroke="black" points="684.92,-138 425.92,-138 425.92,-114 684.92,-114 696.92,-126 684.92,-138"/>
<text text-anchor="middle" x="561.42" y="-122.3" font-family="Times,serif" font-size="14.00">spec_a target star prism image 1..1</text>
</g>
<!-- calib&#45;&gt;l4_spec_a_tspi -->
<g id="edge23" class="edge">
<title>calib&#45;&gt;l4_spec_a_tspi</title>
<path fill="none" stroke="black" d="M271.66,-525.93C271.66,-401.96 271.66,-126 271.66,-126 271.66,-126 415.87,-126 415.87,-126"/>
<polygon fill="black" stroke="black" points="415.87,-129.5 425.87,-126 415.87,-122.5 415.87,-129.5"/>
</g>
<!-- l4_spec_a_rspi -->
<g id="node37" class="node">
<title>l4_spec_a_rspi</title>
<polygon fill="none" stroke="black" points="696.92,-84 413.92,-84 413.92,-60 696.92,-60 708.92,-72 696.92,-84"/>
<text text-anchor="middle" x="561.42" y="-68.3" font-family="Times,serif" font-size="14.00">spec_a reference star prism image 1..1</text>
</g>
<!-- calib&#45;&gt;l4_spec_a_rspi -->
<g id="edge24" class="edge">
<title>calib&#45;&gt;l4_spec_a_rspi</title>
<path fill="none" stroke="black" d="M257.66,-532.51C257.66,-401.76 257.66,-72 257.66,-72 257.66,-72 403.54,-72 403.54,-72"/>
<polygon fill="black" stroke="black" points="403.54,-75.5 413.54,-72 403.54,-68.5 403.54,-75.5"/>
</g>
<!-- l4_spec_a_lsf -->
<g id="node38" class="node">
<title>l4_spec_a_lsf</title>
<polygon fill="none" stroke="black" points="688.42,-30 422.42,-30 422.42,-6 688.42,-6 700.42,-18 688.42,-30"/>
<text text-anchor="middle" x="561.42" y="-14.3" font-family="Times,serif" font-size="14.00">spec_a ND filter line spread function</text>
</g>
<!-- calib&#45;&gt;l4_spec_a_lsf -->
<g id="edge25" class="edge">
<title>calib&#45;&gt;l4_spec_a_lsf</title>
<path fill="none" stroke="black" d="M243.66,-545.58C243.66,-417 243.66,-18 243.66,-18 243.66,-18 412.05,-18 412.05,-18"/>
<polygon fill="black" stroke="black" points="412.05,-21.5 422.05,-18 412.05,-14.5 412.05,-21.5"/>
</g>
<!-- l1_spec_a_odir -->
<g id="node7" class="node">
<title>l1_spec_a_odir</title>
<ellipse fill="none" stroke="black" cx="561.42" cy="-1422" rx="153.27" ry="18"/>
<text text-anchor="middle" x="561.42" y="-1418.3" font-family="Times,serif" font-size="14.00">Output path for L1_spec_a 1..1</text>
</g>
<!-- config&#45;&gt;l1_spec_a_odir -->
<g id="edge26" class="edge">
<title>config&#45;&gt;l1_spec_a_odir</title>
<path fill="none" stroke="black" d="M350.66,-1359.49C350.66,-1389 350.66,-1422 350.66,-1422 350.66,-1422 397.97,-1422 397.97,-1422"/>
<polygon fill="black" stroke="black" points="397.97,-1425.5 407.97,-1422 397.97,-1418.5 397.97,-1425.5"/>
</g>
<!-- l2a_spec_a_odir -->
<g id="node10" class="node">
<title>l2a_spec_a_odir</title>
<ellipse fill="none" stroke="black" cx="561.42" cy="-1368" rx="159.47" ry="18"/>
<text text-anchor="middle" x="561.42" y="-1364.3" font-family="Times,serif" font-size="14.00">Output path for L2a_spec_a 1..1</text>
</g>
<!-- config&#45;&gt;l2a_spec_a_odir -->
<g id="edge27" class="edge">
<title>config&#45;&gt;l2a_spec_a_odir</title>
<path fill="none" stroke="black" d="M343.07,-1368C343.07,-1368 391.96,-1368 391.96,-1368"/>
<polygon fill="black" stroke="black" points="391.96,-1371.5 401.96,-1368 391.96,-1364.5 391.96,-1371.5"/>
</g>
<!-- l2b_spec_a_odir -->
<g id="node18" class="node">
<title>l2b_spec_a_odir</title>
<ellipse fill="none" stroke="black" cx="561.42" cy="-1314" rx="159.47" ry="18"/>
<text text-anchor="middle" x="561.42" y="-1310.3" font-family="Times,serif" font-size="14.00">Output path for L2b_spec_a 1..1</text>
</g>
<!-- config&#45;&gt;l2b_spec_a_odir -->
<g id="edge28" class="edge">
<title>config&#45;&gt;l2b_spec_a_odir</title>
<path fill="none" stroke="black" d="M366.4,-1314C366.4,-1314 391.98,-1314 391.98,-1314"/>
<polygon fill="black" stroke="black" points="391.98,-1317.5 401.98,-1314 391.98,-1310.5 391.98,-1317.5"/>
</g>
<!-- l3_spec_a_odir -->
<g id="node24" class="node">
<title>l3_spec_a_odir</title>
<ellipse fill="none" stroke="black" cx="561.42" cy="-1260" rx="153.27" ry="18"/>
<text text-anchor="middle" x="561.42" y="-1256.3" font-family="Times,serif" font-size="14.00">Output path for L3_spec_a 1..1</text>
</g>
<!-- config&#45;&gt;l3_spec_a_odir -->
<g id="edge29" class="edge">
<title>config&#45;&gt;l3_spec_a_odir</title>
<path fill="none" stroke="black" d="M343.07,-1260C343.07,-1260 397.87,-1260 397.87,-1260"/>
<polygon fill="black" stroke="black" points="397.87,-1263.5 407.87,-1260 397.87,-1256.5 397.87,-1263.5"/>
</g>
<!-- l4_spec_a_odir -->
<g id="node30" class="node">
<title>l4_spec_a_odir</title>
<ellipse fill="none" stroke="black" cx="561.42" cy="-1206" rx="153.27" ry="18"/>
<text text-anchor="middle" x="561.42" y="-1202.3" font-family="Times,serif" font-size="14.00">Output path for L4_spec_a 1..1</text>
</g>
<!-- config&#45;&gt;l4_spec_a_odir -->
<g id="edge30" class="edge">
<title>config&#45;&gt;l4_spec_a_odir</title>
<path fill="none" stroke="black" d="M360.66,-1285.91C360.66,-1253.91 360.66,-1206 360.66,-1206 360.66,-1206 397.98,-1206 397.98,-1206"/>
<polygon fill="black" stroke="black" points="397.98,-1209.5 407.98,-1206 397.98,-1202.5 397.98,-1209.5"/>
</g>
<!-- l1_spec_a_rec -->
<g id="node8" class="node">
<title>l1_spec_a_rec</title>
<polygon fill="none" stroke="black" points="633.92,-1704 476.92,-1704 476.92,-1680 633.92,-1680 645.92,-1692 633.92,-1704"/>
<text text-anchor="middle" x="561.42" y="-1688.3" font-family="Times,serif" font-size="14.00">recipe L1_spec_a 1..1</text>
</g>
<!-- recipe&#45;&gt;l1_spec_a_rec -->
<g id="edge31" class="edge">
<title>recipe&#45;&gt;l1_spec_a_rec</title>
<path fill="none" stroke="black" d="M278.66,-1624.22C278.66,-1654.92 278.66,-1692 278.66,-1692 278.66,-1692 466.58,-1692 466.58,-1692"/>
<polygon fill="black" stroke="black" points="466.58,-1695.5 476.58,-1692 466.58,-1688.5 466.58,-1695.5"/>
</g>
<!-- l2a_spec_a_rec -->
<g id="node11" class="node">
<title>l2a_spec_a_rec</title>
<polygon fill="none" stroke="black" points="637.92,-1650 472.92,-1650 472.92,-1626 637.92,-1626 649.92,-1638 637.92,-1650"/>
<text text-anchor="middle" x="561.42" y="-1634.3" font-family="Times,serif" font-size="14.00">recipe L2a_spec_a 1..1</text>
</g>
<!-- recipe&#45;&gt;l2a_spec_a_rec -->
<g id="edge32" class="edge">
<title>recipe&#45;&gt;l2a_spec_a_rec</title>
<path fill="none" stroke="black" d="M306.66,-1623.67C306.66,-1633.42 306.66,-1641.12 306.66,-1641.12 306.66,-1641.12 462.68,-1641.12 462.68,-1641.12"/>
<polygon fill="black" stroke="black" points="462.68,-1644.62 472.68,-1641.12 462.68,-1637.62 462.68,-1644.62"/>
</g>
<!-- l2b_spec_a_rec -->
<g id="node19" class="node">
<title>l2b_spec_a_rec</title>
<polygon fill="none" stroke="black" points="638.42,-1596 472.42,-1596 472.42,-1572 638.42,-1572 650.42,-1584 638.42,-1596"/>
<text text-anchor="middle" x="561.42" y="-1580.3" font-family="Times,serif" font-size="14.00">recipe L2b_spec_a 1..1</text>
</g>
<!-- recipe&#45;&gt;l2b_spec_a_rec -->
<g id="edge33" class="edge">
<title>recipe&#45;&gt;l2b_spec_a_rec</title>
<path fill="none" stroke="black" d="M334.47,-1584C334.47,-1584 462.21,-1584 462.21,-1584"/>
<polygon fill="black" stroke="black" points="462.21,-1587.5 472.21,-1584 462.21,-1580.5 462.21,-1587.5"/>
</g>
<!-- l3_spec_a_rec -->
<g id="node25" class="node">
<title>l3_spec_a_rec</title>
<polygon fill="none" stroke="black" points="633.92,-1542 476.92,-1542 476.92,-1518 633.92,-1518 645.92,-1530 633.92,-1542"/>
<text text-anchor="middle" x="561.42" y="-1526.3" font-family="Times,serif" font-size="14.00">recipe L3_spec_a 1..1</text>
</g>
<!-- recipe&#45;&gt;l3_spec_a_rec -->
<g id="edge34" class="edge">
<title>recipe&#45;&gt;l3_spec_a_rec</title>
<path fill="none" stroke="black" d="M306.66,-1544.33C306.66,-1534.58 306.66,-1526.88 306.66,-1526.88 306.66,-1526.88 466.59,-1526.88 466.59,-1526.88"/>
<polygon fill="black" stroke="black" points="466.59,-1530.38 476.59,-1526.88 466.59,-1523.38 466.59,-1530.38"/>
</g>
<!-- l4_spec_a_rec -->
<g id="node31" class="node">
<title>l4_spec_a_rec</title>
<polygon fill="none" stroke="black" points="633.92,-1488 476.92,-1488 476.92,-1464 633.92,-1464 645.92,-1476 633.92,-1488"/>
<text text-anchor="middle" x="561.42" y="-1472.3" font-family="Times,serif" font-size="14.00">recipe L4_spec_a 1..1</text>
</g>
<!-- recipe&#45;&gt;l4_spec_a_rec -->
<g id="edge35" class="edge">
<title>recipe&#45;&gt;l4_spec_a_rec</title>
<path fill="none" stroke="black" d="M278.66,-1543.78C278.66,-1513.08 278.66,-1476 278.66,-1476 278.66,-1476 466.58,-1476 466.58,-1476"/>
<polygon fill="black" stroke="black" points="466.58,-1479.5 476.58,-1476 466.58,-1472.5 466.58,-1479.5"/>
</g>
</g>
</svg>
