<?xml version="1.0" encoding="UTF-8" standalone="no"?>
<!DOCTYPE svg PUBLIC "-//W3C//DTD SVG 1.1//EN"
 "http://www.w3.org/Graphics/SVG/1.1/DTD/svg11.dtd">
<!-- Generated by graphviz version 2.43.0 (0)
 -->
<!-- Title: Clerks Pages: 1 -->
<svg width="769pt" height="3122pt"
 viewBox="0.00 0.00 768.94 3122.00" xmlns="http://www.w3.org/2000/svg" xmlns:xlink="http://www.w3.org/1999/xlink">
<g id="graph0" class="graph" transform="scale(1 1) rotate(0) translate(4 3118)">
<title>Clerks</title>
<polygon fill="white" stroke="transparent" points="-4,4 -4,-3118 764.94,-3118 764.94,4 -4,4"/>
<!-- alarm_cal -->
<g id="node1" class="node">
<title>alarm_cal</title>
<text text-anchor="middle" x="165.09" y="-527.3" font-family="Times,serif" font-size="14.00">User requested update</text>
</g>
<!-- calib -->
<g id="node4" class="node">
<title>calib</title>
<ellipse fill="none" stroke="black" cx="440.26" cy="-531" rx="62.29" ry="62.29"/>
<text text-anchor="middle" x="440.26" y="-527.3" font-family="Times,serif" font-size="14.00">Calibration</text>
</g>
<!-- alarm_cal&#45;&gt;calib -->
<g id="edge1" class="edge">
<title>alarm_cal&#45;&gt;calib</title>
<path fill="none" stroke="black" stroke-dasharray="5,2" d="M256.33,-531C256.33,-531 367.49,-531 367.49,-531"/>
<polygon fill="black" stroke="black" points="367.49,-534.5 377.49,-531 367.49,-527.5 367.49,-534.5"/>
</g>
<!-- alarm_cnf -->
<g id="node2" class="node">
<title>alarm_cnf</title>
<text text-anchor="middle" x="165.09" y="-1202.3" font-family="Times,serif" font-size="14.00">User requested update</text>
</g>
<!-- config -->
<g id="node5" class="node">
<title>config</title>
<ellipse fill="none" stroke="black" cx="440.26" cy="-1206" rx="74.19" ry="74.19"/>
<text text-anchor="middle" x="440.26" y="-1202.3" font-family="Times,serif" font-size="14.00">Configuration</text>
</g>
<!-- alarm_cnf&#45;&gt;config -->
<g id="edge2" class="edge">
<title>alarm_cnf&#45;&gt;config</title>
<path fill="none" stroke="black" stroke-dasharray="5,2" d="M256.33,-1206C256.33,-1206 355.75,-1206 355.75,-1206"/>
<polygon fill="black" stroke="black" points="355.75,-1209.5 365.75,-1206 355.75,-1202.5 355.75,-1209.5"/>
</g>
<!-- alarm_rec -->
<g id="node3" class="node">
<title>alarm_rec</title>
<text text-anchor="middle" x="165.09" y="-1472.3" font-family="Times,serif" font-size="14.00">User requested update</text>
</g>
<!-- recipe -->
<g id="node6" class="node">
<title>recipe</title>
<ellipse fill="none" stroke="black" cx="440.26" cy="-1476" rx="42.49" ry="42.49"/>
<text text-anchor="middle" x="440.26" y="-1472.3" font-family="Times,serif" font-size="14.00">Recipe</text>
</g>
<!-- alarm_rec&#45;&gt;recipe -->
<g id="edge3" class="edge">
<title>alarm_rec&#45;&gt;recipe</title>
<path fill="none" stroke="black" stroke-dasharray="5,2" d="M256.33,-1476C256.33,-1476 387.78,-1476 387.78,-1476"/>
<polygon fill="black" stroke="black" points="387.78,-1479.5 397.78,-1476 387.78,-1472.5 387.78,-1479.5"/>
</g>
<!-- l1_spec_a_nllut -->
<g id="node37" class="node">
<title>l1_spec_a_nllut</title>
<ellipse fill="none" stroke="black" cx="655.65" cy="-1044" rx="80.69" ry="18"/>
<text text-anchor="middle" x="655.65" y="-1040.3" font-family="Times,serif" font-size="14.00">l1_spec_a_nllut</text>
</g>
<!-- calib&#45;&gt;l1_spec_a_nllut -->
<g id="edge4" class="edge">
<title>calib&#45;&gt;l1_spec_a_nllut</title>
<path fill="none" stroke="black" d="M390.94,-569.56C390.94,-688.86 390.94,-1044 390.94,-1044 390.94,-1044 564.79,-1044 564.79,-1044"/>
<polygon fill="black" stroke="black" points="564.79,-1047.5 574.79,-1044 564.79,-1040.5 564.79,-1047.5"/>
</g>
<!-- l2a_spec_a_mbpm -->
<g id="node38" class="node">
<title>l2a_spec_a_mbpm</title>
<ellipse fill="none" stroke="black" cx="655.65" cy="-990" rx="93.68" ry="18"/>
<text text-anchor="middle" x="655.65" y="-986.3" font-family="Times,serif" font-size="14.00">l2a_spec_a_mbpm</text>
</g>
<!-- calib&#45;&gt;l2a_spec_a_mbpm -->
<g id="edge5" class="edge">
<title>calib&#45;&gt;l2a_spec_a_mbpm</title>
<path fill="none" stroke="black" d="M402.94,-581.43C402.94,-700.67 402.94,-990 402.94,-990 402.94,-990 551.91,-990 551.91,-990"/>
<polygon fill="black" stroke="black" points="551.91,-993.5 561.91,-990 551.91,-986.5 551.91,-993.5"/>
</g>
<!-- l2a_spec_a_dnb -->
<g id="node39" class="node">
<title>l2a_spec_a_dnb</title>
<ellipse fill="none" stroke="black" cx="655.65" cy="-936" rx="81.79" ry="18"/>
<text text-anchor="middle" x="655.65" y="-932.3" font-family="Times,serif" font-size="14.00">l2a_spec_a_dnb</text>
</g>
<!-- calib&#45;&gt;l2a_spec_a_dnb -->
<g id="edge6" class="edge">
<title>calib&#45;&gt;l2a_spec_a_dnb</title>
<path fill="none" stroke="black" d="M415.94,-588.6C415.94,-700.41 415.94,-936 415.94,-936 415.94,-936 563.49,-936 563.49,-936"/>
<polygon fill="black" stroke="black" points="563.49,-939.5 573.49,-936 563.49,-932.5 563.49,-939.5"/>
</g>
<!-- l2a_spec_a_cti -->
<g id="node40" class="node">
<title>l2a_spec_a_cti</title>
<ellipse fill="none" stroke="black" cx="655.65" cy="-882" rx="76.09" ry="18"/>
<text text-anchor="middle" x="655.65" y="-878.3" font-family="Times,serif" font-size="14.00">l2a_spec_a_cti</text>
</g>
<!-- calib&#45;&gt;l2a_spec_a_cti -->
<g id="edge7" class="edge">
<title>calib&#45;&gt;l2a_spec_a_cti</title>
<path fill="none" stroke="black" d="M427.94,-592.54C427.94,-693.21 427.94,-882 427.94,-882 427.94,-882 569.51,-882 569.51,-882"/>
<polygon fill="black" stroke="black" points="569.51,-885.5 579.51,-882 569.51,-878.5 569.51,-885.5"/>
</g>
<!-- l2a_spec_a_ff -->
<g id="node41" class="node">
<title>l2a_spec_a_ff</title>
<ellipse fill="none" stroke="black" cx="655.65" cy="-828" rx="70.69" ry="18"/>
<text text-anchor="middle" x="655.65" y="-824.3" font-family="Times,serif" font-size="14.00">l2a_spec_a_ff</text>
</g>
<!-- calib&#45;&gt;l2a_spec_a_ff -->
<g id="edge8" class="edge">
<title>calib&#45;&gt;l2a_spec_a_ff</title>
<path fill="none" stroke="black" d="M440.94,-593.62C440.94,-680.76 440.94,-828 440.94,-828 440.94,-828 574.75,-828 574.75,-828"/>
<polygon fill="black" stroke="black" points="574.75,-831.5 584.75,-828 574.75,-824.5 574.75,-831.5"/>
</g>
<!-- l2a_spec_a_kgain -->
<g id="node42" class="node">
<title>l2a_spec_a_kgain</title>
<ellipse fill="none" stroke="black" cx="655.65" cy="-774" rx="89.88" ry="18"/>
<text text-anchor="middle" x="655.65" y="-770.3" font-family="Times,serif" font-size="14.00">l2a_spec_a_kgain</text>
</g>
<!-- calib&#45;&gt;l2a_spec_a_kgain -->
<g id="edge9" class="edge">
<title>calib&#45;&gt;l2a_spec_a_kgain</title>
<path fill="none" stroke="black" d="M452.94,-592.32C452.94,-664.31 452.94,-774 452.94,-774 452.94,-774 555.85,-774 555.85,-774"/>
<polygon fill="black" stroke="black" points="555.85,-777.5 565.85,-774 555.85,-770.5 555.85,-777.5"/>
</g>
<!-- l2a_spec_a_emg -->
<g id="node43" class="node">
<title>l2a_spec_a_emg</title>
<ellipse fill="none" stroke="black" cx="655.65" cy="-720" rx="84.49" ry="18"/>
<text text-anchor="middle" x="655.65" y="-716.3" font-family="Times,serif" font-size="14.00">l2a_spec_a_emg</text>
</g>
<!-- calib&#45;&gt;l2a_spec_a_emg -->
<g id="edge10" class="edge">
<title>calib&#45;&gt;l2a_spec_a_emg</title>
<path fill="none" stroke="black" d="M465.94,-587.96C465.94,-643.61 465.94,-720 465.94,-720 465.94,-720 561.06,-720 561.06,-720"/>
<polygon fill="black" stroke="black" points="561.06,-723.5 571.06,-720 561.06,-716.5 561.06,-723.5"/>
</g>
<!-- l2b_spec_a_distm -->
<g id="node44" class="node">
<title>l2b_spec_a_distm</title>
<ellipse fill="none" stroke="black" cx="655.65" cy="-666" rx="90.98" ry="18"/>
<text text-anchor="middle" x="655.65" y="-662.3" font-family="Times,serif" font-size="14.00">l2b_spec_a_distm</text>
</g>
<!-- calib&#45;&gt;l2b_spec_a_distm -->
<g id="edge11" class="edge">
<title>calib&#45;&gt;l2b_spec_a_distm</title>
<path fill="none" stroke="black" d="M477.94,-580.89C477.94,-619.34 477.94,-666 477.94,-666 477.94,-666 554.45,-666 554.45,-666"/>
<polygon fill="black" stroke="black" points="554.45,-669.5 564.45,-666 554.45,-662.5 554.45,-669.5"/>
</g>
<!-- l2b_spec_a_excicrf -->
<g id="node45" class="node">
<title>l2b_spec_a_excicrf</title>
<ellipse fill="none" stroke="black" cx="655.65" cy="-612" rx="96.38" ry="18"/>
<text text-anchor="middle" x="655.65" y="-608.3" font-family="Times,serif" font-size="14.00">l2b_spec_a_excicrf</text>
</g>
<!-- calib&#45;&gt;l2b_spec_a_excicrf -->
<g id="edge12" class="edge">
<title>calib&#45;&gt;l2b_spec_a_excicrf</title>
<path fill="none" stroke="black" d="M490.94,-567.71C490.94,-589.14 490.94,-612 490.94,-612 490.94,-612 549.36,-612 549.36,-612"/>
<polygon fill="black" stroke="black" points="549.36,-615.5 559.36,-612 549.36,-608.5 549.36,-615.5"/>
</g>
<!-- l2b_spec_a_excfovps -->
<g id="node46" class="node">
<title>l2b_spec_a_excfovps</title>
<ellipse fill="none" stroke="black" cx="655.65" cy="-558" rx="105.08" ry="18"/>
<text text-anchor="middle" x="655.65" y="-554.3" font-family="Times,serif" font-size="14.00">l2b_spec_a_excfovps</text>
</g>
<!-- calib&#45;&gt;l2b_spec_a_excfovps -->
<g id="edge13" class="edge">
<title>calib&#45;&gt;l2b_spec_a_excfovps</title>
<path fill="none" stroke="black" d="M496.57,-558C496.57,-558 540.03,-558 540.03,-558"/>
<polygon fill="black" stroke="black" points="540.03,-561.5 550.03,-558 540.03,-554.5 540.03,-561.5"/>
</g>
<!-- l2b_spec_a_cfamfo -->
<g id="node47" class="node">
<title>l2b_spec_a_cfamfo</title>
<ellipse fill="none" stroke="black" cx="655.65" cy="-504" rx="96.38" ry="18"/>
<text text-anchor="middle" x="655.65" y="-500.3" font-family="Times,serif" font-size="14.00">l2b_spec_a_cfamfo</text>
</g>
<!-- calib&#45;&gt;l2b_spec_a_cfamfo -->
<g id="edge14" class="edge">
<title>calib&#45;&gt;l2b_spec_a_cfamfo</title>
<path fill="none" stroke="black" d="M496.57,-504C496.57,-504 549.24,-504 549.24,-504"/>
<polygon fill="black" stroke="black" points="549.24,-507.5 559.24,-504 549.24,-500.5 549.24,-507.5"/>
</g>
<!-- l3_spec_a_dispm -->
<g id="node48" class="node">
<title>l3_spec_a_dispm</title>
<ellipse fill="none" stroke="black" cx="655.65" cy="-450" rx="87.18" ry="18"/>
<text text-anchor="middle" x="655.65" y="-446.3" font-family="Times,serif" font-size="14.00">l3_spec_a_dispm</text>
</g>
<!-- calib&#45;&gt;l3_spec_a_dispm -->
<g id="edge15" class="edge">
<title>calib&#45;&gt;l3_spec_a_dispm</title>
<path fill="none" stroke="black" d="M490.94,-494.29C490.94,-472.86 490.94,-450 490.94,-450 490.94,-450 558.47,-450 558.47,-450"/>
<polygon fill="black" stroke="black" points="558.47,-453.5 568.47,-450 558.47,-446.5 558.47,-453.5"/>
</g>
<!-- l3_spec_a_wavem -->
<g id="node49" class="node">
<title>l3_spec_a_wavem</title>
<ellipse fill="none" stroke="black" cx="655.65" cy="-396" rx="91.78" ry="18"/>
<text text-anchor="middle" x="655.65" y="-392.3" font-family="Times,serif" font-size="14.00">l3_spec_a_wavem</text>
</g>
<!-- calib&#45;&gt;l3_spec_a_wavem -->
<g id="edge16" class="edge">
<title>calib&#45;&gt;l3_spec_a_wavem</title>
<path fill="none" stroke="black" d="M477.94,-481.11C477.94,-442.66 477.94,-396 477.94,-396 477.94,-396 553.93,-396 553.93,-396"/>
<polygon fill="black" stroke="black" points="553.93,-399.5 563.93,-396 553.93,-392.5 553.93,-399.5"/>
</g>
<!-- l4_spec_a_afcal -->
<g id="node50" class="node">
<title>l4_spec_a_afcal</title>
<ellipse fill="none" stroke="black" cx="655.65" cy="-342" rx="81.49" ry="18"/>
<text text-anchor="middle" x="655.65" y="-338.3" font-family="Times,serif" font-size="14.00">l4_spec_a_afcal</text>
</g>
<!-- calib&#45;&gt;l4_spec_a_afcal -->
<g id="edge17" class="edge">
<title>calib&#45;&gt;l4_spec_a_afcal</title>
<path fill="none" stroke="black" d="M465.94,-474.04C465.94,-418.39 465.94,-342 465.94,-342 465.94,-342 564.37,-342 564.37,-342"/>
<polygon fill="black" stroke="black" points="564.37,-345.5 574.37,-342 564.37,-338.5 564.37,-345.5"/>
</g>
<!-- l4_spec_a_ctcal -->
<g id="node51" class="node">
<title>l4_spec_a_ctcal</title>
<ellipse fill="none" stroke="black" cx="655.65" cy="-288" rx="81.49" ry="18"/>
<text text-anchor="middle" x="655.65" y="-284.3" font-family="Times,serif" font-size="14.00">l4_spec_a_ctcal</text>
</g>
<!-- calib&#45;&gt;l4_spec_a_ctcal -->
<g id="edge18" class="edge">
<title>calib&#45;&gt;l4_spec_a_ctcal</title>
<path fill="none" stroke="black" d="M452.94,-469.68C452.94,-397.69 452.94,-288 452.94,-288 452.94,-288 564.37,-288 564.37,-288"/>
<polygon fill="black" stroke="black" points="564.37,-291.5 574.37,-288 564.37,-284.5 564.37,-291.5"/>
</g>
<!-- l4_spec_a_ndfilt -->
<g id="node52" class="node">
<title>l4_spec_a_ndfilt</title>
<ellipse fill="none" stroke="black" cx="655.65" cy="-234" rx="83.39" ry="18"/>
<text text-anchor="middle" x="655.65" y="-230.3" font-family="Times,serif" font-size="14.00">l4_spec_a_ndfilt</text>
</g>
<!-- calib&#45;&gt;l4_spec_a_ndfilt -->
<g id="edge19" class="edge">
<title>calib&#45;&gt;l4_spec_a_ndfilt</title>
<path fill="none" stroke="black" d="M440.94,-468.38C440.94,-381.24 440.94,-234 440.94,-234 440.94,-234 562.33,-234 562.33,-234"/>
<polygon fill="black" stroke="black" points="562.33,-237.5 572.33,-234 562.33,-230.5 562.33,-237.5"/>
</g>
<!-- l4_spec_a_stmap -->
<g id="node53" class="node">
<title>l4_spec_a_stmap</title>
<ellipse fill="none" stroke="black" cx="655.65" cy="-180" rx="87.99" ry="18"/>
<text text-anchor="middle" x="655.65" y="-176.3" font-family="Times,serif" font-size="14.00">l4_spec_a_stmap</text>
</g>
<!-- calib&#45;&gt;l4_spec_a_stmap -->
<g id="edge20" class="edge">
<title>calib&#45;&gt;l4_spec_a_stmap</title>
<path fill="none" stroke="black" d="M427.94,-469.46C427.94,-368.79 427.94,-180 427.94,-180 427.94,-180 557.61,-180 557.61,-180"/>
<polygon fill="black" stroke="black" points="557.61,-183.5 567.61,-180 557.61,-176.5 557.61,-183.5"/>
</g>
<!-- l4_spec_a_tspi -->
<g id="node54" class="node">
<title>l4_spec_a_tspi</title>
<ellipse fill="none" stroke="black" cx="655.65" cy="-126" rx="76.89" ry="18"/>
<text text-anchor="middle" x="655.65" y="-122.3" font-family="Times,serif" font-size="14.00">l4_spec_a_tspi</text>
</g>
<!-- calib&#45;&gt;l4_spec_a_tspi -->
<g id="edge21" class="edge">
<title>calib&#45;&gt;l4_spec_a_tspi</title>
<path fill="none" stroke="black" d="M415.94,-473.4C415.94,-361.59 415.94,-126 415.94,-126 415.94,-126 568.81,-126 568.81,-126"/>
<polygon fill="black" stroke="black" points="568.81,-129.5 578.81,-126 568.81,-122.5 568.81,-129.5"/>
</g>
<!-- l4_spec_a_rspi -->
<g id="node55" class="node">
<title>l4_spec_a_rspi</title>
<ellipse fill="none" stroke="black" cx="655.65" cy="-72" rx="77.19" ry="18"/>
<text text-anchor="middle" x="655.65" y="-68.3" font-family="Times,serif" font-size="14.00">l4_spec_a_rspi</text>
</g>
<!-- calib&#45;&gt;l4_spec_a_rspi -->
<g id="edge22" class="edge">
<title>calib&#45;&gt;l4_spec_a_rspi</title>
<path fill="none" stroke="black" d="M402.94,-480.57C402.94,-361.33 402.94,-72 402.94,-72 402.94,-72 568.11,-72 568.11,-72"/>
<polygon fill="black" stroke="black" points="568.11,-75.5 578.11,-72 568.11,-68.5 568.11,-75.5"/>
</g>
<!-- l4_spec_a_lsf -->
<g id="node56" class="node">
<title>l4_spec_a_lsf</title>
<ellipse fill="none" stroke="black" cx="655.65" cy="-18" rx="70.39" ry="18"/>
<text text-anchor="middle" x="655.65" y="-14.3" font-family="Times,serif" font-size="14.00">l4_spec_a_lsf</text>
</g>
<!-- calib&#45;&gt;l4_spec_a_lsf -->
<g id="edge23" class="edge">
<title>calib&#45;&gt;l4_spec_a_lsf</title>
<path fill="none" stroke="black" d="M390.94,-492.44C390.94,-373.14 390.94,-18 390.94,-18 390.94,-18 575.41,-18 575.41,-18"/>
<polygon fill="black" stroke="black" points="575.41,-21.5 585.41,-18 575.41,-14.5 575.41,-21.5"/>
</g>
<!-- l1_spec_a_odir -->
<g id="node57" class="node">
<title>l1_spec_a_odir</title>
<ellipse fill="none" stroke="black" cx="655.65" cy="-1314" rx="77.19" ry="18"/>
<text text-anchor="middle" x="655.65" y="-1310.3" font-family="Times,serif" font-size="14.00">l1_spec_a_odir</text>
</g>
<!-- config&#45;&gt;l1_spec_a_odir -->
<g id="edge24" class="edge">
<title>config&#45;&gt;l1_spec_a_odir</title>
<path fill="none" stroke="black" d="M498.94,-1251.49C498.94,-1281 498.94,-1314 498.94,-1314 498.94,-1314 568.21,-1314 568.21,-1314"/>
<polygon fill="black" stroke="black" points="568.21,-1317.5 578.21,-1314 568.21,-1310.5 568.21,-1317.5"/>
</g>
<!-- l2a_spec_a_odir -->
<g id="node58" class="node">
<title>l2a_spec_a_odir</title>
<ellipse fill="none" stroke="black" cx="655.65" cy="-1260" rx="83.39" ry="18"/>
<text text-anchor="middle" x="655.65" y="-1256.3" font-family="Times,serif" font-size="14.00">l2a_spec_a_odir</text>
</g>
<!-- config&#45;&gt;l2a_spec_a_odir -->
<g id="edge25" class="edge">
<title>config&#45;&gt;l2a_spec_a_odir</title>
<path fill="none" stroke="black" d="M491.03,-1260C491.03,-1260 562.37,-1260 562.37,-1260"/>
<polygon fill="black" stroke="black" points="562.37,-1263.5 572.37,-1260 562.37,-1256.5 562.37,-1263.5"/>
</g>
<!-- l2b_spec_a_odir -->
<g id="node59" class="node">
<title>l2b_spec_a_odir</title>
<ellipse fill="none" stroke="black" cx="655.65" cy="-1206" rx="83.39" ry="18"/>
<text text-anchor="middle" x="655.65" y="-1202.3" font-family="Times,serif" font-size="14.00">l2b_spec_a_odir</text>
</g>
<!-- config&#45;&gt;l2b_spec_a_odir -->
<g id="edge26" class="edge">
<title>config&#45;&gt;l2b_spec_a_odir</title>
<path fill="none" stroke="black" d="M514.39,-1206C514.39,-1206 562.15,-1206 562.15,-1206"/>
<polygon fill="black" stroke="black" points="562.15,-1209.5 572.15,-1206 562.15,-1202.5 562.15,-1209.5"/>
</g>
<!-- l3_spec_a_odir -->
<g id="node60" class="node">
<title>l3_spec_a_odir</title>
<ellipse fill="none" stroke="black" cx="655.65" cy="-1152" rx="77.19" ry="18"/>
<text text-anchor="middle" x="655.65" y="-1148.3" font-family="Times,serif" font-size="14.00">l3_spec_a_odir</text>
</g>
<!-- config&#45;&gt;l3_spec_a_odir -->
<g id="edge27" class="edge">
<title>config&#45;&gt;l3_spec_a_odir</title>
<path fill="none" stroke="black" d="M491.03,-1152C491.03,-1152 568.24,-1152 568.24,-1152"/>
<polygon fill="black" stroke="black" points="568.24,-1155.5 578.24,-1152 568.24,-1148.5 568.24,-1155.5"/>
</g>
<!-- l4_spec_a_odir -->
<g id="node61" class="node">
<title>l4_spec_a_odir</title>
<ellipse fill="none" stroke="black" cx="655.65" cy="-1098" rx="77.19" ry="18"/>
<text text-anchor="middle" x="655.65" y="-1094.3" font-family="Times,serif" font-size="14.00">l4_spec_a_odir</text>
</g>
<!-- config&#45;&gt;l4_spec_a_odir -->
<g id="edge28" class="edge">
<title>config&#45;&gt;l4_spec_a_odir</title>
<path fill="none" stroke="black" d="M508.94,-1177.91C508.94,-1145.91 508.94,-1098 508.94,-1098 508.94,-1098 568,-1098 568,-1098"/>
<polygon fill="black" stroke="black" points="568,-1101.5 578,-1098 568,-1094.5 568,-1101.5"/>
</g>
<!-- l1_spec_a_rec -->
<g id="node62" class="node">
<title>l1_spec_a_rec</title>
<ellipse fill="none" stroke="black" cx="655.65" cy="-1584" rx="73.39" ry="18"/>
<text text-anchor="middle" x="655.65" y="-1580.3" font-family="Times,serif" font-size="14.00">l1_spec_a_rec</text>
</g>
<!-- recipe&#45;&gt;l1_spec_a_rec -->
<g id="edge29" class="edge">
<title>recipe&#45;&gt;l1_spec_a_rec</title>
<path fill="none" stroke="black" d="M426.94,-1516.22C426.94,-1546.92 426.94,-1584 426.94,-1584 426.94,-1584 572.02,-1584 572.02,-1584"/>
<polygon fill="black" stroke="black" points="572.02,-1587.5 582.02,-1584 572.02,-1580.5 572.02,-1587.5"/>
</g>
<!-- l2a_spec_a_rec -->
<g id="node63" class="node">
<title>l2a_spec_a_rec</title>
<ellipse fill="none" stroke="black" cx="655.65" cy="-1530" rx="79.09" ry="18"/>
<text text-anchor="middle" x="655.65" y="-1526.3" font-family="Times,serif" font-size="14.00">l2a_spec_a_rec</text>
</g>
<!-- recipe&#45;&gt;l2a_spec_a_rec -->
<g id="edge30" class="edge">
<title>recipe&#45;&gt;l2a_spec_a_rec</title>
<path fill="none" stroke="black" d="M454.94,-1515.67C454.94,-1525.42 454.94,-1533.12 454.94,-1533.12 454.94,-1533.12 567.47,-1533.12 567.47,-1533.12"/>
<polygon fill="black" stroke="black" points="567.47,-1536.62 577.47,-1533.12 567.47,-1529.62 567.47,-1536.62"/>
</g>
<!-- l2b_spec_a_rec -->
<g id="node64" class="node">
<title>l2b_spec_a_rec</title>
<ellipse fill="none" stroke="black" cx="655.65" cy="-1476" rx="79.09" ry="18"/>
<text text-anchor="middle" x="655.65" y="-1472.3" font-family="Times,serif" font-size="14.00">l2b_spec_a_rec</text>
</g>
<!-- recipe&#45;&gt;l2b_spec_a_rec -->
<g id="edge31" class="edge">
<title>recipe&#45;&gt;l2b_spec_a_rec</title>
<path fill="none" stroke="black" d="M482.56,-1476C482.56,-1476 565.96,-1476 565.96,-1476"/>
<polygon fill="black" stroke="black" points="565.96,-1479.5 575.96,-1476 565.96,-1472.5 565.96,-1479.5"/>
</g>
<!-- l3_spec_a_rec -->
<g id="node65" class="node">
<title>l3_spec_a_rec</title>
<ellipse fill="none" stroke="black" cx="655.65" cy="-1422" rx="73.39" ry="18"/>
<text text-anchor="middle" x="655.65" y="-1418.3" font-family="Times,serif" font-size="14.00">l3_spec_a_rec</text>
</g>
<!-- recipe&#45;&gt;l3_spec_a_rec -->
<g id="edge32" class="edge">
<title>recipe&#45;&gt;l3_spec_a_rec</title>
<path fill="none" stroke="black" d="M454.94,-1436.33C454.94,-1426.58 454.94,-1418.88 454.94,-1418.88 454.94,-1418.88 573.19,-1418.88 573.19,-1418.88"/>
<polygon fill="black" stroke="black" points="573.19,-1422.38 583.19,-1418.88 573.19,-1415.38 573.19,-1422.38"/>
</g>
<!-- l4_spec_a_rec -->
<g id="node66" class="node">
<title>l4_spec_a_rec</title>
<ellipse fill="none" stroke="black" cx="655.65" cy="-1368" rx="73.39" ry="18"/>
<text text-anchor="middle" x="655.65" y="-1364.3" font-family="Times,serif" font-size="14.00">l4_spec_a_rec</text>
</g>
<!-- recipe&#45;&gt;l4_spec_a_rec -->
<g id="edge33" class="edge">
<title>recipe&#45;&gt;l4_spec_a_rec</title>
<path fill="none" stroke="black" d="M426.94,-1435.78C426.94,-1405.08 426.94,-1368 426.94,-1368 426.94,-1368 572.02,-1368 572.02,-1368"/>
<polygon fill="black" stroke="black" points="572.02,-1371.5 582.02,-1368 572.02,-1364.5 572.02,-1371.5"/>
</g>
<!-- l1_spec_pc_odir -->
<g id="node7" class="node">
<title>l1_spec_pc_odir</title>
<ellipse fill="none" stroke="black" cx="165.09" cy="-1530" rx="159.47" ry="18"/>
<text text-anchor="middle" x="165.09" y="-1526.3" font-family="Times,serif" font-size="14.00">Output path for L1_spec_pc 1..1</text>
</g>
<!-- l1_spec_pc_rec -->
<g id="node8" class="node">
<title>l1_spec_pc_rec</title>
<polygon fill="none" stroke="black" points="241.59,-1596 76.59,-1596 76.59,-1572 241.59,-1572 253.59,-1584 241.59,-1596"/>
<text text-anchor="middle" x="165.09" y="-1580.3" font-family="Times,serif" font-size="14.00">recipe L1_spec_pc 1..1</text>
</g>
<!-- l1_spec_pc_nllut -->
<g id="node9" class="node">
<title>l1_spec_pc_nllut</title>
<polygon fill="none" stroke="black" points="253.59,-1650 64.59,-1650 64.59,-1626 253.59,-1626 265.59,-1638 253.59,-1650"/>
<text text-anchor="middle" x="165.09" y="-1634.3" font-family="Times,serif" font-size="14.00">non linear calibration 1..1</text>
</g>
<!-- l2a_spec_pc_odir -->
<g id="node10" class="node">
<title>l2a_spec_pc_odir</title>
<ellipse fill="none" stroke="black" cx="165.09" cy="-1692" rx="164.37" ry="18"/>
<text text-anchor="middle" x="165.09" y="-1688.3" font-family="Times,serif" font-size="14.00">Output path for L2a_spec_pc 1..1</text>
</g>
<!-- l2a_spec_pc_rec -->
<g id="node11" class="node">
<title>l2a_spec_pc_rec</title>
<polygon fill="none" stroke="black" points="245.59,-1758 72.59,-1758 72.59,-1734 245.59,-1734 257.59,-1746 245.59,-1758"/>
<text text-anchor="middle" x="165.09" y="-1742.3" font-family="Times,serif" font-size="14.00">recipe L2a_spec_pc 1..1</text>
</g>
<!-- l2a_spec_pc_mbpm -->
<g id="node12" class="node">
<title>l2a_spec_pc_mbpm</title>
<polygon fill="none" stroke="black" points="257.59,-1812 60.59,-1812 60.59,-1788 257.59,-1788 269.59,-1800 257.59,-1812"/>
<text text-anchor="middle" x="165.09" y="-1796.3" font-family="Times,serif" font-size="14.00">spec_pc bad pixel map 1..1</text>
</g>
<!-- l2a_spec_pc_dnb -->
<g id="node13" class="node">
<title>l2a_spec_pc_dnb</title>
<polygon fill="none" stroke="black" points="309.09,-1866 9.09,-1866 9.09,-1842 309.09,-1842 321.09,-1854 309.09,-1866"/>
<text text-anchor="middle" x="165.09" y="-1850.3" font-family="Times,serif" font-size="14.00">spec_pc dark (CIC/FPN/dark current) 1..1</text>
</g>
<!-- l2a_spec_pc_cti -->
<g id="node14" class="node">
<title>l2a_spec_pc_cti</title>
<polygon fill="none" stroke="black" points="298.59,-1920 19.59,-1920 19.59,-1896 298.59,-1896 310.59,-1908 298.59,-1920"/>
<text text-anchor="middle" x="165.09" y="-1904.3" font-family="Times,serif" font-size="14.00">spec_pc charge transfer efficiency 1..1</text>
</g>
<!-- l2a_spec_pc_ff -->
<g id="node15" class="node">
<title>l2a_spec_pc_ff</title>
<polygon fill="none" stroke="black" points="236.59,-1974 81.59,-1974 81.59,-1950 236.59,-1950 248.59,-1962 236.59,-1974"/>
<text text-anchor="middle" x="165.09" y="-1958.3" font-family="Times,serif" font-size="14.00">spec_pc flat field 1..1</text>
</g>
<!-- l2a_spec_pc_kgain -->
<g id="node16" class="node">
<title>l2a_spec_pc_kgain</title>
<polygon fill="none" stroke="black" points="229.09,-2028 89.09,-2028 89.09,-2004 229.09,-2004 241.09,-2016 229.09,-2028"/>
<text text-anchor="middle" x="165.09" y="-2012.3" font-family="Times,serif" font-size="14.00">spec_pc k&#45;gain 1..1</text>
</g>
<!-- l2a_spec_pc_emg -->
<g id="node17" class="node">
<title>l2a_spec_pc_emg</title>
<polygon fill="none" stroke="black" points="237.09,-2082 81.09,-2082 81.09,-2058 237.09,-2058 249.09,-2070 237.09,-2082"/>
<text text-anchor="middle" x="165.09" y="-2066.3" font-family="Times,serif" font-size="14.00">spec_pc EM gain 1..1</text>
</g>
<!-- l2b_spec_pc_odir -->
<g id="node18" class="node">
<title>l2b_spec_pc_odir</title>
<ellipse fill="none" stroke="black" cx="165.09" cy="-2124" rx="165.17" ry="18"/>
<text text-anchor="middle" x="165.09" y="-2120.3" font-family="Times,serif" font-size="14.00">Output path for L2b_spec_pc 1..1</text>
</g>
<!-- l2b_spec_pc_rec -->
<g id="node19" class="node">
<title>l2b_spec_pc_rec</title>
<polygon fill="none" stroke="black" points="246.09,-2190 72.09,-2190 72.09,-2166 246.09,-2166 258.09,-2178 246.09,-2190"/>
<text text-anchor="middle" x="165.09" y="-2174.3" font-family="Times,serif" font-size="14.00">recipe L2b_spec_pc 1..1</text>
</g>
<!-- l2b_spec_pc_distm -->
<g id="node20" class="node">
<title>l2b_spec_pc_distm</title>
<polygon fill="none" stroke="black" points="259.59,-2244 58.59,-2244 58.59,-2220 259.59,-2220 271.59,-2232 259.59,-2244"/>
<text text-anchor="middle" x="165.09" y="-2228.3" font-family="Times,serif" font-size="14.00">spec_pc distortion map 1..1</text>
</g>
<!-- l2b_spec_pc_excicrf -->
<g id="node21" class="node">
<title>l2b_spec_pc_excicrf</title>
<polygon fill="none" stroke="black" points="285.09,-2298 33.09,-2298 33.09,-2274 285.09,-2274 297.09,-2286 285.09,-2298"/>
<text text-anchor="middle" x="165.09" y="-2282.3" font-family="Times,serif" font-size="14.00">spec_pc EXCAM ICRF location 1..1</text>
</g>
<!-- l2b_spec_pc_excfovps -->
<g id="node22" class="node">
<title>l2b_spec_pc_excfovps</title>
<polygon fill="none" stroke="black" points="287.09,-2352 31.09,-2352 31.09,-2328 287.09,-2328 299.09,-2340 287.09,-2352"/>
<text text-anchor="middle" x="165.09" y="-2336.3" font-family="Times,serif" font-size="14.00">spec_pc ECAM FOV pixel scale 1..1</text>
</g>
<!-- l2b_spec_pc_cfamfo -->
<g id="node23" class="node">
<title>l2b_spec_pc_cfamfo</title>
<polygon fill="none" stroke="black" points="266.09,-2406 52.09,-2406 52.09,-2382 266.09,-2382 278.09,-2394 266.09,-2406"/>
<text text-anchor="middle" x="165.09" y="-2390.3" font-family="Times,serif" font-size="14.00">spec_a CFAM filter offset 1..1</text>
</g>
<!-- l3_spec_pc_odir -->
<g id="node24" class="node">
<title>l3_spec_pc_odir</title>
<ellipse fill="none" stroke="black" cx="165.09" cy="-2448" rx="159.47" ry="18"/>
<text text-anchor="middle" x="165.09" y="-2444.3" font-family="Times,serif" font-size="14.00">Output path for L3_spec_pc 1..1</text>
</g>
<!-- l3_spec_pc_rec -->
<g id="node25" class="node">
<title>l3_spec_pc_rec</title>
<polygon fill="none" stroke="black" points="241.59,-2514 76.59,-2514 76.59,-2490 241.59,-2490 253.59,-2502 241.59,-2514"/>
<text text-anchor="middle" x="165.09" y="-2498.3" font-family="Times,serif" font-size="14.00">recipe L3_spec_pc 1..1</text>
</g>
<!-- l3_spec_pc_dispm -->
<g id="node26" class="node">
<title>l3_spec_pc_dispm</title>
<polygon fill="none" stroke="black" points="264.09,-2568 54.09,-2568 54.09,-2544 264.09,-2544 276.09,-2556 264.09,-2568"/>
<text text-anchor="middle" x="165.09" y="-2552.3" font-family="Times,serif" font-size="14.00">spec_a dispersion model 1..1</text>
</g>
<!-- l3_spec_pc_wavem -->
<g id="node27" class="node">
<title>l3_spec_pc_wavem</title>
<polygon fill="none" stroke="black" points="264.09,-2622 54.09,-2622 54.09,-2598 264.09,-2598 276.09,-2610 264.09,-2622"/>
<text text-anchor="middle" x="165.09" y="-2606.3" font-family="Times,serif" font-size="14.00">spec_a dispersion model 1..1</text>
</g>
<!-- l4_spec_pc_odir -->
<g id="node28" class="node">
<title>l4_spec_pc_odir</title>
<ellipse fill="none" stroke="black" cx="165.09" cy="-2664" rx="159.47" ry="18"/>
<text text-anchor="middle" x="165.09" y="-2660.3" font-family="Times,serif" font-size="14.00">Output path for L4_spec_pc 1..1</text>
</g>
<!-- l4_spec_pc_rec -->
<g id="node29" class="node">
<title>l4_spec_pc_rec</title>
<polygon fill="none" stroke="black" points="241.59,-2730 76.59,-2730 76.59,-2706 241.59,-2706 253.59,-2718 241.59,-2730"/>
<text text-anchor="middle" x="165.09" y="-2714.3" font-family="Times,serif" font-size="14.00">recipe L4_spec_pc 1..1</text>
</g>
<!-- l4_spec_pc_afcal -->
<g id="node30" class="node">
<title>l4_spec_pc_afcal</title>
<polygon fill="none" stroke="black" points="253.09,-2784 65.09,-2784 65.09,-2760 253.09,-2760 265.09,-2772 253.09,-2784"/>
<text text-anchor="middle" x="165.09" y="-2768.3" font-family="Times,serif" font-size="14.00">spec_pc absolute flux 1..1</text>
</g>
<!-- l4_spec_pc_ctcal -->
<g id="node31" class="node">
<title>l4_spec_pc_ctcal</title>
<polygon fill="none" stroke="black" points="265.09,-2838 53.09,-2838 53.09,-2814 265.09,-2814 277.09,-2826 265.09,-2838"/>
<text text-anchor="middle" x="165.09" y="-2822.3" font-family="Times,serif" font-size="14.00">spec_pc core throughput 1..1</text>
</g>
<!-- l4_spec_pc_ndfilt -->
<g id="node32" class="node">
<title>l4_spec_pc_ndfilt</title>
<polygon fill="none" stroke="black" points="238.09,-2892 80.09,-2892 80.09,-2868 238.09,-2868 250.09,-2880 238.09,-2892"/>
<text text-anchor="middle" x="165.09" y="-2876.3" font-family="Times,serif" font-size="14.00">spec_pc ND filter 1..1</text>
</g>
<!-- l4_spec_pc_stmap -->
<g id="node33" class="node">
<title>l4_spec_pc_stmap</title>
<polygon fill="none" stroke="black" points="284.59,-2946 33.59,-2946 33.59,-2922 284.59,-2922 296.59,-2934 284.59,-2946"/>
<text text-anchor="middle" x="165.09" y="-2930.3" font-family="Times,serif" font-size="14.00">spec_pc slit transmission map 1..1</text>
</g>
<!-- l4_spec_pc_tspi -->
<g id="node34" class="node">
<title>l4_spec_pc_tspi</title>
<polygon fill="none" stroke="black" points="292.59,-3000 25.59,-3000 25.59,-2976 292.59,-2976 304.59,-2988 292.59,-3000"/>
<text text-anchor="middle" x="165.09" y="-2984.3" font-family="Times,serif" font-size="14.00">spec_pc target star prism image 1..1</text>
</g>
<!-- l4_spec_pc_rspi -->
<g id="node35" class="node">
<title>l4_spec_pc_rspi</title>
<polygon fill="none" stroke="black" points="304.59,-3054 13.59,-3054 13.59,-3030 304.59,-3030 316.59,-3042 304.59,-3054"/>
<text text-anchor="middle" x="165.09" y="-3038.3" font-family="Times,serif" font-size="14.00">spec_pc reference star prism image 1..1</text>
</g>
<!-- l4_spec_pc_lsf -->
<g id="node36" class="node">
<title>l4_spec_pc_lsf</title>
<polygon fill="none" stroke="black" points="296.09,-3108 22.09,-3108 22.09,-3084 296.09,-3084 308.09,-3096 296.09,-3108"/>
<text text-anchor="middle" x="165.09" y="-3092.3" font-family="Times,serif" font-size="14.00">spec_pc ND filter line spread function</text>
</g>
</g>
</svg>
