<?xml version="1.0" encoding="UTF-8" standalone="no"?>
<!DOCTYPE svg PUBLIC "-//W3C//DTD SVG 1.1//EN"
 "http://www.w3.org/Graphics/SVG/1.1/DTD/svg11.dtd">
<!-- Generated by graphviz version 2.43.0 (0)
 -->
<!-- Title: SpectroscopyNCClerks Pages: 1 -->
<svg width="740pt" height="1718pt"
 viewBox="0.00 0.00 740.36 1718.00" xmlns="http://www.w3.org/2000/svg" xmlns:xlink="http://www.w3.org/1999/xlink">
<g id="graph0" class="graph" transform="scale(1 1) rotate(0) translate(4 1714)">
<title>SpectroscopyNCClerks</title>
<polygon fill="white" stroke="transparent" points="-4,4 -4,-1714 736.36,-1714 736.36,4 -4,4"/>
<!-- alarm_cal -->
<g id="node1" class="node">
<title>alarm_cal</title>
<text text-anchor="middle" x="91" y="-581.3" font-family="Times,serif" font-size="14.00">User requested update</text>
</g>
<!-- calib -->
<g id="node4" class="node">
<title>calib</title>
<ellipse fill="none" stroke="black" cx="292.09" cy="-585" rx="62.29" ry="62.29"/>
<text text-anchor="middle" x="292.09" y="-581.3" font-family="Times,serif" font-size="14.00">Calibration</text>
</g>
<!-- alarm_cal&#45;&gt;calib -->
<g id="edge1" class="edge">
<title>alarm_cal&#45;&gt;calib</title>
<path fill="none" stroke="black" stroke-dasharray="5,2" d="M182.13,-585C182.13,-585 219.47,-585 219.47,-585"/>
<polygon fill="black" stroke="black" points="219.47,-588.5 229.47,-585 219.47,-581.5 219.47,-588.5"/>
</g>
<!-- alarm_cnf -->
<g id="node2" class="node">
<title>alarm_cnf</title>
<text text-anchor="middle" x="91" y="-1310.3" font-family="Times,serif" font-size="14.00">User requested update</text>
</g>
<!-- config -->
<g id="node5" class="node">
<title>config</title>
<ellipse fill="none" stroke="black" cx="292.09" cy="-1314" rx="74.19" ry="74.19"/>
<text text-anchor="middle" x="292.09" y="-1310.3" font-family="Times,serif" font-size="14.00">Configuration</text>
</g>
<!-- alarm_cnf&#45;&gt;config -->
<g id="edge2" class="edge">
<title>alarm_cnf&#45;&gt;config</title>
<path fill="none" stroke="black" stroke-dasharray="5,2" d="M182.13,-1314C182.13,-1314 207.84,-1314 207.84,-1314"/>
<polygon fill="black" stroke="black" points="207.84,-1317.5 217.84,-1314 207.84,-1310.5 207.84,-1317.5"/>
</g>
<!-- alarm_rec -->
<g id="node3" class="node">
<title>alarm_rec</title>
<text text-anchor="middle" x="91" y="-1580.3" font-family="Times,serif" font-size="14.00">User requested update</text>
</g>
<!-- recipe -->
<g id="node6" class="node">
<title>recipe</title>
<ellipse fill="none" stroke="black" cx="292.09" cy="-1584" rx="42.49" ry="42.49"/>
<text text-anchor="middle" x="292.09" y="-1580.3" font-family="Times,serif" font-size="14.00">Recipe</text>
</g>
<!-- alarm_rec&#45;&gt;recipe -->
<g id="edge3" class="edge">
<title>alarm_rec&#45;&gt;recipe</title>
<path fill="none" stroke="black" stroke-dasharray="5,2" d="M182.13,-1584C182.13,-1584 239.74,-1584 239.74,-1584"/>
<polygon fill="black" stroke="black" points="239.74,-1587.5 249.74,-1584 239.74,-1580.5 239.74,-1587.5"/>
</g>
<!-- l1_spec_nc_nllut -->
<g id="node9" class="node">
<title>l1_spec_nc_nllut</title>
<polygon fill="none" stroke="black" points="655.77,-1164 466.77,-1164 466.77,-1140 655.77,-1140 667.77,-1152 655.77,-1164"/>
<text text-anchor="middle" x="567.27" y="-1148.3" font-family="Times,serif" font-size="14.00">non linear calibration 1..1</text>
</g>
<!-- calib&#45;&gt;l1_spec_nc_nllut -->
<g id="edge4" class="edge">
<title>calib&#45;&gt;l1_spec_nc_nllut</title>
<path fill="none" stroke="black" d="M242.36,-623.08C242.36,-750.21 242.36,-1152 242.36,-1152 242.36,-1152 456.69,-1152 456.69,-1152"/>
<polygon fill="black" stroke="black" points="456.69,-1155.5 466.69,-1152 456.69,-1148.5 456.69,-1155.5"/>
</g>
<!-- l2a_spec_nc_mbpm -->
<g id="node12" class="node">
<title>l2a_spec_nc_mbpm</title>
<polygon fill="none" stroke="black" points="659.77,-1110 462.77,-1110 462.77,-1086 659.77,-1086 671.77,-1098 659.77,-1110"/>
<text text-anchor="middle" x="567.27" y="-1094.3" font-family="Times,serif" font-size="14.00">spec_nc bad pixel map 1..1</text>
</g>
<!-- calib&#45;&gt;l2a_spec_nc_mbpm -->
<g id="edge5" class="edge">
<title>calib&#45;&gt;l2a_spec_nc_mbpm</title>
<path fill="none" stroke="black" d="M255.36,-635.59C255.36,-765.01 255.36,-1098 255.36,-1098 255.36,-1098 452.54,-1098 452.54,-1098"/>
<polygon fill="black" stroke="black" points="452.54,-1101.5 462.54,-1098 452.54,-1094.5 452.54,-1101.5"/>
</g>
<!-- l2a_spec_nc_dnb -->
<g id="node13" class="node">
<title>l2a_spec_nc_dnb</title>
<polygon fill="none" stroke="black" points="711.27,-1056 411.27,-1056 411.27,-1032 711.27,-1032 723.27,-1044 711.27,-1056"/>
<text text-anchor="middle" x="567.27" y="-1040.3" font-family="Times,serif" font-size="14.00">spec_nc dark (CIC/FPN/dark current) 1..1</text>
</g>
<!-- calib&#45;&gt;l2a_spec_nc_dnb -->
<g id="edge6" class="edge">
<title>calib&#45;&gt;l2a_spec_nc_dnb</title>
<path fill="none" stroke="black" d="M267.36,-642.67C267.36,-765.95 267.36,-1044 267.36,-1044 267.36,-1044 401.17,-1044 401.17,-1044"/>
<polygon fill="black" stroke="black" points="401.17,-1047.5 411.17,-1044 401.17,-1040.5 401.17,-1047.5"/>
</g>
<!-- l2a_spec_nc_cti -->
<g id="node14" class="node">
<title>l2a_spec_nc_cti</title>
<polygon fill="none" stroke="black" points="700.77,-1002 421.77,-1002 421.77,-978 700.77,-978 712.77,-990 700.77,-1002"/>
<text text-anchor="middle" x="567.27" y="-986.3" font-family="Times,serif" font-size="14.00">spec_nc charge transfer efficiency 1..1</text>
</g>
<!-- calib&#45;&gt;l2a_spec_nc_cti -->
<g id="edge7" class="edge">
<title>calib&#45;&gt;l2a_spec_nc_cti</title>
<path fill="none" stroke="black" d="M280.36,-646.51C280.36,-759.81 280.36,-990 280.36,-990 280.36,-990 411.71,-990 411.71,-990"/>
<polygon fill="black" stroke="black" points="411.71,-993.5 421.71,-990 411.71,-986.5 411.71,-993.5"/>
</g>
<!-- l2a_spec_nc_ff -->
<g id="node15" class="node">
<title>l2a_spec_nc_ff</title>
<polygon fill="none" stroke="black" points="638.77,-948 483.77,-948 483.77,-924 638.77,-924 650.77,-936 638.77,-948"/>
<text text-anchor="middle" x="567.27" y="-932.3" font-family="Times,serif" font-size="14.00">spec_nc flat field 1..1</text>
</g>
<!-- calib&#45;&gt;l2a_spec_nc_ff -->
<g id="edge8" class="edge">
<title>calib&#45;&gt;l2a_spec_nc_ff</title>
<path fill="none" stroke="black" d="M292.36,-647.75C292.36,-748.71 292.36,-936 292.36,-936 292.36,-936 473.67,-936 473.67,-936"/>
<polygon fill="black" stroke="black" points="473.67,-939.5 483.67,-936 473.67,-932.5 473.67,-939.5"/>
</g>
<!-- l2a_spec_nc_kgain -->
<g id="node16" class="node">
<title>l2a_spec_nc_kgain</title>
<polygon fill="none" stroke="black" points="631.27,-894 491.27,-894 491.27,-870 631.27,-870 643.27,-882 631.27,-894"/>
<text text-anchor="middle" x="567.27" y="-878.3" font-family="Times,serif" font-size="14.00">spec_nc k&#45;gain 1..1</text>
</g>
<!-- calib&#45;&gt;l2a_spec_nc_kgain -->
<g id="edge9" class="edge">
<title>calib&#45;&gt;l2a_spec_nc_kgain</title>
<path fill="none" stroke="black" d="M305.36,-646.18C305.36,-733.12 305.36,-882 305.36,-882 305.36,-882 481.16,-882 481.16,-882"/>
<polygon fill="black" stroke="black" points="481.16,-885.5 491.16,-882 481.16,-878.5 481.16,-885.5"/>
</g>
<!-- l2a_spec_nc_emg -->
<g id="node17" class="node">
<title>l2a_spec_nc_emg</title>
<polygon fill="none" stroke="black" points="639.27,-840 483.27,-840 483.27,-816 639.27,-816 651.27,-828 639.27,-840"/>
<text text-anchor="middle" x="567.27" y="-824.3" font-family="Times,serif" font-size="14.00">spec_nc EM gain 1..1</text>
</g>
<!-- calib&#45;&gt;l2a_spec_nc_emg -->
<g id="edge10" class="edge">
<title>calib&#45;&gt;l2a_spec_nc_emg</title>
<path fill="none" stroke="black" d="M317.36,-642.28C317.36,-714.12 317.36,-828 317.36,-828 317.36,-828 473.01,-828 473.01,-828"/>
<polygon fill="black" stroke="black" points="473.01,-831.5 483.01,-828 473.01,-824.5 473.01,-831.5"/>
</g>
<!-- l2b_spec_nc_distm -->
<g id="node20" class="node">
<title>l2b_spec_nc_distm</title>
<polygon fill="none" stroke="black" points="661.77,-786 460.77,-786 460.77,-762 661.77,-762 673.77,-774 661.77,-786"/>
<text text-anchor="middle" x="567.27" y="-770.3" font-family="Times,serif" font-size="14.00">spec_nc distortion map 1..1</text>
</g>
<!-- calib&#45;&gt;l2b_spec_nc_distm -->
<g id="edge11" class="edge">
<title>calib&#45;&gt;l2b_spec_nc_distm</title>
<path fill="none" stroke="black" d="M330.36,-634.66C330.36,-690.65 330.36,-774 330.36,-774 330.36,-774 450.6,-774 450.6,-774"/>
<polygon fill="black" stroke="black" points="450.6,-777.5 460.6,-774 450.6,-770.5 450.6,-777.5"/>
</g>
<!-- l2b_spec_nc_excicrf -->
<g id="node21" class="node">
<title>l2b_spec_nc_excicrf</title>
<polygon fill="none" stroke="black" points="687.27,-732 435.27,-732 435.27,-708 687.27,-708 699.27,-720 687.27,-732"/>
<text text-anchor="middle" x="567.27" y="-716.3" font-family="Times,serif" font-size="14.00">spec_nc EXCAM ICRF location 1..1</text>
</g>
<!-- calib&#45;&gt;l2b_spec_nc_excicrf -->
<g id="edge12" class="edge">
<title>calib&#45;&gt;l2b_spec_nc_excicrf</title>
<path fill="none" stroke="black" d="M342.36,-622.25C342.36,-662.21 342.36,-720 342.36,-720 342.36,-720 425.14,-720 425.14,-720"/>
<polygon fill="black" stroke="black" points="425.14,-723.5 435.14,-720 425.14,-716.5 425.14,-723.5"/>
</g>
<!-- l2b_spec_nc_excfovps -->
<g id="node22" class="node">
<title>l2b_spec_nc_excfovps</title>
<polygon fill="none" stroke="black" points="689.27,-678 433.27,-678 433.27,-654 689.27,-654 701.27,-666 689.27,-678"/>
<text text-anchor="middle" x="567.27" y="-662.3" font-family="Times,serif" font-size="14.00">spec_nc ECAM FOV pixel scale 1..1</text>
</g>
<!-- calib&#45;&gt;l2b_spec_nc_excfovps -->
<g id="edge13" class="edge">
<title>calib&#45;&gt;l2b_spec_nc_excfovps</title>
<path fill="none" stroke="black" d="M324.09,-638.7C369.81,-638.7 448.36,-638.7 448.36,-638.7 448.36,-638.7 448.36,-639.62 448.36,-639.62"/>
<polygon fill="black" stroke="black" points="444.86,-637.94 448.36,-647.94 451.86,-637.94 444.86,-637.94"/>
</g>
<!-- l2b_spec_nc_cfamfo -->
<g id="node23" class="node">
<title>l2b_spec_nc_cfamfo</title>
<polygon fill="none" stroke="black" points="668.27,-624 454.27,-624 454.27,-600 668.27,-600 680.27,-612 668.27,-624"/>
<text text-anchor="middle" x="567.27" y="-608.3" font-family="Times,serif" font-size="14.00">spec_a CFAM filter offset 1..1</text>
</g>
<!-- calib&#45;&gt;l2b_spec_nc_cfamfo -->
<g id="edge14" class="edge">
<title>calib&#45;&gt;l2b_spec_nc_cfamfo</title>
<path fill="none" stroke="black" d="M348.44,-612C348.44,-612 444.19,-612 444.19,-612"/>
<polygon fill="black" stroke="black" points="444.19,-615.5 454.19,-612 444.19,-608.5 444.19,-615.5"/>
</g>
<!-- l3_spec_nc_ast -->
<g id="node26" class="node">
<title>l3_spec_nc_ast</title>
<polygon fill="none" stroke="black" points="649.27,-570 473.27,-570 473.27,-546 649.27,-546 661.27,-558 649.27,-570"/>
<text text-anchor="middle" x="567.27" y="-554.3" font-family="Times,serif" font-size="14.00">spec_nc astrometry 1..1</text>
</g>
<!-- calib&#45;&gt;l3_spec_nc_ast -->
<g id="edge15" class="edge">
<title>calib&#45;&gt;l3_spec_nc_ast</title>
<path fill="none" stroke="black" d="M348.44,-558C348.44,-558 463.07,-558 463.07,-558"/>
<polygon fill="black" stroke="black" points="463.07,-561.5 473.07,-558 463.07,-554.5 463.07,-561.5"/>
</g>
<!-- l3_spec_nc_ndf -->
<g id="node27" class="node">
<title>l3_spec_nc_ndf</title>
<polygon fill="none" stroke="black" points="649.27,-516 473.27,-516 473.27,-492 649.27,-492 661.27,-504 649.27,-516"/>
<text text-anchor="middle" x="567.27" y="-500.3" font-family="Times,serif" font-size="14.00">spec_nc astrometry 1..1</text>
</g>
<!-- calib&#45;&gt;l3_spec_nc_ndf -->
<g id="edge16" class="edge">
<title>calib&#45;&gt;l3_spec_nc_ndf</title>
<path fill="none" stroke="black" d="M341.36,-546.4C341.36,-525.54 341.36,-504 341.36,-504 341.36,-504 463.1,-504 463.1,-504"/>
<polygon fill="black" stroke="black" points="463.1,-507.5 473.1,-504 463.1,-500.5 463.1,-507.5"/>
</g>
<!-- l3_spec_nc_dispm -->
<g id="node28" class="node">
<title>l3_spec_nc_dispm</title>
<polygon fill="none" stroke="black" points="666.27,-462 456.27,-462 456.27,-438 666.27,-438 678.27,-450 666.27,-462"/>
<text text-anchor="middle" x="567.27" y="-446.3" font-family="Times,serif" font-size="14.00">spec_a dispersion model 1..1</text>
</g>
<!-- calib&#45;&gt;l3_spec_nc_dispm -->
<g id="edge17" class="edge">
<title>calib&#45;&gt;l3_spec_nc_dispm</title>
<path fill="none" stroke="black" d="M328.42,-534.2C379.22,-534.2 465.36,-534.2 465.36,-534.2 465.36,-534.2 465.36,-478.27 465.36,-478.27"/>
<polygon fill="black" stroke="black" points="468.86,-478.27 465.36,-468.27 461.86,-478.27 468.86,-478.27"/>
</g>
<!-- l3_spec_nc_wavem -->
<g id="node29" class="node">
<title>l3_spec_nc_wavem</title>
<polygon fill="none" stroke="black" points="666.27,-408 456.27,-408 456.27,-384 666.27,-384 678.27,-396 666.27,-408"/>
<text text-anchor="middle" x="567.27" y="-392.3" font-family="Times,serif" font-size="14.00">spec_a dispersion model 1..1</text>
</g>
<!-- calib&#45;&gt;l3_spec_nc_wavem -->
<g id="edge18" class="edge">
<title>calib&#45;&gt;l3_spec_nc_wavem</title>
<path fill="none" stroke="black" d="M327.36,-533.35C327.36,-477.4 327.36,-396 327.36,-396 327.36,-396 446.09,-396 446.09,-396"/>
<polygon fill="black" stroke="black" points="446.09,-399.5 456.09,-396 446.09,-392.5 446.09,-399.5"/>
</g>
<!-- l4_spec_nc_afcal -->
<g id="node32" class="node">
<title>l4_spec_nc_afcal</title>
<polygon fill="none" stroke="black" points="655.27,-354 467.27,-354 467.27,-330 655.27,-330 667.27,-342 655.27,-354"/>
<text text-anchor="middle" x="567.27" y="-338.3" font-family="Times,serif" font-size="14.00">spec_nc absolute flux 1..1</text>
</g>
<!-- calib&#45;&gt;l4_spec_nc_afcal -->
<g id="edge19" class="edge">
<title>calib&#45;&gt;l4_spec_nc_afcal</title>
<path fill="none" stroke="black" d="M313.36,-526.18C313.36,-454.26 313.36,-342 313.36,-342 313.36,-342 456.92,-342 456.92,-342"/>
<polygon fill="black" stroke="black" points="456.92,-345.5 466.92,-342 456.92,-338.5 456.92,-345.5"/>
</g>
<!-- l4_spec_nc_ctcal -->
<g id="node33" class="node">
<title>l4_spec_nc_ctcal</title>
<polygon fill="none" stroke="black" points="667.27,-300 455.27,-300 455.27,-276 667.27,-276 679.27,-288 667.27,-300"/>
<text text-anchor="middle" x="567.27" y="-284.3" font-family="Times,serif" font-size="14.00">spec_nc core throughput 1..1</text>
</g>
<!-- calib&#45;&gt;l4_spec_nc_ctcal -->
<g id="edge20" class="edge">
<title>calib&#45;&gt;l4_spec_nc_ctcal</title>
<path fill="none" stroke="black" d="M299.36,-522.74C299.36,-435.65 299.36,-288 299.36,-288 299.36,-288 445.2,-288 445.2,-288"/>
<polygon fill="black" stroke="black" points="445.2,-291.5 455.2,-288 445.2,-284.5 445.2,-291.5"/>
</g>
<!-- l4_spec_nc_ndfilt -->
<g id="node34" class="node">
<title>l4_spec_nc_ndfilt</title>
<polygon fill="none" stroke="black" points="640.27,-246 482.27,-246 482.27,-222 640.27,-222 652.27,-234 640.27,-246"/>
<text text-anchor="middle" x="567.27" y="-230.3" font-family="Times,serif" font-size="14.00">spec_nc ND filter 1..1</text>
</g>
<!-- calib&#45;&gt;l4_spec_nc_ndfilt -->
<g id="edge21" class="edge">
<title>calib&#45;&gt;l4_spec_nc_ndfilt</title>
<path fill="none" stroke="black" d="M285.36,-522.65C285.36,-421.79 285.36,-234 285.36,-234 285.36,-234 471.92,-234 471.92,-234"/>
<polygon fill="black" stroke="black" points="471.92,-237.5 481.92,-234 471.92,-230.5 471.92,-237.5"/>
</g>
<!-- l4_spec_nc_stmap -->
<g id="node35" class="node">
<title>l4_spec_nc_stmap</title>
<polygon fill="none" stroke="black" points="686.77,-192 435.77,-192 435.77,-168 686.77,-168 698.77,-180 686.77,-192"/>
<text text-anchor="middle" x="567.27" y="-176.3" font-family="Times,serif" font-size="14.00">spec_nc slit transmission map 1..1</text>
</g>
<!-- calib&#45;&gt;l4_spec_nc_stmap -->
<g id="edge22" class="edge">
<title>calib&#45;&gt;l4_spec_nc_stmap</title>
<path fill="none" stroke="black" d="M318.61,-528.4C361.75,-528.4 442.36,-528.4 442.36,-528.4 442.36,-528.4 442.36,-208.24 442.36,-208.24"/>
<polygon fill="black" stroke="black" points="445.86,-208.24 442.36,-198.24 438.86,-208.24 445.86,-208.24"/>
</g>
<!-- l4_spec_nc_tspi -->
<g id="node36" class="node">
<title>l4_spec_nc_tspi</title>
<polygon fill="none" stroke="black" points="694.77,-138 427.77,-138 427.77,-114 694.77,-114 706.77,-126 694.77,-138"/>
<text text-anchor="middle" x="567.27" y="-122.3" font-family="Times,serif" font-size="14.00">spec_nc target star prism image 1..1</text>
</g>
<!-- calib&#45;&gt;l4_spec_nc_tspi -->
<g id="edge23" class="edge">
<title>calib&#45;&gt;l4_spec_nc_tspi</title>
<path fill="none" stroke="black" d="M271.36,-525.93C271.36,-401.96 271.36,-126 271.36,-126 271.36,-126 417.55,-126 417.55,-126"/>
<polygon fill="black" stroke="black" points="417.55,-129.5 427.55,-126 417.55,-122.5 417.55,-129.5"/>
</g>
<!-- l4_spec_nc_rspi -->
<g id="node37" class="node">
<title>l4_spec_nc_rspi</title>
<polygon fill="none" stroke="black" points="706.77,-84 415.77,-84 415.77,-60 706.77,-60 718.77,-72 706.77,-84"/>
<text text-anchor="middle" x="567.27" y="-68.3" font-family="Times,serif" font-size="14.00">spec_nc reference star prism image 1..1</text>
</g>
<!-- calib&#45;&gt;l4_spec_nc_rspi -->
<g id="edge24" class="edge">
<title>calib&#45;&gt;l4_spec_nc_rspi</title>
<path fill="none" stroke="black" d="M258.36,-532.51C258.36,-401.76 258.36,-72 258.36,-72 258.36,-72 405.53,-72 405.53,-72"/>
<polygon fill="black" stroke="black" points="405.53,-75.5 415.53,-72 405.53,-68.5 405.53,-75.5"/>
</g>
<!-- l4_spec_nc_lsf -->
<g id="node38" class="node">
<title>l4_spec_nc_lsf</title>
<polygon fill="none" stroke="black" points="698.27,-30 424.27,-30 424.27,-6 698.27,-6 710.27,-18 698.27,-30"/>
<text text-anchor="middle" x="567.27" y="-14.3" font-family="Times,serif" font-size="14.00">spec_nc ND filter line spread function</text>
</g>
<!-- calib&#45;&gt;l4_spec_nc_lsf -->
<g id="edge25" class="edge">
<title>calib&#45;&gt;l4_spec_nc_lsf</title>
<path fill="none" stroke="black" d="M244.36,-544.68C244.36,-415.14 244.36,-18 244.36,-18 244.36,-18 414.23,-18 414.23,-18"/>
<polygon fill="black" stroke="black" points="414.23,-21.5 424.23,-18 414.23,-14.5 414.23,-21.5"/>
</g>
<!-- l1_spec_nc_odir -->
<g id="node7" class="node">
<title>l1_spec_nc_odir</title>
<ellipse fill="none" stroke="black" cx="567.27" cy="-1422" rx="159.47" ry="18"/>
<text text-anchor="middle" x="567.27" y="-1418.3" font-family="Times,serif" font-size="14.00">Output path for L1_spec_nc 1..1</text>
</g>
<!-- config&#45;&gt;l1_spec_nc_odir -->
<g id="edge26" class="edge">
<title>config&#45;&gt;l1_spec_nc_odir</title>
<path fill="none" stroke="black" d="M350.36,-1359.8C350.36,-1389.24 350.36,-1422 350.36,-1422 350.36,-1422 397.92,-1422 397.92,-1422"/>
<polygon fill="black" stroke="black" points="397.92,-1425.5 407.92,-1422 397.92,-1418.5 397.92,-1425.5"/>
</g>
<!-- l2a_spec_nc_odir -->
<g id="node10" class="node">
<title>l2a_spec_nc_odir</title>
<ellipse fill="none" stroke="black" cx="567.27" cy="-1368" rx="164.37" ry="18"/>
<text text-anchor="middle" x="567.27" y="-1364.3" font-family="Times,serif" font-size="14.00">Output path for L2a_spec_nc 1..1</text>
</g>
<!-- config&#45;&gt;l2a_spec_nc_odir -->
<g id="edge27" class="edge">
<title>config&#45;&gt;l2a_spec_nc_odir</title>
<path fill="none" stroke="black" d="M342.89,-1368C342.89,-1368 392.82,-1368 392.82,-1368"/>
<polygon fill="black" stroke="black" points="392.82,-1371.5 402.82,-1368 392.82,-1364.5 392.82,-1371.5"/>
</g>
<!-- l2b_spec_nc_odir -->
<g id="node18" class="node">
<title>l2b_spec_nc_odir</title>
<ellipse fill="none" stroke="black" cx="567.27" cy="-1314" rx="165.17" ry="18"/>
<text text-anchor="middle" x="567.27" y="-1310.3" font-family="Times,serif" font-size="14.00">Output path for L2b_spec_nc 1..1</text>
</g>
<!-- config&#45;&gt;l2b_spec_nc_odir -->
<g id="edge28" class="edge">
<title>config&#45;&gt;l2b_spec_nc_odir</title>
<path fill="none" stroke="black" d="M366.2,-1314C366.2,-1314 392.14,-1314 392.14,-1314"/>
<polygon fill="black" stroke="black" points="392.14,-1317.5 402.14,-1314 392.14,-1310.5 392.14,-1317.5"/>
</g>
<!-- l3_spec_nc_odir -->
<g id="node24" class="node">
<title>l3_spec_nc_odir</title>
<ellipse fill="none" stroke="black" cx="567.27" cy="-1260" rx="159.47" ry="18"/>
<text text-anchor="middle" x="567.27" y="-1256.3" font-family="Times,serif" font-size="14.00">Output path for L3_spec_nc 1..1</text>
</g>
<!-- config&#45;&gt;l3_spec_nc_odir -->
<g id="edge29" class="edge">
<title>config&#45;&gt;l3_spec_nc_odir</title>
<path fill="none" stroke="black" d="M342.89,-1260C342.89,-1260 398.01,-1260 398.01,-1260"/>
<polygon fill="black" stroke="black" points="398.01,-1263.5 408.01,-1260 398.01,-1256.5 398.01,-1263.5"/>
</g>
<!-- l4_spec_nc_odir -->
<g id="node30" class="node">
<title>l4_spec_nc_odir</title>
<ellipse fill="none" stroke="black" cx="567.27" cy="-1206" rx="159.47" ry="18"/>
<text text-anchor="middle" x="567.27" y="-1202.3" font-family="Times,serif" font-size="14.00">Output path for L4_spec_nc 1..1</text>
</g>
<!-- config&#45;&gt;l4_spec_nc_odir -->
<g id="edge30" class="edge">
<title>config&#45;&gt;l4_spec_nc_odir</title>
<path fill="none" stroke="black" d="M360.36,-1285.06C360.36,-1253.07 360.36,-1206 360.36,-1206 360.36,-1206 397.83,-1206 397.83,-1206"/>
<polygon fill="black" stroke="black" points="397.83,-1209.5 407.83,-1206 397.83,-1202.5 397.83,-1209.5"/>
</g>
<!-- l1_spec_nc_rec -->
<g id="node8" class="node">
<title>l1_spec_nc_rec</title>
<polygon fill="none" stroke="black" points="643.77,-1704 478.77,-1704 478.77,-1680 643.77,-1680 655.77,-1692 643.77,-1704"/>
<text text-anchor="middle" x="567.27" y="-1688.3" font-family="Times,serif" font-size="14.00">recipe L1_spec_nc 1..1</text>
</g>
<!-- recipe&#45;&gt;l1_spec_nc_rec -->
<g id="edge31" class="edge">
<title>recipe&#45;&gt;l1_spec_nc_rec</title>
<path fill="none" stroke="black" d="M278.36,-1624.22C278.36,-1654.92 278.36,-1692 278.36,-1692 278.36,-1692 468.62,-1692 468.62,-1692"/>
<polygon fill="black" stroke="black" points="468.62,-1695.5 478.62,-1692 468.62,-1688.5 468.62,-1695.5"/>
</g>
<!-- l2a_spec_nc_rec -->
<g id="node11" class="node">
<title>l2a_spec_nc_rec</title>
<polygon fill="none" stroke="black" points="647.77,-1650 474.77,-1650 474.77,-1626 647.77,-1626 659.77,-1638 647.77,-1650"/>
<text text-anchor="middle" x="567.27" y="-1634.3" font-family="Times,serif" font-size="14.00">recipe L2a_spec_nc 1..1</text>
</g>
<!-- recipe&#45;&gt;l2a_spec_nc_rec -->
<g id="edge32" class="edge">
<title>recipe&#45;&gt;l2a_spec_nc_rec</title>
<path fill="none" stroke="black" d="M306.36,-1623.98C306.36,-1633.58 306.36,-1641.12 306.36,-1641.12 306.36,-1641.12 464.55,-1641.12 464.55,-1641.12"/>
<polygon fill="black" stroke="black" points="464.55,-1644.62 474.55,-1641.12 464.55,-1637.62 464.55,-1644.62"/>
</g>
<!-- l2b_spec_nc_rec -->
<g id="node19" class="node">
<title>l2b_spec_nc_rec</title>
<polygon fill="none" stroke="black" points="648.27,-1596 474.27,-1596 474.27,-1572 648.27,-1572 660.27,-1584 648.27,-1596"/>
<text text-anchor="middle" x="567.27" y="-1580.3" font-family="Times,serif" font-size="14.00">recipe L2b_spec_nc 1..1</text>
</g>
<!-- recipe&#45;&gt;l2b_spec_nc_rec -->
<g id="edge33" class="edge">
<title>recipe&#45;&gt;l2b_spec_nc_rec</title>
<path fill="none" stroke="black" d="M334.49,-1584C334.49,-1584 464.09,-1584 464.09,-1584"/>
<polygon fill="black" stroke="black" points="464.09,-1587.5 474.09,-1584 464.09,-1580.5 464.09,-1587.5"/>
</g>
<!-- l3_spec_nc_rec -->
<g id="node25" class="node">
<title>l3_spec_nc_rec</title>
<polygon fill="none" stroke="black" points="643.77,-1542 478.77,-1542 478.77,-1518 643.77,-1518 655.77,-1530 643.77,-1542"/>
<text text-anchor="middle" x="567.27" y="-1526.3" font-family="Times,serif" font-size="14.00">recipe L3_spec_nc 1..1</text>
</g>
<!-- recipe&#45;&gt;l3_spec_nc_rec -->
<g id="edge34" class="edge">
<title>recipe&#45;&gt;l3_spec_nc_rec</title>
<path fill="none" stroke="black" d="M306.36,-1544.02C306.36,-1534.42 306.36,-1526.88 306.36,-1526.88 306.36,-1526.88 468.57,-1526.88 468.57,-1526.88"/>
<polygon fill="black" stroke="black" points="468.57,-1530.38 478.57,-1526.88 468.57,-1523.38 468.57,-1530.38"/>
</g>
<!-- l4_spec_nc_rec -->
<g id="node31" class="node">
<title>l4_spec_nc_rec</title>
<polygon fill="none" stroke="black" points="643.77,-1488 478.77,-1488 478.77,-1464 643.77,-1464 655.77,-1476 643.77,-1488"/>
<text text-anchor="middle" x="567.27" y="-1472.3" font-family="Times,serif" font-size="14.00">recipe L4_spec_nc 1..1</text>
</g>
<!-- recipe&#45;&gt;l4_spec_nc_rec -->
<g id="edge35" class="edge">
<title>recipe&#45;&gt;l4_spec_nc_rec</title>
<path fill="none" stroke="black" d="M278.36,-1543.78C278.36,-1513.08 278.36,-1476 278.36,-1476 278.36,-1476 468.62,-1476 468.62,-1476"/>
<polygon fill="black" stroke="black" points="468.62,-1479.5 478.62,-1476 468.62,-1472.5 468.62,-1479.5"/>
</g>
</g>
</svg>
