<?xml version="1.0" encoding="UTF-8" standalone="no"?>
<!DOCTYPE svg PUBLIC "-//W3C//DTD SVG 1.1//EN"
 "http://www.w3.org/Graphics/SVG/1.1/DTD/svg11.dtd">
<!-- Generated by graphviz version 2.43.0 (0)
 -->
<!-- Title: Clerks Pages: 1 -->
<svg width="740pt" height="1610pt"
 viewBox="0.00 0.00 740.36 1610.00" xmlns="http://www.w3.org/2000/svg" xmlns:xlink="http://www.w3.org/1999/xlink">
<g id="graph0" class="graph" transform="scale(1 1) rotate(0) translate(4 1606)">
<title>Clerks</title>
<polygon fill="white" stroke="transparent" points="-4,4 -4,-1606 736.36,-1606 736.36,4 -4,4"/>
<!-- alarm_cal -->
<g id="node1" class="node">
<title>alarm_cal</title>
<text text-anchor="middle" x="91" y="-527.3" font-family="Times,serif" font-size="14.00">User requested update</text>
</g>
<!-- calib -->
<g id="node4" class="node">
<title>calib</title>
<ellipse fill="none" stroke="black" cx="292.09" cy="-531" rx="62.29" ry="62.29"/>
<text text-anchor="middle" x="292.09" y="-527.3" font-family="Times,serif" font-size="14.00">Calibration</text>
</g>
<!-- alarm_cal&#45;&gt;calib -->
<g id="edge1" class="edge">
<title>alarm_cal&#45;&gt;calib</title>
<path fill="none" stroke="black" stroke-dasharray="5,2" d="M182.13,-531C182.13,-531 219.47,-531 219.47,-531"/>
<polygon fill="black" stroke="black" points="219.47,-534.5 229.47,-531 219.47,-527.5 219.47,-534.5"/>
</g>
<!-- alarm_cnf -->
<g id="node2" class="node">
<title>alarm_cnf</title>
<text text-anchor="middle" x="91" y="-1202.3" font-family="Times,serif" font-size="14.00">User requested update</text>
</g>
<!-- config -->
<g id="node5" class="node">
<title>config</title>
<ellipse fill="none" stroke="black" cx="292.09" cy="-1206" rx="74.19" ry="74.19"/>
<text text-anchor="middle" x="292.09" y="-1202.3" font-family="Times,serif" font-size="14.00">Configuration</text>
</g>
<!-- alarm_cnf&#45;&gt;config -->
<g id="edge2" class="edge">
<title>alarm_cnf&#45;&gt;config</title>
<path fill="none" stroke="black" stroke-dasharray="5,2" d="M182.13,-1206C182.13,-1206 207.84,-1206 207.84,-1206"/>
<polygon fill="black" stroke="black" points="207.84,-1209.5 217.84,-1206 207.84,-1202.5 207.84,-1209.5"/>
</g>
<!-- alarm_rec -->
<g id="node3" class="node">
<title>alarm_rec</title>
<text text-anchor="middle" x="91" y="-1472.3" font-family="Times,serif" font-size="14.00">User requested update</text>
</g>
<!-- recipe -->
<g id="node6" class="node">
<title>recipe</title>
<ellipse fill="none" stroke="black" cx="292.09" cy="-1476" rx="42.49" ry="42.49"/>
<text text-anchor="middle" x="292.09" y="-1472.3" font-family="Times,serif" font-size="14.00">Recipe</text>
</g>
<!-- alarm_rec&#45;&gt;recipe -->
<g id="edge3" class="edge">
<title>alarm_rec&#45;&gt;recipe</title>
<path fill="none" stroke="black" stroke-dasharray="5,2" d="M182.13,-1476C182.13,-1476 239.74,-1476 239.74,-1476"/>
<polygon fill="black" stroke="black" points="239.74,-1479.5 249.74,-1476 239.74,-1472.5 239.74,-1479.5"/>
</g>
<!-- l1_spec_pc_nllut -->
<g id="node9" class="node">
<title>l1_spec_pc_nllut</title>
<polygon fill="none" stroke="black" points="655.77,-1056 466.77,-1056 466.77,-1032 655.77,-1032 667.77,-1044 655.77,-1056"/>
<text text-anchor="middle" x="567.27" y="-1040.3" font-family="Times,serif" font-size="14.00">non linear calibration 1..1</text>
</g>
<!-- calib&#45;&gt;l1_spec_pc_nllut -->
<g id="edge4" class="edge">
<title>calib&#45;&gt;l1_spec_pc_nllut</title>
<path fill="none" stroke="black" d="M242.36,-568.72C242.36,-687.19 242.36,-1044 242.36,-1044 242.36,-1044 456.69,-1044 456.69,-1044"/>
<polygon fill="black" stroke="black" points="456.69,-1047.5 466.69,-1044 456.69,-1040.5 456.69,-1047.5"/>
</g>
<!-- l2a_spec_pc_mbpm -->
<g id="node12" class="node">
<title>l2a_spec_pc_mbpm</title>
<polygon fill="none" stroke="black" points="659.77,-1002 462.77,-1002 462.77,-978 659.77,-978 671.77,-990 659.77,-1002"/>
<text text-anchor="middle" x="567.27" y="-986.3" font-family="Times,serif" font-size="14.00">spec_pc bad pixel map 1..1</text>
</g>
<!-- calib&#45;&gt;l2a_spec_pc_mbpm -->
<g id="edge5" class="edge">
<title>calib&#45;&gt;l2a_spec_pc_mbpm</title>
<path fill="none" stroke="black" d="M255.36,-581.43C255.36,-700.67 255.36,-990 255.36,-990 255.36,-990 452.54,-990 452.54,-990"/>
<polygon fill="black" stroke="black" points="452.54,-993.5 462.54,-990 452.54,-986.5 452.54,-993.5"/>
</g>
<!-- l2a_spec_pc_dnb -->
<g id="node13" class="node">
<title>l2a_spec_pc_dnb</title>
<polygon fill="none" stroke="black" points="711.27,-948 411.27,-948 411.27,-924 711.27,-924 723.27,-936 711.27,-948"/>
<text text-anchor="middle" x="567.27" y="-932.3" font-family="Times,serif" font-size="14.00">spec_pc dark (CIC/FPN/dark current) 1..1</text>
</g>
<!-- calib&#45;&gt;l2a_spec_pc_dnb -->
<g id="edge6" class="edge">
<title>calib&#45;&gt;l2a_spec_pc_dnb</title>
<path fill="none" stroke="black" d="M267.36,-588.6C267.36,-700.41 267.36,-936 267.36,-936 267.36,-936 401.17,-936 401.17,-936"/>
<polygon fill="black" stroke="black" points="401.17,-939.5 411.17,-936 401.17,-932.5 401.17,-939.5"/>
</g>
<!-- l2a_spec_pc_cti -->
<g id="node14" class="node">
<title>l2a_spec_pc_cti</title>
<polygon fill="none" stroke="black" points="700.77,-894 421.77,-894 421.77,-870 700.77,-870 712.77,-882 700.77,-894"/>
<text text-anchor="middle" x="567.27" y="-878.3" font-family="Times,serif" font-size="14.00">spec_pc charge transfer efficiency 1..1</text>
</g>
<!-- calib&#45;&gt;l2a_spec_pc_cti -->
<g id="edge7" class="edge">
<title>calib&#45;&gt;l2a_spec_pc_cti</title>
<path fill="none" stroke="black" d="M280.36,-592.54C280.36,-693.21 280.36,-882 280.36,-882 280.36,-882 411.71,-882 411.71,-882"/>
<polygon fill="black" stroke="black" points="411.71,-885.5 421.71,-882 411.71,-878.5 411.71,-885.5"/>
</g>
<!-- l2a_spec_pc_ff -->
<g id="node15" class="node">
<title>l2a_spec_pc_ff</title>
<polygon fill="none" stroke="black" points="638.77,-840 483.77,-840 483.77,-816 638.77,-816 650.77,-828 638.77,-840"/>
<text text-anchor="middle" x="567.27" y="-824.3" font-family="Times,serif" font-size="14.00">spec_pc flat field 1..1</text>
</g>
<!-- calib&#45;&gt;l2a_spec_pc_ff -->
<g id="edge8" class="edge">
<title>calib&#45;&gt;l2a_spec_pc_ff</title>
<path fill="none" stroke="black" d="M292.36,-593.62C292.36,-680.76 292.36,-828 292.36,-828 292.36,-828 473.67,-828 473.67,-828"/>
<polygon fill="black" stroke="black" points="473.67,-831.5 483.67,-828 473.67,-824.5 473.67,-831.5"/>
</g>
<!-- l2a_spec_pc_kgain -->
<g id="node16" class="node">
<title>l2a_spec_pc_kgain</title>
<polygon fill="none" stroke="black" points="631.27,-786 491.27,-786 491.27,-762 631.27,-762 643.27,-774 631.27,-786"/>
<text text-anchor="middle" x="567.27" y="-770.3" font-family="Times,serif" font-size="14.00">spec_pc k&#45;gain 1..1</text>
</g>
<!-- calib&#45;&gt;l2a_spec_pc_kgain -->
<g id="edge9" class="edge">
<title>calib&#45;&gt;l2a_spec_pc_kgain</title>
<path fill="none" stroke="black" d="M305.36,-592.01C305.36,-663.99 305.36,-774 305.36,-774 305.36,-774 481.16,-774 481.16,-774"/>
<polygon fill="black" stroke="black" points="481.16,-777.5 491.16,-774 481.16,-770.5 481.16,-777.5"/>
</g>
<!-- l2a_spec_pc_emg -->
<g id="node17" class="node">
<title>l2a_spec_pc_emg</title>
<polygon fill="none" stroke="black" points="639.27,-732 483.27,-732 483.27,-708 639.27,-708 651.27,-720 639.27,-732"/>
<text text-anchor="middle" x="567.27" y="-716.3" font-family="Times,serif" font-size="14.00">spec_pc EM gain 1..1</text>
</g>
<!-- calib&#45;&gt;l2a_spec_pc_emg -->
<g id="edge10" class="edge">
<title>calib&#45;&gt;l2a_spec_pc_emg</title>
<path fill="none" stroke="black" d="M317.36,-588.22C317.36,-643.85 317.36,-720 317.36,-720 317.36,-720 473.01,-720 473.01,-720"/>
<polygon fill="black" stroke="black" points="473.01,-723.5 483.01,-720 473.01,-716.5 473.01,-723.5"/>
</g>
<!-- l2b_spec_pc_distm -->
<g id="node20" class="node">
<title>l2b_spec_pc_distm</title>
<polygon fill="none" stroke="black" points="661.77,-678 460.77,-678 460.77,-654 661.77,-654 673.77,-666 661.77,-678"/>
<text text-anchor="middle" x="567.27" y="-662.3" font-family="Times,serif" font-size="14.00">spec_pc distortion map 1..1</text>
</g>
<!-- calib&#45;&gt;l2b_spec_pc_distm -->
<g id="edge11" class="edge">
<title>calib&#45;&gt;l2b_spec_pc_distm</title>
<path fill="none" stroke="black" d="M330.36,-580.5C330.36,-619.03 330.36,-666 330.36,-666 330.36,-666 450.6,-666 450.6,-666"/>
<polygon fill="black" stroke="black" points="450.6,-669.5 460.6,-666 450.6,-662.5 450.6,-669.5"/>
</g>
<!-- l2b_spec_pc_excicrf -->
<g id="node21" class="node">
<title>l2b_spec_pc_excicrf</title>
<polygon fill="none" stroke="black" points="687.27,-624 435.27,-624 435.27,-600 687.27,-600 699.27,-612 687.27,-624"/>
<text text-anchor="middle" x="567.27" y="-608.3" font-family="Times,serif" font-size="14.00">spec_pc EXCAM ICRF location 1..1</text>
</g>
<!-- calib&#45;&gt;l2b_spec_pc_excicrf -->
<g id="edge12" class="edge">
<title>calib&#45;&gt;l2b_spec_pc_excicrf</title>
<path fill="none" stroke="black" d="M342.36,-568.18C342.36,-589.47 342.36,-612 342.36,-612 342.36,-612 425.14,-612 425.14,-612"/>
<polygon fill="black" stroke="black" points="425.14,-615.5 435.14,-612 425.14,-608.5 425.14,-615.5"/>
</g>
<!-- l2b_spec_pc_excfovps -->
<g id="node22" class="node">
<title>l2b_spec_pc_excfovps</title>
<polygon fill="none" stroke="black" points="689.27,-570 433.27,-570 433.27,-546 689.27,-546 701.27,-558 689.27,-570"/>
<text text-anchor="middle" x="567.27" y="-554.3" font-family="Times,serif" font-size="14.00">spec_pc ECAM FOV pixel scale 1..1</text>
</g>
<!-- calib&#45;&gt;l2b_spec_pc_excfovps -->
<g id="edge13" class="edge">
<title>calib&#45;&gt;l2b_spec_pc_excfovps</title>
<path fill="none" stroke="black" d="M348.44,-558C348.44,-558 423.16,-558 423.16,-558"/>
<polygon fill="black" stroke="black" points="423.16,-561.5 433.16,-558 423.16,-554.5 423.16,-561.5"/>
</g>
<!-- l2b_spec_pc_cfamfo -->
<g id="node23" class="node">
<title>l2b_spec_pc_cfamfo</title>
<polygon fill="none" stroke="black" points="668.27,-516 454.27,-516 454.27,-492 668.27,-492 680.27,-504 668.27,-516"/>
<text text-anchor="middle" x="567.27" y="-500.3" font-family="Times,serif" font-size="14.00">spec_a CFAM filter offset 1..1</text>
</g>
<!-- calib&#45;&gt;l2b_spec_pc_cfamfo -->
<g id="edge14" class="edge">
<title>calib&#45;&gt;l2b_spec_pc_cfamfo</title>
<path fill="none" stroke="black" d="M348.44,-504C348.44,-504 444.19,-504 444.19,-504"/>
<polygon fill="black" stroke="black" points="444.19,-507.5 454.19,-504 444.19,-500.5 444.19,-507.5"/>
</g>
<!-- l3_spec_pc_dispm -->
<g id="node26" class="node">
<title>l3_spec_pc_dispm</title>
<polygon fill="none" stroke="black" points="666.27,-462 456.27,-462 456.27,-438 666.27,-438 678.27,-450 666.27,-462"/>
<text text-anchor="middle" x="567.27" y="-446.3" font-family="Times,serif" font-size="14.00">spec_a dispersion model 1..1</text>
</g>
<!-- calib&#45;&gt;l3_spec_pc_dispm -->
<g id="edge15" class="edge">
<title>calib&#45;&gt;l3_spec_pc_dispm</title>
<path fill="none" stroke="black" d="M341.36,-492.4C341.36,-471.54 341.36,-450 341.36,-450 341.36,-450 445.97,-450 445.97,-450"/>
<polygon fill="black" stroke="black" points="445.97,-453.5 455.97,-450 445.97,-446.5 445.97,-453.5"/>
</g>
<!-- l3_spec_pc_wavem -->
<g id="node27" class="node">
<title>l3_spec_pc_wavem</title>
<polygon fill="none" stroke="black" points="666.27,-408 456.27,-408 456.27,-384 666.27,-384 678.27,-396 666.27,-408"/>
<text text-anchor="middle" x="567.27" y="-392.3" font-family="Times,serif" font-size="14.00">spec_a dispersion model 1..1</text>
</g>
<!-- calib&#45;&gt;l3_spec_pc_wavem -->
<g id="edge16" class="edge">
<title>calib&#45;&gt;l3_spec_pc_wavem</title>
<path fill="none" stroke="black" d="M327.36,-479.19C327.36,-441.12 327.36,-396 327.36,-396 327.36,-396 446.09,-396 446.09,-396"/>
<polygon fill="black" stroke="black" points="446.09,-399.5 456.09,-396 446.09,-392.5 446.09,-399.5"/>
</g>
<!-- l4_spec_pc_afcal -->
<g id="node30" class="node">
<title>l4_spec_pc_afcal</title>
<polygon fill="none" stroke="black" points="655.27,-354 467.27,-354 467.27,-330 655.27,-330 667.27,-342 655.27,-354"/>
<text text-anchor="middle" x="567.27" y="-338.3" font-family="Times,serif" font-size="14.00">spec_pc absolute flux 1..1</text>
</g>
<!-- calib&#45;&gt;l4_spec_pc_afcal -->
<g id="edge17" class="edge">
<title>calib&#45;&gt;l4_spec_pc_afcal</title>
<path fill="none" stroke="black" d="M313.36,-472.24C313.36,-416.75 313.36,-342 313.36,-342 313.36,-342 456.92,-342 456.92,-342"/>
<polygon fill="black" stroke="black" points="456.92,-345.5 466.92,-342 456.92,-338.5 456.92,-345.5"/>
</g>
<!-- l4_spec_pc_ctcal -->
<g id="node31" class="node">
<title>l4_spec_pc_ctcal</title>
<polygon fill="none" stroke="black" points="667.27,-300 455.27,-300 455.27,-276 667.27,-276 679.27,-288 667.27,-300"/>
<text text-anchor="middle" x="567.27" y="-284.3" font-family="Times,serif" font-size="14.00">spec_pc core throughput 1..1</text>
</g>
<!-- calib&#45;&gt;l4_spec_pc_ctcal -->
<g id="edge18" class="edge">
<title>calib&#45;&gt;l4_spec_pc_ctcal</title>
<path fill="none" stroke="black" d="M299.36,-468.74C299.36,-396.74 299.36,-288 299.36,-288 299.36,-288 445.2,-288 445.2,-288"/>
<polygon fill="black" stroke="black" points="445.2,-291.5 455.2,-288 445.2,-284.5 445.2,-291.5"/>
</g>
<!-- l4_spec_pc_ndfilt -->
<g id="node32" class="node">
<title>l4_spec_pc_ndfilt</title>
<polygon fill="none" stroke="black" points="640.27,-246 482.27,-246 482.27,-222 640.27,-222 652.27,-234 640.27,-246"/>
<text text-anchor="middle" x="567.27" y="-230.3" font-family="Times,serif" font-size="14.00">spec_pc ND filter 1..1</text>
</g>
<!-- calib&#45;&gt;l4_spec_pc_ndfilt -->
<g id="edge19" class="edge">
<title>calib&#45;&gt;l4_spec_pc_ndfilt</title>
<path fill="none" stroke="black" d="M285.36,-468.74C285.36,-381.65 285.36,-234 285.36,-234 285.36,-234 471.92,-234 471.92,-234"/>
<polygon fill="black" stroke="black" points="471.92,-237.5 481.92,-234 471.92,-230.5 471.92,-237.5"/>
</g>
<!-- l4_spec_pc_stmap -->
<g id="node33" class="node">
<title>l4_spec_pc_stmap</title>
<polygon fill="none" stroke="black" points="686.77,-192 435.77,-192 435.77,-168 686.77,-168 698.77,-180 686.77,-192"/>
<text text-anchor="middle" x="567.27" y="-176.3" font-family="Times,serif" font-size="14.00">spec_pc slit transmission map 1..1</text>
</g>
<!-- calib&#45;&gt;l4_spec_pc_stmap -->
<g id="edge20" class="edge">
<title>calib&#45;&gt;l4_spec_pc_stmap</title>
<path fill="none" stroke="black" d="M324.22,-477.3C369.16,-477.3 445.36,-477.3 445.36,-477.3 445.36,-477.3 445.36,-208.15 445.36,-208.15"/>
<polygon fill="black" stroke="black" points="448.86,-208.15 445.36,-198.15 441.86,-208.15 448.86,-208.15"/>
</g>
<!-- l4_spec_pc_tspi -->
<g id="node34" class="node">
<title>l4_spec_pc_tspi</title>
<polygon fill="none" stroke="black" points="694.77,-138 427.77,-138 427.77,-114 694.77,-114 706.77,-126 694.77,-138"/>
<text text-anchor="middle" x="567.27" y="-122.3" font-family="Times,serif" font-size="14.00">spec_pc target star prism image 1..1</text>
</g>
<!-- calib&#45;&gt;l4_spec_pc_tspi -->
<g id="edge21" class="edge">
<title>calib&#45;&gt;l4_spec_pc_tspi</title>
<path fill="none" stroke="black" d="M271.36,-472.11C271.36,-359.78 271.36,-126 271.36,-126 271.36,-126 417.55,-126 417.55,-126"/>
<polygon fill="black" stroke="black" points="417.55,-129.5 427.55,-126 417.55,-122.5 417.55,-129.5"/>
</g>
<!-- l4_spec_pc_rspi -->
<g id="node35" class="node">
<title>l4_spec_pc_rspi</title>
<polygon fill="none" stroke="black" points="706.77,-84 415.77,-84 415.77,-60 706.77,-60 718.77,-72 706.77,-84"/>
<text text-anchor="middle" x="567.27" y="-68.3" font-family="Times,serif" font-size="14.00">spec_pc reference star prism image 1..1</text>
</g>
<!-- calib&#45;&gt;l4_spec_pc_rspi -->
<g id="edge22" class="edge">
<title>calib&#45;&gt;l4_spec_pc_rspi</title>
<path fill="none" stroke="black" d="M258.36,-478.35C258.36,-357.78 258.36,-72 258.36,-72 258.36,-72 405.53,-72 405.53,-72"/>
<polygon fill="black" stroke="black" points="405.53,-75.5 415.53,-72 405.53,-68.5 405.53,-75.5"/>
</g>
<!-- l4_spec_pc_lsf -->
<g id="node36" class="node">
<title>l4_spec_pc_lsf</title>
<polygon fill="none" stroke="black" points="698.27,-30 424.27,-30 424.27,-6 698.27,-6 710.27,-18 698.27,-30"/>
<text text-anchor="middle" x="567.27" y="-14.3" font-family="Times,serif" font-size="14.00">spec_pc ND filter line spread function</text>
</g>
<!-- calib&#45;&gt;l4_spec_pc_lsf -->
<g id="edge23" class="edge">
<title>calib&#45;&gt;l4_spec_pc_lsf</title>
<path fill="none" stroke="black" d="M244.36,-490.75C244.36,-369.81 244.36,-18 244.36,-18 244.36,-18 414.23,-18 414.23,-18"/>
<polygon fill="black" stroke="black" points="414.23,-21.5 424.23,-18 414.23,-14.5 414.23,-21.5"/>
</g>
<!-- l1_spec_pc_odir -->
<g id="node7" class="node">
<title>l1_spec_pc_odir</title>
<ellipse fill="none" stroke="black" cx="567.27" cy="-1314" rx="159.47" ry="18"/>
<text text-anchor="middle" x="567.27" y="-1310.3" font-family="Times,serif" font-size="14.00">Output path for L1_spec_pc 1..1</text>
</g>
<!-- config&#45;&gt;l1_spec_pc_odir -->
<g id="edge24" class="edge">
<title>config&#45;&gt;l1_spec_pc_odir</title>
<path fill="none" stroke="black" d="M350.36,-1251.8C350.36,-1281.24 350.36,-1314 350.36,-1314 350.36,-1314 397.92,-1314 397.92,-1314"/>
<polygon fill="black" stroke="black" points="397.92,-1317.5 407.92,-1314 397.92,-1310.5 397.92,-1317.5"/>
</g>
<!-- l2a_spec_pc_odir -->
<g id="node10" class="node">
<title>l2a_spec_pc_odir</title>
<ellipse fill="none" stroke="black" cx="567.27" cy="-1260" rx="164.37" ry="18"/>
<text text-anchor="middle" x="567.27" y="-1256.3" font-family="Times,serif" font-size="14.00">Output path for L2a_spec_pc 1..1</text>
</g>
<!-- config&#45;&gt;l2a_spec_pc_odir -->
<g id="edge25" class="edge">
<title>config&#45;&gt;l2a_spec_pc_odir</title>
<path fill="none" stroke="black" d="M342.89,-1260C342.89,-1260 392.82,-1260 392.82,-1260"/>
<polygon fill="black" stroke="black" points="392.82,-1263.5 402.82,-1260 392.82,-1256.5 392.82,-1263.5"/>
</g>
<!-- l2b_spec_pc_odir -->
<g id="node18" class="node">
<title>l2b_spec_pc_odir</title>
<ellipse fill="none" stroke="black" cx="567.27" cy="-1206" rx="165.17" ry="18"/>
<text text-anchor="middle" x="567.27" y="-1202.3" font-family="Times,serif" font-size="14.00">Output path for L2b_spec_pc 1..1</text>
</g>
<!-- config&#45;&gt;l2b_spec_pc_odir -->
<g id="edge26" class="edge">
<title>config&#45;&gt;l2b_spec_pc_odir</title>
<path fill="none" stroke="black" d="M366.2,-1206C366.2,-1206 392.14,-1206 392.14,-1206"/>
<polygon fill="black" stroke="black" points="392.14,-1209.5 402.14,-1206 392.14,-1202.5 392.14,-1209.5"/>
</g>
<!-- l3_spec_pc_odir -->
<g id="node24" class="node">
<title>l3_spec_pc_odir</title>
<ellipse fill="none" stroke="black" cx="567.27" cy="-1152" rx="159.47" ry="18"/>
<text text-anchor="middle" x="567.27" y="-1148.3" font-family="Times,serif" font-size="14.00">Output path for L3_spec_pc 1..1</text>
</g>
<!-- config&#45;&gt;l3_spec_pc_odir -->
<g id="edge27" class="edge">
<title>config&#45;&gt;l3_spec_pc_odir</title>
<path fill="none" stroke="black" d="M342.89,-1152C342.89,-1152 398.01,-1152 398.01,-1152"/>
<polygon fill="black" stroke="black" points="398.01,-1155.5 408.01,-1152 398.01,-1148.5 398.01,-1155.5"/>
</g>
<!-- l4_spec_pc_odir -->
<g id="node28" class="node">
<title>l4_spec_pc_odir</title>
<ellipse fill="none" stroke="black" cx="567.27" cy="-1098" rx="159.47" ry="18"/>
<text text-anchor="middle" x="567.27" y="-1094.3" font-family="Times,serif" font-size="14.00">Output path for L4_spec_pc 1..1</text>
</g>
<!-- config&#45;&gt;l4_spec_pc_odir -->
<g id="edge28" class="edge">
<title>config&#45;&gt;l4_spec_pc_odir</title>
<path fill="none" stroke="black" d="M360.36,-1177.06C360.36,-1145.07 360.36,-1098 360.36,-1098 360.36,-1098 397.83,-1098 397.83,-1098"/>
<polygon fill="black" stroke="black" points="397.83,-1101.5 407.83,-1098 397.83,-1094.5 397.83,-1101.5"/>
</g>
<!-- l1_spec_pc_rec -->
<g id="node8" class="node">
<title>l1_spec_pc_rec</title>
<polygon fill="none" stroke="black" points="643.77,-1596 478.77,-1596 478.77,-1572 643.77,-1572 655.77,-1584 643.77,-1596"/>
<text text-anchor="middle" x="567.27" y="-1580.3" font-family="Times,serif" font-size="14.00">recipe L1_spec_pc 1..1</text>
</g>
<!-- recipe&#45;&gt;l1_spec_pc_rec -->
<g id="edge29" class="edge">
<title>recipe&#45;&gt;l1_spec_pc_rec</title>
<path fill="none" stroke="black" d="M278.36,-1516.22C278.36,-1546.92 278.36,-1584 278.36,-1584 278.36,-1584 468.62,-1584 468.62,-1584"/>
<polygon fill="black" stroke="black" points="468.62,-1587.5 478.62,-1584 468.62,-1580.5 468.62,-1587.5"/>
</g>
<!-- l2a_spec_pc_rec -->
<g id="node11" class="node">
<title>l2a_spec_pc_rec</title>
<polygon fill="none" stroke="black" points="647.77,-1542 474.77,-1542 474.77,-1518 647.77,-1518 659.77,-1530 647.77,-1542"/>
<text text-anchor="middle" x="567.27" y="-1526.3" font-family="Times,serif" font-size="14.00">recipe L2a_spec_pc 1..1</text>
</g>
<!-- recipe&#45;&gt;l2a_spec_pc_rec -->
<g id="edge30" class="edge">
<title>recipe&#45;&gt;l2a_spec_pc_rec</title>
<path fill="none" stroke="black" d="M306.36,-1515.98C306.36,-1525.58 306.36,-1533.12 306.36,-1533.12 306.36,-1533.12 464.55,-1533.12 464.55,-1533.12"/>
<polygon fill="black" stroke="black" points="464.55,-1536.62 474.55,-1533.12 464.55,-1529.62 464.55,-1536.62"/>
</g>
<!-- l2b_spec_pc_rec -->
<g id="node19" class="node">
<title>l2b_spec_pc_rec</title>
<polygon fill="none" stroke="black" points="648.27,-1488 474.27,-1488 474.27,-1464 648.27,-1464 660.27,-1476 648.27,-1488"/>
<text text-anchor="middle" x="567.27" y="-1472.3" font-family="Times,serif" font-size="14.00">recipe L2b_spec_pc 1..1</text>
</g>
<!-- recipe&#45;&gt;l2b_spec_pc_rec -->
<g id="edge31" class="edge">
<title>recipe&#45;&gt;l2b_spec_pc_rec</title>
<path fill="none" stroke="black" d="M334.49,-1476C334.49,-1476 464.09,-1476 464.09,-1476"/>
<polygon fill="black" stroke="black" points="464.09,-1479.5 474.09,-1476 464.09,-1472.5 464.09,-1479.5"/>
</g>
<!-- l3_spec_pc_rec -->
<g id="node25" class="node">
<title>l3_spec_pc_rec</title>
<polygon fill="none" stroke="black" points="643.77,-1434 478.77,-1434 478.77,-1410 643.77,-1410 655.77,-1422 643.77,-1434"/>
<text text-anchor="middle" x="567.27" y="-1418.3" font-family="Times,serif" font-size="14.00">recipe L3_spec_pc 1..1</text>
</g>
<!-- recipe&#45;&gt;l3_spec_pc_rec -->
<g id="edge32" class="edge">
<title>recipe&#45;&gt;l3_spec_pc_rec</title>
<path fill="none" stroke="black" d="M306.36,-1436.02C306.36,-1426.42 306.36,-1418.88 306.36,-1418.88 306.36,-1418.88 468.57,-1418.88 468.57,-1418.88"/>
<polygon fill="black" stroke="black" points="468.57,-1422.38 478.57,-1418.88 468.57,-1415.38 468.57,-1422.38"/>
</g>
<!-- l4_spec_pc_rec -->
<g id="node29" class="node">
<title>l4_spec_pc_rec</title>
<polygon fill="none" stroke="black" points="643.77,-1380 478.77,-1380 478.77,-1356 643.77,-1356 655.77,-1368 643.77,-1380"/>
<text text-anchor="middle" x="567.27" y="-1364.3" font-family="Times,serif" font-size="14.00">recipe L4_spec_pc 1..1</text>
</g>
<!-- recipe&#45;&gt;l4_spec_pc_rec -->
<g id="edge33" class="edge">
<title>recipe&#45;&gt;l4_spec_pc_rec</title>
<path fill="none" stroke="black" d="M278.36,-1435.78C278.36,-1405.08 278.36,-1368 278.36,-1368 278.36,-1368 468.62,-1368 468.62,-1368"/>
<polygon fill="black" stroke="black" points="468.62,-1371.5 478.62,-1368 468.62,-1364.5 468.62,-1371.5"/>
</g>
</g>
</svg>
