<?xml version="1.0" encoding="UTF-8" standalone="no"?>
<!DOCTYPE svg PUBLIC "-//W3C//DTD SVG 1.1//EN"
 "http://www.w3.org/Graphics/SVG/1.1/DTD/svg11.dtd">
<!-- Generated by graphviz version 2.43.0 (0)
 -->
<!-- Title: SpecAClerks Pages: 1 -->
<svg width="729pt" height="1610pt"
 viewBox="0.00 0.00 728.66 1610.00" xmlns="http://www.w3.org/2000/svg" xmlns:xlink="http://www.w3.org/1999/xlink">
<g id="graph0" class="graph" transform="scale(1 1) rotate(0) translate(4 1606)">
<title>SpecAClerks</title>
<polygon fill="white" stroke="transparent" points="-4,4 -4,-1606 724.66,-1606 724.66,4 -4,4"/>
<!-- alarm_cal -->
<g id="node1" class="node">
<title>alarm_cal</title>
<text text-anchor="middle" x="91" y="-527.3" font-family="Times,serif" font-size="14.00">User requested update</text>
</g>
<!-- calib -->
<g id="node4" class="node">
<title>calib</title>
<ellipse fill="none" stroke="black" cx="292.09" cy="-531" rx="62.29" ry="62.29"/>
<text text-anchor="middle" x="292.09" y="-527.3" font-family="Times,serif" font-size="14.00">Calibration</text>
</g>
<!-- alarm_cal&#45;&gt;calib -->
<g id="edge1" class="edge">
<title>alarm_cal&#45;&gt;calib</title>
<path fill="none" stroke="black" stroke-dasharray="5,2" d="M182.13,-531C182.13,-531 219.47,-531 219.47,-531"/>
<polygon fill="black" stroke="black" points="219.47,-534.5 229.47,-531 219.47,-527.5 219.47,-534.5"/>
</g>
<!-- alarm_cnf -->
<g id="node2" class="node">
<title>alarm_cnf</title>
<text text-anchor="middle" x="91" y="-1202.3" font-family="Times,serif" font-size="14.00">User requested update</text>
</g>
<!-- config -->
<g id="node5" class="node">
<title>config</title>
<ellipse fill="none" stroke="black" cx="292.09" cy="-1206" rx="74.19" ry="74.19"/>
<text text-anchor="middle" x="292.09" y="-1202.3" font-family="Times,serif" font-size="14.00">Configuration</text>
</g>
<!-- alarm_cnf&#45;&gt;config -->
<g id="edge2" class="edge">
<title>alarm_cnf&#45;&gt;config</title>
<path fill="none" stroke="black" stroke-dasharray="5,2" d="M182.13,-1206C182.13,-1206 207.84,-1206 207.84,-1206"/>
<polygon fill="black" stroke="black" points="207.84,-1209.5 217.84,-1206 207.84,-1202.5 207.84,-1209.5"/>
</g>
<!-- alarm_rec -->
<g id="node3" class="node">
<title>alarm_rec</title>
<text text-anchor="middle" x="91" y="-1472.3" font-family="Times,serif" font-size="14.00">User requested update</text>
</g>
<!-- recipe -->
<g id="node6" class="node">
<title>recipe</title>
<ellipse fill="none" stroke="black" cx="292.09" cy="-1476" rx="42.49" ry="42.49"/>
<text text-anchor="middle" x="292.09" y="-1472.3" font-family="Times,serif" font-size="14.00">Recipe</text>
</g>
<!-- alarm_rec&#45;&gt;recipe -->
<g id="edge3" class="edge">
<title>alarm_rec&#45;&gt;recipe</title>
<path fill="none" stroke="black" stroke-dasharray="5,2" d="M182.13,-1476C182.13,-1476 239.74,-1476 239.74,-1476"/>
<polygon fill="black" stroke="black" points="239.74,-1479.5 249.74,-1476 239.74,-1472.5 239.74,-1479.5"/>
</g>
<!-- l1_spec_a_nllut -->
<g id="node9" class="node">
<title>l1_spec_a_nllut</title>
<polygon fill="none" stroke="black" points="649.92,-1056 460.92,-1056 460.92,-1032 649.92,-1032 661.92,-1044 649.92,-1056"/>
<text text-anchor="middle" x="561.42" y="-1040.3" font-family="Times,serif" font-size="14.00">non linear calibration 1..1</text>
</g>
<!-- calib&#45;&gt;l1_spec_a_nllut -->
<g id="edge4" class="edge">
<title>calib&#45;&gt;l1_spec_a_nllut</title>
<path fill="none" stroke="black" d="M242.66,-569.14C242.66,-688.03 242.66,-1044 242.66,-1044 242.66,-1044 450.56,-1044 450.56,-1044"/>
<polygon fill="black" stroke="black" points="450.56,-1047.5 460.56,-1044 450.56,-1040.5 450.56,-1047.5"/>
</g>
<!-- l2a_spec_a_mbpm -->
<g id="node12" class="node">
<title>l2a_spec_a_mbpm</title>
<polygon fill="none" stroke="black" points="649.42,-1002 461.42,-1002 461.42,-978 649.42,-978 661.42,-990 649.42,-1002"/>
<text text-anchor="middle" x="561.42" y="-986.3" font-family="Times,serif" font-size="14.00">spec_a bad pixel map 1..1</text>
</g>
<!-- calib&#45;&gt;l2a_spec_a_mbpm -->
<g id="edge5" class="edge">
<title>calib&#45;&gt;l2a_spec_a_mbpm</title>
<path fill="none" stroke="black" d="M254.66,-580.99C254.66,-699.96 254.66,-990 254.66,-990 254.66,-990 451.4,-990 451.4,-990"/>
<polygon fill="black" stroke="black" points="451.4,-993.5 461.4,-990 451.4,-986.5 451.4,-993.5"/>
</g>
<!-- l2a_spec_a_dnb -->
<g id="node13" class="node">
<title>l2a_spec_a_dnb</title>
<polygon fill="none" stroke="black" points="701.42,-948 409.42,-948 409.42,-924 701.42,-924 713.42,-936 701.42,-948"/>
<text text-anchor="middle" x="561.42" y="-932.3" font-family="Times,serif" font-size="14.00">spec_a dark (CIC/FPN/dark current) 1..1</text>
</g>
<!-- calib&#45;&gt;l2a_spec_a_dnb -->
<g id="edge6" class="edge">
<title>calib&#45;&gt;l2a_spec_a_dnb</title>
<path fill="none" stroke="black" d="M267.66,-588.6C267.66,-700.41 267.66,-936 267.66,-936 267.66,-936 399.38,-936 399.38,-936"/>
<polygon fill="black" stroke="black" points="399.38,-939.5 409.38,-936 399.38,-932.5 399.38,-939.5"/>
</g>
<!-- l2a_spec_a_cti -->
<g id="node14" class="node">
<title>l2a_spec_a_cti</title>
<polygon fill="none" stroke="black" points="690.92,-894 419.92,-894 419.92,-870 690.92,-870 702.92,-882 690.92,-894"/>
<text text-anchor="middle" x="561.42" y="-878.3" font-family="Times,serif" font-size="14.00">spec_a charge transfer efficiency 1..1</text>
</g>
<!-- calib&#45;&gt;l2a_spec_a_cti -->
<g id="edge7" class="edge">
<title>calib&#45;&gt;l2a_spec_a_cti</title>
<path fill="none" stroke="black" d="M279.66,-592.54C279.66,-693.21 279.66,-882 279.66,-882 279.66,-882 409.72,-882 409.72,-882"/>
<polygon fill="black" stroke="black" points="409.72,-885.5 419.72,-882 409.72,-878.5 409.72,-885.5"/>
</g>
<!-- l2a_spec_a_ff -->
<g id="node15" class="node">
<title>l2a_spec_a_ff</title>
<polygon fill="none" stroke="black" points="628.42,-840 482.42,-840 482.42,-816 628.42,-816 640.42,-828 628.42,-840"/>
<text text-anchor="middle" x="561.42" y="-824.3" font-family="Times,serif" font-size="14.00">spec_a flat field 1..1</text>
</g>
<!-- calib&#45;&gt;l2a_spec_a_ff -->
<g id="edge8" class="edge">
<title>calib&#45;&gt;l2a_spec_a_ff</title>
<path fill="none" stroke="black" d="M292.66,-593.62C292.66,-680.76 292.66,-828 292.66,-828 292.66,-828 472.24,-828 472.24,-828"/>
<polygon fill="black" stroke="black" points="472.24,-831.5 482.24,-828 472.24,-824.5 472.24,-831.5"/>
</g>
<!-- l2a_spec_a_kgain -->
<g id="node16" class="node">
<title>l2a_spec_a_kgain</title>
<polygon fill="none" stroke="black" points="620.92,-786 489.92,-786 489.92,-762 620.92,-762 632.92,-774 620.92,-786"/>
<text text-anchor="middle" x="561.42" y="-770.3" font-family="Times,serif" font-size="14.00">spec_a k&#45;gain 1..1</text>
</g>
<!-- calib&#45;&gt;l2a_spec_a_kgain -->
<g id="edge9" class="edge">
<title>calib&#45;&gt;l2a_spec_a_kgain</title>
<path fill="none" stroke="black" d="M304.66,-592.32C304.66,-664.31 304.66,-774 304.66,-774 304.66,-774 479.9,-774 479.9,-774"/>
<polygon fill="black" stroke="black" points="479.9,-777.5 489.9,-774 479.9,-770.5 479.9,-777.5"/>
</g>
<!-- l2a_spec_a_emg -->
<g id="node17" class="node">
<title>l2a_spec_a_emg</title>
<polygon fill="none" stroke="black" points="629.42,-732 481.42,-732 481.42,-708 629.42,-708 641.42,-720 629.42,-732"/>
<text text-anchor="middle" x="561.42" y="-716.3" font-family="Times,serif" font-size="14.00">spec_a EM gain 1..1</text>
</g>
<!-- calib&#45;&gt;l2a_spec_a_emg -->
<g id="edge10" class="edge">
<title>calib&#45;&gt;l2a_spec_a_emg</title>
<path fill="none" stroke="black" d="M317.66,-587.96C317.66,-643.61 317.66,-720 317.66,-720 317.66,-720 471.27,-720 471.27,-720"/>
<polygon fill="black" stroke="black" points="471.27,-723.5 481.27,-720 471.27,-716.5 471.27,-723.5"/>
</g>
<!-- l2b_spec_a_distm -->
<g id="node20" class="node">
<title>l2b_spec_a_distm</title>
<polygon fill="none" stroke="black" points="651.92,-678 458.92,-678 458.92,-654 651.92,-654 663.92,-666 651.92,-678"/>
<text text-anchor="middle" x="561.42" y="-662.3" font-family="Times,serif" font-size="14.00">spec_a distortion map 1..1</text>
</g>
<!-- calib&#45;&gt;l2b_spec_a_distm -->
<g id="edge11" class="edge">
<title>calib&#45;&gt;l2b_spec_a_distm</title>
<path fill="none" stroke="black" d="M329.66,-580.89C329.66,-619.34 329.66,-666 329.66,-666 329.66,-666 448.76,-666 448.76,-666"/>
<polygon fill="black" stroke="black" points="448.76,-669.5 458.76,-666 448.76,-662.5 448.76,-669.5"/>
</g>
<!-- l2b_spec_a_excicrf -->
<g id="node21" class="node">
<title>l2b_spec_a_excicrf</title>
<polygon fill="none" stroke="black" points="677.42,-624 433.42,-624 433.42,-600 677.42,-600 689.42,-612 677.42,-624"/>
<text text-anchor="middle" x="561.42" y="-608.3" font-family="Times,serif" font-size="14.00">spec_a EXCAM ICRF location 1..1</text>
</g>
<!-- calib&#45;&gt;l2b_spec_a_excicrf -->
<g id="edge12" class="edge">
<title>calib&#45;&gt;l2b_spec_a_excicrf</title>
<path fill="none" stroke="black" d="M342.66,-567.71C342.66,-589.14 342.66,-612 342.66,-612 342.66,-612 423.22,-612 423.22,-612"/>
<polygon fill="black" stroke="black" points="423.22,-615.5 433.22,-612 423.22,-608.5 423.22,-615.5"/>
</g>
<!-- l2b_spec_a_excfovps -->
<g id="node22" class="node">
<title>l2b_spec_a_excfovps</title>
<polygon fill="none" stroke="black" points="679.42,-570 431.42,-570 431.42,-546 679.42,-546 691.42,-558 679.42,-570"/>
<text text-anchor="middle" x="561.42" y="-554.3" font-family="Times,serif" font-size="14.00">spec_a ECAM FOV pixel scale 1..1</text>
</g>
<!-- calib&#45;&gt;l2b_spec_a_excfovps -->
<g id="edge13" class="edge">
<title>calib&#45;&gt;l2b_spec_a_excfovps</title>
<path fill="none" stroke="black" d="M348.55,-558C348.55,-558 421.25,-558 421.25,-558"/>
<polygon fill="black" stroke="black" points="421.25,-561.5 431.25,-558 421.25,-554.5 421.25,-561.5"/>
</g>
<!-- l2b_spec_a_cfamfo -->
<g id="node23" class="node">
<title>l2b_spec_a_cfamfo</title>
<polygon fill="none" stroke="black" points="662.42,-516 448.42,-516 448.42,-492 662.42,-492 674.42,-504 662.42,-516"/>
<text text-anchor="middle" x="561.42" y="-500.3" font-family="Times,serif" font-size="14.00">spec_a CFAM filter offset 1..1</text>
</g>
<!-- calib&#45;&gt;l2b_spec_a_cfamfo -->
<g id="edge14" class="edge">
<title>calib&#45;&gt;l2b_spec_a_cfamfo</title>
<path fill="none" stroke="black" d="M348.55,-504C348.55,-504 438.42,-504 438.42,-504"/>
<polygon fill="black" stroke="black" points="438.42,-507.5 448.42,-504 438.42,-500.5 438.42,-507.5"/>
</g>
<!-- l3_spec_a_dispm -->
<g id="node26" class="node">
<title>l3_spec_a_dispm</title>
<polygon fill="none" stroke="black" points="660.42,-462 450.42,-462 450.42,-438 660.42,-438 672.42,-450 660.42,-462"/>
<text text-anchor="middle" x="561.42" y="-446.3" font-family="Times,serif" font-size="14.00">spec_a dispersion model 1..1</text>
</g>
<!-- calib&#45;&gt;l3_spec_a_dispm -->
<g id="edge15" class="edge">
<title>calib&#45;&gt;l3_spec_a_dispm</title>
<path fill="none" stroke="black" d="M340.66,-491.45C340.66,-470.89 340.66,-450 340.66,-450 340.66,-450 440.39,-450 440.39,-450"/>
<polygon fill="black" stroke="black" points="440.39,-453.5 450.39,-450 440.39,-446.5 440.39,-453.5"/>
</g>
<!-- l3_spec_a_wavem -->
<g id="node27" class="node">
<title>l3_spec_a_wavem</title>
<polygon fill="none" stroke="black" points="660.42,-408 450.42,-408 450.42,-384 660.42,-384 672.42,-396 660.42,-408"/>
<text text-anchor="middle" x="561.42" y="-392.3" font-family="Times,serif" font-size="14.00">spec_a dispersion model 1..1</text>
</g>
<!-- calib&#45;&gt;l3_spec_a_wavem -->
<g id="edge16" class="edge">
<title>calib&#45;&gt;l3_spec_a_wavem</title>
<path fill="none" stroke="black" d="M327.66,-479.58C327.66,-441.43 327.66,-396 327.66,-396 327.66,-396 440.36,-396 440.36,-396"/>
<polygon fill="black" stroke="black" points="440.36,-399.5 450.36,-396 440.36,-392.5 440.36,-399.5"/>
</g>
<!-- l4_spec_a_afcal -->
<g id="node30" class="node">
<title>l4_spec_a_afcal</title>
<polygon fill="none" stroke="black" points="644.92,-354 465.92,-354 465.92,-330 644.92,-330 656.92,-342 644.92,-354"/>
<text text-anchor="middle" x="561.42" y="-338.3" font-family="Times,serif" font-size="14.00">spec_a absolute flux 1..1</text>
</g>
<!-- calib&#45;&gt;l4_spec_a_afcal -->
<g id="edge17" class="edge">
<title>calib&#45;&gt;l4_spec_a_afcal</title>
<path fill="none" stroke="black" d="M313.66,-472.24C313.66,-416.75 313.66,-342 313.66,-342 313.66,-342 455.63,-342 455.63,-342"/>
<polygon fill="black" stroke="black" points="455.63,-345.5 465.63,-342 455.63,-338.5 455.63,-345.5"/>
</g>
<!-- l4_spec_a_ctcal -->
<g id="node31" class="node">
<title>l4_spec_a_ctcal</title>
<polygon fill="none" stroke="black" points="657.42,-300 453.42,-300 453.42,-276 657.42,-276 669.42,-288 657.42,-300"/>
<text text-anchor="middle" x="561.42" y="-284.3" font-family="Times,serif" font-size="14.00">spec_a core throughput 1..1</text>
</g>
<!-- calib&#45;&gt;l4_spec_a_ctcal -->
<g id="edge18" class="edge">
<title>calib&#45;&gt;l4_spec_a_ctcal</title>
<path fill="none" stroke="black" d="M299.66,-469.05C299.66,-397.06 299.66,-288 299.66,-288 299.66,-288 443.06,-288 443.06,-288"/>
<polygon fill="black" stroke="black" points="443.06,-291.5 453.06,-288 443.06,-284.5 443.06,-291.5"/>
</g>
<!-- l4_spec_a_ndfilt -->
<g id="node32" class="node">
<title>l4_spec_a_ndfilt</title>
<polygon fill="none" stroke="black" points="630.42,-246 480.42,-246 480.42,-222 630.42,-222 642.42,-234 630.42,-246"/>
<text text-anchor="middle" x="561.42" y="-230.3" font-family="Times,serif" font-size="14.00">spec_a ND filter 1..1</text>
</g>
<!-- calib&#45;&gt;l4_spec_a_ndfilt -->
<g id="edge19" class="edge">
<title>calib&#45;&gt;l4_spec_a_ndfilt</title>
<path fill="none" stroke="black" d="M285.66,-468.74C285.66,-381.65 285.66,-234 285.66,-234 285.66,-234 470.18,-234 470.18,-234"/>
<polygon fill="black" stroke="black" points="470.18,-237.5 480.18,-234 470.18,-230.5 470.18,-237.5"/>
</g>
<!-- l4_spec_a_stmap -->
<g id="node33" class="node">
<title>l4_spec_a_stmap</title>
<polygon fill="none" stroke="black" points="676.42,-192 434.42,-192 434.42,-168 676.42,-168 688.42,-180 676.42,-192"/>
<text text-anchor="middle" x="561.42" y="-176.3" font-family="Times,serif" font-size="14.00">spec_a slit transmission map 1..1</text>
</g>
<!-- calib&#45;&gt;l4_spec_a_stmap -->
<g id="edge20" class="edge">
<title>calib&#45;&gt;l4_spec_a_stmap</title>
<path fill="none" stroke="black" d="M324.18,-477.3C368.13,-477.3 441.66,-477.3 441.66,-477.3 441.66,-477.3 441.66,-208.15 441.66,-208.15"/>
<polygon fill="black" stroke="black" points="445.16,-208.15 441.66,-198.15 438.16,-208.15 445.16,-208.15"/>
</g>
<!-- l4_spec_a_tspi -->
<g id="node34" class="node">
<title>l4_spec_a_tspi</title>
<polygon fill="none" stroke="black" points="684.92,-138 425.92,-138 425.92,-114 684.92,-114 696.92,-126 684.92,-138"/>
<text text-anchor="middle" x="561.42" y="-122.3" font-family="Times,serif" font-size="14.00">spec_a target star prism image 1..1</text>
</g>
<!-- calib&#45;&gt;l4_spec_a_tspi -->
<g id="edge21" class="edge">
<title>calib&#45;&gt;l4_spec_a_tspi</title>
<path fill="none" stroke="black" d="M271.66,-471.68C271.66,-359.18 271.66,-126 271.66,-126 271.66,-126 415.87,-126 415.87,-126"/>
<polygon fill="black" stroke="black" points="415.87,-129.5 425.87,-126 415.87,-122.5 415.87,-129.5"/>
</g>
<!-- l4_spec_a_rspi -->
<g id="node35" class="node">
<title>l4_spec_a_rspi</title>
<polygon fill="none" stroke="black" points="696.92,-84 413.92,-84 413.92,-60 696.92,-60 708.92,-72 696.92,-84"/>
<text text-anchor="middle" x="561.42" y="-68.3" font-family="Times,serif" font-size="14.00">spec_a reference star prism image 1..1</text>
</g>
<!-- calib&#45;&gt;l4_spec_a_rspi -->
<g id="edge22" class="edge">
<title>calib&#45;&gt;l4_spec_a_rspi</title>
<path fill="none" stroke="black" d="M257.66,-478.79C257.66,-358.49 257.66,-72 257.66,-72 257.66,-72 403.54,-72 403.54,-72"/>
<polygon fill="black" stroke="black" points="403.54,-75.5 413.54,-72 403.54,-68.5 403.54,-75.5"/>
</g>
<!-- l4_spec_a_lsf -->
<g id="node36" class="node">
<title>l4_spec_a_lsf</title>
<polygon fill="none" stroke="black" points="688.42,-30 422.42,-30 422.42,-6 688.42,-6 700.42,-18 688.42,-30"/>
<text text-anchor="middle" x="561.42" y="-14.3" font-family="Times,serif" font-size="14.00">spec_a ND filter line spread function</text>
</g>
<!-- calib&#45;&gt;l4_spec_a_lsf -->
<g id="edge23" class="edge">
<title>calib&#45;&gt;l4_spec_a_lsf</title>
<path fill="none" stroke="black" d="M243.66,-491.6C243.66,-371.47 243.66,-18 243.66,-18 243.66,-18 412.05,-18 412.05,-18"/>
<polygon fill="black" stroke="black" points="412.05,-21.5 422.05,-18 412.05,-14.5 412.05,-21.5"/>
</g>
<!-- l1_spec_a_odir -->
<g id="node7" class="node">
<title>l1_spec_a_odir</title>
<ellipse fill="none" stroke="black" cx="561.42" cy="-1314" rx="153.27" ry="18"/>
<text text-anchor="middle" x="561.42" y="-1310.3" font-family="Times,serif" font-size="14.00">Output path for L1_spec_a 1..1</text>
</g>
<!-- config&#45;&gt;l1_spec_a_odir -->
<g id="edge24" class="edge">
<title>config&#45;&gt;l1_spec_a_odir</title>
<path fill="none" stroke="black" d="M350.66,-1251.49C350.66,-1281 350.66,-1314 350.66,-1314 350.66,-1314 397.97,-1314 397.97,-1314"/>
<polygon fill="black" stroke="black" points="397.97,-1317.5 407.97,-1314 397.97,-1310.5 397.97,-1317.5"/>
</g>
<!-- l2a_spec_a_odir -->
<g id="node10" class="node">
<title>l2a_spec_a_odir</title>
<ellipse fill="none" stroke="black" cx="561.42" cy="-1260" rx="159.47" ry="18"/>
<text text-anchor="middle" x="561.42" y="-1256.3" font-family="Times,serif" font-size="14.00">Output path for L2a_spec_a 1..1</text>
</g>
<!-- config&#45;&gt;l2a_spec_a_odir -->
<g id="edge25" class="edge">
<title>config&#45;&gt;l2a_spec_a_odir</title>
<path fill="none" stroke="black" d="M343.07,-1260C343.07,-1260 391.96,-1260 391.96,-1260"/>
<polygon fill="black" stroke="black" points="391.96,-1263.5 401.96,-1260 391.96,-1256.5 391.96,-1263.5"/>
</g>
<!-- l2b_spec_a_odir -->
<g id="node18" class="node">
<title>l2b_spec_a_odir</title>
<ellipse fill="none" stroke="black" cx="561.42" cy="-1206" rx="159.47" ry="18"/>
<text text-anchor="middle" x="561.42" y="-1202.3" font-family="Times,serif" font-size="14.00">Output path for L2b_spec_a 1..1</text>
</g>
<!-- config&#45;&gt;l2b_spec_a_odir -->
<g id="edge26" class="edge">
<title>config&#45;&gt;l2b_spec_a_odir</title>
<path fill="none" stroke="black" d="M366.4,-1206C366.4,-1206 391.98,-1206 391.98,-1206"/>
<polygon fill="black" stroke="black" points="391.98,-1209.5 401.98,-1206 391.98,-1202.5 391.98,-1209.5"/>
</g>
<!-- l3_spec_a_odir -->
<g id="node24" class="node">
<title>l3_spec_a_odir</title>
<ellipse fill="none" stroke="black" cx="561.42" cy="-1152" rx="153.27" ry="18"/>
<text text-anchor="middle" x="561.42" y="-1148.3" font-family="Times,serif" font-size="14.00">Output path for L3_spec_a 1..1</text>
</g>
<!-- config&#45;&gt;l3_spec_a_odir -->
<g id="edge27" class="edge">
<title>config&#45;&gt;l3_spec_a_odir</title>
<path fill="none" stroke="black" d="M343.07,-1152C343.07,-1152 397.87,-1152 397.87,-1152"/>
<polygon fill="black" stroke="black" points="397.87,-1155.5 407.87,-1152 397.87,-1148.5 397.87,-1155.5"/>
</g>
<!-- l4_spec_a_odir -->
<g id="node28" class="node">
<title>l4_spec_a_odir</title>
<ellipse fill="none" stroke="black" cx="561.42" cy="-1098" rx="153.27" ry="18"/>
<text text-anchor="middle" x="561.42" y="-1094.3" font-family="Times,serif" font-size="14.00">Output path for L4_spec_a 1..1</text>
</g>
<!-- config&#45;&gt;l4_spec_a_odir -->
<g id="edge28" class="edge">
<title>config&#45;&gt;l4_spec_a_odir</title>
<path fill="none" stroke="black" d="M360.66,-1177.91C360.66,-1145.91 360.66,-1098 360.66,-1098 360.66,-1098 397.98,-1098 397.98,-1098"/>
<polygon fill="black" stroke="black" points="397.98,-1101.5 407.98,-1098 397.98,-1094.5 397.98,-1101.5"/>
</g>
<!-- l1_spec_a_rec -->
<g id="node8" class="node">
<title>l1_spec_a_rec</title>
<polygon fill="none" stroke="black" points="633.92,-1596 476.92,-1596 476.92,-1572 633.92,-1572 645.92,-1584 633.92,-1596"/>
<text text-anchor="middle" x="561.42" y="-1580.3" font-family="Times,serif" font-size="14.00">recipe L1_spec_a 1..1</text>
</g>
<!-- recipe&#45;&gt;l1_spec_a_rec -->
<g id="edge29" class="edge">
<title>recipe&#45;&gt;l1_spec_a_rec</title>
<path fill="none" stroke="black" d="M278.66,-1516.22C278.66,-1546.92 278.66,-1584 278.66,-1584 278.66,-1584 466.58,-1584 466.58,-1584"/>
<polygon fill="black" stroke="black" points="466.58,-1587.5 476.58,-1584 466.58,-1580.5 466.58,-1587.5"/>
</g>
<!-- l2a_spec_a_rec -->
<g id="node11" class="node">
<title>l2a_spec_a_rec</title>
<polygon fill="none" stroke="black" points="637.92,-1542 472.92,-1542 472.92,-1518 637.92,-1518 649.92,-1530 637.92,-1542"/>
<text text-anchor="middle" x="561.42" y="-1526.3" font-family="Times,serif" font-size="14.00">recipe L2a_spec_a 1..1</text>
</g>
<!-- recipe&#45;&gt;l2a_spec_a_rec -->
<g id="edge30" class="edge">
<title>recipe&#45;&gt;l2a_spec_a_rec</title>
<path fill="none" stroke="black" d="M306.66,-1515.67C306.66,-1525.42 306.66,-1533.12 306.66,-1533.12 306.66,-1533.12 462.68,-1533.12 462.68,-1533.12"/>
<polygon fill="black" stroke="black" points="462.68,-1536.62 472.68,-1533.12 462.68,-1529.62 462.68,-1536.62"/>
</g>
<!-- l2b_spec_a_rec -->
<g id="node19" class="node">
<title>l2b_spec_a_rec</title>
<polygon fill="none" stroke="black" points="638.42,-1488 472.42,-1488 472.42,-1464 638.42,-1464 650.42,-1476 638.42,-1488"/>
<text text-anchor="middle" x="561.42" y="-1472.3" font-family="Times,serif" font-size="14.00">recipe L2b_spec_a 1..1</text>
</g>
<!-- recipe&#45;&gt;l2b_spec_a_rec -->
<g id="edge31" class="edge">
<title>recipe&#45;&gt;l2b_spec_a_rec</title>
<path fill="none" stroke="black" d="M334.47,-1476C334.47,-1476 462.21,-1476 462.21,-1476"/>
<polygon fill="black" stroke="black" points="462.21,-1479.5 472.21,-1476 462.21,-1472.5 462.21,-1479.5"/>
</g>
<!-- l3_spec_a_rec -->
<g id="node25" class="node">
<title>l3_spec_a_rec</title>
<polygon fill="none" stroke="black" points="633.92,-1434 476.92,-1434 476.92,-1410 633.92,-1410 645.92,-1422 633.92,-1434"/>
<text text-anchor="middle" x="561.42" y="-1418.3" font-family="Times,serif" font-size="14.00">recipe L3_spec_a 1..1</text>
</g>
<!-- recipe&#45;&gt;l3_spec_a_rec -->
<g id="edge32" class="edge">
<title>recipe&#45;&gt;l3_spec_a_rec</title>
<path fill="none" stroke="black" d="M306.66,-1436.33C306.66,-1426.58 306.66,-1418.88 306.66,-1418.88 306.66,-1418.88 466.59,-1418.88 466.59,-1418.88"/>
<polygon fill="black" stroke="black" points="466.59,-1422.38 476.59,-1418.88 466.59,-1415.38 466.59,-1422.38"/>
</g>
<!-- l4_spec_a_rec -->
<g id="node29" class="node">
<title>l4_spec_a_rec</title>
<polygon fill="none" stroke="black" points="633.92,-1380 476.92,-1380 476.92,-1356 633.92,-1356 645.92,-1368 633.92,-1380"/>
<text text-anchor="middle" x="561.42" y="-1364.3" font-family="Times,serif" font-size="14.00">recipe L4_spec_a 1..1</text>
</g>
<!-- recipe&#45;&gt;l4_spec_a_rec -->
<g id="edge33" class="edge">
<title>recipe&#45;&gt;l4_spec_a_rec</title>
<path fill="none" stroke="black" d="M278.66,-1435.78C278.66,-1405.08 278.66,-1368 278.66,-1368 278.66,-1368 466.58,-1368 466.58,-1368"/>
<polygon fill="black" stroke="black" points="466.58,-1371.5 476.58,-1368 466.58,-1364.5 466.58,-1371.5"/>
</g>
</g>
</svg>
