<?xml version="1.0" encoding="UTF-8" standalone="no"?>
<!DOCTYPE svg PUBLIC "-//W3C//DTD SVG 1.1//EN"
 "http://www.w3.org/Graphics/SVG/1.1/DTD/svg11.dtd">
<!-- Generated by graphviz version 2.43.0 (0)
 -->
<!-- Title: SpecAClerks Pages: 1 -->
<svg width="884pt" height="1526pt"
 viewBox="0.00 0.00 884.47 1526.00" xmlns="http://www.w3.org/2000/svg" xmlns:xlink="http://www.w3.org/1999/xlink">
<g id="graph0" class="graph" transform="scale(1 1) rotate(0) translate(4 1522)">
<title>SpecAClerks</title>
<polygon fill="white" stroke="transparent" points="-4,4 -4,-1522 880.47,-1522 880.47,4 -4,4"/>
<!-- alarm_cal -->
<g id="node1" class="node">
<title>alarm_cal</title>
<text text-anchor="middle" x="91" y="-554.3" font-family="Times,serif" font-size="14.00">User requested update</text>
</g>
<!-- calib -->
<g id="node4" class="node">
<title>calib</title>
<ellipse fill="none" stroke="black" cx="377.24" cy="-531" rx="62.29" ry="62.29"/>
<text text-anchor="middle" x="377.24" y="-527.3" font-family="Times,serif" font-size="14.00">Calibration</text>
</g>
<!-- alarm_cal&#45;&gt;calib -->
<g id="edge1" class="edge">
<title>alarm_cal&#45;&gt;calib</title>
<path fill="none" stroke="black" stroke-dasharray="5,2" d="M182.35,-558C182.35,-558 310.83,-558 310.83,-558"/>
<polygon fill="black" stroke="black" points="310.83,-561.5 320.83,-558 310.83,-554.5 310.83,-561.5"/>
</g>
<!-- alarm_cnf -->
<g id="node2" class="node">
<title>alarm_cnf</title>
<text text-anchor="middle" x="91" y="-500.3" font-family="Times,serif" font-size="14.00">User requested update</text>
</g>
<!-- alarm_cnf&#45;&gt;calib -->
<g id="edge2" class="edge">
<title>alarm_cnf&#45;&gt;calib</title>
<path fill="none" stroke="black" stroke-dasharray="5,2" d="M182.35,-504C182.35,-504 310.83,-504 310.83,-504"/>
<polygon fill="black" stroke="black" points="310.83,-507.5 320.83,-504 310.83,-500.5 310.83,-507.5"/>
</g>
<!-- alarm_rec -->
<g id="node3" class="node">
<title>alarm_rec</title>
<text text-anchor="middle" x="91" y="-1202.3" font-family="Times,serif" font-size="14.00">User requested update</text>
</g>
<!-- recipe -->
<g id="node6" class="node">
<title>recipe</title>
<ellipse fill="none" stroke="black" cx="377.24" cy="-1206" rx="42.49" ry="42.49"/>
<text text-anchor="middle" x="377.24" y="-1202.3" font-family="Times,serif" font-size="14.00">Recipe</text>
</g>
<!-- alarm_rec&#45;&gt;recipe -->
<g id="edge3" class="edge">
<title>alarm_rec&#45;&gt;recipe</title>
<path fill="none" stroke="black" stroke-dasharray="5,2" d="M182.35,-1206C182.35,-1206 324.63,-1206 324.63,-1206"/>
<polygon fill="black" stroke="black" points="324.63,-1209.5 334.63,-1206 324.62,-1202.5 324.63,-1209.5"/>
</g>
<!-- l1_spec_a_nllut -->
<g id="node9" class="node">
<title>l1_spec_a_nllut</title>
<polygon fill="none" stroke="black" points="812.97,-1056 623.97,-1056 623.97,-1032 812.97,-1032 824.97,-1044 812.97,-1056"/>
<text text-anchor="middle" x="724.47" y="-1040.3" font-family="Times,serif" font-size="14.00">non linear calibration 1..1</text>
</g>
<!-- calib&#45;&gt;l1_spec_a_nllut -->
<g id="edge4" class="edge">
<title>calib&#45;&gt;l1_spec_a_nllut</title>
<path fill="none" stroke="black" d="M422.47,-574.3C422.47,-697.97 422.47,-1044 422.47,-1044 422.47,-1044 613.91,-1044 613.91,-1044"/>
<polygon fill="black" stroke="black" points="613.91,-1047.5 623.91,-1044 613.91,-1040.5 613.91,-1047.5"/>
</g>
<!-- l2a_spec_a_mbpm -->
<g id="node12" class="node">
<title>l2a_spec_a_mbpm</title>
<polygon fill="none" stroke="black" points="812.47,-1002 624.47,-1002 624.47,-978 812.47,-978 824.47,-990 812.47,-1002"/>
<text text-anchor="middle" x="724.47" y="-986.3" font-family="Times,serif" font-size="14.00">spec_a bad pixel map 1..1</text>
</g>
<!-- calib&#45;&gt;l2a_spec_a_mbpm -->
<g id="edge5" class="edge">
<title>calib&#45;&gt;l2a_spec_a_mbpm</title>
<path fill="none" stroke="black" d="M424.47,-572.14C424.47,-684.8 424.47,-990 424.47,-990 424.47,-990 614.16,-990 614.16,-990"/>
<polygon fill="black" stroke="black" points="614.16,-993.5 624.16,-990 614.16,-986.5 614.16,-993.5"/>
</g>
<!-- l2a_spec_a_dnb -->
<g id="node13" class="node">
<title>l2a_spec_a_dnb</title>
<polygon fill="none" stroke="black" points="864.47,-948 572.47,-948 572.47,-924 864.47,-924 876.47,-936 864.47,-948"/>
<text text-anchor="middle" x="724.47" y="-932.3" font-family="Times,serif" font-size="14.00">spec_a dark (CIC/FPN/dark current) 1..1</text>
</g>
<!-- calib&#45;&gt;l2a_spec_a_dnb -->
<g id="edge6" class="edge">
<title>calib&#45;&gt;l2a_spec_a_dnb</title>
<path fill="none" stroke="black" d="M426.47,-569.47C426.47,-670.56 426.47,-936 426.47,-936 426.47,-936 562.42,-936 562.42,-936"/>
<polygon fill="black" stroke="black" points="562.42,-939.5 572.42,-936 562.42,-932.5 562.42,-939.5"/>
</g>
<!-- l2a_spec_a_cti -->
<g id="node14" class="node">
<title>l2a_spec_a_cti</title>
<polygon fill="none" stroke="black" points="853.97,-894 582.97,-894 582.97,-870 853.97,-870 865.97,-882 853.97,-894"/>
<text text-anchor="middle" x="724.47" y="-878.3" font-family="Times,serif" font-size="14.00">spec_a charge transfer efficiency 1..1</text>
</g>
<!-- calib&#45;&gt;l2a_spec_a_cti -->
<g id="edge7" class="edge">
<title>calib&#45;&gt;l2a_spec_a_cti</title>
<path fill="none" stroke="black" d="M428.47,-566.91C428.47,-656.37 428.47,-882 428.47,-882 428.47,-882 572.54,-882 572.54,-882"/>
<polygon fill="black" stroke="black" points="572.54,-885.5 582.54,-882 572.54,-878.5 572.54,-885.5"/>
</g>
<!-- l2a_spec_a_ff -->
<g id="node15" class="node">
<title>l2a_spec_a_ff</title>
<polygon fill="none" stroke="black" points="791.47,-840 645.47,-840 645.47,-816 791.47,-816 803.47,-828 791.47,-840"/>
<text text-anchor="middle" x="724.47" y="-824.3" font-family="Times,serif" font-size="14.00">spec_a flat field 1..1</text>
</g>
<!-- calib&#45;&gt;l2a_spec_a_ff -->
<g id="edge8" class="edge">
<title>calib&#45;&gt;l2a_spec_a_ff</title>
<path fill="none" stroke="black" d="M430.47,-563.63C430.47,-640.79 430.47,-828 430.47,-828 430.47,-828 635.3,-828 635.3,-828"/>
<polygon fill="black" stroke="black" points="635.3,-831.5 645.3,-828 635.3,-824.5 635.3,-831.5"/>
</g>
<!-- l2a_spec_a_kgain -->
<g id="node16" class="node">
<title>l2a_spec_a_kgain</title>
<polygon fill="none" stroke="black" points="783.97,-786 652.97,-786 652.97,-762 783.97,-762 795.97,-774 783.97,-786"/>
<text text-anchor="middle" x="724.47" y="-770.3" font-family="Times,serif" font-size="14.00">spec_a k&#45;gain 1..1</text>
</g>
<!-- calib&#45;&gt;l2a_spec_a_kgain -->
<g id="edge9" class="edge">
<title>calib&#45;&gt;l2a_spec_a_kgain</title>
<path fill="none" stroke="black" d="M432.47,-560.31C432.47,-624.94 432.47,-774 432.47,-774 432.47,-774 642.67,-774 642.67,-774"/>
<polygon fill="black" stroke="black" points="642.67,-777.5 652.67,-774 642.67,-770.5 642.67,-777.5"/>
</g>
<!-- l2a_spec_a_emg -->
<g id="node17" class="node">
<title>l2a_spec_a_emg</title>
<polygon fill="none" stroke="black" points="792.47,-732 644.47,-732 644.47,-708 792.47,-708 804.47,-720 792.47,-732"/>
<text text-anchor="middle" x="724.47" y="-716.3" font-family="Times,serif" font-size="14.00">spec_a EM gain 1..1</text>
</g>
<!-- calib&#45;&gt;l2a_spec_a_emg -->
<g id="edge10" class="edge">
<title>calib&#45;&gt;l2a_spec_a_emg</title>
<path fill="none" stroke="black" d="M434.47,-556.1C434.47,-607.51 434.47,-720 434.47,-720 434.47,-720 634.46,-720 634.46,-720"/>
<polygon fill="black" stroke="black" points="634.46,-723.5 644.46,-720 634.46,-716.5 634.46,-723.5"/>
</g>
<!-- l2b_spec_a_distm -->
<g id="node20" class="node">
<title>l2b_spec_a_distm</title>
<polygon fill="none" stroke="black" points="814.97,-678 621.97,-678 621.97,-654 814.97,-654 826.97,-666 814.97,-678"/>
<text text-anchor="middle" x="724.47" y="-662.3" font-family="Times,serif" font-size="14.00">spec_a distortion map 1..1</text>
</g>
<!-- calib&#45;&gt;l2b_spec_a_distm -->
<g id="edge11" class="edge">
<title>calib&#45;&gt;l2b_spec_a_distm</title>
<path fill="none" stroke="black" d="M436.47,-550.63C436.47,-588.07 436.47,-666 436.47,-666 436.47,-666 611.72,-666 611.72,-666"/>
<polygon fill="black" stroke="black" points="611.72,-669.5 621.72,-666 611.72,-662.5 611.72,-669.5"/>
</g>
<!-- l2b_spec_a_excicrf -->
<g id="node21" class="node">
<title>l2b_spec_a_excicrf</title>
<polygon fill="none" stroke="black" points="840.47,-624 596.47,-624 596.47,-600 840.47,-600 852.47,-612 840.47,-624"/>
<text text-anchor="middle" x="724.47" y="-608.3" font-family="Times,serif" font-size="14.00">spec_a EXCAM ICRF location 1..1</text>
</g>
<!-- calib&#45;&gt;l2b_spec_a_excicrf -->
<g id="edge12" class="edge">
<title>calib&#45;&gt;l2b_spec_a_excicrf</title>
<path fill="none" stroke="black" d="M438.47,-543.3C438.47,-565.96 438.47,-612 438.47,-612 438.47,-612 586.11,-612 586.11,-612"/>
<polygon fill="black" stroke="black" points="586.11,-615.5 596.11,-612 586.11,-608.5 586.11,-615.5"/>
</g>
<!-- l2b_spec_a_excfovps -->
<g id="node22" class="node">
<title>l2b_spec_a_excfovps</title>
<polygon fill="none" stroke="black" points="842.47,-570 594.47,-570 594.47,-546 842.47,-546 854.47,-558 842.47,-570"/>
<text text-anchor="middle" x="724.47" y="-554.3" font-family="Times,serif" font-size="14.00">spec_a ECAM FOV pixel scale 1..1</text>
</g>
<!-- calib&#45;&gt;l2b_spec_a_excfovps -->
<g id="edge13" class="edge">
<title>calib&#45;&gt;l2b_spec_a_excfovps</title>
<path fill="none" stroke="black" d="M433.8,-558C433.8,-558 584.36,-558 584.36,-558"/>
<polygon fill="black" stroke="black" points="584.36,-561.5 594.36,-558 584.36,-554.5 584.36,-561.5"/>
</g>
<!-- l2b_spec_a_cfamfo -->
<g id="node23" class="node">
<title>l2b_spec_a_cfamfo</title>
<polygon fill="none" stroke="black" points="825.47,-516 611.47,-516 611.47,-492 825.47,-492 837.47,-504 825.47,-516"/>
<text text-anchor="middle" x="724.47" y="-500.3" font-family="Times,serif" font-size="14.00">spec_a CFAM filter offset 1..1</text>
</g>
<!-- calib&#45;&gt;l2b_spec_a_cfamfo -->
<g id="edge14" class="edge">
<title>calib&#45;&gt;l2b_spec_a_cfamfo</title>
<path fill="none" stroke="black" d="M433.8,-504C433.8,-504 601.41,-504 601.41,-504"/>
<polygon fill="black" stroke="black" points="601.41,-507.5 611.41,-504 601.41,-500.5 601.41,-507.5"/>
</g>
<!-- l3_spec_a_dispm -->
<g id="node26" class="node">
<title>l3_spec_a_dispm</title>
<polygon fill="none" stroke="black" points="823.47,-462 613.47,-462 613.47,-438 823.47,-438 835.47,-450 823.47,-462"/>
<text text-anchor="middle" x="724.47" y="-446.3" font-family="Times,serif" font-size="14.00">spec_a dispersion model 1..1</text>
</g>
<!-- calib&#45;&gt;l3_spec_a_dispm -->
<g id="edge15" class="edge">
<title>calib&#45;&gt;l3_spec_a_dispm</title>
<path fill="none" stroke="black" d="M426.47,-492.4C426.47,-471.54 426.47,-450 426.47,-450 426.47,-450 603.08,-450 603.08,-450"/>
<polygon fill="black" stroke="black" points="603.08,-453.5 613.08,-450 603.08,-446.5 603.08,-453.5"/>
</g>
<!-- l3_spec_a_wavem -->
<g id="node27" class="node">
<title>l3_spec_a_wavem</title>
<polygon fill="none" stroke="black" points="823.47,-408 613.47,-408 613.47,-384 823.47,-384 835.47,-396 823.47,-408"/>
<text text-anchor="middle" x="724.47" y="-392.3" font-family="Times,serif" font-size="14.00">spec_a dispersion model 1..1</text>
</g>
<!-- calib&#45;&gt;l3_spec_a_wavem -->
<g id="edge16" class="edge">
<title>calib&#45;&gt;l3_spec_a_wavem</title>
<path fill="none" stroke="black" d="M412.47,-479.19C412.47,-441.12 412.47,-396 412.47,-396 412.47,-396 603.15,-396 603.15,-396"/>
<polygon fill="black" stroke="black" points="603.15,-399.5 613.15,-396 603.15,-392.5 603.15,-399.5"/>
</g>
<!-- l4_spec_a_afcal -->
<g id="node30" class="node">
<title>l4_spec_a_afcal</title>
<polygon fill="none" stroke="black" points="807.97,-354 628.97,-354 628.97,-330 807.97,-330 819.97,-342 807.97,-354"/>
<text text-anchor="middle" x="724.47" y="-338.3" font-family="Times,serif" font-size="14.00">spec_a absolute flux 1..1</text>
</g>
<!-- calib&#45;&gt;l4_spec_a_afcal -->
<g id="edge17" class="edge">
<title>calib&#45;&gt;l4_spec_a_afcal</title>
<path fill="none" stroke="black" d="M398.47,-472.24C398.47,-416.75 398.47,-342 398.47,-342 398.47,-342 618.86,-342 618.86,-342"/>
<polygon fill="black" stroke="black" points="618.86,-345.5 628.86,-342 618.86,-338.5 618.86,-345.5"/>
</g>
<!-- l4_spec_a_ctcal -->
<g id="node31" class="node">
<title>l4_spec_a_ctcal</title>
<polygon fill="none" stroke="black" points="820.47,-300 616.47,-300 616.47,-276 820.47,-276 832.47,-288 820.47,-300"/>
<text text-anchor="middle" x="724.47" y="-284.3" font-family="Times,serif" font-size="14.00">spec_a core throughput 1..1</text>
</g>
<!-- calib&#45;&gt;l4_spec_a_ctcal -->
<g id="edge18" class="edge">
<title>calib&#45;&gt;l4_spec_a_ctcal</title>
<path fill="none" stroke="black" d="M384.47,-468.74C384.47,-396.74 384.47,-288 384.47,-288 384.47,-288 606.43,-288 606.43,-288"/>
<polygon fill="black" stroke="black" points="606.43,-291.5 616.43,-288 606.43,-284.5 606.43,-291.5"/>
</g>
<!-- l4_spec_a_ndfilt -->
<g id="node32" class="node">
<title>l4_spec_a_ndfilt</title>
<polygon fill="none" stroke="black" points="793.47,-246 643.47,-246 643.47,-222 793.47,-222 805.47,-234 793.47,-246"/>
<text text-anchor="middle" x="724.47" y="-230.3" font-family="Times,serif" font-size="14.00">spec_a ND filter 1..1</text>
</g>
<!-- calib&#45;&gt;l4_spec_a_ndfilt -->
<g id="edge19" class="edge">
<title>calib&#45;&gt;l4_spec_a_ndfilt</title>
<path fill="none" stroke="black" d="M370.47,-468.74C370.47,-381.65 370.47,-234 370.47,-234 370.47,-234 633.26,-234 633.26,-234"/>
<polygon fill="black" stroke="black" points="633.26,-237.5 643.26,-234 633.26,-230.5 633.26,-237.5"/>
</g>
<!-- l4_spec_a_stmap -->
<g id="node33" class="node">
<title>l4_spec_a_stmap</title>
<polygon fill="none" stroke="black" points="839.47,-192 597.47,-192 597.47,-168 839.47,-168 851.47,-180 839.47,-192"/>
<text text-anchor="middle" x="724.47" y="-176.3" font-family="Times,serif" font-size="14.00">spec_a slit transmission map 1..1</text>
</g>
<!-- calib&#45;&gt;l4_spec_a_stmap -->
<g id="edge20" class="edge">
<title>calib&#45;&gt;l4_spec_a_stmap</title>
<path fill="none" stroke="black" d="M409.31,-477.3C471.95,-477.3 604.47,-477.3 604.47,-477.3 604.47,-477.3 604.47,-208.15 604.47,-208.15"/>
<polygon fill="black" stroke="black" points="607.97,-208.15 604.47,-198.15 600.97,-208.15 607.97,-208.15"/>
</g>
<!-- l4_spec_a_tspi -->
<g id="node34" class="node">
<title>l4_spec_a_tspi</title>
<polygon fill="none" stroke="black" points="847.97,-138 588.97,-138 588.97,-114 847.97,-114 859.97,-126 847.97,-138"/>
<text text-anchor="middle" x="724.47" y="-122.3" font-family="Times,serif" font-size="14.00">spec_a target star prism image 1..1</text>
</g>
<!-- calib&#45;&gt;l4_spec_a_tspi -->
<g id="edge21" class="edge">
<title>calib&#45;&gt;l4_spec_a_tspi</title>
<path fill="none" stroke="black" d="M356.47,-472.11C356.47,-359.78 356.47,-126 356.47,-126 356.47,-126 578.75,-126 578.75,-126"/>
<polygon fill="black" stroke="black" points="578.75,-129.5 588.75,-126 578.75,-122.5 578.75,-129.5"/>
</g>
<!-- l4_spec_a_rspi -->
<g id="node35" class="node">
<title>l4_spec_a_rspi</title>
<polygon fill="none" stroke="black" points="859.97,-84 576.97,-84 576.97,-60 859.97,-60 871.97,-72 859.97,-84"/>
<text text-anchor="middle" x="724.47" y="-68.3" font-family="Times,serif" font-size="14.00">spec_a reference star prism image 1..1</text>
</g>
<!-- calib&#45;&gt;l4_spec_a_rspi -->
<g id="edge22" class="edge">
<title>calib&#45;&gt;l4_spec_a_rspi</title>
<path fill="none" stroke="black" d="M343.47,-478.35C343.47,-357.78 343.47,-72 343.47,-72 343.47,-72 566.89,-72 566.89,-72"/>
<polygon fill="black" stroke="black" points="566.89,-75.5 576.89,-72 566.89,-68.5 566.89,-75.5"/>
</g>
<!-- l4_spec_a_lsf -->
<g id="node36" class="node">
<title>l4_spec_a_lsf</title>
<polygon fill="none" stroke="black" points="851.47,-30 585.47,-30 585.47,-6 851.47,-6 863.47,-18 851.47,-30"/>
<text text-anchor="middle" x="724.47" y="-14.3" font-family="Times,serif" font-size="14.00">spec_a ND filter line spread function</text>
</g>
<!-- calib&#45;&gt;l4_spec_a_lsf -->
<g id="edge23" class="edge">
<title>calib&#45;&gt;l4_spec_a_lsf</title>
<path fill="none" stroke="black" d="M329.47,-490.75C329.47,-369.81 329.47,-18 329.47,-18 329.47,-18 575.21,-18 575.21,-18"/>
<polygon fill="black" stroke="black" points="575.21,-21.5 585.21,-18 575.21,-14.5 575.21,-21.5"/>
</g>
<!-- config -->
<g id="node5" class="node">
<title>config</title>
<ellipse fill="none" stroke="black" cx="91" cy="-1392" rx="74.19" ry="74.19"/>
<text text-anchor="middle" x="91" y="-1388.3" font-family="Times,serif" font-size="14.00">Configuration</text>
</g>
<!-- l1_spec_a_odir -->
<g id="node7" class="node">
<title>l1_spec_a_odir</title>
<ellipse fill="none" stroke="black" cx="377.24" cy="-1500" rx="153.27" ry="18"/>
<text text-anchor="middle" x="377.24" y="-1496.3" font-family="Times,serif" font-size="14.00">Output path for L1_spec_a 1..1</text>
</g>
<!-- config&#45;&gt;l1_spec_a_odir -->
<g id="edge24" class="edge">
<title>config&#45;&gt;l1_spec_a_odir</title>
<path fill="none" stroke="black" d="M91.47,-1466.12C91.47,-1484.97 91.47,-1500 91.47,-1500 91.47,-1500 213.48,-1500 213.48,-1500"/>
<polygon fill="black" stroke="black" points="213.48,-1503.5 223.48,-1500 213.48,-1496.5 213.48,-1503.5"/>
</g>
<!-- l2a_spec_a_odir -->
<g id="node10" class="node">
<title>l2a_spec_a_odir</title>
<ellipse fill="none" stroke="black" cx="377.24" cy="-1446" rx="159.47" ry="18"/>
<text text-anchor="middle" x="377.24" y="-1442.3" font-family="Times,serif" font-size="14.00">Output path for L2a_spec_a 1..1</text>
</g>
<!-- config&#45;&gt;l2a_spec_a_odir -->
<g id="edge25" class="edge">
<title>config&#45;&gt;l2a_spec_a_odir</title>
<path fill="none" stroke="black" d="M141.84,-1446C141.84,-1446 207.89,-1446 207.89,-1446"/>
<polygon fill="black" stroke="black" points="207.89,-1449.5 217.89,-1446 207.89,-1442.5 207.89,-1449.5"/>
</g>
<!-- l2b_spec_a_odir -->
<g id="node18" class="node">
<title>l2b_spec_a_odir</title>
<ellipse fill="none" stroke="black" cx="377.24" cy="-1392" rx="159.47" ry="18"/>
<text text-anchor="middle" x="377.24" y="-1388.3" font-family="Times,serif" font-size="14.00">Output path for L2b_spec_a 1..1</text>
</g>
<!-- config&#45;&gt;l2b_spec_a_odir -->
<g id="edge26" class="edge">
<title>config&#45;&gt;l2b_spec_a_odir</title>
<path fill="none" stroke="black" d="M165.46,-1392C165.46,-1392 207.88,-1392 207.88,-1392"/>
<polygon fill="black" stroke="black" points="207.88,-1395.5 217.88,-1392 207.88,-1388.5 207.88,-1395.5"/>
</g>
<!-- l3_spec_a_odir -->
<g id="node24" class="node">
<title>l3_spec_a_odir</title>
<ellipse fill="none" stroke="black" cx="377.24" cy="-1338" rx="153.27" ry="18"/>
<text text-anchor="middle" x="377.24" y="-1334.3" font-family="Times,serif" font-size="14.00">Output path for L3_spec_a 1..1</text>
</g>
<!-- config&#45;&gt;l3_spec_a_odir -->
<g id="edge27" class="edge">
<title>config&#45;&gt;l3_spec_a_odir</title>
<path fill="none" stroke="black" d="M141.84,-1338C141.84,-1338 213.69,-1338 213.69,-1338"/>
<polygon fill="black" stroke="black" points="213.69,-1341.5 223.69,-1338 213.69,-1334.5 213.69,-1341.5"/>
</g>
<!-- l4_spec_a_odir -->
<g id="node28" class="node">
<title>l4_spec_a_odir</title>
<ellipse fill="none" stroke="black" cx="377.24" cy="-1284" rx="153.27" ry="18"/>
<text text-anchor="middle" x="377.24" y="-1280.3" font-family="Times,serif" font-size="14.00">Output path for L4_spec_a 1..1</text>
</g>
<!-- config&#45;&gt;l4_spec_a_odir -->
<g id="edge28" class="edge">
<title>config&#45;&gt;l4_spec_a_odir</title>
<path fill="none" stroke="black" d="M91.47,-1317.88C91.47,-1299.03 91.47,-1284 91.47,-1284 91.47,-1284 213.48,-1284 213.48,-1284"/>
<polygon fill="black" stroke="black" points="213.48,-1287.5 223.48,-1284 213.48,-1280.5 213.48,-1287.5"/>
</g>
<!-- l1_spec_a_rec -->
<g id="node8" class="node">
<title>l1_spec_a_rec</title>
<polygon fill="none" stroke="black" points="796.97,-1326 639.97,-1326 639.97,-1302 796.97,-1302 808.97,-1314 796.97,-1326"/>
<text text-anchor="middle" x="724.47" y="-1310.3" font-family="Times,serif" font-size="14.00">recipe L1_spec_a 1..1</text>
</g>
<!-- recipe&#45;&gt;l1_spec_a_rec -->
<g id="edge29" class="edge">
<title>recipe&#45;&gt;l1_spec_a_rec</title>
<path fill="none" stroke="black" d="M409.74,-1233C460.91,-1233 554.47,-1233 554.47,-1233 554.47,-1233 554.47,-1309.95 554.47,-1309.95 554.47,-1309.95 629.97,-1309.95 629.97,-1309.95"/>
<polygon fill="black" stroke="black" points="629.97,-1313.45 639.97,-1309.95 629.97,-1306.45 629.97,-1313.45"/>
</g>
<!-- l2a_spec_a_rec -->
<g id="node11" class="node">
<title>l2a_spec_a_rec</title>
<polygon fill="none" stroke="black" points="800.97,-1272 635.97,-1272 635.97,-1248 800.97,-1248 812.97,-1260 800.97,-1272"/>
<text text-anchor="middle" x="724.47" y="-1256.3" font-family="Times,serif" font-size="14.00">recipe L2a_spec_a 1..1</text>
</g>
<!-- recipe&#45;&gt;l2a_spec_a_rec -->
<g id="edge30" class="edge">
<title>recipe&#45;&gt;l2a_spec_a_rec</title>
<path fill="none" stroke="black" d="M377.47,-1248.68C377.47,-1253.73 377.47,-1257.12 377.47,-1257.12 377.47,-1257.12 625.56,-1257.12 625.56,-1257.12"/>
<polygon fill="black" stroke="black" points="625.56,-1260.62 635.56,-1257.12 625.56,-1253.62 625.56,-1260.62"/>
</g>
<!-- l2b_spec_a_rec -->
<g id="node19" class="node">
<title>l2b_spec_a_rec</title>
<polygon fill="none" stroke="black" points="801.47,-1218 635.47,-1218 635.47,-1194 801.47,-1194 813.47,-1206 801.47,-1218"/>
<text text-anchor="middle" x="724.47" y="-1202.3" font-family="Times,serif" font-size="14.00">recipe L2b_spec_a 1..1</text>
</g>
<!-- recipe&#45;&gt;l2b_spec_a_rec -->
<g id="edge31" class="edge">
<title>recipe&#45;&gt;l2b_spec_a_rec</title>
<path fill="none" stroke="black" d="M419.81,-1206C419.81,-1206 625.12,-1206 625.12,-1206"/>
<polygon fill="black" stroke="black" points="625.12,-1209.5 635.12,-1206 625.12,-1202.5 625.12,-1209.5"/>
</g>
<!-- l3_spec_a_rec -->
<g id="node25" class="node">
<title>l3_spec_a_rec</title>
<polygon fill="none" stroke="black" points="796.97,-1164 639.97,-1164 639.97,-1140 796.97,-1140 808.97,-1152 796.97,-1164"/>
<text text-anchor="middle" x="724.47" y="-1148.3" font-family="Times,serif" font-size="14.00">recipe L3_spec_a 1..1</text>
</g>
<!-- recipe&#45;&gt;l3_spec_a_rec -->
<g id="edge32" class="edge">
<title>recipe&#45;&gt;l3_spec_a_rec</title>
<path fill="none" stroke="black" d="M391.47,-1166.02C391.47,-1156.42 391.47,-1148.88 391.47,-1148.88 391.47,-1148.88 629.58,-1148.88 629.58,-1148.88"/>
<polygon fill="black" stroke="black" points="629.58,-1152.38 639.58,-1148.88 629.58,-1145.38 629.58,-1152.38"/>
</g>
<!-- l4_spec_a_rec -->
<g id="node29" class="node">
<title>l4_spec_a_rec</title>
<polygon fill="none" stroke="black" points="796.97,-1110 639.97,-1110 639.97,-1086 796.97,-1086 808.97,-1098 796.97,-1110"/>
<text text-anchor="middle" x="724.47" y="-1094.3" font-family="Times,serif" font-size="14.00">recipe L4_spec_a 1..1</text>
</g>
<!-- recipe&#45;&gt;l4_spec_a_rec -->
<g id="edge33" class="edge">
<title>recipe&#45;&gt;l4_spec_a_rec</title>
<path fill="none" stroke="black" d="M363.47,-1165.78C363.47,-1135.08 363.47,-1098 363.47,-1098 363.47,-1098 629.83,-1098 629.83,-1098"/>
<polygon fill="black" stroke="black" points="629.83,-1101.5 639.83,-1098 629.83,-1094.5 629.83,-1101.5"/>
</g>
</g>
</svg>
