<?xml version="1.0" encoding="UTF-8" standalone="no"?>
<!DOCTYPE svg PUBLIC "-//W3C//DTD SVG 1.1//EN"
 "http://www.w3.org/Graphics/SVG/1.1/DTD/svg11.dtd">
<!-- Generated by graphviz version 2.43.0 (0)
 -->
<!-- Title: WFOVAClerks Pages: 1 -->
<svg width="731pt" height="1340pt"
 viewBox="0.00 0.00 731.26 1340.00" xmlns="http://www.w3.org/2000/svg" xmlns:xlink="http://www.w3.org/1999/xlink">
<g id="graph0" class="graph" transform="scale(1 1) rotate(0) translate(4 1336)">
<title>WFOVAClerks</title>
<polygon fill="white" stroke="transparent" points="-4,4 -4,-1336 727.26,-1336 727.26,4 -4,4"/>
<!-- alarm_cal -->
<g id="node1" class="node">
<title>alarm_cal</title>
<text text-anchor="middle" x="91" y="-392.3" font-family="Times,serif" font-size="14.00">User requested update</text>
</g>
<!-- calib -->
<g id="node4" class="node">
<title>calib</title>
<ellipse fill="none" stroke="black" cx="292.09" cy="-396" rx="62.29" ry="62.29"/>
<text text-anchor="middle" x="292.09" y="-392.3" font-family="Times,serif" font-size="14.00">Calibration</text>
</g>
<!-- alarm_cal&#45;&gt;calib -->
<g id="edge1" class="edge">
<title>alarm_cal&#45;&gt;calib</title>
<path fill="none" stroke="black" stroke-dasharray="5,2" d="M182.13,-396C182.13,-396 219.47,-396 219.47,-396"/>
<polygon fill="black" stroke="black" points="219.47,-399.5 229.47,-396 219.47,-392.5 219.47,-399.5"/>
</g>
<!-- alarm_cnf -->
<g id="node2" class="node">
<title>alarm_cnf</title>
<text text-anchor="middle" x="91" y="-932.3" font-family="Times,serif" font-size="14.00">User requested update</text>
</g>
<!-- config -->
<g id="node5" class="node">
<title>config</title>
<ellipse fill="none" stroke="black" cx="292.09" cy="-936" rx="74.19" ry="74.19"/>
<text text-anchor="middle" x="292.09" y="-932.3" font-family="Times,serif" font-size="14.00">Configuration</text>
</g>
<!-- alarm_cnf&#45;&gt;config -->
<g id="edge2" class="edge">
<title>alarm_cnf&#45;&gt;config</title>
<path fill="none" stroke="black" stroke-dasharray="5,2" d="M182.13,-936C182.13,-936 207.84,-936 207.84,-936"/>
<polygon fill="black" stroke="black" points="207.84,-939.5 217.84,-936 207.84,-932.5 207.84,-939.5"/>
</g>
<!-- alarm_rec -->
<g id="node3" class="node">
<title>alarm_rec</title>
<text text-anchor="middle" x="91" y="-1202.3" font-family="Times,serif" font-size="14.00">User requested update</text>
</g>
<!-- recipe -->
<g id="node6" class="node">
<title>recipe</title>
<ellipse fill="none" stroke="black" cx="292.09" cy="-1206" rx="42.49" ry="42.49"/>
<text text-anchor="middle" x="292.09" y="-1202.3" font-family="Times,serif" font-size="14.00">Recipe</text>
</g>
<!-- alarm_rec&#45;&gt;recipe -->
<g id="edge3" class="edge">
<title>alarm_rec&#45;&gt;recipe</title>
<path fill="none" stroke="black" stroke-dasharray="5,2" d="M182.13,-1206C182.13,-1206 239.74,-1206 239.74,-1206"/>
<polygon fill="black" stroke="black" points="239.74,-1209.5 249.74,-1206 239.74,-1202.5 239.74,-1209.5"/>
</g>
<!-- l1_wfov_a_nllut -->
<g id="node9" class="node">
<title>l1_wfov_a_nllut</title>
<polygon fill="none" stroke="black" points="651.22,-786 462.22,-786 462.22,-762 651.22,-762 663.22,-774 651.22,-786"/>
<text text-anchor="middle" x="562.72" y="-770.3" font-family="Times,serif" font-size="14.00">non linear calibration 1..1</text>
</g>
<!-- calib&#45;&gt;l1_wfov_a_nllut -->
<g id="edge4" class="edge">
<title>calib&#45;&gt;l1_wfov_a_nllut</title>
<path fill="none" stroke="black" d="M255.26,-446.59C255.26,-549.59 255.26,-774 255.26,-774 255.26,-774 452.05,-774 452.05,-774"/>
<polygon fill="black" stroke="black" points="452.05,-777.5 462.05,-774 452.05,-770.5 452.05,-777.5"/>
</g>
<!-- l2a_wfov_a_mbpm -->
<g id="node12" class="node">
<title>l2a_wfov_a_mbpm</title>
<polygon fill="none" stroke="black" points="651.72,-732 461.72,-732 461.72,-708 651.72,-708 663.72,-720 651.72,-732"/>
<text text-anchor="middle" x="562.72" y="-716.3" font-family="Times,serif" font-size="14.00">wfov_a bad pixel map 1..1</text>
</g>
<!-- calib&#45;&gt;l2a_wfov_a_mbpm -->
<g id="edge5" class="edge">
<title>calib&#45;&gt;l2a_wfov_a_mbpm</title>
<path fill="none" stroke="black" d="M280.26,-457.32C280.26,-551.25 280.26,-720 280.26,-720 280.26,-720 451.54,-720 451.54,-720"/>
<polygon fill="black" stroke="black" points="451.54,-723.5 461.54,-720 451.54,-716.5 451.54,-723.5"/>
</g>
<!-- l2a_wfov_a_dnb -->
<g id="node13" class="node">
<title>l2a_wfov_a_dnb</title>
<polygon fill="none" stroke="black" points="703.22,-678 410.22,-678 410.22,-654 703.22,-654 715.22,-666 703.22,-678"/>
<text text-anchor="middle" x="562.72" y="-662.3" font-family="Times,serif" font-size="14.00">wfov_a dark (CIC/FPN/dark current) 1..1</text>
</g>
<!-- calib&#45;&gt;l2a_wfov_a_dnb -->
<g id="edge6" class="edge">
<title>calib&#45;&gt;l2a_wfov_a_dnb</title>
<path fill="none" stroke="black" d="M320.27,-451.8C356.9,-451.8 416.26,-451.8 416.26,-451.8 416.26,-451.8 416.26,-637.74 416.26,-637.74"/>
<polygon fill="black" stroke="black" points="412.76,-637.74 416.26,-647.74 419.76,-637.74 412.76,-637.74"/>
</g>
<!-- l2a_wfov_a_cti -->
<g id="node14" class="node">
<title>l2a_wfov_a_cti</title>
<polygon fill="none" stroke="black" points="692.72,-624 420.72,-624 420.72,-600 692.72,-600 704.72,-612 692.72,-624"/>
<text text-anchor="middle" x="562.72" y="-608.3" font-family="Times,serif" font-size="14.00">wfov_a charge transfer efficiency 1..1</text>
</g>
<!-- calib&#45;&gt;l2a_wfov_a_cti -->
<g id="edge7" class="edge">
<title>calib&#45;&gt;l2a_wfov_a_cti</title>
<path fill="none" stroke="black" d="M330.83,-445.2C370.77,-445.2 427.26,-445.2 427.26,-445.2 427.26,-445.2 427.26,-583.83 427.26,-583.83"/>
<polygon fill="black" stroke="black" points="423.76,-583.83 427.26,-593.83 430.76,-583.83 423.76,-583.83"/>
</g>
<!-- l2a_wfov_a_ff -->
<g id="node15" class="node">
<title>l2a_wfov_a_ff</title>
<polygon fill="none" stroke="black" points="630.72,-570 482.72,-570 482.72,-546 630.72,-546 642.72,-558 630.72,-570"/>
<text text-anchor="middle" x="562.72" y="-554.3" font-family="Times,serif" font-size="14.00">wfov_a flat field 1..1</text>
</g>
<!-- calib&#45;&gt;l2a_wfov_a_ff -->
<g id="edge8" class="edge">
<title>calib&#45;&gt;l2a_wfov_a_ff</title>
<path fill="none" stroke="black" d="M305.26,-457.25C305.26,-503.12 305.26,-558 305.26,-558 305.26,-558 472.67,-558 472.67,-558"/>
<polygon fill="black" stroke="black" points="472.67,-561.5 482.67,-558 472.67,-554.5 472.67,-561.5"/>
</g>
<!-- l2a_wfov_a_kgain -->
<g id="node16" class="node">
<title>l2a_wfov_a_kgain</title>
<polygon fill="none" stroke="black" points="623.22,-516 490.22,-516 490.22,-492 623.22,-492 635.22,-504 623.22,-516"/>
<text text-anchor="middle" x="562.72" y="-500.3" font-family="Times,serif" font-size="14.00">wfov_a k&#45;gain 1..1</text>
</g>
<!-- calib&#45;&gt;l2a_wfov_a_kgain -->
<g id="edge9" class="edge">
<title>calib&#45;&gt;l2a_wfov_a_kgain</title>
<path fill="none" stroke="black" d="M330.26,-445.57C330.26,-473.97 330.26,-504 330.26,-504 330.26,-504 480.13,-504 480.13,-504"/>
<polygon fill="black" stroke="black" points="480.13,-507.5 490.13,-504 480.13,-500.5 480.13,-507.5"/>
</g>
<!-- l2a_wfov_a_emg -->
<g id="node17" class="node">
<title>l2a_wfov_a_emg</title>
<polygon fill="none" stroke="black" points="631.22,-462 482.22,-462 482.22,-438 631.22,-438 643.22,-450 631.22,-462"/>
<text text-anchor="middle" x="562.72" y="-446.3" font-family="Times,serif" font-size="14.00">wfov_a EM gain 1..1</text>
</g>
<!-- calib&#45;&gt;l2a_wfov_a_emg -->
<g id="edge10" class="edge">
<title>calib&#45;&gt;l2a_wfov_a_emg</title>
<path fill="none" stroke="black" d="M337.7,-438.6C337.7,-438.6 472.12,-438.6 472.12,-438.6"/>
<polygon fill="black" stroke="black" points="472.12,-442.1 482.12,-438.6 472.12,-435.1 472.12,-442.1"/>
</g>
<!-- l2b_wfov_a_distm -->
<g id="node20" class="node">
<title>l2b_wfov_a_distm</title>
<polygon fill="none" stroke="black" points="653.72,-408 459.72,-408 459.72,-384 653.72,-384 665.72,-396 653.72,-408"/>
<text text-anchor="middle" x="562.72" y="-392.3" font-family="Times,serif" font-size="14.00">wfov_a distortion map 1..1</text>
</g>
<!-- calib&#45;&gt;l2b_wfov_a_distm -->
<g id="edge11" class="edge">
<title>calib&#45;&gt;l2b_wfov_a_distm</title>
<path fill="none" stroke="black" d="M354.52,-396C354.52,-396 449.52,-396 449.52,-396"/>
<polygon fill="black" stroke="black" points="449.52,-399.5 459.52,-396 449.52,-392.5 449.52,-399.5"/>
</g>
<!-- l2b_wfov_a_excicrf -->
<g id="node21" class="node">
<title>l2b_wfov_a_excicrf</title>
<polygon fill="none" stroke="black" points="679.22,-354 434.22,-354 434.22,-330 679.22,-330 691.22,-342 679.22,-354"/>
<text text-anchor="middle" x="562.72" y="-338.3" font-family="Times,serif" font-size="14.00">wfov_a EXCAM ICRF location 1..1</text>
</g>
<!-- calib&#45;&gt;l2b_wfov_a_excicrf -->
<g id="edge12" class="edge">
<title>calib&#45;&gt;l2b_wfov_a_excicrf</title>
<path fill="none" stroke="black" d="M330.58,-346.8C330.58,-346.8 424.15,-346.8 424.15,-346.8"/>
<polygon fill="black" stroke="black" points="424.15,-350.3 434.15,-346.8 424.15,-343.3 424.15,-350.3"/>
</g>
<!-- l2b_wfov_a_excfovps -->
<g id="node22" class="node">
<title>l2b_wfov_a_excfovps</title>
<polygon fill="none" stroke="black" points="681.22,-300 432.22,-300 432.22,-276 681.22,-276 693.22,-288 681.22,-300"/>
<text text-anchor="middle" x="562.72" y="-284.3" font-family="Times,serif" font-size="14.00">wfov_a ECAM FOV pixel scale 1..1</text>
</g>
<!-- calib&#45;&gt;l2b_wfov_a_excfovps -->
<g id="edge13" class="edge">
<title>calib&#45;&gt;l2b_wfov_a_excfovps</title>
<path fill="none" stroke="black" d="M337.26,-352.69C337.26,-322.65 337.26,-288 337.26,-288 337.26,-288 422.22,-288 422.22,-288"/>
<polygon fill="black" stroke="black" points="422.22,-291.5 432.22,-288 422.22,-284.5 422.22,-291.5"/>
</g>
<!-- l3_wfov_a_ast -->
<g id="node25" class="node">
<title>l3_wfov_a_ast</title>
<polygon fill="none" stroke="black" points="641.22,-246 472.22,-246 472.22,-222 641.22,-222 653.22,-234 641.22,-246"/>
<text text-anchor="middle" x="562.72" y="-230.3" font-family="Times,serif" font-size="14.00">wfov_a astrometry 1..1</text>
</g>
<!-- calib&#45;&gt;l3_wfov_a_ast -->
<g id="edge14" class="edge">
<title>calib&#45;&gt;l3_wfov_a_ast</title>
<path fill="none" stroke="black" d="M319.26,-339.79C319.26,-293.01 319.26,-234 319.26,-234 319.26,-234 462.07,-234 462.07,-234"/>
<polygon fill="black" stroke="black" points="462.07,-237.5 472.07,-234 462.07,-230.5 462.07,-237.5"/>
</g>
<!-- l3_wfov_a_ndf -->
<g id="node26" class="node">
<title>l3_wfov_a_ndf</title>
<polygon fill="none" stroke="black" points="641.22,-192 472.22,-192 472.22,-168 641.22,-168 653.22,-180 641.22,-192"/>
<text text-anchor="middle" x="562.72" y="-176.3" font-family="Times,serif" font-size="14.00">wfov_a astrometry 1..1</text>
</g>
<!-- calib&#45;&gt;l3_wfov_a_ndf -->
<g id="edge15" class="edge">
<title>calib&#45;&gt;l3_wfov_a_ndf</title>
<path fill="none" stroke="black" d="M301.26,-334.1C301.26,-270.28 301.26,-180 301.26,-180 301.26,-180 462.01,-180 462.01,-180"/>
<polygon fill="black" stroke="black" points="462.01,-183.5 472.01,-180 462.01,-176.5 462.01,-183.5"/>
</g>
<!-- l4_wfov_a_afcal -->
<g id="node29" class="node">
<title>l4_wfov_a_afcal</title>
<polygon fill="none" stroke="black" points="647.22,-138 466.22,-138 466.22,-114 647.22,-114 659.22,-126 647.22,-138"/>
<text text-anchor="middle" x="562.72" y="-122.3" font-family="Times,serif" font-size="14.00">wfov_a absolute flux 1..1</text>
</g>
<!-- calib&#45;&gt;l4_wfov_a_afcal -->
<g id="edge16" class="edge">
<title>calib&#45;&gt;l4_wfov_a_afcal</title>
<path fill="none" stroke="black" d="M283.26,-334.06C283.26,-254.34 283.26,-126 283.26,-126 283.26,-126 456.16,-126 456.16,-126"/>
<polygon fill="black" stroke="black" points="456.16,-129.5 466.16,-126 456.16,-122.5 456.16,-129.5"/>
</g>
<!-- l4_wfov_a_ctcal -->
<g id="node30" class="node">
<title>l4_wfov_a_ctcal</title>
<polygon fill="none" stroke="black" points="659.72,-84 453.72,-84 453.72,-60 659.72,-60 671.72,-72 659.72,-84"/>
<text text-anchor="middle" x="562.72" y="-68.3" font-family="Times,serif" font-size="14.00">wfov_a core throughput 1..1</text>
</g>
<!-- calib&#45;&gt;l4_wfov_a_ctcal -->
<g id="edge17" class="edge">
<title>calib&#45;&gt;l4_wfov_a_ctcal</title>
<path fill="none" stroke="black" d="M266.26,-339.19C266.26,-246.27 266.26,-72 266.26,-72 266.26,-72 443.59,-72 443.59,-72"/>
<polygon fill="black" stroke="black" points="443.59,-75.5 453.59,-72 443.59,-68.5 443.59,-75.5"/>
</g>
<!-- l4_wfov_a_ndfilt -->
<g id="node31" class="node">
<title>l4_wfov_a_ndfilt</title>
<polygon fill="none" stroke="black" points="632.72,-30 480.72,-30 480.72,-6 632.72,-6 644.72,-18 632.72,-30"/>
<text text-anchor="middle" x="562.72" y="-14.3" font-family="Times,serif" font-size="14.00">wfov_a ND filter 1..1</text>
</g>
<!-- calib&#45;&gt;l4_wfov_a_ndfilt -->
<g id="edge18" class="edge">
<title>calib&#45;&gt;l4_wfov_a_ndfilt</title>
<path fill="none" stroke="black" d="M248.26,-351.53C248.26,-251.61 248.26,-18 248.26,-18 248.26,-18 470.51,-18 470.51,-18"/>
<polygon fill="black" stroke="black" points="470.51,-21.5 480.51,-18 470.51,-14.5 470.51,-21.5"/>
</g>
<!-- l1_wfov_a_odir -->
<g id="node7" class="node">
<title>l1_wfov_a_odir</title>
<ellipse fill="none" stroke="black" cx="562.72" cy="-1044" rx="154.87" ry="18"/>
<text text-anchor="middle" x="562.72" y="-1040.3" font-family="Times,serif" font-size="14.00">Output path for L1_wfov_a 1..1</text>
</g>
<!-- config&#45;&gt;l1_wfov_a_odir -->
<g id="edge19" class="edge">
<title>config&#45;&gt;l1_wfov_a_odir</title>
<path fill="none" stroke="black" d="M351.26,-980.86C351.26,-1010.54 351.26,-1044 351.26,-1044 351.26,-1044 397.93,-1044 397.93,-1044"/>
<polygon fill="black" stroke="black" points="397.93,-1047.5 407.93,-1044 397.93,-1040.5 397.93,-1047.5"/>
</g>
<!-- l2a_wfov_a_odir -->
<g id="node10" class="node">
<title>l2a_wfov_a_odir</title>
<ellipse fill="none" stroke="black" cx="562.72" cy="-990" rx="159.77" ry="18"/>
<text text-anchor="middle" x="562.72" y="-986.3" font-family="Times,serif" font-size="14.00">Output path for L2a_wfov_a 1..1</text>
</g>
<!-- config&#45;&gt;l2a_wfov_a_odir -->
<g id="edge20" class="edge">
<title>config&#45;&gt;l2a_wfov_a_odir</title>
<path fill="none" stroke="black" d="M343,-990C343,-990 392.75,-990 392.75,-990"/>
<polygon fill="black" stroke="black" points="392.75,-993.5 402.75,-990 392.75,-986.5 392.75,-993.5"/>
</g>
<!-- l2b_wfov_a_odir -->
<g id="node18" class="node">
<title>l2b_wfov_a_odir</title>
<ellipse fill="none" stroke="black" cx="562.72" cy="-936" rx="160.57" ry="18"/>
<text text-anchor="middle" x="562.72" y="-932.3" font-family="Times,serif" font-size="14.00">Output path for L2b_wfov_a 1..1</text>
</g>
<!-- config&#45;&gt;l2b_wfov_a_odir -->
<g id="edge21" class="edge">
<title>config&#45;&gt;l2b_wfov_a_odir</title>
<path fill="none" stroke="black" d="M366.4,-936C366.4,-936 392.17,-936 392.17,-936"/>
<polygon fill="black" stroke="black" points="392.17,-939.5 402.17,-936 392.17,-932.5 392.17,-939.5"/>
</g>
<!-- l3_wfov_a_odir -->
<g id="node23" class="node">
<title>l3_wfov_a_odir</title>
<ellipse fill="none" stroke="black" cx="562.72" cy="-882" rx="154.87" ry="18"/>
<text text-anchor="middle" x="562.72" y="-878.3" font-family="Times,serif" font-size="14.00">Output path for L3_wfov_a 1..1</text>
</g>
<!-- config&#45;&gt;l3_wfov_a_odir -->
<g id="edge22" class="edge">
<title>config&#45;&gt;l3_wfov_a_odir</title>
<path fill="none" stroke="black" d="M343,-882C343,-882 397.84,-882 397.84,-882"/>
<polygon fill="black" stroke="black" points="397.84,-885.5 407.84,-882 397.84,-878.5 397.84,-885.5"/>
</g>
<!-- l4_wfov_a_odir -->
<g id="node27" class="node">
<title>l4_wfov_a_odir</title>
<ellipse fill="none" stroke="black" cx="562.72" cy="-828" rx="154.87" ry="18"/>
<text text-anchor="middle" x="562.72" y="-824.3" font-family="Times,serif" font-size="14.00">Output path for L4_wfov_a 1..1</text>
</g>
<!-- config&#45;&gt;l4_wfov_a_odir -->
<g id="edge23" class="edge">
<title>config&#45;&gt;l4_wfov_a_odir</title>
<path fill="none" stroke="black" d="M361.26,-909.3C361.26,-877.32 361.26,-828 361.26,-828 361.26,-828 397.98,-828 397.98,-828"/>
<polygon fill="black" stroke="black" points="397.98,-831.5 407.98,-828 397.98,-824.5 397.98,-831.5"/>
</g>
<!-- l1_wfov_a_rec -->
<g id="node8" class="node">
<title>l1_wfov_a_rec</title>
<polygon fill="none" stroke="black" points="635.72,-1326 477.72,-1326 477.72,-1302 635.72,-1302 647.72,-1314 635.72,-1326"/>
<text text-anchor="middle" x="562.72" y="-1310.3" font-family="Times,serif" font-size="14.00">recipe L1_wfov_a 1..1</text>
</g>
<!-- recipe&#45;&gt;l1_wfov_a_rec -->
<g id="edge24" class="edge">
<title>recipe&#45;&gt;l1_wfov_a_rec</title>
<path fill="none" stroke="black" d="M278.26,-1246.22C278.26,-1276.92 278.26,-1314 278.26,-1314 278.26,-1314 467.37,-1314 467.37,-1314"/>
<polygon fill="black" stroke="black" points="467.37,-1317.5 477.37,-1314 467.37,-1310.5 467.37,-1317.5"/>
</g>
<!-- l2a_wfov_a_rec -->
<g id="node11" class="node">
<title>l2a_wfov_a_rec</title>
<polygon fill="none" stroke="black" points="640.22,-1272 473.22,-1272 473.22,-1248 640.22,-1248 652.22,-1260 640.22,-1272"/>
<text text-anchor="middle" x="562.72" y="-1256.3" font-family="Times,serif" font-size="14.00">recipe L2a_wfov_a 1..1</text>
</g>
<!-- recipe&#45;&gt;l2a_wfov_a_rec -->
<g id="edge25" class="edge">
<title>recipe&#45;&gt;l2a_wfov_a_rec</title>
<path fill="none" stroke="black" d="M306.26,-1245.98C306.26,-1255.58 306.26,-1263.12 306.26,-1263.12 306.26,-1263.12 463.02,-1263.12 463.02,-1263.12"/>
<polygon fill="black" stroke="black" points="463.02,-1266.62 473.02,-1263.12 463.02,-1259.62 463.02,-1266.62"/>
</g>
<!-- l2b_wfov_a_rec -->
<g id="node19" class="node">
<title>l2b_wfov_a_rec</title>
<polygon fill="none" stroke="black" points="640.22,-1218 473.22,-1218 473.22,-1194 640.22,-1194 652.22,-1206 640.22,-1218"/>
<text text-anchor="middle" x="562.72" y="-1202.3" font-family="Times,serif" font-size="14.00">recipe L2b_wfov_a 1..1</text>
</g>
<!-- recipe&#45;&gt;l2b_wfov_a_rec -->
<g id="edge26" class="edge">
<title>recipe&#45;&gt;l2b_wfov_a_rec</title>
<path fill="none" stroke="black" d="M334.38,-1206C334.38,-1206 463.17,-1206 463.17,-1206"/>
<polygon fill="black" stroke="black" points="463.17,-1209.5 473.17,-1206 463.17,-1202.5 463.17,-1209.5"/>
</g>
<!-- l3_wfov_a_rec -->
<g id="node24" class="node">
<title>l3_wfov_a_rec</title>
<polygon fill="none" stroke="black" points="635.72,-1164 477.72,-1164 477.72,-1140 635.72,-1140 647.72,-1152 635.72,-1164"/>
<text text-anchor="middle" x="562.72" y="-1148.3" font-family="Times,serif" font-size="14.00">recipe L3_wfov_a 1..1</text>
</g>
<!-- recipe&#45;&gt;l3_wfov_a_rec -->
<g id="edge27" class="edge">
<title>recipe&#45;&gt;l3_wfov_a_rec</title>
<path fill="none" stroke="black" d="M306.26,-1166.02C306.26,-1156.42 306.26,-1148.88 306.26,-1148.88 306.26,-1148.88 467.68,-1148.88 467.68,-1148.88"/>
<polygon fill="black" stroke="black" points="467.68,-1152.38 477.68,-1148.88 467.68,-1145.38 467.68,-1152.38"/>
</g>
<!-- l4_wfov_a_rec -->
<g id="node28" class="node">
<title>l4_wfov_a_rec</title>
<polygon fill="none" stroke="black" points="635.72,-1110 477.72,-1110 477.72,-1086 635.72,-1086 647.72,-1098 635.72,-1110"/>
<text text-anchor="middle" x="562.72" y="-1094.3" font-family="Times,serif" font-size="14.00">recipe L4_wfov_a 1..1</text>
</g>
<!-- recipe&#45;&gt;l4_wfov_a_rec -->
<g id="edge28" class="edge">
<title>recipe&#45;&gt;l4_wfov_a_rec</title>
<path fill="none" stroke="black" d="M278.26,-1165.78C278.26,-1135.08 278.26,-1098 278.26,-1098 278.26,-1098 467.37,-1098 467.37,-1098"/>
<polygon fill="black" stroke="black" points="467.37,-1101.5 477.37,-1098 467.37,-1094.5 467.37,-1101.5"/>
</g>
</g>
</svg>
