<?xml version="1.0" encoding="UTF-8" standalone="no"?>
<!DOCTYPE svg PUBLIC "-//W3C//DTD SVG 1.1//EN"
 "http://www.w3.org/Graphics/SVG/1.1/DTD/svg11.dtd">
<!-- Generated by graphviz version 2.43.0 (0)
 -->
<!-- Title: Clerks Pages: 1 -->
<svg width="907pt" height="1202pt"
 viewBox="0.00 0.00 907.47 1202.00" xmlns="http://www.w3.org/2000/svg" xmlns:xlink="http://www.w3.org/1999/xlink">
<g id="graph0" class="graph" transform="scale(1 1) rotate(0) translate(4 1198)">
<title>Clerks</title>
<polygon fill="white" stroke="transparent" points="-4,4 -4,-1198 903.47,-1198 903.47,4 -4,4"/>
<!-- alarm_cal -->
<g id="node1" class="node">
<title>alarm_cal</title>
<text text-anchor="middle" x="91" y="-392.3" font-family="Times,serif" font-size="14.00">User requested update</text>
</g>
<!-- calib -->
<g id="node4" class="node">
<title>calib</title>
<ellipse fill="none" stroke="black" cx="383.74" cy="-369" rx="62.29" ry="62.29"/>
<text text-anchor="middle" x="383.74" y="-365.3" font-family="Times,serif" font-size="14.00">Calibration</text>
</g>
<!-- alarm_cal&#45;&gt;calib -->
<g id="edge1" class="edge">
<title>alarm_cal&#45;&gt;calib</title>
<path fill="none" stroke="black" stroke-dasharray="5,2" d="M182.02,-396C182.02,-396 317.28,-396 317.28,-396"/>
<polygon fill="black" stroke="black" points="317.28,-399.5 327.28,-396 317.28,-392.5 317.28,-399.5"/>
</g>
<!-- alarm_cnf -->
<g id="node2" class="node">
<title>alarm_cnf</title>
<text text-anchor="middle" x="91" y="-338.3" font-family="Times,serif" font-size="14.00">User requested update</text>
</g>
<!-- alarm_cnf&#45;&gt;calib -->
<g id="edge2" class="edge">
<title>alarm_cnf&#45;&gt;calib</title>
<path fill="none" stroke="black" stroke-dasharray="5,2" d="M182.02,-342C182.02,-342 317.28,-342 317.28,-342"/>
<polygon fill="black" stroke="black" points="317.28,-345.5 327.28,-342 317.28,-338.5 317.28,-345.5"/>
</g>
<!-- alarm_rec -->
<g id="node3" class="node">
<title>alarm_rec</title>
<text text-anchor="middle" x="91" y="-878.3" font-family="Times,serif" font-size="14.00">User requested update</text>
</g>
<!-- recipe -->
<g id="node6" class="node">
<title>recipe</title>
<ellipse fill="none" stroke="black" cx="383.74" cy="-882" rx="42.49" ry="42.49"/>
<text text-anchor="middle" x="383.74" y="-878.3" font-family="Times,serif" font-size="14.00">Recipe</text>
</g>
<!-- alarm_rec&#45;&gt;recipe -->
<g id="edge3" class="edge">
<title>alarm_rec&#45;&gt;recipe</title>
<path fill="none" stroke="black" stroke-dasharray="5,2" d="M182.02,-882C182.02,-882 331.4,-882 331.4,-882"/>
<polygon fill="black" stroke="black" points="331.4,-885.5 341.4,-882 331.4,-878.5 331.4,-885.5"/>
</g>
<!-- l1_wfov_pc_nllut -->
<g id="node9" class="node">
<title>l1_wfov_pc_nllut</title>
<polygon fill="none" stroke="black" points="830.97,-732 641.97,-732 641.97,-708 830.97,-708 842.97,-720 830.97,-732"/>
<text text-anchor="middle" x="742.47" y="-716.3" font-family="Times,serif" font-size="14.00">non linear calibration 1..1</text>
</g>
<!-- calib&#45;&gt;l1_wfov_pc_nllut -->
<g id="edge4" class="edge">
<title>calib&#45;&gt;l1_wfov_pc_nllut</title>
<path fill="none" stroke="black" d="M431.47,-409.26C431.47,-501.46 431.47,-720 431.47,-720 431.47,-720 631.93,-720 631.93,-720"/>
<polygon fill="black" stroke="black" points="631.93,-723.5 641.93,-720 631.93,-716.5 631.93,-723.5"/>
</g>
<!-- l2a_wfov_pc_mbpm -->
<g id="node12" class="node">
<title>l2a_wfov_pc_mbpm</title>
<polygon fill="none" stroke="black" points="835.47,-678 637.47,-678 637.47,-654 835.47,-654 847.47,-666 835.47,-678"/>
<text text-anchor="middle" x="742.47" y="-662.3" font-family="Times,serif" font-size="14.00">wfov_pc bad pixel map 1..1</text>
</g>
<!-- calib&#45;&gt;l2a_wfov_pc_mbpm -->
<g id="edge5" class="edge">
<title>calib&#45;&gt;l2a_wfov_pc_mbpm</title>
<path fill="none" stroke="black" d="M436.47,-402.49C436.47,-480.17 436.47,-666 436.47,-666 436.47,-666 627.16,-666 627.16,-666"/>
<polygon fill="black" stroke="black" points="627.16,-669.5 637.16,-666 627.16,-662.5 627.16,-669.5"/>
</g>
<!-- l2a_wfov_pc_dnb -->
<g id="node13" class="node">
<title>l2a_wfov_pc_dnb</title>
<polygon fill="none" stroke="black" points="887.47,-624 585.47,-624 585.47,-600 887.47,-600 899.47,-612 887.47,-624"/>
<text text-anchor="middle" x="742.47" y="-608.3" font-family="Times,serif" font-size="14.00">wfov_pc dark (CIC/FPN/dark current) 1..1</text>
</g>
<!-- calib&#45;&gt;l2a_wfov_pc_dnb -->
<g id="edge6" class="edge">
<title>calib&#45;&gt;l2a_wfov_pc_dnb</title>
<path fill="none" stroke="black" d="M406.76,-427.05C460.85,-427.05 591.47,-427.05 591.47,-427.05 591.47,-427.05 591.47,-583.93 591.47,-583.93"/>
<polygon fill="black" stroke="black" points="587.97,-583.93 591.47,-593.93 594.97,-583.93 587.97,-583.93"/>
</g>
<!-- l2a_wfov_pc_cti -->
<g id="node14" class="node">
<title>l2a_wfov_pc_cti</title>
<polygon fill="none" stroke="black" points="876.97,-570 595.97,-570 595.97,-546 876.97,-546 888.97,-558 876.97,-570"/>
<text text-anchor="middle" x="742.47" y="-554.3" font-family="Times,serif" font-size="14.00">wfov_pc charge transfer efficiency 1..1</text>
</g>
<!-- calib&#45;&gt;l2a_wfov_pc_cti -->
<g id="edge7" class="edge">
<title>calib&#45;&gt;l2a_wfov_pc_cti</title>
<path fill="none" stroke="black" d="M415.54,-422.7C476.21,-422.7 602.47,-422.7 602.47,-422.7 602.47,-422.7 602.47,-529.75 602.47,-529.75"/>
<polygon fill="black" stroke="black" points="598.97,-529.75 602.47,-539.75 605.97,-529.75 598.97,-529.75"/>
</g>
<!-- l2a_wfov_pc_ff -->
<g id="node15" class="node">
<title>l2a_wfov_pc_ff</title>
<polygon fill="none" stroke="black" points="814.47,-516 658.47,-516 658.47,-492 814.47,-492 826.47,-504 814.47,-516"/>
<text text-anchor="middle" x="742.47" y="-500.3" font-family="Times,serif" font-size="14.00">wfov_pc flat field 1..1</text>
</g>
<!-- calib&#45;&gt;l2a_wfov_pc_ff -->
<g id="edge8" class="edge">
<title>calib&#45;&gt;l2a_wfov_pc_ff</title>
<path fill="none" stroke="black" d="M422.2,-418.35C498.66,-418.35 662.47,-418.35 662.47,-418.35 662.47,-418.35 662.47,-475.84 662.47,-475.84"/>
<polygon fill="black" stroke="black" points="658.97,-475.84 662.47,-485.84 665.97,-475.84 658.97,-475.84"/>
</g>
<!-- l2a_wfov_pc_kgain -->
<g id="node16" class="node">
<title>l2a_wfov_pc_kgain</title>
<polygon fill="none" stroke="black" points="806.97,-462 665.97,-462 665.97,-438 806.97,-438 818.97,-450 806.97,-462"/>
<text text-anchor="middle" x="742.47" y="-446.3" font-family="Times,serif" font-size="14.00">wfov_pc k&#45;gain 1..1</text>
</g>
<!-- calib&#45;&gt;l2a_wfov_pc_kgain -->
<g id="edge9" class="edge">
<title>calib&#45;&gt;l2a_wfov_pc_kgain</title>
<path fill="none" stroke="black" d="M441.47,-392.86C441.47,-416.76 441.47,-450 441.47,-450 441.47,-450 655.74,-450 655.74,-450"/>
<polygon fill="black" stroke="black" points="655.74,-453.5 665.74,-450 655.74,-446.5 655.74,-453.5"/>
</g>
<!-- l2a_wfov_pc_emg -->
<g id="node17" class="node">
<title>l2a_wfov_pc_emg</title>
<polygon fill="none" stroke="black" points="815.47,-408 657.47,-408 657.47,-384 815.47,-384 827.47,-396 815.47,-408"/>
<text text-anchor="middle" x="742.47" y="-392.3" font-family="Times,serif" font-size="14.00">wfov_pc EM gain 1..1</text>
</g>
<!-- calib&#45;&gt;l2a_wfov_pc_emg -->
<g id="edge10" class="edge">
<title>calib&#45;&gt;l2a_wfov_pc_emg</title>
<path fill="none" stroke="black" d="M440.18,-396C440.18,-396 647.31,-396 647.31,-396"/>
<polygon fill="black" stroke="black" points="647.31,-399.5 657.31,-396 647.31,-392.5 647.31,-399.5"/>
</g>
<!-- l2b_wfov_pc_distm -->
<g id="node20" class="node">
<title>l2b_wfov_pc_distm</title>
<polygon fill="none" stroke="black" points="837.97,-354 634.97,-354 634.97,-330 837.97,-330 849.97,-342 837.97,-354"/>
<text text-anchor="middle" x="742.47" y="-338.3" font-family="Times,serif" font-size="14.00">wfov_pc distortion map 1..1</text>
</g>
<!-- calib&#45;&gt;l2b_wfov_pc_distm -->
<g id="edge11" class="edge">
<title>calib&#45;&gt;l2b_wfov_pc_distm</title>
<path fill="none" stroke="black" d="M440.18,-342C440.18,-342 624.71,-342 624.71,-342"/>
<polygon fill="black" stroke="black" points="624.71,-345.5 634.71,-342 624.71,-338.5 624.71,-345.5"/>
</g>
<!-- l2b_wfov_pc_excicrf -->
<g id="node21" class="node">
<title>l2b_wfov_pc_excicrf</title>
<polygon fill="none" stroke="black" points="863.47,-300 609.47,-300 609.47,-276 863.47,-276 875.47,-288 863.47,-300"/>
<text text-anchor="middle" x="742.47" y="-284.3" font-family="Times,serif" font-size="14.00">wfov_pc EXCAM ICRF location 1..1</text>
</g>
<!-- calib&#45;&gt;l2b_wfov_pc_excicrf -->
<g id="edge12" class="edge">
<title>calib&#45;&gt;l2b_wfov_pc_excicrf</title>
<path fill="none" stroke="black" d="M415.93,-315.3C481.1,-315.3 622.47,-315.3 622.47,-315.3 622.47,-315.3 622.47,-314.38 622.47,-314.38"/>
<polygon fill="black" stroke="black" points="625.97,-316.06 622.47,-306.06 618.97,-316.06 625.97,-316.06"/>
</g>
<!-- l2b_wfov_pc_excfovps -->
<g id="node22" class="node">
<title>l2b_wfov_pc_excfovps</title>
<polygon fill="none" stroke="black" points="864.97,-246 607.97,-246 607.97,-222 864.97,-222 876.97,-234 864.97,-246"/>
<text text-anchor="middle" x="742.47" y="-230.3" font-family="Times,serif" font-size="14.00">wfov_pc ECAM FOV pixel scale 1..1</text>
</g>
<!-- calib&#45;&gt;l2b_wfov_pc_excfovps -->
<g id="edge13" class="edge">
<title>calib&#45;&gt;l2b_wfov_pc_excfovps</title>
<path fill="none" stroke="black" d="M425.47,-322.54C425.47,-283.49 425.47,-234 425.47,-234 425.47,-234 597.57,-234 597.57,-234"/>
<polygon fill="black" stroke="black" points="597.57,-237.5 607.57,-234 597.57,-230.5 597.57,-237.5"/>
</g>
<!-- l3_wfov_pc_cal -->
<g id="node25" class="node">
<title>l3_wfov_pc_cal</title>
<polygon fill="none" stroke="black" points="823.47,-192 649.47,-192 649.47,-168 823.47,-168 835.47,-180 823.47,-192"/>
<text text-anchor="middle" x="742.47" y="-176.3" font-family="Times,serif" font-size="14.00">wfov_pc calibration 1..1</text>
</g>
<!-- calib&#45;&gt;l3_wfov_pc_cal -->
<g id="edge14" class="edge">
<title>calib&#45;&gt;l3_wfov_pc_cal</title>
<path fill="none" stroke="black" d="M405.47,-310.49C405.47,-254.99 405.47,-180 405.47,-180 405.47,-180 639.04,-180 639.04,-180"/>
<polygon fill="black" stroke="black" points="639.04,-183.5 649.04,-180 639.04,-176.5 639.04,-183.5"/>
</g>
<!-- l4_wfov_pc_afcal -->
<g id="node28" class="node">
<title>l4_wfov_pc_afcal</title>
<polygon fill="none" stroke="black" points="830.97,-138 641.97,-138 641.97,-114 830.97,-114 842.97,-126 830.97,-138"/>
<text text-anchor="middle" x="742.47" y="-122.3" font-family="Times,serif" font-size="14.00">wfov_pc absolute flux 1..1</text>
</g>
<!-- calib&#45;&gt;l4_wfov_pc_afcal -->
<g id="edge15" class="edge">
<title>calib&#45;&gt;l4_wfov_pc_afcal</title>
<path fill="none" stroke="black" d="M384.47,-306.42C384.47,-234.42 384.47,-126 384.47,-126 384.47,-126 631.79,-126 631.79,-126"/>
<polygon fill="black" stroke="black" points="631.79,-129.5 641.79,-126 631.79,-122.5 631.79,-129.5"/>
</g>
<!-- l4_wfov_pc_ctcal -->
<g id="node29" class="node">
<title>l4_wfov_pc_ctcal</title>
<polygon fill="none" stroke="black" points="843.47,-84 629.47,-84 629.47,-60 843.47,-60 855.47,-72 843.47,-84"/>
<text text-anchor="middle" x="742.47" y="-68.3" font-family="Times,serif" font-size="14.00">wfov_pc core throughput 1..1</text>
</g>
<!-- calib&#45;&gt;l4_wfov_pc_ctcal -->
<g id="edge16" class="edge">
<title>calib&#45;&gt;l4_wfov_pc_ctcal</title>
<path fill="none" stroke="black" d="M363.47,-309.97C363.47,-223.35 363.47,-72 363.47,-72 363.47,-72 619.27,-72 619.27,-72"/>
<polygon fill="black" stroke="black" points="619.27,-75.5 629.27,-72 619.27,-68.5 619.27,-75.5"/>
</g>
<!-- l4_wfov_pc_ndfilt -->
<g id="node30" class="node">
<title>l4_wfov_pc_ndfilt</title>
<polygon fill="none" stroke="black" points="816.47,-30 656.47,-30 656.47,-6 816.47,-6 828.47,-18 816.47,-30"/>
<text text-anchor="middle" x="742.47" y="-14.3" font-family="Times,serif" font-size="14.00">wfov_pc ND filter 1..1</text>
</g>
<!-- calib&#45;&gt;l4_wfov_pc_ndfilt -->
<g id="edge17" class="edge">
<title>calib&#45;&gt;l4_wfov_pc_ndfilt</title>
<path fill="none" stroke="black" d="M342.47,-322.03C342.47,-226.38 342.47,-18 342.47,-18 342.47,-18 646.17,-18 646.17,-18"/>
<polygon fill="black" stroke="black" points="646.17,-21.5 656.17,-18 646.17,-14.5 646.17,-21.5"/>
</g>
<!-- config -->
<g id="node5" class="node">
<title>config</title>
<ellipse fill="none" stroke="black" cx="91" cy="-1068" rx="74.19" ry="74.19"/>
<text text-anchor="middle" x="91" y="-1064.3" font-family="Times,serif" font-size="14.00">Configuration</text>
</g>
<!-- l1_wfov_pc_odir -->
<g id="node7" class="node">
<title>l1_wfov_pc_odir</title>
<ellipse fill="none" stroke="black" cx="383.74" cy="-1176" rx="159.77" ry="18"/>
<text text-anchor="middle" x="383.74" y="-1172.3" font-family="Times,serif" font-size="14.00">Output path for L1_wfov_pc 1..1</text>
</g>
<!-- config&#45;&gt;l1_wfov_pc_odir -->
<g id="edge18" class="edge">
<title>config&#45;&gt;l1_wfov_pc_odir</title>
<path fill="none" stroke="black" d="M91.47,-1142.12C91.47,-1160.97 91.47,-1176 91.47,-1176 91.47,-1176 213.49,-1176 213.49,-1176"/>
<polygon fill="black" stroke="black" points="213.49,-1179.5 223.49,-1176 213.49,-1172.5 213.49,-1179.5"/>
</g>
<!-- l2a_wfov_pc_odir -->
<g id="node10" class="node">
<title>l2a_wfov_pc_odir</title>
<ellipse fill="none" stroke="black" cx="383.74" cy="-1122" rx="165.17" ry="18"/>
<text text-anchor="middle" x="383.74" y="-1118.3" font-family="Times,serif" font-size="14.00">Output path for L2a_wfov_pc 1..1</text>
</g>
<!-- config&#45;&gt;l2a_wfov_pc_odir -->
<g id="edge19" class="edge">
<title>config&#45;&gt;l2a_wfov_pc_odir</title>
<path fill="none" stroke="black" d="M141.99,-1122C141.99,-1122 208.58,-1122 208.58,-1122"/>
<polygon fill="black" stroke="black" points="208.58,-1125.5 218.58,-1122 208.58,-1118.5 208.58,-1125.5"/>
</g>
<!-- l2b_wfov_pc_odir -->
<g id="node18" class="node">
<title>l2b_wfov_pc_odir</title>
<ellipse fill="none" stroke="black" cx="383.74" cy="-1068" rx="165.97" ry="18"/>
<text text-anchor="middle" x="383.74" y="-1064.3" font-family="Times,serif" font-size="14.00">Output path for L2b_wfov_pc 1..1</text>
</g>
<!-- config&#45;&gt;l2b_wfov_pc_odir -->
<g id="edge20" class="edge">
<title>config&#45;&gt;l2b_wfov_pc_odir</title>
<path fill="none" stroke="black" d="M165.25,-1068C165.25,-1068 207.9,-1068 207.9,-1068"/>
<polygon fill="black" stroke="black" points="207.9,-1071.5 217.9,-1068 207.9,-1064.5 207.9,-1071.5"/>
</g>
<!-- l3_wfov_pc_odir -->
<g id="node23" class="node">
<title>l3_wfov_pc_odir</title>
<ellipse fill="none" stroke="black" cx="383.74" cy="-1014" rx="159.77" ry="18"/>
<text text-anchor="middle" x="383.74" y="-1010.3" font-family="Times,serif" font-size="14.00">Output path for L3_wfov_pc 1..1</text>
</g>
<!-- config&#45;&gt;l3_wfov_pc_odir -->
<g id="edge21" class="edge">
<title>config&#45;&gt;l3_wfov_pc_odir</title>
<path fill="none" stroke="black" d="M141.99,-1014C141.99,-1014 213.59,-1014 213.59,-1014"/>
<polygon fill="black" stroke="black" points="213.59,-1017.5 223.59,-1014 213.59,-1010.5 213.59,-1017.5"/>
</g>
<!-- l4_wfov_pc_odir -->
<g id="node26" class="node">
<title>l4_wfov_pc_odir</title>
<ellipse fill="none" stroke="black" cx="383.74" cy="-960" rx="159.77" ry="18"/>
<text text-anchor="middle" x="383.74" y="-956.3" font-family="Times,serif" font-size="14.00">Output path for L4_wfov_pc 1..1</text>
</g>
<!-- config&#45;&gt;l4_wfov_pc_odir -->
<g id="edge22" class="edge">
<title>config&#45;&gt;l4_wfov_pc_odir</title>
<path fill="none" stroke="black" d="M91.47,-993.88C91.47,-975.03 91.47,-960 91.47,-960 91.47,-960 213.49,-960 213.49,-960"/>
<polygon fill="black" stroke="black" points="213.49,-963.5 223.49,-960 213.49,-956.5 213.49,-963.5"/>
</g>
<!-- l1_wfov_pc_rec -->
<g id="node8" class="node">
<title>l1_wfov_pc_rec</title>
<polygon fill="none" stroke="black" points="819.97,-1002 652.97,-1002 652.97,-978 819.97,-978 831.97,-990 819.97,-1002"/>
<text text-anchor="middle" x="742.47" y="-986.3" font-family="Times,serif" font-size="14.00">recipe L1_wfov_pc 1..1</text>
</g>
<!-- recipe&#45;&gt;l1_wfov_pc_rec -->
<g id="edge23" class="edge">
<title>recipe&#45;&gt;l1_wfov_pc_rec</title>
<path fill="none" stroke="black" d="M416.58,-909C469.43,-909 567.47,-909 567.47,-909 567.47,-909 567.47,-985.95 567.47,-985.95 567.47,-985.95 642.92,-985.95 642.92,-985.95"/>
<polygon fill="black" stroke="black" points="642.92,-989.45 652.92,-985.95 642.92,-982.45 642.92,-989.45"/>
</g>
<!-- l2a_wfov_pc_rec -->
<g id="node11" class="node">
<title>l2a_wfov_pc_rec</title>
<polygon fill="none" stroke="black" points="823.97,-948 648.97,-948 648.97,-924 823.97,-924 835.97,-936 823.97,-948"/>
<text text-anchor="middle" x="742.47" y="-932.3" font-family="Times,serif" font-size="14.00">recipe L2a_wfov_pc 1..1</text>
</g>
<!-- recipe&#45;&gt;l2a_wfov_pc_rec -->
<g id="edge24" class="edge">
<title>recipe&#45;&gt;l2a_wfov_pc_rec</title>
<path fill="none" stroke="black" d="M384.47,-924.68C384.47,-929.73 384.47,-933.12 384.47,-933.12 384.47,-933.12 638.88,-933.12 638.88,-933.12"/>
<polygon fill="black" stroke="black" points="638.88,-936.62 648.88,-933.12 638.88,-929.62 638.88,-936.62"/>
</g>
<!-- l2b_wfov_pc_rec -->
<g id="node19" class="node">
<title>l2b_wfov_pc_rec</title>
<polygon fill="none" stroke="black" points="824.47,-894 648.47,-894 648.47,-870 824.47,-870 836.47,-882 824.47,-894"/>
<text text-anchor="middle" x="742.47" y="-878.3" font-family="Times,serif" font-size="14.00">recipe L2b_wfov_pc 1..1</text>
</g>
<!-- recipe&#45;&gt;l2b_wfov_pc_rec -->
<g id="edge25" class="edge">
<title>recipe&#45;&gt;l2b_wfov_pc_rec</title>
<path fill="none" stroke="black" d="M426.3,-882C426.3,-882 638.26,-882 638.26,-882"/>
<polygon fill="black" stroke="black" points="638.26,-885.5 648.26,-882 638.26,-878.5 638.26,-885.5"/>
</g>
<!-- l3_wfov_pc_rec -->
<g id="node24" class="node">
<title>l3_wfov_pc_rec</title>
<polygon fill="none" stroke="black" points="819.97,-840 652.97,-840 652.97,-816 819.97,-816 831.97,-828 819.97,-840"/>
<text text-anchor="middle" x="742.47" y="-824.3" font-family="Times,serif" font-size="14.00">recipe L3_wfov_pc 1..1</text>
</g>
<!-- recipe&#45;&gt;l3_wfov_pc_rec -->
<g id="edge26" class="edge">
<title>recipe&#45;&gt;l3_wfov_pc_rec</title>
<path fill="none" stroke="black" d="M398.47,-842.33C398.47,-832.58 398.47,-824.88 398.47,-824.88 398.47,-824.88 642.54,-824.88 642.54,-824.88"/>
<polygon fill="black" stroke="black" points="642.54,-828.38 652.54,-824.88 642.54,-821.38 642.54,-828.38"/>
</g>
<!-- l4_wfov_pc_rec -->
<g id="node27" class="node">
<title>l4_wfov_pc_rec</title>
<polygon fill="none" stroke="black" points="819.97,-786 652.97,-786 652.97,-762 819.97,-762 831.97,-774 819.97,-786"/>
<text text-anchor="middle" x="742.47" y="-770.3" font-family="Times,serif" font-size="14.00">recipe L4_wfov_pc 1..1</text>
</g>
<!-- recipe&#45;&gt;l4_wfov_pc_rec -->
<g id="edge27" class="edge">
<title>recipe&#45;&gt;l4_wfov_pc_rec</title>
<path fill="none" stroke="black" d="M370.47,-841.78C370.47,-811.08 370.47,-774 370.47,-774 370.47,-774 642.89,-774 642.89,-774"/>
<polygon fill="black" stroke="black" points="642.89,-777.5 652.89,-774 642.89,-770.5 642.89,-777.5"/>
</g>
</g>
</svg>
