<?xml version="1.0" encoding="UTF-8" standalone="no"?>
<!DOCTYPE svg PUBLIC "-//W3C//DTD SVG 1.1//EN"
 "http://www.w3.org/Graphics/SVG/1.1/DTD/svg11.dtd">
<!-- Generated by graphviz version 2.43.0 (0)
 -->
<!-- Title: WFOVAClerks Pages: 1 -->
<svg width="888pt" height="1202pt"
 viewBox="0.00 0.00 888.07 1202.00" xmlns="http://www.w3.org/2000/svg" xmlns:xlink="http://www.w3.org/1999/xlink">
<g id="graph0" class="graph" transform="scale(1 1) rotate(0) translate(4 1198)">
<title>WFOVAClerks</title>
<polygon fill="white" stroke="transparent" points="-4,4 -4,-1198 884.07,-1198 884.07,4 -4,4"/>
<!-- alarm_cal -->
<g id="node1" class="node">
<title>alarm_cal</title>
<text text-anchor="middle" x="91" y="-392.3" font-family="Times,serif" font-size="14.00">User requested update</text>
</g>
<!-- calib -->
<g id="node4" class="node">
<title>calib</title>
<ellipse fill="none" stroke="black" cx="378.54" cy="-369" rx="62.29" ry="62.29"/>
<text text-anchor="middle" x="378.54" y="-365.3" font-family="Times,serif" font-size="14.00">Calibration</text>
</g>
<!-- alarm_cal&#45;&gt;calib -->
<g id="edge1" class="edge">
<title>alarm_cal&#45;&gt;calib</title>
<path fill="none" stroke="black" stroke-dasharray="5,2" d="M182.37,-396C182.37,-396 312.14,-396 312.14,-396"/>
<polygon fill="black" stroke="black" points="312.14,-399.5 322.14,-396 312.14,-392.5 312.14,-399.5"/>
</g>
<!-- alarm_cnf -->
<g id="node2" class="node">
<title>alarm_cnf</title>
<text text-anchor="middle" x="91" y="-338.3" font-family="Times,serif" font-size="14.00">User requested update</text>
</g>
<!-- alarm_cnf&#45;&gt;calib -->
<g id="edge2" class="edge">
<title>alarm_cnf&#45;&gt;calib</title>
<path fill="none" stroke="black" stroke-dasharray="5,2" d="M182.37,-342C182.37,-342 312.14,-342 312.14,-342"/>
<polygon fill="black" stroke="black" points="312.14,-345.5 322.14,-342 312.14,-338.5 312.14,-345.5"/>
</g>
<!-- alarm_rec -->
<g id="node3" class="node">
<title>alarm_rec</title>
<text text-anchor="middle" x="91" y="-878.3" font-family="Times,serif" font-size="14.00">User requested update</text>
</g>
<!-- recipe -->
<g id="node6" class="node">
<title>recipe</title>
<ellipse fill="none" stroke="black" cx="378.54" cy="-882" rx="42.49" ry="42.49"/>
<text text-anchor="middle" x="378.54" y="-878.3" font-family="Times,serif" font-size="14.00">Recipe</text>
</g>
<!-- alarm_rec&#45;&gt;recipe -->
<g id="edge3" class="edge">
<title>alarm_rec&#45;&gt;recipe</title>
<path fill="none" stroke="black" stroke-dasharray="5,2" d="M182.37,-882C182.37,-882 326,-882 326,-882"/>
<polygon fill="black" stroke="black" points="326,-885.5 336,-882 326,-878.5 326,-885.5"/>
</g>
<!-- l1_wfov_a_nllut -->
<g id="node9" class="node">
<title>l1_wfov_a_nllut</title>
<polygon fill="none" stroke="black" points="816.07,-732 627.07,-732 627.07,-708 816.07,-708 828.07,-720 816.07,-732"/>
<text text-anchor="middle" x="727.57" y="-716.3" font-family="Times,serif" font-size="14.00">non linear calibration 1..1</text>
</g>
<!-- calib&#45;&gt;l1_wfov_a_nllut -->
<g id="edge4" class="edge">
<title>calib&#45;&gt;l1_wfov_a_nllut</title>
<path fill="none" stroke="black" d="M426.07,-409.61C426.07,-502 426.07,-720 426.07,-720 426.07,-720 616.76,-720 616.76,-720"/>
<polygon fill="black" stroke="black" points="616.76,-723.5 626.76,-720 616.76,-716.5 616.76,-723.5"/>
</g>
<!-- l2a_wfov_a_mbpm -->
<g id="node12" class="node">
<title>l2a_wfov_a_mbpm</title>
<polygon fill="none" stroke="black" points="816.57,-678 626.57,-678 626.57,-654 816.57,-654 828.57,-666 816.57,-678"/>
<text text-anchor="middle" x="727.57" y="-662.3" font-family="Times,serif" font-size="14.00">wfov_a bad pixel map 1..1</text>
</g>
<!-- calib&#45;&gt;l2a_wfov_a_mbpm -->
<g id="edge5" class="edge">
<title>calib&#45;&gt;l2a_wfov_a_mbpm</title>
<path fill="none" stroke="black" d="M431.07,-402.78C431.07,-480.62 431.07,-666 431.07,-666 431.07,-666 616.36,-666 616.36,-666"/>
<polygon fill="black" stroke="black" points="616.36,-669.5 626.36,-666 616.36,-662.5 616.36,-669.5"/>
</g>
<!-- l2a_wfov_a_dnb -->
<g id="node13" class="node">
<title>l2a_wfov_a_dnb</title>
<polygon fill="none" stroke="black" points="868.07,-624 575.07,-624 575.07,-600 868.07,-600 880.07,-612 868.07,-624"/>
<text text-anchor="middle" x="727.57" y="-608.3" font-family="Times,serif" font-size="14.00">wfov_a dark (CIC/FPN/dark current) 1..1</text>
</g>
<!-- calib&#45;&gt;l2a_wfov_a_dnb -->
<g id="edge6" class="edge">
<title>calib&#45;&gt;l2a_wfov_a_dnb</title>
<path fill="none" stroke="black" d="M401.77,-427.05C454.97,-427.05 581.07,-427.05 581.07,-427.05 581.07,-427.05 581.07,-583.93 581.07,-583.93"/>
<polygon fill="black" stroke="black" points="577.57,-583.93 581.07,-593.93 584.57,-583.93 577.57,-583.93"/>
</g>
<!-- l2a_wfov_a_cti -->
<g id="node14" class="node">
<title>l2a_wfov_a_cti</title>
<polygon fill="none" stroke="black" points="857.57,-570 585.57,-570 585.57,-546 857.57,-546 869.57,-558 857.57,-570"/>
<text text-anchor="middle" x="727.57" y="-554.3" font-family="Times,serif" font-size="14.00">wfov_a charge transfer efficiency 1..1</text>
</g>
<!-- calib&#45;&gt;l2a_wfov_a_cti -->
<g id="edge7" class="edge">
<title>calib&#45;&gt;l2a_wfov_a_cti</title>
<path fill="none" stroke="black" d="M410.5,-422.7C470.07,-422.7 592.07,-422.7 592.07,-422.7 592.07,-422.7 592.07,-529.75 592.07,-529.75"/>
<polygon fill="black" stroke="black" points="588.57,-529.75 592.07,-539.75 595.57,-529.75 588.57,-529.75"/>
</g>
<!-- l2a_wfov_a_ff -->
<g id="node15" class="node">
<title>l2a_wfov_a_ff</title>
<polygon fill="none" stroke="black" points="795.57,-516 647.57,-516 647.57,-492 795.57,-492 807.57,-504 795.57,-516"/>
<text text-anchor="middle" x="727.57" y="-500.3" font-family="Times,serif" font-size="14.00">wfov_a flat field 1..1</text>
</g>
<!-- calib&#45;&gt;l2a_wfov_a_ff -->
<g id="edge8" class="edge">
<title>calib&#45;&gt;l2a_wfov_a_ff</title>
<path fill="none" stroke="black" d="M416.86,-418.35C492.14,-418.35 652.07,-418.35 652.07,-418.35 652.07,-418.35 652.07,-475.84 652.07,-475.84"/>
<polygon fill="black" stroke="black" points="648.57,-475.84 652.07,-485.84 655.57,-475.84 648.57,-475.84"/>
</g>
<!-- l2a_wfov_a_kgain -->
<g id="node16" class="node">
<title>l2a_wfov_a_kgain</title>
<polygon fill="none" stroke="black" points="788.07,-462 655.07,-462 655.07,-438 788.07,-438 800.07,-450 788.07,-462"/>
<text text-anchor="middle" x="727.57" y="-446.3" font-family="Times,serif" font-size="14.00">wfov_a k&#45;gain 1..1</text>
</g>
<!-- calib&#45;&gt;l2a_wfov_a_kgain -->
<g id="edge9" class="edge">
<title>calib&#45;&gt;l2a_wfov_a_kgain</title>
<path fill="none" stroke="black" d="M436.07,-393.3C436.07,-417.16 436.07,-450 436.07,-450 436.07,-450 644.77,-450 644.77,-450"/>
<polygon fill="black" stroke="black" points="644.77,-453.5 654.77,-450 644.77,-446.5 644.77,-453.5"/>
</g>
<!-- l2a_wfov_a_emg -->
<g id="node17" class="node">
<title>l2a_wfov_a_emg</title>
<polygon fill="none" stroke="black" points="796.07,-408 647.07,-408 647.07,-384 796.07,-384 808.07,-396 796.07,-408"/>
<text text-anchor="middle" x="727.57" y="-392.3" font-family="Times,serif" font-size="14.00">wfov_a EM gain 1..1</text>
</g>
<!-- calib&#45;&gt;l2a_wfov_a_emg -->
<g id="edge10" class="edge">
<title>calib&#45;&gt;l2a_wfov_a_emg</title>
<path fill="none" stroke="black" d="M435,-396C435,-396 636.77,-396 636.77,-396"/>
<polygon fill="black" stroke="black" points="636.77,-399.5 646.77,-396 636.77,-392.5 636.77,-399.5"/>
</g>
<!-- l2b_wfov_a_distm -->
<g id="node20" class="node">
<title>l2b_wfov_a_distm</title>
<polygon fill="none" stroke="black" points="818.57,-354 624.57,-354 624.57,-330 818.57,-330 830.57,-342 818.57,-354"/>
<text text-anchor="middle" x="727.57" y="-338.3" font-family="Times,serif" font-size="14.00">wfov_a distortion map 1..1</text>
</g>
<!-- calib&#45;&gt;l2b_wfov_a_distm -->
<g id="edge11" class="edge">
<title>calib&#45;&gt;l2b_wfov_a_distm</title>
<path fill="none" stroke="black" d="M435,-342C435,-342 614.34,-342 614.34,-342"/>
<polygon fill="black" stroke="black" points="614.34,-345.5 624.34,-342 614.34,-338.5 614.34,-345.5"/>
</g>
<!-- l2b_wfov_a_excicrf -->
<g id="node21" class="node">
<title>l2b_wfov_a_excicrf</title>
<polygon fill="none" stroke="black" points="844.07,-300 599.07,-300 599.07,-276 844.07,-276 856.07,-288 844.07,-300"/>
<text text-anchor="middle" x="727.57" y="-284.3" font-family="Times,serif" font-size="14.00">wfov_a EXCAM ICRF location 1..1</text>
</g>
<!-- calib&#45;&gt;l2b_wfov_a_excicrf -->
<g id="edge12" class="edge">
<title>calib&#45;&gt;l2b_wfov_a_excicrf</title>
<path fill="none" stroke="black" d="M410.52,-315.3C474.48,-315.3 612.07,-315.3 612.07,-315.3 612.07,-315.3 612.07,-314.38 612.07,-314.38"/>
<polygon fill="black" stroke="black" points="615.57,-316.06 612.07,-306.06 608.57,-316.06 615.57,-316.06"/>
</g>
<!-- l2b_wfov_a_excfovps -->
<g id="node22" class="node">
<title>l2b_wfov_a_excfovps</title>
<polygon fill="none" stroke="black" points="846.07,-246 597.07,-246 597.07,-222 846.07,-222 858.07,-234 846.07,-246"/>
<text text-anchor="middle" x="727.57" y="-230.3" font-family="Times,serif" font-size="14.00">wfov_a ECAM FOV pixel scale 1..1</text>
</g>
<!-- calib&#45;&gt;l2b_wfov_a_excfovps -->
<g id="edge13" class="edge">
<title>calib&#45;&gt;l2b_wfov_a_excfovps</title>
<path fill="none" stroke="black" d="M421.07,-323.3C421.07,-284.13 421.07,-234 421.07,-234 421.07,-234 586.7,-234 586.7,-234"/>
<polygon fill="black" stroke="black" points="586.7,-237.5 596.7,-234 586.7,-230.5 586.7,-237.5"/>
</g>
<!-- l3_wfov_a_cal -->
<g id="node25" class="node">
<title>l3_wfov_a_cal</title>
<polygon fill="none" stroke="black" points="804.57,-192 638.57,-192 638.57,-168 804.57,-168 816.57,-180 804.57,-192"/>
<text text-anchor="middle" x="727.57" y="-176.3" font-family="Times,serif" font-size="14.00">wfov_a calibration 1..1</text>
</g>
<!-- calib&#45;&gt;l3_wfov_a_cal -->
<g id="edge14" class="edge">
<title>calib&#45;&gt;l3_wfov_a_cal</title>
<path fill="none" stroke="black" d="M400.07,-310.24C400.07,-254.75 400.07,-180 400.07,-180 400.07,-180 628.51,-180 628.51,-180"/>
<polygon fill="black" stroke="black" points="628.51,-183.5 638.51,-180 628.51,-176.5 628.51,-183.5"/>
</g>
<!-- l4_wfov_a_afcal -->
<g id="node28" class="node">
<title>l4_wfov_a_afcal</title>
<polygon fill="none" stroke="black" points="812.07,-138 631.07,-138 631.07,-114 812.07,-114 824.07,-126 812.07,-138"/>
<text text-anchor="middle" x="727.57" y="-122.3" font-family="Times,serif" font-size="14.00">wfov_a absolute flux 1..1</text>
</g>
<!-- calib&#45;&gt;l4_wfov_a_afcal -->
<g id="edge15" class="edge">
<title>calib&#45;&gt;l4_wfov_a_afcal</title>
<path fill="none" stroke="black" d="M379.07,-306.42C379.07,-234.42 379.07,-126 379.07,-126 379.07,-126 620.96,-126 620.96,-126"/>
<polygon fill="black" stroke="black" points="620.96,-129.5 630.96,-126 620.96,-122.5 620.96,-129.5"/>
</g>
<!-- l4_wfov_a_ctcal -->
<g id="node29" class="node">
<title>l4_wfov_a_ctcal</title>
<polygon fill="none" stroke="black" points="824.57,-84 618.57,-84 618.57,-60 824.57,-60 836.57,-72 824.57,-84"/>
<text text-anchor="middle" x="727.57" y="-68.3" font-family="Times,serif" font-size="14.00">wfov_a core throughput 1..1</text>
</g>
<!-- calib&#45;&gt;l4_wfov_a_ctcal -->
<g id="edge16" class="edge">
<title>calib&#45;&gt;l4_wfov_a_ctcal</title>
<path fill="none" stroke="black" d="M358.07,-309.97C358.07,-223.35 358.07,-72 358.07,-72 358.07,-72 608.21,-72 608.21,-72"/>
<polygon fill="black" stroke="black" points="608.21,-75.5 618.21,-72 608.21,-68.5 608.21,-75.5"/>
</g>
<!-- l4_wfov_a_ndfilt -->
<g id="node30" class="node">
<title>l4_wfov_a_ndfilt</title>
<polygon fill="none" stroke="black" points="797.57,-30 645.57,-30 645.57,-6 797.57,-6 809.57,-18 797.57,-30"/>
<text text-anchor="middle" x="727.57" y="-14.3" font-family="Times,serif" font-size="14.00">wfov_a ND filter 1..1</text>
</g>
<!-- calib&#45;&gt;l4_wfov_a_ndfilt -->
<g id="edge17" class="edge">
<title>calib&#45;&gt;l4_wfov_a_ndfilt</title>
<path fill="none" stroke="black" d="M337.07,-322.03C337.07,-226.38 337.07,-18 337.07,-18 337.07,-18 635.23,-18 635.23,-18"/>
<polygon fill="black" stroke="black" points="635.23,-21.5 645.23,-18 635.23,-14.5 635.23,-21.5"/>
</g>
<!-- config -->
<g id="node5" class="node">
<title>config</title>
<ellipse fill="none" stroke="black" cx="91" cy="-1068" rx="74.19" ry="74.19"/>
<text text-anchor="middle" x="91" y="-1064.3" font-family="Times,serif" font-size="14.00">Configuration</text>
</g>
<!-- l1_wfov_a_odir -->
<g id="node7" class="node">
<title>l1_wfov_a_odir</title>
<ellipse fill="none" stroke="black" cx="378.54" cy="-1176" rx="154.87" ry="18"/>
<text text-anchor="middle" x="378.54" y="-1172.3" font-family="Times,serif" font-size="14.00">Output path for L1_wfov_a 1..1</text>
</g>
<!-- config&#45;&gt;l1_wfov_a_odir -->
<g id="edge18" class="edge">
<title>config&#45;&gt;l1_wfov_a_odir</title>
<path fill="none" stroke="black" d="M91.07,-1142.12C91.07,-1160.97 91.07,-1176 91.07,-1176 91.07,-1176 213.44,-1176 213.44,-1176"/>
<polygon fill="black" stroke="black" points="213.44,-1179.5 223.44,-1176 213.44,-1172.5 213.44,-1179.5"/>
</g>
<!-- l2a_wfov_a_odir -->
<g id="node10" class="node">
<title>l2a_wfov_a_odir</title>
<ellipse fill="none" stroke="black" cx="378.54" cy="-1122" rx="159.77" ry="18"/>
<text text-anchor="middle" x="378.54" y="-1118.3" font-family="Times,serif" font-size="14.00">Output path for L2a_wfov_a 1..1</text>
</g>
<!-- config&#45;&gt;l2a_wfov_a_odir -->
<g id="edge19" class="edge">
<title>config&#45;&gt;l2a_wfov_a_odir</title>
<path fill="none" stroke="black" d="M141.74,-1122C141.74,-1122 208.46,-1122 208.46,-1122"/>
<polygon fill="black" stroke="black" points="208.46,-1125.5 218.46,-1122 208.46,-1118.5 208.46,-1125.5"/>
</g>
<!-- l2b_wfov_a_odir -->
<g id="node18" class="node">
<title>l2b_wfov_a_odir</title>
<ellipse fill="none" stroke="black" cx="378.54" cy="-1068" rx="160.57" ry="18"/>
<text text-anchor="middle" x="378.54" y="-1064.3" font-family="Times,serif" font-size="14.00">Output path for L2b_wfov_a 1..1</text>
</g>
<!-- config&#45;&gt;l2b_wfov_a_odir -->
<g id="edge20" class="edge">
<title>config&#45;&gt;l2b_wfov_a_odir</title>
<path fill="none" stroke="black" d="M165.42,-1068C165.42,-1068 207.84,-1068 207.84,-1068"/>
<polygon fill="black" stroke="black" points="207.84,-1071.5 217.84,-1068 207.84,-1064.5 207.84,-1071.5"/>
</g>
<!-- l3_wfov_a_odir -->
<g id="node23" class="node">
<title>l3_wfov_a_odir</title>
<ellipse fill="none" stroke="black" cx="378.54" cy="-1014" rx="154.87" ry="18"/>
<text text-anchor="middle" x="378.54" y="-1010.3" font-family="Times,serif" font-size="14.00">Output path for L3_wfov_a 1..1</text>
</g>
<!-- config&#45;&gt;l3_wfov_a_odir -->
<g id="edge21" class="edge">
<title>config&#45;&gt;l3_wfov_a_odir</title>
<path fill="none" stroke="black" d="M141.74,-1014C141.74,-1014 213.69,-1014 213.69,-1014"/>
<polygon fill="black" stroke="black" points="213.69,-1017.5 223.69,-1014 213.69,-1010.5 213.69,-1017.5"/>
</g>
<!-- l4_wfov_a_odir -->
<g id="node26" class="node">
<title>l4_wfov_a_odir</title>
<ellipse fill="none" stroke="black" cx="378.54" cy="-960" rx="154.87" ry="18"/>
<text text-anchor="middle" x="378.54" y="-956.3" font-family="Times,serif" font-size="14.00">Output path for L4_wfov_a 1..1</text>
</g>
<!-- config&#45;&gt;l4_wfov_a_odir -->
<g id="edge22" class="edge">
<title>config&#45;&gt;l4_wfov_a_odir</title>
<path fill="none" stroke="black" d="M91.07,-993.88C91.07,-975.03 91.07,-960 91.07,-960 91.07,-960 213.44,-960 213.44,-960"/>
<polygon fill="black" stroke="black" points="213.44,-963.5 223.44,-960 213.44,-956.5 213.44,-963.5"/>
</g>
<!-- l1_wfov_a_rec -->
<g id="node8" class="node">
<title>l1_wfov_a_rec</title>
<polygon fill="none" stroke="black" points="800.57,-1002 642.57,-1002 642.57,-978 800.57,-978 812.57,-990 800.57,-1002"/>
<text text-anchor="middle" x="727.57" y="-986.3" font-family="Times,serif" font-size="14.00">recipe L1_wfov_a 1..1</text>
</g>
<!-- recipe&#45;&gt;l1_wfov_a_rec -->
<g id="edge23" class="edge">
<title>recipe&#45;&gt;l1_wfov_a_rec</title>
<path fill="none" stroke="black" d="M411.28,-909C462.82,-909 557.07,-909 557.07,-909 557.07,-909 557.07,-985.95 557.07,-985.95 557.07,-985.95 632.32,-985.95 632.32,-985.95"/>
<polygon fill="black" stroke="black" points="632.32,-989.45 642.32,-985.95 632.32,-982.45 632.32,-989.45"/>
</g>
<!-- l2a_wfov_a_rec -->
<g id="node11" class="node">
<title>l2a_wfov_a_rec</title>
<polygon fill="none" stroke="black" points="805.07,-948 638.07,-948 638.07,-924 805.07,-924 817.07,-936 805.07,-948"/>
<text text-anchor="middle" x="727.57" y="-932.3" font-family="Times,serif" font-size="14.00">recipe L2a_wfov_a 1..1</text>
</g>
<!-- recipe&#45;&gt;l2a_wfov_a_rec -->
<g id="edge24" class="edge">
<title>recipe&#45;&gt;l2a_wfov_a_rec</title>
<path fill="none" stroke="black" d="M379.07,-924.68C379.07,-929.73 379.07,-933.12 379.07,-933.12 379.07,-933.12 627.82,-933.12 627.82,-933.12"/>
<polygon fill="black" stroke="black" points="627.82,-936.62 637.82,-933.12 627.82,-929.62 627.82,-936.62"/>
</g>
<!-- l2b_wfov_a_rec -->
<g id="node19" class="node">
<title>l2b_wfov_a_rec</title>
<polygon fill="none" stroke="black" points="805.07,-894 638.07,-894 638.07,-870 805.07,-870 817.07,-882 805.07,-894"/>
<text text-anchor="middle" x="727.57" y="-878.3" font-family="Times,serif" font-size="14.00">recipe L2b_wfov_a 1..1</text>
</g>
<!-- recipe&#45;&gt;l2b_wfov_a_rec -->
<g id="edge25" class="edge">
<title>recipe&#45;&gt;l2b_wfov_a_rec</title>
<path fill="none" stroke="black" d="M420.99,-882C420.99,-882 627.92,-882 627.92,-882"/>
<polygon fill="black" stroke="black" points="627.92,-885.5 637.92,-882 627.92,-878.5 627.92,-885.5"/>
</g>
<!-- l3_wfov_a_rec -->
<g id="node24" class="node">
<title>l3_wfov_a_rec</title>
<polygon fill="none" stroke="black" points="800.57,-840 642.57,-840 642.57,-816 800.57,-816 812.57,-828 800.57,-840"/>
<text text-anchor="middle" x="727.57" y="-824.3" font-family="Times,serif" font-size="14.00">recipe L3_wfov_a 1..1</text>
</g>
<!-- recipe&#45;&gt;l3_wfov_a_rec -->
<g id="edge26" class="edge">
<title>recipe&#45;&gt;l3_wfov_a_rec</title>
<path fill="none" stroke="black" d="M393.07,-842.33C393.07,-832.58 393.07,-824.88 393.07,-824.88 393.07,-824.88 632.3,-824.88 632.3,-824.88"/>
<polygon fill="black" stroke="black" points="632.3,-828.38 642.3,-824.88 632.3,-821.38 632.3,-828.38"/>
</g>
<!-- l4_wfov_a_rec -->
<g id="node27" class="node">
<title>l4_wfov_a_rec</title>
<polygon fill="none" stroke="black" points="800.57,-786 642.57,-786 642.57,-762 800.57,-762 812.57,-774 800.57,-786"/>
<text text-anchor="middle" x="727.57" y="-770.3" font-family="Times,serif" font-size="14.00">recipe L4_wfov_a 1..1</text>
</g>
<!-- recipe&#45;&gt;l4_wfov_a_rec -->
<g id="edge27" class="edge">
<title>recipe&#45;&gt;l4_wfov_a_rec</title>
<path fill="none" stroke="black" d="M365.07,-841.78C365.07,-811.08 365.07,-774 365.07,-774 365.07,-774 632.12,-774 632.12,-774"/>
<polygon fill="black" stroke="black" points="632.12,-777.5 642.12,-774 632.12,-770.5 632.12,-777.5"/>
</g>
</g>
</svg>
