<?xml version="1.0" encoding="UTF-8" standalone="no"?>
<!DOCTYPE svg PUBLIC "-//W3C//DTD SVG 1.1//EN"
 "http://www.w3.org/Graphics/SVG/1.1/DTD/svg11.dtd">
<!-- Generated by graphviz version 2.43.0 (0)
 -->
<!-- Title: Clerks Pages: 1 -->
<svg width="742pt" height="1340pt"
 viewBox="0.00 0.00 741.66 1340.00" xmlns="http://www.w3.org/2000/svg" xmlns:xlink="http://www.w3.org/1999/xlink">
<g id="graph0" class="graph" transform="scale(1 1) rotate(0) translate(4 1336)">
<title>Clerks</title>
<polygon fill="white" stroke="transparent" points="-4,4 -4,-1336 737.66,-1336 737.66,4 -4,4"/>
<!-- alarm_cal -->
<g id="node1" class="node">
<title>alarm_cal</title>
<text text-anchor="middle" x="91" y="-392.3" font-family="Times,serif" font-size="14.00">User requested update</text>
</g>
<!-- calib -->
<g id="node4" class="node">
<title>calib</title>
<ellipse fill="none" stroke="black" cx="292.09" cy="-396" rx="62.29" ry="62.29"/>
<text text-anchor="middle" x="292.09" y="-392.3" font-family="Times,serif" font-size="14.00">Calibration</text>
</g>
<!-- alarm_cal&#45;&gt;calib -->
<g id="edge1" class="edge">
<title>alarm_cal&#45;&gt;calib</title>
<path fill="none" stroke="black" stroke-dasharray="5,2" d="M182.13,-396C182.13,-396 219.47,-396 219.47,-396"/>
<polygon fill="black" stroke="black" points="219.47,-399.5 229.47,-396 219.47,-392.5 219.47,-399.5"/>
</g>
<!-- alarm_cnf -->
<g id="node2" class="node">
<title>alarm_cnf</title>
<text text-anchor="middle" x="91" y="-932.3" font-family="Times,serif" font-size="14.00">User requested update</text>
</g>
<!-- config -->
<g id="node5" class="node">
<title>config</title>
<ellipse fill="none" stroke="black" cx="292.09" cy="-936" rx="74.19" ry="74.19"/>
<text text-anchor="middle" x="292.09" y="-932.3" font-family="Times,serif" font-size="14.00">Configuration</text>
</g>
<!-- alarm_cnf&#45;&gt;config -->
<g id="edge2" class="edge">
<title>alarm_cnf&#45;&gt;config</title>
<path fill="none" stroke="black" stroke-dasharray="5,2" d="M182.13,-936C182.13,-936 207.84,-936 207.84,-936"/>
<polygon fill="black" stroke="black" points="207.84,-939.5 217.84,-936 207.84,-932.5 207.84,-939.5"/>
</g>
<!-- alarm_rec -->
<g id="node3" class="node">
<title>alarm_rec</title>
<text text-anchor="middle" x="91" y="-1202.3" font-family="Times,serif" font-size="14.00">User requested update</text>
</g>
<!-- recipe -->
<g id="node6" class="node">
<title>recipe</title>
<ellipse fill="none" stroke="black" cx="292.09" cy="-1206" rx="42.49" ry="42.49"/>
<text text-anchor="middle" x="292.09" y="-1202.3" font-family="Times,serif" font-size="14.00">Recipe</text>
</g>
<!-- alarm_rec&#45;&gt;recipe -->
<g id="edge3" class="edge">
<title>alarm_rec&#45;&gt;recipe</title>
<path fill="none" stroke="black" stroke-dasharray="5,2" d="M182.13,-1206C182.13,-1206 239.74,-1206 239.74,-1206"/>
<polygon fill="black" stroke="black" points="239.74,-1209.5 249.74,-1206 239.74,-1202.5 239.74,-1209.5"/>
</g>
<!-- l1_wfov_pc_nllut -->
<g id="node9" class="node">
<title>l1_wfov_pc_nllut</title>
<polygon fill="none" stroke="black" points="656.42,-786 467.42,-786 467.42,-762 656.42,-762 668.42,-774 656.42,-786"/>
<text text-anchor="middle" x="567.92" y="-770.3" font-family="Times,serif" font-size="14.00">non linear calibration 1..1</text>
</g>
<!-- calib&#45;&gt;l1_wfov_pc_nllut -->
<g id="edge4" class="edge">
<title>calib&#45;&gt;l1_wfov_pc_nllut</title>
<path fill="none" stroke="black" d="M254.66,-446.2C254.66,-549.02 254.66,-774 254.66,-774 254.66,-774 457.08,-774 457.08,-774"/>
<polygon fill="black" stroke="black" points="457.08,-777.5 467.08,-774 457.08,-770.5 457.08,-777.5"/>
</g>
<!-- l2a_wfov_pc_mbpm -->
<g id="node12" class="node">
<title>l2a_wfov_pc_mbpm</title>
<polygon fill="none" stroke="black" points="660.92,-732 462.92,-732 462.92,-708 660.92,-708 672.92,-720 660.92,-732"/>
<text text-anchor="middle" x="567.92" y="-716.3" font-family="Times,serif" font-size="14.00">wfov_pc bad pixel map 1..1</text>
</g>
<!-- calib&#45;&gt;l2a_wfov_pc_mbpm -->
<g id="edge5" class="edge">
<title>calib&#45;&gt;l2a_wfov_pc_mbpm</title>
<path fill="none" stroke="black" d="M279.66,-457.32C279.66,-551.25 279.66,-720 279.66,-720 279.66,-720 452.63,-720 452.63,-720"/>
<polygon fill="black" stroke="black" points="452.63,-723.5 462.63,-720 452.63,-716.5 452.63,-723.5"/>
</g>
<!-- l2a_wfov_pc_dnb -->
<g id="node13" class="node">
<title>l2a_wfov_pc_dnb</title>
<polygon fill="none" stroke="black" points="712.92,-678 410.92,-678 410.92,-654 712.92,-654 724.92,-666 712.92,-678"/>
<text text-anchor="middle" x="567.92" y="-662.3" font-family="Times,serif" font-size="14.00">wfov_pc dark (CIC/FPN/dark current) 1..1</text>
</g>
<!-- calib&#45;&gt;l2a_wfov_pc_dnb -->
<g id="edge6" class="edge">
<title>calib&#45;&gt;l2a_wfov_pc_dnb</title>
<path fill="none" stroke="black" d="M320.05,-451.8C356.77,-451.8 416.66,-451.8 416.66,-451.8 416.66,-451.8 416.66,-637.74 416.66,-637.74"/>
<polygon fill="black" stroke="black" points="413.16,-637.74 416.66,-647.74 420.16,-637.74 413.16,-637.74"/>
</g>
<!-- l2a_wfov_pc_cti -->
<g id="node14" class="node">
<title>l2a_wfov_pc_cti</title>
<polygon fill="none" stroke="black" points="702.42,-624 421.42,-624 421.42,-600 702.42,-600 714.42,-612 702.42,-624"/>
<text text-anchor="middle" x="567.92" y="-608.3" font-family="Times,serif" font-size="14.00">wfov_pc charge transfer efficiency 1..1</text>
</g>
<!-- calib&#45;&gt;l2a_wfov_pc_cti -->
<g id="edge7" class="edge">
<title>calib&#45;&gt;l2a_wfov_pc_cti</title>
<path fill="none" stroke="black" d="M330.58,-445.2C370.66,-445.2 427.66,-445.2 427.66,-445.2 427.66,-445.2 427.66,-583.83 427.66,-583.83"/>
<polygon fill="black" stroke="black" points="424.16,-583.83 427.66,-593.83 431.16,-583.83 424.16,-583.83"/>
</g>
<!-- l2a_wfov_pc_ff -->
<g id="node15" class="node">
<title>l2a_wfov_pc_ff</title>
<polygon fill="none" stroke="black" points="639.92,-570 483.92,-570 483.92,-546 639.92,-546 651.92,-558 639.92,-570"/>
<text text-anchor="middle" x="567.92" y="-554.3" font-family="Times,serif" font-size="14.00">wfov_pc flat field 1..1</text>
</g>
<!-- calib&#45;&gt;l2a_wfov_pc_ff -->
<g id="edge8" class="edge">
<title>calib&#45;&gt;l2a_wfov_pc_ff</title>
<path fill="none" stroke="black" d="M304.66,-457.25C304.66,-503.12 304.66,-558 304.66,-558 304.66,-558 473.9,-558 473.9,-558"/>
<polygon fill="black" stroke="black" points="473.9,-561.5 483.9,-558 473.9,-554.5 473.9,-561.5"/>
</g>
<!-- l2a_wfov_pc_kgain -->
<g id="node16" class="node">
<title>l2a_wfov_pc_kgain</title>
<polygon fill="none" stroke="black" points="632.42,-516 491.42,-516 491.42,-492 632.42,-492 644.42,-504 632.42,-516"/>
<text text-anchor="middle" x="567.92" y="-500.3" font-family="Times,serif" font-size="14.00">wfov_pc k&#45;gain 1..1</text>
</g>
<!-- calib&#45;&gt;l2a_wfov_pc_kgain -->
<g id="edge9" class="edge">
<title>calib&#45;&gt;l2a_wfov_pc_kgain</title>
<path fill="none" stroke="black" d="M329.66,-445.89C329.66,-474.19 329.66,-504 329.66,-504 329.66,-504 481.22,-504 481.22,-504"/>
<polygon fill="black" stroke="black" points="481.22,-507.5 491.22,-504 481.22,-500.5 481.22,-507.5"/>
</g>
<!-- l2a_wfov_pc_emg -->
<g id="node17" class="node">
<title>l2a_wfov_pc_emg</title>
<polygon fill="none" stroke="black" points="640.92,-462 482.92,-462 482.92,-438 640.92,-438 652.92,-450 640.92,-462"/>
<text text-anchor="middle" x="567.92" y="-446.3" font-family="Times,serif" font-size="14.00">wfov_pc EM gain 1..1</text>
</g>
<!-- calib&#45;&gt;l2a_wfov_pc_emg -->
<g id="edge10" class="edge">
<title>calib&#45;&gt;l2a_wfov_pc_emg</title>
<path fill="none" stroke="black" d="M337.95,-438.6C337.95,-438.6 472.91,-438.6 472.91,-438.6"/>
<polygon fill="black" stroke="black" points="472.91,-442.1 482.91,-438.6 472.91,-435.1 472.91,-442.1"/>
</g>
<!-- l2b_wfov_pc_distm -->
<g id="node20" class="node">
<title>l2b_wfov_pc_distm</title>
<polygon fill="none" stroke="black" points="663.42,-408 460.42,-408 460.42,-384 663.42,-384 675.42,-396 663.42,-408"/>
<text text-anchor="middle" x="567.92" y="-392.3" font-family="Times,serif" font-size="14.00">wfov_pc distortion map 1..1</text>
</g>
<!-- calib&#45;&gt;l2b_wfov_pc_distm -->
<g id="edge11" class="edge">
<title>calib&#45;&gt;l2b_wfov_pc_distm</title>
<path fill="none" stroke="black" d="M354.68,-396C354.68,-396 450.38,-396 450.38,-396"/>
<polygon fill="black" stroke="black" points="450.38,-399.5 460.38,-396 450.38,-392.5 450.38,-399.5"/>
</g>
<!-- l2b_wfov_pc_excicrf -->
<g id="node21" class="node">
<title>l2b_wfov_pc_excicrf</title>
<polygon fill="none" stroke="black" points="688.92,-354 434.92,-354 434.92,-330 688.92,-330 700.92,-342 688.92,-354"/>
<text text-anchor="middle" x="567.92" y="-338.3" font-family="Times,serif" font-size="14.00">wfov_pc EXCAM ICRF location 1..1</text>
</g>
<!-- calib&#45;&gt;l2b_wfov_pc_excicrf -->
<g id="edge12" class="edge">
<title>calib&#45;&gt;l2b_wfov_pc_excicrf</title>
<path fill="none" stroke="black" d="M330.74,-346.8C330.74,-346.8 424.82,-346.8 424.82,-346.8"/>
<polygon fill="black" stroke="black" points="424.82,-350.3 434.82,-346.8 424.82,-343.3 424.82,-350.3"/>
</g>
<!-- l2b_wfov_pc_excfovps -->
<g id="node22" class="node">
<title>l2b_wfov_pc_excfovps</title>
<polygon fill="none" stroke="black" points="690.42,-300 433.42,-300 433.42,-276 690.42,-276 702.42,-288 690.42,-300"/>
<text text-anchor="middle" x="567.92" y="-284.3" font-family="Times,serif" font-size="14.00">wfov_pc ECAM FOV pixel scale 1..1</text>
</g>
<!-- calib&#45;&gt;l2b_wfov_pc_excfovps -->
<g id="edge13" class="edge">
<title>calib&#45;&gt;l2b_wfov_pc_excfovps</title>
<path fill="none" stroke="black" d="M337.66,-353.32C337.66,-323.13 337.66,-288 337.66,-288 337.66,-288 423.31,-288 423.31,-288"/>
<polygon fill="black" stroke="black" points="423.31,-291.5 433.31,-288 423.31,-284.5 423.31,-291.5"/>
</g>
<!-- l3_wfov_pc_ast -->
<g id="node25" class="node">
<title>l3_wfov_pc_ast</title>
<polygon fill="none" stroke="black" points="650.42,-246 473.42,-246 473.42,-222 650.42,-222 662.42,-234 650.42,-246"/>
<text text-anchor="middle" x="567.92" y="-230.3" font-family="Times,serif" font-size="14.00">wfov_pc astrometry 1..1</text>
</g>
<!-- calib&#45;&gt;l3_wfov_pc_ast -->
<g id="edge14" class="edge">
<title>calib&#45;&gt;l3_wfov_pc_ast</title>
<path fill="none" stroke="black" d="M319.66,-339.79C319.66,-293.01 319.66,-234 319.66,-234 319.66,-234 463.36,-234 463.36,-234"/>
<polygon fill="black" stroke="black" points="463.36,-237.5 473.36,-234 463.36,-230.5 463.36,-237.5"/>
</g>
<!-- l3_wfov_pc_ndf -->
<g id="node26" class="node">
<title>l3_wfov_pc_ndf</title>
<polygon fill="none" stroke="black" points="650.42,-192 473.42,-192 473.42,-168 650.42,-168 662.42,-180 650.42,-192"/>
<text text-anchor="middle" x="567.92" y="-176.3" font-family="Times,serif" font-size="14.00">wfov_pc astrometry 1..1</text>
</g>
<!-- calib&#45;&gt;l3_wfov_pc_ndf -->
<g id="edge15" class="edge">
<title>calib&#45;&gt;l3_wfov_pc_ndf</title>
<path fill="none" stroke="black" d="M301.66,-334.1C301.66,-270.28 301.66,-180 301.66,-180 301.66,-180 463.3,-180 463.3,-180"/>
<polygon fill="black" stroke="black" points="463.3,-183.5 473.3,-180 463.3,-176.5 463.3,-183.5"/>
</g>
<!-- l4_wfov_pc_afcal -->
<g id="node29" class="node">
<title>l4_wfov_pc_afcal</title>
<polygon fill="none" stroke="black" points="656.42,-138 467.42,-138 467.42,-114 656.42,-114 668.42,-126 656.42,-138"/>
<text text-anchor="middle" x="567.92" y="-122.3" font-family="Times,serif" font-size="14.00">wfov_pc absolute flux 1..1</text>
</g>
<!-- calib&#45;&gt;l4_wfov_pc_afcal -->
<g id="edge16" class="edge">
<title>calib&#45;&gt;l4_wfov_pc_afcal</title>
<path fill="none" stroke="black" d="M283.66,-334.06C283.66,-254.34 283.66,-126 283.66,-126 283.66,-126 457.3,-126 457.3,-126"/>
<polygon fill="black" stroke="black" points="457.3,-129.5 467.3,-126 457.3,-122.5 457.3,-129.5"/>
</g>
<!-- l4_wfov_pc_ctcal -->
<g id="node30" class="node">
<title>l4_wfov_pc_ctcal</title>
<polygon fill="none" stroke="black" points="668.92,-84 454.92,-84 454.92,-60 668.92,-60 680.92,-72 668.92,-84"/>
<text text-anchor="middle" x="567.92" y="-68.3" font-family="Times,serif" font-size="14.00">wfov_pc core throughput 1..1</text>
</g>
<!-- calib&#45;&gt;l4_wfov_pc_ctcal -->
<g id="edge17" class="edge">
<title>calib&#45;&gt;l4_wfov_pc_ctcal</title>
<path fill="none" stroke="black" d="M265.66,-339.19C265.66,-246.27 265.66,-72 265.66,-72 265.66,-72 444.51,-72 444.51,-72"/>
<polygon fill="black" stroke="black" points="444.51,-75.5 454.51,-72 444.51,-68.5 444.51,-75.5"/>
</g>
<!-- l4_wfov_pc_ndfilt -->
<g id="node31" class="node">
<title>l4_wfov_pc_ndfilt</title>
<polygon fill="none" stroke="black" points="641.92,-30 481.92,-30 481.92,-6 641.92,-6 653.92,-18 641.92,-30"/>
<text text-anchor="middle" x="567.92" y="-14.3" font-family="Times,serif" font-size="14.00">wfov_pc ND filter 1..1</text>
</g>
<!-- calib&#45;&gt;l4_wfov_pc_ndfilt -->
<g id="edge18" class="edge">
<title>calib&#45;&gt;l4_wfov_pc_ndfilt</title>
<path fill="none" stroke="black" d="M247.66,-351.9C247.66,-252.19 247.66,-18 247.66,-18 247.66,-18 471.68,-18 471.68,-18"/>
<polygon fill="black" stroke="black" points="471.68,-21.5 481.68,-18 471.68,-14.5 471.68,-21.5"/>
</g>
<!-- l1_wfov_pc_odir -->
<g id="node7" class="node">
<title>l1_wfov_pc_odir</title>
<ellipse fill="none" stroke="black" cx="567.92" cy="-1044" rx="159.77" ry="18"/>
<text text-anchor="middle" x="567.92" y="-1040.3" font-family="Times,serif" font-size="14.00">Output path for L1_wfov_pc 1..1</text>
</g>
<!-- config&#45;&gt;l1_wfov_pc_odir -->
<g id="edge19" class="edge">
<title>config&#45;&gt;l1_wfov_pc_odir</title>
<path fill="none" stroke="black" d="M350.66,-981.49C350.66,-1011 350.66,-1044 350.66,-1044 350.66,-1044 398.03,-1044 398.03,-1044"/>
<polygon fill="black" stroke="black" points="398.03,-1047.5 408.03,-1044 398.03,-1040.5 398.03,-1047.5"/>
</g>
<!-- l2a_wfov_pc_odir -->
<g id="node10" class="node">
<title>l2a_wfov_pc_odir</title>
<ellipse fill="none" stroke="black" cx="567.92" cy="-990" rx="165.17" ry="18"/>
<text text-anchor="middle" x="567.92" y="-986.3" font-family="Times,serif" font-size="14.00">Output path for L2a_wfov_pc 1..1</text>
</g>
<!-- config&#45;&gt;l2a_wfov_pc_odir -->
<g id="edge20" class="edge">
<title>config&#45;&gt;l2a_wfov_pc_odir</title>
<path fill="none" stroke="black" d="M343.01,-990C343.01,-990 392.8,-990 392.8,-990"/>
<polygon fill="black" stroke="black" points="392.8,-993.5 402.8,-990 392.8,-986.5 392.8,-993.5"/>
</g>
<!-- l2b_wfov_pc_odir -->
<g id="node18" class="node">
<title>l2b_wfov_pc_odir</title>
<ellipse fill="none" stroke="black" cx="567.92" cy="-936" rx="165.97" ry="18"/>
<text text-anchor="middle" x="567.92" y="-932.3" font-family="Times,serif" font-size="14.00">Output path for L2b_wfov_pc 1..1</text>
</g>
<!-- config&#45;&gt;l2b_wfov_pc_odir -->
<g id="edge21" class="edge">
<title>config&#45;&gt;l2b_wfov_pc_odir</title>
<path fill="none" stroke="black" d="M366.37,-936C366.37,-936 392.14,-936 392.14,-936"/>
<polygon fill="black" stroke="black" points="392.14,-939.5 402.14,-936 392.14,-932.5 392.14,-939.5"/>
</g>
<!-- l3_wfov_pc_odir -->
<g id="node23" class="node">
<title>l3_wfov_pc_odir</title>
<ellipse fill="none" stroke="black" cx="567.92" cy="-882" rx="159.77" ry="18"/>
<text text-anchor="middle" x="567.92" y="-878.3" font-family="Times,serif" font-size="14.00">Output path for L3_wfov_pc 1..1</text>
</g>
<!-- config&#45;&gt;l3_wfov_pc_odir -->
<g id="edge22" class="edge">
<title>config&#45;&gt;l3_wfov_pc_odir</title>
<path fill="none" stroke="black" d="M343.01,-882C343.01,-882 398,-882 398,-882"/>
<polygon fill="black" stroke="black" points="398,-885.5 408,-882 398,-878.5 398,-885.5"/>
</g>
<!-- l4_wfov_pc_odir -->
<g id="node27" class="node">
<title>l4_wfov_pc_odir</title>
<ellipse fill="none" stroke="black" cx="567.92" cy="-828" rx="159.77" ry="18"/>
<text text-anchor="middle" x="567.92" y="-824.3" font-family="Times,serif" font-size="14.00">Output path for L4_wfov_pc 1..1</text>
</g>
<!-- config&#45;&gt;l4_wfov_pc_odir -->
<g id="edge23" class="edge">
<title>config&#45;&gt;l4_wfov_pc_odir</title>
<path fill="none" stroke="black" d="M360.66,-907.91C360.66,-875.91 360.66,-828 360.66,-828 360.66,-828 397.95,-828 397.95,-828"/>
<polygon fill="black" stroke="black" points="397.95,-831.5 407.95,-828 397.95,-824.5 397.95,-831.5"/>
</g>
<!-- l1_wfov_pc_rec -->
<g id="node8" class="node">
<title>l1_wfov_pc_rec</title>
<polygon fill="none" stroke="black" points="645.42,-1326 478.42,-1326 478.42,-1302 645.42,-1302 657.42,-1314 645.42,-1326"/>
<text text-anchor="middle" x="567.92" y="-1310.3" font-family="Times,serif" font-size="14.00">recipe L1_wfov_pc 1..1</text>
</g>
<!-- recipe&#45;&gt;l1_wfov_pc_rec -->
<g id="edge24" class="edge">
<title>recipe&#45;&gt;l1_wfov_pc_rec</title>
<path fill="none" stroke="black" d="M278.66,-1246.22C278.66,-1276.92 278.66,-1314 278.66,-1314 278.66,-1314 468.38,-1314 468.38,-1314"/>
<polygon fill="black" stroke="black" points="468.38,-1317.5 478.38,-1314 468.38,-1310.5 468.38,-1317.5"/>
</g>
<!-- l2a_wfov_pc_rec -->
<g id="node11" class="node">
<title>l2a_wfov_pc_rec</title>
<polygon fill="none" stroke="black" points="649.42,-1272 474.42,-1272 474.42,-1248 649.42,-1248 661.42,-1260 649.42,-1272"/>
<text text-anchor="middle" x="567.92" y="-1256.3" font-family="Times,serif" font-size="14.00">recipe L2a_wfov_pc 1..1</text>
</g>
<!-- recipe&#45;&gt;l2a_wfov_pc_rec -->
<g id="edge25" class="edge">
<title>recipe&#45;&gt;l2a_wfov_pc_rec</title>
<path fill="none" stroke="black" d="M306.66,-1245.67C306.66,-1255.42 306.66,-1263.12 306.66,-1263.12 306.66,-1263.12 464.34,-1263.12 464.34,-1263.12"/>
<polygon fill="black" stroke="black" points="464.34,-1266.62 474.34,-1263.12 464.34,-1259.62 464.34,-1266.62"/>
</g>
<!-- l2b_wfov_pc_rec -->
<g id="node19" class="node">
<title>l2b_wfov_pc_rec</title>
<polygon fill="none" stroke="black" points="649.92,-1218 473.92,-1218 473.92,-1194 649.92,-1194 661.92,-1206 649.92,-1218"/>
<text text-anchor="middle" x="567.92" y="-1202.3" font-family="Times,serif" font-size="14.00">recipe L2b_wfov_pc 1..1</text>
</g>
<!-- recipe&#45;&gt;l2b_wfov_pc_rec -->
<g id="edge26" class="edge">
<title>recipe&#45;&gt;l2b_wfov_pc_rec</title>
<path fill="none" stroke="black" d="M334.59,-1206C334.59,-1206 463.66,-1206 463.66,-1206"/>
<polygon fill="black" stroke="black" points="463.66,-1209.5 473.66,-1206 463.66,-1202.5 463.66,-1209.5"/>
</g>
<!-- l3_wfov_pc_rec -->
<g id="node24" class="node">
<title>l3_wfov_pc_rec</title>
<polygon fill="none" stroke="black" points="645.42,-1164 478.42,-1164 478.42,-1140 645.42,-1140 657.42,-1152 645.42,-1164"/>
<text text-anchor="middle" x="567.92" y="-1148.3" font-family="Times,serif" font-size="14.00">recipe L3_wfov_pc 1..1</text>
</g>
<!-- recipe&#45;&gt;l3_wfov_pc_rec -->
<g id="edge27" class="edge">
<title>recipe&#45;&gt;l3_wfov_pc_rec</title>
<path fill="none" stroke="black" d="M306.66,-1166.33C306.66,-1156.58 306.66,-1148.88 306.66,-1148.88 306.66,-1148.88 468.38,-1148.88 468.38,-1148.88"/>
<polygon fill="black" stroke="black" points="468.38,-1152.38 478.38,-1148.88 468.38,-1145.38 468.38,-1152.38"/>
</g>
<!-- l4_wfov_pc_rec -->
<g id="node28" class="node">
<title>l4_wfov_pc_rec</title>
<polygon fill="none" stroke="black" points="645.42,-1110 478.42,-1110 478.42,-1086 645.42,-1086 657.42,-1098 645.42,-1110"/>
<text text-anchor="middle" x="567.92" y="-1094.3" font-family="Times,serif" font-size="14.00">recipe L4_wfov_pc 1..1</text>
</g>
<!-- recipe&#45;&gt;l4_wfov_pc_rec -->
<g id="edge28" class="edge">
<title>recipe&#45;&gt;l4_wfov_pc_rec</title>
<path fill="none" stroke="black" d="M278.66,-1165.78C278.66,-1135.08 278.66,-1098 278.66,-1098 278.66,-1098 468.38,-1098 468.38,-1098"/>
<polygon fill="black" stroke="black" points="468.38,-1101.5 478.38,-1098 468.38,-1094.5 468.38,-1101.5"/>
</g>
</g>
</svg>
