<?xml version="1.0" encoding="UTF-8" standalone="no"?>
<!DOCTYPE svg PUBLIC "-//W3C//DTD SVG 1.1//EN"
 "http://www.w3.org/Graphics/SVG/1.1/DTD/svg11.dtd">
<!-- Generated by graphviz version 2.43.0 (0)
 -->
<!-- Title: WFOVAClerks Pages: 1 -->
<svg width="731pt" height="1286pt"
 viewBox="0.00 0.00 731.26 1286.00" xmlns="http://www.w3.org/2000/svg" xmlns:xlink="http://www.w3.org/1999/xlink">
<g id="graph0" class="graph" transform="scale(1 1) rotate(0) translate(4 1282)">
<title>WFOVAClerks</title>
<polygon fill="white" stroke="transparent" points="-4,4 -4,-1282 727.26,-1282 727.26,4 -4,4"/>
<!-- alarm_cal -->
<g id="node1" class="node">
<title>alarm_cal</title>
<text text-anchor="middle" x="91" y="-365.3" font-family="Times,serif" font-size="14.00">User requested update</text>
</g>
<!-- calib -->
<g id="node4" class="node">
<title>calib</title>
<ellipse fill="none" stroke="black" cx="292.09" cy="-369" rx="62.29" ry="62.29"/>
<text text-anchor="middle" x="292.09" y="-365.3" font-family="Times,serif" font-size="14.00">Calibration</text>
</g>
<!-- alarm_cal&#45;&gt;calib -->
<g id="edge1" class="edge">
<title>alarm_cal&#45;&gt;calib</title>
<path fill="none" stroke="black" stroke-dasharray="5,2" d="M182.13,-369C182.13,-369 219.47,-369 219.47,-369"/>
<polygon fill="black" stroke="black" points="219.47,-372.5 229.47,-369 219.47,-365.5 219.47,-372.5"/>
</g>
<!-- alarm_cnf -->
<g id="node2" class="node">
<title>alarm_cnf</title>
<text text-anchor="middle" x="91" y="-878.3" font-family="Times,serif" font-size="14.00">User requested update</text>
</g>
<!-- config -->
<g id="node5" class="node">
<title>config</title>
<ellipse fill="none" stroke="black" cx="292.09" cy="-882" rx="74.19" ry="74.19"/>
<text text-anchor="middle" x="292.09" y="-878.3" font-family="Times,serif" font-size="14.00">Configuration</text>
</g>
<!-- alarm_cnf&#45;&gt;config -->
<g id="edge2" class="edge">
<title>alarm_cnf&#45;&gt;config</title>
<path fill="none" stroke="black" stroke-dasharray="5,2" d="M182.13,-882C182.13,-882 207.84,-882 207.84,-882"/>
<polygon fill="black" stroke="black" points="207.84,-885.5 217.84,-882 207.84,-878.5 207.84,-885.5"/>
</g>
<!-- alarm_rec -->
<g id="node3" class="node">
<title>alarm_rec</title>
<text text-anchor="middle" x="91" y="-1148.3" font-family="Times,serif" font-size="14.00">User requested update</text>
</g>
<!-- recipe -->
<g id="node6" class="node">
<title>recipe</title>
<ellipse fill="none" stroke="black" cx="292.09" cy="-1152" rx="42.49" ry="42.49"/>
<text text-anchor="middle" x="292.09" y="-1148.3" font-family="Times,serif" font-size="14.00">Recipe</text>
</g>
<!-- alarm_rec&#45;&gt;recipe -->
<g id="edge3" class="edge">
<title>alarm_rec&#45;&gt;recipe</title>
<path fill="none" stroke="black" stroke-dasharray="5,2" d="M182.13,-1152C182.13,-1152 239.74,-1152 239.74,-1152"/>
<polygon fill="black" stroke="black" points="239.74,-1155.5 249.74,-1152 239.74,-1148.5 239.74,-1155.5"/>
</g>
<!-- l1_wfov_a_nllut -->
<g id="node9" class="node">
<title>l1_wfov_a_nllut</title>
<polygon fill="none" stroke="black" points="651.22,-732 462.22,-732 462.22,-708 651.22,-708 663.22,-720 651.22,-732"/>
<text text-anchor="middle" x="562.72" y="-716.3" font-family="Times,serif" font-size="14.00">non linear calibration 1..1</text>
</g>
<!-- calib&#45;&gt;l1_wfov_a_nllut -->
<g id="edge4" class="edge">
<title>calib&#45;&gt;l1_wfov_a_nllut</title>
<path fill="none" stroke="black" d="M261.26,-423.46C261.26,-522.05 261.26,-720 261.26,-720 261.26,-720 451.92,-720 451.92,-720"/>
<polygon fill="black" stroke="black" points="451.92,-723.5 461.92,-720 451.92,-716.5 451.92,-723.5"/>
</g>
<!-- l2a_wfov_a_mbpm -->
<g id="node12" class="node">
<title>l2a_wfov_a_mbpm</title>
<polygon fill="none" stroke="black" points="651.72,-678 461.72,-678 461.72,-654 651.72,-654 663.72,-666 651.72,-678"/>
<text text-anchor="middle" x="562.72" y="-662.3" font-family="Times,serif" font-size="14.00">wfov_a bad pixel map 1..1</text>
</g>
<!-- calib&#45;&gt;l2a_wfov_a_mbpm -->
<g id="edge5" class="edge">
<title>calib&#45;&gt;l2a_wfov_a_mbpm</title>
<path fill="none" stroke="black" d="M292.26,-431.62C292.26,-518.76 292.26,-666 292.26,-666 292.26,-666 451.63,-666 451.63,-666"/>
<polygon fill="black" stroke="black" points="451.63,-669.5 461.63,-666 451.63,-662.5 451.63,-669.5"/>
</g>
<!-- l2a_wfov_a_dnb -->
<g id="node13" class="node">
<title>l2a_wfov_a_dnb</title>
<polygon fill="none" stroke="black" points="703.22,-624 410.22,-624 410.22,-600 703.22,-600 715.22,-612 703.22,-624"/>
<text text-anchor="middle" x="562.72" y="-608.3" font-family="Times,serif" font-size="14.00">wfov_a dark (CIC/FPN/dark current) 1..1</text>
</g>
<!-- calib&#45;&gt;l2a_wfov_a_dnb -->
<g id="edge6" class="edge">
<title>calib&#45;&gt;l2a_wfov_a_dnb</title>
<path fill="none" stroke="black" d="M315.16,-427.05C351.06,-427.05 416.26,-427.05 416.26,-427.05 416.26,-427.05 416.26,-583.93 416.26,-583.93"/>
<polygon fill="black" stroke="black" points="412.76,-583.93 416.26,-593.93 419.76,-583.93 412.76,-583.93"/>
</g>
<!-- l2a_wfov_a_cti -->
<g id="node14" class="node">
<title>l2a_wfov_a_cti</title>
<polygon fill="none" stroke="black" points="692.72,-570 420.72,-570 420.72,-546 692.72,-546 704.72,-558 692.72,-570"/>
<text text-anchor="middle" x="562.72" y="-554.3" font-family="Times,serif" font-size="14.00">wfov_a charge transfer efficiency 1..1</text>
</g>
<!-- calib&#45;&gt;l2a_wfov_a_cti -->
<g id="edge7" class="edge">
<title>calib&#45;&gt;l2a_wfov_a_cti</title>
<path fill="none" stroke="black" d="M324.13,-422.7C364.1,-422.7 427.26,-422.7 427.26,-422.7 427.26,-422.7 427.26,-529.75 427.26,-529.75"/>
<polygon fill="black" stroke="black" points="423.76,-529.75 427.26,-539.75 430.76,-529.75 423.76,-529.75"/>
</g>
<!-- l2a_wfov_a_ff -->
<g id="node15" class="node">
<title>l2a_wfov_a_ff</title>
<polygon fill="none" stroke="black" points="630.72,-516 482.72,-516 482.72,-492 630.72,-492 642.72,-504 630.72,-516"/>
<text text-anchor="middle" x="562.72" y="-500.3" font-family="Times,serif" font-size="14.00">wfov_a flat field 1..1</text>
</g>
<!-- calib&#45;&gt;l2a_wfov_a_ff -->
<g id="edge8" class="edge">
<title>calib&#45;&gt;l2a_wfov_a_ff</title>
<path fill="none" stroke="black" d="M330.65,-418.35C387.53,-418.35 487.26,-418.35 487.26,-418.35 487.26,-418.35 487.26,-475.84 487.26,-475.84"/>
<polygon fill="black" stroke="black" points="483.76,-475.84 487.26,-485.84 490.76,-475.84 483.76,-475.84"/>
</g>
<!-- l2a_wfov_a_kgain -->
<g id="node16" class="node">
<title>l2a_wfov_a_kgain</title>
<polygon fill="none" stroke="black" points="623.22,-462 490.22,-462 490.22,-438 623.22,-438 635.22,-450 623.22,-462"/>
<text text-anchor="middle" x="562.72" y="-446.3" font-family="Times,serif" font-size="14.00">wfov_a k&#45;gain 1..1</text>
</g>
<!-- calib&#45;&gt;l2a_wfov_a_kgain -->
<g id="edge9" class="edge">
<title>calib&#45;&gt;l2a_wfov_a_kgain</title>
<path fill="none" stroke="black" d="M324.26,-422.58C324.26,-437.64 324.26,-450 324.26,-450 324.26,-450 480.2,-450 480.2,-450"/>
<polygon fill="black" stroke="black" points="480.2,-453.5 490.2,-450 480.2,-446.5 480.2,-453.5"/>
</g>
<!-- l2a_wfov_a_emg -->
<g id="node17" class="node">
<title>l2a_wfov_a_emg</title>
<polygon fill="none" stroke="black" points="631.22,-408 482.22,-408 482.22,-384 631.22,-384 643.22,-396 631.22,-408"/>
<text text-anchor="middle" x="562.72" y="-392.3" font-family="Times,serif" font-size="14.00">wfov_a EM gain 1..1</text>
</g>
<!-- calib&#45;&gt;l2a_wfov_a_emg -->
<g id="edge10" class="edge">
<title>calib&#45;&gt;l2a_wfov_a_emg</title>
<path fill="none" stroke="black" d="M348.5,-396C348.5,-396 472.01,-396 472.01,-396"/>
<polygon fill="black" stroke="black" points="472.01,-399.5 482.01,-396 472.01,-392.5 472.01,-399.5"/>
</g>
<!-- l2b_wfov_a_distm -->
<g id="node20" class="node">
<title>l2b_wfov_a_distm</title>
<polygon fill="none" stroke="black" points="653.72,-354 459.72,-354 459.72,-330 653.72,-330 665.72,-342 653.72,-354"/>
<text text-anchor="middle" x="562.72" y="-338.3" font-family="Times,serif" font-size="14.00">wfov_a distortion map 1..1</text>
</g>
<!-- calib&#45;&gt;l2b_wfov_a_distm -->
<g id="edge11" class="edge">
<title>calib&#45;&gt;l2b_wfov_a_distm</title>
<path fill="none" stroke="black" d="M348.5,-342C348.5,-342 449.64,-342 449.64,-342"/>
<polygon fill="black" stroke="black" points="449.64,-345.5 459.64,-342 449.64,-338.5 449.64,-345.5"/>
</g>
<!-- l2b_wfov_a_excicrf -->
<g id="node21" class="node">
<title>l2b_wfov_a_excicrf</title>
<polygon fill="none" stroke="black" points="679.22,-300 434.22,-300 434.22,-276 679.22,-276 691.22,-288 679.22,-300"/>
<text text-anchor="middle" x="562.72" y="-284.3" font-family="Times,serif" font-size="14.00">wfov_a EXCAM ICRF location 1..1</text>
</g>
<!-- calib&#45;&gt;l2b_wfov_a_excicrf -->
<g id="edge12" class="edge">
<title>calib&#45;&gt;l2b_wfov_a_excicrf</title>
<path fill="none" stroke="black" d="M324.24,-315.3C369.69,-315.3 447.26,-315.3 447.26,-315.3 447.26,-315.3 447.26,-314.38 447.26,-314.38"/>
<polygon fill="black" stroke="black" points="450.76,-316.06 447.26,-306.06 443.76,-316.06 450.76,-316.06"/>
</g>
<!-- l2b_wfov_a_excfovps -->
<g id="node22" class="node">
<title>l2b_wfov_a_excfovps</title>
<polygon fill="none" stroke="black" points="681.22,-246 432.22,-246 432.22,-222 681.22,-222 693.22,-234 681.22,-246"/>
<text text-anchor="middle" x="562.72" y="-230.3" font-family="Times,serif" font-size="14.00">wfov_a ECAM FOV pixel scale 1..1</text>
</g>
<!-- calib&#45;&gt;l2b_wfov_a_excfovps -->
<g id="edge13" class="edge">
<title>calib&#45;&gt;l2b_wfov_a_excfovps</title>
<path fill="none" stroke="black" d="M334.26,-322.92C334.26,-283.81 334.26,-234 334.26,-234 334.26,-234 422.14,-234 422.14,-234"/>
<polygon fill="black" stroke="black" points="422.14,-237.5 432.14,-234 422.14,-230.5 422.14,-237.5"/>
</g>
<!-- l3_wfov_a_cal -->
<g id="node25" class="node">
<title>l3_wfov_a_cal</title>
<polygon fill="none" stroke="black" points="639.72,-192 473.72,-192 473.72,-168 639.72,-168 651.72,-180 639.72,-192"/>
<text text-anchor="middle" x="562.72" y="-176.3" font-family="Times,serif" font-size="14.00">wfov_a calibration 1..1</text>
</g>
<!-- calib&#45;&gt;l3_wfov_a_cal -->
<g id="edge14" class="edge">
<title>calib&#45;&gt;l3_wfov_a_cal</title>
<path fill="none" stroke="black" d="M313.26,-310.24C313.26,-254.75 313.26,-180 313.26,-180 313.26,-180 463.72,-180 463.72,-180"/>
<polygon fill="black" stroke="black" points="463.72,-183.5 473.72,-180 463.72,-176.5 463.72,-183.5"/>
</g>
<!-- l4_wfov_a_afcal -->
<g id="node28" class="node">
<title>l4_wfov_a_afcal</title>
<polygon fill="none" stroke="black" points="647.22,-138 466.22,-138 466.22,-114 647.22,-114 659.22,-126 647.22,-138"/>
<text text-anchor="middle" x="562.72" y="-122.3" font-family="Times,serif" font-size="14.00">wfov_a absolute flux 1..1</text>
</g>
<!-- calib&#45;&gt;l4_wfov_a_afcal -->
<g id="edge15" class="edge">
<title>calib&#45;&gt;l4_wfov_a_afcal</title>
<path fill="none" stroke="black" d="M292.26,-306.42C292.26,-234.42 292.26,-126 292.26,-126 292.26,-126 455.84,-126 455.84,-126"/>
<polygon fill="black" stroke="black" points="455.84,-129.5 465.84,-126 455.84,-122.5 455.84,-129.5"/>
</g>
<!-- l4_wfov_a_ctcal -->
<g id="node29" class="node">
<title>l4_wfov_a_ctcal</title>
<polygon fill="none" stroke="black" points="659.72,-84 453.72,-84 453.72,-60 659.72,-60 671.72,-72 659.72,-84"/>
<text text-anchor="middle" x="562.72" y="-68.3" font-family="Times,serif" font-size="14.00">wfov_a core throughput 1..1</text>
</g>
<!-- calib&#45;&gt;l4_wfov_a_ctcal -->
<g id="edge16" class="edge">
<title>calib&#45;&gt;l4_wfov_a_ctcal</title>
<path fill="none" stroke="black" d="M272.26,-309.61C272.26,-222.94 272.26,-72 272.26,-72 272.26,-72 443.32,-72 443.32,-72"/>
<polygon fill="black" stroke="black" points="443.32,-75.5 453.32,-72 443.32,-68.5 443.32,-75.5"/>
</g>
<!-- l4_wfov_a_ndfilt -->
<g id="node30" class="node">
<title>l4_wfov_a_ndfilt</title>
<polygon fill="none" stroke="black" points="632.72,-30 480.72,-30 480.72,-6 632.72,-6 644.72,-18 632.72,-30"/>
<text text-anchor="middle" x="562.72" y="-14.3" font-family="Times,serif" font-size="14.00">wfov_a ND filter 1..1</text>
</g>
<!-- calib&#45;&gt;l4_wfov_a_ndfilt -->
<g id="edge17" class="edge">
<title>calib&#45;&gt;l4_wfov_a_ndfilt</title>
<path fill="none" stroke="black" d="M251.26,-321.66C251.26,-225.85 251.26,-18 251.26,-18 251.26,-18 470.48,-18 470.48,-18"/>
<polygon fill="black" stroke="black" points="470.48,-21.5 480.48,-18 470.48,-14.5 470.48,-21.5"/>
</g>
<!-- l1_wfov_a_odir -->
<g id="node7" class="node">
<title>l1_wfov_a_odir</title>
<ellipse fill="none" stroke="black" cx="562.72" cy="-990" rx="154.87" ry="18"/>
<text text-anchor="middle" x="562.72" y="-986.3" font-family="Times,serif" font-size="14.00">Output path for L1_wfov_a 1..1</text>
</g>
<!-- config&#45;&gt;l1_wfov_a_odir -->
<g id="edge18" class="edge">
<title>config&#45;&gt;l1_wfov_a_odir</title>
<path fill="none" stroke="black" d="M351.26,-926.86C351.26,-956.54 351.26,-990 351.26,-990 351.26,-990 397.93,-990 397.93,-990"/>
<polygon fill="black" stroke="black" points="397.93,-993.5 407.93,-990 397.93,-986.5 397.93,-993.5"/>
</g>
<!-- l2a_wfov_a_odir -->
<g id="node10" class="node">
<title>l2a_wfov_a_odir</title>
<ellipse fill="none" stroke="black" cx="562.72" cy="-936" rx="159.77" ry="18"/>
<text text-anchor="middle" x="562.72" y="-932.3" font-family="Times,serif" font-size="14.00">Output path for L2a_wfov_a 1..1</text>
</g>
<!-- config&#45;&gt;l2a_wfov_a_odir -->
<g id="edge19" class="edge">
<title>config&#45;&gt;l2a_wfov_a_odir</title>
<path fill="none" stroke="black" d="M343,-936C343,-936 392.75,-936 392.75,-936"/>
<polygon fill="black" stroke="black" points="392.75,-939.5 402.75,-936 392.75,-932.5 392.75,-939.5"/>
</g>
<!-- l2b_wfov_a_odir -->
<g id="node18" class="node">
<title>l2b_wfov_a_odir</title>
<ellipse fill="none" stroke="black" cx="562.72" cy="-882" rx="160.57" ry="18"/>
<text text-anchor="middle" x="562.72" y="-878.3" font-family="Times,serif" font-size="14.00">Output path for L2b_wfov_a 1..1</text>
</g>
<!-- config&#45;&gt;l2b_wfov_a_odir -->
<g id="edge20" class="edge">
<title>config&#45;&gt;l2b_wfov_a_odir</title>
<path fill="none" stroke="black" d="M366.4,-882C366.4,-882 392.17,-882 392.17,-882"/>
<polygon fill="black" stroke="black" points="392.17,-885.5 402.17,-882 392.17,-878.5 392.17,-885.5"/>
</g>
<!-- l3_wfov_a_odir -->
<g id="node23" class="node">
<title>l3_wfov_a_odir</title>
<ellipse fill="none" stroke="black" cx="562.72" cy="-828" rx="154.87" ry="18"/>
<text text-anchor="middle" x="562.72" y="-824.3" font-family="Times,serif" font-size="14.00">Output path for L3_wfov_a 1..1</text>
</g>
<!-- config&#45;&gt;l3_wfov_a_odir -->
<g id="edge21" class="edge">
<title>config&#45;&gt;l3_wfov_a_odir</title>
<path fill="none" stroke="black" d="M343,-828C343,-828 397.84,-828 397.84,-828"/>
<polygon fill="black" stroke="black" points="397.84,-831.5 407.84,-828 397.84,-824.5 397.84,-831.5"/>
</g>
<!-- l4_wfov_a_odir -->
<g id="node26" class="node">
<title>l4_wfov_a_odir</title>
<ellipse fill="none" stroke="black" cx="562.72" cy="-774" rx="154.87" ry="18"/>
<text text-anchor="middle" x="562.72" y="-770.3" font-family="Times,serif" font-size="14.00">Output path for L4_wfov_a 1..1</text>
</g>
<!-- config&#45;&gt;l4_wfov_a_odir -->
<g id="edge22" class="edge">
<title>config&#45;&gt;l4_wfov_a_odir</title>
<path fill="none" stroke="black" d="M361.26,-855.3C361.26,-823.32 361.26,-774 361.26,-774 361.26,-774 397.98,-774 397.98,-774"/>
<polygon fill="black" stroke="black" points="397.98,-777.5 407.98,-774 397.98,-770.5 397.98,-777.5"/>
</g>
<!-- l1_wfov_a_rec -->
<g id="node8" class="node">
<title>l1_wfov_a_rec</title>
<polygon fill="none" stroke="black" points="635.72,-1272 477.72,-1272 477.72,-1248 635.72,-1248 647.72,-1260 635.72,-1272"/>
<text text-anchor="middle" x="562.72" y="-1256.3" font-family="Times,serif" font-size="14.00">recipe L1_wfov_a 1..1</text>
</g>
<!-- recipe&#45;&gt;l1_wfov_a_rec -->
<g id="edge23" class="edge">
<title>recipe&#45;&gt;l1_wfov_a_rec</title>
<path fill="none" stroke="black" d="M278.26,-1192.22C278.26,-1222.92 278.26,-1260 278.26,-1260 278.26,-1260 467.37,-1260 467.37,-1260"/>
<polygon fill="black" stroke="black" points="467.37,-1263.5 477.37,-1260 467.37,-1256.5 467.37,-1263.5"/>
</g>
<!-- l2a_wfov_a_rec -->
<g id="node11" class="node">
<title>l2a_wfov_a_rec</title>
<polygon fill="none" stroke="black" points="640.22,-1218 473.22,-1218 473.22,-1194 640.22,-1194 652.22,-1206 640.22,-1218"/>
<text text-anchor="middle" x="562.72" y="-1202.3" font-family="Times,serif" font-size="14.00">recipe L2a_wfov_a 1..1</text>
</g>
<!-- recipe&#45;&gt;l2a_wfov_a_rec -->
<g id="edge24" class="edge">
<title>recipe&#45;&gt;l2a_wfov_a_rec</title>
<path fill="none" stroke="black" d="M306.26,-1191.98C306.26,-1201.58 306.26,-1209.12 306.26,-1209.12 306.26,-1209.12 463.02,-1209.12 463.02,-1209.12"/>
<polygon fill="black" stroke="black" points="463.02,-1212.62 473.02,-1209.12 463.02,-1205.62 463.02,-1212.62"/>
</g>
<!-- l2b_wfov_a_rec -->
<g id="node19" class="node">
<title>l2b_wfov_a_rec</title>
<polygon fill="none" stroke="black" points="640.22,-1164 473.22,-1164 473.22,-1140 640.22,-1140 652.22,-1152 640.22,-1164"/>
<text text-anchor="middle" x="562.72" y="-1148.3" font-family="Times,serif" font-size="14.00">recipe L2b_wfov_a 1..1</text>
</g>
<!-- recipe&#45;&gt;l2b_wfov_a_rec -->
<g id="edge25" class="edge">
<title>recipe&#45;&gt;l2b_wfov_a_rec</title>
<path fill="none" stroke="black" d="M334.38,-1152C334.38,-1152 463.17,-1152 463.17,-1152"/>
<polygon fill="black" stroke="black" points="463.17,-1155.5 473.17,-1152 463.17,-1148.5 463.17,-1155.5"/>
</g>
<!-- l3_wfov_a_rec -->
<g id="node24" class="node">
<title>l3_wfov_a_rec</title>
<polygon fill="none" stroke="black" points="635.72,-1110 477.72,-1110 477.72,-1086 635.72,-1086 647.72,-1098 635.72,-1110"/>
<text text-anchor="middle" x="562.72" y="-1094.3" font-family="Times,serif" font-size="14.00">recipe L3_wfov_a 1..1</text>
</g>
<!-- recipe&#45;&gt;l3_wfov_a_rec -->
<g id="edge26" class="edge">
<title>recipe&#45;&gt;l3_wfov_a_rec</title>
<path fill="none" stroke="black" d="M306.26,-1112.02C306.26,-1102.42 306.26,-1094.88 306.26,-1094.88 306.26,-1094.88 467.68,-1094.88 467.68,-1094.88"/>
<polygon fill="black" stroke="black" points="467.68,-1098.38 477.68,-1094.88 467.68,-1091.38 467.68,-1098.38"/>
</g>
<!-- l4_wfov_a_rec -->
<g id="node27" class="node">
<title>l4_wfov_a_rec</title>
<polygon fill="none" stroke="black" points="635.72,-1056 477.72,-1056 477.72,-1032 635.72,-1032 647.72,-1044 635.72,-1056"/>
<text text-anchor="middle" x="562.72" y="-1040.3" font-family="Times,serif" font-size="14.00">recipe L4_wfov_a 1..1</text>
</g>
<!-- recipe&#45;&gt;l4_wfov_a_rec -->
<g id="edge27" class="edge">
<title>recipe&#45;&gt;l4_wfov_a_rec</title>
<path fill="none" stroke="black" d="M278.26,-1111.78C278.26,-1081.08 278.26,-1044 278.26,-1044 278.26,-1044 467.37,-1044 467.37,-1044"/>
<polygon fill="black" stroke="black" points="467.37,-1047.5 477.37,-1044 467.37,-1040.5 467.37,-1047.5"/>
</g>
</g>
</svg>
