<?xml version="1.0" encoding="UTF-8" standalone="no"?>
<!DOCTYPE svg PUBLIC "-//W3C//DTD SVG 1.1//EN"
 "http://www.w3.org/Graphics/SVG/1.1/DTD/svg11.dtd">
<!-- Generated by graphviz version 2.43.0 (0)
 -->
<!-- Title: Clerks Pages: 1 -->
<svg width="742pt" height="1286pt"
 viewBox="0.00 0.00 741.66 1286.00" xmlns="http://www.w3.org/2000/svg" xmlns:xlink="http://www.w3.org/1999/xlink">
<g id="graph0" class="graph" transform="scale(1 1) rotate(0) translate(4 1282)">
<title>Clerks</title>
<polygon fill="white" stroke="transparent" points="-4,4 -4,-1282 737.66,-1282 737.66,4 -4,4"/>
<!-- alarm_cal -->
<g id="node1" class="node">
<title>alarm_cal</title>
<text text-anchor="middle" x="91" y="-365.3" font-family="Times,serif" font-size="14.00">User requested update</text>
</g>
<!-- calib -->
<g id="node4" class="node">
<title>calib</title>
<ellipse fill="none" stroke="black" cx="292.09" cy="-369" rx="62.29" ry="62.29"/>
<text text-anchor="middle" x="292.09" y="-365.3" font-family="Times,serif" font-size="14.00">Calibration</text>
</g>
<!-- alarm_cal&#45;&gt;calib -->
<g id="edge1" class="edge">
<title>alarm_cal&#45;&gt;calib</title>
<path fill="none" stroke="black" stroke-dasharray="5,2" d="M182.13,-369C182.13,-369 219.47,-369 219.47,-369"/>
<polygon fill="black" stroke="black" points="219.47,-372.5 229.47,-369 219.47,-365.5 219.47,-372.5"/>
</g>
<!-- alarm_cnf -->
<g id="node2" class="node">
<title>alarm_cnf</title>
<text text-anchor="middle" x="91" y="-878.3" font-family="Times,serif" font-size="14.00">User requested update</text>
</g>
<!-- config -->
<g id="node5" class="node">
<title>config</title>
<ellipse fill="none" stroke="black" cx="292.09" cy="-882" rx="74.19" ry="74.19"/>
<text text-anchor="middle" x="292.09" y="-878.3" font-family="Times,serif" font-size="14.00">Configuration</text>
</g>
<!-- alarm_cnf&#45;&gt;config -->
<g id="edge2" class="edge">
<title>alarm_cnf&#45;&gt;config</title>
<path fill="none" stroke="black" stroke-dasharray="5,2" d="M182.13,-882C182.13,-882 207.84,-882 207.84,-882"/>
<polygon fill="black" stroke="black" points="207.84,-885.5 217.84,-882 207.84,-878.5 207.84,-885.5"/>
</g>
<!-- alarm_rec -->
<g id="node3" class="node">
<title>alarm_rec</title>
<text text-anchor="middle" x="91" y="-1148.3" font-family="Times,serif" font-size="14.00">User requested update</text>
</g>
<!-- recipe -->
<g id="node6" class="node">
<title>recipe</title>
<ellipse fill="none" stroke="black" cx="292.09" cy="-1152" rx="42.49" ry="42.49"/>
<text text-anchor="middle" x="292.09" y="-1148.3" font-family="Times,serif" font-size="14.00">Recipe</text>
</g>
<!-- alarm_rec&#45;&gt;recipe -->
<g id="edge3" class="edge">
<title>alarm_rec&#45;&gt;recipe</title>
<path fill="none" stroke="black" stroke-dasharray="5,2" d="M182.13,-1152C182.13,-1152 239.74,-1152 239.74,-1152"/>
<polygon fill="black" stroke="black" points="239.74,-1155.5 249.74,-1152 239.74,-1148.5 239.74,-1155.5"/>
</g>
<!-- l1_wfov_nc_nllut -->
<g id="node9" class="node">
<title>l1_wfov_nc_nllut</title>
<polygon fill="none" stroke="black" points="656.42,-732 467.42,-732 467.42,-708 656.42,-708 668.42,-720 656.42,-732"/>
<text text-anchor="middle" x="567.92" y="-716.3" font-family="Times,serif" font-size="14.00">non linear calibration 1..1</text>
</g>
<!-- calib&#45;&gt;l1_wfov_nc_nllut -->
<g id="edge4" class="edge">
<title>calib&#45;&gt;l1_wfov_nc_nllut</title>
<path fill="none" stroke="black" d="M261.66,-423.84C261.66,-522.56 261.66,-720 261.66,-720 261.66,-720 457.22,-720 457.22,-720"/>
<polygon fill="black" stroke="black" points="457.22,-723.5 467.22,-720 457.22,-716.5 457.22,-723.5"/>
</g>
<!-- l2a_wfov_nc_mbpm -->
<g id="node12" class="node">
<title>l2a_wfov_nc_mbpm</title>
<polygon fill="none" stroke="black" points="660.92,-678 462.92,-678 462.92,-654 660.92,-654 672.92,-666 660.92,-678"/>
<text text-anchor="middle" x="567.92" y="-662.3" font-family="Times,serif" font-size="14.00">wfov_nc bad pixel map 1..1</text>
</g>
<!-- calib&#45;&gt;l2a_wfov_nc_mbpm -->
<g id="edge5" class="edge">
<title>calib&#45;&gt;l2a_wfov_nc_mbpm</title>
<path fill="none" stroke="black" d="M292.66,-431.62C292.66,-518.76 292.66,-666 292.66,-666 292.66,-666 452.68,-666 452.68,-666"/>
<polygon fill="black" stroke="black" points="452.68,-669.5 462.68,-666 452.68,-662.5 452.68,-669.5"/>
</g>
<!-- l2a_wfov_nc_dnb -->
<g id="node13" class="node">
<title>l2a_wfov_nc_dnb</title>
<polygon fill="none" stroke="black" points="712.92,-624 410.92,-624 410.92,-600 712.92,-600 724.92,-612 712.92,-624"/>
<text text-anchor="middle" x="567.92" y="-608.3" font-family="Times,serif" font-size="14.00">wfov_nc dark (CIC/FPN/dark current) 1..1</text>
</g>
<!-- calib&#45;&gt;l2a_wfov_nc_dnb -->
<g id="edge6" class="edge">
<title>calib&#45;&gt;l2a_wfov_nc_dnb</title>
<path fill="none" stroke="black" d="M315.23,-427.05C351.25,-427.05 416.66,-427.05 416.66,-427.05 416.66,-427.05 416.66,-583.93 416.66,-583.93"/>
<polygon fill="black" stroke="black" points="413.16,-583.93 416.66,-593.93 420.16,-583.93 413.16,-583.93"/>
</g>
<!-- l2a_wfov_nc_cti -->
<g id="node14" class="node">
<title>l2a_wfov_nc_cti</title>
<polygon fill="none" stroke="black" points="702.42,-570 421.42,-570 421.42,-546 702.42,-546 714.42,-558 702.42,-570"/>
<text text-anchor="middle" x="567.92" y="-554.3" font-family="Times,serif" font-size="14.00">wfov_nc charge transfer efficiency 1..1</text>
</g>
<!-- calib&#45;&gt;l2a_wfov_nc_cti -->
<g id="edge7" class="edge">
<title>calib&#45;&gt;l2a_wfov_nc_cti</title>
<path fill="none" stroke="black" d="M323.88,-422.7C363.95,-422.7 427.66,-422.7 427.66,-422.7 427.66,-422.7 427.66,-529.75 427.66,-529.75"/>
<polygon fill="black" stroke="black" points="424.16,-529.75 427.66,-539.75 431.16,-529.75 424.16,-529.75"/>
</g>
<!-- l2a_wfov_nc_ff -->
<g id="node15" class="node">
<title>l2a_wfov_nc_ff</title>
<polygon fill="none" stroke="black" points="639.92,-516 483.92,-516 483.92,-492 639.92,-492 651.92,-504 639.92,-516"/>
<text text-anchor="middle" x="567.92" y="-500.3" font-family="Times,serif" font-size="14.00">wfov_nc flat field 1..1</text>
</g>
<!-- calib&#45;&gt;l2a_wfov_nc_ff -->
<g id="edge8" class="edge">
<title>calib&#45;&gt;l2a_wfov_nc_ff</title>
<path fill="none" stroke="black" d="M330.46,-418.35C387.66,-418.35 488.66,-418.35 488.66,-418.35 488.66,-418.35 488.66,-475.84 488.66,-475.84"/>
<polygon fill="black" stroke="black" points="485.16,-475.84 488.66,-485.84 492.16,-475.84 485.16,-475.84"/>
</g>
<!-- l2a_wfov_nc_kgain -->
<g id="node16" class="node">
<title>l2a_wfov_nc_kgain</title>
<polygon fill="none" stroke="black" points="632.42,-462 491.42,-462 491.42,-438 632.42,-438 644.42,-450 632.42,-462"/>
<text text-anchor="middle" x="567.92" y="-446.3" font-family="Times,serif" font-size="14.00">wfov_nc k&#45;gain 1..1</text>
</g>
<!-- calib&#45;&gt;l2a_wfov_nc_kgain -->
<g id="edge9" class="edge">
<title>calib&#45;&gt;l2a_wfov_nc_kgain</title>
<path fill="none" stroke="black" d="M323.66,-423.03C323.66,-437.89 323.66,-450 323.66,-450 323.66,-450 481.31,-450 481.31,-450"/>
<polygon fill="black" stroke="black" points="481.31,-453.5 491.31,-450 481.31,-446.5 481.31,-453.5"/>
</g>
<!-- l2a_wfov_nc_emg -->
<g id="node17" class="node">
<title>l2a_wfov_nc_emg</title>
<polygon fill="none" stroke="black" points="640.92,-408 482.92,-408 482.92,-384 640.92,-384 652.92,-396 640.92,-408"/>
<text text-anchor="middle" x="567.92" y="-392.3" font-family="Times,serif" font-size="14.00">wfov_nc EM gain 1..1</text>
</g>
<!-- calib&#45;&gt;l2a_wfov_nc_emg -->
<g id="edge10" class="edge">
<title>calib&#45;&gt;l2a_wfov_nc_emg</title>
<path fill="none" stroke="black" d="M348.58,-396C348.58,-396 472.69,-396 472.69,-396"/>
<polygon fill="black" stroke="black" points="472.69,-399.5 482.69,-396 472.69,-392.5 472.69,-399.5"/>
</g>
<!-- l2b_wfov_nc_distm -->
<g id="node20" class="node">
<title>l2b_wfov_nc_distm</title>
<polygon fill="none" stroke="black" points="663.42,-354 460.42,-354 460.42,-330 663.42,-330 675.42,-342 663.42,-354"/>
<text text-anchor="middle" x="567.92" y="-338.3" font-family="Times,serif" font-size="14.00">wfov_nc distortion map 1..1</text>
</g>
<!-- calib&#45;&gt;l2b_wfov_nc_distm -->
<g id="edge11" class="edge">
<title>calib&#45;&gt;l2b_wfov_nc_distm</title>
<path fill="none" stroke="black" d="M348.58,-342C348.58,-342 450.2,-342 450.2,-342"/>
<polygon fill="black" stroke="black" points="450.2,-345.5 460.2,-342 450.2,-338.5 450.2,-345.5"/>
</g>
<!-- l2b_wfov_nc_excicrf -->
<g id="node21" class="node">
<title>l2b_wfov_nc_excicrf</title>
<polygon fill="none" stroke="black" points="688.92,-300 434.92,-300 434.92,-276 688.92,-276 700.92,-288 688.92,-300"/>
<text text-anchor="middle" x="567.92" y="-284.3" font-family="Times,serif" font-size="14.00">wfov_nc EXCAM ICRF location 1..1</text>
</g>
<!-- calib&#45;&gt;l2b_wfov_nc_excicrf -->
<g id="edge12" class="edge">
<title>calib&#45;&gt;l2b_wfov_nc_excicrf</title>
<path fill="none" stroke="black" d="M324.15,-315.3C369.96,-315.3 448.66,-315.3 448.66,-315.3 448.66,-315.3 448.66,-314.38 448.66,-314.38"/>
<polygon fill="black" stroke="black" points="452.16,-316.06 448.66,-306.06 445.16,-316.06 452.16,-316.06"/>
</g>
<!-- l2b_wfov_nc_excfovps -->
<g id="node22" class="node">
<title>l2b_wfov_nc_excfovps</title>
<polygon fill="none" stroke="black" points="690.42,-246 433.42,-246 433.42,-222 690.42,-222 702.42,-234 690.42,-246"/>
<text text-anchor="middle" x="567.92" y="-230.3" font-family="Times,serif" font-size="14.00">wfov_nc ECAM FOV pixel scale 1..1</text>
</g>
<!-- calib&#45;&gt;l2b_wfov_nc_excfovps -->
<g id="edge13" class="edge">
<title>calib&#45;&gt;l2b_wfov_nc_excfovps</title>
<path fill="none" stroke="black" d="M334.66,-323.3C334.66,-284.13 334.66,-234 334.66,-234 334.66,-234 423.24,-234 423.24,-234"/>
<polygon fill="black" stroke="black" points="423.24,-237.5 433.24,-234 423.24,-230.5 423.24,-237.5"/>
</g>
<!-- l3_wfov_nc_cal -->
<g id="node25" class="node">
<title>l3_wfov_nc_cal</title>
<polygon fill="none" stroke="black" points="648.92,-192 474.92,-192 474.92,-168 648.92,-168 660.92,-180 648.92,-192"/>
<text text-anchor="middle" x="567.92" y="-176.3" font-family="Times,serif" font-size="14.00">wfov_nc calibration 1..1</text>
</g>
<!-- calib&#45;&gt;l3_wfov_nc_cal -->
<g id="edge14" class="edge">
<title>calib&#45;&gt;l3_wfov_nc_cal</title>
<path fill="none" stroke="black" d="M313.66,-310.24C313.66,-254.75 313.66,-180 313.66,-180 313.66,-180 464.69,-180 464.69,-180"/>
<polygon fill="black" stroke="black" points="464.69,-183.5 474.69,-180 464.69,-176.5 464.69,-183.5"/>
</g>
<!-- l4_wfov_nc_afcal -->
<g id="node28" class="node">
<title>l4_wfov_nc_afcal</title>
<polygon fill="none" stroke="black" points="656.42,-138 467.42,-138 467.42,-114 656.42,-114 668.42,-126 656.42,-138"/>
<text text-anchor="middle" x="567.92" y="-122.3" font-family="Times,serif" font-size="14.00">wfov_nc absolute flux 1..1</text>
</g>
<!-- calib&#45;&gt;l4_wfov_nc_afcal -->
<g id="edge15" class="edge">
<title>calib&#45;&gt;l4_wfov_nc_afcal</title>
<path fill="none" stroke="black" d="M292.66,-306.42C292.66,-234.42 292.66,-126 292.66,-126 292.66,-126 457.38,-126 457.38,-126"/>
<polygon fill="black" stroke="black" points="457.38,-129.5 467.38,-126 457.38,-122.5 457.38,-129.5"/>
</g>
<!-- l4_wfov_nc_ctcal -->
<g id="node29" class="node">
<title>l4_wfov_nc_ctcal</title>
<polygon fill="none" stroke="black" points="668.92,-84 454.92,-84 454.92,-60 668.92,-60 680.92,-72 668.92,-84"/>
<text text-anchor="middle" x="567.92" y="-68.3" font-family="Times,serif" font-size="14.00">wfov_nc core throughput 1..1</text>
</g>
<!-- calib&#45;&gt;l4_wfov_nc_ctcal -->
<g id="edge16" class="edge">
<title>calib&#45;&gt;l4_wfov_nc_ctcal</title>
<path fill="none" stroke="black" d="M271.66,-309.97C271.66,-223.35 271.66,-72 271.66,-72 271.66,-72 444.65,-72 444.65,-72"/>
<polygon fill="black" stroke="black" points="444.65,-75.5 454.65,-72 444.65,-68.5 444.65,-75.5"/>
</g>
<!-- l4_wfov_nc_ndfilt -->
<g id="node30" class="node">
<title>l4_wfov_nc_ndfilt</title>
<polygon fill="none" stroke="black" points="641.92,-30 481.92,-30 481.92,-6 641.92,-6 653.92,-18 641.92,-30"/>
<text text-anchor="middle" x="567.92" y="-14.3" font-family="Times,serif" font-size="14.00">wfov_nc ND filter 1..1</text>
</g>
<!-- calib&#45;&gt;l4_wfov_nc_ndfilt -->
<g id="edge17" class="edge">
<title>calib&#45;&gt;l4_wfov_nc_ndfilt</title>
<path fill="none" stroke="black" d="M250.66,-322.03C250.66,-226.38 250.66,-18 250.66,-18 250.66,-18 471.65,-18 471.65,-18"/>
<polygon fill="black" stroke="black" points="471.65,-21.5 481.65,-18 471.65,-14.5 471.65,-21.5"/>
</g>
<!-- l1_wfov_nc_odir -->
<g id="node7" class="node">
<title>l1_wfov_nc_odir</title>
<ellipse fill="none" stroke="black" cx="567.92" cy="-990" rx="159.77" ry="18"/>
<text text-anchor="middle" x="567.92" y="-986.3" font-family="Times,serif" font-size="14.00">Output path for L1_wfov_nc 1..1</text>
</g>
<!-- config&#45;&gt;l1_wfov_nc_odir -->
<g id="edge18" class="edge">
<title>config&#45;&gt;l1_wfov_nc_odir</title>
<path fill="none" stroke="black" d="M350.66,-927.49C350.66,-957 350.66,-990 350.66,-990 350.66,-990 398.03,-990 398.03,-990"/>
<polygon fill="black" stroke="black" points="398.03,-993.5 408.03,-990 398.03,-986.5 398.03,-993.5"/>
</g>
<!-- l2a_wfov_nc_odir -->
<g id="node10" class="node">
<title>l2a_wfov_nc_odir</title>
<ellipse fill="none" stroke="black" cx="567.92" cy="-936" rx="165.17" ry="18"/>
<text text-anchor="middle" x="567.92" y="-932.3" font-family="Times,serif" font-size="14.00">Output path for L2a_wfov_nc 1..1</text>
</g>
<!-- config&#45;&gt;l2a_wfov_nc_odir -->
<g id="edge19" class="edge">
<title>config&#45;&gt;l2a_wfov_nc_odir</title>
<path fill="none" stroke="black" d="M343.01,-936C343.01,-936 392.8,-936 392.8,-936"/>
<polygon fill="black" stroke="black" points="392.8,-939.5 402.8,-936 392.8,-932.5 392.8,-939.5"/>
</g>
<!-- l2b_wfov_nc_odir -->
<g id="node18" class="node">
<title>l2b_wfov_nc_odir</title>
<ellipse fill="none" stroke="black" cx="567.92" cy="-882" rx="165.97" ry="18"/>
<text text-anchor="middle" x="567.92" y="-878.3" font-family="Times,serif" font-size="14.00">Output path for L2b_wfov_nc 1..1</text>
</g>
<!-- config&#45;&gt;l2b_wfov_nc_odir -->
<g id="edge20" class="edge">
<title>config&#45;&gt;l2b_wfov_nc_odir</title>
<path fill="none" stroke="black" d="M366.37,-882C366.37,-882 392.14,-882 392.14,-882"/>
<polygon fill="black" stroke="black" points="392.14,-885.5 402.14,-882 392.14,-878.5 392.14,-885.5"/>
</g>
<!-- l3_wfov_nc_odir -->
<g id="node23" class="node">
<title>l3_wfov_nc_odir</title>
<ellipse fill="none" stroke="black" cx="567.92" cy="-828" rx="159.77" ry="18"/>
<text text-anchor="middle" x="567.92" y="-824.3" font-family="Times,serif" font-size="14.00">Output path for L3_wfov_nc 1..1</text>
</g>
<!-- config&#45;&gt;l3_wfov_nc_odir -->
<g id="edge21" class="edge">
<title>config&#45;&gt;l3_wfov_nc_odir</title>
<path fill="none" stroke="black" d="M343.01,-828C343.01,-828 398,-828 398,-828"/>
<polygon fill="black" stroke="black" points="398,-831.5 408,-828 398,-824.5 398,-831.5"/>
</g>
<!-- l4_wfov_nc_odir -->
<g id="node26" class="node">
<title>l4_wfov_nc_odir</title>
<ellipse fill="none" stroke="black" cx="567.92" cy="-774" rx="159.77" ry="18"/>
<text text-anchor="middle" x="567.92" y="-770.3" font-family="Times,serif" font-size="14.00">Output path for L4_wfov_nc 1..1</text>
</g>
<!-- config&#45;&gt;l4_wfov_nc_odir -->
<g id="edge22" class="edge">
<title>config&#45;&gt;l4_wfov_nc_odir</title>
<path fill="none" stroke="black" d="M360.66,-853.91C360.66,-821.91 360.66,-774 360.66,-774 360.66,-774 397.95,-774 397.95,-774"/>
<polygon fill="black" stroke="black" points="397.95,-777.5 407.95,-774 397.95,-770.5 397.95,-777.5"/>
</g>
<!-- l1_wfov_nc_rec -->
<g id="node8" class="node">
<title>l1_wfov_nc_rec</title>
<polygon fill="none" stroke="black" points="645.42,-1272 478.42,-1272 478.42,-1248 645.42,-1248 657.42,-1260 645.42,-1272"/>
<text text-anchor="middle" x="567.92" y="-1256.3" font-family="Times,serif" font-size="14.00">recipe L1_wfov_nc 1..1</text>
</g>
<!-- recipe&#45;&gt;l1_wfov_nc_rec -->
<g id="edge23" class="edge">
<title>recipe&#45;&gt;l1_wfov_nc_rec</title>
<path fill="none" stroke="black" d="M278.66,-1192.22C278.66,-1222.92 278.66,-1260 278.66,-1260 278.66,-1260 468.38,-1260 468.38,-1260"/>
<polygon fill="black" stroke="black" points="468.38,-1263.5 478.38,-1260 468.38,-1256.5 468.38,-1263.5"/>
</g>
<!-- l2a_wfov_nc_rec -->
<g id="node11" class="node">
<title>l2a_wfov_nc_rec</title>
<polygon fill="none" stroke="black" points="649.42,-1218 474.42,-1218 474.42,-1194 649.42,-1194 661.42,-1206 649.42,-1218"/>
<text text-anchor="middle" x="567.92" y="-1202.3" font-family="Times,serif" font-size="14.00">recipe L2a_wfov_nc 1..1</text>
</g>
<!-- recipe&#45;&gt;l2a_wfov_nc_rec -->
<g id="edge24" class="edge">
<title>recipe&#45;&gt;l2a_wfov_nc_rec</title>
<path fill="none" stroke="black" d="M306.66,-1191.67C306.66,-1201.42 306.66,-1209.12 306.66,-1209.12 306.66,-1209.12 464.34,-1209.12 464.34,-1209.12"/>
<polygon fill="black" stroke="black" points="464.34,-1212.62 474.34,-1209.12 464.34,-1205.62 464.34,-1212.62"/>
</g>
<!-- l2b_wfov_nc_rec -->
<g id="node19" class="node">
<title>l2b_wfov_nc_rec</title>
<polygon fill="none" stroke="black" points="649.92,-1164 473.92,-1164 473.92,-1140 649.92,-1140 661.92,-1152 649.92,-1164"/>
<text text-anchor="middle" x="567.92" y="-1148.3" font-family="Times,serif" font-size="14.00">recipe L2b_wfov_nc 1..1</text>
</g>
<!-- recipe&#45;&gt;l2b_wfov_nc_rec -->
<g id="edge25" class="edge">
<title>recipe&#45;&gt;l2b_wfov_nc_rec</title>
<path fill="none" stroke="black" d="M334.59,-1152C334.59,-1152 463.66,-1152 463.66,-1152"/>
<polygon fill="black" stroke="black" points="463.66,-1155.5 473.66,-1152 463.66,-1148.5 463.66,-1155.5"/>
</g>
<!-- l3_wfov_nc_rec -->
<g id="node24" class="node">
<title>l3_wfov_nc_rec</title>
<polygon fill="none" stroke="black" points="645.42,-1110 478.42,-1110 478.42,-1086 645.42,-1086 657.42,-1098 645.42,-1110"/>
<text text-anchor="middle" x="567.92" y="-1094.3" font-family="Times,serif" font-size="14.00">recipe L3_wfov_nc 1..1</text>
</g>
<!-- recipe&#45;&gt;l3_wfov_nc_rec -->
<g id="edge26" class="edge">
<title>recipe&#45;&gt;l3_wfov_nc_rec</title>
<path fill="none" stroke="black" d="M306.66,-1112.33C306.66,-1102.58 306.66,-1094.88 306.66,-1094.88 306.66,-1094.88 468.38,-1094.88 468.38,-1094.88"/>
<polygon fill="black" stroke="black" points="468.38,-1098.38 478.38,-1094.88 468.38,-1091.38 468.38,-1098.38"/>
</g>
<!-- l4_wfov_nc_rec -->
<g id="node27" class="node">
<title>l4_wfov_nc_rec</title>
<polygon fill="none" stroke="black" points="645.42,-1056 478.42,-1056 478.42,-1032 645.42,-1032 657.42,-1044 645.42,-1056"/>
<text text-anchor="middle" x="567.92" y="-1040.3" font-family="Times,serif" font-size="14.00">recipe L4_wfov_nc 1..1</text>
</g>
<!-- recipe&#45;&gt;l4_wfov_nc_rec -->
<g id="edge27" class="edge">
<title>recipe&#45;&gt;l4_wfov_nc_rec</title>
<path fill="none" stroke="black" d="M278.66,-1111.78C278.66,-1081.08 278.66,-1044 278.66,-1044 278.66,-1044 468.38,-1044 468.38,-1044"/>
<polygon fill="black" stroke="black" points="468.38,-1047.5 478.38,-1044 468.38,-1040.5 468.38,-1047.5"/>
</g>
</g>
</svg>
