<?xml version="1.0" encoding="UTF-8" standalone="no"?>
<!DOCTYPE svg PUBLIC "-//W3C//DTD SVG 1.1//EN"
 "http://www.w3.org/Graphics/SVG/1.1/DTD/svg11.dtd">
<!-- Generated by graphviz version 2.43.0 (0)
 -->
<!-- Title: Clerks Pages: 1 -->
<svg width="350pt" height="377pt"
 viewBox="0.00 0.00 349.79 377.49" xmlns="http://www.w3.org/2000/svg" xmlns:xlink="http://www.w3.org/1999/xlink">
<g id="graph0" class="graph" transform="scale(1 1) rotate(0) translate(4 373.49)">
<title>Clerks</title>
<polygon fill="white" stroke="transparent" points="-4,4 -4,-373.49 345.79,-373.49 345.79,4 -4,4"/>
<!-- alarm_cal -->
<g id="node1" class="node">
<title>alarm_cal</title>
<text text-anchor="middle" x="90.5" y="-85.69" font-family="Times,serif" font-size="14.00">User reqyested update</text>
</g>
<!-- calib -->
<g id="node4" class="node">
<title>calib</title>
<ellipse fill="none" stroke="black" cx="279.39" cy="-62.39" rx="62.29" ry="62.29"/>
<text text-anchor="middle" x="279.39" y="-58.69" font-family="Times,serif" font-size="14.00">Calibration</text>
</g>
<!-- alarm_cal&#45;&gt;calib -->
<g id="edge1" class="edge">
<title>alarm_cal&#45;&gt;calib</title>
<path fill="none" stroke="black" stroke-dasharray="5,2" d="M181.07,-89.39C181.07,-89.39 213.01,-89.39 213.01,-89.39"/>
<polygon fill="black" stroke="black" points="213.01,-92.89 223.01,-89.39 213.01,-85.89 213.01,-92.89"/>
</g>
<!-- alarm_cnf -->
<g id="node2" class="node">
<title>alarm_cnf</title>
<text text-anchor="middle" x="90.5" y="-31.69" font-family="Times,serif" font-size="14.00">User reqyested update</text>
</g>
<!-- alarm_cnf&#45;&gt;calib -->
<g id="edge2" class="edge">
<title>alarm_cnf&#45;&gt;calib</title>
<path fill="none" stroke="black" stroke-dasharray="5,2" d="M181.07,-35.39C181.07,-35.39 213.01,-35.39 213.01,-35.39"/>
<polygon fill="black" stroke="black" points="213.01,-38.89 223.01,-35.39 213.01,-31.89 213.01,-38.89"/>
</g>
<!-- alarm_rec -->
<g id="node3" class="node">
<title>alarm_rec</title>
<text text-anchor="middle" x="90.5" y="-181.69" font-family="Times,serif" font-size="14.00">User requsted update</text>
</g>
<!-- recipe -->
<g id="node6" class="node">
<title>recipe</title>
<ellipse fill="none" stroke="black" cx="279.39" cy="-185.39" rx="42.49" ry="42.49"/>
<text text-anchor="middle" x="279.39" y="-181.69" font-family="Times,serif" font-size="14.00">Recipe</text>
</g>
<!-- alarm_rec&#45;&gt;recipe -->
<g id="edge3" class="edge">
<title>alarm_rec&#45;&gt;recipe</title>
<path fill="none" stroke="black" stroke-dasharray="5,2" d="M177.21,-185.39C177.21,-185.39 226.93,-185.39 226.93,-185.39"/>
<polygon fill="black" stroke="black" points="226.93,-188.89 236.93,-185.39 226.93,-181.89 226.93,-188.89"/>
</g>
<!-- config -->
<g id="node5" class="node">
<title>config</title>
<ellipse fill="none" stroke="black" cx="90.5" cy="-295.39" rx="74.19" ry="74.19"/>
<text text-anchor="middle" x="90.5" y="-291.69" font-family="Times,serif" font-size="14.00">Configuration</text>
</g>
</g>
</svg>
