<?xml version="1.0" encoding="UTF-8" standalone="no"?>
<!DOCTYPE svg PUBLIC "-//W3C//DTD SVG 1.1//EN"
 "http://www.w3.org/Graphics/SVG/1.1/DTD/svg11.dtd">
<!-- Generated by graphviz version 2.43.0 (0)
 -->
<!-- Title: Clerks Pages: 1 -->
<svg width="745pt" height="777pt"
 viewBox="0.00 0.00 744.86 777.09" xmlns="http://www.w3.org/2000/svg" xmlns:xlink="http://www.w3.org/1999/xlink">
<g id="graph0" class="graph" transform="scale(1 1) rotate(0) translate(4 773.09)">
<title>Clerks</title>
<polygon fill="white" stroke="transparent" points="-4,4 -4,-773.09 740.86,-773.09 740.86,4 -4,4"/>
<!-- alarm_cal -->
<g id="node1" class="node">
<title>alarm_cal</title>
<text text-anchor="middle" x="74.09" y="-257.3" font-family="Times,serif" font-size="14.00">Update TBD</text>
</g>
<!-- calib -->
<g id="node3" class="node">
<title>calib</title>
<ellipse fill="none" stroke="black" cx="339.52" cy="-261" rx="62.29" ry="62.29"/>
<text text-anchor="middle" x="339.52" y="-257.3" font-family="Times,serif" font-size="14.00">Calibration</text>
</g>
<!-- alarm_cal&#45;&gt;calib -->
<g id="edge1" class="edge">
<title>alarm_cal&#45;&gt;calib</title>
<path fill="none" stroke="black" stroke-dasharray="5,2" d="M126.22,-261C126.22,-261 266.77,-261 266.77,-261"/>
<polygon fill="black" stroke="black" points="266.77,-264.5 276.77,-261 266.77,-257.5 266.77,-264.5"/>
</g>
<!-- alarm_rec -->
<g id="node2" class="node">
<title>alarm_rec</title>
<text text-anchor="middle" x="74.09" y="-581.3" font-family="Times,serif" font-size="14.00">Update TBD</text>
</g>
<!-- recipe -->
<g id="node5" class="node">
<title>recipe</title>
<ellipse fill="none" stroke="black" cx="339.52" cy="-585" rx="42.49" ry="42.49"/>
<text text-anchor="middle" x="339.52" y="-581.3" font-family="Times,serif" font-size="14.00">Recipe</text>
</g>
<!-- alarm_rec&#45;&gt;recipe -->
<g id="edge2" class="edge">
<title>alarm_rec&#45;&gt;recipe</title>
<path fill="none" stroke="black" stroke-dasharray="5,2" d="M126.22,-585C126.22,-585 287.13,-585 287.13,-585"/>
<polygon fill="black" stroke="black" points="287.13,-588.5 297.13,-585 287.13,-581.5 287.13,-588.5"/>
</g>
<!-- eng_a_cpgs -->
<g id="node6" class="node">
<title>eng_a_cpgs</title>
<polygon fill="none" stroke="black" points="689.36,-516 566.36,-516 566.36,-492 689.36,-492 701.36,-504 689.36,-516"/>
<text text-anchor="middle" x="633.86" y="-500.3" font-family="Times,serif" font-size="14.00">CPGS eng_a 1..1</text>
</g>
<!-- calib&#45;&gt;eng_a_cpgs -->
<g id="edge3" class="edge">
<title>calib&#45;&gt;eng_a_cpgs</title>
<path fill="none" stroke="black" d="M386.86,-301.67C386.86,-370.85 386.86,-504 386.86,-504 386.86,-504 556.04,-504 556.04,-504"/>
<polygon fill="black" stroke="black" points="556.04,-507.5 566.04,-504 556.04,-500.5 556.04,-507.5"/>
</g>
<!-- l1_eng_a_nln -->
<g id="node9" class="node">
<title>l1_eng_a_nln</title>
<polygon fill="none" stroke="black" points="722.36,-462 533.36,-462 533.36,-438 722.36,-438 734.36,-450 722.36,-462"/>
<text text-anchor="middle" x="633.86" y="-446.3" font-family="Times,serif" font-size="14.00">non linear calibration 1..1</text>
</g>
<!-- calib&#45;&gt;l1_eng_a_nln -->
<g id="edge4" class="edge">
<title>calib&#45;&gt;l1_eng_a_nln</title>
<path fill="none" stroke="black" d="M371.55,-314.7C427.9,-314.7 538.86,-314.7 538.86,-314.7 538.86,-314.7 538.86,-421.75 538.86,-421.75"/>
<polygon fill="black" stroke="black" points="535.36,-421.75 538.86,-431.75 542.36,-421.75 535.36,-421.75"/>
</g>
<!-- l2a_eng_a_bpm -->
<g id="node12" class="node">
<title>l2a_eng_a_bpm</title>
<polygon fill="none" stroke="black" points="696.36,-408 559.36,-408 559.36,-384 696.36,-384 708.36,-396 696.36,-408"/>
<text text-anchor="middle" x="633.86" y="-392.3" font-family="Times,serif" font-size="14.00">bad pixel map 1..1</text>
</g>
<!-- calib&#45;&gt;l2a_eng_a_bpm -->
<g id="edge5" class="edge">
<title>calib&#45;&gt;l2a_eng_a_bpm</title>
<path fill="none" stroke="black" d="M391.86,-295.07C391.86,-335.06 391.86,-396 391.86,-396 391.86,-396 549.28,-396 549.28,-396"/>
<polygon fill="black" stroke="black" points="549.28,-399.5 559.28,-396 549.28,-392.5 549.28,-399.5"/>
</g>
<!-- l2a_eng_a_dt -->
<g id="node13" class="node">
<title>l2a_eng_a_dt</title>
<polygon fill="none" stroke="black" points="706.86,-354 548.86,-354 548.86,-330 706.86,-330 718.86,-342 706.86,-354"/>
<text text-anchor="middle" x="633.86" y="-338.3" font-family="Times,serif" font-size="14.00">dark (traditional) 1..1</text>
</g>
<!-- calib&#45;&gt;l2a_eng_a_dt -->
<g id="edge6" class="edge">
<title>calib&#45;&gt;l2a_eng_a_dt</title>
<path fill="none" stroke="black" d="M397.86,-283.56C397.86,-307.53 397.86,-342 397.86,-342 397.86,-342 538.66,-342 538.66,-342"/>
<polygon fill="black" stroke="black" points="538.66,-345.5 548.66,-342 538.66,-338.5 538.66,-345.5"/>
</g>
<!-- l2a_eng_a_ds -->
<g id="node14" class="node">
<title>l2a_eng_a_ds</title>
<polygon fill="none" stroke="black" points="711.36,-300 544.36,-300 544.36,-276 711.36,-276 723.36,-288 711.36,-300"/>
<text text-anchor="middle" x="633.86" y="-284.3" font-family="Times,serif" font-size="14.00">dark (synthetized) 1..1</text>
</g>
<!-- calib&#45;&gt;l2a_eng_a_ds -->
<g id="edge7" class="edge">
<title>calib&#45;&gt;l2a_eng_a_ds</title>
<path fill="none" stroke="black" d="M395.93,-288C395.93,-288 534.36,-288 534.36,-288"/>
<polygon fill="black" stroke="black" points="534.36,-291.5 544.36,-288 534.36,-284.5 534.36,-291.5"/>
</g>
<!-- l2a_eng_a_dn -->
<g id="node15" class="node">
<title>l2a_eng_a_dn</title>
<polygon fill="none" stroke="black" points="724.86,-246 530.86,-246 530.86,-222 724.86,-222 736.86,-234 724.86,-246"/>
<text text-anchor="middle" x="633.86" y="-230.3" font-family="Times,serif" font-size="14.00">dark (from noise map) 1..1</text>
</g>
<!-- calib&#45;&gt;l2a_eng_a_dn -->
<g id="edge8" class="edge">
<title>calib&#45;&gt;l2a_eng_a_dn</title>
<path fill="none" stroke="black" d="M395.93,-234C395.93,-234 520.58,-234 520.58,-234"/>
<polygon fill="black" stroke="black" points="520.58,-237.5 530.58,-234 520.58,-230.5 520.58,-237.5"/>
</g>
<!-- l2a_eng_a_nm -->
<g id="node16" class="node">
<title>l2a_eng_a_nm</title>
<polygon fill="none" stroke="black" points="685.86,-192 569.86,-192 569.86,-168 685.86,-168 697.86,-180 685.86,-192"/>
<text text-anchor="middle" x="633.86" y="-176.3" font-family="Times,serif" font-size="14.00">noise maps 1..1</text>
</g>
<!-- calib&#45;&gt;l2a_eng_a_nm -->
<g id="edge9" class="edge">
<title>calib&#45;&gt;l2a_eng_a_nm</title>
<path fill="none" stroke="black" d="M371.3,-207.3C447.41,-207.3 633.86,-207.3 633.86,-207.3 633.86,-207.3 633.86,-206.38 633.86,-206.38"/>
<polygon fill="black" stroke="black" points="637.36,-208.06 633.86,-198.06 630.36,-208.06 637.36,-208.06"/>
</g>
<!-- l2a_eng_a_ff -->
<g id="node17" class="node">
<title>l2a_eng_a_ff</title>
<polygon fill="none" stroke="black" points="675.36,-138 580.36,-138 580.36,-114 675.36,-114 687.36,-126 675.36,-138"/>
<text text-anchor="middle" x="633.86" y="-122.3" font-family="Times,serif" font-size="14.00">flat field 1..1</text>
</g>
<!-- calib&#45;&gt;l2a_eng_a_ff -->
<g id="edge10" class="edge">
<title>calib&#45;&gt;l2a_eng_a_ff</title>
<path fill="none" stroke="black" d="M370.86,-206.87C370.86,-169.31 370.86,-126 370.86,-126 370.86,-126 570.32,-126 570.32,-126"/>
<polygon fill="black" stroke="black" points="570.32,-129.5 580.32,-126 570.32,-122.5 570.32,-129.5"/>
</g>
<!-- l2a_eng_a_kg -->
<g id="node18" class="node">
<title>l2a_eng_a_kg</title>
<polygon fill="none" stroke="black" points="667.86,-84 587.86,-84 587.86,-60 667.86,-60 679.86,-72 667.86,-84"/>
<text text-anchor="middle" x="633.86" y="-68.3" font-family="Times,serif" font-size="14.00">k&#45;gain 1..1</text>
</g>
<!-- calib&#45;&gt;l2a_eng_a_kg -->
<g id="edge11" class="edge">
<title>calib&#45;&gt;l2a_eng_a_kg</title>
<path fill="none" stroke="black" d="M339.86,-198.59C339.86,-143.54 339.86,-72 339.86,-72 339.86,-72 577.6,-72 577.6,-72"/>
<polygon fill="black" stroke="black" points="577.6,-75.5 587.6,-72 577.6,-68.5 577.6,-75.5"/>
</g>
<!-- l2a_eng_a_emg -->
<g id="node19" class="node">
<title>l2a_eng_a_emg</title>
<polygon fill="none" stroke="black" points="675.86,-30 579.86,-30 579.86,-6 675.86,-6 687.86,-18 675.86,-30"/>
<text text-anchor="middle" x="633.86" y="-14.3" font-family="Times,serif" font-size="14.00">EM gain 1..1</text>
</g>
<!-- calib&#45;&gt;l2a_eng_a_emg -->
<g id="edge12" class="edge">
<title>calib&#45;&gt;l2a_eng_a_emg</title>
<path fill="none" stroke="black" d="M308.86,-206.47C308.86,-134.82 308.86,-18 308.86,-18 308.86,-18 569.83,-18 569.83,-18"/>
<polygon fill="black" stroke="black" points="569.83,-21.5 579.83,-18 569.83,-14.5 569.83,-21.5"/>
</g>
<!-- config -->
<g id="node4" class="node">
<title>config</title>
<ellipse fill="none" stroke="black" cx="74.09" cy="-695" rx="74.19" ry="74.19"/>
<text text-anchor="middle" x="74.09" y="-691.3" font-family="Times,serif" font-size="14.00">Configuration</text>
</g>
<!-- l1_eng_a_odir -->
<g id="node7" class="node">
<title>l1_eng_a_odir</title>
<ellipse fill="none" stroke="black" cx="339.52" cy="-733" rx="149.47" ry="18"/>
<text text-anchor="middle" x="339.52" y="-729.3" font-family="Times,serif" font-size="14.00">Output path for L1_eng_a 1..1</text>
</g>
<!-- config&#45;&gt;l1_eng_a_odir -->
<g id="edge13" class="edge">
<title>config&#45;&gt;l1_eng_a_odir</title>
<path fill="none" stroke="black" d="M138.01,-733C138.01,-733 179.97,-733 179.97,-733"/>
<polygon fill="black" stroke="black" points="179.97,-736.5 189.97,-733 179.97,-729.5 179.97,-736.5"/>
</g>
<!-- l2a_eng_a_odir -->
<g id="node10" class="node">
<title>l2a_eng_a_odir</title>
<ellipse fill="none" stroke="black" cx="339.52" cy="-679" rx="155.17" ry="18"/>
<text text-anchor="middle" x="339.52" y="-675.3" font-family="Times,serif" font-size="14.00">Output path for L2a_eng_a 1..1</text>
</g>
<!-- config&#45;&gt;l2a_eng_a_odir -->
<g id="edge14" class="edge">
<title>config&#45;&gt;l2a_eng_a_odir</title>
<path fill="none" stroke="black" d="M146.62,-679C146.62,-679 173.99,-679 173.99,-679"/>
<polygon fill="black" stroke="black" points="173.99,-682.5 183.99,-679 173.99,-675.5 173.99,-682.5"/>
</g>
<!-- l1_eng_a_rec -->
<g id="node8" class="node">
<title>l1_eng_a_rec</title>
<polygon fill="none" stroke="black" points="703.36,-624 552.36,-624 552.36,-600 703.36,-600 715.36,-612 703.36,-624"/>
<text text-anchor="middle" x="633.86" y="-608.3" font-family="Times,serif" font-size="14.00">recipe L1_eng_a 1..1</text>
</g>
<!-- recipe&#45;&gt;l1_eng_a_rec -->
<g id="edge15" class="edge">
<title>recipe&#45;&gt;l1_eng_a_rec</title>
<path fill="none" stroke="black" d="M373.29,-610.62C373.29,-610.62 542.23,-610.62 542.23,-610.62"/>
<polygon fill="black" stroke="black" points="542.23,-614.12 552.23,-610.62 542.23,-607.12 542.23,-614.12"/>
</g>
<!-- l2a_eng_a_rec -->
<g id="node11" class="node">
<title>l2a_eng_a_rec</title>
<polygon fill="none" stroke="black" points="706.86,-570 548.86,-570 548.86,-546 706.86,-546 718.86,-558 706.86,-570"/>
<text text-anchor="middle" x="633.86" y="-554.3" font-family="Times,serif" font-size="14.00">recipe L2s_eng_a 1..1</text>
</g>
<!-- recipe&#45;&gt;l2a_eng_a_rec -->
<g id="edge16" class="edge">
<title>recipe&#45;&gt;l2a_eng_a_rec</title>
<path fill="none" stroke="black" d="M373.29,-559.38C373.29,-559.38 538.82,-559.38 538.82,-559.38"/>
<polygon fill="black" stroke="black" points="538.82,-562.88 548.82,-559.38 538.82,-555.88 538.82,-562.88"/>
</g>
</g>
</svg>
