<?xml version="1.0" encoding="UTF-8" standalone="no"?>
<!DOCTYPE svg PUBLIC "-//W3C//DTD SVG 1.1//EN"
 "http://www.w3.org/Graphics/SVG/1.1/DTD/svg11.dtd">
<!-- Generated by graphviz version 2.43.0 (0)
 -->
<!-- Title: Clerks Pages: 1 -->
<svg width="373pt" height="401pt"
 viewBox="0.00 0.00 373.19 400.64" xmlns="http://www.w3.org/2000/svg" xmlns:xlink="http://www.w3.org/1999/xlink">
<g id="graph0" class="graph" transform="scale(1 1) rotate(0) translate(4 396.64)">
<title>Clerks</title>
<polygon fill="white" stroke="transparent" points="-4,4 -4,-396.64 369.19,-396.64 369.19,4 -4,4"/>
<!-- alarm_cal -->
<g id="node1" class="node">
<title>alarm_cal</title>
<text text-anchor="middle" x="90.5" y="-58.69" font-family="Times,serif" font-size="14.00">User reqyested update</text>
</g>
<!-- calib -->
<g id="node4" class="node">
<title>calib</title>
<ellipse fill="none" stroke="black" cx="291.09" cy="-62.39" rx="62.29" ry="62.29"/>
<text text-anchor="middle" x="291.09" y="-58.69" font-family="Times,serif" font-size="14.00">Calibration</text>
</g>
<!-- alarm_cal&#45;&gt;calib -->
<g id="edge1" class="edge">
<title>alarm_cal&#45;&gt;calib</title>
<path fill="none" stroke="black" stroke-dasharray="5,2" d="M181.11,-62.39C181.11,-62.39 218.43,-62.39 218.43,-62.39"/>
<polygon fill="black" stroke="black" points="218.43,-65.89 228.43,-62.39 218.43,-58.89 218.43,-65.89"/>
</g>
<!-- alarm_cnf -->
<g id="node2" class="node">
<title>alarm_cnf</title>
<text text-anchor="middle" x="90.5" y="-212.69" font-family="Times,serif" font-size="14.00">User reqyested update</text>
</g>
<!-- config -->
<g id="node5" class="node">
<title>config</title>
<ellipse fill="none" stroke="black" cx="291.09" cy="-216.39" rx="74.19" ry="74.19"/>
<text text-anchor="middle" x="291.09" y="-212.69" font-family="Times,serif" font-size="14.00">Configuration</text>
</g>
<!-- alarm_cnf&#45;&gt;config -->
<g id="edge2" class="edge">
<title>alarm_cnf&#45;&gt;config</title>
<path fill="none" stroke="black" stroke-dasharray="5,2" d="M181.11,-216.39C181.11,-216.39 206.8,-216.39 206.8,-216.39"/>
<polygon fill="black" stroke="black" points="206.8,-219.89 216.8,-216.39 206.8,-212.89 206.8,-219.89"/>
</g>
<!-- alarm_rec -->
<g id="node3" class="node">
<title>alarm_rec</title>
<text text-anchor="middle" x="90.5" y="-346.69" font-family="Times,serif" font-size="14.00">User requsted update</text>
</g>
<!-- recipe -->
<g id="node6" class="node">
<title>recipe</title>
<ellipse fill="none" stroke="black" cx="291.09" cy="-350.39" rx="42.49" ry="42.49"/>
<text text-anchor="middle" x="291.09" y="-346.69" font-family="Times,serif" font-size="14.00">Recipe</text>
</g>
<!-- alarm_rec&#45;&gt;recipe -->
<g id="edge3" class="edge">
<title>alarm_rec&#45;&gt;recipe</title>
<path fill="none" stroke="black" stroke-dasharray="5,2" d="M177.03,-350.39C177.03,-350.39 238.67,-350.39 238.67,-350.39"/>
<polygon fill="black" stroke="black" points="238.67,-353.89 248.67,-350.39 238.67,-346.89 238.67,-353.89"/>
</g>
</g>
</svg>
