<?xml version="1.0" encoding="UTF-8" standalone="no"?>
<!DOCTYPE svg PUBLIC "-//W3C//DTD SVG 1.1//EN"
 "http://www.w3.org/Graphics/SVG/1.1/DTD/svg11.dtd">
<!-- Generated by graphviz version 2.43.0 (0)
 -->
<!-- Title: transmutation_fsm Pages: 1 -->
<svg width="453pt" height="1064pt"
 viewBox="0.00 0.00 452.63 1064.09" xmlns="http://www.w3.org/2000/svg" xmlns:xlink="http://www.w3.org/1999/xlink">
<g id="graph0" class="graph" transform="scale(1 1) rotate(0) translate(4 1060.09)">
<title>transmutation_fsm</title>
<polygon fill="white" stroke="transparent" points="-4,4 -4,-1060.09 448.63,-1060.09 448.63,4 -4,4"/>
<!-- cons -->
<g id="cons" class="node">
<title>cons</title>
<ellipse fill="none" stroke="black" cx="244.63" cy="-883.25" rx="70.69" ry="70.69"/>
<text text-anchor="middle" x="244.63" y="-879.55" font-family="Times,serif" font-size="14.00">Construction</text>
</g>
<!-- delg -->
<g id="delg" class="node">
<title>delg</title>
<ellipse fill="none" stroke="black" cx="244.63" cy="-700.31" rx="61.19" ry="61.19"/>
<text text-anchor="middle" x="244.63" y="-696.61" font-family="Times,serif" font-size="14.00">Delegation</text>
</g>
<!-- cons&#45;&gt;delg -->
<g id="edge2" class="edge">
<title>cons&#45;&gt;delg</title>
<path fill="none" stroke="black" d="M244.63,-812.29C244.63,-798.98 244.63,-785.04 244.63,-771.71"/>
<polygon fill="black" stroke="black" points="248.13,-771.66 244.63,-761.66 241.13,-771.66 248.13,-771.66"/>
<text text-anchor="middle" x="282.63" y="-783.2" font-family="Times,serif" font-size="14.00">workspace</text>
</g>
<!-- panic -->
<g id="panic" class="node">
<title>panic</title>
<ellipse fill="none" stroke="black" cx="362.63" cy="-516.65" rx="36" ry="36"/>
<text text-anchor="middle" x="362.63" y="-512.95" font-family="Times,serif" font-size="14.00">Panic</text>
</g>
<!-- cons&#45;&gt;panic -->
<g id="edge7" class="edge">
<title>cons&#45;&gt;panic</title>
<path fill="none" stroke="black" d="M296.99,-835.04C307.72,-822.82 317.81,-808.98 324.63,-794.4 360.04,-718.72 365,-619.57 364.46,-562.8"/>
<polygon fill="black" stroke="black" points="367.96,-562.66 364.3,-552.71 360.96,-562.77 367.96,-562.66"/>
<text text-anchor="middle" x="399.63" y="-704.11" font-family="Times,serif" font-size="14.00">no</text>
<text text-anchor="middle" x="399.63" y="-689.11" font-family="Times,serif" font-size="14.00">workspace</text>
</g>
<!-- gq -->
<g id="gq" class="node">
<title>gq</title>
<ellipse fill="none" stroke="black" cx="75.63" cy="-516.65" rx="56.64" ry="56.64"/>
<text text-anchor="middle" x="75.63" y="-520.45" font-family="Times,serif" font-size="14.00">General</text>
<text text-anchor="middle" x="75.63" y="-505.45" font-family="Times,serif" font-size="14.00">Quarters</text>
</g>
<!-- delg&#45;&gt;gq -->
<g id="edge11" class="edge">
<title>delg&#45;&gt;gq</title>
<path fill="none" stroke="black" d="M184.03,-690.1C143.28,-680.41 92.47,-660.77 66.63,-621.21 58.89,-609.36 56.74,-595.04 57.48,-580.89"/>
<polygon fill="black" stroke="black" points="60.99,-580.94 58.49,-570.65 54.02,-580.25 60.99,-580.94"/>
<text text-anchor="middle" x="106.13" y="-610.01" font-family="Times,serif" font-size="14.00">incomplete</text>
<text text-anchor="middle" x="106.13" y="-595.01" font-family="Times,serif" font-size="14.00">products</text>
</g>
<!-- delg&#45;&gt;panic -->
<g id="edge12" class="edge">
<title>delg&#45;&gt;panic</title>
<path fill="none" stroke="black" d="M257.29,-640.24C262.99,-623.15 271.13,-605.32 282.63,-591.21 292.46,-579.17 300.63,-583.1 312.63,-573.21 319.99,-567.15 327.24,-560 333.84,-552.87"/>
<polygon fill="black" stroke="black" points="336.64,-554.99 340.72,-545.21 331.43,-550.31 336.64,-554.99"/>
<text text-anchor="middle" x="314.63" y="-610.01" font-family="Times,serif" font-size="14.00">no</text>
<text text-anchor="middle" x="314.63" y="-595.01" font-family="Times,serif" font-size="14.00">products</text>
</g>
<!-- ware -->
<g id="ware" class="node">
<title>ware</title>
<ellipse fill="none" stroke="black" cx="244.63" cy="-332.33" rx="61.99" ry="61.99"/>
<text text-anchor="middle" x="244.63" y="-328.63" font-family="Times,serif" font-size="14.00">Warehouse</text>
</g>
<!-- delg&#45;&gt;ware -->
<g id="edge5" class="edge">
<title>delg&#45;&gt;ware</title>
<path fill="none" stroke="black" d="M244.63,-638.88C244.63,-574.47 244.63,-472.59 244.63,-404.39"/>
<polygon fill="black" stroke="black" points="248.13,-404.16 244.63,-394.16 241.13,-404.16 248.13,-404.16"/>
<text text-anchor="middle" x="276.63" y="-520.45" font-family="Times,serif" font-size="14.00">all</text>
<text text-anchor="middle" x="276.63" y="-505.45" font-family="Times,serif" font-size="14.00">products</text>
</g>
<!-- fini -->
<g id="fini" class="node">
<title>fini</title>
<text text-anchor="middle" x="244.63" y="-14.3" font-family="Times,serif" font-size="14.00">final</text>
</g>
<!-- gq&#45;&gt;delg -->
<g id="edge8" class="edge">
<title>gq&#45;&gt;delg</title>
<path fill="none" stroke="black" d="M30.47,-551.21C8.49,-571.71 -9.97,-598.29 6.63,-621.21 44.34,-673.27 117.84,-691.25 173.23,-697.15"/>
<polygon fill="black" stroke="black" points="173.06,-700.65 183.35,-698.11 173.73,-693.68 173.06,-700.65"/>
<text text-anchor="middle" x="25.13" y="-602.51" font-family="Times,serif" font-size="14.00">retry</text>
</g>
<!-- gq&#45;&gt;panic -->
<g id="edge10" class="edge">
<title>gq&#45;&gt;panic</title>
<path fill="none" stroke="black" d="M106.66,-564.55C118.43,-578.56 133.15,-592.13 150.13,-599.71 183.54,-614.63 281.97,-593.18 312.63,-573.21 320.7,-567.96 328.25,-561.07 334.92,-553.91"/>
<polygon fill="black" stroke="black" points="337.82,-555.91 341.8,-546.1 332.56,-551.29 337.82,-555.91"/>
<text text-anchor="middle" x="189.63" y="-602.51" font-family="Times,serif" font-size="14.00">foundering</text>
</g>
<!-- sant -->
<g id="sant" class="node">
<title>sant</title>
<ellipse fill="none" stroke="black" cx="244.63" cy="-153.29" rx="66.09" ry="66.09"/>
<text text-anchor="middle" x="244.63" y="-149.59" font-family="Times,serif" font-size="14.00">Sanitization</text>
</g>
<!-- gq&#45;&gt;sant -->
<g id="edge3" class="edge">
<title>gq&#45;&gt;sant</title>
<path fill="none" stroke="black" d="M74.76,-459.72C76.22,-407.74 84.4,-329.66 116.63,-270.59 132.2,-242.06 157.5,-216.86 181.5,-197.28"/>
<polygon fill="black" stroke="black" points="183.93,-199.82 189.58,-190.85 179.57,-194.34 183.93,-199.82"/>
<text text-anchor="middle" x="145.13" y="-328.63" font-family="Times,serif" font-size="14.00">secured</text>
</g>
<!-- gq&#45;&gt;ware -->
<g id="edge9" class="edge">
<title>gq&#45;&gt;ware</title>
<path fill="none" stroke="black" d="M109.12,-470.81C123.71,-452.11 141.39,-430.5 158.63,-412.08 168.64,-401.39 179.85,-390.46 190.79,-380.27"/>
<polygon fill="black" stroke="black" points="193.32,-382.7 198.31,-373.35 188.58,-377.55 193.32,-382.7"/>
<text text-anchor="middle" x="194.63" y="-423.38" font-family="Times,serif" font-size="14.00">recovered</text>
</g>
<!-- panic&#45;&gt;sant -->
<g id="edge4" class="edge">
<title>panic&#45;&gt;sant</title>
<path fill="none" stroke="black" d="M361.47,-480.65C358.5,-426.3 347.97,-319.34 310.63,-237.59 306.49,-228.53 301.16,-219.58 295.33,-211.11"/>
<polygon fill="black" stroke="black" points="298.03,-208.87 289.35,-202.8 292.35,-212.96 298.03,-208.87"/>
<text text-anchor="middle" x="399.13" y="-328.63" font-family="Times,serif" font-size="14.00">sent up flare</text>
</g>
<!-- sant&#45;&gt;fini -->
<g id="edge14" class="edge">
<title>sant&#45;&gt;fini</title>
<path fill="none" stroke="black" d="M244.63,-86.82C244.63,-72.5 244.63,-58.11 244.63,-46.3"/>
<polygon fill="black" stroke="black" points="248.13,-46.24 244.63,-36.24 241.13,-46.24 248.13,-46.24"/>
<text text-anchor="middle" x="263.63" y="-57.8" font-family="Times,serif" font-size="14.00">clean</text>
</g>
<!-- strt -->
<g id="start" class="node">
<title>strt</title>
<text text-anchor="middle" x="244.63" y="-1034.39" font-family="Times,serif" font-size="14.00">start</text>
</g>
<!-- strt&#45;&gt;cons -->
<g id="edge1" class="edge">
<title>strt&#45;&gt;cons</title>
<path fill="none" stroke="black" d="M244.63,-1019.85C244.63,-1006.03 244.63,-985.56 244.63,-964.68"/>
<polygon fill="black" stroke="black" points="248.13,-964.43 244.63,-954.43 241.13,-964.43 248.13,-964.43"/>
<text text-anchor="middle" x="262.63" y="-990.89" font-family="Times,serif" font-size="14.00">new</text>
<text text-anchor="middle" x="262.63" y="-975.89" font-family="Times,serif" font-size="14.00">work</text>
</g>
<!-- ware&#45;&gt;panic -->
<g id="edge13" class="edge">
<title>ware&#45;&gt;panic</title>
<path fill="none" stroke="black" d="M263.16,-391.45C270.21,-408.69 279.33,-426.98 290.63,-442.08 298.2,-452.19 303.49,-451.36 312.63,-460.08 319.53,-466.66 326.58,-474.03 333.14,-481.21"/>
<polygon fill="black" stroke="black" points="330.73,-483.77 340.02,-488.87 335.94,-479.09 330.73,-483.77"/>
<text text-anchor="middle" x="317.13" y="-430.88" font-family="Times,serif" font-size="14.00">no</text>
<text text-anchor="middle" x="317.13" y="-415.88" font-family="Times,serif" font-size="14.00">archive</text>
</g>
<!-- ware&#45;&gt;sant -->
<g id="edge6" class="edge">
<title>ware&#45;&gt;sant</title>
<path fill="none" stroke="black" d="M244.63,-270.41C244.63,-257.41 244.63,-243.54 244.63,-230.07"/>
<polygon fill="black" stroke="black" points="248.13,-229.87 244.63,-219.87 241.13,-229.87 248.13,-229.87"/>
<text text-anchor="middle" x="275.63" y="-241.39" font-family="Times,serif" font-size="14.00">archived</text>
</g>
</g>
</svg>
