<?xml version="1.0" encoding="UTF-8" standalone="no"?>
<!DOCTYPE svg PUBLIC "-//W3C//DTD SVG 1.1//EN"
 "http://www.w3.org/Graphics/SVG/1.1/DTD/svg11.dtd">
<!-- Generated by graphviz version 2.43.0 (0)
 -->
<!-- Title: CategorizationDesign Pages: 1 -->
<svg width="1319pt" height="998pt"
 viewBox="0.00 0.00 1318.51 997.74" xmlns="http://www.w3.org/2000/svg" xmlns:xlink="http://www.w3.org/1999/xlink">
<g id="graph0" class="graph" transform="scale(1 1) rotate(0) translate(4 993.74)">
<title>CategorizationDesign</title>
<polygon fill="white" stroke="transparent" points="-4,4 -4,-993.74 1314.51,-993.74 1314.51,4 -4,4"/>
<!-- alarm -->
<g id="node1" class="node">
<title>alarm</title>
<text text-anchor="middle" x="67.5" y="-518.17" font-family="Times,serif" font-size="14.00">Periodic Wakeup</text>
</g>
<!-- scan -->
<g id="node2" class="node">
<title>scan</title>
<ellipse fill="none" stroke="black" cx="236.76" cy="-521.87" rx="65.52" ry="65.52"/>
<text text-anchor="middle" x="236.76" y="-525.67" font-family="Times,serif" font-size="14.00">Scan for</text>
<text text-anchor="middle" x="236.76" y="-510.67" font-family="Times,serif" font-size="14.00">Signal File</text>
</g>
<!-- alarm&#45;&gt;scan -->
<g id="edge1" class="edge">
<title>alarm&#45;&gt;scan</title>
<path fill="none" stroke="black" stroke-dasharray="5,2" d="M135.37,-521.87C135.37,-521.87 160.8,-521.87 160.8,-521.87"/>
<polygon fill="black" stroke="black" points="160.8,-525.37 170.8,-521.87 160.8,-518.37 160.8,-525.37"/>
</g>
<!-- l1_man -->
<g id="node5" class="node">
<title>l1_man</title>
<ellipse fill="none" stroke="black" cx="424.96" cy="-521.87" rx="86.38" ry="18"/>
<text text-anchor="middle" x="424.96" y="-518.17" font-family="Times,serif" font-size="14.00">L1 manifest 1..1</text>
</g>
<!-- scan&#45;&gt;l1_man -->
<g id="edge2" class="edge">
<title>scan&#45;&gt;l1_man</title>
<path fill="none" stroke="black" d="M302.59,-521.87C302.59,-521.87 328.34,-521.87 328.34,-521.87"/>
<polygon fill="black" stroke="black" points="328.34,-525.37 338.34,-521.87 328.34,-518.37 328.34,-525.37"/>
</g>
<!-- sort -->
<g id="node3" class="node">
<title>sort</title>
<ellipse fill="none" stroke="black" cx="626.7" cy="-494.87" rx="79.09" ry="79.09"/>
<text text-anchor="middle" x="626.7" y="-491.17" font-family="Times,serif" font-size="14.00">Categorization</text>
</g>
<!-- l1_cal_a_man -->
<g id="node6" class="node">
<title>l1_cal_a_man</title>
<ellipse fill="none" stroke="black" cx="1026.25" cy="-962.87" rx="123.99" ry="26.74"/>
<text text-anchor="middle" x="1026.25" y="-966.67" font-family="Times,serif" font-size="14.00">L1_cal_a manifest 1..1</text>
<text text-anchor="middle" x="1026.25" y="-951.67" font-family="Times,serif" font-size="14.00">of 0..a files</text>
</g>
<!-- sort&#45;&gt;l1_cal_a_man -->
<g id="edge5" class="edge">
<title>sort&#45;&gt;l1_cal_a_man</title>
<path fill="none" stroke="black" d="M574.51,-554.62C574.51,-680.78 574.51,-962.87 574.51,-962.87 574.51,-962.87 892.21,-962.87 892.21,-962.87"/>
<polygon fill="black" stroke="black" points="892.21,-966.37 902.21,-962.87 892.21,-959.37 892.21,-966.37"/>
</g>
<!-- l1_cal_boresight_man -->
<g id="node7" class="node">
<title>l1_cal_boresight_man</title>
<ellipse fill="none" stroke="black" cx="1026.25" cy="-890.87" rx="166.34" ry="26.74"/>
<text text-anchor="middle" x="1026.25" y="-894.67" font-family="Times,serif" font-size="14.00">L1_cal_boresight manifest 1..1</text>
<text text-anchor="middle" x="1026.25" y="-879.67" font-family="Times,serif" font-size="14.00">of 0..a files</text>
</g>
<!-- sort&#45;&gt;l1_cal_boresight_man -->
<g id="edge6" class="edge">
<title>sort&#45;&gt;l1_cal_boresight_man</title>
<path fill="none" stroke="black" d="M600.51,-569.82C600.51,-684.62 600.51,-890.87 600.51,-890.87 600.51,-890.87 849.82,-890.87 849.82,-890.87"/>
<polygon fill="black" stroke="black" points="849.82,-894.37 859.82,-890.87 849.82,-887.37 849.82,-894.37"/>
</g>
<!-- l1_cal_corethpt_man -->
<g id="node8" class="node">
<title>l1_cal_corethpt_man</title>
<ellipse fill="none" stroke="black" cx="1026.25" cy="-818.87" rx="160.53" ry="26.74"/>
<text text-anchor="middle" x="1026.25" y="-822.67" font-family="Times,serif" font-size="14.00">L1_cal_corethpt manifest 1..1</text>
<text text-anchor="middle" x="1026.25" y="-807.67" font-family="Times,serif" font-size="14.00">of 0..a files</text>
</g>
<!-- sort&#45;&gt;l1_cal_corethpt_man -->
<g id="edge7" class="edge">
<title>sort&#45;&gt;l1_cal_corethpt_man</title>
<path fill="none" stroke="black" d="M627.51,-574.54C627.51,-670.48 627.51,-818.87 627.51,-818.87 627.51,-818.87 855.5,-818.87 855.5,-818.87"/>
<polygon fill="black" stroke="black" points="855.5,-822.37 865.5,-818.87 855.5,-815.37 855.5,-822.37"/>
</g>
<!-- l1_cal_pupil_man -->
<g id="node9" class="node">
<title>l1_cal_pupil_man</title>
<ellipse fill="none" stroke="black" cx="1026.25" cy="-746.87" rx="284.01" ry="26.74"/>
<text text-anchor="middle" x="1026.25" y="-750.67" font-family="Times,serif" font-size="14.00">L1_cal_pupil (nonlinear, k&#45;gain, em&#45;gain) manifest 1..1</text>
<text text-anchor="middle" x="1026.25" y="-735.67" font-family="Times,serif" font-size="14.00">of 0..a files</text>
</g>
<!-- sort&#45;&gt;l1_cal_pupil_man -->
<g id="edge8" class="edge">
<title>sort&#45;&gt;l1_cal_pupil_man</title>
<path fill="none" stroke="black" d="M662.02,-565.95C716.43,-565.95 814.51,-565.95 814.51,-565.95 814.51,-565.95 814.51,-718.86 814.51,-718.86"/>
<polygon fill="black" stroke="black" points="811.01,-718.86 814.51,-728.86 818.01,-718.86 811.01,-718.86"/>
</g>
<!-- l1_eng_a_man -->
<g id="node10" class="node">
<title>l1_eng_a_man</title>
<ellipse fill="none" stroke="black" cx="1026.25" cy="-674.87" rx="127.97" ry="26.74"/>
<text text-anchor="middle" x="1026.25" y="-678.67" font-family="Times,serif" font-size="14.00">L1_eng_a manifest 1..1</text>
<text text-anchor="middle" x="1026.25" y="-663.67" font-family="Times,serif" font-size="14.00">of 0..b files</text>
</g>
<!-- sort&#45;&gt;l1_eng_a_man -->
<g id="edge9" class="edge">
<title>sort&#45;&gt;l1_eng_a_man</title>
<path fill="none" stroke="black" d="M653.51,-569.64C653.51,-619.1 653.51,-674.87 653.51,-674.87 653.51,-674.87 888.23,-674.87 888.23,-674.87"/>
<polygon fill="black" stroke="black" points="888.23,-678.37 898.23,-674.87 888.23,-671.37 888.23,-678.37"/>
</g>
<!-- l1_nfov_a_man -->
<g id="node11" class="node">
<title>l1_nfov_a_man</title>
<ellipse fill="none" stroke="black" cx="1026.25" cy="-602.87" rx="130.63" ry="26.74"/>
<text text-anchor="middle" x="1026.25" y="-606.67" font-family="Times,serif" font-size="14.00">L1_nfov_a manifest 1..1</text>
<text text-anchor="middle" x="1026.25" y="-591.67" font-family="Times,serif" font-size="14.00">of 0..c files</text>
</g>
<!-- sort&#45;&gt;l1_nfov_a_man -->
<g id="edge10" class="edge">
<title>sort&#45;&gt;l1_nfov_a_man</title>
<path fill="none" stroke="black" d="M680.51,-553.35C680.51,-569.07 680.51,-581.82 680.51,-581.82 680.51,-581.82 934.75,-581.82 934.75,-581.82"/>
<polygon fill="black" stroke="black" points="934.75,-585.32 944.75,-581.82 934.75,-578.32 934.75,-585.32"/>
</g>
<!-- l1_nfov_pc_man -->
<g id="node12" class="node">
<title>l1_nfov_pc_man</title>
<ellipse fill="none" stroke="black" cx="1026.25" cy="-530.87" rx="137.36" ry="26.74"/>
<text text-anchor="middle" x="1026.25" y="-534.67" font-family="Times,serif" font-size="14.00">L1_nfov_pc manifest 1..1</text>
<text text-anchor="middle" x="1026.25" y="-519.67" font-family="Times,serif" font-size="14.00">of 0..d files</text>
</g>
<!-- sort&#45;&gt;l1_nfov_pc_man -->
<g id="edge11" class="edge">
<title>sort&#45;&gt;l1_nfov_pc_man</title>
<path fill="none" stroke="black" d="M697.67,-530.87C697.67,-530.87 878.88,-530.87 878.88,-530.87"/>
<polygon fill="black" stroke="black" points="878.88,-534.37 888.88,-530.87 878.88,-527.37 878.88,-534.37"/>
</g>
<!-- l1_pol_a_man -->
<g id="node13" class="node">
<title>l1_pol_a_man</title>
<ellipse fill="none" stroke="black" cx="1026.25" cy="-458.87" rx="124.4" ry="26.74"/>
<text text-anchor="middle" x="1026.25" y="-462.67" font-family="Times,serif" font-size="14.00">L1_pol_a manifest 1..1</text>
<text text-anchor="middle" x="1026.25" y="-447.67" font-family="Times,serif" font-size="14.00">of 0..e files</text>
</g>
<!-- sort&#45;&gt;l1_pol_a_man -->
<g id="edge12" class="edge">
<title>sort&#45;&gt;l1_pol_a_man</title>
<path fill="none" stroke="black" d="M697.67,-458.87C697.67,-458.87 891.43,-458.87 891.43,-458.87"/>
<polygon fill="black" stroke="black" points="891.43,-462.37 901.43,-458.87 891.43,-455.37 891.43,-462.37"/>
</g>
<!-- l1_pol_pc_man -->
<g id="node14" class="node">
<title>l1_pol_pc_man</title>
<ellipse fill="none" stroke="black" cx="1026.25" cy="-386.87" rx="130.63" ry="26.74"/>
<text text-anchor="middle" x="1026.25" y="-390.67" font-family="Times,serif" font-size="14.00">L1_pol_pc manifest 1..1</text>
<text text-anchor="middle" x="1026.25" y="-375.67" font-family="Times,serif" font-size="14.00">of 0..f files</text>
</g>
<!-- sort&#45;&gt;l1_pol_pc_man -->
<g id="edge13" class="edge">
<title>sort&#45;&gt;l1_pol_pc_man</title>
<path fill="none" stroke="black" d="M683.51,-439.29C683.51,-412.83 683.51,-386.87 683.51,-386.87 683.51,-386.87 885.21,-386.87 885.21,-386.87"/>
<polygon fill="black" stroke="black" points="885.21,-390.37 895.21,-386.87 885.21,-383.37 885.21,-390.37"/>
</g>
<!-- l1_spec_a_man -->
<g id="node15" class="node">
<title>l1_spec_a_man</title>
<ellipse fill="none" stroke="black" cx="1026.25" cy="-314.87" rx="132.46" ry="26.74"/>
<text text-anchor="middle" x="1026.25" y="-318.67" font-family="Times,serif" font-size="14.00">L1_spec_a manifest 1..1</text>
<text text-anchor="middle" x="1026.25" y="-303.67" font-family="Times,serif" font-size="14.00">of 0..g files</text>
</g>
<!-- sort&#45;&gt;l1_spec_a_man -->
<g id="edge14" class="edge">
<title>sort&#45;&gt;l1_spec_a_man</title>
<path fill="none" stroke="black" d="M661.51,-423.47C661.51,-373.22 661.51,-314.87 661.51,-314.87 661.51,-314.87 883.8,-314.87 883.8,-314.87"/>
<polygon fill="black" stroke="black" points="883.8,-318.37 893.8,-314.87 883.8,-311.37 883.8,-318.37"/>
</g>
<!-- l1_spec_pc_man -->
<g id="node16" class="node">
<title>l1_spec_pc_man</title>
<ellipse fill="none" stroke="black" cx="1026.25" cy="-242.87" rx="137.77" ry="26.74"/>
<text text-anchor="middle" x="1026.25" y="-246.67" font-family="Times,serif" font-size="14.00">L1_spec_pc manifest 1..1</text>
<text text-anchor="middle" x="1026.25" y="-231.67" font-family="Times,serif" font-size="14.00">of 0..h files</text>
</g>
<!-- sort&#45;&gt;l1_spec_pc_man -->
<g id="edge15" class="edge">
<title>sort&#45;&gt;l1_spec_pc_man</title>
<path fill="none" stroke="black" d="M638.51,-416.17C638.51,-342.23 638.51,-242.87 638.51,-242.87 638.51,-242.87 878.18,-242.87 878.18,-242.87"/>
<polygon fill="black" stroke="black" points="878.18,-246.37 888.18,-242.87 878.18,-239.37 878.18,-246.37"/>
</g>
<!-- l1_wfov_a_man -->
<g id="node17" class="node">
<title>l1_wfov_a_man</title>
<ellipse fill="none" stroke="black" cx="1026.25" cy="-170.87" rx="132.87" ry="26.74"/>
<text text-anchor="middle" x="1026.25" y="-174.67" font-family="Times,serif" font-size="14.00">L1_wfov_a manifest 1..1</text>
<text text-anchor="middle" x="1026.25" y="-159.67" font-family="Times,serif" font-size="14.00">of 0..i files</text>
</g>
<!-- sort&#45;&gt;l1_wfov_a_man -->
<g id="edge16" class="edge">
<title>sort&#45;&gt;l1_wfov_a_man</title>
<path fill="none" stroke="black" d="M615.51,-416.03C615.51,-320.12 615.51,-170.87 615.51,-170.87 615.51,-170.87 883.18,-170.87 883.18,-170.87"/>
<polygon fill="black" stroke="black" points="883.18,-174.37 893.18,-170.87 883.18,-167.37 883.18,-174.37"/>
</g>
<!-- l1_wfov_pc_man -->
<g id="node18" class="node">
<title>l1_wfov_pc_man</title>
<ellipse fill="none" stroke="black" cx="1026.25" cy="-98.87" rx="139.1" ry="26.74"/>
<text text-anchor="middle" x="1026.25" y="-102.67" font-family="Times,serif" font-size="14.00">L1_wfov_pc manifest 1..1</text>
<text text-anchor="middle" x="1026.25" y="-87.67" font-family="Times,serif" font-size="14.00">of 0..j files</text>
</g>
<!-- sort&#45;&gt;l1_wfov_pc_man -->
<g id="edge17" class="edge">
<title>sort&#45;&gt;l1_wfov_pc_man</title>
<path fill="none" stroke="black" d="M593.51,-422.7C593.51,-308.48 593.51,-98.87 593.51,-98.87 593.51,-98.87 876.94,-98.87 876.94,-98.87"/>
<polygon fill="black" stroke="black" points="876.94,-102.37 886.94,-98.87 876.94,-95.37 876.94,-102.37"/>
</g>
<!-- l1_unk_man -->
<g id="node19" class="node">
<title>l1_unk_man</title>
<ellipse fill="none" stroke="black" cx="1026.25" cy="-26.87" rx="117.26" ry="26.74"/>
<text text-anchor="middle" x="1026.25" y="-30.67" font-family="Times,serif" font-size="14.00">L1_unk manifest 1..1</text>
<text text-anchor="middle" x="1026.25" y="-15.67" font-family="Times,serif" font-size="14.00">of 0..k files</text>
</g>
<!-- sort&#45;&gt;l1_unk_man -->
<g id="edge18" class="edge">
<title>sort&#45;&gt;l1_unk_man</title>
<path fill="none" stroke="black" d="M570.51,-438.88C570.51,-314.66 570.51,-26.87 570.51,-26.87 570.51,-26.87 898.59,-26.87 898.59,-26.87"/>
<polygon fill="black" stroke="black" points="898.59,-30.37 908.59,-26.87 898.59,-23.37 898.59,-30.37"/>
</g>
<!-- l1_data -->
<g id="node4" class="node">
<title>l1_data</title>
<polygon fill="none" stroke="black" points="493.46,-485.87 356.46,-485.87 356.46,-449.87 493.46,-449.87 493.46,-485.87"/>
<text text-anchor="middle" x="424.96" y="-464.17" font-family="Times,serif" font-size="14.00">L1 products 1..N</text>
</g>
<!-- l1_data&#45;&gt;sort -->
<g id="edge3" class="edge">
<title>l1_data&#45;&gt;sort</title>
<path fill="none" stroke="black" stroke-dasharray="5,2" d="M493.54,-467.87C493.54,-467.87 542.09,-467.87 542.09,-467.87"/>
<polygon fill="black" stroke="black" points="542.09,-471.37 552.09,-467.87 542.09,-464.37 542.09,-471.37"/>
</g>
<!-- l1_man&#45;&gt;sort -->
<g id="edge4" class="edge">
<title>l1_man&#45;&gt;sort</title>
<path fill="none" stroke="black" d="M511.69,-521.87C511.69,-521.87 542.1,-521.87 542.1,-521.87"/>
<polygon fill="black" stroke="black" points="542.1,-525.37 552.1,-521.87 542.1,-518.37 542.1,-525.37"/>
</g>
</g>
</svg>
