<?xml version="1.0" encoding="UTF-8" standalone="no"?>
<!DOCTYPE svg PUBLIC "-//W3C//DTD SVG 1.1//EN"
 "http://www.w3.org/Graphics/SVG/1.1/DTD/svg11.dtd">
<!-- Generated by graphviz version 2.43.0 (0)
 -->
<!-- Title: CategorizationDesign Pages: 1 -->
<svg width="1206pt" height="782pt"
 viewBox="0.00 0.00 1206.42 781.74" xmlns="http://www.w3.org/2000/svg" xmlns:xlink="http://www.w3.org/1999/xlink">
<g id="graph0" class="graph" transform="scale(1 1) rotate(0) translate(4 777.74)">
<title>CategorizationDesign</title>
<polygon fill="white" stroke="transparent" points="-4,4 -4,-777.74 1202.42,-777.74 1202.42,4 -4,4"/>
<!-- alarm -->
<g id="node1" class="node">
<title>alarm</title>
<text text-anchor="middle" x="227.69" y="-410.17" font-family="Times,serif" font-size="14.00">Periodic Wakeup</text>
</g>
<!-- scan -->
<g id="node2" class="node">
<title>scan</title>
<ellipse fill="none" stroke="black" cx="545.12" cy="-413.87" rx="53.98" ry="53.98"/>
<text text-anchor="middle" x="545.12" y="-417.67" font-family="Times,serif" font-size="14.00">Scan for</text>
<text text-anchor="middle" x="545.12" y="-402.67" font-family="Times,serif" font-size="14.00">Signal File</text>
</g>
<!-- alarm&#45;&gt;scan -->
<g id="edge1" class="edge">
<title>alarm&#45;&gt;scan</title>
<path fill="none" stroke="black" stroke-dasharray="5,2" d="M282.98,-413.87C282.98,-413.87 481.25,-413.87 481.25,-413.87"/>
<polygon fill="black" stroke="black" points="481.25,-417.37 491.25,-413.87 481.25,-410.37 481.25,-417.37"/>
</g>
<!-- l1_man -->
<g id="node5" class="node">
<title>l1_man</title>
<ellipse fill="none" stroke="black" cx="704.4" cy="-413.87" rx="69.59" ry="18"/>
<text text-anchor="middle" x="704.4" y="-410.17" font-family="Times,serif" font-size="14.00">L1 manifest 1..1</text>
</g>
<!-- scan&#45;&gt;l1_man -->
<g id="edge2" class="edge">
<title>scan&#45;&gt;l1_man</title>
<path fill="none" stroke="black" d="M599.04,-413.87C599.04,-413.87 624.72,-413.87 624.72,-413.87"/>
<polygon fill="black" stroke="black" points="624.72,-417.37 634.72,-413.87 624.72,-410.37 624.72,-417.37"/>
</g>
<!-- sort -->
<g id="node3" class="node">
<title>sort</title>
<ellipse fill="none" stroke="black" cx="872.34" cy="-386.87" rx="62.29" ry="62.29"/>
<text text-anchor="middle" x="872.34" y="-383.17" font-family="Times,serif" font-size="14.00">Categorization</text>
</g>
<!-- l1_cal_a_man -->
<g id="node6" class="node">
<title>l1_cal_a_man</title>
<ellipse fill="none" stroke="black" cx="1084.58" cy="-746.87" rx="101.23" ry="26.74"/>
<text text-anchor="middle" x="1084.58" y="-750.67" font-family="Times,serif" font-size="14.00">L1_cal_a manifest 1..1</text>
<text text-anchor="middle" x="1084.58" y="-735.67" font-family="Times,serif" font-size="14.00">of 0..a files</text>
</g>
<!-- sort&#45;&gt;l1_cal_a_man -->
<g id="edge5" class="edge">
<title>sort&#45;&gt;l1_cal_a_man</title>
<path fill="none" stroke="black" d="M835.42,-437.31C835.42,-536.38 835.42,-746.87 835.42,-746.87 835.42,-746.87 973.24,-746.87 973.24,-746.87"/>
<polygon fill="black" stroke="black" points="973.24,-750.37 983.24,-746.87 973.24,-743.37 973.24,-750.37"/>
</g>
<!-- l1_eng_a_man -->
<g id="node10" class="node">
<title>l1_eng_a_man</title>
<ellipse fill="none" stroke="black" cx="1084.58" cy="-674.87" rx="103.48" ry="26.74"/>
<text text-anchor="middle" x="1084.58" y="-678.67" font-family="Times,serif" font-size="14.00">L1_eng_a manifest 1..1</text>
<text text-anchor="middle" x="1084.58" y="-663.67" font-family="Times,serif" font-size="14.00">of 0..b files</text>
</g>
<!-- sort&#45;&gt;l1_eng_a_man -->
<g id="edge6" class="edge">
<title>sort&#45;&gt;l1_eng_a_man</title>
<path fill="none" stroke="black" d="M860.42,-448.3C860.42,-532.88 860.42,-674.87 860.42,-674.87 860.42,-674.87 971.03,-674.87 971.03,-674.87"/>
<polygon fill="black" stroke="black" points="971.03,-678.37 981.03,-674.87 971.03,-671.37 971.03,-678.37"/>
</g>
<!-- l1_nfov_a_man -->
<g id="node11" class="node">
<title>l1_nfov_a_man</title>
<ellipse fill="none" stroke="black" cx="1084.58" cy="-602.87" rx="107.46" ry="26.74"/>
<text text-anchor="middle" x="1084.58" y="-606.67" font-family="Times,serif" font-size="14.00">L1_nfov_a manifest 1..1</text>
<text text-anchor="middle" x="1084.58" y="-591.67" font-family="Times,serif" font-size="14.00">of 0..c files</text>
</g>
<!-- sort&#45;&gt;l1_nfov_a_man -->
<g id="edge7" class="edge">
<title>sort&#45;&gt;l1_nfov_a_man</title>
<path fill="none" stroke="black" d="M885.42,-447.93C885.42,-506.15 885.42,-585 885.42,-585 885.42,-585 994.15,-585 994.15,-585"/>
<polygon fill="black" stroke="black" points="994.15,-588.5 1004.15,-585 994.15,-581.5 994.15,-588.5"/>
</g>
<!-- l1_nfov_pc_man -->
<g id="node12" class="node">
<title>l1_nfov_pc_man</title>
<ellipse fill="none" stroke="black" cx="1084.58" cy="-530.87" rx="111.95" ry="26.74"/>
<text text-anchor="middle" x="1084.58" y="-534.67" font-family="Times,serif" font-size="14.00">L1_nfov_pc manifest 1..1</text>
<text text-anchor="middle" x="1084.58" y="-519.67" font-family="Times,serif" font-size="14.00">of 0..d files</text>
</g>
<!-- sort&#45;&gt;l1_nfov_pc_man -->
<g id="edge8" class="edge">
<title>sort&#45;&gt;l1_nfov_pc_man</title>
<path fill="none" stroke="black" d="M910.42,-436.36C910.42,-471.69 910.42,-513 910.42,-513 910.42,-513 991.07,-513 991.07,-513"/>
<polygon fill="black" stroke="black" points="991.07,-516.5 1001.07,-513 991.07,-509.5 991.07,-516.5"/>
</g>
<!-- l1_pol_a_man -->
<g id="node13" class="node">
<title>l1_pol_a_man</title>
<ellipse fill="none" stroke="black" cx="1084.58" cy="-458.87" rx="101.65" ry="26.74"/>
<text text-anchor="middle" x="1084.58" y="-462.67" font-family="Times,serif" font-size="14.00">L1_pol_a manifest 1..1</text>
<text text-anchor="middle" x="1084.58" y="-447.67" font-family="Times,serif" font-size="14.00">of 0..e files</text>
</g>
<!-- sort&#45;&gt;l1_pol_a_man -->
<g id="edge9" class="edge">
<title>sort&#45;&gt;l1_pol_a_man</title>
<path fill="none" stroke="black" d="M904.11,-440.63C904.11,-440.63 999.4,-440.63 999.4,-440.63"/>
<polygon fill="black" stroke="black" points="999.4,-444.13 1009.4,-440.63 999.4,-437.13 999.4,-444.13"/>
</g>
<!-- l1_pol_pc_man -->
<g id="node14" class="node">
<title>l1_pol_pc_man</title>
<ellipse fill="none" stroke="black" cx="1084.58" cy="-386.87" rx="106.55" ry="26.74"/>
<text text-anchor="middle" x="1084.58" y="-390.67" font-family="Times,serif" font-size="14.00">L1_pol_pc manifest 1..1</text>
<text text-anchor="middle" x="1084.58" y="-375.67" font-family="Times,serif" font-size="14.00">of 0..f files</text>
</g>
<!-- sort&#45;&gt;l1_pol_pc_man -->
<g id="edge10" class="edge">
<title>sort&#45;&gt;l1_pol_pc_man</title>
<path fill="none" stroke="black" d="M934.87,-386.87C934.87,-386.87 967.51,-386.87 967.51,-386.87"/>
<polygon fill="black" stroke="black" points="967.51,-390.37 977.51,-386.87 967.51,-383.37 967.51,-390.37"/>
</g>
<!-- l1_spec_a_man -->
<g id="node15" class="node">
<title>l1_spec_a_man</title>
<ellipse fill="none" stroke="black" cx="1084.58" cy="-314.87" rx="106.55" ry="26.74"/>
<text text-anchor="middle" x="1084.58" y="-318.67" font-family="Times,serif" font-size="14.00">L1_spec_a manifest 1..1</text>
<text text-anchor="middle" x="1084.58" y="-303.67" font-family="Times,serif" font-size="14.00">of 0..g files</text>
</g>
<!-- sort&#45;&gt;l1_spec_a_man -->
<g id="edge11" class="edge">
<title>sort&#45;&gt;l1_spec_a_man</title>
<path fill="none" stroke="black" d="M904.11,-333.11C904.11,-333.11 995.76,-333.11 995.76,-333.11"/>
<polygon fill="black" stroke="black" points="995.76,-336.61 1005.76,-333.11 995.76,-329.61 995.76,-336.61"/>
</g>
<!-- l1_spec_pc_man -->
<g id="node16" class="node">
<title>l1_spec_pc_man</title>
<ellipse fill="none" stroke="black" cx="1084.58" cy="-242.87" rx="111.95" ry="26.74"/>
<text text-anchor="middle" x="1084.58" y="-246.67" font-family="Times,serif" font-size="14.00">L1_spec_pc manifest 1..1</text>
<text text-anchor="middle" x="1084.58" y="-231.67" font-family="Times,serif" font-size="14.00">of 0..h files</text>
</g>
<!-- sort&#45;&gt;l1_spec_pc_man -->
<g id="edge12" class="edge">
<title>sort&#45;&gt;l1_spec_pc_man</title>
<path fill="none" stroke="black" d="M910.42,-337.31C910.42,-295.66 910.42,-242.87 910.42,-242.87 910.42,-242.87 962.8,-242.87 962.8,-242.87"/>
<polygon fill="black" stroke="black" points="962.8,-246.37 972.8,-242.87 962.8,-239.37 962.8,-246.37"/>
</g>
<!-- l1_wfov_a_man -->
<g id="node17" class="node">
<title>l1_wfov_a_man</title>
<ellipse fill="none" stroke="black" cx="1084.58" cy="-170.87" rx="109.7" ry="26.74"/>
<text text-anchor="middle" x="1084.58" y="-174.67" font-family="Times,serif" font-size="14.00">L1_wfov_a manifest 1..1</text>
<text text-anchor="middle" x="1084.58" y="-159.67" font-family="Times,serif" font-size="14.00">of 0..i files</text>
</g>
<!-- sort&#45;&gt;l1_wfov_a_man -->
<g id="edge13" class="edge">
<title>sort&#45;&gt;l1_wfov_a_man</title>
<path fill="none" stroke="black" d="M885.42,-325.84C885.42,-261.97 885.42,-170.87 885.42,-170.87 885.42,-170.87 964.81,-170.87 964.81,-170.87"/>
<polygon fill="black" stroke="black" points="964.81,-174.37 974.81,-170.87 964.81,-167.37 964.81,-174.37"/>
</g>
<!-- l1_wfov_pc_man -->
<g id="node18" class="node">
<title>l1_wfov_pc_man</title>
<ellipse fill="none" stroke="black" cx="1084.58" cy="-98.87" rx="113.69" ry="26.74"/>
<text text-anchor="middle" x="1084.58" y="-102.67" font-family="Times,serif" font-size="14.00">L1_wfov_pc manifest 1..1</text>
<text text-anchor="middle" x="1084.58" y="-87.67" font-family="Times,serif" font-size="14.00">of 0..j files</text>
</g>
<!-- sort&#45;&gt;l1_wfov_pc_man -->
<g id="edge14" class="edge">
<title>sort&#45;&gt;l1_wfov_pc_man</title>
<path fill="none" stroke="black" d="M860.42,-325.44C860.42,-240.86 860.42,-98.87 860.42,-98.87 860.42,-98.87 960.53,-98.87 960.53,-98.87"/>
<polygon fill="black" stroke="black" points="960.53,-102.37 970.53,-98.87 960.53,-95.37 960.53,-102.37"/>
</g>
<!-- l1_unk_man -->
<g id="node19" class="node">
<title>l1_unk_man</title>
<ellipse fill="none" stroke="black" cx="1084.58" cy="-26.87" rx="94.51" ry="26.74"/>
<text text-anchor="middle" x="1084.58" y="-30.67" font-family="Times,serif" font-size="14.00">L1_unk manifest 1..1</text>
<text text-anchor="middle" x="1084.58" y="-15.67" font-family="Times,serif" font-size="14.00">of 0..k files</text>
</g>
<!-- sort&#45;&gt;l1_unk_man -->
<g id="edge15" class="edge">
<title>sort&#45;&gt;l1_unk_man</title>
<path fill="none" stroke="black" d="M835.42,-336.43C835.42,-237.36 835.42,-26.87 835.42,-26.87 835.42,-26.87 979.67,-26.87 979.67,-26.87"/>
<polygon fill="black" stroke="black" points="979.67,-30.37 989.67,-26.87 979.67,-23.37 979.67,-30.37"/>
</g>
<!-- l1_data -->
<g id="node4" class="node">
<title>l1_data</title>
<polygon fill="none" stroke="black" points="759.4,-377.87 649.4,-377.87 649.4,-341.87 759.4,-341.87 759.4,-377.87"/>
<text text-anchor="middle" x="704.4" y="-356.17" font-family="Times,serif" font-size="14.00">L1 products 1..N</text>
</g>
<!-- l1_data&#45;&gt;sort -->
<g id="edge3" class="edge">
<title>l1_data&#45;&gt;sort</title>
<path fill="none" stroke="black" stroke-dasharray="5,2" d="M759.86,-359.87C759.86,-359.87 806.08,-359.87 806.08,-359.87"/>
<polygon fill="black" stroke="black" points="806.08,-363.37 816.08,-359.87 806.08,-356.37 806.08,-363.37"/>
</g>
<!-- l1_man&#45;&gt;sort -->
<g id="edge4" class="edge">
<title>l1_man&#45;&gt;sort</title>
<path fill="none" stroke="black" d="M774.16,-413.87C774.16,-413.87 806.08,-413.87 806.08,-413.87"/>
<polygon fill="black" stroke="black" points="806.08,-417.37 816.08,-413.87 806.08,-410.37 806.08,-417.37"/>
</g>
<!-- l1_cal_boresight_man -->
<g id="node7" class="node">
<title>l1_cal_boresight_man</title>
<ellipse fill="none" stroke="black" cx="227.69" cy="-476.87" rx="132.46" ry="26.74"/>
<text text-anchor="middle" x="227.69" y="-480.67" font-family="Times,serif" font-size="14.00">L1_cal_boresight manifest 1..1</text>
<text text-anchor="middle" x="227.69" y="-465.67" font-family="Times,serif" font-size="14.00">of 0..a files</text>
</g>
<!-- l1_cal_corethpt_man -->
<g id="node8" class="node">
<title>l1_cal_corethpt_man</title>
<ellipse fill="none" stroke="black" cx="227.69" cy="-548.87" rx="127.97" ry="26.74"/>
<text text-anchor="middle" x="227.69" y="-552.67" font-family="Times,serif" font-size="14.00">L1_cal_corethpt manifest 1..1</text>
<text text-anchor="middle" x="227.69" y="-537.67" font-family="Times,serif" font-size="14.00">of 0..a files</text>
</g>
<!-- l1_cal_pupil_man -->
<g id="node9" class="node">
<title>l1_cal_pupil_man</title>
<ellipse fill="none" stroke="black" cx="227.69" cy="-620.87" rx="227.88" ry="26.74"/>
<text text-anchor="middle" x="227.69" y="-624.67" font-family="Times,serif" font-size="14.00">L1_cal_pupil (nonlinear, k&#45;gain, em&#45;gain) manifest 1..1</text>
<text text-anchor="middle" x="227.69" y="-609.67" font-family="Times,serif" font-size="14.00">of 0..a files</text>
</g>
</g>
</svg>
