<?xml version="1.0" encoding="UTF-8" standalone="no"?>
<!DOCTYPE svg PUBLIC "-//W3C//DTD SVG 1.1//EN"
 "http://www.w3.org/Graphics/SVG/1.1/DTD/svg11.dtd">
<!-- Generated by graphviz version 2.43.0 (0)
 -->
<!-- Title: CategorizationDesign Pages: 1 -->
<svg width="1462pt" height="872pt"
 viewBox="0.00 0.00 1462.11 871.74" xmlns="http://www.w3.org/2000/svg" xmlns:xlink="http://www.w3.org/1999/xlink">
<g id="graph0" class="graph" transform="scale(1 1) rotate(0) translate(4 867.74)">
<title>CategorizationDesign</title>
<polygon fill="white" stroke="transparent" points="-4,4 -4,-867.74 1458.11,-867.74 1458.11,4 -4,4"/>
<!-- alarm -->
<g id="node1" class="node">
<title>alarm</title>
<text text-anchor="middle" x="284.26" y="-410.17" font-family="Times,serif" font-size="14.00">Periodic Wakeup</text>
</g>
<!-- scan -->
<g id="node2" class="node">
<title>scan</title>
<ellipse fill="none" stroke="black" cx="670.27" cy="-413.87" rx="65.52" ry="65.52"/>
<text text-anchor="middle" x="670.27" y="-417.67" font-family="Times,serif" font-size="14.00">Scan for</text>
<text text-anchor="middle" x="670.27" y="-402.67" font-family="Times,serif" font-size="14.00">Signal File</text>
</g>
<!-- alarm&#45;&gt;scan -->
<g id="edge1" class="edge">
<title>alarm&#45;&gt;scan</title>
<path fill="none" stroke="black" stroke-dasharray="5,2" d="M351.94,-413.87C351.94,-413.87 594.29,-413.87 594.29,-413.87"/>
<polygon fill="black" stroke="black" points="594.29,-417.37 604.29,-413.87 594.29,-410.37 594.29,-417.37"/>
</g>
<!-- l1_man -->
<g id="node5" class="node">
<title>l1_man</title>
<ellipse fill="none" stroke="black" cx="858.48" cy="-413.87" rx="86.38" ry="18"/>
<text text-anchor="middle" x="858.48" y="-410.17" font-family="Times,serif" font-size="14.00">L1 manifest 1..1</text>
</g>
<!-- scan&#45;&gt;l1_man -->
<g id="edge2" class="edge">
<title>scan&#45;&gt;l1_man</title>
<path fill="none" stroke="black" d="M736.1,-413.87C736.1,-413.87 761.85,-413.87 761.85,-413.87"/>
<polygon fill="black" stroke="black" points="761.85,-417.37 771.85,-413.87 761.85,-410.37 761.85,-417.37"/>
</g>
<!-- sort -->
<g id="node3" class="node">
<title>sort</title>
<ellipse fill="none" stroke="black" cx="1060.21" cy="-386.87" rx="79.09" ry="79.09"/>
<text text-anchor="middle" x="1060.21" y="-383.17" font-family="Times,serif" font-size="14.00">Categorization</text>
</g>
<!-- l1_cal_a_man -->
<g id="node6" class="node">
<title>l1_cal_a_man</title>
<ellipse fill="none" stroke="black" cx="1314.81" cy="-746.87" rx="123.99" ry="26.74"/>
<text text-anchor="middle" x="1314.81" y="-750.67" font-family="Times,serif" font-size="14.00">L1_cal_a manifest 1..1</text>
<text text-anchor="middle" x="1314.81" y="-735.67" font-family="Times,serif" font-size="14.00">of 0..a files</text>
</g>
<!-- sort&#45;&gt;l1_cal_a_man -->
<g id="edge5" class="edge">
<title>sort&#45;&gt;l1_cal_a_man</title>
<path fill="none" stroke="black" d="M1013.11,-450.82C1013.11,-549.85 1013.11,-729 1013.11,-729 1013.11,-729 1212.24,-729 1212.24,-729"/>
<polygon fill="black" stroke="black" points="1212.24,-732.5 1222.24,-729 1212.24,-725.5 1212.24,-732.5"/>
</g>
<!-- l1_eng_a_man -->
<g id="node13" class="node">
<title>l1_eng_a_man</title>
<ellipse fill="none" stroke="black" cx="1314.81" cy="-674.87" rx="127.97" ry="26.74"/>
<text text-anchor="middle" x="1314.81" y="-678.67" font-family="Times,serif" font-size="14.00">L1_eng_a manifest 1..1</text>
<text text-anchor="middle" x="1314.81" y="-663.67" font-family="Times,serif" font-size="14.00">of 0..b files</text>
</g>
<!-- sort&#45;&gt;l1_eng_a_man -->
<g id="edge6" class="edge">
<title>sort&#45;&gt;l1_eng_a_man</title>
<path fill="none" stroke="black" d="M1045.11,-465C1045.11,-544.78 1045.11,-657 1045.11,-657 1045.11,-657 1208.96,-657 1208.96,-657"/>
<polygon fill="black" stroke="black" points="1208.96,-660.5 1218.96,-657 1208.96,-653.5 1208.96,-660.5"/>
</g>
<!-- l1_nfov_a_man -->
<g id="node14" class="node">
<title>l1_nfov_a_man</title>
<ellipse fill="none" stroke="black" cx="1314.81" cy="-602.87" rx="130.63" ry="26.74"/>
<text text-anchor="middle" x="1314.81" y="-606.67" font-family="Times,serif" font-size="14.00">L1_nfov_a manifest 1..1</text>
<text text-anchor="middle" x="1314.81" y="-591.67" font-family="Times,serif" font-size="14.00">of 0..c files</text>
</g>
<!-- sort&#45;&gt;l1_nfov_a_man -->
<g id="edge7" class="edge">
<title>sort&#45;&gt;l1_nfov_a_man</title>
<path fill="none" stroke="black" d="M1076.11,-464.61C1076.11,-520.11 1076.11,-585 1076.11,-585 1076.11,-585 1207.03,-585 1207.03,-585"/>
<polygon fill="black" stroke="black" points="1207.03,-588.5 1217.03,-585 1207.03,-581.5 1207.03,-588.5"/>
</g>
<!-- l1_nfov_pc_man -->
<g id="node15" class="node">
<title>l1_nfov_pc_man</title>
<ellipse fill="none" stroke="black" cx="1314.81" cy="-530.87" rx="137.36" ry="26.74"/>
<text text-anchor="middle" x="1314.81" y="-534.67" font-family="Times,serif" font-size="14.00">L1_nfov_pc manifest 1..1</text>
<text text-anchor="middle" x="1314.81" y="-519.67" font-family="Times,serif" font-size="14.00">of 0..d files</text>
</g>
<!-- sort&#45;&gt;l1_nfov_pc_man -->
<g id="edge8" class="edge">
<title>sort&#45;&gt;l1_nfov_pc_man</title>
<path fill="none" stroke="black" d="M1108.11,-450.3C1108.11,-481.71 1108.11,-513 1108.11,-513 1108.11,-513 1202.06,-513 1202.06,-513"/>
<polygon fill="black" stroke="black" points="1202.06,-516.5 1212.06,-513 1202.06,-509.5 1202.06,-516.5"/>
</g>
<!-- l1_pol_a_man -->
<g id="node16" class="node">
<title>l1_pol_a_man</title>
<ellipse fill="none" stroke="black" cx="1314.81" cy="-458.87" rx="124.4" ry="26.74"/>
<text text-anchor="middle" x="1314.81" y="-462.67" font-family="Times,serif" font-size="14.00">L1_pol_a manifest 1..1</text>
<text text-anchor="middle" x="1314.81" y="-447.67" font-family="Times,serif" font-size="14.00">of 0..e files</text>
</g>
<!-- sort&#45;&gt;l1_pol_a_man -->
<g id="edge9" class="edge">
<title>sort&#45;&gt;l1_pol_a_man</title>
<path fill="none" stroke="black" d="M1109.6,-449.08C1109.6,-449.08 1188.82,-449.08 1188.82,-449.08"/>
<polygon fill="black" stroke="black" points="1188.82,-452.58 1198.82,-449.08 1188.82,-445.58 1188.82,-452.58"/>
</g>
<!-- l1_pol_pc_man -->
<g id="node17" class="node">
<title>l1_pol_pc_man</title>
<ellipse fill="none" stroke="black" cx="1314.81" cy="-386.87" rx="130.63" ry="26.74"/>
<text text-anchor="middle" x="1314.81" y="-390.67" font-family="Times,serif" font-size="14.00">L1_pol_pc manifest 1..1</text>
<text text-anchor="middle" x="1314.81" y="-375.67" font-family="Times,serif" font-size="14.00">of 0..f files</text>
</g>
<!-- sort&#45;&gt;l1_pol_pc_man -->
<g id="edge10" class="edge">
<title>sort&#45;&gt;l1_pol_pc_man</title>
<path fill="none" stroke="black" d="M1139.72,-386.87C1139.72,-386.87 1173.62,-386.87 1173.62,-386.87"/>
<polygon fill="black" stroke="black" points="1173.62,-390.37 1183.62,-386.87 1173.62,-383.37 1173.62,-390.37"/>
</g>
<!-- l1_spec_a_man -->
<g id="node18" class="node">
<title>l1_spec_a_man</title>
<ellipse fill="none" stroke="black" cx="1314.81" cy="-314.87" rx="132.46" ry="26.74"/>
<text text-anchor="middle" x="1314.81" y="-318.67" font-family="Times,serif" font-size="14.00">L1_spec_a manifest 1..1</text>
<text text-anchor="middle" x="1314.81" y="-303.67" font-family="Times,serif" font-size="14.00">of 0..g files</text>
</g>
<!-- sort&#45;&gt;l1_spec_a_man -->
<g id="edge11" class="edge">
<title>sort&#45;&gt;l1_spec_a_man</title>
<path fill="none" stroke="black" d="M1109.6,-324.66C1109.6,-324.66 1181.61,-324.66 1181.61,-324.66"/>
<polygon fill="black" stroke="black" points="1181.61,-328.16 1191.61,-324.66 1181.61,-321.16 1181.61,-328.16"/>
</g>
<!-- l1_spec_pc_man -->
<g id="node19" class="node">
<title>l1_spec_pc_man</title>
<ellipse fill="none" stroke="black" cx="1314.81" cy="-242.87" rx="137.77" ry="26.74"/>
<text text-anchor="middle" x="1314.81" y="-246.67" font-family="Times,serif" font-size="14.00">L1_spec_pc manifest 1..1</text>
<text text-anchor="middle" x="1314.81" y="-231.67" font-family="Times,serif" font-size="14.00">of 0..h files</text>
</g>
<!-- sort&#45;&gt;l1_spec_pc_man -->
<g id="edge12" class="edge">
<title>sort&#45;&gt;l1_spec_pc_man</title>
<path fill="none" stroke="black" d="M1108.11,-323.29C1108.11,-284.71 1108.11,-242.87 1108.11,-242.87 1108.11,-242.87 1166.65,-242.87 1166.65,-242.87"/>
<polygon fill="black" stroke="black" points="1166.65,-246.37 1176.65,-242.87 1166.65,-239.37 1166.65,-246.37"/>
</g>
<!-- l1_wfov_a_man -->
<g id="node20" class="node">
<title>l1_wfov_a_man</title>
<ellipse fill="none" stroke="black" cx="1314.81" cy="-170.87" rx="132.87" ry="26.74"/>
<text text-anchor="middle" x="1314.81" y="-174.67" font-family="Times,serif" font-size="14.00">L1_wfov_a manifest 1..1</text>
<text text-anchor="middle" x="1314.81" y="-159.67" font-family="Times,serif" font-size="14.00">of 0..i files</text>
</g>
<!-- sort&#45;&gt;l1_wfov_a_man -->
<g id="edge13" class="edge">
<title>sort&#45;&gt;l1_wfov_a_man</title>
<path fill="none" stroke="black" d="M1076.11,-308.89C1076.11,-247.02 1076.11,-170.87 1076.11,-170.87 1076.11,-170.87 1171.85,-170.87 1171.85,-170.87"/>
<polygon fill="black" stroke="black" points="1171.85,-174.37 1181.85,-170.87 1171.85,-167.37 1171.85,-174.37"/>
</g>
<!-- l1_wfov_pc_man -->
<g id="node21" class="node">
<title>l1_wfov_pc_man</title>
<ellipse fill="none" stroke="black" cx="1314.81" cy="-98.87" rx="139.1" ry="26.74"/>
<text text-anchor="middle" x="1314.81" y="-102.67" font-family="Times,serif" font-size="14.00">L1_wfov_pc manifest 1..1</text>
<text text-anchor="middle" x="1314.81" y="-87.67" font-family="Times,serif" font-size="14.00">of 0..j files</text>
</g>
<!-- sort&#45;&gt;l1_wfov_pc_man -->
<g id="edge14" class="edge">
<title>sort&#45;&gt;l1_wfov_pc_man</title>
<path fill="none" stroke="black" d="M1045.11,-308.93C1045.11,-223.64 1045.11,-98.87 1045.11,-98.87 1045.11,-98.87 1165.22,-98.87 1165.22,-98.87"/>
<polygon fill="black" stroke="black" points="1165.22,-102.37 1175.22,-98.87 1165.22,-95.37 1165.22,-102.37"/>
</g>
<!-- l1_unk_man -->
<g id="node22" class="node">
<title>l1_unk_man</title>
<ellipse fill="none" stroke="black" cx="1314.81" cy="-26.87" rx="117.26" ry="26.74"/>
<text text-anchor="middle" x="1314.81" y="-30.67" font-family="Times,serif" font-size="14.00">L1_unk manifest 1..1</text>
<text text-anchor="middle" x="1314.81" y="-15.67" font-family="Times,serif" font-size="14.00">of 0..k files</text>
</g>
<!-- sort&#45;&gt;l1_unk_man -->
<g id="edge15" class="edge">
<title>sort&#45;&gt;l1_unk_man</title>
<path fill="none" stroke="black" d="M1013.11,-322.92C1013.11,-219.47 1013.11,-26.87 1013.11,-26.87 1013.11,-26.87 1187.3,-26.87 1187.3,-26.87"/>
<polygon fill="black" stroke="black" points="1187.3,-30.37 1197.3,-26.87 1187.3,-23.37 1187.3,-30.37"/>
</g>
<!-- l1_data -->
<g id="node4" class="node">
<title>l1_data</title>
<polygon fill="none" stroke="black" points="926.98,-377.87 789.98,-377.87 789.98,-341.87 926.98,-341.87 926.98,-377.87"/>
<text text-anchor="middle" x="858.48" y="-356.17" font-family="Times,serif" font-size="14.00">L1 products 1..N</text>
</g>
<!-- l1_data&#45;&gt;sort -->
<g id="edge3" class="edge">
<title>l1_data&#45;&gt;sort</title>
<path fill="none" stroke="black" stroke-dasharray="5,2" d="M927.06,-359.87C927.06,-359.87 975.6,-359.87 975.6,-359.87"/>
<polygon fill="black" stroke="black" points="975.6,-363.37 985.6,-359.87 975.6,-356.37 975.6,-363.37"/>
</g>
<!-- l1_man&#45;&gt;sort -->
<g id="edge4" class="edge">
<title>l1_man&#45;&gt;sort</title>
<path fill="none" stroke="black" d="M945.2,-413.87C945.2,-413.87 975.61,-413.87 975.61,-413.87"/>
<polygon fill="black" stroke="black" points="975.61,-417.37 985.61,-413.87 975.61,-410.37 975.61,-417.37"/>
</g>
<!-- l1_cal_absflux_man -->
<g id="node7" class="node">
<title>l1_cal_absflux_man</title>
<ellipse fill="none" stroke="black" cx="284.26" cy="-476.87" rx="154.3" ry="26.74"/>
<text text-anchor="middle" x="284.26" y="-480.67" font-family="Times,serif" font-size="14.00">L1_cal_absflux manifest 1..1</text>
<text text-anchor="middle" x="284.26" y="-465.67" font-family="Times,serif" font-size="14.00">of 0..a files</text>
</g>
<!-- l1_cal_boresight_man -->
<g id="node8" class="node">
<title>l1_cal_boresight_man</title>
<ellipse fill="none" stroke="black" cx="284.26" cy="-548.87" rx="166.34" ry="26.74"/>
<text text-anchor="middle" x="284.26" y="-552.67" font-family="Times,serif" font-size="14.00">L1_cal_boresight manifest 1..1</text>
<text text-anchor="middle" x="284.26" y="-537.67" font-family="Times,serif" font-size="14.00">of 0..a files</text>
</g>
<!-- l1_cal_corethpt_man -->
<g id="node9" class="node">
<title>l1_cal_corethpt_man</title>
<ellipse fill="none" stroke="black" cx="284.26" cy="-620.87" rx="160.53" ry="26.74"/>
<text text-anchor="middle" x="284.26" y="-624.67" font-family="Times,serif" font-size="14.00">L1_cal_corethpt manifest 1..1</text>
<text text-anchor="middle" x="284.26" y="-609.67" font-family="Times,serif" font-size="14.00">of 0..a files</text>
</g>
<!-- l1_cal_ndfiltimg_man -->
<g id="node10" class="node">
<title>l1_cal_ndfiltimg_man</title>
<ellipse fill="none" stroke="black" cx="284.26" cy="-692.87" rx="163.18" ry="26.74"/>
<text text-anchor="middle" x="284.26" y="-696.67" font-family="Times,serif" font-size="14.00">L1_cal_ndfiltimg manifest 1..1</text>
<text text-anchor="middle" x="284.26" y="-681.67" font-family="Times,serif" font-size="14.00">of 0..a files</text>
</g>
<!-- l1_cal_ndfiltspec_man -->
<g id="node11" class="node">
<title>l1_cal_ndfiltspec_man</title>
<ellipse fill="none" stroke="black" cx="284.26" cy="-764.87" rx="166.75" ry="26.74"/>
<text text-anchor="middle" x="284.26" y="-768.67" font-family="Times,serif" font-size="14.00">L1_cal_ndfiltspec manifest 1..1</text>
<text text-anchor="middle" x="284.26" y="-753.67" font-family="Times,serif" font-size="14.00">of 0..a files</text>
</g>
<!-- l1_cal_pupil_man -->
<g id="node12" class="node">
<title>l1_cal_pupil_man</title>
<ellipse fill="none" stroke="black" cx="284.26" cy="-836.87" rx="284.01" ry="26.74"/>
<text text-anchor="middle" x="284.26" y="-840.67" font-family="Times,serif" font-size="14.00">L1_cal_pupil (nonlinear, k&#45;gain, em&#45;gain) manifest 1..1</text>
<text text-anchor="middle" x="284.26" y="-825.67" font-family="Times,serif" font-size="14.00">of 0..a files</text>
</g>
</g>
</svg>
