<?xml version="1.0" encoding="UTF-8" standalone="no"?>
<!DOCTYPE svg PUBLIC "-//W3C//DTD SVG 1.1//EN"
 "http://www.w3.org/Graphics/SVG/1.1/DTD/svg11.dtd">
<!-- Generated by graphviz version 2.43.0 (0)
 -->
<!-- Title: AbstractDesign Pages: 1 -->
<svg width="2623pt" height="373pt"
 viewBox="0.00 0.00 2623.41 372.53" xmlns="http://www.w3.org/2000/svg" xmlns:xlink="http://www.w3.org/1999/xlink">
<g id="graph0" class="graph" transform="scale(1 1) rotate(0) translate(4 368.53)">
<title>AbstractDesign</title>
<polygon fill="white" stroke="transparent" points="-4,4 -4,-368.53 2619.41,-368.53 2619.41,4 -4,4"/>
<!-- l1_l2a -->
<g id="node1" class="node">
<title>l1_l2a</title>
<ellipse fill="none" stroke="black" cx="295.15" cy="-86.27" rx="86.03" ry="86.03"/>
<text text-anchor="middle" x="295.15" y="-90.07" font-family="Times,serif" font-size="14.00">Transmutation</text>
<text text-anchor="middle" x="295.15" y="-75.07" font-family="Times,serif" font-size="14.00">l1 to L2a</text>
</g>
<!-- l2a_data -->
<g id="node10" class="node">
<title>l2a_data</title>
<polygon fill="none" stroke="black" points="751.1,-186.27 641.1,-186.27 641.1,-150.27 751.1,-150.27 751.1,-186.27"/>
<text text-anchor="middle" x="696.1" y="-164.57" font-family="Times,serif" font-size="14.00">L2a products</text>
</g>
<!-- l1_l2a&#45;&gt;l2a_data -->
<g id="edge4" class="edge">
<title>l1_l2a&#45;&gt;l2a_data</title>
<path fill="none" stroke="black" d="M337.68,-161.4C337.68,-161.4 630.96,-161.4 630.96,-161.4"/>
<polygon fill="black" stroke="black" points="630.96,-164.9 640.96,-161.4 630.96,-157.9 630.96,-164.9"/>
</g>
<!-- l2a_man -->
<g id="node12" class="node">
<title>l2a_man</title>
<ellipse fill="none" stroke="black" cx="509.06" cy="-86.27" rx="91.78" ry="18"/>
<text text-anchor="middle" x="509.06" y="-82.57" font-family="Times,serif" font-size="14.00">L2a manifest 1..1</text>
</g>
<!-- l1_l2a&#45;&gt;l2a_man -->
<g id="edge5" class="edge">
<title>l1_l2a&#45;&gt;l2a_man</title>
<path fill="none" stroke="black" d="M381.54,-86.27C381.54,-86.27 407.11,-86.27 407.11,-86.27"/>
<polygon fill="black" stroke="black" points="407.11,-89.77 417.11,-86.27 407.11,-82.77 407.11,-89.77"/>
</g>
<!-- l2a_log -->
<g id="node13" class="node">
<title>l2a_log</title>
<ellipse fill="none" stroke="black" cx="509.06" cy="-32.27" rx="65.79" ry="18"/>
<text text-anchor="middle" x="509.06" y="-28.57" font-family="Times,serif" font-size="14.00">L2a log 1..1</text>
</g>
<!-- l1_l2a&#45;&gt;l2a_log -->
<g id="edge6" class="edge">
<title>l1_l2a&#45;&gt;l2a_log</title>
<path fill="none" stroke="black" d="M362.54,-32.27C362.54,-32.27 433.11,-32.27 433.11,-32.27"/>
<polygon fill="black" stroke="black" points="433.11,-35.77 443.11,-32.27 433.11,-28.77 433.11,-35.77"/>
</g>
<!-- l2a_demux -->
<g id="node2" class="node">
<title>l2a_demux</title>
<ellipse fill="none" stroke="black" cx="696.1" cy="-73.27" rx="59.29" ry="59.29"/>
<text text-anchor="middle" x="696.1" y="-77.07" font-family="Times,serif" font-size="14.00">Demux</text>
<text text-anchor="middle" x="696.1" y="-62.07" font-family="Times,serif" font-size="14.00">Exposure</text>
</g>
<!-- l2a_man_demux -->
<g id="node14" class="node">
<title>l2a_man_demux</title>
<ellipse fill="none" stroke="black" cx="896.79" cy="-97.27" rx="105.08" ry="18"/>
<text text-anchor="middle" x="896.79" y="-93.57" font-family="Times,serif" font-size="14.00">L2a(E) manifest 1..1</text>
</g>
<!-- l2a_demux&#45;&gt;l2a_man_demux -->
<g id="edge10" class="edge">
<title>l2a_demux&#45;&gt;l2a_man_demux</title>
<path fill="none" stroke="black" d="M750.67,-97.27C750.67,-97.27 781.23,-97.27 781.23,-97.27"/>
<polygon fill="black" stroke="black" points="781.23,-100.77 791.23,-97.27 781.23,-93.77 781.23,-100.77"/>
</g>
<!-- l2a_l2b -->
<g id="node3" class="node">
<title>l2a_l2b</title>
<ellipse fill="none" stroke="black" cx="1124.34" cy="-155.27" rx="86.03" ry="86.03"/>
<text text-anchor="middle" x="1124.34" y="-159.07" font-family="Times,serif" font-size="14.00">Transmutation</text>
<text text-anchor="middle" x="1124.34" y="-144.07" font-family="Times,serif" font-size="14.00">L2a to L2b</text>
</g>
<!-- l2b_data -->
<g id="node15" class="node">
<title>l2b_data</title>
<polygon fill="none" stroke="black" points="1609.39,-255.27 1498.39,-255.27 1498.39,-219.27 1609.39,-219.27 1609.39,-255.27"/>
<text text-anchor="middle" x="1553.89" y="-233.57" font-family="Times,serif" font-size="14.00">L2b products</text>
</g>
<!-- l2a_l2b&#45;&gt;l2b_data -->
<g id="edge12" class="edge">
<title>l2a_l2b&#45;&gt;l2b_data</title>
<path fill="none" stroke="black" d="M1167.1,-230.4C1167.1,-230.4 1488.2,-230.4 1488.2,-230.4"/>
<polygon fill="black" stroke="black" points="1488.2,-233.9 1498.2,-230.4 1488.2,-226.9 1488.2,-233.9"/>
</g>
<!-- l2b_man_demux -->
<g id="node17" class="node">
<title>l2b_man_demux</title>
<ellipse fill="none" stroke="black" cx="1352.55" cy="-155.27" rx="105.88" ry="18"/>
<text text-anchor="middle" x="1352.55" y="-151.57" font-family="Times,serif" font-size="14.00">L2b(E) manifest 1..1</text>
</g>
<!-- l2a_l2b&#45;&gt;l2b_man_demux -->
<g id="edge13" class="edge">
<title>l2a_l2b&#45;&gt;l2b_man_demux</title>
<path fill="none" stroke="black" d="M1210.62,-155.27C1210.62,-155.27 1236.55,-155.27 1236.55,-155.27"/>
<polygon fill="black" stroke="black" points="1236.55,-158.77 1246.55,-155.27 1236.55,-151.77 1236.55,-158.77"/>
</g>
<!-- l2b_log -->
<g id="node18" class="node">
<title>l2b_log</title>
<ellipse fill="none" stroke="black" cx="1352.55" cy="-101.27" rx="65.79" ry="18"/>
<text text-anchor="middle" x="1352.55" y="-97.57" font-family="Times,serif" font-size="14.00">L2b log 1..1</text>
</g>
<!-- l2a_l2b&#45;&gt;l2b_log -->
<g id="edge14" class="edge">
<title>l2a_l2b&#45;&gt;l2b_log</title>
<path fill="none" stroke="black" d="M1191.89,-101.27C1191.89,-101.27 1276.75,-101.27 1276.75,-101.27"/>
<polygon fill="black" stroke="black" points="1276.75,-104.77 1286.75,-101.27 1276.75,-97.77 1276.75,-104.77"/>
</g>
<!-- l2b_mux -->
<g id="node4" class="node">
<title>l2b_mux</title>
<ellipse fill="none" stroke="black" cx="1553.89" cy="-142.27" rx="59.29" ry="59.29"/>
<text text-anchor="middle" x="1553.89" y="-146.07" font-family="Times,serif" font-size="14.00">Mux</text>
<text text-anchor="middle" x="1553.89" y="-131.07" font-family="Times,serif" font-size="14.00">Exposure</text>
</g>
<!-- l2b_man -->
<g id="node19" class="node">
<title>l2b_man</title>
<ellipse fill="none" stroke="black" cx="1741.58" cy="-166.27" rx="92.08" ry="18"/>
<text text-anchor="middle" x="1741.58" y="-162.57" font-family="Times,serif" font-size="14.00">L2b manifest 1..1</text>
</g>
<!-- l2b_mux&#45;&gt;l2b_man -->
<g id="edge16" class="edge">
<title>l2b_mux&#45;&gt;l2b_man</title>
<path fill="none" stroke="black" d="M1608.43,-166.27C1608.43,-166.27 1639.08,-166.27 1639.08,-166.27"/>
<polygon fill="black" stroke="black" points="1639.08,-169.77 1649.08,-166.27 1639.08,-162.77 1639.08,-169.77"/>
</g>
<!-- l2b_l3 -->
<g id="node5" class="node">
<title>l2b_l3</title>
<ellipse fill="none" stroke="black" cx="1956.14" cy="-224.27" rx="86.03" ry="86.03"/>
<text text-anchor="middle" x="1956.14" y="-228.07" font-family="Times,serif" font-size="14.00">Transmutation</text>
<text text-anchor="middle" x="1956.14" y="-213.07" font-family="Times,serif" font-size="14.00">L2b to L3</text>
</g>
<!-- l3_data -->
<g id="node20" class="node">
<title>l3_data</title>
<polygon fill="none" stroke="black" points="2215.85,-296.27 2113.85,-296.27 2113.85,-260.27 2215.85,-260.27 2215.85,-296.27"/>
<text text-anchor="middle" x="2164.85" y="-274.57" font-family="Times,serif" font-size="14.00">L3 products</text>
</g>
<!-- l2b_l3&#45;&gt;l3_data -->
<g id="edge20" class="edge">
<title>l2b_l3&#45;&gt;l3_data</title>
<path fill="none" stroke="black" d="M2023.61,-278.27C2023.61,-278.27 2103.82,-278.27 2103.82,-278.27"/>
<polygon fill="black" stroke="black" points="2103.82,-281.77 2113.82,-278.27 2103.82,-274.77 2103.82,-281.77"/>
</g>
<!-- l3_man -->
<g id="node22" class="node">
<title>l3_man</title>
<ellipse fill="none" stroke="black" cx="2164.85" cy="-224.27" rx="86.38" ry="18"/>
<text text-anchor="middle" x="2164.85" y="-220.57" font-family="Times,serif" font-size="14.00">L3 manifest 1..1</text>
</g>
<!-- l2b_l3&#45;&gt;l3_man -->
<g id="edge21" class="edge">
<title>l2b_l3&#45;&gt;l3_man</title>
<path fill="none" stroke="black" d="M2042.53,-224.27C2042.53,-224.27 2068.18,-224.27 2068.18,-224.27"/>
<polygon fill="black" stroke="black" points="2068.18,-227.77 2078.18,-224.27 2068.18,-220.77 2068.18,-227.77"/>
</g>
<!-- l3_log -->
<g id="node23" class="node">
<title>l3_log</title>
<ellipse fill="none" stroke="black" cx="2164.85" cy="-170.27" rx="59.59" ry="18"/>
<text text-anchor="middle" x="2164.85" y="-166.57" font-family="Times,serif" font-size="14.00">L3 log 1..1</text>
</g>
<!-- l2b_l3&#45;&gt;l3_log -->
<g id="edge22" class="edge">
<title>l2b_l3&#45;&gt;l3_log</title>
<path fill="none" stroke="black" d="M2023.61,-170.27C2023.61,-170.27 2095,-170.27 2095,-170.27"/>
<polygon fill="black" stroke="black" points="2095,-173.77 2105,-170.27 2095,-166.77 2095,-173.77"/>
</g>
<!-- l3_l4 -->
<g id="node6" class="node">
<title>l3_l4</title>
<ellipse fill="none" stroke="black" cx="2373.56" cy="-278.27" rx="86.03" ry="86.03"/>
<text text-anchor="middle" x="2373.56" y="-282.07" font-family="Times,serif" font-size="14.00">Transmutation</text>
<text text-anchor="middle" x="2373.56" y="-267.07" font-family="Times,serif" font-size="14.00">L3 to L4</text>
</g>
<!-- l4_data -->
<g id="node24" class="node">
<title>l4_data</title>
<polygon fill="none" stroke="black" points="2606.62,-323.27 2504.62,-323.27 2504.62,-287.27 2606.62,-287.27 2606.62,-323.27"/>
<text text-anchor="middle" x="2555.62" y="-301.57" font-family="Times,serif" font-size="14.00">L4 products</text>
</g>
<!-- l3_l4&#45;&gt;l4_data -->
<g id="edge26" class="edge">
<title>l3_l4&#45;&gt;l4_data</title>
<path fill="none" stroke="black" d="M2455.53,-305.27C2455.53,-305.27 2494.6,-305.27 2494.6,-305.27"/>
<polygon fill="black" stroke="black" points="2494.6,-308.77 2504.6,-305.27 2494.6,-301.77 2494.6,-308.77"/>
</g>
<!-- l4_log -->
<g id="node25" class="node">
<title>l4_log</title>
<ellipse fill="none" stroke="black" cx="2555.62" cy="-251.27" rx="59.59" ry="18"/>
<text text-anchor="middle" x="2555.62" y="-247.57" font-family="Times,serif" font-size="14.00">L4 log 1..1</text>
</g>
<!-- l3_l4&#45;&gt;l4_log -->
<g id="edge27" class="edge">
<title>l3_l4&#45;&gt;l4_log</title>
<path fill="none" stroke="black" d="M2455.53,-251.27C2455.53,-251.27 2485.62,-251.27 2485.62,-251.27"/>
<polygon fill="black" stroke="black" points="2485.62,-254.77 2495.62,-251.27 2485.62,-247.77 2485.62,-254.77"/>
</g>
<!-- l1_data -->
<g id="node7" class="node">
<title>l1_data</title>
<polygon fill="none" stroke="black" points="137.44,-158.27 35.44,-158.27 35.44,-122.27 137.44,-122.27 137.44,-158.27"/>
<text text-anchor="middle" x="86.44" y="-136.57" font-family="Times,serif" font-size="14.00">L1 products</text>
</g>
<!-- l1_data&#45;&gt;l1_l2a -->
<g id="edge2" class="edge">
<title>l1_data&#45;&gt;l1_l2a</title>
<path fill="none" stroke="black" d="M137.5,-140.27C137.5,-140.27 217.67,-140.27 217.67,-140.27"/>
<polygon fill="black" stroke="black" points="217.67,-143.77 227.67,-140.27 217.67,-136.77 217.67,-143.77"/>
</g>
<!-- l1_cal -->
<g id="node8" class="node">
<title>l1_cal</title>
<polygon fill="none" stroke="black" points="132.44,-98.27 28.44,-98.27 28.44,-74.27 132.44,-74.27 144.44,-86.27 132.44,-98.27"/>
<text text-anchor="middle" x="86.44" y="-82.57" font-family="Times,serif" font-size="14.00">L1 calibration</text>
</g>
<!-- l1_cal&#45;&gt;l1_l2a -->
<g id="edge1" class="edge">
<title>l1_cal&#45;&gt;l1_l2a</title>
<path fill="none" stroke="black" d="M144.58,-86.27C144.58,-86.27 198.84,-86.27 198.84,-86.27"/>
<polygon fill="black" stroke="black" points="198.84,-89.77 208.84,-86.27 198.84,-82.77 198.84,-89.77"/>
</g>
<!-- l1_man -->
<g id="node9" class="node">
<title>l1_man</title>
<ellipse fill="none" stroke="black" cx="86.44" cy="-32.27" rx="86.38" ry="18"/>
<text text-anchor="middle" x="86.44" y="-28.57" font-family="Times,serif" font-size="14.00">L1 manifest 1..1</text>
</g>
<!-- l1_man&#45;&gt;l1_l2a -->
<g id="edge3" class="edge">
<title>l1_man&#45;&gt;l1_l2a</title>
<path fill="none" stroke="black" d="M173.14,-32.27C173.14,-32.27 217.81,-32.27 217.81,-32.27"/>
<polygon fill="black" stroke="black" points="217.81,-35.77 227.81,-32.27 217.81,-28.77 217.81,-35.77"/>
</g>
<!-- l2a_data&#45;&gt;l2a_l2b -->
<g id="edge8" class="edge">
<title>l2a_data&#45;&gt;l2a_l2b</title>
<path fill="none" stroke="black" d="M751.21,-166.77C751.21,-166.77 1028.78,-166.77 1028.78,-166.77"/>
<polygon fill="black" stroke="black" points="1028.78,-170.27 1038.78,-166.77 1028.78,-163.27 1028.78,-170.27"/>
</g>
<!-- l2a_cal -->
<g id="node11" class="node">
<title>l2a_cal</title>
<polygon fill="none" stroke="black" points="946.79,-213.27 834.79,-213.27 834.79,-189.27 946.79,-189.27 958.79,-201.27 946.79,-213.27"/>
<text text-anchor="middle" x="896.79" y="-197.57" font-family="Times,serif" font-size="14.00">L2a calibration</text>
</g>
<!-- l2a_cal&#45;&gt;l2a_l2b -->
<g id="edge7" class="edge">
<title>l2a_cal&#45;&gt;l2a_l2b</title>
<path fill="none" stroke="black" d="M958.97,-201.27C958.97,-201.27 1041.35,-201.27 1041.35,-201.27"/>
<polygon fill="black" stroke="black" points="1041.35,-204.77 1051.35,-201.27 1041.35,-197.77 1041.35,-204.77"/>
</g>
<!-- l2a_man&#45;&gt;l2a_demux -->
<g id="edge9" class="edge">
<title>l2a_man&#45;&gt;l2a_demux</title>
<path fill="none" stroke="black" d="M600.94,-86.27C600.94,-86.27 628.1,-86.27 628.1,-86.27"/>
<polygon fill="black" stroke="black" points="628.1,-89.77 638.1,-86.27 628.1,-82.77 628.1,-89.77"/>
</g>
<!-- l2a_man_demux&#45;&gt;l2a_l2b -->
<g id="edge11" class="edge">
<title>l2a_man_demux&#45;&gt;l2a_l2b</title>
<path fill="none" stroke="black" d="M1002.24,-97.27C1002.24,-97.27 1050.46,-97.27 1050.46,-97.27"/>
<polygon fill="black" stroke="black" points="1050.46,-100.77 1060.46,-97.27 1050.46,-93.77 1050.46,-100.77"/>
</g>
<!-- l2b_data&#45;&gt;l2b_l3 -->
<g id="edge18" class="edge">
<title>l2b_data&#45;&gt;l2b_l3</title>
<path fill="none" stroke="black" d="M1609.4,-235.77C1609.4,-235.77 1860.29,-235.77 1860.29,-235.77"/>
<polygon fill="black" stroke="black" points="1860.29,-239.27 1870.29,-235.77 1860.29,-232.27 1860.29,-239.27"/>
</g>
<!-- l2b_cal -->
<g id="node16" class="node">
<title>l2b_cal</title>
<polygon fill="none" stroke="black" points="1792.08,-282.27 1679.08,-282.27 1679.08,-258.27 1792.08,-258.27 1804.08,-270.27 1792.08,-282.27"/>
<text text-anchor="middle" x="1741.58" y="-266.57" font-family="Times,serif" font-size="14.00">L2b calibration</text>
</g>
<!-- l2b_cal&#45;&gt;l2b_l3 -->
<g id="edge17" class="edge">
<title>l2b_cal&#45;&gt;l2b_l3</title>
<path fill="none" stroke="black" d="M1804.21,-270.27C1804.21,-270.27 1872.82,-270.27 1872.82,-270.27"/>
<polygon fill="black" stroke="black" points="1872.82,-273.77 1882.82,-270.27 1872.82,-266.77 1872.82,-273.77"/>
</g>
<!-- l2b_man_demux&#45;&gt;l2b_mux -->
<g id="edge15" class="edge">
<title>l2b_man_demux&#45;&gt;l2b_mux</title>
<path fill="none" stroke="black" d="M1458.53,-155.27C1458.53,-155.27 1485.72,-155.27 1485.72,-155.27"/>
<polygon fill="black" stroke="black" points="1485.72,-158.77 1495.72,-155.27 1485.72,-151.77 1485.72,-158.77"/>
</g>
<!-- l2b_man&#45;&gt;l2b_l3 -->
<g id="edge19" class="edge">
<title>l2b_man&#45;&gt;l2b_l3</title>
<path fill="none" stroke="black" d="M1834.13,-166.27C1834.13,-166.27 1881.99,-166.27 1881.99,-166.27"/>
<polygon fill="black" stroke="black" points="1881.99,-169.77 1891.99,-166.27 1881.99,-162.77 1881.99,-169.77"/>
</g>
<!-- l3_data&#45;&gt;l3_l4 -->
<g id="edge24" class="edge">
<title>l3_data&#45;&gt;l3_l4</title>
<path fill="none" stroke="black" d="M2215.9,-278.27C2215.9,-278.27 2277.24,-278.27 2277.24,-278.27"/>
<polygon fill="black" stroke="black" points="2277.24,-281.77 2287.24,-278.27 2277.24,-274.77 2277.24,-281.77"/>
</g>
<!-- l3_cal -->
<g id="node21" class="node">
<title>l3_cal</title>
<polygon fill="none" stroke="black" points="2210.85,-344.27 2106.85,-344.27 2106.85,-320.27 2210.85,-320.27 2222.85,-332.27 2210.85,-344.27"/>
<text text-anchor="middle" x="2164.85" y="-328.57" font-family="Times,serif" font-size="14.00">L3 calibration</text>
</g>
<!-- l3_cal&#45;&gt;l3_l4 -->
<g id="edge23" class="edge">
<title>l3_cal&#45;&gt;l3_l4</title>
<path fill="none" stroke="black" d="M2222.98,-332.27C2222.98,-332.27 2296.14,-332.27 2296.14,-332.27"/>
<polygon fill="black" stroke="black" points="2296.14,-335.77 2306.14,-332.27 2296.14,-328.77 2296.14,-335.77"/>
</g>
<!-- l3_man&#45;&gt;l3_l4 -->
<g id="edge25" class="edge">
<title>l3_man&#45;&gt;l3_l4</title>
<path fill="none" stroke="black" d="M2251.55,-224.27C2251.55,-224.27 2296.22,-224.27 2296.22,-224.27"/>
<polygon fill="black" stroke="black" points="2296.22,-227.77 2306.22,-224.27 2296.22,-220.77 2296.22,-227.77"/>
</g>
</g>
</svg>
