<?xml version="1.0" encoding="UTF-8" standalone="no"?>
<!DOCTYPE svg PUBLIC "-//W3C//DTD SVG 1.1//EN"
 "http://www.w3.org/Graphics/SVG/1.1/DTD/svg11.dtd">
<!-- Generated by graphviz version 2.43.0 (0)
 -->
<!-- Title: AbstractDesign Pages: 1 -->
<svg width="2189pt" height="334pt"
 viewBox="0.00 0.00 2189.30 334.00" xmlns="http://www.w3.org/2000/svg" xmlns:xlink="http://www.w3.org/1999/xlink">
<g id="graph0" class="graph" transform="scale(1 1) rotate(0) translate(4 330)">
<title>AbstractDesign</title>
<polygon fill="white" stroke="transparent" points="-4,4 -4,-330 2185.3,-330 2185.3,4 -4,4"/>
<!-- l1_l2a -->
<g id="node1" class="node">
<title>l1_l2a</title>
<ellipse fill="none" stroke="black" cx="242.97" cy="-72" rx="67.76" ry="67.76"/>
<text text-anchor="middle" x="242.97" y="-75.8" font-family="Times,serif" font-size="14.00">Transmutation</text>
<text text-anchor="middle" x="242.97" y="-60.8" font-family="Times,serif" font-size="14.00">l1 to L2a</text>
</g>
<!-- l2a_data -->
<g id="node10" class="node">
<title>l2a_data</title>
<polygon fill="none" stroke="black" points="621.82,-164 533.82,-164 533.82,-128 621.82,-128 621.82,-164"/>
<text text-anchor="middle" x="577.82" y="-142.3" font-family="Times,serif" font-size="14.00">L2a products</text>
</g>
<!-- l1_l2a&#45;&gt;l2a_data -->
<g id="edge4" class="edge">
<title>l1_l2a&#45;&gt;l2a_data</title>
<path fill="none" stroke="black" d="M270.94,-133.94C270.94,-133.94 523.8,-133.94 523.8,-133.94"/>
<polygon fill="black" stroke="black" points="523.8,-137.44 533.8,-133.94 523.8,-130.44 523.8,-137.44"/>
</g>
<!-- l2a_man -->
<g id="node12" class="node">
<title>l2a_man</title>
<ellipse fill="none" stroke="black" cx="420.3" cy="-72" rx="73.39" ry="18"/>
<text text-anchor="middle" x="420.3" y="-68.3" font-family="Times,serif" font-size="14.00">L2a manifest 1..1</text>
</g>
<!-- l1_l2a&#45;&gt;l2a_man -->
<g id="edge5" class="edge">
<title>l1_l2a&#45;&gt;l2a_man</title>
<path fill="none" stroke="black" d="M311.02,-72C311.02,-72 336.83,-72 336.83,-72"/>
<polygon fill="black" stroke="black" points="336.83,-75.5 346.83,-72 336.83,-68.5 336.83,-75.5"/>
</g>
<!-- l2a_log -->
<g id="node13" class="node">
<title>l2a_log</title>
<ellipse fill="none" stroke="black" cx="420.3" cy="-18" rx="53.89" ry="18"/>
<text text-anchor="middle" x="420.3" y="-14.3" font-family="Times,serif" font-size="14.00">L2a log 1..1</text>
</g>
<!-- l1_l2a&#45;&gt;l2a_log -->
<g id="edge6" class="edge">
<title>l1_l2a&#45;&gt;l2a_log</title>
<path fill="none" stroke="black" d="M286.8,-20.06C286.8,-20.06 356.52,-20.06 356.52,-20.06"/>
<polygon fill="black" stroke="black" points="356.52,-23.56 366.52,-20.06 356.52,-16.56 356.52,-23.56"/>
</g>
<!-- l2a_demux -->
<g id="node2" class="node">
<title>l2a_demux</title>
<ellipse fill="none" stroke="black" cx="577.82" cy="-62" rx="48.17" ry="48.17"/>
<text text-anchor="middle" x="577.82" y="-65.8" font-family="Times,serif" font-size="14.00">Demux</text>
<text text-anchor="middle" x="577.82" y="-50.8" font-family="Times,serif" font-size="14.00">Exposure</text>
</g>
<!-- l2a_man_demux -->
<g id="node14" class="node">
<title>l2a_man_demux</title>
<ellipse fill="none" stroke="black" cx="747.05" cy="-81" rx="85.29" ry="18"/>
<text text-anchor="middle" x="747.05" y="-77.3" font-family="Times,serif" font-size="14.00">L2a(E) manifest 1..1</text>
</g>
<!-- l2a_demux&#45;&gt;l2a_man_demux -->
<g id="edge10" class="edge">
<title>l2a_demux&#45;&gt;l2a_man_demux</title>
<path fill="none" stroke="black" d="M622.28,-81C622.28,-81 651.61,-81 651.61,-81"/>
<polygon fill="black" stroke="black" points="651.61,-84.5 661.61,-81 651.61,-77.5 651.61,-84.5"/>
</g>
<!-- l2a_l2b -->
<g id="node3" class="node">
<title>l2a_l2b</title>
<ellipse fill="none" stroke="black" cx="936.07" cy="-136" rx="67.76" ry="67.76"/>
<text text-anchor="middle" x="936.07" y="-139.8" font-family="Times,serif" font-size="14.00">Transmutation</text>
<text text-anchor="middle" x="936.07" y="-124.8" font-family="Times,serif" font-size="14.00">L2a to L2b</text>
</g>
<!-- l2b_data -->
<g id="node15" class="node">
<title>l2b_data</title>
<polygon fill="none" stroke="black" points="1338.82,-228 1249.82,-228 1249.82,-192 1338.82,-192 1338.82,-228"/>
<text text-anchor="middle" x="1294.32" y="-206.3" font-family="Times,serif" font-size="14.00">L2b products</text>
</g>
<!-- l2a_l2b&#45;&gt;l2b_data -->
<g id="edge12" class="edge">
<title>l2a_l2b&#45;&gt;l2b_data</title>
<path fill="none" stroke="black" d="M963.89,-197.94C963.89,-197.94 1239.55,-197.94 1239.55,-197.94"/>
<polygon fill="black" stroke="black" points="1239.55,-201.44 1249.55,-197.94 1239.55,-194.44 1239.55,-201.44"/>
</g>
<!-- l2b_man_demux -->
<g id="node17" class="node">
<title>l2b_man_demux</title>
<ellipse fill="none" stroke="black" cx="1125.1" cy="-136" rx="85.29" ry="18"/>
<text text-anchor="middle" x="1125.1" y="-132.3" font-family="Times,serif" font-size="14.00">L2b(E) manifest 1..1</text>
</g>
<!-- l2a_l2b&#45;&gt;l2b_man_demux -->
<g id="edge13" class="edge">
<title>l2a_l2b&#45;&gt;l2b_man_demux</title>
<path fill="none" stroke="black" d="M1004.05,-136C1004.05,-136 1029.94,-136 1029.94,-136"/>
<polygon fill="black" stroke="black" points="1029.94,-139.5 1039.94,-136 1029.94,-132.5 1029.94,-139.5"/>
</g>
<!-- l2b_log -->
<g id="node18" class="node">
<title>l2b_log</title>
<ellipse fill="none" stroke="black" cx="1125.1" cy="-82" rx="54.69" ry="18"/>
<text text-anchor="middle" x="1125.1" y="-78.3" font-family="Times,serif" font-size="14.00">L2b log 1..1</text>
</g>
<!-- l2a_l2b&#45;&gt;l2b_log -->
<g id="edge14" class="edge">
<title>l2a_l2b&#45;&gt;l2b_log</title>
<path fill="none" stroke="black" d="M979.91,-84.06C979.91,-84.06 1060.68,-84.06 1060.68,-84.06"/>
<polygon fill="black" stroke="black" points="1060.68,-87.56 1070.68,-84.06 1060.68,-80.56 1060.68,-87.56"/>
</g>
<!-- l2b_mux -->
<g id="node4" class="node">
<title>l2b_mux</title>
<ellipse fill="none" stroke="black" cx="1294.32" cy="-126" rx="48.17" ry="48.17"/>
<text text-anchor="middle" x="1294.32" y="-129.8" font-family="Times,serif" font-size="14.00">Mux</text>
<text text-anchor="middle" x="1294.32" y="-114.8" font-family="Times,serif" font-size="14.00">Exposure</text>
</g>
<!-- l2b_man -->
<g id="node19" class="node">
<title>l2b_man</title>
<ellipse fill="none" stroke="black" cx="1452.5" cy="-145" rx="74.19" ry="18"/>
<text text-anchor="middle" x="1452.5" y="-141.3" font-family="Times,serif" font-size="14.00">L2b manifest 1..1</text>
</g>
<!-- l2b_mux&#45;&gt;l2b_man -->
<g id="edge16" class="edge">
<title>l2b_mux&#45;&gt;l2b_man</title>
<path fill="none" stroke="black" d="M1338.81,-145C1338.81,-145 1368.11,-145 1368.11,-145"/>
<polygon fill="black" stroke="black" points="1368.11,-148.5 1378.11,-145 1368.11,-141.5 1368.11,-148.5"/>
</g>
<!-- l2b_l3 -->
<g id="node5" class="node">
<title>l2b_l3</title>
<ellipse fill="none" stroke="black" cx="1630.48" cy="-200" rx="67.76" ry="67.76"/>
<text text-anchor="middle" x="1630.48" y="-203.8" font-family="Times,serif" font-size="14.00">Transmutation</text>
<text text-anchor="middle" x="1630.48" y="-188.8" font-family="Times,serif" font-size="14.00">L2b to L3</text>
</g>
<!-- l3_data -->
<g id="node20" class="node">
<title>l3_data</title>
<polygon fill="none" stroke="black" points="1844.9,-272 1762.9,-272 1762.9,-236 1844.9,-236 1844.9,-272"/>
<text text-anchor="middle" x="1803.9" y="-250.3" font-family="Times,serif" font-size="14.00">L3 products</text>
</g>
<!-- l2b_l3&#45;&gt;l3_data -->
<g id="edge20" class="edge">
<title>l2b_l3&#45;&gt;l3_data</title>
<path fill="none" stroke="black" d="M1674.24,-251.94C1674.24,-251.94 1752.84,-251.94 1752.84,-251.94"/>
<polygon fill="black" stroke="black" points="1752.84,-255.44 1762.84,-251.94 1752.84,-248.44 1752.84,-255.44"/>
</g>
<!-- l3_man -->
<g id="node22" class="node">
<title>l3_man</title>
<ellipse fill="none" stroke="black" cx="1803.9" cy="-200" rx="69.59" ry="18"/>
<text text-anchor="middle" x="1803.9" y="-196.3" font-family="Times,serif" font-size="14.00">L3 manifest 1..1</text>
</g>
<!-- l2b_l3&#45;&gt;l3_man -->
<g id="edge21" class="edge">
<title>l2b_l3&#45;&gt;l3_man</title>
<path fill="none" stroke="black" d="M1698.52,-200C1698.52,-200 1724.34,-200 1724.34,-200"/>
<polygon fill="black" stroke="black" points="1724.34,-203.5 1734.34,-200 1724.34,-196.5 1724.34,-203.5"/>
</g>
<!-- l3_log -->
<g id="node23" class="node">
<title>l3_log</title>
<ellipse fill="none" stroke="black" cx="1803.9" cy="-146" rx="50.09" ry="18"/>
<text text-anchor="middle" x="1803.9" y="-142.3" font-family="Times,serif" font-size="14.00">L3 log 1..1</text>
</g>
<!-- l2b_l3&#45;&gt;l3_log -->
<g id="edge22" class="edge">
<title>l2b_l3&#45;&gt;l3_log</title>
<path fill="none" stroke="black" d="M1674.24,-148.06C1674.24,-148.06 1744.02,-148.06 1744.02,-148.06"/>
<polygon fill="black" stroke="black" points="1744.02,-151.56 1754.02,-148.06 1744.02,-144.56 1744.02,-151.56"/>
</g>
<!-- l3_l4 -->
<g id="node6" class="node">
<title>l3_l4</title>
<ellipse fill="none" stroke="black" cx="1977.33" cy="-254" rx="67.76" ry="67.76"/>
<text text-anchor="middle" x="1977.33" y="-257.8" font-family="Times,serif" font-size="14.00">Transmutation</text>
<text text-anchor="middle" x="1977.33" y="-242.8" font-family="Times,serif" font-size="14.00">L3 to L4</text>
</g>
<!-- l4_data -->
<g id="node24" class="node">
<title>l4_data</title>
<polygon fill="none" stroke="black" points="2172.26,-299 2090.26,-299 2090.26,-263 2172.26,-263 2172.26,-299"/>
<text text-anchor="middle" x="2131.26" y="-277.3" font-family="Times,serif" font-size="14.00">L4 products</text>
</g>
<!-- l3_l4&#45;&gt;l4_data -->
<g id="edge26" class="edge">
<title>l3_l4&#45;&gt;l4_data</title>
<path fill="none" stroke="black" d="M2039.94,-281C2039.94,-281 2079.85,-281 2079.85,-281"/>
<polygon fill="black" stroke="black" points="2079.85,-284.5 2089.85,-281 2079.85,-277.5 2079.85,-284.5"/>
</g>
<!-- l4_log -->
<g id="node25" class="node">
<title>l4_log</title>
<ellipse fill="none" stroke="black" cx="2131.26" cy="-227" rx="50.09" ry="18"/>
<text text-anchor="middle" x="2131.26" y="-223.3" font-family="Times,serif" font-size="14.00">L4 log 1..1</text>
</g>
<!-- l3_l4&#45;&gt;l4_log -->
<g id="edge27" class="edge">
<title>l3_l4&#45;&gt;l4_log</title>
<path fill="none" stroke="black" d="M2039.94,-227C2039.94,-227 2070.96,-227 2070.96,-227"/>
<polygon fill="black" stroke="black" points="2070.96,-230.5 2080.96,-227 2070.96,-223.5 2070.96,-230.5"/>
</g>
<!-- l1_data -->
<g id="node7" class="node">
<title>l1_data</title>
<polygon fill="none" stroke="black" points="110.54,-144 28.54,-144 28.54,-108 110.54,-108 110.54,-144"/>
<text text-anchor="middle" x="69.54" y="-122.3" font-family="Times,serif" font-size="14.00">L1 products</text>
</g>
<!-- l1_data&#45;&gt;l1_l2a -->
<g id="edge2" class="edge">
<title>l1_data&#45;&gt;l1_l2a</title>
<path fill="none" stroke="black" d="M110.64,-123.94C110.64,-123.94 189.13,-123.94 189.13,-123.94"/>
<polygon fill="black" stroke="black" points="189.13,-127.44 199.13,-123.94 189.13,-120.44 189.13,-127.44"/>
</g>
<!-- l1_cal -->
<g id="node8" class="node">
<title>l1_cal</title>
<polygon fill="none" stroke="black" points="104.04,-84 23.04,-84 23.04,-60 104.04,-60 116.04,-72 104.04,-84"/>
<text text-anchor="middle" x="69.54" y="-68.3" font-family="Times,serif" font-size="14.00">L1 calibration</text>
</g>
<!-- l1_cal&#45;&gt;l1_l2a -->
<g id="edge1" class="edge">
<title>l1_cal&#45;&gt;l1_l2a</title>
<path fill="none" stroke="black" d="M116.48,-72C116.48,-72 164.83,-72 164.83,-72"/>
<polygon fill="black" stroke="black" points="164.83,-75.5 174.83,-72 164.83,-68.5 164.83,-75.5"/>
</g>
<!-- l1_man -->
<g id="node9" class="node">
<title>l1_man</title>
<ellipse fill="none" stroke="black" cx="69.54" cy="-18" rx="69.59" ry="18"/>
<text text-anchor="middle" x="69.54" y="-14.3" font-family="Times,serif" font-size="14.00">L1 manifest 1..1</text>
</g>
<!-- l1_man&#45;&gt;l1_l2a -->
<g id="edge3" class="edge">
<title>l1_man&#45;&gt;l1_l2a</title>
<path fill="none" stroke="black" d="M139.08,-20.06C139.08,-20.06 189.11,-20.06 189.11,-20.06"/>
<polygon fill="black" stroke="black" points="189.11,-23.56 199.11,-20.06 189.11,-16.56 189.11,-23.56"/>
</g>
<!-- l2a_data&#45;&gt;l2a_l2b -->
<g id="edge8" class="edge">
<title>l2a_data&#45;&gt;l2a_l2b</title>
<path fill="none" stroke="black" d="M622.11,-146C622.11,-146 858.68,-146 858.68,-146"/>
<polygon fill="black" stroke="black" points="858.68,-149.5 868.68,-146 858.68,-142.5 858.68,-149.5"/>
</g>
<!-- l2a_cal -->
<g id="node11" class="node">
<title>l2a_cal</title>
<polygon fill="none" stroke="black" points="784.55,-194 697.55,-194 697.55,-170 784.55,-170 796.55,-182 784.55,-194"/>
<text text-anchor="middle" x="747.05" y="-178.3" font-family="Times,serif" font-size="14.00">L2a calibration</text>
</g>
<!-- l2a_cal&#45;&gt;l2a_l2b -->
<g id="edge7" class="edge">
<title>l2a_cal&#45;&gt;l2a_l2b</title>
<path fill="none" stroke="black" d="M796.71,-182C796.71,-182 876.08,-182 876.08,-182"/>
<polygon fill="black" stroke="black" points="876.08,-185.5 886.08,-182 876.08,-178.5 876.08,-185.5"/>
</g>
<!-- l2a_man&#45;&gt;l2a_demux -->
<g id="edge9" class="edge">
<title>l2a_man&#45;&gt;l2a_demux</title>
<path fill="none" stroke="black" d="M493.99,-72C493.99,-72 520.71,-72 520.71,-72"/>
<polygon fill="black" stroke="black" points="520.71,-75.5 530.71,-72 520.71,-68.5 520.71,-75.5"/>
</g>
<!-- l2a_man_demux&#45;&gt;l2a_l2b -->
<g id="edge11" class="edge">
<title>l2a_man_demux&#45;&gt;l2a_l2b</title>
<path fill="none" stroke="black" d="M831.33,-83.56C831.33,-83.56 882.85,-83.56 882.85,-83.56"/>
<polygon fill="black" stroke="black" points="882.85,-87.06 892.85,-83.56 882.85,-80.06 882.85,-87.06"/>
</g>
<!-- l2b_data&#45;&gt;l2b_l3 -->
<g id="edge18" class="edge">
<title>l2b_data&#45;&gt;l2b_l3</title>
<path fill="none" stroke="black" d="M1338.96,-210C1338.96,-210 1553.28,-210 1553.28,-210"/>
<polygon fill="black" stroke="black" points="1553.28,-213.5 1563.28,-210 1553.28,-206.5 1553.28,-213.5"/>
</g>
<!-- l2b_cal -->
<g id="node16" class="node">
<title>l2b_cal</title>
<polygon fill="none" stroke="black" points="1490.5,-258 1402.5,-258 1402.5,-234 1490.5,-234 1502.5,-246 1490.5,-258"/>
<text text-anchor="middle" x="1452.5" y="-242.3" font-family="Times,serif" font-size="14.00">L2b calibration</text>
</g>
<!-- l2b_cal&#45;&gt;l2b_l3 -->
<g id="edge17" class="edge">
<title>l2b_cal&#45;&gt;l2b_l3</title>
<path fill="none" stroke="black" d="M1502.55,-246C1502.55,-246 1570.49,-246 1570.49,-246"/>
<polygon fill="black" stroke="black" points="1570.49,-249.5 1580.49,-246 1570.49,-242.5 1570.49,-249.5"/>
</g>
<!-- l2b_man_demux&#45;&gt;l2b_mux -->
<g id="edge15" class="edge">
<title>l2b_man_demux&#45;&gt;l2b_mux</title>
<path fill="none" stroke="black" d="M1210.7,-136C1210.7,-136 1236.92,-136 1236.92,-136"/>
<polygon fill="black" stroke="black" points="1236.92,-139.5 1246.92,-136 1236.92,-132.5 1236.92,-139.5"/>
</g>
<!-- l2b_man&#45;&gt;l2b_l3 -->
<g id="edge19" class="edge">
<title>l2b_man&#45;&gt;l2b_l3</title>
<path fill="none" stroke="black" d="M1525.92,-147.56C1525.92,-147.56 1577.29,-147.56 1577.29,-147.56"/>
<polygon fill="black" stroke="black" points="1577.29,-151.06 1587.29,-147.56 1577.29,-144.06 1577.29,-151.06"/>
</g>
<!-- l3_data&#45;&gt;l3_l4 -->
<g id="edge24" class="edge">
<title>l3_data&#45;&gt;l3_l4</title>
<path fill="none" stroke="black" d="M1845,-254C1845,-254 1899.41,-254 1899.41,-254"/>
<polygon fill="black" stroke="black" points="1899.41,-257.5 1909.41,-254 1899.41,-250.5 1899.41,-257.5"/>
</g>
<!-- l3_cal -->
<g id="node21" class="node">
<title>l3_cal</title>
<polygon fill="none" stroke="black" points="1838.4,-320 1757.4,-320 1757.4,-296 1838.4,-296 1850.4,-308 1838.4,-320"/>
<text text-anchor="middle" x="1803.9" y="-304.3" font-family="Times,serif" font-size="14.00">L3 calibration</text>
</g>
<!-- l3_cal&#45;&gt;l3_l4 -->
<g id="edge23" class="edge">
<title>l3_cal&#45;&gt;l3_l4</title>
<path fill="none" stroke="black" d="M1850.83,-305.94C1850.83,-305.94 1923.34,-305.94 1923.34,-305.94"/>
<polygon fill="black" stroke="black" points="1923.34,-309.44 1933.34,-305.94 1923.34,-302.44 1923.34,-309.44"/>
</g>
<!-- l3_man&#45;&gt;l3_l4 -->
<g id="edge25" class="edge">
<title>l3_man&#45;&gt;l3_l4</title>
<path fill="none" stroke="black" d="M1873.44,-202.06C1873.44,-202.06 1923.47,-202.06 1923.47,-202.06"/>
<polygon fill="black" stroke="black" points="1923.47,-205.56 1933.47,-202.06 1923.47,-198.56 1923.47,-205.56"/>
</g>
</g>
</svg>
