<?xml version="1.0" encoding="UTF-8" standalone="no"?>
<!DOCTYPE svg PUBLIC "-//W3C//DTD SVG 1.1//EN"
 "http://www.w3.org/Graphics/SVG/1.1/DTD/svg11.dtd">
<!-- Generated by graphviz version 2.43.0 (0)
 -->
<!-- Title: AbstractDesign Pages: 1 -->
<svg width="3697pt" height="1001pt"
 viewBox="0.00 0.00 3697.25 1001.00" xmlns="http://www.w3.org/2000/svg" xmlns:xlink="http://www.w3.org/1999/xlink">
<g id="graph0" class="graph" transform="scale(1 1) rotate(0) translate(4 997)">
<title>AbstractDesign</title>
<polygon fill="white" stroke="transparent" points="-4,4 -4,-997 3693.25,-997 3693.25,4 -4,4"/>
<!-- trans_nfov_pc_l1_l2a -->
<g id="node1" class="node">
<title>trans_nfov_pc_l1_l2a</title>
<ellipse fill="none" stroke="black" cx="362" cy="-126" rx="101.23" ry="101.23"/>
<text text-anchor="middle" x="362" y="-129.8" font-family="Times,serif" font-size="14.00">nfov_pc Transmutation</text>
<text text-anchor="middle" x="362" y="-114.8" font-family="Times,serif" font-size="14.00">L1 to L2a</text>
</g>
<!-- l2a_nfov_pc_prod -->
<g id="node13" class="node">
<title>l2a_nfov_pc_prod</title>
<polygon fill="none" stroke="black" points="918.68,-248 754.68,-248 754.68,-212 918.68,-212 918.68,-248"/>
<text text-anchor="middle" x="836.68" y="-226.3" font-family="Times,serif" font-size="14.00">L2a_nfov_pc products 1..b</text>
</g>
<!-- trans_nfov_pc_l1_l2a&#45;&gt;l2a_nfov_pc_prod -->
<g id="edge6" class="edge">
<title>trans_nfov_pc_l1_l2a&#45;&gt;l2a_nfov_pc_prod</title>
<path fill="none" stroke="black" d="M400.44,-219.56C400.44,-219.56 744.28,-219.56 744.28,-219.56"/>
<polygon fill="black" stroke="black" points="744.28,-223.06 754.28,-219.56 744.27,-216.06 744.28,-223.06"/>
</g>
<!-- l2a_nfov_pc_man -->
<g id="node14" class="node">
<title>l2a_nfov_pc_man</title>
<ellipse fill="none" stroke="black" cx="605.7" cy="-126" rx="106.68" ry="18"/>
<text text-anchor="middle" x="605.7" y="-122.3" font-family="Times,serif" font-size="14.00">L2a_nfov_pc manifest 1..1</text>
</g>
<!-- trans_nfov_pc_l1_l2a&#45;&gt;l2a_nfov_pc_man -->
<g id="edge7" class="edge">
<title>trans_nfov_pc_l1_l2a&#45;&gt;l2a_nfov_pc_man</title>
<path fill="none" stroke="black" d="M463.23,-126C463.23,-126 488.88,-126 488.88,-126"/>
<polygon fill="black" stroke="black" points="488.88,-129.5 498.88,-126 488.88,-122.5 488.88,-129.5"/>
</g>
<!-- l2a_nfov_pc_log -->
<g id="node22" class="node">
<title>l2a_nfov_pc_log</title>
<ellipse fill="none" stroke="black" cx="605.7" cy="-72" rx="87.18" ry="18"/>
<text text-anchor="middle" x="605.7" y="-68.3" font-family="Times,serif" font-size="14.00">L2a log_nfov_pc 1..1</text>
</g>
<!-- trans_nfov_pc_l1_l2a&#45;&gt;l2a_nfov_pc_log -->
<g id="edge8" class="edge">
<title>trans_nfov_pc_l1_l2a&#45;&gt;l2a_nfov_pc_log</title>
<path fill="none" stroke="black" d="M447.58,-72C447.58,-72 508.27,-72 508.27,-72"/>
<polygon fill="black" stroke="black" points="508.27,-75.5 518.27,-72 508.27,-68.5 508.27,-75.5"/>
</g>
<!-- l2a_nfov_pc_demux -->
<g id="node2" class="node">
<title>l2a_nfov_pc_demux</title>
<ellipse fill="none" stroke="black" cx="836.68" cy="-106" rx="88.28" ry="88.28"/>
<text text-anchor="middle" x="836.68" y="-109.8" font-family="Times,serif" font-size="14.00">nfov_pc l2a Demux</text>
<text text-anchor="middle" x="836.68" y="-94.8" font-family="Times,serif" font-size="14.00">Exposure</text>
</g>
<!-- l2a_nfov_pc_man_demux -->
<g id="node23" class="node">
<title>l2a_nfov_pc_man_demux</title>
<ellipse fill="none" stroke="black" cx="1091.07" cy="-145" rx="118.08" ry="18"/>
<text text-anchor="middle" x="1091.07" y="-141.3" font-family="Times,serif" font-size="14.00">L2a_nfov_pc(E) manifest 1..1</text>
</g>
<!-- l2a_nfov_pc_demux&#45;&gt;l2a_nfov_pc_man_demux -->
<g id="edge21" class="edge">
<title>l2a_nfov_pc_demux&#45;&gt;l2a_nfov_pc_man_demux</title>
<path fill="none" stroke="black" d="M916.13,-145C916.13,-145 962.62,-145 962.62,-145"/>
<polygon fill="black" stroke="black" points="962.62,-148.5 972.62,-145 962.62,-141.5 962.62,-148.5"/>
</g>
<!-- trans_nfov_pc_l2a_l2b -->
<g id="node3" class="node">
<title>trans_nfov_pc_l2a_l2b</title>
<ellipse fill="none" stroke="black" cx="1358.19" cy="-364" rx="101.23" ry="101.23"/>
<text text-anchor="middle" x="1358.19" y="-367.8" font-family="Times,serif" font-size="14.00">nfov_pc Transmutation</text>
<text text-anchor="middle" x="1358.19" y="-352.8" font-family="Times,serif" font-size="14.00">L2a to L2b</text>
</g>
<!-- l2b_nfov_pc_prod -->
<g id="node24" class="node">
<title>l2b_nfov_pc_prod</title>
<polygon fill="none" stroke="black" points="1931.88,-479 1767.88,-479 1767.88,-443 1931.88,-443 1931.88,-479"/>
<text text-anchor="middle" x="1849.88" y="-457.3" font-family="Times,serif" font-size="14.00">L2b_nfov_pc products 1..1</text>
</g>
<!-- trans_nfov_pc_l2a_l2b&#45;&gt;l2b_nfov_pc_prod -->
<g id="edge17" class="edge">
<title>trans_nfov_pc_l2a_l2b&#45;&gt;l2b_nfov_pc_prod</title>
<path fill="none" stroke="black" d="M1404.44,-454.06C1404.44,-454.06 1757.66,-454.06 1757.66,-454.06"/>
<polygon fill="black" stroke="black" points="1757.66,-457.56 1767.66,-454.06 1757.66,-450.56 1757.66,-457.56"/>
</g>
<!-- l2b_nfov_pc_man_demux -->
<g id="node31" class="node">
<title>l2b_nfov_pc_man_demux</title>
<ellipse fill="none" stroke="black" cx="1613.59" cy="-364" rx="118.08" ry="18"/>
<text text-anchor="middle" x="1613.59" y="-360.3" font-family="Times,serif" font-size="14.00">L2b_nfov_pc(E) manifest 1..1</text>
</g>
<!-- trans_nfov_pc_l2a_l2b&#45;&gt;l2b_nfov_pc_man_demux -->
<g id="edge18" class="edge">
<title>trans_nfov_pc_l2a_l2b&#45;&gt;l2b_nfov_pc_man_demux</title>
<path fill="none" stroke="black" d="M1459.5,-364C1459.5,-364 1485.1,-364 1485.1,-364"/>
<polygon fill="black" stroke="black" points="1485.1,-367.5 1495.1,-364 1485.1,-360.5 1485.1,-367.5"/>
</g>
<!-- l2b_nfov_pc_log -->
<g id="node32" class="node">
<title>l2b_nfov_pc_log</title>
<ellipse fill="none" stroke="black" cx="1613.59" cy="-310" rx="87.99" ry="18"/>
<text text-anchor="middle" x="1613.59" y="-306.3" font-family="Times,serif" font-size="14.00">L2b_nfov_pc log 1..1</text>
</g>
<!-- trans_nfov_pc_l2a_l2b&#45;&gt;l2b_nfov_pc_log -->
<g id="edge19" class="edge">
<title>trans_nfov_pc_l2a_l2b&#45;&gt;l2b_nfov_pc_log</title>
<path fill="none" stroke="black" d="M1443.94,-310C1443.94,-310 1515.45,-310 1515.45,-310"/>
<polygon fill="black" stroke="black" points="1515.45,-313.5 1525.45,-310 1515.45,-306.5 1515.45,-313.5"/>
</g>
<!-- l2b_nfov_pc_mux -->
<g id="node4" class="node">
<title>l2b_nfov_pc_mux</title>
<ellipse fill="none" stroke="black" cx="1849.88" cy="-346" rx="79.39" ry="79.39"/>
<text text-anchor="middle" x="1849.88" y="-349.8" font-family="Times,serif" font-size="14.00">nfov_pc l2b Mux</text>
<text text-anchor="middle" x="1849.88" y="-334.8" font-family="Times,serif" font-size="14.00">Exposure</text>
</g>
<!-- l2b_nfov_pc_man -->
<g id="node25" class="node">
<title>l2b_nfov_pc_man</title>
<ellipse fill="none" stroke="black" cx="2097.38" cy="-380" rx="107.48" ry="18"/>
<text text-anchor="middle" x="2097.38" y="-376.3" font-family="Times,serif" font-size="14.00">L2b_nfov_pc manifest 1..1</text>
</g>
<!-- l2b_nfov_pc_mux&#45;&gt;l2b_nfov_pc_man -->
<g id="edge24" class="edge">
<title>l2b_nfov_pc_mux&#45;&gt;l2b_nfov_pc_man</title>
<path fill="none" stroke="black" d="M1921.47,-380C1921.47,-380 1980.03,-380 1980.03,-380"/>
<polygon fill="black" stroke="black" points="1980.03,-383.5 1990.03,-380 1980.03,-376.5 1980.03,-383.5"/>
</g>
<!-- trans_nfov_pc_l2b_l3 -->
<g id="node5" class="node">
<title>trans_nfov_pc_l2b_l3</title>
<ellipse fill="none" stroke="black" cx="2364" cy="-543" rx="101.23" ry="101.23"/>
<text text-anchor="middle" x="2364" y="-546.8" font-family="Times,serif" font-size="14.00">nfov_pc Transmutation</text>
<text text-anchor="middle" x="2364" y="-531.8" font-family="Times,serif" font-size="14.00">L2b to L3</text>
</g>
<!-- l3_nfov_pc_prod -->
<g id="node33" class="node">
<title>l3_nfov_pc_prod</title>
<polygon fill="none" stroke="black" points="2692.55,-615 2534.55,-615 2534.55,-579 2692.55,-579 2692.55,-615"/>
<text text-anchor="middle" x="2613.55" y="-593.3" font-family="Times,serif" font-size="14.00">L3_nfov_pc products 1..1</text>
</g>
<!-- trans_nfov_pc_l2b_l3&#45;&gt;l3_nfov_pc_prod -->
<g id="edge32" class="edge">
<title>trans_nfov_pc_l2b_l3&#45;&gt;l3_nfov_pc_prod</title>
<path fill="none" stroke="black" d="M2449.53,-597C2449.53,-597 2524.43,-597 2524.43,-597"/>
<polygon fill="black" stroke="black" points="2524.43,-600.5 2534.43,-597 2524.43,-593.5 2524.43,-600.5"/>
</g>
<!-- l3_nfov_pc_man -->
<g id="node35" class="node">
<title>l3_nfov_pc_man</title>
<ellipse fill="none" stroke="black" cx="2613.55" cy="-543" rx="102.88" ry="18"/>
<text text-anchor="middle" x="2613.55" y="-539.3" font-family="Times,serif" font-size="14.00">L3_nfov_pc manifest 1..1</text>
</g>
<!-- trans_nfov_pc_l2b_l3&#45;&gt;l3_nfov_pc_man -->
<g id="edge33" class="edge">
<title>trans_nfov_pc_l2b_l3&#45;&gt;l3_nfov_pc_man</title>
<path fill="none" stroke="black" d="M2465.14,-543C2465.14,-543 2500.64,-543 2500.64,-543"/>
<polygon fill="black" stroke="black" points="2500.64,-546.5 2510.64,-543 2500.64,-539.5 2500.64,-546.5"/>
</g>
<!-- l3_nfov_pc_log -->
<g id="node38" class="node">
<title>l3_nfov_pc_log</title>
<ellipse fill="none" stroke="black" cx="2613.55" cy="-489" rx="83.39" ry="18"/>
<text text-anchor="middle" x="2613.55" y="-485.3" font-family="Times,serif" font-size="14.00">L3_nfov_pc log 1..1</text>
</g>
<!-- trans_nfov_pc_l2b_l3&#45;&gt;l3_nfov_pc_log -->
<g id="edge34" class="edge">
<title>trans_nfov_pc_l2b_l3&#45;&gt;l3_nfov_pc_log</title>
<path fill="none" stroke="black" d="M2449.53,-489C2449.53,-489 2520.24,-489 2520.24,-489"/>
<polygon fill="black" stroke="black" points="2520.24,-492.5 2530.24,-489 2520.24,-485.5 2520.24,-492.5"/>
</g>
<!-- trans_nfov_pc_l3_l4 -->
<g id="node6" class="node">
<title>trans_nfov_pc_l3_l4</title>
<ellipse fill="none" stroke="black" cx="2863.11" cy="-651" rx="101.23" ry="101.23"/>
<text text-anchor="middle" x="2863.11" y="-654.8" font-family="Times,serif" font-size="14.00">nfov_pc Transmutation</text>
<text text-anchor="middle" x="2863.11" y="-639.8" font-family="Times,serif" font-size="14.00">L3 to L4</text>
</g>
<!-- l4_nfov_pc_prod -->
<g id="node39" class="node">
<title>l4_nfov_pc_prod</title>
<polygon fill="none" stroke="black" points="3211.23,-723 3053.23,-723 3053.23,-687 3211.23,-687 3211.23,-723"/>
<text text-anchor="middle" x="3132.23" y="-701.3" font-family="Times,serif" font-size="14.00">L4_nfov_pc products 1..1</text>
</g>
<!-- trans_nfov_pc_l3_l4&#45;&gt;l4_nfov_pc_prod -->
<g id="edge40" class="edge">
<title>trans_nfov_pc_l3_l4&#45;&gt;l4_nfov_pc_prod</title>
<path fill="none" stroke="black" d="M2948.63,-705C2948.63,-705 3042.88,-705 3042.88,-705"/>
<polygon fill="black" stroke="black" points="3042.88,-708.5 3052.88,-705 3042.88,-701.5 3042.88,-708.5"/>
</g>
<!-- l4_nfov_pc_log -->
<g id="node41" class="node">
<title>l4_nfov_pc_log</title>
<ellipse fill="none" stroke="black" cx="3132.23" cy="-651" rx="83.39" ry="18"/>
<text text-anchor="middle" x="3132.23" y="-647.3" font-family="Times,serif" font-size="14.00">L4_nfov_pc log 1..1</text>
</g>
<!-- trans_nfov_pc_l3_l4&#45;&gt;l4_nfov_pc_log -->
<g id="edge41" class="edge">
<title>trans_nfov_pc_l3_l4&#45;&gt;l4_nfov_pc_log</title>
<path fill="none" stroke="black" d="M2964.47,-651C2964.47,-651 3038.94,-651 3038.94,-651"/>
<polygon fill="black" stroke="black" points="3038.94,-654.5 3048.94,-651 3038.94,-647.5 3038.94,-654.5"/>
</g>
<!-- l4_nfov_pc_man -->
<g id="node42" class="node">
<title>l4_nfov_pc_man</title>
<ellipse fill="none" stroke="black" cx="3132.23" cy="-597" rx="102.88" ry="18"/>
<text text-anchor="middle" x="3132.23" y="-593.3" font-family="Times,serif" font-size="14.00">L4_nfov_pc manifest 1..1</text>
</g>
<!-- trans_nfov_pc_l3_l4&#45;&gt;l4_nfov_pc_man -->
<g id="edge42" class="edge">
<title>trans_nfov_pc_l3_l4&#45;&gt;l4_nfov_pc_man</title>
<path fill="none" stroke="black" d="M2948.63,-597C2948.63,-597 3019.5,-597 3019.5,-597"/>
<polygon fill="black" stroke="black" points="3019.5,-600.5 3029.5,-597 3019.5,-593.5 3019.5,-600.5"/>
</g>
<!-- trans_nfov_pc_l4_tda -->
<g id="node7" class="node">
<title>trans_nfov_pc_l4_tda</title>
<ellipse fill="none" stroke="black" cx="3401.34" cy="-813" rx="101.23" ry="101.23"/>
<text text-anchor="middle" x="3401.34" y="-816.8" font-family="Times,serif" font-size="14.00">nfov_pc Transmutation</text>
<text text-anchor="middle" x="3401.34" y="-801.8" font-family="Times,serif" font-size="14.00">L4 to TDA</text>
</g>
<!-- tda_nfov_pc_prod -->
<g id="node47" class="node">
<title>tda_nfov_pc_prod</title>
<ellipse fill="none" stroke="black" cx="3613.85" cy="-840" rx="75.29" ry="18"/>
<text text-anchor="middle" x="3613.85" y="-836.3" font-family="Times,serif" font-size="14.00">tda_nfov_pc_prod</text>
</g>
<!-- trans_nfov_pc_l4_tda&#45;&gt;tda_nfov_pc_prod -->
<g id="edge50" class="edge">
<title>trans_nfov_pc_l4_tda&#45;&gt;tda_nfov_pc_prod</title>
<path fill="none" stroke="black" d="M3498.89,-840C3498.89,-840 3528.22,-840 3528.22,-840"/>
<polygon fill="black" stroke="black" points="3528.22,-843.5 3538.22,-840 3528.22,-836.5 3528.22,-843.5"/>
</g>
<!-- tda_nfov_pc_log -->
<g id="node48" class="node">
<title>tda_nfov_pc_log</title>
<ellipse fill="none" stroke="black" cx="3613.85" cy="-786" rx="70.39" ry="18"/>
<text text-anchor="middle" x="3613.85" y="-782.3" font-family="Times,serif" font-size="14.00">tda_nfov_pc_log</text>
</g>
<!-- trans_nfov_pc_l4_tda&#45;&gt;tda_nfov_pc_log -->
<g id="edge51" class="edge">
<title>trans_nfov_pc_l4_tda&#45;&gt;tda_nfov_pc_log</title>
<path fill="none" stroke="black" d="M3498.89,-786C3498.89,-786 3533.55,-786 3533.55,-786"/>
<polygon fill="black" stroke="black" points="3533.55,-789.5 3543.55,-786 3533.55,-782.5 3533.55,-789.5"/>
</g>
<!-- l1_nfov_pc_prod -->
<g id="node8" class="node">
<title>l1_nfov_pc_prod</title>
<polygon fill="none" stroke="black" points="191.44,-252 33.44,-252 33.44,-216 191.44,-216 191.44,-252"/>
<text text-anchor="middle" x="112.44" y="-230.3" font-family="Times,serif" font-size="14.00">L1_nfov_pc products 1..b</text>
</g>
<!-- l1_nfov_pc_prod&#45;&gt;trans_nfov_pc_l1_l2a -->
<g id="edge1" class="edge">
<title>l1_nfov_pc_prod&#45;&gt;trans_nfov_pc_l1_l2a</title>
<path fill="none" stroke="black" d="M191.74,-221.56C191.74,-221.56 318.69,-221.56 318.69,-221.56"/>
<polygon fill="black" stroke="black" points="318.69,-225.06 328.69,-221.56 318.69,-218.06 318.69,-225.06"/>
</g>
<!-- l1_nfov_pc_man -->
<g id="node9" class="node">
<title>l1_nfov_pc_man</title>
<ellipse fill="none" stroke="black" cx="112.44" cy="-180" rx="102.88" ry="18"/>
<text text-anchor="middle" x="112.44" y="-176.3" font-family="Times,serif" font-size="14.00">L1_nfov_pc manifest 1..1</text>
</g>
<!-- l1_nfov_pc_man&#45;&gt;trans_nfov_pc_l1_l2a -->
<g id="edge2" class="edge">
<title>l1_nfov_pc_man&#45;&gt;trans_nfov_pc_l1_l2a</title>
<path fill="none" stroke="black" d="M215.38,-180C215.38,-180 266.36,-180 266.36,-180"/>
<polygon fill="black" stroke="black" points="266.36,-183.5 276.36,-180 266.36,-176.5 266.36,-183.5"/>
</g>
<!-- l1_nfov_pc_odir -->
<g id="node10" class="node">
<title>l1_nfov_pc_odir</title>
<ellipse fill="none" stroke="black" cx="112.44" cy="-126" rx="112.38" ry="18"/>
<text text-anchor="middle" x="112.44" y="-122.3" font-family="Times,serif" font-size="14.00">L1_nfov_pc output path 1..1</text>
</g>
<!-- l1_nfov_pc_odir&#45;&gt;trans_nfov_pc_l1_l2a -->
<g id="edge3" class="edge">
<title>l1_nfov_pc_odir&#45;&gt;trans_nfov_pc_l1_l2a</title>
<path fill="none" stroke="black" d="M225.17,-126C225.17,-126 250.83,-126 250.83,-126"/>
<polygon fill="black" stroke="black" points="250.83,-129.5 260.83,-126 250.83,-122.5 250.83,-129.5"/>
</g>
<!-- l1_nfov_pc_rec -->
<g id="node11" class="node">
<title>l1_nfov_pc_rec</title>
<polygon fill="none" stroke="black" points="172.44,-84 40.44,-84 40.44,-60 172.44,-60 184.44,-72 172.44,-84"/>
<text text-anchor="middle" x="112.44" y="-68.3" font-family="Times,serif" font-size="14.00">L1_nfov_pc recipe 1..1</text>
</g>
<!-- l1_nfov_pc_rec&#45;&gt;trans_nfov_pc_l1_l2a -->
<g id="edge4" class="edge">
<title>l1_nfov_pc_rec&#45;&gt;trans_nfov_pc_l1_l2a</title>
<path fill="none" stroke="black" d="M184.62,-72C184.62,-72 266.3,-72 266.3,-72"/>
<polygon fill="black" stroke="black" points="266.3,-75.5 276.3,-72 266.3,-68.5 266.3,-75.5"/>
</g>
<!-- l1_nfov_pc_nln -->
<g id="node12" class="node">
<title>l1_nfov_pc_nln</title>
<polygon fill="none" stroke="black" points="209.44,-30 3.44,-30 3.44,-6 209.44,-6 221.44,-18 209.44,-30"/>
<text text-anchor="middle" x="112.44" y="-14.3" font-family="Times,serif" font-size="14.00">L1_nfov_pc non&#45;linear &amp; Kgain 1..1</text>
</g>
<!-- l1_nfov_pc_nln&#45;&gt;trans_nfov_pc_l1_l2a -->
<g id="edge5" class="edge">
<title>l1_nfov_pc_nln&#45;&gt;trans_nfov_pc_l1_l2a</title>
<path fill="none" stroke="black" d="M221.54,-30.44C221.54,-30.44 318.82,-30.44 318.82,-30.44"/>
<polygon fill="black" stroke="black" points="318.82,-33.94 328.82,-30.44 318.82,-26.94 318.82,-33.94"/>
</g>
<!-- l2a_nfov_pc_prod&#45;&gt;trans_nfov_pc_l2a_l2b -->
<g id="edge9" class="edge">
<title>l2a_nfov_pc_prod&#45;&gt;trans_nfov_pc_l2a_l2b</title>
<path fill="none" stroke="black" d="M837.25,-248.24C837.25,-263.57 837.25,-283 837.25,-283 837.25,-283 1287.41,-283 1287.41,-283"/>
<polygon fill="black" stroke="black" points="1287.41,-286.5 1297.41,-283 1287.41,-279.5 1287.41,-286.5"/>
</g>
<!-- l2a_nfov_pc_man&#45;&gt;l2a_nfov_pc_demux -->
<g id="edge20" class="edge">
<title>l2a_nfov_pc_man&#45;&gt;l2a_nfov_pc_demux</title>
<path fill="none" stroke="black" d="M712.4,-126C712.4,-126 740.5,-126 740.5,-126"/>
<polygon fill="black" stroke="black" points="740.5,-129.5 750.5,-126 740.5,-122.5 740.5,-129.5"/>
</g>
<!-- l2a_nfov_pc_odir -->
<g id="node15" class="node">
<title>l2a_nfov_pc_odir</title>
<ellipse fill="none" stroke="black" cx="1091.07" cy="-580" rx="116.18" ry="18"/>
<text text-anchor="middle" x="1091.07" y="-576.3" font-family="Times,serif" font-size="14.00">L2a_nfov_pc output path 1..1</text>
</g>
<!-- l2a_nfov_pc_odir&#45;&gt;trans_nfov_pc_l2a_l2b -->
<g id="edge10" class="edge">
<title>l2a_nfov_pc_odir&#45;&gt;trans_nfov_pc_l2a_l2b</title>
<path fill="none" stroke="black" d="M1190.1,-570.5C1277.88,-570.5 1392.25,-570.5 1392.25,-570.5 1392.25,-570.5 1392.25,-469.39 1392.25,-469.39"/>
<polygon fill="black" stroke="black" points="1395.75,-469.39 1392.25,-459.39 1388.75,-469.39 1395.75,-469.39"/>
</g>
<!-- l2a_nfov_pc_rec -->
<g id="node16" class="node">
<title>l2a_nfov_pc_rec</title>
<polygon fill="none" stroke="black" points="1154.07,-538 1016.07,-538 1016.07,-514 1154.07,-514 1166.07,-526 1154.07,-538"/>
<text text-anchor="middle" x="1091.07" y="-522.3" font-family="Times,serif" font-size="14.00">L2a_nfov_pc recipe 1..1</text>
</g>
<!-- l2a_nfov_pc_rec&#45;&gt;trans_nfov_pc_l2a_l2b -->
<g id="edge11" class="edge">
<title>l2a_nfov_pc_rec&#45;&gt;trans_nfov_pc_l2a_l2b</title>
<path fill="none" stroke="black" d="M1166.13,-516.5C1234.63,-516.5 1325.25,-516.5 1325.25,-516.5 1325.25,-516.5 1325.25,-469.71 1325.25,-469.71"/>
<polygon fill="black" stroke="black" points="1328.75,-469.71 1325.25,-459.71 1321.75,-469.71 1328.75,-469.71"/>
</g>
<!-- l2a_nfov_pc_cti -->
<g id="node17" class="node">
<title>l2a_nfov_pc_cti</title>
<polygon fill="none" stroke="black" points="1202.57,-484 967.57,-484 967.57,-460 1202.57,-460 1214.57,-472 1202.57,-484"/>
<text text-anchor="middle" x="1091.07" y="-468.3" font-family="Times,serif" font-size="14.00">L2a_nfov_pc charge xfer inefficiency 1..1</text>
</g>
<!-- l2a_nfov_pc_cti&#45;&gt;trans_nfov_pc_l2a_l2b -->
<g id="edge12" class="edge">
<title>l2a_nfov_pc_cti&#45;&gt;trans_nfov_pc_l2a_l2b</title>
<path fill="none" stroke="black" d="M1214.85,-459.56C1214.85,-459.56 1315.03,-459.56 1315.03,-459.56"/>
<polygon fill="black" stroke="black" points="1315.03,-463.06 1325.03,-459.56 1315.03,-456.06 1315.03,-463.06"/>
</g>
<!-- l2a_nfov_pc_dnb -->
<g id="node18" class="node">
<title>l2a_nfov_pc_dnb</title>
<polygon fill="none" stroke="black" points="1209.07,-430 961.07,-430 961.07,-406 1209.07,-406 1221.07,-418 1209.07,-430"/>
<text text-anchor="middle" x="1091.07" y="-414.3" font-family="Times,serif" font-size="14.00">L2a_nfov_pc detector noise background 1..1</text>
</g>
<!-- l2a_nfov_pc_dnb&#45;&gt;trans_nfov_pc_l2a_l2b -->
<g id="edge13" class="edge">
<title>l2a_nfov_pc_dnb&#45;&gt;trans_nfov_pc_l2a_l2b</title>
<path fill="none" stroke="black" d="M1221.11,-418C1221.11,-418 1262.69,-418 1262.69,-418"/>
<polygon fill="black" stroke="black" points="1262.69,-421.5 1272.69,-418 1262.68,-414.5 1262.69,-421.5"/>
</g>
<!-- l2a_nfov_pc_mbpm -->
<g id="node19" class="node">
<title>l2a_nfov_pc_mbpm</title>
<polygon fill="none" stroke="black" points="1197.07,-376 973.07,-376 973.07,-352 1197.07,-352 1209.07,-364 1197.07,-376"/>
<text text-anchor="middle" x="1091.07" y="-360.3" font-family="Times,serif" font-size="14.00">L2a_nfov_pc master bad pixel map 1..1</text>
</g>
<!-- l2a_nfov_pc_mbpm&#45;&gt;trans_nfov_pc_l2a_l2b -->
<g id="edge14" class="edge">
<title>l2a_nfov_pc_mbpm&#45;&gt;trans_nfov_pc_l2a_l2b</title>
<path fill="none" stroke="black" d="M1209.4,-364C1209.4,-364 1246.67,-364 1246.67,-364"/>
<polygon fill="black" stroke="black" points="1246.67,-367.5 1256.67,-364 1246.67,-360.5 1246.67,-367.5"/>
</g>
<!-- l2a_nfov_pc_ff -->
<g id="node20" class="node">
<title>l2a_nfov_pc_ff</title>
<polygon fill="none" stroke="black" points="1163.57,-322 1006.57,-322 1006.57,-298 1163.57,-298 1175.57,-310 1163.57,-322"/>
<text text-anchor="middle" x="1091.07" y="-306.3" font-family="Times,serif" font-size="14.00">L2a_nfov_pc flat fields 1..1</text>
</g>
<!-- l2a_nfov_pc_ff&#45;&gt;trans_nfov_pc_l2a_l2b -->
<g id="edge15" class="edge">
<title>l2a_nfov_pc_ff&#45;&gt;trans_nfov_pc_l2a_l2b</title>
<path fill="none" stroke="black" d="M1175.59,-310C1175.59,-310 1262.38,-310 1262.38,-310"/>
<polygon fill="black" stroke="black" points="1262.38,-313.5 1272.38,-310 1262.38,-306.5 1262.38,-313.5"/>
</g>
<!-- l2a_nfov_pc_emg -->
<g id="node21" class="node">
<title>l2a_nfov_pc_emg</title>
<polygon fill="none" stroke="black" points="1161.57,-268 1008.57,-268 1008.57,-244 1161.57,-244 1173.57,-256 1161.57,-268"/>
<text text-anchor="middle" x="1091.07" y="-252.3" font-family="Times,serif" font-size="14.00">L2a_nfov_pc EM gain 1..1</text>
</g>
<!-- l2a_nfov_pc_emg&#45;&gt;trans_nfov_pc_l2a_l2b -->
<g id="edge16" class="edge">
<title>l2a_nfov_pc_emg&#45;&gt;trans_nfov_pc_l2a_l2b</title>
<path fill="none" stroke="black" d="M1173.76,-270.29C1173.76,-270.29 1310.16,-270.29 1310.16,-270.29"/>
<polygon fill="black" stroke="black" points="1310.16,-273.79 1320.16,-270.29 1310.16,-266.79 1310.16,-273.79"/>
</g>
<!-- l2a_nfov_pc_man_demux&#45;&gt;trans_nfov_pc_l2a_l2b -->
<g id="edge22" class="edge">
<title>l2a_nfov_pc_man_demux&#45;&gt;trans_nfov_pc_l2a_l2b</title>
<path fill="none" stroke="black" d="M1193.25,-154.14C1193.25,-182.42 1193.25,-266.59 1193.25,-266.59 1193.25,-266.59 1320.95,-266.59 1320.95,-266.59"/>
<polygon fill="black" stroke="black" points="1320.95,-270.09 1330.95,-266.59 1320.95,-263.09 1320.95,-270.09"/>
</g>
<!-- l2b_nfov_pc_prod&#45;&gt;trans_nfov_pc_l2b_l3 -->
<g id="edge25" class="edge">
<title>l2b_nfov_pc_prod&#45;&gt;trans_nfov_pc_l2b_l3</title>
<path fill="none" stroke="black" d="M1931.91,-461.67C1931.91,-461.67 2293.57,-461.67 2293.57,-461.67"/>
<polygon fill="black" stroke="black" points="2293.57,-465.17 2303.57,-461.67 2293.57,-458.17 2293.57,-465.17"/>
</g>
<!-- l2b_nfov_pc_man&#45;&gt;trans_nfov_pc_l2b_l3 -->
<g id="edge26" class="edge">
<title>l2b_nfov_pc_man&#45;&gt;trans_nfov_pc_l2b_l3</title>
<path fill="none" stroke="black" d="M2201.25,-384.75C2201.25,-400.84 2201.25,-452.33 2201.25,-452.33 2201.25,-452.33 2309.09,-452.33 2309.09,-452.33"/>
<polygon fill="black" stroke="black" points="2309.09,-455.83 2319.09,-452.33 2309.09,-448.83 2309.09,-455.83"/>
</g>
<!-- l2b_nfov_pc_odir -->
<g id="node26" class="node">
<title>l2b_nfov_pc_odir</title>
<ellipse fill="none" stroke="black" cx="2097.38" cy="-705" rx="116.18" ry="18"/>
<text text-anchor="middle" x="2097.38" y="-701.3" font-family="Times,serif" font-size="14.00">L2b_nfov_pc output path 1..1</text>
</g>
<!-- l2b_nfov_pc_odir&#45;&gt;trans_nfov_pc_l2b_l3 -->
<g id="edge27" class="edge">
<title>l2b_nfov_pc_odir&#45;&gt;trans_nfov_pc_l2b_l3</title>
<path fill="none" stroke="black" d="M2194.25,-694.91C2194.25,-676.74 2194.25,-640.41 2194.25,-640.41 2194.25,-640.41 2326.72,-640.41 2326.72,-640.41"/>
<polygon fill="black" stroke="black" points="2326.72,-643.91 2336.72,-640.41 2326.72,-636.91 2326.72,-643.91"/>
</g>
<!-- l2b_nfov_pc_rec -->
<g id="node27" class="node">
<title>l2b_nfov_pc_rec</title>
<polygon fill="none" stroke="black" points="2160.88,-663 2021.88,-663 2021.88,-639 2160.88,-639 2172.88,-651 2160.88,-663"/>
<text text-anchor="middle" x="2097.38" y="-647.3" font-family="Times,serif" font-size="14.00">L2b_nfov_pc recipe 1..1</text>
</g>
<!-- l2b_nfov_pc_rec&#45;&gt;trans_nfov_pc_l2b_l3 -->
<g id="edge28" class="edge">
<title>l2b_nfov_pc_rec&#45;&gt;trans_nfov_pc_l2b_l3</title>
<path fill="none" stroke="black" d="M2173.07,-636.71C2173.07,-636.71 2315.85,-636.71 2315.85,-636.71"/>
<polygon fill="black" stroke="black" points="2315.85,-640.21 2325.85,-636.71 2315.85,-633.21 2315.85,-640.21"/>
</g>
<!-- l2b_nfov_pc_excicrf -->
<g id="node28" class="node">
<title>l2b_nfov_pc_excicrf</title>
<polygon fill="none" stroke="black" points="2209.38,-609 1973.38,-609 1973.38,-585 2209.38,-585 2221.38,-597 2209.38,-609"/>
<text text-anchor="middle" x="2097.38" y="-593.3" font-family="Times,serif" font-size="14.00">L2b_nfov_pc EXCAM ICRF location 1..1</text>
</g>
<!-- l2b_nfov_pc_excicrf&#45;&gt;trans_nfov_pc_l2b_l3 -->
<g id="edge29" class="edge">
<title>l2b_nfov_pc_excicrf&#45;&gt;trans_nfov_pc_l2b_l3</title>
<path fill="none" stroke="black" d="M2221.71,-597C2221.71,-597 2268.29,-597 2268.29,-597"/>
<polygon fill="black" stroke="black" points="2268.29,-600.5 2278.29,-597 2268.29,-593.5 2268.29,-600.5"/>
</g>
<!-- l2b_nfov_pc_excfovps -->
<g id="node29" class="node">
<title>l2b_nfov_pc_excfovps</title>
<polygon fill="none" stroke="black" points="2214.88,-555 1967.88,-555 1967.88,-531 2214.88,-531 2226.88,-543 2214.88,-555"/>
<text text-anchor="middle" x="2097.38" y="-539.3" font-family="Times,serif" font-size="14.00">L2b_nfov_pc EXCAM FOV pixel scale 1..1</text>
</g>
<!-- l2b_nfov_pc_excfovps&#45;&gt;trans_nfov_pc_l2b_l3 -->
<g id="edge30" class="edge">
<title>l2b_nfov_pc_excfovps&#45;&gt;trans_nfov_pc_l2b_l3</title>
<path fill="none" stroke="black" d="M2227.18,-543C2227.18,-543 2252.66,-543 2252.66,-543"/>
<polygon fill="black" stroke="black" points="2252.66,-546.5 2262.66,-543 2252.66,-539.5 2252.66,-546.5"/>
</g>
<!-- l2b_nfov_pc_distm -->
<g id="node30" class="node">
<title>l2b_nfov_pc_distm</title>
<polygon fill="none" stroke="black" points="2183.88,-501 1998.88,-501 1998.88,-477 2183.88,-477 2195.88,-489 2183.88,-501"/>
<text text-anchor="middle" x="2097.38" y="-485.3" font-family="Times,serif" font-size="14.00">L2b_nfov_pc distortion map 1..1</text>
</g>
<!-- l2b_nfov_pc_distm&#45;&gt;trans_nfov_pc_l2b_l3 -->
<g id="edge31" class="edge">
<title>l2b_nfov_pc_distm&#45;&gt;trans_nfov_pc_l2b_l3</title>
<path fill="none" stroke="black" d="M2195.9,-489C2195.9,-489 2268.17,-489 2268.17,-489"/>
<polygon fill="black" stroke="black" points="2268.17,-492.5 2278.17,-489 2268.17,-485.5 2268.17,-492.5"/>
</g>
<!-- l2b_nfov_pc_man_demux&#45;&gt;l2b_nfov_pc_mux -->
<g id="edge23" class="edge">
<title>l2b_nfov_pc_man_demux&#45;&gt;l2b_nfov_pc_mux</title>
<path fill="none" stroke="black" d="M1732.08,-364C1732.08,-364 1762.44,-364 1762.44,-364"/>
<polygon fill="black" stroke="black" points="1762.44,-367.5 1772.44,-364 1762.44,-360.5 1762.44,-367.5"/>
</g>
<!-- l3_nfov_pc_prod&#45;&gt;trans_nfov_pc_l3_l4 -->
<g id="edge35" class="edge">
<title>l3_nfov_pc_prod&#45;&gt;trans_nfov_pc_l3_l4</title>
<path fill="none" stroke="black" d="M2692.86,-597C2692.86,-597 2767.54,-597 2767.54,-597"/>
<polygon fill="black" stroke="black" points="2767.54,-600.5 2777.54,-597 2767.54,-593.5 2767.54,-600.5"/>
</g>
<!-- l3_nfov_pc_odir -->
<g id="node34" class="node">
<title>l3_nfov_pc_odir</title>
<ellipse fill="none" stroke="black" cx="2613.55" cy="-759" rx="112.38" ry="18"/>
<text text-anchor="middle" x="2613.55" y="-755.3" font-family="Times,serif" font-size="14.00">L3_nfov_pc output path 1..1</text>
</g>
<!-- l3_nfov_pc_odir&#45;&gt;trans_nfov_pc_l3_l4 -->
<g id="edge37" class="edge">
<title>l3_nfov_pc_odir&#45;&gt;trans_nfov_pc_l3_l4</title>
<path fill="none" stroke="black" d="M2694.92,-746.56C2694.92,-746.56 2819.74,-746.56 2819.74,-746.56"/>
<polygon fill="black" stroke="black" points="2819.74,-750.06 2829.74,-746.56 2819.74,-743.06 2819.74,-750.06"/>
</g>
<!-- l3_nfov_pc_man&#45;&gt;trans_nfov_pc_l3_l4 -->
<g id="edge36" class="edge">
<title>l3_nfov_pc_man&#45;&gt;trans_nfov_pc_l3_l4</title>
<path fill="none" stroke="black" d="M2688.09,-555.44C2688.09,-555.44 2819.8,-555.44 2819.8,-555.44"/>
<polygon fill="black" stroke="black" points="2819.8,-558.94 2829.8,-555.44 2819.8,-551.94 2819.8,-558.94"/>
</g>
<!-- l3_nfov_pc_rec -->
<g id="node36" class="node">
<title>l3_nfov_pc_rec</title>
<polygon fill="none" stroke="black" points="2673.55,-717 2541.55,-717 2541.55,-693 2673.55,-693 2685.55,-705 2673.55,-717"/>
<text text-anchor="middle" x="2613.55" y="-701.3" font-family="Times,serif" font-size="14.00">L3_nfov_pc recipe 1..1</text>
</g>
<!-- l3_nfov_pc_rec&#45;&gt;trans_nfov_pc_l3_l4 -->
<g id="edge38" class="edge">
<title>l3_nfov_pc_rec&#45;&gt;trans_nfov_pc_l3_l4</title>
<path fill="none" stroke="black" d="M2685.74,-705C2685.74,-705 2767.41,-705 2767.41,-705"/>
<polygon fill="black" stroke="black" points="2767.41,-708.5 2777.41,-705 2767.41,-701.5 2767.41,-708.5"/>
</g>
<!-- l3_nfov_pc_cal -->
<g id="node37" class="node">
<title>l3_nfov_pc_cal</title>
<polygon fill="none" stroke="black" points="2686.05,-663 2529.05,-663 2529.05,-639 2686.05,-639 2698.05,-651 2686.05,-663"/>
<text text-anchor="middle" x="2613.55" y="-647.3" font-family="Times,serif" font-size="14.00">L3_nfov_pc calibration 1..1</text>
</g>
<!-- l3_nfov_pc_cal&#45;&gt;trans_nfov_pc_l3_l4 -->
<g id="edge39" class="edge">
<title>l3_nfov_pc_cal&#45;&gt;trans_nfov_pc_l3_l4</title>
<path fill="none" stroke="black" d="M2698.39,-651C2698.39,-651 2751.69,-651 2751.69,-651"/>
<polygon fill="black" stroke="black" points="2751.69,-654.5 2761.69,-651 2751.69,-647.5 2751.69,-654.5"/>
</g>
<!-- l4_nfov_pc_prod&#45;&gt;trans_nfov_pc_l4_tda -->
<g id="edge43" class="edge">
<title>l4_nfov_pc_prod&#45;&gt;trans_nfov_pc_l4_tda</title>
<path fill="none" stroke="black" d="M3211.52,-719.29C3211.52,-719.29 3353.31,-719.29 3353.31,-719.29"/>
<polygon fill="black" stroke="black" points="3353.31,-722.79 3363.31,-719.29 3353.31,-715.79 3353.31,-722.79"/>
</g>
<!-- l4_nfov_pc_odir -->
<g id="node40" class="node">
<title>l4_nfov_pc_odir</title>
<ellipse fill="none" stroke="black" cx="3132.23" cy="-975" rx="112.38" ry="18"/>
<text text-anchor="middle" x="3132.23" y="-971.3" font-family="Times,serif" font-size="14.00">L4_nfov_pc output path 1..1</text>
</g>
<!-- l4_nfov_pc_odir&#45;&gt;trans_nfov_pc_l4_tda -->
<g id="edge45" class="edge">
<title>l4_nfov_pc_odir&#45;&gt;trans_nfov_pc_l4_tda</title>
<path fill="none" stroke="black" d="M3225.25,-964.62C3225.25,-946.36 3225.25,-910.41 3225.25,-910.41 3225.25,-910.41 3364.21,-910.41 3364.21,-910.41"/>
<polygon fill="black" stroke="black" points="3364.21,-913.91 3374.21,-910.41 3364.21,-906.91 3364.21,-913.91"/>
</g>
<!-- l4_nfov_pc_man&#45;&gt;trans_nfov_pc_l4_tda -->
<g id="edge44" class="edge">
<title>l4_nfov_pc_man&#45;&gt;trans_nfov_pc_l4_tda</title>
<path fill="none" stroke="black" d="M3225.25,-604.78C3225.25,-631.16 3225.25,-715.59 3225.25,-715.59 3225.25,-715.59 3364.21,-715.59 3364.21,-715.59"/>
<polygon fill="black" stroke="black" points="3364.21,-719.09 3374.21,-715.59 3364.21,-712.09 3364.21,-719.09"/>
</g>
<!-- l4_nfov_pc_rec -->
<g id="node43" class="node">
<title>l4_nfov_pc_rec</title>
<polygon fill="none" stroke="black" points="3192.23,-933 3060.23,-933 3060.23,-909 3192.23,-909 3204.23,-921 3192.23,-933"/>
<text text-anchor="middle" x="3132.23" y="-917.3" font-family="Times,serif" font-size="14.00">L4_nfov_pc recipe 1..1</text>
</g>
<!-- l4_nfov_pc_rec&#45;&gt;trans_nfov_pc_l4_tda -->
<g id="edge46" class="edge">
<title>l4_nfov_pc_rec&#45;&gt;trans_nfov_pc_l4_tda</title>
<path fill="none" stroke="black" d="M3204.35,-906.71C3204.35,-906.71 3353.09,-906.71 3353.09,-906.71"/>
<polygon fill="black" stroke="black" points="3353.09,-910.21 3363.09,-906.71 3353.09,-903.21 3353.09,-910.21"/>
</g>
<!-- l4_nfov_pc_afcal -->
<g id="node44" class="node">
<title>l4_nfov_pc_afcal</title>
<polygon fill="none" stroke="black" points="3244.23,-879 3008.23,-879 3008.23,-855 3244.23,-855 3256.23,-867 3244.23,-879"/>
<text text-anchor="middle" x="3132.23" y="-863.3" font-family="Times,serif" font-size="14.00">L4_nfov_pc absolute flux calibrations 1..1</text>
</g>
<!-- l4_nfov_pc_afcal&#45;&gt;trans_nfov_pc_l4_tda -->
<g id="edge47" class="edge">
<title>l4_nfov_pc_afcal&#45;&gt;trans_nfov_pc_l4_tda</title>
<path fill="none" stroke="black" d="M3256.54,-867C3256.54,-867 3305.59,-867 3305.59,-867"/>
<polygon fill="black" stroke="black" points="3305.59,-870.5 3315.59,-867 3305.59,-863.5 3305.59,-870.5"/>
</g>
<!-- l4_nfov_pc_ctcal -->
<g id="node45" class="node">
<title>l4_nfov_pc_ctcal</title>
<polygon fill="none" stroke="black" points="3252.23,-825 3000.23,-825 3000.23,-801 3252.23,-801 3264.23,-813 3252.23,-825"/>
<text text-anchor="middle" x="3132.23" y="-809.3" font-family="Times,serif" font-size="14.00">L4_nfov_pc core throughput calibrations 1..1</text>
</g>
<!-- l4_nfov_pc_ctcal&#45;&gt;trans_nfov_pc_l4_tda -->
<g id="edge48" class="edge">
<title>l4_nfov_pc_ctcal&#45;&gt;trans_nfov_pc_l4_tda</title>
<path fill="none" stroke="black" d="M3264.42,-813C3264.42,-813 3290.01,-813 3290.01,-813"/>
<polygon fill="black" stroke="black" points="3290.01,-816.5 3300.01,-813 3290.01,-809.5 3290.01,-816.5"/>
</g>
<!-- l4_nfov_pc_ndfilt -->
<g id="node46" class="node">
<title>l4_nfov_pc_ndfilt</title>
<polygon fill="none" stroke="black" points="3200.73,-771 3051.73,-771 3051.73,-747 3200.73,-747 3212.73,-759 3200.73,-771"/>
<text text-anchor="middle" x="3132.23" y="-755.3" font-family="Times,serif" font-size="14.00">L4_nfov_pc ND filter 1..1</text>
</g>
<!-- l4_nfov_pc_ndfilt&#45;&gt;trans_nfov_pc_l4_tda -->
<g id="edge49" class="edge">
<title>l4_nfov_pc_ndfilt&#45;&gt;trans_nfov_pc_l4_tda</title>
<path fill="none" stroke="black" d="M3212.97,-759C3212.97,-759 3305.51,-759 3305.51,-759"/>
<polygon fill="black" stroke="black" points="3305.51,-762.5 3315.51,-759 3305.51,-755.5 3305.51,-762.5"/>
</g>
</g>
</svg>
