<?xml version="1.0" encoding="UTF-8" standalone="no"?>
<!DOCTYPE svg PUBLIC "-//W3C//DTD SVG 1.1//EN"
 "http://www.w3.org/Graphics/SVG/1.1/DTD/svg11.dtd">
<!-- Generated by graphviz version 2.43.0 (0)
 -->
<!-- Title: NarrowFieldOfViewPhotonCount Pages: 1 -->
<svg width="4450pt" height="1051pt"
 viewBox="0.00 0.00 4450.44 1051.48" xmlns="http://www.w3.org/2000/svg" xmlns:xlink="http://www.w3.org/1999/xlink">
<g id="graph0" class="graph" transform="scale(1 1) rotate(0) translate(4 1047.48)">
<title>NarrowFieldOfViewPhotonCount</title>
<polygon fill="white" stroke="transparent" points="-4,4 -4,-1047.48 4446.44,-1047.48 4446.44,4 -4,4"/>
<!-- trans_nfov_pc_l1_l2a -->
<g id="node1" class="node">
<title>trans_nfov_pc_l1_l2a</title>
<ellipse fill="none" stroke="black" cx="442.75" cy="-131.48" rx="127.06" ry="127.06"/>
<text text-anchor="middle" x="442.75" y="-135.28" font-family="Times,serif" font-size="14.00">nfov_pc Transmutation</text>
<text text-anchor="middle" x="442.75" y="-120.28" font-family="Times,serif" font-size="14.00">L1 to L2a</text>
</g>
<!-- l2a_nfov_pc_prod -->
<g id="node13" class="node">
<title>l2a_nfov_pc_prod</title>
<polygon fill="none" stroke="black" points="1113.59,-268.48 910.59,-268.48 910.59,-232.48 1113.59,-232.48 1113.59,-268.48"/>
<text text-anchor="middle" x="1012.09" y="-246.78" font-family="Times,serif" font-size="14.00">L2a_nfov_pc products 1..b</text>
</g>
<!-- trans_nfov_pc_l1_l2a&#45;&gt;l2a_nfov_pc_prod -->
<g id="edge6" class="edge">
<title>trans_nfov_pc_l1_l2a&#45;&gt;l2a_nfov_pc_prod</title>
<path fill="none" stroke="black" d="M499.16,-245.62C499.16,-245.62 900.45,-245.62 900.45,-245.62"/>
<polygon fill="black" stroke="black" points="900.45,-249.12 910.45,-245.62 900.45,-242.12 900.45,-249.12"/>
</g>
<!-- l2a_nfov_pc_man -->
<g id="node14" class="node">
<title>l2a_nfov_pc_man</title>
<ellipse fill="none" stroke="black" cx="737.32" cy="-131.48" rx="131.08" ry="18"/>
<text text-anchor="middle" x="737.32" y="-127.78" font-family="Times,serif" font-size="14.00">L2a_nfov_pc manifest 1..1</text>
</g>
<!-- trans_nfov_pc_l1_l2a&#45;&gt;l2a_nfov_pc_man -->
<g id="edge7" class="edge">
<title>trans_nfov_pc_l1_l2a&#45;&gt;l2a_nfov_pc_man</title>
<path fill="none" stroke="black" d="M570.24,-131.48C570.24,-131.48 595.9,-131.48 595.9,-131.48"/>
<polygon fill="black" stroke="black" points="595.9,-134.98 605.9,-131.48 595.9,-127.98 595.9,-134.98"/>
</g>
<!-- l2a_nfov_pc_log -->
<g id="node23" class="node">
<title>l2a_nfov_pc_log</title>
<ellipse fill="none" stroke="black" cx="737.32" cy="-77.48" rx="104.78" ry="18"/>
<text text-anchor="middle" x="737.32" y="-73.78" font-family="Times,serif" font-size="14.00">L2a log_nfov_pc 1..1</text>
</g>
<!-- trans_nfov_pc_l1_l2a&#45;&gt;l2a_nfov_pc_log -->
<g id="edge8" class="edge">
<title>trans_nfov_pc_l1_l2a&#45;&gt;l2a_nfov_pc_log</title>
<path fill="none" stroke="black" d="M558.33,-77.48C558.33,-77.48 622.63,-77.48 622.63,-77.48"/>
<polygon fill="black" stroke="black" points="622.63,-80.98 632.63,-77.48 622.63,-73.98 622.63,-80.98"/>
</g>
<!-- l2a_nfov_pc_demux -->
<g id="node2" class="node">
<title>l2a_nfov_pc_demux</title>
<ellipse fill="none" stroke="black" cx="1012.09" cy="-107.48" rx="107.46" ry="107.46"/>
<text text-anchor="middle" x="1012.09" y="-111.28" font-family="Times,serif" font-size="14.00">nfov_pc l2a Demux</text>
<text text-anchor="middle" x="1012.09" y="-96.28" font-family="Times,serif" font-size="14.00">Exposure</text>
</g>
<!-- l2a_nfov_pc_man_demux -->
<g id="node24" class="node">
<title>l2a_nfov_pc_man_demux</title>
<ellipse fill="none" stroke="black" cx="1309.07" cy="-155.48" rx="144.87" ry="18"/>
<text text-anchor="middle" x="1309.07" y="-151.78" font-family="Times,serif" font-size="14.00">L2a_nfov_pc(E) manifest 1..1</text>
</g>
<!-- l2a_nfov_pc_demux&#45;&gt;l2a_nfov_pc_man_demux -->
<g id="edge22" class="edge">
<title>l2a_nfov_pc_demux&#45;&gt;l2a_nfov_pc_man_demux</title>
<path fill="none" stroke="black" d="M1108.51,-155.48C1108.51,-155.48 1154.07,-155.48 1154.07,-155.48"/>
<polygon fill="black" stroke="black" points="1154.07,-158.98 1164.07,-155.48 1154.07,-151.98 1154.07,-158.98"/>
</g>
<!-- trans_nfov_pc_l2a_l2b -->
<g id="node3" class="node">
<title>trans_nfov_pc_l2a_l2b</title>
<ellipse fill="none" stroke="black" cx="1625.85" cy="-406.48" rx="127.06" ry="127.06"/>
<text text-anchor="middle" x="1625.85" y="-410.28" font-family="Times,serif" font-size="14.00">nfov_pc Transmutation</text>
<text text-anchor="middle" x="1625.85" y="-395.28" font-family="Times,serif" font-size="14.00">L2a to L2b</text>
</g>
<!-- l2b_nfov_pc_prod -->
<g id="node25" class="node">
<title>l2b_nfov_pc_prod</title>
<polygon fill="none" stroke="black" points="2319.3,-533.48 2116.3,-533.48 2116.3,-497.48 2319.3,-497.48 2319.3,-533.48"/>
<text text-anchor="middle" x="2217.8" y="-511.78" font-family="Times,serif" font-size="14.00">L2b_nfov_pc products 1..1</text>
</g>
<!-- trans_nfov_pc_l2a_l2b&#45;&gt;l2b_nfov_pc_prod -->
<g id="edge18" class="edge">
<title>trans_nfov_pc_l2a_l2b&#45;&gt;l2b_nfov_pc_prod</title>
<path fill="none" stroke="black" d="M1691.75,-515.48C1691.75,-515.48 2106.15,-515.48 2106.15,-515.48"/>
<polygon fill="black" stroke="black" points="2106.15,-518.98 2116.15,-515.48 2106.15,-511.98 2106.15,-518.98"/>
</g>
<!-- l2b_nfov_pc_man_demux -->
<g id="node32" class="node">
<title>l2b_nfov_pc_man_demux</title>
<ellipse fill="none" stroke="black" cx="1934.72" cy="-406.48" rx="145.67" ry="18"/>
<text text-anchor="middle" x="1934.72" y="-402.78" font-family="Times,serif" font-size="14.00">L2b_nfov_pc(E) manifest 1..1</text>
</g>
<!-- trans_nfov_pc_l2a_l2b&#45;&gt;l2b_nfov_pc_man_demux -->
<g id="edge19" class="edge">
<title>trans_nfov_pc_l2a_l2b&#45;&gt;l2b_nfov_pc_man_demux</title>
<path fill="none" stroke="black" d="M1753.26,-406.48C1753.26,-406.48 1779.02,-406.48 1779.02,-406.48"/>
<polygon fill="black" stroke="black" points="1779.02,-409.98 1789.02,-406.48 1779.02,-402.98 1779.02,-409.98"/>
</g>
<!-- l2b_nfov_pc_log -->
<g id="node33" class="node">
<title>l2b_nfov_pc_log</title>
<ellipse fill="none" stroke="black" cx="1934.72" cy="-352.48" rx="105.08" ry="18"/>
<text text-anchor="middle" x="1934.72" y="-348.78" font-family="Times,serif" font-size="14.00">L2b_nfov_pc log 1..1</text>
</g>
<!-- trans_nfov_pc_l2a_l2b&#45;&gt;l2b_nfov_pc_log -->
<g id="edge20" class="edge">
<title>trans_nfov_pc_l2a_l2b&#45;&gt;l2b_nfov_pc_log</title>
<path fill="none" stroke="black" d="M1741.3,-352.48C1741.3,-352.48 1819.34,-352.48 1819.34,-352.48"/>
<polygon fill="black" stroke="black" points="1819.34,-355.98 1829.34,-352.48 1819.34,-348.98 1819.34,-355.98"/>
</g>
<!-- l2b_nfov_pc_mux -->
<g id="node4" class="node">
<title>l2b_nfov_pc_mux</title>
<ellipse fill="none" stroke="black" cx="2217.8" cy="-384.48" rx="94.51" ry="94.51"/>
<text text-anchor="middle" x="2217.8" y="-388.28" font-family="Times,serif" font-size="14.00">nfov_pc l2b Mux</text>
<text text-anchor="middle" x="2217.8" y="-373.28" font-family="Times,serif" font-size="14.00">Exposure</text>
</g>
<!-- l2b_nfov_pc_man -->
<g id="node26" class="node">
<title>l2b_nfov_pc_man</title>
<ellipse fill="none" stroke="black" cx="2510.3" cy="-426.48" rx="131.88" ry="18"/>
<text text-anchor="middle" x="2510.3" y="-422.78" font-family="Times,serif" font-size="14.00">L2b_nfov_pc manifest 1..1</text>
</g>
<!-- l2b_nfov_pc_mux&#45;&gt;l2b_nfov_pc_man -->
<g id="edge25" class="edge">
<title>l2b_nfov_pc_mux&#45;&gt;l2b_nfov_pc_man</title>
<path fill="none" stroke="black" d="M2302.8,-426.48C2302.8,-426.48 2368.26,-426.48 2368.26,-426.48"/>
<polygon fill="black" stroke="black" points="2368.26,-429.98 2378.26,-426.48 2368.26,-422.98 2368.26,-429.98"/>
</g>
<!-- trans_nfov_pc_l2b_l3 -->
<g id="node5" class="node">
<title>trans_nfov_pc_l2b_l3</title>
<ellipse fill="none" stroke="black" cx="2828.58" cy="-593.48" rx="127.06" ry="127.06"/>
<text text-anchor="middle" x="2828.58" y="-597.28" font-family="Times,serif" font-size="14.00">nfov_pc Transmutation</text>
<text text-anchor="middle" x="2828.58" y="-582.28" font-family="Times,serif" font-size="14.00">L2b to L3</text>
</g>
<!-- l3_nfov_pc_prod -->
<g id="node34" class="node">
<title>l3_nfov_pc_prod</title>
<polygon fill="none" stroke="black" points="3228.6,-665.48 3034.6,-665.48 3034.6,-629.48 3228.6,-629.48 3228.6,-665.48"/>
<text text-anchor="middle" x="3131.6" y="-643.78" font-family="Times,serif" font-size="14.00">L3_nfov_pc products 1..1</text>
</g>
<!-- trans_nfov_pc_l2b_l3&#45;&gt;l3_nfov_pc_prod -->
<g id="edge33" class="edge">
<title>trans_nfov_pc_l2b_l3&#45;&gt;l3_nfov_pc_prod</title>
<path fill="none" stroke="black" d="M2944,-647.48C2944,-647.48 3024.27,-647.48 3024.27,-647.48"/>
<polygon fill="black" stroke="black" points="3024.27,-650.98 3034.27,-647.48 3024.27,-643.98 3024.27,-650.98"/>
</g>
<!-- l3_nfov_pc_man -->
<g id="node36" class="node">
<title>l3_nfov_pc_man</title>
<ellipse fill="none" stroke="black" cx="3131.6" cy="-593.48" rx="126.18" ry="18"/>
<text text-anchor="middle" x="3131.6" y="-589.78" font-family="Times,serif" font-size="14.00">L3_nfov_pc manifest 1..1</text>
</g>
<!-- trans_nfov_pc_l2b_l3&#45;&gt;l3_nfov_pc_man -->
<g id="edge34" class="edge">
<title>trans_nfov_pc_l2b_l3&#45;&gt;l3_nfov_pc_man</title>
<path fill="none" stroke="black" d="M2956.21,-593.48C2956.21,-593.48 2995.09,-593.48 2995.09,-593.48"/>
<polygon fill="black" stroke="black" points="2995.09,-596.98 3005.09,-593.48 2995.09,-589.98 2995.09,-596.98"/>
</g>
<!-- l3_nfov_pc_log -->
<g id="node39" class="node">
<title>l3_nfov_pc_log</title>
<ellipse fill="none" stroke="black" cx="3131.6" cy="-539.48" rx="99.38" ry="18"/>
<text text-anchor="middle" x="3131.6" y="-535.78" font-family="Times,serif" font-size="14.00">L3_nfov_pc log 1..1</text>
</g>
<!-- trans_nfov_pc_l2b_l3&#45;&gt;l3_nfov_pc_log -->
<g id="edge35" class="edge">
<title>trans_nfov_pc_l2b_l3&#45;&gt;l3_nfov_pc_log</title>
<path fill="none" stroke="black" d="M2944,-539.48C2944,-539.48 3021.84,-539.48 3021.84,-539.48"/>
<polygon fill="black" stroke="black" points="3021.84,-542.98 3031.84,-539.48 3021.84,-535.98 3021.84,-542.98"/>
</g>
<!-- trans_nfov_pc_l3_l4 -->
<g id="node6" class="node">
<title>trans_nfov_pc_l3_l4</title>
<ellipse fill="none" stroke="black" cx="3434.62" cy="-701.48" rx="127.06" ry="127.06"/>
<text text-anchor="middle" x="3434.62" y="-705.28" font-family="Times,serif" font-size="14.00">nfov_pc Transmutation</text>
<text text-anchor="middle" x="3434.62" y="-690.28" font-family="Times,serif" font-size="14.00">L3 to L4</text>
</g>
<!-- l4_nfov_pc_prod -->
<g id="node40" class="node">
<title>l4_nfov_pc_prod</title>
<polygon fill="none" stroke="black" points="3862.9,-773.48 3668.9,-773.48 3668.9,-737.48 3862.9,-737.48 3862.9,-773.48"/>
<text text-anchor="middle" x="3765.9" y="-751.78" font-family="Times,serif" font-size="14.00">L4_nfov_pc products 1..1</text>
</g>
<!-- trans_nfov_pc_l3_l4&#45;&gt;l4_nfov_pc_prod -->
<g id="edge41" class="edge">
<title>trans_nfov_pc_l3_l4&#45;&gt;l4_nfov_pc_prod</title>
<path fill="none" stroke="black" d="M3550.02,-755.48C3550.02,-755.48 3658.76,-755.48 3658.76,-755.48"/>
<polygon fill="black" stroke="black" points="3658.76,-758.98 3668.76,-755.48 3658.76,-751.98 3658.76,-758.98"/>
</g>
<!-- l4_nfov_pc_log -->
<g id="node42" class="node">
<title>l4_nfov_pc_log</title>
<ellipse fill="none" stroke="black" cx="3765.9" cy="-701.48" rx="99.38" ry="18"/>
<text text-anchor="middle" x="3765.9" y="-697.78" font-family="Times,serif" font-size="14.00">L4_nfov_pc log 1..1</text>
</g>
<!-- trans_nfov_pc_l3_l4&#45;&gt;l4_nfov_pc_log -->
<g id="edge42" class="edge">
<title>trans_nfov_pc_l3_l4&#45;&gt;l4_nfov_pc_log</title>
<path fill="none" stroke="black" d="M3562.22,-701.48C3562.22,-701.48 3656.38,-701.48 3656.38,-701.48"/>
<polygon fill="black" stroke="black" points="3656.38,-704.98 3666.38,-701.48 3656.38,-697.98 3656.38,-704.98"/>
</g>
<!-- l4_nfov_pc_man -->
<g id="node43" class="node">
<title>l4_nfov_pc_man</title>
<ellipse fill="none" stroke="black" cx="3765.9" cy="-647.48" rx="126.18" ry="18"/>
<text text-anchor="middle" x="3765.9" y="-643.78" font-family="Times,serif" font-size="14.00">L4_nfov_pc manifest 1..1</text>
</g>
<!-- trans_nfov_pc_l3_l4&#45;&gt;l4_nfov_pc_man -->
<g id="edge43" class="edge">
<title>trans_nfov_pc_l3_l4&#45;&gt;l4_nfov_pc_man</title>
<path fill="none" stroke="black" d="M3550.02,-647.48C3550.02,-647.48 3629.61,-647.48 3629.61,-647.48"/>
<polygon fill="black" stroke="black" points="3629.61,-650.98 3639.61,-647.48 3629.61,-643.98 3629.61,-650.98"/>
</g>
<!-- trans_nfov_pc_l4_tda -->
<g id="node7" class="node">
<title>trans_nfov_pc_l4_tda</title>
<ellipse fill="none" stroke="black" cx="4097.17" cy="-863.48" rx="127.06" ry="127.06"/>
<text text-anchor="middle" x="4097.17" y="-867.28" font-family="Times,serif" font-size="14.00">nfov_pc Transmutation</text>
<text text-anchor="middle" x="4097.17" y="-852.28" font-family="Times,serif" font-size="14.00">L4 to TDA</text>
</g>
<!-- tda_nfov_pc_prod -->
<g id="node48" class="node">
<title>tda_nfov_pc_prod</title>
<ellipse fill="none" stroke="black" cx="4351.45" cy="-890.48" rx="90.98" ry="18"/>
<text text-anchor="middle" x="4351.45" y="-886.78" font-family="Times,serif" font-size="14.00">tda_nfov_pc_prod</text>
</g>
<!-- trans_nfov_pc_l4_tda&#45;&gt;tda_nfov_pc_prod -->
<g id="edge51" class="edge">
<title>trans_nfov_pc_l4_tda&#45;&gt;tda_nfov_pc_prod</title>
<path fill="none" stroke="black" d="M4221.7,-890.48C4221.7,-890.48 4250.15,-890.48 4250.15,-890.48"/>
<polygon fill="black" stroke="black" points="4250.15,-893.98 4260.15,-890.48 4250.15,-886.98 4250.15,-893.98"/>
</g>
<!-- tda_nfov_pc_log -->
<g id="node49" class="node">
<title>tda_nfov_pc_log</title>
<ellipse fill="none" stroke="black" cx="4351.45" cy="-836.48" rx="83.69" ry="18"/>
<text text-anchor="middle" x="4351.45" y="-832.78" font-family="Times,serif" font-size="14.00">tda_nfov_pc_log</text>
</g>
<!-- trans_nfov_pc_l4_tda&#45;&gt;tda_nfov_pc_log -->
<g id="edge52" class="edge">
<title>trans_nfov_pc_l4_tda&#45;&gt;tda_nfov_pc_log</title>
<path fill="none" stroke="black" d="M4221.7,-836.48C4221.7,-836.48 4257.37,-836.48 4257.37,-836.48"/>
<polygon fill="black" stroke="black" points="4257.37,-839.98 4267.37,-836.48 4257.37,-832.98 4257.37,-839.98"/>
</g>
<!-- l1_nfov_pc_prod -->
<g id="node8" class="node">
<title>l1_nfov_pc_prod</title>
<polygon fill="none" stroke="black" points="236.74,-257.48 42.74,-257.48 42.74,-221.48 236.74,-221.48 236.74,-257.48"/>
<text text-anchor="middle" x="139.74" y="-235.78" font-family="Times,serif" font-size="14.00">L1_nfov_pc products 1..b</text>
</g>
<!-- l1_nfov_pc_prod&#45;&gt;trans_nfov_pc_l1_l2a -->
<g id="edge1" class="edge">
<title>l1_nfov_pc_prod&#45;&gt;trans_nfov_pc_l1_l2a</title>
<path fill="none" stroke="black" d="M236.86,-239.48C236.86,-239.48 365.4,-239.48 365.4,-239.48"/>
<polygon fill="black" stroke="black" points="365.4,-242.98 375.4,-239.48 365.4,-235.98 365.4,-242.98"/>
</g>
<!-- l1_nfov_pc_man -->
<g id="node9" class="node">
<title>l1_nfov_pc_man</title>
<ellipse fill="none" stroke="black" cx="139.74" cy="-185.48" rx="126.18" ry="18"/>
<text text-anchor="middle" x="139.74" y="-181.78" font-family="Times,serif" font-size="14.00">L1_nfov_pc manifest 1..1</text>
</g>
<!-- l1_nfov_pc_man&#45;&gt;trans_nfov_pc_l1_l2a -->
<g id="edge2" class="edge">
<title>l1_nfov_pc_man&#45;&gt;trans_nfov_pc_l1_l2a</title>
<path fill="none" stroke="black" d="M266.05,-185.48C266.05,-185.48 317.3,-185.48 317.3,-185.48"/>
<polygon fill="black" stroke="black" points="317.3,-188.98 327.3,-185.48 317.3,-181.98 317.3,-188.98"/>
</g>
<!-- l1_nfov_pc_odir -->
<g id="node10" class="node">
<title>l1_nfov_pc_odir</title>
<ellipse fill="none" stroke="black" cx="139.74" cy="-131.48" rx="139.98" ry="18"/>
<text text-anchor="middle" x="139.74" y="-127.78" font-family="Times,serif" font-size="14.00">L1_nfov_pc output path 1..1</text>
</g>
<!-- l1_nfov_pc_odir&#45;&gt;trans_nfov_pc_l1_l2a -->
<g id="edge3" class="edge">
<title>l1_nfov_pc_odir&#45;&gt;trans_nfov_pc_l1_l2a</title>
<path fill="none" stroke="black" d="M279.72,-131.48C279.72,-131.48 305.06,-131.48 305.06,-131.48"/>
<polygon fill="black" stroke="black" points="305.06,-134.98 315.06,-131.48 305.06,-127.98 305.06,-134.98"/>
</g>
<!-- l1_nfov_pc_rec -->
<g id="node11" class="node">
<title>l1_nfov_pc_rec</title>
<polygon fill="none" stroke="black" points="215.74,-89.48 51.74,-89.48 51.74,-65.48 215.74,-65.48 227.74,-77.48 215.74,-89.48"/>
<text text-anchor="middle" x="139.74" y="-73.78" font-family="Times,serif" font-size="14.00">L1_nfov_pc recipe 1..1</text>
</g>
<!-- l1_nfov_pc_rec&#45;&gt;trans_nfov_pc_l1_l2a -->
<g id="edge4" class="edge">
<title>l1_nfov_pc_rec&#45;&gt;trans_nfov_pc_l1_l2a</title>
<path fill="none" stroke="black" d="M227.79,-77.48C227.79,-77.48 317.38,-77.48 317.38,-77.48"/>
<polygon fill="black" stroke="black" points="317.38,-80.98 327.38,-77.48 317.38,-73.98 317.38,-80.98"/>
</g>
<!-- l1_nfov_pc_nllut -->
<g id="node12" class="node">
<title>l1_nfov_pc_nllut</title>
<polygon fill="none" stroke="black" points="246.24,-35.48 21.24,-35.48 21.24,-11.48 246.24,-11.48 258.24,-23.48 246.24,-35.48"/>
<text text-anchor="middle" x="139.74" y="-19.78" font-family="Times,serif" font-size="14.00">L1_nfov_pc non&#45;linear LUT 1..1</text>
</g>
<!-- l1_nfov_pc_nllut&#45;&gt;trans_nfov_pc_l1_l2a -->
<g id="edge5" class="edge">
<title>l1_nfov_pc_nllut&#45;&gt;trans_nfov_pc_l1_l2a</title>
<path fill="none" stroke="black" d="M258.63,-23.48C258.63,-23.48 365.33,-23.48 365.33,-23.48"/>
<polygon fill="black" stroke="black" points="365.33,-26.98 375.33,-23.48 365.33,-19.98 365.33,-26.98"/>
</g>
<!-- l2a_nfov_pc_prod&#45;&gt;trans_nfov_pc_l2a_l2b -->
<g id="edge9" class="edge">
<title>l2a_nfov_pc_prod&#45;&gt;trans_nfov_pc_l2a_l2b</title>
<path fill="none" stroke="black" d="M1012.44,-268.63C1012.44,-282.22 1012.44,-298.48 1012.44,-298.48 1012.44,-298.48 1548.45,-298.48 1548.45,-298.48"/>
<polygon fill="black" stroke="black" points="1548.45,-301.98 1558.45,-298.48 1548.45,-294.98 1548.45,-301.98"/>
</g>
<!-- l2a_nfov_pc_man&#45;&gt;l2a_nfov_pc_demux -->
<g id="edge21" class="edge">
<title>l2a_nfov_pc_man&#45;&gt;l2a_nfov_pc_demux</title>
<path fill="none" stroke="black" d="M868.67,-131.48C868.67,-131.48 896.93,-131.48 896.93,-131.48"/>
<polygon fill="black" stroke="black" points="896.93,-134.98 906.93,-131.48 896.93,-127.98 896.93,-134.98"/>
</g>
<!-- l2a_nfov_pc_odir -->
<g id="node15" class="node">
<title>l2a_nfov_pc_odir</title>
<ellipse fill="none" stroke="black" cx="1309.07" cy="-651.48" rx="145.67" ry="18"/>
<text text-anchor="middle" x="1309.07" y="-647.78" font-family="Times,serif" font-size="14.00">L2a_nfov_pc output path 1..1</text>
</g>
<!-- l2a_nfov_pc_odir&#45;&gt;trans_nfov_pc_l2a_l2b -->
<g id="edge11" class="edge">
<title>l2a_nfov_pc_odir&#45;&gt;trans_nfov_pc_l2a_l2b</title>
<path fill="none" stroke="black" d="M1453.94,-649.48C1553.74,-649.48 1668.44,-649.48 1668.44,-649.48 1668.44,-649.48 1668.44,-536.56 1668.44,-536.56"/>
<polygon fill="black" stroke="black" points="1671.94,-536.56 1668.44,-526.56 1664.94,-536.56 1671.94,-536.56"/>
</g>
<!-- l2a_nfov_pc_rec -->
<g id="node16" class="node">
<title>l2a_nfov_pc_rec</title>
<polygon fill="none" stroke="black" points="1389.07,-609.48 1217.07,-609.48 1217.07,-585.48 1389.07,-585.48 1401.07,-597.48 1389.07,-609.48"/>
<text text-anchor="middle" x="1309.07" y="-593.78" font-family="Times,serif" font-size="14.00">L2a_nfov_pc recipe 1..1</text>
</g>
<!-- l2a_nfov_pc_rec&#45;&gt;trans_nfov_pc_l2a_l2b -->
<g id="edge12" class="edge">
<title>l2a_nfov_pc_rec&#45;&gt;trans_nfov_pc_l2a_l2b</title>
<path fill="none" stroke="black" d="M1401.19,-595.48C1480.9,-595.48 1583.44,-595.48 1583.44,-595.48 1583.44,-595.48 1583.44,-536.71 1583.44,-536.71"/>
<polygon fill="black" stroke="black" points="1586.94,-536.71 1583.44,-526.71 1579.94,-536.71 1586.94,-536.71"/>
</g>
<!-- l2a_nfov_pc_cti -->
<g id="node17" class="node">
<title>l2a_nfov_pc_cti</title>
<polygon fill="none" stroke="black" points="1450.57,-555.48 1155.57,-555.48 1155.57,-531.48 1450.57,-531.48 1462.57,-543.48 1450.57,-555.48"/>
<text text-anchor="middle" x="1309.07" y="-539.78" font-family="Times,serif" font-size="14.00">L2a_nfov_pc charge xfer inefficiency 1..1</text>
</g>
<!-- l2a_nfov_pc_cti&#45;&gt;trans_nfov_pc_l2a_l2b -->
<g id="edge13" class="edge">
<title>l2a_nfov_pc_cti&#45;&gt;trans_nfov_pc_l2a_l2b</title>
<path fill="none" stroke="black" stroke-dasharray="5,2" d="M1462.82,-529.62C1462.82,-529.62 1583.47,-529.62 1583.47,-529.62"/>
<polygon fill="black" stroke="black" points="1583.47,-533.12 1593.47,-529.62 1583.47,-526.12 1583.47,-533.12"/>
</g>
<!-- l2a_nfov_pc_dnb -->
<g id="node18" class="node">
<title>l2a_nfov_pc_dnb</title>
<polygon fill="none" stroke="black" points="1432.07,-501.48 1174.07,-501.48 1174.07,-475.48 1432.07,-475.48 1444.07,-488.48 1432.07,-501.48"/>
<text text-anchor="middle" x="1309.07" y="-492.28" font-family="Times,serif" font-size="14.00">L2a_nfov_pc CIC/Dark Current/FPN</text>
<text text-anchor="middle" x="1309.07" y="-477.28" font-family="Times,serif" font-size="14.00"> or master dark 1..1</text>
</g>
<!-- l2a_nfov_pc_dnb&#45;&gt;trans_nfov_pc_l2a_l2b -->
<g id="edge14" class="edge">
<title>l2a_nfov_pc_dnb&#45;&gt;trans_nfov_pc_l2a_l2b</title>
<path fill="none" stroke="black" d="M1444.33,-488.48C1444.33,-488.48 1518.4,-488.48 1518.4,-488.48"/>
<polygon fill="black" stroke="black" points="1518.4,-491.98 1528.4,-488.48 1518.4,-484.98 1518.4,-491.98"/>
</g>
<!-- l2a_nfov_pc_mbpm -->
<g id="node19" class="node">
<title>l2a_nfov_pc_mbpm</title>
<polygon fill="none" stroke="black" points="1444.57,-445.48 1161.57,-445.48 1161.57,-421.48 1444.57,-421.48 1456.57,-433.48 1444.57,-445.48"/>
<text text-anchor="middle" x="1309.07" y="-429.78" font-family="Times,serif" font-size="14.00">L2a_nfov_pc master bad pixel map 1..1</text>
</g>
<!-- l2a_nfov_pc_mbpm&#45;&gt;trans_nfov_pc_l2a_l2b -->
<g id="edge15" class="edge">
<title>l2a_nfov_pc_mbpm&#45;&gt;trans_nfov_pc_l2a_l2b</title>
<path fill="none" stroke="black" d="M1456.79,-433.48C1456.79,-433.48 1491.17,-433.48 1491.17,-433.48"/>
<polygon fill="black" stroke="black" points="1491.17,-436.98 1501.17,-433.48 1491.17,-429.98 1491.17,-436.98"/>
</g>
<!-- l2a_nfov_pc_ff -->
<g id="node20" class="node">
<title>l2a_nfov_pc_ff</title>
<polygon fill="none" stroke="black" points="1400.07,-391.48 1206.07,-391.48 1206.07,-367.48 1400.07,-367.48 1412.07,-379.48 1400.07,-391.48"/>
<text text-anchor="middle" x="1309.07" y="-375.78" font-family="Times,serif" font-size="14.00">L2a_nfov_pc flat fields 1..1</text>
</g>
<!-- l2a_nfov_pc_ff&#45;&gt;trans_nfov_pc_l2a_l2b -->
<g id="edge16" class="edge">
<title>l2a_nfov_pc_ff&#45;&gt;trans_nfov_pc_l2a_l2b</title>
<path fill="none" stroke="black" d="M1412.36,-379.48C1412.36,-379.48 1491.43,-379.48 1491.43,-379.48"/>
<polygon fill="black" stroke="black" points="1491.43,-382.98 1501.43,-379.48 1491.43,-375.98 1491.43,-382.98"/>
</g>
<!-- l2a_nfov_pc_emg -->
<g id="node21" class="node">
<title>l2a_nfov_pc_emg</title>
<polygon fill="none" stroke="black" points="1397.07,-337.48 1209.07,-337.48 1209.07,-313.48 1397.07,-313.48 1409.07,-325.48 1397.07,-337.48"/>
<text text-anchor="middle" x="1309.07" y="-321.78" font-family="Times,serif" font-size="14.00">L2a_nfov_pc EM gain 1..1</text>
</g>
<!-- l2a_nfov_pc_emg&#45;&gt;trans_nfov_pc_l2a_l2b -->
<g id="edge17" class="edge">
<title>l2a_nfov_pc_emg&#45;&gt;trans_nfov_pc_l2a_l2b</title>
<path fill="none" stroke="black" d="M1409.3,-325.48C1409.3,-325.48 1517.63,-325.48 1517.63,-325.48"/>
<polygon fill="black" stroke="black" points="1517.63,-328.98 1527.63,-325.48 1517.63,-321.98 1517.63,-328.98"/>
</g>
<!-- l2a_nfov_pc_kgain -->
<g id="node22" class="node">
<title>l2a_nfov_pc_kgain</title>
<polygon fill="none" stroke="black" points="1383.57,-283.48 1222.57,-283.48 1222.57,-259.48 1383.57,-259.48 1395.57,-271.48 1383.57,-283.48"/>
<text text-anchor="middle" x="1309.07" y="-267.78" font-family="Times,serif" font-size="14.00">L2_nfov_pc Kgain 1..1</text>
</g>
<!-- l2a_nfov_pc_kgain&#45;&gt;trans_nfov_pc_l2a_l2b -->
<g id="edge10" class="edge">
<title>l2a_nfov_pc_kgain&#45;&gt;trans_nfov_pc_l2a_l2b</title>
<path fill="none" stroke="black" d="M1395.63,-286.05C1395.63,-286.05 1574.33,-286.05 1574.33,-286.05"/>
<polygon fill="black" stroke="black" points="1574.34,-289.55 1584.33,-286.05 1574.33,-282.55 1574.34,-289.55"/>
</g>
<!-- l2a_nfov_pc_man_demux&#45;&gt;trans_nfov_pc_l2a_l2b -->
<g id="edge23" class="edge">
<title>l2a_nfov_pc_man_demux&#45;&gt;trans_nfov_pc_l2a_l2b</title>
<path fill="none" stroke="black" d="M1433.44,-165.04C1433.44,-194.61 1433.44,-282.63 1433.44,-282.63 1433.44,-282.63 1586.21,-282.63 1586.21,-282.63"/>
<polygon fill="black" stroke="black" points="1586.21,-286.13 1596.21,-282.63 1586.21,-279.13 1586.21,-286.13"/>
</g>
<!-- l2b_nfov_pc_prod&#45;&gt;trans_nfov_pc_l2b_l3 -->
<g id="edge26" class="edge">
<title>l2b_nfov_pc_prod&#45;&gt;trans_nfov_pc_l2b_l3</title>
<path fill="none" stroke="black" d="M2319.35,-509.48C2319.35,-509.48 2722.84,-509.48 2722.84,-509.48"/>
<polygon fill="black" stroke="black" points="2722.84,-512.98 2732.84,-509.48 2722.84,-505.98 2722.84,-512.98"/>
</g>
<!-- l2b_nfov_pc_man&#45;&gt;trans_nfov_pc_l2b_l3 -->
<g id="edge27" class="edge">
<title>l2b_nfov_pc_man&#45;&gt;trans_nfov_pc_l2b_l3</title>
<path fill="none" stroke="black" d="M2638.44,-431.08C2638.44,-442.78 2638.44,-472.72 2638.44,-472.72 2638.44,-472.72 2778.26,-472.72 2778.26,-472.72"/>
<polygon fill="black" stroke="black" points="2778.26,-476.22 2788.26,-472.72 2778.26,-469.22 2778.26,-476.22"/>
</g>
<!-- l2b_nfov_pc_odir -->
<g id="node27" class="node">
<title>l2b_nfov_pc_odir</title>
<ellipse fill="none" stroke="black" cx="2510.3" cy="-755.48" rx="145.67" ry="18"/>
<text text-anchor="middle" x="2510.3" y="-751.78" font-family="Times,serif" font-size="14.00">L2b_nfov_pc output path 1..1</text>
</g>
<!-- l2b_nfov_pc_odir&#45;&gt;trans_nfov_pc_l2b_l3 -->
<g id="edge28" class="edge">
<title>l2b_nfov_pc_odir&#45;&gt;trans_nfov_pc_l2b_l3</title>
<path fill="none" stroke="black" d="M2629.44,-744.83C2629.44,-730.69 2629.44,-707.48 2629.44,-707.48 2629.44,-707.48 2761.78,-707.48 2761.78,-707.48"/>
<polygon fill="black" stroke="black" points="2761.78,-710.98 2771.78,-707.48 2761.78,-703.98 2761.78,-710.98"/>
</g>
<!-- l2b_nfov_pc_rec -->
<g id="node28" class="node">
<title>l2b_nfov_pc_rec</title>
<polygon fill="none" stroke="black" points="2590.8,-713.48 2417.8,-713.48 2417.8,-689.48 2590.8,-689.48 2602.8,-701.48 2590.8,-713.48"/>
<text text-anchor="middle" x="2510.3" y="-697.78" font-family="Times,serif" font-size="14.00">L2b_nfov_pc recipe 1..1</text>
</g>
<!-- l2b_nfov_pc_rec&#45;&gt;trans_nfov_pc_l2b_l3 -->
<g id="edge29" class="edge">
<title>l2b_nfov_pc_rec&#45;&gt;trans_nfov_pc_l2b_l3</title>
<path fill="none" stroke="black" d="M2603.22,-695.48C2603.22,-695.48 2742.43,-695.48 2742.43,-695.48"/>
<polygon fill="black" stroke="black" points="2742.43,-698.98 2752.43,-695.48 2742.43,-691.98 2742.43,-698.98"/>
</g>
<!-- l2b_nfov_pc_excicrf -->
<g id="node29" class="node">
<title>l2b_nfov_pc_excicrf</title>
<polygon fill="none" stroke="black" points="2646.3,-659.48 2362.3,-659.48 2362.3,-635.48 2646.3,-635.48 2658.3,-647.48 2646.3,-659.48"/>
<text text-anchor="middle" x="2510.3" y="-643.78" font-family="Times,serif" font-size="14.00">L2b_nfov_pc EXCAM ICRF location 1..1</text>
</g>
<!-- l2b_nfov_pc_excicrf&#45;&gt;trans_nfov_pc_l2b_l3 -->
<g id="edge30" class="edge">
<title>l2b_nfov_pc_excicrf&#45;&gt;trans_nfov_pc_l2b_l3</title>
<path fill="none" stroke="black" d="M2658.73,-647.48C2658.73,-647.48 2703.26,-647.48 2703.26,-647.48"/>
<polygon fill="black" stroke="black" points="2703.26,-650.98 2713.26,-647.48 2703.26,-643.98 2703.26,-650.98"/>
</g>
<!-- l2b_nfov_pc_excfovps -->
<g id="node30" class="node">
<title>l2b_nfov_pc_excfovps</title>
<polygon fill="none" stroke="black" points="2653.3,-605.48 2355.3,-605.48 2355.3,-581.48 2653.3,-581.48 2665.3,-593.48 2653.3,-605.48"/>
<text text-anchor="middle" x="2510.3" y="-589.78" font-family="Times,serif" font-size="14.00">L2b_nfov_pc EXCAM FOV pixel scale 1..1</text>
</g>
<!-- l2b_nfov_pc_excfovps&#45;&gt;trans_nfov_pc_l2b_l3 -->
<g id="edge31" class="edge">
<title>l2b_nfov_pc_excfovps&#45;&gt;trans_nfov_pc_l2b_l3</title>
<path fill="none" stroke="black" d="M2665.71,-593.48C2665.71,-593.48 2691.04,-593.48 2691.04,-593.48"/>
<polygon fill="black" stroke="black" points="2691.04,-596.98 2701.04,-593.48 2691.04,-589.98 2691.04,-596.98"/>
</g>
<!-- l2b_nfov_pc_distm -->
<g id="node31" class="node">
<title>l2b_nfov_pc_distm</title>
<polygon fill="none" stroke="black" points="2620.8,-551.48 2387.8,-551.48 2387.8,-527.48 2620.8,-527.48 2632.8,-539.48 2620.8,-551.48"/>
<text text-anchor="middle" x="2510.3" y="-535.78" font-family="Times,serif" font-size="14.00">L2b_nfov_pc distortion map 1..1</text>
</g>
<!-- l2b_nfov_pc_distm&#45;&gt;trans_nfov_pc_l2b_l3 -->
<g id="edge32" class="edge">
<title>l2b_nfov_pc_distm&#45;&gt;trans_nfov_pc_l2b_l3</title>
<path fill="none" stroke="black" d="M2632.9,-539.48C2632.9,-539.48 2703.1,-539.48 2703.1,-539.48"/>
<polygon fill="black" stroke="black" points="2703.1,-542.98 2713.1,-539.48 2703.1,-535.98 2703.1,-542.98"/>
</g>
<!-- l2b_nfov_pc_man_demux&#45;&gt;l2b_nfov_pc_mux -->
<g id="edge24" class="edge">
<title>l2b_nfov_pc_man_demux&#45;&gt;l2b_nfov_pc_mux</title>
<path fill="none" stroke="black" d="M2080.41,-406.48C2080.41,-406.48 2115.42,-406.48 2115.42,-406.48"/>
<polygon fill="black" stroke="black" points="2115.42,-409.98 2125.42,-406.48 2115.42,-402.98 2115.42,-409.98"/>
</g>
<!-- l3_nfov_pc_prod&#45;&gt;trans_nfov_pc_l3_l4 -->
<g id="edge36" class="edge">
<title>l3_nfov_pc_prod&#45;&gt;trans_nfov_pc_l3_l4</title>
<path fill="none" stroke="black" d="M3228.73,-647.48C3228.73,-647.48 3309.26,-647.48 3309.26,-647.48"/>
<polygon fill="black" stroke="black" points="3309.26,-650.98 3319.26,-647.48 3309.26,-643.98 3309.26,-650.98"/>
</g>
<!-- l3_nfov_pc_odir -->
<g id="node35" class="node">
<title>l3_nfov_pc_odir</title>
<ellipse fill="none" stroke="black" cx="3131.6" cy="-809.48" rx="139.98" ry="18"/>
<text text-anchor="middle" x="3131.6" y="-805.78" font-family="Times,serif" font-size="14.00">L3_nfov_pc output path 1..1</text>
</g>
<!-- l3_nfov_pc_odir&#45;&gt;trans_nfov_pc_l3_l4 -->
<g id="edge38" class="edge">
<title>l3_nfov_pc_odir&#45;&gt;trans_nfov_pc_l3_l4</title>
<path fill="none" stroke="black" d="M3271.58,-809.48C3271.58,-809.48 3356.94,-809.48 3356.94,-809.48"/>
<polygon fill="black" stroke="black" points="3356.94,-812.98 3366.94,-809.48 3356.94,-805.98 3356.94,-812.98"/>
</g>
<!-- l3_nfov_pc_man&#45;&gt;trans_nfov_pc_l3_l4 -->
<g id="edge37" class="edge">
<title>l3_nfov_pc_man&#45;&gt;trans_nfov_pc_l3_l4</title>
<path fill="none" stroke="black" d="M3257.91,-593.48C3257.91,-593.48 3357.26,-593.48 3357.26,-593.48"/>
<polygon fill="black" stroke="black" points="3357.26,-596.98 3367.26,-593.48 3357.26,-589.98 3357.26,-596.98"/>
</g>
<!-- l3_nfov_pc_rec -->
<g id="node37" class="node">
<title>l3_nfov_pc_rec</title>
<polygon fill="none" stroke="black" points="3207.6,-767.48 3043.6,-767.48 3043.6,-743.48 3207.6,-743.48 3219.6,-755.48 3207.6,-767.48"/>
<text text-anchor="middle" x="3131.6" y="-751.78" font-family="Times,serif" font-size="14.00">L3_nfov_pc recipe 1..1</text>
</g>
<!-- l3_nfov_pc_rec&#45;&gt;trans_nfov_pc_l3_l4 -->
<g id="edge39" class="edge">
<title>l3_nfov_pc_rec&#45;&gt;trans_nfov_pc_l3_l4</title>
<path fill="none" stroke="black" d="M3219.65,-755.48C3219.65,-755.48 3309.24,-755.48 3309.24,-755.48"/>
<polygon fill="black" stroke="black" points="3309.24,-758.98 3319.24,-755.48 3309.24,-751.98 3309.24,-758.98"/>
</g>
<!-- l3_nfov_pc_cal -->
<g id="node38" class="node">
<title>l3_nfov_pc_cal</title>
<polygon fill="none" stroke="black" points="3223.6,-713.48 3027.6,-713.48 3027.6,-689.48 3223.6,-689.48 3235.6,-701.48 3223.6,-713.48"/>
<text text-anchor="middle" x="3131.6" y="-697.78" font-family="Times,serif" font-size="14.00">L3_nfov_pc calibration 1..1</text>
</g>
<!-- l3_nfov_pc_cal&#45;&gt;trans_nfov_pc_l3_l4 -->
<g id="edge40" class="edge">
<title>l3_nfov_pc_cal&#45;&gt;trans_nfov_pc_l3_l4</title>
<path fill="none" stroke="black" d="M3235.88,-701.48C3235.88,-701.48 3297.1,-701.48 3297.1,-701.48"/>
<polygon fill="black" stroke="black" points="3297.1,-704.98 3307.1,-701.48 3297.1,-697.98 3297.1,-704.98"/>
</g>
<!-- l4_nfov_pc_prod&#45;&gt;trans_nfov_pc_l4_tda -->
<g id="edge44" class="edge">
<title>l4_nfov_pc_prod&#45;&gt;trans_nfov_pc_l4_tda</title>
<path fill="none" stroke="black" d="M3863.05,-761.48C3863.05,-761.48 4010.81,-761.48 4010.81,-761.48"/>
<polygon fill="black" stroke="black" points="4010.81,-764.98 4020.81,-761.48 4010.81,-757.98 4010.81,-764.98"/>
</g>
<!-- l4_nfov_pc_odir -->
<g id="node41" class="node">
<title>l4_nfov_pc_odir</title>
<ellipse fill="none" stroke="black" cx="3765.9" cy="-1025.48" rx="139.98" ry="18"/>
<text text-anchor="middle" x="3765.9" y="-1021.78" font-family="Times,serif" font-size="14.00">L4_nfov_pc output path 1..1</text>
</g>
<!-- l4_nfov_pc_odir&#45;&gt;trans_nfov_pc_l4_tda -->
<g id="edge46" class="edge">
<title>l4_nfov_pc_odir&#45;&gt;trans_nfov_pc_l4_tda</title>
<path fill="none" stroke="black" d="M3880.44,-1014.83C3880.44,-1000.69 3880.44,-977.48 3880.44,-977.48 3880.44,-977.48 4030.51,-977.48 4030.51,-977.48"/>
<polygon fill="black" stroke="black" points="4030.51,-980.98 4040.51,-977.48 4030.51,-973.98 4030.51,-980.98"/>
</g>
<!-- l4_nfov_pc_man&#45;&gt;trans_nfov_pc_l4_tda -->
<g id="edge45" class="edge">
<title>l4_nfov_pc_man&#45;&gt;trans_nfov_pc_l4_tda</title>
<path fill="none" stroke="black" d="M3879.44,-655.48C3879.44,-679.53 3879.44,-749.48 3879.44,-749.48 3879.44,-749.48 4030.54,-749.48 4030.54,-749.48"/>
<polygon fill="black" stroke="black" points="4030.54,-752.98 4040.54,-749.48 4030.54,-745.98 4030.54,-752.98"/>
</g>
<!-- l4_nfov_pc_rec -->
<g id="node44" class="node">
<title>l4_nfov_pc_rec</title>
<polygon fill="none" stroke="black" points="3841.9,-983.48 3677.9,-983.48 3677.9,-959.48 3841.9,-959.48 3853.9,-971.48 3841.9,-983.48"/>
<text text-anchor="middle" x="3765.9" y="-967.78" font-family="Times,serif" font-size="14.00">L4_nfov_pc recipe 1..1</text>
</g>
<!-- l4_nfov_pc_rec&#45;&gt;trans_nfov_pc_l4_tda -->
<g id="edge47" class="edge">
<title>l4_nfov_pc_rec&#45;&gt;trans_nfov_pc_l4_tda</title>
<path fill="none" stroke="black" d="M3854.24,-965.48C3854.24,-965.48 4010.9,-965.48 4010.9,-965.48"/>
<polygon fill="black" stroke="black" points="4010.9,-968.98 4020.9,-965.48 4010.9,-961.98 4010.9,-968.98"/>
</g>
<!-- l4_nfov_pc_afcal -->
<g id="node45" class="node">
<title>l4_nfov_pc_afcal</title>
<polygon fill="none" stroke="black" points="3909.4,-929.48 3610.4,-929.48 3610.4,-905.48 3909.4,-905.48 3921.4,-917.48 3909.4,-929.48"/>
<text text-anchor="middle" x="3765.9" y="-913.78" font-family="Times,serif" font-size="14.00">L4_nfov_pc absolute flux calibrations 1..1</text>
</g>
<!-- l4_nfov_pc_afcal&#45;&gt;trans_nfov_pc_l4_tda -->
<g id="edge48" class="edge">
<title>l4_nfov_pc_afcal&#45;&gt;trans_nfov_pc_l4_tda</title>
<path fill="none" stroke="black" d="M3921.83,-917.48C3921.83,-917.48 3971.63,-917.48 3971.63,-917.48"/>
<polygon fill="black" stroke="black" points="3971.63,-920.98 3981.63,-917.48 3971.63,-913.98 3971.63,-920.98"/>
</g>
<!-- l4_nfov_pc_ctcal -->
<g id="node46" class="node">
<title>l4_nfov_pc_ctcal</title>
<polygon fill="none" stroke="black" points="3921.9,-875.48 3597.9,-875.48 3597.9,-851.48 3921.9,-851.48 3933.9,-863.48 3921.9,-875.48"/>
<text text-anchor="middle" x="3765.9" y="-859.78" font-family="Times,serif" font-size="14.00">L4_nfov_pc core throughput calibrations 1..1</text>
</g>
<!-- l4_nfov_pc_ctcal&#45;&gt;trans_nfov_pc_l4_tda -->
<g id="edge49" class="edge">
<title>l4_nfov_pc_ctcal&#45;&gt;trans_nfov_pc_l4_tda</title>
<path fill="none" stroke="black" d="M3933.96,-863.48C3933.96,-863.48 3959.69,-863.48 3959.69,-863.48"/>
<polygon fill="black" stroke="black" points="3959.69,-866.98 3969.69,-863.48 3959.69,-859.98 3959.69,-866.98"/>
</g>
<!-- l4_nfov_pc_ndfilt -->
<g id="node47" class="node">
<title>l4_nfov_pc_ndfilt</title>
<polygon fill="none" stroke="black" points="3850.9,-821.48 3668.9,-821.48 3668.9,-797.48 3850.9,-797.48 3862.9,-809.48 3850.9,-821.48"/>
<text text-anchor="middle" x="3765.9" y="-805.78" font-family="Times,serif" font-size="14.00">L4_nfov_pc ND filter 1..1</text>
</g>
<!-- l4_nfov_pc_ndfilt&#45;&gt;trans_nfov_pc_l4_tda -->
<g id="edge50" class="edge">
<title>l4_nfov_pc_ndfilt&#45;&gt;trans_nfov_pc_l4_tda</title>
<path fill="none" stroke="black" d="M3863.05,-809.48C3863.05,-809.48 3971.88,-809.48 3971.88,-809.48"/>
<polygon fill="black" stroke="black" points="3971.88,-812.98 3981.88,-809.48 3971.88,-805.98 3971.88,-812.98"/>
</g>
</g>
</svg>
