<?xml version="1.0" encoding="UTF-8" standalone="no"?>
<!DOCTYPE svg PUBLIC "-//W3C//DTD SVG 1.1//EN"
 "http://www.w3.org/Graphics/SVG/1.1/DTD/svg11.dtd">
<!-- Generated by graphviz version 2.43.0 (0)
 -->
<!-- Title: AbstractDesign Pages: 1 -->
<svg width="3577pt" height="998pt"
 viewBox="0.00 0.00 3577.44 998.00" xmlns="http://www.w3.org/2000/svg" xmlns:xlink="http://www.w3.org/1999/xlink">
<g id="graph0" class="graph" transform="scale(1 1) rotate(0) translate(4 994)">
<title>AbstractDesign</title>
<polygon fill="white" stroke="transparent" points="-4,4 -4,-994 3573.44,-994 3573.44,4 -4,4"/>
<!-- trans_nfov_a_l1_l2a -->
<g id="node1" class="node">
<title>trans_nfov_a_l1_l2a</title>
<ellipse fill="none" stroke="black" cx="348.65" cy="-126" rx="96.75" ry="96.75"/>
<text text-anchor="middle" x="348.65" y="-129.8" font-family="Times,serif" font-size="14.00">nfov_a Transmutation</text>
<text text-anchor="middle" x="348.65" y="-114.8" font-family="Times,serif" font-size="14.00">L1 to L2a</text>
</g>
<!-- l2a_nfov_a_prod -->
<g id="node13" class="node">
<title>l2a_nfov_a_prod</title>
<polygon fill="none" stroke="black" points="885.56,-245 728.56,-245 728.56,-209 885.56,-209 885.56,-245"/>
<text text-anchor="middle" x="807.06" y="-223.3" font-family="Times,serif" font-size="14.00">L2a_nfov_a products 1..b</text>
</g>
<!-- trans_nfov_a_l1_l2a&#45;&gt;l2a_nfov_a_prod -->
<g id="edge6" class="edge">
<title>trans_nfov_a_l1_l2a&#45;&gt;l2a_nfov_a_prod</title>
<path fill="none" stroke="black" d="M385.01,-215.94C385.01,-215.94 718.44,-215.94 718.44,-215.94"/>
<polygon fill="black" stroke="black" points="718.44,-219.44 728.44,-215.94 718.44,-212.44 718.44,-219.44"/>
</g>
<!-- l2a_nfov_a_man -->
<g id="node14" class="node">
<title>l2a_nfov_a_man</title>
<ellipse fill="none" stroke="black" cx="584.22" cy="-126" rx="102.88" ry="18"/>
<text text-anchor="middle" x="584.22" y="-122.3" font-family="Times,serif" font-size="14.00">L2a_nfov_a manifest 1..1</text>
</g>
<!-- trans_nfov_a_l1_l2a&#45;&gt;l2a_nfov_a_man -->
<g id="edge7" class="edge">
<title>trans_nfov_a_l1_l2a&#45;&gt;l2a_nfov_a_man</title>
<path fill="none" stroke="black" d="M445.83,-126C445.83,-126 471.16,-126 471.16,-126"/>
<polygon fill="black" stroke="black" points="471.16,-129.5 481.16,-126 471.16,-122.5 471.16,-129.5"/>
</g>
<!-- l2a_nfov_a_log -->
<g id="node22" class="node">
<title>l2a_nfov_a_log</title>
<ellipse fill="none" stroke="black" cx="584.22" cy="-72" rx="83.39" ry="18"/>
<text text-anchor="middle" x="584.22" y="-68.3" font-family="Times,serif" font-size="14.00">L2a log_nfov_a 1..1</text>
</g>
<!-- trans_nfov_a_l1_l2a&#45;&gt;l2a_nfov_a_log -->
<g id="edge8" class="edge">
<title>trans_nfov_a_l1_l2a&#45;&gt;l2a_nfov_a_log</title>
<path fill="none" stroke="black" d="M429.39,-72C429.39,-72 490.78,-72 490.78,-72"/>
<polygon fill="black" stroke="black" points="490.78,-75.5 500.78,-72 490.78,-68.5 490.78,-75.5"/>
</g>
<!-- l2a_nfov_a_demux -->
<g id="node2" class="node">
<title>l2a_nfov_a_demux</title>
<ellipse fill="none" stroke="black" cx="807.06" cy="-107" rx="84.29" ry="84.29"/>
<text text-anchor="middle" x="807.06" y="-110.8" font-family="Times,serif" font-size="14.00">nfov_a l2a Demux</text>
<text text-anchor="middle" x="807.06" y="-95.8" font-family="Times,serif" font-size="14.00">Exposure</text>
</g>
<!-- l2a_nfov_a_man_demux -->
<g id="node23" class="node">
<title>l2a_nfov_a_man_demux</title>
<ellipse fill="none" stroke="black" cx="1054.2" cy="-144" rx="113.98" ry="18"/>
<text text-anchor="middle" x="1054.2" y="-140.3" font-family="Times,serif" font-size="14.00">L2a_nfov_a(E) manifest 1..1</text>
</g>
<!-- l2a_nfov_a_demux&#45;&gt;l2a_nfov_a_man_demux -->
<g id="edge21" class="edge">
<title>l2a_nfov_a_demux&#45;&gt;l2a_nfov_a_man_demux</title>
<path fill="none" stroke="black" d="M882.89,-144C882.89,-144 930.3,-144 930.3,-144"/>
<polygon fill="black" stroke="black" points="930.3,-147.5 940.3,-144 930.3,-140.5 930.3,-147.5"/>
</g>
<!-- trans_nfov_a_l2a_l2b -->
<g id="node3" class="node">
<title>trans_nfov_a_l2a_l2b</title>
<ellipse fill="none" stroke="black" cx="1314.07" cy="-362" rx="96.75" ry="96.75"/>
<text text-anchor="middle" x="1314.07" y="-365.8" font-family="Times,serif" font-size="14.00">nfov_a Transmutation</text>
<text text-anchor="middle" x="1314.07" y="-350.8" font-family="Times,serif" font-size="14.00">L2a to L2b</text>
</g>
<!-- l2b_nfov_a_prod -->
<g id="node24" class="node">
<title>l2b_nfov_a_prod</title>
<polygon fill="none" stroke="black" points="1869.73,-474 1711.73,-474 1711.73,-438 1869.73,-438 1869.73,-474"/>
<text text-anchor="middle" x="1790.73" y="-452.3" font-family="Times,serif" font-size="14.00">L2b_nfov_a products 1..1</text>
</g>
<!-- trans_nfov_a_l2a_l2b&#45;&gt;l2b_nfov_a_prod -->
<g id="edge17" class="edge">
<title>trans_nfov_a_l2a_l2b&#45;&gt;l2b_nfov_a_prod</title>
<path fill="none" stroke="black" d="M1358.06,-448.44C1358.06,-448.44 1701.55,-448.44 1701.55,-448.44"/>
<polygon fill="black" stroke="black" points="1701.55,-451.94 1711.55,-448.44 1701.55,-444.94 1701.55,-451.94"/>
</g>
<!-- l2b_nfov_a_man_demux -->
<g id="node31" class="node">
<title>l2b_nfov_a_man_demux</title>
<ellipse fill="none" stroke="black" cx="1561.34" cy="-362" rx="114.28" ry="18"/>
<text text-anchor="middle" x="1561.34" y="-358.3" font-family="Times,serif" font-size="14.00">L2b_nfov_a(E) manifest 1..1</text>
</g>
<!-- trans_nfov_a_l2a_l2b&#45;&gt;l2b_nfov_a_man_demux -->
<g id="edge18" class="edge">
<title>trans_nfov_a_l2a_l2b&#45;&gt;l2b_nfov_a_man_demux</title>
<path fill="none" stroke="black" d="M1411.09,-362C1411.09,-362 1436.55,-362 1436.55,-362"/>
<polygon fill="black" stroke="black" points="1436.55,-365.5 1446.55,-362 1436.55,-358.5 1436.55,-365.5"/>
</g>
<!-- l2b_nfov_a_log -->
<g id="node32" class="node">
<title>l2b_nfov_a_log</title>
<ellipse fill="none" stroke="black" cx="1561.34" cy="-308" rx="83.39" ry="18"/>
<text text-anchor="middle" x="1561.34" y="-304.3" font-family="Times,serif" font-size="14.00">L2b_nfov_a log 1..1</text>
</g>
<!-- trans_nfov_a_l2a_l2b&#45;&gt;l2b_nfov_a_log -->
<g id="edge19" class="edge">
<title>trans_nfov_a_l2a_l2b&#45;&gt;l2b_nfov_a_log</title>
<path fill="none" stroke="black" d="M1394.7,-308C1394.7,-308 1467.86,-308 1467.86,-308"/>
<polygon fill="black" stroke="black" points="1467.86,-311.5 1477.86,-308 1467.86,-304.5 1467.86,-311.5"/>
</g>
<!-- l2b_nfov_a_mux -->
<g id="node4" class="node">
<title>l2b_nfov_a_mux</title>
<ellipse fill="none" stroke="black" cx="1790.73" cy="-346" rx="74.49" ry="74.49"/>
<text text-anchor="middle" x="1790.73" y="-349.8" font-family="Times,serif" font-size="14.00">nfov_a l2b Mux</text>
<text text-anchor="middle" x="1790.73" y="-334.8" font-family="Times,serif" font-size="14.00">Exposure</text>
</g>
<!-- l2b_nfov_a_man -->
<g id="node25" class="node">
<title>l2b_nfov_a_man</title>
<ellipse fill="none" stroke="black" cx="2031.73" cy="-378" rx="102.88" ry="18"/>
<text text-anchor="middle" x="2031.73" y="-374.3" font-family="Times,serif" font-size="14.00">L2b_nfov_a manifest 1..1</text>
</g>
<!-- l2b_nfov_a_mux&#45;&gt;l2b_nfov_a_man -->
<g id="edge24" class="edge">
<title>l2b_nfov_a_mux&#45;&gt;l2b_nfov_a_man</title>
<path fill="none" stroke="black" d="M1857.86,-378C1857.86,-378 1918.87,-378 1918.87,-378"/>
<polygon fill="black" stroke="black" points="1918.87,-381.5 1928.87,-378 1918.87,-374.5 1918.87,-381.5"/>
</g>
<!-- trans_nfov_a_l2b_l3 -->
<g id="node5" class="node">
<title>trans_nfov_a_l2b_l3</title>
<ellipse fill="none" stroke="black" cx="2290.6" cy="-540" rx="96.75" ry="96.75"/>
<text text-anchor="middle" x="2290.6" y="-543.8" font-family="Times,serif" font-size="14.00">nfov_a Transmutation</text>
<text text-anchor="middle" x="2290.6" y="-528.8" font-family="Times,serif" font-size="14.00">L2b to L3</text>
</g>
<!-- l3_nfov_a_prod -->
<g id="node33" class="node">
<title>l3_nfov_a_prod</title>
<polygon fill="none" stroke="black" points="2606.87,-612 2455.87,-612 2455.87,-576 2606.87,-576 2606.87,-612"/>
<text text-anchor="middle" x="2531.37" y="-590.3" font-family="Times,serif" font-size="14.00">L3_nfov_a products 1..1</text>
</g>
<!-- trans_nfov_a_l2b_l3&#45;&gt;l3_nfov_a_prod -->
<g id="edge32" class="edge">
<title>trans_nfov_a_l2b_l3&#45;&gt;l3_nfov_a_prod</title>
<path fill="none" stroke="black" d="M2371.11,-594C2371.11,-594 2445.82,-594 2445.82,-594"/>
<polygon fill="black" stroke="black" points="2445.82,-597.5 2455.82,-594 2445.82,-590.5 2445.82,-597.5"/>
</g>
<!-- l3_nfov_a_man -->
<g id="node35" class="node">
<title>l3_nfov_a_man</title>
<ellipse fill="none" stroke="black" cx="2531.37" cy="-540" rx="98.58" ry="18"/>
<text text-anchor="middle" x="2531.37" y="-536.3" font-family="Times,serif" font-size="14.00">L3_nfov_a manifest 1..1</text>
</g>
<!-- trans_nfov_a_l2b_l3&#45;&gt;l3_nfov_a_man -->
<g id="edge33" class="edge">
<title>trans_nfov_a_l2b_l3&#45;&gt;l3_nfov_a_man</title>
<path fill="none" stroke="black" d="M2387.49,-540C2387.49,-540 2422.32,-540 2422.32,-540"/>
<polygon fill="black" stroke="black" points="2422.32,-543.5 2432.32,-540 2422.32,-536.5 2422.32,-543.5"/>
</g>
<!-- l3_nfov_a_log -->
<g id="node38" class="node">
<title>l3_nfov_a_log</title>
<ellipse fill="none" stroke="black" cx="2531.37" cy="-486" rx="79.09" ry="18"/>
<text text-anchor="middle" x="2531.37" y="-482.3" font-family="Times,serif" font-size="14.00">L3_nfov_a log 1..1</text>
</g>
<!-- trans_nfov_a_l2b_l3&#45;&gt;l3_nfov_a_log -->
<g id="edge34" class="edge">
<title>trans_nfov_a_l2b_l3&#45;&gt;l3_nfov_a_log</title>
<path fill="none" stroke="black" d="M2371.11,-486C2371.11,-486 2441.76,-486 2441.76,-486"/>
<polygon fill="black" stroke="black" points="2441.76,-489.5 2451.76,-486 2441.76,-482.5 2441.76,-489.5"/>
</g>
<!-- trans_nfov_a_l3_l4 -->
<g id="node6" class="node">
<title>trans_nfov_a_l3_l4</title>
<ellipse fill="none" stroke="black" cx="2772.13" cy="-648" rx="96.75" ry="96.75"/>
<text text-anchor="middle" x="2772.13" y="-651.8" font-family="Times,serif" font-size="14.00">nfov_a Transmutation</text>
<text text-anchor="middle" x="2772.13" y="-636.8" font-family="Times,serif" font-size="14.00">L3 to L4</text>
</g>
<!-- l4_nfov_a_prod -->
<g id="node39" class="node">
<title>l4_nfov_a_prod</title>
<polygon fill="none" stroke="black" points="3109,-720 2958,-720 2958,-684 3109,-684 3109,-720"/>
<text text-anchor="middle" x="3033.5" y="-698.3" font-family="Times,serif" font-size="14.00">L4_nfov_a products 1..1</text>
</g>
<!-- trans_nfov_a_l3_l4&#45;&gt;l4_nfov_a_prod -->
<g id="edge40" class="edge">
<title>trans_nfov_a_l3_l4&#45;&gt;l4_nfov_a_prod</title>
<path fill="none" stroke="black" d="M2852.68,-702C2852.68,-702 2947.68,-702 2947.68,-702"/>
<polygon fill="black" stroke="black" points="2947.68,-705.5 2957.68,-702 2947.68,-698.5 2947.68,-705.5"/>
</g>
<!-- l4_nfov_a_log -->
<g id="node41" class="node">
<title>l4_nfov_a_log</title>
<ellipse fill="none" stroke="black" cx="3033.5" cy="-648" rx="79.09" ry="18"/>
<text text-anchor="middle" x="3033.5" y="-644.3" font-family="Times,serif" font-size="14.00">L4_nfov_a log 1..1</text>
</g>
<!-- trans_nfov_a_l3_l4&#45;&gt;l4_nfov_a_log -->
<g id="edge41" class="edge">
<title>trans_nfov_a_l3_l4&#45;&gt;l4_nfov_a_log</title>
<path fill="none" stroke="black" d="M2869.08,-648C2869.08,-648 2943.8,-648 2943.8,-648"/>
<polygon fill="black" stroke="black" points="2943.8,-651.5 2953.8,-648 2943.8,-644.5 2943.8,-651.5"/>
</g>
<!-- l4_nfov_a_man -->
<g id="node42" class="node">
<title>l4_nfov_a_man</title>
<ellipse fill="none" stroke="black" cx="3033.5" cy="-594" rx="98.58" ry="18"/>
<text text-anchor="middle" x="3033.5" y="-590.3" font-family="Times,serif" font-size="14.00">L4_nfov_a manifest 1..1</text>
</g>
<!-- trans_nfov_a_l3_l4&#45;&gt;l4_nfov_a_man -->
<g id="edge42" class="edge">
<title>trans_nfov_a_l3_l4&#45;&gt;l4_nfov_a_man</title>
<path fill="none" stroke="black" d="M2852.68,-594C2852.68,-594 2924.32,-594 2924.32,-594"/>
<polygon fill="black" stroke="black" points="2924.32,-597.5 2934.32,-594 2924.32,-590.5 2924.32,-597.5"/>
</g>
<!-- trans_nfov_a_l4_tda -->
<g id="node7" class="node">
<title>trans_nfov_a_l4_tda</title>
<ellipse fill="none" stroke="black" cx="3294.88" cy="-810" rx="96.75" ry="96.75"/>
<text text-anchor="middle" x="3294.88" y="-813.8" font-family="Times,serif" font-size="14.00">nfov_a Transmutation</text>
<text text-anchor="middle" x="3294.88" y="-798.8" font-family="Times,serif" font-size="14.00">L4 to TDA</text>
</g>
<!-- tda_nfov_a_prod -->
<g id="node47" class="node">
<title>tda_nfov_a_prod</title>
<ellipse fill="none" stroke="black" cx="3498.59" cy="-837" rx="70.69" ry="18"/>
<text text-anchor="middle" x="3498.59" y="-833.3" font-family="Times,serif" font-size="14.00">tda_nfov_a_prod</text>
</g>
<!-- trans_nfov_a_l4_tda&#45;&gt;tda_nfov_a_prod -->
<g id="edge50" class="edge">
<title>trans_nfov_a_l4_tda&#45;&gt;tda_nfov_a_prod</title>
<path fill="none" stroke="black" d="M3388.09,-837C3388.09,-837 3417.69,-837 3417.69,-837"/>
<polygon fill="black" stroke="black" points="3417.69,-840.5 3427.69,-837 3417.69,-833.5 3417.69,-840.5"/>
</g>
<!-- tda_nfov_a_log -->
<g id="node48" class="node">
<title>tda_nfov_a_log</title>
<ellipse fill="none" stroke="black" cx="3498.59" cy="-783" rx="65.79" ry="18"/>
<text text-anchor="middle" x="3498.59" y="-779.3" font-family="Times,serif" font-size="14.00">tda_nfov_a_log</text>
</g>
<!-- trans_nfov_a_l4_tda&#45;&gt;tda_nfov_a_log -->
<g id="edge51" class="edge">
<title>trans_nfov_a_l4_tda&#45;&gt;tda_nfov_a_log</title>
<path fill="none" stroke="black" d="M3388.09,-783C3388.09,-783 3422.78,-783 3422.78,-783"/>
<polygon fill="black" stroke="black" points="3422.78,-786.5 3432.78,-783 3422.78,-779.5 3422.78,-786.5"/>
</g>
<!-- l1_nfov_a_prod -->
<g id="node8" class="node">
<title>l1_nfov_a_prod</title>
<polygon fill="none" stroke="black" points="183.39,-252 32.39,-252 32.39,-216 183.39,-216 183.39,-252"/>
<text text-anchor="middle" x="107.89" y="-230.3" font-family="Times,serif" font-size="14.00">L1_nfov_a products 1..b</text>
</g>
<!-- l1_nfov_a_prod&#45;&gt;trans_nfov_a_l1_l2a -->
<g id="edge1" class="edge">
<title>l1_nfov_a_prod&#45;&gt;trans_nfov_a_l1_l2a</title>
<path fill="none" stroke="black" d="M108.44,-215.84C108.44,-210.96 108.44,-207 108.44,-207 108.44,-207 285.34,-207 285.34,-207"/>
<polygon fill="black" stroke="black" points="285.34,-210.5 295.34,-207 285.34,-203.5 285.34,-210.5"/>
</g>
<!-- l1_nfov_a_man -->
<g id="node9" class="node">
<title>l1_nfov_a_man</title>
<ellipse fill="none" stroke="black" cx="107.89" cy="-180" rx="98.58" ry="18"/>
<text text-anchor="middle" x="107.89" y="-176.3" font-family="Times,serif" font-size="14.00">L1_nfov_a manifest 1..1</text>
</g>
<!-- l1_nfov_a_man&#45;&gt;trans_nfov_a_l1_l2a -->
<g id="edge2" class="edge">
<title>l1_nfov_a_man&#45;&gt;trans_nfov_a_l1_l2a</title>
<path fill="none" stroke="black" d="M206.86,-180C206.86,-180 258.05,-180 258.05,-180"/>
<polygon fill="black" stroke="black" points="258.05,-183.5 268.05,-180 258.05,-176.5 258.05,-183.5"/>
</g>
<!-- l1_nfov_a_odir -->
<g id="node10" class="node">
<title>l1_nfov_a_odir</title>
<ellipse fill="none" stroke="black" cx="107.89" cy="-126" rx="107.78" ry="18"/>
<text text-anchor="middle" x="107.89" y="-122.3" font-family="Times,serif" font-size="14.00">L1_nfov_a output path 1..1</text>
</g>
<!-- l1_nfov_a_odir&#45;&gt;trans_nfov_a_l1_l2a -->
<g id="edge3" class="edge">
<title>l1_nfov_a_odir&#45;&gt;trans_nfov_a_l1_l2a</title>
<path fill="none" stroke="black" d="M215.95,-126C215.95,-126 241.59,-126 241.59,-126"/>
<polygon fill="black" stroke="black" points="241.59,-129.5 251.59,-126 241.59,-122.5 241.59,-129.5"/>
</g>
<!-- l1_nfov_a_rec -->
<g id="node11" class="node">
<title>l1_nfov_a_rec</title>
<polygon fill="none" stroke="black" points="164.39,-84 39.39,-84 39.39,-60 164.39,-60 176.39,-72 164.39,-84"/>
<text text-anchor="middle" x="107.89" y="-68.3" font-family="Times,serif" font-size="14.00">L1_nfov_a recipe 1..1</text>
</g>
<!-- l1_nfov_a_rec&#45;&gt;trans_nfov_a_l1_l2a -->
<g id="edge4" class="edge">
<title>l1_nfov_a_rec&#45;&gt;trans_nfov_a_l1_l2a</title>
<path fill="none" stroke="black" d="M176.56,-72C176.56,-72 257.97,-72 257.97,-72"/>
<polygon fill="black" stroke="black" points="257.97,-75.5 267.97,-72 257.97,-68.5 257.97,-75.5"/>
</g>
<!-- l1_nfov_a_nln -->
<g id="node12" class="node">
<title>l1_nfov_a_nln</title>
<polygon fill="none" stroke="black" points="201.89,-30 1.89,-30 1.89,-6 201.89,-6 213.89,-18 201.89,-30"/>
<text text-anchor="middle" x="107.89" y="-14.3" font-family="Times,serif" font-size="14.00">L1_nfov_a non&#45;linear &amp; Kgain 1..1</text>
</g>
<!-- l1_nfov_a_nln&#45;&gt;trans_nfov_a_l1_l2a -->
<g id="edge5" class="edge">
<title>l1_nfov_a_nln&#45;&gt;trans_nfov_a_l1_l2a</title>
<path fill="none" stroke="black" d="M195.44,-36.16C195.44,-41.04 195.44,-45 195.44,-45 195.44,-45 285.5,-45 285.5,-45"/>
<polygon fill="black" stroke="black" points="285.5,-48.5 295.5,-45 285.5,-41.5 285.5,-48.5"/>
</g>
<!-- l2a_nfov_a_prod&#45;&gt;trans_nfov_a_l2a_l2b -->
<g id="edge9" class="edge">
<title>l2a_nfov_a_prod&#45;&gt;trans_nfov_a_l2a_l2b</title>
<path fill="none" stroke="black" d="M807.44,-245.19C807.44,-262.36 807.44,-285.5 807.44,-285.5 807.44,-285.5 1244.47,-285.5 1244.47,-285.5"/>
<polygon fill="black" stroke="black" points="1244.47,-289 1254.47,-285.5 1244.47,-282 1244.47,-289"/>
</g>
<!-- l2a_nfov_a_man&#45;&gt;l2a_nfov_a_demux -->
<g id="edge20" class="edge">
<title>l2a_nfov_a_man&#45;&gt;l2a_nfov_a_demux</title>
<path fill="none" stroke="black" d="M687.16,-126C687.16,-126 714.91,-126 714.91,-126"/>
<polygon fill="black" stroke="black" points="714.91,-129.5 724.91,-126 714.91,-122.5 714.91,-129.5"/>
</g>
<!-- l2a_nfov_a_odir -->
<g id="node15" class="node">
<title>l2a_nfov_a_odir</title>
<ellipse fill="none" stroke="black" cx="1054.2" cy="-578" rx="111.58" ry="18"/>
<text text-anchor="middle" x="1054.2" y="-574.3" font-family="Times,serif" font-size="14.00">L2a_nfov_a output path 1..1</text>
</g>
<!-- l2a_nfov_a_odir&#45;&gt;trans_nfov_a_l2a_l2b -->
<g id="edge10" class="edge">
<title>l2a_nfov_a_odir&#45;&gt;trans_nfov_a_l2a_l2b</title>
<path fill="none" stroke="black" d="M1147.4,-568C1238.45,-568 1363.44,-568 1363.44,-568 1363.44,-568 1363.44,-455.49 1363.44,-455.49"/>
<polygon fill="black" stroke="black" points="1366.94,-455.49 1363.44,-445.49 1359.94,-455.49 1366.94,-455.49"/>
</g>
<!-- l2a_nfov_a_rec -->
<g id="node16" class="node">
<title>l2a_nfov_a_rec</title>
<polygon fill="none" stroke="black" points="1113.7,-536 982.7,-536 982.7,-512 1113.7,-512 1125.7,-524 1113.7,-536"/>
<text text-anchor="middle" x="1054.2" y="-520.3" font-family="Times,serif" font-size="14.00">L2a_nfov_a recipe 1..1</text>
</g>
<!-- l2a_nfov_a_rec&#45;&gt;trans_nfov_a_l2a_l2b -->
<g id="edge11" class="edge">
<title>l2a_nfov_a_rec&#45;&gt;trans_nfov_a_l2a_l2b</title>
<path fill="none" stroke="black" d="M1126,-514C1203.03,-514 1314.44,-514 1314.44,-514 1314.44,-514 1314.44,-469.12 1314.44,-469.12"/>
<polygon fill="black" stroke="black" points="1317.94,-469.12 1314.44,-459.12 1310.94,-469.12 1317.94,-469.12"/>
</g>
<!-- l2a_nfov_a_cti -->
<g id="node17" class="node">
<title>l2a_nfov_a_cti</title>
<polygon fill="none" stroke="black" points="1162.2,-482 934.2,-482 934.2,-458 1162.2,-458 1174.2,-470 1162.2,-482"/>
<text text-anchor="middle" x="1054.2" y="-466.3" font-family="Times,serif" font-size="14.00">L2a_nfov_a charge xfer inefficiency 1..1</text>
</g>
<!-- l2a_nfov_a_cti&#45;&gt;trans_nfov_a_l2a_l2b -->
<g id="edge12" class="edge">
<title>l2a_nfov_a_cti&#45;&gt;trans_nfov_a_l2a_l2b</title>
<path fill="none" stroke="black" d="M1174.27,-466.44C1222.3,-466.44 1266.44,-466.44 1266.44,-466.44 1266.44,-466.44 1266.44,-456.79 1266.44,-456.79"/>
<polygon fill="black" stroke="black" points="1269.94,-456.79 1266.44,-446.79 1262.94,-456.79 1269.94,-456.79"/>
</g>
<!-- l2a_nfov_a_dnb -->
<g id="node18" class="node">
<title>l2a_nfov_a_dnb</title>
<polygon fill="none" stroke="black" points="1169.2,-428 927.2,-428 927.2,-404 1169.2,-404 1181.2,-416 1169.2,-428"/>
<text text-anchor="middle" x="1054.2" y="-412.3" font-family="Times,serif" font-size="14.00">L2a_nfov_a detector noise background 1..1</text>
</g>
<!-- l2a_nfov_a_dnb&#45;&gt;trans_nfov_a_l2a_l2b -->
<g id="edge13" class="edge">
<title>l2a_nfov_a_dnb&#45;&gt;trans_nfov_a_l2a_l2b</title>
<path fill="none" stroke="black" d="M1181.47,-416C1181.47,-416 1223.59,-416 1223.59,-416"/>
<polygon fill="black" stroke="black" points="1223.59,-419.5 1233.59,-416 1223.59,-412.5 1223.59,-419.5"/>
</g>
<!-- l2a_nfov_a_mbpm -->
<g id="node19" class="node">
<title>l2a_nfov_a_mbpm</title>
<polygon fill="none" stroke="black" points="1156.7,-374 939.7,-374 939.7,-350 1156.7,-350 1168.7,-362 1156.7,-374"/>
<text text-anchor="middle" x="1054.2" y="-358.3" font-family="Times,serif" font-size="14.00">L2a_nfov_a master bad pixel map 1..1</text>
</g>
<!-- l2a_nfov_a_mbpm&#45;&gt;trans_nfov_a_l2a_l2b -->
<g id="edge14" class="edge">
<title>l2a_nfov_a_mbpm&#45;&gt;trans_nfov_a_l2a_l2b</title>
<path fill="none" stroke="black" d="M1168.94,-362C1168.94,-362 1207.02,-362 1207.02,-362"/>
<polygon fill="black" stroke="black" points="1207.02,-365.5 1217.02,-362 1207.02,-358.5 1207.02,-365.5"/>
</g>
<!-- l2a_nfov_a_ff -->
<g id="node20" class="node">
<title>l2a_nfov_a_ff</title>
<polygon fill="none" stroke="black" points="1123.2,-320 973.2,-320 973.2,-296 1123.2,-296 1135.2,-308 1123.2,-320"/>
<text text-anchor="middle" x="1054.2" y="-304.3" font-family="Times,serif" font-size="14.00">L2a_nfov_a flat fields 1..1</text>
</g>
<!-- l2a_nfov_a_ff&#45;&gt;trans_nfov_a_l2a_l2b -->
<g id="edge15" class="edge">
<title>l2a_nfov_a_ff&#45;&gt;trans_nfov_a_l2a_l2b</title>
<path fill="none" stroke="black" d="M1135.36,-308C1135.36,-308 1223.53,-308 1223.53,-308"/>
<polygon fill="black" stroke="black" points="1223.53,-311.5 1233.53,-308 1223.53,-304.5 1223.53,-311.5"/>
</g>
<!-- l2a_nfov_a_emg -->
<g id="node21" class="node">
<title>l2a_nfov_a_emg</title>
<polygon fill="none" stroke="black" points="1121.2,-266 975.2,-266 975.2,-242 1121.2,-242 1133.2,-254 1121.2,-266"/>
<text text-anchor="middle" x="1054.2" y="-250.3" font-family="Times,serif" font-size="14.00">L2a_nfov_a EM gain 1..1</text>
</g>
<!-- l2a_nfov_a_emg&#45;&gt;trans_nfov_a_l2a_l2b -->
<g id="edge16" class="edge">
<title>l2a_nfov_a_emg&#45;&gt;trans_nfov_a_l2a_l2b</title>
<path fill="none" stroke="black" d="M1054.44,-272.16C1054.44,-277.04 1054.44,-281 1054.44,-281 1054.44,-281 1250.91,-281 1250.91,-281"/>
<polygon fill="black" stroke="black" points="1250.91,-284.5 1260.91,-281 1250.91,-277.5 1250.91,-284.5"/>
</g>
<!-- l2a_nfov_a_man_demux&#45;&gt;trans_nfov_a_l2a_l2b -->
<g id="edge22" class="edge">
<title>l2a_nfov_a_man_demux&#45;&gt;trans_nfov_a_l2a_l2b</title>
<path fill="none" stroke="black" d="M1152.44,-153.11C1152.44,-183.04 1152.44,-276.5 1152.44,-276.5 1152.44,-276.5 1258.19,-276.5 1258.19,-276.5"/>
<polygon fill="black" stroke="black" points="1258.19,-280 1268.19,-276.5 1258.19,-273 1258.19,-280"/>
</g>
<!-- l2b_nfov_a_prod&#45;&gt;trans_nfov_a_l2b_l3 -->
<g id="edge25" class="edge">
<title>l2b_nfov_a_prod&#45;&gt;trans_nfov_a_l2b_l3</title>
<path fill="none" stroke="black" d="M1869.93,-459.71C1869.93,-459.71 2226.06,-459.71 2226.06,-459.71"/>
<polygon fill="black" stroke="black" points="2226.06,-463.21 2236.06,-459.71 2226.06,-456.21 2226.06,-463.21"/>
</g>
<!-- l2b_nfov_a_man&#45;&gt;trans_nfov_a_l2b_l3 -->
<g id="edge26" class="edge">
<title>l2b_nfov_a_man&#45;&gt;trans_nfov_a_l2b_l3</title>
<path fill="none" stroke="black" d="M2131.44,-382.37C2131.44,-398.18 2131.44,-451.42 2131.44,-451.42 2131.44,-451.42 2241.26,-451.42 2241.26,-451.42"/>
<polygon fill="black" stroke="black" points="2241.26,-454.92 2251.26,-451.42 2241.26,-447.92 2241.26,-454.92"/>
</g>
<!-- l2b_nfov_a_odir -->
<g id="node26" class="node">
<title>l2b_nfov_a_odir</title>
<ellipse fill="none" stroke="black" cx="2031.73" cy="-702" rx="112.38" ry="18"/>
<text text-anchor="middle" x="2031.73" y="-698.3" font-family="Times,serif" font-size="14.00">L2b_nfov_a output path 1..1</text>
</g>
<!-- l2b_nfov_a_odir&#45;&gt;trans_nfov_a_l2b_l3 -->
<g id="edge27" class="edge">
<title>l2b_nfov_a_odir&#45;&gt;trans_nfov_a_l2b_l3</title>
<path fill="none" stroke="black" d="M2124.44,-691.8C2124.44,-670.66 2124.44,-624 2124.44,-624 2124.44,-624 2232.09,-624 2232.09,-624"/>
<polygon fill="black" stroke="black" points="2232.09,-627.5 2242.09,-624 2232.09,-620.5 2232.09,-627.5"/>
</g>
<!-- l2b_nfov_a_rec -->
<g id="node27" class="node">
<title>l2b_nfov_a_rec</title>
<polygon fill="none" stroke="black" points="2091.73,-660 1959.73,-660 1959.73,-636 2091.73,-636 2103.73,-648 2091.73,-660"/>
<text text-anchor="middle" x="2031.73" y="-644.3" font-family="Times,serif" font-size="14.00">L2b_nfov_a recipe 1..1</text>
</g>
<!-- l2b_nfov_a_rec&#45;&gt;trans_nfov_a_l2b_l3 -->
<g id="edge28" class="edge">
<title>l2b_nfov_a_rec&#45;&gt;trans_nfov_a_l2b_l3</title>
<path fill="none" stroke="black" d="M2032.44,-629.86C2032.44,-623.54 2032.44,-618 2032.44,-618 2032.44,-618 2222.99,-618 2222.99,-618"/>
<polygon fill="black" stroke="black" points="2222.99,-621.5 2232.99,-618 2222.99,-614.5 2222.99,-621.5"/>
</g>
<!-- l2b_nfov_a_excicrf -->
<g id="node28" class="node">
<title>l2b_nfov_a_excicrf</title>
<polygon fill="none" stroke="black" points="2140.73,-606 1910.73,-606 1910.73,-582 2140.73,-582 2152.73,-594 2140.73,-606"/>
<text text-anchor="middle" x="2031.73" y="-590.3" font-family="Times,serif" font-size="14.00">L2b_nfov_a EXCAM ICRF location 1..1</text>
</g>
<!-- l2b_nfov_a_excicrf&#45;&gt;trans_nfov_a_l2b_l3 -->
<g id="edge29" class="edge">
<title>l2b_nfov_a_excicrf&#45;&gt;trans_nfov_a_l2b_l3</title>
<path fill="none" stroke="black" d="M2152.83,-594C2152.83,-594 2199.87,-594 2199.87,-594"/>
<polygon fill="black" stroke="black" points="2199.87,-597.5 2209.87,-594 2199.87,-590.5 2199.87,-597.5"/>
</g>
<!-- l2b_nfov_a_excfovps -->
<g id="node29" class="node">
<title>l2b_nfov_a_excfovps</title>
<polygon fill="none" stroke="black" points="2145.73,-552 1905.73,-552 1905.73,-528 2145.73,-528 2157.73,-540 2145.73,-552"/>
<text text-anchor="middle" x="2031.73" y="-536.3" font-family="Times,serif" font-size="14.00">L2b_nfov_a EXCAM FOV pixel scale 1..1</text>
</g>
<!-- l2b_nfov_a_excfovps&#45;&gt;trans_nfov_a_l2b_l3 -->
<g id="edge30" class="edge">
<title>l2b_nfov_a_excfovps&#45;&gt;trans_nfov_a_l2b_l3</title>
<path fill="none" stroke="black" d="M2157.75,-540C2157.75,-540 2183.71,-540 2183.71,-540"/>
<polygon fill="black" stroke="black" points="2183.71,-543.5 2193.71,-540 2183.71,-536.5 2183.71,-543.5"/>
</g>
<!-- l2b_nfov_a_distm -->
<g id="node30" class="node">
<title>l2b_nfov_a_distm</title>
<polygon fill="none" stroke="black" points="2115.23,-498 1936.23,-498 1936.23,-474 2115.23,-474 2127.23,-486 2115.23,-498"/>
<text text-anchor="middle" x="2031.73" y="-482.3" font-family="Times,serif" font-size="14.00">L2b_nfov_a distortion map 1..1</text>
</g>
<!-- l2b_nfov_a_distm&#45;&gt;trans_nfov_a_l2b_l3 -->
<g id="edge31" class="edge">
<title>l2b_nfov_a_distm&#45;&gt;trans_nfov_a_l2b_l3</title>
<path fill="none" stroke="black" d="M2127.39,-486C2127.39,-486 2199.77,-486 2199.77,-486"/>
<polygon fill="black" stroke="black" points="2199.77,-489.5 2209.77,-486 2199.77,-482.5 2199.77,-489.5"/>
</g>
<!-- l2b_nfov_a_man_demux&#45;&gt;l2b_nfov_a_mux -->
<g id="edge23" class="edge">
<title>l2b_nfov_a_man_demux&#45;&gt;l2b_nfov_a_mux</title>
<path fill="none" stroke="black" d="M1676.03,-362C1676.03,-362 1708.15,-362 1708.15,-362"/>
<polygon fill="black" stroke="black" points="1708.15,-365.5 1718.15,-362 1708.15,-358.5 1708.15,-365.5"/>
</g>
<!-- l3_nfov_a_prod&#45;&gt;trans_nfov_a_l3_l4 -->
<g id="edge35" class="edge">
<title>l3_nfov_a_prod&#45;&gt;trans_nfov_a_l3_l4</title>
<path fill="none" stroke="black" d="M2606.88,-594C2606.88,-594 2681.46,-594 2681.46,-594"/>
<polygon fill="black" stroke="black" points="2681.46,-597.5 2691.46,-594 2681.46,-590.5 2681.46,-597.5"/>
</g>
<!-- l3_nfov_a_odir -->
<g id="node34" class="node">
<title>l3_nfov_a_odir</title>
<ellipse fill="none" stroke="black" cx="2531.37" cy="-756" rx="107.78" ry="18"/>
<text text-anchor="middle" x="2531.37" y="-752.3" font-family="Times,serif" font-size="14.00">L3_nfov_a output path 1..1</text>
</g>
<!-- l3_nfov_a_odir&#45;&gt;trans_nfov_a_l3_l4 -->
<g id="edge37" class="edge">
<title>l3_nfov_a_odir&#45;&gt;trans_nfov_a_l3_l4</title>
<path fill="none" stroke="black" d="M2635.44,-751.05C2635.44,-743.25 2635.44,-729 2635.44,-729 2635.44,-729 2708.89,-729 2708.89,-729"/>
<polygon fill="black" stroke="black" points="2708.89,-732.5 2718.89,-729 2708.89,-725.5 2708.89,-732.5"/>
</g>
<!-- l3_nfov_a_man&#45;&gt;trans_nfov_a_l3_l4 -->
<g id="edge36" class="edge">
<title>l3_nfov_a_man&#45;&gt;trans_nfov_a_l3_l4</title>
<path fill="none" stroke="black" d="M2621.44,-547.66C2621.44,-555.65 2621.44,-567 2621.44,-567 2621.44,-567 2708.58,-567 2708.58,-567"/>
<polygon fill="black" stroke="black" points="2708.58,-570.5 2718.58,-567 2708.58,-563.5 2708.58,-570.5"/>
</g>
<!-- l3_nfov_a_rec -->
<g id="node36" class="node">
<title>l3_nfov_a_rec</title>
<polygon fill="none" stroke="black" points="2587.87,-714 2462.87,-714 2462.87,-690 2587.87,-690 2599.87,-702 2587.87,-714"/>
<text text-anchor="middle" x="2531.37" y="-698.3" font-family="Times,serif" font-size="14.00">L3_nfov_a recipe 1..1</text>
</g>
<!-- l3_nfov_a_rec&#45;&gt;trans_nfov_a_l3_l4 -->
<g id="edge38" class="edge">
<title>l3_nfov_a_rec&#45;&gt;trans_nfov_a_l3_l4</title>
<path fill="none" stroke="black" d="M2600.04,-702C2600.04,-702 2681.44,-702 2681.44,-702"/>
<polygon fill="black" stroke="black" points="2681.44,-705.5 2691.44,-702 2681.44,-698.5 2681.44,-705.5"/>
</g>
<!-- l3_nfov_a_cal -->
<g id="node37" class="node">
<title>l3_nfov_a_cal</title>
<polygon fill="none" stroke="black" points="2600.37,-660 2450.37,-660 2450.37,-636 2600.37,-636 2612.37,-648 2600.37,-660"/>
<text text-anchor="middle" x="2531.37" y="-644.3" font-family="Times,serif" font-size="14.00">L3_nfov_a calibration 1..1</text>
</g>
<!-- l3_nfov_a_cal&#45;&gt;trans_nfov_a_l3_l4 -->
<g id="edge39" class="edge">
<title>l3_nfov_a_cal&#45;&gt;trans_nfov_a_l3_l4</title>
<path fill="none" stroke="black" d="M2612.54,-648C2612.54,-648 2665.05,-648 2665.05,-648"/>
<polygon fill="black" stroke="black" points="2665.05,-651.5 2675.05,-648 2665.05,-644.5 2665.05,-651.5"/>
</g>
<!-- l4_nfov_a_prod&#45;&gt;trans_nfov_a_l4_tda -->
<g id="edge43" class="edge">
<title>l4_nfov_a_prod&#45;&gt;trans_nfov_a_l4_tda</title>
<path fill="none" stroke="black" d="M3034.44,-720.14C3034.44,-726.46 3034.44,-732 3034.44,-732 3034.44,-732 3227.4,-732 3227.4,-732"/>
<polygon fill="black" stroke="black" points="3227.4,-735.5 3237.4,-732 3227.4,-728.5 3227.4,-735.5"/>
</g>
<!-- l4_nfov_a_odir -->
<g id="node40" class="node">
<title>l4_nfov_a_odir</title>
<ellipse fill="none" stroke="black" cx="3033.5" cy="-972" rx="107.78" ry="18"/>
<text text-anchor="middle" x="3033.5" y="-968.3" font-family="Times,serif" font-size="14.00">L4_nfov_a output path 1..1</text>
</g>
<!-- l4_nfov_a_odir&#45;&gt;trans_nfov_a_l4_tda -->
<g id="edge45" class="edge">
<title>l4_nfov_a_odir&#45;&gt;trans_nfov_a_l4_tda</title>
<path fill="none" stroke="black" d="M3122.44,-961.8C3122.44,-940.66 3122.44,-894 3122.44,-894 3122.44,-894 3236.38,-894 3236.38,-894"/>
<polygon fill="black" stroke="black" points="3236.38,-897.5 3246.38,-894 3236.38,-890.5 3236.38,-897.5"/>
</g>
<!-- l4_nfov_a_man&#45;&gt;trans_nfov_a_l4_tda -->
<g id="edge44" class="edge">
<title>l4_nfov_a_man&#45;&gt;trans_nfov_a_l4_tda</title>
<path fill="none" stroke="black" d="M3123.44,-601.48C3123.44,-629.4 3123.44,-726 3123.44,-726 3123.44,-726 3236.21,-726 3236.21,-726"/>
<polygon fill="black" stroke="black" points="3236.21,-729.5 3246.21,-726 3236.21,-722.5 3236.21,-729.5"/>
</g>
<!-- l4_nfov_a_rec -->
<g id="node43" class="node">
<title>l4_nfov_a_rec</title>
<polygon fill="none" stroke="black" points="3090,-930 2965,-930 2965,-906 3090,-906 3102,-918 3090,-930"/>
<text text-anchor="middle" x="3033.5" y="-914.3" font-family="Times,serif" font-size="14.00">L4_nfov_a recipe 1..1</text>
</g>
<!-- l4_nfov_a_rec&#45;&gt;trans_nfov_a_l4_tda -->
<g id="edge46" class="edge">
<title>l4_nfov_a_rec&#45;&gt;trans_nfov_a_l4_tda</title>
<path fill="none" stroke="black" d="M3034.44,-899.86C3034.44,-893.54 3034.44,-888 3034.44,-888 3034.44,-888 3227.4,-888 3227.4,-888"/>
<polygon fill="black" stroke="black" points="3227.4,-891.5 3237.4,-888 3227.4,-884.5 3227.4,-891.5"/>
</g>
<!-- l4_nfov_a_afcal -->
<g id="node44" class="node">
<title>l4_nfov_a_afcal</title>
<polygon fill="none" stroke="black" points="3142.5,-876 2912.5,-876 2912.5,-852 3142.5,-852 3154.5,-864 3142.5,-876"/>
<text text-anchor="middle" x="3033.5" y="-860.3" font-family="Times,serif" font-size="14.00">L4_nfov_a absolute flux calibrations 1..1</text>
</g>
<!-- l4_nfov_a_afcal&#45;&gt;trans_nfov_a_l4_tda -->
<g id="edge47" class="edge">
<title>l4_nfov_a_afcal&#45;&gt;trans_nfov_a_l4_tda</title>
<path fill="none" stroke="black" d="M3154.63,-864C3154.63,-864 3204.1,-864 3204.1,-864"/>
<polygon fill="black" stroke="black" points="3204.1,-867.5 3214.1,-864 3204.1,-860.5 3204.1,-867.5"/>
</g>
<!-- l4_nfov_a_ctcal -->
<g id="node45" class="node">
<title>l4_nfov_a_ctcal</title>
<polygon fill="none" stroke="black" points="3150,-822 2905,-822 2905,-798 3150,-798 3162,-810 3150,-822"/>
<text text-anchor="middle" x="3033.5" y="-806.3" font-family="Times,serif" font-size="14.00">L4_nfov_a core throughput calibrations 1..1</text>
</g>
<!-- l4_nfov_a_ctcal&#45;&gt;trans_nfov_a_l4_tda -->
<g id="edge48" class="edge">
<title>l4_nfov_a_ctcal&#45;&gt;trans_nfov_a_l4_tda</title>
<path fill="none" stroke="black" d="M3162.28,-810C3162.28,-810 3187.89,-810 3187.89,-810"/>
<polygon fill="black" stroke="black" points="3187.89,-813.5 3197.89,-810 3187.89,-806.5 3187.89,-813.5"/>
</g>
<!-- l4_nfov_a_ndfilt -->
<g id="node46" class="node">
<title>l4_nfov_a_ndfilt</title>
<polygon fill="none" stroke="black" points="3098.5,-768 2956.5,-768 2956.5,-744 3098.5,-744 3110.5,-756 3098.5,-768"/>
<text text-anchor="middle" x="3033.5" y="-752.3" font-family="Times,serif" font-size="14.00">L4_nfov_a ND filter 1..1</text>
</g>
<!-- l4_nfov_a_ndfilt&#45;&gt;trans_nfov_a_l4_tda -->
<g id="edge49" class="edge">
<title>l4_nfov_a_ndfilt&#45;&gt;trans_nfov_a_l4_tda</title>
<path fill="none" stroke="black" d="M3110.51,-756C3110.51,-756 3204.33,-756 3204.33,-756"/>
<polygon fill="black" stroke="black" points="3204.34,-759.5 3214.33,-756 3204.33,-752.5 3204.34,-759.5"/>
</g>
</g>
</svg>
