<?xml version="1.0" encoding="UTF-8" standalone="no"?>
<!DOCTYPE svg PUBLIC "-//W3C//DTD SVG 1.1//EN"
 "http://www.w3.org/Graphics/SVG/1.1/DTD/svg11.dtd">
<!-- Generated by graphviz version 2.43.0 (0)
 -->
<!-- Title: PolarimetryPhotonCount Pages: 1 -->
<svg width="4340pt" height="986pt"
 viewBox="0.00 0.00 4339.58 986.00" xmlns="http://www.w3.org/2000/svg" xmlns:xlink="http://www.w3.org/1999/xlink">
<g id="graph0" class="graph" transform="scale(1 1) rotate(0) translate(4 982)">
<title>PolarimetryPhotonCount</title>
<polygon fill="white" stroke="transparent" points="-4,4 -4,-982 4335.58,-982 4335.58,4 -4,4"/>
<!-- trans_pol_pc_l1_l2a -->
<g id="node1" class="node">
<title>trans_pol_pc_l1_l2a</title>
<ellipse fill="none" stroke="black" cx="424.69" cy="-126" rx="120.83" ry="120.83"/>
<text text-anchor="middle" x="424.69" y="-129.8" font-family="Times,serif" font-size="14.00">pol_pc Transmutation</text>
<text text-anchor="middle" x="424.69" y="-114.8" font-family="Times,serif" font-size="14.00">L1 to L2a</text>
</g>
<!-- l2a_pol_pc_prod -->
<g id="node13" class="node">
<title>l2a_pol_pc_prod</title>
<polygon fill="none" stroke="black" points="1066.6,-258 872.6,-258 872.6,-222 1066.6,-222 1066.6,-258"/>
<text text-anchor="middle" x="969.6" y="-236.3" font-family="Times,serif" font-size="14.00">L2a_pol_pc products 1..b</text>
</g>
<!-- trans_pol_pc_l1_l2a&#45;&gt;l2a_pol_pc_prod -->
<g id="edge6" class="edge">
<title>trans_pol_pc_l1_l2a&#45;&gt;l2a_pol_pc_prod</title>
<path fill="none" stroke="black" d="M478.43,-234.46C478.43,-234.46 862.47,-234.46 862.47,-234.46"/>
<polygon fill="black" stroke="black" points="862.47,-237.96 872.47,-234.46 862.47,-230.96 862.47,-237.96"/>
</g>
<!-- l2a_pol_pc_man -->
<g id="node14" class="node">
<title>l2a_pol_pc_man</title>
<ellipse fill="none" stroke="black" cx="707.05" cy="-126" rx="125.38" ry="18"/>
<text text-anchor="middle" x="707.05" y="-122.3" font-family="Times,serif" font-size="14.00">L2a_pol_pc manifest 1..1</text>
</g>
<!-- trans_pol_pc_l1_l2a&#45;&gt;l2a_pol_pc_man -->
<g id="edge7" class="edge">
<title>trans_pol_pc_l1_l2a&#45;&gt;l2a_pol_pc_man</title>
<path fill="none" stroke="black" d="M545.66,-126C545.66,-126 571.38,-126 571.38,-126"/>
<polygon fill="black" stroke="black" points="571.38,-129.5 581.38,-126 571.38,-122.5 571.38,-129.5"/>
</g>
<!-- l2a_pol_pc_log -->
<g id="node23" class="node">
<title>l2a_pol_pc_log</title>
<ellipse fill="none" stroke="black" cx="707.05" cy="-72" rx="98.58" ry="18"/>
<text text-anchor="middle" x="707.05" y="-68.3" font-family="Times,serif" font-size="14.00">L2a log_pol_pc 1..1</text>
</g>
<!-- trans_pol_pc_l1_l2a&#45;&gt;l2a_pol_pc_log -->
<g id="edge8" class="edge">
<title>trans_pol_pc_l1_l2a&#45;&gt;l2a_pol_pc_log</title>
<path fill="none" stroke="black" d="M533.05,-72C533.05,-72 598.23,-72 598.23,-72"/>
<polygon fill="black" stroke="black" points="598.23,-75.5 608.23,-72 598.23,-68.5 598.23,-75.5"/>
</g>
<!-- l2a_pol_pc_demux -->
<g id="node2" class="node">
<title>l2a_pol_pc_demux</title>
<ellipse fill="none" stroke="black" cx="969.6" cy="-103" rx="101.23" ry="101.23"/>
<text text-anchor="middle" x="969.6" y="-106.8" font-family="Times,serif" font-size="14.00">pol_pc l2a Demux</text>
<text text-anchor="middle" x="969.6" y="-91.8" font-family="Times,serif" font-size="14.00">Exposure</text>
</g>
<!-- l2a_pol_pc_man_demux -->
<g id="node24" class="node">
<title>l2a_pol_pc_man_demux</title>
<ellipse fill="none" stroke="black" cx="1255.72" cy="-148" rx="139.18" ry="18"/>
<text text-anchor="middle" x="1255.72" y="-144.3" font-family="Times,serif" font-size="14.00">L2a_pol_pc(E) manifest 1..1</text>
</g>
<!-- l2a_pol_pc_demux&#45;&gt;l2a_pol_pc_man_demux -->
<g id="edge22" class="edge">
<title>l2a_pol_pc_demux&#45;&gt;l2a_pol_pc_man_demux</title>
<path fill="none" stroke="black" d="M1060.52,-148C1060.52,-148 1106.45,-148 1106.45,-148"/>
<polygon fill="black" stroke="black" points="1106.45,-151.5 1116.45,-148 1106.45,-144.5 1106.45,-151.5"/>
</g>
<!-- trans_pol_pc_l2a_l2b -->
<g id="node3" class="node">
<title>trans_pol_pc_l2a_l2b</title>
<ellipse fill="none" stroke="black" cx="1561.63" cy="-398" rx="120.83" ry="120.83"/>
<text text-anchor="middle" x="1561.63" y="-401.8" font-family="Times,serif" font-size="14.00">pol_pc Transmutation</text>
<text text-anchor="middle" x="1561.63" y="-386.8" font-family="Times,serif" font-size="14.00">L2a to L2b</text>
</g>
<!-- l2b_pol_pc_prod -->
<g id="node25" class="node">
<title>l2b_pol_pc_prod</title>
<polygon fill="none" stroke="black" points="2228.02,-520 2034.02,-520 2034.02,-484 2228.02,-484 2228.02,-520"/>
<text text-anchor="middle" x="2131.02" y="-498.3" font-family="Times,serif" font-size="14.00">L2b_pol_pc products 1..1</text>
</g>
<!-- trans_pol_pc_l2a_l2b&#45;&gt;l2b_pol_pc_prod -->
<g id="edge18" class="edge">
<title>trans_pol_pc_l2a_l2b&#45;&gt;l2b_pol_pc_prod</title>
<path fill="none" stroke="black" d="M1624.47,-501.46C1624.47,-501.46 2023.8,-501.46 2023.8,-501.46"/>
<polygon fill="black" stroke="black" points="2023.8,-504.96 2033.8,-501.46 2023.8,-497.96 2023.8,-504.96"/>
</g>
<!-- l2b_pol_pc_man_demux -->
<g id="node32" class="node">
<title>l2b_pol_pc_man_demux</title>
<ellipse fill="none" stroke="black" cx="1858.29" cy="-398" rx="139.98" ry="18"/>
<text text-anchor="middle" x="1858.29" y="-394.3" font-family="Times,serif" font-size="14.00">L2b_pol_pc(E) manifest 1..1</text>
</g>
<!-- trans_pol_pc_l2a_l2b&#45;&gt;l2b_pol_pc_man_demux -->
<g id="edge19" class="edge">
<title>trans_pol_pc_l2a_l2b&#45;&gt;l2b_pol_pc_man_demux</title>
<path fill="none" stroke="black" d="M1682.72,-398C1682.72,-398 1708.2,-398 1708.2,-398"/>
<polygon fill="black" stroke="black" points="1708.2,-401.5 1718.2,-398 1708.2,-394.5 1708.2,-401.5"/>
</g>
<!-- l2b_pol_pc_log -->
<g id="node33" class="node">
<title>l2b_pol_pc_log</title>
<ellipse fill="none" stroke="black" cx="1858.29" cy="-344" rx="99.38" ry="18"/>
<text text-anchor="middle" x="1858.29" y="-340.3" font-family="Times,serif" font-size="14.00">L2b_pol_pc log 1..1</text>
</g>
<!-- trans_pol_pc_l2a_l2b&#45;&gt;l2b_pol_pc_log -->
<g id="edge20" class="edge">
<title>trans_pol_pc_l2a_l2b&#45;&gt;l2b_pol_pc_log</title>
<path fill="none" stroke="black" d="M1669.99,-344C1669.99,-344 1748.59,-344 1748.59,-344"/>
<polygon fill="black" stroke="black" points="1748.59,-347.5 1758.59,-344 1748.59,-340.5 1748.59,-347.5"/>
</g>
<!-- l2b_pol_pc_mux -->
<g id="node4" class="node">
<title>l2b_pol_pc_mux</title>
<ellipse fill="none" stroke="black" cx="2131.02" cy="-378" rx="88.28" ry="88.28"/>
<text text-anchor="middle" x="2131.02" y="-381.8" font-family="Times,serif" font-size="14.00">pol_pc l2b Mux</text>
<text text-anchor="middle" x="2131.02" y="-366.8" font-family="Times,serif" font-size="14.00">Exposure</text>
</g>
<!-- l2b_pol_pc_man -->
<g id="node26" class="node">
<title>l2b_pol_pc_man</title>
<ellipse fill="none" stroke="black" cx="2414.52" cy="-417" rx="126.18" ry="18"/>
<text text-anchor="middle" x="2414.52" y="-413.3" font-family="Times,serif" font-size="14.00">L2b_pol_pc manifest 1..1</text>
</g>
<!-- l2b_pol_pc_mux&#45;&gt;l2b_pol_pc_man -->
<g id="edge25" class="edge">
<title>l2b_pol_pc_mux&#45;&gt;l2b_pol_pc_man</title>
<path fill="none" stroke="black" d="M2210.37,-417C2210.37,-417 2278.17,-417 2278.17,-417"/>
<polygon fill="black" stroke="black" points="2278.17,-420.5 2288.17,-417 2278.17,-413.5 2278.17,-420.5"/>
</g>
<!-- trans_pol_pc_l2b_l3 -->
<g id="node5" class="node">
<title>trans_pol_pc_l2b_l3</title>
<ellipse fill="none" stroke="black" cx="2721.94" cy="-582" rx="120.83" ry="120.83"/>
<text text-anchor="middle" x="2721.94" y="-585.8" font-family="Times,serif" font-size="14.00">pol_pc Transmutation</text>
<text text-anchor="middle" x="2721.94" y="-570.8" font-family="Times,serif" font-size="14.00">L2b to L3</text>
</g>
<!-- l3_pol_pc_prod -->
<g id="node34" class="node">
<title>l3_pol_pc_prod</title>
<polygon fill="none" stroke="black" points="3105.24,-654 2920.24,-654 2920.24,-618 3105.24,-618 3105.24,-654"/>
<text text-anchor="middle" x="3012.74" y="-632.3" font-family="Times,serif" font-size="14.00">L3_pol_pc products 1..1</text>
</g>
<!-- trans_pol_pc_l2b_l3&#45;&gt;l3_pol_pc_prod -->
<g id="edge33" class="edge">
<title>trans_pol_pc_l2b_l3&#45;&gt;l3_pol_pc_prod</title>
<path fill="none" stroke="black" d="M2830.22,-636C2830.22,-636 2910.11,-636 2910.11,-636"/>
<polygon fill="black" stroke="black" points="2910.11,-639.5 2920.11,-636 2910.11,-632.5 2910.11,-639.5"/>
</g>
<!-- l3_pol_pc_man -->
<g id="node36" class="node">
<title>l3_pol_pc_man</title>
<ellipse fill="none" stroke="black" cx="3012.74" cy="-582" rx="120.48" ry="18"/>
<text text-anchor="middle" x="3012.74" y="-578.3" font-family="Times,serif" font-size="14.00">L3_pol_pc manifest 1..1</text>
</g>
<!-- trans_pol_pc_l2b_l3&#45;&gt;l3_pol_pc_man -->
<g id="edge34" class="edge">
<title>trans_pol_pc_l2b_l3&#45;&gt;l3_pol_pc_man</title>
<path fill="none" stroke="black" d="M2843.16,-582C2843.16,-582 2882.18,-582 2882.18,-582"/>
<polygon fill="black" stroke="black" points="2882.18,-585.5 2892.18,-582 2882.18,-578.5 2882.18,-585.5"/>
</g>
<!-- l3_pol_pc_log -->
<g id="node39" class="node">
<title>l3_pol_pc_log</title>
<ellipse fill="none" stroke="black" cx="3012.74" cy="-528" rx="93.68" ry="18"/>
<text text-anchor="middle" x="3012.74" y="-524.3" font-family="Times,serif" font-size="14.00">L3_pol_pc log 1..1</text>
</g>
<!-- trans_pol_pc_l2b_l3&#45;&gt;l3_pol_pc_log -->
<g id="edge35" class="edge">
<title>trans_pol_pc_l2b_l3&#45;&gt;l3_pol_pc_log</title>
<path fill="none" stroke="black" d="M2830.22,-528C2830.22,-528 2908.7,-528 2908.7,-528"/>
<polygon fill="black" stroke="black" points="2908.7,-531.5 2918.7,-528 2908.7,-524.5 2908.7,-531.5"/>
</g>
<!-- trans_pol_pc_l3_l4 -->
<g id="node6" class="node">
<title>trans_pol_pc_l3_l4</title>
<ellipse fill="none" stroke="black" cx="3303.54" cy="-690" rx="120.83" ry="120.83"/>
<text text-anchor="middle" x="3303.54" y="-693.8" font-family="Times,serif" font-size="14.00">pol_pc Transmutation</text>
<text text-anchor="middle" x="3303.54" y="-678.8" font-family="Times,serif" font-size="14.00">L3 to L4</text>
</g>
<!-- l4_pol_pc_prod -->
<g id="node40" class="node">
<title>l4_pol_pc_prod</title>
<polygon fill="none" stroke="black" points="3746.46,-762 3561.46,-762 3561.46,-726 3746.46,-726 3746.46,-762"/>
<text text-anchor="middle" x="3653.96" y="-740.3" font-family="Times,serif" font-size="14.00">L4_pol_pc products 1..1</text>
</g>
<!-- trans_pol_pc_l3_l4&#45;&gt;l4_pol_pc_prod -->
<g id="edge41" class="edge">
<title>trans_pol_pc_l3_l4&#45;&gt;l4_pol_pc_prod</title>
<path fill="none" stroke="black" d="M3412.02,-744C3412.02,-744 3551.35,-744 3551.35,-744"/>
<polygon fill="black" stroke="black" points="3551.35,-747.5 3561.35,-744 3551.35,-740.5 3551.35,-747.5"/>
</g>
<!-- l4_pol_pc_log -->
<g id="node41" class="node">
<title>l4_pol_pc_log</title>
<ellipse fill="none" stroke="black" cx="3653.96" cy="-690" rx="93.68" ry="18"/>
<text text-anchor="middle" x="3653.96" y="-686.3" font-family="Times,serif" font-size="14.00">L4_pol_pc log 1..1</text>
</g>
<!-- trans_pol_pc_l3_l4&#45;&gt;l4_pol_pc_log -->
<g id="edge42" class="edge">
<title>trans_pol_pc_l3_l4&#45;&gt;l4_pol_pc_log</title>
<path fill="none" stroke="black" d="M3424.63,-690C3424.63,-690 3550.25,-690 3550.25,-690"/>
<polygon fill="black" stroke="black" points="3550.25,-693.5 3560.25,-690 3550.25,-686.5 3550.25,-693.5"/>
</g>
<!-- l4_pol_pc_man -->
<g id="node42" class="node">
<title>l4_pol_pc_man</title>
<ellipse fill="none" stroke="black" cx="3653.96" cy="-636" rx="120.48" ry="18"/>
<text text-anchor="middle" x="3653.96" y="-632.3" font-family="Times,serif" font-size="14.00">L4_pol_pc manifest 1..1</text>
</g>
<!-- trans_pol_pc_l3_l4&#45;&gt;l4_pol_pc_man -->
<g id="edge43" class="edge">
<title>trans_pol_pc_l3_l4&#45;&gt;l4_pol_pc_man</title>
<path fill="none" stroke="black" d="M3412.02,-636C3412.02,-636 3523.49,-636 3523.49,-636"/>
<polygon fill="black" stroke="black" points="3523.49,-639.5 3533.49,-636 3523.49,-632.5 3523.49,-639.5"/>
</g>
<!-- trans_pol_pc_l4_tda -->
<g id="node7" class="node">
<title>trans_pol_pc_l4_tda</title>
<ellipse fill="none" stroke="black" cx="4004.38" cy="-825" rx="120.83" ry="120.83"/>
<text text-anchor="middle" x="4004.38" y="-828.8" font-family="Times,serif" font-size="14.00">pol_pc Transmutation</text>
<text text-anchor="middle" x="4004.38" y="-813.8" font-family="Times,serif" font-size="14.00">L4 to TDA</text>
</g>
<!-- tda_pol_pc_prod -->
<g id="node47" class="node">
<title>tda_pol_pc_prod</title>
<ellipse fill="none" stroke="black" cx="4246.43" cy="-852" rx="85.29" ry="18"/>
<text text-anchor="middle" x="4246.43" y="-848.3" font-family="Times,serif" font-size="14.00">tda_pol_pc_prod</text>
</g>
<!-- trans_pol_pc_l4_tda&#45;&gt;tda_pol_pc_prod -->
<g id="edge50" class="edge">
<title>trans_pol_pc_l4_tda&#45;&gt;tda_pol_pc_prod</title>
<path fill="none" stroke="black" d="M4122.57,-852C4122.57,-852 4150.99,-852 4150.99,-852"/>
<polygon fill="black" stroke="black" points="4150.99,-855.5 4160.99,-852 4150.99,-848.5 4150.99,-855.5"/>
</g>
<!-- tda_pol_pc_log -->
<g id="node48" class="node">
<title>tda_pol_pc_log</title>
<ellipse fill="none" stroke="black" cx="4246.43" cy="-798" rx="77.99" ry="18"/>
<text text-anchor="middle" x="4246.43" y="-794.3" font-family="Times,serif" font-size="14.00">tda_pol_pc_log</text>
</g>
<!-- trans_pol_pc_l4_tda&#45;&gt;tda_pol_pc_log -->
<g id="edge51" class="edge">
<title>trans_pol_pc_l4_tda&#45;&gt;tda_pol_pc_log</title>
<path fill="none" stroke="black" d="M4122.57,-798C4122.57,-798 4158.18,-798 4158.18,-798"/>
<polygon fill="black" stroke="black" points="4158.18,-801.5 4168.18,-798 4158.18,-794.5 4158.18,-801.5"/>
</g>
<!-- l1_pol_pc_prod -->
<g id="node8" class="node">
<title>l1_pol_pc_prod</title>
<polygon fill="none" stroke="black" points="226.39,-252 41.39,-252 41.39,-216 226.39,-216 226.39,-252"/>
<text text-anchor="middle" x="133.89" y="-230.3" font-family="Times,serif" font-size="14.00">L1_pol_pc products 1..b</text>
</g>
<!-- l1_pol_pc_prod&#45;&gt;trans_pol_pc_l1_l2a -->
<g id="edge1" class="edge">
<title>l1_pol_pc_prod&#45;&gt;trans_pol_pc_l1_l2a</title>
<path fill="none" stroke="black" d="M226.7,-231.46C226.7,-231.46 355.21,-231.46 355.21,-231.46"/>
<polygon fill="black" stroke="black" points="355.21,-234.96 365.21,-231.46 355.21,-227.96 355.21,-234.96"/>
</g>
<!-- l1_pol_pc_man -->
<g id="node9" class="node">
<title>l1_pol_pc_man</title>
<ellipse fill="none" stroke="black" cx="133.89" cy="-180" rx="120.48" ry="18"/>
<text text-anchor="middle" x="133.89" y="-176.3" font-family="Times,serif" font-size="14.00">L1_pol_pc manifest 1..1</text>
</g>
<!-- l1_pol_pc_man&#45;&gt;trans_pol_pc_l1_l2a -->
<g id="edge2" class="edge">
<title>l1_pol_pc_man&#45;&gt;trans_pol_pc_l1_l2a</title>
<path fill="none" stroke="black" d="M254.27,-180C254.27,-180 306.49,-180 306.49,-180"/>
<polygon fill="black" stroke="black" points="306.49,-183.5 316.49,-180 306.49,-176.5 306.49,-183.5"/>
</g>
<!-- l1_pol_pc_odir -->
<g id="node10" class="node">
<title>l1_pol_pc_odir</title>
<ellipse fill="none" stroke="black" cx="133.89" cy="-126" rx="133.78" ry="18"/>
<text text-anchor="middle" x="133.89" y="-122.3" font-family="Times,serif" font-size="14.00">L1_pol_pc output path 1..1</text>
</g>
<!-- l1_pol_pc_odir&#45;&gt;trans_pol_pc_l1_l2a -->
<g id="edge3" class="edge">
<title>l1_pol_pc_odir&#45;&gt;trans_pol_pc_l1_l2a</title>
<path fill="none" stroke="black" d="M267.8,-126C267.8,-126 293.56,-126 293.56,-126"/>
<polygon fill="black" stroke="black" points="293.56,-129.5 303.56,-126 293.56,-122.5 293.56,-129.5"/>
</g>
<!-- l1_pol_pc_rec -->
<g id="node11" class="node">
<title>l1_pol_pc_rec</title>
<polygon fill="none" stroke="black" points="205.39,-84 50.39,-84 50.39,-60 205.39,-60 217.39,-72 205.39,-84"/>
<text text-anchor="middle" x="133.89" y="-68.3" font-family="Times,serif" font-size="14.00">L1_pol_pc recipe 1..1</text>
</g>
<!-- l1_pol_pc_rec&#45;&gt;trans_pol_pc_l1_l2a -->
<g id="edge4" class="edge">
<title>l1_pol_pc_rec&#45;&gt;trans_pol_pc_l1_l2a</title>
<path fill="none" stroke="black" d="M217.61,-72C217.61,-72 306.37,-72 306.37,-72"/>
<polygon fill="black" stroke="black" points="306.37,-75.5 316.37,-72 306.37,-68.5 306.37,-75.5"/>
</g>
<!-- l1_pol_pc_nllut -->
<g id="node12" class="node">
<title>l1_pol_pc_nllut</title>
<polygon fill="none" stroke="black" points="235.89,-30 19.89,-30 19.89,-6 235.89,-6 247.89,-18 235.89,-30"/>
<text text-anchor="middle" x="133.89" y="-14.3" font-family="Times,serif" font-size="14.00">L1_pol_pc non&#45;linear LUT 1..1</text>
</g>
<!-- l1_pol_pc_nllut&#45;&gt;trans_pol_pc_l1_l2a -->
<g id="edge5" class="edge">
<title>l1_pol_pc_nllut&#45;&gt;trans_pol_pc_l1_l2a</title>
<path fill="none" stroke="black" d="M247.99,-20.54C247.99,-20.54 355.29,-20.54 355.29,-20.54"/>
<polygon fill="black" stroke="black" points="355.29,-24.04 365.29,-20.54 355.29,-17.04 355.29,-24.04"/>
</g>
<!-- l2a_pol_pc_prod&#45;&gt;trans_pol_pc_l2a_l2b -->
<g id="edge9" class="edge">
<title>l2a_pol_pc_prod&#45;&gt;trans_pol_pc_l2a_l2b</title>
<path fill="none" stroke="black" d="M970.58,-258.24C970.58,-273.57 970.58,-293 970.58,-293 970.58,-293 1491.43,-293 1491.43,-293"/>
<polygon fill="black" stroke="black" points="1491.43,-296.5 1501.43,-293 1491.43,-289.5 1491.43,-296.5"/>
</g>
<!-- l2a_pol_pc_man&#45;&gt;l2a_pol_pc_demux -->
<g id="edge21" class="edge">
<title>l2a_pol_pc_man&#45;&gt;l2a_pol_pc_demux</title>
<path fill="none" stroke="black" d="M832.56,-126C832.56,-126 861.04,-126 861.04,-126"/>
<polygon fill="black" stroke="black" points="861.04,-129.5 871.04,-126 861.04,-122.5 861.04,-129.5"/>
</g>
<!-- l2a_pol_pc_odir -->
<g id="node15" class="node">
<title>l2a_pol_pc_odir</title>
<ellipse fill="none" stroke="black" cx="1255.72" cy="-643" rx="139.98" ry="18"/>
<text text-anchor="middle" x="1255.72" y="-639.3" font-family="Times,serif" font-size="14.00">L2a_pol_pc output path 1..1</text>
</g>
<!-- l2a_pol_pc_odir&#45;&gt;trans_pol_pc_l2a_l2b -->
<g id="edge10" class="edge">
<title>l2a_pol_pc_odir&#45;&gt;trans_pol_pc_l2a_l2b</title>
<path fill="none" stroke="black" d="M1392.8,-639.5C1489.76,-639.5 1602.58,-639.5 1602.58,-639.5 1602.58,-639.5 1602.58,-522.03 1602.58,-522.03"/>
<polygon fill="black" stroke="black" points="1606.08,-522.03 1602.58,-512.03 1599.08,-522.03 1606.08,-522.03"/>
</g>
<!-- l2a_pol_pc_rec -->
<g id="node16" class="node">
<title>l2a_pol_pc_rec</title>
<polygon fill="none" stroke="black" points="1331.22,-601 1168.22,-601 1168.22,-577 1331.22,-577 1343.22,-589 1331.22,-601"/>
<text text-anchor="middle" x="1255.72" y="-585.3" font-family="Times,serif" font-size="14.00">L2a_pol_pc recipe 1..1</text>
</g>
<!-- l2a_pol_pc_rec&#45;&gt;trans_pol_pc_l2a_l2b -->
<g id="edge11" class="edge">
<title>l2a_pol_pc_rec&#45;&gt;trans_pol_pc_l2a_l2b</title>
<path fill="none" stroke="black" d="M1343.51,-585.5C1420.94,-585.5 1521.58,-585.5 1521.58,-585.5 1521.58,-585.5 1521.58,-522.2 1521.58,-522.2"/>
<polygon fill="black" stroke="black" points="1525.08,-522.2 1521.58,-512.2 1518.08,-522.2 1525.08,-522.2"/>
</g>
<!-- l2a_pol_pc_cti -->
<g id="node17" class="node">
<title>l2a_pol_pc_cti</title>
<polygon fill="none" stroke="black" points="1392.72,-547 1106.72,-547 1106.72,-523 1392.72,-523 1404.72,-535 1392.72,-547"/>
<text text-anchor="middle" x="1255.72" y="-531.3" font-family="Times,serif" font-size="14.00">L2a_pol_pc charge xfer inefficiency 1..1</text>
</g>
<!-- l2a_pol_pc_cti&#45;&gt;trans_pol_pc_l2a_l2b -->
<g id="edge12" class="edge">
<title>l2a_pol_pc_cti&#45;&gt;trans_pol_pc_l2a_l2b</title>
<path fill="none" stroke="black" stroke-dasharray="5,2" d="M1392.58,-516.84C1392.58,-511.96 1392.58,-508 1392.58,-508 1392.58,-508 1501.37,-508 1501.37,-508"/>
<polygon fill="black" stroke="black" points="1501.37,-511.5 1511.37,-508 1501.37,-504.5 1501.37,-511.5"/>
</g>
<!-- l2a_pol_pc_dnb -->
<g id="node18" class="node">
<title>l2a_pol_pc_dnb</title>
<polygon fill="none" stroke="black" points="1374.22,-493 1125.22,-493 1125.22,-467 1374.22,-467 1386.22,-480 1374.22,-493"/>
<text text-anchor="middle" x="1255.72" y="-483.8" font-family="Times,serif" font-size="14.00">L2a_pol_pc CIC/Dark Current/FPN</text>
<text text-anchor="middle" x="1255.72" y="-468.8" font-family="Times,serif" font-size="14.00"> or master dark 1..1</text>
</g>
<!-- l2a_pol_pc_dnb&#45;&gt;trans_pol_pc_l2a_l2b -->
<g id="edge13" class="edge">
<title>l2a_pol_pc_dnb&#45;&gt;trans_pol_pc_l2a_l2b</title>
<path fill="none" stroke="black" d="M1386.34,-480C1386.34,-480 1462.52,-480 1462.52,-480"/>
<polygon fill="black" stroke="black" points="1462.52,-483.5 1472.52,-480 1462.52,-476.5 1462.52,-483.5"/>
</g>
<!-- l2a_pol_pc_mbpm -->
<g id="node19" class="node">
<title>l2a_pol_pc_mbpm</title>
<polygon fill="none" stroke="black" points="1386.72,-437 1112.72,-437 1112.72,-413 1386.72,-413 1398.72,-425 1386.72,-437"/>
<text text-anchor="middle" x="1255.72" y="-421.3" font-family="Times,serif" font-size="14.00">L2a_pol_pc master bad pixel map 1..1</text>
</g>
<!-- l2a_pol_pc_mbpm&#45;&gt;trans_pol_pc_l2a_l2b -->
<g id="edge14" class="edge">
<title>l2a_pol_pc_mbpm&#45;&gt;trans_pol_pc_l2a_l2b</title>
<path fill="none" stroke="black" d="M1398.82,-425C1398.82,-425 1433.41,-425 1433.41,-425"/>
<polygon fill="black" stroke="black" points="1433.41,-428.5 1443.41,-425 1433.41,-421.5 1433.41,-428.5"/>
</g>
<!-- l2a_pol_pc_emg -->
<g id="node20" class="node">
<title>l2a_pol_pc_emg</title>
<polygon fill="none" stroke="black" points="1339.22,-383 1160.22,-383 1160.22,-359 1339.22,-359 1351.22,-371 1339.22,-383"/>
<text text-anchor="middle" x="1255.72" y="-367.3" font-family="Times,serif" font-size="14.00">L2a_pol_pc EM gain 1..1</text>
</g>
<!-- l2a_pol_pc_emg&#45;&gt;trans_pol_pc_l2a_l2b -->
<g id="edge15" class="edge">
<title>l2a_pol_pc_emg&#45;&gt;trans_pol_pc_l2a_l2b</title>
<path fill="none" stroke="black" d="M1351.25,-371C1351.25,-371 1433.68,-371 1433.68,-371"/>
<polygon fill="black" stroke="black" points="1433.68,-374.5 1443.68,-371 1433.68,-367.5 1433.68,-374.5"/>
</g>
<!-- l2a_pol_pc_kgain -->
<g id="node21" class="node">
<title>l2a_pol_pc_kgain</title>
<polygon fill="none" stroke="black" points="1329.72,-329 1169.72,-329 1169.72,-305 1329.72,-305 1341.72,-317 1329.72,-329"/>
<text text-anchor="middle" x="1255.72" y="-313.3" font-family="Times,serif" font-size="14.00">L2a_pol_pc Kgain 1..1</text>
</g>
<!-- l2a_pol_pc_kgain&#45;&gt;trans_pol_pc_l2a_l2b -->
<g id="edge16" class="edge">
<title>l2a_pol_pc_kgain&#45;&gt;trans_pol_pc_l2a_l2b</title>
<path fill="none" stroke="black" d="M1341.75,-317C1341.75,-317 1461.72,-317 1461.72,-317"/>
<polygon fill="black" stroke="black" points="1461.72,-320.5 1471.72,-317 1461.72,-313.5 1461.72,-320.5"/>
</g>
<!-- l2a_pol_pc_polff -->
<g id="node22" class="node">
<title>l2a_pol_pc_polff</title>
<polygon fill="none" stroke="black" points="1388.22,-275 1111.22,-275 1111.22,-251 1388.22,-251 1400.22,-263 1388.22,-275"/>
<text text-anchor="middle" x="1255.72" y="-259.3" font-family="Times,serif" font-size="14.00">L2a_pol_pc polarimetric flat fields 1..1</text>
</g>
<!-- l2a_pol_pc_polff&#45;&gt;trans_pol_pc_l2a_l2b -->
<g id="edge17" class="edge">
<title>l2a_pol_pc_polff&#45;&gt;trans_pol_pc_l2a_l2b</title>
<path fill="none" stroke="black" d="M1375.58,-281.19C1375.58,-284.54 1375.58,-287 1375.58,-287 1375.58,-287 1503.23,-287 1503.23,-287"/>
<polygon fill="black" stroke="black" points="1503.23,-290.5 1513.23,-287 1503.23,-283.5 1503.23,-290.5"/>
</g>
<!-- l2a_pol_pc_man_demux&#45;&gt;trans_pol_pc_l2a_l2b -->
<g id="edge23" class="edge">
<title>l2a_pol_pc_man_demux&#45;&gt;trans_pol_pc_l2a_l2b</title>
<path fill="none" stroke="black" d="M1395.23,-148C1476.29,-148 1562.58,-148 1562.58,-148 1562.58,-148 1562.58,-267.03 1562.58,-267.03"/>
<polygon fill="black" stroke="black" points="1559.08,-267.03 1562.58,-277.03 1566.08,-267.03 1559.08,-267.03"/>
</g>
<!-- l2b_pol_pc_prod&#45;&gt;trans_pol_pc_l2b_l3 -->
<g id="edge26" class="edge">
<title>l2b_pol_pc_prod&#45;&gt;trans_pol_pc_l2b_l3</title>
<path fill="none" stroke="black" d="M2228.27,-497C2228.27,-497 2625.65,-497 2625.65,-497"/>
<polygon fill="black" stroke="black" points="2625.65,-500.5 2635.65,-497 2625.65,-493.5 2625.65,-500.5"/>
</g>
<!-- l2b_pol_pc_man&#45;&gt;trans_pol_pc_l2b_l3 -->
<g id="edge27" class="edge">
<title>l2b_pol_pc_man&#45;&gt;trans_pol_pc_l2b_l3</title>
<path fill="none" stroke="black" d="M2540.71,-417C2625.78,-417 2722.58,-417 2722.58,-417 2722.58,-417 2722.58,-450.78 2722.58,-450.78"/>
<polygon fill="black" stroke="black" points="2719.08,-450.78 2722.58,-460.78 2726.08,-450.78 2719.08,-450.78"/>
</g>
<!-- l2b_pol_pc_odir -->
<g id="node27" class="node">
<title>l2b_pol_pc_odir</title>
<ellipse fill="none" stroke="black" cx="2414.52" cy="-744" rx="139.98" ry="18"/>
<text text-anchor="middle" x="2414.52" y="-740.3" font-family="Times,serif" font-size="14.00">L2b_pol_pc output path 1..1</text>
</g>
<!-- l2b_pol_pc_odir&#45;&gt;trans_pol_pc_l2b_l3 -->
<g id="edge28" class="edge">
<title>l2b_pol_pc_odir&#45;&gt;trans_pol_pc_l2b_l3</title>
<path fill="none" stroke="black" d="M2528.58,-733.1C2528.58,-718.02 2528.58,-692.61 2528.58,-692.61 2528.58,-692.61 2662.89,-692.61 2662.89,-692.61"/>
<polygon fill="black" stroke="black" points="2662.89,-696.11 2672.89,-692.61 2662.89,-689.11 2662.89,-696.11"/>
</g>
<!-- l2b_pol_pc_rec -->
<g id="node28" class="node">
<title>l2b_pol_pc_rec</title>
<polygon fill="none" stroke="black" points="2490.52,-702 2326.52,-702 2326.52,-678 2490.52,-678 2502.52,-690 2490.52,-702"/>
<text text-anchor="middle" x="2414.52" y="-686.3" font-family="Times,serif" font-size="14.00">L2b_pol_pc recipe 1..1</text>
</g>
<!-- l2b_pol_pc_rec&#45;&gt;trans_pol_pc_l2b_l3 -->
<g id="edge29" class="edge">
<title>l2b_pol_pc_rec&#45;&gt;trans_pol_pc_l2b_l3</title>
<path fill="none" stroke="black" d="M2502.62,-682.31C2502.62,-682.31 2644.36,-682.31 2644.36,-682.31"/>
<polygon fill="black" stroke="black" points="2644.36,-685.81 2654.36,-682.31 2644.36,-678.81 2644.36,-685.81"/>
</g>
<!-- l2b_pol_pc_excicrf -->
<g id="node29" class="node">
<title>l2b_pol_pc_excicrf</title>
<polygon fill="none" stroke="black" points="2546.02,-648 2271.02,-648 2271.02,-624 2546.02,-624 2558.02,-636 2546.02,-648"/>
<text text-anchor="middle" x="2414.52" y="-632.3" font-family="Times,serif" font-size="14.00">L2b_pol_pc EXCAM ICRF location 1..1</text>
</g>
<!-- l2b_pol_pc_excicrf&#45;&gt;trans_pol_pc_l2b_l3 -->
<g id="edge30" class="edge">
<title>l2b_pol_pc_excicrf&#45;&gt;trans_pol_pc_l2b_l3</title>
<path fill="none" stroke="black" d="M2558.33,-636C2558.33,-636 2603.6,-636 2603.6,-636"/>
<polygon fill="black" stroke="black" points="2603.6,-639.5 2613.6,-636 2603.6,-632.5 2603.6,-639.5"/>
</g>
<!-- l2b_pol_pc_excfovps -->
<g id="node30" class="node">
<title>l2b_pol_pc_excfovps</title>
<polygon fill="none" stroke="black" points="2553.02,-594 2264.02,-594 2264.02,-570 2553.02,-570 2565.02,-582 2553.02,-594"/>
<text text-anchor="middle" x="2414.52" y="-578.3" font-family="Times,serif" font-size="14.00">L2b_pol_pc EXCAM FOV pixel scale 1..1</text>
</g>
<!-- l2b_pol_pc_excfovps&#45;&gt;trans_pol_pc_l2b_l3 -->
<g id="edge31" class="edge">
<title>l2b_pol_pc_excfovps&#45;&gt;trans_pol_pc_l2b_l3</title>
<path fill="none" stroke="black" d="M2565.08,-582C2565.08,-582 2590.92,-582 2590.92,-582"/>
<polygon fill="black" stroke="black" points="2590.92,-585.5 2600.92,-582 2590.92,-578.5 2590.92,-585.5"/>
</g>
<!-- l2b_pol_pc_cfamfo -->
<g id="node31" class="node">
<title>l2b_pol_pc_cfamfo</title>
<polygon fill="none" stroke="black" points="2535.02,-540 2282.02,-540 2282.02,-516 2535.02,-516 2547.02,-528 2535.02,-540"/>
<text text-anchor="middle" x="2414.52" y="-524.3" font-family="Times,serif" font-size="14.00">L2b_pol_pc CFAM filter offsets 1..1</text>
</g>
<!-- l2b_pol_pc_cfamfo&#45;&gt;trans_pol_pc_l2b_l3 -->
<g id="edge32" class="edge">
<title>l2b_pol_pc_cfamfo&#45;&gt;trans_pol_pc_l2b_l3</title>
<path fill="none" stroke="black" d="M2547.13,-528C2547.13,-528 2603.33,-528 2603.33,-528"/>
<polygon fill="black" stroke="black" points="2603.33,-531.5 2613.33,-528 2603.33,-524.5 2603.33,-531.5"/>
</g>
<!-- l2b_pol_pc_man_demux&#45;&gt;l2b_pol_pc_mux -->
<g id="edge24" class="edge">
<title>l2b_pol_pc_man_demux&#45;&gt;l2b_pol_pc_mux</title>
<path fill="none" stroke="black" d="M1998.25,-398C1998.25,-398 2034.68,-398 2034.68,-398"/>
<polygon fill="black" stroke="black" points="2034.68,-401.5 2044.68,-398 2034.68,-394.5 2034.68,-401.5"/>
</g>
<!-- l3_pol_pc_prod&#45;&gt;trans_pol_pc_l3_l4 -->
<g id="edge36" class="edge">
<title>l3_pol_pc_prod&#45;&gt;trans_pol_pc_l3_l4</title>
<path fill="none" stroke="black" d="M3105.55,-636C3105.55,-636 3185.14,-636 3185.14,-636"/>
<polygon fill="black" stroke="black" points="3185.14,-639.5 3195.14,-636 3185.14,-632.5 3185.14,-639.5"/>
</g>
<!-- l3_pol_pc_odir -->
<g id="node35" class="node">
<title>l3_pol_pc_odir</title>
<ellipse fill="none" stroke="black" cx="3012.74" cy="-798" rx="133.78" ry="18"/>
<text text-anchor="middle" x="3012.74" y="-794.3" font-family="Times,serif" font-size="14.00">L3_pol_pc output path 1..1</text>
</g>
<!-- l3_pol_pc_odir&#45;&gt;trans_pol_pc_l3_l4 -->
<g id="edge38" class="edge">
<title>l3_pol_pc_odir&#45;&gt;trans_pol_pc_l3_l4</title>
<path fill="none" stroke="black" d="M3145.38,-795.46C3145.38,-795.46 3234.18,-795.46 3234.18,-795.46"/>
<polygon fill="black" stroke="black" points="3234.18,-798.96 3244.18,-795.46 3234.18,-791.96 3234.18,-798.96"/>
</g>
<!-- l3_pol_pc_man&#45;&gt;trans_pol_pc_l3_l4 -->
<g id="edge37" class="edge">
<title>l3_pol_pc_man&#45;&gt;trans_pol_pc_l3_l4</title>
<path fill="none" stroke="black" d="M3131.86,-584.54C3131.86,-584.54 3234.31,-584.54 3234.31,-584.54"/>
<polygon fill="black" stroke="black" points="3234.31,-588.04 3244.31,-584.54 3234.31,-581.04 3234.31,-588.04"/>
</g>
<!-- l3_pol_pc_rec -->
<g id="node37" class="node">
<title>l3_pol_pc_rec</title>
<polygon fill="none" stroke="black" points="3084.24,-756 2929.24,-756 2929.24,-732 3084.24,-732 3096.24,-744 3084.24,-756"/>
<text text-anchor="middle" x="3012.74" y="-740.3" font-family="Times,serif" font-size="14.00">L3_pol_pc recipe 1..1</text>
</g>
<!-- l3_pol_pc_rec&#45;&gt;trans_pol_pc_l3_l4 -->
<g id="edge39" class="edge">
<title>l3_pol_pc_rec&#45;&gt;trans_pol_pc_l3_l4</title>
<path fill="none" stroke="black" d="M3096.46,-744C3096.46,-744 3185.22,-744 3185.22,-744"/>
<polygon fill="black" stroke="black" points="3185.22,-747.5 3195.22,-744 3185.22,-740.5 3185.22,-747.5"/>
</g>
<!-- l3_pol_pc_mueller -->
<g id="node38" class="node">
<title>l3_pol_pc_mueller</title>
<polygon fill="none" stroke="black" points="3115.24,-702 2898.24,-702 2898.24,-678 3115.24,-678 3127.24,-690 3115.24,-702"/>
<text text-anchor="middle" x="3012.74" y="-686.3" font-family="Times,serif" font-size="14.00">L3_pol_pc mueller matrix 1..1</text>
</g>
<!-- l3_pol_pc_mueller&#45;&gt;trans_pol_pc_l3_l4 -->
<g id="edge40" class="edge">
<title>l3_pol_pc_mueller&#45;&gt;trans_pol_pc_l3_l4</title>
<path fill="none" stroke="black" d="M3127.26,-690C3127.26,-690 3172.43,-690 3172.43,-690"/>
<polygon fill="black" stroke="black" points="3172.43,-693.5 3182.43,-690 3172.43,-686.5 3172.43,-693.5"/>
</g>
<!-- l4_pol_pc_prod&#45;&gt;trans_pol_pc_l4_tda -->
<g id="edge44" class="edge">
<title>l4_pol_pc_prod&#45;&gt;trans_pol_pc_l4_tda</title>
<path fill="none" stroke="black" d="M3746.49,-744C3746.49,-744 3904.36,-744 3904.36,-744"/>
<polygon fill="black" stroke="black" points="3904.36,-747.5 3914.36,-744 3904.36,-740.5 3904.36,-747.5"/>
</g>
<!-- l4_pol_pc_man&#45;&gt;trans_pol_pc_l4_tda -->
<g id="edge45" class="edge">
<title>l4_pol_pc_man&#45;&gt;trans_pol_pc_l4_tda</title>
<path fill="none" stroke="black" d="M3761.58,-644.06C3761.58,-664.55 3761.58,-717 3761.58,-717 3761.58,-717 3939.89,-717 3939.89,-717"/>
<polygon fill="black" stroke="black" points="3939.89,-720.5 3949.89,-717 3939.89,-713.5 3939.89,-720.5"/>
</g>
<!-- l4_pol_pc_odir -->
<g id="node43" class="node">
<title>l4_pol_pc_odir</title>
<ellipse fill="none" stroke="black" cx="3653.96" cy="-960" rx="133.78" ry="18"/>
<text text-anchor="middle" x="3653.96" y="-956.3" font-family="Times,serif" font-size="14.00">L4_pol_pc output path 1..1</text>
</g>
<!-- l4_pol_pc_odir&#45;&gt;trans_pol_pc_l4_tda -->
<g id="edge46" class="edge">
<title>l4_pol_pc_odir&#45;&gt;trans_pol_pc_l4_tda</title>
<path fill="none" stroke="black" d="M3763.58,-949.64C3763.58,-942.02 3763.58,-933 3763.58,-933 3763.58,-933 3939.73,-933 3939.73,-933"/>
<polygon fill="black" stroke="black" points="3939.73,-936.5 3949.73,-933 3939.73,-929.5 3939.73,-936.5"/>
</g>
<!-- l4_pol_pc_rec -->
<g id="node44" class="node">
<title>l4_pol_pc_rec</title>
<polygon fill="none" stroke="black" points="3725.46,-918 3570.46,-918 3570.46,-894 3725.46,-894 3737.46,-906 3725.46,-918"/>
<text text-anchor="middle" x="3653.96" y="-902.3" font-family="Times,serif" font-size="14.00">L4_pol_pc recipe 1..1</text>
</g>
<!-- l4_pol_pc_rec&#45;&gt;trans_pol_pc_l4_tda -->
<g id="edge47" class="edge">
<title>l4_pol_pc_rec&#45;&gt;trans_pol_pc_l4_tda</title>
<path fill="none" stroke="black" d="M3737.89,-906C3737.89,-906 3904.38,-906 3904.38,-906"/>
<polygon fill="black" stroke="black" points="3904.38,-909.5 3914.38,-906 3904.38,-902.5 3904.38,-909.5"/>
</g>
<!-- l4_pol_pc_ctcal -->
<g id="node45" class="node">
<title>l4_pol_pc_ctcal</title>
<polygon fill="none" stroke="black" points="3805.46,-864 3490.46,-864 3490.46,-840 3805.46,-840 3817.46,-852 3805.46,-864"/>
<text text-anchor="middle" x="3653.96" y="-848.3" font-family="Times,serif" font-size="14.00">L4_pol_pc core throughput calibrations 1..1</text>
</g>
<!-- l4_pol_pc_ctcal&#45;&gt;trans_pol_pc_l4_tda -->
<g id="edge48" class="edge">
<title>l4_pol_pc_ctcal&#45;&gt;trans_pol_pc_l4_tda</title>
<path fill="none" stroke="black" d="M3817.63,-852C3817.63,-852 3876.33,-852 3876.33,-852"/>
<polygon fill="black" stroke="black" points="3876.33,-855.5 3886.33,-852 3876.33,-848.5 3876.33,-855.5"/>
</g>
<!-- l4_pol_pc_pafcal -->
<g id="node46" class="node">
<title>l4_pol_pc_pafcal</title>
<polygon fill="none" stroke="black" points="3835.46,-810 3460.46,-810 3460.46,-786 3835.46,-786 3847.46,-798 3835.46,-810"/>
<text text-anchor="middle" x="3653.96" y="-794.3" font-family="Times,serif" font-size="14.00">L4_pol_pc polarimetric absolute flux calibration 1..1</text>
</g>
<!-- l4_pol_pc_pafcal&#45;&gt;trans_pol_pc_l4_tda -->
<g id="edge49" class="edge">
<title>l4_pol_pc_pafcal&#45;&gt;trans_pol_pc_l4_tda</title>
<path fill="none" stroke="black" d="M3847.62,-798C3847.62,-798 3876.31,-798 3876.31,-798"/>
<polygon fill="black" stroke="black" points="3876.31,-801.5 3886.31,-798 3876.31,-794.5 3876.31,-801.5"/>
</g>
</g>
</svg>
