<?xml version="1.0" encoding="UTF-8" standalone="no"?>
<!DOCTYPE svg PUBLIC "-//W3C//DTD SVG 1.1//EN"
 "http://www.w3.org/Graphics/SVG/1.1/DTD/svg11.dtd">
<!-- Generated by graphviz version 2.43.0 (0)
 -->
<!-- Title: SpectroscopyPhotonCount Pages: 1 -->
<svg width="4472pt" height="1215pt"
 viewBox="0.00 0.00 4472.39 1215.19" xmlns="http://www.w3.org/2000/svg" xmlns:xlink="http://www.w3.org/1999/xlink">
<g id="graph0" class="graph" transform="scale(1 1) rotate(0) translate(4 1211.19)">
<title>SpectroscopyPhotonCount</title>
<polygon fill="white" stroke="transparent" points="-4,4 -4,-1211.19 4468.39,-1211.19 4468.39,4 -4,4"/>
<!-- trans_spec_pc_l1_l2a -->
<g id="node1" class="node">
<title>trans_spec_pc_l1_l2a</title>
<ellipse fill="none" stroke="black" cx="446.77" cy="-133.19" rx="128.89" ry="128.89"/>
<text text-anchor="middle" x="446.77" y="-136.99" font-family="Times,serif" font-size="14.00">spec_pc Transmutation</text>
<text text-anchor="middle" x="446.77" y="-121.99" font-family="Times,serif" font-size="14.00">L1 to L2a</text>
</g>
<!-- l2a_spec_pc_prod -->
<g id="node13" class="node">
<title>l2a_spec_pc_prod</title>
<polygon fill="none" stroke="black" points="1121.53,-270.19 917.53,-270.19 917.53,-234.19 1121.53,-234.19 1121.53,-270.19"/>
<text text-anchor="middle" x="1019.53" y="-248.49" font-family="Times,serif" font-size="14.00">L2a_spec_pc products 1..b</text>
</g>
<!-- trans_spec_pc_l1_l2a&#45;&gt;l2a_spec_pc_prod -->
<g id="edge6" class="edge">
<title>trans_spec_pc_l1_l2a&#45;&gt;l2a_spec_pc_prod</title>
<path fill="none" stroke="black" d="M504.84,-248.03C504.84,-248.03 907.3,-248.03 907.3,-248.03"/>
<polygon fill="black" stroke="black" points="907.3,-251.53 917.3,-248.03 907.3,-244.53 907.3,-251.53"/>
</g>
<!-- l2a_spec_pc_man -->
<g id="node14" class="node">
<title>l2a_spec_pc_man</title>
<ellipse fill="none" stroke="black" cx="743.4" cy="-133.19" rx="131.88" ry="18"/>
<text text-anchor="middle" x="743.4" y="-129.49" font-family="Times,serif" font-size="14.00">L2a_spec_pc manifest 1..1</text>
</g>
<!-- trans_spec_pc_l1_l2a&#45;&gt;l2a_spec_pc_man -->
<g id="edge7" class="edge">
<title>trans_spec_pc_l1_l2a&#45;&gt;l2a_spec_pc_man</title>
<path fill="none" stroke="black" d="M575.58,-133.19C575.58,-133.19 601.43,-133.19 601.43,-133.19"/>
<polygon fill="black" stroke="black" points="601.43,-136.69 611.43,-133.19 601.43,-129.69 601.43,-136.69"/>
</g>
<!-- l2a_spec_pc_log -->
<g id="node22" class="node">
<title>l2a_spec_pc_log</title>
<ellipse fill="none" stroke="black" cx="743.4" cy="-79.19" rx="105.88" ry="18"/>
<text text-anchor="middle" x="743.4" y="-75.49" font-family="Times,serif" font-size="14.00">L2a log_spec_pc 1..1</text>
</g>
<!-- trans_spec_pc_l1_l2a&#45;&gt;l2a_spec_pc_log -->
<g id="edge8" class="edge">
<title>trans_spec_pc_l1_l2a&#45;&gt;l2a_spec_pc_log</title>
<path fill="none" stroke="black" d="M564.01,-79.19C564.01,-79.19 627.13,-79.19 627.13,-79.19"/>
<polygon fill="black" stroke="black" points="627.13,-82.69 637.13,-79.19 627.13,-75.69 627.13,-82.69"/>
</g>
<!-- l2a_spec_pc_demux -->
<g id="node2" class="node">
<title>l2a_spec_pc_demux</title>
<ellipse fill="none" stroke="black" cx="1019.53" cy="-108.19" rx="108.38" ry="108.38"/>
<text text-anchor="middle" x="1019.53" y="-111.99" font-family="Times,serif" font-size="14.00">spec_pc l2a Demux</text>
<text text-anchor="middle" x="1019.53" y="-96.99" font-family="Times,serif" font-size="14.00">Exposure</text>
</g>
<!-- l2a_spec_pc_man_demux -->
<g id="node23" class="node">
<title>l2a_spec_pc_man_demux</title>
<ellipse fill="none" stroke="black" cx="1317.71" cy="-157.19" rx="145.67" ry="18"/>
<text text-anchor="middle" x="1317.71" y="-153.49" font-family="Times,serif" font-size="14.00">L2a_spec_pc(E) manifest 1..1</text>
</g>
<!-- l2a_spec_pc_demux&#45;&gt;l2a_spec_pc_man_demux -->
<g id="edge21" class="edge">
<title>l2a_spec_pc_demux&#45;&gt;l2a_spec_pc_man_demux</title>
<path fill="none" stroke="black" d="M1116.34,-157.19C1116.34,-157.19 1162.12,-157.19 1162.12,-157.19"/>
<polygon fill="black" stroke="black" points="1162.12,-160.69 1172.12,-157.19 1162.12,-153.69 1162.12,-160.69"/>
</g>
<!-- trans_spec_pc_l2a_l2b -->
<g id="node3" class="node">
<title>trans_spec_pc_l2a_l2b</title>
<ellipse fill="none" stroke="black" cx="1636.41" cy="-381.19" rx="128.89" ry="128.89"/>
<text text-anchor="middle" x="1636.41" y="-384.99" font-family="Times,serif" font-size="14.00">spec_pc Transmutation</text>
<text text-anchor="middle" x="1636.41" y="-369.99" font-family="Times,serif" font-size="14.00">L2a to L2b</text>
</g>
<!-- l2b_spec_pc_prod -->
<g id="node24" class="node">
<title>l2b_spec_pc_prod</title>
<polygon fill="none" stroke="black" points="2334.57,-508.19 2129.57,-508.19 2129.57,-472.19 2334.57,-472.19 2334.57,-508.19"/>
<text text-anchor="middle" x="2232.07" y="-486.49" font-family="Times,serif" font-size="14.00">L2b_spec_pc products 1..1</text>
</g>
<!-- trans_spec_pc_l2a_l2b&#45;&gt;l2b_spec_pc_prod -->
<g id="edge17" class="edge">
<title>trans_spec_pc_l2a_l2b&#45;&gt;l2b_spec_pc_prod</title>
<path fill="none" stroke="black" d="M1705.03,-490.19C1705.03,-490.19 2119.35,-490.19 2119.35,-490.19"/>
<polygon fill="black" stroke="black" points="2119.35,-493.69 2129.35,-490.19 2119.35,-486.69 2119.35,-493.69"/>
</g>
<!-- l2b_spec_pc_man_demux -->
<g id="node31" class="node">
<title>l2b_spec_pc_man_demux</title>
<ellipse fill="none" stroke="black" cx="1947.34" cy="-381.19" rx="146.47" ry="18"/>
<text text-anchor="middle" x="1947.34" y="-377.49" font-family="Times,serif" font-size="14.00">L2b_spec_pc(E) manifest 1..1</text>
</g>
<!-- trans_spec_pc_l2a_l2b&#45;&gt;l2b_spec_pc_man_demux -->
<g id="edge18" class="edge">
<title>trans_spec_pc_l2a_l2b&#45;&gt;l2b_spec_pc_man_demux</title>
<path fill="none" stroke="black" d="M1765.12,-381.19C1765.12,-381.19 1791.06,-381.19 1791.06,-381.19"/>
<polygon fill="black" stroke="black" points="1791.06,-384.69 1801.06,-381.19 1791.06,-377.69 1791.06,-384.69"/>
</g>
<!-- l2b_spec_pc_log -->
<g id="node32" class="node">
<title>l2b_spec_pc_log</title>
<ellipse fill="none" stroke="black" cx="1947.34" cy="-327.19" rx="106.68" ry="18"/>
<text text-anchor="middle" x="1947.34" y="-323.49" font-family="Times,serif" font-size="14.00">L2b_spec_pc log 1..1</text>
</g>
<!-- trans_spec_pc_l2a_l2b&#45;&gt;l2b_spec_pc_log -->
<g id="edge19" class="edge">
<title>trans_spec_pc_l2a_l2b&#45;&gt;l2b_spec_pc_log</title>
<path fill="none" stroke="black" d="M1753.51,-327.19C1753.51,-327.19 1830.58,-327.19 1830.58,-327.19"/>
<polygon fill="black" stroke="black" points="1830.58,-330.69 1840.58,-327.19 1830.58,-323.69 1830.58,-330.69"/>
</g>
<!-- l2b_spec_pc_mux -->
<g id="node4" class="node">
<title>l2b_spec_pc_mux</title>
<ellipse fill="none" stroke="black" cx="2232.07" cy="-359.19" rx="95.42" ry="95.42"/>
<text text-anchor="middle" x="2232.07" y="-362.99" font-family="Times,serif" font-size="14.00">spec_pc l2b Mux</text>
<text text-anchor="middle" x="2232.07" y="-347.99" font-family="Times,serif" font-size="14.00">Exposure</text>
</g>
<!-- l2b_spec_pc_man -->
<g id="node25" class="node">
<title>l2b_spec_pc_man</title>
<ellipse fill="none" stroke="black" cx="2526.07" cy="-401.19" rx="132.68" ry="18"/>
<text text-anchor="middle" x="2526.07" y="-397.49" font-family="Times,serif" font-size="14.00">L2b_spec_pc manifest 1..1</text>
</g>
<!-- l2b_spec_pc_mux&#45;&gt;l2b_spec_pc_man -->
<g id="edge24" class="edge">
<title>l2b_spec_pc_mux&#45;&gt;l2b_spec_pc_man</title>
<path fill="none" stroke="black" d="M2317.9,-401.19C2317.9,-401.19 2383.39,-401.19 2383.39,-401.19"/>
<polygon fill="black" stroke="black" points="2383.39,-404.69 2393.39,-401.19 2383.39,-397.69 2383.39,-404.69"/>
</g>
<!-- trans_spec_pc_l2b_l3 -->
<g id="node5" class="node">
<title>trans_spec_pc_l2b_l3</title>
<ellipse fill="none" stroke="black" cx="2846.27" cy="-568.19" rx="128.89" ry="128.89"/>
<text text-anchor="middle" x="2846.27" y="-571.99" font-family="Times,serif" font-size="14.00">spec_pc Transmutation</text>
<text text-anchor="middle" x="2846.27" y="-556.99" font-family="Times,serif" font-size="14.00">L2b to L3</text>
</g>
<!-- l3_spec_pc_prod -->
<g id="node33" class="node">
<title>l3_spec_pc_prod</title>
<polygon fill="none" stroke="black" points="3250,-640.19 3054,-640.19 3054,-604.19 3250,-604.19 3250,-640.19"/>
<text text-anchor="middle" x="3152" y="-618.49" font-family="Times,serif" font-size="14.00">L3_spec_pc products 1..1</text>
</g>
<!-- trans_spec_pc_l2b_l3&#45;&gt;l3_spec_pc_prod -->
<g id="edge32" class="edge">
<title>trans_spec_pc_l2b_l3&#45;&gt;l3_spec_pc_prod</title>
<path fill="none" stroke="black" d="M2963.16,-622.19C2963.16,-622.19 3043.58,-622.19 3043.58,-622.19"/>
<polygon fill="black" stroke="black" points="3043.58,-625.69 3053.58,-622.19 3043.58,-618.69 3043.58,-625.69"/>
</g>
<!-- l3_spec_pc_man -->
<g id="node35" class="node">
<title>l3_spec_pc_man</title>
<ellipse fill="none" stroke="black" cx="3152" cy="-568.19" rx="126.98" ry="18"/>
<text text-anchor="middle" x="3152" y="-564.49" font-family="Times,serif" font-size="14.00">L3_spec_pc manifest 1..1</text>
</g>
<!-- trans_spec_pc_l2b_l3&#45;&gt;l3_spec_pc_man -->
<g id="edge33" class="edge">
<title>trans_spec_pc_l2b_l3&#45;&gt;l3_spec_pc_man</title>
<path fill="none" stroke="black" d="M2975.04,-568.19C2975.04,-568.19 3014.84,-568.19 3014.84,-568.19"/>
<polygon fill="black" stroke="black" points="3014.84,-571.69 3024.84,-568.19 3014.84,-564.69 3014.84,-571.69"/>
</g>
<!-- l3_spec_pc_log -->
<g id="node39" class="node">
<title>l3_spec_pc_log</title>
<ellipse fill="none" stroke="black" cx="3152" cy="-514.19" rx="100.98" ry="18"/>
<text text-anchor="middle" x="3152" y="-510.49" font-family="Times,serif" font-size="14.00">L3_spec_pc log 1..1</text>
</g>
<!-- trans_spec_pc_l2b_l3&#45;&gt;l3_spec_pc_log -->
<g id="edge34" class="edge">
<title>trans_spec_pc_l2b_l3&#45;&gt;l3_spec_pc_log</title>
<path fill="none" stroke="black" d="M2963.16,-514.19C2963.16,-514.19 3041.13,-514.19 3041.13,-514.19"/>
<polygon fill="black" stroke="black" points="3041.13,-517.69 3051.13,-514.19 3041.13,-510.69 3041.13,-517.69"/>
</g>
<!-- trans_spec_pc_l3_l4 -->
<g id="node6" class="node">
<title>trans_spec_pc_l3_l4</title>
<ellipse fill="none" stroke="black" cx="3457.73" cy="-703.19" rx="128.89" ry="128.89"/>
<text text-anchor="middle" x="3457.73" y="-706.99" font-family="Times,serif" font-size="14.00">spec_pc Transmutation</text>
<text text-anchor="middle" x="3457.73" y="-691.99" font-family="Times,serif" font-size="14.00">L3 to L4</text>
</g>
<!-- l4_spec_pc_prod -->
<g id="node40" class="node">
<title>l4_spec_pc_prod</title>
<polygon fill="none" stroke="black" points="3884.42,-775.19 3688.42,-775.19 3688.42,-739.19 3884.42,-739.19 3884.42,-775.19"/>
<text text-anchor="middle" x="3786.42" y="-753.49" font-family="Times,serif" font-size="14.00">L4_spec_pc products 1..1</text>
</g>
<!-- trans_spec_pc_l3_l4&#45;&gt;l4_spec_pc_prod -->
<g id="edge41" class="edge">
<title>trans_spec_pc_l3_l4&#45;&gt;l4_spec_pc_prod</title>
<path fill="none" stroke="black" d="M3575,-757.19C3575,-757.19 3678.19,-757.19 3678.19,-757.19"/>
<polygon fill="black" stroke="black" points="3678.19,-760.69 3688.19,-757.19 3678.19,-753.69 3678.19,-760.69"/>
</g>
<!-- l4_spec_pc_log -->
<g id="node42" class="node">
<title>l4_spec_pc_log</title>
<ellipse fill="none" stroke="black" cx="3786.42" cy="-703.19" rx="100.98" ry="18"/>
<text text-anchor="middle" x="3786.42" y="-699.49" font-family="Times,serif" font-size="14.00">L4_spec_pc log 1..1</text>
</g>
<!-- trans_spec_pc_l3_l4&#45;&gt;l4_spec_pc_log -->
<g id="edge42" class="edge">
<title>trans_spec_pc_l3_l4&#45;&gt;l4_spec_pc_log</title>
<path fill="none" stroke="black" d="M3586.69,-703.19C3586.69,-703.19 3675.51,-703.19 3675.51,-703.19"/>
<polygon fill="black" stroke="black" points="3675.51,-706.69 3685.51,-703.19 3675.51,-699.69 3675.51,-706.69"/>
</g>
<!-- l4_spec_pc_man -->
<g id="node43" class="node">
<title>l4_spec_pc_man</title>
<ellipse fill="none" stroke="black" cx="3786.42" cy="-649.19" rx="126.98" ry="18"/>
<text text-anchor="middle" x="3786.42" y="-645.49" font-family="Times,serif" font-size="14.00">L4_spec_pc manifest 1..1</text>
</g>
<!-- trans_spec_pc_l3_l4&#45;&gt;l4_spec_pc_man -->
<g id="edge43" class="edge">
<title>trans_spec_pc_l3_l4&#45;&gt;l4_spec_pc_man</title>
<path fill="none" stroke="black" d="M3575,-649.19C3575,-649.19 3649.44,-649.19 3649.44,-649.19"/>
<polygon fill="black" stroke="black" points="3649.44,-652.69 3659.44,-649.19 3649.44,-645.69 3649.44,-652.69"/>
</g>
<!-- trans_spec_pc_l4_tda -->
<g id="node7" class="node">
<title>trans_spec_pc_l4_tda</title>
<ellipse fill="none" stroke="black" cx="4115.12" cy="-946.19" rx="128.89" ry="128.89"/>
<text text-anchor="middle" x="4115.12" y="-949.99" font-family="Times,serif" font-size="14.00">spec_pc Transmutation</text>
<text text-anchor="middle" x="4115.12" y="-934.99" font-family="Times,serif" font-size="14.00">L4 to TDA</text>
</g>
<!-- tda_spec_pc_prod -->
<g id="node51" class="node">
<title>tda_spec_pc_prod</title>
<ellipse fill="none" stroke="black" cx="4372.1" cy="-973.19" rx="92.08" ry="18"/>
<text text-anchor="middle" x="4372.1" y="-969.49" font-family="Times,serif" font-size="14.00">tda_spec_pc_prod</text>
</g>
<!-- trans_spec_pc_l4_tda&#45;&gt;tda_spec_pc_prod -->
<g id="edge54" class="edge">
<title>trans_spec_pc_l4_tda&#45;&gt;tda_spec_pc_prod</title>
<path fill="none" stroke="black" d="M4240.97,-973.19C4240.97,-973.19 4269.47,-973.19 4269.47,-973.19"/>
<polygon fill="black" stroke="black" points="4269.47,-976.69 4279.47,-973.19 4269.47,-969.69 4269.47,-976.69"/>
</g>
<!-- tda_spec_pc_log -->
<g id="node52" class="node">
<title>tda_spec_pc_log</title>
<ellipse fill="none" stroke="black" cx="4372.1" cy="-919.19" rx="85.29" ry="18"/>
<text text-anchor="middle" x="4372.1" y="-915.49" font-family="Times,serif" font-size="14.00">tda_spec_pc_log</text>
</g>
<!-- trans_spec_pc_l4_tda&#45;&gt;tda_spec_pc_log -->
<g id="edge55" class="edge">
<title>trans_spec_pc_l4_tda&#45;&gt;tda_spec_pc_log</title>
<path fill="none" stroke="black" d="M4240.97,-919.19C4240.97,-919.19 4276.77,-919.19 4276.77,-919.19"/>
<polygon fill="black" stroke="black" points="4276.77,-922.69 4286.77,-919.19 4276.77,-915.69 4276.77,-922.69"/>
</g>
<!-- l1_spec_pc_prod -->
<g id="node8" class="node">
<title>l1_spec_pc_prod</title>
<polygon fill="none" stroke="black" points="239.04,-259.19 43.04,-259.19 43.04,-223.19 239.04,-223.19 239.04,-259.19"/>
<text text-anchor="middle" x="141.04" y="-237.49" font-family="Times,serif" font-size="14.00">L1_spec_pc products 1..b</text>
</g>
<!-- l1_spec_pc_prod&#45;&gt;trans_spec_pc_l1_l2a -->
<g id="edge1" class="edge">
<title>l1_spec_pc_prod&#45;&gt;trans_spec_pc_l1_l2a</title>
<path fill="none" stroke="black" d="M239.46,-241.19C239.46,-241.19 366.63,-241.19 366.63,-241.19"/>
<polygon fill="black" stroke="black" points="366.63,-244.69 376.63,-241.19 366.63,-237.69 366.63,-244.69"/>
</g>
<!-- l1_spec_pc_man -->
<g id="node9" class="node">
<title>l1_spec_pc_man</title>
<ellipse fill="none" stroke="black" cx="141.04" cy="-187.19" rx="126.98" ry="18"/>
<text text-anchor="middle" x="141.04" y="-183.49" font-family="Times,serif" font-size="14.00">L1_spec_pc manifest 1..1</text>
</g>
<!-- l1_spec_pc_man&#45;&gt;trans_spec_pc_l1_l2a -->
<g id="edge2" class="edge">
<title>l1_spec_pc_man&#45;&gt;trans_spec_pc_l1_l2a</title>
<path fill="none" stroke="black" d="M268.04,-187.19C268.04,-187.19 319.95,-187.19 319.95,-187.19"/>
<polygon fill="black" stroke="black" points="319.95,-190.69 329.95,-187.19 319.95,-183.69 319.95,-190.69"/>
</g>
<!-- l1_spec_pc_odir -->
<g id="node10" class="node">
<title>l1_spec_pc_odir</title>
<ellipse fill="none" stroke="black" cx="141.04" cy="-133.19" rx="141.07" ry="18"/>
<text text-anchor="middle" x="141.04" y="-129.49" font-family="Times,serif" font-size="14.00">L1_spec_pc output path 1..1</text>
</g>
<!-- l1_spec_pc_odir&#45;&gt;trans_spec_pc_l1_l2a -->
<g id="edge3" class="edge">
<title>l1_spec_pc_odir&#45;&gt;trans_spec_pc_l1_l2a</title>
<path fill="none" stroke="black" d="M282.27,-133.19C282.27,-133.19 307.93,-133.19 307.93,-133.19"/>
<polygon fill="black" stroke="black" points="307.93,-136.69 317.93,-133.19 307.93,-129.69 307.93,-136.69"/>
</g>
<!-- l1_spec_pc_rec -->
<g id="node11" class="node">
<title>l1_spec_pc_rec</title>
<polygon fill="none" stroke="black" points="217.54,-91.19 52.54,-91.19 52.54,-67.19 217.54,-67.19 229.54,-79.19 217.54,-91.19"/>
<text text-anchor="middle" x="141.04" y="-75.49" font-family="Times,serif" font-size="14.00">L1_spec_pc recipe 1..1</text>
</g>
<!-- l1_spec_pc_rec&#45;&gt;trans_spec_pc_l1_l2a -->
<g id="edge4" class="edge">
<title>l1_spec_pc_rec&#45;&gt;trans_spec_pc_l1_l2a</title>
<path fill="none" stroke="black" d="M229.88,-79.19C229.88,-79.19 319.8,-79.19 319.8,-79.19"/>
<polygon fill="black" stroke="black" points="319.8,-82.69 329.8,-79.19 319.8,-75.69 319.8,-82.69"/>
</g>
<!-- l1_spec_pc_nllut -->
<g id="node12" class="node">
<title>l1_spec_pc_nllut</title>
<polygon fill="none" stroke="black" points="248.54,-37.19 21.54,-37.19 21.54,-13.19 248.54,-13.19 260.54,-25.19 248.54,-37.19"/>
<text text-anchor="middle" x="141.04" y="-21.49" font-family="Times,serif" font-size="14.00">L1_spec_pc non&#45;linear LUT 1..1</text>
</g>
<!-- l1_spec_pc_nllut&#45;&gt;trans_spec_pc_l1_l2a -->
<g id="edge5" class="edge">
<title>l1_spec_pc_nllut&#45;&gt;trans_spec_pc_l1_l2a</title>
<path fill="none" stroke="black" d="M260.55,-25.19C260.55,-25.19 366.35,-25.19 366.35,-25.19"/>
<polygon fill="black" stroke="black" points="366.35,-28.69 376.35,-25.19 366.35,-21.69 366.35,-28.69"/>
</g>
<!-- l2a_spec_pc_prod&#45;&gt;trans_spec_pc_l2a_l2b -->
<g id="edge9" class="edge">
<title>l2a_spec_pc_prod&#45;&gt;trans_spec_pc_l2a_l2b</title>
<path fill="none" stroke="black" d="M1020.39,-270.33C1020.39,-283.93 1020.39,-300.19 1020.39,-300.19 1020.39,-300.19 1526.06,-300.19 1526.06,-300.19"/>
<polygon fill="black" stroke="black" points="1526.06,-303.69 1536.06,-300.19 1526.06,-296.69 1526.06,-303.69"/>
</g>
<!-- l2a_spec_pc_man&#45;&gt;l2a_spec_pc_demux -->
<g id="edge20" class="edge">
<title>l2a_spec_pc_man&#45;&gt;l2a_spec_pc_demux</title>
<path fill="none" stroke="black" d="M875.4,-133.19C875.4,-133.19 904.25,-133.19 904.25,-133.19"/>
<polygon fill="black" stroke="black" points="904.25,-136.69 914.25,-133.19 904.25,-129.69 904.25,-136.69"/>
</g>
<!-- l2a_spec_pc_odir -->
<g id="node15" class="node">
<title>l2a_spec_pc_odir</title>
<ellipse fill="none" stroke="black" cx="1317.71" cy="-599.19" rx="146.47" ry="18"/>
<text text-anchor="middle" x="1317.71" y="-595.49" font-family="Times,serif" font-size="14.00">L2a_spec_pc output path 1..1</text>
</g>
<!-- l2a_spec_pc_odir&#45;&gt;trans_spec_pc_l2a_l2b -->
<g id="edge10" class="edge">
<title>l2a_spec_pc_odir&#45;&gt;trans_spec_pc_l2a_l2b</title>
<path fill="none" stroke="black" d="M1460.4,-595.19C1561.55,-595.19 1679.39,-595.19 1679.39,-595.19 1679.39,-595.19 1679.39,-512.57 1679.39,-512.57"/>
<polygon fill="black" stroke="black" points="1682.89,-512.57 1679.39,-502.57 1675.89,-512.57 1682.89,-512.57"/>
</g>
<!-- l2a_spec_pc_rec -->
<g id="node16" class="node">
<title>l2a_spec_pc_rec</title>
<polygon fill="none" stroke="black" points="1398.21,-557.19 1225.21,-557.19 1225.21,-533.19 1398.21,-533.19 1410.21,-545.19 1398.21,-557.19"/>
<text text-anchor="middle" x="1317.71" y="-541.49" font-family="Times,serif" font-size="14.00">L2a_spec_pc recipe 1..1</text>
</g>
<!-- l2a_spec_pc_rec&#45;&gt;trans_spec_pc_l2a_l2b -->
<g id="edge11" class="edge">
<title>l2a_spec_pc_rec&#45;&gt;trans_spec_pc_l2a_l2b</title>
<path fill="none" stroke="black" d="M1410.23,-541.19C1490.66,-541.19 1594.39,-541.19 1594.39,-541.19 1594.39,-541.19 1594.39,-512.86 1594.39,-512.86"/>
<polygon fill="black" stroke="black" points="1597.89,-512.86 1594.39,-502.86 1590.89,-512.86 1597.89,-512.86"/>
</g>
<!-- l2a_spec_pc_cti -->
<g id="node17" class="node">
<title>l2a_spec_pc_cti</title>
<polygon fill="none" stroke="black" points="1459.71,-503.19 1163.71,-503.19 1163.71,-479.19 1459.71,-479.19 1471.71,-491.19 1459.71,-503.19"/>
<text text-anchor="middle" x="1317.71" y="-487.49" font-family="Times,serif" font-size="14.00">L2a_spec_pc charge xfer inefficiency 1..1</text>
</g>
<!-- l2a_spec_pc_cti&#45;&gt;trans_spec_pc_l2a_l2b -->
<g id="edge12" class="edge">
<title>l2a_spec_pc_cti&#45;&gt;trans_spec_pc_l2a_l2b</title>
<path fill="none" stroke="black" stroke-dasharray="5,2" d="M1471.93,-491.19C1471.93,-491.19 1559.46,-491.19 1559.46,-491.19"/>
<polygon fill="black" stroke="black" points="1559.46,-494.69 1569.46,-491.19 1559.46,-487.69 1559.46,-494.69"/>
</g>
<!-- l2a_spec_pc_dnb -->
<g id="node18" class="node">
<title>l2a_spec_pc_dnb</title>
<polygon fill="none" stroke="black" points="1441.71,-449.19 1181.71,-449.19 1181.71,-423.19 1441.71,-423.19 1453.71,-436.19 1441.71,-449.19"/>
<text text-anchor="middle" x="1317.71" y="-439.99" font-family="Times,serif" font-size="14.00">L2a_spec_pc CIC/Dark Current/FPN</text>
<text text-anchor="middle" x="1317.71" y="-424.99" font-family="Times,serif" font-size="14.00"> or master dark 1..1</text>
</g>
<!-- l2a_spec_pc_dnb&#45;&gt;trans_spec_pc_l2a_l2b -->
<g id="edge13" class="edge">
<title>l2a_spec_pc_dnb&#45;&gt;trans_spec_pc_l2a_l2b</title>
<path fill="none" stroke="black" d="M1453.79,-436.19C1453.79,-436.19 1509.86,-436.19 1509.86,-436.19"/>
<polygon fill="black" stroke="black" points="1509.86,-439.69 1519.86,-436.19 1509.86,-432.69 1509.86,-439.69"/>
</g>
<!-- l2a_spec_pc_mbpm -->
<g id="node19" class="node">
<title>l2a_spec_pc_mbpm</title>
<polygon fill="none" stroke="black" points="1453.71,-393.19 1169.71,-393.19 1169.71,-369.19 1453.71,-369.19 1465.71,-381.19 1453.71,-393.19"/>
<text text-anchor="middle" x="1317.71" y="-377.49" font-family="Times,serif" font-size="14.00">L2a_spec_pc master bad pixel map 1..1</text>
</g>
<!-- l2a_spec_pc_mbpm&#45;&gt;trans_spec_pc_l2a_l2b -->
<g id="edge14" class="edge">
<title>l2a_spec_pc_mbpm&#45;&gt;trans_spec_pc_l2a_l2b</title>
<path fill="none" stroke="black" d="M1465.86,-381.19C1465.86,-381.19 1497.23,-381.19 1497.23,-381.19"/>
<polygon fill="black" stroke="black" points="1497.23,-384.69 1507.23,-381.19 1497.23,-377.69 1497.23,-384.69"/>
</g>
<!-- l2a_spec_pc_kgain -->
<g id="node20" class="node">
<title>l2a_spec_pc_kgain</title>
<polygon fill="none" stroke="black" points="1396.71,-339.19 1226.71,-339.19 1226.71,-315.19 1396.71,-315.19 1408.71,-327.19 1396.71,-339.19"/>
<text text-anchor="middle" x="1317.71" y="-323.49" font-family="Times,serif" font-size="14.00">L2a_spec_pc Kgain 1..1</text>
</g>
<!-- l2a_spec_pc_kgain&#45;&gt;trans_spec_pc_l2a_l2b -->
<g id="edge16" class="edge">
<title>l2a_spec_pc_kgain&#45;&gt;trans_spec_pc_l2a_l2b</title>
<path fill="none" stroke="black" d="M1409.04,-327.19C1409.04,-327.19 1509.45,-327.19 1509.45,-327.19"/>
<polygon fill="black" stroke="black" points="1509.45,-330.69 1519.45,-327.19 1509.45,-323.69 1509.45,-330.69"/>
</g>
<!-- l2a_spec_pc_emg -->
<g id="node21" class="node">
<title>l2a_spec_pc_emg</title>
<polygon fill="none" stroke="black" points="1406.21,-285.19 1217.21,-285.19 1217.21,-261.19 1406.21,-261.19 1418.21,-273.19 1406.21,-285.19"/>
<text text-anchor="middle" x="1317.71" y="-269.49" font-family="Times,serif" font-size="14.00">L2a_spec_pc EM gain 1..1</text>
</g>
<!-- l2a_spec_pc_emg&#45;&gt;trans_spec_pc_l2a_l2b -->
<g id="edge15" class="edge">
<title>l2a_spec_pc_emg&#45;&gt;trans_spec_pc_l2a_l2b</title>
<path fill="none" stroke="black" d="M1418.55,-279.19C1418.55,-279.19 1547.68,-279.19 1547.68,-279.19"/>
<polygon fill="black" stroke="black" points="1547.68,-282.69 1557.68,-279.19 1547.68,-275.69 1547.68,-282.69"/>
</g>
<!-- l2a_spec_pc_man_demux&#45;&gt;trans_spec_pc_l2a_l2b -->
<g id="edge22" class="edge">
<title>l2a_spec_pc_man_demux&#45;&gt;trans_spec_pc_l2a_l2b</title>
<path fill="none" stroke="black" d="M1441.39,-166.95C1441.39,-193.87 1441.39,-267.19 1441.39,-267.19 1441.39,-267.19 1566.57,-267.19 1566.57,-267.19"/>
<polygon fill="black" stroke="black" points="1566.57,-270.69 1576.57,-267.19 1566.57,-263.69 1566.57,-270.69"/>
</g>
<!-- l2b_spec_pc_prod&#45;&gt;trans_spec_pc_l2b_l3 -->
<g id="edge25" class="edge">
<title>l2b_spec_pc_prod&#45;&gt;trans_spec_pc_l2b_l3</title>
<path fill="none" stroke="black" d="M2334.88,-484.19C2334.88,-484.19 2738.71,-484.19 2738.71,-484.19"/>
<polygon fill="black" stroke="black" points="2738.71,-487.69 2748.71,-484.19 2738.71,-480.69 2738.71,-487.69"/>
</g>
<!-- l2b_spec_pc_man&#45;&gt;trans_spec_pc_l2b_l3 -->
<g id="edge26" class="edge">
<title>l2b_spec_pc_man&#45;&gt;trans_spec_pc_l2b_l3</title>
<path fill="none" stroke="black" d="M2526.39,-419.32C2526.39,-432.15 2526.39,-447.07 2526.39,-447.07 2526.39,-447.07 2792.46,-447.07 2792.46,-447.07"/>
<polygon fill="black" stroke="black" points="2792.46,-450.57 2802.46,-447.07 2792.46,-443.57 2792.46,-450.57"/>
</g>
<!-- l2b_spec_pc_odir -->
<g id="node26" class="node">
<title>l2b_spec_pc_odir</title>
<ellipse fill="none" stroke="black" cx="2526.07" cy="-730.19" rx="146.77" ry="18"/>
<text text-anchor="middle" x="2526.07" y="-726.49" font-family="Times,serif" font-size="14.00">L2b_spec_pc output path 1..1</text>
</g>
<!-- l2b_spec_pc_odir&#45;&gt;trans_spec_pc_l2b_l3 -->
<g id="edge27" class="edge">
<title>l2b_spec_pc_odir&#45;&gt;trans_spec_pc_l2b_l3</title>
<path fill="none" stroke="black" d="M2646.39,-719.53C2646.39,-705.39 2646.39,-682.19 2646.39,-682.19 2646.39,-682.19 2776.3,-682.19 2776.3,-682.19"/>
<polygon fill="black" stroke="black" points="2776.3,-685.69 2786.3,-682.19 2776.3,-678.69 2776.3,-685.69"/>
</g>
<!-- l2b_spec_pc_rec -->
<g id="node27" class="node">
<title>l2b_spec_pc_rec</title>
<polygon fill="none" stroke="black" points="2607.07,-688.19 2433.07,-688.19 2433.07,-664.19 2607.07,-664.19 2619.07,-676.19 2607.07,-688.19"/>
<text text-anchor="middle" x="2526.07" y="-672.49" font-family="Times,serif" font-size="14.00">L2b_spec_pc recipe 1..1</text>
</g>
<!-- l2b_spec_pc_rec&#45;&gt;trans_spec_pc_l2b_l3 -->
<g id="edge28" class="edge">
<title>l2b_spec_pc_rec&#45;&gt;trans_spec_pc_l2b_l3</title>
<path fill="none" stroke="black" d="M2619.12,-670.19C2619.12,-670.19 2757.62,-670.19 2757.62,-670.19"/>
<polygon fill="black" stroke="black" points="2757.62,-673.69 2767.62,-670.19 2757.62,-666.69 2757.62,-673.69"/>
</g>
<!-- l2b_spec_pc_excicrf -->
<g id="node28" class="node">
<title>l2b_spec_pc_excicrf</title>
<polygon fill="none" stroke="black" points="2663.07,-634.19 2377.07,-634.19 2377.07,-610.19 2663.07,-610.19 2675.07,-622.19 2663.07,-634.19"/>
<text text-anchor="middle" x="2526.07" y="-618.49" font-family="Times,serif" font-size="14.00">L2b_spec_pc EXCAM ICRF location 1..1</text>
</g>
<!-- l2b_spec_pc_excicrf&#45;&gt;trans_spec_pc_l2b_l3 -->
<g id="edge29" class="edge">
<title>l2b_spec_pc_excicrf&#45;&gt;trans_spec_pc_l2b_l3</title>
<path fill="none" stroke="black" d="M2675.39,-622.19C2675.39,-622.19 2719.3,-622.19 2719.3,-622.19"/>
<polygon fill="black" stroke="black" points="2719.3,-625.69 2729.3,-622.19 2719.3,-618.69 2719.3,-625.69"/>
</g>
<!-- l2b_spec_pc_excfovps -->
<g id="node29" class="node">
<title>l2b_spec_pc_excfovps</title>
<polygon fill="none" stroke="black" points="2669.57,-580.19 2370.57,-580.19 2370.57,-556.19 2669.57,-556.19 2681.57,-568.19 2669.57,-580.19"/>
<text text-anchor="middle" x="2526.07" y="-564.49" font-family="Times,serif" font-size="14.00">L2b_spec_pc EXCAM FOV pixel scale 1..1</text>
</g>
<!-- l2b_spec_pc_excfovps&#45;&gt;trans_spec_pc_l2b_l3 -->
<g id="edge30" class="edge">
<title>l2b_spec_pc_excfovps&#45;&gt;trans_spec_pc_l2b_l3</title>
<path fill="none" stroke="black" d="M2681.95,-568.19C2681.95,-568.19 2707.56,-568.19 2707.56,-568.19"/>
<polygon fill="black" stroke="black" points="2707.56,-571.69 2717.56,-568.19 2707.56,-564.69 2707.56,-571.69"/>
</g>
<!-- l2b_spec_pc_cfamfo -->
<g id="node30" class="node">
<title>l2b_spec_pc_cfamfo</title>
<polygon fill="none" stroke="black" points="2651.57,-526.19 2388.57,-526.19 2388.57,-502.19 2651.57,-502.19 2663.57,-514.19 2651.57,-526.19"/>
<text text-anchor="middle" x="2526.07" y="-510.49" font-family="Times,serif" font-size="14.00">L2b_spec_pc CFAM filter offsets 1..1</text>
</g>
<!-- l2b_spec_pc_cfamfo&#45;&gt;trans_spec_pc_l2b_l3 -->
<g id="edge31" class="edge">
<title>l2b_spec_pc_cfamfo&#45;&gt;trans_spec_pc_l2b_l3</title>
<path fill="none" stroke="black" d="M2663.72,-514.19C2663.72,-514.19 2719.35,-514.19 2719.35,-514.19"/>
<polygon fill="black" stroke="black" points="2719.35,-517.69 2729.35,-514.19 2719.35,-510.69 2719.35,-517.69"/>
</g>
<!-- l2b_spec_pc_man_demux&#45;&gt;l2b_spec_pc_mux -->
<g id="edge23" class="edge">
<title>l2b_spec_pc_man_demux&#45;&gt;l2b_spec_pc_mux</title>
<path fill="none" stroke="black" d="M2093.88,-381.19C2093.88,-381.19 2129.15,-381.19 2129.15,-381.19"/>
<polygon fill="black" stroke="black" points="2129.15,-384.69 2139.15,-381.19 2129.15,-377.69 2129.15,-384.69"/>
</g>
<!-- l3_spec_pc_prod&#45;&gt;trans_spec_pc_l3_l4 -->
<g id="edge35" class="edge">
<title>l3_spec_pc_prod&#45;&gt;trans_spec_pc_l3_l4</title>
<path fill="none" stroke="black" d="M3250.42,-622.19C3250.42,-622.19 3347.66,-622.19 3347.66,-622.19"/>
<polygon fill="black" stroke="black" points="3347.66,-625.69 3357.66,-622.19 3347.66,-618.69 3347.66,-625.69"/>
</g>
<!-- l3_spec_pc_odir -->
<g id="node34" class="node">
<title>l3_spec_pc_odir</title>
<ellipse fill="none" stroke="black" cx="3152" cy="-838.19" rx="141.07" ry="18"/>
<text text-anchor="middle" x="3152" y="-834.49" font-family="Times,serif" font-size="14.00">L3_spec_pc output path 1..1</text>
</g>
<!-- l3_spec_pc_odir&#45;&gt;trans_spec_pc_l3_l4 -->
<g id="edge37" class="edge">
<title>l3_spec_pc_odir&#45;&gt;trans_spec_pc_l3_l4</title>
<path fill="none" stroke="black" d="M3256.36,-826.03C3256.36,-826.03 3409.26,-826.03 3409.26,-826.03"/>
<polygon fill="black" stroke="black" points="3409.26,-829.53 3419.26,-826.03 3409.26,-822.53 3409.26,-829.53"/>
</g>
<!-- l3_spec_pc_man&#45;&gt;trans_spec_pc_l3_l4 -->
<g id="edge36" class="edge">
<title>l3_spec_pc_man&#45;&gt;trans_spec_pc_l3_l4</title>
<path fill="none" stroke="black" d="M3245.81,-580.34C3245.81,-580.34 3409.18,-580.34 3409.18,-580.34"/>
<polygon fill="black" stroke="black" points="3409.18,-583.84 3419.18,-580.34 3409.18,-576.84 3409.18,-583.84"/>
</g>
<!-- l3_spec_pc_rec -->
<g id="node36" class="node">
<title>l3_spec_pc_rec</title>
<polygon fill="none" stroke="black" points="3228.5,-796.19 3063.5,-796.19 3063.5,-772.19 3228.5,-772.19 3240.5,-784.19 3228.5,-796.19"/>
<text text-anchor="middle" x="3152" y="-780.49" font-family="Times,serif" font-size="14.00">L3_spec_pc recipe 1..1</text>
</g>
<!-- l3_spec_pc_rec&#45;&gt;trans_spec_pc_l3_l4 -->
<g id="edge38" class="edge">
<title>l3_spec_pc_rec&#45;&gt;trans_spec_pc_l3_l4</title>
<path fill="none" stroke="black" d="M3240.84,-784.19C3240.84,-784.19 3347.65,-784.19 3347.65,-784.19"/>
<polygon fill="black" stroke="black" points="3347.65,-787.69 3357.65,-784.19 3347.65,-780.69 3347.65,-787.69"/>
</g>
<!-- l3_spec_pc_dispm -->
<g id="node37" class="node">
<title>l3_spec_pc_dispm</title>
<polygon fill="none" stroke="black" points="3267.5,-742.19 3024.5,-742.19 3024.5,-718.19 3267.5,-718.19 3279.5,-730.19 3267.5,-742.19"/>
<text text-anchor="middle" x="3152" y="-726.49" font-family="Times,serif" font-size="14.00">L3_spec_pc dispersion model 1..1</text>
</g>
<!-- l3_spec_pc_dispm&#45;&gt;trans_spec_pc_l3_l4 -->
<g id="edge39" class="edge">
<title>l3_spec_pc_dispm&#45;&gt;trans_spec_pc_l3_l4</title>
<path fill="none" stroke="black" d="M3279.88,-730.19C3279.88,-730.19 3321.83,-730.19 3321.83,-730.19"/>
<polygon fill="black" stroke="black" points="3321.83,-733.69 3331.83,-730.19 3321.83,-726.69 3321.83,-733.69"/>
</g>
<!-- l3_spec_pc_wavem -->
<g id="node38" class="node">
<title>l3_spec_pc_wavem</title>
<polygon fill="none" stroke="black" points="3265.5,-688.19 3026.5,-688.19 3026.5,-664.19 3265.5,-664.19 3277.5,-676.19 3265.5,-688.19"/>
<text text-anchor="middle" x="3152" y="-672.49" font-family="Times,serif" font-size="14.00">L3_spec_pc wavelength map 1..1</text>
</g>
<!-- l3_spec_pc_wavem&#45;&gt;trans_spec_pc_l3_l4 -->
<g id="edge40" class="edge">
<title>l3_spec_pc_wavem&#45;&gt;trans_spec_pc_l3_l4</title>
<path fill="none" stroke="black" d="M3277.67,-676.19C3277.67,-676.19 3321.55,-676.19 3321.55,-676.19"/>
<polygon fill="black" stroke="black" points="3321.55,-679.69 3331.55,-676.19 3321.55,-672.69 3321.55,-679.69"/>
</g>
<!-- l4_spec_pc_prod&#45;&gt;trans_spec_pc_l4_tda -->
<g id="edge44" class="edge">
<title>l4_spec_pc_prod&#45;&gt;trans_spec_pc_l4_tda</title>
<path fill="none" stroke="black" d="M3884.44,-757.19C3967.22,-757.19 4072.39,-757.19 4072.39,-757.19 4072.39,-757.19 4072.39,-814.62 4072.39,-814.62"/>
<polygon fill="black" stroke="black" points="4068.89,-814.62 4072.39,-824.62 4075.89,-814.62 4068.89,-814.62"/>
</g>
<!-- l4_spec_pc_odir -->
<g id="node41" class="node">
<title>l4_spec_pc_odir</title>
<ellipse fill="none" stroke="black" cx="3786.42" cy="-1189.19" rx="141.07" ry="18"/>
<text text-anchor="middle" x="3786.42" y="-1185.49" font-family="Times,serif" font-size="14.00">L4_spec_pc output path 1..1</text>
</g>
<!-- l4_spec_pc_odir&#45;&gt;trans_spec_pc_l4_tda -->
<g id="edge46" class="edge">
<title>l4_spec_pc_odir&#45;&gt;trans_spec_pc_l4_tda</title>
<path fill="none" stroke="black" d="M3927.58,-1189.19C4032.81,-1189.19 4158.39,-1189.19 4158.39,-1189.19 4158.39,-1189.19 4158.39,-1077.69 4158.39,-1077.69"/>
<polygon fill="black" stroke="black" points="4161.89,-1077.69 4158.39,-1067.69 4154.89,-1077.69 4161.89,-1077.69"/>
</g>
<!-- l4_spec_pc_man&#45;&gt;trans_spec_pc_l4_tda -->
<g id="edge45" class="edge">
<title>l4_spec_pc_man&#45;&gt;trans_spec_pc_l4_tda</title>
<path fill="none" stroke="black" d="M3913.39,-649.19C4021.15,-649.19 4158.39,-649.19 4158.39,-649.19 4158.39,-649.19 4158.39,-814.96 4158.39,-814.96"/>
<polygon fill="black" stroke="black" points="4154.89,-814.96 4158.39,-824.96 4161.89,-814.96 4154.89,-814.96"/>
</g>
<!-- l4_spec_pc_rec -->
<g id="node44" class="node">
<title>l4_spec_pc_rec</title>
<polygon fill="none" stroke="black" points="3862.92,-1147.19 3697.92,-1147.19 3697.92,-1123.19 3862.92,-1123.19 3874.92,-1135.19 3862.92,-1147.19"/>
<text text-anchor="middle" x="3786.42" y="-1131.49" font-family="Times,serif" font-size="14.00">L4_spec_pc recipe 1..1</text>
</g>
<!-- l4_spec_pc_rec&#45;&gt;trans_spec_pc_l4_tda -->
<g id="edge47" class="edge">
<title>l4_spec_pc_rec&#45;&gt;trans_spec_pc_l4_tda</title>
<path fill="none" stroke="black" d="M3874.95,-1135.19C3958.93,-1135.19 4072.39,-1135.19 4072.39,-1135.19 4072.39,-1135.19 4072.39,-1077.75 4072.39,-1077.75"/>
<polygon fill="black" stroke="black" points="4075.89,-1077.75 4072.39,-1067.75 4068.89,-1077.75 4075.89,-1077.75"/>
</g>
<!-- l4_spec_pc_afcal -->
<g id="node45" class="node">
<title>l4_spec_pc_afcal</title>
<polygon fill="none" stroke="black" points="3930.92,-1093.19 3629.92,-1093.19 3629.92,-1069.19 3930.92,-1069.19 3942.92,-1081.19 3930.92,-1093.19"/>
<text text-anchor="middle" x="3786.42" y="-1077.49" font-family="Times,serif" font-size="14.00">L4_spec_pc absolute flux calibrations 1..1</text>
</g>
<!-- l4_spec_pc_afcal&#45;&gt;trans_spec_pc_l4_tda -->
<g id="edge48" class="edge">
<title>l4_spec_pc_afcal&#45;&gt;trans_spec_pc_l4_tda</title>
<path fill="none" stroke="black" d="M3943.07,-1069.03C3943.07,-1069.03 4066.57,-1069.03 4066.57,-1069.03"/>
<polygon fill="black" stroke="black" points="4066.57,-1072.53 4076.57,-1069.03 4066.57,-1065.53 4066.57,-1072.53"/>
</g>
<!-- l4_spec_pc_ndfilt -->
<g id="node46" class="node">
<title>l4_spec_pc_ndfilt</title>
<polygon fill="none" stroke="black" points="3871.92,-1039.19 3688.92,-1039.19 3688.92,-1015.19 3871.92,-1015.19 3883.92,-1027.19 3871.92,-1039.19"/>
<text text-anchor="middle" x="3786.42" y="-1023.49" font-family="Times,serif" font-size="14.00">L4_spec_pc ND filter 1..1</text>
</g>
<!-- l4_spec_pc_ndfilt&#45;&gt;trans_spec_pc_l4_tda -->
<g id="edge49" class="edge">
<title>l4_spec_pc_ndfilt&#45;&gt;trans_spec_pc_l4_tda</title>
<path fill="none" stroke="black" d="M3884.15,-1027.19C3884.15,-1027.19 4004.92,-1027.19 4004.92,-1027.19"/>
<polygon fill="black" stroke="black" points="4004.92,-1030.69 4014.92,-1027.19 4004.92,-1023.69 4004.92,-1030.69"/>
</g>
<!-- l4_spec_pc_stmap -->
<g id="node47" class="node">
<title>l4_spec_pc_stmap</title>
<polygon fill="none" stroke="black" points="3917.92,-985.19 3642.92,-985.19 3642.92,-961.19 3917.92,-961.19 3929.92,-973.19 3917.92,-985.19"/>
<text text-anchor="middle" x="3786.42" y="-969.49" font-family="Times,serif" font-size="14.00">L4_spec_pc slit transmission map 1..1</text>
</g>
<!-- l4_spec_pc_stmap&#45;&gt;trans_spec_pc_l4_tda -->
<g id="edge50" class="edge">
<title>l4_spec_pc_stmap&#45;&gt;trans_spec_pc_l4_tda</title>
<path fill="none" stroke="black" d="M3930.11,-973.19C3930.11,-973.19 3979.24,-973.19 3979.24,-973.19"/>
<polygon fill="black" stroke="black" points="3979.24,-976.69 3989.24,-973.19 3979.24,-969.69 3979.24,-976.69"/>
</g>
<!-- l4_spec_pc_tspi -->
<g id="node48" class="node">
<title>l4_spec_pc_tspi</title>
<polygon fill="none" stroke="black" points="3926.42,-931.19 3634.42,-931.19 3634.42,-907.19 3926.42,-907.19 3938.42,-919.19 3926.42,-931.19"/>
<text text-anchor="middle" x="3786.42" y="-915.49" font-family="Times,serif" font-size="14.00">L4_spec_pc target star prism image 1..1</text>
</g>
<!-- l4_spec_pc_tspi&#45;&gt;trans_spec_pc_l4_tda -->
<g id="edge51" class="edge">
<title>l4_spec_pc_tspi&#45;&gt;trans_spec_pc_l4_tda</title>
<path fill="none" stroke="black" d="M3938.74,-919.19C3938.74,-919.19 3978.92,-919.19 3978.92,-919.19"/>
<polygon fill="black" stroke="black" points="3978.92,-922.69 3988.92,-919.19 3978.92,-915.69 3978.92,-922.69"/>
</g>
<!-- l4_spec_pc_rspi -->
<g id="node49" class="node">
<title>l4_spec_pc_rspi</title>
<polygon fill="none" stroke="black" points="3938.42,-877.19 3622.42,-877.19 3622.42,-853.19 3938.42,-853.19 3950.42,-865.19 3938.42,-877.19"/>
<text text-anchor="middle" x="3786.42" y="-861.49" font-family="Times,serif" font-size="14.00">L4_spec_pc reference star prism image 1..1</text>
</g>
<!-- l4_spec_pc_rspi&#45;&gt;trans_spec_pc_l4_tda -->
<g id="edge52" class="edge">
<title>l4_spec_pc_rspi&#45;&gt;trans_spec_pc_l4_tda</title>
<path fill="none" stroke="black" d="M3950.77,-865.19C3950.77,-865.19 4004.71,-865.19 4004.71,-865.19"/>
<polygon fill="black" stroke="black" points="4004.71,-868.69 4014.71,-865.19 4004.71,-861.69 4004.71,-868.69"/>
</g>
<!-- l4_spec_pc_lsf -->
<g id="node50" class="node">
<title>l4_spec_pc_lsf</title>
<polygon fill="none" stroke="black" points="3911.92,-823.19 3648.92,-823.19 3648.92,-799.19 3911.92,-799.19 3923.92,-811.19 3911.92,-823.19"/>
<text text-anchor="middle" x="3786.42" y="-807.49" font-family="Times,serif" font-size="14.00">L4_spec_pc line spread function 1..1</text>
</g>
<!-- l4_spec_pc_lsf&#45;&gt;trans_spec_pc_l4_tda -->
<g id="edge53" class="edge">
<title>l4_spec_pc_lsf&#45;&gt;trans_spec_pc_l4_tda</title>
<path fill="none" stroke="black" d="M3924.39,-823.34C3924.39,-823.34 4066.72,-823.34 4066.72,-823.34"/>
<polygon fill="black" stroke="black" points="4066.72,-826.84 4076.72,-823.34 4066.72,-819.84 4066.72,-826.84"/>
</g>
</g>
</svg>
