<?xml version="1.0" encoding="UTF-8" standalone="no"?>
<!DOCTYPE svg PUBLIC "-//W3C//DTD SVG 1.1//EN"
 "http://www.w3.org/Graphics/SVG/1.1/DTD/svg11.dtd">
<!-- Generated by graphviz version 2.43.0 (0)
 -->
<!-- Title: AbstractDesign Pages: 1 -->
<svg width="3552pt" height="1160pt"
 viewBox="0.00 0.00 3552.45 1160.00" xmlns="http://www.w3.org/2000/svg" xmlns:xlink="http://www.w3.org/1999/xlink">
<g id="graph0" class="graph" transform="scale(1 1) rotate(0) translate(4 1156)">
<title>AbstractDesign</title>
<polygon fill="white" stroke="transparent" points="-4,4 -4,-1156 3548.45,-1156 3548.45,4 -4,4"/>
<!-- trans_spec_a_l1_l2a -->
<g id="node1" class="node">
<title>trans_spec_a_l1_l2a</title>
<ellipse fill="none" stroke="black" cx="346.65" cy="-126" rx="96.33" ry="96.33"/>
<text text-anchor="middle" x="346.65" y="-129.8" font-family="Times,serif" font-size="14.00">spec_a Transmutation</text>
<text text-anchor="middle" x="346.65" y="-114.8" font-family="Times,serif" font-size="14.00">L1 to L2a</text>
</g>
<!-- l2a_spec_a_prod -->
<g id="node13" class="node">
<title>l2a_spec_a_prod</title>
<polygon fill="none" stroke="black" points="880.33,-245 724.33,-245 724.33,-209 880.33,-209 880.33,-245"/>
<text text-anchor="middle" x="802.33" y="-223.3" font-family="Times,serif" font-size="14.00">L2a_spec_a products 1..b</text>
</g>
<!-- trans_spec_a_l1_l2a&#45;&gt;l2a_spec_a_prod -->
<g id="edge6" class="edge">
<title>trans_spec_a_l1_l2a&#45;&gt;l2a_spec_a_prod</title>
<path fill="none" stroke="black" d="M381.65,-215.58C381.65,-215.58 714.12,-215.58 714.12,-215.58"/>
<polygon fill="black" stroke="black" points="714.12,-219.08 724.12,-215.58 714.12,-212.08 714.12,-219.08"/>
</g>
<!-- l2a_spec_a_man -->
<g id="node14" class="node">
<title>l2a_spec_a_man</title>
<ellipse fill="none" stroke="black" cx="580.85" cy="-126" rx="102.08" ry="18"/>
<text text-anchor="middle" x="580.85" y="-122.3" font-family="Times,serif" font-size="14.00">L2a_spec_a manifest 1..1</text>
</g>
<!-- trans_spec_a_l1_l2a&#45;&gt;l2a_spec_a_man -->
<g id="edge7" class="edge">
<title>trans_spec_a_l1_l2a&#45;&gt;l2a_spec_a_man</title>
<path fill="none" stroke="black" d="M442.92,-126C442.92,-126 468.5,-126 468.5,-126"/>
<polygon fill="black" stroke="black" points="468.5,-129.5 478.5,-126 468.5,-122.5 468.5,-129.5"/>
</g>
<!-- l2a_spec_a_log -->
<g id="node21" class="node">
<title>l2a_spec_a_log</title>
<ellipse fill="none" stroke="black" cx="580.85" cy="-72" rx="82.59" ry="18"/>
<text text-anchor="middle" x="580.85" y="-68.3" font-family="Times,serif" font-size="14.00">L2a log_spec_a 1..1</text>
</g>
<!-- trans_spec_a_l1_l2a&#45;&gt;l2a_spec_a_log -->
<g id="edge8" class="edge">
<title>trans_spec_a_l1_l2a&#45;&gt;l2a_spec_a_log</title>
<path fill="none" stroke="black" d="M426.27,-72C426.27,-72 488.26,-72 488.26,-72"/>
<polygon fill="black" stroke="black" points="488.26,-75.5 498.26,-72 488.26,-68.5 488.26,-75.5"/>
</g>
<!-- l2a_spec_a_demux -->
<g id="node2" class="node">
<title>l2a_spec_a_demux</title>
<ellipse fill="none" stroke="black" cx="802.33" cy="-108" rx="83.38" ry="83.38"/>
<text text-anchor="middle" x="802.33" y="-111.8" font-family="Times,serif" font-size="14.00">spec_a l2a Demux</text>
<text text-anchor="middle" x="802.33" y="-96.8" font-family="Times,serif" font-size="14.00">Exposure</text>
</g>
<!-- l2a_spec_a_man_demux -->
<g id="node22" class="node">
<title>l2a_spec_a_man_demux</title>
<ellipse fill="none" stroke="black" cx="1048.27" cy="-144" rx="113.18" ry="18"/>
<text text-anchor="middle" x="1048.27" y="-140.3" font-family="Times,serif" font-size="14.00">L2a_spec_a(E) manifest 1..1</text>
</g>
<!-- l2a_spec_a_demux&#45;&gt;l2a_spec_a_man_demux -->
<g id="edge20" class="edge">
<title>l2a_spec_a_demux&#45;&gt;l2a_spec_a_man_demux</title>
<path fill="none" stroke="black" d="M877.8,-144C877.8,-144 924.93,-144 924.93,-144"/>
<polygon fill="black" stroke="black" points="924.93,-147.5 934.93,-144 924.93,-140.5 924.93,-147.5"/>
</g>
<!-- trans_spec_a_l2a_l2b -->
<g id="node3" class="node">
<title>trans_spec_a_l2a_l2b</title>
<ellipse fill="none" stroke="black" cx="1306.94" cy="-335" rx="96.33" ry="96.33"/>
<text text-anchor="middle" x="1306.94" y="-338.8" font-family="Times,serif" font-size="14.00">spec_a Transmutation</text>
<text text-anchor="middle" x="1306.94" y="-323.8" font-family="Times,serif" font-size="14.00">L2a to L2b</text>
</g>
<!-- l2b_spec_a_prod -->
<g id="node23" class="node">
<title>l2b_spec_a_prod</title>
<polygon fill="none" stroke="black" points="1859.59,-447 1702.59,-447 1702.59,-411 1859.59,-411 1859.59,-447"/>
<text text-anchor="middle" x="1781.09" y="-425.3" font-family="Times,serif" font-size="14.00">L2b_spec_a products 1..1</text>
</g>
<!-- trans_spec_a_l2a_l2b&#45;&gt;l2b_spec_a_prod -->
<g id="edge16" class="edge">
<title>trans_spec_a_l2a_l2b&#45;&gt;l2b_spec_a_prod</title>
<path fill="none" stroke="black" d="M1349.85,-421.08C1349.85,-421.08 1692.42,-421.08 1692.42,-421.08"/>
<polygon fill="black" stroke="black" points="1692.42,-424.58 1702.42,-421.08 1692.42,-417.58 1692.42,-424.58"/>
</g>
<!-- l2b_spec_a_man_demux -->
<g id="node30" class="node">
<title>l2b_spec_a_man_demux</title>
<ellipse fill="none" stroke="black" cx="1552.85" cy="-335" rx="113.98" ry="18"/>
<text text-anchor="middle" x="1552.85" y="-331.3" font-family="Times,serif" font-size="14.00">L2b_spec_a(E) manifest 1..1</text>
</g>
<!-- trans_spec_a_l2a_l2b&#45;&gt;l2b_spec_a_man_demux -->
<g id="edge17" class="edge">
<title>trans_spec_a_l2a_l2b&#45;&gt;l2b_spec_a_man_demux</title>
<path fill="none" stroke="black" d="M1403.42,-335C1403.42,-335 1429.1,-335 1429.1,-335"/>
<polygon fill="black" stroke="black" points="1429.1,-338.5 1439.1,-335 1429.1,-331.5 1429.1,-338.5"/>
</g>
<!-- l2b_spec_a_log -->
<g id="node31" class="node">
<title>l2b_spec_a_log</title>
<ellipse fill="none" stroke="black" cx="1552.85" cy="-281" rx="83.39" ry="18"/>
<text text-anchor="middle" x="1552.85" y="-277.3" font-family="Times,serif" font-size="14.00">L2b_spec_a log 1..1</text>
</g>
<!-- trans_spec_a_l2a_l2b&#45;&gt;l2b_spec_a_log -->
<g id="edge18" class="edge">
<title>trans_spec_a_l2a_l2b&#45;&gt;l2b_spec_a_log</title>
<path fill="none" stroke="black" d="M1386.78,-281C1386.78,-281 1459.61,-281 1459.61,-281"/>
<polygon fill="black" stroke="black" points="1459.61,-284.5 1469.61,-281 1459.61,-277.5 1459.61,-284.5"/>
</g>
<!-- l2b_spec_a_mux -->
<g id="node4" class="node">
<title>l2b_spec_a_mux</title>
<ellipse fill="none" stroke="black" cx="1781.09" cy="-319" rx="73.58" ry="73.58"/>
<text text-anchor="middle" x="1781.09" y="-322.8" font-family="Times,serif" font-size="14.00">spec_a l2b Mux</text>
<text text-anchor="middle" x="1781.09" y="-307.8" font-family="Times,serif" font-size="14.00">Exposure</text>
</g>
<!-- l2b_spec_a_man -->
<g id="node24" class="node">
<title>l2b_spec_a_man</title>
<ellipse fill="none" stroke="black" cx="2021.09" cy="-351" rx="102.88" ry="18"/>
<text text-anchor="middle" x="2021.09" y="-347.3" font-family="Times,serif" font-size="14.00">L2b_spec_a manifest 1..1</text>
</g>
<!-- l2b_spec_a_mux&#45;&gt;l2b_spec_a_man -->
<g id="edge23" class="edge">
<title>l2b_spec_a_mux&#45;&gt;l2b_spec_a_man</title>
<path fill="none" stroke="black" d="M1847.3,-351C1847.3,-351 1908.18,-351 1908.18,-351"/>
<polygon fill="black" stroke="black" points="1908.18,-354.5 1918.18,-351 1908.18,-347.5 1908.18,-354.5"/>
</g>
<!-- trans_spec_a_l2b_l3 -->
<g id="node5" class="node">
<title>trans_spec_a_l2b_l3</title>
<ellipse fill="none" stroke="black" cx="2278.75" cy="-513" rx="96.33" ry="96.33"/>
<text text-anchor="middle" x="2278.75" y="-516.8" font-family="Times,serif" font-size="14.00">spec_a Transmutation</text>
<text text-anchor="middle" x="2278.75" y="-501.8" font-family="Times,serif" font-size="14.00">L2b to L3</text>
</g>
<!-- l3_spec_a_prod -->
<g id="node32" class="node">
<title>l3_spec_a_prod</title>
<polygon fill="none" stroke="black" points="2593.16,-585 2443.16,-585 2443.16,-549 2593.16,-549 2593.16,-585"/>
<text text-anchor="middle" x="2518.16" y="-563.3" font-family="Times,serif" font-size="14.00">L3_spec_a products 1..1</text>
</g>
<!-- trans_spec_a_l2b_l3&#45;&gt;l3_spec_a_prod -->
<g id="edge31" class="edge">
<title>trans_spec_a_l2b_l3&#45;&gt;l3_spec_a_prod</title>
<path fill="none" stroke="black" d="M2358.47,-567C2358.47,-567 2432.84,-567 2432.84,-567"/>
<polygon fill="black" stroke="black" points="2432.84,-570.5 2442.84,-567 2432.84,-563.5 2432.84,-570.5"/>
</g>
<!-- l3_spec_a_man -->
<g id="node34" class="node">
<title>l3_spec_a_man</title>
<ellipse fill="none" stroke="black" cx="2518.16" cy="-513" rx="98.28" ry="18"/>
<text text-anchor="middle" x="2518.16" y="-509.3" font-family="Times,serif" font-size="14.00">L3_spec_a manifest 1..1</text>
</g>
<!-- trans_spec_a_l2b_l3&#45;&gt;l3_spec_a_man -->
<g id="edge32" class="edge">
<title>trans_spec_a_l2b_l3&#45;&gt;l3_spec_a_man</title>
<path fill="none" stroke="black" d="M2375.09,-513C2375.09,-513 2409.67,-513 2409.67,-513"/>
<polygon fill="black" stroke="black" points="2409.67,-516.5 2419.67,-513 2409.67,-509.5 2409.67,-516.5"/>
</g>
<!-- l3_spec_a_log -->
<g id="node38" class="node">
<title>l3_spec_a_log</title>
<ellipse fill="none" stroke="black" cx="2518.16" cy="-459" rx="78.79" ry="18"/>
<text text-anchor="middle" x="2518.16" y="-455.3" font-family="Times,serif" font-size="14.00">L3_spec_a log 1..1</text>
</g>
<!-- trans_spec_a_l2b_l3&#45;&gt;l3_spec_a_log -->
<g id="edge33" class="edge">
<title>trans_spec_a_l2b_l3&#45;&gt;l3_spec_a_log</title>
<path fill="none" stroke="black" d="M2358.47,-459C2358.47,-459 2429.2,-459 2429.2,-459"/>
<polygon fill="black" stroke="black" points="2429.2,-462.5 2439.2,-459 2429.2,-455.5 2429.2,-462.5"/>
</g>
<!-- trans_spec_a_l3_l4 -->
<g id="node6" class="node">
<title>trans_spec_a_l3_l4</title>
<ellipse fill="none" stroke="black" cx="2757.57" cy="-648" rx="96.33" ry="96.33"/>
<text text-anchor="middle" x="2757.57" y="-651.8" font-family="Times,serif" font-size="14.00">spec_a Transmutation</text>
<text text-anchor="middle" x="2757.57" y="-636.8" font-family="Times,serif" font-size="14.00">L3 to L4</text>
</g>
<!-- l4_spec_a_prod -->
<g id="node39" class="node">
<title>l4_spec_a_prod</title>
<polygon fill="none" stroke="black" points="3089.73,-720 2939.73,-720 2939.73,-684 3089.73,-684 3089.73,-720"/>
<text text-anchor="middle" x="3014.73" y="-698.3" font-family="Times,serif" font-size="14.00">L4_spec_a products 1..1</text>
</g>
<!-- trans_spec_a_l3_l4&#45;&gt;l4_spec_a_prod -->
<g id="edge40" class="edge">
<title>trans_spec_a_l3_l4&#45;&gt;l4_spec_a_prod</title>
<path fill="none" stroke="black" d="M2837.17,-702C2837.17,-702 2929.45,-702 2929.45,-702"/>
<polygon fill="black" stroke="black" points="2929.45,-705.5 2939.45,-702 2929.45,-698.5 2929.45,-705.5"/>
</g>
<!-- l4_spec_a_log -->
<g id="node41" class="node">
<title>l4_spec_a_log</title>
<ellipse fill="none" stroke="black" cx="3014.73" cy="-648" rx="78.79" ry="18"/>
<text text-anchor="middle" x="3014.73" y="-644.3" font-family="Times,serif" font-size="14.00">L4_spec_a log 1..1</text>
</g>
<!-- trans_spec_a_l3_l4&#45;&gt;l4_spec_a_log -->
<g id="edge41" class="edge">
<title>trans_spec_a_l3_l4&#45;&gt;l4_spec_a_log</title>
<path fill="none" stroke="black" d="M2854.06,-648C2854.06,-648 2925.74,-648 2925.74,-648"/>
<polygon fill="black" stroke="black" points="2925.74,-651.5 2935.74,-648 2925.74,-644.5 2925.74,-651.5"/>
</g>
<!-- l4_spec_a_man -->
<g id="node42" class="node">
<title>l4_spec_a_man</title>
<ellipse fill="none" stroke="black" cx="3014.73" cy="-594" rx="98.28" ry="18"/>
<text text-anchor="middle" x="3014.73" y="-590.3" font-family="Times,serif" font-size="14.00">L4_spec_a manifest 1..1</text>
</g>
<!-- trans_spec_a_l3_l4&#45;&gt;l4_spec_a_man -->
<g id="edge42" class="edge">
<title>trans_spec_a_l3_l4&#45;&gt;l4_spec_a_man</title>
<path fill="none" stroke="black" d="M2837.17,-594C2837.17,-594 2906.47,-594 2906.47,-594"/>
<polygon fill="black" stroke="black" points="2906.47,-597.5 2916.47,-594 2906.47,-590.5 2906.47,-597.5"/>
</g>
<!-- trans_spec_a_l4_tda -->
<g id="node7" class="node">
<title>trans_spec_a_l4_tda</title>
<ellipse fill="none" stroke="black" cx="3271.9" cy="-891" rx="96.33" ry="96.33"/>
<text text-anchor="middle" x="3271.9" y="-894.8" font-family="Times,serif" font-size="14.00">spec_a Transmutation</text>
<text text-anchor="middle" x="3271.9" y="-879.8" font-family="Times,serif" font-size="14.00">L4 to TDA</text>
</g>
<!-- tda_spec_a_prod -->
<g id="node50" class="node">
<title>tda_spec_a_prod</title>
<ellipse fill="none" stroke="black" cx="3474.26" cy="-918" rx="70.39" ry="18"/>
<text text-anchor="middle" x="3474.26" y="-914.3" font-family="Times,serif" font-size="14.00">tda_spec_a_prod</text>
</g>
<!-- trans_spec_a_l4_tda&#45;&gt;tda_spec_a_prod -->
<g id="edge53" class="edge">
<title>trans_spec_a_l4_tda&#45;&gt;tda_spec_a_prod</title>
<path fill="none" stroke="black" d="M3364.49,-918C3364.49,-918 3393.82,-918 3393.82,-918"/>
<polygon fill="black" stroke="black" points="3393.82,-921.5 3403.82,-918 3393.82,-914.5 3393.82,-921.5"/>
</g>
<!-- tda_spec_a_log -->
<g id="node51" class="node">
<title>tda_spec_a_log</title>
<ellipse fill="none" stroke="black" cx="3474.26" cy="-864" rx="65.79" ry="18"/>
<text text-anchor="middle" x="3474.26" y="-860.3" font-family="Times,serif" font-size="14.00">tda_spec_a_log</text>
</g>
<!-- trans_spec_a_l4_tda&#45;&gt;tda_spec_a_log -->
<g id="edge54" class="edge">
<title>trans_spec_a_l4_tda&#45;&gt;tda_spec_a_log</title>
<path fill="none" stroke="black" d="M3364.49,-864C3364.49,-864 3398.59,-864 3398.59,-864"/>
<polygon fill="black" stroke="black" points="3398.59,-867.5 3408.59,-864 3398.59,-860.5 3398.59,-867.5"/>
</g>
<!-- l1_spec_a_prod -->
<g id="node8" class="node">
<title>l1_spec_a_prod</title>
<polygon fill="none" stroke="black" points="182.24,-252 32.24,-252 32.24,-216 182.24,-216 182.24,-252"/>
<text text-anchor="middle" x="107.24" y="-230.3" font-family="Times,serif" font-size="14.00">L1_spec_a products 1..b</text>
</g>
<!-- l1_spec_a_prod&#45;&gt;trans_spec_a_l1_l2a -->
<g id="edge1" class="edge">
<title>l1_spec_a_prod&#45;&gt;trans_spec_a_l1_l2a</title>
<path fill="none" stroke="black" d="M107.45,-215.84C107.45,-210.96 107.45,-207 107.45,-207 107.45,-207 284.75,-207 284.75,-207"/>
<polygon fill="black" stroke="black" points="284.75,-210.5 294.75,-207 284.75,-203.5 284.75,-210.5"/>
</g>
<!-- l1_spec_a_man -->
<g id="node9" class="node">
<title>l1_spec_a_man</title>
<ellipse fill="none" stroke="black" cx="107.24" cy="-180" rx="98.28" ry="18"/>
<text text-anchor="middle" x="107.24" y="-176.3" font-family="Times,serif" font-size="14.00">L1_spec_a manifest 1..1</text>
</g>
<!-- l1_spec_a_man&#45;&gt;trans_spec_a_l1_l2a -->
<g id="edge2" class="edge">
<title>l1_spec_a_man&#45;&gt;trans_spec_a_l1_l2a</title>
<path fill="none" stroke="black" d="M205.65,-180C205.65,-180 256.87,-180 256.87,-180"/>
<polygon fill="black" stroke="black" points="256.87,-183.5 266.87,-180 256.87,-176.5 256.87,-183.5"/>
</g>
<!-- l1_spec_a_odir -->
<g id="node10" class="node">
<title>l1_spec_a_odir</title>
<ellipse fill="none" stroke="black" cx="107.24" cy="-126" rx="107.48" ry="18"/>
<text text-anchor="middle" x="107.24" y="-122.3" font-family="Times,serif" font-size="14.00">L1_spec_a output path 1..1</text>
</g>
<!-- l1_spec_a_odir&#45;&gt;trans_spec_a_l1_l2a -->
<g id="edge3" class="edge">
<title>l1_spec_a_odir&#45;&gt;trans_spec_a_l1_l2a</title>
<path fill="none" stroke="black" d="M214.69,-126C214.69,-126 240.13,-126 240.13,-126"/>
<polygon fill="black" stroke="black" points="240.13,-129.5 250.13,-126 240.13,-122.5 240.13,-129.5"/>
</g>
<!-- l1_spec_a_rec -->
<g id="node11" class="node">
<title>l1_spec_a_rec</title>
<polygon fill="none" stroke="black" points="163.74,-84 38.74,-84 38.74,-60 163.74,-60 175.74,-72 163.74,-84"/>
<text text-anchor="middle" x="107.24" y="-68.3" font-family="Times,serif" font-size="14.00">L1_spec_a recipe 1..1</text>
</g>
<!-- l1_spec_a_rec&#45;&gt;trans_spec_a_l1_l2a -->
<g id="edge4" class="edge">
<title>l1_spec_a_rec&#45;&gt;trans_spec_a_l1_l2a</title>
<path fill="none" stroke="black" d="M175.84,-72C175.84,-72 257.05,-72 257.05,-72"/>
<polygon fill="black" stroke="black" points="257.05,-75.5 267.05,-72 257.05,-68.5 257.05,-75.5"/>
</g>
<!-- l1_spec_a_nln -->
<g id="node12" class="node">
<title>l1_spec_a_nln</title>
<polygon fill="none" stroke="black" points="200.74,-30 1.74,-30 1.74,-6 200.74,-6 212.74,-18 200.74,-30"/>
<text text-anchor="middle" x="107.24" y="-14.3" font-family="Times,serif" font-size="14.00">L1_spec_a non&#45;linear &amp; Kgain 1..1</text>
</g>
<!-- l1_spec_a_nln&#45;&gt;trans_spec_a_l1_l2a -->
<g id="edge5" class="edge">
<title>l1_spec_a_nln&#45;&gt;trans_spec_a_l1_l2a</title>
<path fill="none" stroke="black" d="M194.45,-36.16C194.45,-41.04 194.45,-45 194.45,-45 194.45,-45 284.7,-45 284.7,-45"/>
<polygon fill="black" stroke="black" points="284.7,-48.5 294.7,-45 284.7,-41.5 284.7,-48.5"/>
</g>
<!-- l2a_spec_a_prod&#45;&gt;trans_spec_a_l2a_l2b -->
<g id="edge9" class="edge">
<title>l2a_spec_a_prod&#45;&gt;trans_spec_a_l2a_l2b</title>
<path fill="none" stroke="black" d="M880.43,-222.5C1022.21,-222.5 1307.45,-222.5 1307.45,-222.5 1307.45,-222.5 1307.45,-228.62 1307.45,-228.62"/>
<polygon fill="black" stroke="black" points="1303.95,-228.62 1307.45,-238.62 1310.95,-228.62 1303.95,-228.62"/>
</g>
<!-- l2a_spec_a_man&#45;&gt;l2a_spec_a_demux -->
<g id="edge19" class="edge">
<title>l2a_spec_a_man&#45;&gt;l2a_spec_a_demux</title>
<path fill="none" stroke="black" d="M683.17,-126C683.17,-126 710.69,-126 710.69,-126"/>
<polygon fill="black" stroke="black" points="710.69,-129.5 720.69,-126 710.69,-122.5 710.69,-129.5"/>
</g>
<!-- l2a_spec_a_odir -->
<g id="node15" class="node">
<title>l2a_spec_a_odir</title>
<ellipse fill="none" stroke="black" cx="1048.27" cy="-524" rx="111.28" ry="18"/>
<text text-anchor="middle" x="1048.27" y="-520.3" font-family="Times,serif" font-size="14.00">L2a_spec_a output path 1..1</text>
</g>
<!-- l2a_spec_a_odir&#45;&gt;trans_spec_a_l2a_l2b -->
<g id="edge10" class="edge">
<title>l2a_spec_a_odir&#45;&gt;trans_spec_a_l2a_l2b</title>
<path fill="none" stroke="black" d="M1154.22,-518.5C1237.48,-518.5 1339.45,-518.5 1339.45,-518.5 1339.45,-518.5 1339.45,-435.67 1339.45,-435.67"/>
<polygon fill="black" stroke="black" points="1342.95,-435.67 1339.45,-425.67 1335.95,-435.67 1342.95,-435.67"/>
</g>
<!-- l2a_spec_a_rec -->
<g id="node16" class="node">
<title>l2a_spec_a_rec</title>
<polygon fill="none" stroke="black" points="1107.77,-482 976.77,-482 976.77,-458 1107.77,-458 1119.77,-470 1107.77,-482"/>
<text text-anchor="middle" x="1048.27" y="-466.3" font-family="Times,serif" font-size="14.00">L2a_spec_a recipe 1..1</text>
</g>
<!-- l2a_spec_a_rec&#45;&gt;trans_spec_a_l2a_l2b -->
<g id="edge11" class="edge">
<title>l2a_spec_a_rec&#45;&gt;trans_spec_a_l2a_l2b</title>
<path fill="none" stroke="black" d="M1119.84,-464.5C1186.43,-464.5 1275.45,-464.5 1275.45,-464.5 1275.45,-464.5 1275.45,-436 1275.45,-436"/>
<polygon fill="black" stroke="black" points="1278.95,-436 1275.45,-426 1271.95,-436 1278.95,-436"/>
</g>
<!-- l2a_spec_a_cti -->
<g id="node17" class="node">
<title>l2a_spec_a_cti</title>
<polygon fill="none" stroke="black" points="1155.77,-428 928.77,-428 928.77,-404 1155.77,-404 1167.77,-416 1155.77,-428"/>
<text text-anchor="middle" x="1048.27" y="-412.3" font-family="Times,serif" font-size="14.00">L2a_spec_a charge xfer inefficiency 1..1</text>
</g>
<!-- l2a_spec_a_cti&#45;&gt;trans_spec_a_l2a_l2b -->
<g id="edge12" class="edge">
<title>l2a_spec_a_cti&#45;&gt;trans_spec_a_l2a_l2b</title>
<path fill="none" stroke="black" d="M1168.14,-414.58C1168.14,-414.58 1242.69,-414.58 1242.69,-414.58"/>
<polygon fill="black" stroke="black" points="1242.69,-418.08 1252.69,-414.58 1242.69,-411.08 1242.69,-418.08"/>
</g>
<!-- l2a_spec_a_dnb -->
<g id="node18" class="node">
<title>l2a_spec_a_dnb</title>
<polygon fill="none" stroke="black" points="1162.77,-374 921.77,-374 921.77,-350 1162.77,-350 1174.77,-362 1162.77,-374"/>
<text text-anchor="middle" x="1048.27" y="-358.3" font-family="Times,serif" font-size="14.00">L2a_spec_a detector noise background 1..1</text>
</g>
<!-- l2a_spec_a_dnb&#45;&gt;trans_spec_a_l2a_l2b -->
<g id="edge13" class="edge">
<title>l2a_spec_a_dnb&#45;&gt;trans_spec_a_l2a_l2b</title>
<path fill="none" stroke="black" d="M1174.95,-362C1174.95,-362 1204.44,-362 1204.44,-362"/>
<polygon fill="black" stroke="black" points="1204.44,-365.5 1214.44,-362 1204.44,-358.5 1204.44,-365.5"/>
</g>
<!-- l2a_spec_a_mbpm -->
<g id="node19" class="node">
<title>l2a_spec_a_mbpm</title>
<polygon fill="none" stroke="black" points="1150.27,-320 934.27,-320 934.27,-296 1150.27,-296 1162.27,-308 1150.27,-320"/>
<text text-anchor="middle" x="1048.27" y="-304.3" font-family="Times,serif" font-size="14.00">L2a_spec_a master bad pixel map 1..1</text>
</g>
<!-- l2a_spec_a_mbpm&#45;&gt;trans_spec_a_l2a_l2b -->
<g id="edge14" class="edge">
<title>l2a_spec_a_mbpm&#45;&gt;trans_spec_a_l2a_l2b</title>
<path fill="none" stroke="black" d="M1162.48,-308C1162.48,-308 1204.29,-308 1204.29,-308"/>
<polygon fill="black" stroke="black" points="1204.29,-311.5 1214.29,-308 1204.29,-304.5 1204.29,-311.5"/>
</g>
<!-- l2a_spec_a_emg -->
<g id="node20" class="node">
<title>l2a_spec_a_emg</title>
<polygon fill="none" stroke="black" points="1115.27,-266 969.27,-266 969.27,-242 1115.27,-242 1127.27,-254 1115.27,-266"/>
<text text-anchor="middle" x="1048.27" y="-250.3" font-family="Times,serif" font-size="14.00">L2a_spec_a EM gain 1..1</text>
</g>
<!-- l2a_spec_a_emg&#45;&gt;trans_spec_a_l2a_l2b -->
<g id="edge15" class="edge">
<title>l2a_spec_a_emg&#45;&gt;trans_spec_a_l2a_l2b</title>
<path fill="none" stroke="black" d="M1127.29,-260.94C1127.29,-260.94 1235.22,-260.94 1235.22,-260.94"/>
<polygon fill="black" stroke="black" points="1235.22,-264.44 1245.22,-260.94 1235.22,-257.44 1235.22,-264.44"/>
</g>
<!-- l2a_spec_a_man_demux&#45;&gt;trans_spec_a_l2a_l2b -->
<g id="edge21" class="edge">
<title>l2a_spec_a_man_demux&#45;&gt;trans_spec_a_l2a_l2b</title>
<path fill="none" stroke="black" d="M1144.45,-153.77C1144.45,-179.99 1144.45,-249.89 1144.45,-249.89 1144.45,-249.89 1252.11,-249.89 1252.11,-249.89"/>
<polygon fill="black" stroke="black" points="1252.11,-253.39 1262.11,-249.89 1252.11,-246.39 1252.11,-253.39"/>
</g>
<!-- l2b_spec_a_prod&#45;&gt;trans_spec_a_l2b_l3 -->
<g id="edge24" class="edge">
<title>l2b_spec_a_prod&#45;&gt;trans_spec_a_l2b_l3</title>
<path fill="none" stroke="black" d="M1859.67,-428.92C1859.67,-428.92 2221.99,-428.92 2221.99,-428.92"/>
<polygon fill="black" stroke="black" points="2221.99,-432.42 2231.99,-428.92 2221.99,-425.42 2221.99,-432.42"/>
</g>
<!-- l2b_spec_a_man&#45;&gt;trans_spec_a_l2b_l3 -->
<g id="edge25" class="edge">
<title>l2b_spec_a_man&#45;&gt;trans_spec_a_l2b_l3</title>
<path fill="none" stroke="black" d="M2123.94,-351C2195.99,-351 2279.45,-351 2279.45,-351 2279.45,-351 2279.45,-406.42 2279.45,-406.42"/>
<polygon fill="black" stroke="black" points="2275.95,-406.42 2279.45,-416.42 2282.95,-406.42 2275.95,-406.42"/>
</g>
<!-- l2b_spec_a_odir -->
<g id="node25" class="node">
<title>l2b_spec_a_odir</title>
<ellipse fill="none" stroke="black" cx="2021.09" cy="-675" rx="111.58" ry="18"/>
<text text-anchor="middle" x="2021.09" y="-671.3" font-family="Times,serif" font-size="14.00">L2b_spec_a output path 1..1</text>
</g>
<!-- l2b_spec_a_odir&#45;&gt;trans_spec_a_l2b_l3 -->
<g id="edge26" class="edge">
<title>l2b_spec_a_odir&#45;&gt;trans_spec_a_l2b_l3</title>
<path fill="none" stroke="black" d="M2113.45,-664.8C2113.45,-643.66 2113.45,-597 2113.45,-597 2113.45,-597 2221.83,-597 2221.83,-597"/>
<polygon fill="black" stroke="black" points="2221.83,-600.5 2231.83,-597 2221.83,-593.5 2221.83,-600.5"/>
</g>
<!-- l2b_spec_a_rec -->
<g id="node26" class="node">
<title>l2b_spec_a_rec</title>
<polygon fill="none" stroke="black" points="2080.59,-633 1949.59,-633 1949.59,-609 2080.59,-609 2092.59,-621 2080.59,-633"/>
<text text-anchor="middle" x="2021.09" y="-617.3" font-family="Times,serif" font-size="14.00">L2b_spec_a recipe 1..1</text>
</g>
<!-- l2b_spec_a_rec&#45;&gt;trans_spec_a_l2b_l3 -->
<g id="edge27" class="edge">
<title>l2b_spec_a_rec&#45;&gt;trans_spec_a_l2b_l3</title>
<path fill="none" stroke="black" d="M2021.45,-602.86C2021.45,-596.54 2021.45,-591 2021.45,-591 2021.45,-591 2212.29,-591 2212.29,-591"/>
<polygon fill="black" stroke="black" points="2212.29,-594.5 2222.29,-591 2212.29,-587.5 2212.29,-594.5"/>
</g>
<!-- l2b_spec_a_excicrf -->
<g id="node27" class="node">
<title>l2b_spec_a_excicrf</title>
<polygon fill="none" stroke="black" points="2129.59,-579 1900.59,-579 1900.59,-555 2129.59,-555 2141.59,-567 2129.59,-579"/>
<text text-anchor="middle" x="2021.09" y="-563.3" font-family="Times,serif" font-size="14.00">L2b_spec_a EXCAM ICRF location 1..1</text>
</g>
<!-- l2b_spec_a_excicrf&#45;&gt;trans_spec_a_l2b_l3 -->
<g id="edge28" class="edge">
<title>l2b_spec_a_excicrf&#45;&gt;trans_spec_a_l2b_l3</title>
<path fill="none" stroke="black" d="M2141.62,-567C2141.62,-567 2189.13,-567 2189.13,-567"/>
<polygon fill="black" stroke="black" points="2189.13,-570.5 2199.13,-567 2189.13,-563.5 2189.13,-570.5"/>
</g>
<!-- l2b_spec_a_excfovps -->
<g id="node28" class="node">
<title>l2b_spec_a_excfovps</title>
<polygon fill="none" stroke="black" points="2134.59,-525 1895.59,-525 1895.59,-501 2134.59,-501 2146.59,-513 2134.59,-525"/>
<text text-anchor="middle" x="2021.09" y="-509.3" font-family="Times,serif" font-size="14.00">L2b_spec_a EXCAM FOV pixel scale 1..1</text>
</g>
<!-- l2b_spec_a_excfovps&#45;&gt;trans_spec_a_l2b_l3 -->
<g id="edge29" class="edge">
<title>l2b_spec_a_excfovps&#45;&gt;trans_spec_a_l2b_l3</title>
<path fill="none" stroke="black" d="M2146.9,-513C2146.9,-513 2172.24,-513 2172.24,-513"/>
<polygon fill="black" stroke="black" points="2172.24,-516.5 2182.24,-513 2172.24,-509.5 2172.24,-516.5"/>
</g>
<!-- l2b_spec_a_cfamfo -->
<g id="node29" class="node">
<title>l2b_spec_a_cfamfo</title>
<polygon fill="none" stroke="black" points="2118.59,-471 1911.59,-471 1911.59,-447 2118.59,-447 2130.59,-459 2118.59,-471"/>
<text text-anchor="middle" x="2021.09" y="-455.3" font-family="Times,serif" font-size="14.00">L2b_spec_a CFAM filter offsets 1..1</text>
</g>
<!-- l2b_spec_a_cfamfo&#45;&gt;trans_spec_a_l2b_l3 -->
<g id="edge30" class="edge">
<title>l2b_spec_a_cfamfo&#45;&gt;trans_spec_a_l2b_l3</title>
<path fill="none" stroke="black" d="M2130.73,-459C2130.73,-459 2188.86,-459 2188.86,-459"/>
<polygon fill="black" stroke="black" points="2188.86,-462.5 2198.86,-459 2188.86,-455.5 2188.86,-462.5"/>
</g>
<!-- l2b_spec_a_man_demux&#45;&gt;l2b_spec_a_mux -->
<g id="edge22" class="edge">
<title>l2b_spec_a_man_demux&#45;&gt;l2b_spec_a_mux</title>
<path fill="none" stroke="black" d="M1666.63,-335C1666.63,-335 1699.26,-335 1699.26,-335"/>
<polygon fill="black" stroke="black" points="1699.26,-338.5 1709.26,-335 1699.26,-331.5 1699.26,-338.5"/>
</g>
<!-- l3_spec_a_prod&#45;&gt;trans_spec_a_l3_l4 -->
<g id="edge34" class="edge">
<title>l3_spec_a_prod&#45;&gt;trans_spec_a_l3_l4</title>
<path fill="none" stroke="black" d="M2593.25,-573.94C2593.25,-573.94 2685.97,-573.94 2685.97,-573.94"/>
<polygon fill="black" stroke="black" points="2685.97,-577.44 2695.97,-573.94 2685.97,-570.44 2685.97,-577.44"/>
</g>
<!-- l3_spec_a_odir -->
<g id="node33" class="node">
<title>l3_spec_a_odir</title>
<ellipse fill="none" stroke="black" cx="2518.16" cy="-783" rx="107.48" ry="18"/>
<text text-anchor="middle" x="2518.16" y="-779.3" font-family="Times,serif" font-size="14.00">L3_spec_a output path 1..1</text>
</g>
<!-- l3_spec_a_odir&#45;&gt;trans_spec_a_l3_l4 -->
<g id="edge36" class="edge">
<title>l3_spec_a_odir&#45;&gt;trans_spec_a_l3_l4</title>
<path fill="none" stroke="black" d="M2621.45,-778.03C2621.45,-765.42 2621.45,-733.11 2621.45,-733.11 2621.45,-733.11 2702.62,-733.11 2702.62,-733.11"/>
<polygon fill="black" stroke="black" points="2702.62,-736.61 2712.62,-733.11 2702.62,-729.61 2702.62,-736.61"/>
</g>
<!-- l3_spec_a_man&#45;&gt;trans_spec_a_l3_l4 -->
<g id="edge35" class="edge">
<title>l3_spec_a_man&#45;&gt;trans_spec_a_l3_l4</title>
<path fill="none" stroke="black" d="M2604.45,-521.69C2604.45,-535.98 2604.45,-562.89 2604.45,-562.89 2604.45,-562.89 2702.46,-562.89 2702.46,-562.89"/>
<polygon fill="black" stroke="black" points="2702.46,-566.39 2712.46,-562.89 2702.46,-559.39 2702.46,-566.39"/>
</g>
<!-- l3_spec_a_rec -->
<g id="node35" class="node">
<title>l3_spec_a_rec</title>
<polygon fill="none" stroke="black" points="2574.66,-741 2449.66,-741 2449.66,-717 2574.66,-717 2586.66,-729 2574.66,-741"/>
<text text-anchor="middle" x="2518.16" y="-725.3" font-family="Times,serif" font-size="14.00">L3_spec_a recipe 1..1</text>
</g>
<!-- l3_spec_a_rec&#45;&gt;trans_spec_a_l3_l4 -->
<g id="edge37" class="edge">
<title>l3_spec_a_rec&#45;&gt;trans_spec_a_l3_l4</title>
<path fill="none" stroke="black" d="M2586.76,-722.06C2586.76,-722.06 2685.9,-722.06 2685.9,-722.06"/>
<polygon fill="black" stroke="black" points="2685.9,-725.56 2695.9,-722.06 2685.9,-718.56 2685.9,-725.56"/>
</g>
<!-- l3_spec_a_dispm -->
<g id="node36" class="node">
<title>l3_spec_a_dispm</title>
<polygon fill="none" stroke="black" points="2604.66,-687 2419.66,-687 2419.66,-663 2604.66,-663 2616.66,-675 2604.66,-687"/>
<text text-anchor="middle" x="2518.16" y="-671.3" font-family="Times,serif" font-size="14.00">L3_spec_a dispersion model 1..1</text>
</g>
<!-- l3_spec_a_dispm&#45;&gt;trans_spec_a_l3_l4 -->
<g id="edge38" class="edge">
<title>l3_spec_a_dispm&#45;&gt;trans_spec_a_l3_l4</title>
<path fill="none" stroke="black" d="M2616.92,-675C2616.92,-675 2655.19,-675 2655.19,-675"/>
<polygon fill="black" stroke="black" points="2655.19,-678.5 2665.19,-675 2655.19,-671.5 2655.19,-678.5"/>
</g>
<!-- l3_spec_a_wavem -->
<g id="node37" class="node">
<title>l3_spec_a_wavem</title>
<polygon fill="none" stroke="black" points="2603.16,-633 2421.16,-633 2421.16,-609 2603.16,-609 2615.16,-621 2603.16,-633"/>
<text text-anchor="middle" x="2518.16" y="-617.3" font-family="Times,serif" font-size="14.00">L3_spec_a wavelength map 1..1</text>
</g>
<!-- l3_spec_a_wavem&#45;&gt;trans_spec_a_l3_l4 -->
<g id="edge39" class="edge">
<title>l3_spec_a_wavem&#45;&gt;trans_spec_a_l3_l4</title>
<path fill="none" stroke="black" d="M2615.19,-621C2615.19,-621 2655.05,-621 2655.05,-621"/>
<polygon fill="black" stroke="black" points="2655.05,-624.5 2665.05,-621 2655.05,-617.5 2655.05,-624.5"/>
</g>
<!-- l4_spec_a_prod&#45;&gt;trans_spec_a_l4_tda -->
<g id="edge43" class="edge">
<title>l4_spec_a_prod&#45;&gt;trans_spec_a_l4_tda</title>
<path fill="none" stroke="black" d="M3089.97,-702C3166.04,-702 3272.45,-702 3272.45,-702 3272.45,-702 3272.45,-784.56 3272.45,-784.56"/>
<polygon fill="black" stroke="black" points="3268.95,-784.56 3272.45,-794.56 3275.95,-784.56 3268.95,-784.56"/>
</g>
<!-- l4_spec_a_odir -->
<g id="node40" class="node">
<title>l4_spec_a_odir</title>
<ellipse fill="none" stroke="black" cx="3014.73" cy="-1134" rx="107.48" ry="18"/>
<text text-anchor="middle" x="3014.73" y="-1130.3" font-family="Times,serif" font-size="14.00">L4_spec_a output path 1..1</text>
</g>
<!-- l4_spec_a_odir&#45;&gt;trans_spec_a_l4_tda -->
<g id="edge45" class="edge">
<title>l4_spec_a_odir&#45;&gt;trans_spec_a_l4_tda</title>
<path fill="none" stroke="black" d="M3122.2,-1134C3204.65,-1134 3304.45,-1134 3304.45,-1134 3304.45,-1134 3304.45,-991.83 3304.45,-991.83"/>
<polygon fill="black" stroke="black" points="3307.95,-991.83 3304.45,-981.83 3300.95,-991.83 3307.95,-991.83"/>
</g>
<!-- l4_spec_a_man&#45;&gt;trans_spec_a_l4_tda -->
<g id="edge44" class="edge">
<title>l4_spec_a_man&#45;&gt;trans_spec_a_l4_tda</title>
<path fill="none" stroke="black" d="M3113.15,-594C3202.52,-594 3320.45,-594 3320.45,-594 3320.45,-594 3320.45,-797.87 3320.45,-797.87"/>
<polygon fill="black" stroke="black" points="3316.95,-797.87 3320.45,-807.87 3323.95,-797.87 3316.95,-797.87"/>
</g>
<!-- l4_spec_a_rec -->
<g id="node43" class="node">
<title>l4_spec_a_rec</title>
<polygon fill="none" stroke="black" points="3071.23,-1092 2946.23,-1092 2946.23,-1068 3071.23,-1068 3083.23,-1080 3071.23,-1092"/>
<text text-anchor="middle" x="3014.73" y="-1076.3" font-family="Times,serif" font-size="14.00">L4_spec_a recipe 1..1</text>
</g>
<!-- l4_spec_a_rec&#45;&gt;trans_spec_a_l4_tda -->
<g id="edge46" class="edge">
<title>l4_spec_a_rec&#45;&gt;trans_spec_a_l4_tda</title>
<path fill="none" stroke="black" d="M3083.38,-1080C3149.78,-1080 3240.45,-1080 3240.45,-1080 3240.45,-1080 3240.45,-991.9 3240.45,-991.9"/>
<polygon fill="black" stroke="black" points="3243.95,-991.9 3240.45,-981.9 3236.95,-991.9 3243.95,-991.9"/>
</g>
<!-- l4_spec_a_afcal -->
<g id="node44" class="node">
<title>l4_spec_a_afcal</title>
<polygon fill="none" stroke="black" points="3123.23,-1038 2894.23,-1038 2894.23,-1014 3123.23,-1014 3135.23,-1026 3123.23,-1038"/>
<text text-anchor="middle" x="3014.73" y="-1022.3" font-family="Times,serif" font-size="14.00">L4_spec_a absolute flux calibrations 1..1</text>
</g>
<!-- l4_spec_a_afcal&#45;&gt;trans_spec_a_l4_tda -->
<g id="edge47" class="edge">
<title>l4_spec_a_afcal&#45;&gt;trans_spec_a_l4_tda</title>
<path fill="none" stroke="black" d="M3108.45,-1007.99C3108.45,-993.7 3108.45,-976.11 3108.45,-976.11 3108.45,-976.11 3216.8,-976.11 3216.8,-976.11"/>
<polygon fill="black" stroke="black" points="3216.8,-979.61 3226.8,-976.11 3216.8,-972.61 3216.8,-979.61"/>
</g>
<!-- l4_spec_a_ndfilt -->
<g id="node45" class="node">
<title>l4_spec_a_ndfilt</title>
<polygon fill="none" stroke="black" points="3079.23,-984 2938.23,-984 2938.23,-960 3079.23,-960 3091.23,-972 3079.23,-984"/>
<text text-anchor="middle" x="3014.73" y="-968.3" font-family="Times,serif" font-size="14.00">L4_spec_a ND filter 1..1</text>
</g>
<!-- l4_spec_a_ndfilt&#45;&gt;trans_spec_a_l4_tda -->
<g id="edge48" class="edge">
<title>l4_spec_a_ndfilt&#45;&gt;trans_spec_a_l4_tda</title>
<path fill="none" stroke="black" d="M3091.54,-965.06C3091.54,-965.06 3200.14,-965.06 3200.14,-965.06"/>
<polygon fill="black" stroke="black" points="3200.14,-968.56 3210.14,-965.06 3200.14,-961.56 3200.14,-968.56"/>
</g>
<!-- l4_spec_a_stmap -->
<g id="node46" class="node">
<title>l4_spec_a_stmap</title>
<polygon fill="none" stroke="black" points="3113.23,-930 2904.23,-930 2904.23,-906 3113.23,-906 3125.23,-918 3113.23,-930"/>
<text text-anchor="middle" x="3014.73" y="-914.3" font-family="Times,serif" font-size="14.00">L4_spec_a slit transmission map 1..1</text>
</g>
<!-- l4_spec_a_stmap&#45;&gt;trans_spec_a_l4_tda -->
<g id="edge49" class="edge">
<title>l4_spec_a_stmap&#45;&gt;trans_spec_a_l4_tda</title>
<path fill="none" stroke="black" d="M3125.29,-918C3125.29,-918 3169.59,-918 3169.59,-918"/>
<polygon fill="black" stroke="black" points="3169.59,-921.5 3179.59,-918 3169.59,-914.5 3169.59,-921.5"/>
</g>
<!-- l4_spec_a_tspi -->
<g id="node47" class="node">
<title>l4_spec_a_tspi</title>
<polygon fill="none" stroke="black" points="3117.73,-876 2899.73,-876 2899.73,-852 3117.73,-852 3129.73,-864 3117.73,-876"/>
<text text-anchor="middle" x="3014.73" y="-860.3" font-family="Times,serif" font-size="14.00">L4_spec_a target star prism image 1..1</text>
</g>
<!-- l4_spec_a_tspi&#45;&gt;trans_spec_a_l4_tda -->
<g id="edge50" class="edge">
<title>l4_spec_a_tspi&#45;&gt;trans_spec_a_l4_tda</title>
<path fill="none" stroke="black" d="M3129.78,-864C3129.78,-864 3169.32,-864 3169.32,-864"/>
<polygon fill="black" stroke="black" points="3169.32,-867.5 3179.32,-864 3169.32,-860.5 3169.32,-867.5"/>
</g>
<!-- l4_spec_a_rspi -->
<g id="node48" class="node">
<title>l4_spec_a_rspi</title>
<polygon fill="none" stroke="black" points="3127.73,-822 2889.73,-822 2889.73,-798 3127.73,-798 3139.73,-810 3127.73,-822"/>
<text text-anchor="middle" x="3014.73" y="-806.3" font-family="Times,serif" font-size="14.00">L4_spec_a reference star prism image 1..1</text>
</g>
<!-- l4_spec_a_rspi&#45;&gt;trans_spec_a_l4_tda -->
<g id="edge51" class="edge">
<title>l4_spec_a_rspi&#45;&gt;trans_spec_a_l4_tda</title>
<path fill="none" stroke="black" d="M3139.93,-811.42C3139.93,-811.42 3207.6,-811.42 3207.6,-811.42"/>
<polygon fill="black" stroke="black" points="3207.6,-814.92 3217.6,-811.42 3207.6,-807.92 3207.6,-814.92"/>
</g>
<!-- l4_spec_a_lsf -->
<g id="node49" class="node">
<title>l4_spec_a_lsf</title>
<polygon fill="none" stroke="black" points="3108.73,-768 2908.73,-768 2908.73,-744 3108.73,-744 3120.73,-756 3108.73,-768"/>
<text text-anchor="middle" x="3014.73" y="-752.3" font-family="Times,serif" font-size="14.00">L4_spec_a line spread function 1..1</text>
</g>
<!-- l4_spec_a_lsf&#45;&gt;trans_spec_a_l4_tda -->
<g id="edge52" class="edge">
<title>l4_spec_a_lsf&#45;&gt;trans_spec_a_l4_tda</title>
<path fill="none" stroke="black" d="M3120.82,-756C3172.84,-756 3224.45,-756 3224.45,-756 3224.45,-756 3224.45,-797.04 3224.45,-797.04"/>
<polygon fill="black" stroke="black" points="3220.95,-797.04 3224.45,-807.04 3227.95,-797.04 3220.95,-797.04"/>
</g>
</g>
</svg>
