<?xml version="1.0" encoding="UTF-8" standalone="no"?>
<!DOCTYPE svg PUBLIC "-//W3C//DTD SVG 1.1//EN"
 "http://www.w3.org/Graphics/SVG/1.1/DTD/svg11.dtd">
<!-- Generated by graphviz version 2.43.0 (0)
 -->
<!-- Title: WideFieldOfViewAnalog Pages: 1 -->
<svg width="4353pt" height="1042pt"
 viewBox="0.00 0.00 4352.80 1042.24" xmlns="http://www.w3.org/2000/svg" xmlns:xlink="http://www.w3.org/1999/xlink">
<g id="graph0" class="graph" transform="scale(1 1) rotate(0) translate(4 1038.24)">
<title>WideFieldOfViewAnalog</title>
<polygon fill="white" stroke="transparent" points="-4,4 -4,-1038.24 4348.8,-1038.24 4348.8,4 -4,4"/>
<!-- trans_wfov_a_l1_l2a -->
<g id="node1" class="node">
<title>trans_wfov_a_l1_l2a</title>
<ellipse fill="none" stroke="black" cx="432.72" cy="-126.24" rx="123.99" ry="123.99"/>
<text text-anchor="middle" x="432.72" y="-130.04" font-family="Times,serif" font-size="14.00">wfov_a Transmutation</text>
<text text-anchor="middle" x="432.72" y="-115.04" font-family="Times,serif" font-size="14.00">L1 to L2a</text>
</g>
<!-- l2a_wfov_a_prod -->
<g id="node13" class="node">
<title>l2a_wfov_a_prod</title>
<polygon fill="none" stroke="black" points="1086.28,-260.24 889.28,-260.24 889.28,-224.24 1086.28,-224.24 1086.28,-260.24"/>
<text text-anchor="middle" x="987.78" y="-238.54" font-family="Times,serif" font-size="14.00">L2a_wfov_a products 1..b</text>
</g>
<!-- trans_wfov_a_l1_l2a&#45;&gt;l2a_wfov_a_prod -->
<g id="edge6" class="edge">
<title>trans_wfov_a_l1_l2a&#45;&gt;l2a_wfov_a_prod</title>
<path fill="none" stroke="black" d="M487.71,-237.11C487.71,-237.11 879.21,-237.11 879.21,-237.11"/>
<polygon fill="black" stroke="black" points="879.21,-240.61 889.21,-237.11 879.2,-233.61 879.21,-240.61"/>
</g>
<!-- l2a_wfov_a_man -->
<g id="node14" class="node">
<title>l2a_wfov_a_man</title>
<ellipse fill="none" stroke="black" cx="720.5" cy="-126.24" rx="128.08" ry="18"/>
<text text-anchor="middle" x="720.5" y="-122.54" font-family="Times,serif" font-size="14.00">L2a_wfov_a manifest 1..1</text>
</g>
<!-- trans_wfov_a_l1_l2a&#45;&gt;l2a_wfov_a_man -->
<g id="edge7" class="edge">
<title>trans_wfov_a_l1_l2a&#45;&gt;l2a_wfov_a_man</title>
<path fill="none" stroke="black" d="M556.85,-126.24C556.85,-126.24 582.21,-126.24 582.21,-126.24"/>
<polygon fill="black" stroke="black" points="582.21,-129.74 592.21,-126.24 582.21,-122.74 582.21,-129.74"/>
</g>
<!-- l2a_wfov_a_log -->
<g id="node23" class="node">
<title>l2a_wfov_a_log</title>
<ellipse fill="none" stroke="black" cx="720.5" cy="-72.24" rx="101.28" ry="18"/>
<text text-anchor="middle" x="720.5" y="-68.54" font-family="Times,serif" font-size="14.00">L2a log_wfov_a 1..1</text>
</g>
<!-- trans_wfov_a_l1_l2a&#45;&gt;l2a_wfov_a_log -->
<g id="edge8" class="edge">
<title>trans_wfov_a_l1_l2a&#45;&gt;l2a_wfov_a_log</title>
<path fill="none" stroke="black" d="M544.4,-72.24C544.4,-72.24 608.76,-72.24 608.76,-72.24"/>
<polygon fill="black" stroke="black" points="608.76,-75.74 618.76,-72.24 608.76,-68.74 608.76,-75.74"/>
</g>
<!-- l2a_wfov_a_demux -->
<g id="node2" class="node">
<title>l2a_wfov_a_demux</title>
<ellipse fill="none" stroke="black" cx="987.78" cy="-103.24" rx="103.48" ry="103.48"/>
<text text-anchor="middle" x="987.78" y="-107.04" font-family="Times,serif" font-size="14.00">wfov_a l2a Demux</text>
<text text-anchor="middle" x="987.78" y="-92.04" font-family="Times,serif" font-size="14.00">Exposure</text>
</g>
<!-- l2a_wfov_a_man_demux -->
<g id="node24" class="node">
<title>l2a_wfov_a_man_demux</title>
<ellipse fill="none" stroke="black" cx="1278.02" cy="-149.24" rx="141.88" ry="18"/>
<text text-anchor="middle" x="1278.02" y="-145.54" font-family="Times,serif" font-size="14.00">L2a_wfov_a(E) manifest 1..1</text>
</g>
<!-- l2a_wfov_a_demux&#45;&gt;l2a_wfov_a_man_demux -->
<g id="edge22" class="edge">
<title>l2a_wfov_a_demux&#45;&gt;l2a_wfov_a_man_demux</title>
<path fill="none" stroke="black" d="M1080.41,-149.24C1080.41,-149.24 1126.28,-149.24 1126.28,-149.24"/>
<polygon fill="black" stroke="black" points="1126.28,-152.74 1136.28,-149.24 1126.28,-145.74 1126.28,-152.74"/>
</g>
<!-- trans_wfov_a_l2a_l2b -->
<g id="node3" class="node">
<title>trans_wfov_a_l2a_l2b</title>
<ellipse fill="none" stroke="black" cx="1588.76" cy="-399.24" rx="123.99" ry="123.99"/>
<text text-anchor="middle" x="1588.76" y="-403.04" font-family="Times,serif" font-size="14.00">wfov_a Transmutation</text>
<text text-anchor="middle" x="1588.76" y="-388.04" font-family="Times,serif" font-size="14.00">L2a to L2b</text>
</g>
<!-- l2b_wfov_a_prod -->
<g id="node25" class="node">
<title>l2b_wfov_a_prod</title>
<polygon fill="none" stroke="black" points="2265.88,-523.24 2067.88,-523.24 2067.88,-487.24 2265.88,-487.24 2265.88,-523.24"/>
<text text-anchor="middle" x="2166.88" y="-501.54" font-family="Times,serif" font-size="14.00">L2b_wfov_a products 1..1</text>
</g>
<!-- trans_wfov_a_l2a_l2b&#45;&gt;l2b_wfov_a_prod -->
<g id="edge18" class="edge">
<title>trans_wfov_a_l2a_l2b&#45;&gt;l2b_wfov_a_prod</title>
<path fill="none" stroke="black" d="M1652.84,-505.11C1652.84,-505.11 2057.75,-505.11 2057.75,-505.11"/>
<polygon fill="black" stroke="black" points="2057.75,-508.61 2067.75,-505.11 2057.75,-501.61 2057.75,-508.61"/>
</g>
<!-- l2b_wfov_a_man_demux -->
<g id="node32" class="node">
<title>l2b_wfov_a_man_demux</title>
<ellipse fill="none" stroke="black" cx="1890.19" cy="-399.24" rx="141.88" ry="18"/>
<text text-anchor="middle" x="1890.19" y="-395.54" font-family="Times,serif" font-size="14.00">L2b_wfov_a(E) manifest 1..1</text>
</g>
<!-- trans_wfov_a_l2a_l2b&#45;&gt;l2b_wfov_a_man_demux -->
<g id="edge19" class="edge">
<title>trans_wfov_a_l2a_l2b&#45;&gt;l2b_wfov_a_man_demux</title>
<path fill="none" stroke="black" d="M1712.67,-399.24C1712.67,-399.24 1738.12,-399.24 1738.12,-399.24"/>
<polygon fill="black" stroke="black" points="1738.12,-402.74 1748.12,-399.24 1738.12,-395.74 1738.12,-402.74"/>
</g>
<!-- l2b_wfov_a_log -->
<g id="node33" class="node">
<title>l2b_wfov_a_log</title>
<ellipse fill="none" stroke="black" cx="1890.19" cy="-345.24" rx="102.08" ry="18"/>
<text text-anchor="middle" x="1890.19" y="-341.54" font-family="Times,serif" font-size="14.00">L2b_wfov_a log 1..1</text>
</g>
<!-- trans_wfov_a_l2a_l2b&#45;&gt;l2b_wfov_a_log -->
<g id="edge20" class="edge">
<title>trans_wfov_a_l2a_l2b&#45;&gt;l2b_wfov_a_log</title>
<path fill="none" stroke="black" d="M1700.14,-345.24C1700.14,-345.24 1777.74,-345.24 1777.74,-345.24"/>
<polygon fill="black" stroke="black" points="1777.74,-348.74 1787.74,-345.24 1777.74,-341.74 1777.74,-348.74"/>
</g>
<!-- l2b_wfov_a_mux -->
<g id="node4" class="node">
<title>l2b_wfov_a_mux</title>
<ellipse fill="none" stroke="black" cx="2166.88" cy="-378.24" rx="90.52" ry="90.52"/>
<text text-anchor="middle" x="2166.88" y="-382.04" font-family="Times,serif" font-size="14.00">wfov_a l2b Mux</text>
<text text-anchor="middle" x="2166.88" y="-367.04" font-family="Times,serif" font-size="14.00">Exposure</text>
</g>
<!-- l2b_wfov_a_man -->
<g id="node26" class="node">
<title>l2b_wfov_a_man</title>
<ellipse fill="none" stroke="black" cx="2454.38" cy="-418.24" rx="128.08" ry="18"/>
<text text-anchor="middle" x="2454.38" y="-414.54" font-family="Times,serif" font-size="14.00">L2b_wfov_a manifest 1..1</text>
</g>
<!-- l2b_wfov_a_mux&#45;&gt;l2b_wfov_a_man -->
<g id="edge25" class="edge">
<title>l2b_wfov_a_mux&#45;&gt;l2b_wfov_a_man</title>
<path fill="none" stroke="black" d="M2248.11,-418.24C2248.11,-418.24 2316.3,-418.24 2316.3,-418.24"/>
<polygon fill="black" stroke="black" points="2316.3,-421.74 2326.3,-418.24 2316.3,-414.74 2316.3,-421.74"/>
</g>
<!-- trans_wfov_a_l2b_l3 -->
<g id="node5" class="node">
<title>trans_wfov_a_l2b_l3</title>
<ellipse fill="none" stroke="black" cx="2766.62" cy="-584.24" rx="123.99" ry="123.99"/>
<text text-anchor="middle" x="2766.62" y="-588.04" font-family="Times,serif" font-size="14.00">wfov_a Transmutation</text>
<text text-anchor="middle" x="2766.62" y="-573.04" font-family="Times,serif" font-size="14.00">L2b to L3</text>
</g>
<!-- l3_wfov_a_prod -->
<g id="node34" class="node">
<title>l3_wfov_a_prod</title>
<polygon fill="none" stroke="black" points="3157.35,-656.24 2968.35,-656.24 2968.35,-620.24 3157.35,-620.24 3157.35,-656.24"/>
<text text-anchor="middle" x="3062.85" y="-634.54" font-family="Times,serif" font-size="14.00">L3_wfov_a products 1..1</text>
</g>
<!-- trans_wfov_a_l2b_l3&#45;&gt;l3_wfov_a_prod -->
<g id="edge33" class="edge">
<title>trans_wfov_a_l2b_l3&#45;&gt;l3_wfov_a_prod</title>
<path fill="none" stroke="black" d="M2878.19,-638.24C2878.19,-638.24 2958.33,-638.24 2958.33,-638.24"/>
<polygon fill="black" stroke="black" points="2958.33,-641.74 2968.33,-638.24 2958.33,-634.74 2958.33,-641.74"/>
</g>
<!-- l3_wfov_a_man -->
<g id="node36" class="node">
<title>l3_wfov_a_man</title>
<ellipse fill="none" stroke="black" cx="3062.85" cy="-584.24" rx="122.38" ry="18"/>
<text text-anchor="middle" x="3062.85" y="-580.54" font-family="Times,serif" font-size="14.00">L3_wfov_a manifest 1..1</text>
</g>
<!-- trans_wfov_a_l2b_l3&#45;&gt;l3_wfov_a_man -->
<g id="edge34" class="edge">
<title>trans_wfov_a_l2b_l3&#45;&gt;l3_wfov_a_man</title>
<path fill="none" stroke="black" d="M2890.53,-584.24C2890.53,-584.24 2930.39,-584.24 2930.39,-584.24"/>
<polygon fill="black" stroke="black" points="2930.39,-587.74 2940.39,-584.24 2930.39,-580.74 2930.39,-587.74"/>
</g>
<!-- l3_wfov_a_log -->
<g id="node39" class="node">
<title>l3_wfov_a_log</title>
<ellipse fill="none" stroke="black" cx="3062.85" cy="-530.24" rx="96.38" ry="18"/>
<text text-anchor="middle" x="3062.85" y="-526.54" font-family="Times,serif" font-size="14.00">L3_wfov_a log 1..1</text>
</g>
<!-- trans_wfov_a_l2b_l3&#45;&gt;l3_wfov_a_log -->
<g id="edge35" class="edge">
<title>trans_wfov_a_l2b_l3&#45;&gt;l3_wfov_a_log</title>
<path fill="none" stroke="black" d="M2878.19,-530.24C2878.19,-530.24 2956.42,-530.24 2956.42,-530.24"/>
<polygon fill="black" stroke="black" points="2956.42,-533.74 2966.42,-530.24 2956.42,-526.74 2956.42,-533.74"/>
</g>
<!-- trans_wfov_a_l3_l4 -->
<g id="node6" class="node">
<title>trans_wfov_a_l3_l4</title>
<ellipse fill="none" stroke="black" cx="3359.08" cy="-692.24" rx="123.99" ry="123.99"/>
<text text-anchor="middle" x="3359.08" y="-696.04" font-family="Times,serif" font-size="14.00">wfov_a Transmutation</text>
<text text-anchor="middle" x="3359.08" y="-681.04" font-family="Times,serif" font-size="14.00">L3 to L4</text>
</g>
<!-- l4_wfov_a_prod -->
<g id="node40" class="node">
<title>l4_wfov_a_prod</title>
<polygon fill="none" stroke="black" points="3778.83,-764.24 3589.83,-764.24 3589.83,-728.24 3778.83,-728.24 3778.83,-764.24"/>
<text text-anchor="middle" x="3684.33" y="-742.54" font-family="Times,serif" font-size="14.00">L4_wfov_a products 1..1</text>
</g>
<!-- trans_wfov_a_l3_l4&#45;&gt;l4_wfov_a_prod -->
<g id="edge41" class="edge">
<title>trans_wfov_a_l3_l4&#45;&gt;l4_wfov_a_prod</title>
<path fill="none" stroke="black" d="M3470.56,-746.24C3470.56,-746.24 3579.78,-746.24 3579.78,-746.24"/>
<polygon fill="black" stroke="black" points="3579.78,-749.74 3589.78,-746.24 3579.78,-742.74 3579.78,-749.74"/>
</g>
<!-- l4_wfov_a_log -->
<g id="node42" class="node">
<title>l4_wfov_a_log</title>
<ellipse fill="none" stroke="black" cx="3684.33" cy="-692.24" rx="96.38" ry="18"/>
<text text-anchor="middle" x="3684.33" y="-688.54" font-family="Times,serif" font-size="14.00">L4_wfov_a log 1..1</text>
</g>
<!-- trans_wfov_a_l3_l4&#45;&gt;l4_wfov_a_log -->
<g id="edge42" class="edge">
<title>trans_wfov_a_l3_l4&#45;&gt;l4_wfov_a_log</title>
<path fill="none" stroke="black" d="M3482.97,-692.24C3482.97,-692.24 3578.1,-692.24 3578.1,-692.24"/>
<polygon fill="black" stroke="black" points="3578.1,-695.74 3588.1,-692.24 3578.1,-688.74 3578.1,-695.74"/>
</g>
<!-- l4_wfov_a_man -->
<g id="node43" class="node">
<title>l4_wfov_a_man</title>
<ellipse fill="none" stroke="black" cx="3684.33" cy="-638.24" rx="122.38" ry="18"/>
<text text-anchor="middle" x="3684.33" y="-634.54" font-family="Times,serif" font-size="14.00">L4_wfov_a manifest 1..1</text>
</g>
<!-- trans_wfov_a_l3_l4&#45;&gt;l4_wfov_a_man -->
<g id="edge43" class="edge">
<title>trans_wfov_a_l3_l4&#45;&gt;l4_wfov_a_man</title>
<path fill="none" stroke="black" d="M3470.56,-638.24C3470.56,-638.24 3551.86,-638.24 3551.86,-638.24"/>
<polygon fill="black" stroke="black" points="3551.86,-641.74 3561.86,-638.24 3551.86,-634.74 3551.86,-641.74"/>
</g>
<!-- trans_wfov_a_l4_tda -->
<g id="node7" class="node">
<title>trans_wfov_a_l4_tda</title>
<ellipse fill="none" stroke="black" cx="4009.57" cy="-854.24" rx="123.99" ry="123.99"/>
<text text-anchor="middle" x="4009.57" y="-858.04" font-family="Times,serif" font-size="14.00">wfov_a Transmutation</text>
<text text-anchor="middle" x="4009.57" y="-843.04" font-family="Times,serif" font-size="14.00">L4 to TDA</text>
</g>
<!-- tda_wfov_a_prod -->
<g id="node48" class="node">
<title>tda_wfov_a_prod</title>
<ellipse fill="none" stroke="black" cx="4257.06" cy="-881.24" rx="87.99" ry="18"/>
<text text-anchor="middle" x="4257.06" y="-877.54" font-family="Times,serif" font-size="14.00">tda_wfov_a_prod</text>
</g>
<!-- trans_wfov_a_l4_tda&#45;&gt;tda_wfov_a_prod -->
<g id="edge51" class="edge">
<title>trans_wfov_a_l4_tda&#45;&gt;tda_wfov_a_prod</title>
<path fill="none" stroke="black" d="M4130.42,-881.24C4130.42,-881.24 4158.99,-881.24 4158.99,-881.24"/>
<polygon fill="black" stroke="black" points="4158.99,-884.74 4168.99,-881.24 4158.99,-877.74 4158.99,-884.74"/>
</g>
<!-- tda_wfov_a_log -->
<g id="node49" class="node">
<title>tda_wfov_a_log</title>
<ellipse fill="none" stroke="black" cx="4257.06" cy="-827.24" rx="80.69" ry="18"/>
<text text-anchor="middle" x="4257.06" y="-823.54" font-family="Times,serif" font-size="14.00">tda_wfov_a_log</text>
</g>
<!-- trans_wfov_a_l4_tda&#45;&gt;tda_wfov_a_log -->
<g id="edge52" class="edge">
<title>trans_wfov_a_l4_tda&#45;&gt;tda_wfov_a_log</title>
<path fill="none" stroke="black" d="M4130.42,-827.24C4130.42,-827.24 4166.36,-827.24 4166.36,-827.24"/>
<polygon fill="black" stroke="black" points="4166.36,-830.74 4176.36,-827.24 4166.36,-823.74 4166.36,-830.74"/>
</g>
<!-- l1_wfov_a_prod -->
<g id="node8" class="node">
<title>l1_wfov_a_prod</title>
<polygon fill="none" stroke="black" points="230.99,-252.24 41.99,-252.24 41.99,-216.24 230.99,-216.24 230.99,-252.24"/>
<text text-anchor="middle" x="136.49" y="-230.54" font-family="Times,serif" font-size="14.00">L1_wfov_a products 1..b</text>
</g>
<!-- l1_wfov_a_prod&#45;&gt;trans_wfov_a_l1_l2a -->
<g id="edge1" class="edge">
<title>l1_wfov_a_prod&#45;&gt;trans_wfov_a_l1_l2a</title>
<path fill="none" stroke="black" d="M231.03,-233.11C231.03,-233.11 360.33,-233.11 360.33,-233.11"/>
<polygon fill="black" stroke="black" points="360.33,-236.61 370.33,-233.11 360.33,-229.61 360.33,-236.61"/>
</g>
<!-- l1_wfov_a_man -->
<g id="node9" class="node">
<title>l1_wfov_a_man</title>
<ellipse fill="none" stroke="black" cx="136.49" cy="-180.24" rx="122.38" ry="18"/>
<text text-anchor="middle" x="136.49" y="-176.54" font-family="Times,serif" font-size="14.00">L1_wfov_a manifest 1..1</text>
</g>
<!-- l1_wfov_a_man&#45;&gt;trans_wfov_a_l1_l2a -->
<g id="edge2" class="edge">
<title>l1_wfov_a_man&#45;&gt;trans_wfov_a_l1_l2a</title>
<path fill="none" stroke="black" d="M258.69,-180.24C258.69,-180.24 311.25,-180.24 311.25,-180.24"/>
<polygon fill="black" stroke="black" points="311.25,-183.74 321.25,-180.24 311.25,-176.74 311.25,-183.74"/>
</g>
<!-- l1_wfov_a_odir -->
<g id="node10" class="node">
<title>l1_wfov_a_odir</title>
<ellipse fill="none" stroke="black" cx="136.49" cy="-126.24" rx="136.48" ry="18"/>
<text text-anchor="middle" x="136.49" y="-122.54" font-family="Times,serif" font-size="14.00">L1_wfov_a output path 1..1</text>
</g>
<!-- l1_wfov_a_odir&#45;&gt;trans_wfov_a_l1_l2a -->
<g id="edge3" class="edge">
<title>l1_wfov_a_odir&#45;&gt;trans_wfov_a_l1_l2a</title>
<path fill="none" stroke="black" d="M273.33,-126.24C273.33,-126.24 298.79,-126.24 298.79,-126.24"/>
<polygon fill="black" stroke="black" points="298.79,-129.74 308.79,-126.24 298.79,-122.74 298.79,-129.74"/>
</g>
<!-- l1_wfov_a_rec -->
<g id="node11" class="node">
<title>l1_wfov_a_rec</title>
<polygon fill="none" stroke="black" points="209.49,-84.24 51.49,-84.24 51.49,-60.24 209.49,-60.24 221.49,-72.24 209.49,-84.24"/>
<text text-anchor="middle" x="136.49" y="-68.54" font-family="Times,serif" font-size="14.00">L1_wfov_a recipe 1..1</text>
</g>
<!-- l1_wfov_a_rec&#45;&gt;trans_wfov_a_l1_l2a -->
<g id="edge4" class="edge">
<title>l1_wfov_a_rec&#45;&gt;trans_wfov_a_l1_l2a</title>
<path fill="none" stroke="black" d="M221.77,-72.24C221.77,-72.24 311.28,-72.24 311.28,-72.24"/>
<polygon fill="black" stroke="black" points="311.28,-75.74 321.28,-72.24 311.28,-68.74 311.28,-75.74"/>
</g>
<!-- l1_wfov_a_nllut -->
<g id="node12" class="node">
<title>l1_wfov_a_nllut</title>
<polygon fill="none" stroke="black" points="240.49,-30.24 20.49,-30.24 20.49,-6.24 240.49,-6.24 252.49,-18.24 240.49,-30.24"/>
<text text-anchor="middle" x="136.49" y="-14.54" font-family="Times,serif" font-size="14.00">L1_wfov_a non&#45;linear LUT 1..1</text>
</g>
<!-- l1_wfov_a_nllut&#45;&gt;trans_wfov_a_l1_l2a -->
<g id="edge5" class="edge">
<title>l1_wfov_a_nllut&#45;&gt;trans_wfov_a_l1_l2a</title>
<path fill="none" stroke="black" d="M252.72,-19.37C252.72,-19.37 360.15,-19.37 360.15,-19.37"/>
<polygon fill="black" stroke="black" points="360.15,-22.87 370.15,-19.37 360.15,-15.87 360.15,-22.87"/>
</g>
<!-- l2a_wfov_a_prod&#45;&gt;trans_wfov_a_l2a_l2b -->
<g id="edge9" class="edge">
<title>l2a_wfov_a_prod&#45;&gt;trans_wfov_a_l2a_l2b</title>
<path fill="none" stroke="black" d="M987.8,-260.35C987.8,-275.87 987.8,-295.74 987.8,-295.74 987.8,-295.74 1510.7,-295.74 1510.7,-295.74"/>
<polygon fill="black" stroke="black" points="1510.7,-299.24 1520.7,-295.74 1510.7,-292.24 1510.7,-299.24"/>
</g>
<!-- l2a_wfov_a_man&#45;&gt;l2a_wfov_a_demux -->
<g id="edge21" class="edge">
<title>l2a_wfov_a_man&#45;&gt;l2a_wfov_a_demux</title>
<path fill="none" stroke="black" d="M848.66,-126.24C848.66,-126.24 876.97,-126.24 876.97,-126.24"/>
<polygon fill="black" stroke="black" points="876.97,-129.74 886.97,-126.24 876.97,-122.74 876.97,-129.74"/>
</g>
<!-- l2a_wfov_a_odir -->
<g id="node15" class="node">
<title>l2a_wfov_a_odir</title>
<ellipse fill="none" stroke="black" cx="1278.02" cy="-644.24" rx="141.88" ry="18"/>
<text text-anchor="middle" x="1278.02" y="-640.54" font-family="Times,serif" font-size="14.00">L2a_wfov_a output path 1..1</text>
</g>
<!-- l2a_wfov_a_odir&#45;&gt;trans_wfov_a_l2a_l2b -->
<g id="edge10" class="edge">
<title>l2a_wfov_a_odir&#45;&gt;trans_wfov_a_l2a_l2b</title>
<path fill="none" stroke="black" d="M1417.95,-641.24C1516.45,-641.24 1630.8,-641.24 1630.8,-641.24 1630.8,-641.24 1630.8,-525.63 1630.8,-525.63"/>
<polygon fill="black" stroke="black" points="1634.3,-525.63 1630.8,-515.63 1627.3,-525.63 1634.3,-525.63"/>
</g>
<!-- l2a_wfov_a_rec -->
<g id="node16" class="node">
<title>l2a_wfov_a_rec</title>
<polygon fill="none" stroke="black" points="1355.52,-602.24 1188.52,-602.24 1188.52,-578.24 1355.52,-578.24 1367.52,-590.24 1355.52,-602.24"/>
<text text-anchor="middle" x="1278.02" y="-586.54" font-family="Times,serif" font-size="14.00">L2a_wfov_a recipe 1..1</text>
</g>
<!-- l2a_wfov_a_rec&#45;&gt;trans_wfov_a_l2a_l2b -->
<g id="edge11" class="edge">
<title>l2a_wfov_a_rec&#45;&gt;trans_wfov_a_l2a_l2b</title>
<path fill="none" stroke="black" d="M1367.85,-587.24C1446.33,-587.24 1547.8,-587.24 1547.8,-587.24 1547.8,-587.24 1547.8,-526.16 1547.8,-526.16"/>
<polygon fill="black" stroke="black" points="1551.3,-526.16 1547.8,-516.16 1544.3,-526.16 1551.3,-526.16"/>
</g>
<!-- l2a_wfov_a_cti -->
<g id="node17" class="node">
<title>l2a_wfov_a_cti</title>
<polygon fill="none" stroke="black" points="1417.02,-548.24 1127.02,-548.24 1127.02,-524.24 1417.02,-524.24 1429.02,-536.24 1417.02,-548.24"/>
<text text-anchor="middle" x="1278.02" y="-532.54" font-family="Times,serif" font-size="14.00">L2a_wfov_a charge xfer inefficiency 1..1</text>
</g>
<!-- l2a_wfov_a_cti&#45;&gt;trans_wfov_a_l2a_l2b -->
<g id="edge12" class="edge">
<title>l2a_wfov_a_cti&#45;&gt;trans_wfov_a_l2a_l2b</title>
<path fill="none" stroke="black" stroke-dasharray="5,2" d="M1416.8,-518.08C1416.8,-513.19 1416.8,-509.24 1416.8,-509.24 1416.8,-509.24 1521.98,-509.24 1521.98,-509.24"/>
<polygon fill="black" stroke="black" points="1521.98,-512.74 1531.98,-509.24 1521.98,-505.74 1521.98,-512.74"/>
</g>
<!-- l2a_wfov_a_dnb -->
<g id="node18" class="node">
<title>l2a_wfov_a_dnb</title>
<polygon fill="none" stroke="black" points="1398.52,-494.24 1145.52,-494.24 1145.52,-468.24 1398.52,-468.24 1410.52,-481.24 1398.52,-494.24"/>
<text text-anchor="middle" x="1278.02" y="-485.04" font-family="Times,serif" font-size="14.00">L2a_wfov_a CIC/Dark Current/FPN</text>
<text text-anchor="middle" x="1278.02" y="-470.04" font-family="Times,serif" font-size="14.00"> or master dark 1..1</text>
</g>
<!-- l2a_wfov_a_dnb&#45;&gt;trans_wfov_a_l2a_l2b -->
<g id="edge13" class="edge">
<title>l2a_wfov_a_dnb&#45;&gt;trans_wfov_a_l2a_l2b</title>
<path fill="none" stroke="black" d="M1410.7,-481.24C1410.7,-481.24 1485.94,-481.24 1485.94,-481.24"/>
<polygon fill="black" stroke="black" points="1485.94,-484.74 1495.94,-481.24 1485.94,-477.74 1485.94,-484.74"/>
</g>
<!-- l2a_wfov_a_mbpm -->
<g id="node19" class="node">
<title>l2a_wfov_a_mbpm</title>
<polygon fill="none" stroke="black" points="1411.02,-438.24 1133.02,-438.24 1133.02,-414.24 1411.02,-414.24 1423.02,-426.24 1411.02,-438.24"/>
<text text-anchor="middle" x="1278.02" y="-422.54" font-family="Times,serif" font-size="14.00">L2a_wfov_a master bad pixel map 1..1</text>
</g>
<!-- l2a_wfov_a_mbpm&#45;&gt;trans_wfov_a_l2a_l2b -->
<g id="edge14" class="edge">
<title>l2a_wfov_a_mbpm&#45;&gt;trans_wfov_a_l2a_l2b</title>
<path fill="none" stroke="black" d="M1423.38,-426.24C1423.38,-426.24 1457.75,-426.24 1457.75,-426.24"/>
<polygon fill="black" stroke="black" points="1457.75,-429.74 1467.75,-426.24 1457.75,-422.74 1457.75,-429.74"/>
</g>
<!-- l2a_wfov_a_ff -->
<g id="node20" class="node">
<title>l2a_wfov_a_ff</title>
<polygon fill="none" stroke="black" points="1366.02,-384.24 1178.02,-384.24 1178.02,-360.24 1366.02,-360.24 1378.02,-372.24 1366.02,-384.24"/>
<text text-anchor="middle" x="1278.02" y="-368.54" font-family="Times,serif" font-size="14.00">L2a_wfov_a flat fields 1..1</text>
</g>
<!-- l2a_wfov_a_ff&#45;&gt;trans_wfov_a_l2a_l2b -->
<g id="edge15" class="edge">
<title>l2a_wfov_a_ff&#45;&gt;trans_wfov_a_l2a_l2b</title>
<path fill="none" stroke="black" d="M1378.05,-372.24C1378.05,-372.24 1457.72,-372.24 1457.72,-372.24"/>
<polygon fill="black" stroke="black" points="1457.72,-375.74 1467.72,-372.24 1457.72,-368.74 1457.72,-375.74"/>
</g>
<!-- l2a_wfov_a_emg -->
<g id="node21" class="node">
<title>l2a_wfov_a_emg</title>
<polygon fill="none" stroke="black" points="1363.02,-330.24 1181.02,-330.24 1181.02,-306.24 1363.02,-306.24 1375.02,-318.24 1363.02,-330.24"/>
<text text-anchor="middle" x="1278.02" y="-314.54" font-family="Times,serif" font-size="14.00">L2a_wfov_a EM gain 1..1</text>
</g>
<!-- l2a_wfov_a_emg&#45;&gt;trans_wfov_a_l2a_l2b -->
<g id="edge16" class="edge">
<title>l2a_wfov_a_emg&#45;&gt;trans_wfov_a_l2a_l2b</title>
<path fill="none" stroke="black" d="M1375.06,-318.24C1375.06,-318.24 1485.11,-318.24 1485.11,-318.24"/>
<polygon fill="black" stroke="black" points="1485.11,-321.74 1495.11,-318.24 1485.11,-314.74 1485.11,-321.74"/>
</g>
<!-- l2a_wfov_a_kgain -->
<g id="node22" class="node">
<title>l2a_wfov_a_kgain</title>
<polygon fill="none" stroke="black" points="1354.02,-276.24 1190.02,-276.24 1190.02,-252.24 1354.02,-252.24 1366.02,-264.24 1354.02,-276.24"/>
<text text-anchor="middle" x="1278.02" y="-260.54" font-family="Times,serif" font-size="14.00">L2a_wfov_a Kgain 1..1</text>
</g>
<!-- l2a_wfov_a_kgain&#45;&gt;trans_wfov_a_l2a_l2b -->
<g id="edge17" class="edge">
<title>l2a_wfov_a_kgain&#45;&gt;trans_wfov_a_l2a_l2b</title>
<path fill="none" stroke="black" d="M1278.8,-282.4C1278.8,-287.28 1278.8,-291.24 1278.8,-291.24 1278.8,-291.24 1518.26,-291.24 1518.26,-291.24"/>
<polygon fill="black" stroke="black" points="1518.26,-294.74 1528.26,-291.24 1518.26,-287.74 1518.26,-294.74"/>
</g>
<!-- l2a_wfov_a_man_demux&#45;&gt;trans_wfov_a_l2a_l2b -->
<g id="edge23" class="edge">
<title>l2a_wfov_a_man_demux&#45;&gt;trans_wfov_a_l2a_l2b</title>
<path fill="none" stroke="black" d="M1399.8,-158.69C1399.8,-189.75 1399.8,-286.74 1399.8,-286.74 1399.8,-286.74 1527.13,-286.74 1527.13,-286.74"/>
<polygon fill="black" stroke="black" points="1527.13,-290.24 1537.13,-286.74 1527.13,-283.24 1527.13,-290.24"/>
</g>
<!-- l2b_wfov_a_prod&#45;&gt;trans_wfov_a_l2b_l3 -->
<g id="edge26" class="edge">
<title>l2b_wfov_a_prod&#45;&gt;trans_wfov_a_l2b_l3</title>
<path fill="none" stroke="black" d="M2265.91,-499.74C2265.91,-499.74 2665.79,-499.74 2665.79,-499.74"/>
<polygon fill="black" stroke="black" points="2665.79,-503.24 2675.79,-499.74 2665.79,-496.24 2665.79,-503.24"/>
</g>
<!-- l2b_wfov_a_man&#45;&gt;trans_wfov_a_l2b_l3 -->
<g id="edge27" class="edge">
<title>l2b_wfov_a_man&#45;&gt;trans_wfov_a_l2b_l3</title>
<path fill="none" stroke="black" d="M2578.8,-422.52C2578.8,-434 2578.8,-464.62 2578.8,-464.62 2578.8,-464.62 2724.76,-464.62 2724.76,-464.62"/>
<polygon fill="black" stroke="black" points="2724.76,-468.12 2734.76,-464.62 2724.76,-461.12 2724.76,-468.12"/>
</g>
<!-- l2b_wfov_a_odir -->
<g id="node27" class="node">
<title>l2b_wfov_a_odir</title>
<ellipse fill="none" stroke="black" cx="2454.38" cy="-746.24" rx="142.17" ry="18"/>
<text text-anchor="middle" x="2454.38" y="-742.54" font-family="Times,serif" font-size="14.00">L2b_wfov_a output path 1..1</text>
</g>
<!-- l2b_wfov_a_odir&#45;&gt;trans_wfov_a_l2b_l3 -->
<g id="edge28" class="edge">
<title>l2b_wfov_a_odir&#45;&gt;trans_wfov_a_l2b_l3</title>
<path fill="none" stroke="black" d="M2570.8,-735.74C2570.8,-721.21 2570.8,-696.73 2570.8,-696.73 2570.8,-696.73 2704.92,-696.73 2704.92,-696.73"/>
<polygon fill="black" stroke="black" points="2704.92,-700.23 2714.92,-696.73 2704.92,-693.23 2704.92,-700.23"/>
</g>
<!-- l2b_wfov_a_rec -->
<g id="node28" class="node">
<title>l2b_wfov_a_rec</title>
<polygon fill="none" stroke="black" points="2531.88,-704.24 2364.88,-704.24 2364.88,-680.24 2531.88,-680.24 2543.88,-692.24 2531.88,-704.24"/>
<text text-anchor="middle" x="2454.38" y="-688.54" font-family="Times,serif" font-size="14.00">L2b_wfov_a recipe 1..1</text>
</g>
<!-- l2b_wfov_a_rec&#45;&gt;trans_wfov_a_l2b_l3 -->
<g id="edge29" class="edge">
<title>l2b_wfov_a_rec&#45;&gt;trans_wfov_a_l2b_l3</title>
<path fill="none" stroke="black" d="M2544.27,-685.49C2544.27,-685.49 2685.4,-685.49 2685.4,-685.49"/>
<polygon fill="black" stroke="black" points="2685.4,-688.99 2695.4,-685.49 2685.4,-681.99 2685.4,-688.99"/>
</g>
<!-- l2b_wfov_a_excicrf -->
<g id="node29" class="node">
<title>l2b_wfov_a_excicrf</title>
<polygon fill="none" stroke="black" points="2587.88,-650.24 2308.88,-650.24 2308.88,-626.24 2587.88,-626.24 2599.88,-638.24 2587.88,-650.24"/>
<text text-anchor="middle" x="2454.38" y="-634.54" font-family="Times,serif" font-size="14.00">L2b_wfov_a EXCAM ICRF location 1..1</text>
</g>
<!-- l2b_wfov_a_excicrf&#45;&gt;trans_wfov_a_l2b_l3 -->
<g id="edge30" class="edge">
<title>l2b_wfov_a_excicrf&#45;&gt;trans_wfov_a_l2b_l3</title>
<path fill="none" stroke="black" d="M2599.99,-638.24C2599.99,-638.24 2644.87,-638.24 2644.87,-638.24"/>
<polygon fill="black" stroke="black" points="2644.87,-641.74 2654.87,-638.24 2644.87,-634.74 2644.87,-641.74"/>
</g>
<!-- l2b_wfov_a_excfovps -->
<g id="node30" class="node">
<title>l2b_wfov_a_excfovps</title>
<polygon fill="none" stroke="black" points="2594.88,-596.24 2301.88,-596.24 2301.88,-572.24 2594.88,-572.24 2606.88,-584.24 2594.88,-596.24"/>
<text text-anchor="middle" x="2454.38" y="-580.54" font-family="Times,serif" font-size="14.00">L2b_wfov_a EXCAM FOV pixel scale 1..1</text>
</g>
<!-- l2b_wfov_a_excfovps&#45;&gt;trans_wfov_a_l2b_l3 -->
<g id="edge31" class="edge">
<title>l2b_wfov_a_excfovps&#45;&gt;trans_wfov_a_l2b_l3</title>
<path fill="none" stroke="black" d="M2607.3,-584.24C2607.3,-584.24 2632.79,-584.24 2632.79,-584.24"/>
<polygon fill="black" stroke="black" points="2632.79,-587.74 2642.79,-584.24 2632.79,-580.74 2632.79,-587.74"/>
</g>
<!-- l2b_wfov_a_distm -->
<g id="node31" class="node">
<title>l2b_wfov_a_distm</title>
<polygon fill="none" stroke="black" points="2562.38,-542.24 2334.38,-542.24 2334.38,-518.24 2562.38,-518.24 2574.38,-530.24 2562.38,-542.24"/>
<text text-anchor="middle" x="2454.38" y="-526.54" font-family="Times,serif" font-size="14.00">L2b_wfov_a distortion map 1..1</text>
</g>
<!-- l2b_wfov_a_distm&#45;&gt;trans_wfov_a_l2b_l3 -->
<g id="edge32" class="edge">
<title>l2b_wfov_a_distm&#45;&gt;trans_wfov_a_l2b_l3</title>
<path fill="none" stroke="black" d="M2574.65,-530.24C2574.65,-530.24 2645.11,-530.24 2645.11,-530.24"/>
<polygon fill="black" stroke="black" points="2645.11,-533.74 2655.11,-530.24 2645.11,-526.74 2645.11,-533.74"/>
</g>
<!-- l2b_wfov_a_man_demux&#45;&gt;l2b_wfov_a_mux -->
<g id="edge24" class="edge">
<title>l2b_wfov_a_man_demux&#45;&gt;l2b_wfov_a_mux</title>
<path fill="none" stroke="black" d="M2032.18,-399.24C2032.18,-399.24 2068.54,-399.24 2068.54,-399.24"/>
<polygon fill="black" stroke="black" points="2068.54,-402.74 2078.54,-399.24 2068.54,-395.74 2068.54,-402.74"/>
</g>
<!-- l3_wfov_a_prod&#45;&gt;trans_wfov_a_l3_l4 -->
<g id="edge36" class="edge">
<title>l3_wfov_a_prod&#45;&gt;trans_wfov_a_l3_l4</title>
<path fill="none" stroke="black" d="M3157.4,-638.24C3157.4,-638.24 3237.6,-638.24 3237.6,-638.24"/>
<polygon fill="black" stroke="black" points="3237.6,-641.74 3247.6,-638.24 3237.6,-634.74 3237.6,-641.74"/>
</g>
<!-- l3_wfov_a_odir -->
<g id="node35" class="node">
<title>l3_wfov_a_odir</title>
<ellipse fill="none" stroke="black" cx="3062.85" cy="-800.24" rx="136.48" ry="18"/>
<text text-anchor="middle" x="3062.85" y="-796.54" font-family="Times,serif" font-size="14.00">L3_wfov_a output path 1..1</text>
</g>
<!-- l3_wfov_a_odir&#45;&gt;trans_wfov_a_l3_l4 -->
<g id="edge38" class="edge">
<title>l3_wfov_a_odir&#45;&gt;trans_wfov_a_l3_l4</title>
<path fill="none" stroke="black" d="M3199.26,-799.11C3199.26,-799.11 3286.56,-799.11 3286.56,-799.11"/>
<polygon fill="black" stroke="black" points="3286.56,-802.61 3296.56,-799.11 3286.56,-795.61 3286.56,-802.61"/>
</g>
<!-- l3_wfov_a_man&#45;&gt;trans_wfov_a_l3_l4 -->
<g id="edge37" class="edge">
<title>l3_wfov_a_man&#45;&gt;trans_wfov_a_l3_l4</title>
<path fill="none" stroke="black" d="M3185.05,-585.37C3185.05,-585.37 3286.31,-585.37 3286.31,-585.37"/>
<polygon fill="black" stroke="black" points="3286.31,-588.87 3296.31,-585.37 3286.31,-581.87 3286.31,-588.87"/>
</g>
<!-- l3_wfov_a_rec -->
<g id="node37" class="node">
<title>l3_wfov_a_rec</title>
<polygon fill="none" stroke="black" points="3135.85,-758.24 2977.85,-758.24 2977.85,-734.24 3135.85,-734.24 3147.85,-746.24 3135.85,-758.24"/>
<text text-anchor="middle" x="3062.85" y="-742.54" font-family="Times,serif" font-size="14.00">L3_wfov_a recipe 1..1</text>
</g>
<!-- l3_wfov_a_rec&#45;&gt;trans_wfov_a_l3_l4 -->
<g id="edge39" class="edge">
<title>l3_wfov_a_rec&#45;&gt;trans_wfov_a_l3_l4</title>
<path fill="none" stroke="black" d="M3148.14,-746.24C3148.14,-746.24 3237.65,-746.24 3237.65,-746.24"/>
<polygon fill="black" stroke="black" points="3237.65,-749.74 3247.65,-746.24 3237.65,-742.74 3237.65,-749.74"/>
</g>
<!-- l3_wfov_a_cal -->
<g id="node38" class="node">
<title>l3_wfov_a_cal</title>
<polygon fill="none" stroke="black" points="3152.35,-704.24 2961.35,-704.24 2961.35,-680.24 3152.35,-680.24 3164.35,-692.24 3152.35,-704.24"/>
<text text-anchor="middle" x="3062.85" y="-688.54" font-family="Times,serif" font-size="14.00">L3_wfov_a calibration 1..1</text>
</g>
<!-- l3_wfov_a_cal&#45;&gt;trans_wfov_a_l3_l4 -->
<g id="edge40" class="edge">
<title>l3_wfov_a_cal&#45;&gt;trans_wfov_a_l3_l4</title>
<path fill="none" stroke="black" d="M3164.38,-692.24C3164.38,-692.24 3225.15,-692.24 3225.15,-692.24"/>
<polygon fill="black" stroke="black" points="3225.15,-695.74 3235.15,-692.24 3225.15,-688.74 3225.15,-695.74"/>
</g>
<!-- l4_wfov_a_prod&#45;&gt;trans_wfov_a_l4_tda -->
<g id="edge44" class="edge">
<title>l4_wfov_a_prod&#45;&gt;trans_wfov_a_l4_tda</title>
<path fill="none" stroke="black" d="M3778.84,-752.99C3778.84,-752.99 3928.38,-752.99 3928.38,-752.99"/>
<polygon fill="black" stroke="black" points="3928.38,-756.49 3938.38,-752.99 3928.38,-749.49 3928.38,-756.49"/>
</g>
<!-- l4_wfov_a_odir -->
<g id="node41" class="node">
<title>l4_wfov_a_odir</title>
<ellipse fill="none" stroke="black" cx="3684.33" cy="-1016.24" rx="136.48" ry="18"/>
<text text-anchor="middle" x="3684.33" y="-1012.54" font-family="Times,serif" font-size="14.00">L4_wfov_a output path 1..1</text>
</g>
<!-- l4_wfov_a_odir&#45;&gt;trans_wfov_a_l4_tda -->
<g id="edge46" class="edge">
<title>l4_wfov_a_odir&#45;&gt;trans_wfov_a_l4_tda</title>
<path fill="none" stroke="black" d="M3795.8,-1005.74C3795.8,-991.21 3795.8,-966.73 3795.8,-966.73 3795.8,-966.73 3947.82,-966.73 3947.82,-966.73"/>
<polygon fill="black" stroke="black" points="3947.82,-970.23 3957.82,-966.73 3947.82,-963.23 3947.82,-970.23"/>
</g>
<!-- l4_wfov_a_man&#45;&gt;trans_wfov_a_l4_tda -->
<g id="edge45" class="edge">
<title>l4_wfov_a_man&#45;&gt;trans_wfov_a_l4_tda</title>
<path fill="none" stroke="black" d="M3793.8,-646.36C3793.8,-670.76 3793.8,-741.74 3793.8,-741.74 3793.8,-741.74 3947.89,-741.74 3947.89,-741.74"/>
<polygon fill="black" stroke="black" points="3947.89,-745.24 3957.89,-741.74 3947.89,-738.24 3947.89,-745.24"/>
</g>
<!-- l4_wfov_a_rec -->
<g id="node44" class="node">
<title>l4_wfov_a_rec</title>
<polygon fill="none" stroke="black" points="3757.33,-974.24 3599.33,-974.24 3599.33,-950.24 3757.33,-950.24 3769.33,-962.24 3757.33,-974.24"/>
<text text-anchor="middle" x="3684.33" y="-958.54" font-family="Times,serif" font-size="14.00">L4_wfov_a recipe 1..1</text>
</g>
<!-- l4_wfov_a_rec&#45;&gt;trans_wfov_a_l4_tda -->
<g id="edge47" class="edge">
<title>l4_wfov_a_rec&#45;&gt;trans_wfov_a_l4_tda</title>
<path fill="none" stroke="black" d="M3769.36,-955.49C3769.36,-955.49 3928.23,-955.49 3928.23,-955.49"/>
<polygon fill="black" stroke="black" points="3928.23,-958.99 3938.23,-955.49 3928.23,-951.99 3928.23,-958.99"/>
</g>
<!-- l4_wfov_a_afcal -->
<g id="node45" class="node">
<title>l4_wfov_a_afcal</title>
<polygon fill="none" stroke="black" points="3825.33,-920.24 3531.33,-920.24 3531.33,-896.24 3825.33,-896.24 3837.33,-908.24 3825.33,-920.24"/>
<text text-anchor="middle" x="3684.33" y="-904.54" font-family="Times,serif" font-size="14.00">L4_wfov_a absolute flux calibrations 1..1</text>
</g>
<!-- l4_wfov_a_afcal&#45;&gt;trans_wfov_a_l4_tda -->
<g id="edge48" class="edge">
<title>l4_wfov_a_afcal&#45;&gt;trans_wfov_a_l4_tda</title>
<path fill="none" stroke="black" d="M3837.43,-908.24C3837.43,-908.24 3888.03,-908.24 3888.03,-908.24"/>
<polygon fill="black" stroke="black" points="3888.03,-911.74 3898.03,-908.24 3888.03,-904.74 3888.03,-911.74"/>
</g>
<!-- l4_wfov_a_ctcal -->
<g id="node46" class="node">
<title>l4_wfov_a_ctcal</title>
<polygon fill="none" stroke="black" points="3837.83,-866.24 3518.83,-866.24 3518.83,-842.24 3837.83,-842.24 3849.83,-854.24 3837.83,-866.24"/>
<text text-anchor="middle" x="3684.33" y="-850.54" font-family="Times,serif" font-size="14.00">L4_wfov_a core throughput calibrations 1..1</text>
</g>
<!-- l4_wfov_a_ctcal&#45;&gt;trans_wfov_a_l4_tda -->
<g id="edge49" class="edge">
<title>l4_wfov_a_ctcal&#45;&gt;trans_wfov_a_l4_tda</title>
<path fill="none" stroke="black" d="M3850.29,-854.24C3850.29,-854.24 3875.67,-854.24 3875.67,-854.24"/>
<polygon fill="black" stroke="black" points="3875.67,-857.74 3885.67,-854.24 3875.67,-850.74 3875.67,-857.74"/>
</g>
<!-- l4_wfov_a_ndfilt -->
<g id="node47" class="node">
<title>l4_wfov_a_ndfilt</title>
<polygon fill="none" stroke="black" points="3766.33,-812.24 3590.33,-812.24 3590.33,-788.24 3766.33,-788.24 3778.33,-800.24 3766.33,-812.24"/>
<text text-anchor="middle" x="3684.33" y="-796.54" font-family="Times,serif" font-size="14.00">L4_wfov_a ND filter 1..1</text>
</g>
<!-- l4_wfov_a_ndfilt&#45;&gt;trans_wfov_a_l4_tda -->
<g id="edge50" class="edge">
<title>l4_wfov_a_ndfilt&#45;&gt;trans_wfov_a_l4_tda</title>
<path fill="none" stroke="black" d="M3778.4,-800.24C3778.4,-800.24 3888.17,-800.24 3888.17,-800.24"/>
<polygon fill="black" stroke="black" points="3888.17,-803.74 3898.17,-800.24 3888.17,-796.74 3888.17,-803.74"/>
</g>
</g>
</svg>
