<?xml version="1.0" encoding="UTF-8" standalone="no"?>
<!DOCTYPE svg PUBLIC "-//W3C//DTD SVG 1.1//EN"
 "http://www.w3.org/Graphics/SVG/1.1/DTD/svg11.dtd">
<!-- Generated by graphviz version 2.43.0 (0)
 -->
<!-- Title: AbstractDesign Pages: 1 -->
<svg width="3754pt" height="1005pt"
 viewBox="0.00 0.00 3754.20 1005.00" xmlns="http://www.w3.org/2000/svg" xmlns:xlink="http://www.w3.org/1999/xlink">
<g id="graph0" class="graph" transform="scale(1 1) rotate(0) translate(4 1001)">
<title>AbstractDesign</title>
<polygon fill="white" stroke="transparent" points="-4,4 -4,-1001 3750.2,-1001 3750.2,4 -4,4"/>
<!-- trans_wfov_pc_l1_l2a -->
<g id="node1" class="node">
<title>trans_wfov_pc_l1_l2a</title>
<ellipse fill="none" stroke="black" cx="368.02" cy="-126" rx="103.48" ry="103.48"/>
<text text-anchor="middle" x="368.02" y="-129.8" font-family="Times,serif" font-size="14.00">wfov_pc Transmutation</text>
<text text-anchor="middle" x="368.02" y="-114.8" font-family="Times,serif" font-size="14.00">L1 to L2a</text>
</g>
<!-- l2a_wfov_pc_prod -->
<g id="node13" class="node">
<title>l2a_wfov_pc_prod</title>
<polygon fill="none" stroke="black" points="934.35,-251 767.35,-251 767.35,-215 934.35,-215 934.35,-251"/>
<text text-anchor="middle" x="850.85" y="-229.3" font-family="Times,serif" font-size="14.00">L2a_wfov_pc products 1..b</text>
</g>
<!-- trans_wfov_pc_l1_l2a&#45;&gt;l2a_wfov_pc_prod -->
<g id="edge6" class="edge">
<title>trans_wfov_pc_l1_l2a&#45;&gt;l2a_wfov_pc_prod</title>
<path fill="none" stroke="black" d="M405.9,-222.12C405.9,-222.12 756.95,-222.12 756.95,-222.12"/>
<polygon fill="black" stroke="black" points="756.95,-225.62 766.95,-222.12 756.95,-218.62 756.95,-225.62"/>
</g>
<!-- l2a_wfov_pc_man -->
<g id="node14" class="node">
<title>l2a_wfov_pc_man</title>
<ellipse fill="none" stroke="black" cx="615.8" cy="-126" rx="108.58" ry="18"/>
<text text-anchor="middle" x="615.8" y="-122.3" font-family="Times,serif" font-size="14.00">L2a_wfov_pc manifest 1..1</text>
</g>
<!-- trans_wfov_pc_l1_l2a&#45;&gt;l2a_wfov_pc_man -->
<g id="edge7" class="edge">
<title>trans_wfov_pc_l1_l2a&#45;&gt;l2a_wfov_pc_man</title>
<path fill="none" stroke="black" d="M471.3,-126C471.3,-126 497.08,-126 497.08,-126"/>
<polygon fill="black" stroke="black" points="497.08,-129.5 507.08,-126 497.08,-122.5 497.08,-129.5"/>
</g>
<!-- l2a_wfov_pc_log -->
<g id="node22" class="node">
<title>l2a_wfov_pc_log</title>
<ellipse fill="none" stroke="black" cx="615.8" cy="-72" rx="89.08" ry="18"/>
<text text-anchor="middle" x="615.8" y="-68.3" font-family="Times,serif" font-size="14.00">L2a log_wfov_pc 1..1</text>
</g>
<!-- trans_wfov_pc_l1_l2a&#45;&gt;l2a_wfov_pc_log -->
<g id="edge8" class="edge">
<title>trans_wfov_pc_l1_l2a&#45;&gt;l2a_wfov_pc_log</title>
<path fill="none" stroke="black" d="M456.07,-72C456.07,-72 516.35,-72 516.35,-72"/>
<polygon fill="black" stroke="black" points="516.35,-75.5 526.35,-72 516.35,-68.5 516.35,-75.5"/>
</g>
<!-- l2a_wfov_pc_demux -->
<g id="node2" class="node">
<title>l2a_wfov_pc_demux</title>
<ellipse fill="none" stroke="black" cx="850.85" cy="-106" rx="90.52" ry="90.52"/>
<text text-anchor="middle" x="850.85" y="-109.8" font-family="Times,serif" font-size="14.00">wfov_pc l2a Demux</text>
<text text-anchor="middle" x="850.85" y="-94.8" font-family="Times,serif" font-size="14.00">Exposure</text>
</g>
<!-- l2a_wfov_pc_man_demux -->
<g id="node23" class="node">
<title>l2a_wfov_pc_man_demux</title>
<ellipse fill="none" stroke="black" cx="1108.85" cy="-146" rx="120.48" ry="18"/>
<text text-anchor="middle" x="1108.85" y="-142.3" font-family="Times,serif" font-size="14.00">L2a_wfov_pc(E) manifest 1..1</text>
</g>
<!-- l2a_wfov_pc_demux&#45;&gt;l2a_wfov_pc_man_demux -->
<g id="edge21" class="edge">
<title>l2a_wfov_pc_demux&#45;&gt;l2a_wfov_pc_man_demux</title>
<path fill="none" stroke="black" d="M932.13,-146C932.13,-146 978.34,-146 978.34,-146"/>
<polygon fill="black" stroke="black" points="978.34,-149.5 988.34,-146 978.34,-142.5 978.34,-149.5"/>
</g>
<!-- trans_wfov_pc_l2a_l2b -->
<g id="node3" class="node">
<title>trans_wfov_pc_l2a_l2b</title>
<ellipse fill="none" stroke="black" cx="1379.59" cy="-366" rx="103.48" ry="103.48"/>
<text text-anchor="middle" x="1379.59" y="-369.8" font-family="Times,serif" font-size="14.00">wfov_pc Transmutation</text>
<text text-anchor="middle" x="1379.59" y="-354.8" font-family="Times,serif" font-size="14.00">L2a to L2b</text>
</g>
<!-- l2b_wfov_pc_prod -->
<g id="node24" class="node">
<title>l2b_wfov_pc_prod</title>
<polygon fill="none" stroke="black" points="1962.31,-483 1795.31,-483 1795.31,-447 1962.31,-447 1962.31,-483"/>
<text text-anchor="middle" x="1878.81" y="-461.3" font-family="Times,serif" font-size="14.00">L2b_wfov_pc products 1..1</text>
</g>
<!-- trans_wfov_pc_l2a_l2b&#45;&gt;l2b_wfov_pc_prod -->
<g id="edge17" class="edge">
<title>trans_wfov_pc_l2a_l2b&#45;&gt;l2b_wfov_pc_prod</title>
<path fill="none" stroke="black" d="M1426.56,-458.12C1426.56,-458.12 1784.87,-458.12 1784.87,-458.12"/>
<polygon fill="black" stroke="black" points="1784.87,-461.62 1794.87,-458.12 1784.87,-454.62 1784.87,-461.62"/>
</g>
<!-- l2b_wfov_pc_man_demux -->
<g id="node31" class="node">
<title>l2b_wfov_pc_man_demux</title>
<ellipse fill="none" stroke="black" cx="1639.07" cy="-366" rx="120.48" ry="18"/>
<text text-anchor="middle" x="1639.07" y="-362.3" font-family="Times,serif" font-size="14.00">L2b_wfov_pc(E) manifest 1..1</text>
</g>
<!-- trans_wfov_pc_l2a_l2b&#45;&gt;l2b_wfov_pc_man_demux -->
<g id="edge18" class="edge">
<title>trans_wfov_pc_l2a_l2b&#45;&gt;l2b_wfov_pc_man_demux</title>
<path fill="none" stroke="black" d="M1482.89,-366C1482.89,-366 1508.58,-366 1508.58,-366"/>
<polygon fill="black" stroke="black" points="1508.58,-369.5 1518.58,-366 1508.58,-362.5 1508.58,-369.5"/>
</g>
<!-- l2b_wfov_pc_log -->
<g id="node32" class="node">
<title>l2b_wfov_pc_log</title>
<ellipse fill="none" stroke="black" cx="1639.07" cy="-312" rx="89.88" ry="18"/>
<text text-anchor="middle" x="1639.07" y="-308.3" font-family="Times,serif" font-size="14.00">L2b_wfov_pc log 1..1</text>
</g>
<!-- trans_wfov_pc_l2a_l2b&#45;&gt;l2b_wfov_pc_log -->
<g id="edge19" class="edge">
<title>trans_wfov_pc_l2a_l2b&#45;&gt;l2b_wfov_pc_log</title>
<path fill="none" stroke="black" d="M1467.8,-312C1467.8,-312 1539.34,-312 1539.34,-312"/>
<polygon fill="black" stroke="black" points="1539.34,-315.5 1549.34,-312 1539.34,-308.5 1539.34,-315.5"/>
</g>
<!-- l2b_wfov_pc_mux -->
<g id="node4" class="node">
<title>l2b_wfov_pc_mux</title>
<ellipse fill="none" stroke="black" cx="1878.81" cy="-348" rx="81.13" ry="81.13"/>
<text text-anchor="middle" x="1878.81" y="-351.8" font-family="Times,serif" font-size="14.00">wfov_pc l2b Mux</text>
<text text-anchor="middle" x="1878.81" y="-336.8" font-family="Times,serif" font-size="14.00">Exposure</text>
</g>
<!-- l2b_wfov_pc_man -->
<g id="node25" class="node">
<title>l2b_wfov_pc_man</title>
<ellipse fill="none" stroke="black" cx="2129.31" cy="-383" rx="109.38" ry="18"/>
<text text-anchor="middle" x="2129.31" y="-379.3" font-family="Times,serif" font-size="14.00">L2b_wfov_pc manifest 1..1</text>
</g>
<!-- l2b_wfov_pc_mux&#45;&gt;l2b_wfov_pc_man -->
<g id="edge24" class="edge">
<title>l2b_wfov_pc_mux&#45;&gt;l2b_wfov_pc_man</title>
<path fill="none" stroke="black" d="M1952.27,-383C1952.27,-383 2010.03,-383 2010.03,-383"/>
<polygon fill="black" stroke="black" points="2010.03,-386.5 2020.03,-383 2010.03,-379.5 2010.03,-386.5"/>
</g>
<!-- trans_wfov_pc_l2b_l3 -->
<g id="node5" class="node">
<title>trans_wfov_pc_l2b_l3</title>
<ellipse fill="none" stroke="black" cx="2399.55" cy="-547" rx="103.48" ry="103.48"/>
<text text-anchor="middle" x="2399.55" y="-550.8" font-family="Times,serif" font-size="14.00">wfov_pc Transmutation</text>
<text text-anchor="middle" x="2399.55" y="-535.8" font-family="Times,serif" font-size="14.00">L2b to L3</text>
</g>
<!-- l3_wfov_pc_prod -->
<g id="node33" class="node">
<title>l3_wfov_pc_prod</title>
<polygon fill="none" stroke="black" points="2733.67,-619 2572.67,-619 2572.67,-583 2733.67,-583 2733.67,-619"/>
<text text-anchor="middle" x="2653.17" y="-597.3" font-family="Times,serif" font-size="14.00">L3_wfov_pc products 1..1</text>
</g>
<!-- trans_wfov_pc_l2b_l3&#45;&gt;l3_wfov_pc_prod -->
<g id="edge32" class="edge">
<title>trans_wfov_pc_l2b_l3&#45;&gt;l3_wfov_pc_prod</title>
<path fill="none" stroke="black" d="M2487.54,-601C2487.54,-601 2562.56,-601 2562.56,-601"/>
<polygon fill="black" stroke="black" points="2562.56,-604.5 2572.56,-601 2562.56,-597.5 2562.56,-604.5"/>
</g>
<!-- l3_wfov_pc_man -->
<g id="node35" class="node">
<title>l3_wfov_pc_man</title>
<ellipse fill="none" stroke="black" cx="2653.17" cy="-547" rx="104.78" ry="18"/>
<text text-anchor="middle" x="2653.17" y="-543.3" font-family="Times,serif" font-size="14.00">L3_wfov_pc manifest 1..1</text>
</g>
<!-- trans_wfov_pc_l2b_l3&#45;&gt;l3_wfov_pc_man -->
<g id="edge33" class="edge">
<title>trans_wfov_pc_l2b_l3&#45;&gt;l3_wfov_pc_man</title>
<path fill="none" stroke="black" d="M2503.07,-547C2503.07,-547 2538.33,-547 2538.33,-547"/>
<polygon fill="black" stroke="black" points="2538.33,-550.5 2548.33,-547 2538.33,-543.5 2538.33,-550.5"/>
</g>
<!-- l3_wfov_pc_log -->
<g id="node38" class="node">
<title>l3_wfov_pc_log</title>
<ellipse fill="none" stroke="black" cx="2653.17" cy="-493" rx="85.29" ry="18"/>
<text text-anchor="middle" x="2653.17" y="-489.3" font-family="Times,serif" font-size="14.00">L3_wfov_pc log 1..1</text>
</g>
<!-- trans_wfov_pc_l2b_l3&#45;&gt;l3_wfov_pc_log -->
<g id="edge34" class="edge">
<title>trans_wfov_pc_l2b_l3&#45;&gt;l3_wfov_pc_log</title>
<path fill="none" stroke="black" d="M2487.54,-493C2487.54,-493 2557.9,-493 2557.9,-493"/>
<polygon fill="black" stroke="black" points="2557.9,-496.5 2567.9,-493 2557.9,-489.5 2557.9,-496.5"/>
</g>
<!-- trans_wfov_pc_l3_l4 -->
<g id="node6" class="node">
<title>trans_wfov_pc_l3_l4</title>
<ellipse fill="none" stroke="black" cx="2906.8" cy="-655" rx="103.48" ry="103.48"/>
<text text-anchor="middle" x="2906.8" y="-658.8" font-family="Times,serif" font-size="14.00">wfov_pc Transmutation</text>
<text text-anchor="middle" x="2906.8" y="-643.8" font-family="Times,serif" font-size="14.00">L3 to L4</text>
</g>
<!-- l4_wfov_pc_prod -->
<g id="node39" class="node">
<title>l4_wfov_pc_prod</title>
<polygon fill="none" stroke="black" points="3260.04,-727 3099.04,-727 3099.04,-691 3260.04,-691 3260.04,-727"/>
<text text-anchor="middle" x="3179.54" y="-705.3" font-family="Times,serif" font-size="14.00">L4_wfov_pc products 1..1</text>
</g>
<!-- trans_wfov_pc_l3_l4&#45;&gt;l4_wfov_pc_prod -->
<g id="edge40" class="edge">
<title>trans_wfov_pc_l3_l4&#45;&gt;l4_wfov_pc_prod</title>
<path fill="none" stroke="black" d="M2994.97,-709C2994.97,-709 3088.6,-709 3088.6,-709"/>
<polygon fill="black" stroke="black" points="3088.6,-712.5 3098.6,-709 3088.6,-705.5 3088.6,-712.5"/>
</g>
<!-- l4_wfov_pc_log -->
<g id="node41" class="node">
<title>l4_wfov_pc_log</title>
<ellipse fill="none" stroke="black" cx="3179.54" cy="-655" rx="85.29" ry="18"/>
<text text-anchor="middle" x="3179.54" y="-651.3" font-family="Times,serif" font-size="14.00">L4_wfov_pc log 1..1</text>
</g>
<!-- trans_wfov_pc_l3_l4&#45;&gt;l4_wfov_pc_log -->
<g id="edge41" class="edge">
<title>trans_wfov_pc_l3_l4&#45;&gt;l4_wfov_pc_log</title>
<path fill="none" stroke="black" d="M3010.3,-655C3010.3,-655 3084.3,-655 3084.3,-655"/>
<polygon fill="black" stroke="black" points="3084.3,-658.5 3094.3,-655 3084.3,-651.5 3084.3,-658.5"/>
</g>
<!-- l4_wfov_pc_man -->
<g id="node42" class="node">
<title>l4_wfov_pc_man</title>
<ellipse fill="none" stroke="black" cx="3179.54" cy="-601" rx="104.78" ry="18"/>
<text text-anchor="middle" x="3179.54" y="-597.3" font-family="Times,serif" font-size="14.00">L4_wfov_pc manifest 1..1</text>
</g>
<!-- trans_wfov_pc_l3_l4&#45;&gt;l4_wfov_pc_man -->
<g id="edge42" class="edge">
<title>trans_wfov_pc_l3_l4&#45;&gt;l4_wfov_pc_man</title>
<path fill="none" stroke="black" d="M2994.97,-601C2994.97,-601 3064.54,-601 3064.54,-601"/>
<polygon fill="black" stroke="black" points="3064.54,-604.5 3074.54,-601 3064.54,-597.5 3064.54,-604.5"/>
</g>
<!-- trans_wfov_pc_l4_tda -->
<g id="node7" class="node">
<title>trans_wfov_pc_l4_tda</title>
<ellipse fill="none" stroke="black" cx="3452.28" cy="-817" rx="103.48" ry="103.48"/>
<text text-anchor="middle" x="3452.28" y="-820.8" font-family="Times,serif" font-size="14.00">wfov_pc Transmutation</text>
<text text-anchor="middle" x="3452.28" y="-805.8" font-family="Times,serif" font-size="14.00">L4 to TDA</text>
</g>
<!-- tda_wfov_pc_prod -->
<g id="node47" class="node">
<title>tda_wfov_pc_prod</title>
<ellipse fill="none" stroke="black" cx="3668.86" cy="-844" rx="77.19" ry="18"/>
<text text-anchor="middle" x="3668.86" y="-840.3" font-family="Times,serif" font-size="14.00">tda_wfov_pc_prod</text>
</g>
<!-- trans_wfov_pc_l4_tda&#45;&gt;tda_wfov_pc_prod -->
<g id="edge50" class="edge">
<title>trans_wfov_pc_l4_tda&#45;&gt;tda_wfov_pc_prod</title>
<path fill="none" stroke="black" d="M3552.01,-844C3552.01,-844 3581.36,-844 3581.36,-844"/>
<polygon fill="black" stroke="black" points="3581.36,-847.5 3591.36,-844 3581.36,-840.5 3581.36,-847.5"/>
</g>
<!-- tda_wfov_pc_log -->
<g id="node48" class="node">
<title>tda_wfov_pc_log</title>
<ellipse fill="none" stroke="black" cx="3668.86" cy="-790" rx="72.29" ry="18"/>
<text text-anchor="middle" x="3668.86" y="-786.3" font-family="Times,serif" font-size="14.00">tda_wfov_pc_log</text>
</g>
<!-- trans_wfov_pc_l4_tda&#45;&gt;tda_wfov_pc_log -->
<g id="edge51" class="edge">
<title>trans_wfov_pc_l4_tda&#45;&gt;tda_wfov_pc_log</title>
<path fill="none" stroke="black" d="M3552.01,-790C3552.01,-790 3586.47,-790 3586.47,-790"/>
<polygon fill="black" stroke="black" points="3586.47,-793.5 3596.47,-790 3586.47,-786.5 3586.47,-793.5"/>
</g>
<!-- l1_wfov_pc_prod -->
<g id="node8" class="node">
<title>l1_wfov_pc_prod</title>
<polygon fill="none" stroke="black" points="194.89,-252 33.89,-252 33.89,-216 194.89,-216 194.89,-252"/>
<text text-anchor="middle" x="114.39" y="-230.3" font-family="Times,serif" font-size="14.00">L1_wfov_pc products 1..b</text>
</g>
<!-- l1_wfov_pc_prod&#45;&gt;trans_wfov_pc_l1_l2a -->
<g id="edge1" class="edge">
<title>l1_wfov_pc_prod&#45;&gt;trans_wfov_pc_l1_l2a</title>
<path fill="none" stroke="black" d="M194.99,-222.62C194.99,-222.62 321.51,-222.62 321.51,-222.62"/>
<polygon fill="black" stroke="black" points="321.51,-226.12 331.51,-222.62 321.51,-219.12 321.51,-226.12"/>
</g>
<!-- l1_wfov_pc_man -->
<g id="node9" class="node">
<title>l1_wfov_pc_man</title>
<ellipse fill="none" stroke="black" cx="114.39" cy="-180" rx="104.78" ry="18"/>
<text text-anchor="middle" x="114.39" y="-176.3" font-family="Times,serif" font-size="14.00">L1_wfov_pc manifest 1..1</text>
</g>
<!-- l1_wfov_pc_man&#45;&gt;trans_wfov_pc_l1_l2a -->
<g id="edge2" class="edge">
<title>l1_wfov_pc_man&#45;&gt;trans_wfov_pc_l1_l2a</title>
<path fill="none" stroke="black" d="M219.38,-180C219.38,-180 269.65,-180 269.65,-180"/>
<polygon fill="black" stroke="black" points="269.65,-183.5 279.65,-180 269.65,-176.5 269.65,-183.5"/>
</g>
<!-- l1_wfov_pc_odir -->
<g id="node10" class="node">
<title>l1_wfov_pc_odir</title>
<ellipse fill="none" stroke="black" cx="114.39" cy="-126" rx="114.28" ry="18"/>
<text text-anchor="middle" x="114.39" y="-122.3" font-family="Times,serif" font-size="14.00">L1_wfov_pc output path 1..1</text>
</g>
<!-- l1_wfov_pc_odir&#45;&gt;trans_wfov_pc_l1_l2a -->
<g id="edge3" class="edge">
<title>l1_wfov_pc_odir&#45;&gt;trans_wfov_pc_l1_l2a</title>
<path fill="none" stroke="black" d="M228.96,-126C228.96,-126 254.42,-126 254.42,-126"/>
<polygon fill="black" stroke="black" points="254.42,-129.5 264.42,-126 254.42,-122.5 254.42,-129.5"/>
</g>
<!-- l1_wfov_pc_rec -->
<g id="node11" class="node">
<title>l1_wfov_pc_rec</title>
<polygon fill="none" stroke="black" points="175.89,-84 40.89,-84 40.89,-60 175.89,-60 187.89,-72 175.89,-84"/>
<text text-anchor="middle" x="114.39" y="-68.3" font-family="Times,serif" font-size="14.00">L1_wfov_pc recipe 1..1</text>
</g>
<!-- l1_wfov_pc_rec&#45;&gt;trans_wfov_pc_l1_l2a -->
<g id="edge4" class="edge">
<title>l1_wfov_pc_rec&#45;&gt;trans_wfov_pc_l1_l2a</title>
<path fill="none" stroke="black" d="M188.09,-72C188.09,-72 269.76,-72 269.76,-72"/>
<polygon fill="black" stroke="black" points="269.76,-75.5 279.76,-72 269.76,-68.5 269.76,-75.5"/>
</g>
<!-- l1_wfov_pc_nln -->
<g id="node12" class="node">
<title>l1_wfov_pc_nln</title>
<polygon fill="none" stroke="black" points="212.89,-30 3.89,-30 3.89,-6 212.89,-6 224.89,-18 212.89,-30"/>
<text text-anchor="middle" x="114.39" y="-14.3" font-family="Times,serif" font-size="14.00">L1_wfov_pc non&#45;linear &amp; Kgain 1..1</text>
</g>
<!-- l1_wfov_pc_nln&#45;&gt;trans_wfov_pc_l1_l2a -->
<g id="edge5" class="edge">
<title>l1_wfov_pc_nln&#45;&gt;trans_wfov_pc_l1_l2a</title>
<path fill="none" stroke="black" d="M224.9,-29.38C224.9,-29.38 321.59,-29.38 321.59,-29.38"/>
<polygon fill="black" stroke="black" points="321.59,-32.88 331.59,-29.38 321.59,-25.88 321.59,-32.88"/>
</g>
<!-- l2a_wfov_pc_prod&#45;&gt;trans_wfov_pc_l2a_l2b -->
<g id="edge9" class="edge">
<title>l2a_wfov_pc_prod&#45;&gt;trans_wfov_pc_l2a_l2b</title>
<path fill="none" stroke="black" d="M851.2,-251.19C851.2,-266.18 851.2,-285 851.2,-285 851.2,-285 1305.33,-285 1305.33,-285"/>
<polygon fill="black" stroke="black" points="1305.33,-288.5 1315.33,-285 1305.33,-281.5 1305.33,-288.5"/>
</g>
<!-- l2a_wfov_pc_man&#45;&gt;l2a_wfov_pc_demux -->
<g id="edge20" class="edge">
<title>l2a_wfov_pc_man&#45;&gt;l2a_wfov_pc_demux</title>
<path fill="none" stroke="black" d="M724.38,-126C724.38,-126 752.45,-126 752.45,-126"/>
<polygon fill="black" stroke="black" points="752.45,-129.5 762.45,-126 752.45,-122.5 752.45,-129.5"/>
</g>
<!-- l2a_wfov_pc_odir -->
<g id="node15" class="node">
<title>l2a_wfov_pc_odir</title>
<ellipse fill="none" stroke="black" cx="1108.85" cy="-582" rx="118.08" ry="18"/>
<text text-anchor="middle" x="1108.85" y="-578.3" font-family="Times,serif" font-size="14.00">L2a_wfov_pc output path 1..1</text>
</g>
<!-- l2a_wfov_pc_odir&#45;&gt;trans_wfov_pc_l2a_l2b -->
<g id="edge10" class="edge">
<title>l2a_wfov_pc_odir&#45;&gt;trans_wfov_pc_l2a_l2b</title>
<path fill="none" stroke="black" d="M1215.22,-574C1303.34,-574 1414.2,-574 1414.2,-574 1414.2,-574 1414.2,-473.3 1414.2,-473.3"/>
<polygon fill="black" stroke="black" points="1417.7,-473.3 1414.2,-463.3 1410.7,-473.3 1417.7,-473.3"/>
</g>
<!-- l2a_wfov_pc_rec -->
<g id="node16" class="node">
<title>l2a_wfov_pc_rec</title>
<polygon fill="none" stroke="black" points="1173.35,-540 1032.35,-540 1032.35,-516 1173.35,-516 1185.35,-528 1173.35,-540"/>
<text text-anchor="middle" x="1108.85" y="-524.3" font-family="Times,serif" font-size="14.00">L2a_wfov_pc recipe 1..1</text>
</g>
<!-- l2a_wfov_pc_rec&#45;&gt;trans_wfov_pc_l2a_l2b -->
<g id="edge11" class="edge">
<title>l2a_wfov_pc_rec&#45;&gt;trans_wfov_pc_l2a_l2b</title>
<path fill="none" stroke="black" d="M1185.59,-520C1254.6,-520 1345.2,-520 1345.2,-520 1345.2,-520 1345.2,-473.53 1345.2,-473.53"/>
<polygon fill="black" stroke="black" points="1348.7,-473.53 1345.2,-463.53 1341.7,-473.53 1348.7,-473.53"/>
</g>
<!-- l2a_wfov_pc_cti -->
<g id="node17" class="node">
<title>l2a_wfov_pc_cti</title>
<polygon fill="none" stroke="black" points="1221.85,-486 983.85,-486 983.85,-462 1221.85,-462 1233.85,-474 1221.85,-486"/>
<text text-anchor="middle" x="1108.85" y="-470.3" font-family="Times,serif" font-size="14.00">L2a_wfov_pc charge xfer inefficiency 1..1</text>
</g>
<!-- l2a_wfov_pc_cti&#45;&gt;trans_wfov_pc_l2a_l2b -->
<g id="edge12" class="edge">
<title>l2a_wfov_pc_cti&#45;&gt;trans_wfov_pc_l2a_l2b</title>
<path fill="none" stroke="black" d="M1233.92,-462.62C1233.92,-462.62 1332.96,-462.62 1332.96,-462.62"/>
<polygon fill="black" stroke="black" points="1332.96,-466.12 1342.96,-462.62 1332.96,-459.12 1332.96,-466.12"/>
</g>
<!-- l2a_wfov_pc_dnb -->
<g id="node18" class="node">
<title>l2a_wfov_pc_dnb</title>
<polygon fill="none" stroke="black" points="1228.35,-432 977.35,-432 977.35,-408 1228.35,-408 1240.35,-420 1228.35,-432"/>
<text text-anchor="middle" x="1108.85" y="-416.3" font-family="Times,serif" font-size="14.00">L2a_wfov_pc detector noise background 1..1</text>
</g>
<!-- l2a_wfov_pc_dnb&#45;&gt;trans_wfov_pc_l2a_l2b -->
<g id="edge13" class="edge">
<title>l2a_wfov_pc_dnb&#45;&gt;trans_wfov_pc_l2a_l2b</title>
<path fill="none" stroke="black" d="M1240.65,-420C1240.65,-420 1281.41,-420 1281.41,-420"/>
<polygon fill="black" stroke="black" points="1281.41,-423.5 1291.41,-420 1281.41,-416.5 1281.41,-423.5"/>
</g>
<!-- l2a_wfov_pc_mbpm -->
<g id="node19" class="node">
<title>l2a_wfov_pc_mbpm</title>
<polygon fill="none" stroke="black" points="1216.35,-378 989.35,-378 989.35,-354 1216.35,-354 1228.35,-366 1216.35,-378"/>
<text text-anchor="middle" x="1108.85" y="-362.3" font-family="Times,serif" font-size="14.00">L2a_wfov_pc master bad pixel map 1..1</text>
</g>
<!-- l2a_wfov_pc_mbpm&#45;&gt;trans_wfov_pc_l2a_l2b -->
<g id="edge14" class="edge">
<title>l2a_wfov_pc_mbpm&#45;&gt;trans_wfov_pc_l2a_l2b</title>
<path fill="none" stroke="black" d="M1228.39,-366C1228.39,-366 1265.98,-366 1265.98,-366"/>
<polygon fill="black" stroke="black" points="1265.98,-369.5 1275.98,-366 1265.98,-362.5 1265.98,-369.5"/>
</g>
<!-- l2a_wfov_pc_ff -->
<g id="node20" class="node">
<title>l2a_wfov_pc_ff</title>
<polygon fill="none" stroke="black" points="1182.85,-324 1022.85,-324 1022.85,-300 1182.85,-300 1194.85,-312 1182.85,-324"/>
<text text-anchor="middle" x="1108.85" y="-308.3" font-family="Times,serif" font-size="14.00">L2a_wfov_pc flat fields 1..1</text>
</g>
<!-- l2a_wfov_pc_ff&#45;&gt;trans_wfov_pc_l2a_l2b -->
<g id="edge15" class="edge">
<title>l2a_wfov_pc_ff&#45;&gt;trans_wfov_pc_l2a_l2b</title>
<path fill="none" stroke="black" d="M1194.89,-312C1194.89,-312 1281.45,-312 1281.45,-312"/>
<polygon fill="black" stroke="black" points="1281.45,-315.5 1291.45,-312 1281.45,-308.5 1281.45,-315.5"/>
</g>
<!-- l2a_wfov_pc_emg -->
<g id="node21" class="node">
<title>l2a_wfov_pc_emg</title>
<polygon fill="none" stroke="black" points="1180.85,-270 1024.85,-270 1024.85,-246 1180.85,-246 1192.85,-258 1180.85,-270"/>
<text text-anchor="middle" x="1108.85" y="-254.3" font-family="Times,serif" font-size="14.00">L2a_wfov_pc EM gain 1..1</text>
</g>
<!-- l2a_wfov_pc_emg&#45;&gt;trans_wfov_pc_l2a_l2b -->
<g id="edge16" class="edge">
<title>l2a_wfov_pc_emg&#45;&gt;trans_wfov_pc_l2a_l2b</title>
<path fill="none" stroke="black" d="M1193.03,-271.59C1193.03,-271.59 1327.49,-271.59 1327.49,-271.59"/>
<polygon fill="black" stroke="black" points="1327.49,-275.09 1337.49,-271.59 1327.49,-268.09 1327.49,-275.09"/>
</g>
<!-- l2a_wfov_pc_man_demux&#45;&gt;trans_wfov_pc_l2a_l2b -->
<g id="edge22" class="edge">
<title>l2a_wfov_pc_man_demux&#45;&gt;trans_wfov_pc_l2a_l2b</title>
<path fill="none" stroke="black" d="M1212.2,-155.51C1212.2,-184.07 1212.2,-267.17 1212.2,-267.17 1212.2,-267.17 1339.67,-267.17 1339.67,-267.17"/>
<polygon fill="black" stroke="black" points="1339.67,-270.68 1349.67,-267.17 1339.67,-263.68 1339.67,-270.68"/>
</g>
<!-- l2b_wfov_pc_prod&#45;&gt;trans_wfov_pc_l2b_l3 -->
<g id="edge25" class="edge">
<title>l2b_wfov_pc_prod&#45;&gt;trans_wfov_pc_l2b_l3</title>
<path fill="none" stroke="black" d="M1962.47,-465.67C1962.47,-465.67 2325.78,-465.67 2325.78,-465.67"/>
<polygon fill="black" stroke="black" points="2325.78,-469.17 2335.78,-465.67 2325.78,-462.17 2325.78,-469.17"/>
</g>
<!-- l2b_wfov_pc_man&#45;&gt;trans_wfov_pc_l2b_l3 -->
<g id="edge26" class="edge">
<title>l2b_wfov_pc_man&#45;&gt;trans_wfov_pc_l2b_l3</title>
<path fill="none" stroke="black" d="M2234.2,-388.27C2234.2,-405.09 2234.2,-456.33 2234.2,-456.33 2234.2,-456.33 2339.94,-456.33 2339.94,-456.33"/>
<polygon fill="black" stroke="black" points="2339.94,-459.83 2349.94,-456.33 2339.94,-452.83 2339.94,-459.83"/>
</g>
<!-- l2b_wfov_pc_odir -->
<g id="node26" class="node">
<title>l2b_wfov_pc_odir</title>
<ellipse fill="none" stroke="black" cx="2129.31" cy="-709" rx="118.08" ry="18"/>
<text text-anchor="middle" x="2129.31" y="-705.3" font-family="Times,serif" font-size="14.00">L2b_wfov_pc output path 1..1</text>
</g>
<!-- l2b_wfov_pc_odir&#45;&gt;trans_wfov_pc_l2b_l3 -->
<g id="edge27" class="edge">
<title>l2b_wfov_pc_odir&#45;&gt;trans_wfov_pc_l2b_l3</title>
<path fill="none" stroke="black" d="M2227.2,-698.85C2227.2,-680.99 2227.2,-645.83 2227.2,-645.83 2227.2,-645.83 2359.53,-645.83 2359.53,-645.83"/>
<polygon fill="black" stroke="black" points="2359.53,-649.33 2369.53,-645.83 2359.53,-642.33 2359.53,-649.33"/>
</g>
<!-- l2b_wfov_pc_rec -->
<g id="node27" class="node">
<title>l2b_wfov_pc_rec</title>
<polygon fill="none" stroke="black" points="2194.31,-667 2052.31,-667 2052.31,-643 2194.31,-643 2206.31,-655 2194.31,-667"/>
<text text-anchor="middle" x="2129.31" y="-651.3" font-family="Times,serif" font-size="14.00">L2b_wfov_pc recipe 1..1</text>
</g>
<!-- l2b_wfov_pc_rec&#45;&gt;trans_wfov_pc_l2b_l3 -->
<g id="edge28" class="edge">
<title>l2b_wfov_pc_rec&#45;&gt;trans_wfov_pc_l2b_l3</title>
<path fill="none" stroke="black" d="M2206.39,-641.41C2206.39,-641.41 2347.59,-641.41 2347.59,-641.41"/>
<polygon fill="black" stroke="black" points="2347.59,-644.91 2357.59,-641.41 2347.59,-637.91 2347.59,-644.91"/>
</g>
<!-- l2b_wfov_pc_excicrf -->
<g id="node28" class="node">
<title>l2b_wfov_pc_excicrf</title>
<polygon fill="none" stroke="black" points="2242.81,-613 2003.81,-613 2003.81,-589 2242.81,-589 2254.81,-601 2242.81,-613"/>
<text text-anchor="middle" x="2129.31" y="-597.3" font-family="Times,serif" font-size="14.00">L2b_wfov_pc EXCAM ICRF location 1..1</text>
</g>
<!-- l2b_wfov_pc_excicrf&#45;&gt;trans_wfov_pc_l2b_l3 -->
<g id="edge29" class="edge">
<title>l2b_wfov_pc_excicrf&#45;&gt;trans_wfov_pc_l2b_l3</title>
<path fill="none" stroke="black" d="M2254.93,-601C2254.93,-601 2301.24,-601 2301.24,-601"/>
<polygon fill="black" stroke="black" points="2301.24,-604.5 2311.24,-601 2301.24,-597.5 2301.24,-604.5"/>
</g>
<!-- l2b_wfov_pc_excfovps -->
<g id="node29" class="node">
<title>l2b_wfov_pc_excfovps</title>
<polygon fill="none" stroke="black" points="2248.31,-559 1998.31,-559 1998.31,-535 2248.31,-535 2260.31,-547 2248.31,-559"/>
<text text-anchor="middle" x="2129.31" y="-543.3" font-family="Times,serif" font-size="14.00">L2b_wfov_pc EXCAM FOV pixel scale 1..1</text>
</g>
<!-- l2b_wfov_pc_excfovps&#45;&gt;trans_wfov_pc_l2b_l3 -->
<g id="edge30" class="edge">
<title>l2b_wfov_pc_excfovps&#45;&gt;trans_wfov_pc_l2b_l3</title>
<path fill="none" stroke="black" d="M2260.47,-547C2260.47,-547 2286.12,-547 2286.12,-547"/>
<polygon fill="black" stroke="black" points="2286.12,-550.5 2296.12,-547 2286.12,-543.5 2286.12,-550.5"/>
</g>
<!-- l2b_wfov_pc_distm -->
<g id="node30" class="node">
<title>l2b_wfov_pc_distm</title>
<polygon fill="none" stroke="black" points="2217.31,-505 2029.31,-505 2029.31,-481 2217.31,-481 2229.31,-493 2217.31,-505"/>
<text text-anchor="middle" x="2129.31" y="-489.3" font-family="Times,serif" font-size="14.00">L2b_wfov_pc distortion map 1..1</text>
</g>
<!-- l2b_wfov_pc_distm&#45;&gt;trans_wfov_pc_l2b_l3 -->
<g id="edge31" class="edge">
<title>l2b_wfov_pc_distm&#45;&gt;trans_wfov_pc_l2b_l3</title>
<path fill="none" stroke="black" d="M2229.55,-493C2229.55,-493 2301.48,-493 2301.48,-493"/>
<polygon fill="black" stroke="black" points="2301.48,-496.5 2311.48,-493 2301.48,-489.5 2301.48,-496.5"/>
</g>
<!-- l2b_wfov_pc_man_demux&#45;&gt;l2b_wfov_pc_mux -->
<g id="edge23" class="edge">
<title>l2b_wfov_pc_man_demux&#45;&gt;l2b_wfov_pc_mux</title>
<path fill="none" stroke="black" d="M1759.64,-366C1759.64,-366 1789.49,-366 1789.49,-366"/>
<polygon fill="black" stroke="black" points="1789.49,-369.5 1799.49,-366 1789.49,-362.5 1789.49,-369.5"/>
</g>
<!-- l3_wfov_pc_prod&#45;&gt;trans_wfov_pc_l3_l4 -->
<g id="edge35" class="edge">
<title>l3_wfov_pc_prod&#45;&gt;trans_wfov_pc_l3_l4</title>
<path fill="none" stroke="black" d="M2733.77,-601C2733.77,-601 2808.5,-601 2808.5,-601"/>
<polygon fill="black" stroke="black" points="2808.5,-604.5 2818.5,-601 2808.5,-597.5 2808.5,-604.5"/>
</g>
<!-- l3_wfov_pc_odir -->
<g id="node34" class="node">
<title>l3_wfov_pc_odir</title>
<ellipse fill="none" stroke="black" cx="2653.17" cy="-763" rx="114.28" ry="18"/>
<text text-anchor="middle" x="2653.17" y="-759.3" font-family="Times,serif" font-size="14.00">L3_wfov_pc output path 1..1</text>
</g>
<!-- l3_wfov_pc_odir&#45;&gt;trans_wfov_pc_l3_l4 -->
<g id="edge37" class="edge">
<title>l3_wfov_pc_odir&#45;&gt;trans_wfov_pc_l3_l4</title>
<path fill="none" stroke="black" d="M2741.88,-751.62C2741.88,-751.62 2860.4,-751.62 2860.4,-751.62"/>
<polygon fill="black" stroke="black" points="2860.4,-755.12 2870.4,-751.62 2860.4,-748.12 2860.4,-755.12"/>
</g>
<!-- l3_wfov_pc_man&#45;&gt;trans_wfov_pc_l3_l4 -->
<g id="edge36" class="edge">
<title>l3_wfov_pc_man&#45;&gt;trans_wfov_pc_l3_l4</title>
<path fill="none" stroke="black" d="M2734.47,-558.38C2734.47,-558.38 2860.17,-558.38 2860.17,-558.38"/>
<polygon fill="black" stroke="black" points="2860.17,-561.88 2870.17,-558.38 2860.17,-554.88 2860.17,-561.88"/>
</g>
<!-- l3_wfov_pc_rec -->
<g id="node36" class="node">
<title>l3_wfov_pc_rec</title>
<polygon fill="none" stroke="black" points="2714.67,-721 2579.67,-721 2579.67,-697 2714.67,-697 2726.67,-709 2714.67,-721"/>
<text text-anchor="middle" x="2653.17" y="-705.3" font-family="Times,serif" font-size="14.00">L3_wfov_pc recipe 1..1</text>
</g>
<!-- l3_wfov_pc_rec&#45;&gt;trans_wfov_pc_l3_l4 -->
<g id="edge38" class="edge">
<title>l3_wfov_pc_rec&#45;&gt;trans_wfov_pc_l3_l4</title>
<path fill="none" stroke="black" d="M2726.87,-709C2726.87,-709 2808.55,-709 2808.55,-709"/>
<polygon fill="black" stroke="black" points="2808.55,-712.5 2818.55,-709 2808.55,-705.5 2808.55,-712.5"/>
</g>
<!-- l3_wfov_pc_cal -->
<g id="node37" class="node">
<title>l3_wfov_pc_cal</title>
<polygon fill="none" stroke="black" points="2727.17,-667 2567.17,-667 2567.17,-643 2727.17,-643 2739.17,-655 2727.17,-667"/>
<text text-anchor="middle" x="2653.17" y="-651.3" font-family="Times,serif" font-size="14.00">L3_wfov_pc calibration 1..1</text>
</g>
<!-- l3_wfov_pc_cal&#45;&gt;trans_wfov_pc_l3_l4 -->
<g id="edge39" class="edge">
<title>l3_wfov_pc_cal&#45;&gt;trans_wfov_pc_l3_l4</title>
<path fill="none" stroke="black" d="M2739.39,-655C2739.39,-655 2793.28,-655 2793.28,-655"/>
<polygon fill="black" stroke="black" points="2793.28,-658.5 2803.28,-655 2793.28,-651.5 2793.28,-658.5"/>
</g>
<!-- l4_wfov_pc_prod&#45;&gt;trans_wfov_pc_l4_tda -->
<g id="edge43" class="edge">
<title>l4_wfov_pc_prod&#45;&gt;trans_wfov_pc_l4_tda</title>
<path fill="none" stroke="black" d="M3260.26,-722.59C3260.26,-722.59 3400.47,-722.59 3400.47,-722.59"/>
<polygon fill="black" stroke="black" points="3400.47,-726.09 3410.47,-722.59 3400.47,-719.09 3400.47,-726.09"/>
</g>
<!-- l4_wfov_pc_odir -->
<g id="node40" class="node">
<title>l4_wfov_pc_odir</title>
<ellipse fill="none" stroke="black" cx="3179.54" cy="-979" rx="114.28" ry="18"/>
<text text-anchor="middle" x="3179.54" y="-975.3" font-family="Times,serif" font-size="14.00">L4_wfov_pc output path 1..1</text>
</g>
<!-- l4_wfov_pc_odir&#45;&gt;trans_wfov_pc_l4_tda -->
<g id="edge45" class="edge">
<title>l4_wfov_pc_odir&#45;&gt;trans_wfov_pc_l4_tda</title>
<path fill="none" stroke="black" d="M3274.2,-968.85C3274.2,-950.99 3274.2,-915.83 3274.2,-915.83 3274.2,-915.83 3412.07,-915.83 3412.07,-915.83"/>
<polygon fill="black" stroke="black" points="3412.07,-919.33 3422.07,-915.83 3412.07,-912.33 3412.07,-919.33"/>
</g>
<!-- l4_wfov_pc_man&#45;&gt;trans_wfov_pc_l4_tda -->
<g id="edge44" class="edge">
<title>l4_wfov_pc_man&#45;&gt;trans_wfov_pc_l4_tda</title>
<path fill="none" stroke="black" d="M3275.2,-608.33C3275.2,-633.98 3275.2,-718.17 3275.2,-718.17 3275.2,-718.17 3412.24,-718.17 3412.24,-718.17"/>
<polygon fill="black" stroke="black" points="3412.24,-721.68 3422.24,-718.17 3412.24,-714.68 3412.24,-721.68"/>
</g>
<!-- l4_wfov_pc_rec -->
<g id="node43" class="node">
<title>l4_wfov_pc_rec</title>
<polygon fill="none" stroke="black" points="3241.04,-937 3106.04,-937 3106.04,-913 3241.04,-913 3253.04,-925 3241.04,-937"/>
<text text-anchor="middle" x="3179.54" y="-921.3" font-family="Times,serif" font-size="14.00">L4_wfov_pc recipe 1..1</text>
</g>
<!-- l4_wfov_pc_rec&#45;&gt;trans_wfov_pc_l4_tda -->
<g id="edge46" class="edge">
<title>l4_wfov_pc_rec&#45;&gt;trans_wfov_pc_l4_tda</title>
<path fill="none" stroke="black" d="M3253.35,-911.41C3253.35,-911.41 3400.24,-911.41 3400.24,-911.41"/>
<polygon fill="black" stroke="black" points="3400.24,-914.91 3410.24,-911.41 3400.24,-907.91 3400.24,-914.91"/>
</g>
<!-- l4_wfov_pc_afcal -->
<g id="node44" class="node">
<title>l4_wfov_pc_afcal</title>
<polygon fill="none" stroke="black" points="3293.04,-883 3054.04,-883 3054.04,-859 3293.04,-859 3305.04,-871 3293.04,-883"/>
<text text-anchor="middle" x="3179.54" y="-867.3" font-family="Times,serif" font-size="14.00">L4_wfov_pc absolute flux calibrations 1..1</text>
</g>
<!-- l4_wfov_pc_afcal&#45;&gt;trans_wfov_pc_l4_tda -->
<g id="edge47" class="edge">
<title>l4_wfov_pc_afcal&#45;&gt;trans_wfov_pc_l4_tda</title>
<path fill="none" stroke="black" d="M3305.13,-871C3305.13,-871 3353.91,-871 3353.91,-871"/>
<polygon fill="black" stroke="black" points="3353.91,-874.5 3363.91,-871 3353.91,-867.5 3353.91,-874.5"/>
</g>
<!-- l4_wfov_pc_ctcal -->
<g id="node45" class="node">
<title>l4_wfov_pc_ctcal</title>
<polygon fill="none" stroke="black" points="3301.04,-829 3046.04,-829 3046.04,-805 3301.04,-805 3313.04,-817 3301.04,-829"/>
<text text-anchor="middle" x="3179.54" y="-813.3" font-family="Times,serif" font-size="14.00">L4_wfov_pc core throughput calibrations 1..1</text>
</g>
<!-- l4_wfov_pc_ctcal&#45;&gt;trans_wfov_pc_l4_tda -->
<g id="edge48" class="edge">
<title>l4_wfov_pc_ctcal&#45;&gt;trans_wfov_pc_l4_tda</title>
<path fill="none" stroke="black" d="M3313.11,-817C3313.11,-817 3338.86,-817 3338.86,-817"/>
<polygon fill="black" stroke="black" points="3338.86,-820.5 3348.86,-817 3338.86,-813.5 3338.86,-820.5"/>
</g>
<!-- l4_wfov_pc_ndfilt -->
<g id="node46" class="node">
<title>l4_wfov_pc_ndfilt</title>
<polygon fill="none" stroke="black" points="3249.54,-775 3097.54,-775 3097.54,-751 3249.54,-751 3261.54,-763 3249.54,-775"/>
<text text-anchor="middle" x="3179.54" y="-759.3" font-family="Times,serif" font-size="14.00">L4_wfov_pc ND filter 1..1</text>
</g>
<!-- l4_wfov_pc_ndfilt&#45;&gt;trans_wfov_pc_l4_tda -->
<g id="edge49" class="edge">
<title>l4_wfov_pc_ndfilt&#45;&gt;trans_wfov_pc_l4_tda</title>
<path fill="none" stroke="black" d="M3261.74,-763C3261.74,-763 3354.08,-763 3354.08,-763"/>
<polygon fill="black" stroke="black" points="3354.08,-766.5 3364.08,-763 3354.08,-759.5 3354.08,-766.5"/>
</g>
</g>
</svg>
