<?xml version="1.0" encoding="UTF-8" standalone="no"?>
<!DOCTYPE svg PUBLIC "-//W3C//DTD SVG 1.1//EN"
 "http://www.w3.org/Graphics/SVG/1.1/DTD/svg11.dtd">
<!-- Generated by graphviz version 2.43.0 (0)
 -->
<!-- Title: WideFieldOfViewPhotonCount Pages: 1 -->
<svg width="4507pt" height="1059pt"
 viewBox="0.00 0.00 4507.39 1058.60" xmlns="http://www.w3.org/2000/svg" xmlns:xlink="http://www.w3.org/1999/xlink">
<g id="graph0" class="graph" transform="scale(1 1) rotate(0) translate(4 1054.6)">
<title>WideFieldOfViewPhotonCount</title>
<polygon fill="white" stroke="transparent" points="-4,4 -4,-1054.6 4503.39,-1054.6 4503.39,4 -4,4"/>
<!-- trans_wfov_pc_l1_l2a -->
<g id="node1" class="node">
<title>trans_wfov_pc_l1_l2a</title>
<ellipse fill="none" stroke="black" cx="448.78" cy="-134.6" rx="129.3" ry="129.3"/>
<text text-anchor="middle" x="448.78" y="-138.4" font-family="Times,serif" font-size="14.00">wfov_pc Transmutation</text>
<text text-anchor="middle" x="448.78" y="-123.4" font-family="Times,serif" font-size="14.00">L1 to L2a</text>
</g>
<!-- l2a_wfov_pc_prod -->
<g id="node13" class="node">
<title>l2a_wfov_pc_prod</title>
<polygon fill="none" stroke="black" points="1129.25,-273.6 923.25,-273.6 923.25,-237.6 1129.25,-237.6 1129.25,-273.6"/>
<text text-anchor="middle" x="1026.25" y="-251.9" font-family="Times,serif" font-size="14.00">L2a_wfov_pc products 1..b</text>
</g>
<!-- trans_wfov_pc_l1_l2a&#45;&gt;l2a_wfov_pc_prod -->
<g id="edge6" class="edge">
<title>trans_wfov_pc_l1_l2a&#45;&gt;l2a_wfov_pc_prod</title>
<path fill="none" stroke="black" d="M505.73,-250.8C505.73,-250.8 913.05,-250.8 913.05,-250.8"/>
<polygon fill="black" stroke="black" points="913.05,-254.3 923.05,-250.8 913.05,-247.3 913.05,-254.3"/>
</g>
<!-- l2a_wfov_pc_man -->
<g id="node14" class="node">
<title>l2a_wfov_pc_man</title>
<ellipse fill="none" stroke="black" cx="747.41" cy="-134.6" rx="133.48" ry="18"/>
<text text-anchor="middle" x="747.41" y="-130.9" font-family="Times,serif" font-size="14.00">L2a_wfov_pc manifest 1..1</text>
</g>
<!-- trans_wfov_pc_l1_l2a&#45;&gt;l2a_wfov_pc_man -->
<g id="edge7" class="edge">
<title>trans_wfov_pc_l1_l2a&#45;&gt;l2a_wfov_pc_man</title>
<path fill="none" stroke="black" d="M578.46,-134.6C578.46,-134.6 604.07,-134.6 604.07,-134.6"/>
<polygon fill="black" stroke="black" points="604.07,-138.1 614.07,-134.6 604.07,-131.1 604.07,-138.1"/>
</g>
<!-- l2a_wfov_pc_log -->
<g id="node23" class="node">
<title>l2a_wfov_pc_log</title>
<ellipse fill="none" stroke="black" cx="747.41" cy="-80.6" rx="106.68" ry="18"/>
<text text-anchor="middle" x="747.41" y="-76.9" font-family="Times,serif" font-size="14.00">L2a log_wfov_pc 1..1</text>
</g>
<!-- trans_wfov_pc_l1_l2a&#45;&gt;l2a_wfov_pc_log -->
<g id="edge8" class="edge">
<title>trans_wfov_pc_l1_l2a&#45;&gt;l2a_wfov_pc_log</title>
<path fill="none" stroke="black" d="M566.38,-80.6C566.38,-80.6 630.61,-80.6 630.61,-80.6"/>
<polygon fill="black" stroke="black" points="630.61,-84.1 640.61,-80.6 630.61,-77.1 630.61,-84.1"/>
</g>
<!-- l2a_wfov_pc_demux -->
<g id="node2" class="node">
<title>l2a_wfov_pc_demux</title>
<ellipse fill="none" stroke="black" cx="1026.25" cy="-109.6" rx="109.7" ry="109.7"/>
<text text-anchor="middle" x="1026.25" y="-113.4" font-family="Times,serif" font-size="14.00">wfov_pc l2a Demux</text>
<text text-anchor="middle" x="1026.25" y="-98.4" font-family="Times,serif" font-size="14.00">Exposure</text>
</g>
<!-- l2a_wfov_pc_man_demux -->
<g id="node24" class="node">
<title>l2a_wfov_pc_man_demux</title>
<ellipse fill="none" stroke="black" cx="1326.86" cy="-159.6" rx="146.77" ry="18"/>
<text text-anchor="middle" x="1326.86" y="-155.9" font-family="Times,serif" font-size="14.00">L2a_wfov_pc(E) manifest 1..1</text>
</g>
<!-- l2a_wfov_pc_demux&#45;&gt;l2a_wfov_pc_man_demux -->
<g id="edge22" class="edge">
<title>l2a_wfov_pc_demux&#45;&gt;l2a_wfov_pc_man_demux</title>
<path fill="none" stroke="black" d="M1123.85,-159.6C1123.85,-159.6 1169.81,-159.6 1169.81,-159.6"/>
<polygon fill="black" stroke="black" points="1169.81,-163.1 1179.81,-159.6 1169.81,-156.1 1169.81,-163.1"/>
</g>
<!-- trans_wfov_pc_l2a_l2b -->
<g id="node3" class="node">
<title>trans_wfov_pc_l2a_l2b</title>
<ellipse fill="none" stroke="black" cx="1647.26" cy="-411.6" rx="129.3" ry="129.3"/>
<text text-anchor="middle" x="1647.26" y="-415.4" font-family="Times,serif" font-size="14.00">wfov_pc Transmutation</text>
<text text-anchor="middle" x="1647.26" y="-400.4" font-family="Times,serif" font-size="14.00">L2a to L2b</text>
</g>
<!-- l2b_wfov_pc_prod -->
<g id="node25" class="node">
<title>l2b_wfov_pc_prod</title>
<polygon fill="none" stroke="black" points="2349.73,-540.6 2143.73,-540.6 2143.73,-504.6 2349.73,-504.6 2349.73,-540.6"/>
<text text-anchor="middle" x="2246.73" y="-518.9" font-family="Times,serif" font-size="14.00">L2b_wfov_pc products 1..1</text>
</g>
<!-- trans_wfov_pc_l2a_l2b&#45;&gt;l2b_wfov_pc_prod -->
<g id="edge18" class="edge">
<title>trans_wfov_pc_l2a_l2b&#45;&gt;l2b_wfov_pc_prod</title>
<path fill="none" stroke="black" d="M1713.99,-522.6C1713.99,-522.6 2133.52,-522.6 2133.52,-522.6"/>
<polygon fill="black" stroke="black" points="2133.52,-526.1 2143.52,-522.6 2133.52,-519.1 2133.52,-526.1"/>
</g>
<!-- l2b_wfov_pc_man_demux -->
<g id="node32" class="node">
<title>l2b_wfov_pc_man_demux</title>
<ellipse fill="none" stroke="black" cx="1960.19" cy="-411.6" rx="147.57" ry="18"/>
<text text-anchor="middle" x="1960.19" y="-407.9" font-family="Times,serif" font-size="14.00">L2b_wfov_pc(E) manifest 1..1</text>
</g>
<!-- trans_wfov_pc_l2a_l2b&#45;&gt;l2b_wfov_pc_man_demux -->
<g id="edge19" class="edge">
<title>trans_wfov_pc_l2a_l2b&#45;&gt;l2b_wfov_pc_man_demux</title>
<path fill="none" stroke="black" d="M1776.8,-411.6C1776.8,-411.6 1802.46,-411.6 1802.46,-411.6"/>
<polygon fill="black" stroke="black" points="1802.46,-415.1 1812.46,-411.6 1802.46,-408.1 1802.46,-415.1"/>
</g>
<!-- l2b_wfov_pc_log -->
<g id="node33" class="node">
<title>l2b_wfov_pc_log</title>
<ellipse fill="none" stroke="black" cx="1960.19" cy="-357.6" rx="107.48" ry="18"/>
<text text-anchor="middle" x="1960.19" y="-353.9" font-family="Times,serif" font-size="14.00">L2b_wfov_pc log 1..1</text>
</g>
<!-- trans_wfov_pc_l2a_l2b&#45;&gt;l2b_wfov_pc_log -->
<g id="edge20" class="edge">
<title>trans_wfov_pc_l2a_l2b&#45;&gt;l2b_wfov_pc_log</title>
<path fill="none" stroke="black" d="M1765.12,-357.6C1765.12,-357.6 1842.74,-357.6 1842.74,-357.6"/>
<polygon fill="black" stroke="black" points="1842.74,-361.1 1852.74,-357.6 1842.74,-354.1 1842.74,-361.1"/>
</g>
<!-- l2b_wfov_pc_mux -->
<g id="node4" class="node">
<title>l2b_wfov_pc_mux</title>
<ellipse fill="none" stroke="black" cx="2246.73" cy="-389.6" rx="96.75" ry="96.75"/>
<text text-anchor="middle" x="2246.73" y="-393.4" font-family="Times,serif" font-size="14.00">wfov_pc l2b Mux</text>
<text text-anchor="middle" x="2246.73" y="-378.4" font-family="Times,serif" font-size="14.00">Exposure</text>
</g>
<!-- l2b_wfov_pc_man -->
<g id="node26" class="node">
<title>l2b_wfov_pc_man</title>
<ellipse fill="none" stroke="black" cx="2542.23" cy="-432.6" rx="133.78" ry="18"/>
<text text-anchor="middle" x="2542.23" y="-428.9" font-family="Times,serif" font-size="14.00">L2b_wfov_pc manifest 1..1</text>
</g>
<!-- l2b_wfov_pc_mux&#45;&gt;l2b_wfov_pc_man -->
<g id="edge25" class="edge">
<title>l2b_wfov_pc_mux&#45;&gt;l2b_wfov_pc_man</title>
<path fill="none" stroke="black" d="M2333.79,-432.6C2333.79,-432.6 2398.11,-432.6 2398.11,-432.6"/>
<polygon fill="black" stroke="black" points="2398.11,-436.1 2408.11,-432.6 2398.11,-429.1 2398.11,-436.1"/>
</g>
<!-- trans_wfov_pc_l2b_l3 -->
<g id="node5" class="node">
<title>trans_wfov_pc_l2b_l3</title>
<ellipse fill="none" stroke="black" cx="2864.13" cy="-600.6" rx="129.3" ry="129.3"/>
<text text-anchor="middle" x="2864.13" y="-604.4" font-family="Times,serif" font-size="14.00">wfov_pc Transmutation</text>
<text text-anchor="middle" x="2864.13" y="-589.4" font-family="Times,serif" font-size="14.00">L2b to L3</text>
</g>
<!-- l3_wfov_pc_prod -->
<g id="node34" class="node">
<title>l3_wfov_pc_prod</title>
<polygon fill="none" stroke="black" points="3269.72,-672.6 3072.72,-672.6 3072.72,-636.6 3269.72,-636.6 3269.72,-672.6"/>
<text text-anchor="middle" x="3171.22" y="-650.9" font-family="Times,serif" font-size="14.00">L3_wfov_pc products 1..1</text>
</g>
<!-- trans_wfov_pc_l2b_l3&#45;&gt;l3_wfov_pc_prod -->
<g id="edge33" class="edge">
<title>trans_wfov_pc_l2b_l3&#45;&gt;l3_wfov_pc_prod</title>
<path fill="none" stroke="black" d="M2981.98,-654.6C2981.98,-654.6 3062.64,-654.6 3062.64,-654.6"/>
<polygon fill="black" stroke="black" points="3062.64,-658.1 3072.64,-654.6 3062.64,-651.1 3062.64,-658.1"/>
</g>
<!-- l3_wfov_pc_man -->
<g id="node36" class="node">
<title>l3_wfov_pc_man</title>
<ellipse fill="none" stroke="black" cx="3171.22" cy="-600.6" rx="128.08" ry="18"/>
<text text-anchor="middle" x="3171.22" y="-596.9" font-family="Times,serif" font-size="14.00">L3_wfov_pc manifest 1..1</text>
</g>
<!-- trans_wfov_pc_l2b_l3&#45;&gt;l3_wfov_pc_man -->
<g id="edge34" class="edge">
<title>trans_wfov_pc_l2b_l3&#45;&gt;l3_wfov_pc_man</title>
<path fill="none" stroke="black" d="M2993.92,-600.6C2993.92,-600.6 3032.88,-600.6 3032.88,-600.6"/>
<polygon fill="black" stroke="black" points="3032.88,-604.1 3042.88,-600.6 3032.88,-597.1 3032.88,-604.1"/>
</g>
<!-- l3_wfov_pc_log -->
<g id="node39" class="node">
<title>l3_wfov_pc_log</title>
<ellipse fill="none" stroke="black" cx="3171.22" cy="-546.6" rx="101.28" ry="18"/>
<text text-anchor="middle" x="3171.22" y="-542.9" font-family="Times,serif" font-size="14.00">L3_wfov_pc log 1..1</text>
</g>
<!-- trans_wfov_pc_l2b_l3&#45;&gt;l3_wfov_pc_log -->
<g id="edge35" class="edge">
<title>trans_wfov_pc_l2b_l3&#45;&gt;l3_wfov_pc_log</title>
<path fill="none" stroke="black" d="M2981.98,-546.6C2981.98,-546.6 3059.7,-546.6 3059.7,-546.6"/>
<polygon fill="black" stroke="black" points="3059.7,-550.1 3069.7,-546.6 3059.7,-543.1 3059.7,-550.1"/>
</g>
<!-- trans_wfov_pc_l3_l4 -->
<g id="node6" class="node">
<title>trans_wfov_pc_l3_l4</title>
<ellipse fill="none" stroke="black" cx="3478.31" cy="-708.6" rx="129.3" ry="129.3"/>
<text text-anchor="middle" x="3478.31" y="-712.4" font-family="Times,serif" font-size="14.00">wfov_pc Transmutation</text>
<text text-anchor="middle" x="3478.31" y="-697.4" font-family="Times,serif" font-size="14.00">L3 to L4</text>
</g>
<!-- l4_wfov_pc_prod -->
<g id="node40" class="node">
<title>l4_wfov_pc_prod</title>
<polygon fill="none" stroke="black" points="3911.71,-780.6 3714.71,-780.6 3714.71,-744.6 3911.71,-744.6 3911.71,-780.6"/>
<text text-anchor="middle" x="3813.21" y="-758.9" font-family="Times,serif" font-size="14.00">L4_wfov_pc products 1..1</text>
</g>
<!-- trans_wfov_pc_l3_l4&#45;&gt;l4_wfov_pc_prod -->
<g id="edge41" class="edge">
<title>trans_wfov_pc_l3_l4&#45;&gt;l4_wfov_pc_prod</title>
<path fill="none" stroke="black" d="M3595.91,-762.6C3595.91,-762.6 3704.47,-762.6 3704.47,-762.6"/>
<polygon fill="black" stroke="black" points="3704.47,-766.1 3714.47,-762.6 3704.47,-759.1 3704.47,-766.1"/>
</g>
<!-- l4_wfov_pc_log -->
<g id="node42" class="node">
<title>l4_wfov_pc_log</title>
<ellipse fill="none" stroke="black" cx="3813.21" cy="-708.6" rx="101.28" ry="18"/>
<text text-anchor="middle" x="3813.21" y="-704.9" font-family="Times,serif" font-size="14.00">L4_wfov_pc log 1..1</text>
</g>
<!-- trans_wfov_pc_l3_l4&#45;&gt;l4_wfov_pc_log -->
<g id="edge42" class="edge">
<title>trans_wfov_pc_l3_l4&#45;&gt;l4_wfov_pc_log</title>
<path fill="none" stroke="black" d="M3607.79,-708.6C3607.79,-708.6 3701.58,-708.6 3701.58,-708.6"/>
<polygon fill="black" stroke="black" points="3701.58,-712.1 3711.58,-708.6 3701.58,-705.1 3701.58,-712.1"/>
</g>
<!-- l4_wfov_pc_man -->
<g id="node43" class="node">
<title>l4_wfov_pc_man</title>
<ellipse fill="none" stroke="black" cx="3813.21" cy="-654.6" rx="128.08" ry="18"/>
<text text-anchor="middle" x="3813.21" y="-650.9" font-family="Times,serif" font-size="14.00">L4_wfov_pc manifest 1..1</text>
</g>
<!-- trans_wfov_pc_l3_l4&#45;&gt;l4_wfov_pc_man -->
<g id="edge43" class="edge">
<title>trans_wfov_pc_l3_l4&#45;&gt;l4_wfov_pc_man</title>
<path fill="none" stroke="black" d="M3595.91,-654.6C3595.91,-654.6 3675.06,-654.6 3675.06,-654.6"/>
<polygon fill="black" stroke="black" points="3675.06,-658.1 3685.06,-654.6 3675.06,-651.1 3675.06,-658.1"/>
</g>
<!-- trans_wfov_pc_l4_tda -->
<g id="node7" class="node">
<title>trans_wfov_pc_l4_tda</title>
<ellipse fill="none" stroke="black" cx="4148.11" cy="-870.6" rx="129.3" ry="129.3"/>
<text text-anchor="middle" x="4148.11" y="-874.4" font-family="Times,serif" font-size="14.00">wfov_pc Transmutation</text>
<text text-anchor="middle" x="4148.11" y="-859.4" font-family="Times,serif" font-size="14.00">L4 to TDA</text>
</g>
<!-- tda_wfov_pc_prod -->
<g id="node48" class="node">
<title>tda_wfov_pc_prod</title>
<ellipse fill="none" stroke="black" cx="4406.45" cy="-897.6" rx="92.88" ry="18"/>
<text text-anchor="middle" x="4406.45" y="-893.9" font-family="Times,serif" font-size="14.00">tda_wfov_pc_prod</text>
</g>
<!-- trans_wfov_pc_l4_tda&#45;&gt;tda_wfov_pc_prod -->
<g id="edge51" class="edge">
<title>trans_wfov_pc_l4_tda&#45;&gt;tda_wfov_pc_prod</title>
<path fill="none" stroke="black" d="M4275.01,-897.6C4275.01,-897.6 4303.25,-897.6 4303.25,-897.6"/>
<polygon fill="black" stroke="black" points="4303.25,-901.1 4313.25,-897.6 4303.25,-894.1 4303.25,-901.1"/>
</g>
<!-- tda_wfov_pc_log -->
<g id="node49" class="node">
<title>tda_wfov_pc_log</title>
<ellipse fill="none" stroke="black" cx="4406.45" cy="-843.6" rx="85.59" ry="18"/>
<text text-anchor="middle" x="4406.45" y="-839.9" font-family="Times,serif" font-size="14.00">tda_wfov_pc_log</text>
</g>
<!-- trans_wfov_pc_l4_tda&#45;&gt;tda_wfov_pc_log -->
<g id="edge52" class="edge">
<title>trans_wfov_pc_l4_tda&#45;&gt;tda_wfov_pc_log</title>
<path fill="none" stroke="black" d="M4275.01,-843.6C4275.01,-843.6 4310.58,-843.6 4310.58,-843.6"/>
<polygon fill="black" stroke="black" points="4310.58,-847.1 4320.58,-843.6 4310.58,-840.1 4310.58,-847.1"/>
</g>
<!-- l1_wfov_pc_prod -->
<g id="node8" class="node">
<title>l1_wfov_pc_prod</title>
<polygon fill="none" stroke="black" points="240.19,-260.6 43.19,-260.6 43.19,-224.6 240.19,-224.6 240.19,-260.6"/>
<text text-anchor="middle" x="141.69" y="-238.9" font-family="Times,serif" font-size="14.00">L1_wfov_pc products 1..b</text>
</g>
<!-- l1_wfov_pc_prod&#45;&gt;trans_wfov_pc_l1_l2a -->
<g id="edge1" class="edge">
<title>l1_wfov_pc_prod&#45;&gt;trans_wfov_pc_l1_l2a</title>
<path fill="none" stroke="black" d="M240.54,-242.6C240.54,-242.6 367.36,-242.6 367.36,-242.6"/>
<polygon fill="black" stroke="black" points="367.36,-246.1 377.36,-242.6 367.36,-239.1 367.36,-246.1"/>
</g>
<!-- l1_wfov_pc_man -->
<g id="node9" class="node">
<title>l1_wfov_pc_man</title>
<ellipse fill="none" stroke="black" cx="141.69" cy="-188.6" rx="128.08" ry="18"/>
<text text-anchor="middle" x="141.69" y="-184.9" font-family="Times,serif" font-size="14.00">L1_wfov_pc manifest 1..1</text>
</g>
<!-- l1_wfov_pc_man&#45;&gt;trans_wfov_pc_l1_l2a -->
<g id="edge2" class="edge">
<title>l1_wfov_pc_man&#45;&gt;trans_wfov_pc_l1_l2a</title>
<path fill="none" stroke="black" d="M270.14,-188.6C270.14,-188.6 321.12,-188.6 321.12,-188.6"/>
<polygon fill="black" stroke="black" points="321.12,-192.1 331.12,-188.6 321.12,-185.1 321.12,-192.1"/>
</g>
<!-- l1_wfov_pc_odir -->
<g id="node10" class="node">
<title>l1_wfov_pc_odir</title>
<ellipse fill="none" stroke="black" cx="141.69" cy="-134.6" rx="141.88" ry="18"/>
<text text-anchor="middle" x="141.69" y="-130.9" font-family="Times,serif" font-size="14.00">L1_wfov_pc output path 1..1</text>
</g>
<!-- l1_wfov_pc_odir&#45;&gt;trans_wfov_pc_l1_l2a -->
<g id="edge3" class="edge">
<title>l1_wfov_pc_odir&#45;&gt;trans_wfov_pc_l1_l2a</title>
<path fill="none" stroke="black" d="M283.55,-134.6C283.55,-134.6 309.37,-134.6 309.37,-134.6"/>
<polygon fill="black" stroke="black" points="309.37,-138.1 319.37,-134.6 309.37,-131.1 309.37,-138.1"/>
</g>
<!-- l1_wfov_pc_rec -->
<g id="node11" class="node">
<title>l1_wfov_pc_rec</title>
<polygon fill="none" stroke="black" points="219.19,-92.6 52.19,-92.6 52.19,-68.6 219.19,-68.6 231.19,-80.6 219.19,-92.6"/>
<text text-anchor="middle" x="141.69" y="-76.9" font-family="Times,serif" font-size="14.00">L1_wfov_pc recipe 1..1</text>
</g>
<!-- l1_wfov_pc_rec&#45;&gt;trans_wfov_pc_l1_l2a -->
<g id="edge4" class="edge">
<title>l1_wfov_pc_rec&#45;&gt;trans_wfov_pc_l1_l2a</title>
<path fill="none" stroke="black" d="M231.34,-80.6C231.34,-80.6 321.01,-80.6 321.01,-80.6"/>
<polygon fill="black" stroke="black" points="321.01,-84.1 331.01,-80.6 321.01,-77.1 321.01,-84.1"/>
</g>
<!-- l1_wfov_pc_nllut -->
<g id="node12" class="node">
<title>l1_wfov_pc_nllut</title>
<polygon fill="none" stroke="black" points="249.69,-38.6 21.69,-38.6 21.69,-14.6 249.69,-14.6 261.69,-26.6 249.69,-38.6"/>
<text text-anchor="middle" x="141.69" y="-22.9" font-family="Times,serif" font-size="14.00">L1_wfov_pc non&#45;linear LUT 1..1</text>
</g>
<!-- l1_wfov_pc_nllut&#45;&gt;trans_wfov_pc_l1_l2a -->
<g id="edge5" class="edge">
<title>l1_wfov_pc_nllut&#45;&gt;trans_wfov_pc_l1_l2a</title>
<path fill="none" stroke="black" d="M261.74,-26.6C261.74,-26.6 367.16,-26.6 367.16,-26.6"/>
<polygon fill="black" stroke="black" points="367.16,-30.1 377.16,-26.6 367.16,-23.1 367.16,-30.1"/>
</g>
<!-- l2a_wfov_pc_prod&#45;&gt;trans_wfov_pc_l2a_l2b -->
<g id="edge9" class="edge">
<title>l2a_wfov_pc_prod&#45;&gt;trans_wfov_pc_l2a_l2b</title>
<path fill="none" stroke="black" d="M1026.39,-273.75C1026.39,-287.34 1026.39,-303.6 1026.39,-303.6 1026.39,-303.6 1565.73,-303.6 1565.73,-303.6"/>
<polygon fill="black" stroke="black" points="1565.73,-307.1 1575.73,-303.6 1565.73,-300.1 1565.73,-307.1"/>
</g>
<!-- l2a_wfov_pc_man&#45;&gt;l2a_wfov_pc_demux -->
<g id="edge21" class="edge">
<title>l2a_wfov_pc_man&#45;&gt;l2a_wfov_pc_demux</title>
<path fill="none" stroke="black" d="M880.71,-134.6C880.71,-134.6 909.53,-134.6 909.53,-134.6"/>
<polygon fill="black" stroke="black" points="909.53,-138.1 919.53,-134.6 909.53,-131.1 909.53,-138.1"/>
</g>
<!-- l2a_wfov_pc_odir -->
<g id="node15" class="node">
<title>l2a_wfov_pc_odir</title>
<ellipse fill="none" stroke="black" cx="1326.86" cy="-656.6" rx="147.57" ry="18"/>
<text text-anchor="middle" x="1326.86" y="-652.9" font-family="Times,serif" font-size="14.00">L2a_wfov_pc output path 1..1</text>
</g>
<!-- l2a_wfov_pc_odir&#45;&gt;trans_wfov_pc_l2a_l2b -->
<g id="edge10" class="edge">
<title>l2a_wfov_pc_odir&#45;&gt;trans_wfov_pc_l2a_l2b</title>
<path fill="none" stroke="black" d="M1474.2,-655.6C1574.97,-655.6 1690.39,-655.6 1690.39,-655.6 1690.39,-655.6 1690.39,-543.6 1690.39,-543.6"/>
<polygon fill="black" stroke="black" points="1693.89,-543.6 1690.39,-533.6 1686.89,-543.6 1693.89,-543.6"/>
</g>
<!-- l2a_wfov_pc_rec -->
<g id="node16" class="node">
<title>l2a_wfov_pc_rec</title>
<polygon fill="none" stroke="black" points="1408.36,-614.6 1233.36,-614.6 1233.36,-590.6 1408.36,-590.6 1420.36,-602.6 1408.36,-614.6"/>
<text text-anchor="middle" x="1326.86" y="-598.9" font-family="Times,serif" font-size="14.00">L2a_wfov_pc recipe 1..1</text>
</g>
<!-- l2a_wfov_pc_rec&#45;&gt;trans_wfov_pc_l2a_l2b -->
<g id="edge11" class="edge">
<title>l2a_wfov_pc_rec&#45;&gt;trans_wfov_pc_l2a_l2b</title>
<path fill="none" stroke="black" d="M1420.43,-601.6C1501,-601.6 1604.39,-601.6 1604.39,-601.6 1604.39,-601.6 1604.39,-543.81 1604.39,-543.81"/>
<polygon fill="black" stroke="black" points="1607.89,-543.81 1604.39,-533.81 1600.89,-543.81 1607.89,-543.81"/>
</g>
<!-- l2a_wfov_pc_cti -->
<g id="node17" class="node">
<title>l2a_wfov_pc_cti</title>
<polygon fill="none" stroke="black" points="1469.86,-560.6 1171.86,-560.6 1171.86,-536.6 1469.86,-536.6 1481.86,-548.6 1469.86,-560.6"/>
<text text-anchor="middle" x="1326.86" y="-544.9" font-family="Times,serif" font-size="14.00">L2a_wfov_pc charge xfer inefficiency 1..1</text>
</g>
<!-- l2a_wfov_pc_cti&#45;&gt;trans_wfov_pc_l2a_l2b -->
<g id="edge12" class="edge">
<title>l2a_wfov_pc_cti&#45;&gt;trans_wfov_pc_l2a_l2b</title>
<path fill="none" stroke="black" stroke-dasharray="5,2" d="M1481.89,-535.8C1481.89,-535.8 1600.65,-535.8 1600.65,-535.8"/>
<polygon fill="black" stroke="black" points="1600.65,-539.3 1610.65,-535.8 1600.65,-532.3 1600.65,-539.3"/>
</g>
<!-- l2a_wfov_pc_dnb -->
<g id="node18" class="node">
<title>l2a_wfov_pc_dnb</title>
<polygon fill="none" stroke="black" points="1451.36,-506.6 1190.36,-506.6 1190.36,-480.6 1451.36,-480.6 1463.36,-493.6 1451.36,-506.6"/>
<text text-anchor="middle" x="1326.86" y="-497.4" font-family="Times,serif" font-size="14.00">L2a_wfov_pc CIC/Dark Current/FPN</text>
<text text-anchor="middle" x="1326.86" y="-482.4" font-family="Times,serif" font-size="14.00"> or master dark 1..1</text>
</g>
<!-- l2a_wfov_pc_dnb&#45;&gt;trans_wfov_pc_l2a_l2b -->
<g id="edge13" class="edge">
<title>l2a_wfov_pc_dnb&#45;&gt;trans_wfov_pc_l2a_l2b</title>
<path fill="none" stroke="black" d="M1463.66,-493.6C1463.66,-493.6 1536.77,-493.6 1536.77,-493.6"/>
<polygon fill="black" stroke="black" points="1536.77,-497.1 1546.77,-493.6 1536.77,-490.1 1536.77,-497.1"/>
</g>
<!-- l2a_wfov_pc_mbpm -->
<g id="node19" class="node">
<title>l2a_wfov_pc_mbpm</title>
<polygon fill="none" stroke="black" points="1463.86,-450.6 1177.86,-450.6 1177.86,-426.6 1463.86,-426.6 1475.86,-438.6 1463.86,-450.6"/>
<text text-anchor="middle" x="1326.86" y="-434.9" font-family="Times,serif" font-size="14.00">L2a_wfov_pc master bad pixel map 1..1</text>
</g>
<!-- l2a_wfov_pc_mbpm&#45;&gt;trans_wfov_pc_l2a_l2b -->
<g id="edge14" class="edge">
<title>l2a_wfov_pc_mbpm&#45;&gt;trans_wfov_pc_l2a_l2b</title>
<path fill="none" stroke="black" d="M1476.27,-438.6C1476.27,-438.6 1510.67,-438.6 1510.67,-438.6"/>
<polygon fill="black" stroke="black" points="1510.67,-442.1 1520.67,-438.6 1510.67,-435.1 1510.67,-442.1"/>
</g>
<!-- l2a_wfov_pc_ff -->
<g id="node20" class="node">
<title>l2a_wfov_pc_ff</title>
<polygon fill="none" stroke="black" points="1419.36,-396.6 1222.36,-396.6 1222.36,-372.6 1419.36,-372.6 1431.36,-384.6 1419.36,-396.6"/>
<text text-anchor="middle" x="1326.86" y="-380.9" font-family="Times,serif" font-size="14.00">L2a_wfov_pc flat fields 1..1</text>
</g>
<!-- l2a_wfov_pc_ff&#45;&gt;trans_wfov_pc_l2a_l2b -->
<g id="edge15" class="edge">
<title>l2a_wfov_pc_ff&#45;&gt;trans_wfov_pc_l2a_l2b</title>
<path fill="none" stroke="black" d="M1431.77,-384.6C1431.77,-384.6 1510.6,-384.6 1510.6,-384.6"/>
<polygon fill="black" stroke="black" points="1510.6,-388.1 1520.6,-384.6 1510.6,-381.1 1510.6,-388.1"/>
</g>
<!-- l2a_wfov_pc_emg -->
<g id="node21" class="node">
<title>l2a_wfov_pc_emg</title>
<polygon fill="none" stroke="black" points="1416.36,-342.6 1225.36,-342.6 1225.36,-318.6 1416.36,-318.6 1428.36,-330.6 1416.36,-342.6"/>
<text text-anchor="middle" x="1326.86" y="-326.9" font-family="Times,serif" font-size="14.00">L2a_wfov_pc EM gain 1..1</text>
</g>
<!-- l2a_wfov_pc_emg&#45;&gt;trans_wfov_pc_l2a_l2b -->
<g id="edge16" class="edge">
<title>l2a_wfov_pc_emg&#45;&gt;trans_wfov_pc_l2a_l2b</title>
<path fill="none" stroke="black" d="M1428.67,-330.6C1428.67,-330.6 1536.25,-330.6 1536.25,-330.6"/>
<polygon fill="black" stroke="black" points="1536.25,-334.1 1546.25,-330.6 1536.25,-327.1 1536.25,-334.1"/>
</g>
<!-- l2a_wfov_pc_kgain -->
<g id="node22" class="node">
<title>l2a_wfov_pc_kgain</title>
<polygon fill="none" stroke="black" points="1406.86,-288.6 1234.86,-288.6 1234.86,-264.6 1406.86,-264.6 1418.86,-276.6 1406.86,-288.6"/>
<text text-anchor="middle" x="1326.86" y="-272.9" font-family="Times,serif" font-size="14.00">L2a_wfov_pc Kgain 1..1</text>
</g>
<!-- l2a_wfov_pc_kgain&#45;&gt;trans_wfov_pc_l2a_l2b -->
<g id="edge17" class="edge">
<title>l2a_wfov_pc_kgain&#45;&gt;trans_wfov_pc_l2a_l2b</title>
<path fill="none" stroke="black" d="M1419.1,-290.47C1419.1,-290.47 1591.35,-290.47 1591.35,-290.47"/>
<polygon fill="black" stroke="black" points="1591.35,-293.97 1601.35,-290.47 1591.35,-286.97 1591.35,-293.97"/>
</g>
<!-- l2a_wfov_pc_man_demux&#45;&gt;trans_wfov_pc_l2a_l2b -->
<g id="edge23" class="edge">
<title>l2a_wfov_pc_man_demux&#45;&gt;trans_wfov_pc_l2a_l2b</title>
<path fill="none" stroke="black" d="M1453.39,-169.13C1453.39,-198.6 1453.39,-286.33 1453.39,-286.33 1453.39,-286.33 1604.81,-286.33 1604.81,-286.33"/>
<polygon fill="black" stroke="black" points="1604.81,-289.83 1614.81,-286.33 1604.81,-282.83 1604.81,-289.83"/>
</g>
<!-- l2b_wfov_pc_prod&#45;&gt;trans_wfov_pc_l2b_l3 -->
<g id="edge26" class="edge">
<title>l2b_wfov_pc_prod&#45;&gt;trans_wfov_pc_l2b_l3</title>
<path fill="none" stroke="black" d="M2350.07,-516.6C2350.07,-516.6 2755.56,-516.6 2755.56,-516.6"/>
<polygon fill="black" stroke="black" points="2755.56,-520.1 2765.56,-516.6 2755.56,-513.1 2755.56,-520.1"/>
</g>
<!-- l2b_wfov_pc_man&#45;&gt;trans_wfov_pc_l2b_l3 -->
<g id="edge27" class="edge">
<title>l2b_wfov_pc_man&#45;&gt;trans_wfov_pc_l2b_l3</title>
<path fill="none" stroke="black" d="M2671.39,-437.55C2671.39,-449.48 2671.39,-478.84 2671.39,-478.84 2671.39,-478.84 2809.91,-478.84 2809.91,-478.84"/>
<polygon fill="black" stroke="black" points="2809.91,-482.34 2819.91,-478.84 2809.91,-475.34 2809.91,-482.34"/>
</g>
<!-- l2b_wfov_pc_odir -->
<g id="node27" class="node">
<title>l2b_wfov_pc_odir</title>
<ellipse fill="none" stroke="black" cx="2542.23" cy="-762.6" rx="147.57" ry="18"/>
<text text-anchor="middle" x="2542.23" y="-758.9" font-family="Times,serif" font-size="14.00">L2b_wfov_pc output path 1..1</text>
</g>
<!-- l2b_wfov_pc_odir&#45;&gt;trans_wfov_pc_l2b_l3 -->
<g id="edge28" class="edge">
<title>l2b_wfov_pc_odir&#45;&gt;trans_wfov_pc_l2b_l3</title>
<path fill="none" stroke="black" d="M2663.39,-751.95C2663.39,-737.81 2663.39,-714.6 2663.39,-714.6 2663.39,-714.6 2792.81,-714.6 2792.81,-714.6"/>
<polygon fill="black" stroke="black" points="2792.81,-718.1 2802.81,-714.6 2792.81,-711.1 2792.81,-718.1"/>
</g>
<!-- l2b_wfov_pc_rec -->
<g id="node28" class="node">
<title>l2b_wfov_pc_rec</title>
<polygon fill="none" stroke="black" points="2624.23,-720.6 2448.23,-720.6 2448.23,-696.6 2624.23,-696.6 2636.23,-708.6 2624.23,-720.6"/>
<text text-anchor="middle" x="2542.23" y="-704.9" font-family="Times,serif" font-size="14.00">L2b_wfov_pc recipe 1..1</text>
</g>
<!-- l2b_wfov_pc_rec&#45;&gt;trans_wfov_pc_l2b_l3 -->
<g id="edge29" class="edge">
<title>l2b_wfov_pc_rec&#45;&gt;trans_wfov_pc_l2b_l3</title>
<path fill="none" stroke="black" d="M2636.64,-702.6C2636.64,-702.6 2774.42,-702.6 2774.42,-702.6"/>
<polygon fill="black" stroke="black" points="2774.42,-706.1 2784.42,-702.6 2774.42,-699.1 2774.42,-706.1"/>
</g>
<!-- l2b_wfov_pc_excicrf -->
<g id="node29" class="node">
<title>l2b_wfov_pc_excicrf</title>
<polygon fill="none" stroke="black" points="2679.73,-666.6 2392.73,-666.6 2392.73,-642.6 2679.73,-642.6 2691.73,-654.6 2679.73,-666.6"/>
<text text-anchor="middle" x="2542.23" y="-650.9" font-family="Times,serif" font-size="14.00">L2b_wfov_pc EXCAM ICRF location 1..1</text>
</g>
<!-- l2b_wfov_pc_excicrf&#45;&gt;trans_wfov_pc_l2b_l3 -->
<g id="edge30" class="edge">
<title>l2b_wfov_pc_excicrf&#45;&gt;trans_wfov_pc_l2b_l3</title>
<path fill="none" stroke="black" d="M2691.87,-654.6C2691.87,-654.6 2736.19,-654.6 2736.19,-654.6"/>
<polygon fill="black" stroke="black" points="2736.19,-658.1 2746.19,-654.6 2736.19,-651.1 2736.19,-658.1"/>
</g>
<!-- l2b_wfov_pc_excfovps -->
<g id="node30" class="node">
<title>l2b_wfov_pc_excfovps</title>
<polygon fill="none" stroke="black" points="2686.73,-612.6 2385.73,-612.6 2385.73,-588.6 2686.73,-588.6 2698.73,-600.6 2686.73,-612.6"/>
<text text-anchor="middle" x="2542.23" y="-596.9" font-family="Times,serif" font-size="14.00">L2b_wfov_pc EXCAM FOV pixel scale 1..1</text>
</g>
<!-- l2b_wfov_pc_excfovps&#45;&gt;trans_wfov_pc_l2b_l3 -->
<g id="edge31" class="edge">
<title>l2b_wfov_pc_excfovps&#45;&gt;trans_wfov_pc_l2b_l3</title>
<path fill="none" stroke="black" d="M2698.94,-600.6C2698.94,-600.6 2724.27,-600.6 2724.27,-600.6"/>
<polygon fill="black" stroke="black" points="2724.27,-604.1 2734.27,-600.6 2724.27,-597.1 2724.27,-604.1"/>
</g>
<!-- l2b_wfov_pc_distm -->
<g id="node31" class="node">
<title>l2b_wfov_pc_distm</title>
<polygon fill="none" stroke="black" points="2654.23,-558.6 2418.23,-558.6 2418.23,-534.6 2654.23,-534.6 2666.23,-546.6 2654.23,-558.6"/>
<text text-anchor="middle" x="2542.23" y="-542.9" font-family="Times,serif" font-size="14.00">L2b_wfov_pc distortion map 1..1</text>
</g>
<!-- l2b_wfov_pc_distm&#45;&gt;trans_wfov_pc_l2b_l3 -->
<g id="edge32" class="edge">
<title>l2b_wfov_pc_distm&#45;&gt;trans_wfov_pc_l2b_l3</title>
<path fill="none" stroke="black" d="M2666.69,-546.6C2666.69,-546.6 2736.34,-546.6 2736.34,-546.6"/>
<polygon fill="black" stroke="black" points="2736.34,-550.1 2746.34,-546.6 2736.34,-543.1 2736.34,-550.1"/>
</g>
<!-- l2b_wfov_pc_man_demux&#45;&gt;l2b_wfov_pc_mux -->
<g id="edge24" class="edge">
<title>l2b_wfov_pc_man_demux&#45;&gt;l2b_wfov_pc_mux</title>
<path fill="none" stroke="black" d="M2108.08,-411.6C2108.08,-411.6 2142.37,-411.6 2142.37,-411.6"/>
<polygon fill="black" stroke="black" points="2142.37,-415.1 2152.37,-411.6 2142.37,-408.1 2142.37,-415.1"/>
</g>
<!-- l3_wfov_pc_prod&#45;&gt;trans_wfov_pc_l3_l4 -->
<g id="edge36" class="edge">
<title>l3_wfov_pc_prod&#45;&gt;trans_wfov_pc_l3_l4</title>
<path fill="none" stroke="black" d="M3270.07,-654.6C3270.07,-654.6 3350.61,-654.6 3350.61,-654.6"/>
<polygon fill="black" stroke="black" points="3350.61,-658.1 3360.61,-654.6 3350.61,-651.1 3350.61,-658.1"/>
</g>
<!-- l3_wfov_pc_odir -->
<g id="node35" class="node">
<title>l3_wfov_pc_odir</title>
<ellipse fill="none" stroke="black" cx="3171.22" cy="-816.6" rx="141.88" ry="18"/>
<text text-anchor="middle" x="3171.22" y="-812.9" font-family="Times,serif" font-size="14.00">L3_wfov_pc output path 1..1</text>
</g>
<!-- l3_wfov_pc_odir&#45;&gt;trans_wfov_pc_l3_l4 -->
<g id="edge38" class="edge">
<title>l3_wfov_pc_odir&#45;&gt;trans_wfov_pc_l3_l4</title>
<path fill="none" stroke="black" d="M3313.08,-816.6C3313.08,-816.6 3396.89,-816.6 3396.89,-816.6"/>
<polygon fill="black" stroke="black" points="3396.89,-820.1 3406.89,-816.6 3396.89,-813.1 3396.89,-820.1"/>
</g>
<!-- l3_wfov_pc_man&#45;&gt;trans_wfov_pc_l3_l4 -->
<g id="edge37" class="edge">
<title>l3_wfov_pc_man&#45;&gt;trans_wfov_pc_l3_l4</title>
<path fill="none" stroke="black" d="M3299.67,-600.6C3299.67,-600.6 3396.85,-600.6 3396.85,-600.6"/>
<polygon fill="black" stroke="black" points="3396.85,-604.1 3406.85,-600.6 3396.85,-597.1 3396.85,-604.1"/>
</g>
<!-- l3_wfov_pc_rec -->
<g id="node37" class="node">
<title>l3_wfov_pc_rec</title>
<polygon fill="none" stroke="black" points="3248.72,-774.6 3081.72,-774.6 3081.72,-750.6 3248.72,-750.6 3260.72,-762.6 3248.72,-774.6"/>
<text text-anchor="middle" x="3171.22" y="-758.9" font-family="Times,serif" font-size="14.00">L3_wfov_pc recipe 1..1</text>
</g>
<!-- l3_wfov_pc_rec&#45;&gt;trans_wfov_pc_l3_l4 -->
<g id="edge39" class="edge">
<title>l3_wfov_pc_rec&#45;&gt;trans_wfov_pc_l3_l4</title>
<path fill="none" stroke="black" d="M3260.87,-762.6C3260.87,-762.6 3350.54,-762.6 3350.54,-762.6"/>
<polygon fill="black" stroke="black" points="3350.54,-766.1 3360.54,-762.6 3350.54,-759.1 3350.54,-766.1"/>
</g>
<!-- l3_wfov_pc_cal -->
<g id="node38" class="node">
<title>l3_wfov_pc_cal</title>
<polygon fill="none" stroke="black" points="3264.72,-720.6 3065.72,-720.6 3065.72,-696.6 3264.72,-696.6 3276.72,-708.6 3264.72,-720.6"/>
<text text-anchor="middle" x="3171.22" y="-704.9" font-family="Times,serif" font-size="14.00">L3_wfov_pc calibration 1..1</text>
</g>
<!-- l3_wfov_pc_cal&#45;&gt;trans_wfov_pc_l3_l4 -->
<g id="edge40" class="edge">
<title>l3_wfov_pc_cal&#45;&gt;trans_wfov_pc_l3_l4</title>
<path fill="none" stroke="black" d="M3276.9,-708.6C3276.9,-708.6 3338.81,-708.6 3338.81,-708.6"/>
<polygon fill="black" stroke="black" points="3338.81,-712.1 3348.81,-708.6 3338.81,-705.1 3338.81,-712.1"/>
</g>
<!-- l4_wfov_pc_prod&#45;&gt;trans_wfov_pc_l4_tda -->
<g id="edge44" class="edge">
<title>l4_wfov_pc_prod&#45;&gt;trans_wfov_pc_l4_tda</title>
<path fill="none" stroke="black" d="M3911.88,-768.6C3911.88,-768.6 4058.4,-768.6 4058.4,-768.6"/>
<polygon fill="black" stroke="black" points="4058.4,-772.1 4068.4,-768.6 4058.4,-765.1 4058.4,-772.1"/>
</g>
<!-- l4_wfov_pc_odir -->
<g id="node41" class="node">
<title>l4_wfov_pc_odir</title>
<ellipse fill="none" stroke="black" cx="3813.21" cy="-1032.6" rx="141.88" ry="18"/>
<text text-anchor="middle" x="3813.21" y="-1028.9" font-family="Times,serif" font-size="14.00">L4_wfov_pc output path 1..1</text>
</g>
<!-- l4_wfov_pc_odir&#45;&gt;trans_wfov_pc_l4_tda -->
<g id="edge46" class="edge">
<title>l4_wfov_pc_odir&#45;&gt;trans_wfov_pc_l4_tda</title>
<path fill="none" stroke="black" d="M3929.39,-1021.95C3929.39,-1007.81 3929.39,-984.6 3929.39,-984.6 3929.39,-984.6 4076.6,-984.6 4076.6,-984.6"/>
<polygon fill="black" stroke="black" points="4076.6,-988.1 4086.6,-984.6 4076.6,-981.1 4076.6,-988.1"/>
</g>
<!-- l4_wfov_pc_man&#45;&gt;trans_wfov_pc_l4_tda -->
<g id="edge45" class="edge">
<title>l4_wfov_pc_man&#45;&gt;trans_wfov_pc_l4_tda</title>
<path fill="none" stroke="black" d="M3928.39,-662.61C3928.39,-686.65 3928.39,-756.6 3928.39,-756.6 3928.39,-756.6 4076.61,-756.6 4076.61,-756.6"/>
<polygon fill="black" stroke="black" points="4076.61,-760.1 4086.61,-756.6 4076.61,-753.1 4076.61,-760.1"/>
</g>
<!-- l4_wfov_pc_rec -->
<g id="node44" class="node">
<title>l4_wfov_pc_rec</title>
<polygon fill="none" stroke="black" points="3890.71,-990.6 3723.71,-990.6 3723.71,-966.6 3890.71,-966.6 3902.71,-978.6 3890.71,-990.6"/>
<text text-anchor="middle" x="3813.21" y="-974.9" font-family="Times,serif" font-size="14.00">L4_wfov_pc recipe 1..1</text>
</g>
<!-- l4_wfov_pc_rec&#45;&gt;trans_wfov_pc_l4_tda -->
<g id="edge47" class="edge">
<title>l4_wfov_pc_rec&#45;&gt;trans_wfov_pc_l4_tda</title>
<path fill="none" stroke="black" d="M3902.95,-972.6C3902.95,-972.6 4058.4,-972.6 4058.4,-972.6"/>
<polygon fill="black" stroke="black" points="4058.4,-976.1 4068.4,-972.6 4058.4,-969.1 4058.4,-976.1"/>
</g>
<!-- l4_wfov_pc_afcal -->
<g id="node45" class="node">
<title>l4_wfov_pc_afcal</title>
<polygon fill="none" stroke="black" points="3958.21,-936.6 3656.21,-936.6 3656.21,-912.6 3958.21,-912.6 3970.21,-924.6 3958.21,-936.6"/>
<text text-anchor="middle" x="3813.21" y="-920.9" font-family="Times,serif" font-size="14.00">L4_wfov_pc absolute flux calibrations 1..1</text>
</g>
<!-- l4_wfov_pc_afcal&#45;&gt;trans_wfov_pc_l4_tda -->
<g id="edge48" class="edge">
<title>l4_wfov_pc_afcal&#45;&gt;trans_wfov_pc_l4_tda</title>
<path fill="none" stroke="black" d="M3970.36,-924.6C3970.36,-924.6 4020.45,-924.6 4020.45,-924.6"/>
<polygon fill="black" stroke="black" points="4020.45,-928.1 4030.45,-924.6 4020.45,-921.1 4020.45,-928.1"/>
</g>
<!-- l4_wfov_pc_ctcal -->
<g id="node46" class="node">
<title>l4_wfov_pc_ctcal</title>
<polygon fill="none" stroke="black" points="3970.71,-882.6 3643.71,-882.6 3643.71,-858.6 3970.71,-858.6 3982.71,-870.6 3970.71,-882.6"/>
<text text-anchor="middle" x="3813.21" y="-866.9" font-family="Times,serif" font-size="14.00">L4_wfov_pc core throughput calibrations 1..1</text>
</g>
<!-- l4_wfov_pc_ctcal&#45;&gt;trans_wfov_pc_l4_tda -->
<g id="edge49" class="edge">
<title>l4_wfov_pc_ctcal&#45;&gt;trans_wfov_pc_l4_tda</title>
<path fill="none" stroke="black" d="M3983.11,-870.6C3983.11,-870.6 4008.28,-870.6 4008.28,-870.6"/>
<polygon fill="black" stroke="black" points="4008.28,-874.1 4018.28,-870.6 4008.28,-867.1 4008.28,-874.1"/>
</g>
<!-- l4_wfov_pc_ndfilt -->
<g id="node47" class="node">
<title>l4_wfov_pc_ndfilt</title>
<polygon fill="none" stroke="black" points="3899.71,-828.6 3714.71,-828.6 3714.71,-804.6 3899.71,-804.6 3911.71,-816.6 3899.71,-828.6"/>
<text text-anchor="middle" x="3813.21" y="-812.9" font-family="Times,serif" font-size="14.00">L4_wfov_pc ND filter 1..1</text>
</g>
<!-- l4_wfov_pc_ndfilt&#45;&gt;trans_wfov_pc_l4_tda -->
<g id="edge50" class="edge">
<title>l4_wfov_pc_ndfilt&#45;&gt;trans_wfov_pc_l4_tda</title>
<path fill="none" stroke="black" d="M3911.88,-816.6C3911.88,-816.6 4020.34,-816.6 4020.34,-816.6"/>
<polygon fill="black" stroke="black" points="4020.34,-820.1 4030.34,-816.6 4020.34,-813.1 4020.34,-820.1"/>
</g>
</g>
</svg>
