<?xml version="1.0" encoding="UTF-8" standalone="no"?>
<!DOCTYPE svg PUBLIC "-//W3C//DTD SVG 1.1//EN"
 "http://www.w3.org/Graphics/SVG/1.1/DTD/svg11.dtd">
<!-- Generated by graphviz version 2.43.0 (0)
 -->
<!-- Title: Clerks Pages: 1 -->
<svg width="610pt" height="749pt"
 viewBox="0.00 0.00 610.27 749.00" xmlns="http://www.w3.org/2000/svg" xmlns:xlink="http://www.w3.org/1999/xlink">
<g id="graph0" class="graph" transform="scale(1 1) rotate(0) translate(4 745)">
<title>Clerks</title>
<polygon fill="white" stroke="transparent" points="-4,4 -4,-745 606.27,-745 606.27,4 -4,4"/>
<!-- alarm_cal -->
<g id="node1" class="node">
<title>alarm_cal</title>
<text text-anchor="middle" x="59.79" y="-257.3" font-family="Times,serif" font-size="14.00">Update TBD</text>
</g>
<!-- calib -->
<g id="node3" class="node">
<title>calib</title>
<ellipse fill="none" stroke="black" cx="278.43" cy="-261" rx="50.09" ry="50.09"/>
<text text-anchor="middle" x="278.43" y="-257.3" font-family="Times,serif" font-size="14.00">Calibration</text>
</g>
<!-- alarm_cal&#45;&gt;calib -->
<g id="edge1" class="edge">
<title>alarm_cal&#45;&gt;calib</title>
<path fill="none" stroke="black" stroke-dasharray="5,2" d="M102.99,-261C102.99,-261 218.04,-261 218.04,-261"/>
<polygon fill="black" stroke="black" points="218.04,-264.5 228.04,-261 218.04,-257.5 218.04,-264.5"/>
</g>
<!-- alarm_rec -->
<g id="node2" class="node">
<title>alarm_rec</title>
<text text-anchor="middle" x="59.79" y="-581.3" font-family="Times,serif" font-size="14.00">Update TBD</text>
</g>
<!-- recipe -->
<g id="node5" class="node">
<title>recipe</title>
<ellipse fill="none" stroke="black" cx="278.43" cy="-585" rx="35.19" ry="35.19"/>
<text text-anchor="middle" x="278.43" y="-581.3" font-family="Times,serif" font-size="14.00">Recipe</text>
</g>
<!-- alarm_rec&#45;&gt;recipe -->
<g id="edge2" class="edge">
<title>alarm_rec&#45;&gt;recipe</title>
<path fill="none" stroke="black" stroke-dasharray="5,2" d="M102.99,-585C102.99,-585 233.25,-585 233.25,-585"/>
<polygon fill="black" stroke="black" points="233.25,-588.5 243.25,-585 233.25,-581.5 233.25,-588.5"/>
</g>
<!-- eng_a_cpgs -->
<g id="node6" class="node">
<title>eng_a_cpgs</title>
<polygon fill="none" stroke="black" points="563.27,-516 464.27,-516 464.27,-492 563.27,-492 575.27,-504 563.27,-516"/>
<text text-anchor="middle" x="519.77" y="-500.3" font-family="Times,serif" font-size="14.00">CPGS eng_a 1..1</text>
</g>
<!-- calib&#45;&gt;eng_a_cpgs -->
<g id="edge3" class="edge">
<title>calib&#45;&gt;eng_a_cpgs</title>
<path fill="none" stroke="black" d="M317.27,-292.77C317.27,-358.64 317.27,-504 317.27,-504 317.27,-504 454.17,-504 454.17,-504"/>
<polygon fill="black" stroke="black" points="454.17,-507.5 464.17,-504 454.17,-500.5 454.17,-507.5"/>
</g>
<!-- l1_eng_a_nln -->
<g id="node9" class="node">
<title>l1_eng_a_nln</title>
<polygon fill="none" stroke="black" points="586.77,-462 440.77,-462 440.77,-438 586.77,-438 598.77,-450 586.77,-462"/>
<text text-anchor="middle" x="519.77" y="-446.3" font-family="Times,serif" font-size="14.00">non linear calibration 1..1</text>
</g>
<!-- calib&#45;&gt;l1_eng_a_nln -->
<g id="edge4" class="edge">
<title>calib&#45;&gt;l1_eng_a_nln</title>
<path fill="none" stroke="black" d="M320.27,-288.48C320.27,-340.9 320.27,-450 320.27,-450 320.27,-450 430.63,-450 430.63,-450"/>
<polygon fill="black" stroke="black" points="430.63,-453.5 440.63,-450 430.63,-446.5 430.63,-453.5"/>
</g>
<!-- l2a_eng_a_bpm -->
<g id="node12" class="node">
<title>l2a_eng_a_bpm</title>
<polygon fill="none" stroke="black" points="567.27,-408 460.27,-408 460.27,-384 567.27,-384 579.27,-396 567.27,-408"/>
<text text-anchor="middle" x="519.77" y="-392.3" font-family="Times,serif" font-size="14.00">bad pixel map 1..1</text>
</g>
<!-- calib&#45;&gt;l2a_eng_a_bpm -->
<g id="edge5" class="edge">
<title>calib&#45;&gt;l2a_eng_a_bpm</title>
<path fill="none" stroke="black" d="M323.27,-283.29C323.27,-321.64 323.27,-396 323.27,-396 323.27,-396 450.01,-396 450.01,-396"/>
<polygon fill="black" stroke="black" points="450.01,-399.5 460.01,-396 450.01,-392.5 450.01,-399.5"/>
</g>
<!-- l2a_eng_a_dt -->
<g id="node13" class="node">
<title>l2a_eng_a_dt</title>
<polygon fill="none" stroke="black" points="574.77,-354 452.77,-354 452.77,-330 574.77,-330 586.77,-342 574.77,-354"/>
<text text-anchor="middle" x="519.77" y="-338.3" font-family="Times,serif" font-size="14.00">dark (traditional) 1..1</text>
</g>
<!-- calib&#45;&gt;l2a_eng_a_dt -->
<g id="edge6" class="edge">
<title>calib&#45;&gt;l2a_eng_a_dt</title>
<path fill="none" stroke="black" d="M326.27,-275.86C326.27,-299.24 326.27,-342 326.27,-342 326.27,-342 442.63,-342 442.63,-342"/>
<polygon fill="black" stroke="black" points="442.63,-345.5 452.63,-342 442.63,-338.5 442.63,-345.5"/>
</g>
<!-- l2a_eng_a_ds -->
<g id="node14" class="node">
<title>l2a_eng_a_ds</title>
<polygon fill="none" stroke="black" points="577.77,-300 449.77,-300 449.77,-276 577.77,-276 589.77,-288 577.77,-300"/>
<text text-anchor="middle" x="519.77" y="-284.3" font-family="Times,serif" font-size="14.00">dark (synthetized) 1..1</text>
</g>
<!-- calib&#45;&gt;l2a_eng_a_ds -->
<g id="edge7" class="edge">
<title>calib&#45;&gt;l2a_eng_a_ds</title>
<path fill="none" stroke="black" d="M320.74,-288C320.74,-288 439.56,-288 439.56,-288"/>
<polygon fill="black" stroke="black" points="439.56,-291.5 449.56,-288 439.56,-284.5 439.56,-291.5"/>
</g>
<!-- l2a_eng_a_dn -->
<g id="node15" class="node">
<title>l2a_eng_a_dn</title>
<polygon fill="none" stroke="black" points="590.27,-246 437.27,-246 437.27,-222 590.27,-222 602.27,-234 590.27,-246"/>
<text text-anchor="middle" x="519.77" y="-230.3" font-family="Times,serif" font-size="14.00">dark (from noise map) 1..1</text>
</g>
<!-- calib&#45;&gt;l2a_eng_a_dn -->
<g id="edge8" class="edge">
<title>calib&#45;&gt;l2a_eng_a_dn</title>
<path fill="none" stroke="black" d="M320.74,-234C320.74,-234 426.93,-234 426.93,-234"/>
<polygon fill="black" stroke="black" points="426.93,-237.5 436.93,-234 426.93,-230.5 426.93,-237.5"/>
</g>
<!-- l2a_eng_a_nm -->
<g id="node16" class="node">
<title>l2a_eng_a_nm</title>
<polygon fill="none" stroke="black" points="559.27,-192 468.27,-192 468.27,-168 559.27,-168 571.27,-180 559.27,-192"/>
<text text-anchor="middle" x="519.77" y="-176.3" font-family="Times,serif" font-size="14.00">noise maps 1..1</text>
</g>
<!-- calib&#45;&gt;l2a_eng_a_nm -->
<g id="edge9" class="edge">
<title>calib&#45;&gt;l2a_eng_a_nm</title>
<path fill="none" stroke="black" d="M309.27,-221.45C309.27,-200.89 309.27,-180 309.27,-180 309.27,-180 458,-180 458,-180"/>
<polygon fill="black" stroke="black" points="458,-183.5 468,-180 458,-176.5 458,-183.5"/>
</g>
<!-- l2a_eng_a_ff -->
<g id="node17" class="node">
<title>l2a_eng_a_ff</title>
<polygon fill="none" stroke="black" points="551.77,-138 475.77,-138 475.77,-114 551.77,-114 563.77,-126 551.77,-138"/>
<text text-anchor="middle" x="519.77" y="-122.3" font-family="Times,serif" font-size="14.00">flat field 1..1</text>
</g>
<!-- calib&#45;&gt;l2a_eng_a_ff -->
<g id="edge10" class="edge">
<title>calib&#45;&gt;l2a_eng_a_ff</title>
<path fill="none" stroke="black" d="M289.27,-211.88C289.27,-173.28 289.27,-126 289.27,-126 289.27,-126 465.6,-126 465.6,-126"/>
<polygon fill="black" stroke="black" points="465.6,-129.5 475.6,-126 465.6,-122.5 465.6,-129.5"/>
</g>
<!-- l2a_eng_a_kg -->
<g id="node18" class="node">
<title>l2a_eng_a_kg</title>
<polygon fill="none" stroke="black" points="545.77,-84 481.77,-84 481.77,-60 545.77,-60 557.77,-72 545.77,-84"/>
<text text-anchor="middle" x="519.77" y="-68.3" font-family="Times,serif" font-size="14.00">k&#45;gain 1..1</text>
</g>
<!-- calib&#45;&gt;l2a_eng_a_kg -->
<g id="edge11" class="edge">
<title>calib&#45;&gt;l2a_eng_a_kg</title>
<path fill="none" stroke="black" d="M269.27,-211.34C269.27,-155.35 269.27,-72 269.27,-72 269.27,-72 471.72,-72 471.72,-72"/>
<polygon fill="black" stroke="black" points="471.72,-75.5 481.72,-72 471.72,-68.5 471.72,-75.5"/>
</g>
<!-- l2a_eng_a_emg -->
<g id="node19" class="node">
<title>l2a_eng_a_emg</title>
<polygon fill="none" stroke="black" points="552.27,-30 475.27,-30 475.27,-6 552.27,-6 564.27,-18 552.27,-30"/>
<text text-anchor="middle" x="519.77" y="-14.3" font-family="Times,serif" font-size="14.00">EM gain 1..1</text>
</g>
<!-- calib&#45;&gt;l2a_eng_a_emg -->
<g id="edge12" class="edge">
<title>calib&#45;&gt;l2a_eng_a_emg</title>
<path fill="none" stroke="black" d="M249.27,-220.33C249.27,-151.15 249.27,-18 249.27,-18 249.27,-18 465.1,-18 465.1,-18"/>
<polygon fill="black" stroke="black" points="465.1,-21.5 475.1,-18 465.1,-14.5 465.1,-21.5"/>
</g>
<!-- config -->
<g id="node4" class="node">
<title>config</title>
<ellipse fill="none" stroke="black" cx="59.79" cy="-681" rx="59.59" ry="59.59"/>
<text text-anchor="middle" x="59.79" y="-677.3" font-family="Times,serif" font-size="14.00">Configuration</text>
</g>
<!-- l1_eng_a_odir -->
<g id="node7" class="node">
<title>l1_eng_a_odir</title>
<ellipse fill="none" stroke="black" cx="278.43" cy="-723" rx="118.88" ry="18"/>
<text text-anchor="middle" x="278.43" y="-719.3" font-family="Times,serif" font-size="14.00">Output path for L1_eng_a 1..1</text>
</g>
<!-- config&#45;&gt;l1_eng_a_odir -->
<g id="edge13" class="edge">
<title>config&#45;&gt;l1_eng_a_odir</title>
<path fill="none" stroke="black" d="M102.47,-722.9C102.47,-722.9 149.09,-722.9 149.09,-722.9"/>
<polygon fill="black" stroke="black" points="149.09,-726.4 159.09,-722.9 149.09,-719.4 149.09,-726.4"/>
</g>
<!-- l2a_eng_a_odir -->
<g id="node10" class="node">
<title>l2a_eng_a_odir</title>
<ellipse fill="none" stroke="black" cx="278.43" cy="-669" rx="122.68" ry="18"/>
<text text-anchor="middle" x="278.43" y="-665.3" font-family="Times,serif" font-size="14.00">Output path for L2a_eng_a 1..1</text>
</g>
<!-- config&#45;&gt;l2a_eng_a_odir -->
<g id="edge14" class="edge">
<title>config&#45;&gt;l2a_eng_a_odir</title>
<path fill="none" stroke="black" d="M118.38,-669C118.38,-669 145.52,-669 145.52,-669"/>
<polygon fill="black" stroke="black" points="145.52,-672.5 155.52,-669 145.52,-665.5 145.52,-672.5"/>
</g>
<!-- l1_eng_a_rec -->
<g id="node8" class="node">
<title>l1_eng_a_rec</title>
<polygon fill="none" stroke="black" points="573.77,-624 453.77,-624 453.77,-600 573.77,-600 585.77,-612 573.77,-624"/>
<text text-anchor="middle" x="519.77" y="-608.3" font-family="Times,serif" font-size="14.00">recipe L1_eng_a 1..1</text>
</g>
<!-- recipe&#45;&gt;l1_eng_a_rec -->
<g id="edge15" class="edge">
<title>recipe&#45;&gt;l1_eng_a_rec</title>
<path fill="none" stroke="black" d="M306.11,-607.05C306.11,-607.05 443.59,-607.05 443.59,-607.05"/>
<polygon fill="black" stroke="black" points="443.59,-610.55 453.59,-607.05 443.59,-603.55 443.59,-610.55"/>
</g>
<!-- l2a_eng_a_rec -->
<g id="node11" class="node">
<title>l2a_eng_a_rec</title>
<polygon fill="none" stroke="black" points="576.27,-570 451.27,-570 451.27,-546 576.27,-546 588.27,-558 576.27,-570"/>
<text text-anchor="middle" x="519.77" y="-554.3" font-family="Times,serif" font-size="14.00">recipe L2s_eng_a 1..1</text>
</g>
<!-- recipe&#45;&gt;l2a_eng_a_rec -->
<g id="edge16" class="edge">
<title>recipe&#45;&gt;l2a_eng_a_rec</title>
<path fill="none" stroke="black" d="M306.11,-562.95C306.11,-562.95 441.06,-562.95 441.06,-562.95"/>
<polygon fill="black" stroke="black" points="441.06,-566.45 451.06,-562.95 441.06,-559.45 441.06,-566.45"/>
</g>
</g>
</svg>
