<?xml version="1.0" encoding="UTF-8" standalone="no"?>
<!DOCTYPE svg PUBLIC "-//W3C//DTD SVG 1.1//EN"
 "http://www.w3.org/Graphics/SVG/1.1/DTD/svg11.dtd">
<!-- Generated by graphviz version 2.43.0 (0)
 -->
<!-- Title: transmutation_fsm Pages: 1 -->
<svg width="359pt" height="936pt"
 viewBox="0.00 0.00 358.89 936.06" xmlns="http://www.w3.org/2000/svg" xmlns:xlink="http://www.w3.org/1999/xlink">
<g id="graph0" class="graph" transform="scale(1 1) rotate(0) translate(4 932.06)">
<title>transmutation_fsm</title>
<polygon fill="white" stroke="transparent" points="-4,4 -4,-932.06 354.89,-932.06 354.89,4 -4,4"/>
<!-- cons -->
<g id="cons" class="node">
<title>cons</title>
<ellipse fill="none" stroke="black" cx="194.89" cy="-770.16" rx="55.79" ry="55.79"/>
<text text-anchor="middle" x="194.89" y="-766.46" font-family="Times,serif" font-size="14.00">Construction</text>
</g>
<!-- delg -->
<g id="delg" class="node">
<title>delg</title>
<ellipse fill="none" stroke="black" cx="194.89" cy="-613.87" rx="49.29" ry="49.29"/>
<text text-anchor="middle" x="194.89" y="-610.17" font-family="Times,serif" font-size="14.00">Delegation</text>
</g>
<!-- cons&#45;&gt;delg -->
<g id="edge2" class="edge">
<title>cons&#45;&gt;delg</title>
<path fill="none" stroke="black" d="M194.89,-713.9C194.89,-700.87 194.89,-686.93 194.89,-673.74"/>
<polygon fill="black" stroke="black" points="198.39,-673.36 194.89,-663.36 191.39,-673.36 198.39,-673.36"/>
<text text-anchor="middle" x="223.89" y="-685.07" font-family="Times,serif" font-size="14.00">workspace</text>
</g>
<!-- panic -->
<g id="panic" class="node">
<title>panic</title>
<ellipse fill="none" stroke="black" cx="290.89" cy="-453.93" rx="30.59" ry="30.59"/>
<text text-anchor="middle" x="290.89" y="-450.23" font-family="Times,serif" font-size="14.00">Panic</text>
</g>
<!-- cons&#45;&gt;panic -->
<g id="edge7" class="edge">
<title>cons&#45;&gt;panic</title>
<path fill="none" stroke="black" d="M234.79,-730.37C243.35,-720.06 251.45,-708.39 256.89,-696.27 286.63,-630.11 291.79,-544.34 291.95,-494.89"/>
<polygon fill="black" stroke="black" points="295.45,-494.6 291.91,-484.61 288.45,-494.62 295.45,-494.6"/>
<text text-anchor="middle" x="317.89" y="-617.67" font-family="Times,serif" font-size="14.00">no</text>
<text text-anchor="middle" x="317.89" y="-602.67" font-family="Times,serif" font-size="14.00">workspace</text>
</g>
<!-- gq -->
<g id="gq" class="node">
<title>gq</title>
<ellipse fill="none" stroke="black" cx="57.89" cy="-453.93" rx="44.6" ry="44.6"/>
<text text-anchor="middle" x="57.89" y="-457.73" font-family="Times,serif" font-size="14.00">General</text>
<text text-anchor="middle" x="57.89" y="-442.73" font-family="Times,serif" font-size="14.00">Quarters</text>
</g>
<!-- delg&#45;&gt;gq -->
<g id="edge11" class="edge">
<title>delg&#45;&gt;gq</title>
<path fill="none" stroke="black" d="M146.42,-603.75C114.44,-594.94 74.88,-578.08 54.89,-546.48 47.65,-535.02 45.56,-521.04 46,-507.48"/>
<polygon fill="black" stroke="black" points="49.51,-507.49 46.78,-497.25 42.53,-506.96 49.51,-507.49"/>
<text text-anchor="middle" x="85.39" y="-535.28" font-family="Times,serif" font-size="14.00">incomplete</text>
<text text-anchor="middle" x="85.39" y="-520.28" font-family="Times,serif" font-size="14.00">products</text>
</g>
<!-- delg&#45;&gt;panic -->
<g id="edge12" class="edge">
<title>delg&#45;&gt;panic</title>
<path fill="none" stroke="black" d="M206.81,-565.82C212.14,-549.46 219.41,-531.47 228.89,-516.48 230.22,-514.38 246.33,-498.4 261.8,-483.25"/>
<polygon fill="black" stroke="black" points="264.57,-485.44 269.27,-475.94 259.68,-480.43 264.57,-485.44"/>
<text text-anchor="middle" x="252.39" y="-535.28" font-family="Times,serif" font-size="14.00">no</text>
<text text-anchor="middle" x="252.39" y="-520.28" font-family="Times,serif" font-size="14.00">products</text>
</g>
<!-- ware -->
<g id="ware" class="node">
<title>ware</title>
<ellipse fill="none" stroke="black" cx="194.89" cy="-293.34" rx="50.09" ry="50.09"/>
<text text-anchor="middle" x="194.89" y="-289.64" font-family="Times,serif" font-size="14.00">Warehouse</text>
</g>
<!-- delg&#45;&gt;ware -->
<g id="edge5" class="edge">
<title>delg&#45;&gt;ware</title>
<path fill="none" stroke="black" d="M194.89,-564.15C194.89,-507.64 194.89,-414.49 194.89,-353.78"/>
<polygon fill="black" stroke="black" points="198.39,-353.58 194.89,-343.58 191.39,-353.58 198.39,-353.58"/>
<text text-anchor="middle" x="218.39" y="-457.73" font-family="Times,serif" font-size="14.00">all</text>
<text text-anchor="middle" x="218.39" y="-442.73" font-family="Times,serif" font-size="14.00">products</text>
</g>
<!-- fini -->
<g id="fini" class="node">
<title>fini</title>
<text text-anchor="middle" x="194.89" y="-14.3" font-family="Times,serif" font-size="14.00">final</text>
</g>
<!-- gq&#45;&gt;delg -->
<g id="edge8" class="edge">
<title>gq&#45;&gt;delg</title>
<path fill="none" stroke="black" d="M24.46,-483.46C6.87,-501.99 -8.37,-526.34 5.89,-546.48 35,-587.55 91.6,-603.4 135.31,-609.42"/>
<polygon fill="black" stroke="black" points="134.91,-612.9 145.27,-610.66 135.77,-605.95 134.91,-612.9"/>
<text text-anchor="middle" x="18.89" y="-527.78" font-family="Times,serif" font-size="14.00">retry</text>
</g>
<!-- gq&#45;&gt;panic -->
<g id="edge10" class="edge">
<title>gq&#45;&gt;panic</title>
<path fill="none" stroke="black" d="M80.62,-492.53C90.77,-506.03 104.04,-519.64 119.89,-526.98 144.09,-538.18 153.78,-532.37 179.89,-526.98 211.18,-520.51 219.42,-516.36 245.89,-498.48 252.03,-494.33 258.06,-489.28 263.6,-484.09"/>
<polygon fill="black" stroke="black" points="266.14,-486.5 270.83,-477 261.24,-481.5 266.14,-486.5"/>
<text text-anchor="middle" x="149.89" y="-527.78" font-family="Times,serif" font-size="14.00">foundering</text>
</g>
<!-- sant -->
<g id="sant" class="node">
<title>sant</title>
<ellipse fill="none" stroke="black" cx="194.89" cy="-139.65" rx="52.79" ry="52.79"/>
<text text-anchor="middle" x="194.89" y="-135.95" font-family="Times,serif" font-size="14.00">Sanitization</text>
</g>
<!-- gq&#45;&gt;sant -->
<g id="edge3" class="edge">
<title>gq&#45;&gt;sant</title>
<path fill="none" stroke="black" d="M57.9,-409.19C59.57,-365.05 66.86,-296.03 93.89,-243.29 106.38,-218.94 126.65,-196.64 145.78,-179.1"/>
<polygon fill="black" stroke="black" points="148.18,-181.64 153.31,-172.37 143.52,-176.42 148.18,-181.64"/>
<text text-anchor="middle" x="114.89" y="-289.64" font-family="Times,serif" font-size="14.00">secured</text>
</g>
<!-- gq&#45;&gt;ware -->
<g id="edge9" class="edge">
<title>gq&#45;&gt;ware</title>
<path fill="none" stroke="black" d="M83.26,-416.76C95.82,-399.53 111.55,-378.9 126.89,-361.38 134.5,-352.7 142.99,-343.78 151.33,-335.4"/>
<polygon fill="black" stroke="black" points="153.97,-337.72 158.6,-328.19 149.03,-332.75 153.97,-337.72"/>
<text text-anchor="middle" x="153.89" y="-372.68" font-family="Times,serif" font-size="14.00">recovered</text>
</g>
<!-- panic&#45;&gt;sant -->
<g id="edge4" class="edge">
<title>panic&#45;&gt;sant</title>
<path fill="none" stroke="black" d="M290.1,-423.11C287.83,-375.85 279.11,-281.78 245.89,-210.29 242.56,-203.12 238.44,-195.95 234,-189.09"/>
<polygon fill="black" stroke="black" points="236.73,-186.89 228.22,-180.57 230.94,-190.81 236.73,-186.89"/>
<text text-anchor="middle" x="316.89" y="-289.64" font-family="Times,serif" font-size="14.00">sent up flare</text>
</g>
<!-- sant&#45;&gt;fini -->
<g id="edge14" class="edge">
<title>sant&#45;&gt;fini</title>
<path fill="none" stroke="black" d="M194.89,-86.86C194.89,-72.94 194.89,-58.42 194.89,-46.4"/>
<polygon fill="black" stroke="black" points="198.39,-46.16 194.89,-36.16 191.39,-46.16 198.39,-46.16"/>
<text text-anchor="middle" x="209.39" y="-57.8" font-family="Times,serif" font-size="14.00">clean</text>
</g>
<!-- strt -->
<g id="start" class="node">
<title>strt</title>
<text text-anchor="middle" x="194.89" y="-906.36" font-family="Times,serif" font-size="14.00">start</text>
</g>
<!-- strt&#45;&gt;cons -->
<g id="edge1" class="edge">
<title>strt&#45;&gt;cons</title>
<path fill="none" stroke="black" d="M194.89,-891.87C194.89,-877.73 194.89,-856.73 194.89,-836.2"/>
<polygon fill="black" stroke="black" points="198.39,-836.19 194.89,-826.19 191.39,-836.19 198.39,-836.19"/>
<text text-anchor="middle" x="208.89" y="-862.86" font-family="Times,serif" font-size="14.00">new</text>
<text text-anchor="middle" x="208.89" y="-847.86" font-family="Times,serif" font-size="14.00">work</text>
</g>
<!-- ware&#45;&gt;panic -->
<g id="edge13" class="edge">
<title>ware&#45;&gt;panic</title>
<path fill="none" stroke="black" d="M210.49,-341.38C216.91,-357.81 225.14,-375.99 234.89,-391.38 242.47,-403.34 252.45,-415.17 261.89,-425.21"/>
<polygon fill="black" stroke="black" points="259.49,-427.75 268.95,-432.51 264.52,-422.89 259.49,-427.75"/>
<text text-anchor="middle" x="254.89" y="-380.18" font-family="Times,serif" font-size="14.00">no</text>
<text text-anchor="middle" x="254.89" y="-365.18" font-family="Times,serif" font-size="14.00">archive</text>
</g>
<!-- ware&#45;&gt;sant -->
<g id="edge6" class="edge">
<title>ware&#45;&gt;sant</title>
<path fill="none" stroke="black" d="M194.89,-243.09C194.89,-230.2 194.89,-216.13 194.89,-202.67"/>
<polygon fill="black" stroke="black" points="198.39,-202.52 194.89,-192.52 191.39,-202.52 198.39,-202.52"/>
<text text-anchor="middle" x="218.39" y="-214.09" font-family="Times,serif" font-size="14.00">archived</text>
</g>
</g>
</svg>
