<?xml version="1.0" encoding="UTF-8" standalone="no"?>
<!DOCTYPE svg PUBLIC "-//W3C//DTD SVG 1.1//EN"
 "http://www.w3.org/Graphics/SVG/1.1/DTD/svg11.dtd">
<!-- Generated by graphviz version 2.43.0 (0)
 -->
<!-- Title: CategorizationDesign Pages: 1 -->
<svg width="861pt" height="782pt"
 viewBox="0.00 0.00 861.05 781.74" xmlns="http://www.w3.org/2000/svg" xmlns:xlink="http://www.w3.org/1999/xlink">
<g id="graph0" class="graph" transform="scale(1 1) rotate(0) translate(4 777.74)">
<title>CategorizationDesign</title>
<polygon fill="white" stroke="transparent" points="-4,4 -4,-777.74 857.05,-777.74 857.05,4 -4,4"/>
<!-- alarm -->
<g id="node1" class="node">
<title>alarm</title>
<text text-anchor="middle" x="55" y="-410.17" font-family="Times,serif" font-size="14.00">Periodic Wakeup</text>
</g>
<!-- scan -->
<g id="node2" class="node">
<title>scan</title>
<ellipse fill="none" stroke="black" cx="199.74" cy="-413.87" rx="53.98" ry="53.98"/>
<text text-anchor="middle" x="199.74" y="-417.67" font-family="Times,serif" font-size="14.00">Scan for</text>
<text text-anchor="middle" x="199.74" y="-402.67" font-family="Times,serif" font-size="14.00">Signal File</text>
</g>
<!-- alarm&#45;&gt;scan -->
<g id="edge1" class="edge">
<title>alarm&#45;&gt;scan</title>
<path fill="none" stroke="black" stroke-dasharray="5,2" d="M110.13,-413.87C110.13,-413.87 135.72,-413.87 135.72,-413.87"/>
<polygon fill="black" stroke="black" points="135.72,-417.37 145.72,-413.87 135.72,-410.37 135.72,-417.37"/>
</g>
<!-- l1_man -->
<g id="node5" class="node">
<title>l1_man</title>
<ellipse fill="none" stroke="black" cx="359.02" cy="-413.87" rx="69.59" ry="18"/>
<text text-anchor="middle" x="359.02" y="-410.17" font-family="Times,serif" font-size="14.00">L1 manifest 1..1</text>
</g>
<!-- scan&#45;&gt;l1_man -->
<g id="edge2" class="edge">
<title>scan&#45;&gt;l1_man</title>
<path fill="none" stroke="black" d="M253.67,-413.87C253.67,-413.87 279.34,-413.87 279.34,-413.87"/>
<polygon fill="black" stroke="black" points="279.34,-417.37 289.34,-413.87 279.34,-410.37 279.34,-417.37"/>
</g>
<!-- sort -->
<g id="node3" class="node">
<title>sort</title>
<ellipse fill="none" stroke="black" cx="526.96" cy="-386.87" rx="62.29" ry="62.29"/>
<text text-anchor="middle" x="526.96" y="-383.17" font-family="Times,serif" font-size="14.00">Categorization</text>
</g>
<!-- l1_cal_a_man -->
<g id="node6" class="node">
<title>l1_cal_a_man</title>
<ellipse fill="none" stroke="black" cx="739.2" cy="-746.87" rx="101.23" ry="26.74"/>
<text text-anchor="middle" x="739.2" y="-750.67" font-family="Times,serif" font-size="14.00">L1_cal_a manifest 1..1</text>
<text text-anchor="middle" x="739.2" y="-735.67" font-family="Times,serif" font-size="14.00">of 0..a files</text>
</g>
<!-- sort&#45;&gt;l1_cal_a_man -->
<g id="edge5" class="edge">
<title>sort&#45;&gt;l1_cal_a_man</title>
<path fill="none" stroke="black" d="M490.05,-437.31C490.05,-536.38 490.05,-746.87 490.05,-746.87 490.05,-746.87 627.86,-746.87 627.86,-746.87"/>
<polygon fill="black" stroke="black" points="627.86,-750.37 637.86,-746.87 627.86,-743.37 627.86,-750.37"/>
</g>
<!-- l1_eng_a_man -->
<g id="node7" class="node">
<title>l1_eng_a_man</title>
<ellipse fill="none" stroke="black" cx="739.2" cy="-674.87" rx="103.48" ry="26.74"/>
<text text-anchor="middle" x="739.2" y="-678.67" font-family="Times,serif" font-size="14.00">L1_eng_a manifest 1..1</text>
<text text-anchor="middle" x="739.2" y="-663.67" font-family="Times,serif" font-size="14.00">of 0..b files</text>
</g>
<!-- sort&#45;&gt;l1_eng_a_man -->
<g id="edge6" class="edge">
<title>sort&#45;&gt;l1_eng_a_man</title>
<path fill="none" stroke="black" d="M515.05,-448.3C515.05,-532.88 515.05,-674.87 515.05,-674.87 515.05,-674.87 625.65,-674.87 625.65,-674.87"/>
<polygon fill="black" stroke="black" points="625.65,-678.37 635.65,-674.87 625.65,-671.37 625.65,-678.37"/>
</g>
<!-- l1_nfov_a_man -->
<g id="node8" class="node">
<title>l1_nfov_a_man</title>
<ellipse fill="none" stroke="black" cx="739.2" cy="-602.87" rx="107.46" ry="26.74"/>
<text text-anchor="middle" x="739.2" y="-606.67" font-family="Times,serif" font-size="14.00">L1_nfov_a manifest 1..1</text>
<text text-anchor="middle" x="739.2" y="-591.67" font-family="Times,serif" font-size="14.00">of 0..c files</text>
</g>
<!-- sort&#45;&gt;l1_nfov_a_man -->
<g id="edge7" class="edge">
<title>sort&#45;&gt;l1_nfov_a_man</title>
<path fill="none" stroke="black" d="M540.05,-447.9C540.05,-511.77 540.05,-602.87 540.05,-602.87 540.05,-602.87 621.46,-602.87 621.46,-602.87"/>
<polygon fill="black" stroke="black" points="621.46,-606.37 631.46,-602.87 621.46,-599.37 621.46,-606.37"/>
</g>
<!-- l1_nfov_pc_man -->
<g id="node9" class="node">
<title>l1_nfov_pc_man</title>
<ellipse fill="none" stroke="black" cx="739.2" cy="-530.87" rx="111.95" ry="26.74"/>
<text text-anchor="middle" x="739.2" y="-534.67" font-family="Times,serif" font-size="14.00">L1_nfov_pc manifest 1..1</text>
<text text-anchor="middle" x="739.2" y="-519.67" font-family="Times,serif" font-size="14.00">of 0..d files</text>
</g>
<!-- sort&#45;&gt;l1_nfov_pc_man -->
<g id="edge8" class="edge">
<title>sort&#45;&gt;l1_nfov_pc_man</title>
<path fill="none" stroke="black" d="M565.05,-436.43C565.05,-478.08 565.05,-530.87 565.05,-530.87 565.05,-530.87 617.43,-530.87 617.43,-530.87"/>
<polygon fill="black" stroke="black" points="617.43,-534.37 627.43,-530.87 617.43,-527.37 617.43,-534.37"/>
</g>
<!-- l1_pol_a_man -->
<g id="node10" class="node">
<title>l1_pol_a_man</title>
<ellipse fill="none" stroke="black" cx="739.2" cy="-458.87" rx="101.65" ry="26.74"/>
<text text-anchor="middle" x="739.2" y="-462.67" font-family="Times,serif" font-size="14.00">L1_pol_a manifest 1..1</text>
<text text-anchor="middle" x="739.2" y="-447.67" font-family="Times,serif" font-size="14.00">of 0..e files</text>
</g>
<!-- sort&#45;&gt;l1_pol_a_man -->
<g id="edge9" class="edge">
<title>sort&#45;&gt;l1_pol_a_man</title>
<path fill="none" stroke="black" d="M558.74,-440.63C558.74,-440.63 654.02,-440.63 654.02,-440.63"/>
<polygon fill="black" stroke="black" points="654.02,-444.13 664.02,-440.63 654.02,-437.13 654.02,-444.13"/>
</g>
<!-- l1_pol_pc_man -->
<g id="node11" class="node">
<title>l1_pol_pc_man</title>
<ellipse fill="none" stroke="black" cx="739.2" cy="-386.87" rx="106.55" ry="26.74"/>
<text text-anchor="middle" x="739.2" y="-390.67" font-family="Times,serif" font-size="14.00">L1_pol_pc manifest 1..1</text>
<text text-anchor="middle" x="739.2" y="-375.67" font-family="Times,serif" font-size="14.00">of 0..f files</text>
</g>
<!-- sort&#45;&gt;l1_pol_pc_man -->
<g id="edge10" class="edge">
<title>sort&#45;&gt;l1_pol_pc_man</title>
<path fill="none" stroke="black" d="M589.49,-386.87C589.49,-386.87 622.13,-386.87 622.13,-386.87"/>
<polygon fill="black" stroke="black" points="622.13,-390.37 632.13,-386.87 622.13,-383.37 622.13,-390.37"/>
</g>
<!-- l1_spy_a_man -->
<g id="node12" class="node">
<title>l1_spy_a_man</title>
<ellipse fill="none" stroke="black" cx="739.2" cy="-314.87" rx="103.48" ry="26.74"/>
<text text-anchor="middle" x="739.2" y="-318.67" font-family="Times,serif" font-size="14.00">L1_spy_a manifest 1..1</text>
<text text-anchor="middle" x="739.2" y="-303.67" font-family="Times,serif" font-size="14.00">of 0..g files</text>
</g>
<!-- sort&#45;&gt;l1_spy_a_man -->
<g id="edge11" class="edge">
<title>sort&#45;&gt;l1_spy_a_man</title>
<path fill="none" stroke="black" d="M558.74,-333.11C558.74,-333.11 653.11,-333.11 653.11,-333.11"/>
<polygon fill="black" stroke="black" points="653.11,-336.61 663.11,-333.11 653.11,-329.61 653.11,-336.61"/>
</g>
<!-- l1_spy_pc_man -->
<g id="node13" class="node">
<title>l1_spy_pc_man</title>
<ellipse fill="none" stroke="black" cx="739.2" cy="-242.87" rx="107.46" ry="26.74"/>
<text text-anchor="middle" x="739.2" y="-246.67" font-family="Times,serif" font-size="14.00">L1_spy_pc manifest 1..1</text>
<text text-anchor="middle" x="739.2" y="-231.67" font-family="Times,serif" font-size="14.00">of 0..h files</text>
</g>
<!-- sort&#45;&gt;l1_spy_pc_man -->
<g id="edge12" class="edge">
<title>sort&#45;&gt;l1_spy_pc_man</title>
<path fill="none" stroke="black" d="M565.05,-337.31C565.05,-295.66 565.05,-242.87 565.05,-242.87 565.05,-242.87 621.38,-242.87 621.38,-242.87"/>
<polygon fill="black" stroke="black" points="621.38,-246.37 631.38,-242.87 621.38,-239.37 621.38,-246.37"/>
</g>
<!-- l1_wfov_a_man -->
<g id="node14" class="node">
<title>l1_wfov_a_man</title>
<ellipse fill="none" stroke="black" cx="739.2" cy="-170.87" rx="109.7" ry="26.74"/>
<text text-anchor="middle" x="739.2" y="-174.67" font-family="Times,serif" font-size="14.00">L1_wfov_a manifest 1..1</text>
<text text-anchor="middle" x="739.2" y="-159.67" font-family="Times,serif" font-size="14.00">of 0..i files</text>
</g>
<!-- sort&#45;&gt;l1_wfov_a_man -->
<g id="edge13" class="edge">
<title>sort&#45;&gt;l1_wfov_a_man</title>
<path fill="none" stroke="black" d="M540.05,-325.84C540.05,-261.97 540.05,-170.87 540.05,-170.87 540.05,-170.87 619.43,-170.87 619.43,-170.87"/>
<polygon fill="black" stroke="black" points="619.43,-174.37 629.43,-170.87 619.43,-167.37 619.43,-174.37"/>
</g>
<!-- l1_wfov_pc_man -->
<g id="node15" class="node">
<title>l1_wfov_pc_man</title>
<ellipse fill="none" stroke="black" cx="739.2" cy="-98.87" rx="113.69" ry="26.74"/>
<text text-anchor="middle" x="739.2" y="-102.67" font-family="Times,serif" font-size="14.00">L1_wfov_pc manifest 1..1</text>
<text text-anchor="middle" x="739.2" y="-87.67" font-family="Times,serif" font-size="14.00">of 0..j files</text>
</g>
<!-- sort&#45;&gt;l1_wfov_pc_man -->
<g id="edge14" class="edge">
<title>sort&#45;&gt;l1_wfov_pc_man</title>
<path fill="none" stroke="black" d="M515.05,-325.44C515.05,-240.86 515.05,-98.87 515.05,-98.87 515.05,-98.87 615.15,-98.87 615.15,-98.87"/>
<polygon fill="black" stroke="black" points="615.15,-102.37 625.15,-98.87 615.15,-95.37 615.15,-102.37"/>
</g>
<!-- l1_unk_man -->
<g id="node16" class="node">
<title>l1_unk_man</title>
<ellipse fill="none" stroke="black" cx="739.2" cy="-26.87" rx="94.51" ry="26.74"/>
<text text-anchor="middle" x="739.2" y="-30.67" font-family="Times,serif" font-size="14.00">L1_unk manifest 1..1</text>
<text text-anchor="middle" x="739.2" y="-15.67" font-family="Times,serif" font-size="14.00">of 0..k files</text>
</g>
<!-- sort&#45;&gt;l1_unk_man -->
<g id="edge15" class="edge">
<title>sort&#45;&gt;l1_unk_man</title>
<path fill="none" stroke="black" d="M490.05,-336.43C490.05,-237.36 490.05,-26.87 490.05,-26.87 490.05,-26.87 634.3,-26.87 634.3,-26.87"/>
<polygon fill="black" stroke="black" points="634.3,-30.37 644.3,-26.87 634.3,-23.37 634.3,-30.37"/>
</g>
<!-- l1_data -->
<g id="node4" class="node">
<title>l1_data</title>
<polygon fill="none" stroke="black" points="414.02,-377.87 304.02,-377.87 304.02,-341.87 414.02,-341.87 414.02,-377.87"/>
<text text-anchor="middle" x="359.02" y="-356.17" font-family="Times,serif" font-size="14.00">L1 products 1..N</text>
</g>
<!-- l1_data&#45;&gt;sort -->
<g id="edge3" class="edge">
<title>l1_data&#45;&gt;sort</title>
<path fill="none" stroke="black" stroke-dasharray="5,2" d="M414.48,-359.87C414.48,-359.87 460.7,-359.87 460.7,-359.87"/>
<polygon fill="black" stroke="black" points="460.7,-363.37 470.7,-359.87 460.7,-356.37 460.7,-363.37"/>
</g>
<!-- l1_man&#45;&gt;sort -->
<g id="edge4" class="edge">
<title>l1_man&#45;&gt;sort</title>
<path fill="none" stroke="black" d="M428.79,-413.87C428.79,-413.87 460.7,-413.87 460.7,-413.87"/>
<polygon fill="black" stroke="black" points="460.7,-417.37 470.7,-413.87 460.7,-410.37 460.7,-417.37"/>
</g>
</g>
</svg>
