<?xml version="1.0" encoding="UTF-8" standalone="no"?>
<!DOCTYPE svg PUBLIC "-//W3C//DTD SVG 1.1//EN"
 "http://www.w3.org/Graphics/SVG/1.1/DTD/svg11.dtd">
<!-- Generated by graphviz version 2.43.0 (0)
 -->
<!-- Title: CategorizationDesign Pages: 1 -->
<svg width="1029pt" height="782pt"
 viewBox="0.00 0.00 1028.59 781.74" xmlns="http://www.w3.org/2000/svg" xmlns:xlink="http://www.w3.org/1999/xlink">
<g id="graph0" class="graph" transform="scale(1 1) rotate(0) translate(4 777.74)">
<title>CategorizationDesign</title>
<polygon fill="white" stroke="transparent" points="-4,4 -4,-777.74 1024.59,-777.74 1024.59,4 -4,4"/>
<!-- alarm -->
<g id="node1" class="node">
<title>alarm</title>
<text text-anchor="middle" x="67.5" y="-410.17" font-family="Times,serif" font-size="14.00">Periodic Wakeup</text>
</g>
<!-- scan -->
<g id="node2" class="node">
<title>scan</title>
<ellipse fill="none" stroke="black" cx="236.76" cy="-413.87" rx="65.52" ry="65.52"/>
<text text-anchor="middle" x="236.76" y="-417.67" font-family="Times,serif" font-size="14.00">Scan for</text>
<text text-anchor="middle" x="236.76" y="-402.67" font-family="Times,serif" font-size="14.00">Signal File</text>
</g>
<!-- alarm&#45;&gt;scan -->
<g id="edge1" class="edge">
<title>alarm&#45;&gt;scan</title>
<path fill="none" stroke="black" stroke-dasharray="5,2" d="M135.37,-413.87C135.37,-413.87 160.8,-413.87 160.8,-413.87"/>
<polygon fill="black" stroke="black" points="160.8,-417.37 170.8,-413.87 160.8,-410.37 160.8,-417.37"/>
</g>
<!-- l1_man -->
<g id="node5" class="node">
<title>l1_man</title>
<ellipse fill="none" stroke="black" cx="424.96" cy="-413.87" rx="86.38" ry="18"/>
<text text-anchor="middle" x="424.96" y="-410.17" font-family="Times,serif" font-size="14.00">L1 manifest 1..1</text>
</g>
<!-- scan&#45;&gt;l1_man -->
<g id="edge2" class="edge">
<title>scan&#45;&gt;l1_man</title>
<path fill="none" stroke="black" d="M302.59,-413.87C302.59,-413.87 328.34,-413.87 328.34,-413.87"/>
<polygon fill="black" stroke="black" points="328.34,-417.37 338.34,-413.87 328.34,-410.37 328.34,-417.37"/>
</g>
<!-- sort -->
<g id="node3" class="node">
<title>sort</title>
<ellipse fill="none" stroke="black" cx="626.7" cy="-386.87" rx="79.09" ry="79.09"/>
<text text-anchor="middle" x="626.7" y="-383.17" font-family="Times,serif" font-size="14.00">Categorization</text>
</g>
<!-- l1_cal_a_man -->
<g id="node6" class="node">
<title>l1_cal_a_man</title>
<ellipse fill="none" stroke="black" cx="881.29" cy="-746.87" rx="123.99" ry="26.74"/>
<text text-anchor="middle" x="881.29" y="-750.67" font-family="Times,serif" font-size="14.00">L1_cal_a manifest 1..1</text>
<text text-anchor="middle" x="881.29" y="-735.67" font-family="Times,serif" font-size="14.00">of 0..a files</text>
</g>
<!-- sort&#45;&gt;l1_cal_a_man -->
<g id="edge5" class="edge">
<title>sort&#45;&gt;l1_cal_a_man</title>
<path fill="none" stroke="black" d="M579.59,-450.82C579.59,-554.27 579.59,-746.87 579.59,-746.87 579.59,-746.87 747.27,-746.87 747.27,-746.87"/>
<polygon fill="black" stroke="black" points="747.27,-750.37 757.27,-746.87 747.27,-743.37 747.27,-750.37"/>
</g>
<!-- l1_eng_a_man -->
<g id="node7" class="node">
<title>l1_eng_a_man</title>
<ellipse fill="none" stroke="black" cx="881.29" cy="-674.87" rx="127.97" ry="26.74"/>
<text text-anchor="middle" x="881.29" y="-678.67" font-family="Times,serif" font-size="14.00">L1_eng_a manifest 1..1</text>
<text text-anchor="middle" x="881.29" y="-663.67" font-family="Times,serif" font-size="14.00">of 0..b files</text>
</g>
<!-- sort&#45;&gt;l1_eng_a_man -->
<g id="edge6" class="edge">
<title>sort&#45;&gt;l1_eng_a_man</title>
<path fill="none" stroke="black" d="M611.59,-464.81C611.59,-550.1 611.59,-674.87 611.59,-674.87 611.59,-674.87 743.16,-674.87 743.16,-674.87"/>
<polygon fill="black" stroke="black" points="743.16,-678.37 753.16,-674.87 743.16,-671.37 743.16,-678.37"/>
</g>
<!-- l1_nfov_a_man -->
<g id="node8" class="node">
<title>l1_nfov_a_man</title>
<ellipse fill="none" stroke="black" cx="881.29" cy="-602.87" rx="130.63" ry="26.74"/>
<text text-anchor="middle" x="881.29" y="-606.67" font-family="Times,serif" font-size="14.00">L1_nfov_a manifest 1..1</text>
<text text-anchor="middle" x="881.29" y="-591.67" font-family="Times,serif" font-size="14.00">of 0..c files</text>
</g>
<!-- sort&#45;&gt;l1_nfov_a_man -->
<g id="edge7" class="edge">
<title>sort&#45;&gt;l1_nfov_a_man</title>
<path fill="none" stroke="black" d="M642.59,-464.85C642.59,-526.72 642.59,-602.87 642.59,-602.87 642.59,-602.87 740.42,-602.87 740.42,-602.87"/>
<polygon fill="black" stroke="black" points="740.42,-606.37 750.42,-602.87 740.42,-599.37 740.42,-606.37"/>
</g>
<!-- l1_nfov_pc_man -->
<g id="node9" class="node">
<title>l1_nfov_pc_man</title>
<ellipse fill="none" stroke="black" cx="881.29" cy="-530.87" rx="137.36" ry="26.74"/>
<text text-anchor="middle" x="881.29" y="-534.67" font-family="Times,serif" font-size="14.00">L1_nfov_pc manifest 1..1</text>
<text text-anchor="middle" x="881.29" y="-519.67" font-family="Times,serif" font-size="14.00">of 0..d files</text>
</g>
<!-- sort&#45;&gt;l1_nfov_pc_man -->
<g id="edge8" class="edge">
<title>sort&#45;&gt;l1_nfov_pc_man</title>
<path fill="none" stroke="black" d="M674.59,-450.45C674.59,-489.03 674.59,-530.87 674.59,-530.87 674.59,-530.87 734,-530.87 734,-530.87"/>
<polygon fill="black" stroke="black" points="734,-534.37 744,-530.87 734,-527.37 734,-534.37"/>
</g>
<!-- l1_pol_a_man -->
<g id="node10" class="node">
<title>l1_pol_a_man</title>
<ellipse fill="none" stroke="black" cx="881.29" cy="-458.87" rx="124.4" ry="26.74"/>
<text text-anchor="middle" x="881.29" y="-462.67" font-family="Times,serif" font-size="14.00">L1_pol_a manifest 1..1</text>
<text text-anchor="middle" x="881.29" y="-447.67" font-family="Times,serif" font-size="14.00">of 0..e files</text>
</g>
<!-- sort&#45;&gt;l1_pol_a_man -->
<g id="edge9" class="edge">
<title>sort&#45;&gt;l1_pol_a_man</title>
<path fill="none" stroke="black" d="M676.09,-449.08C676.09,-449.08 755.31,-449.08 755.31,-449.08"/>
<polygon fill="black" stroke="black" points="755.31,-452.58 765.31,-449.08 755.31,-445.58 755.31,-452.58"/>
</g>
<!-- l1_pol_pc_man -->
<g id="node11" class="node">
<title>l1_pol_pc_man</title>
<ellipse fill="none" stroke="black" cx="881.29" cy="-386.87" rx="130.63" ry="26.74"/>
<text text-anchor="middle" x="881.29" y="-390.67" font-family="Times,serif" font-size="14.00">L1_pol_pc manifest 1..1</text>
<text text-anchor="middle" x="881.29" y="-375.67" font-family="Times,serif" font-size="14.00">of 0..f files</text>
</g>
<!-- sort&#45;&gt;l1_pol_pc_man -->
<g id="edge10" class="edge">
<title>sort&#45;&gt;l1_pol_pc_man</title>
<path fill="none" stroke="black" d="M706.21,-386.87C706.21,-386.87 740.1,-386.87 740.1,-386.87"/>
<polygon fill="black" stroke="black" points="740.1,-390.37 750.1,-386.87 740.1,-383.37 740.1,-390.37"/>
</g>
<!-- l1_spy_a_man -->
<g id="node12" class="node">
<title>l1_spy_a_man</title>
<ellipse fill="none" stroke="black" cx="881.29" cy="-314.87" rx="126.64" ry="26.74"/>
<text text-anchor="middle" x="881.29" y="-318.67" font-family="Times,serif" font-size="14.00">L1_spy_a manifest 1..1</text>
<text text-anchor="middle" x="881.29" y="-303.67" font-family="Times,serif" font-size="14.00">of 0..g files</text>
</g>
<!-- sort&#45;&gt;l1_spy_a_man -->
<g id="edge11" class="edge">
<title>sort&#45;&gt;l1_spy_a_man</title>
<path fill="none" stroke="black" d="M676.09,-324.66C676.09,-324.66 753.18,-324.66 753.18,-324.66"/>
<polygon fill="black" stroke="black" points="753.18,-328.16 763.18,-324.66 753.18,-321.16 753.18,-328.16"/>
</g>
<!-- l1_spy_pc_man -->
<g id="node13" class="node">
<title>l1_spy_pc_man</title>
<ellipse fill="none" stroke="black" cx="881.29" cy="-242.87" rx="132.87" ry="26.74"/>
<text text-anchor="middle" x="881.29" y="-246.67" font-family="Times,serif" font-size="14.00">L1_spy_pc manifest 1..1</text>
<text text-anchor="middle" x="881.29" y="-231.67" font-family="Times,serif" font-size="14.00">of 0..h files</text>
</g>
<!-- sort&#45;&gt;l1_spy_pc_man -->
<g id="edge12" class="edge">
<title>sort&#45;&gt;l1_spy_pc_man</title>
<path fill="none" stroke="black" d="M674.59,-323.29C674.59,-284.71 674.59,-242.87 674.59,-242.87 674.59,-242.87 738.34,-242.87 738.34,-242.87"/>
<polygon fill="black" stroke="black" points="738.34,-246.37 748.34,-242.87 738.34,-239.37 738.34,-246.37"/>
</g>
<!-- l1_wfov_a_man -->
<g id="node14" class="node">
<title>l1_wfov_a_man</title>
<ellipse fill="none" stroke="black" cx="881.29" cy="-170.87" rx="132.87" ry="26.74"/>
<text text-anchor="middle" x="881.29" y="-174.67" font-family="Times,serif" font-size="14.00">L1_wfov_a manifest 1..1</text>
<text text-anchor="middle" x="881.29" y="-159.67" font-family="Times,serif" font-size="14.00">of 0..i files</text>
</g>
<!-- sort&#45;&gt;l1_wfov_a_man -->
<g id="edge13" class="edge">
<title>sort&#45;&gt;l1_wfov_a_man</title>
<path fill="none" stroke="black" d="M642.59,-308.89C642.59,-247.02 642.59,-170.87 642.59,-170.87 642.59,-170.87 738.33,-170.87 738.33,-170.87"/>
<polygon fill="black" stroke="black" points="738.33,-174.37 748.33,-170.87 738.33,-167.37 738.33,-174.37"/>
</g>
<!-- l1_wfov_pc_man -->
<g id="node15" class="node">
<title>l1_wfov_pc_man</title>
<ellipse fill="none" stroke="black" cx="881.29" cy="-98.87" rx="139.1" ry="26.74"/>
<text text-anchor="middle" x="881.29" y="-102.67" font-family="Times,serif" font-size="14.00">L1_wfov_pc manifest 1..1</text>
<text text-anchor="middle" x="881.29" y="-87.67" font-family="Times,serif" font-size="14.00">of 0..j files</text>
</g>
<!-- sort&#45;&gt;l1_wfov_pc_man -->
<g id="edge14" class="edge">
<title>sort&#45;&gt;l1_wfov_pc_man</title>
<path fill="none" stroke="black" d="M611.59,-308.93C611.59,-223.64 611.59,-98.87 611.59,-98.87 611.59,-98.87 731.7,-98.87 731.7,-98.87"/>
<polygon fill="black" stroke="black" points="731.7,-102.37 741.7,-98.87 731.7,-95.37 731.7,-102.37"/>
</g>
<!-- l1_unk_man -->
<g id="node16" class="node">
<title>l1_unk_man</title>
<ellipse fill="none" stroke="black" cx="881.29" cy="-26.87" rx="117.26" ry="26.74"/>
<text text-anchor="middle" x="881.29" y="-30.67" font-family="Times,serif" font-size="14.00">L1_unk manifest 1..1</text>
<text text-anchor="middle" x="881.29" y="-15.67" font-family="Times,serif" font-size="14.00">of 0..k files</text>
</g>
<!-- sort&#45;&gt;l1_unk_man -->
<g id="edge15" class="edge">
<title>sort&#45;&gt;l1_unk_man</title>
<path fill="none" stroke="black" d="M579.59,-322.92C579.59,-219.47 579.59,-26.87 579.59,-26.87 579.59,-26.87 753.78,-26.87 753.78,-26.87"/>
<polygon fill="black" stroke="black" points="753.78,-30.37 763.78,-26.87 753.78,-23.37 753.78,-30.37"/>
</g>
<!-- l1_data -->
<g id="node4" class="node">
<title>l1_data</title>
<polygon fill="none" stroke="black" points="493.46,-377.87 356.46,-377.87 356.46,-341.87 493.46,-341.87 493.46,-377.87"/>
<text text-anchor="middle" x="424.96" y="-356.17" font-family="Times,serif" font-size="14.00">L1 products 1..N</text>
</g>
<!-- l1_data&#45;&gt;sort -->
<g id="edge3" class="edge">
<title>l1_data&#45;&gt;sort</title>
<path fill="none" stroke="black" stroke-dasharray="5,2" d="M493.54,-359.87C493.54,-359.87 542.09,-359.87 542.09,-359.87"/>
<polygon fill="black" stroke="black" points="542.09,-363.37 552.09,-359.87 542.09,-356.37 542.09,-363.37"/>
</g>
<!-- l1_man&#45;&gt;sort -->
<g id="edge4" class="edge">
<title>l1_man&#45;&gt;sort</title>
<path fill="none" stroke="black" d="M511.69,-413.87C511.69,-413.87 542.1,-413.87 542.1,-413.87"/>
<polygon fill="black" stroke="black" points="542.1,-417.37 552.1,-413.87 542.1,-410.37 542.1,-417.37"/>
</g>
</g>
</svg>
